<svg xmlns="http://www.w3.org/2000/svg" xmlns:xlink="http://www.w3.org/1999/xlink" viewBox="0 0 512 512" width="512" height="512" style="width: 100%; height: 100%; transform: translate3d(0,0,0);" preserveAspectRatio="xMidYMid meet"><defs><clipPath id="__lottie_element_27169"><rect width="512" height="512" x="0" y="0"></rect></clipPath></defs><g clip-path="url(#__lottie_element_27169)"><g style="display: block;" transform="matrix(1,0,0,1,0,0)" opacity="1"><g opacity="1" transform="matrix(1,0,0,1,127.6709976196289,308.2879943847656)"><path fill="rgb(4,5,52)" fill-opacity="1" d=" M-65.71099853515625,14.5649995803833 C-120.7699966430664,14.282999992370605 -142.3820037841797,-67.02899932861328 -71.63999938964844,-118.4229965209961 C-5.570000171661377,-166.42300415039062 57.11899948120117,-129.76600646972656 72.36000061035156,-109.9520034790039 C91.18299865722656,-85.48100280761719 93.53600311279297,-40.49300003051758 74.9010009765625,-5.763999938964844 C74.9010009765625,-5.763999938964844 96.92500305175781,-19.31800079345703 116.40699768066406,-11.694000244140625 C116.40699768066406,-11.694000244140625 72.36000061035156,109.43599700927734 72.36000061035156,109.43599700927734 C72.36000061035156,109.43599700927734 1.2070000171661377,156.8699951171875 -39.45199966430664,137.38800048828125 C-80.11100006103516,117.90599822998047 -62.323001861572266,52.68299865722656 -36.06399917602539,24.729999542236328 C-36.06399917602539,24.729999542236328 -0.6759999990463257,21.434999465942383 2.3359999656677246,-18.847000122070312 C5.3480000495910645,-59.12900161743164 -17.615999221801758,-70.80000305175781 -23.639999389648438,-69.29399871826172 C-29.663999557495117,-67.78800201416016 -11.593000411987305,-47.834999084472656 -16.86400032043457,-20.729000091552734 C-21.88599967956543,5.099999904632568 -45.54800033569336,14.668000221252441 -65.71099853515625,14.5649995803833z"></path></g><g opacity="1" transform="matrix(1,0,0,1,281.10400390625,330.97100830078125)"><path fill="rgb(4,5,52)" fill-opacity="1" d=" M-54.720001220703125,-69.01300048828125 C-51.446998596191406,-55.2869987487793 -40.0369987487793,-48.683998107910156 -20.461000442504883,-51.319000244140625 C-20.461000442504883,-51.319000244140625 -65.49400329589844,81.88200378417969 -70.53099822998047,99.26899719238281 C-82.2020034790039,139.55099487304688 14.36299991607666,150.84500122070312 29.045000076293945,99.26899719238281 C40.44300079345703,59.229000091552734 73.65699768066406,-99.31900024414062 71.39800262451172,-119.64800262451172 C69.13899993896484,-139.9770050048828 13.79800033569336,-134.89500427246094 -11.048999786376953,-126.42400360107422 C-35.895999908447266,-117.9530029296875 -60.55500030517578,-93.48400115966797 -54.720001220703125,-69.01300048828125z"></path></g><g opacity="1" transform="matrix(1,0,0,1,391.55499267578125,246.7570037841797)"><path fill="rgb(4,5,52)" fill-opacity="1" d=" M-6.864999771118164,-111.66899871826172 C-10.817999839782715,-109.41000366210938 5.558000087738037,-78.91600036621094 -19.854000091552734,-59.715999603271484 C-43.88600158691406,-41.55799865722656 -106.25399780273438,-55.762001037597656 -101.73600006103516,-106.02100372314453 C-97.21800231933594,-156.27999877929688 -28.323999404907227,-186.2100067138672 27.582000732421875,-161.36300659179688 C83.48799896240234,-136.51600646972656 101.55799865722656,-66.49199676513672 52.42900085449219,-12.279999732971191 C52.42900085449219,-12.279999732971191 116.9280014038086,15.553999900817871 98.73400115966797,90.49600219726562 C75.01599884033203,188.19000244140625 -38.48899841308594,171.81300354003906 -53.17100143432617,164.4720001220703 C-67.85299682617188,157.13099670410156 -50.9119987487793,83.15399932861328 -43.00600051879883,79.76599884033203 C-35.099998474121094,76.37799835205078 -20.417999267578125,98.4020004272461 2.734999895095825,78.63700103759766 C25.88800048828125,58.87200164794922 20.805999755859375,27.81399917602539 -23.805999755859375,24.989999771118164 C-33.452999114990234,24.378999710083008 -35.867000579833984,-14.095999717712402 -20.062000274658203,-20.326000213623047 C18.263999938964844,-35.43299865722656 18.82900047302246,-66.43599700927734 15.440999984741211,-80.55400085449219 C10.142999649047852,-102.62799835205078 -2.424999952316284,-114.20600128173828 -6.864999771118164,-111.66899871826172z"></path></g></g></g></svg>