<svg xmlns="http://www.w3.org/2000/svg" xmlns:xlink="http://www.w3.org/1999/xlink" viewBox="0 0 512 512" width="512" height="512" style="width: 100%; height: 100%; transform: translate3d(0,0,0);" preserveAspectRatio="xMidYMid meet"><defs><clipPath id="__lottie_element_53259"><rect width="512" height="512" x="0" y="0"></rect></clipPath></defs><g clip-path="url(#__lottie_element_53259)"><g style="display: block;" transform="matrix(1,0,0,1,5.282012939453125,16.634002685546875)" opacity="1"><g opacity="1" transform="matrix(1,0,0,1,252.72900390625,153.20399475097656)"><path fill="rgb(0,0,0)" fill-opacity="1" d=" M-243.01100158691406,69.16100311279297 C-239.01100158691406,52.1609992980957 -28.01099967956543,-152.72300720214844 2.989000082015991,-152.83900451660156 C33.98899841308594,-152.9550018310547 245.98899841308594,58.99300003051758 245.98899841308594,74.16100311279297 C245.98899841308594,86.16100311279297 167.0279998779297,152.95399475097656 163.98899841308594,133.16099548339844 C157.7689971923828,92.66100311279297 149.1199951171875,64.88500213623047 119.51399993896484,43.99300003051758 C72.98899841308594,11.16100025177002 -78.83399963378906,17.381000518798828 -122.01100158691406,52.1619987487793 C-158.01100158691406,81.16200256347656 -150.9759979248047,135.57699584960938 -161.01100158691406,139.16099548339844 C-175.01100158691406,144.16099548339844 -245.99000549316406,81.82099914550781 -243.01100158691406,69.16100311279297z"></path></g><g opacity="1" transform="matrix(1,0,0,1,47.71699905395508,339.77801513671875)"><path fill="rgb(0,0,0)" fill-opacity="1" d=" M-15.99899959564209,-112.41200256347656 C-22.110000610351562,-93.91200256347656 -9.84000015258789,-47.12699890136719 -15.99899959564209,-22.41200065612793 C-19.268999099731445,-9.289999961853027 -28.211000442504883,-10.144000053405762 -28.999000549316406,3.5880000591278076 C-30.089000701904297,22.58799934387207 -26.312999725341797,17.836999893188477 -22.999000549316406,27.58799934387207 C-14.425000190734863,52.81399917602539 -47.46699905395508,74.89600372314453 -40.999000549316406,97.58799743652344 C-36.31800079345703,114.01100158691406 -16.413999557495117,121.10700225830078 2.000999927520752,120.58799743652344 C22.518999099731445,120.01000213623047 41.263999938964844,110.3270034790039 44.000999450683594,93.58799743652344 C47.46799850463867,72.38400268554688 18.631999969482422,55.637001037597656 24.000999450683594,32.5880012512207 C26.458999633789062,22.034000396728516 29.864999771118164,24.742000579833984 32.000999450683594,6.5879998207092285 C34.000999450683594,-10.411999702453613 23.11199951171875,-8.21500015258789 18.000999450683594,-21.41200065612793 C11.76200008392334,-37.52199935913086 15.00100040435791,-87.41200256347656 17.000999450683594,-111.41200256347656 C17.777999877929688,-120.73699951171875 -13.126999855041504,-121.10700225830078 -15.99899959564209,-112.41200256347656z"></path></g><g opacity="1" transform="matrix(1,0,0,1,258.7080078125,303.37200927734375)"><path fill="rgb(0,0,0)" fill-opacity="1" d=" M-134.99000549316406,-57.00600051879883 C-142.64599609375,-37.6609992980957 -144.02999877929688,63.79800033569336 -134.99000549316406,56.99399948120117 C-54.9900016784668,-3.2139999866485596 101.01000213623047,30.993999481201172 101.01000213623047,40.99399948120117 C101.01000213623047,51.76499938964844 -7.989999771118164,76.99400329589844 -72.98999786376953,69.99400329589844 C-86.3949966430664,68.5510025024414 -81.98999786376953,84.99400329589844 -70.98999786376953,89.99400329589844 C-31.833999633789062,107.79199981689453 112.34200286865234,105.28700256347656 133.00999450683594,60.99399948120117 C144.031005859375,37.374000549316406 137.77699279785156,-39.40599822998047 124.01000213623047,-60.00600051879883 C97.81400299072266,-99.20500183105469 44.637001037597656,-107.79199981689453 -8.989999771118164,-105.00599670410156 C-60.28799819946289,-102.34100341796875 -124.98999786376953,-82.27300262451172 -134.99000549316406,-57.00600051879883z"></path></g></g></g></svg>