<svg xmlns="http://www.w3.org/2000/svg" xmlns:xlink="http://www.w3.org/1999/xlink" viewBox="0 0 512 512" width="512" height="512" style="width: 100%; height: 100%; transform: translate3d(0,0,0);" preserveAspectRatio="xMidYMid meet"><defs><clipPath id="__lottie_element_2794"><rect width="512" height="512" x="0" y="0"></rect></clipPath></defs><g clip-path="url(#__lottie_element_2794)"><g style="display: block;" transform="matrix(1,0,0,1,50.25,9.149993896484375)" opacity="1"><g opacity="1" transform="matrix(1,0,0,1,213.0050048828125,247.5050048828125)"><path fill="rgb(0,0,0)" fill-opacity="1" d=" M184.7449951171875,-167.65499877929688 C101.55500030517578,-194.56500244140625 7.744999885559082,-229.65499877929688 -64.25499725341797,-244.15499877929688 C-79.6449966430664,-247.2550048828125 -95.25499725341797,-239.51400756835938 -101.75499725341797,-222.65499877929688 C-135.05499267578125,-136.3040008544922 -191.63499450683594,68.8759994506836 -209.2550048828125,139.34500122070312 C-212.7550048828125,153.34500122070312 -205.125,169.75599670410156 -198.51400756835938,172.43499755859375 C-146.4739990234375,193.50599670410156 -13.074999809265137,230.84500122070312 41.744998931884766,242.34500122070312 C65.13500213623047,247.25599670410156 80.06600189208984,241.15499877929688 87.28500366210938,225.80499267578125 C111.74500274658203,173.84500122070312 193.86500549316406,-92.28399658203125 206.5659942626953,-130.65499877929688 C212.7550048828125,-149.3350067138672 201.03500366210938,-162.38499450683594 184.7449951171875,-167.65499877929688z M-90.17500305175781,-181.0260009765625 C-85.42500305175781,-198.62600708007812 -72.49500274658203,-210.4459991455078 -61.29499816894531,-207.42599487304688 C-50.10499954223633,-204.406005859375 -44.875,-187.68600463867188 -49.6150016784668,-170.08599853515625 C-54.3650016784668,-152.4949951171875 -67.29499816894531,-140.6750030517578 -78.49500274658203,-143.69500732421875 C-89.68499755859375,-146.71499633789062 -94.91500091552734,-163.42599487304688 -90.17500305175781,-181.0260009765625z M-90.75499725341797,-92.65499877929688 C-99.49500274658203,-92.65499877929688 -106.58499908447266,-99.74500274658203 -106.58499908447266,-108.48600006103516 C-106.58499908447266,-117.23600006103516 -99.49500274658203,-124.3239974975586 -90.75499725341797,-124.3239974975586 C-82.01399993896484,-124.3239974975586 -74.92500305175781,-117.23600006103516 -74.92500305175781,-108.48600006103516 C-74.92500305175781,-99.74500274658203 -82.01399993896484,-92.65499877929688 -90.75499725341797,-92.65499877929688z M-25.924999237060547,52.42599868774414 C-41.92499923706055,48.01499938964844 -68.25499725341797,-10.3149995803833 -60.584999084472656,-42.32400131225586 C-55.834999084472656,-62.16400146484375 -43.763999938964844,-81.80400085449219 -17.2549991607666,-76.65499877929688 C17.075000762939453,-69.98500061035156 4.90500020980835,-44.1150016784668 9.074999809265137,-40.986000061035156 C14.414999961853027,-36.986000061035156 21.075000762939453,-66.98500061035156 52.415000915527344,-55.32400131225586 C72.96499633789062,-47.66400146484375 78.41500091552734,-22.985000610351562 66.41500091552734,0.3449999988079071 C48.80500030517578,34.58599853515625 -11.755000114440918,56.32600021362305 -25.924999237060547,52.42599868774414z M73.09500122070312,180.35400390625 C67.93599700927734,199.4949951171875 53.29499816894531,212.19500732421875 40.404998779296875,208.71600341796875 C27.514999389648438,205.23500061035156 21.2450008392334,186.9040069580078 26.415000915527344,167.76400756835938 C31.575000762939453,148.625 46.20500183105469,135.92599487304688 59.095001220703125,139.40499877929688 C71.99500274658203,142.88600158691406 78.25499725341797,161.21499633789062 73.09500122070312,180.35400390625z M71.71499633789062,117.86499786376953 C62.97600173950195,117.86499786376953 55.8849983215332,110.78600311279297 55.8849983215332,102.03600311279297 C55.8849983215332,93.2959976196289 62.97600173950195,86.20600128173828 71.71499633789062,86.20600128173828 C80.46499633789062,86.20600128173828 87.55500030517578,93.2959976196289 87.55500030517578,102.03600311279297 C87.55500030517578,110.78600311279297 80.46499633789062,117.86499786376953 71.71499633789062,117.86499786376953z"></path></g></g></g></svg>