<svg xmlns="http://www.w3.org/2000/svg" xmlns:xlink="http://www.w3.org/1999/xlink" viewBox="0 0 512 512" width="512" height="512" style="width: 100%; height: 100%; transform: translate3d(0,0,0);" preserveAspectRatio="xMidYMid meet"><defs><clipPath id="__lottie_element_51910"><rect width="512" height="512" x="0" y="0"></rect></clipPath></defs><g clip-path="url(#__lottie_element_51910)"><g style="display: block;" transform="matrix(1,0,0,1,0,0)" opacity="1"><g opacity="1" transform="matrix(1,0,0,1,259.2279968261719,256)"><path fill="rgb(0,0,0)" fill-opacity="1" d=" M193.98599243164062,-80.84300231933594 C149.5850067138672,-145.21200561523438 131.20700073242188,-158.75599670410156 131.20700073242188,-158.75599670410156 C131.20700073242188,-158.75599670410156 162.3719940185547,-183.8679962158203 204.677001953125,-172.09100341796875 C246.98199462890625,-160.3159942626953 188.22999572753906,-255.31100463867188 156.96800231933594,-237.43499755859375 C125.70500183105469,-219.5590057373047 93.0260009765625,-180.37899780273438 93.0260009765625,-180.37899780273438 C93.0260009765625,-180.37899780273438 -34.95100021362305,-282.6780090332031 -120.21900177001953,-209.00900268554688 C-167.77200317382812,-167.9250030517578 -150.0070037841797,-113.24600219726562 -150.0070037841797,-113.24600219726562 C-150.0070037841797,-113.24600219726562 -250.4320068359375,-46.757999420166016 -235.4010009765625,57.76599884033203 C-222.0399932861328,150.677001953125 -188.87399291992188,165.6199951171875 -202.36599731445312,207.24000549316406 C-204.0240020751953,212.35499572753906 -198.87100219726562,217.05999755859375 -193.85499572753906,215.125 C-180.2270050048828,209.86500549316406 -157.88400268554688,206.31700134277344 -127.02999877929688,217.6540069580078 C-72.26599884033203,237.77699279785156 56.862998962402344,263.7090148925781 130.18899536132812,113.29299926757812 C130.18899536132812,113.29299926757812 64.48100280761719,70.75499725341797 59.07600021362305,17.187000274658203 C59.07600021362305,17.187000274658203 108.49400329589844,82.93299865722656 161.85400390625,93.70899963378906 C215.21499633789062,104.48500061035156 250.4320068359375,0.9860000014305115 193.98599243164062,-80.84300231933594z M-70.36499786376953,-166.1510009765625 C-68.60800170898438,-190.23199462890625 -19.707000732421875,-182.16000366210938 -18.81100082397461,-163.01400756835938 C-17.913999557495117,-143.86900329589844 -71.98200225830078,-143.99200439453125 -70.36499786376953,-166.1510009765625z M-15.946999549865723,-100.5780029296875 C-30.61400032043457,-114.8550033569336 2.6619999408721924,-141.27200317382812 9.890999794006348,-126.04399871826172 C16.155000686645508,-112.8489990234375 -1.2799999713897705,-86.3010025024414 -15.946999549865723,-100.5780029296875z"></path></g></g></g></svg>