<svg xmlns="http://www.w3.org/2000/svg" xmlns:xlink="http://www.w3.org/1999/xlink" viewBox="0 0 512 512" width="512" height="512" style="width: 100%; height: 100%; transform: translate3d(0,0,0);" preserveAspectRatio="xMidYMid meet"><defs><clipPath id="__lottie_element_684"><rect width="512" height="512" x="0" y="0"></rect></clipPath></defs><g clip-path="url(#__lottie_element_684)"><g style="display: block;" transform="matrix(1,0,0,1,13.693008422851562,4.6179962158203125)" opacity="1"><g opacity="1" transform="matrix(1,0,0,1,160.00999450683594,247.16099548339844)"><path fill="rgb(0,0,0)" fill-opacity="1" d=" M29.02899932861328,-2.5280001163482666 C29.02899932861328,-4.144000053405762 28.92099952697754,-5.730999946594238 28.7189998626709,-7.281000137329102 C34.55099868774414,-5.697999954223633 37.569000244140625,-4.502999782562256 38.58700180053711,-5.9629998207092285 C40.452999114990234,-8.640000343322754 30.51099967956543,-29.586999893188477 -0.17399999499320984,-29.586999893188477 C-25.923999786376953,-29.586999893188477 -40.452999114990234,-8.072999954223633 -38.57400131225586,-5.020999908447266 C-37.52000045776367,-3.306999921798706 -33.05799865722656,-4.696000099182129 -26.323999404907227,-6.557000160217285 C-26.469999313354492,-5.236000061035156 -26.566999435424805,-3.8959999084472656 -26.566999435424805,-2.5280001163482666 C-26.566999435424805,15.208000183105469 -14.121000289916992,29.586999893188477 1.2309999465942383,29.586999893188477 C16.58300018310547,29.586999893188477 29.02899932861328,15.208000183105469 29.02899932861328,-2.5280001163482666z"></path></g><g opacity="1" transform="matrix(1,0,0,1,241.66400146484375,298.6440124511719)"><path fill="rgb(0,0,0)" fill-opacity="1" d=" M-43.78499984741211,-16.48900032043457 C-48.46500015258789,-19.378999710083008 -59.439998626708984,-6.669000148773193 -57.46699905395508,1.2510000467300415 C-55.49300003051758,9.17199993133545 -47.20899963378906,19.55699920654297 -32.30099868774414,19.55699920654297 C-26.378999710083008,19.55699920654297 -23.507999420166016,15.609000205993652 -15.791999816894531,16.32699966430664 C-12.74899959564209,16.610000610351562 -7.357999801635742,18.65999984741211 -0.0010000000474974513,18.65999984741211 C7.355999946594238,18.65999984741211 12.746999740600586,16.610000610351562 15.789999961853027,16.32699966430664 C23.506000518798828,15.609000205993652 26.37700080871582,19.55699920654297 32.29899978637695,19.55699920654297 C47.358001708984375,19.55699920654297 55.492000579833984,9.17199993133545 57.465999603271484,1.2510000467300415 C59.439998626708984,-6.669000148773193 48.972999572753906,-19.558000564575195 43.784000396728516,-16.48900032043457 C42.12099838256836,-15.505000114440918 47.36000061035156,-8.119000434875488 43.59000015258789,-4.171999931335449 C41.13100051879883,-1.5950000286102295 25.552000045776367,-1.4160000085830688 -0.0010000000474974513,-1.4160000085830688 C-25.554000854492188,-1.4160000085830688 -41.15999984741211,-1.2359999418258667 -43.619998931884766,-3.812000036239624 C-47.388999938964844,-7.760000228881836 -42.14099884033203,-15.472999572753906 -43.78499984741211,-16.48900032043457z"></path></g><g opacity="1" transform="matrix(1,0,0,1,323.3160095214844,247.16099548339844)"><path fill="rgb(0,0,0)" fill-opacity="1" d=" M0.17299999296665192,-29.586999893188477 C-30.511999130249023,-29.586999893188477 -40.45199966430664,-8.640999794006348 -38.58700180053711,-5.964000225067139 C-37.56800079345703,-4.501999855041504 -34.54600143432617,-5.699999809265137 -28.702999114990234,-7.284999847412109 C-28.902999877929688,-5.730000019073486 -29.030000686645508,-4.146999835968018 -29.030000686645508,-2.5280001163482666 C-29.030000686645508,15.208999633789062 -16.583999633789062,29.586000442504883 -1.2319999933242798,29.586000442504883 C14.121000289916992,29.586000442504883 26.56599998474121,15.208999633789062 26.56599998474121,-2.5280001163482666 C26.56599998474121,-3.8949999809265137 26.469999313354492,-5.236000061035156 26.325000762939453,-6.557000160217285 C33.058998107910156,-4.697000026702881 37.51900100708008,-3.306999921798706 38.57400131225586,-5.020999908447266 C40.45199966430664,-8.072999954223633 25.92300033569336,-29.586999893188477 0.17299999296665192,-29.586999893188477z"></path></g><g opacity="1" transform="matrix(1,0,0,1,241.66299438476562,352.22900390625)"><path fill="rgb(0,0,0)" fill-opacity="1" d=" M24.94300079345703,-20.9950008392334 C16.06100082397461,-21.263999938964844 10.138999938964844,-15.880999565124512 0,-15.880999565124512 C-10.137999534606934,-15.880999565124512 -16.059999465942383,-21.263999938964844 -24.941999435424805,-20.9950008392334 C-33.82500076293945,-20.72599983215332 -68.56600189208984,-0.23199999332427979 -75.5459976196289,13.72700023651123 C-76.89199829101562,16.41900062561035 -62.89500045776367,21.263999938964844 -53.74300003051758,20.187000274658203 C-44.590999603271484,19.110000610351562 -22.250999450683594,10.765999794006348 -16.867000579833984,10.765999794006348 C-11.484000205993652,10.765999794006348 -6.011000156402588,14.803999900817871 0,14.803999900817871 C6.01200008392334,14.803999900817871 11.484000205993652,10.765999794006348 16.867000579833984,10.765999794006348 C22.25,10.765999794006348 44.590999603271484,19.110000610351562 53.74300003051758,20.187000274658203 C62.89400100708008,21.263999938964844 76.89199829101562,16.41900062561035 75.5459976196289,13.72700023651123 C68.56600189208984,-0.23199999332427979 33.82500076293945,-20.72599983215332 24.94300079345703,-20.9950008392334z"></path></g><g opacity="1" transform="matrix(1,0,0,1,238.7779998779297,407.2349853515625)"><path fill="rgb(0,0,0)" fill-opacity="1" d=" M56.518001556396484,-22.968000411987305 C52.5,-19.73200035095215 48.1609992980957,-16.81599998474121 43.652000427246094,-14.246000289916992 C30.81100082397461,-6.705999851226807 15.281999588012695,-1.1549999713897705 0.6949999928474426,-1.7699999809265137 C-19.176000595092773,-2.5799999237060547 -39.369998931884766,-12.788000106811523 -54.39500045776367,-25.885000228881836 C-60.99599838256836,-31.746000289916992 -70.80400085449219,-23.82699966430664 -66.35099792480469,-16.10099983215332 C-60.6619987487793,-6.491000175476074 -53.08399963378906,1.6649999618530273 -44.22999954223633,8.08899974822998 C-35.5620002746582,18.875 -29.941999435424805,31.424999237060547 -26.413000106811523,31.56599998474121 C-21.927000045776367,31.746000289916992 -12.774999618530273,28.875 1.7599999904632568,28.875 C16.295000076293945,28.875 25.445999145507812,31.746000289916992 29.93199920654297,31.56599998474121 C33.54899978637695,31.422000885009766 38.332000732421875,20.108999252319336 46.970001220703125,9.87600040435791 C55.07500076293945,4.381999969482422 62.11399841308594,-2.4119999408721924 67.41799926757812,-10.58899974822998 C70.00599670410156,-13.83899974822998 70.8030014038086,-18.2189998626709 67.96900177001953,-21.732999801635742 C65.14800262451172,-25.236000061035156 60.020999908447266,-25.788999557495117 56.518001556396484,-22.968000411987305z"></path></g><g opacity="1" transform="matrix(1,0,0,1,325.8179931640625,184.33799743652344)"><path fill="rgb(0,0,0)" fill-opacity="1" d=" M10.501999855041504,-27.104999542236328 C1.5839999914169312,-28.19300079345703 -19.815000534057617,-24.003000259399414 -27.719999313354492,-18.469999313354492 C-33.10300064086914,-14.701000213623047 -40.369998931884766,5.314000129699707 -45.75299835205078,13.119999885559082 C-51.137001037597656,20.926000595092773 -57.59700012207031,28.19300079345703 -53.020999908447266,28.19300079345703 C-37.40700149536133,28.19300079345703 0.004999999888241291,2.8919999599456787 9.156000137329102,2.63100004196167 C16.641000747680664,2.4179999828338623 31.687000274658203,9.390000343322754 48.74100112915039,19.29800033569336 C51.44599914550781,20.871000289916992 57.59700012207031,12.175999641418457 56.18299865722656,9.385000228881836 C44.715999603271484,-13.253999710083008 19.312000274658203,-26.0310001373291 10.501999855041504,-27.104999542236328z"></path></g><g opacity="1" transform="matrix(1,0,0,1,157.48800659179688,184.33799743652344)"><path fill="rgb(0,0,0)" fill-opacity="1" d=" M53.04199981689453,28.19300079345703 C57.61800003051758,28.19300079345703 51.15800094604492,20.926000595092773 45.775001525878906,13.119999885559082 C40.39099884033203,5.314000129699707 33.124000549316406,-14.701000213623047 27.739999771118164,-18.4689998626709 C19.836000442504883,-24.003000259399414 -1.562999963760376,-28.194000244140625 -10.480999946594238,-27.104999542236328 C-19.291000366210938,-26.0310001373291 -43.50899887084961,-14.6899995803833 -56.16299819946289,9.385000228881836 C-57.61800003051758,12.154999732971191 -51.42499923706055,20.871000289916992 -48.720001220703125,19.298999786376953 C-31.666000366210938,9.390999794006348 -16.6200008392334,2.4179999828338623 -9.135000228881836,2.63100004196167 C0.01600000075995922,2.8919999599456787 37.428001403808594,28.19300079345703 53.04199981689453,28.19300079345703z"></path></g><g opacity="1" transform="matrix(1,0,0,1,241.66299438476562,251.3820037841797)"><path fill="rgb(0,0,0)" fill-opacity="1" d=" M239.56399536132812,28.93899917602539 C237.7449951171875,-1.315999984741211 206.86500549316406,-33.112998962402344 190.22999572753906,-33.77399826049805 C194.53700256347656,-48.930999755859375 199.43699645996094,-69.53199768066406 197.35800170898438,-102.78500366210938 C192.33200073242188,-183.19700622558594 101.9540023803711,-251.1320037841797 0,-251.1320037841797 C-101.9530029296875,-251.1320037841797 -192.33099365234375,-183.19700622558594 -197.35699462890625,-102.78500366210938 C-199.43600463867188,-69.53199768066406 -194.53599548339844,-48.930999755859375 -190.22900390625,-33.77399826049805 C-206.86500549316406,-33.112998962402344 -237.74400329589844,-1.315999984741211 -239.56399536132812,28.93899917602539 C-241.41299438476562,59.69200134277344 -192.9969940185547,109.58399963378906 -173.6929931640625,109.16000366210938 C-169.08200073242188,109.05799865722656 -164.10400390625,107.0989990234375 -159.14999389648438,103.90899658203125 C-158.2740020751953,108.43000030517578 -157.45199584960938,113.00800323486328 -156.6750030517578,117.49199676513672 C-153.08599853515625,138.1909942626953 -149.375,159.593994140625 -137.4669952392578,178.64500427246094 C-125.43299865722656,197.8990020751953 -104.4229965209961,209.75100708007812 -89.08200073242188,218.4029998779297 C-84.81099700927734,220.81100463867188 -80.7770004272461,223.08599853515625 -78.51499938964844,224.70199584960938 C-77.22699737548828,225.6219940185547 -75.7750015258789,226.88400268554688 -74.09600067138672,228.343994140625 C-63.65800094604492,237.41900634765625 -47.8849983215332,251.1320037841797 0,251.1320037841797 C47.88600158691406,251.1320037841797 63.659000396728516,237.41900634765625 74.09700012207031,228.343994140625 C75.7760009765625,226.88400268554688 77.22799682617188,225.6219940185547 78.51599884033203,224.70199584960938 C80.77799987792969,223.08599853515625 84.81199645996094,220.81100463867188 89.08300018310547,218.4029998779297 C104.42400360107422,209.75100708007812 125.43399810791016,197.8990020751953 137.4669952392578,178.64500427246094 C149.37600708007812,159.593994140625 153.08700561523438,138.1909942626953 156.67599487304688,117.49199676513672 C157.4530029296875,113.00800323486328 158.27499389648438,108.43299865722656 159.14999389648438,103.91300201416016 C164.10400390625,107.10199737548828 169.08299255371094,109.05799865722656 173.69400024414062,109.16000366210938 C192.9969940185547,109.58399963378906 241.41299438476562,59.69200134277344 239.56399536132812,28.93899917602539z M158.79299926757812,32.012001037597656 C154.2270050048828,42.66699981689453 145.5659942626953,49.262001037597656 133.52699279785156,58.42599868774414 C122.70899963378906,68.96499633789062 111.18399810791016,79.4739990234375 103.17400360107422,89.04299926757812 C100.11399841308594,92.697998046875 103.69300079345703,98.08200073242188 108.23400115966797,96.62899780273438 C111.06900024414062,95.72200012207031 114.36299896240234,94.5979995727539 117.38500213623047,93.54000091552734 C121.71499633789062,92.0260009765625 126.10199737548828,95.66600036621094 125.4229965209961,100.20099639892578 C119.39399719238281,140.44000244140625 112.88500213623047,156.5019989013672 100.65399932861328,171.41200256347656 C93.02300262451172,180.71299743652344 96.30500030517578,160.01800537109375 94.41799926757812,150.97900390625 C93.71600341796875,147.61500549316406 85.34600067138672,147.1230010986328 83.94400024414062,150.26100158691406 C74.85199737548828,170.6020050048828 71.76799774169922,185.04299926757812 57.65700149536133,202.28799438476562 C56.41699981689453,203.2989959716797 55.23500061035156,204.3209991455078 54.082000732421875,205.322998046875 C45.83100128173828,212.4949951171875 36.47999954223633,220.62600708007812 0,220.62600708007812 C-36.479000091552734,220.62600708007812 -45.83000183105469,212.4949951171875 -54.08100128173828,205.322998046875 C-55.23400115966797,204.3209991455078 -56.41600036621094,203.2989959716797 -57.65599822998047,202.28700256347656 C-71.76799774169922,185.04200744628906 -74.85099792480469,170.6009979248047 -83.94300079345703,150.26100158691406 C-85.34600067138672,147.1230010986328 -93.71499633789062,147.61500549316406 -94.41699981689453,150.97900390625 C-96.30400085449219,160.01800537109375 -93.02300262451172,180.71299743652344 -100.65299987792969,171.41200256347656 C-112.88400268554688,156.5019989013672 -119.39399719238281,140.44000244140625 -125.4219970703125,100.20099639892578 C-126.10199737548828,95.66600036621094 -121.71399688720703,92.0260009765625 -117.38500213623047,93.54000091552734 C-114.36199951171875,94.5979995727539 -111.06800079345703,95.72200012207031 -108.23300170898438,96.62899780273438 C-103.69300079345703,98.08200073242188 -100.11299896240234,92.697998046875 -103.1729965209961,89.04299926757812 C-111.18399810791016,79.4739990234375 -122.70899963378906,68.96499633789062 -133.5260009765625,58.42599868774414 C-145.56500244140625,49.262001037597656 -154.18099975585938,42.64699935913086 -158.79200744628906,32.012001037597656 C-166.2259979248047,14.866999626159668 -158.87899780273438,-5.88100004196167 -154.5679931640625,-23.78700065612793 C-152.98500061035156,-30.27199935913086 -151.76499938964844,-36.70100021362305 -151.69200134277344,-43.012001037597656 C-152.6790008544922,-58.125999450683594 -157.63699340820312,-83.10700225830078 -160.781005859375,-99.68000030517578 C-161.8780059814453,-105.46700286865234 -162.00100708007812,-113.4489974975586 -160.91200256347656,-122.53299713134766 C-160.24000549316406,-124.65599822998047 -159.49000549316406,-126.63099670410156 -158.6280059814453,-128.39199829101562 C-141.75999450683594,-162.84500122070312 -77.51899719238281,-181.66400146484375 0,-181.66400146484375 C77.5199966430664,-181.66400146484375 141.76100158691406,-162.84500122070312 158.6280059814453,-128.39199829101562 C159.49099731445312,-126.63099670410156 160.24099731445312,-124.65599822998047 160.91299438476562,-122.53299713134766 C162.0019989013672,-113.4489974975586 161.87899780273438,-105.46700286865234 160.78199768066406,-99.68000030517578 C157.63800048828125,-83.10800170898438 152.6790008544922,-58.12799835205078 151.6929931640625,-43.013999938964844 C151.76600646972656,-36.702999114990234 152.98599243164062,-30.27400016784668 154.5679931640625,-23.790000915527344 C158.79299926757812,-4.2210001945495605 167.2270050048828,12.331999778747559 158.79299926757812,32.012001037597656z"></path></g></g></g></svg>