<svg xmlns="http://www.w3.org/2000/svg" xmlns:xlink="http://www.w3.org/1999/xlink" viewBox="0 0 512 512" width="512" height="512" style="width: 100%; height: 100%; transform: translate3d(0,0,0);" preserveAspectRatio="xMidYMid meet"><defs><clipPath id="__lottie_element_51875"><rect width="512" height="512" x="0" y="0"></rect></clipPath></defs><g clip-path="url(#__lottie_element_51875)"><g style="display: block;" transform="matrix(1,0,0,1,0,0)" opacity="1"><g opacity="1" transform="matrix(1,0,0,1,247.0500030517578,231.1199951171875)"><path fill="rgb(0,0,0)" fill-opacity="1" d=" M62.95000076293945,-135.1199951171875 C11.14799976348877,-152.71299743652344 -23.049999237060547,-142.05999755859375 -47.04999923706055,-125.12000274658203 C-72.62999725341797,-107.06999969482422 -128.3800048828125,92.20999908447266 -125.05000305175781,98.87999725341797 C-103,142.99000549316406 84.13999938964844,154.63999938964844 118.94999694824219,132.8800048828125 C126.94999694824219,127.87999725341797 127.88999938964844,-44.099998474121094 128.16000366210938,-69.12000274658203 C128.3800048828125,-90.12000274658203 115.94999694824219,-117.12000274658203 62.95000076293945,-135.1199951171875z M-34.04999923706055,-52.119998931884766 C-40.04999923706055,-25.6200008392334 -59.16999816894531,45.11000061035156 -65.05000305175781,72.87999725341797 C-68.27999877929688,88.11000061035156 -89.38999938964844,82.70999908447266 -87.05000305175781,66.87999725341797 C-82.58999633789062,36.68000030517578 -65.1500015258789,-37.5 -55.04999923706055,-60.119998931884766 C-47.97999954223633,-75.95999908447266 -30.510000228881836,-67.73999786376953 -34.04999923706055,-52.119998931884766z"></path></g><g opacity="1" transform="matrix(1,0,0,1,239.59100341796875,417)"><path fill="rgb(0,0,0)" fill-opacity="1" d=" M-170.59100341796875,-54 C-137.59100341796875,-73 -123.49099731445312,-20.65999984741211 6.408999919891357,-12 C126.40899658203125,-4 162.1999969482422,-48.45600128173828 181.40899658203125,-23 C202.40899658203125,4.829999923706055 155.40899658203125,73 -1.590999960899353,63 C-159.52699279785156,52.939998626708984 -202.40899658203125,-35.680999755859375 -170.59100341796875,-54z"></path></g><g opacity="1" transform="matrix(1,0,0,1,137.2239990234375,72.04299926757812)"><path fill="rgb(0,0,0)" fill-opacity="1" d=" M6.465000152587891,34.1870002746582 C-11.484000205993652,15.762999534606934 -23.207000732421875,-0.4399999976158142 -31.780000686645508,-17.659000396728516 C-38.79499816894531,-31.749000549316406 -13.621000289916992,-45.367000579833984 -1.343000054359436,-36.56399917602539 C11.937999725341797,-27.04199981689453 28.357999801635742,-0.7089999914169312 34.46200180053711,17.79199981689453 C38.79399871826172,30.920000076293945 17.35700035095215,45.367000579833984 6.465000152587891,34.1870002746582z"></path></g><g opacity="1" transform="matrix(1,0,0,1,81.00800323486328,154.84800720214844)"><path fill="rgb(0,0,0)" fill-opacity="1" d=" M34.650001525878906,25.97100067138672 C7.992000102996826,22.152000427246094 -18.822999954223633,25.795000076293945 -39.96699905395508,22.54199981689453 C-57.26900100708008,19.8799991607666 -53.608001708984375,-13.029999732971191 -39.1349983215332,-19.385000228881836 C-18.812999725341797,-28.308000564575195 27.270000457763672,-16.847999572753906 43.696998596191406,-6.8480000495910645 C57.27000045776367,1.4129999876022339 50.96099853515625,28.308000564575195 34.650001525878906,25.97100067138672z"></path></g><g opacity="1" transform="matrix(1,0,0,1,443.1099853515625,162.47500610351562)"><path fill="rgb(0,0,0)" fill-opacity="1" d=" M-36,-7.508999824523926 C-17.389999389648438,-22.466999053955078 7.965000152587891,-30.10700035095215 23.54800033569336,-31.8700008392334 C38.17300033569336,-33.525001525878906 46.4630012512207,0.08100000023841858 35.91899871826172,7.340000152587891 C24.51300048828125,15.190999984741211 -9.42300033569336,17.038999557495117 -26.724000930786133,25.493000030517578 C-43.15800094604492,33.525001525878906 -46.4630012512207,0.9020000100135803 -36,-7.508999824523926z"></path></g><g opacity="1" transform="matrix(1,0,0,1,65.52999877929688,272.80499267578125)"><path fill="rgb(0,0,0)" fill-opacity="1" d=" M36.847999572753906,-2.0850000381469727 C15.972999572753906,12.942000389099121 2.0339999198913574,25.573999404907227 -16.263999938964844,31.506999969482422 C-31.236000061035156,36.36199951171875 -49.51499938964844,10.392000198364258 -40.018001556396484,-1.3559999465942383 C-27.530000686645508,-16.80500030517578 11.003999710083008,-30.71500015258789 30.20400047302246,-34.018001556396484 C43.827999114990234,-36.361000061035156 49.51499938964844,-11.204999923706055 36.847999572753906,-2.0850000381469727z"></path></g><g opacity="1" transform="matrix(1,0,0,1,443.14599609375,310.8299865722656)"><path fill="rgb(0,0,0)" fill-opacity="1" d=" M15.27299976348877,34.3849983215332 C-8.62399959564209,24.871999740600586 -24.62299919128418,5.998000144958496 -39.46699905395508,-6.234000205993652 C-51.61399841308594,-16.243999481201172 -31.43199920654297,-40.159000396728516 -16.632999420166016,-37.12200164794922 C-0.6240000128746033,-33.83700180053711 29.19700050354004,-15.711000442504883 42.308998107910156,-1.3020000457763672 C51.61399841308594,8.923999786376953 29.77400016784668,40.15800094604492 15.27299976348877,34.3849983215332z"></path></g></g></g></svg>