<svg xmlns="http://www.w3.org/2000/svg" xmlns:xlink="http://www.w3.org/1999/xlink" viewBox="0 0 512 512" width="512" height="512" style="width: 100%; height: 100%; transform: translate3d(0,0,0);" preserveAspectRatio="xMidYMid meet"><defs><clipPath id="__lottie_element_52393"><rect width="512" height="512" x="0" y="0"></rect></clipPath></defs><g clip-path="url(#__lottie_element_52393)"><g style="display: block;" transform="matrix(1.0199999809265137,0,0,1.0199999809265137,1.169952392578125,0.5970916748046875)" opacity="1"><g opacity="1" transform="matrix(1,0,0,1,251.10299682617188,249.24600219726562)"><path fill="rgb(65,63,63)" fill-opacity="1" d=" M239.16799926757812,-140.86599731445312 C232.99200439453125,-136.8520050048828 234.3979949951172,-129.89599609375 222.67999267578125,-112.27999877929688 C192.47500610351562,-66.8759994506836 140.43699645996094,-41.89699935913086 129.22900390625,-55.4900016784668 C147.11500549316406,-62.40599822998047 167.19900512695312,-73.53299713134766 182.2259979248047,-86.81900024414062 C219.80499267578125,-120.04399871826172 250.85299682617188,-190.70799255371094 226.86700439453125,-239.98300170898438 C224.21299743652344,-241.79400634765625 215.7969970703125,-248.89700317382812 208.50999450683594,-239.79800415039062 C205.98300170898438,-236.64199829101562 193.7949981689453,-191.468994140625 169.05499267578125,-163.52200317382812 C152.27000427246094,-144.56100463867188 122.1449966430664,-122.4749984741211 100.05400085449219,-109.88099670410156 C89.86000061035156,-104.06999969482422 82.56500244140625,-96.26499938964844 71.67500305175781,-93.20099639892578 C64.75800323486328,-91.25399780273438 42.380001068115234,-87.14900207519531 36.202999114990234,-98.83699798583984 C21.764999389648438,-126.15799713134766 50.34600067138672,-125.78299713134766 55.814998626708984,-134.38800048828125 C58.50199890136719,-138.61700439453125 58.74599838256836,-146.97900390625 60.979000091552734,-152.9219970703125 C62.42499923706055,-156.77000427246094 68.18099975585938,-160.58799743652344 68.4000015258789,-163.85899353027344 C68.625,-167.197998046875 47.75,-204.0260009765625 43.847999572753906,-208.95799255371094 C26.702999114990234,-230.6300048828125 5.558000087738037,-227.32699584960938 -17.22800064086914,-215.3159942626953 C-31.464000701904297,-207.81100463867188 -31.259000778198242,-198.46600341796875 -38.428001403808594,-193.1649932861328 C-44.084999084472656,-188.98199462890625 -52.111000061035156,-189.8520050048828 -58.5890007019043,-185.74000549316406 C-81.77999877929688,-171.02000427246094 -72.03099822998047,-132.11099243164062 -47.689998626708984,-124.95600128173828 C-39.20000076293945,-122.45999908447266 -27.67099952697754,-128.0540008544922 -25.43199920654297,-120.02100372314453 C-15.994999885559082,-72.7249984741211 -55.34600067138672,-96.62899780273438 -78.76699829101562,-109.9800033569336 C-100.85900115966797,-122.5739974975586 -134.36199951171875,-144.66099548339844 -151.14700317382812,-163.62100219726562 C-175.88699340820312,-191.5679931640625 -188.0749969482422,-236.74200439453125 -190.6020050048828,-239.89700317382812 C-197.88900756835938,-248.99600219726562 -206.30499267578125,-241.8939971923828 -208.95799255371094,-240.08299255371094 C-232.94500732421875,-190.80799865722656 -201.89599609375,-120.14399719238281 -164.3179931640625,-86.91899871826172 C-149.29100036621094,-73.63200378417969 -129.20599365234375,-62.505001068115234 -111.31999969482422,-55.59000015258789 C-122.52899932861328,-41.99599838256836 -174.56700134277344,-66.97599792480469 -204.77099609375,-112.37999725341797 C-216.49000549316406,-129.9949951171875 -215.08399963378906,-136.9510040283203 -221.25999450683594,-140.96600341796875 C-226.0290069580078,-144.0659942626953 -225.73500061035156,-131.27699279785156 -225.43600463867188,-124.62799835205078 C-222.81700134277344,-66.46700286865234 -176.03399658203125,-13.951000213623047 -118.927001953125,-4.209000110626221 C-118.03500366210938,2.750999927520752 -137.50999450683594,4.723999977111816 -148.10400390625,1.7730000019073486 C-157.4010009765625,-0.8180000185966492 -159.2030029296875,-1.7269999980926514 -160.4199981689453,-0.5559999942779541 C-165.427001953125,4.261000156402588 -155.7550048828125,27.7189998626709 -117.82599639892578,36.86800003051758 C-93.50700378417969,42.73500061035156 -75.05899810791016,36.19900131225586 -61.933998107910156,38.13199996948242 C-54.058998107910156,39.29199981689453 -49.356998443603516,43.09600067138672 -52.553001403808594,52.79899978637695 C-71.42900085449219,120.25800323486328 -135.36399841308594,115.86399841308594 -156.23699951171875,80.4749984741211 C-170.31700134277344,56.604000091552734 -161.8090057373047,29.086999893188477 -171.656005859375,30.38599967956543 C-194.49099731445312,30.535999298095703 -223.36399841308594,66.55999755859375 -203.4600067138672,94.95700073242188 C-216.49200439453125,98.43499755859375 -233.35899353027344,106.43399810791016 -235.76699829101562,125.72200012207031 C-240.16200256347656,160.92300415039062 -203.41200256347656,169.68800354003906 -204.2469940185547,171.66299438476562 C-216.47300720214844,200.57899475097656 -201.33599853515625,228.2729949951172 -176.75399780273438,229.1580047607422 C-164.6060028076172,229.59500122070312 -173.55299377441406,212.78199768066406 -150.33599853515625,190.71400451660156 C-123.08399963378906,164.81100463867188 -56.250999450683594,186.5399932861328 -36.71200180053711,184.927001953125 C-36.71200180053711,184.927001953125 -36.60200119018555,232.81300354003906 -36.762001037597656,248.7969970703125 C-30.295000076293945,248.79600524902344 -19.795000076293945,248.6719970703125 -13.583000183105469,248.61099243164062 C-12.470000267028809,232.87100219726562 -13.741999626159668,202.5260009765625 -12.946999549865723,183.44700622558594 C-5.952000141143799,182.17599487304688 -0.9980000257492065,181.6790008544922 14.532999992370605,180.9669952392578 C14.532999992370605,180.9669952392578 15.670999526977539,248.29200744628906 15.670999526977539,248.29200744628906 C25.829999923706055,249.29600524902344 31.72800064086914,248.61000061035156 37.45199966430664,248.531005859375 C38.71099853515625,237.15499877929688 37.231998443603516,187.2480010986328 38.06700134277344,175.82400512695312 C38.16999816894531,174.41400146484375 48.16999816894531,168.40699768066406 49.80500030517578,167.2209930419922 C69.08999633789062,153.24000549316406 92.93800354003906,134.7969970703125 78.24199676513672,50.53799819946289 C76.96299743652344,43.207000732421875 82.09600067138672,39.28300094604492 89.13300323486328,38.233001708984375 C102.25800323486328,36.29999923706055 111.41500091552734,42.83399963378906 135.73500061035156,36.96799850463867 C173.66299438476562,27.81800079345703 183.3350067138672,4.361000061035156 178.32899475097656,-0.4560000002384186 C177.11099243164062,-1.6269999742507935 175.3090057373047,-0.7179999947547913 166.01199340820312,1.871999979019165 C155.41799926757812,4.823999881744385 135.9429931640625,2.8519999980926514 136.83599853515625,-4.107999801635742 C193.94200134277344,-13.850000381469727 240.72500610351562,-66.36699676513672 243.343994140625,-124.52799987792969 C243.64300537109375,-131.177001953125 243.93800354003906,-143.96600341796875 239.16799926757812,-140.86599731445312z"></path></g></g></g></svg>