<svg xmlns="http://www.w3.org/2000/svg" xmlns:xlink="http://www.w3.org/1999/xlink" viewBox="0 0 512 512" width="512" height="512" style="width: 100%; height: 100%; transform: translate3d(0,0,0);" preserveAspectRatio="xMidYMid meet"><defs><clipPath id="__lottie_element_53334"><rect width="512" height="512" x="0" y="0"></rect></clipPath></defs><g clip-path="url(#__lottie_element_53334)"><g style="display: block;" transform="matrix(0.9900000095367432,0,0,0.9900000095367432,2.55999755859375,2.55999755859375)" opacity="1"><g opacity="1" transform="matrix(1,0,0,1,257.37200927734375,444.20098876953125)"><path fill="rgb(0,0,0)" fill-opacity="1" d=" M6.706999778747559,-64.39199829101562 C9.767999649047852,-21.947999954223633 15.227999687194824,58.4379997253418 14.878999710083008,63.81800079345703 C14.878999710083008,63.81800079345703 -15.227999687194824,64.39099884033203 -15.227999687194824,64.39099884033203 C-15.227999687194824,64.39099884033203 -9.619999885559082,-64.0989990234375 -9.619999885559082,-64.0989990234375 C-9.619999885559082,-64.0989990234375 6.706999778747559,-64.39199829101562 6.706999778747559,-64.39199829101562z"></path><path stroke-linecap="butt" stroke-linejoin="miter" fill-opacity="0" stroke-miterlimit="4" stroke="rgb(0,0,0)" stroke-opacity="1" stroke-width="3" d=" M6.706999778747559,-64.39199829101562 C9.767999649047852,-21.947999954223633 15.227999687194824,58.4379997253418 14.878999710083008,63.81800079345703 C14.878999710083008,63.81800079345703 -15.227999687194824,64.39099884033203 -15.227999687194824,64.39099884033203 C-15.227999687194824,64.39099884033203 -9.619999885559082,-64.0989990234375 -9.619999885559082,-64.0989990234375 C-9.619999885559082,-64.0989990234375 6.706999778747559,-64.39199829101562 6.706999778747559,-64.39199829101562z"></path></g><g opacity="1" transform="matrix(1,0,0,1,256.8349914550781,69.62799835205078)"><path fill="rgb(0,0,0)" fill-opacity="1" d=" M13.534000396728516,-65.36799621582031 C13.17300033569336,-21.02400016784668 10.789999961853027,16.19499969482422 9.309000015258789,65.33899688720703 C9.309000015258789,65.33899688720703 -9.381999969482422,65.36799621582031 -9.381999969482422,65.36799621582031 C-9.381999969482422,65.36799621582031 -13.532999992370605,-65.36799621582031 -13.532999992370605,-65.36799621582031 C-13.532999992370605,-65.36799621582031 13.534000396728516,-65.36799621582031 13.534000396728516,-65.36799621582031z"></path><path stroke-linecap="butt" stroke-linejoin="miter" fill-opacity="0" stroke-miterlimit="4" stroke="rgb(0,0,0)" stroke-opacity="1" stroke-width="3" d=" M13.534000396728516,-65.36799621582031 C13.17300033569336,-21.02400016784668 10.789999961853027,16.19499969482422 9.309000015258789,65.33899688720703 C9.309000015258789,65.33899688720703 -9.381999969482422,65.36799621582031 -9.381999969482422,65.36799621582031 C-9.381999969482422,65.36799621582031 -13.532999992370605,-65.36799621582031 -13.532999992370605,-65.36799621582031 C-13.532999992370605,-65.36799621582031 13.534000396728516,-65.36799621582031 13.534000396728516,-65.36799621582031z"></path></g><g opacity="1" transform="matrix(1,0,0,1,397.9410095214844,130.6269989013672)"><path fill="rgb(0,0,0)" fill-opacity="1" d=" M-46.678001403808594,29.2189998626709 C-46.678001403808594,29.2189998626709 24.917999267578125,-43.3129997253418 24.917999267578125,-43.3129997253418 C24.917999267578125,-43.3129997253418 46.678001403808594,-19.50200080871582 46.678001403808594,-19.50200080871582 C46.678001403808594,-19.50200080871582 -30.361000061035156,43.3129997253418 -30.361000061035156,43.3129997253418 C-34.8390007019043,39.86000061035156 -42.34299850463867,33.04999923706055 -46.678001403808594,29.2189998626709z"></path><path stroke-linecap="butt" stroke-linejoin="miter" fill-opacity="0" stroke-miterlimit="4" stroke="rgb(0,0,0)" stroke-opacity="1" stroke-width="3" d=" M-46.678001403808594,29.2189998626709 C-46.678001403808594,29.2189998626709 24.917999267578125,-43.3129997253418 24.917999267578125,-43.3129997253418 C24.917999267578125,-43.3129997253418 46.678001403808594,-19.50200080871582 46.678001403808594,-19.50200080871582 C46.678001403808594,-19.50200080871582 -30.361000061035156,43.3129997253418 -30.361000061035156,43.3129997253418 C-34.8390007019043,39.86000061035156 -42.34299850463867,33.04999923706055 -46.678001403808594,29.2189998626709z"></path></g><g opacity="1" transform="matrix(1,0,0,1,112.93299865722656,129.71299743652344)"><path fill="rgb(0,0,0)" fill-opacity="1" d=" M46.02000045776367,30.332000732421875 C46.02000045776367,30.332000732421875 27.926000595092773,42.41299819946289 27.926000595092773,42.41299819946289 C27.926000595092773,42.41299819946289 -46.02000045776367,-18.589000701904297 -46.02000045776367,-18.589000701904297 C-46.02000045776367,-18.589000701904297 -24.260000228881836,-42.41299819946289 -24.260000228881836,-42.41299819946289 C-3.6500000953674316,-18.673999786376953 46.02000045776367,30.332000732421875 46.02000045776367,30.332000732421875z"></path><path stroke-linecap="butt" stroke-linejoin="miter" fill-opacity="0" stroke-miterlimit="4" stroke="rgb(0,0,0)" stroke-opacity="1" stroke-width="3" d=" M46.02000045776367,30.332000732421875 C46.02000045776367,30.332000732421875 27.926000595092773,42.41299819946289 27.926000595092773,42.41299819946289 C27.926000595092773,42.41299819946289 -46.02000045776367,-18.589000701904297 -46.02000045776367,-18.589000701904297 C-46.02000045776367,-18.589000701904297 -24.260000228881836,-42.41299819946289 -24.260000228881836,-42.41299819946289 C-3.6500000953674316,-18.673999786376953 46.02000045776367,30.332000732421875 46.02000045776367,30.332000732421875z"></path></g><g opacity="1" transform="matrix(1,0,0,1,113.35099792480469,383.5710144042969)"><path fill="rgb(0,0,0)" fill-opacity="1" d=" M-44.81999969482422,24.47100067138672 C-37.46900177001953,15.65999984741211 15.303999900817871,-36.915000915527344 26.003999710083008,-43.082000732421875 C31.663000106811523,-38.29199981689453 39.34400177001953,-33.599998474121094 44.81999969482422,-29.687999725341797 C44.81999969482422,-29.687999725341797 -19.434999465942383,43.08100128173828 -19.434999465942383,43.08100128173828 C-19.434999465942383,43.08100128173828 -44.81999969482422,24.47100067138672 -44.81999969482422,24.47100067138672z"></path><path stroke-linecap="butt" stroke-linejoin="miter" fill-opacity="0" stroke-miterlimit="4" stroke="rgb(0,0,0)" stroke-opacity="1" stroke-width="3" d=" M-44.81999969482422,24.47100067138672 C-37.46900177001953,15.65999984741211 15.303999900817871,-36.915000915527344 26.003999710083008,-43.082000732421875 C31.663000106811523,-38.29199981689453 39.34400177001953,-33.599998474121094 44.81999969482422,-29.687999725341797 C44.81999969482422,-29.687999725341797 -19.434999465942383,43.08100128173828 -19.434999465942383,43.08100128173828 C-19.434999465942383,43.08100128173828 -44.81999969482422,24.47100067138672 -44.81999969482422,24.47100067138672z"></path></g><g opacity="1" transform="matrix(1,0,0,1,397.97601318359375,383.8869934082031)"><path fill="rgb(0,0,0)" fill-opacity="1" d=" M-28.711000442504883,-43.1619987487793 C-28.711000442504883,-43.1619987487793 44.60599899291992,21.927000045776367 44.60599899291992,21.927000045776367 C39.590999603271484,27.586000442504883 25.760000228881836,39.707000732421875 20.704999923706055,43.1619987487793 C20.704999923706055,43.1619987487793 -44.60599899291992,-30.003000259399414 -44.60599899291992,-30.003000259399414 C-44.60599899291992,-30.003000259399414 -28.711000442504883,-43.1619987487793 -28.711000442504883,-43.1619987487793z"></path><path stroke-linecap="butt" stroke-linejoin="miter" fill-opacity="0" stroke-miterlimit="4" stroke="rgb(0,0,0)" stroke-opacity="1" stroke-width="3" d=" M-28.711000442504883,-43.1619987487793 C-28.711000442504883,-43.1619987487793 44.60599899291992,21.927000045776367 44.60599899291992,21.927000045776367 C39.590999603271484,27.586000442504883 25.760000228881836,39.707000732421875 20.704999923706055,43.1619987487793 C20.704999923706055,43.1619987487793 -44.60599899291992,-30.003000259399414 -44.60599899291992,-30.003000259399414 C-44.60599899291992,-30.003000259399414 -28.711000442504883,-43.1619987487793 -28.711000442504883,-43.1619987487793z"></path></g><g opacity="1" transform="matrix(1,0,0,1,255.76600646972656,252.25900268554688)"><path fill="rgb(0,0,0)" fill-opacity="1" d=" M194.07699584960938,-3.1559998989105225 C172.83700561523438,-3.1559998989105225 140.03199768066406,-36.279998779296875 123.44999694824219,-48.749000549316406 C32.409000396728516,-117.20800018310547 -19.548999786376953,-125.9219970703125 -113.98899841308594,-55.89099884033203 C-132.093994140625,-42.46500015258789 -172.22999572753906,-3.1559998989105225 -194.07699584960938,-3.1559998989105225 C-194.07699584960938,-3.1559998989105225 -253.23399353027344,-3.1559998989105225 -253.23399353027344,-3.1559998989105225 C-253.23399353027344,-3.1559998989105225 -253.23399353027344,15.517999649047852 -253.23399353027344,15.517999649047852 C-253.23399353027344,15.517999649047852 -196.1529998779297,15.517999649047852 -196.1529998779297,15.517999649047852 C-170.3419952392578,15.517999649047852 -116.06500244140625,67.16300201416016 -92.84100341796875,82.38700103759766 C-26.429000854492188,125.9219970703125 31.29199981689453,123.22000122070312 96.13800048828125,79.45700073242188 C118.45800018310547,64.39299774169922 171.2030029296875,15.517999649047852 196.15199279785156,15.517999649047852 C196.15199279785156,15.517999649047852 253.23399353027344,15.517999649047852 253.23399353027344,15.517999649047852 C253.23399353027344,15.517999649047852 253.23399353027344,-3.1559998989105225 253.23399353027344,-3.1559998989105225 C253.23399353027344,-3.1559998989105225 194.07699584960938,-3.1559998989105225 194.07699584960938,-3.1559998989105225z M8.086000442504883,84.10299682617188 C-57.159000396728516,89.33399963378906 -93.42500305175781,41.23899841308594 -140.76300048828125,5.922999858856201 C-98.89199829101562,-21.231000900268555 -62.89500045776367,-65.85299682617188 -10.777000427246094,-71.6050033569336 C50.54199981689453,-78.3740005493164 94.96199798583984,-25.368999481201172 142.1739959716797,4.633999824523926 C99.49800109863281,35.367000579833984 64.05899810791016,79.61499786376953 8.086000442504883,84.10299682617188z"></path><path stroke-linecap="butt" stroke-linejoin="miter" fill-opacity="0" stroke-miterlimit="4" stroke="rgb(0,0,0)" stroke-opacity="1" stroke-width="5" d=" M194.07699584960938,-3.1559998989105225 C172.83700561523438,-3.1559998989105225 140.03199768066406,-36.279998779296875 123.44999694824219,-48.749000549316406 C32.409000396728516,-117.20800018310547 -19.548999786376953,-125.9219970703125 -113.98899841308594,-55.89099884033203 C-132.093994140625,-42.46500015258789 -172.22999572753906,-3.1559998989105225 -194.07699584960938,-3.1559998989105225 C-194.07699584960938,-3.1559998989105225 -253.23399353027344,-3.1559998989105225 -253.23399353027344,-3.1559998989105225 C-253.23399353027344,-3.1559998989105225 -253.23399353027344,15.517999649047852 -253.23399353027344,15.517999649047852 C-253.23399353027344,15.517999649047852 -196.1529998779297,15.517999649047852 -196.1529998779297,15.517999649047852 C-170.3419952392578,15.517999649047852 -116.06500244140625,67.16300201416016 -92.84100341796875,82.38700103759766 C-26.429000854492188,125.9219970703125 31.29199981689453,123.22000122070312 96.13800048828125,79.45700073242188 C118.45800018310547,64.39299774169922 171.2030029296875,15.517999649047852 196.15199279785156,15.517999649047852 C196.15199279785156,15.517999649047852 253.23399353027344,15.517999649047852 253.23399353027344,15.517999649047852 C253.23399353027344,15.517999649047852 253.23399353027344,-3.1559998989105225 253.23399353027344,-3.1559998989105225 C253.23399353027344,-3.1559998989105225 194.07699584960938,-3.1559998989105225 194.07699584960938,-3.1559998989105225z M8.086000442504883,84.10299682617188 C-57.159000396728516,89.33399963378906 -93.42500305175781,41.23899841308594 -140.76300048828125,5.922999858856201 C-98.89199829101562,-21.231000900268555 -62.89500045776367,-65.85299682617188 -10.777000427246094,-71.6050033569336 C50.54199981689453,-78.3740005493164 94.96199798583984,-25.368999481201172 142.1739959716797,4.633999824523926 C99.49800109863281,35.367000579833984 64.05899810791016,79.61499786376953 8.086000442504883,84.10299682617188z"></path></g><g opacity="1" transform="matrix(1,0,0,1,257.1310119628906,254.35000610351562)"><path fill="rgb(0,0,0)" fill-opacity="1" d=" M-10.128000259399414,-58.60200119018555 C-86.93000030517578,-49.55699920654297 -81.66600036621094,69.27400207519531 -2.4010000228881836,69.43399810791016 C86.93000030517578,69.61399841308594 83.38800048828125,-69.61399841308594 -10.128000259399414,-58.60200119018555z M9.560999870300293,48.20899963378906 C-57.20000076293945,59.55099868774414 -68.02200317382812,-32.23400115966797 -8.097000122070312,-39.981998443603516 C53.590999603271484,-47.957000732421875 62.029998779296875,39.29499816894531 9.560999870300293,48.20899963378906z"></path><path stroke-linecap="butt" stroke-linejoin="miter" fill-opacity="0" stroke-miterlimit="4" stroke="rgb(0,0,0)" stroke-opacity="1" stroke-width="3" d=" M-10.128000259399414,-58.60200119018555 C-86.93000030517578,-49.55699920654297 -81.66600036621094,69.27400207519531 -2.4010000228881836,69.43399810791016 C86.93000030517578,69.61399841308594 83.38800048828125,-69.61399841308594 -10.128000259399414,-58.60200119018555z M9.560999870300293,48.20899963378906 C-57.20000076293945,59.55099868774414 -68.02200317382812,-32.23400115966797 -8.097000122070312,-39.981998443603516 C53.590999603271484,-47.957000732421875 62.029998779296875,39.29499816894531 9.560999870300293,48.20899963378906z"></path></g><g opacity="1" transform="matrix(1,0,0,1,257.39300537109375,256.50299072265625)"><path fill="rgb(0,0,0)" fill-opacity="1" d=" M-8.46399974822998,-21.48200035095215 C25.341999053955078,-29.222000122070312 34.75,21.101999282836914 0.9319999814033508,25.41900062561035 C-28.843000411987305,29.22100067138672 -34.75,-15.46399974822998 -8.46399974822998,-21.48200035095215z"></path></g></g></g></svg>