<svg xmlns="http://www.w3.org/2000/svg" xmlns:xlink="http://www.w3.org/1999/xlink" viewBox="0 0 512 512" width="512" height="512" style="width: 100%; height: 100%; transform: translate3d(0,0,0);" preserveAspectRatio="xMidYMid meet"><defs><clipPath id="__lottie_element_52598"><rect width="512" height="512" x="0" y="0"></rect></clipPath></defs><g clip-path="url(#__lottie_element_52598)"><g style="display: block;" transform="matrix(1,0,0,1,256,256)" opacity="1"><g opacity="1" transform="matrix(1,0,0,1,0,0)"><path fill="rgb(0,0,0)" fill-opacity="1" d=" M116.75,-177.9499969482422 C117.31700134277344,-244.58999633789062 41.939998626708984,-271.89599609375 -5.599999904632568,-232.60000610351562 C-5.599999904632568,-232.60000610351562 -5.75,-232.60000610351562 -5.75,-232.60000610351562 C-7.449999809265137,-231.13299560546875 -9.100000381469727,-229.61700439453125 -10.699999809265137,-228.0500030517578 C-38.525001525878906,-241.58299255371094 -77.23600006103516,-236.0760040283203 -99,-212.9499969482422 C-99,-212.9499969482422 -99,-213.3000030517578 -99,-213.3000030517578 C-126.44400024414062,-190.1929931640625 -121.50299835205078,-143.41299438476562 -103.4000015258789,-113.30000305175781 C-127.03399658203125,-84.93299865722656 -133.53500366210938,-42.066001892089844 -121.69999694824219,-6.849999904632568 C-276.07501220703125,339.989990234375 -285.52801513671875,263.781005859375 45.650001525878906,164.0500030517578 C111.83899688720703,188.34800720214844 180.08299255371094,125.34600067138672 161.10000610351562,57.45000076293945 C265.6889953613281,-1.2259999513626099 235.3209991455078,-162.31300354003906 116.75,-177.9499969482422 M73.0999984741211,-183.6999969482422 C76.19999694824219,-160.0659942626953 66.0009994506836,-137.0050048828125 52.79999923706055,-116.19999694824219 C52.79999923706055,-116.19999694824219 53.099998474121094,-116.3499984741211 53.099998474121094,-116.3499984741211 C42.91899871826172,-101.87799835205078 30.39900016784668,-85.93199920654297 15.699999809265137,-79.5999984741211 C6.882999897003174,-80.80000305175781 -1.5169999599456787,-83.43199920654297 -11,-87.9000015258789 C-11,-87.9000015258789 -10.5,-87.5999984741211 -10.5,-87.5999984741211 C-37.01599884033203,-101.15599822998047 -58.42499923706055,-116.91799926757812 -69.75,-142.25 C-79.81099700927734,-163.4980010986328 -77.08599853515625,-186.9709930419922 -51.29999923706055,-191.64999389648438 C-51.29999923706055,-191.64999389648438 -51.79999923706055,-191.64999389648438 -51.79999923706055,-191.64999389648438 C-23.232999801635742,-198.38600158691406 -19.924999237060547,-169.56199645996094 3.3499999046325684,-179.44900512695312 C19.51799964904785,-188.83599853515625 14.383000373840332,-202.94200134277344 39.900001525878906,-207.1999969482422 C39.900001525878906,-207.1999969482422 39.75,-207.1999969482422 39.75,-207.1999969482422 C56.17900085449219,-210.45799255371094 70.25499725341797,-200.76199340820312 73.0999984741211,-183.6999969482422 M-101.05000305175781,29.700000762939453 C-90.47000122070312,42.03200149536133 -76.96900177001953,52.965999603271484 -62.95000076293945,59.650001525878906 C-78.31999969482422,54.75600051879883 -93.79900360107422,53.790000915527344 -112.69999694824219,57.599998474121094 C-112.69999694824219,57.599998474121094 -112.55000305175781,57.599998474121094 -112.55000305175781,57.599998474121094 C-113.01699829101562,57.733001708984375 -113.41699981689453,57.849998474121094 -113.75,57.95000076293945 C-113.75,57.95000076293945 -101.05000305175781,29.700000762939453 -101.05000305175781,29.700000762939453 M-131.85000610351562,98.4000015258789 C-123.94999694824219,95 -115.48300170898438,92.56700134277344 -106.44999694824219,91.0999984741211 C-106.44999694824219,91.0999984741211 -106.30000305175781,90.94999694824219 -106.30000305175781,90.94999694824219 C-46.81700134277344,79.46900177001953 -64.29199981689453,122.2770004272461 -45.54999923706055,159.3000030517578 C-45.54999923706055,159.3000030517578 -100.3499984741211,177.60000610351562 -100.3499984741211,177.60000610351562 C-105.79100036621094,159.83200073242188 -129.4239959716797,138.82000732421875 -149.25,137 C-149.25,137 -131.85000610351562,98.4000015258789 -131.85000610351562,98.4000015258789 M-44.20000076293945,71 C-44.20000076293945,71 -44.349998474121094,71 -44.349998474121094,71 C-47.516998291015625,67.93299865722656 -51.132999420166016,65.33300018310547 -55.20000076293945,63.20000076293945 C-42.00199890136719,68.33000183105469 -27.323999404907227,70.72599792480469 -12.199999809265137,70.5 C-14.937000274658203,96.48500061035156 -7.389999866485596,121.53199768066406 10.449999809265137,140.5500030517578 C10.449999809265137,140.5500030517578 -11.199999809265137,147.8000030517578 -11.199999809265137,147.8000030517578 C-27.14299964904785,133.58399963378906 -19,92.04199981689453 -44.20000076293945,71 M-165.5,172.85000610351562 C-153.11000061035156,166.63699340820312 -136.7429962158203,176.82000732421875 -133.1999969482422,188.60000610351562 C-133.1999969482422,188.60000610351562 -179.5500030517578,204.14999389648438 -179.5500030517578,204.14999389648438 C-179.5500030517578,204.14999389648438 -165.5,172.85000610351562 -165.5,172.85000610351562z"></path></g></g></g></svg>