<svg xmlns="http://www.w3.org/2000/svg" xmlns:xlink="http://www.w3.org/1999/xlink" viewBox="0 0 512 512" width="512" height="512" style="width: 100%; height: 100%; transform: translate3d(0,0,0);" preserveAspectRatio="xMidYMid meet"><defs><clipPath id="__lottie_element_51470"><rect width="512" height="512" x="0" y="0"></rect></clipPath></defs><g clip-path="url(#__lottie_element_51470)"><g style="display: block;" transform="matrix(1,0,0,1,256,261.4389953613281)" opacity="1"><g opacity="1" transform="matrix(1,0,0,1,0,0)"><path fill="rgb(4,5,52)" fill-opacity="1" d=" M180.64500427246094,14.829999923706055 C165.39500427246094,16.520000457763672 167.93499755859375,53.790000915527344 164.5449981689453,63.959999084472656 C161.15499877929688,74.12000274658203 145.9149932861328,87.91999816894531 150.9949951171875,94.56999969482422 C156.0749969482422,101.2300033569336 178.94500732421875,85.9800033569336 178.94500732421875,85.9800033569336 C178.94500732421875,85.9800033569336 178.09500122070312,131.72000122070312 107.79499816894531,132.57000732421875 C37.48500061035156,133.41000366210938 29.014999389648438,66.62999725341797 28.174999237060547,-5.440000057220459 C27.325000762939453,-77.5 24.78499984741211,-91.05999755859375 36.64500045776367,-96.98999786376953 C48.494998931884766,-102.91999816894531 92.54499816894531,-100.37000274658203 92.54499816894531,-100.37000274658203 C92.54499816894531,-100.37000274658203 89.15499877929688,-82.58999633789062 102.71499633789062,-82.58999633789062 C116.26499938964844,-82.58999633789062 118.80500030517578,-144.4199981689453 105.25499725341797,-146.1199951171875 C91.69499969482422,-147.80999755859375 90.8550033569336,-130.8699951171875 90.8550033569336,-130.8699951171875 C90.8550033569336,-130.8699951171875 37.53499984741211,-124.08999633789062 27.344999313354492,-131.72000122070312 C17.155000686645508,-139.33999633789062 23.934999465942383,-156.27999877929688 23.934999465942383,-156.27999877929688 C23.934999465942383,-156.27999877929688 52.73500061035156,-162.2100067138672 51.8849983215332,-196.08999633789062 C51.04499816894531,-229.97000122070312 19.264999389648438,-235.05999755859375 -0.004999999888241291,-235.05999755859375 C-19.264999389648438,-235.05999755859375 -51.04499816894531,-229.97000122070312 -51.8849983215332,-196.08999633789062 C-52.73500061035156,-162.2100067138672 -23.934999465942383,-156.27999877929688 -23.934999465942383,-156.27999877929688 C-23.934999465942383,-156.27999877929688 -17.155000686645508,-139.33999633789062 -27.344999313354492,-131.72000122070312 C-37.53499984741211,-124.08999633789062 -90.8550033569336,-130.8699951171875 -90.8550033569336,-130.8699951171875 C-90.8550033569336,-130.8699951171875 -91.69499969482422,-147.80999755859375 -105.25499725341797,-146.1199951171875 C-118.80500030517578,-144.4199981689453 -116.26499938964844,-82.58999633789062 -102.71499633789062,-82.58999633789062 C-89.15499877929688,-82.58999633789062 -92.54499816894531,-100.37000274658203 -92.54499816894531,-100.37000274658203 C-92.54499816894531,-100.37000274658203 -48.494998931884766,-102.91999816894531 -36.64500045776367,-96.98999786376953 C-24.78499984741211,-91.05999755859375 -27.325000762939453,-77.5 -28.174999237060547,-5.440000057220459 C-29.014999389648438,66.62999725341797 -37.48500061035156,133.41000366210938 -107.79499816894531,132.57000732421875 C-178.09500122070312,131.72000122070312 -178.94500732421875,85.9800033569336 -178.94500732421875,85.9800033569336 C-178.94500732421875,85.9800033569336 -156.0749969482422,101.2300033569336 -150.9949951171875,94.56999969482422 C-145.9149932861328,87.91999816894531 -161.15499877929688,74.12000274658203 -164.5449981689453,63.959999084472656 C-167.93499755859375,53.790000915527344 -165.39500427246094,16.520000457763672 -180.64500427246094,14.829999923706055 C-195.88499450683594,13.130000114440918 -238.2449951171875,89.37000274658203 -234.85499572753906,93.5999984741211 C-231.46499633789062,97.83999633789062 -211.13499450683594,86.83000183105469 -211.13499450683594,86.83000183105469 C-211.13499450683594,86.83000183105469 -215.76499938964844,157.99000549316406 -135.7449951171875,175.77000427246094 C-126.92500305175781,177.72999572753906 -102.61699676513672,186.1199951171875 -82.03500366210938,191.05999755859375 C-23.375,212.3000030517578 -12.015000343322754,235.05999755859375 -0.004999999888241291,235.05999755859375 C15.024999618530273,235.05999755859375 29.014999389648438,199.47999572753906 135.7449951171875,175.77000427246094 C215.76499938964844,157.99000549316406 211.13499450683594,86.83000183105469 211.13499450683594,86.83000183105469 C211.13499450683594,86.83000183105469 231.46499633789062,97.83999633789062 234.85499572753906,93.5999984741211 C238.2449951171875,89.37000274658203 195.88499450683594,13.130000114440918 180.64500427246094,14.829999923706055z M-0.004999999888241291,-177.1699981689453 C-13.095000267028809,-177.1699981689453 -23.71500015258789,-185.63999938964844 -23.71500015258789,-196.08999633789062 C-23.71500015258789,-206.5399932861328 -13.095000267028809,-215.00999450683594 -0.004999999888241291,-215.00999450683594 C13.095000267028809,-215.00999450683594 23.71500015258789,-206.5399932861328 23.71500015258789,-196.08999633789062 C23.71500015258789,-185.63999938964844 13.095000267028809,-177.1699981689453 -0.004999999888241291,-177.1699981689453z"></path></g></g></g></svg>