<svg xmlns="http://www.w3.org/2000/svg" xmlns:xlink="http://www.w3.org/1999/xlink" viewBox="0 0 512 512" width="512" height="512" style="width: 100%; height: 100%; transform: translate3d(0,0,0);" preserveAspectRatio="xMidYMid meet"><defs><clipPath id="__lottie_element_51720"><rect width="512" height="512" x="0" y="0"></rect></clipPath></defs><g clip-path="url(#__lottie_element_51720)"><g style="display: block;" transform="matrix(2.962939977645874,0,0,2.962939977645874,34.83744812011719,2.8374481201171875)" opacity="1"><g opacity="1" transform="matrix(1,0,0,1,75.6500015258789,117.78700256347656)"><path fill="rgb(0,0,0)" fill-opacity="1" d=" M56.0359992980957,-11.437999725341797 C56.0359992980957,-11.437999725341797 29.827999114990234,-9.116999626159668 -1.5360000133514404,-20.016000747680664 C-35.027000427246094,-31.655000686645508 -52.93899917602539,-49.3380012512207 -52.93899917602539,-49.3380012512207 C-55.95800018310547,-50.97100067138672 -58.025001525878906,-37.91400146484375 -58.35200119018555,-29.36199951171875 C-59.106998443603516,-9.62600040435791 -45.09600067138672,18.632999420166016 -45.09600067138672,18.632999420166016 C-44.61199951171875,19.959999084472656 -44.36399841308594,21.343000411987305 -44.362998962402344,22.724000930786133 C-44.362998962402344,22.724000930786133 -44.999000549316406,28.106000900268555 -44.999000549316406,28.106000900268555 C-45.68299865722656,33.900001525878906 -41.566001892089844,40.15299987792969 -36.37799835205078,43.66600036621094 C-28.615999221801758,48.92399978637695 -21.815000534057617,50.444000244140625 -16.56399917602539,50.722999572753906 C-11.88599967956543,50.97100067138672 -1.9420000314712524,50.10499954223633 1.3910000324249268,45.35200119018555 C1.3910000324249268,45.35200119018555 4.486000061035156,40.93600082397461 4.486000061035156,40.93600082397461 C5.388999938964844,39.9109992980957 6.458000183105469,39.04499816894531 7.646999835968018,38.374000549316406 C7.646999835968018,38.374000549316406 37.89699935913086,21.128999710083008 45.5890007019043,11.467000007629395 C54.13999938964844,0.7250000238418579 59.108001708984375,-10.678000450134277 56.0359992980957,-11.437999725341797z"></path></g><g opacity="1" transform="matrix(1,0,0,1,84.322998046875,52.590999603271484)"><path fill="rgb(0,0,0)" fill-opacity="1" d=" M39.617000579833984,0.29100000858306885 C39.617000579833984,0.29100000858306885 39.74300003051758,0.18700000643730164 39.74300003051758,0.18700000643730164 C43.332000732421875,-2.759000062942505 45.07600021362305,-7.453000068664551 44.27899932861328,-12.02299976348877 C44.27899932861328,-12.02299976348877 44.74300003051758,-15.03600025177002 44.74300003051758,-15.03600025177002 C48.512001037597656,-15.802000045776367 51.1150016784668,-17.415000915527344 52.07400131225586,-19.85700035095215 C54.87300109863281,-26.982999801635742 42.194000244140625,-37.39099884033203 23.249000549316406,-44.832000732421875 C4.306000232696533,-52.27399826049805 -12.067999839782715,-53.27799987792969 -14.866999626159668,-46.152000427246094 C-15.73799991607666,-43.93600082397461 -15.151000022888184,-41.29800033569336 -13.361000061035156,-38.492000579833984 C-13.361000061035156,-38.492000579833984 -15.571999549865723,-35.617000579833984 -15.571999549865723,-35.617000579833984 C-18.677000045776367,-33.34000015258789 -20.554000854492188,-29.808000564575195 -20.81399917602539,-26.07699966430664 C-20.65999984741211,-24.52199935913086 -20.31599998474121,-22.81100082397461 -19.475000381469727,-20.90399932861328 C-13.87399959564209,-8.199000358581543 1.1410000324249268,-3.86899995803833 1.1410000324249268,-3.86899995803833 C1.1410000324249268,-3.86899995803833 -5.22599983215332,0.3319999873638153 -20.878999710083008,-8.74899959564209 C-24.992000579833984,-11.135000228881836 -30.18899917602539,-18.29400062561035 -30.18899917602539,-18.29400062561035 C-44.69200134277344,-15.562999725341797 -56.94200134277344,-4.014999866485596 -57.18199920654297,2.1540000438690186 C-57.763999938964844,17.128999710083008 -24.30900001525879,31.906999588012695 -8.954999923706055,37.03300094604492 C5.933000087738037,42.00299835205078 43.569000244140625,52.590999603271484 52.29199981689453,39.875 C57.76499938964844,31.895999908447266 53.0890007019043,14.819000244140625 39.617000579833984,0.29100000858306885z"></path></g></g></g></svg>