<svg xmlns="http://www.w3.org/2000/svg" xmlns:xlink="http://www.w3.org/1999/xlink" viewBox="0 0 512 512" width="512" height="512" style="width: 100%; height: 100%; transform: translate3d(0,0,0);" preserveAspectRatio="xMidYMid meet"><defs><clipPath id="__lottie_element_2804"><rect width="512" height="512" x="0" y="0"></rect></clipPath></defs><g clip-path="url(#__lottie_element_2804)"><g style="display: block;" transform="matrix(1.0199999809265137,0,0,1.0199999809265137,22.791778564453125,-5.2503204345703125)" opacity="1"><g opacity="1" transform="matrix(1,0,0,1,225.26199340820312,254.2899932861328)"><path fill="rgb(0,0,0)" fill-opacity="1" d=" M29.441999435424805,1.9600000381469727 C30.270000457763672,-0.800000011920929 -2.3519999980926514,1.9600000381469727 -32.1349983215332,-32.297000885009766 C-51.9119987487793,-55.04600143432617 -64.55799865722656,-94.04000091552734 -48.55799865722656,-131.0399932861328 C0.9350000023841858,-245.49200439453125 171.74899291992188,-189.26300048828125 173.4409942626953,-130.0399932861328 C174.4409942626953,-95.04000091552734 161.7740020751953,-99.70700073242188 163.4409942626953,-79.04000091552734 C164.78700256347656,-62.3489990234375 180.45399475097656,-62.06800079345703 177.4409942626953,-51.040000915527344 C157.7740020751953,20.959999084472656 108.46600341796875,2.9730000495910645 103.44100189208984,12.960000038146973 C97.44100189208984,24.885000228881836 131.26199340820312,25.422000885009766 145.4409942626953,54.959999084472656 C157.4409942626953,79.95999908447266 145.406005859375,88.70899963378906 156.4409942626953,99.95999908447266 C207.4409942626953,151.9600067138672 225.01199340820312,207.22300720214844 212.4409942626953,224.9600067138672 C208.447998046875,230.593994140625 198.4409942626953,236.6269989013672 176.4409942626953,232.9600067138672 C147.37899780273438,228.11599731445312 144.4409942626953,220.29299926757812 124.44100189208984,222.9600067138672 C108.10199737548828,225.13900756835938 106.43900299072266,244.48899841308594 60.441001892089844,244.9600067138672 C8.440999984741211,245.49200439453125 9.442000389099121,224.9600067138672 -11.557999610900879,221.9600067138672 C-35.0890007019043,218.5989990234375 -44.89099884033203,230.29299926757812 -81.55799865722656,224.9600067138672 C-107.75900268554688,221.1490020751953 -129.281005859375,203.3350067138672 -126.55799865722656,190.9600067138672 C-122.89099884033203,174.29299926757812 -56.224998474121094,128.29299926757812 -52.55799865722656,104.95999908447266 C-50.90999984741211,94.4739990234375 -109.01300048828125,113.53600311279297 -123.55799865722656,92.95999908447266 C-137.22500610351562,73.62699890136719 -114.89099884033203,68.95999908447266 -128.55799865722656,67.95999908447266 C-155.95199584960938,65.95500183105469 -187.7740020751953,63.74599838256836 -193.55799865722656,41.959999084472656 C-200.55799865722656,15.593999862670898 -163.79100036621094,21.898000717163086 -181.55799865722656,12.960000038146973 C-219.98800659179688,-6.373000144958496 -225.01199340820312,-44.1150016784668 -209.55799865722656,-57.040000915527344 C-191.22500610351562,-72.37300109863281 -156.22500610351562,-20.37299919128418 -107.55799865722656,-0.03999999910593033 C-79.15599822998047,11.826000213623047 -40.224998474121094,23.812999725341797 -39.55799865722656,18.959999084472656 C-38.82099914550781,13.597999572753906 -118.64800262451172,-4.834000110626221 -135.55799865722656,-48.040000915527344 C-149.35400390625,-83.29100036621094 -111.30500030517578,-87.26200103759766 -95.55799865722656,-69.04000091552734 C-25.558000564575195,11.960000038146973 26.441999435424805,11.960000038146973 29.441999435424805,1.9600000381469727z"></path></g><g opacity="1" transform="matrix(1,0,0,1,135.91400146484375,71.9000015258789)"><path fill="rgb(0,0,0)" fill-opacity="1" d=" M40.459999084472656,-54.97999954223633 C-2.880000114440918,-71.6500015258789 -75.20999908447266,4.119999885559082 -67.87999725341797,39.02000045776367 C-62.93000030517578,62.54999923706055 -42.560001373291016,70.48999786376953 -33.540000915527344,70.68000030517578 C12.460000038146973,71.6500015258789 75.20999908447266,-0.3199999928474426 74.79000091552734,-22.979999542236328 C74.52999877929688,-37.06999969482422 56.290000915527344,-48.88999938964844 40.459999084472656,-54.97999954223633z M-17.8799991607666,44.68000030517578 C-21.31999969482422,41.47999954223633 -9.460000038146973,17.920000076293945 6.460000038146973,4.019999980926514 C24.799999237060547,-12.020000457763672 48.529998779296875,-21.790000915527344 51.119998931884766,-17.649999618530273 C55.900001525878906,-10.010000228881836 -11.270000457763672,50.81999969482422 -17.8799991607666,44.68000030517578z"></path></g></g></g></svg>