<svg xmlns="http://www.w3.org/2000/svg" xmlns:xlink="http://www.w3.org/1999/xlink" viewBox="0 0 512 512" width="512" height="512" style="width: 100%; height: 100%; transform: translate3d(0,0,0);" preserveAspectRatio="xMidYMid meet"><defs><clipPath id="__lottie_element_1930"><rect width="512" height="512" x="0" y="0"></rect></clipPath></defs><g clip-path="url(#__lottie_element_1930)"><g style="display: block;" transform="matrix(1,0,0,1,2.57000732421875,9.149002075195312)" opacity="1"><g opacity="1" transform="matrix(1,0,0,1,278.1400146484375,248.3000030517578)"><path fill="rgb(0,0,0)" fill-opacity="1" d=" M159.22000122070312,41.5099983215332 C147.6199951171875,-1.4500000476837158 171.4810028076172,-88.5 118.29000091552734,-139.1199951171875 C70.55000305175781,-184.5500030517578 -2.25,-176.0399932861328 -29.1200008392334,-153.1199951171875 C-83.04000091552734,-107.12000274658203 -61.689998626708984,-49.400001525878906 -65.7699966430664,-45.4900016784668 C-73.01000213623047,-38.540000915527344 -183.197998046875,-60.4739990234375 -181.75999450683594,50.5099983215332 C-180.7100067138672,131.5500030517578 -94.18699645996094,180.4340057373047 -13.710000038146973,179.5500030517578 C77.29000091552734,178.5500030517578 183.9810028076172,120.55000305175781 183.22000122070312,96.01000213623047 C182.8300018310547,83.35900115966797 169.42999267578125,79.33000183105469 159.22000122070312,41.5099983215332z M64.95999908447266,-55.119998931884766 C44.279998779296875,-66 24.860000610351562,-73.5 10.289999961853027,-77.77999877929688 C-5.269000053405762,-82.36000061035156 0.7099999785423279,-114.44999694824219 22.959999084472656,-118.62000274658203 C54.11000061035156,-124.45999908447266 91.36000061035156,-101.12000274658203 90.95999908447266,-74.12000274658203 C90.75,-59.88999938964844 75.11000061035156,-49.77000045776367 64.95999908447266,-55.119998931884766z"></path></g><g opacity="1" transform="matrix(1,0,0,1,433.9410095214844,132.85000610351562)"><path fill="rgb(0,0,0)" fill-opacity="1" d=" M-44.57699966430664,-70.52999877929688 C17.1560001373291,-23.66699981689453 24.591999053955078,69.83399963378906 27.41900062561035,89.46199798583984 C28.60099983215332,97.66600036621094 58.48899841308594,75.0009994506836 52.417999267578125,53.46500015258789 C49.86199951171875,44.39899826049805 46.14799880981445,41.926998138427734 42.417999267578125,33.965999603271484 C39.154998779296875,27.000999450683594 61.917999267578125,25.368000030517578 61.917999267578125,9.666999816894531 C61.91899871826172,-12.99899959564209 39.40800094604492,-22.124000549316406 42.417999267578125,-26.0310001373291 C48.13600158691406,-33.45500183105469 57.9640007019043,-39.05500030517578 55.38399887084961,-56.21900177001953 C49.154998779296875,-97.66600036621094 -61.917999267578125,-83.69400024414062 -44.57699966430664,-70.52999877929688z"></path></g><g opacity="1" transform="matrix(1,0,0,1,123.9520034790039,412.64898681640625)"><path fill="rgb(0,0,0)" fill-opacity="1" d=" M-41.15399932861328,-52.5890007019043 C24.47800064086914,37.20100021362305 115.76799774169922,30.868000030517578 115.34400177001953,36.20100021362305 C114.21499633789062,50.41400146484375 97.14399719238281,71.15399932861328 79.4209976196289,66.6500015258789 C67.80799865722656,63.698001861572266 58.59000015258789,59.606998443603516 53.92300033569336,52.650001525878906 C48.479000091552734,44.534000396728516 43.47800064086914,71.5719985961914 24.423999786376953,71.14900207519531 C-3.430999994277954,70.53199768066406 -7.135000228881836,54.15299987792969 -12.074000358581543,42.1510009765625 C-16.856000900268555,30.534000396728516 -21.52199935913086,72.5719985961914 -48.071998596191406,66.1500015258789 C-115.76899719238281,49.775001525878906 -55.643001556396484,-72.41100311279297 -41.15399932861328,-52.5890007019043z"></path></g><g opacity="1" transform="matrix(1.0822900533676147,0,0,1.0822900533676147,118.59500122070312,119.7249984741211)"><path fill="rgb(0,0,0)" fill-opacity="1" d=" M89.83499908447266,-91.84500122070312 C69.32499694824219,-111.4749984741211 6.695000171661377,-91.59500122070312 -42.64500045776367,-40.04499816894531 C-91.9749984741211,11.505000114440918 -110.34500122070312,72.21499633789062 -89.83499908447266,91.84500122070312 C-69.32499694824219,111.4749984741211 -16.69499969482422,82.59500122070312 32.64500045776367,31.045000076293945 C81.9749984741211,-20.5049991607666 110.34500122070312,-72.21499633789062 89.83499908447266,-91.84500122070312z M-58.01499938964844,65.15499877929688 C-71.49500274658203,58.79499816894531 -36.834999084472656,10.125 -11.645000457763672,-15.385000228881836 C13.194999694824219,-40.54499816894531 58.095001220703125,-70.92500305175781 64.04499816894531,-60.1349983215332 C71.16500091552734,-47.20500183105469 -43.07500076293945,72.19499969482422 -58.01499938964844,65.15499877929688z"></path></g></g></g></svg>