<svg xmlns="http://www.w3.org/2000/svg" xmlns:xlink="http://www.w3.org/1999/xlink" viewBox="0 0 512 512" width="512" height="512" style="width: 100%; height: 100%; transform: translate3d(0,0,0);" preserveAspectRatio="xMidYMid meet"><defs><clipPath id="__lottie_element_2707"><rect width="512" height="512" x="0" y="0"></rect></clipPath></defs><g clip-path="url(#__lottie_element_2707)"><g style="display: block;" transform="matrix(1,0,0,1,-8.580001831054688,39.819000244140625)" opacity="1"><g opacity="1" transform="matrix(1,0,0,1,259.1449890136719,232.56100463867188)"><path fill="rgb(0,0,0)" fill-opacity="1" d=" M-60.125,-249.96200561523438 C-120.28500366210938,-249.78399658203125 -161.39300537109375,-202.64100646972656 -156.11500549316406,-162.6199951171875 C-150.11500549316406,-117.12899780273438 -101.61000061035156,-106.14600372314453 -100.11499786376953,-62.2130012512207 C-99.69499969482422,-49.869998931884766 -131.61599731445312,-78.06199645996094 -169.61500549316406,-61.689998626708984 C-227.56500244140625,-36.72200012207031 -258.9100036621094,43.48899841308594 -229.61500549316406,78.9990005493164 C-211.1649932861328,101.36299896240234 -149.86500549316406,81.99500274658203 -131.61500549316406,81.61399841308594 C-119.57499694824219,81.36299896240234 -127.11599731445312,143.84300231933594 -37.625,220.13800048828125 C-19.46500015258789,235.6199951171875 9.10099983215332,214.3260040283203 -9.625,195.0959930419922 C-43.055999755859375,160.76600646972656 -85.69000244140625,101.15599822998047 -75.11499786376953,95.2020034790039 C-66.23500061035156,90.2020034790039 -48.685001373291016,148.9290008544922 32.875,159.00900268554688 C91.1050033569336,166.20599365234375 156.36099243164062,139.6540069580078 196.0449981689453,100.75599670410156 C218.61399841308594,78.63400268554688 243.9320068359375,87.51399993896484 244.86399841308594,59.64799880981445 C250.56500244140625,-110.85199737548828 87.375,-250.3979949951172 -60.125,-249.96200561523438z M105.50499725341797,-133.75 C14.505000114440918,-79.11699676513672 18.430999755859375,-18.594999313354492 -8.145000457763672,-9.640000343322754 C-32.57500076293945,-1.4079999923706055 -64.23600006103516,-22.108999252319336 -54.474998474121094,-57.893001556396484 C-37.23500061035156,-121.09300231933594 51.76599884033203,-165.03500366210938 99.1050033569336,-161.19700622558594 C115.23400115966797,-159.88900756835938 120.43499755859375,-142.71400451660156 105.50499725341797,-133.75z"></path></g></g></g></svg>