<svg xmlns="http://www.w3.org/2000/svg" xmlns:xlink="http://www.w3.org/1999/xlink" viewBox="0 0 512 512" width="512" height="512" style="width: 100%; height: 100%; transform: translate3d(0,0,0);" preserveAspectRatio="xMidYMid meet"><defs><clipPath id="__lottie_element_53469"><rect width="512" height="512" x="0" y="0"></rect></clipPath></defs><g clip-path="url(#__lottie_element_53469)"><g style="display: block;" transform="matrix(1,0,0,1,0,0)" opacity="1"><g opacity="1" transform="matrix(1,0,0,1,208.8159942626953,103.2770004272461)"><path fill="rgb(0,0,0)" fill-opacity="1" d=" M51.94900131225586,-99.17500305175781 C55.433998107910156,-97.0260009765625 54.34299850463867,-91.52400207519531 53.66999816894531,-86.65399932861328 C50.33599853515625,-62.54600143432617 34.23400115966797,-25.520999908447266 26.804000854492188,-0.37299999594688416 C17.915000915527344,29.714000701904297 22.049999237060547,43.61899948120117 -2.431999921798706,67.24600219726562 C-7.440999984741211,72.0790023803711 -44.505001068115234,103.2770004272461 -47.83399963378906,102.53600311279297 C-49.70800018310547,101.39099884033203 -50.250999450683594,99.50700378417969 -51.07899856567383,97.6510009765625 C-54.34299850463867,90.33499908447266 -53.74100112915039,51.13399887084961 -53.005001068115234,40.904998779296875 C-50.29399871826172,3.2790000438690186 -6.685999870300293,-45.400001525878906 18.698999404907227,-73.03700256347656 C23.41200065612793,-78.16899871826172 45.4109992980957,-103.66000366210938 51.94900131225586,-99.17500305175781z"></path></g><g opacity="1" transform="matrix(1,0,0,1,287.1319885253906,70.05999755859375)"><path fill="rgb(0,0,0)" fill-opacity="1" d=" M36.005001068115234,-61.69599914550781 C39.36800003051758,-57.310001373291016 22.520000457763672,-14.326000213623047 19.559999465942383,-5.064000129699707 C12.333000183105469,17.55299949645996 5.672999858856201,40.3650016784668 -1.065000057220459,63.13600158691406 C-4.624000072479248,67.86699676513672 -21.341999053955078,57.81700134277344 -26.280000686645508,56.04499816894531 C-30.642000198364258,54.47999954223633 -35.93299865722656,54.63100051879883 -40.367000579833984,52.93299865722656 C-34.04999923706055,14.104999542236328 -15.947999954223633,-21.500999450683594 11.024999618530273,-49.9109992980957 C17.756000518798828,-57 31.618000030517578,-67.55999755859375 36.005001068115234,-61.69599914550781z"></path></g><g opacity="1" transform="matrix(1,0,0,1,259.9360046386719,318.7720031738281)"><path fill="rgb(0,0,0)" fill-opacity="1" d=" M205.7760009765625,-30.226999282836914 C200.88499450683594,-40.76900100708008 127.86399841308594,-70.06400299072266 112.59700012207031,-78.33899688720703 C108.30999755859375,-80.66200256347656 97.29199981689453,-86.61100006103516 94.43599700927734,-89.44100189208984 C85.96800231933594,-97.83300018310547 85.93099975585938,-114.4489974975586 80.44200134277344,-124.88300323486328 C63.97100067138672,-156.18899536132812 15.298999786376953,-173.87100219726562 -14.168999671936035,-189.6540069580078 C-17.334999084472656,-188.9949951171875 -23.819000244140625,-162.89599609375 -26.533000946044922,-157.5570068359375 C-35.85599899291992,-139.2169952392578 -72.36100006103516,-111.1240005493164 -90.43099975585938,-100.38899993896484 C-103.6780014038086,-92.51899719238281 -106.26499938964844,-95.37799835205078 -113.20600128173828,-108.85900115966797 C-123.48600006103516,-128.82699584960938 -121.23899841308594,-155.01199340820312 -118.23899841308594,-176.6280059814453 C-117.52999877929688,-179.38400268554688 -118.40399932861328,-180.3560028076172 -121.16200256347656,-179.5240020751953 C-133.31500244140625,-175.86099243164062 -166.8419952392578,-134.21499633789062 -174.7429962158203,-122.10800170898438 C-209.21099853515625,-69.2979965209961 -209.12899780273438,-10.942999839782715 -183.1199951171875,45.76499938964844 C-149.26400756835938,119.58399963378906 -73.19499969482422,172.28900146484375 4.939000129699707,189.6540069580078 C7.741000175476074,186.79800415039062 -4.548999786376953,160.66900634765625 -6.124000072479248,155.33700561523438 C-17.569000244140625,116.58999633789062 -28.551000595092773,40.4370002746582 28.145000457763672,34.29399871826172 C92.19300079345703,27.354999542236328 153.38600158691406,56.98099899291992 197.58099365234375,-6.164999961853027 C201.94200134277344,-12.395999908447266 209.2100067138672,-22.826000213623047 205.7760009765625,-30.226999282836914z M15.034000396728516,-104.90299987792969 C38.40700149536133,-107.31500244140625 56.34600067138672,-92.72100067138672 61.45500183105469,-70.61599731445312 C39.742000579833984,-66.83000183105469 13.934000015258789,-80.9749984741211 15.034000396728516,-104.90299987792969z"></path></g></g></g></svg>