<svg xmlns="http://www.w3.org/2000/svg" xmlns:xlink="http://www.w3.org/1999/xlink" viewBox="0 0 512 512" width="512" height="512" style="width: 100%; height: 100%; transform: translate3d(0,0,0);" preserveAspectRatio="xMidYMid meet"><defs><clipPath id="__lottie_element_52796"><rect width="512" height="512" x="0" y="0"></rect></clipPath></defs><g clip-path="url(#__lottie_element_52796)"><g style="display: block;" transform="matrix(1,0,0,1,248.9250030517578,251.75799560546875)" opacity="1"><g opacity="1" transform="matrix(1,0,0,1,0,0)"><path fill="rgb(0,0,0)" fill-opacity="1" d=" M-78.8489990234375,71.4489974975586 C-80.75900268554688,47.15399932861328 -70.01100158691406,26.493000030517578 -54.84199905395508,25.299999237060547 C-39.67300033569336,24.10700035095215 -25.827999114990234,42.834999084472656 -23.917999267578125,67.12999725341797 C-22.007999420166016,91.42500305175781 -32.75600051879883,112.08599853515625 -47.92499923706055,113.27899932861328 C-63.09400177001953,114.47200012207031 -76.93900299072266,95.74400329589844 -78.8489990234375,71.4489974975586z M53.770999908447266,25.312999725341797 C68.93499755859375,26.562999725341797 79.60600280761719,47.26599884033203 77.60399627685547,71.5530014038086 C75.60199737548828,95.83999633789062 61.68600082397461,114.51599884033203 46.52199935913086,113.26599884033203 C31.357999801635742,112.01599884033203 20.687000274658203,91.31300354003906 22.68899917602539,67.0260009765625 C24.69099998474121,42.73899841308594 38.606998443603516,24.062999725341797 53.770999908447266,25.312999725341797z M189.85000610351562,-38.83000183105469 C159.72999572753906,-91.25 120.83000183105469,-97.23100280761719 73.72000122070312,-82.63099670410156 C37.9900016784668,-71.56099700927734 24.12700080871582,-67.93000030517578 28.593000411987305,-78.64800262451172 C41.8650016784668,-110.5 114.1969985961914,-117.13600158691406 146.52999877929688,-107.95999908447266 C152.12600708007812,-106.37200164794922 158.0500030517578,-109.33000183105469 161.86000061035156,-113.72000122070312 C221.72000122070312,-182.72999572753906 202.08999633789062,-246.82000732421875 134.10000610351562,-235.9199981689453 C63.7599983215332,-224.63999938964844 37.220001220703125,-176.1999969482422 37.220001220703125,-176.1999969482422 C40.540000915527344,-195.44000244140625 53.810001373291016,-206.05999755859375 49.15999984741211,-227.9600067138672 C44.52000045776367,-249.85000610351562 5.369999885559082,-249.19000244140625 -12.550000190734863,-202.0800018310547 C-30.469999313354492,-154.9600067138672 -14.59000015258789,-80.63999938964844 -14.59000015258789,-80.63999938964844 C-49.59000015258789,-113.08000183105469 -123.54000091552734,-129.97000122070312 -185.75,-36.18000030517578 C-264.2900085449219,82.25 -143.94000244140625,241.19900512695312 -62.31999969482422,241.86900329589844 C-18.5,242.218994140625 -3.390000104904175,225.02000427246094 1.0700000524520874,217.6300048828125 C5.53000020980835,225.02000427246094 20.6299991607666,242.218994140625 64.45999908447266,241.86900329589844 C146.0800018310547,241.19900512695312 258.8599853515625,81.27999877929688 189.85000610351562,-38.83000183105469z"></path></g></g></g></svg>