<svg xmlns="http://www.w3.org/2000/svg" xmlns:xlink="http://www.w3.org/1999/xlink" viewBox="0 0 512 512" width="512" height="512" style="width: 100%; height: 100%; transform: translate3d(0,0,0);" preserveAspectRatio="xMidYMid meet"><defs><clipPath id="__lottie_element_51530"><rect width="512" height="512" x="0" y="0"></rect></clipPath></defs><g clip-path="url(#__lottie_element_51530)"><g style="display: block;" transform="matrix(1,0,0,1,3.274993896484375,13.52301025390625)" opacity="1"><g opacity="1" transform="matrix(1,0,0,1,361.2980041503906,78.5469970703125)"><path fill="rgb(65,63,63)" fill-opacity="1" d=" M-110.05699920654297,-20.854000091552734 C-55.39899826049805,-30.547000885009766 -6.570000171661377,-21.349000930786133 40.766998291015625,0.5299999713897705 C75.83399963378906,16.738000869750977 101.51699829101562,39.8129997253418 124.39299774169922,70.16400146484375 C124.73400115966797,61.2760009765625 116.83200073242188,54.32699966430664 113.08499908447266,46.7599983215332 C55.1879997253418,-70.16400146484375 -109.72699737548828,-63.23699951171875 -124.73400115966797,-48.22999954223633 C-122.11399841308594,-45.013999938964844 -113.61399841308594,-38.132999420166016 -110.05699920654297,-20.854000091552734z"></path></g><g opacity="1" transform="matrix(1,0,0,1,252.1540069580078,242.08299255371094)"><path fill="rgb(65,63,63)" fill-opacity="1" d=" M245.40899658203125,-21.424999237060547 C240.10899353027344,-70.25499725341797 201.6750030517578,-112.41400146484375 163.7449951171875,-140.0489959716797 C107.83000183105469,-180.78900146484375 54.733001708984375,-180.76699829101562 -11.677000045776367,-166.947998046875 C-10.880000114440918,-167.14599609375 -11.869999885559082,-179.0229949951172 -11.979999542236328,-180.06199645996094 C-13.10200023651123,-190.63800048828125 -17.718000411987305,-200.17799377441406 -23.229999542236328,-209.13099670410156 C-28.974000930786133,-218.46099853515625 -36.45500183105469,-226.58599853515625 -45.46699905395508,-232.85299682617188 C-49.512001037597656,-235.66600036621094 -54.06100082397461,-238.11000061035156 -58.69599914550781,-239.81700134277344 C-60.13999938964844,-240.36099243164062 -63.4119987487793,-241.83299255371094 -64.83399963378906,-240.50599670410156 C-58.92399978637695,-223.62600708007812 -37.7140007019043,-168.8090057373047 -46.42599868774414,-154.66600036621094 C-50.685001373291016,-147.7530059814453 -87.84400177001953,-124.70600128173828 -97.5999984741211,-115.91699981689453 C-114.8759994506836,-100.35399627685547 -127.30000305175781,-88.94999694824219 -133.22500610351562,-65.6969985961914 C-145.22999572753906,-18.58099937438965 -133.9669952392578,20.624000549316406 -188.7689971923828,46.367000579833984 C-213.26699829101562,57.875 -240.68899536132812,50.268001556396484 -244.79200744628906,84.3499984741211 C-251.9040069580078,143.41299438476562 -218.99200439453125,145.9429931640625 -168.9149932861328,144.04200744628906 C-168.9149932861328,144.04200744628906 -163.72000122070312,142.92799377441406 -163.72000122070312,142.92799377441406 C-152.7729949951172,121.6760025024414 -141.02099609375,102.22899627685547 -117.96399688720703,92.64800262451172 C-93.13400268554688,82.33100128173828 -72.19200134277344,88.5979995727539 -46.9109992980957,86.03199768066406 C53.051998138427734,75.88700103759766 77.88500213623047,-28.90399932861328 16.93899917602539,-99.52100372314453 C21.56100082397461,-105.3270034790039 31.395999908447266,-96.30599975585938 35.26300048828125,-93.31700134277344 C62.05400085449219,-72.6050033569336 77.14199829101562,-44.65800094604492 84.58599853515625,-11.826000213623047 C100.1500015258789,56.814998626708984 83.13600158691406,89.61499786376953 39.4739990234375,139.72000122070312 C11.116999626159668,172.26100158691406 -30.09600067138672,198.97000122070312 -44.37799835205078,241.83299255371094 C52.9370002746582,224.6580047607422 155.38699340820312,210.74600219726562 210.7469940185547,118.86499786376953 C236.56700134277344,76.01100158691406 251.9040069580078,38.4109992980957 245.40899658203125,-21.424999237060547z M-211.63299560546875,105.29399871826172 C-213.71400451660156,110.65399932861328 -209.83799743652344,112.43699645996094 -220.11199951171875,111.0199966430664 C-220.11199951171875,111.0199966430664 -228.19000244140625,84.84200286865234 -228.19000244140625,84.84200286865234 C-228.19000244140625,84.84200286865234 -203.83299255371094,78.3499984741211 -203.83299255371094,78.3499984741211 C-202.83099365234375,79.33100128173828 -210.01800537109375,101.13300323486328 -211.63299560546875,105.29399871826172z M-89.3550033569336,-25.625999450683594 C-103.73400115966797,-33.12699890136719 -109.9800033569336,-66.83499908447266 -101.58000183105469,-81.09200286865234 C-91.05000305175781,-88.21800231933594 -78.71700286865234,-50.14899826049805 -52.59000015258789,-52.42399978637695 C-47.54899978637695,-45.417999267578125 -80.61399841308594,-21.06599998474121 -89.3550033569336,-25.625999450683594z"></path></g><g opacity="1" transform="matrix(1,0,0,1,142.90899658203125,86.83699798583984)"><path fill="rgb(65,63,63)" fill-opacity="1" d=" M52.755001068115234,-38.380001068115234 C55.35200119018555,-32.071998596191406 57.757999420166016,-16.663999557495117 56.305999755859375,-9.942000389099121 C37.07600021362305,22.687999725341797 -30.868000030517578,38.974998474121094 -57.75899887084961,14.817000389099121 C-57.75899887084961,14.817000389099121 -40.834999084472656,14.805000305175781 -20.84000015258789,10.89799976348877 C3.6500000953674316,6.111999988555908 39.27299880981445,-38.97600173950195 52.755001068115234,-38.380001068115234z"></path></g><g opacity="1" transform="matrix(1,0,0,1,160.51699829101562,38.65800094604492)"><path fill="rgb(65,63,63)" fill-opacity="1" d=" M-5.179999828338623,29.28499984741211 C-5.179999828338623,29.28499984741211 -19.108999252319336,-25.327999114990234 -19.108999252319336,-25.327999114990234 C-13.72599983215332,-29.285999298095703 15.892999649047852,-3.681999921798706 19.108999252319336,11.407999992370605 C11.218999862670898,15.737000465393066 8.815999984741211,18.437999725341797 -5.179999828338623,29.28499984741211z"></path></g></g></g></svg>