<svg xmlns="http://www.w3.org/2000/svg" xmlns:xlink="http://www.w3.org/1999/xlink" viewBox="0 0 512 512" width="512" height="512" style="width: 100%; height: 100%; transform: translate3d(0,0,0);" preserveAspectRatio="xMidYMid meet"><defs><clipPath id="__lottie_element_52343"><rect width="512" height="512" x="0" y="0"></rect></clipPath></defs><g clip-path="url(#__lottie_element_52343)"><g style="display: block;" transform="matrix(1,0,0,1,0,0)" opacity="1"><g opacity="1" transform="matrix(1,0,0,1,252.20899963378906,166.66299438476562)"><path fill="rgb(0,0,0)" fill-opacity="1" d=" M88.36299896240234,-72.33999633789062 C59.862998962402344,-80.18399810791016 27.572999954223633,-81.2760009765625 -0.2549999952316284,-81.30999755859375 C-0.6370000243186951,-81.31099700927734 -1.0230000019073486,-81.31099700927734 -1.409999966621399,-81.31099700927734 C-27.138999938964844,-81.31099700927734 -60.1150016784668,-80.23300170898438 -89.36499786376953,-72.3499984741211 C-107.73400115966797,-67.4000015258789 -114.63200378417969,-53.202999114990234 -117.18399810791016,-42.165000915527344 C-122.58899688720703,-18.781999588012695 -122.06400299072266,3.121999979019165 -120.81600189208984,29.326000213623047 C-120.04199981689453,45.57500076293945 -110.0790023803711,62.172000885009766 -98.13200378417969,67.11000061035156 C-75.50199890136719,76.46399688720703 -34.13399887084961,81.31099700927734 -4.585000038146973,81.31099700927734 C-4.317999839782715,81.31099700927734 -4.053999900817871,81.30999755859375 -3.7890000343322754,81.30899810791016 C35.834999084472656,81.19100189208984 64.93900299072266,77.53600311279297 87.80699920654297,69.80500030517578 C105.56400299072266,63.803001403808594 116.61900329589844,51.08000183105469 118.13500213623047,34.89699935913086 C120.32499694824219,11.543000221252441 122.58899688720703,-12.607999801635742 118.1500015258789,-36.17599868774414 C114.30699920654297,-56.57500076293945 105.12100219726562,-67.72799682617188 88.36299896240234,-72.33999633789062z M-77.10199737548828,-29.85300064086914 C-95.50499725341797,-19.36400032043457 -97.89199829101562,-45.01900100708008 -83.79000091552734,-54.071998596191406 C-60.10300064086914,-69.28099822998047 -31.400999069213867,-58.19900131225586 -30.783000946044922,-50.41600036621094 C-29.798999786376953,-38.040000915527344 -52.29100036621094,-43.99399948120117 -77.10199737548828,-29.85300064086914z"></path><path stroke-linecap="butt" stroke-linejoin="miter" fill-opacity="0" stroke-miterlimit="10" stroke="rgb(29,29,27)" stroke-opacity="1" stroke-width="1" d=" M88.36299896240234,-72.33999633789062 C59.862998962402344,-80.18399810791016 27.572999954223633,-81.2760009765625 -0.2549999952316284,-81.30999755859375 C-0.6370000243186951,-81.31099700927734 -1.0230000019073486,-81.31099700927734 -1.409999966621399,-81.31099700927734 C-27.138999938964844,-81.31099700927734 -60.1150016784668,-80.23300170898438 -89.36499786376953,-72.3499984741211 C-107.73400115966797,-67.4000015258789 -114.63200378417969,-53.202999114990234 -117.18399810791016,-42.165000915527344 C-122.58899688720703,-18.781999588012695 -122.06400299072266,3.121999979019165 -120.81600189208984,29.326000213623047 C-120.04199981689453,45.57500076293945 -110.0790023803711,62.172000885009766 -98.13200378417969,67.11000061035156 C-75.50199890136719,76.46399688720703 -34.13399887084961,81.31099700927734 -4.585000038146973,81.31099700927734 C-4.317999839782715,81.31099700927734 -4.053999900817871,81.30999755859375 -3.7890000343322754,81.30899810791016 C35.834999084472656,81.19100189208984 64.93900299072266,77.53600311279297 87.80699920654297,69.80500030517578 C105.56400299072266,63.803001403808594 116.61900329589844,51.08000183105469 118.13500213623047,34.89699935913086 C120.32499694824219,11.543000221252441 122.58899688720703,-12.607999801635742 118.1500015258789,-36.17599868774414 C114.30699920654297,-56.57500076293945 105.12100219726562,-67.72799682617188 88.36299896240234,-72.33999633789062z M-77.10199737548828,-29.85300064086914 C-95.50499725341797,-19.36400032043457 -97.89199829101562,-45.01900100708008 -83.79000091552734,-54.071998596191406 C-60.10300064086914,-69.28099822998047 -31.400999069213867,-58.19900131225586 -30.783000946044922,-50.41600036621094 C-29.798999786376953,-38.040000915527344 -52.29100036621094,-43.99399948120117 -77.10199737548828,-29.85300064086914z"></path></g><g opacity="1" transform="matrix(1,0,0,1,249.00900268554688,160.54299926757812)"><path fill="rgb(0,0,0)" fill-opacity="1" d=" M221.84100341796875,-29.600000381469727 C220.56399536132812,-40.95500183105469 215.093994140625,-44.393001556396484 205.83999633789062,-48.474998474121094 C197.6820068359375,-52.073001861572266 179.2570037841797,-54.025001525878906 175.0050048828125,-54.43600082397461 C150.177001953125,-114.65399932861328 84.40299987792969,-154.3090057373047 -0.7979999780654907,-154.3090057373047 C-85.99199676513672,-154.3090057373047 -150.55599975585938,-114.66000366210938 -174.85699462890625,-54.45000076293945 C-178.79800415039062,-54.071998596191406 -197.5800018310547,-52.11800003051758 -205.83999633789062,-48.474998474121094 C-215.093994140625,-44.393001556396484 -220.56399536132812,-40.95500183105469 -221.83999633789062,-29.600000381469727 C-224.71600341796875,-5.431000232696533 -222.39700317382812,22.700000762939453 -215.48399353027344,47.512001037597656 C-213.03399658203125,58.4370002746582 -204.18600463867188,62.244998931884766 -194.72000122070312,65.11499786376953 C-191.7740020751953,66.00800323486328 -187.69400024414062,66.5469970703125 -183.47300720214844,66.87000274658203 C-186.13900756835938,48.10499954223633 -186.68299865722656,24.76300048828125 -177.01699829101562,10.08899974822998 C-177.01699829101562,10.08899974822998 -181.18699645996094,37.57899856567383 -170.10699462890625,67.3219985961914 C-169.99200439453125,67.32099914550781 -169.8679962158203,67.3219985961914 -169.75599670410156,67.3219985961914 C-142.29100036621094,120.61699676513672 -80.59700012207031,154.3090057373047 -0.7979999780654907,154.3090057373047 C68.78099822998047,154.3090057373047 125.39099884033203,128.69000244140625 157.33700561523438,86.8010025024414 C180.03700256347656,50.84600067138672 173.85299682617188,10.08899974822998 173.85299682617188,10.08899974822998 C183.5540008544922,24.81599998474121 182.9709930419922,48.277000427246094 180.281005859375,67.0770034790039 C185.5760040283203,66.79900360107422 191.03399658203125,66.23300170898438 194.72000122070312,65.11499786376953 C204.18699645996094,62.244998931884766 213.03500366210938,58.4370002746582 215.48500061035156,47.512001037597656 C222.3979949951172,22.700000762939453 224.71600341796875,-5.431000232696533 221.84100341796875,-29.600000381469727z M130.68099975585938,41.89099884033203 C128.8040008544922,61.92900085449219 115.43900299072266,77.57599639892578 94.01399993896484,84.81800079345703 C70.15799713134766,92.88200378417969 40.10599899291992,96.69300079345703 -0.5609999895095825,96.81400299072266 C-0.8980000019073486,96.81600189208984 -1.2369999885559082,96.81600189208984 -1.5740000009536743,96.81600189208984 C-43.382999420166016,96.81600189208984 -81.06900024414062,89.11599731445312 -98.51599884033203,81.90399932861328 C-113.802001953125,75.58599853515625 -126.04399871826172,55.80500030517578 -126.99099731445312,35.89099884033203 C-128.2740020751953,8.95300006866455 -128.8040008544922,-13.605999946594238 -123.12699890136719,-38.15999984741211 C-118.7020034790039,-57.29800033569336 -106.44300079345703,-70.48600006103516 -88.60700225830078,-75.29299926757812 C-57.8489990234375,-83.58200073242188 -23.510000228881836,-84.62000274658203 2.9560000896453857,-84.57599639892578 C31.409000396728516,-84.54199981689453 64.48100280761719,-83.40899658203125 94.05500030517578,-75.2699966430664 C114.44000244140625,-69.66000366210938 126.04399871826172,-55.845001220703125 130.572998046875,-31.79400062561035 C135.25799560546875,-6.927999973297119 132.82699584960938,19.007999420166016 130.68099975585938,41.89099884033203z"></path><path stroke-linecap="butt" stroke-linejoin="miter" fill-opacity="0" stroke-miterlimit="10" stroke="rgb(29,29,27)" stroke-opacity="1" stroke-width="1" d=" M221.84100341796875,-29.600000381469727 C220.56399536132812,-40.95500183105469 215.093994140625,-44.393001556396484 205.83999633789062,-48.474998474121094 C197.6820068359375,-52.073001861572266 179.2570037841797,-54.025001525878906 175.0050048828125,-54.43600082397461 C150.177001953125,-114.65399932861328 84.40299987792969,-154.3090057373047 -0.7979999780654907,-154.3090057373047 C-85.99199676513672,-154.3090057373047 -150.55599975585938,-114.66000366210938 -174.85699462890625,-54.45000076293945 C-178.79800415039062,-54.071998596191406 -197.5800018310547,-52.11800003051758 -205.83999633789062,-48.474998474121094 C-215.093994140625,-44.393001556396484 -220.56399536132812,-40.95500183105469 -221.83999633789062,-29.600000381469727 C-224.71600341796875,-5.431000232696533 -222.39700317382812,22.700000762939453 -215.48399353027344,47.512001037597656 C-213.03399658203125,58.4370002746582 -204.18600463867188,62.244998931884766 -194.72000122070312,65.11499786376953 C-191.7740020751953,66.00800323486328 -187.69400024414062,66.5469970703125 -183.47300720214844,66.87000274658203 C-186.13900756835938,48.10499954223633 -186.68299865722656,24.76300048828125 -177.01699829101562,10.08899974822998 C-177.01699829101562,10.08899974822998 -181.18699645996094,37.57899856567383 -170.10699462890625,67.3219985961914 C-169.99200439453125,67.32099914550781 -169.8679962158203,67.3219985961914 -169.75599670410156,67.3219985961914 C-142.29100036621094,120.61699676513672 -80.59700012207031,154.3090057373047 -0.7979999780654907,154.3090057373047 C68.78099822998047,154.3090057373047 125.39099884033203,128.69000244140625 157.33700561523438,86.8010025024414 C180.03700256347656,50.84600067138672 173.85299682617188,10.08899974822998 173.85299682617188,10.08899974822998 C183.5540008544922,24.81599998474121 182.9709930419922,48.277000427246094 180.281005859375,67.0770034790039 C185.5760040283203,66.79900360107422 191.03399658203125,66.23300170898438 194.72000122070312,65.11499786376953 C204.18699645996094,62.244998931884766 213.03500366210938,58.4370002746582 215.48500061035156,47.512001037597656 C222.3979949951172,22.700000762939453 224.71600341796875,-5.431000232696533 221.84100341796875,-29.600000381469727z M130.68099975585938,41.89099884033203 C128.8040008544922,61.92900085449219 115.43900299072266,77.57599639892578 94.01399993896484,84.81800079345703 C70.15799713134766,92.88200378417969 40.10599899291992,96.69300079345703 -0.5609999895095825,96.81400299072266 C-0.8980000019073486,96.81600189208984 -1.2369999885559082,96.81600189208984 -1.5740000009536743,96.81600189208984 C-43.382999420166016,96.81600189208984 -81.06900024414062,89.11599731445312 -98.51599884033203,81.90399932861328 C-113.802001953125,75.58599853515625 -126.04399871826172,55.80500030517578 -126.99099731445312,35.89099884033203 C-128.2740020751953,8.95300006866455 -128.8040008544922,-13.605999946594238 -123.12699890136719,-38.15999984741211 C-118.7020034790039,-57.29800033569336 -106.44300079345703,-70.48600006103516 -88.60700225830078,-75.29299926757812 C-57.8489990234375,-83.58200073242188 -23.510000228881836,-84.62000274658203 2.9560000896453857,-84.57599639892578 C31.409000396728516,-84.54199981689453 64.48100280761719,-83.40899658203125 94.05500030517578,-75.2699966430664 C114.44000244140625,-69.66000366210938 126.04399871826172,-55.845001220703125 130.572998046875,-31.79400062561035 C135.25799560546875,-6.927999973297119 132.82699584960938,19.007999420166016 130.68099975585938,41.89099884033203z"></path></g><g opacity="1" transform="matrix(1,0,0,1,326.6499938964844,399.697998046875)"><path fill="rgb(0,0,0)" fill-opacity="1" d=" M21.676000595092773,-17.128999710083008 C20.236000061035156,-18.42799949645996 18.371000289916992,-19.0939998626709 16.440000534057617,-19.031999588012695 C4.4629998207092285,-17.757999420166016 -7.1579999923706055,-17.20400047302246 -18.070999145507812,-17.378999710083008 C-22.09600067138672,-17.131999969482422 -25.19700050354004,-13.704000473022461 -25.003000259399414,-9.6899995803833 C-25.003000259399414,-9.6899995803833 -23.993999481201172,11.088000297546387 -23.993999481201172,11.088000297546387 C-23.79800033569336,15.13599967956543 -20.315000534057617,18.284000396728516 -16.24799919128418,18.075000762939453 C-16.19099998474121,18.07200050354004 -16.135000228881836,18.070999145507812 -16.077999114990234,18.070999145507812 C-15.963000297546387,18.070999145507812 -15.847000122070312,18.07699966430664 -15.732999801635742,18.08799934387207 C-5.435999870300293,19.0939998626709 5.785999774932861,18.552000045776367 17.62700080871582,16.481000900268555 C17.773000717163086,16.45599937438965 17.920000076293945,16.43899917602539 18.06800079345703,16.433000564575195 C20.041000366210938,16.33799934387207 21.86199951171875,15.484999656677246 23.190000534057617,14.031999588012695 C24.51799964904785,12.57800006866455 25.19700050354004,10.697999954223633 25.101999282836914,8.73799991607666 C25.101999282836914,8.73799991607666 24.093000411987305,-12.041000366210938 24.093000411987305,-12.041000366210938 C23.99799919128418,-14.003000259399414 23.139999389648438,-15.8100004196167 21.676000595092773,-17.128999710083008z"></path><path stroke-linecap="butt" stroke-linejoin="miter" fill-opacity="0" stroke-miterlimit="10" stroke="rgb(29,29,27)" stroke-opacity="1" stroke-width="1" d=" M21.676000595092773,-17.128999710083008 C20.236000061035156,-18.42799949645996 18.371000289916992,-19.0939998626709 16.440000534057617,-19.031999588012695 C4.4629998207092285,-17.757999420166016 -7.1579999923706055,-17.20400047302246 -18.070999145507812,-17.378999710083008 C-22.09600067138672,-17.131999969482422 -25.19700050354004,-13.704000473022461 -25.003000259399414,-9.6899995803833 C-25.003000259399414,-9.6899995803833 -23.993999481201172,11.088000297546387 -23.993999481201172,11.088000297546387 C-23.79800033569336,15.13599967956543 -20.315000534057617,18.284000396728516 -16.24799919128418,18.075000762939453 C-16.19099998474121,18.07200050354004 -16.135000228881836,18.070999145507812 -16.077999114990234,18.070999145507812 C-15.963000297546387,18.070999145507812 -15.847000122070312,18.07699966430664 -15.732999801635742,18.08799934387207 C-5.435999870300293,19.0939998626709 5.785999774932861,18.552000045776367 17.62700080871582,16.481000900268555 C17.773000717163086,16.45599937438965 17.920000076293945,16.43899917602539 18.06800079345703,16.433000564575195 C20.041000366210938,16.33799934387207 21.86199951171875,15.484999656677246 23.190000534057617,14.031999588012695 C24.51799964904785,12.57800006866455 25.19700050354004,10.697999954223633 25.101999282836914,8.73799991607666 C25.101999282836914,8.73799991607666 24.093000411987305,-12.041000366210938 24.093000411987305,-12.041000366210938 C23.99799919128418,-14.003000259399414 23.139999389648438,-15.8100004196167 21.676000595092773,-17.128999710083008z"></path></g><g opacity="1" transform="matrix(1,0,0,1,258.5769958496094,399.3680114746094)"><path fill="rgb(0,0,0)" fill-opacity="1" d=" M236.3800048828125,58.090999603271484 C234.38600158691406,29.393999099731445 227.03500366210938,-31.724000930786133 200.1060028076172,-65.16899871826172 C186.4709930419922,-82.10399627685547 172.47799682617188,-92.51599884033203 160.35400390625,-98.91799926757812 C144.13800048828125,-107.48200225830078 124.24500274658203,-106.80999755859375 108.61900329589844,-97.30599975585938 C76.94499969482422,-78.04199981689453 35.915000915527344,-67.0719985961914 -10.95199966430664,-67.0719985961914 C-55.19599914550781,-67.0719985961914 -93.91799926757812,-76.84600067138672 -124.41400146484375,-94.14600372314453 C-143.4770050048828,-104.95999908447266 -167.7239990234375,-103.052001953125 -184.3280029296875,-89.04100036621094 C-208.1230010986328,-68.96299743652344 -234.125,-26.683000564575195 -236.7899932861328,62.32899856567383 C-237.093994140625,72.4800033569336 -230.33799743652344,81.65799713134766 -220.1790008544922,84.77400207519531 C-214.5330047607422,86.50599670410156 -203.3820037841797,88.40899658203125 -192.5330047607422,90.31400299072266 C-190.4459991455078,90.68099975585938 -186.02099609375,89.33300018310547 -186.0240020751953,85.17400360107422 C-186.0279998779297,78.83100128173828 -183.6840057373047,63.025001525878906 -178.36500549316406,42.98899841308594 C-170.6999969482422,14.12600040435791 -159.0780029296875,2.059999942779541 -157.92799377441406,2.5490000247955322 C-156.80999755859375,3.0239999294281006 -171.97799682617188,38.86600112915039 -166.73199462890625,82.87300109863281 C-165.89599609375,89.88500213623047 -161.35899353027344,95.1989974975586 -154.406005859375,96.66400146484375 C-123.12200164794922,103.25399780273438 -71.54199981689453,107.48200225830078 -3.950000047683716,107.48200225830078 C66.51799774169922,107.48200225830078 117.33799743652344,104.96499633789062 151.62899780273438,95.9469985961914 C158.01600646972656,94.26799774169922 162.64500427246094,89.50800323486328 162.98899841308594,82.9540023803711 C166.3000030517578,19.961000442504883 150.88800048828125,5.460999965667725 153.1959991455078,4.505000114440918 C155.5050048828125,3.552999973297119 168.0989990234375,18.249000549316406 174.0590057373047,40.2400016784668 C177.50999450683594,52.9739990234375 177.8300018310547,66.86299896240234 178.41000366210938,83.13400268554688 C178.5500030517578,87.04399871826172 182.06399536132812,89.70999908447266 185.9810028076172,89.2979965209961 C200.02999877929688,87.81700134277344 207.05599975585938,86.1259994506836 220.3679962158203,81.26699829101562 C230.47799682617188,77.5770034790039 237.093994140625,68.36100006103516 236.3800048828125,58.090999603271484z M6.9629998207092285,16.71500015258789 C0.1770000010728836,17.628999710083008 -6.400000095367432,17.75200080871582 -12.71500015258789,16.88599967956543 C-16.170000076293945,16.915000915527344 -18.9950008392334,14.156999588012695 -19.025999069213867,10.725000381469727 C-19.025999069213867,10.725000381469727 -19.1299991607666,-1.190000057220459 -19.1299991607666,-1.190000057220459 C-19.15999984741211,-4.623000144958496 -16.384000778198242,-7.429999828338623 -12.928999900817871,-7.459000110626221 C-6.5320000648498535,-7.10099983215332 0.03500000014901161,-7.177999973297119 6.749000072479248,-7.630000114440918 C10.204999923706055,-7.658999919891357 13.029999732971191,-4.901000022888184 13.060999870300293,-1.4700000286102295 C13.060999870300293,-1.4700000286102295 13.164999961853027,10.446000099182129 13.164999961853027,10.446000099182129 C13.196000099182129,13.878000259399414 10.418000221252441,16.684999465942383 6.9629998207092285,16.71500015258789z M96.80000305175781,18.70599937438965 C94.23400115966797,21.70400047302246 90.63999938964844,23.489999771118164 86.71600341796875,23.740999221801758 C78.4020004272461,25.184999465942383 70.35600280761719,25.908000946044922 62.678001403808594,25.908000946044922 C58.99300003051758,25.908000946044922 55.39699935913086,25.740999221801758 51.893001556396484,25.408000946044922 C48.143001556396484,25.506999969482422 44.547000885009766,24.20400047302246 41.757999420166016,21.687999725341797 C38.902000427246094,19.111000061035156 37.22700119018555,15.583999633789062 37.040000915527344,11.755999565124512 C37.040000915527344,11.755999565124512 36.03099822998047,-9.02299976348877 36.03099822998047,-9.02299976348877 C35.64899826049805,-16.927000045776367 41.808998107910156,-23.666000366210938 49.76599884033203,-24.047000885009766 C49.840999603271484,-24.052000045776367 49.91699981689453,-24.05500030517578 49.99300003051758,-24.049999237060547 C60.69599914550781,-23.878000259399414 72.0989990234375,-24.417999267578125 83.87300109863281,-25.673999786376953 C83.94300079345703,-25.68199920654297 84.01100158691406,-25.687000274658203 84.0790023803711,-25.690000534057617 C88.05699920654297,-25.88599967956543 91.83699798583984,-24.48200035095215 94.72699737548828,-21.761999130249023 C97.51499938964844,-19.13599967956543 99.04000091552734,-15.447999954223633 99.22599792480469,-11.63700008392334 C99.22599792480469,-11.63700008392334 100.19400024414062,8.307000160217285 100.19400024414062,8.307000160217285 C100.3759994506836,12.067000389099121 99.25599670410156,15.836999893188477 96.80000305175781,18.70599937438965z"></path></g></g></g></svg>