<svg xmlns="http://www.w3.org/2000/svg" xmlns:xlink="http://www.w3.org/1999/xlink" viewBox="0 0 512 512" width="512" height="512" style="width: 100%; height: 100%; transform: translate3d(0,0,0);" preserveAspectRatio="xMidYMid meet"><defs><clipPath id="__lottie_element_52901"><rect width="512" height="512" x="0" y="0"></rect></clipPath></defs><g clip-path="url(#__lottie_element_52901)"><g style="display: block;" transform="matrix(1,0,0,1,256,256)" opacity="1"><g opacity="1" transform="matrix(1,0,0,1,0,0)"><path fill="rgb(0,0,0)" fill-opacity="1" d=" M155.14999389648438,30.049999237060547 C162.9499969482422,7.583000183105469 169.5330047607422,-11.482999801635742 174.89999389648438,-27.149999618530273 C178.75900268554688,-48.69900131225586 160.19700622558594,-83.34600067138672 137.39999389648438,-53.19900131225586 C103.46399688720703,-17.910999298095703 44.073001861572266,-57.39500045776367 49.452999114990234,-108.29900360107422 C49.45000076293945,-120.5999984741211 45.5,-127.83300018310547 37.599998474121094,-130 C34.733001708984375,-131.3000030517578 29.649999618530273,-129.5 22.350000381469727,-124.5999984741211 C-11.397000312805176,-89.30899810791016 -131.58200073242188,-89.86900329589844 -172.74899291992188,-37.39899826049805 C-325.8789978027344,123.7249984741211 -96.29100036621094,353.34600830078125 64.90299987792969,200.19700622558594 C109.06400299072266,150.84800720214844 126.2750015258789,108.43699645996094 155.14999389648438,30.049999237060547 M-158.5500030517578,30.799999237060547 C-177.72799682617188,1.777999997138977 -143.17999267578125,-32.07099914550781 -112.80000305175781,-31.99799919128418 C-100.83300018310547,-32.965999603271484 -92.4000015258789,-29.5 -87.5,-21.600000381469727 C-66.39399719238281,15.303000450134277 -129.86300659179688,66.20999908447266 -158.5500030517578,30.799999237060547 M-175.9499969482422,91.0999984741211 C-190.84800720214844,74.73699951171875 -163.43899536132812,51.082000732421875 -149.0489959716797,66.8499984741211 C-136.56300354003906,83.62200164794922 -160.6999969482422,107.81600189208984 -175.9499969482422,91.0999984741211 M220.5,-222.75 C223.13099670410156,-240.97900390625 171.94000244140625,-257.4339904785156 161.10000610351562,-247.69900512695312 C153.89999389648438,-243.16600036621094 150.60000610351562,-236.5330047607422 151.1999969482422,-227.8000030517578 C151.55099487304688,-216.7689971923828 151.74000549316406,-192.30599975585938 141,-188.14999389648438 C104.0199966430664,-207.23599243164062 49.12099838256836,-182.74400329589844 27.75,-155.09800720214844 C20.952999114990234,-141.843994140625 50.71500015258789,-161.8090057373047 61.64899826049805,-140.19900512695312 C70.85700225830078,-122.16400146484375 58.34299850463867,-75.69499969482422 92.1520004272461,-64.3010025024414 C125.89099884033203,-48.744998931884766 133.1230010986328,-81.1050033569336 152.2989959716797,-87.302001953125 C169.58599853515625,-90.26699829101562 175.63400268554688,-67.98200225830078 187.44900512695312,-61.999000549316406 C202.16600036621094,-60.94900131225586 204.65499877929688,-75.29000091552734 206.64999389648438,-94.29900360107422 C210.91099548339844,-116.13500213623047 191.34800720214844,-148.5500030517578 180.2989959716797,-161.39999389648438 C178.5,-164.26699829101562 181.01699829101562,-168.6999969482422 187.85000610351562,-174.6999969482422 C200.02999877929688,-186.08200073242188 221.44000244140625,-203.9459991455078 220.5,-222.75z"></path></g></g></g></svg>