<svg xmlns="http://www.w3.org/2000/svg" xmlns:xlink="http://www.w3.org/1999/xlink" viewBox="0 0 512 512" width="512" height="512" style="width: 100%; height: 100%; transform: translate3d(0,0,0);" preserveAspectRatio="xMidYMid meet"><defs><clipPath id="__lottie_element_53649"><rect width="512" height="512" x="0" y="0"></rect></clipPath></defs><g clip-path="url(#__lottie_element_53649)"><g style="display: block;" transform="matrix(1,0,0,1,1181.8060302734375,-592.1480102539062)" opacity="1"><g opacity="1" transform="matrix(1,0,0,1,-850.9860229492188,933.52197265625)"><path fill="rgb(0,0,0)" fill-opacity="1" d=" M85.45500183105469,26.841999053955078 C103.22899627685547,14.833999633789062 120.72599792480469,1.309000015258789 135.2519989013672,-11.739999771118164 C168.35000610351562,-41.470001220703125 168.16099548339844,-52.44499969482422 168.0989990234375,-56.04999923706055 C167.94400024414062,-65.10299682617188 160.08299255371094,-71.4469985961914 144.73399353027344,-74.90699768066406 C142.25399780273438,-75.46700286865234 139.78700256347656,-75.90799713134766 137.50399780273438,-76.25599670410156 C145.5590057373047,-98.26300048828125 151.0240020751953,-130.17999267578125 143.81100463867188,-146.03399658203125 C140.5800018310547,-153.13900756835938 135.58700561523438,-155.8070068359375 131.968994140625,-156.79299926757812 C122.0790023803711,-159.49099731445312 108.74199676513672,-153.9459991455078 89.97799682617188,-139.3509979248047 C84.02400207519531,-134.72000122070312 78.5999984741211,-129.9929962158203 74.51899719238281,-126.2770004272461 C67.9219970703125,-136.97900390625 57.93600082397461,-150.677001953125 48.75199890136719,-153.2449951171875 C45.275001525878906,-154.22000122070312 41.888999938964844,-153.83099365234375 38.957000732421875,-152.1269989013672 C22.349000930786133,-142.468994140625 10.010000228881836,-100.46199798583984 -3.2190001010894775,-50.534000396728516 C-13.196000099182129,-86.06900024414062 -31.406999588012695,-120.65699768066406 -47.52299880981445,-123.49099731445312 C-59.34700012207031,-125.56800079345703 -64.88200378417969,-109.72100067138672 -66.70099639892578,-104.51300048828125 C-67.06099700927734,-103.48200225830078 -67.4020004272461,-102.4489974975586 -67.72200012207031,-101.43299865722656 C-71.00199890136719,-104.11299896240234 -74.86599731445312,-107.1449966430664 -78.94300079345703,-110.08699798583984 C-96.89600372314453,-123.04299926757812 -108.47899627685547,-126.80699920654297 -116.49800109863281,-122.2969970703125 C-124.5719985961914,-117.75599670410156 -127.15599822998047,-105.77999877929688 -125.13700103759766,-82.25800323486328 C-124.58899688720703,-75.86399841308594 -123.77300262451172,-69.6709976196289 -123.02300262451172,-64.69999694824219 C-124.44300079345703,-64.83599853515625 -125.9229965209961,-64.9530029296875 -127.41600036621094,-65.03500366210938 C-133.2689971923828,-65.35600280761719 -148.81199645996094,-66.21600341796875 -151.52200317382812,-55.132999420166016 C-154.62899780273438,-42.435001373291016 -145.07400512695312,-24.5 -121.45099639892578,1.3109999895095825 C-112.2490005493164,11.366000175476074 -102.90599822998047,20.384000778198242 -96.50199890136719,26.3439998626709 C-97.25,26.86400032043457 -98.00800323486328,27.41200065612793 -98.76100158691406,27.983999252319336 C-105.44400024414062,33.064998626708984 -112.92500305175781,41.15599822998047 -110.61799621582031,50.84400177001953 C-108.58000183105469,59.40599822998047 -98.0999984741211,66.04199981689453 -75.5780029296875,73.02899932861328 C-72.32499694824219,74.03800201416016 -69.10900115966797,74.95899963378906 -66.0719985961914,75.78399658203125 C-83.93800354003906,93.30999755859375 -113.92400360107422,116.06400299072266 -159.68499755859375,131.87600708007812 C-166.20899963378906,134.13099670410156 -169.67100524902344,141.24899291992188 -167.41600036621094,147.7740020751953 C-165.62899780273438,152.94700622558594 -160.78500366210938,156.19400024414062 -155.60299682617188,156.19400024414062 C-154.24899291992188,156.19400024414062 -152.8719940185547,155.9720001220703 -151.5189971923828,155.5050048828125 C-101.58200073242188,138.24899291992188 -68.17500305175781,113.44100189208984 -46.74599838256836,91.90799713134766 C-45.15599822998047,95.5780029296875 -43.33100128173828,99.55899810791016 -41.31700134277344,103.55500030517578 C-30.304000854492188,125.4020004272461 -20.086000442504883,135.32200622558594 -9.07699966430664,134.90499877929688 C2.002000093460083,134.4429931640625 10.77299976348877,122.08599853515625 16.179000854492188,111.80599975585938 C30.094999313354492,126.23400115966797 59.25299835205078,152.81700134277344 88.89900207519531,157.33299255371094 C89.41899871826172,157.41200256347656 89.93900299072266,157.45199584960938 90.45600128173828,157.45199584960938 C92.83100128173828,157.45199584960938 95.13899993896484,156.62399291992188 97.08300018310547,155.052001953125 C101.67900085449219,151.33700561523438 103.98899841308594,142.68299865722656 105.13400268554688,134.072998046875 C108.50599670410156,134.44700622558594 112.58999633789062,134.81199645996094 116.83200073242188,134.99200439453125 C133.67100524902344,135.70899963378906 143.16400146484375,133.2209930419922 147.58999633789062,126.93499755859375 C151.95700073242188,120.73300170898438 150.39599609375,111.89299774169922 142.5260009765625,98.27100372314453 C141.10000610351562,95.8030014038086 139.61500549316406,93.44000244140625 138.23800659179688,91.34500122070312 C147.0050048828125,87.05999755859375 155.2570037841797,81.59700012207031 157.23599243164062,75.61900329589844 C158.24600219726562,72.56800079345703 157.89999389648438,69.41699981689453 156.26100158691406,66.74299621582031 C141.7689971923828,43.08700180053711 107.71900177001953,31.83799934387207 85.45500183105469,26.841999053955078z"></path></g><g opacity="1" transform="matrix(1,0,0,1,-1052.7650146484375,722.10302734375)"><path fill="rgb(0,0,0)" fill-opacity="1" d=" M42.340999603271484,105.13700103759766 C44.13999938964844,78.95899963378906 39.95399856567383,58.11199951171875 34.36600112915039,42.57500076293945 C40.99100112915039,41.51599884033203 49.14400100708008,40.025001525878906 57.604000091552734,38.01900100708008 C86.25199890136719,31.222999572753906 102.822998046875,22.308000564575195 108.26200103759766,10.76200008392334 C109.74199676513672,7.619999885559082 109.77999877929688,4.085000038146973 108.36599731445312,0.8100000023841858 C106.11900329589844,-4.39900016784668 99.927001953125,-8.630000114440918 93.75599670410156,-11.718999862670898 C96.10399627685547,-13.954999923706055 98.66100311279297,-16.476999282836914 101.15799713134766,-19.101999282836914 C111.29499816894531,-29.76099967956543 120.6729965209961,-41.85900115966797 113.36599731445312,-50.777000427246094 C108.68399810791016,-56.492000579833984 99.53399658203125,-57.176998138427734 82.76599884033203,-53.0629997253418 C80.71299743652344,-52.560001373291016 78.697998046875,-52.020999908447266 76.79199981689453,-51.481998443603516 C77.60399627685547,-58.76900100708008 77.23999786376953,-66.29900360107422 73.63500213623047,-70.7979965209961 C71.22100067138672,-73.81099700927734 67.71700286865234,-75.36000061035156 63.82699966430664,-75.19300079345703 C55.01300048828125,-74.79199981689453 45.058998107910156,-67.09100341796875 32.50299835205078,-50.95500183105469 C31.37700080871582,-49.50899887084961 30.288000106811523,-48.066001892089844 29.2450008392334,-46.65299987792969 C21.71500015258789,-91.83699798583984 16.368999481201172,-106.10900115966797 7.040999889373779,-109.64900207519531 C-1.434999942779541,-112.86299896240234 -8.769000053405762,-106.03700256347656 -14.001999855041504,-98.36799621582031 C-24.92300033569336,-107.51599884033203 -40.595001220703125,-116.77999877929688 -51.80799865722656,-116.77999877929688 C-52.03200149536133,-116.77999877929688 -52.255001068115234,-116.77799987792969 -52.4739990234375,-116.7699966430664 C-58.59000015258789,-116.56300354003906 -62.09299850463867,-113.70899963378906 -63.95199966430664,-111.35399627685547 C-68.6050033569336,-105.45999908447266 -68.83300018310547,-95.60299682617188 -64.66699981689453,-80.33100128173828 C-63.80099868774414,-77.1520004272461 -62.840999603271484,-74.11000061035156 -61.941001892089844,-71.4469985961914 C-70.02400207519531,-69.83499908447266 -78.80599975585938,-67.0510025024414 -82.51100158691406,-62.32099914550781 C-84.36699676513672,-59.95000076293945 -85.18699645996094,-57.07699966430664 -84.81800079345703,-54.229000091552734 C-83.35099792480469,-42.91699981689453 -69.41799926757812,-30.652000427246094 -50.47200012207031,-16.197999954223633 C-74.66799926757812,-18.066999435424805 -89.83000183105469,-16.569000244140625 -95.0770034790039,-8.510000228881836 C-99.80599975585938,-1.246999979019165 -93.2770004272461,6.02400016784668 -88.63999938964844,10.168000221252441 C-90.08300018310547,10.6899995803833 -91.56400299072266,11.244999885559082 -93.04399871826172,11.826000213623047 C-105.57499694824219,16.743999481201172 -117.01599884033203,22.649999618530273 -115.88899993896484,32.47100067138672 C-114.86000061035156,41.4370002746582 -104.21099853515625,45.314998626708984 -88.53700256347656,48.37900161743164 C-86.36799621582031,48.803001403808594 -84.21099853515625,49.18299865722656 -82.1520004272461,49.51900100708008 C-88.46499633789062,58.356998443603516 -88.08899688720703,62.09400177001953 -87.91899871826172,63.777000427246094 C-87.63800048828125,66.56199645996094 -86.25900268554688,68.97200012207031 -84.03600311279297,70.56199645996094 C-78.91799926757812,74.2229995727539 -70.49500274658203,76.10399627685547 -60.268001556396484,76.10399627685547 C-53.527000427246094,76.10399627685547 -46.00299835205078,75.28600311279297 -38.125999450683594,73.62300109863281 C-20.566999435424805,69.91500091552734 -3.450000047683716,62.46500015258789 11.343999862670898,52.22700119018555 C15.64799976348877,64.73300170898438 18.889999389648438,81.73999786376953 17.399999618530273,103.4219970703125 C16.926000595092773,110.30999755859375 22.125999450683594,116.2760009765625 29.01300048828125,116.75 C29.30500030517578,116.7699966430664 29.594999313354492,116.77999877929688 29.882999420166016,116.77999877929688 C36.395999908447266,116.77999877929688 41.88800048828125,111.73200225830078 42.340999603271484,105.13700103759766z"></path></g></g></g></svg>