<svg xmlns="http://www.w3.org/2000/svg" xmlns:xlink="http://www.w3.org/1999/xlink" viewBox="0 0 512 512" width="512" height="512" style="width: 100%; height: 100%; transform: translate3d(0,0,0);" preserveAspectRatio="xMidYMid meet"><defs><clipPath id="__lottie_element_52205"><rect width="512" height="512" x="0" y="0"></rect></clipPath></defs><g clip-path="url(#__lottie_element_52205)"><g style="display: block;" transform="matrix(1,0,0,1,258.8240051269531,257.3240051269531)" opacity="1"><g opacity="1" transform="matrix(1,0,0,1,0,0)"><path fill="rgb(0,0,0)" fill-opacity="1" d=" M42.99,-100.28 C11.72,-131.55 -43.31,-127.29 -79.83,-90.77 C-116.35,-54.26 -120.6,0.78 -89.33,32.05 C-58.06,63.32 -3.03,59.06 33.49,22.55 C70.01,-13.97 74.26,-69 42.99,-100.28z M184.3719940185547,-220.25 C118.80899810791016,-263.2650146484375 60.94200134277344,-217.27000427246094 -9.73799991607666,-177.4499969482422 C-75.66799926757812,-140.3000030517578 -159.63800048828125,-130.4499969482422 -199.85800170898438,-56.0099983215332 C-246.63800048828125,30.59000015258789 -194.8780059814453,133.11000061035156 -73.43800354003906,146.0500030517578 C18.749000549316406,155.875 69.7969970703125,105.69599914550781 91.68599700927734,75.69100189208984 C93.70999908447266,72.91600036621094 98.04499816894531,75.34100341796875 96.7020034790039,78.50299835205078 C78.39399719238281,121.59300231933594 37.512001037597656,166.5449981689453 -33.61800003051758,174.9199981689453 C-117.25800323486328,184.75999450683594 -185.1280059814453,132.82000732421875 -209.2779998779297,111.27999877929688 C-211.22799682617188,109.52999877929688 -214.11700439453125,111.80999755859375 -212.90699768066406,114.12999725341797 C-120.88700103759766,290.4100036621094 91.78700256347656,247.10499572753906 137.58200073242188,172.92999267578125 C184.69900512695312,96.61399841308594 170.43299865722656,69.41000366210938 201.29299926757812,-34.11000061035156 C213.29299926757812,-74.37000274658203 236.45899963378906,-186.0760040283203 184.3719940185547,-220.25z"></path><g opacity="1" transform="matrix(0.7071067690849304,0.7071067690849304,-0.7071067690849304,0.7071067690849304,-23.170000076293945,-34.112998962402344)"></g><g opacity="1" transform="matrix(1,0,0,1,0,0)"></g></g></g></g></svg>