<svg xmlns="http://www.w3.org/2000/svg" xmlns:xlink="http://www.w3.org/1999/xlink" viewBox="0 0 512 512" width="512" height="512" style="width: 100%; height: 100%; transform: translate3d(0,0,0);" preserveAspectRatio="xMidYMid meet"><defs><clipPath id="__lottie_element_52115"><rect width="512" height="512" x="0" y="0"></rect></clipPath></defs><g clip-path="url(#__lottie_element_52115)"><g style="display: block;" transform="matrix(1,0,0,1,256,256)" opacity="1"><g opacity="1" transform="matrix(1,0,0,1,0,0)"><path fill="rgb(0,0,0)" fill-opacity="1" d=" M234.17100524902344,140.13400268554688 C195.60800170898438,101.57099914550781 163.56100463867188,61.323001861572266 116.88899993896484,71.64299774169922 C116.88899993896484,71.64299774169922 72.26699829101562,27.020999908447266 72.26699829101562,27.020999908447266 C84.4010009765625,10.076000213623047 89.60700225830078,-4.428999900817871 84.26399993896484,-9.772000312805176 C84.26399993896484,-9.772000312805176 29.468000411987305,-64.56900024414062 29.468000411987305,-64.56900024414062 C86.29499816894531,-77.56700134277344 146.3489990234375,-47.02299880981445 164.9340057373047,9.32800006866455 C167.55299377441406,17.26799964904785 178.99600219726562,16.51099967956543 180.4290008544922,8.27400016784668 C204.2169952392578,-128.47999572753906 86.38600158691406,-251.5189971923828 -50.5880012512207,-234.73300170898438 C-58.5890007019043,-233.7519989013672 -60.209999084472656,-222.7949981689453 -52.847999572753906,-219.50999450683594 C-18.37299919128418,-204.1269989013672 -6.96999979019165,-161.86599731445312 -23.47800064086914,-117.51399993896484 C-23.47800064086914,-117.51399993896484 -43.01499938964844,-137.052001953125 -43.01499938964844,-137.052001953125 C-48.358001708984375,-142.39500427246094 -62.86399841308594,-137.18899536132812 -79.80899810791016,-125.05500030517578 C-79.80899810791016,-125.05500030517578 -96.75399780273438,-142 -96.75399780273438,-142 C-126.65299987792969,-171.90199279785156 -171.94000244140625,-126.677001953125 -142.00799560546875,-96.74600219726562 C-142.00799560546875,-96.74600219726562 -125.06300354003906,-79.80000305175781 -125.06300354003906,-79.80000305175781 C-137.19700622558594,-62.85499954223633 -142.4029998779297,-48.3489990234375 -137.05999755859375,-43.00600051879883 C-137.05999755859375,-43.00600051879883 -117.47200012207031,-23.41900062561035 -117.47200012207031,-23.41900062561035 C-161.92799377441406,-6.822999954223633 -204.1009979248047,-18.490999221801758 -219.48899841308594,-52.89500045776367 C-222.78700256347656,-60.268001556396484 -233.74099731445312,-58.67900085449219 -234.7239990234375,-50.6619987487793 C-251.5050048828125,86.18499755859375 -128.64700317382812,204.2830047607422 8.263999938964844,180.44200134277344 C16.48699951171875,179.00999450683594 17.198999404907227,167.53799438476562 9.274999618530273,164.91700744628906 C-68.55500030517578,139.17599487304688 -82.12899780273438,46.005001068115234 -54.67599868774414,-4.414000034332275 C-50.35100173950195,-12.357000350952148 -38.1879997253418,-8.16100025177002 -39.63999938964844,0.7379999756813049 C-39.63999938964844,0.7379999756813049 -39.737998962402344,1.319000005722046 -39.737998962402344,1.319000005722046 C-44.608001708984375,30.8439998626709 -29.253000259399414,57.64799880981445 -8.440999984741211,79.13700103759766 C-3.7249999046325684,84.00599670410156 3.5380001068115234,85.47799682617188 9.696000099182129,82.64299774169922 C14.918999671936035,80.23899841308594 20.801000595092773,76.7249984741211 27.01300048828125,72.2760009765625 C27.01300048828125,72.2760009765625 71.63400268554688,116.89800262451172 71.63400268554688,116.89800262451172 C61.314998626708984,163.57000732421875 101.56300354003906,195.61599731445312 140.12600708007812,234.1790008544922 C158.7570037841797,252.8090057373047 252.7989959716797,158.76199340820312 234.17100524902344,140.13400268554688z"></path></g></g></g></svg>