<svg xmlns="http://www.w3.org/2000/svg" xmlns:xlink="http://www.w3.org/1999/xlink" viewBox="0 0 512 512" width="512" height="512" style="width: 100%; height: 100%; transform: translate3d(0,0,0);" preserveAspectRatio="xMidYMid meet"><defs><clipPath id="__lottie_element_53544"><rect width="512" height="512" x="0" y="0"></rect></clipPath></defs><g clip-path="url(#__lottie_element_53544)"><g style="display: block;" transform="matrix(1,0,0,1,0,0)" opacity="1"><g opacity="1" transform="matrix(1,0,0,1,360.72198486328125,254.3159942626953)"><path fill="rgb(0,0,0)" fill-opacity="1" d=" M57.82699966430664,140.88999938964844 C-8.956000328063965,120.66000366210938 -72.6760025024414,75.76899719238281 -84.59500122070312,2.453000068664551 C-88.25,-20.027999877929688 -94.39800262451172,-38.481998443603516 -63.25600051879883,-33.97600173950195 C-58.957000732421875,-21.29199981689453 -56.347999572753906,-7.890999794006348 -49.941001892089844,4.047999858856201 C-47.57099914550781,8.46500015258789 -41.970001220703125,19.722000122070312 -35.862998962402344,18.086999893188477 C-31.448999404907227,15.071000099182129 -32.573001861572266,9.65999984741211 -32.986000061035156,5.245999813079834 C-34.220001220703125,-7.933000087738037 -43.25,-22.910999298095703 -42.999000549316406,-36.96699905395508 C-42.41299819946289,-39.54399871826172 -25.13599967956543,-42.95600128173828 -21.760000228881836,-42.369998931884766 C-16.363000869750977,-41.435001373291016 -10.053999900817871,-25.159000396728516 -6.230000019073486,-19.516000747680664 C-3.190000057220459,-15.029000282287598 6.695000171661377,-0.8669999837875366 12.480999946594238,-2.0209999084472656 C24.634000778198242,-4.443999767303467 -0.12700000405311584,-42.972999572753906 -1.7259999513626099,-48.29899978637695 C-4.1570000648498535,-56.395999908447266 5.689000129699707,-59.57099914550781 12.232999801635742,-62.12900161743164 C23.983999252319336,-51.8120002746582 40.18299865722656,-35.28200149536133 48.840999603271484,-34.41699981689453 C52.71200180053711,-34.03099822998047 55.6609992980957,-37.108001708984375 55.374000549316406,-40.02000045776367 C54.417999267578125,-49.702999114990234 24.5939998626709,-71.13300323486328 26.378000259399414,-78.55799865722656 C26.850000381469727,-80.51899719238281 33.76499938964844,-90.24600219726562 35.55099868774414,-91.73300170898438 C44.38399887084961,-99.08599853515625 61.529998779296875,-78.62000274658203 69.26000213623047,-78.80799865722656 C70.6240005493164,-78.84200286865234 73.11399841308594,-80.54199981689453 73.92500305175781,-81.63899993896484 C79.47599792480469,-89.1510009765625 53.165000915527344,-108.87300109863281 48.05699920654297,-116.1709976196289 C48.05699920654297,-116.1709976196289 56.82899856567383,-140.88999938964844 56.82899856567383,-140.88999938964844 C92.29900360107422,-93.96800231933594 94.39700317382812,-30.802000045776367 79.4000015258789,24.559999465942383 C73.78199768066406,45.29899978637695 58.36899948120117,71.6050033569336 56.034000396728516,91.79199981689453 C54.275001525878906,107.00499725341797 55.71500015258789,125.78500366210938 57.82699966430664,140.88999938964844z"></path></g><g opacity="1" transform="matrix(1,0,0,1,294.7439880371094,467.1499938964844)"><path fill="rgb(0,0,0)" fill-opacity="1" d=" M-23.19700050354004,38.784000396728516 C-23.96299934387207,32.983001708984375 -20.766000747680664,-12.937000274658203 -21.179000854492188,-22.617000579833984 C-21.485000610351562,-29.780000686645508 -32.823001861572266,-29.764999389648438 -34.891998291015625,-24.238000869750977 C-34.891998291015625,-24.238000869750977 -43.358001708984375,38.75899887084961 -43.358001708984375,38.75899887084961 C-43.358001708984375,38.75899887084961 -87.64800262451172,40.79499816894531 -87.64800262451172,40.79499816894531 C-87.64800262451172,40.79499816894531 -75.94100189208984,-5.598999977111816 -74.5250015258789,-20.954999923706055 C-73.9749984741211,-26.913999557495117 -83.45899963378906,-29.07699966430664 -86.78600311279297,-23.253999710083008 C-91.18599700927734,-15.553999900817871 -109.3030014038086,30.00200080871582 -114.08899688720703,40.53200149536133 C-122.2229995727539,40.28799819946289 -165.13699340820312,41.27299880981445 -169.97500610351562,38.80500030517578 C-165.1719970703125,26.809999465942383 -158.7729949951172,12.468000411987305 -152.4320068359375,1.1950000524520874 C-144.47300720214844,-12.954999923706055 -131.78900146484375,-38.266998291015625 -114.9229965209961,-39.81999969482422 C-99.15299987792969,-41.27299880981445 -83.39199829101562,-37.880001068115234 -68.59400177001953,-37.62699890136719 C-4.295000076293945,-36.527000427246094 60.1150016784668,-38.96799850463867 124.41100311279297,-37.301998138427734 C135.91799926757812,-33.91400146484375 164.5780029296875,23.51099967956543 169.97500610351562,36.80799865722656 C169.97500610351562,40.55699920654297 115.94400024414062,38.71200180053711 109.27799987792969,38.70100021362305 C109.27799987792969,38.70100021362305 83.73899841308594,-26.39699935913086 83.73899841308594,-26.39699935913086 C81.48799896240234,-29.374000549316406 70.94000244140625,-29.743000030517578 71.75299835205078,-22.94499969482422 C72.45700073242188,-17.06100082397461 85.552001953125,38.784000396728516 85.552001953125,38.784000396728516 C85.552001953125,38.784000396728516 39.233001708984375,38.784000396728516 39.233001708984375,38.784000396728516 C37.83100128173828,29.320999145507812 31.996999740600586,-20.607999801635742 30.80900001525879,-25.45400047302246 C29.511999130249023,-30.740999221801758 19.36199951171875,-30.479999542236328 18.73200035095215,-24.424999237060547 C18.27899932861328,-20.072999954223633 21.107999801635742,38.784000396728516 21.107999801635742,38.784000396728516 C21.107999801635742,38.784000396728516 -23.19700050354004,38.784000396728516 -23.19700050354004,38.784000396728516z"></path></g><g opacity="1" transform="matrix(1,0,0,1,278.8819885253906,301.84698486328125)"><path fill="rgb(0,0,0)" fill-opacity="1" d=" M-30.485000610351562,111.9800033569336 C-31.29599952697754,111.99800109863281 -32.108001708984375,112.03500366210938 -32.91999816894531,112.09600067138672 C-38.69300079345703,112.53299713134766 -34.599998474121094,107.38300323486328 -33.71099853515625,104.25800323486328 C-32.854000091552734,101.24800109863281 -32.31399917602539,98.1500015258789 -32.12699890136719,95.0260009765625 C-31.777000427246094,89.15699768066406 -32.70500183105469,83.29000091552734 -34.53099822998047,77.71499633789062 C-43.23899841308594,51.1349983215332 -67.36199951171875,33.26499938964844 -83.5199966430664,11.498000144958496 C-111.19200134277344,-25.7810001373291 -127.6709976196289,-75.25 -92.89800262451172,-114.00399780273438 C-92.89800262451172,-114.00399780273438 -84.0199966430664,-105.20600128173828 -84.0199966430664,-105.20600128173828 C-89.97599792480469,-97.1050033569336 -98.41300201416016,-85.55699920654297 -103.28399658203125,-76.65399932861328 C-107.09300231933594,-69.69200134277344 -106.77799987792969,-59.185001373291016 -99.92500305175781,-62.51300048828125 C-90.45800018310547,-67.11100006103516 -74.9219970703125,-96.56500244140625 -65.93199920654297,-98.94200134277344 C-50.28499984741211,-103.0790023803711 -68.33899688720703,-64.3030014038086 -69.28099822998047,-58.145999908447266 C-70.4749984741211,-50.33599853515625 -72.31199645996094,-36.902000427246094 -61.00199890136719,-39.39699935913086 C-56.68600082397461,-40.3489990234375 -46.78900146484375,-77.07499694824219 -41.69900131225586,-82.90299987792969 C-36.80699920654297,-88.50399780273438 -23.121000289916992,-87.46800231933594 -21.483999252319336,-78.69599914550781 C-18.33099937438965,-61.810001373291016 -23.347999572753906,-46.459999084472656 -17.461999893188477,-26.350000381469727 C1.7549999952316284,39.310001373291016 67.74099731445312,82.73600006103516 127.58100128173828,107.48400115966797 C127.6719970703125,110.45800018310547 120.4010009765625,110.44100189208984 117.9209976196289,110.87300109863281 C112.18299865722656,111.87300109863281 104.09700012207031,113.30599975585938 98.48200225830078,113.58100128173828 C89.86799621582031,114.00399780273438 58.03300094604492,112.6780014038086 50.97600173950195,110.5719985961914 C44.856998443603516,108.74600219726562 22.7450008392334,91.49500274658203 16.801000595092773,86.35399627685547 C0.8920000195503235,72.59400177001953 -12.086000442504883,55.32400131225586 -27.45400047302246,41.02899932861328 C-25.959999084472656,49.0260009765625 -22.8439998626709,56.62099838256836 -18.759000778198242,63.63199996948242 C-10.529999732971191,77.7509994506836 1.2280000448226929,89.43299865722656 12.857999801635742,100.74400329589844 C15.508000373840332,103.3219985961914 25.083999633789062,109.5260009765625 17.70800018310547,111.3010025024414 C13.663999557495117,112.27400207519531 9.397000312805176,111.61799621582031 5.294000148773193,111.77100372314453 C-2.2720000743865967,112.0530014038086 -9.838000297546387,112.44499969482422 -17.41200065612793,112.36799621582031 C-21.812000274658203,112.3239974975586 -26.145999908447266,111.88400268554688 -30.485000610351562,111.9800033569336z"></path></g><g opacity="1" transform="matrix(1,0,0,1,110.38999938964844,118.99700164794922)"><path fill="rgb(0,0,0)" fill-opacity="1" d=" M9.109000205993652,4.454999923706055 C-4.609000205993652,5.921000003814697 -18.805999755859375,12.085000038146973 -26.12700080871582,23.586000442504883 C-32.77899932861328,34.034000396728516 -46.24700164794922,68.85900115966797 -46.24700164794922,68.85900115966797 C-76.5739974975586,-2.36299991607666 -42.42599868774414,-68.85900115966797 38.31800079345703,-66 C39.869998931884766,-64.62300109863281 30.2549991607666,-37.775001525878906 38.47100067138672,-30.934999465942383 C42.27899932861328,-27.764999389648438 56.566001892089844,-22.851999282836914 56.566001892089844,-22.851999282836914 C56.566001892089844,-22.851999282836914 76.5739974975586,4.454999923706055 76.5739974975586,4.454999923706055 C55.00699996948242,6.127999782562256 30.270999908447266,2.193000078201294 9.109000205993652,4.454999923706055z"></path></g><g opacity="1" transform="matrix(1,0,0,1,164.8260040283203,145.54400634765625)"><path fill="rgb(0,0,0)" fill-opacity="1" d=" M-32.76599884033203,-9.536999702453613 C-22.483999252319336,-11.274999618530273 21.20400047302246,-11.708000183105469 31.11400032043457,-9.927000045776367 C35.867000579833984,-9.072999954223633 51.77399826049805,2.072000026702881 54.349998474121094,7.068999767303467 C53.36600112915039,11.708000183105469 24.90999984741211,10.399999618530273 19.031999588012695,10.20199966430664 C2.434999942779541,9.642999649047852 -29.339000701904297,8.336000442504883 -44.83300018310547,5.5980000495910645 C-48.2140007019043,5.000999927520752 -52.10900115966797,3.8589999675750732 -54.349998474121094,1.0579999685287476 C-54.32699966430664,-1.2239999771118164 -36.08399963378906,-8.97599983215332 -32.76599884033203,-9.536999702453613z"></path></g><g opacity="1" transform="matrix(1,0,0,1,304.95599365234375,101.46900177001953)"><path fill="rgb(0,0,0)" fill-opacity="1" d=" M-125.89800262451172,-63.42399978637695 C-152.63699340820312,-37.84400177001953 -114.96600341796875,5.923999786376953 -94.78099822998047,23.945999145507812 C-89.04900360107422,29.06399917602539 -63.44200134277344,44.659000396728516 -63.5359992980957,49.236000061035156 C-63.5629997253418,50.56700134277344 -64.91400146484375,54.37900161743164 -64.91400146484375,54.37900161743164 C-64.91400146484375,54.37900161743164 -100.96199798583984,72.24099731445312 -100.96199798583984,72.24099731445312 C-102.90699768066406,74.7030029296875 -98.85600280761719,79.99700164794922 -97.15699768066406,81.67500305175781 C-78.5780029296875,100.02300262451172 -24.93400001525879,101.46900177001953 -0.42399999499320984,98.23500061035156 C35.10499954223633,93.5479965209961 65.12699890136719,76.25700378417969 83.00199890136719,44.73899841308594 C152.63800048828125,-78.0479965209961 -42.465999603271484,-143.24000549316406 -125.89800262451172,-63.42399978637695z M-44.47600173950195,28.17799949645996 C-62.56399917602539,27.808000564575195 -90.01699829101562,9.602999687194824 -94.88800048828125,-8.14799976348877 C-99.82499694824219,-26.139999389648438 -72.81600189208984,-49.14699935913086 -56.09299850463867,-52.020999908447266 C-30.802000045776367,-56.36899948120117 -0.8299999833106995,-39.34000015258789 5.994999885559082,-14.270000457763672 C11.442000389099121,5.736999988555908 -26.256999969482422,28.551000595092773 -44.47600173950195,28.17799949645996z"></path></g><g opacity="1" transform="matrix(1,0,0,1,267.510986328125,87.77400207519531)"><path fill="rgb(0,0,0)" fill-opacity="1" d=" M-12.553000450134277,-22.33300018310547 C12.208000183105469,-25.20199966430664 40.68299865722656,7.946000099182129 1.9539999961853027,20.54400062561035 C-12.366000175476074,25.20199966430664 -34.13399887084961,17.04800033569336 -37.89400100708008,1.940999984741211 C-40.68299865722656,-9.269000053405762 -22.040000915527344,-21.233999252319336 -12.553000450134277,-22.33300018310547z"></path></g></g></g></svg>