<svg xmlns="http://www.w3.org/2000/svg" xmlns:xlink="http://www.w3.org/1999/xlink" viewBox="0 0 512 512" width="512" height="512" style="width: 100%; height: 100%; transform: translate3d(0,0,0);" preserveAspectRatio="xMidYMid meet"><defs><clipPath id="__lottie_element_53309"><rect width="512" height="512" x="0" y="0"></rect></clipPath></defs><g clip-path="url(#__lottie_element_53309)"><g style="display: block;" transform="matrix(1,0,0,1,0,0)" opacity="1"><g opacity="1" transform="matrix(1,0,0,1,428.1889953613281,368.25201416015625)"><path fill="rgb(0,0,0)" fill-opacity="1" d=" M-30.851999282836914,29.260000228881836 C-30.851999282836914,29.260000228881836 -39.17300033569336,-30.167999267578125 -39.17300033569336,-30.167999267578125 C-39.88399887084961,-49.638999938964844 -35.19599914550781,-109.4219970703125 -28.05900001525879,-126.20999908447266 C-20.76300048828125,-143.3730010986328 -4.382999897003174,-135.39100646972656 3.007999897003174,-122.88899993896484 C24.371999740600586,-86.75 -15.638999938964844,-44.077999114990234 -8.35200023651123,-4.354000091552734 C-5.974999904632568,8.602999687194824 0.17399999499320984,4.541999816894531 8.045999526977539,9.590999603271484 C16.799999237060547,15.206999778747559 24.017000198364258,22.003999710083008 28.663000106811523,31.451000213623047 C57.268001556396484,89.60099792480469 0.02800000086426735,143.3730010986328 -55.39799880981445,111.38899993896484 C-55.39799880981445,111.38899993896484 -57.266998291015625,109.19000244140625 -57.266998291015625,109.19000244140625 C-57.266998291015625,109.19000244140625 -43.21900177001953,87.01899719238281 -43.21900177001953,87.01899719238281 C7.25,103.06099700927734 16.53700065612793,34.104000091552734 -30.851999282836914,29.260000228881836z"></path></g><g opacity="1" transform="matrix(1,0,0,1,81.16899871826172,367.5379943847656)"><path fill="rgb(0,0,0)" fill-opacity="1" d=" M34.356998443603516,29.8700008392334 C8.586999893188477,30.850000381469727 -5.074999809265137,58.858001708984375 10.446999549865723,79.75399780273438 C20.075000762939453,92.71499633789062 31.145000457763672,89.66999816894531 45.624000549316406,87.27100372314453 C45.624000549316406,87.27100372314453 60.854000091552734,106.33899688720703 60.854000091552734,106.33899688720703 C61.979000091552734,111.15799713134766 46.91699981689453,117.41699981689453 43.263999938964844,118.64900207519531 C-24.874000549316406,141.62899780273438 -61.979000091552734,49.87200164794922 -9.668999671936035,13.156000137329102 C-2.3429999351501465,8.012999534606934 10.057000160217285,7.283999919891357 12.017999649047852,-1.5670000314712524 C21.30900001525879,-43.5 -22.711000442504883,-86.4749984741211 2.681999921798706,-124.14800262451172 C10.385000228881836,-135.5760040283203 23.35700035095215,-141.62899780273438 30.14299964904785,-125.98600006103516 C34.375999450683594,-116.22699737548828 37.57500076293945,-87.65899658203125 38.74700164794922,-75.94100189208984 C42.27000045776367,-40.722999572753906 41.61899948120117,-4.756999969482422 34.356998443603516,29.8700008392334z"></path></g><g opacity="1" transform="matrix(1,0,0,1,256.6969909667969,67.43499755859375)"><path fill="rgb(0,0,0)" fill-opacity="1" d=" M43.263999938964844,67.43499755859375 C43.263999938964844,67.43499755859375 6.86299991607666,63.387001037597656 6.86299991607666,63.387001037597656 C7.40500020980835,36.43299865722656 7.767000198364258,10.6899995803833 0.7820000052452087,-15.491000175476074 C-2.450000047683716,-14.9399995803833 -3.003000020980835,-11.616999626159668 -3.8529999256134033,-9.02400016784668 C-10.866999626159668,12.359000205993652 -10.715999603271484,41.4119987487793 -7.296000003814697,63.36399841308594 C-7.296000003814697,63.36399841308594 -45.72100067138672,67.4280014038086 -45.72100067138672,67.4280014038086 C-51.310001373291016,43.340999603271484 -48.724998474121094,14.951000213623047 -42.25600051879883,-8.98799991607666 C-37.5620002746582,-26.356000900268555 -22.659000396728516,-60.970001220703125 -3.2820000648498535,-65.16899871826172 C12.779000282287598,-68.6510009765625 30.417999267578125,-36.981998443603516 35.24399948120117,-24.642000198364258 C45.62699890136719,1.909999966621399 51.31100082397461,39.983001708984375 43.263999938964844,67.43499755859375z"></path></g><g opacity="1" transform="matrix(1,0,0,1,148.1490020751953,96.35199737548828)"><path fill="rgb(0,0,0)" fill-opacity="1" d=" M-49.066001892089844,-54.111000061035156 C-33.44499969482422,-58.79199981689453 -0.11500000208616257,-41.362998962402344 12.265999794006348,-31.290000915527344 C27.687000274658203,-18.743000030517578 47.84299850463867,8.621999740600586 51.779998779296875,28.29199981689453 C55.435001373291016,46.555999755859375 47.4640007019043,40.95899963378906 34.57699966430664,45.66400146484375 C27.676000595092773,48.183998107910156 11.04699993133545,57.79600143432617 6.696000099182129,58.444000244140625 C4.36899995803833,58.79100036621094 2.684999942779541,58.67399978637695 0.9869999885559082,56.87799835205078 C-9.803000450134277,35.395999908447266 -20.115999221801758,13.604000091552734 -31.91699981689453,-7.3480000495910645 C-35.79399871826172,-14.229999542236328 -53.10200119018555,-38.22200012207031 -54.099998474121094,-41.8849983215332 C-55.435001373291016,-46.784000396728516 -54.42499923706055,-52.505001068115234 -49.066001892089844,-54.111000061035156z"></path></g><g opacity="1" transform="matrix(1,0,0,1,365.3789978027344,96.3270034790039)"><path fill="rgb(0,0,0)" fill-opacity="1" d=" M53.6879997253418,-52.20100021362305 C55.28200149536133,-49.83700180053711 53.72200012207031,-41.862998962402344 52.435001373291016,-38.827999114990234 C48.01100158691406,-28.39900016784668 30.4060001373291,-7.77400016784668 23.27199935913086,4.811999797821045 C13.51200008392334,22.0310001373291 5.558000087738037,40.70399856567383 -2.8350000381469727,58.61600112915039 C-2.8350000381469727,58.61600112915039 -55.28099822998047,40.5359992980957 -55.28099822998047,40.5359992980957 C-50.72999954223633,0.9760000109672546 -18.20599937438965,-35.034000396728516 18.52199935913086,-48.472999572753906 C25.079999923706055,-50.87300109863281 49.36399841308594,-58.61600112915039 53.6879997253418,-52.20100021362305z"></path></g><g opacity="1" transform="matrix(1,0,0,1,101.28399658203125,152.03399658203125)"><path fill="rgb(0,0,0)" fill-opacity="1" d=" M-35.97100067138672,-37.38999938964844 C-6.627999782562256,-34.2400016784668 20.16900062561035,-10.899999618530273 35.92900085449219,13.253999710083008 C35.92900085449219,13.253999710083008 35.97100067138672,17.1560001373291 35.97100067138672,17.1560001373291 C35.97100067138672,17.1560001373291 13.583999633789062,37.38999938964844 13.583999633789062,37.38999938964844 C13.583999633789062,37.38999938964844 -33.617000579833984,-28.63800048828125 -33.617000579833984,-28.63800048828125 C-33.617000579833984,-28.63800048828125 -35.97100067138672,-37.38999938964844 -35.97100067138672,-37.38999938964844z"></path></g><g opacity="1" transform="matrix(1,0,0,1,410.1960144042969,152.03399658203125)"><path fill="rgb(0,0,0)" fill-opacity="1" d=" M35.44200134277344,-37.39099884033203 C35.44200134277344,-37.39099884033203 33.573001861572266,-28.15399932861328 33.573001861572266,-28.15399932861328 C33.573001861572266,-28.15399932861328 -14.11400032043457,37.39099884033203 -14.11400032043457,37.39099884033203 C-14.11400032043457,37.39099884033203 -35.44200134277344,16.2549991607666 -35.44200134277344,16.2549991607666 C-21.236000061035156,-10.170999526977539 6.098999977111816,-30.836000442504883 35.44200134277344,-37.39099884033203z"></path></g><g opacity="1" transform="matrix(1,0,0,1,257.61199951171875,329.19500732421875)"><path fill="rgb(0,0,0)" fill-opacity="1" d=" M65.427001953125,-97.06900024414062 C58.369998931884766,-97.2020034790039 41.70600128173828,-90.83399963378906 37.35300064086914,-85.09400177001953 C35.15299987792969,-82.19300079345703 30.948999404907227,-71.91500091552734 33.12200164794922,-68.86799621582031 C35.85300064086914,-65.03600311279297 65.43099975585938,-71.26799774169922 73.71900177001953,-70.95899963378906 C81.56199645996094,-70.66699981689453 113.9000015258789,-62.44599914550781 115.96700286865234,-63.0359992980957 C118.44300079345703,-63.74399948120117 118.83100128173828,-65.78600311279297 119.2300033569336,-67.96900177001953 C121.21800231933594,-78.87300109863281 124.84200286865234,-100.10299682617188 125.33300018310547,-110.47599792480469 C126.33999633789062,-131.75 99.69599914550781,-150.0709991455078 82.58999633789062,-158.7030029296875 C34.82899856567383,-182.80599975585938 -49.512001037597656,-180.68899536132812 -95.80699920654297,-153.48800659179688 C-107.427001953125,-146.66099548339844 -126.48699951171875,-130.61199951171875 -127.6709976196289,-116.4749984741211 C-127.6709976196289,-116.4749984741211 -119.37000274658203,-62.95199966430664 -119.37000274658203,-62.95199966430664 C-91.26599884033203,-70.0790023803711 -64.78099822998047,-74.8499984741211 -36.542999267578125,-64.91799926757812 C-34.99399948120117,-76.84700012207031 -40.444000244140625,-88.31900024414062 -51.573001861572266,-93.3550033569336 C-70.65899658203125,-101.99199676513672 -84.73400115966797,-90.49700164794922 -103.28299713134766,-89.18800354003906 C-105.61900329589844,-99.77200317382812 -92.39600372314453,-104.68399810791016 -84.1510009765625,-107.45800018310547 C-52.013999938964844,-118.26899719238281 -15.451000213623047,-103.41799926757812 -16.14299964904785,-65.93099975585938 C-16.77899932861328,-31.47100067138672 -37.7400016784668,-50.444000244140625 -55.96200180053711,-52.56399917602539 C-76.44499969482422,-54.94599914550781 -98.88300323486328,-51.65299987792969 -116.46700286865234,-40.667999267578125 C-119.30799865722656,-16.913000106811523 -116.06300354003906,7.36299991607666 -117.46700286865234,31.13599967956543 C-119.5790023803711,66.9260025024414 -131.47799682617188,82.36399841308594 -110.20800018310547,116.93099975585938 C-62.249000549316406,194.875 36.4379997253418,203.51600646972656 96.01200103759766,133.302001953125 C131.47799682617188,91.50199890136719 117.3280029296875,72.11499786376953 115.11900329589844,23.145000457763672 C114.64099884033203,12.545999526977539 117.35700225830078,-37.59299850463867 113.20999908447266,-41.68299865722656 C102.65899658203125,-52.090999603271484 67.90899658203125,-54.21500015258789 53.71200180053711,-52.56399917602539 C36.41699981689453,-50.55099868774414 17.333999633789062,-32.36199951171875 14.473999977111816,-62.4739990234375 C10.375,-105.62300109863281 56.62300109863281,-122.3030014038086 90.69400024414062,-104.11199951171875 C93.79399871826172,-102.45700073242188 103.85900115966797,-96.06900024414062 103.05699920654297,-92.24299621582031 C101.42400360107422,-84.45600128173828 72.48400115966797,-96.93699645996094 65.427001953125,-97.06900024414062z M75.12899780273438,93.4540023803711 C83.50800323486328,108.05000305175781 83.37799835205078,128.14999389648438 70.70800018310547,140.36700439453125 C53.1619987487793,157.28599548339844 31.621000289916992,134.75399780273438 12.555999755859375,131.73300170898438 C6.482999801635742,130.77099609375 -3.171999931335449,130.61500549316406 -9.303000450134277,131.16799926757812 C-36.27199935913086,133.59800720214844 -63.17900085449219,165.7100067138672 -79.822998046875,129.0260009765625 C-96.447998046875,92.38300323486328 -51.731998443603516,64.9010009765625 -20.84000015258789,60.9900016784668 C10.741000175476074,56.99100112915039 57.87900161743164,63.40800094604492 75.12899780273438,93.4540023803711z M43.49300003051758,-2.3480000495910645 C41.415000915527344,-8.567000389099121 15.390000343322754,-17.551000595092773 31.277000427246094,-20.43899917602539 C58.612998962402344,-25.406999588012695 77.01100158691406,22.916000366210938 41.810001373291016,34.63199996948242 C36.52899932861328,36.38999938964844 31.468000411987305,35.93299865722656 26.55500030517578,37.58300018310547 C20.033000946044922,39.77399826049805 12.881999969482422,45.22200012207031 6.853000164031982,46.191001892089844 C-10.539999961853027,48.98500061035156 -14.843000411987305,42.35300064086914 -28.80500030517578,37.58300018310547 C-39.119998931884766,34.058998107910156 -54.02199935913086,34.31800079345703 -60.582000732421875,22.834999084472656 C-69.23300170898438,7.691999912261963 -57.275001525878906,-19.98900032043457 -39.06399917602539,-22.075000762939453 C-33.63600158691406,-22.69700050354004 -29.836000442504883,-19.107999801635742 -26.45199966430664,-15.36400032043457 C-26.461999893188477,-11.975000381469727 -43.86600112915039,-11.543999671936035 -46.24599838256836,-0.7519999742507935 C-48.36399841308594,8.85099983215332 -44.94499969482422,15.060999870300293 -35.96200180053711,18.447999954223633 C-25.21299934387207,22.5 -12.211000442504883,26.259000778198242 -1.125,29.773000717163086 C14.605999946594238,22.097999572753906 51.78499984741211,22.474000930786133 43.49300003051758,-2.3480000495910645z"></path></g><g opacity="1" transform="matrix(1,0,0,1,258.8280029296875,432.6730041503906)"><path fill="rgb(0,0,0)" fill-opacity="1" d=" M-20.023000717163086,-22.257999420166016 C-11.097000122070312,-23.545000076293945 6.833000183105469,-23.79800033569336 15.694000244140625,-22.608999252319336 C27.836000442504883,-20.981000900268555 60.32099914550781,-5.859000205993652 55.055999755859375,10.239999771118164 C51.26499938964844,21.83099937438965 27.148000717163086,10.211000442504883 18.976999282836914,8.489999771118164 C2.6530001163482666,5.048999786376953 -7.3420000076293945,5.052000045776367 -23.656999588012695,8.489999771118164 C-32.599998474121094,10.37399959564209 -59.99100112915039,23.79800033569336 -60.16600036621094,6.5920000076293945 C-60.32099914550781,-8.607999801635742 -32.8380012512207,-20.40999984741211 -20.023000717163086,-22.257999420166016z"></path></g></g></g></svg>