<svg xmlns="http://www.w3.org/2000/svg" xmlns:xlink="http://www.w3.org/1999/xlink" viewBox="0 0 512 512" width="512" height="512" style="width: 100%; height: 100%; transform: translate3d(0,0,0);" preserveAspectRatio="xMidYMid meet"><defs><clipPath id="__lottie_element_53739"><rect width="512" height="512" x="0" y="0"></rect></clipPath></defs><g clip-path="url(#__lottie_element_53739)"><g style="display: block;" transform="matrix(2.962939977645874,0,0,2.962939977645874,2.8374481201171875,2.8374481201171875)" opacity="1"><g opacity="1" transform="matrix(1,0,0,1,76.7760009765625,98.12899780273438)"><path fill="rgb(0,0,0)" fill-opacity="1" d=" M70.27899932861328,-21.19300079345703 C69.68699645996094,-23.66699981689453 68.05400085449219,-26.290000915527344 67.96399688720703,-26.184999465942383 C66.19499969482422,-24.121000289916992 64.06099700927734,-18.288000106811523 53.659000396728516,-17.437000274658203 C29.892000198364258,-15.494999885559082 13.133999824523926,-25.746999740600586 -0.671999990940094,-43.479000091552734 C-6.927000045776367,-52.86800003051758 -6.603000164031982,-62.30799865722656 -3.062999963760376,-65.51399993896484 C-0.9660000205039978,-67.41400146484375 3.4760000705718994,-69.94999694824219 3.4760000705718994,-69.94999694824219 C3.3589999675750732,-70.5250015258789 -1.4509999752044678,-72.53600311279297 -5.091000080108643,-72.36299896240234 C-11.317999839782715,-71.7959976196289 -16.427000045776367,-68.86799621582031 -19.631000518798828,-63.40399932861328 C-26.643999099731445,-51.44300079345703 -34.54199981689453,-35.9630012512207 -40.32600021362305,-27.320999145507812 C-43.21699905395508,-23 -49.9630012512207,-14.996999740600586 -53.763999938964844,-11.449000358581543 C-56.20500183105469,-9.170999526977539 -60.41699981689453,-5.464000225067139 -63.22100067138672,-2.0169999599456787 C-71.5770034790039,8.256999969482422 -71.83599853515625,20.315000534057617 -65.91000366210938,30.878999710083008 C-55.55500030517578,49.33599853515625 -40.32600021362305,62.987998962402344 -19.360000610351562,69.21900177001953 C-8.197999954223633,72.53600311279297 6.0970001220703125,70.93499755859375 12.79800033569336,66.44000244140625 C17.367000579833984,63.375999450683594 21.941999435424805,54.9379997253418 25.52899932861328,48.49300003051758 C32.055999755859375,36.76499938964844 38.722999572753906,25.17099952697754 48.81999969482422,15.982999801635742 C53.071998596191406,12.11299991607666 56.81999969482422,7.665999889373779 61.22999954223633,3.999000072479248 C69.29199981689453,-2.7049999237060547 71.83599853515625,-14.684000015258789 70.27899932861328,-21.19300079345703z M-52.58700180053711,12.661999702453613 C-52.303001403808594,4.614999771118164 -46.375,7.861000061035156 -45.051998138427734,9.300999641418457 C-42.13999938964844,12.470000267028809 -36.07099914550781,27.7450008392334 -35.14699935913086,29.613000869750977 C-43.65700149536133,28.999000549316406 -52.93299865722656,22.481000900268555 -52.58700180053711,12.661999702453613z M-26.94099998474121,3.0460000038146973 C-33.3129997253418,-6.535999774932861 -29.312999725341797,-14.133000373840332 -27.47599983215332,-14.64799976348877 C-24.81999969482422,-15.392000198364258 -23.395000457763672,-13.168000221252441 -22.68899917602539,-11.645000457763672 C-19.704999923706055,-5.203000068664551 -17.257999420166016,1.4889999628067017 -14.21399974822998,9.086999893188477 C-20.579999923706055,9.168999671936035 -24.548999786376953,6.409999847412109 -26.94099998474121,3.0460000038146973z"></path></g><g opacity="1" transform="matrix(1,0,0,1,115.33000183105469,36.34299850463867)"><path fill="rgb(0,0,0)" fill-opacity="1" d=" M15.824000358581543,32.762001037597656 C28.25,30.895999908447266 29.663999557495117,20.73699951171875 23.945999145507812,11.538999557495117 C20.18000030517578,5.480000019073486 21.343000411987305,0.11299999803304672 24.367000579833984,-5.383999824523926 C26.365999221801758,-9.019000053405762 28.770000457763672,-12.430000305175781 30.95400047302246,-15.96399974822998 C34.65700149536133,-21.95599937438965 34.08700180053711,-28.150999069213867 29.5049991607666,-32.06999969482422 C24.92799949645996,-35.98400115966797 18.48900032043457,-35.75400161743164 13.427000045776367,-30.972999572753906 C9.607000350952148,-27.363000869750977 0.7559999823570251,-13.6899995803833 -5.192999839782715,-11.824000358581543 C-11.89799976348877,-9.718999862670898 -16.10099983215332,-12.743000030517578 -23.450000762939453,-10.182000160217285 C-31.159000396728516,-7.49399995803833 -34.65800094604492,0.3140000104904175 -30.70400047302246,7.468999862670898 C-25.020000457763672,21.00200080871582 -5.622000217437744,35.983001708984375 15.824000358581543,32.762001037597656z"></path></g></g></g></svg>