<svg xmlns="http://www.w3.org/2000/svg" xmlns:xlink="http://www.w3.org/1999/xlink" viewBox="0 0 512 512" width="512" height="512" style="width: 100%; height: 100%; transform: translate3d(0,0,0);" preserveAspectRatio="xMidYMid meet"><defs><clipPath id="__lottie_element_53564"><rect width="512" height="512" x="0" y="0"></rect></clipPath></defs><g clip-path="url(#__lottie_element_53564)"><g style="display: block;" transform="matrix(1,0,0,1,256,256)" opacity="1"><g opacity="1" transform="matrix(1,0,0,1,0,0)"><path fill="rgb(0,0,0)" fill-opacity="1" d=" M0,228.02099609375 C125.93299865722656,228.02099609375 228.02099609375,125.93299865722656 228.02099609375,0 C228.02099609375,-125.93299865722656 125.93299865722656,-228.02099609375 0,-228.02099609375 C-125.93199920654297,-228.02099609375 -228.02099609375,-125.93299865722656 -228.02099609375,0 C-228.02099609375,125.93299865722656 -125.93199920654297,228.02099609375 0,228.02099609375z M-101.28600311279297,-30.170000076293945 C-87.47200012207031,-45.650001525878906 -69.23200225830078,-59.68899917602539 -48.59700012207031,-71.5510025024414 C-45.49399948120117,-95.19499969482422 -39.452999114990234,-117.4489974975586 -30.381999969482422,-136.1439971923828 C-26.634000778198242,-143.8679962158203 -17.457000732421875,-147.24600219726562 -9.595999717712402,-143.7949981689453 C9.432000160217285,-135.44200134277344 28.459999084472656,-122.41400146484375 46.152000427246094,-106.4229965209961 C69.60199737548828,-110.77799987792969 92.63400268554688,-111.91000366210938 113.20899963378906,-109.06199645996094 C121.71399688720703,-107.88500213623047 127.76200103759766,-100.19999694824219 126.90899658203125,-91.65699768066406 C124.84500122070312,-70.97899627685547 118.33300018310547,-48.858001708984375 108.59200286865234,-27.09000015258789 C119.9800033569336,-6.133999824523926 128.1739959716797,15.420999526977539 131.82400512695312,35.86899948120117 C133.33299255371094,44.32099914550781 127.89399719238281,52.44900131225586 119.50499725341797,54.277000427246094 C99.20899963378906,58.70000076293945 76.15699768066406,59.34400177001953 52.439998626708984,56.80699920654297 C36.007999420166016,74.13600158691406 18.016000747680664,88.60399627685547 -0.3269999921321869,98.3949966430664 C-7.890999794006348,102.43199920654297 -17.25,99.73300170898438 -21.575000762939453,92.33000183105469 C-22.95599937438965,89.96600341796875 -24.288999557495117,87.53600311279297 -25.573999404907227,85.04499816894531 C-34.90999984741211,66.94499969482422 -33.159000396728516,45.042999267578125 -21.243000030517578,28.525999069213867 C-12.355999946594238,16.20800018310547 -1.4730000495910645,5.388999938964844 11.527999877929688,-2.4230000972747803 C18.97599983215332,-6.9670000076293945 14.946999549865723,-18.569000244140625 6.247000217437744,-17.440000534057617 C-17.709999084472656,-14.331999778747559 -39.98400115966797,-3.6570000648498535 -59.52000045776367,10.293999671936035 C-64.99099731445312,14.201000213623047 -72.33000183105469,14.159000396728516 -77.86900329589844,10.350000381469727 C-86.18099975585938,4.633999824523926 -93.80599975585938,-1.496000051498413 -100.5530014038086,-7.989999771118164 C-106.73699951171875,-13.942000389099121 -107,-23.766000747680664 -101.28600311279297,-30.170000076293945z"></path></g></g></g></svg>