<svg xmlns="http://www.w3.org/2000/svg" xmlns:xlink="http://www.w3.org/1999/xlink" viewBox="0 0 512 512" width="512" height="512" style="width: 100%; height: 100%; transform: translate3d(0,0,0);" preserveAspectRatio="xMidYMid meet"><defs><clipPath id="__lottie_element_52293"><rect width="512" height="512" x="0" y="0"></rect></clipPath></defs><g clip-path="url(#__lottie_element_52293)"><g style="display: block;" transform="matrix(1.0399999618530273,0,0,1.0399999618530273,42.1400146484375,2.8492431640625)" opacity="1"><g opacity="1" transform="matrix(1,0,0,1,215.25,249.52000427246094)"><path fill="rgb(0,0,0)" fill-opacity="1" d=" M138,-223.72999572753906 C55.11000061035156,-243.1999969482422 35.880001068115234,-183.13999938964844 26,-183.72999572753906 C14.829999923706055,-184.39999389648438 4.760000228881836,-249.27000427246094 -84,-242.72999572753906 C-179,-235.72999572753906 -215,-146.72999572753906 -193.25999450683594,-72.01000213623047 C-167.8300018310547,15.40999984741211 -40.689998626708984,53.279998779296875 -46.93000030517578,70.25 C-50.209999084472656,79.13999938964844 -77,89.2699966430664 -70.30000305175781,109.33999633789062 C-65.75,122.95999908447266 -43.619998931884766,123.08000183105469 -30.229999542236328,125.66999816894531 C-17.239999771118164,128.17999267578125 4.090000152587891,146.32000732421875 11.890000343322754,131.47999572753906 C22,112.2699966430664 9.319999694824219,94.88999938964844 12.6899995803833,92.75 C19.110000610351562,88.6500015258789 91,140.27000427246094 72.98999786376953,174.86000061035156 C48.45000076293945,222 10.029999732971191,165.61000061035156 -60.65999984741211,163.88999938964844 C-127,162.27000427246094 -163,181.27000427246094 -183.9600067138672,208.25 C-195.00999450683594,222.49000549316406 -174.69000244140625,240.74000549316406 -161,231.27000427246094 C-129.8800048828125,209.72999572753906 -101,195.27000427246094 -53,199.27000427246094 C-3.1600000858306885,203.4199981689453 55,268.2699890136719 97,200.27000427246094 C143.67999267578125,124.69000244140625 48.88999938964844,69.0999984741211 38.31999969482422,64.81999969482422 C29.049999237060547,61.06999969482422 165.10000610351562,47.38999938964844 199.0800018310547,-79.3499984741211 C215,-138.72999572753906 197.61000061035156,-209.72999572753906 138,-223.72999572753906z M-87.69000244140625,-19.950000762939453 C-98.72000122070312,-12.65999984741211 -115.38999938964844,-18.450000762939453 -124.93000030517578,-32.88999938964844 C-134.47000122070312,-47.33000183105469 -133.25,-64.94000244140625 -122.22000122070312,-72.2300033569336 C-111.19000244140625,-79.5199966430664 -94.51000213623047,-73.72000122070312 -84.9800033569336,-59.279998779296875 C-75.44000244140625,-44.849998474121094 -76.6500015258789,-27.239999771118164 -87.69000244140625,-19.950000762939453z M-68,-144.72999572753906 C-91.1500015258789,-121.73999786376953 -100.94999694824219,-100.55999755859375 -122.98999786376953,-102.87000274658203 C-144.02000427246094,-105.06999969482422 -147.08999633789062,-148.0800018310547 -128.52000427246094,-180.25 C-109.94999694824219,-212.41000366210938 -72,-230.72999572753906 -51.72999954223633,-209.85000610351562 C-34.40999984741211,-192.02000427246094 -41.130001068115234,-171.41000366210938 -68,-144.72999572753906z"></path></g></g></g></svg>