<svg xmlns="http://www.w3.org/2000/svg" xmlns:xlink="http://www.w3.org/1999/xlink" viewBox="0 0 512 512" width="512" height="512" style="width: 100%; height: 100%; transform: translate3d(0,0,0);" preserveAspectRatio="xMidYMid meet"><defs><clipPath id="__lottie_element_53364"><rect width="512" height="512" x="0" y="0"></rect></clipPath></defs><g clip-path="url(#__lottie_element_53364)"><g style="display: block;" transform="matrix(1,0,0,1,256.9859924316406,253.45199584960938)" opacity="1"><g opacity="1" transform="matrix(1,0,0,1,-133.14300537109375,105.28099822998047)"><path fill="rgb(0,0,0)" fill-opacity="1" d=" M37.345001220703125,-110.50399780273438 C41.70600128173828,-110.63700103759766 45.832000732421875,-110.11599731445312 48.935001373291016,-107.2750015258789 C66.38099670410156,-91.12799835205078 106.93900299072266,-62.816001892089844 80.00900268554688,-38.55799865722656 C45.571998596191406,-6.307000160217285 31.617000579833984,38.7760009765625 13.812000274658203,80.85700225830078 C6.5289998054504395,97.18499755859375 -13.170999526977539,117.41000366210938 -32.1879997253418,108.2239990234375 C-61.75899887084961,93.3010025024414 -110.76399993896484,67.61499786376953 -78.27899932861328,30.496999740600586 C-53.3120002746582,-1.13100004196167 -28.937000274658203,-33.26599884033203 -10.36299991607666,-69.18699645996094 C0.26899999380111694,-86.93599700927734 14.01099967956543,-110.62899780273438 37.345001220703125,-110.50399780273438z"></path></g><g opacity="1" transform="matrix(1,0,0,1,22.780000686645508,-62.69900131225586)"><path fill="rgb(0,0,0)" fill-opacity="1" d=" M97.78500366210938,-34.236000061035156 C96.7239990234375,-8.479000091552734 66.52300262451172,-3.390000104904175 51.73899841308594,13.267999649047852 C18.499000549316406,39.137001037597656 -11.48900032043457,107.10800170898438 -61.61199951171875,87.72200012207031 C-156.2949981689453,12.545000076293945 -39.55799865722656,-4.828000068664551 -1.1039999723434448,-61.96699905395508 C11.468999862670898,-76.48699951171875 28.801000595092773,-99.02200317382812 50.340999603271484,-88.39800262451172 C71.74400329589844,-77.91000366210938 94.57499694824219,-59.01900100708008 97.78500366210938,-34.236000061035156z"></path></g><g opacity="1" transform="matrix(1,0,0,1,-103.24299621582031,-161.91600036621094)"><path fill="rgb(0,0,0)" fill-opacity="1" d=" M56.08300018310547,45.599998474121094 C41.402000427246094,5.949999809265137 34.55799865722656,-38.14799880981445 46.178001403808594,-78.38899993896484 C57.74399948120117,-99.35199737548828 78.75299835205078,-80.5999984741211 81.66899871826172,-63.814998626708984 C88.53399658203125,-41.82899856567383 109.47100067138672,63.409000396728516 76.16799926757812,65.3499984741211 C67.60299682617188,69.5739974975586 80.44100189208984,91.83999633789062 46.05699920654297,86.99400329589844 C-144.64500427246094,27.475000381469727 -141.2550048828125,-151.3719940185547 56.08300018310547,45.599998474121094z"></path></g><g opacity="1" transform="matrix(1,0,0,1,109.50399780273438,44.481998443603516)"><path fill="rgb(0,0,0)" fill-opacity="1" d=" M24.107999801635742,-37.48899841308594 C115.5469970703125,-43.79199981689453 177.25599670410156,10.954000473022461 49.73400115966797,32.94599914550781 C-5.140999794006348,40.52399826049805 -68.61299896240234,43.28499984741211 -117.27300262451172,13.751999855041504 C-151.281005859375,-23.65399932861328 2.806999921798706,-40.19900131225586 24.107999801635742,-37.48899841308594z"></path></g><g opacity="1" transform="matrix(1,0,0,1,-21.895000457763672,186.6269989013672)"><path fill="rgb(0,0,0)" fill-opacity="1" d=" M46.5369987487793,62.96900177001953 C8.687000274658203,59.904998779296875 -25.922000885009766,35.50899887084961 -52.104000091552734,8.85200023651123 C-77.14399719238281,-12.359999656677246 -84.76599884033203,-72.0989990234375 -37.20100021362305,-61.78099822998047 C-3.9070000648498535,-60.395999908447266 126.20600128173828,54.08599853515625 46.5369987487793,62.96900177001953z"></path></g><g opacity="1" transform="matrix(1,0,0,1,170.4550018310547,-171.17999267578125)"><path fill="rgb(0,0,0)" fill-opacity="1" d=" M-70.2959976196289,7.185999870300293 C-76.22699737548828,-20.444000244140625 1.6380000114440918,-43.404998779296875 23.305999755859375,-55.058998107910156 C45.68000030517578,-64.00399780273438 64.85800170898438,-40.551998138427734 70.1050033569336,-20.743999481201172 C76.13999938964844,12.8149995803833 27.23699951171875,26.961000442504883 7.7820000648498535,47.564998626708984 C-18.413000106811523,74.23699951171875 -66.80599975585938,39.262001037597656 -70.2959976196289,7.185999870300293z"></path></g><g opacity="1" transform="matrix(1,0,0,1,-199.23199462890625,-6.473999977111816)"><path fill="rgb(0,0,0)" fill-opacity="1" d=" M-41.612998962402344,-39.2239990234375 C-44.9010009765625,-65.68199920654297 -11.597999572753906,-83.552001953125 4.620999813079834,-59.68299865722656 C22.85300064086914,-38.95399856567383 74.25800323486328,86.35700225830078 11.770999908447266,69.27400207519531 C-22.143999099731445,44.643001556396484 -37.441001892089844,0.9909999966621399 -41.612998962402344,-39.2239990234375z"></path></g></g></g></svg>