<svg xmlns="http://www.w3.org/2000/svg" xmlns:xlink="http://www.w3.org/1999/xlink" viewBox="0 0 512 512" width="512" height="512" style="width: 100%; height: 100%; transform: translate3d(0,0,0);" preserveAspectRatio="xMidYMid meet"><defs><clipPath id="__lottie_element_52493"><rect width="512" height="512" x="0" y="0"></rect></clipPath></defs><g clip-path="url(#__lottie_element_52493)"><g style="display: block;" transform="matrix(1,0,0,1,0,-2)" opacity="1"><g opacity="1" transform="matrix(1,0,0,1,139.38999938964844,368.6650085449219)"><path fill="rgb(0,0,0)" fill-opacity="1" d=" M119.61000061035156,35.334999084472656 C60.61000061035156,13.335000038146973 -6.389999866485596,-62.665000915527344 -24.389999389648438,-117.66500091552734 C-28.270000457763672,-129.51499938964844 -99.08000183105469,-45.974998474121094 -102.38999938964844,-36.665000915527344 C-107.7699966430664,-21.545000076293945 -128.6699981689453,36.21500015258789 -94.38999938964844,81.33499908447266 C-61.4900016784668,124.6449966430664 2.5999999046325684,129.51499938964844 47.61000061035156,111.33499908447266 C53.4900016784668,108.96499633789062 128.6699981689453,38.71500015258789 119.61000061035156,35.334999084472656z M-39.88999938964844,54.334999084472656 C-46.2400016784668,54.334999084472656 -51.38999938964844,49.185001373291016 -51.38999938964844,42.834999084472656 C-51.38999938964844,36.48500061035156 -46.2400016784668,31.334999084472656 -39.88999938964844,31.334999084472656 C-33.540000915527344,31.334999084472656 -28.389999389648438,36.48500061035156 -28.389999389648438,42.834999084472656 C-28.389999389648438,49.185001373291016 -33.540000915527344,54.334999084472656 -39.88999938964844,54.334999084472656z M-36.88999938964844,-15.664999961853027 C-43.2400016784668,-15.664999961853027 -48.38999938964844,-20.815000534057617 -48.38999938964844,-27.165000915527344 C-48.38999938964844,-33.51499938964844 -43.2400016784668,-38.665000915527344 -36.88999938964844,-38.665000915527344 C-30.540000915527344,-38.665000915527344 -25.389999389648438,-33.51499938964844 -25.389999389648438,-27.165000915527344 C-25.389999389648438,-20.815000534057617 -30.540000915527344,-15.664999961853027 -36.88999938964844,-15.664999961853027z M30.110000610351562,47.334999084472656 C23.760000228881836,47.334999084472656 18.610000610351562,42.185001373291016 18.610000610351562,35.834999084472656 C18.610000610351562,29.485000610351562 23.760000228881836,24.334999084472656 30.110000610351562,24.334999084472656 C36.459999084472656,24.334999084472656 41.61000061035156,29.485000610351562 41.61000061035156,35.834999084472656 C41.61000061035156,42.185001373291016 36.459999084472656,47.334999084472656 30.110000610351562,47.334999084472656z"></path></g><g opacity="1" transform="matrix(1,0,0,1,376.739990234375,135.78500366210938)"><path fill="rgb(0,0,0)" fill-opacity="1" d=" M68.96099853515625,-84.99500274658203 C26.42099952697754,-118.17500305175781 -20.82900047302246,-106.98500061035156 -35.28900146484375,-102.04499816894531 C-44.19900131225586,-99.00499725341797 -121.64900207519531,-34.69499969482422 -111.35900115966797,-28.764999389648438 C-65.3499984741211,-2.2850000858306885 2.621000051498413,61.48500061035156 30.56100082397461,110.19499969482422 C35.14099884033203,118.17500305175781 101.45999908447266,48.1349983215332 103.79000091552734,42.564998626708984 C121.64900207519531,-0.06499999761581421 109.79100036621094,-53.14500045776367 68.96099853515625,-84.99500274658203z M-39.18000030517578,-22.625 C-45.229000091552734,-22.69499969482422 -50.06999969482422,-27.665000915527344 -49.9900016784668,-33.70500183105469 C-49.90999984741211,-39.755001068115234 -44.95000076293945,-44.595001220703125 -38.900001525878906,-44.51499938964844 C-32.85100173950195,-44.44499969482422 -28.020999908447266,-39.474998474121094 -28.09000015258789,-33.42499923706055 C-28.170000076293945,-27.385000228881836 -33.12900161743164,-22.545000076293945 -39.18000030517578,-22.625z M23.990999221801758,42.935001373291016 C17.940000534057617,42.85499954223633 13.10099983215332,37.89500045776367 13.180999755859375,31.844999313354492 C13.25100040435791,25.80500030517578 18.219999313354492,20.96500015258789 24.260000228881836,21.03499984741211 C30.309999465942383,21.114999771118164 35.14899826049805,26.084999084472656 35.069000244140625,32.125 C35,38.17499923706055 30.030000686645508,43.01499938964844 23.990999221801758,42.935001373291016z M30.500999450683594,-24.625 C24.451000213623047,-24.704999923706055 19.610000610351562,-29.665000915527344 19.690000534057617,-35.71500015258789 C19.770999908447266,-41.76499938964844 24.729999542236328,-46.595001220703125 30.780000686645508,-46.525001525878906 C36.83100128173828,-46.44499969482422 41.67100143432617,-41.48500061035156 41.590999603271484,-35.435001373291016 C41.51100158691406,-29.385000228881836 36.55099868774414,-24.545000076293945 30.500999450683594,-24.625z"></path></g><g opacity="1" transform="matrix(1,0,0,1,265.3919982910156,256.7149963378906)"><path fill="rgb(0,0,0)" fill-opacity="1" d=" M-135.39199829101562,-33.71500015258789 C-135.61199951171875,-49.71500015258789 -46.12200164794922,-140.64999389648438 -32.391998291015625,-141.71499633789062 C-8.744000434875488,-143.5489959716797 135.61199951171875,-2.0810000896453857 135.60800170898438,26.28499984741211 C135.60499572753906,44.32099914550781 37.18299865722656,139.45899963378906 28.607999801635742,137.28500366210938 C-42.391998291015625,119.28500366210938 -134.72999572753906,14.35099983215332 -135.39199829101562,-33.71500015258789z"></path></g></g></g></svg>