<svg xmlns="http://www.w3.org/2000/svg" xmlns:xlink="http://www.w3.org/1999/xlink" viewBox="0 0 512 512" width="512" height="512" style="width: 100%; height: 100%; transform: translate3d(0,0,0);" preserveAspectRatio="xMidYMid meet"><defs><clipPath id="__lottie_element_53904"><rect width="512" height="512" x="0" y="0"></rect></clipPath></defs><g clip-path="url(#__lottie_element_53904)"><g style="display: block;" transform="matrix(1,0,0,1,19.75,11.7230224609375)" opacity="1"><g opacity="1" transform="matrix(1,0,0,1,246.25,248.80499267578125)"><path fill="rgb(0,0,0)" fill-opacity="1" d=" M-166,-189.5279998779297 C-171.83200073242188,-197.85899353027344 -112.31400299072266,-248.51600646972656 -57,-248.5279998779297 C66,-248.55499267578125 162,-190.5279998779297 150,-16.527999877929688 C149.75599670410156,-12.98799991607666 166,-17.527999877929688 178,-5.5279998779296875 C193.6999969482422,10.17199993133545 187.83700561523438,16.132999420166016 194,24.472000122070312 C228,70.47200012207031 246,116.47200012207031 228,126.47200012207031 C207.4250030517578,137.9029998779297 186.4669952392578,84.31800079345703 181,51.47200012207031 C179.4510040283203,42.16600036621094 164.1060028076172,42.03499984741211 164,48.47200012207031 C163.67300415039062,68.23200225830078 182.70700073242188,98.06500244140625 196,158.4720001220703 C201.06199645996094,181.47799682617188 209,237.4720001220703 194,242.4720001220703 C175.7519989013672,248.55499267578125 98.52899932861328,195.2519989013672 89,165.4720001220703 C65,90.47200012207031 103.49500274658203,37.01900100708008 99,27.472000122070312 C94.97899627685547,18.93400001525879 36,-9.527999877929688 -53,-17.527999877929688 C-114.33399963378906,-23.041000366210938 -181.6790008544922,-12.45300006866455 -184,1.472000002861023 C-187,19.472000122070312 -138,33.47200012207031 -66,39.47200012207031 C-0.13600000739097595,44.959999084472656 52,32.47200012207031 53.3120002746582,49.277000427246094 C54.35499954223633,62.63199996948242 -58,92.47200012207031 -142,78.47200012207031 C-235.08900451660156,62.957000732421875 -245.29200744628906,5.015999794006348 -234,-23.527999877929688 C-228.71400451660156,-36.89099884033203 -207.70599365234375,-55.27199935913086 -181,-63.52799987792969 C-150.76499938964844,-72.875 -120.04000091552734,-67.41000366210938 -118,-73.52799987792969 C-115,-82.52799987792969 -143.6320037841797,-91.63400268554688 -175,-86.52799987792969 C-218,-79.52799987792969 -233.05499267578125,-54.83000183105469 -237,-60.52799987792969 C-246,-73.52799987792969 -216,-144.5279998779297 -195,-154.5279998779297 C-179.01800537109375,-162.13800048828125 -112.46800231933594,-171.45199584960938 -62,-166.5279998779297 C20,-158.5279998779297 54.36800003051758,-118.4229965209961 67,-120.52799987792969 C79,-122.52799987792969 42,-176.5279998779297 -54,-191.5279998779297 C-103.88200378417969,-199.32200622558594 -159,-179.5279998779297 -166,-189.5279998779297z"></path></g></g></g></svg>