<svg xmlns="http://www.w3.org/2000/svg" xmlns:xlink="http://www.w3.org/1999/xlink" viewBox="0 0 512 512" width="512" height="512" style="width: 100%; height: 100%; transform: translate3d(0,0,0);" preserveAspectRatio="xMidYMid meet"><defs><clipPath id="__lottie_element_51630"><rect width="512" height="512" x="0" y="0"></rect></clipPath></defs><g clip-path="url(#__lottie_element_51630)"><g style="display: block;" transform="matrix(1,0,0,1,264.95098876953125,255.28799438476562)" opacity="1"><g opacity="1" transform="matrix(1,0,0,1,0,0)"><path fill="rgb(0,0,0)" fill-opacity="1" d=" M191.7550048828125,-70.18800354003906 C199.22999572753906,-78.927001953125 194.6929931640625,-92.4800033569336 183.46299743652344,-94.95800018310547 C183.46299743652344,-94.95800018310547 111.33799743652344,-110.87300109863281 111.33799743652344,-110.87300109863281 C111.33799743652344,-110.87300109863281 124.01000213623047,-191.47900390625 124.01000213623047,-191.47900390625 C126.27200317382812,-205.87100219726562 117.46800231933594,-219.71499633789062 103.45600128173828,-223.7030029296875 C80.5770034790039,-230.21499633789062 41.04899978637695,-238.3280029296875 -17.13800048828125,-239.88299560546875 C-72.45999908447266,-241.36199951171875 -115.64900207519531,-228.5279998779297 -143.20399475097656,-216.76699829101562 C-143.20399475097656,-216.76699829101562 -143.76600646972656,-219.33299255371094 -143.76600646972656,-219.33299255371094 C-147.2209930419922,-235.1020050048828 -164.00599670410156,-243.99600219726562 -178.9949951171875,-238.00100708007812 C-178.9949951171875,-238.00100708007812 -178.9949951171875,-238.00100708007812 -178.9949951171875,-238.00100708007812 C-190.71299743652344,-233.31399536132812 -197.406005859375,-220.92100524902344 -194.89999389648438,-208.552001953125 C-194.89999389648438,-208.552001953125 -108.27899932861328,219.04100036621094 -108.27899932861328,219.04100036621094 C-104.86399841308594,235.9010009765625 -86.37000274658203,244.91700744628906 -70.98400115966797,237.2239990234375 C-70.98400115966797,237.2239990234375 -64.61599731445312,234.0399932861328 -64.61599731445312,234.0399932861328 C-53.917999267578125,228.6909942626953 -48.21699905395508,216.75999450683594 -50.777000427246094,205.0760040283203 C-50.777000427246094,205.0760040283203 -104.19000244140625,-38.702999114990234 -104.19000244140625,-38.702999114990234 C-87.60700225830078,-45.66899871826172 -64.18099975585938,-52.54199981689453 -33.86399841308594,-54.39099884033203 C-17.538000106811523,-55.38600158691406 -1.312000036239624,-54.3390007019043 13.895999908447266,-52.191001892089844 C28.3700008392334,-50.13100051879883 40.29399871826172,-47.2859992980957 46.92100143432617,-45.42599868774414 C57.83599853515625,-42.36199951171875 53.814998626708984,-28.766000747680664 43.66600036621094,-29.531999588012695 C35.01499938964844,-30.184999465942383 10.418000221252441,-29.9950008392334 -13.994999885559082,-20.79400062561035 C-13.994999885559082,-20.79400062561035 -16.29400062561035,-7.431000232696533 -16.29400062561035,-7.431000232696533 C-18.641000747680664,6.2129998207092285 -9.425000190734863,19.15999984741211 4.239999771118164,21.3799991607666 C18.405000686645508,23.680999755859375 39.375999450683594,27.99799919128418 69.10600280761719,36.08000183105469 C104.48899841308594,45.69900131225586 135.29100036621094,55.33599853515625 156.61399841308594,62.33700180053711 C168.86700439453125,66.36000061035156 180.25599670410156,54.28799819946289 175.531005859375,42.28799819946289 C175.531005859375,42.28799819946289 156.01499938964844,-7.270999908447266 156.01499938964844,-7.270999908447266 C152.50799560546875,-16.177000045776367 154.20599365234375,-26.29199981689453 160.42799377441406,-33.566001892089844 C160.42799377441406,-33.566001892089844 191.7550048828125,-70.18800354003906 191.7550048828125,-70.18800354003906z"></path></g></g></g></svg>