<svg xmlns="http://www.w3.org/2000/svg" xmlns:xlink="http://www.w3.org/1999/xlink" viewBox="0 0 512 512" width="512" height="512" style="width: 100%; height: 100%; transform: translate3d(0,0,0);" preserveAspectRatio="xMidYMid meet"><defs><clipPath id="__lottie_element_52473"><rect width="512" height="512" x="0" y="0"></rect></clipPath></defs><g clip-path="url(#__lottie_element_52473)"><g style="display: block;" transform="matrix(1,0,0,1,-1080.007080078125,-2474.760009765625)" opacity="1"><g opacity="1" transform="matrix(1,0,0,1,0,0)"><g opacity="1" transform="matrix(1,0,0,1,1336.9749755859375,2726.381103515625)"><path fill="rgb(0,0,0)" fill-opacity="1" d=" M-39.53099822998047,-132.6790008544922 C-29.63800048828125,-126.48100280761719 -18.190000534057617,-129.5019989013672 -6.1479997634887695,-129.21499633789062 C-2.075000047683716,-129.2100067138672 1.996999979019165,-129.00900268554688 6.052000045776367,-128.60000610351562 C24.02199935913086,-126.33799743652344 38.62799835205078,-123.2969970703125 47.51100158691406,-143.21400451660156 C66.37300109863281,-187.322998046875 84.13500213623047,-215.26199340820312 132.14300537109375,-230.46600341796875 C153.03199768066406,-238.54400634765625 227.3769989013672,-255.94000244140625 240.7550048828125,-235.18899536132812 C244.0500030517578,-226.38800048828125 227.78399658203125,-223.3300018310547 220.7790069580078,-221.50599670410156 C208.13800048828125,-218.72000122070312 195.86300659179688,-214.6999969482422 183.94900512695312,-209.68899536132812 C161.55299377441406,-201.22000122070312 144.14999389648438,-185.21800231933594 132.23699951171875,-164.4739990234375 C121.30599975585938,-148.4250030517578 90.39299774169922,-78.0989990234375 128.6510009765625,-79.23200225830078 C135.83799743652344,-79.84600067138672 142.93800354003906,-83.16200256347656 149.48599243164062,-86.23100280761719 C163.9429931640625,-93.13600158691406 178.29600524902344,-100.24500274658203 191.906005859375,-108.64399719238281 C203.3979949951172,-116.03700256347656 222.4530029296875,-126.80000305175781 226.281005859375,-105.80799865722656 C228.07200622558594,-93.54499816894531 224.83099365234375,-79.50499725341797 217.3159942626953,-69.46399688720703 C206.86399841308594,-55.694000244140625 187.00399780273438,-50.10100173950195 170.0659942626953,-46.17399978637695 C156.0050048828125,-42.96200180053711 136.46600341796875,-42.499000549316406 134.43800354003906,-24.57699966430664 C133.08999633789062,-13.942999839782715 134.49200439453125,-2.888000011444092 134.4219970703125,7.901000022888184 C134.89100646972656,32.65700149536133 132.88299560546875,58.81800079345703 117.61399841308594,78.93900299072266 C100.85299682617188,101.63099670410156 76.8479995727539,121.04299926757812 71.00499725341797,149.94200134277344 C68.4489974975586,160.93499755859375 68.12999725341797,172.6060028076172 65.7239990234375,183.6479949951172 C62.051998138427734,206.0449981689453 42.52899932861328,218.65699768066406 27.54400062561035,234.53900146484375 C19.937000274658203,242.40699768066406 12.881999969482422,254.63800048828125 1.2059999704360962,255.68600463867188 C-4.980000019073486,255.93899536132812 -10.913999557495117,251.74400329589844 -15.428999900817871,247.20799255371094 C-21.13599967956543,241.48399353027344 -26.150999069213867,234.9600067138672 -31.891000747680664,229.23199462890625 C-45.525001525878906,215.61000061035156 -61.2239990234375,202.97300720214844 -64.28800201416016,183.32699584960938 C-66.48799896240234,172.44400024414062 -66.90699768066406,161.0780029296875 -69.58000183105469,150.28900146484375 C-74.7770004272461,125.20800018310547 -92.98400115966797,106.36100006103516 -109.14800262451172,87.56099700927734 C-131.39999389648438,63.39899826049805 -134.11700439453125,31.07900047302246 -132.84800720214844,-0.5299999713897705 C-131.94000244140625,-22.312999725341797 -128.66400146484375,-38.76499938964844 -155.18299865722656,-43.5880012512207 C-173.08900451660156,-47.3650016784668 -191.92799377441406,-50.638999938964844 -207.17100524902344,-61.3390007019043 C-217.69000244140625,-68.66200256347656 -223.19400024414062,-80.88400268554688 -224.1929931640625,-93.4520034790039 C-225.7449951171875,-108.79499816894531 -221.02099609375,-124.1719970703125 -203.0489959716797,-115.74700164794922 C-185.33599853515625,-106.27200317382812 -168.28900146484375,-95.5510025024414 -149.8699951171875,-87.26300048828125 C-140.23199462890625,-82.93099975585938 -128.54800415039062,-76.91799926757812 -117.9990005493164,-80.5479965209961 C-95.19100189208984,-91.37799835205078 -117.0999984741211,-135.8280029296875 -123.87200164794922,-152.71499633789062 C-129.1929931640625,-165.02099609375 -134.8260040283203,-177.6510009765625 -144.51100158691406,-187.17599487304688 C-164.15199279785156,-205.22500610351562 -192.0970001220703,-214.80299377441406 -217.63800048828125,-221.1649932861328 C-222.68899536132812,-222.3509979248047 -228.22000122070312,-223.51499938964844 -232.81300354003906,-225.5850067138672 C-244.0500030517578,-230.38600158691406 -241.26499938964844,-238.13800048828125 -230.6580047607422,-241.91799926757812 C-195.37600708007812,-253.13299560546875 -107.22799682617188,-231.1649932861328 -82.17500305175781,-202.9980010986328 C-71.7229995727539,-192.35299682617188 -63.80400085449219,-179.38499450683594 -57.6150016784668,-165.88499450683594 C-52.20899963378906,-155.197998046875 -49.68000030517578,-139.6649932861328 -39.6619987487793,-132.76699829101562 C-39.6619987487793,-132.76699829101562 -39.53099822998047,-132.6790008544922 -39.53099822998047,-132.6790008544922z M28.496999740600586,-42.96200180053711 C29.804000854492188,-60.77399826049805 11.180999755859375,-83.29199981689453 -7.671000003814697,-74.58100128173828 C-18.836999893188477,-69.20800018310547 -27.801000595092773,-55.1879997253418 -26.893999099731445,-42.233001708984375 C-26.086999893188477,-30.636999130249023 -17.844999313354492,-19.19300079345703 -7.429999828338623,-14.395000457763672 C10.01099967956543,-6.552000045776367 27.621999740600586,-26.08799934387207 28.485000610351562,-42.75699996948242 C28.485000610351562,-42.75699996948242 28.496999740600586,-42.96200180053711 28.496999740600586,-42.96200180053711z M-40.891998291015625,49.62699890136719 C-36.56999969482422,46.19300079345703 -36.84700012207031,39.38600158691406 -38.43199920654297,34.33700180053711 C-42.2869987487793,21.518999099731445 -54.15599822998047,13.135000228881836 -66.34300231933594,7.618000030517578 C-72.84200286865234,4.703999996185303 -80.10700225830078,1.3559999465942383 -87.26599884033203,1.74399995803833 C-100.25599670410156,2.7829999923706055 -95.58899688720703,17.22100067138672 -90.00499725341797,24.139999389648438 C-83.4729995727539,33.763999938964844 -52.23899841308594,58.183998107910156 -41.00199890136719,49.71099853515625 C-41.00199890136719,49.71099853515625 -40.891998291015625,49.62699890136719 -40.891998291015625,49.62699890136719z M39.44200134277344,43.297000885009766 C44.79100036621094,64.2300033569336 79.90299987792969,37.32600021362305 87.94999694824219,28.448999404907227 C102.03299713134766,13.675000190734863 101.54299926757812,-4.428999900817871 76.83000183105469,4.808000087738037 C59.73400115966797,11.017000198364258 37.262001037597656,22.104999542236328 39.40999984741211,43.13600158691406 C39.40999984741211,43.13600158691406 39.44200134277344,43.297000885009766 39.44200134277344,43.297000885009766z"></path></g><g opacity="1" transform="matrix(1,0,0,1,1179.656982421875,2894.43408203125)"><path fill="rgb(0,0,0)" fill-opacity="1" d=" M1.5180000066757202,-30.68400001525879 C20.589000701904297,-31.378000259399414 35.176998138427734,-17.586999893188477 29.13599967956543,1.6779999732971191 C21.158000946044922,27.354999542236328 -18.54199981689453,31.378000259399414 -28.31599998474121,5.321000099182129 C-35.176998138427734,-15.03600025177002 -18.915000915527344,-30.545000076293945 1.309999942779541,-30.679000854492188 C1.309999942779541,-30.679000854492188 1.5180000066757202,-30.68400001525879 1.5180000066757202,-30.68400001525879z"></path></g><g opacity="1" transform="matrix(1,0,0,1,1498.9150390625,2888.715087890625)"><path fill="rgb(0,0,0)" fill-opacity="1" d=" M-2.8910000324249268,27.584999084472656 C-21.69700050354004,29.222999572753906 -38.21900177001953,15.128000259399414 -33.61000061035156,-4.2230000495910645 C-28.31800079345703,-26.035999298095703 -2.7720000743865967,-29.224000930786133 14.24899959564209,-18.41699981689453 C38.220001220703125,-3.003999948501587 21.472999572753906,26.138999938964844 -2.684000015258789,27.569000244140625 C-2.684000015258789,27.569000244140625 -2.8910000324249268,27.584999084472656 -2.8910000324249268,27.584999084472656z"></path></g></g></g></g></svg>