<svg xmlns="http://www.w3.org/2000/svg" xmlns:xlink="http://www.w3.org/1999/xlink" viewBox="0 0 512 512" width="512" height="512" style="width: 100%; height: 100%; transform: translate3d(0,0,0);" preserveAspectRatio="xMidYMid meet"><defs><clipPath id="__lottie_element_53394"><rect width="512" height="512" x="0" y="0"></rect></clipPath></defs><g clip-path="url(#__lottie_element_53394)"><g style="display: block;" transform="matrix(2.962939977645874,0,0,2.962939977645874,2.8374481201171875,2.8374481201171875)" opacity="1"><g opacity="1" transform="matrix(1,0,0,1,86.73699951171875,84.31500244140625)"><path fill="rgb(0,0,0)" fill-opacity="1" d=" M77.15599822998047,-17.273000717163086 C77.56800079345703,-16.680999755859375 77.14700317382812,-15.86299991607666 76.4260025024414,-15.86299991607666 C71.70600128173828,-15.857999801635742 68.05599975585938,-15.836999893188477 64.40699768066406,-15.866999626159668 C46.303001403808594,-16.014999389648438 28.198999404907227,-16.1200008392334 10.097999572753906,-16.43000030517578 C8.196000099182129,-16.46299934387207 6.215000152587891,-17.549999237060547 4.442999839782715,-18.475000381469727 C-1.5640000104904175,-21.610000610351562 -7.421999931335449,-25.038000106811523 -13.491999626159668,-28.04199981689453 C-15.706999778747559,-29.138999938964844 -18.356000900268555,-29.360000610351562 -21.172000885009766,-28.90999984741211 C-19.583999633789062,-28.024999618530273 -17.959999084472656,-27.197999954223633 -16.416000366210938,-26.243999481201172 C-11.135000228881836,-22.98200035095215 -7.184999942779541,-18.673999786376953 -1.4149999618530273,-14.27299976348877 C4.051000118255615,-10.104000091552734 8.446000099182129,-9.28600025177002 14.40999984741211,-9.086999893188477 C30.80900001525879,-8.541999816894531 66.19300079345703,-7.4019999504089355 67.51200103759766,-7.3520002365112305 C74.28099822998047,-7.0929999351501465 73.41300201416016,-4.47599983215332 70.19599914550781,-1.0829999446868896 C62.05799865722656,7.500999927520752 54.237998962402344,16.590999603271484 45.005001068115234,23.84000015258789 C41.040000915527344,26.952999114990234 33.29100036621094,28.920000076293945 27.631000518798828,28.701000213623047 C18.19499969482422,28.336999893188477 12.043999671936035,29.3700008392334 8.229999542236328,38.18199920654297 C4.322000026702881,47.209999084472656 6.921000003814697,54.87900161743164 13.517999649047852,61.34199905395508 C19.575000762939453,67.2750015258789 26.073999404907227,72.75599670410156 32.36000061035156,78.45700073242188 C34.244998931884766,80.16699981689453 36.06700134277344,81.94599914550781 37.917999267578125,83.69300079345703 C37.67900085449219,84.27799987792969 26.82900047302246,84.31600189208984 22.27199935913086,82.31600189208984 C1.63100004196167,73.25800323486328 -19.604000091552734,66.18599700927734 -41.88999938964844,62.85100173950195 C-49.35900115966797,61.73400115966797 -57.13600158691406,62.67399978637695 -64.84400177001953,62.67399978637695 C-57.319000244140625,52.090999603271484 -51.1609992980957,40.979000091552734 -47.86000061035156,28.4689998626709 C-45.45000076293945,19.336000442504883 -47.29800033569336,12.579000473022461 -55.25299835205078,7.86299991607666 C-72.19599914550781,-2.180999994277954 -77.56800079345703,-24.22800064086914 -69.53299713134766,-43.04800033569336 C-63.19599914550781,-57.89099884033203 -52.93000030517578,-69.75499725341797 -38.263999938964844,-75.9209976196289 C-17.593000411987305,-84.61199951171875 3.6610000133514404,-84.89099884033203 23.802000045776367,-73.3239974975586 C26.527000427246094,-71.75900268554688 32.60599899291992,-67.5 32.520999908447266,-64.89099884033203 C32.4370002746582,-62.290000915527344 26.0939998626709,-59.46799850463867 23.277000427246094,-58.03099822998047 C16.27199935913086,-54.457000732421875 9.435999870300293,-51.04100036621094 6.11299991607666,-43.316001892089844 C5.771999835968018,-42.52299880981445 5.517000198364258,-41.69200134277344 4.620999813079834,-39.222999572753906 C15.78600025177002,-49.83599853515625 28.020000457763672,-53.03900146484375 41.3380012512207,-53.375999450683594 C47.8650016784668,-53.54199981689453 53.23500061035156,-51.53099822998047 57.04100036621094,-46.13199996948242 C63.54100036621094,-36.90999984741211 69.9520034790039,-27.62700080871582 77.15599822998047,-17.273000717163086z M44.66899871826172,-21.645000457763672 C44.375999450683594,-27.77400016784668 40.02799987792969,-34.92499923706055 34.875999450683594,-36.75699996948242 C33.25400161743164,-37.702999114990234 28.89699935913086,-36.02399826049805 30.094999313354492,-33.78099822998047 C32.27299880981445,-29.70400047302246 39.80699920654297,-22.731000900268555 44.66899871826172,-21.645000457763672z M47.972999572753906,-39.367000579833984 C40.11600112915039,-38.26499938964844 53.61800003051758,-24.30500030517578 61.53300094604492,-22.729999542236328 C60.38999938964844,-30.332000732421875 52.494998931884766,-40.00199890136719 47.972999572753906,-39.367000579833984z M18.937999725341797,-33.56399917602539 C17.731000900268555,-33.44599914550781 16.531999588012695,-31.4689998626709 17.215999603271484,-30.466999053955078 C19.416000366210938,-27.23900032043457 24.41699981689453,-24.42799949645996 26.77400016784668,-23.158000946044922 C27.38599967956543,-23.93400001525879 23.118999481201172,-33.97200012207031 18.937999725341797,-33.56399917602539z"></path></g></g></g></svg>