<svg xmlns="http://www.w3.org/2000/svg" xmlns:xlink="http://www.w3.org/1999/xlink" viewBox="0 0 512 512" width="512" height="512" style="width: 100%; height: 100%; transform: translate3d(0,0,0);" preserveAspectRatio="xMidYMid meet"><defs><clipPath id="__lottie_element_3197"><rect width="512" height="512" x="0" y="0"></rect></clipPath></defs><g clip-path="url(#__lottie_element_3197)"><g style="display: block;" transform="matrix(1,0,0,1,8.75,27.416000366210938)" opacity="1"><g opacity="1" transform="matrix(1,0,0,1,247.67999267578125,230.91700744628906)"><path fill="rgb(0,0,0)" fill-opacity="1" d=" M-126.98400115966797,68.81800079345703 C-126.09600067138672,60.33399963378906 -173.0959930419922,-5 -136.42999267578125,-101.33300018310547 C-111.37300109863281,-167.1649932861328 -61.43199920654297,-180.01800537109375 -57.43000030517578,-187.33299255371094 C-53.141998291015625,-195.1719970703125 -48.683998107910156,-219.44400024414062 -20.43000030517578,-225.33299255371094 C5.15500020980835,-230.66700744628906 22.097000122070312,-214.9499969482422 33.56999969482422,-213.33299255371094 C41.82899856567383,-212.1699981689453 96.90299987792969,-223.33299255371094 170.53799438476562,-175.0679931640625 C215.781005859375,-145.41200256347656 247.42999267578125,-82.66699981689453 247.23699951171875,-45.33300018310547 C247.1219940185547,-23.090999603271484 225.43800354003906,6.2170000076293945 219.23699951171875,4.666999816894531 C209.23699951171875,2.1670000553131104 211.1790008544922,-73.4219970703125 150.57000732421875,-127.33300018310547 C90.23699951171875,-181 39.26900100708008,-178.86300659179688 38.56999969482422,-172.33299255371094 C37.56999969482422,-163 82.23699951171875,-163.33299255371094 137.57000732421875,-97.33300018310547 C183.7480010986328,-42.25299835205078 195.23699951171875,31.333999633789062 190.57000732421875,55.33399963378906 C186.3350067138672,77.11699676513672 52.56999969482422,202.33399963378906 5.570000171661377,209.66700744628906 C-43.7140007019043,217.3560028076172 -75.43000030517578,185.33399963378906 -141.42999267578125,196.66700744628906 C-172.94900512695312,202.07899475097656 -181.84100341796875,217.39999389648438 -202.42999267578125,223.66700744628906 C-225.42999267578125,230.66700744628906 -247.42999267578125,207.33399963378906 -237.42999267578125,183.66700744628906 C-218.46800231933594,138.79100036621094 -128.2480010986328,80.9010009765625 -126.98400115966797,68.81800079345703z"></path></g></g></g></svg>