<svg xmlns="http://www.w3.org/2000/svg" xmlns:xlink="http://www.w3.org/1999/xlink" viewBox="0 0 512 512" width="512" height="512" style="width: 100%; height: 100%; transform: translate3d(0,0,0);" preserveAspectRatio="xMidYMid meet"><defs><clipPath id="__lottie_element_53969"><rect width="512" height="512" x="0" y="0"></rect></clipPath></defs><g clip-path="url(#__lottie_element_53969)"><g style="display: block;" transform="matrix(1,0,0,1,0,0)" opacity="1"><g opacity="1" transform="matrix(1,0,0,1,256.9079895019531,253.11399841308594)"><path fill="rgb(0,0,0)" fill-opacity="1" d=" M3.26200008392334,-249.70199584960938 C-136.3719940185547,-251.91600036621094 -250.28700256347656,-140.72000122070312 -251.3000030517578,-1.0720000267028809 C-251.52999877929688,30.641000747680664 -246.1719970703125,73.31800079345703 -233.5760040283203,97.88200378417969 C-231.96800231933594,101.01599884033203 -227.6300048828125,101.36299896240234 -225.58799743652344,98.49199676513672 C-212.8800048828125,80.61599731445312 -190.70700073242188,48.78300094604492 -148.2220001220703,31.996000289916992 C-147.00599670410156,31.514999389648438 -145.9969940185547,33.02899932861328 -146.9219970703125,33.95399856567383 C-158.91099548339844,45.94599914550781 -192.21400451660156,84.46700286865234 -198.1790008544922,147.36599731445312 C-198.5970001220703,151.7740020751953 -197.3179931640625,156.18800354003906 -194.50900268554688,159.61099243164062 C-148.16799926757812,216.06700134277344 -77.6449966430664,251.9149932861328 1.2389999628067017,251.2899932861328 C138.64199829101562,250.2010040283203 251.531005859375,134.7760009765625 249.70199584960938,-2.619999885559082 C247.8990020751953,-138.05799865722656 138.61700439453125,-247.55499267578125 3.26200008392334,-249.70199584960938z M186.4530029296875,-31.632999420166016 C172.25100708007812,-40.01300048828125 156.4759979248047,-41.904998779296875 140.66799926757812,-37.183998107910156 C158.44200134277344,12.402000427246094 157.62899780273438,61.66299819946289 152.6020050048828,97.15799713134766 C144.65899658203125,153.2570037841797 124.73999786376953,179.26600646972656 117.28099822998047,187.27000427246094 C116.8030014038086,187.78399658203125 115.98200225830078,187.20700073242188 116.302001953125,186.58200073242188 C121.23400115966797,176.94500732421875 134.4969940185547,147.2729949951172 140.76199340820312,95.1729965209961 C144.8489990234375,61.18600082397461 146.0240020751953,14.265000343322754 129.39300537109375,-32.8489990234375 C96.79900360107422,-17.589000701904297 71.70500183105469,19.43600082397461 25.30699920654297,117.58799743652344 C4.160999774932861,162.32000732421875 -19.06999969482422,186.14599609375 -49.89799880981445,199.7100067138672 C-68.50700378417969,207.8979949951172 -83.89399719238281,204.32899475097656 -89.71199798583984,202.38800048828125 C-90.11199951171875,202.25399780273438 -89.98999786376953,201.66200256347656 -89.56900024414062,201.68499755859375 C-84.41300201416016,201.9669952392578 -72.16300201416016,201.6510009765625 -56.902000427246094,194.56300354003906 C-22.433000564575195,178.55499267578125 0.9300000071525574,141.07899475097656 14.458000183105469,112.45999908447266 C41.599998474121094,55.04399871826172 59.54100036621094,22.180999755859375 76.38400268554688,-0.9700000286102295 C91.84500122070312,-22.22100067138672 107.16699981689453,-35.840999603271484 125.08999633789062,-44.066001892089844 C121.81700134277344,-51.94200134277344 118.03099822998047,-59.79600143432617 113.6240005493164,-67.56600189208984 C106.75800323486328,-79.6729965209961 99.45600128173828,-90.62999725341797 91.89700317382812,-100.54900360107422 C45.840999603271484,-88.00700378417969 -17.461000442504883,-60.70199966430664 -95.49099731445312,-2.8929998874664307 C-96.6709976196289,-2.0199999809265137 -98.12000274658203,-3.5510001182556152 -97.17400360107422,-4.673999786376953 C-88.58999633789062,-14.85099983215332 -70.48999786376953,-34.07099914550781 -42.124000549316406,-53.45199966430664 C-19.75,-68.73899841308594 3.7260000705718994,-79.60399627685547 25.851999282836914,-89.47699737548828 C45.62799835205078,-98.3010025024414 64.96900177001953,-105.41400146484375 83.70800018310547,-110.77200317382812 C76.50299835205078,-119.3499984741211 69.13200378417969,-127.05500030517578 61.733001708984375,-133.9709930419922 C61.17900085449219,-133.6230010986328 60.63399887084961,-133.27099609375 60.0629997253418,-132.93099975585938 C26.986000061035156,-113.22599792480469 -24.466999053955078,-120.9280014038086 -69.86499786376953,-127.7239990234375 C-89.4739990234375,-130.65899658203125 -107.99500274658203,-133.42999267578125 -124.01100158691406,-133.9929962158203 C-160.58299255371094,-135.25599670410156 -184.97799682617188,-118.47200012207031 -195.70599365234375,-109.05000305175781 C-196.64599609375,-108.2249984741211 -197.98899841308594,-109.43599700927734 -197.26499938964844,-110.45600128173828 C-188.2220001220703,-123.20500183105469 -165.42599487304688,-147.46299743652344 -123.58999633789062,-145.98599243164062 C-106.89299774169922,-145.39999389648438 -88.04499816894531,-142.5780029296875 -68.08899688720703,-139.59100341796875 C-25.447999954223633,-133.20899963378906 22.767000198364258,-126.00599670410156 52.323001861572266,-142.3489990234375 C31.579999923706055,-159.92300415039062 11.12399959564209,-171.5970001220703 -5.857999801635742,-179.24899291992188 C-35.893001556396484,-192.781005859375 -73.9489974975586,-197.91200256347656 -87.90499877929688,-199.4149932861328 C-88.63700103759766,-199.4929962158203 -88.63700103759766,-200.55799865722656 -87.90499877929688,-200.63499450683594 C-74.60199737548828,-202.03399658203125 -38.79600143432617,-203.97999572753906 -1.4539999961853027,-190.42599487304688 C17.827999114990234,-183.427001953125 40.53099822998047,-170.36399841308594 63.237998962402344,-150.093994140625 C69.92900085449219,-156.2030029296875 74,-163.3179931640625 75.71600341796875,-171.2790069580078 C79.97100067138672,-191.02000427246094 71.25399780273438,-211.4459991455078 66.48300170898438,-220.62899780273438 C66.0260009765625,-221.50999450683594 67.177001953125,-222.3419952392578 67.86699676513672,-221.62899780273438 C75.74199676513672,-213.4969940185547 91.552001953125,-193.70399475097656 87.52999877929688,-169.1719970703125 C85.80799865722656,-158.6719970703125 80.53199768066406,-149.5290069580078 72.10800170898438,-141.80099487304688 C80.44999694824219,-133.63499450683594 88.72899627685547,-124.47000122070312 96.78099822998047,-114.24199676513672 C106.6500015258789,-116.66600036621094 116.33899688720703,-118.59300231933594 125.81400299072266,-119.99500274658203 C145.5030059814453,-122.91000366210938 158.343994140625,-121.73699951171875 171.177001953125,-120.95800018310547 C185.2530059814453,-120.10299682617188 196.78799438476562,-115.56800079345703 203.42100524902344,-112.31199645996094 C204.65499877929688,-111.70600128173828 204.08599853515625,-109.84400177001953 202.72300720214844,-110.02300262451172 C190.7779998779297,-111.58899688720703 163.76600646972656,-113.64800262451172 126.3499984741211,-107.94100189208984 C119.72000122070312,-106.92900085449219 112.48799896240234,-105.56999969482422 104.6709976196289,-103.76699829101562 C111.3759994506836,-94.46399688720703 117.87699890136719,-84.38999938964844 124.06099700927734,-73.48600006103516 C128.7689971923828,-65.18399810791016 132.82000732421875,-56.79800033569336 136.32400512695312,-48.39099884033203 C155.70899963378906,-54.45399856567383 175.0989990234375,-52.26599884033203 192.552001953125,-41.96699905395508 C205.28399658203125,-34.45399856567383 217.74099731445312,-23.625999450683594 224.60800170898438,-8.57699966430664 C231.34500122070312,6.183000087738037 231.08900451660156,19.628999710083008 229.88800048828125,27.750999450683594 C229.51499938964844,30.267000198364258 229.0540008544922,32.27299880981445 228.67999267578125,33.64799880981445 C228.29800415039062,35.051998138427734 227.83299255371094,34.356998443603516 227.74200439453125,33.66699981689453 C227.41400146484375,31.14900016784668 227.04400634765625,28.736000061035156 226.63400268554688,26.423999786376953 C220.5489959716797,-7.86899995803833 205.59300231933594,-20.34000015258789 186.4530029296875,-31.632999420166016z"></path></g></g></g></svg>