<svg xmlns="http://www.w3.org/2000/svg" xmlns:xlink="http://www.w3.org/1999/xlink" viewBox="0 0 512 512" width="512" height="512" style="width: 100%; height: 100%; transform: translate3d(0,0,0);" preserveAspectRatio="xMidYMid meet"><defs><clipPath id="__lottie_element_52791"><rect width="512" height="512" x="0" y="0"></rect></clipPath></defs><g clip-path="url(#__lottie_element_52791)"><g style="display: block;" transform="matrix(1.0399999618530273,0,0,1.0399999618530273,-6.219818115234375,-1957.9949951171875)" opacity="1"><g opacity="1" transform="matrix(1,0,0,1,256.1310119628906,2129.73193359375)"><path fill="rgb(0,0,0)" fill-opacity="1" d=" M35.97700119018555,170.12399291992188 C38.229000091552734,165.26100158691406 40.58100128173828,159.9340057373047 43.13800048828125,154.70799255371094 C65.84400177001953,108.30699920654297 26.827999114990234,44.98099899291992 -21.047000885009766,35.01100158691406 C-33.459999084472656,32.42599868774414 -46.09400177001953,31.20800018310547 -58.750999450683594,33.637001037597656 C-71.0250015258789,36.500999450683594 -83.33999633789062,40.9630012512207 -92.28700256347656,50.17499923706055 C-96.7239990234375,54.19499969482422 -102.8499984741211,64.86399841308594 -93.61199951171875,63.84400177001953 C-86.78399658203125,62.4370002746582 -80.47899627685547,57.70100021362305 -74.25499725341797,54.48500061035156 C-46.768001556396484,40.81100082397461 -20.861000061035156,45.99700164794922 2.8429999351501465,63.000999450683594 C26.36199951171875,79.87300109863281 36.720001220703125,103.69999694824219 33.284000396728516,132.6219940185547 C31.761999130249023,145.43800354003906 24.66900062561035,156.2259979248047 17.593000411987305,166.82400512695312 C13.638999938964844,172.74600219726562 7.9670000076293945,177.63699340820312 4.714000225067139,185.82899475097656 C9.130999565124512,186.6649932861328 12.164999961853027,187.52999877929688 15.246000289916992,187.7570037841797 C20.555999755859375,188.1479949951172 25.957000732421875,187.6750030517578 31.208999633789062,188.38699340820312 C46.5620002746582,190.4709930419922 56.691001892089844,199.62899780273438 60.31700134277344,214.61000061035156 C61.404998779296875,219.10299682617188 61.742000579833984,223.81300354003906 62.02399826049805,228.447998046875 C62.13399887084961,230.25999450683594 61.14899826049805,232.13900756835938 60.446998596191406,234.80499267578125 C53.82699966430664,234.80499267578125 47.33399963378906,234.80499267578125 40.84000015258789,234.8040008544922 C14.845000267028809,234.802001953125 -11.23799991607666,233.4770050048828 -37.11899948120117,235.18800354003906 C-60.492000579833984,236.73500061035156 -83.6520004272461,234.73899841308594 -106.89099884033203,234.9720001220703 C-140.72799682617188,235.30999755859375 -167.53199768066406,220.5780029296875 -189.71200561523438,197.04800415039062 C-217.3769989013672,167.69700622558594 -230.77499389648438,132.43099975585938 -230.1959991455078,91.62999725341797 C-229.79100036621094,58.86199951171875 -225.3179931640625,28.591999053955078 -206.88900756835938,0.7260000109672546 C-190.8560028076172,-24.922000885009766 -166.38699340820312,-43.834999084472656 -144.51699829101562,-64.33699798583984 C-131.19500732421875,-78.11299896240234 -118.94400024414062,-93.9010009765625 -111.16699981689453,-111.40699768066406 C-105.59600067138672,-124.4540023803711 -103.88500213623047,-139.10000610351562 -106.79199981689453,-153.08900451660156 C-109.96800231933594,-171.3769989013672 -125.22200012207031,-189.38299560546875 -144.75900268554688,-187.8800048828125 C-160.8489990234375,-187.27999877929688 -168.94500732421875,-170.29200744628906 -183.2989959716797,-165.36199951171875 C-203.36599731445312,-158.9010009765625 -214.27699279785156,-184.04400634765625 -207.10899353027344,-200.36500549316406 C-199.49600219726562,-218.20599365234375 -180.6750030517578,-229.125 -162.17799377441406,-233.15899658203125 C-144.04200744628906,-237.21099853515625 -125.78199768066406,-231.67999267578125 -109.84500122070312,-222.68800354003906 C-99.62300109863281,-217.10499572753906 -89.50900268554688,-210.6580047607422 -81.94499969482422,-201.7449951171875 C-63.88999938964844,-179.7270050048828 -57.64500045776367,-150.24200439453125 -58.57099914550781,-122.42500305175781 C-58.75299835205078,-93.52300262451172 -72.68599700927734,-75.7239990234375 -91.4520034790039,-55.47800064086914 C-110.53399658203125,-35.36800003051758 -132.33099365234375,-17.636999130249023 -149.48800659179688,4.249000072479248 C-170.53799438476562,33.41699981689453 -178.83200073242188,82.6729965209961 -171.81199645996094,117.82599639892578 C-168.43800354003906,133.468994140625 -160.72500610351562,147.05799865722656 -148.66900634765625,157.77699279785156 C-144.56900024414062,161.51600646972656 -133.93600463867188,168.8820037841797 -134.3699951171875,159.33099365234375 C-135.4510040283203,150.9029998779297 -139.8249969482422,142.1840057373047 -140.9029998779297,133.6439971923828 C-142.41099548339844,125.02999877929688 -142.76400756835938,116.27200317382812 -142.44900512695312,107.53399658203125 C-140.91299438476562,65.10099792480469 -128.8070068359375,33.96200180053711 -96.85199737548828,5.486999988555908 C-78.38600158691406,-10.062999725341797 -57.87200164794922,-22.381999969482422 -37.16299819946289,-34.49100112915039 C-21.065000534057617,-43.90399932861328 -4.72599983215332,-52.895999908447266 9.760000228881836,-64.8550033569336 C27.31800079345703,-79.35099792480469 43.334999084472656,-95.23999786376953 56.46200180053711,-113.91699981689453 C70.25299835205078,-133.53700256347656 84.54100036621094,-152.83299255371094 97.64600372314453,-172.89999389648438 C104.51200103759766,-183.41299438476562 109.25900268554688,-195.30299377441406 115.07499694824219,-206.51199340820312 C116.8550033569336,-209.94400024414062 119.00800323486328,-213.18299865722656 120.67900085449219,-215.98599243164062 C126.75499725341797,-216.59800720214844 128.63099670410156,-212.85699462890625 130.427001953125,-209.36500549316406 C134.68499755859375,-201.0800018310547 138.70899963378906,-192.67300415039062 142.8699951171875,-184.33799743652344 C147.61099243164062,-174.84300231933594 154.8769989013672,-168.5709991455078 165.51600646972656,-166.4739990234375 C168.77099609375,-165.83200073242188 172.08299255371094,-165.06900024414062 175.11399841308594,-163.76699829101562 C185.19000244140625,-159.43800354003906 193.85299682617188,-153.3350067138672 197.6580047607422,-142.45799255371094 C201.80499267578125,-130.6009979248047 209.97500610351562,-122.25700378417969 219.64700317382812,-114.72599792480469 C229.90199279785156,-106.73899841308594 230.77499389648438,-102.5459976196289 225.1320037841797,-90.73100280761719 C221.4149932861328,-82.947998046875 217.0070037841797,-75.45700073242188 212.43299865722656,-68.13099670410156 C206.79200744628906,-59.09700012207031 198.73800659179688,-53.88999938964844 187.6529998779297,-53.939998626708984 C182.33299255371094,-53.9640007019043 177.00999450683594,-53.38999938964844 171.69000244140625,-53.055999755859375 C153.3040008544922,-51.900001525878906 135.80599975585938,-54.37099838256836 120.2040023803711,-65.18099975585938 C118.25800323486328,-66.52899932861328 116.03299713134766,-68.64099884033203 112.05000305175781,-66.06900024414062 C115.58999633789062,-57.94599914550781 122.56600189208984,-53.266998291015625 129.89300537109375,-49.361000061035156 C136.3300018310547,-45.92900085449219 143.218994140625,-43.28499984741211 150.0540008544922,-40.67300033569336 C158.58999633789062,-37.4119987487793 162.28799438476562,-31.215999603271484 162.8939971923828,-22.354000091552734 C164.69000244140625,3.9000000953674316 158.93600463867188,27.92799949645996 142.56100463867188,48.959999084472656 C138.4669952392578,54.21799850463867 134.57400512695312,59.66400146484375 130.12600708007812,64.60700225830078 C110.82099914550781,86.06400299072266 105.33799743652344,111.15599822998047 110.4280014038086,138.95399475097656 C113.06600189208984,153.36000061035156 116.14399719238281,167.6909942626953 119.30899810791016,181.9929962158203 C121.20500183105469,190.56100463867188 125.10700225830078,198.25399780273438 130.80099487304688,205.0279998779297 C135.6219940185547,210.76400756835938 138.73699951171875,217.2969970703125 139.41700744628906,224.88099670410156 C139.97999572753906,231.1649932861328 136.89500427246094,236.07699584960938 131.09100341796875,236.27499389648438 C119.11299896240234,236.6840057373047 107.0479965209961,237.21200561523438 95.14199829101562,236.218994140625 C86.64700317382812,235.50999450683594 80.63500213623047,229.90699768066406 78.72699737548828,221.05799865722656 C77.46299743652344,215.197998046875 76.51000213623047,209.27200317382812 75.31800079345703,203.39599609375 C71.00800323486328,182.1439971923828 65.33999633789062,176.81100463867188 44.025001525878906,173.7220001220703 C42.09199905395508,173.44200134277344 40.18899917602539,172.88099670410156 38.316001892089844,172.30799865722656 C37.77799987792969,172.14300537109375 37.393001556396484,171.47799682617188 35.97700119018555,170.12399291992188z M180.88400268554688,-116.17900085449219 C184.75,-122.125 183.93699645996094,-131.5290069580078 181.7310028076172,-136.5070037841797 C180.80999755859375,-138.58599853515625 176.875,-137.22300720214844 174.8780059814453,-135.6649932861328 C171.33799743652344,-132.9029998779297 168.6020050048828,-126.00599670410156 170.95599365234375,-122.95500183105469 C173.09800720214844,-120.18000030517578 177.9149932861328,-118.53399658203125 180.88400268554688,-116.17900085449219z"></path></g></g></g></svg>