<svg xmlns="http://www.w3.org/2000/svg" xmlns:xlink="http://www.w3.org/1999/xlink" viewBox="0 0 512 512" width="512" height="512" style="width: 100%; height: 100%; transform: translate3d(0,0,0);" preserveAspectRatio="xMidYMid meet"><defs><clipPath id="__lottie_element_52085"><rect width="512" height="512" x="0" y="0"></rect></clipPath></defs><g clip-path="url(#__lottie_element_52085)"><g style="display: block;" transform="matrix(2.962939977645874,0,0,2.962939977645874,2.8374481201171875,2.8374481201171875)" opacity="1"><g opacity="1" transform="matrix(1,0,0,1,86.55699920654297,84.38600158691406)"><path fill="rgb(0,0,0)" fill-opacity="1" d=" M1.1460000276565552,24.100000381469727 C0.4300000071525574,10.180000305175781 -7.017000198364258,-0.29100000858306885 -16.43199920654297,-10.57699966430664 C-17.54199981689453,-8.569000244140625 -18.482999801635742,-5.984000205993652 -19.18000030517578,-4.366000175476074 C-27.1299991607666,14.083999633789062 -51.58000183105469,68.94200134277344 -56.595001220703125,77.49400329589844 C-59.334999084472656,82.16699981689453 -64.28299713134766,84.38600158691406 -70.0009994506836,83.08499908447266 C-75.89800262451172,81.74299621582031 -79.81999969482422,77.88999938964844 -81.2030029296875,72.15799713134766 C-81.88099670410156,69.35099792480469 -81.82499694824219,65.76399993896484 -80.6449966430664,63.20199966430664 C-67.2030029296875,34.02799987792969 -53.47999954223633,4.985000133514404 -39.83100128173828,-24.093000411987305 C-38.965999603271484,-25.93600082397461 -38.09299850463867,-27.775999069213867 -36.72100067138672,-30.68000030517578 C-40.266998291015625,-29.996999740600586 -51.99599838256836,-29.652000427246094 -51.99599838256836,-29.652000427246094 C-51.99599838256836,-29.652000427246094 -51.24800109863281,-41.45899963378906 -51.46900177001953,-44.40800094604492 C-52.17399978637695,-53.805999755859375 -58.845001220703125,-59.540000915527344 -60.28499984741211,-61.292999267578125 C-63.43299865722656,-65.12699890136719 -70.40399932861328,-70.35700225830078 -70.6240005493164,-71.00900268554688 C-68.23400115966797,-74.6050033569336 -61.08700180053711,-78.85199737548828 -53.35200119018555,-74.27400207519531 C-43.965999603271484,-67.2490005493164 -25.025999069213867,-65.60099792480469 -25.025999069213867,-65.60099792480469 C-8.678000450134277,-86.60700225830078 10.574999809265137,-72.97000122070312 9.593999862670898,-57.994998931884766 C9.593999862670898,-57.994998931884766 12.446000099182129,-56.301998138427734 19.04199981689453,-55.5890007019043 C37.41899871826172,-53.60200119018555 50.941001892089844,-54.051998138427734 68.37799835205078,-61.111000061035156 C75.85299682617188,-64.13700103759766 78.89399719238281,-66.552001953125 80.08799743652344,-53.13399887084961 C81.88200378417969,-23.624000549316406 48.65700149536133,33.76499938964844 5.868000030517578,44.98899841308594 C4.817999839782715,45.263999938964844 3.74399995803833,44.64699935913086 3.4179999828338623,43.61199951171875 C2.4130001068115234,40.41999816894531 0.6110000014305115,33.935001373291016 1.652999997138977,31.382999420166016 C2.0480000972747803,30.41699981689453 16.10099983215332,31.31399917602539 31.165000915527344,12.557999610900879 C38.95000076293945,3.119999885559082 45.45800018310547,-7.113999843597412 51.03499984741211,-19.159000396728516 C44.38999938964844,-17.37700080871582 36.95800018310547,-13.96399974822998 36.95800018310547,-13.96399974822998 C36.95800018310547,-13.96399974822998 27.22599983215332,6.577000141143799 21.448999404907227,13.041999816894531 C13.069999694824219,22.93600082397461 1.9199999570846558,24.461000442504883 1.1460000276565552,24.100000381469727z"></path></g></g></g></svg>