<svg xmlns="http://www.w3.org/2000/svg" xmlns:xlink="http://www.w3.org/1999/xlink" viewBox="0 0 512 512" width="512" height="512" style="width: 100%; height: 100%; transform: translate3d(0,0,0);" preserveAspectRatio="xMidYMid meet"><defs><clipPath id="__lottie_element_51675"><rect width="512" height="512" x="0" y="0"></rect></clipPath></defs><g clip-path="url(#__lottie_element_51675)"><g style="display: block;" transform="matrix(1,0,0,1,10.605010986328125,17.117996215820312)" opacity="1"><g opacity="1" transform="matrix(1,0,0,1,245.86199951171875,247.5659942626953)"><path fill="rgb(0,0,0)" fill-opacity="1" d=" M-201.46800231933594,14.315999984741211 C-211.1649932861328,3.869999885559082 -197.46800231933594,-88.68399810791016 -144.46800231933594,-166.6840057373047 C-99.25399780273438,-233.22500610351562 -22.284000396728516,-247.31700134277344 -17.468000411987305,-237.6840057373047 C-14.968000411987305,-232.6840057373047 -57.46799850463867,-208.6840057373047 -74.46800231933594,-161.6840057373047 C-79.33799743652344,-148.22000122070312 -57.42499923706055,-145.3979949951172 -51.46799850463867,-158.6840057373047 C-41.933998107910156,-179.94900512695312 3.5320000648498535,-231.6840057373047 17.531999588012695,-231.6840057373047 C32.53200149536133,-231.6840057373047 60.55400085449219,-197.6540069580078 84.53199768066406,-165.6840057373047 C93.53199768066406,-153.6840057373047 112.33000183105469,-159.40899658203125 105.53199768066406,-173.6840057373047 C85.53199768066406,-215.6840057373047 43.80500030517578,-236.90699768066406 47.53200149536133,-241.6840057373047 C51.638999938964844,-246.94900512695312 154.13299560546875,-225.79600524902344 192.53199768066406,-125.68399810791016 C220.53199768066406,-52.683998107910156 218.53199768066406,19.31599998474121 217.53199768066406,43.316001892089844 C217.052001953125,54.85200119018555 229.17799377441406,47.30799865722656 235.53199768066406,56.316001892089844 C245.61099243164062,70.60199737548828 245.58099365234375,171.37899780273438 220.53199768066406,205.3159942626953 C189.53199768066406,247.3159942626953 -19.67300033569336,228.11599731445312 -78.26100158691406,215.9340057373047 C-100.46800231933594,211.31700134277344 -97.9520034790039,187.19700622558594 -82.46800231933594,188.3159942626953 C0.5669999718666077,194.3159942626953 149.13499450683594,193.14999389648438 152.53199768066406,184.3159942626953 C157.53199768066406,171.3159942626953 93.4280014038086,159.69400024414062 9.531999588012695,162.3159942626953 C-86.46800231933594,165.3159942626953 -179.17300415039062,194.031005859375 -201.46800231933594,192.3159942626953 C-227.46800231933594,190.3159942626953 -223.08099365234375,147.56300354003906 -225.46800231933594,129.3159942626953 C-227.9600067138672,110.26599884033203 -245.61199951171875,104.99800109863281 -239.83900451660156,79.36599731445312 C-229.46800231933594,33.31700134277344 -48.926998138427734,11.87600040435791 -7.4679999351501465,9.315999984741211 C73.53199768066406,4.315999984741211 159.53199768066406,22.31599998474121 163.53199768066406,11.315999984741211 C167.66099548339844,-0.039000000804662704 81.10199737548828,-17.527999877929688 -16.468000411987305,-16.68400001525879 C-94.53500366210938,-16.009000778198242 -193.0760040283203,23.356000900268555 -201.46800231933594,14.315999984741211z"></path></g></g></g></svg>