<svg xmlns="http://www.w3.org/2000/svg" xmlns:xlink="http://www.w3.org/1999/xlink" viewBox="0 0 512 512" width="512" height="512" style="width: 100%; height: 100%; transform: translate3d(0,0,0);" preserveAspectRatio="xMidYMid meet"><defs><clipPath id="__lottie_element_51805"><rect width="512" height="512" x="0" y="0"></rect></clipPath></defs><g clip-path="url(#__lottie_element_51805)"><g style="display: block;" transform="matrix(1.0299999713897705,0,0,1.0299999713897705,8.6925048828125,5.24383544921875)" opacity="1"><g opacity="1" transform="matrix(1,0,0,1,235.25,249.75)"><path fill="rgb(0,0,0)" fill-opacity="1" d=" M235,-90.5 C235,-117.5 217,-111.5 219,-119.5 C220.66000366210938,-126.1500015258789 228,-130.5 217,-151.5 C203.72999572753906,-176.83999633789062 180.3699951171875,-158.2899932861328 178,-166.5 C176.3699951171875,-172.14999389648438 180.72999572753906,-176.16000366210938 167,-187.5 C144,-206.5 131.19000244140625,-198.38999938964844 125,-204.5 C118.76000213623047,-210.64999389648438 125,-218.5 102,-229.5 C77.79000091552734,-241.0800018310547 74.05000305175781,-233.19000244140625 64,-234.5 C53.04999923706055,-235.92999267578125 48,-249.5 18,-249.5 C-11,-249.5 -14.75,-232.5399932861328 -25,-229.5 C-37.900001525878906,-225.6699981689453 -45,-233.5 -65,-219.5 C-95.66999816894531,-198.02999877929688 -94.0999984741211,-175.58999633789062 -101,-168.5 C-108.76000213623047,-160.52000427246094 -118,-165.5 -133,-142.5 C-151.47999572753906,-114.16000366210938 -144.69000244140625,-85.66000366210938 -147,-79.5 C-150,-71.5 -161,-79.5 -170,-61.5 C-181.2100067138672,-39.09000015258789 -167,-28.5 -175,-22.5 C-180.67999267578125,-18.239999771118164 -209,-11.5 -209,35.5 C-209,106.61000061035156 -147.6999969482422,99.08999633789062 -142,106.5 C-137.11000061035156,112.8499984741211 -127.66999816894531,130.07000732421875 -115,140.5 C-87.23999786376953,163.33999633789062 -60.72999954223633,159.44000244140625 -60,167.5 C-58.779998779296875,181.02999877929688 -117.47599792480469,203.41099548339844 -148.20399475097656,188.58700561523438 C-165.75100708007812,180.1219940185547 -184.46600341796875,163.6060028076172 -185.3520050048828,139.61300659179688 C-185.9250030517578,124.0989990234375 -195.94200134277344,116.41300201416016 -204.94200134277344,128.41299438476562 C-218.94200134277344,147.08299255371094 -203.88299560546875,212.1490020751953 -165,228.5 C-108.88099670410156,252.0989990234375 -45,226.5 -7,197.5 C0.18000000715255737,192.02000427246094 13,211.5 35,203.5 C53.5099983215332,196.77000427246094 48.29999923706055,181.77000427246094 55,177.5 C60.349998474121094,174.08999633789062 66,187.5 86,170.5 C106.12000274658203,153.39999389648438 99.62999725341797,142.16000366210938 105,135.5 C109.87000274658203,129.4600067138672 120,137.5 138,109.5 C153,86.16999816894531 140.47000122070312,70.16000366210938 145,65.5 C149.77999877929688,60.56999969482422 158,73.5 175,51.5 C191.27999877929688,30.43000030517578 185.0800018310547,20.8700008392334 189,12.5 C191.7100067138672,6.710000038146973 212,1.5 223,-27.5 C233.16000366210938,-54.27000045776367 218.11000061035156,-55.220001220703125 222,-65.5 C224.5800018310547,-72.30000305175781 235,-72.5 235,-90.5z M143,-89.5 C138.0500030517578,-73.26000213623047 128.3300018310547,-68.08999633789062 125,-59.5 C122.62999725341797,-53.380001068115234 136.8800048828125,-36.56999969482422 134,-21.5 C127,15.15999984741211 93,20.18000030517578 68,19.5 C52.119998931884766,19.06999969482422 44,-0.5 60,-5.5 C75.26000213623047,-10.270000457763672 96.72000122070312,-6.670000076293945 103,-25.5 C109,-43.5 83,-36.5 83,-57.5 C83,-73.70999908447266 110.22000122070312,-66.68000030517578 113,-87.5 C115,-102.5 106.94999694824219,-100 95,-104.5 C87.58000183105469,-107.29000091552734 92,-126.38999938964844 103,-125.5 C118.86000061035156,-124.20999908447266 148.47999572753906,-107.44999694824219 143,-89.5z"></path></g></g></g></svg>