<svg xmlns="http://www.w3.org/2000/svg" xmlns:xlink="http://www.w3.org/1999/xlink" viewBox="0 0 512 512" width="512" height="512" style="width: 100%; height: 100%; transform: translate3d(0,0,0);" preserveAspectRatio="xMidYMid meet"><defs><clipPath id="__lottie_element_52558"><rect width="512" height="512" x="0" y="0"></rect></clipPath></defs><g clip-path="url(#__lottie_element_52558)"><g style="display: block;" transform="matrix(1,0,0,1,0,0)" opacity="1"><g opacity="1" transform="matrix(1,0,0,1,248.4409942626953,255.81900024414062)"><path fill="rgb(4,5,52)" fill-opacity="1" d=" M180.70399475097656,136.77000427246094 C159.81399536132812,149.75999450683594 83.01399993896484,92.7300033569336 93.74400329589844,4.070000171661377 C93.74400329589844,4.070000171661377 82.44400024414062,29.479999542236328 90.91400146484375,61.66999816894531 C77.93399810791016,89.9000015258789 12.423999786376953,110.2300033569336 12.423999786376953,110.2300033569336 C56.05400085449219,111.33999633789062 80.64399719238281,97.76000213623047 90.65399932861328,90.44000244140625 C89.59400177001953,105.63999938964844 86.84400177001953,124.97000122070312 80.2239990234375,143.58999633789062 C60.944000244140625,163.72999572753906 24.323999404907227,178.66000366210938 23.18400001525879,179.1199951171875 C46.38399887084961,175.88999938964844 62.04399871826172,168.99000549316406 71.21399688720703,163.66000366210938 C57.933998107910156,187.3699951171875 36.013999938964844,206.47000122070312 0.004000000189989805,208.82000732421875 C-36.0260009765625,206.47000122070312 -57.93600082397461,187.3699951171875 -71.20600128173828,163.66000366210938 C-62.0359992980957,169 -46.38600158691406,175.88999938964844 -23.18600082397461,179.1199951171875 C-24.326000213623047,178.66000366210938 -60.93600082397461,163.74000549316406 -80.21600341796875,143.60000610351562 C-86.81600189208984,125.04000091552734 -89.56600189208984,105.77999877929688 -90.63600158691406,90.5999984741211 C-80.98600006103516,97.80999755859375 -57.72600173950195,110.83999633789062 -15.956000328063965,110.2300033569336 C-15.956000328063965,110.2300033569336 -77.9260025024414,89.9000015258789 -90.91600036621094,61.66999816894531 C-82.44599914550781,29.479999542236328 -93.73600006103516,4.070000171661377 -93.73600006103516,4.070000171661377 C-83.01599884033203,92.7300033569336 -159.8159942626953,149.75999450683594 -180.70599365234375,136.77000427246094 C-201.5959930419922,123.79000091552734 -213.45599365234375,78.05000305175781 -199.906005859375,47.54999923706055 C-186.3560028076172,17.059999465942383 -140.61599731445312,-17.950000762939453 -128.18600463867188,-59.18000030517578 C-115.76599884033203,-100.4000015258789 -97.69599914550781,-118.47000122070312 -97.69599914550781,-118.47000122070312 C-69.97100067138672,-71.60099792480469 -7.046000003814697,-54.847999572753906 -5.665999889373779,-54.847999572753906 C-79.6259994506836,-64.39800262451172 -82.44599914550781,-121.86000061035156 -82.44599914550781,-121.86000061035156 C-85.83599853515625,-129.1999969482422 -80.75599670410156,-208.82000732421875 0.004000000189989805,-208.82000732421875 C80.75399780273438,-208.82000732421875 85.83399963378906,-136.5399932861328 82.44400024414062,-121.86000061035156 C82.44400024414062,-121.86000061035156 79.6240005493164,-64.39800262451172 5.664000034332275,-54.847999572753906 C7.044000148773193,-54.847999572753906 79.05899810791016,-67.08300018310547 97.69400024414062,-118.47000122070312 C97.69400024414062,-118.47000122070312 115.76399993896484,-100.4000015258789 128.1840057373047,-59.18000030517578 C140.61399841308594,-17.950000762939453 186.35400390625,17.059999465942383 199.9040069580078,47.54999923706055 C213.45399475097656,78.05000305175781 201.60400390625,123.79000091552734 180.70399475097656,136.77000427246094z"></path></g><g opacity="1" transform="matrix(1,0,0,1,168.94400024414062,40.737998962402344)"><path fill="rgb(4,5,52)" fill-opacity="1" d=" M37.70899963378906,23.76300048828125 C38.154998779296875,9.043999671936035 3.8259999752044678,-29.319000244140625 -16.503000259399414,-25.930999755859375 C-36.832000732421875,-22.542999267578125 -40.220001220703125,-2.7780001163482666 -36.266998291015625,4.563000202178955 C-32.31399917602539,11.904000282287598 -9.161999702453613,13.032999992370605 -5.209000110626221,-12.942999839782715 C-5.209000110626221,-12.942999839782715 -1.6790000200271606,-3.7669999599456787 -8.878999710083008,4.28000020980835 C-8.878999710083008,4.28000020980835 11.87399959564209,7.386000156402588 20.202999114990234,16.844999313354492 C28.531999588012695,26.304000854492188 37.56800079345703,28.422000885009766 37.70899963378906,23.76300048828125z"></path></g><g opacity="1" transform="matrix(1,0,0,1,320.6610107421875,40.737998962402344)"><path fill="rgb(4,5,52)" fill-opacity="1" d=" M-37.70899963378906,23.76300048828125 C-38.154998779296875,9.043999671936035 -3.8259999752044678,-29.319000244140625 16.503000259399414,-25.930999755859375 C36.832000732421875,-22.542999267578125 40.220001220703125,-2.7780001163482666 36.266998291015625,4.563000202178955 C32.31399917602539,11.904000282287598 9.161999702453613,13.032999992370605 5.209000110626221,-12.942999839782715 C5.209000110626221,-12.942999839782715 1.6790000200271606,-3.7669999599456787 8.878999710083008,4.28000020980835 C8.878999710083008,4.28000020980835 -11.87399959564209,7.386000156402588 -20.202999114990234,16.844999313354492 C-28.531999588012695,26.304000854492188 -37.56800079345703,28.422000885009766 -37.70899963378906,23.76300048828125z"></path></g><g opacity="1" transform="matrix(1,0,0,1,178.47000122070312,96.17900085449219)"><path fill="rgb(4,5,52)" fill-opacity="1" d=" M28.183000564575195,-31.679000854492188 C18.207000732421875,-41.27899932861328 -12.288000106811523,-40.527000427246094 -22.82900047302246,-16.055999755859375 C-33.369998931884766,8.414999961853027 -28.851999282836914,37.77899932861328 -4.757999897003174,37.40299987792969 C19.336000442504883,37.027000427246094 28.183000564575195,-31.679000854492188 28.183000564575195,-31.679000854492188z"></path></g><g opacity="1" transform="matrix(1,0,0,1,318.4200134277344,96.17900085449219)"><path fill="rgb(4,5,52)" fill-opacity="1" d=" M-28.183000564575195,-31.679000854492188 C-18.207000732421875,-41.27899932861328 12.288000106811523,-40.527000427246094 22.82900047302246,-16.055999755859375 C33.369998931884766,8.414999961853027 28.851999282836914,37.77899932861328 4.757999897003174,37.40299987792969 C-19.336000442504883,37.027000427246094 -28.183000564575195,-31.679000854492188 -28.183000564575195,-31.679000854492188z"></path></g><g opacity="1" transform="matrix(1,0,0,1,154.7050018310547,259.8890075683594)"><path fill="rgb(4,5,52)" fill-opacity="1" d=" M0,0"></path></g></g></g></svg>