<svg xmlns="http://www.w3.org/2000/svg" xmlns:xlink="http://www.w3.org/1999/xlink" viewBox="0 0 512 512" width="512" height="512" style="width: 100%; height: 100%; transform: translate3d(0,0,0);" preserveAspectRatio="xMidYMid meet"><defs><clipPath id="__lottie_element_52771"><rect width="512" height="512" x="0" y="0"></rect></clipPath></defs><g clip-path="url(#__lottie_element_52771)"><g style="display: block;" transform="matrix(1,0,0,1,255.9949951171875,245.781005859375)" opacity="1"><g opacity="1" transform="matrix(1,0,0,1,0,0)"><path fill="rgb(4,5,52)" fill-opacity="1" d=" M218.75,110.66799926757812 C192.77999877929688,107.8479995727539 200.80999755859375,74.72799682617188 197.63999938964844,70.39800262451172 C194.47000122070312,66.05799865722656 161.72000122070312,61.53799819946289 145.91000366210938,41.21799850463867 C131.05999755859375,22.128000259399414 121.19999694824219,8.517999649047852 113.97000122070312,7.857999801635742 C116.63999938964844,22.148000717163086 118.33999633789062,37.737998962402344 118.72000122070312,54.72800064086914 C147.42999267578125,60.54800033569336 152.75999450683594,99.62799835205078 154.94000244140625,121.39800262451172 C157.1999969482422,143.98800659179688 180.9199981689453,168.26800537109375 189.38999938964844,179.5679931640625 C197.86000061035156,190.85800170898438 182.61000061035156,238.29800415039062 155.50999450683594,229.8280029296875 C128.39999389648438,221.35800170898438 146.6300048828125,194.1179962158203 145.99000549316406,189.66799926757812 C145.33999633789062,185.20799255371094 127.2699966430664,169.76800537109375 122.19000244140625,148.68800354003906 C118,131.3280029296875 117.45999908447266,121.00800323486328 112.5,115.6780014038086 C101.20999908447266,161.22799682617188 76.45999908447266,191.83799743652344 52.849998474121094,211.1479949951172 C45.21099853515625,217.4010009765625 37.69200134277344,222.47000122070312 30.78499984741211,226.47799682617188 C20.72100067138672,232.3179931640625 8.133000373840332,224.9499969482422 8.229000091552734,213.31500244140625 C8.836000442504883,139.67799377441406 4.915999889373779,-57.61199951171875 0,-57.61199951171875 C-7.625999927520752,-57.61199951171875 -11.9399995803833,136.59100341796875 -9.682999610900879,212.14700317382812 C-9.32699966430664,224.0500030517578 -22.256999969482422,231.5850067138672 -32.481998443603516,225.4810028076172 C-60.5629997253418,208.7169952392578 -97.84600067138672,174.76300048828125 -112.5,115.6780014038086 C-117.45999908447266,121.00800323486328 -118,131.3280029296875 -122.19000244140625,148.68800354003906 C-127.2699966430664,169.76800537109375 -145.33999633789062,185.20799255371094 -145.99000549316406,189.66799926757812 C-146.6300048828125,194.1179962158203 -128.39999389648438,221.35800170898438 -155.50999450683594,229.8280029296875 C-182.61000061035156,238.29800415039062 -197.86000061035156,190.85800170898438 -189.38999938964844,179.5679931640625 C-180.9199981689453,168.26800537109375 -157.1999969482422,143.98800659179688 -154.94000244140625,121.39800262451172 C-152.75999450683594,99.62799835205078 -147.42999267578125,60.54800033569336 -118.72000122070312,54.72800064086914 C-118.33999633789062,37.737998962402344 -116.63999938964844,22.148000717163086 -113.97000122070312,7.857999801635742 C-121.19999694824219,8.517999649047852 -131.05999755859375,22.128000259399414 -145.91000366210938,41.21799850463867 C-161.72000122070312,61.53799819946289 -194.47000122070312,66.05799865722656 -197.63999938964844,70.39800262451172 C-200.80999755859375,74.72799682617188 -192.77999877929688,107.8479995727539 -218.75,110.66799926757812 C-244.72999572753906,113.49800109863281 -244.72999572753906,60.417999267578125 -234,48.55799865722656 C-223.27000427246094,36.698001861572266 -181.47999572753906,30.488000869750977 -165.6699981689453,8.458000183105469 C-149.86000061035156,-13.562000274658203 -131.7899932861328,-49.141998291015625 -98.25,-44.20199966430664 C-95.19999694824219,-51.231998443603516 -91.95999908447266,-57.731998443603516 -88.62000274658203,-63.731998443603516 C-127.12000274658203,-71.802001953125 -130.1199951171875,-129.33200073242188 -148.72999572753906,-135.54200744628906 C-169.05999755859375,-142.31199645996094 -182.0500030517578,-129.89199829101562 -196.72999572753906,-141.7519989013672 C-211.41000366210938,-153.61199951171875 -199.30999755859375,-206.98199462890625 -172.4499969482422,-201.61199951171875 C-155.50999450683594,-198.2220001220703 -165.11000061035156,-173.94200134277344 -142.58999633789062,-167.73199462890625 C-120.06999969482422,-161.51199340820312 -107.51000213623047,-148.46200561523438 -101.86000061035156,-128.20199584960938 C-96.20999908447266,-107.93199920654297 -70.80000305175781,-97.7020034790039 -55.2400016784668,-108.11199951171875 C-55.22999954223633,-108.11199951171875 -55.22999954223633,-108.11199951171875 -55.22999954223633,-108.11199951171875 C-45.189998626708984,-118.00199890136719 -38.04999923706055,-122.552001953125 -38.04999923706055,-122.552001953125 C-38.04999923706055,-122.552001953125 -65.72000122070312,-126.50199890136719 -72.48999786376953,-144.01199340820312 C-79.2699966430664,-161.51199340820312 -76.44999694824219,-181.8419952392578 -80.97000122070312,-185.23199462890625 C-85.4800033569336,-188.6219940185547 -108.54000091552734,-196.4320068359375 -109.19999694824219,-208.9219970703125 C-110.33000183105469,-230.41200256347656 -62.88999938964844,-234.64199829101562 -49.34000015258789,-227.8719940185547 C-35.790000915527344,-221.0919952392578 -44.2599983215332,-185.51199340820312 -45.11000061035156,-176.20199584960938 C-45.95000076293945,-166.8820037841797 -16.31999969482422,-173.3719940185547 0,-173.3719940185547 C16.31999969482422,-173.3719940185547 45.95000076293945,-166.8820037841797 45.11000061035156,-176.20199584960938 C44.2599983215332,-185.51199340820312 35.790000915527344,-221.0919952392578 49.34000015258789,-227.8719940185547 C62.88999938964844,-234.64199829101562 110.33000183105469,-230.41200256347656 109.19999694824219,-208.9219970703125 C108.54000091552734,-196.4320068359375 85.4800033569336,-188.6219940185547 80.97000122070312,-185.23199462890625 C76.44999694824219,-181.8419952392578 79.2699966430664,-161.51199340820312 72.48999786376953,-144.01199340820312 C65.72000122070312,-126.50199890136719 38.04999923706055,-122.552001953125 38.04999923706055,-122.552001953125 C38.04999923706055,-122.552001953125 45.189998626708984,-118.00199890136719 55.22999954223633,-108.11199951171875 C55.22999954223633,-108.11199951171875 55.22999954223633,-108.11199951171875 55.2400016784668,-108.11199951171875 C70.80000305175781,-97.7020034790039 96.20999908447266,-107.93199920654297 101.86000061035156,-128.20199584960938 C107.51000213623047,-148.46200561523438 120.06999969482422,-161.51199340820312 142.58999633789062,-167.73199462890625 C165.11000061035156,-173.94200134277344 155.50999450683594,-198.2220001220703 172.4499969482422,-201.61199951171875 C199.30999755859375,-206.98199462890625 211.41000366210938,-153.61199951171875 196.72999572753906,-141.7519989013672 C182.0500030517578,-129.89199829101562 169.05999755859375,-142.31199645996094 148.72999572753906,-135.54200744628906 C130.1199951171875,-129.33200073242188 127.12000274658203,-71.802001953125 88.62000274658203,-63.731998443603516 C91.95999908447266,-57.731998443603516 95.19999694824219,-51.231998443603516 98.25,-44.20199966430664 C131.7899932861328,-49.141998291015625 149.86000061035156,-13.562000274658203 165.6699981689453,8.458000183105469 C181.47999572753906,30.488000869750977 223.27000427246094,36.698001861572266 234,48.55799865722656 C244.72999572753906,60.417999267578125 244.72999572753906,113.49800109863281 218.75,110.66799926757812z"></path></g></g></g></svg>