<svg xmlns="http://www.w3.org/2000/svg" xmlns:xlink="http://www.w3.org/1999/xlink" viewBox="0 0 512 512" width="512" height="512" style="width: 100%; height: 100%; transform: translate3d(0,0,0);" preserveAspectRatio="xMidYMid meet"><defs><clipPath id="__lottie_element_52250"><rect width="512" height="512" x="0" y="0"></rect></clipPath></defs><g clip-path="url(#__lottie_element_52250)"><g style="display: block;" transform="matrix(1,0,0,1,264.2200012207031,88.47000122070312)" opacity="1"><g opacity="1" transform="matrix(1,0,0,1,0,0)"><path fill="rgb(0,0,0)" fill-opacity="1" d=" M57.16400146484375,48.83399963378906 C54.630001068115234,62.77299880981445 35.444000244140625,57.444000244140625 18.643999099731445,68.09400177001953 C-12.781999588012695,88.01499938964844 -39.757999420166016,74.30699920654297 -39.757999420166016,74.30699920654297 C-39.757999420166016,74.30699920654297 -59.63999938964844,70.5790023803711 -57.154998779296875,57.53200149536133 C-54.66999816894531,44.48500061035156 -38.51599884033203,44.48500061035156 -34.78799819946289,30.19499969482422 C-31.059999465942383,15.904999732971191 -36.652000427246094,-20.1299991607666 -34.16699981689453,-39.38999938964844 C-31.68199920654297,-58.650001525878906 2.0810000896453857,-87.59500122070312 28.797000885009766,-76.41200256347656 C28.797000885009766,-76.41200256347656 57.14699935913086,-51.84199905395508 40.137001037597656,-42.391998291015625 C26.290000915527344,-34.69900131225586 8.008000373840332,-23.492000579833984 11.788000106811523,21.867000579833984 C12.701000213623047,32.82099914550781 60.891998291015625,28.33099937438965 57.16400146484375,48.83399963378906z"></path></g></g><g style="display: block;" transform="matrix(1,0,0,1,265.531005859375,307.4010009765625)" opacity="1"><g opacity="1" transform="matrix(1,0,0,1,0,0)"><path fill="rgb(0,0,0)" fill-opacity="1" d=" M-61.34,-19.4 C-89.69,-17.51 -91.58,-85.55 -53.78,-83.67 C-15.98,-81.78 -33,-21.3 -61.34,-19.4z M161.6699981689453,-181.9429931640625 C131.5279998779297,-196.45899963378906 104.01599884033203,-189.8699951171875 86.55699920654297,-182.03799438476562 C78.23100280761719,-178.3070068359375 77.36799621582031,-166.88600158691406 84.91500091552734,-161.7689971923828 C110.072998046875,-144.70899963378906 120.34400177001953,-113.94000244140625 112.53099822998047,-77.99700164794922 C103.08499908447266,-34.5260009765625 86.072998046875,-26.969999313354492 93.63899993896484,-66.65299987792969 C101.19599914550781,-106.34600067138672 95.52899932861328,-127.13700103759766 69.06999969482422,-142.25999450683594 C54.04199981689453,-150.8419952392578 21.56399917602539,-128.7969970703125 -12.204999923706055,-127.13600158691406 C-37.8849983215332,-125.86399841308594 -64.42900085449219,-148.01300048828125 -84.02400207519531,-136.58299255371094 C-129.38499450683594,-110.1240005493164 -119.92900085449219,-34.5260009765625 -119.92900085449219,-34.5260009765625 C-119.92900085449219,-34.5260009765625 -138.83099365234375,-49.64899826049805 -131.2740020751953,-104.45600128173828 C-126.03399658203125,-142.45899963378906 -100.80000305175781,-159.56700134277344 -85.81900024414062,-166.47799682617188 C-82.05899810791016,-168.21499633789062 -82.5530014038086,-173.71200561523438 -86.55899810791016,-174.77499389648438 C-105.11000061035156,-179.7209930419922 -141.85899353027344,-183.5 -172.8459930419922,-149.81700134277344 C-216.31700134277344,-102.56700134277344 -175.69900512695312,-0.5740000009536743 -151.80999755859375,120.86399841308594 C-136.41799926757812,199.10499572753906 -46.22100067138672,177.1529998779297 -46.22100067138672,177.1529998779297 C-46.22100067138672,177.1529998779297 -31.10700035095215,192.26600646972656 6.697000026702881,190.3769989013672 C44.500999450683594,188.48800659179688 59.61399841308594,163.91900634765625 59.61399841308594,163.91900634765625 C59.61399841308594,163.91900634765625 74.73799896240234,177.1529998779297 114.4209976196289,165.80799865722656 C154.11399841308594,154.47300720214844 167.22300720214844,99.31900024414062 176.66900634765625,31.277999877929688 C186.11500549316406,-36.76300048828125 212.70799255371094,-157.37399291992188 161.6699981689453,-181.9429931640625z"></path><g opacity="1" transform="matrix(1,0,0,1,-57.17300033569336,-51.534000396728516)"></g><g opacity="1" transform="matrix(1,0,0,1,0,0)"></g></g></g></g></svg>