<svg xmlns="http://www.w3.org/2000/svg" xmlns:xlink="http://www.w3.org/1999/xlink" viewBox="0 0 512 512" width="512" height="512" style="width: 100%; height: 100%; transform: translate3d(0,0,0);" preserveAspectRatio="xMidYMid meet"><defs><clipPath id="__lottie_element_2819"><rect width="512" height="512" x="0" y="0"></rect></clipPath></defs><g clip-path="url(#__lottie_element_2819)"><g style="display: block;" transform="matrix(1.0299999713897705,0,0,1.0299999713897705,0.89697265625,30.34844970703125)" opacity="1"><g opacity="1" transform="matrix(1,0,0,1,249.43499755859375,225.38499450683594)"><path fill="rgb(0,0,0)" fill-opacity="1" d=" M242.21400451660156,-18.902999877929688 C233.18899536132812,-84.9469985961914 194.7429962158203,-63.005001068115234 188.92300415039062,-71.49500274658203 C179.30299377441406,-85.51499938964844 214.92300415039062,-189.4949951171875 124.9229965209961,-218.4949951171875 C106.98300170898438,-224.27499389648438 93.41300201416016,-171.4250030517578 66.9229965209961,-173.4949951171875 C49.43299865722656,-174.86500549316406 47.92300033569336,-197.0749969482422 19.92300033569336,-211.4949951171875 C-4.256999969482422,-223.94500732421875 -40.52000045776367,-225.13499450683594 -46.9900016784668,-213.4949951171875 C-57.08000183105469,-195.35499572753906 5.64300012588501,-154.34500122070312 -7.077000141143799,-125.49500274658203 C-12.57699966430664,-113.01499938964844 -27.62700080871582,-111.95500183105469 -28.07699966430664,-100.49500274658203 C-28.566999435424805,-88.09500122070312 -15.666999816894531,-82.08499908447266 -1.0770000219345093,-67.49500274658203 C6.922999858856201,-59.494998931884766 -11.07699966430664,-30.4950008392334 -12.07699966430664,2.505000114440918 C-12.437000274658203,14.53499984741211 -35.775001525878906,12.114999771118164 -55.814998626708984,7.505000114440918 C-72.04499816894531,3.7750000953674316 -57.71500015258789,-32.01499938964844 -67.81500244140625,-36.494998931884766 C-74.93499755859375,-39.654998779296875 -82.2750015258789,-23.21500015258789 -91.81500244140625,-26.4950008392334 C-123.81500244140625,-37.494998931884766 -124.45500183105469,-100.65499877929688 -133.81500244140625,-107.49500274658203 C-143.61500549316406,-114.66500091552734 -164.18499755859375,-88.92500305175781 -169.81500244140625,-72.49500274658203 C-178.10499572753906,-48.29499816894531 -168.77499389648438,-32.80500030517578 -171.81500244140625,-25.4950008392334 C-179.2050018310547,-7.735000133514404 -200.81500244140625,-54.494998931884766 -234.875,-12.494999885559082 C-245.06500244140625,0.07500000298023224 -249.18499755859375,47.54499816894531 -240.6750030517578,65.6050033569336 C-222.81500244140625,103.50499725341797 -193.59500122070312,98.28500366210938 -192.81500244140625,107.50499725341797 C-191.9949951171875,117.18499755859375 -238.81500244140625,144.5050048828125 -206.81500244140625,178.5050048828125 C-189.88499450683594,196.4949951171875 -150.81500244140625,157.5050048828125 -134.81500244140625,164.5050048828125 C-121.56500244140625,170.30499267578125 -124.3550033569336,187.5449981689453 -109.81500244140625,199.5050048828125 C-85.68499755859375,219.34500122070312 -40.834999084472656,203.98500061035156 -39.814998626708984,195.5050048828125 C-39.21500015258789,190.5050048828125 -52.345001220703125,190.47500610351562 -60.814998626708984,177.5050048828125 C-75.70500183105469,154.69500732421875 -62.1150016784668,106.98500061035156 -37.814998626708984,101.50499725341797 C-25.545000076293945,98.73500061035156 -11.675000190734863,106.43499755859375 -9.8149995803833,115.50499725341797 C-7.90500020980835,124.81500244140625 -16.72800064086914,122.40499877929688 -16.72800064086914,141.5050048828125 C-16.72800064086914,165.5050048828125 -5.4679999351501465,162.93499755859375 -3.7279999256134033,174.5050048828125 C-2.0880000591278076,185.4250030517578 -8.687999725341797,200.88499450683594 -1.7280000448226929,211.5050048828125 C5.73199987411499,222.875 31.312000274658203,225.13499450683594 42.27199935913086,214.5050048828125 C47.37200164794922,209.56500244140625 45.70199966430664,177.625 48.27199935913086,167.5050048828125 C50.9119987487793,157.11500549316406 60.17399978637695,159.71400451660156 60.27199935913086,134.4759979248047 C60.37300109863281,108.25700378417969 46.8650016784668,109.6050033569336 44.185001373291016,91.50499725341797 C41.03499984741211,70.25499725341797 63.51300048828125,34.005001068115234 83.9229965209961,37.505001068115234 C97.85299682617188,39.89500045776367 109.9229965209961,62.505001068115234 136.92300415039062,85.50499725341797 C149.7729949951172,96.44499969482422 135.26300048828125,113.42500305175781 140.92300415039062,116.50499725341797 C148.51300048828125,120.6449966430664 171.6529998779297,108.5250015258789 181.92300415039062,88.50499725341797 C201.92300415039062,49.505001068115234 182.4929962158203,44.82500076293945 189.92300415039062,20.5049991607666 C200.92300415039062,-15.494999885559082 245.82699584960938,7.534999847412109 242.21400451660156,-18.902999877929688z M-124.81500244140625,95.50499725341797 C-130.96499633789062,87.45500183105469 -144.5850067138672,104.66500091552734 -152.81500244140625,98.50499725341797 C-163.48500061035156,90.5250015258789 -154.625,82.4749984741211 -144.5850067138672,77.50499725341797 C-137.03500366210938,73.76499938964844 -186.10499572753906,73.03500366210938 -184.2550048828125,63.21500015258789 C-179.2550048828125,36.67499923706055 -153.0749969482422,59.67499923706055 -148.51499938964844,52.44499969482422 C-143.5850067138672,44.625 -174.85499572753906,29.545000076293945 -163.81500244140625,18.5049991607666 C-149.81500244140625,4.505000114440918 -106.78500366210938,47.69499969482422 -102.96499633789062,69.65499877929688 C-98.81500244140625,93.50499725341797 -111.81500244140625,112.50499725341797 -124.81500244140625,95.50499725341797z M120.9229965209961,-48.494998931884766 C117.50299835205078,-39.375 142.92300415039062,-43.494998931884766 138.9429931640625,-29.135000228881836 C135.80299377441406,-17.795000076293945 91.41300201416016,-31.0049991607666 81.9229965209961,-40.494998931884766 C67.9229965209961,-54.494998931884766 78.60299682617188,-121.59500122070312 93.9229965209961,-118.49500274658203 C113.71299743652344,-114.49500274658203 92.58300018310547,-87.53500366210938 100.9229965209961,-84.49500274658203 C110.44300079345703,-81.03500366210938 120.40299987792969,-125.09500122070312 135.92300415039062,-110.49500274658203 C145.6230010986328,-101.36499786376953 132.7429962158203,-79.25499725341797 123.9229965209961,-72.3550033569336 C117.28299713134766,-67.16500091552734 154.7429962158203,-75.49500274658203 154.92300415039062,-65.49500274658203 C155.4029998779297,-38.494998931884766 123.9229965209961,-56.494998931884766 120.9229965209961,-48.494998931884766z"></path></g></g></g></svg>