<svg xmlns="http://www.w3.org/2000/svg" xmlns:xlink="http://www.w3.org/1999/xlink" viewBox="0 0 512 512" width="512" height="512" style="width: 100%; height: 100%; transform: translate3d(0,0,0);" preserveAspectRatio="xMidYMid meet"><defs><clipPath id="__lottie_element_51950"><rect width="512" height="512" x="0" y="0"></rect></clipPath></defs><g clip-path="url(#__lottie_element_51950)"><g style="display: block;" transform="matrix(1,0,0,1,25.970001220703125,11.379989624023438)" opacity="1"><g opacity="1" transform="matrix(1,0,0,1,236.44500732421875,241.16000366210938)"><path fill="rgb(0,0,0)" fill-opacity="1" d=" M224.01499938964844,-10.579999923706055 C210.96499633789062,-22.940000534057617 165.01499938964844,23.420000076293945 159.01499938964844,-0.5799999833106995 C154.28500366210938,-19.5 191.71499633789062,-23.559999465942383 206.01499938964844,-49.58000183105469 C218.2949981689453,-71.93000030517578 216.51499938964844,-105.06999969482422 200.51499938964844,-104.56999969482422 C184.8249969482422,-104.08000183105469 179.01499938964844,-70.58000183105469 105.5250015258789,-84.08000183105469 C41.665000915527344,-95.79900360107422 20.024999618530273,-177.07000732421875 -48.974998474121094,-199.57000732421875 C-112.1050033569336,-220.16000366210938 -135.96499633789062,-198.07000732421875 -149.46499633789062,-204.07000732421875 C-161.80499267578125,-209.5489959716797 -158.46499633789062,-225.07000732421875 -185.46499633789062,-237.16000366210938 C-193.81500244140625,-240.91000366210938 -219.96499633789062,-236.0489959716797 -224.39500427246094,-211.5800018310547 C-230.23500061035156,-179.2989959716797 -202.31500244140625,-180.07000732421875 -204.96499633789062,-160.57000732421875 C-207.86500549316406,-139.1999969482422 -236.19500732421875,-147.07000732421875 -221.19500732421875,-70.58000183105469 C-201.44500732421875,30.170000076293945 -110.46499633789062,52.41999816894531 -104.46499633789062,151.41000366210938 C-102.15499877929688,189.6300048828125 -144.78500366210938,212.47999572753906 -138.96499633789062,220.41000366210938 C-128.46499633789062,234.72000122070312 -87.56500244140625,234.4199981689453 -68.4749984741211,214.41000366210938 C-52.53499984741211,197.7100067138672 -49.665000915527344,181.6199951171875 -38.474998474121094,188.91000366210938 C-25.354999542236328,197.4600067138672 -39.30500030517578,224.0399932861328 -26.475000381469727,232.41000366210938 C-13.425000190734863,240.91000366210938 15.03499984741211,224.61099243164062 30.524999618530273,205.41000366210938 C48.744998931884766,182.8300018310547 31.31599998474121,154.88999938964844 48.525001525878906,149.91000366210938 C61.92499923706055,146.031005859375 93.70500183105469,162.8300018310547 111.51499938964844,149.91000366210938 C129.22500610351562,137.0709991455078 123.78500366210938,98.70099639892578 131.01499938964844,85.41999816894531 C137.23500061035156,74.01000213623047 162.5749969482422,83.11100006103516 186.51499938964844,70.41999816894531 C220.78500366210938,52.25 236.19500732421875,0.9599999785423279 224.01499938964844,-10.579999923706055z M-15.975000381469727,-88.56999969482422 C-41.82500076293945,-121.0199966430664 -65.19499969482422,-137.47999572753906 -103.46499633789062,-149.07000732421875 C-117.8550033569336,-153.42999267578125 -122.18499755859375,-174.72999572753906 -97.96499633789062,-175.57000732421875 C-56.3849983215332,-177.02000427246094 1.7450000047683716,-123.36000061035156 3.5250000953674316,-97.56999969482422 C4.465000152587891,-84.01000213623047 -6.414999961853027,-76.58000183105469 -15.975000381469727,-88.56999969482422z"></path></g></g></g></svg>