<svg xmlns="http://www.w3.org/2000/svg" xmlns:xlink="http://www.w3.org/1999/xlink" viewBox="0 0 512 512" width="512" height="512" style="width: 100%; height: 100%; transform: translate3d(0,0,0);" preserveAspectRatio="xMidYMid meet"><defs><clipPath id="__lottie_element_53849"><rect width="512" height="512" x="0" y="0"></rect></clipPath></defs><g clip-path="url(#__lottie_element_53849)"><g style="display: block;" transform="matrix(1.0133448839187622,-0.23394909501075745,0.23394909501075745,1.0133448839187622,248,254)" opacity="1"><g opacity="1" transform="matrix(1,0,0,1,0,0)"><path fill="rgb(0,0,0)" fill-opacity="1" d=" M132.63800048828125,-179.93499755859375 C45.15599822998047,-205.50799560546875 -63.8650016784668,-135.18299865722656 -63.8650016784668,-135.18299865722656 C-85.06300354003906,-171.18699645996094 -111.64900207519531,-189.13099670410156 -148.43299865722656,-191.3719940185547 C-185.2270050048828,-193.6230010986328 -195.54400634765625,-183.75100708007812 -200.0260009765625,-162.20899963378906 C-204.51800537109375,-140.677001953125 -192.88900756835938,-119.13600158691406 -157.40699768066406,-123.40599822998047 C-114.56600189208984,-128.56399536132812 -110.52899932861328,-108.15299987792969 -110.52899932861328,-108.15299987792969 C-110.52899932861328,-108.15299987792969 -292.05999755859375,0.9629999995231628 -245.11900329589844,130.531005859375 C-233.19200134277344,163.45199584960938 -176.8070068359375,193.05999755859375 -150.27000427246094,181.30799865722656 C-106.18299865722656,161.78500366210938 -124.25900268554688,106.50800323486328 20.652999877929688,52.34299850463867 C97.91899871826172,23.461999893188477 169.65499877929688,23.336999893188477 176.70700073242188,34.340999603271484 C188.2429962158203,52.340999603271484 128.55599975585938,96.06800079345703 58.52000045776367,124.31199645996094 C-12.626999855041504,153.00399780273438 -66.67900085449219,156.31500244140625 -61.77199935913086,178.9929962158203 C-55.388999938964844,208.49099731445312 111.69100189208984,191.572998046875 215.64500427246094,81.17900085449219 C301.2349853515625,-9.713000297546387 229.4810028076172,-151.62600708007812 132.63800048828125,-179.93499755859375z"></path></g></g></g></svg>