<svg xmlns="http://www.w3.org/2000/svg" xmlns:xlink="http://www.w3.org/1999/xlink" viewBox="0 0 512 512" width="512" height="512" style="width: 100%; height: 100%; transform: translate3d(0,0,0);" preserveAspectRatio="xMidYMid meet"><defs><clipPath id="__lottie_element_27174"><rect width="512" height="512" x="0" y="0"></rect></clipPath></defs><g clip-path="url(#__lottie_element_27174)"><g style="display: block;" transform="matrix(1,0,0,1,0,0)" opacity="1"><g opacity="1" transform="matrix(1,0,0,1,255.2010040283203,256)"><path fill="rgb(65,63,63)" fill-opacity="1" d=" M221.1790008544922,-234.41700744628906 C224.47300720214844,-232.66099548339844 235.37600708007812,-237.56700134277344 242.03199768066406,-231.25599670410156 C248.6300048828125,-225 255.2010040283203,-204.06199645996094 253.25900268554688,-195.32400512695312 C251.8040008544922,-188.7740020751953 243.30599975585938,-184.69500732421875 242.86399841308594,-180.3260040283203 C241.88299560546875,-170.6479949951172 250.03199768066406,-157.1009979248047 245.87600708007812,-149.58799743652344 C241.81199645996094,-142.2429962158203 228.3730010986328,-142.58999633789062 221.23300170898438,-139.08200073242188 C221.19500732421875,-129.35899353027344 219.13600158691406,-122.01799774169922 209.55999755859375,-117.73699951171875 C195.60299682617188,-111.49600219726562 173.53399658203125,-108.60600280761719 157.79800415039062,-103.72799682617188 C145.7239990234375,-99.98500061035156 124.51399993896484,-93.46499633789062 114.23899841308594,-87.11499786376953 C95.88600158691406,-75.77400207519531 108.48200225830078,-42.516998291015625 108.71299743652344,-24.336000442504883 C109.2969970703125,21.80500030517578 53.35200119018555,42.382999420166016 15.060999870300293,45.803001403808594 C-5.949999809265137,47.68000030517578 -31.225000381469727,38.12699890136719 -35.46200180053711,66.06500244140625 C-38.59299850463867,86.71800231933594 -36.50299835205078,121.93199920654297 -29.790000915527344,141.62399291992188 C-26.26099967956543,151.97300720214844 -11.98900032043457,174.7899932861328 -13.781999588012695,184.13400268554688 C-14.6899995803833,188.86199951171875 -20.964000701904297,194.9530029296875 -20.554000854492188,201.1219940185547 C-19.849000930786133,211.7209930419922 0.04699999839067459,221.06100463867188 -18.18000030517578,228.72999572753906 C-38.53900146484375,237.2969970703125 -80.73999786376953,245.4409942626953 -103.43299865722656,248.84800720214844 C-111.0469970703125,249.99000549316406 -115.5009994506836,250.3939971923828 -120.81500244140625,244.14999389648438 C-134.99200439453125,251.52000427246094 -149.13499450683594,261.2879943847656 -163.95799255371094,249.51499938964844 C-188.16299438476562,230.2899932861328 -187.80799865722656,160.85800170898438 -185.92100524902344,131.41099548339844 C-183.718994140625,97.06700134277344 -160.9080047607422,10.362000465393066 -215.6490020751953,6.997000217437744 C-222.38999938964844,6.583000183105469 -241.60400390625,10.819999694824219 -245.29100036621094,7.925000190734863 C-255.95599365234375,-0.4490000009536743 -236.677001953125,-17.11400032043457 -232.20199584960938,-24.54400062561035 C-222.76300048828125,-40.21799850463867 -222.18499755859375,-57.21799850463867 -232.10800170898438,-72.95999908447266 C-236.25799560546875,-79.54299926757812 -249.5050048828125,-90.49600219726562 -242.3780059814453,-98.7249984741211 C-231.90899658203125,-110.81199645996094 -214.63499450683594,-89.16799926757812 -203.87399291992188,-107.76100158691406 C-195.90199279785156,-121.53600311279297 -210.3159942626953,-145.6020050048828 -179.8159942626953,-139.3979949951172 C-172.88600158691406,-137.98899841308594 -168.19000244140625,-133.05499267578125 -161.49600219726562,-131.64100646972656 C-153.322998046875,-134.15699768066406 -144.97999572753906,-136.218994140625 -136.82699584960938,-138.79600524902344 C-106.44000244140625,-148.4029998779297 -66.0250015258789,-164.4499969482422 -35.349998474121094,-169.81900024414062 C-26.2549991607666,-171.41099548339844 -18.7810001373291,-165.07200622558594 -14.79800033569336,-166.0030059814453 C-12.190999984741211,-166.61300659179688 -9.395999908447266,-168.9040069580078 -6.258999824523926,-169.89300537109375 C46.053001403808594,-186.37600708007812 124.37000274658203,-206.0330047607422 157.54600524902344,-216.66600036621094 C173.18499755859375,-221.67799377441406 167.2830047607422,-225.9199981689453 174.16000366210938,-236.72500610351562 C181.0749969482422,-247.58999633789062 199.3730010986328,-259.77398681640625 212.03199768066406,-252.66900634765625 C216.68299865722656,-250.05799865722656 219.34500122070312,-235.39500427246094 221.1790008544922,-234.41700744628906z M45.987998962402344,-62.37799835205078 C36.981998443603516,-60.854000091552734 24.95599937438965,-56.21200180053711 15.765000343322754,-53.516998291015625 C10.395000457763672,-51.94200134277344 20.368999481201172,-29.910999298095703 23.207000732421875,-25.856000900268555 C30.513999938964844,-15.418000221252441 40.10100173950195,-15.23900032043457 51.17599868774414,-11.635000228881836 C55.90599822998047,-0.8799999952316284 42.108001708984375,0.9629999995231628 34.04499816894531,0.7519999742507935 C20.208999633789062,0.38999998569488525 7.348999977111816,-5.982999801635742 -1.7300000190734863,-16.347000122070312 C-11.230999946594238,-27.19300079345703 -14.62399959564209,-46.125 -31.009000778198242,-31.141000747680664 C-44.400001525878906,-18.895000457763672 -43.124000549316406,1.409000039100647 -28.724000930786133,12.404000282287598 C-4.624000072479248,30.80699920654297 44.79100036621094,25.51099967956543 66.46499633789062,5.214000225067139 C90.33599853515625,-17.138999938964844 85.43299865722656,-69.0510025024414 45.987998962402344,-62.37799835205078z"></path></g></g></g></svg>