<svg xmlns="http://www.w3.org/2000/svg" xmlns:xlink="http://www.w3.org/1999/xlink" viewBox="0 0 512 512" width="512" height="512" style="width: 100%; height: 100%; transform: translate3d(0,0,0);" preserveAspectRatio="xMidYMid meet"><defs><clipPath id="__lottie_element_51620"><rect width="512" height="512" x="0" y="0"></rect></clipPath></defs><g clip-path="url(#__lottie_element_51620)"><g style="display: block;" transform="matrix(0.9735429883003235,0.3933368921279907,-0.3933368921279907,0.9735429883003235,49.989959716796875,121.85519409179688)" opacity="1"><g opacity="1" transform="matrix(1,0,0,1,258.2380065917969,9.925000190734863)"><path fill="rgb(0,0,0)" fill-opacity="1" d=" M213.39700317382812,148.82200622558594 C141.75399780273438,100.6259994506836 143.00100708007812,39.305999755859375 113.14900207519531,-27.701000213623047 C110.41200256347656,-33.845001220703125 103.19999694824219,-35.512001037597656 98.49199676513672,-31.079999923706055 C96.73400115966797,-29.424999237060547 82.25399780273438,-20.68199920654297 62.95600128173828,18.81100082397461 C61.60900115966797,21.56800079345703 56.83399963378906,20.90999984741211 55.07400131225586,18.457000732421875 C47.928001403808594,8.496999740600586 40.27899932861328,3.74399995803833 34.44300079345703,1.527999997138977 C31.240999221801758,0.31200000643730164 29.739999771118164,-3.6059999465942383 31.15399932861328,-7.019999980926514 C43.25400161743164,-36.229000091552734 72.25399780273438,-65.1050033569336 81.64700317382812,-72.60199737548828 C85.76300048828125,-75.88700103759766 85.87200164794922,-82.7040023803711 82.71299743652344,-87.10600280761719 C62.44900131225586,-115.34400177001953 37.3120002746582,-134.01600646972656 2.4560000896453857,-133.62100219726562 C-94.3740005493164,-133.7689971923828 -107.81300354003906,-35.05400085449219 -152.49000549316406,37.61899948120117 C-176.65699768066406,76.92900085449219 -205.49200439453125,88.83000183105469 -232.30499267578125,113.97899627685547 C-234.6060028076172,116.13700103759766 -237.68699645996094,117.27799987792969 -240.38299560546875,118.90899658203125 C-245.01800537109375,121.71299743652344 -245.875,132.11900329589844 -241.96200561523438,136.0540008544922 C-201.24600219726562,177 -139.55499267578125,179.08799743652344 -118.052001953125,170.08099365234375 C-101.50499725341797,163.14999389648438 -78.16200256347656,111.6050033569336 -2.9809999465942383,112.36100006103516 C80.91699981689453,113.20500183105469 88.0999984741211,177.51100158691406 99.35900115966797,185.63699340820312 C122.26300048828125,202.16700744628906 191.45899963378906,177.63299560546875 214.04100036621094,164.42799377441406 C222.25399780273438,159.62600708007812 217.78399658203125,151.7729949951172 213.39700317382812,148.82200622558594z"></path></g><g opacity="1" transform="matrix(1,0,0,1,259.99200439453125,-27.42099952697754)"><path fill="rgb(0,0,0)" fill-opacity="1" d=" M246.97999572753906,126.947998046875 C215.53799438476562,103.53700256347656 203.1699981689453,71.375 177.95599365234375,7.464000225067139 C150.86500549316406,-61.20399856567383 111.34700012207031,-169.02200317382812 9.163999557495117,-169.02200317382812 C-91.39099884033203,-169.02200317382812 -157.16200256347656,-80.86000061035156 -186.8509979248047,19.385000228881836 C-204.1790008544922,77.89199829101562 -224.91700744628906,94.46900177001953 -242.0850067138672,102.26100158691406 C-269.760986328125,114.822998046875 -255.31700134277344,167.08799743652344 -241.48599243164062,174.98899841308594 C-219.34800720214844,187.63499450683594 -151.34300231933594,74.677001953125 -160.18299865722656,83.6050033569336 C-168.97999572753906,92.48899841308594 -173.7830047607422,82.45999908447266 -166.56500244140625,72.33899688720703 C-159.53399658203125,62.479000091552734 -147.59100341796875,38.6510009765625 -141.6820068359375,24.757999420166016 C-141.58700561523438,24.53499984741211 -116.79000091552734,-41.073001861572266 -95.71800231933594,-70.04900360107422 C-51.69900131225586,-130.58099365234375 49.20800018310547,-133.9969940185547 94.51499938964844,-65.92500305175781 C124.99600219726562,-23.410999298095703 139.71299743652344,32.12200164794922 160.17300415039062,78.1780014038086 C190.1230010986328,137.843994140625 204,156.9720001220703 241.08200073242188,162.67799377441406 C253.98199462890625,164.66299438476562 263.54901123046875,139.28500366210938 246.97999572753906,126.947998046875z"></path></g></g></g></svg>