<svg xmlns="http://www.w3.org/2000/svg" xmlns:xlink="http://www.w3.org/1999/xlink" viewBox="0 0 512 512" width="512" height="512" style="width: 100%; height: 100%; transform: translate3d(0,0,0);" preserveAspectRatio="xMidYMid meet"><defs><clipPath id="__lottie_element_51785"><rect width="512" height="512" x="0" y="0"></rect></clipPath></defs><g clip-path="url(#__lottie_element_51785)"><g style="display: block;" transform="matrix(1.0271958112716675,0.16269183158874512,-0.16269183158874512,1.0271958112716675,11.888229370117188,-28.981353759765625)" opacity="1"><g opacity="1" transform="matrix(1,0,0,1,273.25,235.64999389648438)"><path fill="rgb(0,0,0)" fill-opacity="1" d=" M17.389999389648438,-220.67999267578125 C-81.23999786376953,-235.39999389648438 -186,-185.14999389648438 -189,-154.14999389648438 C-189.97999572753906,-144.0500030517578 -179.5800018310547,-123.5 -155,-101.1500015258789 C-127.06999969482422,-75.76000213623047 -93.98999786376953,-61.720001220703125 -95,-56.150001525878906 C-97,-45.150001525878906 -136.6699981689453,-54.40999984741211 -172,-76.1500015258789 C-212,-100.76000213623047 -221.0800018310547,-130.7100067138672 -229,-114.1500015258789 C-273,-22.149999618530273 -219,88.8499984741211 -145,137.85000610351562 C-127.04000091552734,149.74000549316406 -111,73.8499984741211 -100,88.8499984741211 C-93.70999908447266,97.41999816894531 -51.529998779296875,147.33999633789062 -11,160.85000610351562 C-2,163.85000610351562 -15.329999923706055,186.6300048828125 -14,195.85000610351562 C-12.710000038146973,204.77000427246094 18,202.85000610351562 47,226.85000610351562 C57.34000015258789,235.39999389648438 56.54999923706055,212.75 65,209.85000610351562 C71.61000061035156,207.5800018310547 98.83999633789062,217.52999877929688 116,218.85000610351562 C129,219.85000610351562 132,203.85000610351562 121,198.85000610351562 C107.29000091552734,192.6199951171875 81.51000213623047,189.4600067138672 78,177.85000610351562 C75.7300033569336,170.35000610351562 83.1500015258789,168.6199951171875 81,159.85000610351562 C78.5,149.6699981689453 66.36000061035156,150.80999755859375 65,140.85000610351562 C62,118.8499984741211 84.25,44.52000045776367 95,43.849998474121094 C175,38.849998474121094 231.47999572753906,26.65999984741211 242,-4.150000095367432 C256,-45.150001525878906 155,-200.14999389648438 17.389999389648438,-220.67999267578125z M50,51.849998474121094 C42,66.8499984741211 40,105.8499984741211 37,117.8499984741211 C35.119998931884766,125.36000061035156 26.260000228881836,116.80999755859375 18,118.8499984741211 C9.920000076293945,120.8499984741211 9.510000228881836,130.74000549316406 2,128.85000610351562 C-17.670000076293945,123.91000366210938 -56,89.8499984741211 -68.5999984741211,67.58999633789062 C-82.41000366210938,43.209999084472656 -37.86000061035156,34.5099983215332 -17,29.850000381469727 C0.8999999761581421,25.850000381469727 57.70000076293945,37.41999816894531 50,51.849998474121094z M76,-14.130000114440918 C50.709999084472656,-36.150001525878906 23.1200008392334,-40.84000015258789 4,-48.150001525878906 C-13.779999732971191,-54.95000076293945 -11.140000343322754,-80.45999908447266 2,-83.1500015258789 C29.06999969482422,-88.69000244140625 78,-77 104,-41.150001525878906 C117.37999725341797,-22.700000762939453 90.87000274658203,-1.190000057220459 76,-14.130000114440918z M116,-82.1500015258789 C94.75,-111.19999694824219 73,-134.5 5,-142.4499969482422 C-20.270000457763672,-145.39999389648438 -22.579999923706055,-179.0399932861328 6,-184.14999389648438 C50.709999084472656,-192.14999389648438 137,-141.14999389648438 145,-95.1500015258789 C148.00999450683594,-77.83000183105469 125.33000183105469,-69.38999938964844 116,-82.1500015258789z"></path></g></g></g></svg>