<svg xmlns="http://www.w3.org/2000/svg" xmlns:xlink="http://www.w3.org/1999/xlink" viewBox="0 0 512 512" width="512" height="512" style="width: 100%; height: 100%; transform: translate3d(0,0,0);" preserveAspectRatio="xMidYMid meet"><defs><clipPath id="__lottie_element_51265"><rect width="512" height="512" x="0" y="0"></rect></clipPath></defs><g clip-path="url(#__lottie_element_51265)"><g style="display: block;" transform="matrix(1,0,0,1,260.2550048828125,254.77099609375)" opacity="1"><g opacity="1" transform="matrix(1,0,0,1,0,-1.5609999895095825)"><path fill="rgb(0,0,0)" fill-opacity="1" d=" M193.07699584960938,19.573999404907227 C184.9080047607422,-23.02199935913086 142.16700744628906,-44.5880012512207 94.67900085449219,-54.92399978637695 C94.67900085449219,-54.92399978637695 94.67900085449219,-87.4209976196289 94.67900085449219,-87.4209976196289 C94.67900085449219,-97.70899963378906 86.33899688720703,-106.05000305175781 76.0510025024414,-106.05000305175781 C76.0510025024414,-106.05000305175781 76.0510025024414,-106.05000305175781 76.0510025024414,-106.05000305175781 C65.76300048828125,-106.05000305175781 57.422000885009766,-97.70899963378906 57.422000885009766,-87.4209976196289 C57.422000885009766,-87.4209976196289 57.422000885009766,-60.85599899291992 57.422000885009766,-60.85599899291992 C45.117000579833984,-62.18600082397461 33.00899887084961,-62.94499969482422 21.597999572753906,-63.29499816894531 C21.597999572753906,-63.29499816894531 21.597999572753906,-112.73699951171875 21.597999572753906,-112.73699951171875 C21.597999572753906,-123.0250015258789 13.256999969482422,-131.36599731445312 2.9690001010894775,-131.36599731445312 C2.9690001010894775,-131.36599731445312 2.9690001010894775,-131.36599731445312 2.9690001010894775,-131.36599731445312 C-7.318999767303467,-131.36599731445312 -15.65999984741211,-123.0250015258789 -15.65999984741211,-112.73699951171875 C-15.65999984741211,-112.73699951171875 -15.65999984741211,-63.30699920654297 -15.65999984741211,-63.30699920654297 C-26.81599998474121,-63.055999755859375 -37.832000732421875,-62.56800079345703 -48.61800003051758,-61.72800064086914 C-48.61800003051758,-61.72800064086914 -48.61800003051758,-91.72000122070312 -48.61800003051758,-91.72000122070312 C-48.61800003051758,-102.00800323486328 -56.95899963378906,-110.3489990234375 -67.24700164794922,-110.3489990234375 C-67.24700164794922,-110.3489990234375 -67.24700164794922,-110.3489990234375 -67.24700164794922,-110.3489990234375 C-77.53500366210938,-110.3489990234375 -85.875,-102.00800323486328 -85.875,-91.72000122070312 C-85.875,-91.72000122070312 -85.875,-57.04899978637695 -85.875,-57.04899978637695 C-118.02400207519531,-51.17100143432617 -146.72300720214844,-40.284000396728516 -168.98800659179688,-20.548999786376953 C-211.02200317382812,16.70800018310547 -199.5590057373047,74.02799987792969 -158.47999572753906,93.13400268554688 C-117.4010009765625,112.23999786376953 -94.572998046875,95.68199920654297 -78.23300170898438,97.91000366210938 C-57.215999603271484,100.7760009765625 -60.082000732421875,123.7040023803711 -17.093000411987305,122.7490005493164 C25.895999908447266,121.79299926757812 29.718000411987305,96.95500183105469 49.779998779296875,96.95500183105469 C69.84200286865234,96.95500183105469 72.70700073242188,132.302001953125 116.6520004272461,131.3470001220703 C160.5970001220703,130.39100646972656 206.4510040283203,89.31199645996094 193.07699584960938,19.573999404907227z"></path></g><g opacity="1" transform="matrix(1,0,0,1,-4.182000160217285,183.59100341796875)"><path fill="rgb(0,0,0)" fill-opacity="1" d=" M-165.8509979248047,-54.577999114990234 C-165.8509979248047,-54.577999114990234 -163.4290008544922,11.62600040435791 -163.4290008544922,11.62600040435791 C-163.27099609375,15.956999778747559 -161.1699981689453,19.972999572753906 -157.7220001220703,22.597999572753906 C-144.96400451660156,32.30799865722656 -106.41999816894531,62.27199935913086 -6.541999816894531,64.01699829101562 C106.0510025024414,65.98400115966797 146.90499877929688,33.345001220703125 159.68099975585938,22.715999603271484 C162.90499877929688,20.033000946044922 164.80599975585938,16.091999053955078 164.88699340820312,11.89799976348877 C164.88699340820312,11.89799976348877 165.85499572753906,-38.45199966430664 165.85499572753906,-38.45199966430664 C165.92799377441406,-42.2599983215332 161.6009979248047,-44.513999938964844 158.54100036621094,-42.24700164794922 C148.9969940185547,-35.17900085449219 130.83599853515625,-25.166000366210938 106.822998046875,-27.694000244140625 C70.52100372314453,-31.514999389648438 65.4260025024414,-49.347999572753906 44.409000396728516,-47.4370002746582 C20.099000930786133,-45.22700119018555 12.39799976348877,-24.607999801635742 -18.0049991607666,-28.33099937438965 C-49.21200180053711,-32.152000427246094 -57.492000579833984,-56.354000091552734 -80.41999816894531,-60.17499923706055 C-106.51200103759766,-64.52400207519531 -113.56999969482422,-49.91699981689453 -153.6820068359375,-63.60200119018555 C-159.7740020751953,-65.68000030517578 -166.06500244140625,-61.01100158691406 -165.8509979248047,-54.577999114990234z"></path></g><g opacity="1" transform="matrix(1,0,0,1,-73.12300109863281,-167.718994140625)"><path fill="rgb(0,0,0)" fill-opacity="1" d=" M-1.2890000343322754,45.30099868774414 C-31.570999145507812,44.231998443603516 -42.16999816894531,5.491000175476074 -17.231000900268555,-34.763999938964844 C-7.502999782562256,-50.465999603271484 16.15999984741211,-48.22100067138672 22.86400032043457,-31.009000778198242 C35.73400115966797,2.0350000858306885 37.5989990234375,46.67300033569336 -1.2890000343322754,45.30099868774414z"></path></g><g opacity="1" transform="matrix(1,0,0,1,3.953000068664551,-196.83799743652344)"><path fill="rgb(0,0,0)" fill-opacity="1" d=" M-1.4459999799728394,50.81999969482422 C-35.41699981689453,49.62099838256836 -47.30799865722656,6.158999919891357 -19.329999923706055,-39 C-8.416999816894531,-56.6150016784668 18.128999710083008,-54.09600067138672 25.649999618530273,-34.7869987487793 C40.0880012512207,2.2829999923706055 42.18000030517578,52.36000061035156 -1.4459999799728394,50.81999969482422z"></path></g><g opacity="1" transform="matrix(1,0,0,1,79.30500030517578,-160.9530029296875)"><path fill="rgb(0,0,0)" fill-opacity="1" d=" M-1.2039999961853027,42.32699966430664 C-29.49799919128418,41.327999114990234 -39.402000427246094,5.130000114440918 -16.100000381469727,-32.481998443603516 C-7.011000156402588,-47.15299987792969 15.098999977111816,-45.05500030517578 21.363000869750977,-28.972999572753906 C33.38800048828125,1.9019999504089355 35.13100051879883,43.60900115966797 -1.2039999961853027,42.32699966430664z"></path></g></g></g></svg>