<svg xmlns="http://www.w3.org/2000/svg" xmlns:xlink="http://www.w3.org/1999/xlink" viewBox="0 0 512 512" width="512" height="512" style="width: 100%; height: 100%; transform: translate3d(0,0,0);" preserveAspectRatio="xMidYMid meet"><defs><clipPath id="__lottie_element_52353"><rect width="512" height="512" x="0" y="0"></rect></clipPath></defs><g clip-path="url(#__lottie_element_52353)"><g style="display: block;" transform="matrix(1,0,0,1,12,0)" opacity="1"><g opacity="1" transform="matrix(1,0,0,1,249.9949951171875,243.4010009765625)"><g opacity="1" transform="matrix(1,0,0,1,0,0)"><path fill="rgb(4,5,52)" fill-opacity="1" d=" M0,-225.99200439453125 C19.979999542236328,-225.99200439453125 44.81999969482422,-217.86199951171875 48.779998779296875,-191.32200622558594 C53.279998779296875,-161.11199951171875 30.139999389648438,-148.9720001220703 30.139999389648438,-148.9720001220703 C30.139999389648438,-148.9720001220703 94.5199966430664,-85.44200134277344 95.37000274658203,1.8079999685287476 C96.20999908447266,89.0479965209961 62.33000183105469,94.97799682617188 65.72000122070312,105.14800262451172 C69.11000061035156,115.30799865722656 106.08999633789062,126.03800201416016 122.19000244140625,129.42799377441406 C130.92999267578125,135.45799255371094 168.1699981689453,139.58799743652344 171.44000244140625,160.76800537109375 C174.7100067138672,181.947998046875 175.447998046875,214.4669952392578 171.44000244140625,217.51800537109375 C160.30599975585938,225.9929962158203 42.86800003051758,225.99200439453125 0,225.99200439453125 C-42.86800003051758,225.99200439453125 -160.30599975585938,225.9929962158203 -171.44000244140625,217.51800537109375 C-175.447998046875,214.4669952392578 -174.7100067138672,181.947998046875 -171.44000244140625,160.76800537109375 C-168.1699981689453,139.58799743652344 -130.92999267578125,135.45799255371094 -122.19000244140625,129.42799377441406 C-106.08999633789062,126.03800201416016 -69.11000061035156,115.30799865722656 -65.72000122070312,105.14800262451172 C-62.33000183105469,94.97799682617188 -96.20999908447266,89.0479965209961 -95.37000274658203,1.8079999685287476 C-94.5199966430664,-85.44200134277344 -30.139999389648438,-148.9720001220703 -30.139999389648438,-148.9720001220703 C-30.139999389648438,-148.9720001220703 -53.279998779296875,-161.11199951171875 -48.779998779296875,-191.32200622558594 C-44.81999969482422,-217.86199951171875 -19.979999542236328,-225.99200439453125 0,-225.99200439453125z"></path></g></g></g></g></svg>