<svg xmlns="http://www.w3.org/2000/svg" xmlns:xlink="http://www.w3.org/1999/xlink" viewBox="0 0 512 512" width="512" height="512" style="width: 100%; height: 100%; transform: translate3d(0,0,0);" preserveAspectRatio="xMidYMid meet"><defs><clipPath id="__lottie_element_27179"><rect width="512" height="512" x="0" y="0"></rect></clipPath></defs><g clip-path="url(#__lottie_element_27179)"><g style="display: block;" transform="matrix(1,0,0,1,0,0)" opacity="1"><g opacity="1" transform="matrix(1,0,0,1,201.60400390625,195.17799377441406)"><path fill="rgb(65,63,63)" fill-opacity="1" d=" M-165.49200439453125,141.3979949951172 C-172.5189971923828,137.77499389648438 -189.58200073242188,126.29399871826172 -194.08700561523438,120.14299774169922 C-201.76400756835938,109.66100311279297 -202.83099365234375,94.49400329589844 -200.52999877929688,82.0979995727539 C-199.4080047607422,76.05400085449219 -197.4709930419922,69.56300354003906 -193.77099609375,64.53500366210938 C-184.51600646972656,51.98699951171875 -177.0800018310547,51.220001220703125 -164.58599853515625,57.10499954223633 C-146.281005859375,65.72699737548828 -124.23100280761719,67.02899932861328 -104.7979965209961,72.06500244140625 C-101.0719985961914,73.03099822998047 -68.64299774169922,84.64399719238281 -66.11299896240234,82.09200286865234 C-50.2859992980957,66.1259994506836 -83.12000274658203,51.013999938964844 -85.57599639892578,49.75400161743164 C-105.08300018310547,39.74700164794922 -167.28199768066406,24.70800018310547 -176.48899841308594,9.821999549865723 C-184.86599731445312,-3.7209999561309814 -176.29800415039062,-25.459999084472656 -168.51600646972656,-38.321998596191406 C-162.03199768066406,-49.0369987487793 -150.0800018310547,-55.57699966430664 -144.0760040283203,-65.11499786376953 C-136.2259979248047,-77.58699798583984 -131.77200317382812,-94.31700134277344 -121.90399932861328,-108.23400115966797 C-91.3759994506836,-151.2899932861328 -38.42300033569336,-181.54100036621094 15.871999740600586,-178.9080047607422 C95.74099731445312,-175.03399658203125 201.60400390625,-135.26699829101562 201.5919952392578,-42.154998779296875 C201.58900451660156,-13.824000358581543 184.68099975585938,22.5939998626709 181.50799560546875,51.22800064086914 C178.68499755859375,76.6989974975586 182.8939971923828,110.23999786376953 177.5659942626953,134.80599975585938 C176.02999877929688,141.89100646972656 174.93800354003906,149.66400146484375 168.3939971923828,154.00399780273438 C159.9080047607422,159.63099670410156 116.66600036621094,167.90899658203125 104.18399810791016,169.98399353027344 C34.67399978637695,181.5399932861328 -102.52799987792969,173.85800170898438 -165.49200439453125,141.3979949951172z"></path></g><g opacity="1" transform="matrix(1,0,0,1,353.0920104980469,402.5409851074219)"><path fill="rgb(65,63,63)" fill-opacity="1" d=" M44.09199905395508,-91.55699920654297 C44.66600036621094,-93.56300354003906 50.4900016784668,-98.41699981689453 53.645999908447266,-98.1719970703125 C74.97599792480469,-96.51799774169922 70.94400024414062,-39.29199981689453 69.16400146484375,-24.650999069213867 C65.24400329589844,7.586999893188477 37.06700134277344,53.106998443603516 12.633999824523926,74.9520034790039 C4.538000106811523,82.19100189208984 -13.852999687194824,98.41799926757812 -24.89699935913086,91.79100036621094 C-36.05500030517578,85.09500122070312 -74.97599792480469,8.65999984741211 -66.61100006103516,-8.390999794006348 C-66.61100006103516,-8.390999794006348 -62.207000732421875,-12.508000373840332 -62.207000732421875,-12.508000373840332 C-44.71900177001953,-16.091999053955078 44.09199905395508,-27.42099952697754 44.09199905395508,-49.25 C44.09199905395508,-59.071998596191406 42.0620002746582,-84.46700286865234 44.09199905395508,-91.55699920654297z"></path></g><g opacity="1" transform="matrix(1,0,0,1,456.625,309.4590148925781)"><path fill="rgb(65,63,63)" fill-opacity="1" d=" M17.125999450683594,-63.6870002746582 C75.50199890136719,-22.256999969482422 60.71500015258789,43.3849983215332 15.23799991607666,88.88600158691406 C-0.3720000088214874,104.50499725341797 -1.934000015258789,91.28199768066406 -6.877999782562256,76.88200378417969 C-16.25200080871582,49.582000732421875 -11.545999526977539,16.35700035095215 -23.468000411987305,-8.381999969482422 C-35.7599983215332,-33.88999938964844 -55.375,-32.19599914550781 -50.87200164794922,-69.06099700927734 C-46.542999267578125,-104.50499725341797 -0.0430000014603138,-75.87200164794922 17.125999450683594,-63.6870002746582z"></path></g></g></g></svg>