<svg xmlns="http://www.w3.org/2000/svg" xmlns:xlink="http://www.w3.org/1999/xlink" viewBox="0 0 512 512" width="512" height="512" style="width: 100%; height: 100%; transform: translate3d(0,0,0);" preserveAspectRatio="xMidYMid meet"><defs><clipPath id="__lottie_element_53794"><rect width="512" height="512" x="0" y="0"></rect></clipPath></defs><g clip-path="url(#__lottie_element_53794)"><g style="display: block;" transform="matrix(1,0,0,1,255.68499755859375,254.7689971923828)" opacity="1"><g opacity="1" transform="matrix(1,0,0,1,0,0)"><path fill="rgb(0,0,0)" fill-opacity="1" d=" M109.57,-84.75 C109.5,-97.51 100.5,-107.4 87.95,-107.57 C75.21,-107.75 65.38,-97.75 65.08,-84.31 C64.81,-71.95 71.59,-60.83 85.65,-59.87 C103.36,-58.67 109.64,-70.44 109.57,-84.75z M214.07,-98.6 C213.78,-111.75 204.5,-121.78 192.64,-121.76 C180.22,-121.75 168.49,-113.63 169.39,-95.69 C170.11,-81.44 180.48,-72.66 191.19,-72.23 C206.23,-71.62 214.38,-84.59 214.07,-98.6z M-164.18499755859375,136.5959930419922 C-158.49400329589844,121.99500274658203 -151.26600646972656,108.70999908447266 -144.2740020751953,94.89600372314453 C-123.18800354003906,53.23400115966797 -82.35399627685547,1.406999945640564 -13.66100025177002,-11.958000183105469 C-6.714000225067139,-14.225000381469727 -4.230000019073486,-18.586999893188477 -4.363999843597412,-25.577999114990234 C-4.572999954223633,-36.49599838256836 -4.2270002365112305,-47.42300033569336 -4.230000019073486,-58.34600067138672 C-4.232999801635742,-71.71299743652344 -4.14300012588501,-85.08399963378906 -0.925000011920929,-98.15299987792969 C0.3479999899864197,-103.322998046875 -0.6610000133514404,-107.43099975585938 -3.9519999027252197,-111.63800048828125 C-25.145000457763672,-138.7259979248047 -36.52000045776367,-178.33700561523438 -25.854999542236328,-215.31500244140625 C-22.26799964904785,-227.7530059814453 -14.357999801635742,-231.49400329589844 -2.8480000495910645,-225.94000244140625 C1.5099999904632568,-223.83700561523438 43.154998779296875,-198.84100341796875 59.62799835205078,-188.57000732421875 C64.98200225830078,-185.23199462890625 69.69999694824219,-184.59100341796875 75.51499938964844,-187.1909942626953 C81.39800262451172,-189.8209991455078 87.73500061035156,-191.42300415039062 93.83999633789062,-193.56900024414062 C102.36299896240234,-196.56500244140625 102.71700286865234,-197.00399780273438 100.68800354003906,-205.77099609375 C98.48400115966797,-215.29600524902344 96.71800231933594,-224.69700622558594 99.3499984741211,-234.50900268554688 C104.30000305175781,-252.96499633789062 115.65499877929688,-257.55999755859375 130.53199768066406,-245.7779998779297 C142.2310028076172,-236.51300048828125 152.5330047607422,-225.50599670410156 163.95799255371094,-215.8679962158203 C178.7790069580078,-203.36500549316406 193.61199951171875,-190.9080047607422 209.9929962158203,-180.2949981689453 C234.53900146484375,-164.39300537109375 245.28199768066406,-140.21499633789062 248.79800415039062,-111.9739990234375 C252.1529998779297,-85.0270004272461 259.239013671875,94.85399627685547 246.5540008544922,201.8520050048828 C243.93299865722656,226.31300354003906 226.30099487304688,244.24600219726562 201.91099548339844,247.5919952392578 C192.23599243164062,248.91900634765625 27.836000442504883,252.4029998779297 -24.76799964904785,252.03199768066406 C-57.13399887084961,251.80299377441406 -89.50399780273438,252.13999938964844 -121.87300109863281,252.25599670410156 C-132.00900268554688,252.29200744628906 -142.0659942626953,251.7480010986328 -152.0489959716797,249.73699951171875 C-160.4929962158203,248.03599548339844 -182.86900329589844,240.12899780273438 -203.11599731445312,222.75 C-236.13900756835938,194.7729949951172 -254.7760009765625,159.4320068359375 -253.781005859375,115.91000366210938 C-252.7570037841797,57.1609992980957 -202.6009979248047,-14.321000099182129 -195.29200744628906,-47.4370002746582 C-186.13499450683594,-88.927001953125 -226.0590057373047,-116.38400268554688 -230.55499267578125,-140.6479949951172 C-235.26600646972656,-166.0709991455078 -221.65699768066406,-187.6750030517578 -195.81700134277344,-188.59300231933594 C-139.31100463867188,-190.60000610351562 -99.77100372314453,-146.7220001220703 -93.35600280761719,-100.58499908447266 C-87.85099792480469,-46.494998931884766 -118.03800201416016,6.658999919891357 -134.13099670410156,31.423999786376953 C-149.8520050048828,55.61600112915039 -167.91200256347656,76.13500213623047 -169.5189971923828,105.06199645996094 C-170.3040008544922,119.1969985961914 -169.25399780273438,128.1269989013672 -164.18499755859375,136.5959930419922z"></path><g opacity="1" transform="matrix(1,0,0,1,87.31999969482422,-83.68299865722656)"></g><g opacity="1" transform="matrix(1,0,0,1,191.7100067138672,-96.98699951171875)"></g><g opacity="1" transform="matrix(1,0,0,1,0,0)"></g></g></g></g></svg>