<svg xmlns="http://www.w3.org/2000/svg" xmlns:xlink="http://www.w3.org/1999/xlink" viewBox="0 0 512 512" width="512" height="512" style="width: 100%; height: 100%; transform: translate3d(0,0,0);" preserveAspectRatio="xMidYMid meet"><defs><clipPath id="__lottie_element_53689"><rect width="512" height="512" x="0" y="0"></rect></clipPath></defs><g clip-path="url(#__lottie_element_53689)"><g style="display: block;" transform="matrix(1,0,0,1,256,256)" opacity="1"><g opacity="1" transform="matrix(1,0,0,1,0,0)"><path fill="rgb(0,0,0)" fill-opacity="1" d=" M-123.19000244140625,58.45600128173828 C-133.64999389648438,62.65599822998047 -144.42999267578125,66.2959976196289 -155.39999389648438,69.39600372314453 C-160.8699951171875,70.94599914550781 -166.39999389648438,72.36599731445312 -171.94000244140625,73.65599822998047 C-174.7100067138672,74.28600311279297 -177.47999572753906,74.90599822998047 -180.25,75.45600128173828 C-180.25,75.45600128173828 -184.3800048828125,76.26599884033203 -184.3800048828125,76.26599884033203 C-184.3800048828125,76.26599884033203 -186.41000366210938,76.63600158691406 -186.41000366210938,76.63600158691406 C-186.41000366210938,76.63600158691406 -188.2899932861328,76.94599914550781 -188.2899932861328,76.94599914550781 C-188.2899932861328,76.94599914550781 -189.52999877929688,77.15599822998047 -189.52999877929688,77.15599822998047 C-194.6999969482422,78.0260009765625 -199.08999633789062,81.90599822998047 -200.35000610351562,87.33599853515625 C-201.9199981689453,94.0459976196289 -202.86000061035156,100.6259994506836 -203.47999572753906,107.10600280761719 C-204.11000061035156,113.58599853515625 -204.35000610351562,119.96600341796875 -204.3699951171875,126.28600311279297 C-204.41000366210938,132.6060028076172 -204.22000122070312,138.86599731445312 -203.85000610351562,145.0760040283203 C-203.5,151.28599548339844 -203,157.4459991455078 -202.35000610351562,163.5760040283203 C-201.0800018310547,175.8260040283203 -199.3000030517578,187.93600463867188 -197.1999969482422,199.95599365234375 C-195.07000732421875,211.98599243164062 -192.64999389648438,223.8459930419922 -189.72999572753906,235.74600219726562 C-189.3000030517578,237.51600646972656 -187.6300048828125,238.76600646972656 -185.75,238.6060028076172 C-183.67999267578125,238.42599487304688 -182.13999938964844,236.5959930419922 -182.32000732421875,234.5260009765625 C-182.32000732421875,234.5260009765625 -182.32000732421875,234.45599365234375 -182.32000732421875,234.45599365234375 C-183.3300018310547,222.61599731445312 -183.8800048828125,210.58599853515625 -184.1199951171875,198.67599487304688 C-184.3300018310547,186.74600219726562 -184.2100067138672,174.8459930419922 -183.58999633789062,163.05599975585938 C-183.3000030517578,157.156005859375 -182.8699951171875,151.28599548339844 -182.2899932861328,145.4759979248047 C-181.72999572753906,139.656005859375 -180.99000549316406,133.88600158691406 -180.07000732421875,128.21600341796875 C-179.16000366210938,122.5459976196289 -178.0500030517578,116.96600341796875 -176.66000366210938,111.58599853515625 C-176.0800018310547,109.33599853515625 -175.4499969482422,107.1259994506836 -174.77999877929688,104.95600128173828 C-174.77999877929688,104.95600128173828 -174.2899932861328,104.85600280761719 -174.2899932861328,104.85600280761719 C-171.22999572753906,104.24600219726562 -168.1999969482422,103.57599639892578 -165.17999267578125,102.88600158691406 C-159.14999389648438,101.48600006103516 -153.1699981689453,99.94599914550781 -147.22000122070312,98.25599670410156 C-140.25599670410156,96.29299926757812 -133.343994140625,94.11499786376953 -126.49099731445312,91.7229995727539 C-125.47599792480469,91.36900329589844 -124.73500061035156,90.49199676513672 -124.53399658203125,89.43499755859375 C-122.65699768066406,79.59300231933594 -119.80999755859375,70.08499908447266 -116.03700256347656,61.05099868774414 C-115.00700378417969,58.58399963378906 -117.47899627685547,56.09299850463867 -119.94599914550781,57.125 C-121.02300262451172,57.57600021362305 -122.1050033569336,58.01900100708008 -123.19000244140625,58.45600128173828z M-76.89600372314453,-21.670000076293945 C-76.89600372314453,-21.670000076293945 -180.47000122070312,-51.50400161743164 -180.47000122070312,-51.50400161743164 C-185.7100067138672,-57.98400115966797 -190.19000244140625,-65.65399932861328 -193.88999938964844,-73.91400146484375 C-198.36000061035156,-83.89399719238281 -201.77000427246094,-94.71399688720703 -204.39999389648438,-105.83399963378906 C-207.02000427246094,-116.96399688720703 -208.86000061035156,-128.4239959716797 -210.10000610351562,-140.00399780273438 C-210.7100067138672,-145.8040008544922 -211.1699981689453,-151.62399291992188 -211.47000122070312,-157.46400451660156 C-211.6300048828125,-160.38400268554688 -211.74000549316406,-163.31399536132812 -211.80999755859375,-166.23399353027344 C-211.8699951171875,-169.12399291992188 -211.89999389648438,-172.12399291992188 -211.85000610351562,-174.9040069580078 C-211.85000610351562,-174.9040069580078 -211.85000610351562,-175.0240020751953 -211.85000610351562,-175.0240020751953 C-211.7949981689453,-177.8179931640625 -214.00999450683594,-180.25100708007812 -216.9810028076172,-180.28599548339844 C-219.58999633789062,-180.3159942626953 -221.76699829101562,-178.2689971923828 -222.1649932861328,-175.6909942626953 C-222.63800048828125,-172.62399291992188 -223.00799560546875,-169.74200439453125 -223.35000610351562,-166.7740020751953 C-223.6999969482422,-163.75399780273438 -224,-160.73399353027344 -224.25999450683594,-157.70399475097656 C-224.77999877929688,-151.6439971923828 -225.13999938964844,-145.56399536132812 -225.33999633789062,-139.4739990234375 C-225.7100067138672,-127.27400207519531 -225.47000122070312,-114.98400115966797 -224.3000030517578,-102.6240005493164 C-223.1300048828125,-90.26399993896484 -221.07000732421875,-77.80400085449219 -217.47999572753906,-65.39399719238281 C-213.86000061035156,-53.013999938964844 -208.69000244140625,-40.56399917602539 -200.6699981689453,-29.02400016784668 C-199.77000427246094,-27.8439998626709 -198.67999267578125,-26.79400062561035 -197.44000244140625,-25.93400001525879 C-196.19000244140625,-25.073999404907227 -194.7899932861328,-24.40399932861328 -193.25,-23.964000701904297 C-193.25,-23.964000701904297 -193.0500030517578,-23.90399932861328 -193.0500030517578,-23.90399932861328 C-193.0500030517578,-23.90399932861328 -89.95999908447266,5.796000003814697 -89.95999908447266,5.796000003814697 C-101.73999786376953,7.196000099182129 -113.58000183105469,8.255999565124512 -125.41000366210938,8.97599983215332 C-137.9600067138672,9.715999603271484 -150.50999450683594,10.076000213623047 -163.02999877929688,9.946000099182129 C-175.5399932861328,9.855999946594238 -188,9.196000099182129 -200.36000061035156,8.055999755859375 C-200.36000061035156,8.055999755859375 -202.5,8.055999755859375 -202.5,8.055999755859375 C-206.94000244140625,8.086000442504883 -211.27999877929688,10.236000061035156 -213.9499969482422,14.185999870300293 C-214.1999969482422,14.576000213623047 -214.2899932861328,14.72599983215332 -214.44000244140625,14.965999603271484 C-214.44000244140625,14.965999603271484 -214.82000732421875,15.595999717712402 -214.82000732421875,15.595999717712402 C-214.82000732421875,15.595999717712402 -215.50999450683594,16.79599952697754 -215.50999450683594,16.79599952697754 C-215.9600067138672,17.586000442504883 -216.36000061035156,18.336000442504883 -216.77999877929688,19.106000900268555 C-217.58999633789062,20.63599967956543 -218.36000061035156,22.145999908447266 -219.10000610351562,23.6560001373291 C-220.5800018310547,26.68600082397461 -221.92999267578125,29.70599937438965 -223.2100067138672,32.74599838256836 C-225.77000427246094,38.816001892089844 -228.02000427246094,44.92599868774414 -230,51.09600067138672 C-233.9600067138672,63.43600082397461 -236.8800048828125,75.95600128173828 -238.94000244140625,88.5459976196289 C-239.92999267578125,94.84600067138672 -240.7899932861328,101.13600158691406 -241.3300018310547,107.45600128173828 C-241.66000366210938,110.60600280761719 -241.80999755859375,113.7760009765625 -242.0500030517578,116.9260025024414 C-242.1699981689453,120.08599853515625 -242.38999938964844,123.22599792480469 -242.4199981689453,126.3759994506836 C-242.7100067138672,138.98599243164062 -242.19000244140625,151.5260009765625 -240.9199981689453,163.93600463867188 C-240.7100067138672,166.04600524902344 -238.97000122070312,167.7259979248047 -236.8000030517578,167.8260040283203 C-234.41000366210938,167.92599487304688 -232.3800048828125,166.0659942626953 -232.27999877929688,163.67599487304688 C-232.27999877929688,163.67599487304688 -232.27999877929688,163.656005859375 -232.27999877929688,163.656005859375 C-231.77000427246094,151.54600524902344 -230.5,139.5260009765625 -228.5,127.70600128173828 C-228.0399932861328,124.74600219726562 -227.39999389648438,121.81600189208984 -226.86000061035156,118.8759994506836 C-226.1999969482422,115.95600128173828 -225.63999938964844,113.0260009765625 -224.88999938964844,110.13600158691406 C-223.5399932861328,104.33599853515625 -221.8800048828125,98.61599731445312 -220.1300048828125,92.96600341796875 C-216.5500030517578,81.6760025024414 -212.22999572753906,70.69599914550781 -207.10000610351562,60.24599838256836 C-204.5399932861328,55.01599884033203 -201.75999450683594,49.93600082397461 -198.80999755859375,45.04600143432617 C-197.47999572753906,42.84600067138672 -196.10000610351562,40.70600128173828 -194.69000244140625,38.61600112915039 C-184.22000122070312,39.40599822998047 -173.75999450683594,39.86600112915039 -163.32000732421875,39.94599914550781 C-150.0500030517578,40.08599853515625 -136.80999755859375,39.70600128173828 -123.62000274658203,38.92599868774414 C-117.31199645996094,38.53499984741211 -111.01300048828125,38.06700134277344 -104.7229995727539,37.50400161743164 C-103.8280029296875,37.42399978637695 -103.02200317382812,36.94300079345703 -102.51300048828125,36.202999114990234 C-99.45800018310547,31.757999420166016 -96.125,27.50200080871582 -92.52999877929688,23.465999603271484 C-87.38300323486328,17.674999237060547 -81.81099700927734,12.45300006866455 -75.8489990234375,7.816999912261963 C-72.5780029296875,5.2729997634887695 -71.13600158691406,1.0080000162124634 -72.25499725341797,-2.9820001125335693 C-73.58799743652344,-7.735000133514404 -74.47599792480469,-13.039999961853027 -74.72799682617188,-18.945999145507812 C-74.78299713134766,-20.224000930786133 -75.66699981689453,-21.31599998474121 -76.89600372314453,-21.670000076293945z M-120.76000213623047,-102.25399780273438 C-121.30999755859375,-112.51399993896484 -121.0999984741211,-122.84400177001953 -120.05000305175781,-133.1540069580078 C-118.75,-145.8040008544922 -116.22000122070312,-158.4040069580078 -112.44999694824219,-170.73399353027344 C-108.69000244140625,-183.06399536132812 -103.70999908447266,-195.11399841308594 -97.58999633789062,-206.6439971923828 C-94.5199966430664,-212.4040069580078 -91.16999816894531,-218.03399658203125 -87.54000091552734,-223.48399353027344 C-85.72000122070312,-226.20399475097656 -83.83000183105469,-228.87399291992188 -81.86000061035156,-231.48399353027344 C-80.87000274658203,-232.78399658203125 -79.87000274658203,-234.07400512695312 -78.83999633789062,-235.33399963378906 C-78.83999633789062,-235.33399963378906 -77.30000305175781,-237.19400024414062 -77.30000305175781,-237.19400024414062 C-76.79000091552734,-237.79400634765625 -76.22000122070312,-238.4340057373047 -75.77999877929688,-238.9340057373047 C-75.77999877929688,-238.9340057373047 -75.62999725341797,-239.093994140625 -75.62999725341797,-239.093994140625 C-74.11000061035156,-240.79400634765625 -74.04000091552734,-243.3939971923828 -75.55999755859375,-245.1739959716797 C-77.22000122070312,-247.12399291992188 -80.12999725341797,-247.35400390625 -82.08000183105469,-245.69400024414062 C-82.86000061035156,-245.0240020751953 -83.4800033569336,-244.48399353027344 -84.1500015258789,-243.87399291992188 C-84.1500015258789,-243.87399291992188 -86.08999633789062,-242.06399536132812 -86.08999633789062,-242.06399536132812 C-87.36000061035156,-240.85400390625 -88.5999984741211,-239.62399291992188 -89.81999969482422,-238.38400268554688 C-92.2699966430664,-235.88400268554688 -94.62999725341797,-233.32400512695312 -96.91999816894531,-230.69400024414062 C-101.5,-225.44400024414062 -105.80999755859375,-219.95399475097656 -109.8499984741211,-214.24400329589844 C-117.94000244140625,-202.843994140625 -124.95999908447266,-190.593994140625 -130.7899932861328,-177.71400451660156 C-136.6199951171875,-164.82400512695312 -141.22999572753906,-151.28399658203125 -144.5,-137.343994140625 C-147.77000427246094,-123.40399932861328 -149.67999267578125,-109.0739974975586 -150.27000427246094,-94.65399932861328 C-150.24000549316406,-92.6240005493164 -149.7899932861328,-90.59400177001953 -148.94000244140625,-88.71399688720703 C-148.0800018310547,-86.83399963378906 -146.82000732421875,-85.09400177001953 -145.16000366210938,-83.67400360107422 C-145.16000366210938,-83.67400360107422 -145.05999755859375,-83.58399963378906 -145.05999755859375,-83.58399963378906 C-145.05999755859375,-83.58399963378906 -79.48699951171875,-27.173999786376953 -79.48699951171875,-27.173999786376953 C-77.61699676513672,-25.565000534057617 -74.72100067138672,-26.768999099731445 -74.53700256347656,-29.229000091552734 C-73.89199829101562,-37.82699966430664 -72.03900146484375,-46.6870002746582 -69.11399841308594,-55.314998626708984 C-68.71800231933594,-56.483001708984375 -69.05400085449219,-57.77199935913086 -69.98899841308594,-58.57600021362305 C-69.98899841308594,-58.57600021362305 -120.76000213623047,-102.25399780273438 -120.76000213623047,-102.25399780273438z"></path></g><g opacity="1" transform="matrix(1,0,0,1,0,0)"><path fill="rgb(0,0,0)" fill-opacity="1" d=" M76.64299774169922,37.016998291015625 C66.30000305175781,25.39900016784668 53.90999984741211,16.506000518798828 40.19300079345703,10.645999908447266 C47.23400115966797,4.640999794006348 53.8489990234375,-5.454999923706055 53.8489990234375,-22.202999114990234 C53.8489990234375,-37.04899978637695 48.70000076293945,-54.21099853515625 40.07699966430664,-68.11100006103516 C39.448001861572266,-69.1259994506836 38.80400085449219,-70.10800170898438 38.1510009765625,-71.06900024414062 C46.625999450683594,-82.48999786376953 53.733001708984375,-102.00700378417969 41.895999908447266,-124.2020034790039 C38.64699935913086,-130.29299926757812 31.07699966430664,-132.5970001220703 24.985000610351562,-129.3489990234375 C18.89299964904785,-126.0999984741211 16.58799934387207,-118.52799987792969 19.836999893188477,-112.43699645996094 C23.687000274658203,-105.21800231933594 24.195999145507812,-98.47200012207031 21.39299964904785,-91.81400299072266 C20.97800064086914,-90.8280029296875 20.514999389648438,-89.91300201416016 20.035999298095703,-89.06700134277344 C13.57699966430664,-93.03700256347656 6.65500020980835,-95.13600158691406 -0.47600001096725464,-95.13600158691406 C-7.126999855041504,-95.13600158691406 -13.60099983215332,-93.32599639892578 -19.683000564575195,-89.86199951171875 C-19.89699935913086,-90.27100372314453 -20.106000900268555,-90.68800354003906 -20.305999755859375,-91.125 C-23.44499969482422,-98 -23.03499984741211,-104.97100067138672 -19.054000854492188,-112.43699645996094 C-15.805000305175781,-118.52799987792969 -18.108999252319336,-126.0999984741211 -24.201000213623047,-129.3489990234375 C-30.291000366210938,-132.5989990234375 -37.86399841308594,-130.29200744628906 -41.11199951171875,-124.2020034790039 C-52.53900146484375,-102.7770004272461 -46.3120002746582,-83.8479995727539 -38.24300003051758,-72.28700256347656 C-39.19300079345703,-70.94300079345703 -40.12799835205078,-69.56500244140625 -41.029998779296875,-68.11100006103516 C-49.652000427246094,-54.21099853515625 -54.80099868774414,-37.04899978637695 -54.80099868774414,-22.202999114990234 C-54.80099868774414,-5.454999923706055 -48.18600082397461,4.640999794006348 -41.14500045776367,10.645999908447266 C-54.862998962402344,16.506000518798828 -67.25299835205078,25.39900016784668 -77.59500122070312,37.016998291015625 C-96.70500183105469,58.48500061035156 -107.22899627685547,87.37100219726562 -107.22899627685547,118.35700225830078 C-107.22899627685547,147.8780059814453 -94.41999816894531,176.98500061035156 -71.16000366210938,200.31399536132812 C-49.95199966430664,221.5850067138672 -23.527999877929688,234.28399658203125 -0.47600001096725464,234.28399658203125 C23.167999267578125,234.28399658203125 49.83000183105469,221.56399536132812 70.84700012207031,200.2570037841797 C93.69499969482422,177.09500122070312 106.2770004272461,148.00799560546875 106.2770004272461,118.35700225830078 C106.2770004272461,87.37100219726562 95.75199890136719,58.48500061035156 76.64299774169922,37.016998291015625z M61.41600036621094,92.86100006103516 C60.77399826049805,94.54900360107422 50.10499954223633,121.73500061035156 20.266000747680664,149.447998046875 C28.895000457763672,155.1280059814453 38.65399932861328,160.50599670410156 49.667999267578125,165.24000549316406 C56.0099983215332,167.9669952392578 58.94200134277344,175.3179931640625 56.215999603271484,181.66099548339844 C54.180999755859375,186.3939971923828 49.57099914550781,189.22799682617188 44.72600173950195,189.22799682617188 C43.07899856567383,189.22799682617188 41.40399932861328,188.89999389648438 39.79499816894531,188.20899963378906 C24.486000061035156,181.6280059814453 11.303000450134277,173.98199462890625 -0.012000000104308128,165.93800354003906 C-11.32699966430664,173.98199462890625 -24.510000228881836,181.6280059814453 -39.819000244140625,188.20899963378906 C-41.428001403808594,188.89999389648438 -43.104000091552734,189.22799682617188 -44.75,189.22799682617188 C-49.595001220703125,189.22799682617188 -54.20500183105469,186.3939971923828 -56.2400016784668,181.66099548339844 C-58.965999603271484,175.3179931640625 -56.034000396728516,167.9669952392578 -49.69200134277344,165.24000549316406 C-38.654998779296875,160.49600219726562 -28.889999389648438,155.1300048828125 -20.261999130249023,149.4739990234375 C-50.12200164794922,121.75199890136719 -60.79800033569336,94.54900360107422 -61.439998626708984,92.86100006103516 C-63.893001556396484,86.40799713134766 -60.650001525878906,79.18800354003906 -54.196998596191406,76.73500061035156 C-47.75899887084961,74.28800201416016 -40.55699920654297,77.51100158691406 -38.0880012512207,83.93699645996094 C-37.90999984741211,84.39199829101562 -27.9060001373291,109.23100280761719 0.05299999937415123,133.9929962158203 C28.163000106811523,109.15599822998047 37.9109992980957,84.33799743652344 38.047000885009766,83.97899627685547 C40.5,77.5250015258789 47.72100067138672,74.28199768066406 54.17300033569336,76.73500061035156 C60.625999450683594,79.18800354003906 63.86899948120117,86.40799713134766 61.41600036621094,92.86100006103516z"></path></g><g opacity="1" transform="matrix(1,0,0,1,0,0)"><path fill="rgb(0,0,0)" fill-opacity="1" d=" M119.94599914550781,57.125 C117.47899627685547,56.09299850463867 115.00700378417969,58.58399963378906 116.03700256347656,61.05099868774414 C119.80999755859375,70.08499908447266 122.65699768066406,79.59300231933594 124.53399658203125,89.43499755859375 C124.73500061035156,90.49199676513672 125.47599792480469,91.36900329589844 126.49099731445312,91.7229995727539 C133.343994140625,94.11499786376953 140.25599670410156,96.29299926757812 147.22000122070312,98.25599670410156 C153.1699981689453,99.94599914550781 159.14999389648438,101.48600006103516 165.17999267578125,102.88600158691406 C168.1999969482422,103.57599639892578 171.22999572753906,104.24600219726562 174.2899932861328,104.85600280761719 C174.2899932861328,104.85600280761719 174.77999877929688,104.95600128173828 174.77999877929688,104.95600128173828 C175.4499969482422,107.1259994506836 176.0800018310547,109.33599853515625 176.66000366210938,111.58599853515625 C178.0500030517578,116.96600341796875 179.16000366210938,122.5459976196289 180.07000732421875,128.21600341796875 C180.99000549316406,133.88600158691406 181.72999572753906,139.656005859375 182.2899932861328,145.4759979248047 C182.8699951171875,151.28599548339844 183.3000030517578,157.156005859375 183.58999633789062,163.05599975585938 C184.2100067138672,174.8459930419922 184.3300018310547,186.74600219726562 184.1199951171875,198.67599487304688 C183.8800048828125,210.58599853515625 183.3300018310547,222.61599731445312 182.32000732421875,234.45599365234375 C182.32000732421875,234.45599365234375 182.32000732421875,234.5260009765625 182.32000732421875,234.5260009765625 C182.13999938964844,236.5959930419922 183.67999267578125,238.42599487304688 185.75,238.6060028076172 C187.6300048828125,238.76600646972656 189.3000030517578,237.51600646972656 189.72999572753906,235.74600219726562 C192.64999389648438,223.8459930419922 195.07000732421875,211.98599243164062 197.1999969482422,199.95599365234375 C199.3000030517578,187.93600463867188 201.0800018310547,175.8260040283203 202.35000610351562,163.5760040283203 C203,157.4459991455078 203.5,151.28599548339844 203.85000610351562,145.0760040283203 C204.22000122070312,138.86599731445312 204.41000366210938,132.6060028076172 204.3699951171875,126.28600311279297 C204.35000610351562,119.96600341796875 204.11000061035156,113.58599853515625 203.47999572753906,107.10600280761719 C202.86000061035156,100.6259994506836 201.9199981689453,94.0459976196289 200.35000610351562,87.33599853515625 C199.08999633789062,81.90599822998047 194.6999969482422,78.0260009765625 189.52999877929688,77.15599822998047 C189.52999877929688,77.15599822998047 188.2899932861328,76.94599914550781 188.2899932861328,76.94599914550781 C188.2899932861328,76.94599914550781 186.41000366210938,76.63600158691406 186.41000366210938,76.63600158691406 C186.41000366210938,76.63600158691406 184.3800048828125,76.26599884033203 184.3800048828125,76.26599884033203 C184.3800048828125,76.26599884033203 180.25,75.45600128173828 180.25,75.45600128173828 C177.47999572753906,74.90599822998047 174.7100067138672,74.28600311279297 171.94000244140625,73.65599822998047 C166.39999389648438,72.36599731445312 160.8699951171875,70.94599914550781 155.39999389648438,69.39600372314453 C144.42999267578125,66.2959976196289 133.64999389648438,62.65599822998047 123.19000244140625,58.45600128173828 C122.1050033569336,58.01900100708008 121.02300262451172,57.57600021362305 119.94599914550781,57.125z M74.72799682617188,-18.945999145507812 C74.47599792480469,-13.039999961853027 73.58799743652344,-7.735000133514404 72.25499725341797,-2.9820001125335693 C71.13600158691406,1.0080000162124634 72.5780029296875,5.2729997634887695 75.8489990234375,7.816999912261963 C81.81099700927734,12.45300006866455 87.38300323486328,17.674999237060547 92.52999877929688,23.465999603271484 C96.125,27.50200080871582 99.45800018310547,31.757999420166016 102.51300048828125,36.202999114990234 C103.02200317382812,36.94300079345703 103.8280029296875,37.42399978637695 104.7229995727539,37.50400161743164 C111.01300048828125,38.06700134277344 117.31199645996094,38.53499984741211 123.62000274658203,38.92599868774414 C136.80999755859375,39.70600128173828 150.0500030517578,40.08599853515625 163.32000732421875,39.94599914550781 C173.75999450683594,39.86600112915039 184.22000122070312,39.40599822998047 194.69000244140625,38.61600112915039 C196.10000610351562,40.70600128173828 197.47999572753906,42.84600067138672 198.80999755859375,45.04600143432617 C201.75999450683594,49.93600082397461 204.5399932861328,55.01599884033203 207.10000610351562,60.24599838256836 C212.22999572753906,70.69599914550781 216.5500030517578,81.6760025024414 220.1300048828125,92.96600341796875 C221.8800048828125,98.61599731445312 223.5399932861328,104.33599853515625 224.88999938964844,110.13600158691406 C225.63999938964844,113.0260009765625 226.1999969482422,115.95600128173828 226.86000061035156,118.8759994506836 C227.39999389648438,121.81600189208984 228.0399932861328,124.74600219726562 228.5,127.70600128173828 C230.5,139.5260009765625 231.77000427246094,151.54600524902344 232.27999877929688,163.656005859375 C232.27999877929688,163.656005859375 232.27999877929688,163.67599487304688 232.27999877929688,163.67599487304688 C232.3800048828125,166.0659942626953 234.41000366210938,167.92599487304688 236.8000030517578,167.8260040283203 C238.97000122070312,167.7259979248047 240.7100067138672,166.04600524902344 240.9199981689453,163.93600463867188 C242.19000244140625,151.5260009765625 242.7100067138672,138.98599243164062 242.4199981689453,126.3759994506836 C242.38999938964844,123.22599792480469 242.1699981689453,120.08599853515625 242.0500030517578,116.9260025024414 C241.80999755859375,113.7760009765625 241.66000366210938,110.60600280761719 241.3300018310547,107.45600128173828 C240.7899932861328,101.13600158691406 239.92999267578125,94.84600067138672 238.94000244140625,88.5459976196289 C236.8800048828125,75.95600128173828 233.9600067138672,63.43600082397461 230,51.09600067138672 C228.02000427246094,44.92599868774414 225.77000427246094,38.816001892089844 223.2100067138672,32.74599838256836 C221.92999267578125,29.70599937438965 220.5800018310547,26.68600082397461 219.10000610351562,23.6560001373291 C218.36000061035156,22.145999908447266 217.58999633789062,20.63599967956543 216.77999877929688,19.106000900268555 C216.36000061035156,18.336000442504883 215.9600067138672,17.586000442504883 215.50999450683594,16.79599952697754 C215.50999450683594,16.79599952697754 214.82000732421875,15.595999717712402 214.82000732421875,15.595999717712402 C214.82000732421875,15.595999717712402 214.44000244140625,14.965999603271484 214.44000244140625,14.965999603271484 C214.2899932861328,14.72599983215332 214.1999969482422,14.576000213623047 213.9499969482422,14.185999870300293 C211.27999877929688,10.236000061035156 206.94000244140625,8.086000442504883 202.5,8.055999755859375 C202.5,8.055999755859375 200.36000061035156,8.055999755859375 200.36000061035156,8.055999755859375 C188,9.196000099182129 175.5399932861328,9.855999946594238 163.02999877929688,9.946000099182129 C150.50999450683594,10.076000213623047 137.9600067138672,9.715999603271484 125.41000366210938,8.97599983215332 C113.58000183105469,8.255999565124512 101.73999786376953,7.196000099182129 89.95999908447266,5.796000003814697 C89.95999908447266,5.796000003814697 193.0500030517578,-23.90399932861328 193.0500030517578,-23.90399932861328 C193.0500030517578,-23.90399932861328 193.25,-23.964000701904297 193.25,-23.964000701904297 C194.7899932861328,-24.40399932861328 196.19000244140625,-25.073999404907227 197.44000244140625,-25.93400001525879 C198.67999267578125,-26.79400062561035 199.77000427246094,-27.8439998626709 200.6699981689453,-29.02400016784668 C208.69000244140625,-40.56399917602539 213.86000061035156,-53.013999938964844 217.47999572753906,-65.39399719238281 C221.07000732421875,-77.80400085449219 223.1300048828125,-90.26399993896484 224.3000030517578,-102.6240005493164 C225.47000122070312,-114.98400115966797 225.7100067138672,-127.27400207519531 225.33999633789062,-139.4739990234375 C225.13999938964844,-145.56399536132812 224.77999877929688,-151.6439971923828 224.25999450683594,-157.70399475097656 C224,-160.73399353027344 223.6999969482422,-163.75399780273438 223.35000610351562,-166.7740020751953 C223.00799560546875,-169.74200439453125 222.63800048828125,-172.62399291992188 222.1649932861328,-175.6909942626953 C221.76699829101562,-178.2689971923828 219.58999633789062,-180.3159942626953 216.9810028076172,-180.28599548339844 C214.00999450683594,-180.25100708007812 211.7949981689453,-177.8179931640625 211.85000610351562,-175.0240020751953 C211.85000610351562,-175.0240020751953 211.85000610351562,-174.9040069580078 211.85000610351562,-174.9040069580078 C211.89999389648438,-172.12399291992188 211.8699951171875,-169.12399291992188 211.80999755859375,-166.23399353027344 C211.74000549316406,-163.31399536132812 211.6300048828125,-160.38400268554688 211.47000122070312,-157.46400451660156 C211.1699981689453,-151.62399291992188 210.7100067138672,-145.8040008544922 210.10000610351562,-140.00399780273438 C208.86000061035156,-128.4239959716797 207.02000427246094,-116.96399688720703 204.39999389648438,-105.83399963378906 C201.77000427246094,-94.71399688720703 198.36000061035156,-83.89399719238281 193.88999938964844,-73.91400146484375 C190.19000244140625,-65.65399932861328 185.7100067138672,-57.98400115966797 180.47000122070312,-51.50400161743164 C180.47000122070312,-51.50400161743164 76.89600372314453,-21.670000076293945 76.89600372314453,-21.670000076293945 C75.66699981689453,-21.31599998474121 74.78299713134766,-20.224000930786133 74.72799682617188,-18.945999145507812z M69.98899841308594,-58.57600021362305 C69.05400085449219,-57.77199935913086 68.71800231933594,-56.483001708984375 69.11399841308594,-55.314998626708984 C72.03900146484375,-46.6870002746582 73.89199829101562,-37.82699966430664 74.53700256347656,-29.229000091552734 C74.72100067138672,-26.768999099731445 77.61699676513672,-25.565000534057617 79.48699951171875,-27.173999786376953 C79.48699951171875,-27.173999786376953 145.05999755859375,-83.58399963378906 145.05999755859375,-83.58399963378906 C145.05999755859375,-83.58399963378906 145.16000366210938,-83.67400360107422 145.16000366210938,-83.67400360107422 C146.82000732421875,-85.09400177001953 148.0800018310547,-86.83399963378906 148.94000244140625,-88.71399688720703 C149.7899932861328,-90.59400177001953 150.24000549316406,-92.6240005493164 150.27000427246094,-94.65399932861328 C149.67999267578125,-109.0739974975586 147.77000427246094,-123.40399932861328 144.5,-137.343994140625 C141.22999572753906,-151.28399658203125 136.6199951171875,-164.82400512695312 130.7899932861328,-177.71400451660156 C124.95999908447266,-190.593994140625 117.94000244140625,-202.843994140625 109.8499984741211,-214.24400329589844 C105.80999755859375,-219.95399475097656 101.5,-225.44400024414062 96.91999816894531,-230.69400024414062 C94.62999725341797,-233.32400512695312 92.2699966430664,-235.88400268554688 89.81999969482422,-238.38400268554688 C88.5999984741211,-239.62399291992188 87.36000061035156,-240.85400390625 86.08999633789062,-242.06399536132812 C86.08999633789062,-242.06399536132812 84.1500015258789,-243.87399291992188 84.1500015258789,-243.87399291992188 C83.4800033569336,-244.48399353027344 82.86000061035156,-245.0240020751953 82.08000183105469,-245.69400024414062 C80.12999725341797,-247.35400390625 77.22000122070312,-247.12399291992188 75.55999755859375,-245.1739959716797 C74.04000091552734,-243.3939971923828 74.11000061035156,-240.79400634765625 75.62999725341797,-239.093994140625 C75.62999725341797,-239.093994140625 75.77999877929688,-238.9340057373047 75.77999877929688,-238.9340057373047 C76.22000122070312,-238.4340057373047 76.79000091552734,-237.79400634765625 77.30000305175781,-237.19400024414062 C77.30000305175781,-237.19400024414062 78.83999633789062,-235.33399963378906 78.83999633789062,-235.33399963378906 C79.87000274658203,-234.07400512695312 80.87000274658203,-232.78399658203125 81.86000061035156,-231.48399353027344 C83.83000183105469,-228.87399291992188 85.72000122070312,-226.20399475097656 87.54000091552734,-223.48399353027344 C91.16999816894531,-218.03399658203125 94.5199966430664,-212.4040069580078 97.58999633789062,-206.6439971923828 C103.70999908447266,-195.11399841308594 108.69000244140625,-183.06399536132812 112.44999694824219,-170.73399353027344 C116.22000122070312,-158.4040069580078 118.75,-145.8040008544922 120.05000305175781,-133.1540069580078 C121.0999984741211,-122.84400177001953 121.30999755859375,-112.51399993896484 120.76000213623047,-102.25399780273438 C120.76000213623047,-102.25399780273438 69.98899841308594,-58.57600021362305 69.98899841308594,-58.57600021362305z"></path></g></g></g></svg>