<svg xmlns="http://www.w3.org/2000/svg" xmlns:xlink="http://www.w3.org/1999/xlink" viewBox="0 0 512 512" width="512" height="512" style="width: 100%; height: 100%; transform: translate3d(0,0,0);" preserveAspectRatio="xMidYMid meet"><defs><clipPath id="__lottie_element_51655"><rect width="512" height="512" x="0" y="0"></rect></clipPath></defs><g clip-path="url(#__lottie_element_51655)"><g style="display: block;" transform="matrix(1.9126900434494019,0,0,1.9126900434494019,-231.64865112304688,-293.6486511230469)" opacity="1"><g opacity="1" transform="matrix(1,0,0,1,250.88800048828125,284.39300537109375)"><path fill="rgb(0,0,0)" fill-opacity="1" d=" M1.0329999923706055,-117.39299774169922 C1.0329999923706055,-117.39299774169922 -100.19400024414062,-34.573001861572266 -89.86499786376953,44.7760009765625 C-85.61799621582031,77.40299987792969 -63.9010009765625,109.63300323486328 -19.523000717163086,116.07099914550781 C-1.4270000457763672,118.69599914550781 24.979000091552734,116.42900085449219 41.9900016784668,112.75299835205078 C89.90899658203125,97.93699645996094 100.19400024414062,56.340999603271484 100.19400024414062,38.57899856567383 C100.19400024414062,-43.02299880981445 1.0329999923706055,-117.39299774169922 1.0329999923706055,-117.39299774169922z M-44.41600036621094,-6.869999885559082 C-49.00299835205078,-8.39799976348877 -51.20100021362305,-23.84600067138672 -43.382999420166016,-34.75899887084961 C-36.369998931884766,-44.54899978637695 -22.784000396728516,-48.61399841308594 -19.625999450683594,-45.0880012512207 C-14.057000160217285,-38.869998931884766 -36.65599822998047,-4.284999847412109 -44.41600036621094,-6.869999885559082z"></path></g></g></g></svg>