<svg xmlns="http://www.w3.org/2000/svg" xmlns:xlink="http://www.w3.org/1999/xlink" viewBox="0 0 512 512" width="512" height="512" style="width: 100%; height: 100%; transform: translate3d(0,0,0);" preserveAspectRatio="xMidYMid meet"><defs><clipPath id="__lottie_element_53704"><rect width="512" height="512" x="0" y="0"></rect></clipPath></defs><g clip-path="url(#__lottie_element_53704)"><g style="display: block;" transform="matrix(1,0,0,1,-1752.6390380859375,-3.967987060546875)" opacity="1"><g opacity="1" transform="matrix(1,0,0,1,1971.7149658203125,445.3479919433594)"><path fill="rgb(0,0,0)" fill-opacity="1" d=" M34.84299850463867,10.97700023651123 C34.24300003051758,2.177000045776367 30.299999237060547,-9.628999710083008 23.118999481201172,-24.111000061035156 C20.347000122070312,-29.70400047302246 17.777999877929688,-34.3129997253418 16.11199951171875,-37.194000244140625 C12.442999839782715,-43.53900146484375 8.977999687194824,-49.53099822998047 0.28200000524520874,-49.694000244140625 C0.09600000083446503,-49.698001861572266 -0.09099999815225601,-49.698001861572266 -0.2800000011920929,-49.694000244140625 C-8.97700023651123,-49.53200149536133 -12.442000389099121,-43.53900146484375 -16.111000061035156,-37.19499969482422 C-17.777999877929688,-34.3129997253418 -20.347000122070312,-29.704999923706055 -23.1200008392334,-24.111000061035156 C-30.301000595092773,-9.628999710083008 -34.24399948120117,2.177000045776367 -34.84299850463867,10.97700023651123 C-35.564998626708984,21.58099937438965 -32.24399948120117,31.416000366210938 -25.493000030517578,38.66699981689453 C-18.9950008392334,45.64500045776367 -9.732000350952148,49.665000915527344 -0.028999999165534973,49.696998596191406 C0.04100000113248825,49.696998596191406 0.1120000034570694,49.69599914550781 0.18299999833106995,49.69499969482422 C9.79699993133545,49.6349983215332 19.016000747680664,45.61899948120117 25.489999771118164,38.667999267578125 C32.24300003051758,31.41699981689453 35.56399917602539,21.58300018310547 34.84299850463867,10.977999687194824 C34.84299850463867,10.977999687194824 34.84299850463867,10.97700023651123 34.84299850463867,10.97700023651123z"></path></g><g opacity="1" transform="matrix(1,0,0,1,1878.8990478515625,244.49899291992188)"><path fill="rgb(0,0,0)" fill-opacity="1" d=" M88.27300262451172,127.95500183105469 C91.45600128173828,127.95500183105469 94.62699890136719,126.94599914550781 97.28299713134766,124.94200134277344 C102.25399780273438,121.19200134277344 104.39700317382812,114.78299713134766 102.65799713134766,108.80400085449219 C102.58799743652344,108.55999755859375 96.40599822998047,86.18199920654297 100.81999969482422,59.104000091552734 C101.21299743652344,56.69499969482422 99.81600189208984,54.35200119018555 97.49099731445312,53.60900115966797 C90.7229995727539,51.44499969482422 83.87300109863281,48.15299987792969 77.86499786376953,43.18000030517578 C67.82099914550781,34.867000579833984 61.87300109863281,23.066999435424805 60.66699981689453,9.055999755859375 C59.395999908447266,-5.7170000076293945 57.84299850463867,-19.70599937438965 52.87799835205078,-28.509000778198242 C49.71900177001953,-34.112998962402344 44.224998474121094,-40.124000549316406 27.433000564575195,-42.22200012207031 C4.668000221252441,-45.066001892089844 -11.505000114440918,-54.17599868774414 -20.63800048828125,-69.3010025024414 C-26.332000732421875,-78.7300033569336 -28.957000732421875,-90.25700378417969 -28.527999877929688,-103.47699737548828 C-28.451000213623047,-105.85399627685547 -30.03700065612793,-107.95800018310547 -32.358001708984375,-108.4739990234375 C-47.40399932861328,-111.81900024414062 -63.78300094604492,-117.77999877929688 -81.44599914550781,-126.35800170898438 C-85.91300201416016,-128.52699279785156 -91.22000122070312,-128.531005859375 -95.55000305175781,-126.0999984741211 C-101.79100036621094,-122.59600067138672 -104.58799743652344,-115.375 -102.64700317382812,-108.76300048828125 C-102.2030029296875,-107.2490005493164 -91.44100189208984,-71.14600372314453 -63.558998107910156,-24.18899917602539 C-37.86199951171875,19.08799934387207 7.948999881744385,80.21299743652344 80.26200103759766,125.64600372314453 C82.71700286865234,127.18900299072266 85.4990005493164,127.95500183105469 88.27300262451172,127.95500183105469z"></path></g><g opacity="1" transform="matrix(1,0,0,1,2058.47412109375,221.68099975585938)"><path fill="rgb(0,0,0)" fill-opacity="1" d=" M178.99200439453125,151.2220001220703 C178.99200439453125,151.2220001220703 -68.66899871826172,-187.39999389648438 -68.66899871826172,-187.39999389648438 C-72.2020034790039,-192.281005859375 -77.41999816894531,-195.50399780273438 -83.36900329589844,-196.48199462890625 C-89.35600280761719,-197.468994140625 -95.35900115966797,-196.0590057373047 -100.28099822998047,-192.52499389648438 C-100.28099822998047,-192.52499389648438 -104.70899963378906,-189.3470001220703 -104.70899963378906,-189.3470001220703 C-114.82499694824219,-182.08399963378906 -117.18499755859375,-167.97900390625 -110.01300048828125,-157.8249969482422 C-110.01300048828125,-157.8249969482422 -104.66000366210938,-150.06100463867188 -104.66000366210938,-150.06100463867188 C-108.5469970703125,-136.0780029296875 -120.0199966430664,-105.24099731445312 -148.17999267578125,-90.7249984741211 C-157.22799682617188,-86.05999755859375 -167.3520050048828,-83.3759994506836 -178.50799560546875,-82.65399932861328 C-181.10400390625,-82.48600006103516 -183.16600036621094,-80.36799621582031 -183.16000366210938,-77.76699829101562 C-183.14300537109375,-70.41600036621094 -181.70700073242188,-64.197998046875 -178.81300354003906,-59.40599822998047 C-173.83900451660156,-51.16999816894531 -163.82200622558594,-46.05799865722656 -149.04200744628906,-44.21099853515625 C-99.83699798583984,-38.064998626708984 -96.5999984741211,-0.4740000069141388 -93.9990005493164,29.729999542236328 C-93.36299896240234,37.11899948120117 -90.6709976196289,42.68199920654297 -85.7699966430664,46.7400016784668 C-82.51499938964844,49.433998107910156 -78.45500183105469,51.32600021362305 -74.22100067138672,52.63800048828125 C-71.94400024414062,53.34400177001953 -69.49199676513672,52.316001892089844 -68.39299774169922,50.20000076293945 C-56.073001861572266,26.468000411987305 -34.41299819946289,8.456999778747559 -3.6689999103546143,-3.5810000896453857 C-3.6689999103546143,-3.5810000896453857 128.08999633789062,187.5260009765625 128.08999633789062,187.5260009765625 C131.40199279785156,192.2969970703125 136.37600708007812,195.4709930419922 142.09800720214844,196.46499633789062 C143.3470001220703,196.68299865722656 144.5959930419922,196.78900146484375 145.83599853515625,196.78900146484375 C150.27999877929688,196.78900146484375 154.60499572753906,195.41400146484375 158.2989959716797,192.7760009765625 C158.2989959716797,192.7760009765625 173.65899658203125,181.81700134277344 173.65899658203125,181.81700134277344 C178.48399353027344,178.37399291992188 181.93800354003906,173.22300720214844 182.8800048828125,167.37100219726562 C183.8040008544922,161.62899780273438 182.41700744628906,155.88600158691406 178.99200439453125,151.2220001220703z"></path></g></g></g></svg>