<svg xmlns="http://www.w3.org/2000/svg" xmlns:xlink="http://www.w3.org/1999/xlink" viewBox="0 0 512 512" width="512" height="512" style="width: 100%; height: 100%; transform: translate3d(0,0,0);" preserveAspectRatio="xMidYMid meet"><defs><clipPath id="__lottie_element_15701"><rect width="512" height="512" x="0" y="0"></rect></clipPath></defs><g clip-path="url(#__lottie_element_15701)"><g style="display: block;" transform="matrix(1,0,0,1,12.3699951171875,8.629989624023438)" opacity="1"><g opacity="1" transform="matrix(0.9975640773773193,0.06975647062063217,-0.06975647062063217,0.9975640773773193,182.28500366210938,324.44000244140625)"><path fill="rgb(0,0,0)" fill-opacity="1" d=" M177.36399841308594,-0.7699999809265137 C135.28500366210938,-72.08000183105469 82.59500122070312,-39.61000061035156 79.78500366210938,-54.61000061035156 C77.76499938964844,-65.37999725341797 113.875,-74.0510025024414 124.28500366210938,-113.61000061035156 C131.78500366210938,-142.11000061035156 100.28500366210938,-180.60000610351562 62.78499984741211,-170.16000366210938 C18.434999465942383,-157.82000732421875 9.28499984741211,-89.11000061035156 -1.215000033378601,-92.11000061035156 C-14.3149995803833,-95.8499984741211 -13.21500015258789,-147.61000061035156 -63.915000915527344,-167.4600067138672 C-92.66500091552734,-178.7100067138672 -133.7050018310547,-153.61000061035156 -128.77499389648438,-115.4800033569336 C-121.15499877929688,-56.55099868774414 -65.3949966430664,-56.02000045776367 -68.70500183105469,-41.11000061035156 C-71.70500183105469,-27.610000610351562 -146.7050018310547,-36.61000061035156 -168.6649932861328,1.1799999475479126 C-190.03500366210938,37.939998626708984 -175.26499938964844,81.37000274658203 -139.2050018310547,86.37999725341797 C-85.20500183105469,93.87999725341797 -52.584999084472656,39.869998931884766 -37.20500183105469,42.880001068115234 C-24.514999389648438,45.369998931884766 -58.20500183105469,98.37999725341797 -28.21500015258789,149.3800048828125 C-9.845000267028809,180.60000610351562 57.48400115966797,172.52999877929688 67.78500366210938,138.8800048828125 C90.28500366210938,65.37999725341797 36.935001373291016,34.27000045776367 58.78499984741211,29.389999389648438 C70.11399841308594,26.850000381469727 67.78500366210938,45.880001068115234 132.28500366210938,57.880001068115234 C170.625,65.0199966430664 190.03500366210938,20.698999404907227 177.36399841308594,-0.7699999809265137z M13.295000076293945,11.720000267028809 C4.284999847412109,11.720000267028809 -3.4049999713897705,6.039999961853027 -6.394999980926514,-1.9299999475479126 C-8.1850004196167,-1.6299999952316284 -10.045000076293945,-1.4800000190734863 -11.954999923706055,-1.4800000190734863 C-25.905000686645508,-1.4800000190734863 -37.20500183105469,-9.680000305175781 -37.20500183105469,-19.801000595092773 C-37.20500183105469,-29.90999984741211 -25.905000686645508,-38.11000061035156 -11.954999923706055,-38.11000061035156 C-11.614999771118164,-38.11000061035156 -11.28499984741211,-38.11000061035156 -10.954999923706055,-38.09000015258789 C-10.904999732971191,-51.369998931884766 -3.315000057220459,-62.11000061035156 6.054999828338623,-62.11000061035156 C15.444999694824219,-62.11000061035156 23.05500030517578,-51.290000915527344 23.05500030517578,-37.95000076293945 C23.05500030517578,-34.61000061035156 22.575000762939453,-31.420000076293945 21.71500015258789,-28.530000686645508 C29.125,-25.290000915527344 34.29499816894531,-17.889999389648438 34.29499816894531,-9.289999961853027 C34.29499816894531,2.309999942779541 24.895000457763672,11.720000267028809 13.295000076293945,11.720000267028809z"></path></g><g opacity="1" transform="matrix(1.0199999809265137,0,0,1.0199999809265137,411.4540100097656,244.5500030517578)"><path fill="rgb(0,0,0)" fill-opacity="1" d=" M81.42500305175781,14.970000267028809 C67.71499633789062,-19.90999984741211 41.845001220703125,-9.15999984741211 41.66600036621094,-16.06999969482422 C41.525001525878906,-21.020000457763672 58.2859992980957,-22.31999969482422 65.76499938964844,-39.2599983215332 C71.15599822998047,-51.459999084472656 59.82600021362305,-70.91999816894531 42.314998626708984,-68.93000030517578 C21.615999221801758,-66.58000183105469 12.616000175476074,-36.52000045776367 8.135000228881836,-38.619998931884766 C2.5460000038146973,-41.22999954223633 6.745999813079834,-64.27999877929688 -14.503999710083008,-76.7699966430664 C-26.54400062561035,-83.86000061035156 -46.685001373291016,-75.56999969482422 -47.20399856567383,-58.16999816894531 C-48.01499938964844,-31.290000915527344 -23.124000549316406,-27.06999969482422 -25.673999786376953,-20.639999389648438 C-27.975000381469727,-14.829999923706055 -60.85499954223633,-24.209999084472656 -73.3740005493164,-8.890000343322754 C-85.55500030517578,6.019999980926514 -82.05500030517578,26.489999771118164 -66.29399871826172,31.299999237060547 C-42.69499969482422,38.5099983215332 -24.253999710083008,16.700000762939453 -17.5939998626709,19.149999618530273 C-12.104999542236328,21.170000076293945 -30.94499969482422,42.45000076293945 -21.184999465942383,67.38999938964844 C-15.204000473022461,82.66000366210938 15.46500015258789,83.86000061035156 22.475000381469727,69.55999755859375 C37.775001525878906,38.310001373291016 16.1560001373291,20.600000381469727 26.274999618530273,19.969999313354492 C31.514999389648438,19.649999618530273 29.115999221801758,27.989999771118164 57.08599853515625,37.959999084472656 C73.71499633789062,43.88999938964844 85.55500030517578,25.469999313354492 81.42500305175781,14.970000267028809z M1.9850000143051147,8.029999732971191 C-4.025000095367432,8.029999732971191 -8.895000457763672,3.1600000858306885 -8.895000457763672,-2.8399999141693115 C-8.895000457763672,-8.850000381469727 -4.025000095367432,-13.720000267028809 1.9850000143051147,-13.720000267028809 C7.985000133514404,-13.720000267028809 12.854999542236328,-8.850000381469727 12.854999542236328,-2.8399999141693115 C12.854999542236328,3.1600000858306885 7.985000133514404,8.029999732971191 1.9850000143051147,8.029999732971191z"></path></g><g opacity="1" transform="matrix(1,0,0,1,204.25,85.28500366210938)"><path fill="rgb(0,0,0)" fill-opacity="1" d=" M84.8499984741211,0.5550000071525574 C73.80000305175781,-17.235000610351562 36.06999969482422,-12.994999885559082 34.560001373291016,-19.354999542236328 C32.900001525878906,-26.375 60.95000076293945,-26.625 64.77999877929688,-54.3650016784668 C67.26000213623047,-72.32499694824219 46.619998931884766,-84.1449966430664 32.150001525878906,-78.84500122070312 C6.639999866485596,-69.49500274658203 7.199999809265137,-45.125 0.6100000143051147,-43.3650016784668 C-4.670000076293945,-41.95500183105469 -9.279999732971191,-74.30500030517578 -31.59000015258789,-80.11499786376953 C-50.45000076293945,-85.03500366210938 -66.30000305175781,-66.90499877929688 -62.52000045776367,-53.48500061035156 C-57.290000915527344,-34.8650016784668 -39.119998931884766,-30.78499984741211 -40.13999938964844,-25.71500015258789 C-41.54999923706055,-18.645000457763672 -68.05999755859375,-33.935001373291016 -89.2300033569336,-0.35499998927116394 C-95.5999984741211,9.744999885559082 -85.83999633789062,30.614999771118164 -66.55000305175781,27.2549991607666 C-34.099998474121094,21.604999542236328 -35.27000045776367,12.645000457763672 -29.579999923706055,13.835000038146973 C-18.579999923706055,16.135000228881836 -45.41999816894531,30.78499984741211 -34.099998474121094,65.3949966430664 C-28.920000076293945,81.23500061035156 4.949999809265137,85.03500366210938 14.1899995803833,70.33499908447266 C29.280000686645508,46.32500076293945 12.329999923706055,21.364999771118164 18.719999313354492,20.19499969482422 C26.450000762939453,18.774999618530273 42.86000061035156,44.20500183105469 70.02999877929688,40.67499923706055 C88.16999816894531,38.314998626708984 95.5999984741211,17.864999771118164 84.8499984741211,0.5550000071525574z M0.23000000417232513,7.284999847412109 C-6.869999885559082,7.284999847412109 -12.630000114440918,1.524999976158142 -12.630000114440918,-5.585000038146973 C-12.630000114440918,-12.6850004196167 -6.869999885559082,-18.44499969482422 0.23000000417232513,-18.44499969482422 C7.329999923706055,-18.44499969482422 13.09000015258789,-12.6850004196167 13.09000015258789,-5.585000038146973 C13.09000015258789,1.524999976158142 7.329999923706055,7.284999847412109 0.23000000417232513,7.284999847412109z"></path></g></g></g></svg>