<svg xmlns="http://www.w3.org/2000/svg" xmlns:xlink="http://www.w3.org/1999/xlink" viewBox="0 0 512 512" width="512" height="512" style="width: 100%; height: 100%; transform: translate3d(0,0,0);" preserveAspectRatio="xMidYMid meet"><defs><clipPath id="__lottie_element_53070"><rect width="512" height="512" x="0" y="0"></rect></clipPath></defs><g clip-path="url(#__lottie_element_53070)"><g style="display: block;" transform="matrix(1,0,0,1,256,256)" opacity="1"><g opacity="1" transform="matrix(1,0,0,1,0,0)"><path fill="rgb(0,0,0)" fill-opacity="1" d=" M-222.9499969482422,-60.29999923706055 C-227.125,-60.03499984741211 -230.50100708007812,-56.01100158691406 -230.10000610351562,-51.900001525878906 C-225.47000122070312,-9.067999839782715 -196.57899475097656,46.012001037597656 -152.4499969482422,53.95000076293945 C-152.4499969482422,53.95000076293945 -152.4499969482422,53.75 -152.4499969482422,53.75 C-74.75299835205078,66.93099975585938 -72.58200073242188,-35.354000091552734 -138.5019989013672,-53.8489990234375 C-157.89999389648438,-60.215999603271484 -186.0500030517578,-62.367000579833984 -222.9499969482422,-60.29999923706055 M224,-60.29999923706055 C188.50999450683594,-66.00199890136719 153.7779998779297,-61.000999450683594 134.64999389648438,-55.25199890136719 C68.21499633789062,-36.402000427246094 69.94100189208984,66.86799621582031 148.60000610351562,53.75 C148.60000610351562,53.75 148.60000610351562,53.95000076293945 148.60000610351562,53.95000076293945 C193.29100036621094,45.891998291015625 222.64500427246094,-9.776000022888184 227.14999389648438,-53.150001525878906 C227.56300354003906,-55.84299850463867 226.29299926757812,-58.933998107910156 224,-60.29999923706055 M128.60000610351562,-231.60000610351562 C90.16500091552734,-261.5010070800781 27.809999465942383,-252.80999755859375 -2.200000047683716,-214.35000610351562 C-20.18199920654297,-238.2480010986328 -47.856998443603516,-249.4199981689453 -78.5999984741211,-249.35000610351562 C-175.18899536132812,-248.32000732421875 -179.7989959716797,-142.20700073242188 -128.94700622558594,-78.1989974975586 C-109.6760025024414,-51.87699890136719 -77.77799987792969,-23.06800079345703 -45,-4.400000095367432 C-45,-4.400000095367432 -46.599998474121094,-4.400000095367432 -46.599998474121094,-4.400000095367432 C-16.299999237060547,13.133000373840332 -11.883000373840332,36.632999420166016 -33.349998474121094,66.0999984741211 C-33.349998474121094,66.0999984741211 -114.1500015258789,66.0999984741211 -114.1500015258789,66.0999984741211 C-122.35700225830078,66.0199966430664 -129.11000061035156,68.91100311279297 -135.0500030517578,73.94999694824219 C-152.9969940185547,90.09500122070312 -138.99400329589844,118.33999633789062 -116.05000305175781,118.69999694824219 C-89.67900085449219,210.98500061035156 -112.58300018310547,251.177001953125 2.3489999771118164,250.6490020751953 C21.17799949645996,249.88699340820312 39.797000885009766,248.35000610351562 56.650001525878906,245.60000610351562 C104.50299835205078,243.2740020751953 107.1989974975586,152.82000732421875 118.6500015258789,118.69999694824219 C125.71700286865234,118.23300170898438 131.86700439453125,115.68299865722656 137.10000610351562,111.05000305175781 C137.10000610351562,110.91699981689453 137.16700744628906,110.8499984741211 137.3000030517578,110.8499984741211 C148.6999969482422,101.11199951171875 148.58099365234375,83.48500061035156 137.3000030517578,73.75 C131.60000610351562,68.6500015258789 124.68299865722656,66.0999984741211 116.55000305175781,66.0999984741211 C116.55000305175781,66.0999984741211 32.79999923706055,66.0999984741211 32.79999923706055,66.0999984741211 C12.267000198364258,35.93299865722656 15.982999801635742,12.432999610900879 43.95000076293945,-4.400000095367432 C43.95000076293945,-4.400000095367432 43.099998474121094,-4.400000095367432 43.099998474121094,-4.400000095367432 C112.27200317382812,-44.56800079345703 204.7010040283203,-162.01499938964844 128.60000610351562,-231.60000610351562 M70.5999984741211,-219.5500030517578 C77.66699981689453,-220.61700439453125 85.1500015258789,-219.51699829101562 93.05000305175781,-216.25 C104.91999816894531,-211.23500061035156 118.66999816894531,-199.69200134277344 113.95099639892578,-187.1999969482422 C103.2030029296875,-169.1699981689453 69.81300354003906,-181.1909942626953 59.80099868774414,-195.5489959716797 C51.472999572753906,-206.69900512695312 56.70100021362305,-218.30799865722656 70.5999984741211,-219.5500030517578 M-79.6500015258789,-211.0500030517578 C-69.49600219726562,-228.1230010986328 -28.579999923706055,-211.97999572753906 -34.19900131225586,-192.25100708007812 C-43.79499816894531,-174.99899291992188 -86.03800201416016,-191.8280029296875 -79.6500015258789,-211.0500030517578z"></path></g></g></g></svg>