<svg xmlns="http://www.w3.org/2000/svg" xmlns:xlink="http://www.w3.org/1999/xlink" viewBox="0 0 512 512" width="512" height="512" style="width: 100%; height: 100%; transform: translate3d(0,0,0);" preserveAspectRatio="xMidYMid meet"><defs><clipPath id="__lottie_element_27184"><rect width="512" height="512" x="0" y="0"></rect></clipPath></defs><g clip-path="url(#__lottie_element_27184)"><g style="display: block;" transform="matrix(1,0,0,1,0,0)" opacity="1"><g opacity="1" transform="matrix(1,0,0,1,301.64801025390625,255.14100646972656)"><path fill="rgb(53,52,52)" fill-opacity="1" d=" M201.24899291992188,-220.8350067138672 C197.61700439453125,-225.24400329589844 181.31900024414062,-231.97000122070312 170.71200561523438,-229.84800720214844 C159.20799255371094,-227.65699768066406 146.906005859375,-214.9250030517578 138.16700744628906,-207.9320068359375 C123.2959976196289,-196.031005859375 109.94400024414062,-182.59100341796875 95.59500122070312,-170.3070068359375 C95.06500244140625,-169.85299682617188 94.49299621582031,-169.3159942626953 94.46700286865234,-168.6179962158203 C94.44400024414062,-167.9759979248047 94.89700317382812,-167.4250030517578 95.34400177001953,-166.96400451660156 C97.55799865722656,-164.67999267578125 100.2959976196289,-162.90899658203125 103.28700256347656,-161.8260040283203 C103.46199798583984,-160.14599609375 102.13800048828125,-158.5989990234375 100.57599639892578,-157.95399475097656 C99.01399993896484,-157.3090057373047 97.26499938964844,-157.36099243164062 95.57599639892578,-157.42300415039062 C82.77999877929688,-157.88600158691406 74.11599731445312,-157.28900146484375 61.98500061035156,-152.83299255371094 C45.305999755859375,-146.70399475097656 31.381999969482422,-133.6479949951172 19.04199981689453,-121.2959976196289 C12.069999694824219,-114.31600189208984 5.441999912261963,-107.00299835205078 -1.1050000190734863,-99.6259994506836 C-6.955999851226807,-93.03399658203125 -9.713000297546387,-85.98699951171875 -14.701000213623047,-79.4540023803711 C-6.394000053405762,-76.13899993896484 1.9119999408721924,-72.8239974975586 10.218999862670898,-69.50800323486328 C-11.944000244140625,-68.56600189208984 -34.01300048828125,-69.94499969482422 -54.66999816894531,-61.095001220703125 C-77.02100372314453,-51.51599884033203 -127.04900360107422,3.186000108718872 -132.81700134277344,3.4609999656677246 C-149.29100036621094,4.245999813079834 -163.04400634765625,18.069000244140625 -172.20199584960938,29.503999710083008 C-184.60499572753906,41.571998596191406 -194.6739959716797,56.0359992980957 -199.656005859375,68.19599914550781 C-210.3520050048828,94.302001953125 -199.01199340820312,108.36499786376953 -193.63999938964844,113.19999694824219 C-186.39199829101562,119.7229995727539 -185.77200317382812,130.53700256347656 -185.61300659179688,147.57200622558594 C-185.4929962158203,160.4010009765625 -185.3679962158203,173.66600036621094 -180.06900024414062,186.11099243164062 C-172.33099365234375,204.281005859375 -154.6479949951172,218.47999572753906 -130.2790069580078,226.09500122070312 C-117.64700317382812,230.04200744628906 -104.29900360107422,231.97000122070312 -91.40499877929688,231.97000122070312 C-72.06600189208984,231.968994140625 -53.75699996948242,227.6300048828125 -40.474998474121094,219.25599670410156 C-35.57500076293945,216.16600036621094 -32.9640007019043,214.08399963378906 -31.05699920654297,212.56399536132812 C-28.85300064086914,210.8070068359375 -27.523000717163086,209.74600219726562 -18.691999435424805,205.625 C-14.196000099182129,203.52699279785156 -9.678000450134277,203.13400268554688 -4.447000026702881,202.68099975585938 C4.931000232696533,201.86900329589844 17.77400016784668,200.7570037841797 28.215999603271484,188.49099731445312 C35.34000015258789,180.1219940185547 38.87799835205078,169.51199340820312 40.46099853515625,159.41000366210938 C56.77000045776367,130.2949981689453 111.73799896240234,43.7869987487793 113.80500030517578,24.367000579833984 C114.66899871826172,16.25 115.24600219726562,7.085000038146973 115.34300231933594,3.680999994277954 C115.68499755859375,-8.352999687194824 179.77200317382812,-74.68599700927734 180.90499877929688,-104.13300323486328 C181.4770050048828,-119.00399780273438 181.26800537109375,-127.9749984741211 185.18600463867188,-135.99200439453125 C195.6280059814453,-157.36399841308594 210.3520050048828,-191.62899780273438 210.3520050048828,-202.66700744628906 C210.3520050048828,-212.41400146484375 205.91000366210938,-217.68299865722656 201.24899291992188,-220.8350067138672z M-7.573999881744385,166.57400512695312 C-14.385000228881836,167.16400146484375 -23.711999893188477,167.97300720214844 -34.01900100708008,172.7830047607422 C-45.89500045776367,178.3249969482422 -49.35900115966797,180.8040008544922 -53.65299987792969,184.22799682617188 C-55.16999816894531,185.43699645996094 -56.60200119018555,186.5800018310547 -59.80400085449219,188.59800720214844 C-72.83100128173828,196.81199645996094 -98.48200225830078,198.05999755859375 -119.47100067138672,191.5030059814453 C-133.33200073242188,187.17100524902344 -143.26600646972656,180.02999877929688 -146.7239990234375,171.91000366210938 C-149.19500732421875,166.10800170898438 -149.281005859375,156.93899536132812 -149.3719940185547,147.23199462890625 C-149.54800415039062,128.45599365234375 -149.76499938964844,105.21199798583984 -167.84500122070312,87.70700073242188 C-167.35400390625,83.28299713134766 -162.41900634765625,71.90599822998047 -150.86300659179688,59.42599868774414 C-138.83299255371094,46.43299865722656 -127.39800262451172,40.62099838256836 -123.43699645996094,40.819000244140625 C-121.37100219726562,40.9119987487793 -120.81700134277344,41.09000015258789 -115.56800079345703,46.22100067138672 C-109.04399871826172,52.5989990234375 -99.18499755859375,62.23699951171875 -80.10199737548828,66.45800018310547 C-66.69200134277344,69.4229965209961 -56.63600158691406,69.54399871826172 -49.292999267578125,69.63200378417969 C-40.97600173950195,69.73200225830078 -38.4119987487793,69.86199951171875 -34.69499969482422,72.14099884033203 C-34.07899856567383,72.51899719238281 -33.763999938964844,72.76699829101562 -33.63600158691406,72.8759994506836 C-33.21099853515625,73.66300201416016 -32.4370002746582,76.06999969482422 -31.809999465942383,78.0199966430664 C-29.469999313354492,85.2959976196289 -25.93400001525879,96.29199981689453 -15.678999900817871,112.7229995727539 C-8.354000091552734,124.45999908447266 -1.937000036239624,129.6020050048828 2.308000087738037,133.00399780273438 C3.0239999294281006,133.5780029296875 3.9769999980926514,134.3419952392578 4.366000175476074,134.71499633789062 C4.440000057220459,134.88299560546875 4.583000183105469,135.24200439453125 4.765999794006348,135.86599731445312 C5.848999977111816,141.87899780273438 5.741000175476074,158.9810028076172 0.6179999709129333,164.99899291992188 C0.010999999940395355,165.71200561523438 -1.1979999542236328,166.02200317382812 -7.573999881744385,166.57400512695312z"></path></g><g opacity="1" transform="matrix(1,0,0,1,113.60299682617188,182.19700622558594)"><path fill="rgb(53,52,52)" fill-opacity="1" d=" M22.384000778198242,-28.923999786376953 C97.13400268554688,-49.310001373291016 113.60299682617188,-71.94599914550781 112.98999786376953,-101.40799713134766 C111.85700225830078,-155.77200317382812 12.237000465393066,-160.21499633789062 11.057999610900879,-155.77200317382812 C10.763999938964844,-154.66400146484375 22.402999877929688,-152.62399291992188 37.106998443603516,-142.18099975585938 C40.34400177001953,-139.8820037841797 65.14600372314453,-124.16799926757812 60.89099884033203,-109.33699798583984 C59.426998138427734,-104.23200225830078 52.553001403808594,-98.64299774169922 40.505001068115234,-102.54100036621094 C1.9980000257492065,-114.9990005493164 -38.96799850463867,-113.05699920654297 -58.02899932861328,-101.40799713134766 C-98.8010025024414,-76.49199676513672 -112.39199829101562,-34.58700180053711 -113.52400207519531,-2.875 C-116.11599731445312,69.70500183105469 -53.49800109863281,160.21499633789062 -41.040000915527344,160.21499633789062 C-41.040000915527344,160.21499633789062 -37.935001373291016,142.9199981689453 -26.316999435424805,119.44300079345703 C-22.042999267578125,110.80699920654297 -19.6200008392334,106.69100189208984 -17.013999938964844,102.6780014038086 C-12.043000221252441,95.02300262451172 -0.2669999897480011,77.53800201416016 -0.2669999897480011,77.53800201416016 C-22.91900062561035,-1.7419999837875366 9.180999755859375,-25.322999954223633 22.384000778198242,-28.923999786376953z"></path></g></g></g></svg>