<svg xmlns="http://www.w3.org/2000/svg" xmlns:xlink="http://www.w3.org/1999/xlink" viewBox="0 0 512 512" width="512" height="512" style="width: 100%; height: 100%; transform: translate3d(0,0,0);" preserveAspectRatio="xMidYMid meet"><defs><clipPath id="__lottie_element_53005"><rect width="512" height="512" x="0" y="0"></rect></clipPath></defs><g clip-path="url(#__lottie_element_53005)"><g style="display: block;" transform="matrix(1,0,0,1,257.3389892578125,254.8260040283203)" opacity="1"><g opacity="1" transform="matrix(1,0,0,1,0,0)"><path fill="rgb(0,0,0)" fill-opacity="1" d=" M52.95899963378906,-120.16600036621094 C52.95899963378906,-120.16600036621094 67.55699920654297,-129.45599365234375 86.13800048828125,-122.81999969482422 C104.71900177001953,-116.18399810791016 129.42599487304688,-99.78500366210938 176.38699340820312,-113.52999877929688 C203.593994140625,-121.49299621582031 224.07400512695312,-139.58799743652344 238.1009979248047,-156.66400146484375 C253.36399841308594,-175.2449951171875 245.24099731445312,-184.84100341796875 231.2760009765625,-184.02099609375 C215.5399932861328,-183.0970001220703 196.62600708007812,-182.7530059814453 179.7050018310547,-184.53399658203125 C141.8800048828125,-188.51600646972656 137.0050048828125,-210.23800659179688 118.65399932861328,-224.35000610351562 C92.28900146484375,-244.625 63.34299850463867,-236.28599548339844 53.09199905395508,-220.88900756835938 C-168.88499450683594,-178.83599853515625 -177.63999938964844,13.54800033569336 -177.63999938964844,13.54800033569336 C-200.53399658203125,1.6030000448226929 -236.19000244140625,-18.672000885009766 -245.1479949951172,-2.746000051498413 C-254.1060028076172,13.180000305175781 -209.31399536132812,41.05099868774414 -209.31399536132812,41.05099868774414 C-223.58099365234375,75.22599792480469 -210.48800659179688,230.21099853515625 -6.764999866485596,236.18299865722656 C196.95799255371094,242.156005859375 200.718994140625,86.875 200.718994140625,86.875 C200.718994140625,86.875 184.98899841308594,101.44499969482422 96.75599670410156,107.4469985961914 C45.70800018310547,110.91999816894531 18.04199981689453,104.88099670410156 3.2660000324249268,98.33599853515625 C-2.4509999752044678,95.80400085449219 -0.2980000078678131,87.25299835205078 5.940000057220459,87.68000030517578 C113.32599639892578,95.03199768066406 200.49000549316406,63.23400115966797 211.7790069580078,59.888999938964844 C223.7239990234375,56.349998474121094 233.92599487304688,48.974998474121094 229.47500610351562,37.10599899291992 C225.4929962158203,26.488000869750977 210.56199645996094,31.46500015258789 210.56199645996094,31.46500015258789 C183.2030029296875,41.41400146484375 113.03199768066406,54.8129997253418 46.058998107910156,57.28799819946289 C30.51300048828125,-11.053000450134277 52.95899963378906,-120.16600036621094 52.95899963378906,-120.16600036621094z"></path><g opacity="1" transform="matrix(1,0,0,1,0,0)"></g></g></g></g></svg>