<svg xmlns="http://www.w3.org/2000/svg" xmlns:xlink="http://www.w3.org/1999/xlink" viewBox="0 0 512 512" width="512" height="512" style="width: 100%; height: 100%; transform: translate3d(0,0,0);" preserveAspectRatio="xMidYMid meet"><defs><clipPath id="__lottie_element_53879"><rect width="512" height="512" x="0" y="0"></rect></clipPath></defs><g clip-path="url(#__lottie_element_53879)"><g style="display: block;" transform="matrix(1,0,0,1,30.389999389648438,13.75)" opacity="1"><g opacity="1" transform="matrix(1,0,0,1,225.27000427246094,241.91000366210938)"><path fill="rgb(0,0,0)" fill-opacity="1" d=" M185.33999633789062,86.33999633789062 C162.33999633789062,36.34000015258789 193.33999633789062,-23.65999984741211 165.33999633789062,-96.66000366210938 C137.47000122070312,-169.32000732421875 87.97000122070312,-187.4499969482422 30.34000015258789,-212.66000366210938 C21.829999923706055,-216.3800048828125 20.34000015258789,-241.66000366210938 1.340000033378601,-241.66000366210938 C-18.65999984741211,-241.66000366210938 -19.959999084472656,-220.1300048828125 -26.65999984741211,-217.66000366210938 C-64.66000366210938,-203.66000366210938 -131.66000366210938,-171.66000366210938 -161.66000366210938,-111.66000366210938 C-187.57000732421875,-59.849998474121094 -191.91000366210938,32.7400016784668 -186.66000366210938,51.34000015258789 C-183.47999572753906,62.599998474121094 -123.55999755859375,87.66999816894531 -54.65999984741211,91.33999633789062 C20.34000015258789,95.33999633789062 73.33999633789062,84.33999633789062 75.33999633789062,97.33999633789062 C77.69000244140625,112.62999725341797 17.059999465942383,118.30999755859375 -50.65999984741211,117.33999633789062 C-135.6999969482422,116.12000274658203 -154.7100067138672,88.87000274658203 -186.66000366210938,88.33999633789062 C-191.44000244140625,88.26000213623047 -195.25,98.80999755859375 -202.66000366210938,107.33999633789062 C-212.30999755859375,118.44999694824219 -225.02000427246094,129.07000732421875 -222.66000366210938,138.33999633789062 C-217.17999267578125,159.88999938964844 -172.66000366210938,157.33999633789062 -116.66000366210938,182.33999633789062 C-54.25,210.1999969482422 -37.91999816894531,241 5.340000152587891,241.33999633789062 C46.95000076293945,241.66000366210938 63.959999084472656,210.08999633789062 129.6699981689453,179.17999267578125 C180.33999633789062,155.33999633789062 217.0500030517578,163.38999938964844 221.33999633789062,143.33999633789062 C225.02000427246094,126.16000366210938 199.38999938964844,116.87000274658203 185.33999633789062,86.33999633789062z M6.340000152587891,37.34000015258789 C-11.194000244140625,37.34000015258789 -13.59000015258789,19.14299964904785 -26.551000595092773,12.055000305175781 C-39.28200149536133,5.0929999351501465 -62.68199920654297,9.343000411987305 -68.52300262451172,-1.9550000429153442 C-74.15599822998047,-12.850000381469727 -53.22600173950195,-29.500999450683594 -55.26900100708008,-40.138999938964844 C-57.93000030517578,-53.99800109863281 -70.16000366210938,-67.16000366210938 -65.16000366210938,-75.66000366210938 C-59.67300033569336,-84.98799896240234 -36.3380012512207,-80.22699737548828 -23.65999984741211,-85.66000366210938 C-9.65999984741211,-91.66000366210938 -5.730000019073486,-112.83000183105469 6.340000152587891,-112.66000366210938 C17.440000534057617,-112.5 19.81100082397461,-90.67500305175781 36.84000015258789,-82.16000366210938 C54.84000015258789,-73.16000366210938 74.26599884033203,-81.56199645996094 78.62999725341797,-70.16000366210938 C82.83999633789062,-59.15999984741211 64.3759994506836,-46.12699890136719 62.441001892089844,-34.643001556396484 C60.167999267578125,-21.149999618530273 77.23899841308594,-9.512999534606934 69.73200225830078,2.7739999294281006 C63.83700180053711,12.42300033569336 44.042999267578125,3.930999994277954 33.904998779296875,10.092000007629395 C23.399999618530273,16.47599983215332 22.37700080871582,37.34000015258789 6.340000152587891,37.34000015258789z"></path></g></g></g></svg>