<svg xmlns="http://www.w3.org/2000/svg" xmlns:xlink="http://www.w3.org/1999/xlink" viewBox="0 0 512 512" width="512" height="512" style="width: 100%; height: 100%; transform: translate3d(0,0,0);" preserveAspectRatio="xMidYMid meet"><defs><clipPath id="__lottie_element_53130"><rect width="512" height="512" x="0" y="0"></rect></clipPath></defs><g clip-path="url(#__lottie_element_53130)"><g style="display: block;" transform="matrix(1,0,0,1,0,0)" opacity="1"><g opacity="1" transform="matrix(1,0,0,1,255.4600067138672,258.0199890136719)"><path fill="rgb(0,0,0)" fill-opacity="1" d=" M-18.459999084472656,-92.0199966430664 C-32.566001892089844,-81.67500305175781 -79.45999908447266,-209.02000427246094 35.540000915527344,-230.02000427246094 C90.08200073242188,-239.97999572753906 94.8280029296875,-187.16600036621094 93.54000091552734,-162.02000427246094 C93.18399810791016,-155.06500244140625 180.5399932861328,-238.02000427246094 227.5399932861328,-128.02000427246094 C240.8820037841797,-96.79499816894531 214.5399932861328,-10.020000457763672 98.54000091552734,-29.020000457763672 C83.50900268554688,-31.48200035095215 5.794000148773193,71.7509994506836 -2.4600000381469727,99.9800033569336 C-5.257999897003174,109.55000305175781 38.30799865722656,199.19200134277344 -22.459999084472656,221.97999572753906 C-70.45999908447266,239.97999572753906 -106.45999908447266,221.97999572753906 -129.4600067138672,165.97999572753906 C-138.3209991455078,144.40499877929688 -209.4600067138672,194.97999572753906 -232.4600067138672,124.9800033569336 C-240.8820037841797,99.3479995727539 -220.89100646972656,58.262001037597656 -189.4600067138672,47.97999954223633 C-164.79200744628906,39.90999984741211 -138.5659942626953,45.04600143432617 -110.45999908447266,41.97999954223633 C-55.459999084472656,35.97999954223633 8.539999961853027,-70.0199966430664 45.540000915527344,-116.0199966430664 C54.28099822998047,-126.88700103759766 26.540000915527344,-125.0199966430664 -18.459999084472656,-92.0199966430664z"></path></g></g></g></svg>