<svg xmlns="http://www.w3.org/2000/svg" xmlns:xlink="http://www.w3.org/1999/xlink" viewBox="0 0 512 512" width="512" height="512" style="width: 100%; height: 100%; transform: translate3d(0,0,0);" preserveAspectRatio="xMidYMid meet"><defs><clipPath id="__lottie_element_27189"><rect width="512" height="512" x="0" y="0"></rect></clipPath></defs><g clip-path="url(#__lottie_element_27189)"><g style="display: block;" transform="matrix(1,0,0,1,256.5159912109375,264.47900390625)" opacity="1"><g opacity="1" transform="matrix(1,0,0,1,0,0)"><path fill="rgb(4,5,52)" fill-opacity="1" d=" M-98.99199676513672,-11.366999626159668 C-108.94499969482422,-18.854999542236328 -139.72300720214844,-66.93299865722656 -140.28799438476562,-71.45099639892578 C-140.28799438476562,-71.45099639892578 -125.84500122070312,-86.11599731445312 -134.3159942626953,-103.43399810791016 C-145.71299743652344,-126.73500061035156 -236.0279998779297,-78.20800018310547 -210.23899841308594,-55.41400146484375 C-201.1320037841797,-47.36399841308594 -182.56900024414062,-48.637001037597656 -182.56900024414062,-48.637001037597656 C-182.56900024414062,-48.637001037597656 -143.03900146484375,19.691999435424805 -143.60400390625,27.033000946044922 C-143.60400390625,27.033000946044922 -170.14500427246094,71.64399719238281 -148.68600463867188,125.85600280761719 C-148.68600463867188,125.85600280761719 -156.6269989013672,123.56600189208984 -162.8040008544922,130.37399291992188 C-172.0279998779297,140.53900146484375 -161.94500732421875,173.1719970703125 -114.0510025024414,204.16200256347656 C-62.85100173950195,237.29100036621094 -16.54599952697754,236.53799438476562 -10.333999633789062,227.5030059814453 C-4.122000217437744,218.46800231933594 -10.333999633789062,206.0449981689453 -10.333999633789062,206.0449981689453 C-10.333999633789062,206.0449981689453 57.430999755859375,210.56300354003906 82.84300231933594,158.0449981689453 C108.25499725341797,105.5270004272461 95.83100128173828,57.527000427246094 66.46600341796875,24.77400016784668 C66.46600341796875,24.77400016784668 180.53700256347656,-148.58999633789062 180.53700256347656,-148.58999633789062 C180.53700256347656,-148.58999633789062 205.94900512695312,-142.9429931640625 213.2899932861328,-157.625 C220.63099670410156,-172.3070068359375 201.43099975585938,-202.80099487304688 168.67799377441406,-220.8719940185547 C135.9250030517578,-238.9429931640625 87.92500305175781,-235.55499267578125 81.14900207519531,-217.48399353027344 C74.37300109863281,-199.41299438476562 97.5250015258789,-193.76600646972656 97.5250015258789,-193.76600646972656 C97.5250015258789,-193.76600646972656 121.80799865722656,-200.54299926757812 144.39599609375,-191.50799560546875 C166.98399353027344,-182.47300720214844 171.5019989013672,-168.35499572753906 168.67799377441406,-166.0959930419922 C165.85400390625,-163.83700561523438 117.29000091552734,-192.072998046875 93.5719985961914,-180.21400451660156 C93.5719985961914,-180.21400451660156 -18.804000854492188,-20.966999053955078 -18.804000854492188,-20.966999053955078 C-18.804000854492188,-20.966999053955078 -62.85100173950195,-33.95500183105469 -98.99199676513672,-11.366999626159668z"></path></g></g></g></svg>