<svg xmlns="http://www.w3.org/2000/svg" xmlns:xlink="http://www.w3.org/1999/xlink" viewBox="0 0 512 512" width="512" height="512" style="width: 100%; height: 100%; transform: translate3d(0,0,0);" preserveAspectRatio="xMidYMid meet"><defs><clipPath id="__lottie_element_53524"><rect width="512" height="512" x="0" y="0"></rect></clipPath></defs><g clip-path="url(#__lottie_element_53524)"><g style="display: block;" transform="matrix(1,0,0,1,262.49700927734375,254.3350067138672)" opacity="1"><g opacity="1" transform="matrix(1,0,0,1,0,0)"><path fill="rgb(0,0,0)" fill-opacity="1" d=" M17.878999710083008,159.3990020751953 C12.802000045776367,164.30499267578125 24.670000076293945,165.8419952392578 27.46500015258789,165.91400146484375 C75.17900085449219,171.18099975585938 133.94000244140625,176.67799377441406 170.1909942626953,141.03500366210938 C177.06399536132812,144.843994140625 170.61300659179688,165.17599487304688 149.43499755859375,202.5659942626953 C133.33599853515625,224.45799255371094 112.13999938964844,250.4949951171875 82.6989974975586,251.16299438476562 C70.40599822998047,251.3560028076172 -74.64199829101562,250.9739990234375 -97.49299621582031,251.2830047607422 C-138.1009979248047,252.74400329589844 -197.83299255371094,185.13299560546875 -214.89700317382812,163.5989990234375 C-231.37100219726562,121.98200225830078 -143.50999450683594,113.69200134277344 -116.50599670410156,110.0510025024414 C-110.50199890136719,109.67400360107422 -105.28700256347656,108.29000091552734 -103.06199645996094,102.24700164794922 C-91.44400024414062,70.69400024414062 -64.97899627685547,54.63600158691406 -37.64500045776367,39.619998931884766 C-27.753999710083008,34.893001556396484 -18.85700035095215,17.617000579833984 -32.16999816894531,11.821999549865723 C-53.72800064086914,-3.4700000286102295 -83.72200012207031,-9.597000122070312 -98.71299743652344,-32.39699935913086 C-100.5719985961914,-36.310001373291016 -104.16600036621094,-36.611000061035156 -107.84700012207031,-36.42100143432617 C-119.46600341796875,-35.82099914550781 -130.7530059814453,-37.382999420166016 -141.84300231933594,-40.948001861572266 C-156.95199584960938,-43.768001556396484 -172.84100341796875,-39.78900146484375 -188.11300659179688,-41.5099983215332 C-209.73500061035156,-43.1879997253418 -226.0659942626953,-53.755001068115234 -235.8560028076172,-73.59300231933594 C-254.11099243164062,-116.31900024414062 -194.78399658203125,-141.4530029296875 -159.9929962158203,-133.656005859375 C-155.2429962158203,-132.8040008544922 -150.57200622558594,-132.64700317382812 -145.86900329589844,-134.00999450683594 C-124.1510009765625,-140.30599975585938 -102.8010025024414,-138.9550018310547 -81.68599700927734,-131.07899475097656 C-69.69100189208984,-123.79100036621094 -63.375,-141.41299438476562 -73.36100006103516,-145.36399841308594 C-133.03399658203125,-166.5050048828125 -113.06199645996094,-215.60499572753906 -59.619998931884766,-225.63600158691406 C-28.538999557495117,-241.43499755859375 -0.36000001430511475,-261.968994140625 35.83700180053711,-244.822998046875 C70.28700256347656,-232.66600036621094 104.66899871826172,-248.1320037841797 127.13700103759766,-208.49400329589844 C152.3470001220703,-167.33200073242188 98.90599822998047,-133.29600524902344 61.111000061035156,-140.8820037841797 C39.849998474121094,-142.5279998779297 21.895999908447266,-124.08599853515625 -0.2639999985694885,-134.0659942626953 C-17.472000122070312,-137.13600158691406 -20.90399932861328,-87.04900360107422 -25.150999069213867,-74.16699981689453 C-26.02199935913086,-68.46099853515625 -27.15399932861328,-62.858001708984375 -20.881000518798828,-59.560001373291016 C-14.420999526977539,-56.16400146484375 -8.446000099182129,-50.672000885009766 -0.08799999952316284,-55.61000061035156 C12.336000442504883,-62.95100021362305 25.829999923706055,-68.60600280761719 40.17399978637695,-69.1719970703125 C108.18900299072266,-73.2770004272461 142.8520050048828,-134.7209930419922 226.42999267578125,-68.58300018310547 C245.05999755859375,-48.70100021362305 243.322998046875,-23.22599983215332 221.7899932861328,-6.438000202178955 C199.89700317382812,12.079000473022461 170.59300231933594,10.654000282287598 145.3719940185547,21.389999389648438 C121.79199981689453,34.78099822998047 99.76100158691406,19.777999877929688 76.05599975585938,18.045000076293945 C61.32899856567383,19.323999404907227 66.52300262451172,42.766998291015625 53.637001037597656,52.7599983215332 C42.61899948120117,63.70100021362305 36.52399826049805,90.15299987792969 56.08100128173828,96.31500244140625 C66.22000122070312,98.14199829101562 107.30699920654297,99.63600158691406 139.89100646972656,118.42400360107422 C178.63600158691406,140.94900512695312 110.25700378417969,158.73300170898438 91.75900268554688,158.51699829101562 C67.0009994506836,162.52000427246094 42.50899887084961,158.21200561523438 17.878999710083008,159.3990020751953z"></path></g></g></g></svg>