<svg xmlns="http://www.w3.org/2000/svg" xmlns:xlink="http://www.w3.org/1999/xlink" viewBox="0 0 512 512" width="512" height="512" style="width: 100%; height: 100%; transform: translate3d(0,0,0);" preserveAspectRatio="xMidYMid meet"><defs><clipPath id="__lottie_element_52463"><rect width="512" height="512" x="0" y="0"></rect></clipPath></defs><g clip-path="url(#__lottie_element_52463)"><g style="display: block;" transform="matrix(1.9721100330352783,0,0,2.163409948348999,-242.86016845703125,-347.83294677734375)" opacity="1"><g opacity="1" transform="matrix(1,0,0,1,252.00900268554688,279.2179870605469)"><path fill="rgb(0,0,0)" fill-opacity="1" d=" M118.99099731445312,-6.2179999351501465 C118.99099731445312,-45.215999603271484 52.92300033569336,-56.96099853515625 36.12200164794922,-52.33300018310547 C35.06700134277344,-52.04199981689453 33.902000427246094,-52.39799880981445 32.96200180053711,-51.8380012512207 C20.216999053955078,-44.25 -0.25699999928474426,-12.505000114440918 -15.37600040435791,16.361000061035156 C-29.195999145507812,42.74700164794922 -32.040000915527344,55.49100112915039 -33.520999908447266,55.01900100708008 C-36.84700012207031,53.95899963378906 -25.18600082397461,-2.0989999771118164 9.17199993133545,-46.750999450683594 C12.225000381469727,-50.71900177001953 13.47599983215332,-52.52000045776367 15.812999725341797,-55.77000045776367 C16.724000930786133,-57.0359992980957 16.617000579833984,-58.5890007019043 16.67099952697754,-60.14899826049805 C17.42799949645996,-82.15299987792969 -22.225000381469727,-95.44999694824219 -45.53300094604492,-93.69499969482422 C-67.27100372314453,-92.05799865722656 -111.29299926757812,-37.4119987487793 -118.98999786376953,13.991000175476074 C-119.98799896240234,19.538999557495117 -121.25599670410156,23.698999404907227 -116.81099700927734,25.344999313354492 C-103.93599700927734,29.972000122070312 -55.00899887084961,50.78200149536133 -53.625999450683594,59.78900146484375 C-52.78499984741211,65.26499938964844 -54.645999908447266,64.86000061035156 -50.54199981689453,70.81199645996094 C-47.35300064086914,75.43699645996094 -27.716999053955078,80.50299835205078 -22.118999481201172,79.10600280761719 C-16.2450008392334,77.63999938964844 -15.42300033569336,70.74700164794922 -8.008999824523926,70.78199768066406 C9.005000114440918,70.86100006103516 36.986000061035156,89.72599792480469 43.619998931884766,94.37200164794922 C44.62200164794922,95.072998046875 45.83399963378906,95.44999694824219 47.05099868774414,95.3290023803711 C78.46700286865234,92.20800018310547 118.99099731445312,1.781999945640564 118.99099731445312,-6.2179999351501465z M8.843999862670898,27.697999954223633 C24.0310001373291,27.922000885009766 44.55699920654297,35.48500061035156 54.54600143432617,45.45000076293945 C63.0890007019043,53.97200012207031 59.52299880981445,61.83300018310547 48.917999267578125,54.722999572753906 C39.861000061035156,48.652000427246094 23.013999938964844,39.23500061035156 5.5879998207092285,38.452999114990234 C-5.446000099182129,37.95800018310547 -5.61899995803833,27.485000610351562 8.843999862670898,27.697999954223633z M25.952999114990234,-3.755000114440918 C41.09000015258789,-2.503000020980835 61.29100036621094,5.9019999504089355 71.27999877929688,15.866999626159668 C79.822998046875,24.388999938964844 76.25599670410156,32.25 65.6510009765625,25.139999389648438 C56.59400177001953,19.069000244140625 39.308998107910156,8.71500015258789 21.97599983215332,6.754000186920166 C11,5.51200008392334 11.538000106811523,-4.947000026702881 25.952999114990234,-3.755000114440918z M44.33599853515625,-31.45800018310547 C60.74399948120117,-28.95400047302246 78.43199920654297,-22.354000091552734 89.53399658203125,-11.866999626159668 C98.30599975585938,-3.5810000896453857 93.5979995727539,6.64300012588501 83.90599822998047,-1.6690000295639038 C75.48799896240234,-8.888999938964844 56.16999816894531,-17.535999298095703 39.178001403808594,-21.47599983215332 C28.417999267578125,-23.97100067138672 30.03700065612793,-33.63999938964844 44.33599853515625,-31.45800018310547z M-84.23899841308594,-14.204000473022461 C-71.56199645996094,-12.586000442504883 -56.604000091552734,-5.190000057220459 -46.970001220703125,3.5920000076293945 C-39.356998443603516,10.531999588012695 -43.86399841308594,21.459999084472656 -52.29399871826172,14.454000473022461 C-60.91400146484375,7.289000034332275 -74.6050033569336,-0.5690000057220459 -90.5780029296875,-3.572999954223633 C-99.9800033569336,-5.3420000076293945 -96.68299865722656,-15.791999816894531 -84.23899841308594,-14.204000473022461z M-69.0270004272461,-43.32500076293945 C-56.349998474121094,-41.707000732421875 -40.37699890136719,-36.62200164794922 -30.743000030517578,-27.84000015258789 C-23.1299991607666,-20.899999618530273 -27.63800048828125,-9.972000122070312 -36.06800079345703,-16.97800064086914 C-44.6879997253418,-24.14299964904785 -59.393001556396484,-29.690000534057617 -75.36599731445312,-32.694000244140625 C-84.76799774169922,-34.4630012512207 -81.47100067138672,-44.91299819946289 -69.0270004272461,-43.32500076293945z M-51.90399932861328,-72.08000183105469 C-39.12900161743164,-71.72200012207031 -22.12299919128418,-66.20500183105469 -12.48900032043457,-57.42300033569336 C-4.875999927520752,-50.483001708984375 -9.159000396728516,-39.83300018310547 -17.812999725341797,-46.56100082397461 C-26.433000564575195,-53.26300048828125 -37.391998291015625,-59.35300064086914 -57.1609992980957,-60.875 C-66.69999694824219,-61.60900115966797 -64.44400024414062,-72.43099975585938 -51.90399932861328,-72.08000183105469z"></path></g></g></g></svg>