<svg xmlns="http://www.w3.org/2000/svg" xmlns:xlink="http://www.w3.org/1999/xlink" viewBox="0 0 512 512" width="512" height="512" style="width: 100%; height: 100%; transform: translate3d(0,0,0);" preserveAspectRatio="xMidYMid meet"><defs><clipPath id="__lottie_element_27194"><rect width="512" height="512" x="0" y="0"></rect></clipPath></defs><g clip-path="url(#__lottie_element_27194)"><g style="display: block;" transform="matrix(1,0,0,1,0,0)" opacity="1"><g opacity="1" transform="matrix(1,0,0,1,256,255.9510040283203)"><path fill="rgb(65,63,63)" fill-opacity="1" d=" M254.38499450683594,-108.79499816894531 C251.86900329589844,-115.67900085449219 225.4550018310547,-139.86700439453125 219.10499572753906,-135.81199645996094 C219.10499572753906,-135.81199645996094 183.8820037841797,63.56700134277344 183.8820037841797,63.56700134277344 C180.9530029296875,20.48699951171875 203.4669952392578,-132.5989990234375 199.89199829101562,-137.5590057373047 C195.76400756835938,-143.28399658203125 166.51600646972656,-143.5240020751953 160.05599975585938,-144.43600463867188 C157.27099609375,-144.83099365234375 154.4810028076172,-145.20199584960938 151.68899536132812,-145.5570068359375 C161.7689971923828,-173.24200439453125 169.302001953125,-219.1280059814453 158.62899780273438,-225.45199584960938 C146.0500030517578,-232.906005859375 116.52100372314453,-232.2259979248047 101.61499786376953,-233.67999267578125 C63.25299835205078,-237.4199981689453 24.570999145507812,-237.7519989013672 -13.956000328063965,-236.38099670410156 C-57.02299880981445,-234.84800720214844 -99.9469985961914,-231.12899780273438 -142.8300018310547,-227.37399291992188 C-146.25,-227.0749969482422 -150.0229949951172,-226.6179962158203 -152.26600646972656,-224.27699279785156 C-153.98399353027344,-222.48300170898438 -154.38800048828125,-219.98399353027344 -154.66900634765625,-217.6300048828125 C-157.49600219726562,-193.94900512695312 -154.7949981689453,-171.28900146484375 -149.5240020751953,-142.37100219726562 C-155.62100219726562,-141.82899475097656 -161.697998046875,-141.1999969482422 -167.73800659179688,-140.43800354003906 C-193.7469940185547,-137.15699768066406 -227.01400756835938,-131.76400756835938 -248.14199829101562,-128.0050048828125 C-251.60699462890625,-125.87799835205078 -254.48500061035156,-123.37899780273438 -255.3000030517578,-119.4540023803711 C-257.9419860839844,-106.73500061035156 -252.26400756835938,-45.64899826049805 -252.11900329589844,-44.630001068115234 C-249.55299377441406,-26.683000564575195 -244.10699462890625,73.04299926757812 -241.5229949951172,104.7959976196289 C-240.86099243164062,112.93099975585938 -240.07400512695312,121.05799865722656 -239.10899353027344,129.16900634765625 C-238.1699981689453,137.072998046875 -232.0290069580078,199.4709930419922 -232.04100036621094,199.82000732421875 C-228.31900024414062,211.7429962158203 -223.3459930419922,228.8489990234375 -213.56199645996094,232.91099548339844 C-201.90199279785156,237.7519989013672 -185.46600341796875,237.43299865722656 -177.97000122070312,236.98199462890625 C-99.1729965209961,232.23800659179688 -23.430999755859375,229.67300415039062 55.347999572753906,232.66099548339844 C76.75499725341797,233.47300720214844 98.20899963378906,233.06700134277344 119.58899688720703,234.83599853515625 C119.58899688720703,234.83599853515625 188.22999572753906,236.13900756835938 188.22999572753906,236.13900756835938 C206.16700744628906,237.7519989013672 216.16200256347656,216.66900634765625 217.8260040283203,212.74099731445312 C217.8260040283203,212.74099731445312 255.8179931640625,-97.35099792480469 255.8179931640625,-97.35099792480469 C255.64700317382812,-97.25700378417969 255.4739990234375,-97.16400146484375 255.302001953125,-97.07099914550781 C256.614990234375,-101.50900268554688 255.9429931640625,-104.53399658203125 254.38499450683594,-108.79499816894531z M122.35600280761719,-104.96600341796875 C154.52000427246094,-106.41799926757812 158.78900146484375,-56.625999450683594 127.302001953125,-47.30099868774414 C86.24700164794922,-35.143001556396484 83.39399719238281,-103.20800018310547 122.35600280761719,-104.96600341796875z M-114.65499877929688,-187.7570037841797 C-114.55400085449219,-189.2530059814453 -114.38400268554688,-190.89300537109375 -113.1969985961914,-191.94400024414062 C-112.04499816894531,-192.96600341796875 -110.28199768066406,-193.11900329589844 -108.66699981689453,-193.21400451660156 C-39.249000549316406,-197.28799438476562 30.361000061035156,-198.7209930419922 99.91400146484375,-197.50599670410156 C121.43499755859375,-197.13099670410156 119.88800048828125,-171.78900146484375 115.48200225830078,-149.11199951171875 C49.60100173950195,-153.78900146484375 -17.714000701904297,-149.51199340820312 -83.51000213623047,-146.1750030517578 C-94.80599975585938,-145.6020050048828 -106.18399810791016,-145.125 -117.56300354003906,-144.5330047607422 C-116.59300231933594,-158.9409942626953 -115.6240005493164,-173.3489990234375 -114.65499877929688,-187.7570037841797z M-191.64599609375,-81.62200164794922 C-153.45399475097656,-86.69999694824219 -154.24899291992188,-22.378000259399414 -194.6540069580078,-22.38800048828125 C-231.8719940185547,-22.395999908447266 -223.4029998779297,-77.39800262451172 -191.64599609375,-81.62200164794922z M-130.5780029296875,185.38400268554688 C-189.79200744628906,192.781005859375 -201.32699584960938,118.15599822998047 -198.3159942626953,79.51899719238281 C-196.04299926757812,50.34400177001953 -178.32699584960938,-0.5249999761581421 -139.16299438476562,-2.3359999656677246 C-124.22599792480469,-3.0269999504089355 -107.62699890136719,5.388999938964844 -98.2969970703125,15.428999900817871 C-64.23100280761719,52.08399963378906 -64.21399688720703,177.093994140625 -130.5780029296875,185.38400268554688z M-111.30699920654297,-49.77399826049805 C-136.5449981689453,-47.38600158691406 -124.06400299072266,-82.19999694824219 -126.5479965209961,-96.80799865722656 C-65.53900146484375,-107.0790023803711 -3.1760001182556152,-110.58899688720703 58.90599822998047,-109.88700103759766 C60.46699905395508,-108.48600006103516 57.53799819946289,-75.37899780273438 56.49399948120117,-70.28399658203125 C55.9900016784668,-67.822998046875 55.78200149536133,-65.90799713134766 52.59199905395508,-65.2300033569336 C52.59199905395508,-65.2300033569336 -111.30699920654297,-49.77399826049805 -111.30699920654297,-49.77399826049805z M75.37799835205078,185.13999938964844 C30.54800033569336,181.7530059814453 19.56100082397461,122.5989990234375 20.840999603271484,90.427001953125 C22.253000259399414,54.94900131225586 43.23899841308594,-11.786999702453613 91.31500244140625,-15.222000122070312 C99.26399993896484,-15.791000366210938 109.63500213623047,-12.82699966430664 116.49600219726562,-9.333000183105469 C179.03199768066406,22.523000717163086 158.2899932861328,191.406005859375 75.37799835205078,185.13999938964844z"></path></g><g opacity="1" transform="matrix(1,0,0,1,136.77499389648438,345.42401123046875)"><path fill="rgb(65,63,63)" fill-opacity="1" d=" M-5.868000030517578,-31.974000930786133 C-27.426000595092773,-26.268999099731445 -26.989999771118164,40.334999084472656 -1.621999979019165,40.29399871826172 C27.426000595092773,40.24700164794922 25.726999282836914,-40.334999084472656 -5.868000030517578,-31.974000930786133z"></path></g><g opacity="1" transform="matrix(1,0,0,1,345.42401123046875,357.68499755859375)"><path fill="rgb(65,63,63)" fill-opacity="1" d=" M7.980999946594238,-46.85300064086914 C-30.51099967956543,-48.83399963378906 -21.913999557495117,48.83399963378906 12.977999687194824,18.658000946044922 C27.90399932861328,5.75 30.51099967956543,-45.69300079345703 7.980999946594238,-46.85300064086914z"></path></g></g></g></svg>