<svg xmlns="http://www.w3.org/2000/svg" xmlns:xlink="http://www.w3.org/1999/xlink" viewBox="0 0 512 512" width="512" height="512" style="width: 100%; height: 100%; transform: translate3d(0,0,0);" preserveAspectRatio="xMidYMid meet"><defs><clipPath id="__lottie_element_52711"><rect width="512" height="512" x="0" y="0"></rect></clipPath></defs><g clip-path="url(#__lottie_element_52711)"><g style="display: block;" transform="matrix(1,0,0,1,256,256)" opacity="1"><g opacity="1" transform="matrix(1,0,0,1,0,0)"><path fill="rgb(0,0,0)" fill-opacity="1" d=" M74.6780014038086,-240.26499938964844 C74.6780014038086,-240.26499938964844 64.08699798583984,-200.53799438476562 64.08399963378906,-200.52699279785156 C20.802000045776367,-208.4720001220703 -7.039999961853027,-171.7760009765625 59.39099884033203,-133.28500366210938 C59.39099884033203,-133.28500366210938 59.61800003051758,-133.1529998779297 59.61800003051758,-133.1529998779297 C67.43699645996094,-128.6219940185547 63.000999450683594,-116.6240005493164 54.14899826049805,-118.16799926757812 C47.34600067138672,-119.36900329589844 40.80500030517578,-120.94200134277344 34.4109992980957,-122.9000015258789 C24.52199935913086,-125.9280014038086 13.767000198364258,-123.63200378417969 6.0289998054504395,-116.7699966430664 C-39.262001037597656,-76.6050033569336 -88.94300079345703,-102.59600067138672 -137.70799255371094,-83.58100128173828 C-199.19900512695312,-59.604000091552734 -232.2050018310547,50.29800033569336 -223.16400146484375,90.02300262451172 C-223.16400146484375,90.02300262451172 -223.16400146484375,90.02300262451172 -223.16400146484375,90.02300262451172 C-217.00900268554688,162.07000732421875 4.368000030517578,276.74200439453125 66.7300033569336,240.26499938964844 C66.7300033569336,240.26499938964844 66.7300033569336,240.26499938964844 66.7300033569336,240.26499938964844 C104.4000015258789,224.74899291992188 175.16799926757812,134.41799926757812 159.3070068359375,70.35199737548828 C144.2010040283203,9.336000442504883 75.28700256347656,-15.329999923706055 115.2020034790039,-107.15399932861328 C152.66299438476562,-102.36399841308594 169.4239959716797,-131.69200134277344 138.5189971923828,-161.9499969482422 C138.5260009765625,-161.95899963378906 164.8800048828125,-193.51600646972656 164.8800048828125,-193.51600646972656 C175.73699951171875,-214.46499633789062 85.53500366210938,-261.2139892578125 74.6780014038086,-240.26499938964844z M-173.96200561523438,-18.913999557495117 C-171.30299377441406,-24.724000930786133 -162.23500061035156,-24.2189998626709 -159.08599853515625,-18.086000442504883 C-144.50100708007812,10.322999954223633 -96.45500183105469,45.277000427246094 -33.89899826049805,70.6500015258789 C-29.676000595092773,72.36299896240234 -27.360000610351562,76.78500366210938 -28.70800018310547,80.61000061035156 C-28.70800018310547,80.61000061035156 -53.96900177001953,152.3000030517578 -53.96900177001953,152.3000030517578 C-55.3489990234375,156.21600341796875 -60.034000396728516,158.0189971923828 -64.3550033569336,156.2570037841797 C-145.5469970703125,123.1510009765625 -192.2830047607422,75.86599731445312 -192.62600708007812,43.53499984741211 C-192.81199645996094,26.01799964904785 -182.5679931640625,-0.1120000034570694 -173.96200561523438,-18.913999557495117z"></path></g></g></g></svg>