<svg xmlns="http://www.w3.org/2000/svg" xmlns:xlink="http://www.w3.org/1999/xlink" viewBox="0 0 512 512" width="512" height="512" style="width: 100%; height: 100%; transform: translate3d(0,0,0);" preserveAspectRatio="xMidYMid meet"><defs><clipPath id="__lottie_element_51905"><rect width="512" height="512" x="0" y="0"></rect></clipPath></defs><g clip-path="url(#__lottie_element_51905)"><g style="display: block;" transform="matrix(1,0,0,1,262.0880126953125,259.7829895019531)" opacity="1"><g opacity="1" transform="matrix(1,0,0,1,0,0)"><path fill="rgb(0,0,0)" fill-opacity="1" d=" M149.95,-152.52 C144.54,-164.34 132.85,-170.6 123.86,-166.49 C114.87,-162.37 111.96,-149.44 117.37,-137.61 C122.78,-125.79 134.47,-119.53 143.46,-123.65 C152.45,-127.76 155.36,-140.7 149.95,-152.52z M240.5019989013672,-118.8550033569336 C236.52200317382812,-146.72500610351562 196.04200744628906,-152.69500732421875 196.04200744628906,-152.69500732421875 C196.04200744628906,-152.69500732421875 178.12100219726562,-205.125 103.8010025024414,-229.01499938964844 C27.85099983215332,-253.4250030517578 -32.89799880981445,-234.98500061035156 -32.89799880981445,-234.98500061035156 C-101.24800109863281,-255.55499267578125 -179.7689971923828,-216.89500427246094 -182.87899780273438,-190.52499389648438 C-185.5290069580078,-167.9550018310547 -158.98800659179688,-166.63499450683594 -158.98800659179688,-166.63499450683594 C-158.98800659179688,-166.63499450683594 -223.33900451660156,-114.31500244140625 -237.94900512695312,-26.614999771118164 C-253.218994140625,64.96499633789062 -199.46800231933594,143.26499938964844 -199.46800231933594,143.26499938964844 C-220.697998046875,158.52499389648438 -225.34800720214844,199.6750030517578 -220.03799438476562,222.23500061035156 C-214.72799682617188,244.7949981689453 -200.1280059814453,244.7949981689453 -192.16799926757812,236.8350067138672 C-184.197998046875,228.86500549316406 -172.91900634765625,218.2550048828125 -156.99899291992188,207.63499450683594 C-141.06900024414062,197.01499938964844 -138.4080047607422,179.09500122070312 -138.4080047607422,179.09500122070312 C-125.80799865722656,190.38499450683594 -85.98899841308594,188.38499450683594 -76.6989974975586,188.38499450683594 C-67.40899658203125,188.38499450683594 -55.46799850463867,196.35499572753906 -44.178001403808594,187.06500244140625 C-32.89799880981445,177.77499389648438 -41.52799987792969,135.96499633789062 -74.70800018310547,124.68499755859375 C-107.88800048828125,113.40499877929688 -130.44900512695312,117.38500213623047 -130.44900512695312,117.38500213623047 C-96.86900329589844,39.03499984741211 -16.908000946044922,-1.434999942779541 -15.657999992370605,-2.055000066757202 C-39.52799987792969,58.98500061035156 13.552000045776367,63.6349983215332 38.762001037597656,17.844999313354492 C59.641998291015625,-20.065000534057617 50.71200180053711,-69.74500274658203 43.4119987487793,-88.99500274658203 C36.11199951171875,-108.23500061035156 27.461999893188477,-119.76499938964844 28.812000274658203,-125.48500061035156 C29.70199966430664,-129.2550048828125 38.762001037597656,-134.78500366210938 53.36199951171875,-104.91500091552734 C67.96199798583984,-75.05500030517578 69.9520034790039,-41.21500015258789 69.9520034790039,-41.21500015258789 C69.9520034790039,-41.21500015258789 89.2020034790039,-47.845001220703125 134.99200439453125,-59.1349983215332 C180.77200317382812,-70.41500091552734 244.48199462890625,-90.98500061035156 240.5019989013672,-118.8550033569336z"></path><g opacity="1" transform="matrix(0.4160427451133728,0.9093450307846069,-0.9093450307846069,0.4160427451133728,133.65899658203125,-145.0659942626953)"></g><g opacity="1" transform="matrix(1,0,0,1,0,0)"></g></g></g></g></svg>