<svg xmlns="http://www.w3.org/2000/svg" xmlns:xlink="http://www.w3.org/1999/xlink" viewBox="0 0 512 512" width="512" height="512" style="width: 100%; height: 100%; transform: translate3d(0,0,0);" preserveAspectRatio="xMidYMid meet"><defs><clipPath id="__lottie_element_9118"><rect width="512" height="512" x="0" y="0"></rect></clipPath></defs><g clip-path="url(#__lottie_element_9118)"><g style="display: block;" transform="matrix(1.0299999713897705,0,0,1.0299999713897705,6.6423492431640625,5.7050628662109375)" opacity="1"><g opacity="1" transform="matrix(1,0,0,1,235.2550048828125,242.1649932861328)"><path fill="rgb(0,0,0)" fill-opacity="1" d=" M89.48500061035156,-29.674999237060547 C85.68399810791016,-45.28499984741211 112.93399810791016,-42.26499938964844 133.4739990234375,-44.17499923706055 C154.9739990234375,-46.17499923706055 164.9239959716797,-32.625 175.9739990234375,-41.67499923706055 C208.9739990234375,-68.67500305175781 192.5850067138672,-117.53500366210938 193.9739990234375,-146.6649932861328 C195.4739990234375,-178.1649932861328 225.2550048828125,-196.3249969482422 218.4739990234375,-212.1649932861328 C206.6649932861328,-239.77499389648438 141.78500366210938,-241.9149932861328 95.48500061035156,-235.6649932861328 C13.984999656677246,-224.6649932861328 -26.934999465942383,-162.78500366210938 -17.514999389648438,-135.6649932861328 C-12.5649995803833,-121.44499969482422 4.775000095367432,-120.2040023803711 18.485000610351562,-97.16500091552734 C31.804000854492188,-74.7750015258789 28.5939998626709,-45.255001068115234 21.485000610351562,-43.17499923706055 C11.364999771118164,-40.21500015258789 15.484999656677246,-86.16500091552734 -35.51499938964844,-110.16500091552734 C-59.494998931884766,-121.4540023803711 -101.7249984741211,-107.73500061035156 -131.5050048828125,-98.66500091552734 C-166.0050048828125,-88.16500091552734 -203.2550048828125,-104.2750015258789 -216.5050048828125,-90.66500091552734 C-235.0050048828125,-71.67500305175781 -224.4320068359375,18.5049991607666 -187.80099487304688,66.50499725341797 C-144.30099487304688,123.50499725341797 -59.51499938964844,139.8159942626953 -41.51499938964844,118.81600189208984 C-34.525001525878906,110.67500305175781 -33.39500045776367,89.92500305175781 -31.014999389648438,69.32499694824219 C-28.665000915527344,49.04499816894531 -14.354999542236328,27.395999908447266 -2.515000104904175,34.82500076293945 C7.045000076293945,40.82500076293945 -26.204999923706055,96.08499908447266 -5.514999866485596,138.3159942626953 C25.354000091552734,201.3159942626953 87.15499877929688,202.8459930419922 118.9739990234375,208.8159942626953 C142.9739990234375,213.3159942626953 149.4239959716797,241.9149932861328 161.9739990234375,240.8159942626953 C196.03500366210938,237.8249969482422 240.8300018310547,138.58599853515625 215.7989959716797,66.2959976196289 C175.2989959716797,-50.70399856567383 93.98500061035156,-11.175000190734863 89.48500061035156,-29.674999237060547z M-11.854999542236328,-1.274999976158142 C-13.414999961853027,-0.824999988079071 -14.986000061035156,-0.6549999713897705 -16.524999618530273,-0.7149999737739563 C-20.945999145507812,7.204999923706055 -27.934999465942383,12.234999656677246 -35.64500045776367,12.005000114440918 C-48.38600158691406,11.625 -58.2859992980957,-2.9149999618530273 -57.76499938964844,-20.474000930786133 C-57.244998931884766,-38.03499984741211 -46.494998931884766,-51.96500015258789 -33.775001525878906,-51.584999084472656 C-23.7450008392334,-51.29499816894531 -15.46500015258789,-42.19499969482422 -12.664999961853027,-29.764999389648438 C-7.616000175476074,-28.604999542236328 -3.3350000381469727,-24.815000534057617 -1.7949999570846558,-19.485000610351562 C0.45500001311302185,-11.675000190734863 -4.045000076293945,-3.5250000953674316 -11.854999542236328,-1.274999976158142z M45.915000915527344,-97.57499694824219 C49.584999084472656,-109.01499938964844 65.34400177001953,-114.18399810791016 81.125,-109.13500213623047 C96.89399719238281,-104.07499694824219 106.71399688720703,-90.69499969482422 103.04499816894531,-79.26499938964844 C100.16500091552734,-70.25499725341797 89.75499725341797,-65.125 77.75499725341797,-65.83499908447266 C75.38400268554688,-61.564998626708984 70.83499908447266,-58.67499923706055 65.60399627685547,-58.67499923706055 C57.94499969482422,-58.67499923706055 51.73500061035156,-64.88500213623047 51.73500061035156,-72.54499816894531 C51.73500061035156,-74.07499694824219 51.98500061035156,-75.54499816894531 52.44499969482422,-76.92500305175781 C46.42399978637695,-82.99500274658203 43.683998107910156,-90.64399719238281 45.915000915527344,-97.57499694824219z M84.23500061035156,41.255001068115234 C72.40499877929688,55.44499969482422 54.45500183105469,60.005001068115234 44.17399978637695,51.43600082397461 C36.06399917602539,44.68600082397461 35.104000091552734,31.775999069213867 40.8650016784668,19.655000686645508 C37.433998107910156,15.425000190734863 36.354000091552734,9.505000114440918 38.54499816894531,4.0960001945495605 C41.744998931884766,-3.825000047683716 50.763999938964844,-7.644000053405762 58.683998107910156,-4.445000171661377 C60.263999938964844,-3.805000066757202 61.683998107910156,-2.934000015258789 62.915000915527344,-1.875 C71.71399688720703,-5.565000057220459 80.7750015258789,-5.195000171661377 87.00499725341797,0.004999999888241291 C97.30400085449219,8.585000038146973 96.05400085449219,27.045000076293945 84.23500061035156,41.255001068115234z"></path></g></g></g></svg>