<svg xmlns="http://www.w3.org/2000/svg" xmlns:xlink="http://www.w3.org/1999/xlink" viewBox="0 0 512 512" width="512" height="512" style="width: 100%; height: 100%; transform: translate3d(0,0,0);" preserveAspectRatio="xMidYMid meet"><defs><clipPath id="__lottie_element_51485"><rect width="512" height="512" x="0" y="0"></rect></clipPath></defs><g clip-path="url(#__lottie_element_51485)"><g style="display: block;" transform="matrix(1,0,0,1,27.8330078125,6.751007080078125)" opacity="1"><g opacity="1" transform="matrix(1,0,0,1,206.00100708007812,284.67401123046875)"><path fill="rgb(0,0,0)" fill-opacity="1" d=" M-116.83499908447266,-207.4250030517578 C-108.93099975585938,-202.2100067138672 -122.83499908447266,-189.75799560546875 -111.83499908447266,-163.4250030517578 C-103.78900146484375,-144.16299438476562 -73.50199890136719,-147.0919952392578 -34.834999084472656,-109.42500305175781 C-22.5,-97.40799713134766 22.68199920654297,-95.45099639892578 35.165000915527344,-82.42500305175781 C65.83200073242188,-50.42499923706055 49.165000915527344,4.908999919891357 53.165000915527344,33.57600021362305 C54.57400131225586,43.676998138427734 76.49800109863281,69.57499694824219 120.16500091552734,83.57499694824219 C160.2220001220703,96.41799926757812 172.3679962158203,81.19499969482422 188.1649932861328,87.57499694824219 C205.4980010986328,94.57499694824219 205.7519989013672,126.86499786376953 190.58599853515625,124.57499694824219 C165.1230010986328,120.7300033569336 149.27099609375,120.39299774169922 113.16500091552734,125.57499694824219 C85.73300170898438,129.51199340820312 68.23400115966797,143.23899841308594 25.165000915527344,151.5749969482422 C-36.834999084472656,163.5749969482422 -54.17399978637695,145.18800354003906 -58.834999084472656,149.5749969482422 C-64.50199890136719,154.9080047607422 -56.167999267578125,198.9080047607422 -73.83499908447266,209.5749969482422 C-85.57599639892578,216.66400146484375 -113.9990005493164,200.0070037841797 -122.83499908447266,189.5749969482422 C-131.4530029296875,179.4010009765625 -170.8350067138672,175.9080047607422 -176.8350067138672,153.5749969482422 C-183.0240020751953,130.53599548339844 -205.7519989013672,114.21900177001953 -195.8350067138672,103.57499694824219 C-182.16799926757812,88.90799713134766 -150.8350067138672,106.24199676513672 -146.8350067138672,95.57499694824219 C-143.86700439453125,87.65899658203125 -157.63499450683594,76.39399719238281 -151.302001953125,32.39400100708008 C-145.843994140625,-5.52400016784668 -136.27000427246094,-18.36400032043457 -137.8350067138672,-45.42499923706055 C-140.16799926757812,-85.75800323486328 -188.3679962158203,-97.677001953125 -189.8350067138672,-135.4250030517578 C-191.46200561523438,-177.30999755859375 -130.83900451660156,-216.6649932861328 -116.83499908447266,-207.4250030517578z"></path></g><g opacity="1" transform="matrix(1,0,0,1,287.62799072265625,178.5)"><path fill="rgb(0,0,0)" fill-opacity="1" d=" M-170.1280059814453,-81.91699981689453 C-176.0469970703125,-116.01300048828125 -163.46099853515625,-150.41700744628906 -148.46099853515625,-161.25 C-140.48500061035156,-167.01100158691406 -126.45500183105469,-136.8769989013672 -123.79499816894531,-143.58399963378906 C-119.96099853515625,-153.25 -101.46099853515625,-178.25 -90.79499816894531,-178.25 C-75.96099853515625,-178.25 -49.12900161743164,-147.9709930419922 -43.12799835205078,-134.58399963378906 C-40.96099853515625,-129.75 -28.64299964904785,-157.9290008544922 -23.461000442504883,-153.91700744628906 C17.871999740600586,-121.91699981689453 -16.42300033569336,-49.75600051879883 -10.461000442504883,-46.91699981689453 C-6.960999965667725,-45.25 12.538999557495117,-63.75 15.871999740600586,-88.91699981689453 C18.110000610351562,-105.81500244140625 14.27299976348877,-111.49199676513672 18.87299919128418,-122.91699981689453 C24.040000915527344,-135.75 56.53900146484375,-144.75 70.87200164794922,-140.25 C76.3479995727539,-138.531005859375 67.18699645996094,-110.19100189208984 73.53900146484375,-111.58399963378906 C92.53900146484375,-115.75 113.65599822998047,-107.63500213623047 120.87200164794922,-104.58399963378906 C125.53900146484375,-102.61100006103516 131.5290069580078,-73.75399780273438 124.87200164794922,-56.91699981689453 C122.03900146484375,-49.75 156.6280059814453,-55.66699981689453 155.8719940185547,-49.25 C151.03900146484375,-8.25 109.2239990234375,7.914000034332275 106.87200164794922,14.416000366210938 C104.03900146484375,22.25 124.53900146484375,14.25 140.8719940185547,22.416000366210938 C149.36199951171875,26.660999298095703 127.54000091552734,50.25 134.20599365234375,53.41600036621094 C152.82400512695312,62.25899887084961 175.82699584960938,88.92500305175781 175.91799926757812,95.25800323486328 C176.0469970703125,104.25 160.53900146484375,124.25 145.53900146484375,132.75 C140.07200622558594,135.8470001220703 158.1750030517578,150.87100219726562 154.53900146484375,154.75 C147.03900146484375,162.75 113.53900146484375,178.25 79.53900146484375,173.41600036621094 C44.25400161743164,168.39999389648438 0.14399999380111694,136.01699829101562 0.871999979019165,103.41600036621094 C2.1480000019073486,46.25 35.03900146484375,27.75 74.87200164794922,15.083000183105469 C84.24800109863281,12.10099983215332 64.03900146484375,1.25 39.20500183105469,10.083000183105469 C22.739999771118164,15.939000129699707 10.538999557495117,33.25 0.05299999937415123,27.790000915527344 C-39.86399841308594,7.004000186920166 -25.722999572753906,-16.47800064086914 -30.461000442504883,-16.25 C-41.65999984741211,-15.71399974822998 -74.46099853515625,0.25 -95.96099853515625,-24.25 C-115.83799743652344,-46.900001525878906 -169.0540008544922,-75.7300033569336 -170.1280059814453,-81.91699981689453z"></path></g></g></g></svg>