<svg xmlns="http://www.w3.org/2000/svg" xmlns:xlink="http://www.w3.org/1999/xlink" viewBox="0 0 512 512" width="512" height="512" style="width: 100%; height: 100%; transform: translate3d(0,0,0);" preserveAspectRatio="xMidYMid meet"><defs><clipPath id="__lottie_element_51865"><rect width="512" height="512" x="0" y="0"></rect></clipPath></defs><g clip-path="url(#__lottie_element_51865)"><g style="display: block;" transform="matrix(1,0,0,1,0,-20)" opacity="1"><g opacity="1" transform="matrix(1,0,0,1,258.5039978027344,270.4110107421875)"><path fill="rgb(0,0,0)" fill-opacity="1" d=" M-31.652000427246094,-69.61799621582031 C23.599000930786133,-70.56199645996094 2.3910000324249268,6.566999912261963 8.043000221252441,1.2079999446868896 C35.9370002746582,-25.232999801635742 11.829000473022461,-61.4109992980957 22.525999069213867,-67.25700378417969 C63.979000091552734,-89.91200256347656 80.76899719238281,-37.10200119018555 80.99500274658203,6.03000020980835 C81.24099731445312,52.67599868774414 34.86399841308594,88.08899688720703 20.91699981689453,88.08899688720703 C8.043000221252441,88.08899688720703 5.6570000648498535,82.50199890136719 -1.6119999885559082,82.4229965209961 C-11.142000198364258,82.31900024414062 -12.972999572753906,89.91200256347656 -28.433000564575195,87.1449966430664 C-60.082000732421875,81.47899627685547 -80.76000213623047,47.02399826049805 -81.00199890136719,3.0980000495910645 C-81.24099731445312,-40.34299850463867 -50.83399963378906,-69.29000091552734 -31.652000427246094,-69.61799621582031z"></path></g><g opacity="1" transform="matrix(1,0,0,1,408.69500732421875,282)"><path fill="rgb(0,0,0)" fill-opacity="1" d=" M-80.19499969482422,-92.73799896240234 C-81.27999877929688,-85.23400115966797 -64.90399932861328,-50.180999755859375 -55.69499969482422,-49.737998962402344 C-40.36199951171875,-49 -27.347000122070312,-77.09200286865234 -4.695000171661377,-74.73799896240234 C4.333000183105469,-73.80000305175781 14.401000022888184,-70.64900207519531 11.805000305175781,-63.737998962402344 C9.918000221252441,-58.71500015258789 4.25600004196167,-62.474998474121094 -12.694999694824219,-55.237998962402344 C-21.85700035095215,-51.32600021362305 -38.69499969482422,-38.237998962402344 -53.19499969482422,-17.238000869750977 C-56.59299850463867,-12.3149995803833 -62.04999923706055,20.67799949645996 -55.69499969482422,25.761999130249023 C-35.69499969482422,41.762001037597656 -17.49799919128418,68.32499694824219 -16.19499969482422,81.76200103759766 C-15.444999694824219,89.5 -24.69499969482422,93 -29.19499969482422,84.76200103759766 C-39.17100143432617,66.5 -58.19499969482422,47.75 -65.94499969482422,43.75 C-68.3479995727539,42.5099983215332 -103.30500030517578,76.5510025024414 -100.19499969482422,92.76200103759766 C-85.69499969482422,168.33299255371094 7.638000011444092,207 53.63800048828125,156.33299255371094 C101.32099914550781,103.81400299072266 48.095001220703125,23.177000045776367 49.30500030517578,6.76200008392334 C50.63800048828125,-11.324999809265137 124.53500366210938,-139.697998046875 49.80500030517578,-182.23800659179688 C6.304999828338623,-207 -72.25399780273438,-147.67599487304688 -80.19499969482422,-92.73799896240234z"></path></g><g opacity="1" transform="matrix(1,0,0,1,104.81400299072266,286.3420104980469)"><path fill="rgb(0,0,0)" fill-opacity="1" d=" M92.48600006103516,-94.31400299072266 C93.1500015258789,-86.30699920654297 69.1989974975586,-53.15800094604492 59.70100021362305,-53.22700119018555 C43.88600158691406,-53.34199905395508 31.399999618530273,-73.87699890136719 24.520000457763672,-92.05799865722656 C17.85300064086914,-109.67500305175781 1.8530000448226929,-105.67500305175781 5.186999797821045,-88.05799865722656 C6.241000175476074,-82.48699951171875 9.567000389099121,-63.78799819946289 25.85300064086914,-49.67499923706055 C33.64500045776367,-42.92399978637695 43.525001525878906,-40.047000885009766 57.17499923706055,-16.969999313354492 C60.375,-11.5600004196167 62.00299835205078,9.6850004196167 55.15999984741211,14.696000099182129 C33.62699890136719,30.464000701904297 3.5199999809265137,66.65799713134766 0.996999979019165,94.05599975585938 C0.2409999966621399,102.26200103759766 11.003999710083008,107.35299682617188 14.187000274658203,97.99099731445312 C25.520000457763672,64.65799713134766 52.40800094604492,43.11800003051758 60.619998931884766,39.33700180053711 C63.16600036621094,38.16400146484375 104.81400299072266,80.18499755859375 100.89700317382812,97.22200012207031 C84.85299682617188,167.01100158691406 -19.14699935913086,221.3249969482422 -63.143001556396484,160.5260009765625 C-106.71399688720703,100.31500244140625 -49.43199920654297,19.893999099731445 -49.68899917602539,2.446000099182129 C-49.97200012207031,-16.777999877929688 -118.25299835205078,-156.99099731445312 -38.83399963378906,-197.65499877929688 C7.394999980926514,-221.3249969482422 87.62300109863281,-152.93499755859375 92.48600006103516,-94.31400299072266z"></path></g></g></g></svg>