<svg xmlns="http://www.w3.org/2000/svg" xmlns:xlink="http://www.w3.org/1999/xlink" viewBox="0 0 512 512" width="512" height="512" style="width: 100%; height: 100%; transform: translate3d(0,0,0);" preserveAspectRatio="xMidYMid meet"><defs><clipPath id="__lottie_element_14362"><rect width="512" height="512" x="0" y="0"></rect></clipPath></defs><g clip-path="url(#__lottie_element_14362)"><g style="display: block;" transform="matrix(1,0,0,1,256,256)" opacity="1"><g opacity="1" transform="matrix(1,0,0,1,0,0)"><path stroke-linecap="round" stroke-linejoin="round" fill-opacity="0" stroke="rgb(0,0,0)" stroke-opacity="1" stroke-width="30" d=" M-40.54399871826172,-121.9260025024414 C-40.54399871826172,-121.9260025024414 -114.12000274658203,-219.47300720214844 -170.86099243164062,-211.8000030517578 C-221.08299255371094,-205.00799560546875 -223.28799438476562,-145.89300537109375 -223.28799438476562,-145.89300537109375 C-223.28799438476562,-145.89300537109375 -238.28799438476562,-26.51300048828125 -238.28799438476562,-26.51300048828125 C-238.28799438476562,-26.51300048828125 -241.19900512695312,18.312000274658203 -190.9770050048828,25.104000091552734 C-145.2010040283203,31.295000076293945 -71.90799713134766,-13.170999526977539 -45.290000915527344,-30.58799934387207"></path></g><g opacity="1" transform="matrix(1,0,0,1,0,0)"><path fill="rgb(0,0,0)" fill-opacity="1" d=" M-40.54399871826172,-121.9260025024414 C-40.54399871826172,-121.9260025024414 -114.12000274658203,-219.47300720214844 -170.86099243164062,-211.8000030517578 C-221.08299255371094,-205.00799560546875 -223.28799438476562,-145.89300537109375 -223.28799438476562,-145.89300537109375 C-223.28799438476562,-145.89300537109375 -233.74200439453125,-62.694000244140625 -233.74200439453125,-62.694000244140625 C-233.74200439453125,-62.694000244140625 -146.1490020751953,-110.14900207519531 -67.25499725341797,-41.2130012512207 C-67.25499725341797,-41.2130012512207 -40.54399871826172,-121.9260025024414 -40.54399871826172,-121.9260025024414z"></path></g><g opacity="1" transform="matrix(1,0,0,1,0,0)"><path stroke-linecap="round" stroke-linejoin="round" fill-opacity="0" stroke="rgb(0,0,0)" stroke-opacity="1" stroke-width="30" d=" M-61.20199966430664,-45.66400146484375 C-61.20199966430664,-45.66400146484375 -132.6479949951172,-96.81999969482422 -186.7449951171875,-83.59600067138672 C-209.7239990234375,-77.97899627685547 -230.65899658203125,-61.12699890136719 -236.78700256347656,-36.10599899291992"></path></g><g opacity="1" transform="matrix(1,0,0,1,0,0)"><path fill="rgb(0,0,0)" fill-opacity="1" d=" M-17.468000411987305,-7.35099983215332 C-74.91500091552734,90.53199768066406 -115.76599884033203,209.2550048828125 -115.76599884033203,209.2550048828125 C-115.76599884033203,209.2550048828125 -168.8719940185547,145.68099975585938 -168.8719940185547,145.68099975585938 C-168.8719940185547,145.68099975585938 -218.63600158691406,161.66700744628906 -218.63600158691406,161.66700744628906 C-218.78399658203125,161.9080047607422 -189.29800415039062,88.48899841308594 -141.29800415039062,24.14900016784668 C-141.29800415039062,24.14900016784668 -46.57400131225586,-25.893999099731445 -46.57400131225586,-25.893999099731445 C-46.57400131225586,-25.893999099731445 -17.468000411987305,-7.35099983215332 -17.468000411987305,-7.35099983215332z"></path></g><g opacity="1" transform="matrix(1,0,0,1,0,0)"><path stroke-linecap="round" stroke-linejoin="round" fill-opacity="0" stroke="rgb(0,0,0)" stroke-opacity="1" stroke-width="30" d=" M-7.511000156402588,-7.35099983215332 C-64.95800018310547,90.53199768066406 -115.76599884033203,209.2550048828125 -115.76599884033203,209.2550048828125 C-115.76599884033203,209.2550048828125 -168.8719940185547,145.68099975585938 -168.8719940185547,145.68099975585938 C-168.8719940185547,145.68099975585938 -218.63600158691406,161.66700744628906 -218.63600158691406,161.66700744628906 C-218.78399658203125,161.9080047607422 -189.29800415039062,88.48899841308594 -141.29800415039062,24.14900016784668"></path></g><g opacity="1" transform="matrix(1,0,0,1,0,0)"><path stroke-linecap="round" stroke-linejoin="round" fill-opacity="0" stroke="rgb(0,0,0)" stroke-opacity="1" stroke-width="30" d=" M41.94499969482422,-121.9260025024414 C41.94499969482422,-121.9260025024414 115.52100372314453,-219.47300720214844 172.26199340820312,-211.8000030517578 C222.48399353027344,-205.00799560546875 224.68800354003906,-145.89300537109375 224.68800354003906,-145.89300537109375 C224.68800354003906,-145.89300537109375 239.68800354003906,-26.51300048828125 239.68800354003906,-26.51300048828125 C239.68800354003906,-26.51300048828125 242.60000610351562,18.312000274658203 192.3780059814453,25.104000091552734 C146.6020050048828,31.295000076293945 73.30899810791016,-13.170999526977539 46.691001892089844,-30.58799934387207"></path></g><g opacity="1" transform="matrix(1,0,0,1,0,0)"><path fill="rgb(0,0,0)" fill-opacity="1" d=" M41.94499969482422,-121.9260025024414 C41.94499969482422,-121.9260025024414 115.52100372314453,-219.47300720214844 172.26199340820312,-211.8000030517578 C222.48399353027344,-205.00799560546875 224.68800354003906,-145.89300537109375 224.68800354003906,-145.89300537109375 C224.68800354003906,-145.89300537109375 235.14199829101562,-62.694000244140625 235.14199829101562,-62.694000244140625 C235.14199829101562,-62.694000244140625 147.5500030517578,-110.14900207519531 68.65599822998047,-41.2130012512207 C68.65599822998047,-41.2130012512207 41.94499969482422,-121.9260025024414 41.94499969482422,-121.9260025024414z"></path></g><g opacity="1" transform="matrix(1,0,0,1,0,0)"><path stroke-linecap="round" stroke-linejoin="round" fill-opacity="0" stroke="rgb(0,0,0)" stroke-opacity="1" stroke-width="30" d=" M62.60300064086914,-45.66400146484375 C62.60300064086914,-45.66400146484375 134.04800415039062,-96.81999969482422 188.14500427246094,-83.59600067138672 C211.12399291992188,-77.97899627685547 232.05999755859375,-61.12699890136719 238.18800354003906,-36.10599899291992"></path></g><g opacity="1" transform="matrix(1,0,0,1,0,0)"><path fill="rgb(0,0,0)" fill-opacity="1" d=" M18.868999481201172,-7.35099983215332 C76.31600189208984,90.53199768066406 117.16699981689453,209.2550048828125 117.16699981689453,209.2550048828125 C117.16699981689453,209.2550048828125 170.2729949951172,145.68099975585938 170.2729949951172,145.68099975585938 C170.2729949951172,145.68099975585938 220.03599548339844,161.66700744628906 220.03599548339844,161.66700744628906 C220.1840057373047,161.9080047607422 190.69900512695312,88.48899841308594 142.69900512695312,24.14900016784668 C142.69900512695312,24.14900016784668 47.974998474121094,-25.893999099731445 47.974998474121094,-25.893999099731445 C47.974998474121094,-25.893999099731445 18.868999481201172,-7.35099983215332 18.868999481201172,-7.35099983215332z"></path></g><g opacity="1" transform="matrix(1,0,0,1,0,0)"><path stroke-linecap="round" stroke-linejoin="round" fill-opacity="0" stroke="rgb(0,0,0)" stroke-opacity="1" stroke-width="30" d=" M13.935999870300293,-7.35099983215332 C71.38300323486328,90.53199768066406 117.16699981689453,209.2550048828125 117.16699981689453,209.2550048828125 C117.16699981689453,209.2550048828125 170.2729949951172,145.68099975585938 170.2729949951172,145.68099975585938 C170.2729949951172,145.68099975585938 220.03599548339844,161.66700744628906 220.03599548339844,161.66700744628906 C220.1840057373047,161.9080047607422 190.69900512695312,88.48899841308594 142.69900512695312,24.14900016784668"></path></g><g opacity="1" transform="matrix(1,0,0,1,0,0)"><path stroke-linecap="round" stroke-linejoin="round" fill-opacity="0" stroke="rgb(0,0,0)" stroke-opacity="1" stroke-width="30" d=" M54.358001708984375,-67.947998046875 C54.358001708984375,-21.450000762939453 30.143999099731445,-9.553000450134277 0.27399998903274536,-9.553000450134277 C-29.59600067138672,-9.553000450134277 -53.81100082397461,-21.450000762939453 -53.81100082397461,-67.947998046875 C-53.81100082397461,-114.44599914550781 -29.59600067138672,-122.91500091552734 0.27399998903274536,-122.91500091552734 C30.143999099731445,-122.91500091552734 54.358001708984375,-114.44599914550781 54.358001708984375,-67.947998046875z"></path></g></g></g></svg>