<svg xmlns="http://www.w3.org/2000/svg" xmlns:xlink="http://www.w3.org/1999/xlink" viewBox="0 0 512 512" width="512" height="512" style="width: 100%; height: 100%; transform: translate3d(0,0,0);" preserveAspectRatio="xMidYMid meet"><defs><clipPath id="__lottie_element_51505"><rect width="512" height="512" x="0" y="0"></rect></clipPath></defs><g clip-path="url(#__lottie_element_51505)"><g style="display: block;" transform="matrix(1,0,0,1,0,0)" opacity="1"><g opacity="1" transform="matrix(1,0,0,1,257.5150146484375,219.83999633789062)"><path fill="rgb(0,0,0)" fill-opacity="1" d=" M233.48500061035156,12.15999984741211 C226.15499877929688,-64.83999633789062 186.81500244140625,-78.83999633789062 182.48500061035156,-88.83999633789062 C178.97500610351562,-96.94999694824219 168.81500244140625,-161.83999633789062 80.48500061035156,-166.83999633789062 C30.885000228881836,-169.64999389648438 -16.625,-138.8800048828125 -24.514999389648438,-131.83999633789062 C-68.44499969482422,-92.62999725341797 -74.41500091552734,-50.58000183105469 -79.51499938964844,-33.84000015258789 C-79.99500274658203,-32.27000045776367 -111.18499755859375,-73.51000213623047 -52.51499938964844,-150.83999633789062 C-42.51499938964844,-164.02000427246094 -159.84500122070312,-195.50999450683594 -197.84500122070312,-86.83999633789062 C-200.71499633789062,-78.62999725341797 -235.51499938964844,-59.5099983215332 -213.51499938964844,1.159999966621399 C-210.60499572753906,9.1899995803833 -235.51499938964844,12.039999961853027 -235.51499938964844,56.15999984741211 C-235.51499938964844,94.48999786376953 -219.3249969482422,103.01000213623047 -212.51499938964844,113.16000366210938 C-206.06500244140625,122.7699966430664 -194.51499938964844,151.16000366210938 -167.51499938964844,164.16000366210938 C-131.77499389648438,181.3699951171875 -77.03500366210938,169.85000610351562 -81.84500122070312,162.8300018310547 C-97.84500122070312,139.49000549316406 -89.59500122070312,116.7300033569336 -88.51499938964844,119.16000366210938 C-75.18499755859375,149.16000366210938 -62.505001068115234,179.11000061035156 -19.514999389648438,190.16000366210938 C1.2949999570846558,195.50999450683594 51.3650016784668,176.24000549316406 62.48500061035156,173.16000366210938 C69.13500213623047,171.32000732421875 100.15499877929688,187.8300018310547 145.48500061035156,158.16000366210938 C157.21499633789062,150.47999572753906 177.21499633789062,131.0800018310547 173.48500061035156,99.16000366210938 C170.48500061035156,73.48999786376953 153.48500061035156,60.4900016784668 136.81500244140625,59.83000183105469 C123.54499816894531,59.29999923706055 126.21499633789062,42.63999938964844 137.15499877929688,41.4900016784668 C188.15499877929688,36.15999984741211 185.48500061035156,81.83000183105469 197.48500061035156,78.16000366210938 C225.7550048828125,69.5199966430664 235.51499938964844,33.470001220703125 233.48500061035156,12.15999984741211z M-138.18499755859375,-106.16999816894531 C-130.15499877929688,-116.05999755859375 -116.51499938964844,-110.16999816894531 -120.51499938964844,-100.16999816894531 C-129.22500610351562,-78.4000015258789 -127.81500244140625,-61.790000915527344 -123.18499755859375,-40.16999816894531 C-121.18499755859375,-30.84000015258789 -135.65499877929688,-28.510000228881836 -140.51499938964844,-37.16999816894531 C-152.85499572753906,-59.150001525878906 -149.0050048828125,-92.83999633789062 -138.18499755859375,-106.16999816894531z M-110.51499938964844,37.15999984741211 C-119.79499816894531,49.83000183105469 -130.39500427246094,41.45000076293945 -126.51499938964844,29.829999923706055 C-123.18499755859375,19.829999923706055 -138.3350067138672,6.369999885559082 -148.18499755859375,14.829999923706055 C-176.51499938964844,39.15999984741211 -142.375,84.16000366210938 -143.18499755859375,101.48999786376953 C-143.8249969482422,115.5 -147.18499755859375,121.48999786376953 -159.51499938964844,130.8300018310547 C-168.23500061035156,137.42999267578125 -180.48500061035156,125.08000183105469 -173.84500122070312,116.48999786376953 C-164.52499389648438,104.41000366210938 -163.86500549316406,99.30999755859375 -169.09500122070312,88.98999786376953 C-182.7550048828125,62.029998779296875 -194.36500549316406,20.520000457763672 -160.18499755859375,-3.8399999141693115 C-133.9949951171875,-22.510000228881836 -91.30500030517578,10.9399995803833 -110.51499938964844,37.15999984741211z M13.385000228881836,137.8300018310547 C-4.764999866485596,136.64999389648438 -26.954999923706055,128.5800018310547 -24.4950008392334,102.41000366210938 C-22.184999465942383,77.83000183105469 24.815000534057617,44.4900016784668 -7.105000019073486,21.3700008392334 C-19.30500030517578,12.529999732971191 -51.845001220703125,22.489999771118164 -48.814998626708984,38.4900016784668 C-46.474998474121094,50.88999938964844 -61.6349983215332,61.41999816894531 -69.06500244140625,45.83000183105469 C-85.18499755859375,12.039999961853027 -24.405000686645508,-17.100000381469727 8.074999809265137,2.700000047683716 C45.48500061035156,25.510000228881836 24.155000686645508,67.30999755859375 3.984999895095825,92.48999786376953 C-3.674999952316284,102.05999755859375 4.09499979019165,115.55999755859375 20.524999618530273,119.48999786376953 C35.814998626708984,123.16000366210938 32.814998626708984,139.08999633789062 13.385000228881836,137.8300018310547z M5.485000133514404,-15.510000228881836 C-7.085000038146973,-17.06999969482422 -6.184999942779541,-37.5099983215332 7.15500020980835,-36.16999816894531 C27.094999313354492,-34.18000030517578 44.685001373291016,-33.91999816894531 56.154998779296875,-54.84000015258789 C65.29499816894531,-71.5199966430664 53.29499816894531,-107.61000061035156 91.48500061035156,-108.83999633789062 C135.5050048828125,-110.26000213623047 146.90499877929688,-58.2599983215332 124.15499877929688,-35.5099983215332 C114.15499877929688,-25.510000228881836 99.81500244140625,-32.779998779296875 107.48500061035156,-45.5099983215332 C118.43499755859375,-63.68000030517578 114.48500061035156,-89.51000213623047 93.48500061035156,-87.51000213623047 C78.09500122070312,-86.04000091552734 89.7750015258789,-60.599998474121094 71.48500061035156,-38.84000015258789 C51.994998931884766,-15.640000343322754 26.915000915527344,-12.84000015258789 5.485000133514404,-15.510000228881836z M132.48500061035156,13.15999984741211 C106.6050033569336,8.5600004196167 90.95500183105469,35.939998626708984 87.48500061035156,53.15999984741211 C83.81500244140625,71.37999725341797 96.81500244140625,98.83000183105469 117.48500061035156,108.83000183105469 C128.2050018310547,114.0199966430664 121.13500213623047,130.14999389648438 107.15499877929688,124.16000366210938 C83.81500244140625,114.16000366210938 58.814998626708984,96.48999786376953 66.81500244140625,49.15999984741211 C76.67500305175781,-9.180000305175781 120.625,-7.21999979019165 134.15499877929688,-5.510000228881836 C148.15499877929688,-3.7300000190734863 147.48500061035156,15.829999923706055 132.48500061035156,13.15999984741211z"></path></g><g opacity="1" transform="matrix(1,0,0,1,389.8890075683594,395.1419982910156)"><path fill="rgb(0,0,0)" fill-opacity="1" d=" M-105.22200012207031,31.524999618530273 C-103.80799865722656,26.499000549316406 -73.28199768066406,19.267000198364258 -65.55599975585938,19.857999801635742 C-59.893001556396484,20.291000366210938 -17.555999755859375,29.19099998474121 17.444000244140625,5.525000095367432 C76.11100006103516,-34.145999908447266 61.45399856567383,-70.81600189208984 67.11100006103516,-68.80899810791016 C108.44400024414062,-54.141998291015625 103.36900329589844,15.524999618530273 59.444000244140625,43.525001525878906 C16.631999969482422,70.81600189208984 -18.31599998474121,53.71699905395508 -25.222000122070312,52.858001708984375 C-32.38100051879883,51.96699905395508 -39.53099822998047,58.43000030517578 -50.555999755859375,59.858001708984375 C-78.0199966430664,63.415000915527344 -108.44300079345703,42.9630012512207 -105.22200012207031,31.524999618530273z"></path></g></g></g></svg>