<svg xmlns="http://www.w3.org/2000/svg" xmlns:xlink="http://www.w3.org/1999/xlink" viewBox="0 0 512 512" width="512" height="512" style="width: 100%; height: 100%; transform: translate3d(0,0,0);" preserveAspectRatio="xMidYMid meet"><defs><clipPath id="__lottie_element_27199"><rect width="512" height="512" x="0" y="0"></rect></clipPath></defs><g clip-path="url(#__lottie_element_27199)"><g style="display: block;" transform="matrix(1,0,0,1,0,0)" opacity="1"><g opacity="1" transform="matrix(1,0,0,1,256,250.1929931640625)"><path fill="rgb(65,63,63)" fill-opacity="1" d=" M16.608999252319336,-155.91700744628906 C26.836999893188477,-151.45700073242188 33.08700180053711,-143.48500061035156 43.52799987792969,-139.59800720214844 C58.880001068115234,-199.9949951171875 142.4239959716797,-216.3350067138672 193.23699951171875,-194.16900634765625 C240.18699645996094,-173.68800354003906 262.8699951171875,-117.13500213623047 254.17300415039062,-68.44100189208984 C245.6540069580078,-20.73900032043457 213.17100524902344,-14.954999923706055 186.63800048828125,16.589000701904297 C176.50599670410156,28.634000778198242 175.7239990234375,58.97800064086914 194.18499755859375,61.24599838256836 C207.79100036621094,62.917999267578125 229.375,46.345001220703125 238.61700439453125,67.9219970703125 C246.80299377441406,87.03500366210938 228.2220001220703,97.10900115966797 213.41900634765625,103.77300262451172 C145.26100158691406,134.45899963378906 59.763999938964844,159.03799438476562 -11.72700023651123,183.8560028076172 C-38.86899948120117,193.2779998779297 -67.83200073242188,210.41600036621094 -97.54100036621094,214.7779998779297 C-108.14700317382812,216.3350067138672 -119.26599884033203,214.12399291992188 -124.2770004272461,203.27499389648438 C-142.0760040283203,164.73500061035156 -81.19100189208984,178.75 -97.03299713134766,142.00100708007812 C-109.74299621582031,112.5199966430664 -127.89099884033203,131.04299926757812 -145.4029998779297,134.02999877929688 C-274.1700134277344,155.99200439453125 -302.510986328125,-62.981998443603516 -165.86700439453125,-80.6500015258789 C-158.37899780273438,-81.61799621582031 -130.9040069580078,-78.69200134277344 -128.843994140625,-80.01599884033203 C-126.52100372314453,-81.50800323486328 -120.52200317382812,-114.50399780273438 -116.25199890136719,-122.23500061035156 C-92.20899963378906,-165.77200317382812 -25.746000289916992,-174.38800048828125 16.608999252319336,-155.91700744628906z M-44.874000549316406,-97.5270004272461 C-104.7509994506836,-65.85399627685547 -50.11000061035156,32.57899856567383 8.956000328063965,-18.240999221801758 C50.641998291015625,-54.106998443603516 5.822000026702881,-124.34400177001953 -44.874000549316406,-97.5270004272461z M184.2310028076172,-62.91600036621094 C220.6790008544922,-120.1969985961914 136.99400329589844,-174.38800048828125 99.25800323486328,-120.69000244140625 C57.60100173950195,-61.415000915527344 142.78500366210938,2.2200000286102295 184.2310028076172,-62.91600036621094z M-168.6490020751953,74.35900115966797 C-115.80400085449219,96.6510009765625 -76.3239974975586,11.392999649047852 -132.83999633789062,-17.089000701904297 C-194.16900634765625,-47.99800109863281 -226.19900512695312,50.082000732421875 -168.6490020751953,74.35900115966797z M84.02999877929688,11.720999717712402 C79.8499984741211,10.262999534606934 73.63800048828125,1.7389999628067017 67.36699676513672,3.7279999256134033 C63.41299819946289,4.98199987411499 51.61899948120117,24.531999588012695 46.39699935913086,29.27400016784668 C34.00899887084961,40.52299880981445 16.375,49.69200134277344 -0.23600000143051147,52.49800109863281 C-24.107999801635742,56.53099822998047 -37.27799987792969,39.731998443603516 -53.75299835205078,76.4020004272461 C-69.01100158691406,110.36499786376953 -19.726999282836914,124.08200073242188 5.204999923706055,120.83499908447266 C38.803001403808594,116.45899963378906 102.78500366210938,91.95999908447266 118.10700225830078,59.7239990234375 C137.3070068359375,19.327999114990234 111.90899658203125,21.44499969482422 84.02999877929688,11.720999717712402z"></path></g></g></g></svg>