<svg xmlns="http://www.w3.org/2000/svg" xmlns:xlink="http://www.w3.org/1999/xlink" viewBox="0 0 512 512" width="512" height="512" style="width: 100%; height: 100%; transform: translate3d(0,0,0);" preserveAspectRatio="xMidYMid meet"><defs><clipPath id="__lottie_element_53554"><rect width="512" height="512" x="0" y="0"></rect></clipPath></defs><g clip-path="url(#__lottie_element_53554)"><g style="display: block;" transform="matrix(1,0,0,1,254.00999450683594,254.22799682617188)" opacity="1"><g opacity="1" transform="matrix(1,0,0,1,0,0)"><path fill="rgb(0,0,0)" fill-opacity="1" d=" M116.56400299072266,-99.96099853515625 C140.55499267578125,-71.98500061035156 160.66000366210938,-42.81800079345703 176.57400512695312,-13.831999778747559 C169.41099548339844,2.5810000896453857 126.94100189208984,29.047000885009766 97.96099853515625,45.62900161743164 C91.0739974975586,49.56999969482422 94.49800109863281,60.09600067138672 102.38999938964844,59.266998291015625 C130.98899841308594,56.262001037597656 171.7790069580078,47.40700149536133 194.08399963378906,21.795000076293945 C229.8679962158203,104.26000213623047 229.78599548339844,180.50100708007812 186.57200622558594,217.55999755859375 C122.19499969482422,272.7669982910156 -13.52299976348877,220.11599731445312 -116.56400299072266,99.96099853515625 C-219.60499572753906,-20.194000244140625 -250.947998046875,-162.35299682617188 -186.57200622558594,-217.55999755859375 C-151.59300231933594,-247.55599975585938 -95.55400085449219,-245.71099853515625 -35.137001037597656,-218.49600219726562 C-30.55500030517578,-163.75100708007812 -48.404998779296875,-104.43499755859375 -61.375999450683594,-69.79399871826172 C-64.68000030517578,-60.970001220703125 -53.2130012512207,-54.138999938964844 -47.09000015258789,-61.30099868774414 C-24.652999877929688,-87.5479965209961 3.2839999198913574,-136.1580047607422 3.371000051498413,-198.04200744628906 C30.961000442504883,-181.1840057373047 58.72700119018555,-159.4969940185547 85.16200256347656,-133.56399536132812 C84.53399658203125,-95.36799621582031 52.64899826049805,-48.17900085449219 31.10300064086914,-20.575000762939453 C26.402999877929688,-14.553000450134277 33.242000579833984,-6.3470001220703125 39.99800109863281,-9.913000106811523 C68.48200225830078,-24.94700050354004 109.24600219726562,-54.053001403808594 116.56400299072266,-99.96099853515625z"></path></g></g></g></svg>