<svg xmlns="http://www.w3.org/2000/svg" xmlns:xlink="http://www.w3.org/1999/xlink" viewBox="0 0 512 512" width="512" height="512" style="width: 100%; height: 100%; transform: translate3d(0,0,0);" preserveAspectRatio="xMidYMid meet"><defs><clipPath id="__lottie_element_52258"><rect width="512" height="512" x="0" y="0"></rect></clipPath></defs><g clip-path="url(#__lottie_element_52258)"><g style="display: block;" transform="matrix(1,0,0,1,0,0)" opacity="1"><g opacity="1" transform="matrix(1,0,0,1,421.6600036621094,352.3689880371094)"><path fill="rgb(0,0,0)" fill-opacity="1" d=" M23.23699951171875,-9.045000076293945 C23.23699951171875,-9.045000076293945 33.07899856567383,-3.6630001068115234 33.07899856567383,-3.6630001068115234 C35.9739990234375,-2.0799999237060547 35.9739990234375,2.0799999237060547 33.07899856567383,3.6630001068115234 C33.07899856567383,3.6630001068115234 23.23699951171875,9.045000076293945 23.23699951171875,9.045000076293945 C17.246999740600586,12.321000099182129 12.321000099182129,17.246999740600586 9.045000076293945,23.23699951171875 C9.045000076293945,23.23699951171875 3.6630001068115234,33.07899856567383 3.6630001068115234,33.07899856567383 C2.0799999237060547,35.9739990234375 -2.0799999237060547,35.9739990234375 -3.6630001068115234,33.07899856567383 C-3.6630001068115234,33.07899856567383 -9.045000076293945,23.23699951171875 -9.045000076293945,23.23699951171875 C-12.321000099182129,17.246999740600586 -17.246999740600586,12.321000099182129 -23.23699951171875,9.045000076293945 C-23.23699951171875,9.045000076293945 -33.07899856567383,3.6630001068115234 -33.07899856567383,3.6630001068115234 C-35.9739990234375,2.0799999237060547 -35.9739990234375,-2.0799999237060547 -33.07899856567383,-3.6630001068115234 C-33.07899856567383,-3.6630001068115234 -23.23699951171875,-9.045000076293945 -23.23699951171875,-9.045000076293945 C-17.246999740600586,-12.321000099182129 -12.321000099182129,-17.246999740600586 -9.045000076293945,-23.23699951171875 C-9.045000076293945,-23.23699951171875 -3.6630001068115234,-33.07899856567383 -3.6630001068115234,-33.07899856567383 C-2.0799999237060547,-35.9739990234375 2.0799999237060547,-35.9739990234375 3.6630001068115234,-33.07899856567383 C3.6630001068115234,-33.07899856567383 9.045000076293945,-23.23699951171875 9.045000076293945,-23.23699951171875 C12.321000099182129,-17.246999740600586 17.246999740600586,-12.321000099182129 23.23699951171875,-9.045000076293945z"></path></g><g opacity="1" transform="matrix(1,0,0,1,134.1909942626953,126.84700012207031)"><path fill="rgb(0,0,0)" fill-opacity="1" d=" M44.099998474121094,-15.28499984741211 C44.099998474121094,-15.28499984741211 86.40399932861328,-3.8940000534057617 86.40399932861328,-3.8940000534057617 C90.38300323486328,-2.822999954223633 90.38300323486328,2.822999954223633 86.40399932861328,3.8940000534057617 C86.40399932861328,3.8940000534057617 44.099998474121094,15.28499984741211 44.099998474121094,15.28499984741211 C30.04599952697754,19.069000244140625 19.069000244140625,30.04599952697754 15.28499984741211,44.099998474121094 C15.28499984741211,44.099998474121094 3.8940000534057617,86.40399932861328 3.8940000534057617,86.40399932861328 C2.822999954223633,90.38300323486328 -2.822999954223633,90.38300323486328 -3.8940000534057617,86.40399932861328 C-3.8940000534057617,86.40399932861328 -15.28499984741211,44.099998474121094 -15.28499984741211,44.099998474121094 C-19.069000244140625,30.04599952697754 -30.04599952697754,19.069000244140625 -44.099998474121094,15.28499984741211 C-44.099998474121094,15.28499984741211 -86.40399932861328,3.8940000534057617 -86.40399932861328,3.8940000534057617 C-90.38300323486328,2.822999954223633 -90.38300323486328,-2.822999954223633 -86.40399932861328,-3.8940000534057617 C-86.40399932861328,-3.8940000534057617 -44.099998474121094,-15.28499984741211 -44.099998474121094,-15.28499984741211 C-30.04599952697754,-19.069000244140625 -19.069000244140625,-30.04599952697754 -15.28499984741211,-44.099998474121094 C-15.28499984741211,-44.099998474121094 -3.8940000534057617,-86.40399932861328 -3.8940000534057617,-86.40399932861328 C-2.822999954223633,-90.38300323486328 2.822999954223633,-90.38300323486328 3.8940000534057617,-86.40399932861328 C3.8940000534057617,-86.40399932861328 15.28499984741211,-44.099998474121094 15.28499984741211,-44.099998474121094 C19.069000244140625,-30.04599952697754 30.04599952697754,-19.069000244140625 44.099998474121094,-15.28499984741211z"></path></g><g opacity="1" transform="matrix(1,0,0,1,306.24700927734375,403.5220031738281)"><path fill="rgb(0,0,0)" fill-opacity="1" d=" M33.59700012207031,-15.362000465393066 C33.59700012207031,-15.362000465393066 61.0260009765625,-4.544000148773193 61.0260009765625,-4.544000148773193 C65.1500015258789,-2.9179999828338623 65.1500015258789,2.9179999828338623 61.0260009765625,4.544000148773193 C61.0260009765625,4.544000148773193 33.59700012207031,15.362000465393066 33.59700012207031,15.362000465393066 C25.2549991607666,18.652000427246094 18.652000427246094,25.2549991607666 15.362000465393066,33.59700012207031 C15.362000465393066,33.59700012207031 4.544000148773193,61.0260009765625 4.544000148773193,61.0260009765625 C2.9179999828338623,65.1500015258789 -2.9179999828338623,65.1500015258789 -4.544000148773193,61.0260009765625 C-4.544000148773193,61.0260009765625 -15.362000465393066,33.59700012207031 -15.362000465393066,33.59700012207031 C-18.652000427246094,25.2549991607666 -25.2549991607666,18.652000427246094 -33.59700012207031,15.362000465393066 C-33.59700012207031,15.362000465393066 -61.0260009765625,4.544000148773193 -61.0260009765625,4.544000148773193 C-65.1500015258789,2.9179999828338623 -65.1500015258789,-2.9179999828338623 -61.0260009765625,-4.544000148773193 C-61.0260009765625,-4.544000148773193 -33.59700012207031,-15.362000465393066 -33.59700012207031,-15.362000465393066 C-25.2549991607666,-18.652000427246094 -18.652000427246094,-25.2549991607666 -15.362000465393066,-33.59700012207031 C-15.362000465393066,-33.59700012207031 -4.544000148773193,-61.0260009765625 -4.544000148773193,-61.0260009765625 C-2.9179999828338623,-65.1500015258789 2.9179999828338623,-65.1500015258789 4.544000148773193,-61.0260009765625 C4.544000148773193,-61.0260009765625 15.362000465393066,-33.59700012207031 15.362000465393066,-33.59700012207031 C18.652000427246094,-25.2549991607666 25.2549991607666,-18.652000427246094 33.59700012207031,-15.362000465393066z"></path></g><g opacity="1" transform="matrix(1,0,0,1,262.86199951171875,258.7900085449219)"><g opacity="1" transform="matrix(1,0,0,1,0,0)"><path fill="rgb(0,0,0)" fill-opacity="1" d=" M206.552001953125,-150.83799743652344 C206.44400024414062,-151.24200439453125 206.33900451660156,-151.8699951171875 206.23699951171875,-152.74400329589844 C205.9029998779297,-154.73800659179688 205.53599548339844,-156.697998046875 205.13499450683594,-158.61900329589844 C200.73599243164062,-174.822998046875 186.18899536132812,-185.51100158691406 181.69500732421875,-161.1020050048828 C176.69700622558594,-133.95599365234375 159.08099365234375,-104.63400268554688 131.5070037841797,-84.802001953125 C103.93299865722656,-64.97100067138672 82.77200317382812,-71.6240005493164 100.1449966430664,-85.29100036621094 C117.51799774169922,-98.95800018310547 150.2899932861328,-122.13400268554688 152.89300537109375,-165.6999969482422 C154.42300415039062,-191.31199645996094 141.41600036621094,-218.3249969482422 118.15799713134766,-230.22300720214844 C79.23200225830078,-250.13699340820312 24.468000411987305,-219.69400024414062 10.831999778747559,-180.3820037841797 C5.355999946594238,-164.5959930419922 10.401000022888184,-134.53199768066406 32.46200180053711,-151.2239990234375 C60.34700012207031,-172.32200622558594 86.64199829101562,-140.14100646972656 74.64199829101562,-111.81099700927734 C62.641998291015625,-83.48100280761719 -88.30699920654297,-49.71799850463867 -166.4029998779297,16.05699920654297 C-244.49899291992188,81.83200073242188 -202.64199829101562,235.97799682617188 -133.96200561523438,236.4969940185547 C-109.3759994506836,236.41099548339844 -122.61799621582031,225.94500732421875 -128.36199951171875,204.96200561523438 C-132.60800170898438,189.45199584960938 -148.5800018310547,121.0270004272461 -108.69999694824219,78.67500305175781 C-93.37100219726562,62.89099884033203 -84.37699890136719,84.19499969482422 -95.37999725341797,99.80599975585938 C-106.43699645996094,115.49400329589844 -108.22899627685547,142.5050048828125 -103.2300033569336,154.27999877929688 C-98.23100280761719,166.0540008544922 -84.01300048828125,157.4770050048828 -84.0719985961914,143.4669952392578 C-84.13099670410156,129.45700073242188 -74.78199768066406,76.80799865722656 -5.946000099182129,53.856998443603516 C27.36199951171875,42.750999450683594 63.82500076293945,31.18400001525879 96.53299713134766,17.726999282836914 C130.57000732421875,6.284999847412109 159.77699279785156,-9.508999824523926 179.81199645996094,-33.319000244140625 C179.8719940185547,-33.387001037597656 179.93499755859375,-33.45399856567383 179.9949951171875,-33.52199935913086 C180.3800048828125,-33.959999084472656 180.7100067138672,-34.37300109863281 181.01300048828125,-34.7760009765625 C196.17300415039062,-53.3849983215332 205.83700561523438,-76.79499816894531 207.97999572753906,-106.71700286865234 C209.1479949951172,-123.0250015258789 208.58099365234375,-137.7100067138672 206.552001953125,-150.83799743652344z"></path></g></g></g></g></svg>