<svg xmlns="http://www.w3.org/2000/svg" xmlns:xlink="http://www.w3.org/1999/xlink" viewBox="0 0 512 512" width="512" height="512" style="width: 100%; height: 100%; transform: translate3d(0,0,0);" preserveAspectRatio="xMidYMid meet"><defs><clipPath id="__lottie_element_52678"><rect width="512" height="512" x="0" y="0"></rect></clipPath></defs><g clip-path="url(#__lottie_element_52678)"><g style="display: block;" transform="matrix(1,0,0,1,256,256)" opacity="1"><g opacity="1" transform="matrix(1,0,0,1,0,0)"><path fill="rgb(0,0,0)" fill-opacity="1" d=" M-55.20000076293945,-67.55000305175781 C-48.16299819946289,-103.822998046875 -26.05699920654297,-137.281005859375 -9.75,-163.1999969482422 C-55.87799835205078,-213.87600708007812 -143.69900512695312,-223.68899536132812 -200.25,-183.25 C-339.5639953613281,-55.92499923706055 -164.97799682617188,163.7989959716797 -21.049999237060547,214.4499969482422 C-21.88599967956543,203.12399291992188 -77.0479965209961,89.13300323486328 -62.65399932861328,81.0009994506836 C16.472000122070312,-19.350000381469727 2.674999952316284,34.86199951171875 -55.20000076293945,-67.55000305175781 M120.55000305175781,-208.14999389648438 C43.73699951171875,-212.14700317382812 8.03600025177002,-135.79400634765625 -20.35300064086914,-71.85199737548828 C-18.0939998626709,-66.35600280761719 37.790000915527344,5.224999904632568 33.20100021362305,10.399999618530273 C-50.34299850463867,139.2830047607422 -42.81100082397461,45.630001068115234 15.100000381469727,217.60000610351562 C100.98699951171875,195.05599975585938 181.63099670410156,106.66200256347656 222.3509979248047,28.45199966430664 C279.3160095214844,-70.88999938964844 247.46800231933594,-208.99200439453125 120.55000305175781,-208.14999389648438z"></path></g></g></g></svg>