<svg xmlns="http://www.w3.org/2000/svg" xmlns:xlink="http://www.w3.org/1999/xlink" viewBox="0 0 512 512" width="512" height="512" style="width: 100%; height: 100%; transform: translate3d(0,0,0);" preserveAspectRatio="xMidYMid meet"><defs><clipPath id="__lottie_element_52638"><rect width="512" height="512" x="0" y="0"></rect></clipPath></defs><g clip-path="url(#__lottie_element_52638)"><g style="display: block;" transform="matrix(1,0,0,1,258.0159912109375,256.91900634765625)" opacity="1"><g opacity="1" transform="matrix(1,0,0,1,0,0)"><path fill="rgb(0,0,0)" fill-opacity="1" d=" M-154.22999572753906,-69.09200286865234 C-154.22999572753906,-69.09200286865234 -154.29600524902344,-69.11000061035156 -154.29600524902344,-69.11000061035156 C-154.29600524902344,-69.11000061035156 -145.52699279785156,-90.38300323486328 -145.52699279785156,-90.38300323486328 C-136.4969940185547,-112.05400085449219 -128.62100219726562,-108.13999938964844 -105.08399963378906,-88.34500122070312 C-80.09400177001953,-67.7969970703125 -43.194000244140625,-49.34299850463867 -0.30799999833106995,-37.85200119018555 C42.58399963378906,-26.360000610351562 83.74700164794922,-23.886999130249023 115.625,-29.18000030517578 C148.76800537109375,-34.49300003051758 153.697998046875,-34.52899932861328 151.14100646972656,-13.024999618530273 C151.14100646972656,-13.024999618530273 148.26100158691406,9.291000366210938 148.26100158691406,9.291000366210938 C148.20700073242188,11.08899974822998 147.96499633789062,12.857000350952148 147.50100708007812,14.586999893188477 C144.67300415039062,25.138999938964844 134.43499755859375,32.98699951171875 118.94200134277344,37.92599868774414 C100.08000183105469,94.12300109863281 74.08499908447266,157.781005859375 55.0880012512207,211.61700439453125 C44.882999420166016,240.53799438476562 -5.868000030517578,249.64700317382812 -72.68299865722656,231.7449951171875 C-139.4969940185547,213.8419952392578 -180.0070037841797,182.10499572753906 -174.6820068359375,152.32400512695312 C-168.71299743652344,118.94599914550781 -162.29400634765625,80.24400329589844 -155.49000549316406,41.94499969482422 C-148.6300048828125,3.3320000171661377 -137.07899475097656,16.115999221801758 -99.34300231933594,29.30500030517578 C-85.69100189208984,34.07699966430664 -71.32099914550781,37.624000549316406 -60.50600051879883,39.63399887084961 C-51.71200180053711,41.58100128173828 -46.805999755859375,41.492000579833984 -45.63999938964844,37.492000579833984 C-44.4739990234375,33.492000579833984 -45.858001708984375,30.895999908447266 -55.14799880981445,26.677000045776367 C-65.47899627685547,21.985000610351562 -81.01799774169922,14.458999633789062 -99.4260025024414,1.9600000381469727 C-109.8030014038086,-5.085999965667725 -118.55500030517578,-11.461000442504883 -125.86299896240234,-17.395000457763672 C-147.71200561523438,-34.13199996948242 -159.0800018310547,-51.6609992980957 -155.10499572753906,-66.49600219726562 C-154.8679962158203,-67.38099670410156 -154.57000732421875,-68.24500274658203 -154.22999572753906,-69.09200286865234 C-154.22999572753906,-69.09200286865234 -154.22999572753906,-69.09200286865234 -154.22999572753906,-69.09200286865234z M-23.611000061035156,139.7469940185547 C-36.948001861572266,136.17300415039062 -50.654998779296875,144.08900451660156 -54.229000091552734,157.4250030517578 C-57.801998138427734,170.76199340820312 -49.88800048828125,184.47000122070312 -36.551998138427734,188.04299926757812 C-23.21500015258789,191.61700439453125 -9.506999969482422,183.70199584960938 -5.933000087738037,170.36500549316406 C-2.359999895095825,157.0290069580078 -10.274999618530273,143.32000732421875 -23.611000061035156,139.7469940185547 C-23.611000061035156,139.7469940185547 -23.611000061035156,139.7469940185547 -23.611000061035156,139.7469940185547z M34.055999755859375,107.12200164794922 C24.392000198364258,104.53299713134766 14.456999778747559,110.26799774169922 11.868000030517578,119.93199920654297 C9.279000282287598,129.5959930419922 15.013999938964844,139.52999877929688 24.67799949645996,142.11900329589844 C34.34199905395508,144.70799255371094 44.277000427246094,138.97300720214844 46.86600112915039,129.3090057373047 C49.45500183105469,119.6449966430664 43.720001220703125,109.71099853515625 34.055999755859375,107.12200164794922 C34.055999755859375,107.12200164794922 34.055999755859375,107.12200164794922 34.055999755859375,107.12200164794922z M173.49899291992188,-198.6300048828125 C176.3249969482422,-208.8520050048828 176.27699279785156,-208.04100036621094 167.27499389648438,-213.2030029296875 C148.97999572753906,-223.6959991455078 110.64700317382812,-239.63800048828125 87.26899719238281,-240.79100036621094 C61.35900115966797,-242.06900024414062 41.91999816894531,-234.43600463867188 29.11400032043457,-208.39999389648438 C22.577999114990234,-195.11199951171875 16.16900062561035,-182.3769989013672 11.253999710083008,-170.1060028076172 C6.011000156402588,-157.01400756835938 7.377999782562256,-159.85899353027344 -8.982000350952148,-162.1699981689453 C-60.73500061035156,-169.48199462890625 -100.9530029296875,-162.7830047607422 -106.08499908447266,-143.62899780273438 C-112.62000274658203,-119.24099731445312 -59.80400085449219,-83.89900207519531 11.883000373840332,-64.69000244140625 C83.56999969482422,-45.481998443603516 146.9810028076172,-49.680999755859375 153.51600646972656,-74.06900024414062 C158.81900024414062,-93.86100006103516 125.03299713134766,-120.86599731445312 73.7979965209961,-140.60800170898438 C62.16699981689453,-145.08900451660156 63.52799987792969,-143.07699584960938 68.39600372314453,-154.33799743652344 C75.18499755859375,-170.04400634765625 81.77200317382812,-182.11399841308594 86.22799682617188,-184.38900756835938 C94.47200012207031,-188.59800720214844 120.37999725341797,-180.55599975585938 141.16900634765625,-173.5500030517578 C152.3280029296875,-169.7899932861328 153.1199951171875,-166.56500244140625 161.73599243164062,-176.2550048828125 C165.9600067138672,-181.00399780273438 170.66200256347656,-188.3719940185547 173.49899291992188,-198.6300048828125z"></path></g></g></g></svg>