<svg xmlns="http://www.w3.org/2000/svg" xmlns:xlink="http://www.w3.org/1999/xlink" viewBox="0 0 512 512" width="512" height="512" style="width: 100%; height: 100%; transform: translate3d(0,0,0);" preserveAspectRatio="xMidYMid meet"><defs><clipPath id="__lottie_element_52105"><rect width="512" height="512" x="0" y="0"></rect></clipPath></defs><g clip-path="url(#__lottie_element_52105)"><g style="display: block;" transform="matrix(1,0,0,1,0,0)" opacity="1"><g opacity="1" transform="matrix(1,0,0,1,172.7949981689453,335)"><path fill="rgb(0,0,0)" fill-opacity="1" d=" M-2.7950000762939453,-145 C-81.79499816894531,-145 -148.7949981689453,-87 -148.7949981689453,0 C-148.7949981689453,92 -77.79499816894531,150 17.204999923706055,143 C100.1969985961914,136.88499450683594 147.46499633789062,86.26000213623047 148.2050018310547,-7 C148.7949981689453,-82 84.20500183105469,-145 -2.7950000762939453,-145z M116.20500183105469,12 C67.2750015258789,37.27000045776367 51.20500183105469,55 50.20500183105469,42 C47.04499816894531,0.9300000071525574 34.85499954223633,-50.0099983215332 13.204999923706055,-80 C7.355000019073486,-88.11000061035156 53.20500183105469,-95 64.20500183105469,-89 C107.06500244140625,-65.62000274658203 129.76499938964844,5 116.20500183105469,12z"></path></g><g opacity="1" transform="matrix(1,0,0,1,235.9600067138672,81)"><path fill="rgb(0,0,0)" fill-opacity="1" d=" M-0.9509999752044678,-55 C-31.240999221801758,-55 -57.138999938964844,-24.11199951171875 -55.941001892089844,3.2200000286102295 C-54.46099853515625,37 -31.472000122070312,56.70500183105469 4.119999885559082,55.31999969482422 C38.040000915527344,54 58.540000915527344,34 56.95100021362305,-1.940000057220459 C55.676998138427734,-30.753000259399414 32.409000396728516,-55 -0.9509999752044678,-55z M44.68000030517578,-8.630000114440918 C25.920000076293945,1.0800000429153442 17.759000778198242,18.899999618530273 17.368999481201172,13.899999618530273 C16.159000396728516,-1.8899999856948853 12.229999542236328,-23 -0.8199999928474426,-35.0099983215332 C-3.640000104904175,-37.61000061035156 17.518999099731445,-39.77000045776367 21.739999771118164,-37.470001220703125 C38.17900085449219,-28.479999542236328 49.880001068115234,-11.319999694824219 44.68000030517578,-8.630000114440918z"></path></g><g opacity="1" transform="matrix(1,0,0,1,395.68499755859375,180.00999450683594)"><path fill="rgb(0,0,0)" fill-opacity="1" d=" M0.26499998569488525,-86.79000091552734 C-48.935001373291016,-86.79000091552734 -92.69400024414062,-46.88399887084961 -90.65499877929688,6.199999809265137 C-88.18499755859375,70.48999786376953 -38.625999450683594,96.37799835205078 7.934999942779541,92.80999755859375 C64.31500244140625,88.48999786376953 93.8550033569336,55.88999938964844 94.31500244140625,-1.649999976158142 C94.68499755859375,-47.91999816894531 54.45500183105469,-86.79000091552734 0.26499998569488525,-86.79000091552734z M68.31500244140625,-5.010000228881836 C46.314998626708984,-5.010000228881836 10.015000343322754,30.520000457763672 11.274999618530273,22.579999923706055 C16.315000534057617,-9.010000228881836 12.3149995803833,-37.0099983215332 -8.765000343322754,-49.689998626708984 C-14.0649995803833,-52.869998931884766 33.14500045776367,-58.939998626708984 39.994998931884766,-55.2400016784668 C66.69499969482422,-40.810001373291016 77.79499816894531,-5.010000228881836 68.31500244140625,-5.010000228881836z"></path></g></g></g></svg>