<svg xmlns="http://www.w3.org/2000/svg" xmlns:xlink="http://www.w3.org/1999/xlink" viewBox="0 0 512 512" width="512" height="512" style="width: 100%; height: 100%; transform: translate3d(0,0,0);" preserveAspectRatio="xMidYMid meet"><defs><clipPath id="__lottie_element_52273"><rect width="512" height="512" x="0" y="0"></rect></clipPath></defs><g clip-path="url(#__lottie_element_52273)"><g style="display: block;" transform="matrix(1,0,0,1,11.692001342773438,16.75)" opacity="1"><g opacity="1" transform="matrix(1,0,0,1,245.7790069580078,236.74400329589844)"><path fill="rgb(0,0,0)" fill-opacity="1" d=" M-199.4720001220703,72.50599670410156 C-202.8800048828125,56.612998962402344 -245.5290069580078,-16.493999481201172 -245.4720001220703,-41.49399948120117 C-245.33700561523438,-100.83399963378906 -182.1199951171875,-143.4929962158203 -143.4720001220703,-171.49400329589844 C-80.97899627685547,-216.77000427246094 -0.47200000286102295,-236.49400329589844 4.5279998779296875,-227.49400329589844 C11.258000373840332,-215.3800048828125 -26.43600082397461,-173.85299682617188 -80.47200012207031,-134.49400329589844 C-161.4720001220703,-75.49400329589844 -207.53900146484375,-60.132999420166016 -196.4720001220703,-55.49399948120117 C-189.10000610351562,-52.404998779296875 -129.88999938964844,-60.51599884033203 -69.47200012207031,-105.49400329589844 C20.527999877929688,-172.49400329589844 25.277999877929688,-199.0290069580078 31.52899932861328,-203.49400329589844 C38.52899932861328,-208.49400329589844 119.93499755859375,-146.77000427246094 115.52899932861328,-131.49400329589844 C100.52899932861328,-79.49400329589844 9.689000129699707,-7.943999767303467 16.52899932861328,4.50600004196167 C21.070999145507812,12.77299976348877 65.32099914550781,-9.6850004196167 97.52899932861328,-46.49399948120117 C132.5290069580078,-86.49400329589844 140.05299377441406,-113.13300323486328 147.5290069580078,-118.49400329589844 C155.3489990234375,-124.10199737548828 236.73699951171875,-116.60900115966797 237.5290069580078,-108.49400329589844 C245.5279998779297,-26.493999481201172 185.74099731445312,63.402000427246094 98.52899932861328,126.50599670410156 C-24.47100067138672,215.50599670410156 -166.7169952392578,236.49400329589844 -204.4720001220703,216.50599670410156 C-221.4720001220703,207.50599670410156 -195.48399353027344,91.10700225830078 -199.4720001220703,72.50599670410156z"></path></g></g></g></svg>