<svg xmlns="http://www.w3.org/2000/svg" xmlns:xlink="http://www.w3.org/1999/xlink" viewBox="0 0 512 512" width="512" height="512" style="width: 100%; height: 100%; transform: translate3d(0,0,0);" preserveAspectRatio="xMidYMid meet"><defs><clipPath id="__lottie_element_53140"><rect width="512" height="512" x="0" y="0"></rect></clipPath></defs><g clip-path="url(#__lottie_element_53140)"><g style="display: block;" transform="matrix(1,0,0,1,256,251.05299377441406)" opacity="1"><g opacity="1" transform="matrix(1,0,0,1,0,0)"><path fill="rgb(4,5,52)" fill-opacity="1" d=" M184.875,7.704999923706055 C170.19500732421875,-1.3350000381469727 148.1750030517578,-60.05500030517578 133.48500061035156,-78.13500213623047 C118.80500030517578,-96.20500183105469 93.95500183105469,-96.76499938964844 93.95500183105469,-96.76499938964844 C93.95500183105469,-96.76499938964844 106.38500213623047,-96.76499938964844 123.32499694824219,-102.41500091552734 C140.26499938964844,-108.05500030517578 145.34500122070312,-158.88499450683594 145.34500122070312,-158.88499450683594 C198.9949951171875,-172.43499755859375 209.72500610351562,-191.63499450683594 200.125,-203.4949951171875 C190.52499389648438,-215.35499572753906 128.97500610351562,-191.0749969482422 122.19499969482422,-176.9550018310547 C115.41500091552734,-162.8350067138672 116.54499816894531,-131.77499389648438 112.59500122070312,-123.30500030517578 C108.6449966430664,-114.83499908447266 87.74500274658203,-118.2249984741211 87.74500274658203,-118.2249984741211 C84.3550033569336,-155.4949951171875 34.095001220703125,-175.5449981689453 34.095001220703125,-175.5449981689453 C84.92500305175781,-200.9550018310547 82.16500091552734,-227.51499938964844 67.13500213623047,-230.60499572753906 C56.125,-232.85499572753906 56.685001373291016,-210.8350067138672 53.8650016784668,-205.18499755859375 C51.04499816894531,-199.5449981689453 32.53499984741211,-179.21499633789062 -0.004999999888241291,-178.64500427246094 C-32.53499984741211,-179.21499633789062 -51.04499816894531,-199.5449981689453 -53.8650016784668,-205.18499755859375 C-56.685001373291016,-210.8350067138672 -56.125,-232.85499572753906 -67.13500213623047,-230.60499572753906 C-82.16500091552734,-227.51499938964844 -84.92500305175781,-200.9550018310547 -34.095001220703125,-175.5449981689453 C-34.095001220703125,-175.5449981689453 -84.3550033569336,-155.4949951171875 -87.74500274658203,-118.2249984741211 C-87.74500274658203,-118.2249984741211 -108.6449966430664,-114.83499908447266 -112.59500122070312,-123.30500030517578 C-116.54499816894531,-131.77499389648438 -115.41500091552734,-162.8350067138672 -122.19499969482422,-176.9550018310547 C-128.97500610351562,-191.0749969482422 -190.52499389648438,-215.35499572753906 -200.125,-203.4949951171875 C-209.72500610351562,-191.63499450683594 -198.9949951171875,-172.43499755859375 -145.34500122070312,-158.88499450683594 C-145.34500122070312,-158.88499450683594 -140.26499938964844,-108.05500030517578 -123.32499694824219,-102.41500091552734 C-106.38500213623047,-96.76499938964844 -93.95500183105469,-96.76499938964844 -93.95500183105469,-96.76499938964844 C-93.95500183105469,-96.76499938964844 -67.98500061035156,-79.25499725341797 -1.3450000286102295,-79.82499694824219 C-1.3450000286102295,-79.82499694824219 -45.875,-63.875 -117.57499694824219,-90.58499908447266 C-117.57499694824219,-90.58499908447266 -117.58499908447266,-90.58499908447266 -117.58499908447266,-90.58499908447266 C-123.16500091552734,-87.82499694824219 -128.8350067138672,-83.86499786376953 -133.48500061035156,-78.13500213623047 C-148.1750030517578,-60.05500030517578 -170.19500732421875,-1.3350000381469727 -184.875,7.704999923706055 C-199.55499267578125,16.7450008392334 -240.21499633789062,35.375 -235.69500732421875,50.625 C-231.18499755859375,65.86499786376953 -186.0050048828125,65.30500030517578 -170.7550048828125,42.154998779296875 C-155.51499938964844,18.9950008392334 -151.90499877929688,-28.434999465942383 -135.0749969482422,-35.21500015258789 C-135.0749969482422,-35.21500015258789 -149.86500549316406,-1.8949999809265137 -150.9949951171875,41.584999084472656 C-152.125,85.06500244140625 -155.51499938964844,132.5050048828125 -171.88499450683594,155.65499877929688 C-188.26499938964844,178.81500244140625 -215.375,190.10499572753906 -213.11500549316406,199.7050018310547 C-210.85499572753906,209.30499267578125 -173.01499938964844,210.43499755859375 -156.0749969482422,188.4149932861328 C-139.13499450683594,166.38499450683594 -140.26499938964844,94.1050033569336 -140.26499938964844,94.1050033569336 C-140.26499938964844,94.1050033569336 -131.9250030517578,230.76499938964844 -0.004999999888241291,230.76499938964844 C131.9250030517578,230.76499938964844 140.26499938964844,94.1050033569336 140.26499938964844,94.1050033569336 C140.26499938964844,94.1050033569336 139.13499450683594,166.38499450683594 156.0749969482422,188.4149932861328 C173.01499938964844,210.43499755859375 210.85499572753906,209.30499267578125 213.11500549316406,199.7050018310547 C215.375,190.10499572753906 188.26499938964844,178.81500244140625 171.88499450683594,155.65499877929688 C155.51499938964844,132.5050048828125 152.125,85.06500244140625 150.9949951171875,41.584999084472656 C149.86500549316406,-1.8949999809265137 135.0749969482422,-35.21500015258789 135.0749969482422,-35.21500015258789 C151.90499877929688,-28.434999465942383 155.51499938964844,18.9950008392334 170.7550048828125,42.154998779296875 C186.0050048828125,65.30500030517578 231.18499755859375,65.86499786376953 235.69500732421875,50.625 C240.21499633789062,35.375 199.55499267578125,16.7450008392334 184.875,7.704999923706055z M-69.6050033569336,59.595001220703125 C-87.71499633789062,59.595001220703125 -102.40499877929688,44.01499938964844 -102.40499877929688,24.795000076293945 C-102.40499877929688,5.574999809265137 -87.71499633789062,-10.005000114440918 -69.6050033569336,-10.005000114440918 C-51.494998931884766,-10.005000114440918 -36.814998626708984,5.574999809265137 -36.814998626708984,24.795000076293945 C-36.814998626708984,44.01499938964844 -51.494998931884766,59.595001220703125 -69.6050033569336,59.595001220703125z M-0.004999999888241291,179.88499450683594 C-24.635000228881836,179.88499450683594 -44.6150016784668,158.69500732421875 -44.6150016784668,132.5449981689453 C-44.6150016784668,106.40499877929688 -24.635000228881836,85.20500183105469 -0.004999999888241291,85.20500183105469 C24.635000228881836,85.20500183105469 44.6150016784668,106.40499877929688 44.6150016784668,132.5449981689453 C44.6150016784668,158.69500732421875 24.635000228881836,179.88499450683594 -0.004999999888241291,179.88499450683594z M63.665000915527344,59.595001220703125 C45.55500030517578,59.595001220703125 30.864999771118164,44.01499938964844 30.864999771118164,24.795000076293945 C30.864999771118164,5.574999809265137 45.55500030517578,-10.005000114440918 63.665000915527344,-10.005000114440918 C81.7750015258789,-10.005000114440918 96.45500183105469,5.574999809265137 96.45500183105469,24.795000076293945 C96.45500183105469,44.01499938964844 81.7750015258789,59.595001220703125 63.665000915527344,59.595001220703125z"></path></g></g></g></svg>