<svg xmlns="http://www.w3.org/2000/svg" xmlns:xlink="http://www.w3.org/1999/xlink" viewBox="0 0 512 512" width="512" height="512" style="width: 100%; height: 100%; transform: translate3d(0,0,0);" preserveAspectRatio="xMidYMid meet"><defs><clipPath id="__lottie_element_52240"><rect width="512" height="512" x="0" y="0"></rect></clipPath></defs><g clip-path="url(#__lottie_element_52240)"><g style="display: block;" transform="matrix(1,0,0,1,10.690994262695312,3.1380157470703125)" opacity="1"><g opacity="1" transform="matrix(1,0,0,1,86.11799621582031,91.90899658203125)"><path fill="rgb(65,63,63)" fill-opacity="1" d=" M-7.23199987411499,45.56100082397461 C-7.23199987411499,45.56100082397461 20.215999603271484,46.5620002746582 52.45100021362305,37.39099884033203 C59.40399932861328,40.279998779296875 66.72200012207031,86.1259994506836 45.9630012512207,89.75199890136719 C36.00899887084961,91.65899658203125 -54.65800094604492,89.2040023803711 -60.12799835205078,62.784000396728516 C-66.72200012207031,30.933000564575195 -14.081000328063965,2.9660000801086426 -0.593999981880188,-42.573001861572266 C4.784999847412109,-60.731998443603516 -6.584000110626221,-81.5 -0.6330000162124634,-85.30400085449219 C9.307999610900879,-91.65899658203125 26.402999877929688,-72.61100006103516 23.464000701904297,-33.66899871826172 C21.10099983215332,-2.361999988555908 -8.437999725341797,24.339000701904297 -7.23199987411499,45.56100082397461z"></path></g><g opacity="1" transform="matrix(1,0,0,1,150.27099609375,421.8349914550781)"><path fill="rgb(65,63,63)" fill-opacity="1" d=" M45.566001892089844,-45.340999603271484 C38.01100158691406,-27.957000732421875 37.625999450683594,-20.954999923706055 35.87799835205078,-0.8169999718666077 C34.18899917602539,18.632999420166016 34.167999267578125,40.45399856567383 23.660999298095703,55.957000732421875 C5.005000114440918,83.48200225830078 -41.145999908447266,81.24700164794922 -43.316001892089844,47.78300094604492 C-45.564998626708984,13.102999687194824 -0.9710000157356262,27.25 -16.118000030517578,46.45500183105469 C-21.143999099731445,52.82699966430664 -30.423999786376953,46.47800064086914 -30.423999786376953,46.47800064086914 C-30.423999786376953,61.78099822998047 4.170000076293945,61.44900131225586 -0.5669999718666077,37.31800079345703 C-3.869999885559082,20.48900032043457 -19.18400001525879,18.2450008392334 -32.14500045776367,12.23799991607666 C-21.878000259399414,-0.9729999899864197 -32.47800064086914,-11.847999572753906 -20.6560001373291,-31.18000030517578 C-14.631999969482422,-41.029998779296875 -3.8480000495910645,-48.17499923706055 1.1130000352859497,-55.98500061035156 C5.511000156402588,-62.90700149536133 7.671999931335449,-82.38200378417969 12.434000015258789,-83.48100280761719 C14.265999794006348,-68.46199798583984 18.770999908447266,-60.62200164794922 24.069000244140625,-56.27000045776367 C35.388999938964844,-46.97200012207031 45.566001892089844,-45.340999603271484 45.566001892089844,-45.340999603271484z"></path></g><g opacity="1" transform="matrix(1,0,0,1,217.2830047607422,442.135986328125)"><path fill="rgb(65,63,63)" fill-opacity="1" d=" M21.839000701904297,-54.564998626708984 C15.505999565124512,-18.951000213623047 42.00899887084961,51.96500015258789 -9.461999893188477,57.702999114990234 C-42.007999420166016,61.332000732421875 -27.56100082397461,31.82900047302246 -24.81999969482422,11.515999794006348 C-22.229999542236328,-7.677999973297119 -23.808000564575195,-43.340999603271484 -12.940999984741211,-61.332000732421875 C0.6119999885559082,-53.597999572753906 21.839000701904297,-54.564998626708984 21.839000701904297,-54.564998626708984z"></path></g><g opacity="1" transform="matrix(1,0,0,1,119.8290023803711,312.6600036621094)"><path fill="rgb(65,63,63)" fill-opacity="1" d=" M-17.599000930786133,18.788000106811523 C-10.23900032043457,14.012999534606934 -0.19699999690055847,18.625999450683594 2.2090001106262207,24.516000747680664 C6.692999839782715,35.49300003051758 -4.540999889373779,39.89899826049805 -8.123000144958496,40.2239990234375 C-3.4010000228881836,47.96699905395508 10.112000465393066,44.78300094604492 11.902000427246094,31.59600067138672 C13.675000190734863,18.54199981689453 -2.0380001068115234,-6.204999923706055 -2.1619999408721924,-23.920000076293945 C-2.4040000438690186,-58.62099838256836 26.582000732421875,-35.417999267578125 30.239999771118164,-11.62600040435791 C33.72100067138672,11.012999534606934 31.134000778198242,58.62099838256836 -2.75,56.34199905395508 C-26.39699935913086,54.750999450683594 -33.72100067138672,29.246999740600586 -17.599000930786133,18.788000106811523z"></path></g><g opacity="1" transform="matrix(1,0,0,1,404.5010070800781,92.08699798583984)"><path fill="rgb(65,63,63)" fill-opacity="1" d=" M7.23199987411499,45.56100082397461 C7.23199987411499,45.56100082397461 -20.215999603271484,46.5620002746582 -52.45100021362305,37.39099884033203 C-59.40399932861328,40.279998779296875 -66.72100067138672,86.1259994506836 -45.96200180053711,89.75199890136719 C-36.007999420166016,91.65899658203125 54.65800094604492,89.2040023803711 60.12799835205078,62.784000396728516 C66.72200012207031,30.933000564575195 14.081999778747559,2.9660000801086426 0.5950000286102295,-42.573001861572266 C-4.783999919891357,-60.731998443603516 6.584000110626221,-81.5 0.6330000162124634,-85.30400085449219 C-9.307999610900879,-91.65899658203125 -26.402999877929688,-72.61100006103516 -23.464000701904297,-33.66899871826172 C-21.10099983215332,-2.361999988555908 8.437999725341797,24.339000701904297 7.23199987411499,45.56100082397461z"></path></g><g opacity="1" transform="matrix(1,0,0,1,340.34698486328125,422.01300048828125)"><path fill="rgb(65,63,63)" fill-opacity="1" d=" M-45.564998626708984,-45.340999603271484 C-38.0099983215332,-27.957000732421875 -37.625999450683594,-20.954999923706055 -35.87799835205078,-0.8169999718666077 C-34.18899917602539,18.632999420166016 -34.16699981689453,40.45399856567383 -23.65999984741211,55.957000732421875 C-5.004000186920166,83.48200225830078 41.14699935913086,81.24700164794922 43.31700134277344,47.78300094604492 C45.566001892089844,13.102999687194824 0.9710000157356262,27.25 16.118000030517578,46.45500183105469 C21.143999099731445,52.82699966430664 30.423999786376953,46.47800064086914 30.423999786376953,46.47800064086914 C30.423999786376953,61.78099822998047 -4.169000148773193,61.44900131225586 0.5680000185966492,37.31800079345703 C3.871000051498413,20.48900032043457 19.18400001525879,18.2450008392334 32.14500045776367,12.23799991607666 C21.878000259399414,-0.9729999899864197 32.47800064086914,-11.847999572753906 20.6560001373291,-31.18000030517578 C14.631999969482422,-41.029998779296875 3.8489999771118164,-48.17499923706055 -1.1119999885559082,-55.98500061035156 C-5.510000228881836,-62.90700149536133 -7.671999931335449,-82.38200378417969 -12.434000015258789,-83.48100280761719 C-14.265999794006348,-68.46199798583984 -18.770000457763672,-60.62200164794922 -24.06800079345703,-56.27000045776367 C-35.38800048828125,-46.97200012207031 -45.564998626708984,-45.340999603271484 -45.564998626708984,-45.340999603271484z"></path></g><g opacity="1" transform="matrix(1,0,0,1,273.33599853515625,442.3139953613281)"><path fill="rgb(65,63,63)" fill-opacity="1" d=" M-21.839000701904297,-54.564998626708984 C-15.505999565124512,-18.951000213623047 -42.00899887084961,51.96500015258789 9.461999893188477,57.702999114990234 C42.007999420166016,61.332000732421875 27.56100082397461,31.82900047302246 24.81999969482422,11.515999794006348 C22.229999542236328,-7.677999973297119 23.80699920654297,-43.340999603271484 12.9399995803833,-61.332000732421875 C-0.6129999756813049,-53.597999572753906 -21.839000701904297,-54.564998626708984 -21.839000701904297,-54.564998626708984z"></path></g><g opacity="1" transform="matrix(1,0,0,1,370.7900085449219,312.8370056152344)"><path fill="rgb(65,63,63)" fill-opacity="1" d=" M17.599000930786133,18.788000106811523 C10.23900032043457,14.012999534606934 0.19699999690055847,18.625999450683594 -2.2090001106262207,24.516000747680664 C-6.692999839782715,35.49300003051758 4.540999889373779,39.89899826049805 8.123000144958496,40.2239990234375 C3.4010000228881836,47.96699905395508 -10.112000465393066,44.78300094604492 -11.902000427246094,31.59600067138672 C-13.675000190734863,18.54199981689453 2.0380001068115234,-6.204999923706055 2.1619999408721924,-23.920000076293945 C2.4040000438690186,-58.62099838256836 -26.582000732421875,-35.417999267578125 -30.239999771118164,-11.62600040435791 C-33.72100067138672,11.012999534606934 -31.134000778198242,58.62099838256836 2.75,56.34199905395508 C26.39699935913086,54.750999450683594 33.72100067138672,29.246999740600586 17.599000930786133,18.788000106811523z"></path></g><g opacity="1" transform="matrix(1,0,0,1,245.3090057373047,214.87399291992188)"><path fill="rgb(65,63,63)" fill-opacity="1" d=" M197.0070037841797,-27.979000091552734 C168.15499877929688,-33.96500015258789 155.38600158691406,-24.82699966430664 136.80599975585938,-5.040999889373779 C124.23699951171875,-14.923999786376953 98.6719970703125,-18.753999710083008 91.80999755859375,-31.773000717163086 C82.68399810791016,-49.08700180053711 86.18000030517578,-72.64299774169922 94.99700164794922,-89.38500213623047 C64.50499725341797,-94.89199829101562 32.18199920654297,-98.0199966430664 0.3709999918937683,-98.43599700927734 C0.3709999918937683,-98.43599700927734 0.3709999918937683,-98.62699890136719 0.3709999918937683,-98.62699890136719 C-31.679000854492188,-98.25 -64.26899719238281,-95.11199951171875 -94.99800109863281,-89.56300354003906 C-86.18199920654297,-72.82099914550781 -82.68499755859375,-49.26499938964844 -91.81099700927734,-31.950000762939453 C-98.6729965209961,-18.93199920654297 -124.23699951171875,-15.10200023651123 -136.80599975585938,-5.218999862670898 C-155.38600158691406,-25.0049991607666 -168.15499877929688,-34.143001556396484 -197.0070037841797,-28.156999588012695 C-245.05999755859375,-18.187000274658203 -213.59800720214844,34.86000061035156 -176.802001953125,42.70500183105469 C-149.7030029296875,48.481998443603516 -151.71499633789062,30.80500030517578 -140.61599731445312,27.98699951171875 C-107.21600341796875,19.507999420166016 -82.8010025024414,96.58399963378906 -74.18000030517578,98.4489974975586 C-62.729000091552734,86.99800109863281 -26.395000457763672,80.14700317382812 -0.3700000047683716,79.2030029296875 C-0.3700000047683716,79.2030029296875 -0.3700000047683716,79.35299682617188 -0.3700000047683716,79.35299682617188 C25.700000762939453,80.19300079345703 62.619998931884766,87.06700134277344 74.17900085449219,98.6259994506836 C82.80000305175781,96.76000213623047 107.21499633789062,19.68600082397461 140.61500549316406,28.165000915527344 C151.71400451660156,30.982999801635742 149.7030029296875,48.65999984741211 176.80099487304688,42.88199996948242 C213.5970001220703,35.03799819946289 245.05999755859375,-18.009000778198242 197.0070037841797,-27.979000091552734z M-70.7969970703125,55.65800094604492 C-89.49500274658203,62.40800094604492 -108.55899810791016,16.433000564575195 -103.48500061035156,7.684999942779541 C-101.1240005493164,3.615000009536743 -95.7249984741211,-0.3109999895095825 -88.83200073242188,2.5239999294281006 C-79.81900024414062,6.230000019073486 -69.53800201416016,44.90800094604492 -70.7969970703125,55.65800094604492z M70.7959976196289,55.83599853515625 C69.53700256347656,45.08599853515625 79.81800079345703,6.4079999923706055 88.83100128173828,2.7019999027252197 C95.7239990234375,-0.13300000131130219 101.12300109863281,3.7920000553131104 103.48400115966797,7.861999988555908 C108.55799865722656,16.611000061035156 89.49400329589844,62.584999084472656 70.7959976196289,55.83599853515625z"></path></g><g opacity="1" transform="matrix(1,0,0,1,245.3090057373047,334.6579895019531)"><path fill="rgb(65,63,63)" fill-opacity="1" d=" M51.69599914550781,-22.867000579833984 C36.104000091552734,-26.017000198364258 31.98900032043457,-17.608999252319336 20.14699935913086,-15.696999549865723 C14.842000007629395,-14.84000015258789 7.21999979019165,-14.696999549865723 0.3709999918937683,-14.899999618530273 C0.3709999918937683,-14.899999618530273 0.3709999918937683,-15.098999977111816 0.3709999918937683,-15.098999977111816 C-6.6620001792907715,-14.86400032043457 -14.64900016784668,-14.987000465393066 -20.145999908447266,-15.87399959564209 C-31.988000869750977,-17.785999298095703 -36.10300064086914,-26.195999145507812 -51.69499969482422,-23.04599952697754 C-77.40699768066406,-17.85099983215332 -75.16300201416016,19.179000854492188 -60.05500030517578,24.042999267578125 C-55.82899856567383,25.40399932861328 -27.25,26.0049991607666 -0.3700000047683716,25.965999603271484 C-0.3700000047683716,25.965999603271484 -0.3700000047683716,26.14299964904785 -0.3700000047683716,26.14299964904785 C26.722000122070312,26.19499969482422 55.79100036621094,25.5939998626709 60.055999755859375,24.22100067138672 C75.16400146484375,19.35700035095215 77.40799713134766,-17.672000885009766 51.69599914550781,-22.867000579833984z M-36.275001525878906,8.63599967956543 C-40.47800064086914,15.295000076293945 -50.40299987792969,14.083999633789062 -53.99100112915039,11.062000274658203 C-60.178001403808594,5.853000164031982 -58.26300048828125,-4.125 -54.619998931884766,-7.627999782562256 C-51.82600021362305,-10.314000129699707 -44.060001373291016,-11.565999984741211 -39.12799835205078,-7.01800012588501 C-33.880001068115234,-2.177000045776367 -34.152000427246094,5.271999835968018 -36.275001525878906,8.63599967956543z M53.992000579833984,11.239999771118164 C50.40399932861328,14.26200008392334 40.479000091552734,15.473999977111816 36.2760009765625,8.8149995803833 C34.15299987792969,5.451000213623047 33.88100051879883,-2 39.12900161743164,-6.841000080108643 C44.06100082397461,-11.390000343322754 51.82699966430664,-10.13599967956543 54.62099838256836,-7.449999809265137 C58.263999938964844,-3.947000026702881 60.17900085449219,6.03000020980835 53.992000579833984,11.239999771118164z"></path></g><g opacity="1" transform="matrix(1,0,0,1,245.31300354003906,374.5589904785156)"><path fill="rgb(65,63,63)" fill-opacity="1" d=" M0.367000013589859,-6.9730000495910645 C0.367000013589859,-6.9730000495910645 0.367000013589859,-7.151000022888184 0.367000013589859,-7.151000022888184 C0.367000013589859,-7.151000022888184 -34.4630012512207,-7.151000022888184 -34.4630012512207,-7.151000022888184 C-34.965999603271484,5.209000110626221 -16.496999740600586,6.921000003814697 -0.375,6.052000045776367 C-0.375,6.052000045776367 -0.375,6.190000057220459 -0.375,6.190000057220459 C15.916000366210938,7.151000022888184 34.965999603271484,5.576000213623047 34.45500183105469,-6.9730000495910645 C34.45500183105469,-6.9730000495910645 0.367000013589859,-6.9730000495910645 0.367000013589859,-6.9730000495910645z"></path></g></g></g></svg>