<svg xmlns="http://www.w3.org/2000/svg" xmlns:xlink="http://www.w3.org/1999/xlink" viewBox="0 0 512 512" width="512" height="512" style="width: 100%; height: 100%; transform: translate3d(0,0,0);" preserveAspectRatio="xMidYMid meet"><defs><clipPath id="__lottie_element_51340"><rect width="512" height="512" x="0" y="0"></rect></clipPath></defs><g clip-path="url(#__lottie_element_51340)"><g style="display: block;" transform="matrix(1,0,0,1,0,0)" opacity="1"><g opacity="1" transform="matrix(1,0,0,1,256,258.6470031738281)"><path fill="rgb(0,0,0)" fill-opacity="1" d=" M84.54499816894531,-67.2509994506836 C84.54499816894531,-67.2509994506836 82.28900146484375,-218.38800048828125 -27.117000579833984,-253.35299682617188 C-27.117000579833984,-253.35299682617188 -76.74400329589844,-142.81900024414062 6.71999979019165,-53.715999603271484 C6.71999979019165,-53.715999603271484 -10.197999954223633,-51.459999084472656 -28.243999481201172,-34.54199981689453 C-28.243999481201172,-34.54199981689453 -64.33699798583984,-226.2830047607422 -240.28799438476562,-244.3300018310547 C-240.28799438476562,-244.3300018310547 -280.8919982910156,-59.35599899291992 -83.51100158691406,22.979999542236328 C-83.51100158691406,22.979999542236328 -135.3939971923828,82.75900268554688 -119.60399627685547,172.99000549316406 C-119.60399627685547,172.99000549316406 -115,197.85299682617188 -109.3949966430664,199.31500244140625 C-109.3949966430664,199.31500244140625 -78,207.35299682617188 -36.138999938964844,194.4199981689453 C-36.138999938964844,194.4199981689453 72.13800048828125,273.37298583984375 221.02000427246094,211.33900451660156 C221.02000427246094,211.33900451660156 310.12298583984375,-10.855999946594238 84.54499816894531,-67.2509994506836z M86.80000305175781,109.8280029296875 C57.474998474121094,123.36299896240234 39.42900085449219,85.01499938964844 61.98699951171875,65.84100341796875 C83.72799682617188,47.36000061035156 116.1259994506836,96.29399871826172 86.80000305175781,109.8280029296875z"></path></g></g></g></svg>