<svg xmlns="http://www.w3.org/2000/svg" xmlns:xlink="http://www.w3.org/1999/xlink" viewBox="0 0 512 512" width="512" height="512" style="width: 100%; height: 100%; transform: translate3d(0,0,0);" preserveAspectRatio="xMidYMid meet"><defs><clipPath id="__lottie_element_52220"><rect width="512" height="512" x="0" y="0"></rect></clipPath></defs><g clip-path="url(#__lottie_element_52220)"><g style="display: block;" transform="matrix(1,0,0,1,256,256)" opacity="1"><g opacity="1" transform="matrix(1,0,0,1,0,0)"><path fill="rgb(0,0,0)" fill-opacity="1" d=" M100.15599822998047,120.68000030517578 C151.72799682617188,75.21700286865234 254.8509979248047,-39.34299850463867 227.0050048828125,-210.15899658203125 C225.16900634765625,-221.4219970703125 216.26100158691406,-228.35499572753906 207.38099670410156,-225.24899291992188 C31.155000686645508,-163.61500549316406 1.253000020980835,19.895000457763672 -3.815000057220459,82.59700012207031 C-2.7850000858306885,19.698999404907227 -14.77299976348877,-165.843994140625 -184.1999969482422,-244.25799560546875 C-192.73800659179688,-248.20899963378906 -202.2760009765625,-242.1719970703125 -205.19400024414062,-231.13999938964844 C-241.69000244140625,-93.177001953125 -185.85299682617188,15.338000297546387 -138.8300018310547,77.33599853515625 C-135.08599853515625,82.27300262451172 -128.8040008544922,84.50199890136719 -122.74700164794922,83.197998046875 C-108.65799713134766,80.16400146484375 -94.38400268554688,78.56500244140625 -80.08599853515625,79.4469985961914 C-71.40899658203125,79.98200225830078 -69.3280029296875,92.1989974975586 -78.18699645996094,95.33399963378906 C-136.86199951171875,116.45600128173828 -193.81300354003906,156.93299865722656 -192.1909942626953,219.89100646972656 C-191.81700134277344,233.38400268554688 -173.29299926757812,238.13800048828125 -166.88299560546875,224.4499969482422 C-117.97599792480469,120.01699829101562 122.39399719238281,143.4149932861328 144.71600341796875,237.95899963378906 C144.71600341796875,237.95899963378906 144.94900512695312,238.95799255371094 144.94900512695312,238.95799255371094 C148.10699462890625,252.20899963378906 167.08099365234375,252.4029998779297 170.406005859375,239.11000061035156 C182.8699951171875,189.281005859375 145.26199340820312,144.80299377441406 100.15599822998047,120.68000030517578z"></path></g></g></g></svg>