<svg xmlns="http://www.w3.org/2000/svg" xmlns:xlink="http://www.w3.org/1999/xlink" viewBox="0 0 512 512" width="512" height="512" style="width: 100%; height: 100%; transform: translate3d(0,0,0);" preserveAspectRatio="xMidYMid meet"><defs><clipPath id="__lottie_element_52030"><rect width="512" height="512" x="0" y="0"></rect></clipPath></defs><g clip-path="url(#__lottie_element_52030)"><g style="display: block;" transform="matrix(1,0,0,1,0,0)" opacity="1"><g opacity="1" transform="matrix(1,0,0,1,295.864990234375,395.4750061035156)"><path fill="rgb(0,0,0)" fill-opacity="1" d=" M-212.47799682617188,48.04999923706055 C-212.47799682617188,48.04999923706055 -185.0489959716797,44.393001556396484 -148.4770050048828,13.305999755859375 C-148.4770050048828,13.305999755859375 -61.61800003051758,71.82099914550781 27.983999252319336,18.79199981689453 C117.58699798583984,-34.237998962402344 120.3290023803711,-76.2959976196289 120.3290023803711,-76.2959976196289 C120.3290023803711,-76.2959976196289 164.21600341796875,-74.46800231933594 202.61700439453125,-116.5250015258789 C202.61700439453125,-116.5250015258789 241.01800537109375,-34.237998962402344 63.643001556396484,51.707000732421875 C-113.73300170898438,137.65199279785156 -216.13499450683594,102.90799713134766 -212.47799682617188,48.04999923706055z"></path></g><g opacity="1" transform="matrix(1,0,0,1,254.81199645996094,219.0189971923828)"><path fill="rgb(0,0,0)" fill-opacity="1" d=" M214.41099548339844,-43.38600158691406 C172.3520050048828,40.729000091552734 80.9219970703125,65.41600036621094 80.9219970703125,65.41600036621094 C163.2100067138672,6.900000095367432 205.26800537109375,-55.27299880981445 194.29600524902344,-99.15899658203125 C188.08700561523438,-123.99500274658203 108.35099792480469,-283.8489990234375 -111.08200073242188,-164.98899841308594 C-330.5159912109375,-46.130001068115234 -215.31300354003906,85.53099822998047 -215.31300354003906,85.53099822998047 C-151.31199645996094,147.70399475097656 -4.109000205993652,97.41699981689453 -4.109000205993652,97.41699981689453 C-111.08200073242188,171.47500610351562 -202.51300048828125,122.10299682617188 -202.51300048828125,122.10299682617188 C-202.51300048828125,122.10299682617188 -215.31300354003906,178.7899932861328 -182.3979949951172,193.41900634765625 C-149.48300170898438,208.04800415039062 -109.25399780273438,158.67599487304688 -109.25399780273438,158.67599487304688 C-109.25399780273438,158.67599487304688 -72.68199920654297,219.0189971923828 33.37900161743164,182.44700622558594 C139.43699645996094,145.875 146.7530059814453,74.55899810791016 146.7530059814453,74.55899810791016 C146.7530059814453,74.55899810791016 181.49600219726562,76.38700103759766 210.7530059814453,50.7869987487793 C254.81199645996094,12.236000061035156 214.41099548339844,-43.38600158691406 214.41099548339844,-43.38600158691406z M-153.14100646972656,-49.7869987487793 C-166.0709991455078,-75.64700317382812 -125.71099853515625,-84.52999877929688 -114.73999786376953,-69.9020004272461 C-103.76799774169922,-55.27299880981445 -142.16900634765625,-27.843000411987305 -153.14100646972656,-49.7869987487793z M-43.42399978637695,-33.32899856567383 C-58.053001403808594,-42.47200012207031 -36.10900115966797,-77.21600341796875 -19.652000427246094,-71.7300033569336 C-3.194000005722046,-66.24400329589844 -13.47599983215332,-14.612000465393066 -43.42399978637695,-33.32899856567383z M-23.30900001525879,-141.2169952392578 C-23.30900001525879,-161.33200073242188 33.37900161743164,-170.47500610351562 37.03499984741211,-143.04600524902344 C40.69300079345703,-115.61699676513672 -23.30900001525879,-117.44599914550781 -23.30900001525879,-141.2169952392578z"></path></g></g></g></svg>