<svg xmlns="http://www.w3.org/2000/svg" xmlns:xlink="http://www.w3.org/1999/xlink" viewBox="0 0 512 512" width="512" height="512" style="width: 100%; height: 100%; transform: translate3d(0,0,0);" preserveAspectRatio="xMidYMid meet"><defs><clipPath id="__lottie_element_52930"><rect width="512" height="512" x="0" y="0"></rect></clipPath></defs><g clip-path="url(#__lottie_element_52930)"><g style="display: block;" transform="matrix(1,0,0,1,256,256)" opacity="1"><g opacity="1" transform="matrix(1,0,0,1,0,0)"><path fill="rgb(0,0,0)" fill-opacity="1" d=" M-48.99100112915039,-67.7959976196289 C-80.81099700927734,-98.33599853515625 -119.99099731445312,-118.01599884033203 -156.4810028076172,-121.7959976196289 C-203.83099365234375,-126.69599914550781 -223.2209930419922,-111.90599822998047 -231.1510009765625,-98.63600158691406 C-242.17100524902344,-80.19599914550781 -237.71099853515625,-53.75600051879883 -218.93099975585938,-26.106000900268555 C-209.531005859375,-12.276000022888184 -201.4709930419922,-2.0959999561309814 -194.9810028076172,6.084000110626221 C-178.99099731445312,26.263999938964844 -173.6009979248047,33.05400085449219 -177.00100708007812,55.20399856567383 C-181.41099548339844,83.89399719238281 -185.2209930419922,108.68399810791016 -182.89100646972656,128.86399841308594 C-180.18099975585938,152.2740020751953 -168.9510040283203,167.11399841308594 -148.55099487304688,174.23399353027344 C-144.2310028076172,175.74400329589844 -139.5709991455078,176.48399353027344 -134.62100219726562,176.48399353027344 C-120.44100189208984,176.48399353027344 -103.96099853515625,170.35400390625 -86.85099792480469,158.51400756835938 C-66.16100311279297,144.20399475097656 -44.611000061035156,121.33399963378906 -28.47100067138672,94.86399841308594 C-27.541000366210938,109.56400299072266 -25.481000900268555,123.09400177001953 -22.44099998474121,134.093994140625 C-17.340999603271484,152.58399963378906 -10.050999641418457,161.95399475097656 -0.7910000085830688,161.95399475097656 C8.468999862670898,161.95399475097656 15.74899959564209,152.58399963378906 20.849000930786133,134.093994140625 C24.048999786376953,122.50399780273438 26.16900062561035,108.09400177001953 27.02899932861328,92.48400115966797 C43.32899856567383,119.96399688720703 65.55899810791016,143.7740020751953 86.85900115966797,158.51400756835938 C103.96900177001953,170.35400390625 120.43900299072266,176.48399353027344 134.62899780273438,176.48399353027344 C139.56900024414062,176.48399353027344 144.23899841308594,175.74400329589844 148.5489959716797,174.23399353027344 C168.94900512695312,167.11399841308594 180.1790008544922,152.2740020751953 182.88900756835938,128.86399841308594 C185.22900390625,108.68399810791016 181.41799926757812,83.89399719238281 177.00799560546875,55.20399856567383 C173.60800170898438,33.05400085449219 178.98899841308594,26.263999938964844 194.98899841308594,6.084000110626221 C201.46800231933594,-2.0959999561309814 209.53900146484375,-12.276000022888184 218.9290008544922,-26.106000900268555 C237.718994140625,-53.75600051879883 242.16900634765625,-80.19599914550781 231.1490020751953,-98.63600158691406 C223.22900390625,-111.90599822998047 203.83900451660156,-126.69599914550781 156.48899841308594,-121.7959976196289 C119.9990005493164,-118.01599884033203 80.81900024414062,-98.33599853515625 48.999000549316406,-67.7959976196289 C34.71900177001953,-54.09600067138672 23.16900062561035,-39.42599868774414 15.159000396728516,-25.256000518798828 C15.157999992370605,-25.2549991607666 15.157999992370605,-25.253999710083008 15.157999992370605,-25.253000259399414 C21.481000900268555,-66.27300262451172 36.44499969482422,-96.93199920654297 49.34400177001953,-116.89399719238281 C67.20999908447266,-144.5399932861328 85.12200164794922,-158.31399536132812 85.36799621582031,-158.50100708007812 C89.76899719238281,-161.8209991455078 90.65399932861328,-168.0780029296875 87.34200286865234,-172.48899841308594 C84.0250015258789,-176.90499877929688 77.75599670410156,-177.79600524902344 73.34100341796875,-174.47999572753906 C72.51499938964844,-173.86000061035156 52.887001037597656,-158.94000244140625 33.090999603271484,-128.58799743652344 C21.02400016784668,-110.08599853515625 7.322999954223633,-83.16999816894531 -0.7929999828338623,-48.11899948120117 C-8.909000396728516,-83.16999816894531 -22.610000610351562,-110.08599853515625 -34.676998138427734,-128.58799743652344 C-54.4739990234375,-158.94000244140625 -74.10099792480469,-173.86000061035156 -74.927001953125,-174.47999572753906 C-79.33499908447266,-177.79100036621094 -85.58300018310547,-176.90199279785156 -88.90499877929688,-172.50100708007812 C-92.22699737548828,-168.10000610351562 -91.3499984741211,-161.83299255371094 -86.95600128173828,-158.5019989013672 C-86.7770004272461,-158.36599731445312 -68.83000183105469,-144.5919952392578 -50.93000030517578,-116.89399719238281 C-38.428001403808594,-97.5469970703125 -23.993000030517578,-68.14399719238281 -17.357999801635742,-29.006000518798828 C-25.22800064086914,-42.00299835205078 -35.9739990234375,-55.29899978637695 -48.99100112915039,-67.7959976196289z M-175.68099975585938,-57.47600173950195 C-175.68099975585938,-69.44599914550781 -165.9510040283203,-79.1760025024414 -153.9810028076172,-79.1760025024414 C-142.01100158691406,-79.1760025024414 -132.281005859375,-69.44599914550781 -132.281005859375,-57.47600173950195 C-132.281005859375,-45.50600051879883 -142.01100158691406,-35.7760009765625 -153.9810028076172,-35.7760009765625 C-165.9510040283203,-35.7760009765625 -175.68099975585938,-45.50600051879883 -175.68099975585938,-57.47600173950195z M-130.0709991455078,114.3740005493164 C-130.0709991455078,107.38400268554688 -124.4010009765625,101.71399688720703 -117.41100311279297,101.71399688720703 C-110.4209976196289,101.71399688720703 -104.7509994506836,107.38400268554688 -104.7509994506836,114.3740005493164 C-104.7509994506836,121.36399841308594 -110.4209976196289,127.03399658203125 -117.41100311279297,127.03399658203125 C-124.4010009765625,127.03399658203125 -130.0709991455078,121.36399841308594 -130.0709991455078,114.3740005493164z M103.15899658203125,114.3740005493164 C103.15899658203125,107.38400268554688 108.8290023803711,101.71399688720703 115.8290023803711,101.71399688720703 C122.81900024414062,101.71399688720703 128.48899841308594,107.38400268554688 128.48899841308594,114.3740005493164 C128.48899841308594,121.36399841308594 122.81900024414062,127.03399658203125 115.8290023803711,127.03399658203125 C108.8290023803711,127.03399658203125 103.15899658203125,121.36399841308594 103.15899658203125,114.3740005493164z M155.68899536132812,-35.7760009765625 C143.718994140625,-35.7760009765625 133.98899841308594,-45.50600051879883 133.98899841308594,-57.47600173950195 C133.98899841308594,-69.44599914550781 143.718994140625,-79.1760025024414 155.68899536132812,-79.1760025024414 C167.65899658203125,-79.1760025024414 177.38900756835938,-69.44599914550781 177.38900756835938,-57.47600173950195 C177.38900756835938,-45.50600051879883 167.65899658203125,-35.7760009765625 155.68899536132812,-35.7760009765625z"></path></g></g></g></svg>