<svg xmlns="http://www.w3.org/2000/svg" xmlns:xlink="http://www.w3.org/1999/xlink" viewBox="0 0 512 512" width="512" height="512" style="width: 100%; height: 100%; transform: translate3d(0,0,0);" preserveAspectRatio="xMidYMid meet"><defs><clipPath id="__lottie_element_52945"><rect width="512" height="512" x="0" y="0"></rect></clipPath></defs><g clip-path="url(#__lottie_element_52945)"><g style="display: block;" transform="matrix(1,0,0,1,260.1940002441406,259.260986328125)" opacity="1"><g opacity="1" transform="matrix(1,0,0,1,0,0)"><path fill="rgb(4,5,52)" fill-opacity="1" d=" M200.58099365234375,-43.981998443603516 C194.6510009765625,6.8379998207092285 132.81100463867188,47.49800109863281 72.6709976196289,50.03799819946289 C72.6709976196289,50.03799819946289 75.21099853515625,179.63800048828125 71.82099914550781,211.8280029296875 C69.76100158691406,231.3979949951172 20.72100067138672,239.697998046875 -18.538999557495117,235.5780029296875 C-20.43899917602539,214.96800231933594 -28.68899917602539,122.28800201416016 -31.038999557495117,41.56800079345703 C-34.909000396728516,-91.4219970703125 -20.509000778198242,-155.79200744628906 -33.20899963378906,-162.57200622558594 C-47.638999938964844,-170.27200317382812 -43.54899978637695,181.85800170898438 -38.57899856567383,232.10800170898438 C-54.26900100708008,228.09800720214844 -65.65899658203125,221.3679962158203 -67.08899688720703,211.8280029296875 C-72.17900085449219,177.947998046875 -71.3290023803711,126.27799987792969 -71.3290023803711,126.27799987792969 C-71.3290023803711,126.27799987792969 -139.93899536132812,130.50799560546875 -174.66900634765625,85.61799621582031 C-209.3990020751953,40.71799850463867 -206.24899291992188,-49.00199890136719 -195.8489990234375,-75.3219985961914 C-186.8090057373047,-98.19200134277344 -130.60899353027344,-106.9520034790039 -117.91899871826172,-71.94200134277344 C-102.66899871826172,-29.86199951171875 -103.48799896240234,12.913000106811523 -100.12899780273438,29.70800018310547 C-94.76399993896484,56.53300094604492 -75.99800109863281,58.358001708984375 -70.47899627685547,50.88800048828125 C-60.88199996948242,37.89799880981445 -81.7760009765625,-29.302000045776367 -70.47899627685547,-173.58200073242188 C-64.66000366210938,-247.8939971923828 67.13099670410156,-262.9219970703125 70.13099670410156,-183.7519989013672 C73.57099914550781,-92.9219970703125 66.36100006103516,-57.3120002746582 73.3010025024414,-35.37200164794922 C76.53099822998047,-25.16200065612793 113.4209976196289,-18.761999130249023 115.02100372314453,-79.56199645996094 C115.6709976196289,-104.11199951171875 110.79100036621094,-147.32200622558594 157.38099670410156,-149.02200317382812 C203.96099853515625,-150.71200561523438 206.50100708007812,-94.81199645996094 200.58099365234375,-43.981998443603516z"></path></g></g></g></svg>