<svg xmlns="http://www.w3.org/2000/svg" xmlns:xlink="http://www.w3.org/1999/xlink" viewBox="0 0 512 512" width="512" height="512" style="width: 100%; height: 100%; transform: translate3d(0,0,0);" preserveAspectRatio="xMidYMid meet"><defs><clipPath id="__lottie_element_15841"><rect width="512" height="512" x="0" y="0"></rect></clipPath></defs><g clip-path="url(#__lottie_element_15841)"><g style="display: block;" transform="matrix(1,0,0,1,12.550003051757812,31.720001220703125)" opacity="1"><g opacity="1" transform="matrix(1,0,0,1,240.92999267578125,231.06500244140625)"><path fill="rgb(0,0,0)" fill-opacity="1" d=" M252.16700744628906,-10.324999809265137 C252.04200744628906,-27.5049991607666 235.63099670410156,-13.78600025177002 233.47999572753906,-19.325000762939453 C230.45899963378906,-27.104999542236328 240.82000732421875,-35.78799819946289 227.25100708007812,-38.82500076293945 C213.1320037841797,-41.98500061035156 215.90499877929688,-23.791000366210938 205.4499969482422,-25.325000762939453 C194.6840057373047,-26.905000686645508 201.37100219726562,-35.784000396728516 185.20700073242188,-25.325000762939453 C172.20899963378906,-16.915000915527344 200.60499572753906,-1.9429999589920044 192.9929962158203,6.675000190734863 C187.54299926757812,12.845000267028809 183.2100067138672,5.610000133514404 166.52000427246094,16.174999237060547 C139.6009979248047,33.21500015258789 142.71600341796875,72.71499633789062 119.29499816894531,66.17500305175781 C103.83499908447266,61.858001708984375 163.30999755859375,-3.9179999828338623 155.67999267578125,-86.87100219726562 C169.20700073242188,-87.02999877929688 183.125,-98.36499786376953 188.31399536132812,-107.697998046875 C192.71600341796875,-115.61499786376953 183.69500732421875,-125.97100067138672 175.8560028076172,-130.26100158691406 C166.73300170898438,-135.25399780273438 154.3719940185547,-133.7209930419922 145.07400512695312,-128.51100158691406 C118.75299835205078,-189.7030029296875 63.78300094604492,-181.26300048828125 65.96700286865234,-191.29800415039062 C67.84100341796875,-199.90899658203125 98.43000030517578,-211.3509979248047 86.68900299072266,-228.43600463867188 C74.61900329589844,-246 62.50699996948242,-230.20599365234375 54.96500015258789,-232.843994140625 C45.07500076293945,-236.30299377441406 54.39699935913086,-249.44400024414062 38.94300079345703,-250.81100463867188 C21.422000885009766,-252.36099243164062 20.267000198364258,-240.25 14.498000144958496,-238.55999755859375 C3.6080000400543213,-235.3699951171875 -9.142000198364258,-251.50999450683594 -18.634000778198242,-234.01699829101562 C-29.983999252319336,-213.1009979248047 -0.014000000432133675,-201.9080047607422 -6.980999946594238,-193.4810028076172 C-10.47700023651123,-189.2530059814453 -19.312000274658203,-190.05599975585938 -32.67100143432617,-185.8459930419922 C-38.20199966430664,-195.1439971923828 -48.98699951171875,-202.46499633789062 -57.37300109863281,-204.84800720214844 C-66.31900024414062,-207.39100646972656 -75.01000213623047,-196.77699279785156 -77.7750015258789,-188.5019989013672 C-80.67500305175781,-179.82200622558594 -77.64600372314453,-169.7519989013672 -71.75900268554688,-162.20599365234375 C-77.12200164794922,-157.3419952392578 -92.91000366210938,-146.96099853515625 -105.28399658203125,-114.65399932861328 C-126.68299865722656,-58.78499984741211 -105.91999816894531,-18.78499984741211 -123.62000274658203,-14.324999809265137 C-142.77999877929688,-9.496999740600586 -143.47999572753906,-51.78499984741211 -143.02999877929688,-74.82499694824219 C-142.59800720214844,-96.9209976196289 -153.91299438476562,-110.22100067138672 -154.95799255371094,-117.9749984741211 C-156.23199462890625,-127.4260025024414 -127.94599914550781,-135.52000427246094 -135.95199584960938,-147.5240020751953 C-146.26600646972656,-162.98899841308594 -155.58200073242188,-146.71099853515625 -158.23599243164062,-154.6009979248047 C-160.6510009765625,-161.7790069580078 -153.4510040283203,-175.51600646972656 -174.02999877929688,-174.56500244140625 C-189.66900634765625,-173.8419952392578 -184.6959991455078,-164.0800018310547 -190.66700744628906,-161.4040069580078 C-195.8719940185547,-159.0709991455078 -204.37100219726562,-171.88099670410156 -213.88400268554688,-156.56199645996094 C-224.97900390625,-138.69700622558594 -196.38800048828125,-139.2259979248047 -199.3070068359375,-126.16799926757812 C-200.781005859375,-119.5739974975586 -206.78500366210938,-116.5199966430664 -213.2830047607422,-113.12000274658203 C-218.06100463867188,-117.90599822998047 -223.8820037841797,-121.50900268554688 -228.81199645996094,-123.09600067138672 C-236.8560028076172,-125.68499755859375 -244.97500610351562,-115.88999938964844 -247.66700744628906,-108.18000030517578 C-250.9929962158203,-98.6510009765625 -246.9320068359375,-87.12300109863281 -239.84300231933594,-79.71199798583984 C-248.71800231933594,-53.513999938964844 -245.8820037841797,-20.856000900268555 -231.26699829101562,1.5190000534057617 C-209.91099548339844,34.2140007019043 -148.4010009765625,57.569000244140625 -121.02400207519531,56.17499923706055 C-116.31099700927734,55.935001373291016 -113.74700164794922,68.625 -108.5770034790039,101.11499786376953 C-116.58100128173828,101.00499725341797 -124.6989974975586,103.08599853515625 -129.99400329589844,106.05500030517578 C-137.57200622558594,110.30500030517578 -135.6490020751953,122.88999938964844 -131.56100463867188,130.0449981689453 C-125.76799774169922,140.18499755859375 -111.18299865722656,144.85499572753906 -99.54499816894531,142.77499389648438 C-92.91100311279297,165.875 -82.86499786376953,189.34800720214844 -67.0510025024414,208.6649932861328 C-53.84600067138672,224.7949981689453 -32.16999816894531,227.21499633789062 -0.5400000214576721,229.1649932861328 C26.270000457763672,230.81500244140625 81.98999786376953,226.16700744628906 90.22699737548828,207.1649932861328 C102.66400146484375,178.47500610351562 86.13800048828125,127.21199798583984 112.01799774169922,132.5850067138672 C126.3239974975586,135.55499267578125 145.2899932861328,139.11500549316406 164.61000061035156,138.125 C165.9080047607422,152.44500732421875 180.7519989013672,166.572998046875 194.10400390625,164.5449981689453 C202.99000549316406,163.19500732421875 210.11700439453125,154.85400390625 211.7519989013672,146.5449981689453 C213.1739959716797,139.31500244140625 210.00799560546875,132.60499572753906 204.94200134277344,127.18499755859375 C220.8979949951172,118.03500366210938 234.59100341796875,102.1449966430664 242.82400512695312,75.67500305175781 C255.52000427246094,34.85499954223633 226.2169952392578,23.59600067138672 229.3280029296875,14.175000190734863 C233.66700744628906,1.034999966621399 252.30099487304688,8.21500015258789 252.16700744628906,-10.324999809265137z M100.6709976196289,-26.78499984741211 C92.4800033569336,45.685001373291016 66.49299621582031,120.2229995727539 47.91299819946289,114.03500366210938 C28.966999053955078,107.7249984741211 69.41999816894531,69.125 73.67900085449219,-18.78499984741211 C78.9010009765625,-126.56500244140625 49.48099899291992,-121.40399932861328 71.60299682617188,-137.78500366210938 C87.80799865722656,-149.78500366210938 108.42500305175781,-95.38500213623047 100.6709976196289,-26.78499984741211z"></path></g></g></g></svg>