<svg xmlns="http://www.w3.org/2000/svg" xmlns:xlink="http://www.w3.org/1999/xlink" viewBox="0 0 512 512" width="512" height="512" style="width: 100%; height: 100%; transform: translate3d(0,0,0);" preserveAspectRatio="xMidYMid meet"><defs><clipPath id="__lottie_element_15891"><rect width="512" height="512" x="0" y="0"></rect></clipPath></defs><g clip-path="url(#__lottie_element_15891)"><g style="display: block;" transform="matrix(1.059999942779541,0,0,1.059999942779541,36.83500671386719,15.586593627929688)" opacity="1"><g opacity="1" transform="matrix(1,0,0,1,215.25,231.38999938964844)"><path fill="rgb(0,0,0)" fill-opacity="1" d=" M193,-81.86000061035156 C166.4600067138672,-89.0999984741211 -139,0.14000000059604645 -169,-9.859999656677246 C-173.2899932861328,-11.288999557495117 179.41000366210938,-98.33999633789062 178.41000366210938,-141.86000061035156 C177.8800048828125,-164.82000732421875 78.08000183105469,-202.13999938964844 18.80900001525879,-212.0500030517578 C10.079999923706055,-223.19900512695312 -3.2699999809265137,-231.13999938964844 -20.329999923706055,-230.14999389648438 C-53.52000045776367,-228.22999572753906 -51.41999816894531,-204.44900512695312 -60.709999084472656,-202.99000549316406 C-70.88999938964844,-201.3800048828125 -72.7699966430664,-230.4600067138672 -107.2300033569336,-227.9600067138672 C-135.9510040283203,-225.86900329589844 -150.1699981689453,-196.19000244140625 -144.89999389648438,-171.4600067138672 C-135.89999389648438,-129.2100067138672 -67.80000305175781,-94.61900329589844 -50.72999954223633,-96.55999755859375 C-33.06999969482422,-98.55999755859375 29.950000762939453,-136.57000732421875 30.59000015258789,-178.61000061035156 C30.649999618530273,-182.5800018310547 34.53900146484375,-171.26800537109375 32.612998962402344,-155.66200256347656 C27.357999801635742,-113.07499694824219 -40.97999954223633,-76.30999755859375 -59,-76.86000061035156 C-92,-77.86000061035156 -136.33999633789062,-117.2300033569336 -142.5500030517578,-111.40899658203125 C-189,-67.86000061035156 -203.47000122070312,-33.189998626708984 -208,-24.860000610351562 C-215,49.13999938964844 -192.05999755859375,211.08099365234375 -183,220.13999938964844 C-172,231.13999938964844 -111.62000274658203,197.13099670410156 19,168.13999938964844 C112.96900177001953,147.29100036621094 174.4600067138672,154.22999572753906 176,119.13999938964844 C180,28.139999389648438 215,-75.86000061035156 193,-81.86000061035156z M-101.43000030517578,124.31999969482422 C-113.16999816894531,126.66000366210938 -146.4510040283203,114.0510025024414 -149.8699951171875,93.5199966430664 C-151.67999267578125,82.68000030517578 -145.47000122070312,70.86000061035156 -133.72000122070312,67.87100219726562 C-123.12000274658203,65.1709976196289 -116.74099731445312,74.5199966430664 -113.16999816894531,74.27999877929688 C-110.31999969482422,74.0999984741211 -110.45099639892578,65.5199966430664 -95.55999755859375,62.7400016784668 C-81.9800033569336,60.21099853515625 -73.12999725341797,70.43000030517578 -71.33000183105469,80.69999694824219 C-67.66999816894531,101.66000366210938 -95.20099639892578,123.06999969482422 -101.43000030517578,124.31999969482422z M7.159999847412109,103.86000061035156 C-4.579999923706055,106.21099853515625 -37.86000061035156,93.5999984741211 -41.28099822998047,73.06999969482422 C-43.09000015258789,62.220001220703125 -36.880001068115234,50.40999984741211 -25.1299991607666,47.42100143432617 C-14.531000137329102,44.71099853515625 -8.140000343322754,54.06999969482422 -4.579999923706055,53.83100128173828 C-1.7309999465942383,53.63999938964844 -1.8609999418258667,45.06999969482422 13.039999961853027,42.29100036621094 C26.610000610351562,39.7599983215332 35.459999084472656,49.970001220703125 37.25899887084961,60.2400016784668 C40.91999816894531,81.19999694824219 13.388999938964844,102.61000061035156 7.159999847412109,103.86000061035156z M119.56999969482422,76.52999877929688 C107.83000183105469,78.87100219726562 74.54900360107422,66.2699966430664 71.12999725341797,45.7400016784668 C69.31999969482422,34.88999938964844 75.52999877929688,23.08099937438965 87.27999877929688,20.08099937438965 C97.87999725341797,17.381000518798828 104.25900268554688,26.729999542236328 107.83000183105469,26.500999450683594 C110.67900085449219,26.309999465942383 110.54900360107422,17.729999542236328 125.44000244140625,14.949999809265137 C139.0189971923828,12.420999526977539 147.8699951171875,22.639999389648438 149.6699981689453,32.90999984741211 C153.3300018310547,53.87099838256836 125.79900360107422,75.27999877929688 119.56999969482422,76.52999877929688z"></path></g></g></g></svg>