<svg xmlns="http://www.w3.org/2000/svg" xmlns:xlink="http://www.w3.org/1999/xlink" viewBox="0 0 512 512" width="512" height="512" style="width: 100%; height: 100%; transform: translate3d(0,0,0);" preserveAspectRatio="xMidYMid meet"><defs><clipPath id="__lottie_element_15756"><rect width="512" height="512" x="0" y="0"></rect></clipPath></defs><g clip-path="url(#__lottie_element_15756)"><g style="display: block;" transform="matrix(1,0,0,1,3.781005859375,49.75)" opacity="1"><g opacity="1" transform="matrix(1,0,0,1,250.5399932861328,221.75)"><path fill="rgb(0,0,0)" fill-opacity="1" d=" M173.60899353027344,-60.805999755859375 C129.06900024414062,-43.676998138427734 112.68000030517578,-23.67099952697754 101.62000274658203,-29.923999786376953 C90.68900299072266,-36.104000091552734 117.2300033569336,-58.417999267578125 145.10899353027344,-77.11900329589844 C177.88900756835938,-99.10700225830078 205.67300415039062,-104.66000366210938 196.10899353027344,-129.80499267578125 C186.94900512695312,-153.88699340820312 167.62100219726562,-136.41099548339844 161.60899353027344,-142.90499877929688 C154.94900512695312,-150.0989990234375 165.6750030517578,-164.69700622558594 145.10899353027344,-175.656005859375 C118.20999908447266,-189.99000549316406 79.177001953125,-114.4990005493164 68.62000274658203,-121.62699890136719 C58.319000244140625,-128.58200073242188 114.89900207519531,-190.9720001220703 86.83899688720703,-210.65499877929688 C66.66899871826172,-224.80299377441406 51.448001861572266,-194.31300354003906 44.619998931884766,-196.94500732421875 C34,-201.03900146484375 39.67900085449219,-230.20700073242188 16.1200008392334,-234.60800170898438 C-10.111000061035156,-239.50900268554688 -8.324999809265137,-207.27499389648438 -18.381000518798828,-213.32000732421875 C-31.33099937438965,-221.10400390625 -16.31999969482422,-245.49600219726562 -48.38100051879883,-250.98399353027344 C-75.16100311279297,-255.5679931640625 -74.32099914550781,-228.02499389648438 -84.38099670410156,-232.9709930419922 C-94.88099670410156,-238.13400268554688 -89.32099914550781,-254.55799865722656 -106.87100219726562,-254.25900268554688 C-129.3209991455078,-253.8769989013672 -119.22100067138672,-241.7689971923828 -130.87100219726562,-241.15899658203125 C-143.37100219726562,-240.50399780273438 -140.322998046875,-257.5050048828125 -156.37100219726562,-249.3459930419922 C-173.4010009765625,-240.68800354003906 -158.07200622558594,-227.68699645996094 -168.37100219726562,-223.14500427246094 C-176.27099609375,-219.66099548339844 -176.31900024414062,-233.47900390625 -193.87100219726562,-224.7830047607422 C-211.8509979248047,-215.875 -196.04800415039062,-200.322998046875 -204.37100219726562,-195.3070068359375 C-211.87100219726562,-190.78700256347656 -213.32400512695312,-208.3800048828125 -229.87100219726562,-200.22000122070312 C-239.68099975585938,-195.38299560546875 -247.51699829101562,-181.281005859375 -239.3209991455078,-146.4199981689453 C-209.3209991455078,-18.816999435424805 -121.322998046875,52.542999267578125 -122.32099914550781,67.8270034790039 C-123.89099884033203,91.87699890136719 -103.37300109863281,98.12300109863281 -104.37100219726562,111.98699951171875 C-107.32099914550781,152.9810028076172 -107.00700378417969,173.16400146484375 -80.38099670410156,211.8780059814453 C-59.32099914550781,242.5 -4.321000099182129,221.7570037841797 -25.881000518798828,196.04800415039062 C-45.49800109863281,172.656005859375 -43.48500061035156,137.47999572753906 -37.38100051879883,125.63300323486328 C-34.37099838256836,119.79100036621094 -21.32200050354004,131.1529998779297 -8.880999565124512,125.08699798583984 C10.038999557495117,115.86199951171875 12.333999633789062,101.89600372314453 19.6200008392334,98.35099792480469 C57.67900085449219,79.83599853515625 101.08999633789062,67.21399688720703 142.5489959716797,48.763999938964844 C229.6790008544922,9.98900032043457 240.6790008544922,-19.84600067138672 244.10899353027344,-43.5260009765625 C248.18099975585938,-71.64299774169922 214.67599487304688,-76.5989990234375 173.60899353027344,-60.805999755859375z M-101.82099914550781,-4.353000164031982 C-117.02100372314453,-37.57500076293945 -142.36099243164062,-105.81600189208984 -142.36099243164062,-147.30099487304688 C-142.36099243164062,-175.68499755859375 -106.3270034790039,-181.14199829101562 -97.32099914550781,-150.5760040283203 C-89.61100006103516,-124.40899658203125 -87.22100067138672,-59.016998291015625 -81.6510009765625,-19.5939998626709 C-79.21099853515625,-2.3239998817443848 -96.71499633789062,6.806000232696533 -101.82099914550781,-4.353000164031982z M-28.06100082397461,-0.5130000114440918 C-31.641000747680664,16.51799964904785 -50.98500061035156,16.97599983215332 -51.32099914550781,4.508999824523926 C-52.32099914550781,-32.60900115966797 -50.327999114990234,-90.47100067138672 -45.32099914550781,-122.12899780273438 C-43.17100143432617,-135.7220001220703 -22.322999954223633,-138.50399780273438 -18.320999145507812,-121.03700256347656 C-12.211000442504883,-94.36699676513672 -17.757999420166016,-49.527000427246094 -28.06100082397461,-0.5130000114440918z"></path></g></g></g></svg>