<svg xmlns="http://www.w3.org/2000/svg" xmlns:xlink="http://www.w3.org/1999/xlink" viewBox="0 0 512 512" width="512" height="512" style="width: 100%; height: 100%; transform: translate3d(0,0,0);" preserveAspectRatio="xMidYMid meet"><defs><clipPath id="__lottie_element_15836"><rect width="512" height="512" x="0" y="0"></rect></clipPath></defs><g clip-path="url(#__lottie_element_15836)"><g style="display: block;" transform="matrix(1,0,0,1,8.143997192382812,3.56201171875)" opacity="1"><g opacity="1" transform="matrix(1,0,0,1,246.05799865722656,249.343994140625)"><path fill="rgb(0,0,0)" fill-opacity="1" d=" M-49.249000549316406,6.053999900817871 C-79.19200134277344,-18.906999588012695 -87.71600341796875,-100.21700286865234 -65.2490005493164,-108.44100189208984 C-31.191999435424805,-120.90699768066406 8.15999984741211,-45.724998474121094 17.808000564575195,-36.90700149536133 C32.36600112915039,-23.599000930786133 104.80799865722656,-80.90699768066406 118.24199676513672,-112.44100189208984 C130.97999572753906,-142.33700561523438 145.48399353027344,-175.6790008544922 158.24000549316406,-184.93699645996094 C181.5030059814453,-201.81900024414062 210.0449981689453,-161.1060028076172 225.73699951171875,-175.93699645996094 C245.80799865722656,-194.90699768066406 191.06199645996094,-249.093994140625 123.74199676513672,-234.9340057373047 C61.80799865722656,-221.90699768066406 63.80799865722656,-196.90699768066406 37.74599838256836,-186.43699645996094 C2.7170000076293945,-172.36399841308594 -32.19200134277344,-196.90699768066406 -102.74700164794922,-162.43800354003906 C-187.28700256347656,-121.13600158691406 -245.80799865722656,-4.9029998779296875 -218.74099731445312,30.05299949645996 C-193.593994140625,62.529998779296875 -84.37300109863281,41.36000061035156 -30.75,54.051998138427734 C32.79800033569336,69.09400177001953 47.196998596191406,111.68599700927734 34.24700164794922,118.0479965209961 C13.79800033569336,128.09300231933594 14.79800033569336,90.09300231933594 -29.75,80.05000305175781 C-55.37799835205078,74.27300262451172 -107.8010025024414,68.08799743652344 -107.24600219726562,77.05000305175781 C-106.19200134277344,94.09300231933594 -98.5459976196289,82.98100280761719 -87.74700164794922,94.05000305175781 C-68.19200134277344,114.09400177001953 -76.19200134277344,147.09300231933594 -31.75,177.5449981689453 C-8.369999885559082,193.5659942626953 10.244000434875488,189.31500244140625 28.246999740600586,190.5449981689453 C39.79399871826172,191.3350067138672 64.12200164794922,232.031005859375 78.74400329589844,241.04200744628906 C91.80799865722656,249.09300231933594 108.80799865722656,233.09300231933594 99.74299621582031,220.04299926757812 C89.96499633789062,205.96499633789062 69.14099884033203,197.28500366210938 70.74500274658203,174.0449981689453 C71.84500122070312,158.1179962158203 97.80799865722656,161.093994140625 98.24299621582031,89.55000305175781 C98.4489974975586,55.757999420166016 82.9800033569336,52.59400177001953 85.74400329589844,15.053000450134277 C88.49199676513672,-22.270000457763672 113.80799865722656,-37.90599822998047 101.24299621582031,-48.44300079345703 C94.28399658203125,-54.27799987792969 70.17500305175781,-22.246000289916992 38.34400177001953,-3.010999917984009 C8.47700023651123,15.036999702453613 -29.791000366210938,22.27400016784668 -49.249000549316406,6.053999900817871z"></path></g></g></g></svg>