<svg xmlns="http://www.w3.org/2000/svg" xmlns:xlink="http://www.w3.org/1999/xlink" viewBox="0 0 512 512" width="512" height="512" style="width: 100%; height: 100%; transform: translate3d(0,0,0);" preserveAspectRatio="xMidYMid meet"><defs><clipPath id="__lottie_element_52438"><rect width="512" height="512" x="0" y="0"></rect></clipPath></defs><g clip-path="url(#__lottie_element_52438)"><g style="display: block;" transform="matrix(1.9126900434494019,0,0,1.9126900434494019,-231.64865112304688,-293.6486511230469)" opacity="1"><g opacity="1" transform="matrix(1,0,0,1,258.70599365234375,323.47601318359375)"><path fill="rgb(0,0,0)" fill-opacity="1" d=" M2.940999984741211,-86.6510009765625 C-13.755000114440918,-86.9229965209961 -57.70500183105469,-70.47599792480469 -71.2300033569336,-50.35900115966797 C-72.06199645996094,-49.12099838256836 -73.94999694824219,-38.297000885009766 -63.18299865722656,-31.86199951171875 C-36.16699981689453,-15.717000007629395 18.618999481201172,-20.735000610351562 18.84600067138672,-16.86199951171875 C19.06800079345703,-13.0649995803833 -34.07500076293945,-5.260000228881836 -66.375,-14.086000442504883 C-67.447998046875,-14.378999710083008 -68.51200103759766,-14.628999710083008 -69.53900146484375,-14.942999839782715 C-71.87300109863281,-15.656999588012695 -74.1729965209961,-13.664999961853027 -74.2300033569336,-10.937999725341797 C-74.2300033569336,-10.937999725341797 -71.70099639892578,55.74100112915039 -71.70099639892578,55.74100112915039 C-71.7040023803711,55.90800094604492 -71.70099639892578,56.07699966430664 -71.68900299072266,56.24399948120117 C-70.12799835205078,78.56300354003906 -30.141000747680664,86.08300018310547 -1.2059999704360962,86.5250015258789 C24.774999618530273,86.9229965209961 69.29399871826172,78.25 69.29399871826172,55.992000579833984 C69.29399871826172,55.992000579833984 74.25700378417969,-38.35599899291992 74.25700378417969,-38.35599899291992 C74.25700378417969,-60.61399841308594 22.851999282836914,-86.3270034790039 2.940999984741211,-86.6510009765625z"></path></g><g opacity="1" transform="matrix(1,0,0,1,260.59698486328125,206.38400268554688)"><path fill="rgb(0,0,0)" fill-opacity="1" d=" M-1.309000015258789,-46.38100051879883 C-15.597000122070312,-46.37799835205078 -45.992000579833984,-9.654000282287598 -37.54199981689453,17.881999969482422 C-34.91600036621094,26.437999725341797 -28.340999603271484,37.3650016784668 -18.677000045776367,44.07099914550781 C-16.759000778198242,45.4010009765625 -11.817000389099121,42.362998962402344 -13.12399959564209,40.09299850463867 C-15.145000457763672,36.582000732421875 -16.58799934387207,25.336999893188477 -16.424999237060547,20.461999893188477 C-16.05500030517578,9.36400032043457 -6.5970001220703125,-1.3830000162124634 -1.309000015258789,-1.4850000143051147 C3.486999988555908,-1.5770000219345093 10.835000038146973,9.520000457763672 12.413999557495117,18.066999435424805 C13.449999809265137,23.676000595092773 11.857999801635742,33.70000076293945 10.21500015258789,38.8650016784668 C9.501999855041504,41.11000061035156 15.21500015258789,46.38399887084961 16.899999618530273,45.367000579833984 C27.614999771118164,38.90299987792969 34.9640007019043,27.18400001525879 37.71099853515625,17.881999969482422 C45.99300003051758,-10.163999557495117 14.402999877929688,-46.38399887084961 -1.309000015258789,-46.38100051879883z"></path></g></g></g></svg>