<svg xmlns="http://www.w3.org/2000/svg" xmlns:xlink="http://www.w3.org/1999/xlink" viewBox="0 0 512 512" width="512" height="512" style="width: 100%; height: 100%; transform: translate3d(0,0,0);" preserveAspectRatio="xMidYMid meet"><defs><clipPath id="__lottie_element_52851"><rect width="512" height="512" x="0" y="0"></rect></clipPath></defs><g clip-path="url(#__lottie_element_52851)"><g style="display: block;" transform="matrix(1,0,0,1,256,255.99998474121094)" opacity="1"><g opacity="1" transform="matrix(1,0,0,1,0,0)"><path fill="rgb(0,0,0)" fill-opacity="1" d=" M-129.86500549316406,66.46900177001953 C-147.6490020751953,71.4729995727539 -163.2779998779297,82.20999908447266 -174.3419952392578,97.00499725341797 C-194.9320068359375,124.53700256347656 -230.08099365234375,172.0279998779297 -242.57000732421875,191.88499450683594 C-260.66900634765625,220.66200256347656 -227.9320068359375,237.36500549316406 -213.51300048828125,236.16600036621094 C-199.093994140625,234.9669952392578 -173.56199645996094,183.65499877929688 -165.92300415039062,178.1320037841797 C-17.343000411987305,230.3719940185547 22.746999740600586,213.43299865722656 53.82099914550781,201.6020050048828 C84.8949966430664,189.77099609375 117.7020034790039,166.40199279785156 145.7469940185547,82.5979995727539 C145.7469940185547,82.5979995727539 199.66600036621094,81.0719985961914 230.45599365234375,64.51899719238281 C241.75599670410156,58.444000244140625 247.51400756835938,45.499000549316406 244.6269989013672,32.999000549316406 C218.0709991455078,-81.98999786376953 195.4409942626953,-200.35400390625 46.215999603271484,-205.38099670410156 C20.06599998474121,-245.97500610351562 -27.579999923706055,-222.1439971923828 -33.637001037597656,-191.9510040283203 C-157.08599853515625,-148.98599243164062 -170.72900390625,-112.26799774169922 -163.6719970703125,8.086000442504883 C-163.13099670410156,17.31599998474121 -154.90199279785156,24.232999801635742 -145.73399353027344,23.042999267578125 C-84.12799835205078,15.043999671936035 -19.8439998626709,24.16200065612793 39.891998291015625,43.979000091552734 C49.183998107910156,47.0620002746582 45.79999923706055,61.04100036621094 36.1349983215332,59.53099822998047 C36.1349983215332,59.53099822998047 36.108001708984375,59.525001525878906 36.108001708984375,59.525001525878906 C-18.47599983215332,51.04800033569336 -76.7979965209961,51.53900146484375 -129.86500549316406,66.46900177001953z"></path></g></g></g></svg>