<svg xmlns="http://www.w3.org/2000/svg" xmlns:xlink="http://www.w3.org/1999/xlink" viewBox="0 0 512 512" width="512" height="512" style="width: 100%; height: 100%; transform: translate3d(0,0,0);" preserveAspectRatio="xMidYMid meet"><defs><clipPath id="__lottie_element_52935"><rect width="512" height="512" x="0" y="0"></rect></clipPath></defs><g clip-path="url(#__lottie_element_52935)"><g style="display: block;" transform="matrix(1,0,0,1,0,0)" opacity="1"><g opacity="1" transform="matrix(1,0,0,1,265.3699951171875,238.80499267578125)"><path fill="rgb(0,0,0)" fill-opacity="1" d=" M230.6300048828125,-48.80500030517578 C227.83999633789062,-60.3849983215332 196.62100219726562,-59.935001373291016 179.6300048828125,-54.80500030517578 C174.13999938964844,-53.14400100708008 172.33999633789062,-117.8740005493164 158.6300048828125,-125.80500030517578 C130.9600067138672,-141.80499267578125 -17.040000915527344,-169.80499267578125 -50.369998931884766,-169.80499267578125 C-60.369998931884766,-169.80499267578125 -82.47899627685547,-149.2050018310547 -80.37000274658203,-146.80499267578125 C-49.040000915527344,-111.13500213623047 94.95999908447266,-65.80500030517578 94.62999725341797,-60.80500030517578 C94.01000213623047,-51.435001373291016 -45.040000915527344,-47.1349983215332 -110.37000274658203,-98.80500030517578 C-114.20899963378906,-101.84500122070312 -152.07000732421875,-148.1649932861328 -167.3699951171875,-129.80499267578125 C-195.6999969482422,-95.80500030517578 -159.36000061035156,-72.73600006103516 -163.3699951171875,-70.80599975585938 C-180.77000427246094,-62.41600036621094 -211.6999969482422,-51.1349983215332 -221.88999938964844,-38.354000091552734 C-234.66900634765625,-22.30500030517578 -241.3000030517578,75.63600158691406 -238.3699951171875,85.19499969482422 C-233.3699951171875,101.5250015258789 -161.95899963378906,140.3249969482422 -48.369998931884766,155.19500732421875 C63.29999923706055,169.80599975585938 176.19000244140625,162.13600158691406 191.6300048828125,136.19500732421875 C208.3000030517578,108.19499969482422 201.6300048828125,17.19499969482422 200.13999938964844,7.474999904632568 C198.12100219726562,-5.644000053405762 241.3000030517578,-4.474999904632568 230.6300048828125,-48.80500030517578z M-197.8699951171875,86.86499786376953 C-206.42999267578125,86.86499786376953 -213.3699951171875,79.9260025024414 -213.3699951171875,71.36499786376953 C-213.3699951171875,62.805999755859375 -206.42999267578125,55.8650016784668 -197.8699951171875,55.8650016784668 C-189.30999755859375,55.8650016784668 -182.3699951171875,62.805999755859375 -182.3699951171875,71.36499786376953 C-182.3699951171875,79.9260025024414 -189.30999755859375,86.86499786376953 -197.8699951171875,86.86499786376953z M-170.64999389648438,39.92499923706055 C-201.6999969482422,25.924999237060547 -220.82000732421875,0.9549999833106995 -205.25999450683594,-23.2450008392334 C-189.77000427246094,-47.334999084472656 -162.5500030517578,-45.095001220703125 -135.58900451660156,-20.184999465942383 C-109.48999786376953,3.936000108718872 -96.68000030517578,22.104999542236328 -106.83000183105469,37.83399963378906 C-116.97000122070312,53.56399917602539 -141.74000549316406,52.9640007019043 -170.64999389648438,39.92499923706055z M12.491000175476074,96.06500244140625 C12.491000175476074,96.06500244140625 8.210000038146973,125.08399963378906 8.210000038146973,125.08399963378906 C7.241000175476074,131.60499572753906 1.1109999418258667,136.1649932861328 -5.419000148773193,135.19500732421875 C-5.419000148773193,135.19500732421875 -95.11000061035156,121.95500183105469 -95.11000061035156,121.95500183105469 C-101.63999938964844,120.98500061035156 -106.19999694824219,114.85600280761719 -105.22899627685547,108.32499694824219 C-105.22899627685547,108.32499694824219 -100.94999694824219,79.30500030517578 -100.94999694824219,79.30500030517578 C-99.97899627685547,72.78399658203125 -93.8499984741211,68.22599792480469 -87.31999969482422,69.19499969482422 C-87.31999969482422,69.19499969482422 2.371000051498413,82.43599700927734 2.371000051498413,82.43599700927734 C8.899999618530273,83.40499877929688 13.460000038146973,89.53500366210938 12.491000175476074,96.06500244140625z M130.4600067138672,135.19500732421875 C121.9000015258789,135.19500732421875 114.95999908447266,128.2550048828125 114.95999908447266,119.69499969482422 C114.95999908447266,111.13600158691406 121.9000015258789,104.19499969482422 130.4600067138672,104.19499969482422 C139.02000427246094,104.19499969482422 145.9600067138672,111.13600158691406 145.9600067138672,119.69499969482422 C145.9600067138672,128.2550048828125 139.02000427246094,135.19500732421875 130.4600067138672,135.19500732421875z M108.4800033569336,84.58399963378906 C67.3499984741211,88.19400024414062 41.77000045776367,85.10600280761719 36.33100128173828,64.44499969482422 C30.889999389648438,43.79499816894531 50.900001525878906,23.295000076293945 84.78099822998047,8.805000305175781 C121.16999816894531,-6.755000114440918 157.531005859375,-3.7950000762939453 165.92999267578125,27.94499969482422 C174.3000030517578,59.525001525878906 150.9600067138672,80.86399841308594 108.4800033569336,84.58399963378906z"></path></g><g opacity="1" transform="matrix(1,0,0,1,73.36000061035156,392.4200134277344)"><path fill="rgb(0,0,0)" fill-opacity="1" d=" M-39.027000427246094,-35.08700180053711 C-21.360000610351562,-26.420000076293945 30.006000518798828,-5.956999778747559 43.305999755859375,-4.086999893188477 C47.52199935913086,-3.493000030517578 48.41299819946289,11.01099967956543 42.305999755859375,19.579999923706055 C34.941001892089844,29.913000106811523 -42.36000061035156,12.112000465393066 -45.694000244140625,0.5799999833106995 C-48.41299819946289,-8.826000213623047 -44.78799819946289,-37.91299819946289 -39.027000427246094,-35.08700180053711z"></path></g><g opacity="1" transform="matrix(1,0,0,1,398.8940124511719,427.10101318359375)"><path fill="rgb(0,0,0)" fill-opacity="1" d=" M51.58000183105469,-23.41200065612793 C28.172000885009766,-16.990999221801758 -36.14899826049805,-8.972999572753906 -52.972999572753906,-9.381999969482422 C-58.305999755859375,-9.51099967956543 -59.28200149536133,0.6669999957084656 -53.17499923706055,11.473999977111816 C-45.81100082397461,24.506000518798828 57.108001708984375,19.604999542236328 58.30699920654297,5.956999778747559 C59.28200149536133,-5.159999847412109 59.2130012512207,-25.506000518798828 51.58000183105469,-23.41200065612793z"></path></g></g></g></svg>