<svg xmlns="http://www.w3.org/2000/svg" xmlns:xlink="http://www.w3.org/1999/xlink" viewBox="0 0 512 512" width="512" height="512" style="width: 100%; height: 100%; transform: translate3d(0,0,0);" preserveAspectRatio="xMidYMid meet"><defs><clipPath id="__lottie_element_52801"><rect width="512" height="512" x="0" y="0"></rect></clipPath></defs><g clip-path="url(#__lottie_element_52801)"><g style="display: block;" transform="matrix(1,0,0,1,255.9149932861328,255.843994140625)" opacity="1"><g opacity="1" transform="matrix(1,0,0,1,53.7400016784668,-11.857000350952148)"><path fill="rgb(0,0,0)" fill-opacity="1" d=" M186.5070037841797,-84.22100067138672 C184.67999267578125,-91.01499938964844 177.18600463867188,-94.5790023803711 170.76699829101562,-91.6760025024414 C146.22799682617188,-80.58599853515625 121.93499755859375,-84.73400115966797 94.69000244140625,-88.14099884033203 C63.237998962402344,-92.07099914550781 43.57600021362305,-82.24600219726562 43.57600021362305,-82.24600219726562 C50.270999908447266,-151.8939971923828 22.75,-195.53199768066406 4.531000137329102,-216.27000427246094 C-1.1369999647140503,-222.72799682617188 -11.633999824523926,-220.79200744628906 -14.734999656677246,-212.78399658203125 C-23.128999710083008,-191.0590057373047 -42.641998291015625,-177.8260040283203 -77.322998046875,-158.9149932861328 C-120.57499694824219,-135.32400512695312 -123.51799774169922,-99.93199920654297 -123.51799774169922,-99.93199920654297 C-136.29600524902344,-130.406005859375 -188.3979949951172,-150.06700134277344 -232.6280059814453,-140.23199462890625 C-254.1649932861328,-135.45199584960938 -273.82598876953125,-135.32400512695312 -288.3420104980469,-136.4600067138672 C-297.6440124511719,-137.18099975585938 -303.906005859375,-127.0979995727539 -299.0669860839844,-119.11900329589844 C-285.85400390625,-97.31500244140625 -267.8909912109375,-61.46900177001953 -266.0539855957031,-25.22800064086914 C-263.10101318359375,32.757999420166016 -235.5800018310547,45.5369987487793 -235.5800018310547,45.5369987487793 C-279.80999755859375,55.37200164794922 -283.7409973144531,104.52100372314453 -276.8580017089844,152.68099975585938 C-273.7969970703125,174.16900634765625 -273.6579895019531,189.39599609375 -274.447998046875,199.67599487304688 C-275.02099609375,207.08200073242188 -268.5329895019531,213.0070037841797 -261.1860046386719,211.87100219726562 C-237.11099243164062,208.1479949951172 -203.53500366210938,216.54200744628906 -154.97999572753906,208.71099853515625 C-94.03099822998047,198.88499450683594 -68.4749984741211,150.71499633789062 -68.4749984741211,150.71499633789062 C-37.87200164794922,256.218994140625 83.13600158691406,246.9080047607422 125.8550033569336,240.093994140625 C132.8560028076172,238.97799682617188 137.09300231933594,231.8979949951172 134.94000244140625,225.14300537109375 C127.69200134277344,202.42999267578125 133.99200439453125,169.15199279785156 138.92999267578125,137.93699645996094 C144.8249969482422,100.58999633789062 121.23400115966797,76.01100158691406 121.23400115966797,76.01100158691406 C121.23400115966797,76.01100158691406 162.51100158691406,70.11599731445312 184.13699340820312,16.049999237060547 C199.43299865722656,-22.18600082397461 192.1060028076172,-63.3849983215332 186.5070037841797,-84.22100067138672z M-158.40699768066406,-4.173999786376953 C-159.95700073242188,-5.309999942779541 -160.8070068359375,-6.889999866485596 -161.1820068359375,-8.677000045776367 C-162.7519989013672,-16.250999450683594 -154.0229949951172,-21.64299964904785 -147.6929931640625,-17.18899917602539 C-138.4499969482422,-10.701000213623047 -121.0999984741211,-3.118000030517578 -91.04000091552734,-4.135000228881836 C-86.24099731445312,-4.2829999923706055 -82.24099731445312,-0.38199999928474426 -82.36900329589844,4.486000061035156 C-82.47799682617188,8.968999862670898 -86.27999877929688,12.515000343322754 -90.75299835205078,12.652999877929688 C-92.697998046875,12.722000122070312 -94.61399841308594,12.751999855041504 -96.47100067138672,12.751999855041504 C-128.06100463867188,12.751999855041504 -147.31700134277344,4.002999782562256 -158.40699768066406,-4.173999786376953z M-81.08599853515625,49.76300048828125 C-81.48100280761719,49.970001220703125 -101.65599822998047,60.46799850463867 -116.40899658203125,84.06900024414062 C-117.9990005493164,86.61699676513672 -120.73300170898438,88.00900268554688 -123.52799987792969,88.00900268554688 C-125.04900360107422,88.00900268554688 -126.58999633789062,87.59400177001953 -127.97200012207031,86.73500061035156 C-131.90199279785156,84.2760009765625 -133.0970001220703,79.10199737548828 -130.63800048828125,75.1719970703125 C-113.20899963378906,47.275001525878906 -89.60700225830078,35.25699996948242 -88.61000061035156,34.75299835205078 C-84.46199798583984,32.67900085449219 -79.427001953125,34.36800003051758 -77.35299682617188,38.51499938964844 C-75.27899932861328,42.65299987792969 -76.95800018310547,47.68899917602539 -81.08599853515625,49.76300048828125z M-61.928001403808594,-3.078000068664551 C-66.38200378417969,-3.078000068664551 -70.09500122070312,-6.584000110626221 -70.31199645996094,-11.07699966430664 C-71.96099853515625,-46.18299865722656 -62.94499969482422,-67.2760009765625 -54.43299865722656,-79.17500305175781 C-54.26499938964844,-79.41200256347656 -54.0880012512207,-79.64900207519531 -53.900001525878906,-79.8759994506836 C-47.165000915527344,-88.10199737548828 -34.494998931884766,-78.15699768066406 -40.66699981689453,-69.49700164794922 C-47.154998779296875,-60.391998291015625 -54.99599838256836,-42.80500030517578 -53.54399871826172,-11.866999626159668 C-53.32699966430664,-7.236000061035156 -56.902000427246094,-3.305000066757202 -61.53300094604492,-3.0880000591278076 C-61.6609992980957,-3.078000068664551 -61.79999923706055,-3.078000068664551 -61.928001403808594,-3.078000068664551z M-7.695000171661377,88.78900146484375 C-13.373000144958496,89.60800170898438 -17.94499969482422,86.14299774169922 -20.878000259399414,81.39299774169922 C-26.30900001525879,72.60399627685547 -37.13100051879883,57.632999420166016 -55.104000091552734,42.79100036621094 C-58.67900085449219,39.8380012512207 -59.19300079345703,34.54600143432617 -56.2400016784668,30.97100067138672 C-53.2869987487793,27.395999908447266 -47.994998931884766,26.892000198364258 -44.41999816894531,29.844999313354492 C-16.483999252319336,52.91299819946289 -6.026000022888184,70.33300018310547 -2.125,79.6449966430664 C-0.593999981880188,83.31800079345703 -3.755000114440918,88.21600341796875 -7.695000171661377,88.78900146484375z M37.810001373291016,4.01200008392334 C32.152000427246094,4.989999771118164 24.77400016784668,5.2170000076293945 16.242000579833984,5.473999977111816 C0.7089999914169312,5.938000202178955 -18.615999221801758,6.520999908447266 -33.39899826049805,12.109999656677246 C-34.37699890136719,12.475000381469727 -35.38399887084961,12.652999877929688 -36.36199951171875,12.652999877929688 C-39.75899887084961,12.652999877929688 -42.948001861572266,10.59000015258789 -44.22200012207031,7.23199987411499 C-45.861000061035156,2.8970000743865967 -43.67900085449219,-1.9520000219345093 -39.33399963378906,-3.5910000801086426 C-21.93400001525879,-10.178000450134277 -1.0490000247955322,-10.8100004196167 15.73900032043457,-11.314000129699707 C23.628999710083008,-11.550999641418457 30.452999114990234,-11.748000144958496 34.93600082397461,-12.527999877929688 C39.49800109863281,-13.317999839782715 43.84299850463867,-10.267000198364258 44.643001556396484,-5.695000171661377 C45.43299865722656,-1.1330000162124634 42.37200164794922,3.2119998931884766 37.810001373291016,4.01200008392334z"></path></g></g></g></svg>