<svg xmlns="http://www.w3.org/2000/svg" xmlns:xlink="http://www.w3.org/1999/xlink" viewBox="0 0 512 512" width="512" height="512" style="width: 100%; height: 100%; transform: translate3d(0,0,0);" preserveAspectRatio="xMidYMid meet"><defs><clipPath id="__lottie_element_51915"><rect width="512" height="512" x="0" y="0"></rect></clipPath></defs><g clip-path="url(#__lottie_element_51915)"><g style="display: block;" transform="matrix(1,0,0,1,8.510009765625,15.330001831054688)" opacity="1"><g opacity="1" transform="matrix(1,0,0,1,245.3699951171875,248.4600067138672)"><path fill="rgb(0,0,0)" fill-opacity="1" d=" M228.1199951171875,-34.790000915527344 C228.91000366210938,-46.18000030517578 245.1199951171875,-49.790000915527344 245.1199951171875,-74.79000091552734 C245.1199951171875,-105.79000091552734 200.1199951171875,-93.79000091552734 202.1199951171875,-103.79000091552734 C203.66000366210938,-111.5 232.1199951171875,-126.79000091552734 228.1199951171875,-152.7899932861328 C225.91000366210938,-167.17999267578125 202.41000366210938,-163.7899932861328 195.1199951171875,-167.7899932861328 C182.47999572753906,-174.74000549316406 196.42999267578125,-195.63999938964844 170.1199951171875,-208.7899932861328 C142.1199951171875,-222.7899932861328 119.12000274658203,-194.7899932861328 108.12000274658203,-201.7899932861328 C96.4000015258789,-209.25 109.12000274658203,-232.7899932861328 81.12000274658203,-240.7899932861328 C55.15999984741211,-248.2100067138672 54.119998931884766,-218.7899932861328 44.119998931884766,-219.7899932861328 C35.90999984741211,-220.61000061035156 34.939998626708984,-236.67999267578125 15.119999885559082,-233.7899932861328 C-5.46999979019165,-230.7899932861328 2.7799999713897705,-215.7899932861328 -10.880000114440918,-213.7899932861328 C-20.399999618530273,-212.39999389648438 -19.8799991607666,-238.7899932861328 -68.87999725341797,-232.7899932861328 C-125.20999908447266,-225.88999938964844 -105.87999725341797,-175.7899932861328 -120.87999725341797,-172.7899932861328 C-131.25999450683594,-170.7100067138672 -134.8800048828125,-181.7899932861328 -150.8800048828125,-165.7899932861328 C-167.4499969482422,-149.22000122070312 -151.8800048828125,-140.7899932861328 -160.8800048828125,-135.7899932861328 C-169.0800018310547,-131.22999572753906 -216.8800048828125,-143.7899932861328 -229.8800048828125,-98.79000091552734 C-245.1199951171875,-46.029998779296875 -209.14999389648438,-48.150001525878906 -205.8800048828125,-36.790000915527344 C-202.5500030517578,-25.219999313354492 -240.0500030517578,-20.790000915527344 -239.8800048828125,19.209999084472656 C-239.72000122070312,56.54999923706055 -211.75999450683594,49.880001068115234 -207.8800048828125,58.209999084472656 C-204.91000366210938,64.58999633789062 -213.8800048828125,82.20999908447266 -193.8800048828125,94.20999908447266 C-168.66000366210938,109.33999633789062 -165.16000366210938,74.9800033569336 -157.8800048828125,90.20999908447266 C-146.8800048828125,113.20999908447266 -131.16000366210938,111.30000305175781 -126.87999725341797,116.20999908447266 C-119.26000213623047,124.94000244140625 -132.8800048828125,163.2100067138672 -100.87999725341797,173.2100067138672 C-72.61000061035156,182.0399932861328 -69.70999908447266,159.1999969482422 -60.880001068115234,157.2100067138672 C-53.619998931884766,155.5800018310547 -46.880001068115234,164.2100067138672 -32.880001068115234,156.2100067138672 C-14.239999771118164,145.55999755859375 -28.989999771118164,78.41000366210938 -5.880000114440918,67.20999908447266 C3.940000057220459,62.45000076293945 14.720000267028809,71.11000061035156 25.1200008392334,67.20999908447266 C41.119998931884766,61.209999084472656 33.689998626708984,31.239999771118164 51.119998931884766,22.209999084472656 C65.33999633789062,14.84000015258789 85.98999786376953,20.959999084472656 88.12000274658203,30.209999084472656 C91.12000274658203,43.209999084472656 78.19000244140625,38.349998474121094 68.12000274658203,50.209999084472656 C51.13999938964844,70.19999694824219 62.2599983215332,84.55999755859375 49.119998931884766,95.20999908447266 C34,107.47000122070312 14.119999885559082,90.20999908447266 6.119999885559082,105.20999908447266 C-6.769999980926514,129.3699951171875 90.12000274658203,248.2100067138672 133.1199951171875,229.2100067138672 C182.6999969482422,207.3000030517578 115.12000274658203,25.209999084472656 122.12000274658203,15.210000038146973 C130.97000122070312,2.569999933242798 159.1199951171875,57.209999084472656 184.1199951171875,48.209999084472656 C206.8800048828125,40.02000045776367 193.55999755859375,20.489999771118164 199.1199951171875,13.210000038146973 C208.8699951171875,0.44999998807907104 221.1199951171875,18.209999084472656 231.1199951171875,-0.7900000214576721 C241.1199951171875,-19.790000915527344 227.38999938964844,-24.219999313354492 228.1199951171875,-34.790000915527344z M15.119999885559082,-69.79000091552734 C12.520000457763672,-63.91999816894531 -11.069999694824219,-78.63999938964844 -25.8799991607666,-64.79000091552734 C-38.04999923706055,-53.40999984741211 -27.8799991607666,-38.56999969482422 -37.880001068115234,-29.790000915527344 C-46.95000076293945,-21.829999923706055 -78.05000305175781,-46.02000045776367 -85.87999725341797,-20.790000915527344 C-94.87999725341797,8.210000038146973 -58.34000015258789,15.5600004196167 -56.880001068115234,22.209999084472656 C-52.95000076293945,40.099998474121094 -112.37999725341797,52.83000183105469 -123.87999725341797,36.209999084472656 C-132.8800048828125,23.209999084472656 -124.26000213623047,11.779999732971191 -124.87999725341797,5.210000038146973 C-125.87999725341797,-5.369999885559082 -159.30999755859375,-12.180000305175781 -140.8800048828125,-45.790000915527344 C-123.87999725341797,-76.79000091552734 -92.44000244140625,-53.09000015258789 -85.87999725341797,-58.790000915527344 C-78.23999786376953,-65.43000030517578 -99.87999725341797,-98.79000091552734 -71.87999725341797,-116.79000091552734 C-42.720001220703125,-135.5399932861328 19.549999237060547,-79.81999969482422 15.119999885559082,-69.79000091552734z M123.12000274658203,-42.790000915527344 C115.01000213623047,-46.779998779296875 134.39999389648438,-66.58999633789062 114.12000274658203,-80.79000091552734 C94.12000274658203,-94.79000091552734 73.76000213623047,-75.9800033569336 67.12000274658203,-83.79000091552734 C56.369998931884766,-96.44000244140625 98.01000213623047,-168.83999633789062 125.12000274658203,-155.7899932861328 C152.1199951171875,-142.7899932861328 132.17999267578125,-109.37999725341797 137.1199951171875,-101.79000091552734 C144.72000122070312,-90.11000061035156 155.22999572753906,-106.36000061035156 163.1199951171875,-89.79000091552734 C173.1199951171875,-68.79000091552734 134.30999755859375,-37.279998779296875 123.12000274658203,-42.790000915527344z"></path></g></g></g></svg>