<svg xmlns="http://www.w3.org/2000/svg" xmlns:xlink="http://www.w3.org/1999/xlink" viewBox="0 0 512 512" width="512" height="512" style="width: 100%; height: 100%; transform: translate3d(0,0,0);" preserveAspectRatio="xMidYMid meet"><defs><clipPath id="__lottie_element_51495"><rect width="512" height="512" x="0" y="0"></rect></clipPath></defs><g clip-path="url(#__lottie_element_51495)"><g style="display: block;" transform="matrix(1,0,0,1,246.52699279785156,253.2220001220703)" opacity="1"><g opacity="1" transform="matrix(1,0,0,1,0,0)"><path fill="rgb(0,0,0)" fill-opacity="1" d=" M-222.25,182.09100341796875 C-222.25,182.09100341796875 -172.0679931640625,53.93299865722656 -172.0679931640625,53.93299865722656 C-172.0679931640625,53.93299865722656 -144.41200256347656,65.78600311279297 -119.48699951171875,84.9990005493164 C-111.31600189208984,91.2979965209961 -100.50700378417969,81.3740005493164 -106.19000244140625,72.76300048828125 C-115.10700225830078,59.250999450683594 -130.91400146484375,43.141998291015625 -158.79600524902344,26.72599983215332 C-158.79600524902344,26.72599983215332 -100.90599822998047,-88.58000183105469 -100.90599822998047,-88.58000183105469 C-85.29000091552734,-119.68399810791016 -50.72999954223633,-136.45799255371094 -16.64699935913086,-129.40899658203125 C2.0820000171661377,-125.53600311279297 22.937999725341797,-120.64900207519531 42.93600082397461,-107.98400115966797 C42.93600082397461,-107.98400115966797 6.992000102996826,-215.83999633789062 57.53499984741211,-220.7949981689453 C91.37799835205078,-224.11300659179688 96.68699645996094,-167.04400634765625 96.68699645996094,-167.04400634765625 C96.68699645996094,-167.04400634765625 150.1540069580078,-271.6629943847656 209.4980010986328,-228.093994140625 C261.9219970703125,-189.6060028076172 167.69200134277344,-105.99299621582031 167.69200134277344,-105.99299621582031 C167.69200134277344,-105.99299621582031 227.4149932861328,-98.02899932861328 221.4429931640625,-56.222999572753906 C215.4709930419922,-14.416999816894531 135.17599487304688,-36.979000091552734 135.17599487304688,-36.979000091552734 C135.17599487304688,-36.979000091552734 192.552001953125,56.09600067138672 119.8479995727539,113.52899932861328 C117.76100158691406,115.177001953125 114.6709976196289,114.16899871826172 113.99600219726562,111.59700012207031 C109.62699890136719,94.94200134277344 92.85900115966797,43.4900016784668 46.41699981689453,12.744999885559082 C38.816001892089844,7.7129998207092285 30.006999969482422,17.136999130249023 35.60499954223633,24.33099937438965 C57.066001892089844,51.91299819946289 85.60199737548828,95.19200134277344 88.06099700927734,132.9010009765625 C88.58599853515625,140.95700073242188 -81.15599822998047,213.85899353027344 -166.70199584960938,236.85499572753906 C-202.7259979248047,246.53900146484375 -235.8509979248047,216.8260040283203 -222.25,182.09100341796875z"></path></g></g></g></svg>