<svg xmlns="http://www.w3.org/2000/svg" xmlns:xlink="http://www.w3.org/1999/xlink" viewBox="0 0 512 512" width="512" height="512" style="width: 100%; height: 100%; transform: translate3d(0,0,0);" preserveAspectRatio="xMidYMid meet"><defs><clipPath id="__lottie_element_52175"><rect width="512" height="512" x="0" y="0"></rect></clipPath></defs><g clip-path="url(#__lottie_element_52175)"><g style="display: block;" transform="matrix(1,0,0,1,256,255.99998474121094)" opacity="1"><g opacity="1" transform="matrix(1,0,0,1,0,0)"><path fill="rgb(0,0,0)" fill-opacity="1" d=" M80.47100067138672,-233.7030029296875 C76.76499938964844,-239.38499450683594 68.11000061035156,-238.15699768066406 66.12300109863281,-231.67100524902344 C-2.1610000133514404,-8.788000106811523 -112.43499755859375,-215.5800018310547 -236.52000427246094,-16.58300018310547 C-238.79800415039062,-12.930000305175781 -239.52999877929688,-8.491999626159668 -238.46499633789062,-4.321000099182129 C-218.8520050048828,72.51499938964844 -141.41600036621094,146.62399291992188 -78.98600006103516,236.50999450683594 C-75.47599792480469,241.56300354003906 -67.83499908447266,240.96800231933594 -65.18199920654297,235.41700744628906 C15.812999725341797,65.96099853515625 175.8000030517578,229.35299682617188 237.95199584960938,18.125999450683594 C239.27999877929688,13.612000465393066 238.59300231933594,8.743000030517578 236.0229949951172,4.802000045776367 C184.1719970703125,-74.69999694824219 132.32200622558594,-154.2010040283203 80.47100067138672,-233.7030029296875z M70.61599731445312,81.08499908447266 C85.74500274658203,104.1719970703125 56.74800109863281,118.34200286865234 45.8380012512207,101.66100311279297 C42.40700149536133,96.41400146484375 38.9010009765625,91.08100128173828 35.236000061035156,85.53199768066406 C-1.187000036239624,89.54199981689453 -21.910999298095703,94.38800048828125 -21.910999298095703,94.38800048828125 C-40.608001708984375,94.38800048828125 -43.99700164794922,67.4540023803711 -25.809999465942383,62.86899948120117 C38.29999923706055,46.70800018310547 99.26100158691406,57.36199951171875 82.4729995727539,32.68899917602539 C72.96900177001953,18.722000122070312 65.75399780273438,20.916000366210938 -33.18299865722656,32.553001403808594 C-56.39699935913086,36.025001525878906 -87.59100341796875,28.583999633789062 -101.53800201416016,3.9769999980926514 C-113.53600311279297,-17.191999435424805 -111.91400146484375,-52.82400131225586 -53.81800079345703,-56.72600173950195 C-62.68199920654297,-73.99400329589844 -41.76900100708008,-100.94300079345703 -18.83099937438965,-59.0629997253418 C-5.068999767303467,-60.263999938964844 8.253000259399414,-62.130001068115234 21.259000778198242,-65.96199798583984 C41.53499984741211,-71.93699645996094 50.61000061035156,-41.249000549316406 30.302000045776367,-35.266998291015625 C-28.274999618530273,-18.007999420166016 -86.2490005493164,-33.941001892089844 -73.697998046875,-11.803000450134277 C-63.01900100708008,7.040999889373779 -33.7140007019043,0.14499999582767487 -6.664999961853027,-2.068000078201294 C42.316001892089844,-6.077000141143799 83.88899993896484,-22.117000579833984 108.93000030517578,14.689000129699707 C122.572998046875,34.742000579833984 125.34500122070312,72.47100067138672 70.61599731445312,81.08499908447266z"></path></g></g></g></svg>