<svg xmlns="http://www.w3.org/2000/svg" xmlns:xlink="http://www.w3.org/1999/xlink" viewBox="0 0 512 512" width="512" height="512" style="width: 100%; height: 100%; transform: translate3d(0,0,0);" preserveAspectRatio="xMidYMid meet"><defs><clipPath id="__lottie_element_27204"><rect width="512" height="512" x="0" y="0"></rect></clipPath></defs><g clip-path="url(#__lottie_element_27204)"><g style="display: block;" transform="matrix(1,0,0,1,0,0)" opacity="1"><g opacity="1" transform="matrix(1,0,0,1,241.82899475097656,245.9969940185547)"><path fill="rgb(65,63,63)" fill-opacity="1" d=" M12.404999732971191,-12.62399959564209 C12.404999732971191,-12.62399959564209 -16.049999237060547,-7.665999889373779 -16.049999237060547,-7.665999889373779 C-16.049999237060547,-7.665999889373779 -8.432000160217285,11.47599983215332 -8.432000160217285,11.47599983215332 C-6.130000114440918,12.62399959564209 10.130999565124512,-0.5690000057220459 12.111000061035156,-3.61899995803833 C12.913000106811523,-4.853000164031982 16.049999237060547,-11.88700008392334 12.404999732971191,-12.62399959564209z"></path></g><g opacity="1" transform="matrix(1,0,0,1,256,257.1709899902344)"><path fill="rgb(65,63,63)" fill-opacity="1" d=" M244.15199279785156,-58.569000244140625 C205.67599487304688,-156.2530059814453 159.67599487304688,-221.92799377441406 43.209999084472656,-215.98199462890625 C35.78499984741211,-215.60299682617188 0.17900000512599945,-208.31100463867188 -1.965000033378601,-209.1020050048828 C-6.035999774932861,-210.60400390625 -5.676000118255615,-222.94900512695312 -14.178000450134277,-227.406005859375 C-24.218000411987305,-232.66799926757812 -57.44300079345703,-221.50999450683594 -63.24700164794922,-211.7740020751953 C-68.19000244140625,-203.48199462890625 -61.69599914550781,-194.8509979248047 -62.11899948120117,-192.86099243164062 C-62.98400115966797,-188.7969970703125 -105.81999969482422,-173.156005859375 -114.3030014038086,-168.84300231933594 C-150.38800048828125,-150.4949951171875 -179.4219970703125,-123.84200286865234 -195.6009979248047,-86.36900329589844 C-220.6929931640625,-28.25 -196.60299682617188,46.75299835205078 -179.2790069580078,104.51499938964844 C-201.91200256347656,123.9489974975586 -274.9570007324219,188.08999633789062 -251.3939971923828,221.1739959716797 C-248.62899780273438,225.05599975585938 -236.36000061035156,232.66799926757812 -231.18899536132812,232.4969940185547 C-213.8560028076172,231.9219970703125 -209.3159942626953,222.98599243164062 -197.14199829101562,218.9340057373047 C-178.593994140625,212.76199340820312 -160.19000244140625,205.71299743652344 -140.8939971923828,202.18299865722656 C-122.76899719238281,198.8679962158203 -102.83899688720703,198.8040008544922 -84.4540023803711,199.5189971923828 C-47.45199966430664,200.95799255371094 -10.968999862670898,209.9929962158203 25.886999130249023,201.50799560546875 C80.86799621582031,188.85000610351562 104.05000305175781,151.0189971923828 132.7949981689453,106.802001953125 C139.37399291992188,96.68199920654297 144.66099548339844,76.00900268554688 154.66200256347656,67.59100341796875 C178.18800354003906,47.790000915527344 240.13900756835938,32.67499923706055 253.2259979248047,2.947000026702881 C260.9540100097656,-14.616000175476074 250.656005859375,-42.055999755859375 244.15199279785156,-58.569000244140625z M5.796999931335449,20.243000030517578 C0.03700000047683716,25.187000274658203 -8.802000045776367,27.215999603271484 -11.95199966430664,30.257999420166016 C-17.406999588012695,35.527000427246094 -7.818999767303467,50.900001525878906 -25.261999130249023,54.48500061035156 C-37.900001525878906,57.08300018310547 -35.284000396728516,44.59000015258789 -40.29100036621094,42.51499938964844 C-41.74100112915039,41.91299819946289 -65.05000305175781,43.446998596191406 -71.68900299072266,42.361000061035156 C-86.06400299072266,40.0099983215332 -130.11199951171875,18.735000610351562 -118.1719970703125,1.0080000162124634 C-103.81300354003906,-20.31399917602539 -66.11000061035156,18.87700080871582 -45.70600128173828,9.006999969482422 C-45.70600128173828,9.006999969482422 -53.159000396728516,-16.312999725341797 -53.159000396728516,-16.312999725341797 C-80.37100219726562,-15.281999588012695 -131.59100341796875,-9.194999694824219 -125.41100311279297,-51.0629997253418 C-121.78700256347656,-75.61100006103516 -82.01899719238281,-88.9520034790039 -81.1780014038086,-91.927001953125 C-79.34400177001953,-98.41300201416016 -92.40899658203125,-120.5719985961914 -74.84100341796875,-127.48600006103516 C-53.43600082397461,-135.91000366210938 -58.98899841308594,-107.91999816894531 -52.69300079345703,-105.04499816894531 C-46.56399917602539,-102.24700164794922 -21.469999313354492,-112.16799926757812 -13.128000259399414,-106.19100189208984 C-4.310999870300293,-99.875 0.9190000295639038,-55.59199905395508 -18.957000732421875,-64.43099975585938 C-26.56999969482422,-67.81700134277344 -20.898000717163086,-80.72599792480469 -35.61899948120117,-79.14900207519531 C-53.073001861572266,-77.27799987792969 -42.27199935913086,-72.677001953125 -45.0629997253418,-62.71799850463867 C-51.525001525878906,-39.66299819946289 -69.98300170898438,-62.62900161743164 -71.68800354003906,-62.52899932861328 C-75.00299835205078,-62.33599853515625 -95.53600311279297,-52.84700012207031 -95.7490005493164,-47.0260009765625 C-64.65299987792969,-40.30500030517578 -15.78499984741211,-60.70899963378906 12.35200023651123,-53.54899978637695 C20.959999084472656,-51.358001708984375 28.608999252319336,-39.1349983215332 30.44700050354004,-30.77199935913086 C34.40599822998047,-12.756999969482422 18.54199981689453,9.303000450134277 5.796999931335449,20.243000030517578z M99.17400360107422,-107.68000030517578 C94.86799621582031,-113.64700317382812 67.8949966430664,-141.4499969482422 62.20800018310547,-145.58200073242188 C47.902000427246094,-155.9759979248047 19.160999298095703,-164.8470001220703 3.552999973297119,-175.64300537109375 C39.26300048828125,-172.9969940185547 82.46199798583984,-167.06199645996094 105.31999969482422,-136.75799560546875 C132.6540069580078,-100.51799774169922 137.3090057373047,-36.82899856567383 145.67599487304688,7.192999839782715 C129.61500549316406,-30.18600082397461 123.73500061035156,-73.6449966430664 99.17400360107422,-107.68000030517578z"></path></g></g></g></svg>