<svg xmlns="http://www.w3.org/2000/svg" xmlns:xlink="http://www.w3.org/1999/xlink" viewBox="0 0 512 512" width="512" height="512" style="width: 100%; height: 100%; transform: translate3d(0,0,0);" preserveAspectRatio="xMidYMid meet"><defs><clipPath id="__lottie_element_53974"><rect width="512" height="512" x="0" y="0"></rect></clipPath></defs><g clip-path="url(#__lottie_element_53974)"><g style="display: block;" transform="matrix(1,0,0,1,251.56100463867188,255.48199462890625)" opacity="1"><g opacity="1" transform="matrix(1,0,0,1,0,0)"><path fill="rgb(0,0,0)" fill-opacity="1" d=" M-108.37,-110.91 C-99.72,-111.64 -98.33,-107.04 -96.95,-102.33 C-92.53,-87.21 -88.1,-72.09 -83.6,-56.99 C-81.05,-49.84 -77.03,-36.16 -67.16,-38.85 C-63.74,-40.23 -63.18,-43.45 -62.93,-46.68 C-63.43,-67.59 -73.14,-87.11 -77.31,-107.44 C-79.22,-114.96 -77.98,-116.61 -70.55,-118.09 C-63.6,-119.47 -56.52,-120.18 -49.57,-121.56 C-29.2,-125.07 -32.57,-139.52 -51.85,-138.96 C-59.8,-139.06 -67.46,-136.93 -75.28,-136.13 C-84.39,-135.19 -85.08,-135.57 -87.76,-144.54 C-92.42,-156.9 -92.85,-171.45 -100.46,-182.41 C-105.03,-187.19 -111.32,-185.83 -113.48,-179.62 C-115.31,-168.43 -109.95,-157.07 -108.38,-145.99 C-104.75,-130.09 -104.71,-130.18 -120.5,-126.6 C-127.02,-125.12 -133.52,-123.45 -139.89,-121.42 C-144.22,-120.05 -148,-117.41 -146.87,-112.02 C-144.26,-100.28 -115.9,-110.69 -108.37,-110.91z M67.91,148.65 C67.91,172.4 68.09,192.11 67.86,211.81 C67.68,226.67 64.73,230.21 50.26,234.13 C9.93,240.77 -31.07,243.99 -71.84,247.46 C-91.75,248.3 -98.84,244.6 -106.14,225.86 C-117.73,196.13 -129.32,166.38 -139.97,136.3 C-164.78,65.26 -196.72,-3.23 -217.2,-75.75 C-220.55,-87.54 -220.37,-98.91 -216.49,-110.56 C-207.54,-137.48 -198.99,-164.53 -188.84,-191.03 C-177.63,-219.71 -175.78,-223.5 -145.67,-231.98 C-118.02,-237.79 -71.82,-260.24 -48.64,-237.79 C-23.12,-213.74 2.13,-189.42 27,-164.7 C59.41,-141.65 69.1,100.82 67.91,148.65z"></path><g opacity="1" transform="matrix(1,0,0,1,-91.41899871826172,-111.89399719238281)"></g><g opacity="1" transform="matrix(1,0,0,1,-75.77899932861328,0)"></g></g><g opacity="1" transform="matrix(1,0,0,1,128.06199645996094,-36.79399871826172)"><path fill="rgb(0,0,0)" fill-opacity="1" d=" M91.4540023803711,-86.15899658203125 C91.99299621582031,-75.57099914550781 88.00299835205078,-66.03600311279297 84.39800262451172,-56.4630012512207 C73.4229965209961,-27.31800079345703 61.027000427246094,1.2450000047683716 48.948001861572266,29.941999435424805 C26.74799919128418,81.73600006103516 6.548999786376953,134.39999389648438 -16.358999252319336,185.8820037841797 C-18.07200050354004,189.53500366210938 -20.590999603271484,192.531005859375 -24.542999267578125,193.9929962158203 C-34.39099884033203,198.04800415039062 -36.89799880981445,186.91099548339844 -36.94300079345703,179.43699645996094 C-38.762001037597656,149.5570068359375 -40.183998107910156,119.64800262451172 -42.34000015258789,89.79299926757812 C-46.654998779296875,26.92799949645996 -53.38800048828125,-35.77299880981445 -58.1870002746582,-98.58300018310547 C-59.13800048828125,-113.77799987792969 -64.24800109863281,-125.99600219726562 -76.22699737548828,-135.36700439453125 C-86.81700134277344,-146.50100708007812 -99.5790023803711,-148.73300170898438 -84.8030014038086,-163.67100524902344 C-72.83699798583984,-175.2310028076172 -63.51100158691406,-198.73699951171875 -43.81399917602539,-194.30799865722656 C-12.78499984741211,-188.4720001220703 17.600000381469727,-180.08900451660156 48.00600051879883,-171.75 C61.55500030517578,-168.03399658203125 70.31600189208984,-160.18899536132812 74.8280029296875,-146.28900146484375 C80.45999908447266,-126.40799713134766 90.52100372314453,-107.0250015258789 91.4540023803711,-86.15899658203125z"></path></g></g></g></svg>