<svg xmlns="http://www.w3.org/2000/svg" xmlns:xlink="http://www.w3.org/1999/xlink" viewBox="0 0 512 512" width="512" height="512" style="width: 100%; height: 100%; transform: translate3d(0,0,0);" preserveAspectRatio="xMidYMid meet"><defs><clipPath id="__lottie_element_52263"><rect width="512" height="512" x="0" y="0"></rect></clipPath></defs><g clip-path="url(#__lottie_element_52263)"><g style="display: block;" transform="matrix(1,0,0,1,0,0)" opacity="1"><g opacity="1" transform="matrix(1,0,0,1,254.35499572753906,251.7949981689453)"><path fill="rgb(0,0,0)" fill-opacity="1" d=" M235.38499450683594,89.20500183105469 C229.64500427246094,21.204999923706055 182.0240020751953,-18.014999389648438 183.64500427246094,-23.795000076293945 C199.64500427246094,-80.79499816894531 173.13499450683594,-187.81500244140625 164.64500427246094,-186.7949981689453 C89.6449966430664,-177.7949981689453 37.1349983215332,-136.01499938964844 42.64500045776367,-134.7949981689453 C87.6449966430664,-124.79499816894531 102.09500122070312,-81.96499633789062 95.6449966430664,-85.79499816894531 C31.645000457763672,-123.79499816894531 -1.194000005722046,-102.59500122070312 -6.354000091552734,-111.79499816894531 C-43.354000091552734,-177.7949981689453 -120.38600158691406,-212.34500122070312 -133.35499572753906,-195.7949981689453 C-209.35499572753906,-98.79499816894531 -177.81500244140625,-29.315000534057617 -183.35499572753906,-23.795000076293945 C-207.18600463867188,-0.06499999761581421 -236.44500732421875,57.20500183105469 -234.35499572753906,84.20500183105469 C-233.4759979248047,95.625 -220.11500549316406,94.125 -217.35499572753906,100.20500183105469 C-198.60499572753906,141.56500244140625 -124.45500183105469,212.05499267578125 -4.354000091552734,212.2050018310547 C108.64600372314453,212.34500122070312 192.64500427246094,158.2050018310547 219.64500427246094,108.20500183105469 C224.05499267578125,100.03500366210938 236.44400024414062,101.73500061035156 235.38499450683594,89.20500183105469z M-30.354000091552734,107.20500183105469 C-34.354000091552734,120.23500061035156 -108.42500305175781,123.24500274658203 -135.35499572753906,82.20500183105469 C-156.35499572753906,50.20500183105469 -151.24600219726562,4.945000171661377 -140.7550048828125,0.7049999833106995 C-102.3550033569336,-14.795000076293945 -81.35399627685547,-7.545000076293945 -56.354000091552734,15.204999923706055 C-28.415000915527344,40.6349983215332 -24.594999313354492,88.43499755859375 -30.354000091552734,107.20500183105469z M142.12600708007812,82.20500183105469 C115.19499969482422,123.24500274658203 41.125999450683594,120.23500061035156 37.125999450683594,107.20500183105469 C31.364999771118164,88.43499755859375 35.18600082397461,40.6349983215332 63.125999450683594,15.204999923706055 C88.1259994506836,-7.545000076293945 109.125,-14.795000076293945 147.5240020751953,0.7049999833106995 C158.0240020751953,4.945000171661377 163.12600708007812,50.20500183105469 142.12600708007812,82.20500183105469z"></path></g></g></g></svg>