<svg xmlns="http://www.w3.org/2000/svg" xmlns:xlink="http://www.w3.org/1999/xlink" viewBox="0 0 512 512" width="512" height="512" style="width: 100%; height: 100%; transform: translate3d(0,0,0);" preserveAspectRatio="xMidYMid meet"><defs><clipPath id="__lottie_element_53599"><rect width="512" height="512" x="0" y="0"></rect></clipPath></defs><g clip-path="url(#__lottie_element_53599)"><g style="display: block;" transform="matrix(1,0,0,1,-3.352996826171875,11.988998413085938)" opacity="1"><g opacity="1" transform="matrix(1,0,0,1,138.83200073242188,80.97200012207031)"><path fill="rgb(0,0,0)" fill-opacity="1" d=" M-6.239999771118164,41.159000396728516 C-5.480999946594238,42.52299880981445 -4.044000148773193,43.36800003051758 -2.4830000400543213,43.36800003051758 C-2.4830000400543213,43.36800003051758 34.597999572753906,43.36800003051758 34.597999572753906,43.36800003051758 C37.87699890136719,43.36800003051758 39.94900131225586,39.845001220703125 38.35499954223633,36.979000091552734 C38.35499954223633,36.979000091552734 -0.48100000619888306,-32.832000732421875 -0.48100000619888306,-32.832000732421875 C-5.980999946594238,-42.72200012207031 -18.47100067138672,-46.28200149536133 -28.361000061035156,-40.78200149536133 C-38.26100158691406,-35.27199935913086 -41.82099914550781,-22.79199981689453 -36.31100082397461,-12.902000427246094 C-36.31100082397461,-12.902000427246094 -6.239999771118164,41.159000396728516 -6.239999771118164,41.159000396728516z"></path></g><g opacity="1" transform="matrix(1,0,0,1,304.4960021972656,92.86499786376953)"><path fill="rgb(0,0,0)" fill-opacity="1" d=" M-98.04000091552734,31.472000122070312 C-93.81300354003906,31.472999572753906 -88.81500244140625,31.475000381469727 -88.81500244140625,31.475000381469727 C-88.81500244140625,31.475000381469727 -73.81500244140625,31.475000381469727 -73.81500244140625,31.475000381469727 C-73.81500244140625,31.475000381469727 10.854999542236328,31.475000381469727 10.854999542236328,31.475000381469727 C10.854999542236328,31.475000381469727 15.545000076293945,31.475000381469727 15.545000076293945,31.475000381469727 C15.545000076293945,31.475000381469727 25.854999542236328,31.475000381469727 25.854999542236328,31.475000381469727 C25.854999542236328,31.475000381469727 31.53499984741211,31.475000381469727 31.53499984741211,31.475000381469727 C31.53499984741211,31.475000381469727 40.85499954223633,31.475000381469727 40.85499954223633,31.475000381469727 C40.85499954223633,31.475000381469727 51.814998626708984,31.475000381469727 51.814998626708984,31.475000381469727 C51.814998626708984,31.475000381469727 69.9749984741211,31.475000381469727 69.9749984741211,31.475000381469727 C69.9749984741211,31.475000381469727 90.26499938964844,31.475000381469727 90.26499938964844,31.475000381469727 C90.26499938964844,31.475000381469727 98.02100372314453,31.475000381469727 98.02100372314453,31.475000381469727 C102.21600341796875,31.475000381469727 104.90499877929688,26.98699951171875 102.90599822998047,23.298999786376953 C95.21800231933594,9.116000175476074 79.27899932861328,-0.6449999809265137 60.89500045776367,-0.6449999809265137 C51.375,-0.6449999809265137 42.51499938964844,1.975000023841858 35.1150016784668,6.465000152587891 C24.094999313354492,-15.8149995803833 -1.6050000190734863,-31.475000381469727 -31.475000381469727,-31.475000381469727 C-69.23600006103516,-31.475000381469727 -100.33799743652344,-6.447000026702881 -103.5510025024414,25.34600067138672 C-103.88200378417969,28.6200008392334 -101.33000183105469,31.47100067138672 -98.04000091552734,31.472000122070312z"></path></g><g opacity="1" transform="matrix(1,0,0,1,259.3529968261719,308.98699951171875)"><path fill="rgb(0,0,0)" fill-opacity="1" d=" M211.66000366210938,16.993000030517578 C208.43800354003906,-36.448001861572266 188.35699462890625,-77.98400115966797 153.11700439453125,-106.2979965209961 C153.11700439453125,-106.2979965209961 161.91299438476562,-106.2979965209961 161.91299438476562,-106.2979965209961 C176.60499572753906,-106.2979965209961 189.03900146484375,-117.79499816894531 189.47500610351562,-132.47999572753906 C189.92799377441406,-147.73899841308594 177.64599609375,-160.29800415039062 162.48699951171875,-160.29800415039062 C162.48699951171875,-160.29800415039062 -152.78599548339844,-160.29800415039062 -152.78599548339844,-160.29800415039062 C-167.47799682617188,-160.29800415039062 -179.91200256347656,-148.80099487304688 -180.34800720214844,-134.11599731445312 C-180.80099487304688,-118.85700225830078 -168.5189971923828,-106.2979965209961 -153.36000061035156,-106.2979965209961 C-153.36000061035156,-106.2979965209961 -153.1179962158203,-106.2979965209961 -153.1179962158203,-106.2979965209961 C-188.35800170898438,-77.98400115966797 -208.43899536132812,-36.448001861572266 -211.66000366210938,16.993000030517578 C-214.58200073242188,65.46499633789062 -199.9530029296875,108.31400299072266 -169.3520050048828,140.906005859375 C-163.09100341796875,147.5749969482422 -156.18600463867188,153.77499389648438 -148.71600341796875,159.48399353027344 C-145.9340057373047,161.61099243164062 -141.94700622558594,159.2830047607422 -142.50999450683594,155.82699584960938 C-142.7270050048828,154.49600219726562 -142.92300415039062,153.13499450683594 -143.0959930419922,151.74600219726562 C-145.57699584960938,131.79800415039062 -143.52499389648438,101.93000030517578 -119.66400146484375,72.927001953125 C-117.06900024414062,69.77400207519531 -112.81600189208984,68.51499938964844 -108.92400360107422,69.74600219726562 C-105.02999877929688,70.97799682617188 -102.27799987792969,74.45600128173828 -101.97000122070312,78.5270004272461 C-101.92500305175781,79.10199737548828 -96.58300018310547,137.0570068359375 -66.70500183105469,137.0570068359375 C-58.50400161743164,137.0570068359375 -51.494998931884766,129.8179931640625 -47.05799865722656,123.74500274658203 C-36.97800064086914,109.9489974975586 -29.218000411987305,87.68299865722656 -25.76799964904785,62.65599822998047 C-22.145000457763672,36.37300109863281 -23.687000274658203,10.781000137329102 -30.107999801635742,-9.42300033569336 C-31.041000366210938,-12.357999801635742 -30.659000396728516,-15.607999801635742 -28.923999786376953,-18.152999877929688 C-26.107999801635742,-22.283000946044922 -20.892000198364258,-23.642000198364258 -16.552000045776367,-21.711999893188477 C-15.590999603271484,-21.284000396728516 7.241000175476074,-10.949000358581543 30.072999954223633,14.788000106811523 C48.39799880981445,35.444000244140625 69.88400268554688,69.96800231933594 75.20800018310547,121.55999755859375 C75.62899780273438,125.63999938964844 80.20099639892578,127.8010025024414 83.6500015258789,125.58100128173828 C95.4219970703125,118.00199890136719 109.94000244140625,104.61000061035156 119.52100372314453,81.66899871826172 C120.97000122070312,78.1969985961914 124.24500274658203,75.83399963378906 127.99600219726562,75.5510025024414 C131.7519989013672,75.27899932861328 135.33999633789062,77.11399841308594 137.29299926757812,80.3280029296875 C138.08700561523438,81.63500213623047 152.85400390625,106.71399688720703 147.39999389648438,152.052001953125 C146.98300170898438,155.51600646972656 151.00399780273438,157.7530059814453 153.697998046875,155.53599548339844 C159.27699279785156,150.9459991455078 164.5070037841797,146.06700134277344 169.3520050048828,140.906005859375 C199.9530029296875,108.31400299072266 214.58200073242188,65.46499633789062 211.66000366210938,16.993000030517578z"></path></g><g opacity="1" transform="matrix(1,0,0,1,355.50201416015625,43.42100143432617)"><path fill="rgb(0,0,0)" fill-opacity="1" d=" M0,24.684999465942383 C13.611000061035156,24.684999465942383 24.684999465942383,13.611000061035156 24.684999465942383,0 C24.684999465942383,-13.611000061035156 13.611000061035156,-24.684999465942383 0,-24.684999465942383 C-13.611000061035156,-24.684999465942383 -24.684999465942383,-13.611000061035156 -24.684999465942383,0 C-24.684999465942383,13.611000061035156 -13.611000061035156,24.684999465942383 0,24.684999465942383z"></path></g></g></g></svg>