<svg xmlns="http://www.w3.org/2000/svg" xmlns:xlink="http://www.w3.org/1999/xlink" viewBox="0 0 512 512" width="512" height="512" style="width: 100%; height: 100%; transform: translate3d(0,0,0);" preserveAspectRatio="xMidYMid meet"><defs><clipPath id="__lottie_element_51695"><rect width="512" height="512" x="0" y="0"></rect></clipPath></defs><g clip-path="url(#__lottie_element_51695)"><g style="display: block;" transform="matrix(1,0,0,1,8.656005859375,20.319992065429688)" opacity="1"><g opacity="1" transform="matrix(1,0,0,1,402.114990234375,328.6080017089844)"><path fill="rgb(65,63,63)" fill-opacity="1" d=" M-38.209999084472656,-61.106998443603516 C-29.30500030517578,-53.917999267578125 -21.25200080871582,-45.6150016784668 -15.62600040435791,-35.986000061035156 C-3.5360000133514404,-36.11199951171875 9.21500015258789,-45.01300048828125 26.990999221801758,-46.7140007019043 C32.95000076293945,-47.284000396728516 43.832000732421875,-49.54899978637695 41.17300033569336,-40.8650016784668 C28.992000579833984,-1.0829999446868896 -22.457000732421875,36.12300109863281 -64.93099975585938,15.883999824523926 C-65.95700073242188,16.867000579833984 -66.98200225830078,17.849000930786133 -67.9489974975586,18.893999099731445 C-68.45899963378906,19.44499969482422 -69.01799774169922,20.381000518798828 -69.63400268554688,20.892000198364258 C-70.86000061035156,22.58300018310547 -72.0250015258789,24.31399917602539 -73.14700317382812,26.070999145507812 C-75.66899871826172,30.02199935913086 -78.06500244140625,34.07099914550781 -80.20500183105469,38.22999954223633 C-80.47000122070312,38.74599838256836 -80.88800048828125,39.37099838256836 -81.2490005493164,40.0099983215332 C-81.30400085449219,40.20600128173828 -81.40399932861328,40.513999938964844 -81.5770034790039,40.98099899291992 C-81.73500061035156,41.40999984741211 -81.88700103759766,41.8380012512207 -82.04000091552734,42.266998291015625 C3.822999954223633,85.9990005493164 76.40499877929688,3.5739998817443848 82.04000091552734,-78.33200073242188 C40.314998626708984,-85.9990005493164 0.20399999618530273,-77.02999877929688 -38.209999084472656,-61.106998443603516z"></path><path stroke-linecap="butt" stroke-linejoin="miter" fill-opacity="0" stroke-miterlimit="10" stroke="rgb(65,63,63)" stroke-opacity="1" stroke-width="2" d=" M-38.209999084472656,-61.106998443603516 C-29.30500030517578,-53.917999267578125 -21.25200080871582,-45.6150016784668 -15.62600040435791,-35.986000061035156 C-3.5360000133514404,-36.11199951171875 9.21500015258789,-45.01300048828125 26.990999221801758,-46.7140007019043 C32.95000076293945,-47.284000396728516 43.832000732421875,-49.54899978637695 41.17300033569336,-40.8650016784668 C28.992000579833984,-1.0829999446868896 -22.457000732421875,36.12300109863281 -64.93099975585938,15.883999824523926 C-65.95700073242188,16.867000579833984 -66.98200225830078,17.849000930786133 -67.9489974975586,18.893999099731445 C-68.45899963378906,19.44499969482422 -69.01799774169922,20.381000518798828 -69.63400268554688,20.892000198364258 C-70.86000061035156,22.58300018310547 -72.0250015258789,24.31399917602539 -73.14700317382812,26.070999145507812 C-75.66899871826172,30.02199935913086 -78.06500244140625,34.07099914550781 -80.20500183105469,38.22999954223633 C-80.47000122070312,38.74599838256836 -80.88800048828125,39.37099838256836 -81.2490005493164,40.0099983215332 C-81.30400085449219,40.20600128173828 -81.40399932861328,40.513999938964844 -81.5770034790039,40.98099899291992 C-81.73500061035156,41.40999984741211 -81.88700103759766,41.8380012512207 -82.04000091552734,42.266998291015625 C3.822999954223633,85.9990005493164 76.40499877929688,3.5739998817443848 82.04000091552734,-78.33200073242188 C40.314998626708984,-85.9990005493164 0.20399999618530273,-77.02999877929688 -38.209999084472656,-61.106998443603516z"></path></g><g opacity="1" transform="matrix(1,0,0,1,335.1809997558594,87.5770034790039)"><path fill="rgb(65,63,63)" fill-opacity="1" d=" M21.150999069213867,63.16899871826172 C22.14299964904785,64.15399932861328 23.136999130249023,65.13500213623047 24.214000701904297,66.05400085449219 C25.760000228881836,67.37300109863281 27.371000289916992,68.61599731445312 28.95199966430664,69.8949966430664 C29.018999099731445,69.9489974975586 29.073999404907227,69.99400329589844 29.134000778198242,70.04299926757812 C29.86199951171875,70.54900360107422 30.582000732421875,71.06500244140625 31.319000244140625,71.55999755859375 C33.303001403808594,72.89299774169922 35.34199905395508,74.15699768066406 37.44300079345703,75.31099700927734 C38.49399948120117,75.88800048828125 39.558998107910156,76.43800354003906 40.63999938964844,76.95899963378906 C41.08000183105469,77.1719970703125 41.41999816894531,77.33799743652344 41.68299865722656,77.46800231933594 C43.17399978637695,77.9209976196289 45.24100112915039,78.46099853515625 46.250999450683594,78.71499633789062 C46.49599838256836,78.73100280761719 46.72100067138672,78.75800323486328 46.90700149536133,78.79199981689453 C46.92499923706055,78.79399871826172 46.94300079345703,78.7959976196289 46.96200180053711,78.7969970703125 C47.487998962402344,78.8290023803711 48.69300079345703,78.97599792480469 49.27299880981445,79.02200317382812 C88.61199951171875,-2.990000009536743 9.717000007629395,-79.02200317382812 -74.69000244140625,-78.20099639892578 C-88.61199951171875,-63.540000915527344 -70.31199645996094,25.08300018310547 -56.1510009765625,38.2869987487793 C-49.36000061035156,29.268999099731445 -41.334999084472656,20.969999313354492 -31.825000762939453,15.145000457763672 C-31.825000762939453,15.145000457763672 -46.667999267578125,-39.12099838256836 -46.667999267578125,-39.12099838256836 C3.4809999465942383,-33.81700134277344 41.770999908447266,15.935999870300293 21.150999069213867,63.16899871826172z"></path><path stroke-linecap="butt" stroke-linejoin="miter" fill-opacity="0" stroke-miterlimit="10" stroke="rgb(65,63,63)" stroke-opacity="1" stroke-width="2" d=" M21.150999069213867,63.16899871826172 C22.14299964904785,64.15399932861328 23.136999130249023,65.13500213623047 24.214000701904297,66.05400085449219 C25.760000228881836,67.37300109863281 27.371000289916992,68.61599731445312 28.95199966430664,69.8949966430664 C29.018999099731445,69.9489974975586 29.073999404907227,69.99400329589844 29.134000778198242,70.04299926757812 C29.86199951171875,70.54900360107422 30.582000732421875,71.06500244140625 31.319000244140625,71.55999755859375 C33.303001403808594,72.89299774169922 35.34199905395508,74.15699768066406 37.44300079345703,75.31099700927734 C38.49399948120117,75.88800048828125 39.558998107910156,76.43800354003906 40.63999938964844,76.95899963378906 C41.08000183105469,77.1719970703125 41.41999816894531,77.33799743652344 41.68299865722656,77.46800231933594 C43.17399978637695,77.9209976196289 45.24100112915039,78.46099853515625 46.250999450683594,78.71499633789062 C46.49599838256836,78.73100280761719 46.72100067138672,78.75800323486328 46.90700149536133,78.79199981689453 C46.92499923706055,78.79399871826172 46.94300079345703,78.7959976196289 46.96200180053711,78.7969970703125 C47.487998962402344,78.8290023803711 48.69300079345703,78.97599792480469 49.27299880981445,79.02200317382812 C88.61199951171875,-2.990000009536743 9.717000007629395,-79.02200317382812 -74.69000244140625,-78.20099639892578 C-88.61199951171875,-63.540000915527344 -70.31199645996094,25.08300018310547 -56.1510009765625,38.2869987487793 C-49.36000061035156,29.268999099731445 -41.334999084472656,20.969999313354492 -31.825000762939453,15.145000457763672 C-31.825000762939453,15.145000457763672 -46.667999267578125,-39.12099838256836 -46.667999267578125,-39.12099838256836 C3.4809999465942383,-33.81700134277344 41.770999908447266,15.935999870300293 21.150999069213867,63.16899871826172z"></path></g><g opacity="1" transform="matrix(1,0,0,1,155.22300720214844,388.5469970703125)"><path fill="rgb(65,63,63)" fill-opacity="1" d=" M60.5890007019043,-37.25400161743164 C52.777000427246094,-27.981000900268555 44.51900100708008,-19.42799949645996 33.7130012512207,-13.97700023651123 C33.7130012512207,-13.97700023651123 47.74100112915039,37.766998291015625 47.74100112915039,37.766998291015625 C26.06100082397461,41.63199996948242 -8.746999740600586,12.788000106811523 -18.35099983215332,-4.913000106811523 C-30.44300079345703,-27.19700050354004 -25.339000701904297,-42.98500061035156 -19.788999557495117,-63.85300064086914 C-20.31999969482422,-64.29100036621094 -20.83799934387207,-64.74700164794922 -21.325000762939453,-65.2509994506836 C-23.520000457763672,-66.85600280761719 -25.71500015258789,-68.45999908447266 -27.92300033569336,-70.04900360107422 C-28.417999267578125,-70.40599822998047 -28.913000106811523,-70.76300048828125 -29.408000946044922,-71.12100219726562 C-30.450000762939453,-71.677001953125 -31.500999450683594,-72.21700286865234 -32.558998107910156,-72.74099731445312 C-32.74300003051758,-72.83300018310547 -32.92900085449219,-72.9209976196289 -33.112998962402344,-73.01200103759766 C-34.40700149536133,-73.47000122070312 -35.69900131225586,-73.93199920654297 -36.97800064086914,-74.4260025024414 C-40.61899948120117,-75.83399963378906 -44.29899978637695,-77.22899627685547 -47.724998474121094,-79.0739974975586 C-88.80699920654297,5.067999839782715 -8.053999900817871,75.51200103759766 75.8759994506836,79.0739974975586 C88.80699920654297,40.04600143432617 73.38600158691406,-0.14399999380111694 60.5890007019043,-37.25400161743164z"></path><path stroke-linecap="butt" stroke-linejoin="miter" fill-opacity="0" stroke-miterlimit="10" stroke="rgb(65,63,63)" stroke-opacity="1" stroke-width="2" d=" M60.5890007019043,-37.25400161743164 C52.777000427246094,-27.981000900268555 44.51900100708008,-19.42799949645996 33.7130012512207,-13.97700023651123 C33.7130012512207,-13.97700023651123 47.74100112915039,37.766998291015625 47.74100112915039,37.766998291015625 C26.06100082397461,41.63199996948242 -8.746999740600586,12.788000106811523 -18.35099983215332,-4.913000106811523 C-30.44300079345703,-27.19700050354004 -25.339000701904297,-42.98500061035156 -19.788999557495117,-63.85300064086914 C-20.31999969482422,-64.29100036621094 -20.83799934387207,-64.74700164794922 -21.325000762939453,-65.2509994506836 C-23.520000457763672,-66.85600280761719 -25.71500015258789,-68.45999908447266 -27.92300033569336,-70.04900360107422 C-28.417999267578125,-70.40599822998047 -28.913000106811523,-70.76300048828125 -29.408000946044922,-71.12100219726562 C-30.450000762939453,-71.677001953125 -31.500999450683594,-72.21700286865234 -32.558998107910156,-72.74099731445312 C-32.74300003051758,-72.83300018310547 -32.92900085449219,-72.9209976196289 -33.112998962402344,-73.01200103759766 C-34.40700149536133,-73.47000122070312 -35.69900131225586,-73.93199920654297 -36.97800064086914,-74.4260025024414 C-40.61899948120117,-75.83399963378906 -44.29899978637695,-77.22899627685547 -47.724998474121094,-79.0739974975586 C-88.80699920654297,5.067999839782715 -8.053999900817871,75.51200103759766 75.8759994506836,79.0739974975586 C88.80699920654297,40.04600143432617 73.38600158691406,-0.14399999380111694 60.5890007019043,-37.25400161743164z"></path></g><g opacity="1" transform="matrix(1,0,0,1,89.96299743652344,150.06900024414062)"><path fill="rgb(65,63,63)" fill-opacity="1" d=" M29.354000091552734,50.24100112915039 C24.829999923706055,45.209999084472656 19.923999786376953,40.24100112915039 15.717000007629395,34.840999603271484 C-0.4959999918937683,34.08300018310547 -18.827999114990234,46.18299865722656 -41.917999267578125,44.76900100708008 C-26.961000442504883,-3.691999912261963 12.595000267028809,-38.198001861572266 65.60900115966797,-20.40999984741211 C70.1259994506836,-24.777999877929688 74.60199737548828,-29.187999725341797 78.7239990234375,-33.88100051879883 C78.74400329589844,-33.90299987792969 78.75700378417969,-33.91999816894531 78.7760009765625,-33.941001892089844 C79.2040023803711,-34.92300033569336 79.76799774169922,-35.50299835205078 79.82099914550781,-35.4119987487793 C80.38400268554688,-36.10200119018555 80.99800109863281,-36.78300094604492 81.35399627685547,-37.28200149536133 C82.59500122070312,-39.02000045776367 83.78700256347656,-40.79100036621094 84.96299743652344,-42.57099914550781 C13.979000091552734,-87.36499786376953 -56.91699981689453,-27.791000366210938 -75.75499725341797,41.62799835205078 C-77.6520004272461,48.61800003051758 -84.96299743652344,74.46399688720703 -76.5790023803711,76.447998046875 C-76.5790023803711,76.447998046875 -35.53799819946289,87.36499786376953 37.39099884033203,58.09299850463867 C34.569000244140625,55.65599822998047 31.882999420166016,53.053001403808594 29.354000091552734,50.24100112915039z"></path><path stroke-linecap="butt" stroke-linejoin="miter" fill-opacity="0" stroke-miterlimit="10" stroke="rgb(65,63,63)" stroke-opacity="1" stroke-width="2" d=" M29.354000091552734,50.24100112915039 C24.829999923706055,45.209999084472656 19.923999786376953,40.24100112915039 15.717000007629395,34.840999603271484 C-0.4959999918937683,34.08300018310547 -18.827999114990234,46.18299865722656 -41.917999267578125,44.76900100708008 C-26.961000442504883,-3.691999912261963 12.595000267028809,-38.198001861572266 65.60900115966797,-20.40999984741211 C70.1259994506836,-24.777999877929688 74.60199737548828,-29.187999725341797 78.7239990234375,-33.88100051879883 C78.74400329589844,-33.90299987792969 78.75700378417969,-33.91999816894531 78.7760009765625,-33.941001892089844 C79.2040023803711,-34.92300033569336 79.76799774169922,-35.50299835205078 79.82099914550781,-35.4119987487793 C80.38400268554688,-36.10200119018555 80.99800109863281,-36.78300094604492 81.35399627685547,-37.28200149536133 C82.59500122070312,-39.02000045776367 83.78700256347656,-40.79100036621094 84.96299743652344,-42.57099914550781 C13.979000091552734,-87.36499786376953 -56.91699981689453,-27.791000366210938 -75.75499725341797,41.62799835205078 C-77.6520004272461,48.61800003051758 -84.96299743652344,74.46399688720703 -76.5790023803711,76.447998046875 C-76.5790023803711,76.447998046875 -35.53799819946289,87.36499786376953 37.39099884033203,58.09299850463867 C34.569000244140625,55.65599822998047 31.882999420166016,53.053001403808594 29.354000091552734,50.24100112915039z"></path></g><g opacity="1" transform="matrix(1,0,0,1,174.0279998779297,88.83999633789062)"><path fill="rgb(65,63,63)" fill-opacity="1" d=" M59.707000732421875,-76.27100372314453 C54.5,-83.83899688720703 39.775001525878906,-80.38500213623047 32.499000549316406,-78.78700256347656 C5.7220001220703125,-72.90899658203125 -19.649999618530273,-60.52399826049805 -40.41600036621094,-43.097999572753906 C-46.426998138427734,-38.053001403808594 -52.07899856567383,-32.60499954223633 -57.32699966430664,-26.81399917602539 C-62.262001037597656,-21.368000030517578 -68.03900146484375,-15.791999816894531 -70.22599792480469,-8.663000106811523 C-70.3239974975586,-8.345000267028809 -71.02200317382812,-3.86299991607666 -70.65699768066406,-3.9670000076293945 C-57.275001525878906,-7.755000114440918 -43.2400016784668,-7.839000225067139 -29.391000747680664,-6.38700008392334 C-28.466999053955078,-6.289999961853027 -25.107999801635742,-12.057999610900879 -24.405000686645508,-13.01099967956543 C-14.331999778747559,-26.67099952697754 1.7979999780654907,-33.50400161743164 17.37299919128418,-39.45399856567383 C18.045000076293945,-39.71099853515625 29.312999725341797,-43.0369987487793 28.867000579833984,-40.3849983215332 C22.316999435424805,-1.468000054359436 7.966000080108643,35.22100067138672 -21.448999404907227,62.77000045776367 C-20.315000534057617,64.0479965209961 -19.16200065612793,65.31199645996094 -17.972999572753906,66.54399871826172 C-14.361000061035156,70.28800201416016 -10.47700023651123,73.69200134277344 -6.460000038146973,77.01599884033203 C-6.422999858856201,77.04100036621094 -6.390999794006348,77.06099700927734 -6.35099983215332,77.08799743652344 C-5.367000102996826,77.74299621582031 -4.406000137329102,78.42900085449219 -3.4130001068115234,79.0719985961914 C-1.2599999904632568,80.46900177001953 0.9520000219345093,81.77899932861328 3.2320001125335693,82.97100067138672 C3.806999921798706,83.27200317382812 4.388000011444092,83.55799865722656 4.9710001945495605,83.83899688720703 C5.541999816894531,83.43099975585938 6.122000217437744,83.0009994506836 6.7270002365112305,82.54199981689453 C14.451000213623047,76.69100189208984 38.534000396728516,40.810001373291016 43.1619987487793,30.843000411987305 C52.222999572753906,11.324999809265137 71.02200317382812,-59.82500076293945 59.707000732421875,-76.27100372314453z"></path><path stroke-linecap="butt" stroke-linejoin="miter" fill-opacity="0" stroke-miterlimit="10" stroke="rgb(65,63,63)" stroke-opacity="1" stroke-width="2" d=" M59.707000732421875,-76.27100372314453 C54.5,-83.83899688720703 39.775001525878906,-80.38500213623047 32.499000549316406,-78.78700256347656 C5.7220001220703125,-72.90899658203125 -19.649999618530273,-60.52399826049805 -40.41600036621094,-43.097999572753906 C-46.426998138427734,-38.053001403808594 -52.07899856567383,-32.60499954223633 -57.32699966430664,-26.81399917602539 C-62.262001037597656,-21.368000030517578 -68.03900146484375,-15.791999816894531 -70.22599792480469,-8.663000106811523 C-70.3239974975586,-8.345000267028809 -71.02200317382812,-3.86299991607666 -70.65699768066406,-3.9670000076293945 C-57.275001525878906,-7.755000114440918 -43.2400016784668,-7.839000225067139 -29.391000747680664,-6.38700008392334 C-28.466999053955078,-6.289999961853027 -25.107999801635742,-12.057999610900879 -24.405000686645508,-13.01099967956543 C-14.331999778747559,-26.67099952697754 1.7979999780654907,-33.50400161743164 17.37299919128418,-39.45399856567383 C18.045000076293945,-39.71099853515625 29.312999725341797,-43.0369987487793 28.867000579833984,-40.3849983215332 C22.316999435424805,-1.468000054359436 7.966000080108643,35.22100067138672 -21.448999404907227,62.77000045776367 C-20.315000534057617,64.0479965209961 -19.16200065612793,65.31199645996094 -17.972999572753906,66.54399871826172 C-14.361000061035156,70.28800201416016 -10.47700023651123,73.69200134277344 -6.460000038146973,77.01599884033203 C-6.422999858856201,77.04100036621094 -6.390999794006348,77.06099700927734 -6.35099983215332,77.08799743652344 C-5.367000102996826,77.74299621582031 -4.406000137329102,78.42900085449219 -3.4130001068115234,79.0719985961914 C-1.2599999904632568,80.46900177001953 0.9520000219345093,81.77899932861328 3.2320001125335693,82.97100067138672 C3.806999921798706,83.27200317382812 4.388000011444092,83.55799865722656 4.9710001945495605,83.83899688720703 C5.541999816894531,83.43099975585938 6.122000217437744,83.0009994506836 6.7270002365112305,82.54199981689453 C14.451000213623047,76.69100189208984 38.534000396728516,40.810001373291016 43.1619987487793,30.843000411987305 C52.222999572753906,11.324999809265137 71.02200317382812,-59.82500076293945 59.707000732421875,-76.27100372314453z"></path></g><g opacity="1" transform="matrix(1,0,0,1,92.49299621582031,308.6109924316406)"><path fill="rgb(65,63,63)" fill-opacity="1" d=" M42.46099853515625,1.694000005722046 C52.573001861572266,8.291999816894531 57.98899841308594,15.883999824523926 63.361000061035156,19.0049991607666 C64.14299774169922,18.41900062561035 64.9219970703125,17.827999114990234 65.7040023803711,17.243000030517578 C66.68900299072266,16.506000518798828 66.74299621582031,16.44499969482422 66.42900085449219,16.666000366210938 C66.3030014038086,16.757999420166016 66.17500305175781,16.850000381469727 66.0479965209961,16.94099998474121 C65.68000030517578,17.209999084472656 65.2020034790039,17.569000244140625 64.83799743652344,17.861000061035156 C64.70999908447266,17.96500015258789 64.58000183105469,18.06800079345703 64.45899963378906,18.177000045776367 C64.5530014038086,18.091999053955078 64.68599700927734,17.98200035095215 64.83799743652344,17.861000061035156 C65.22699737548828,17.541000366210938 65.63500213623047,17.238000869750977 66.0479965209961,16.94099998474121 C66.20099639892578,16.82900047302246 66.33200073242188,16.735000610351562 66.42900085449219,16.666000366210938 C66.64800262451172,16.507999420166016 66.86499786376953,16.350000381469727 67.07499694824219,16.187999725341797 C69.93900299072266,13.984999656677246 72.76300048828125,11.72599983215332 75.43099975585938,9.300999641418457 C76.81800079345703,8.038999557495117 78.16400146484375,6.732999801635742 79.45099639892578,5.375 C79.81600189208984,4.989999771118164 80.16999816894531,4.59499979019165 80.52300262451172,4.198999881744385 C80.89399719238281,2.868000030517578 83.02300262451172,0.7549999952316284 83.72599792480469,-0.42899999022483826 C84.25,-1.309000015258789 84.74099731445312,-2.2049999237060547 85.21099853515625,-3.1110000610351562 C45.525001525878906,-49.198001861572266 -25.250999450683594,-66.87699890136719 -85.21099853515625,-58.327999114990234 C-78.16400146484375,-18.158000946044922 -65.94400024414062,23.43199920654297 -32.345001220703125,50.58300018310547 C-28.947999954223633,53.32699966430664 -14.630000114440918,63.12200164794922 -8.260000228881836,66.87699890136719 C-10.77400016784668,53.354000091552734 -10.720000267028809,39.94499969482422 -7.105999946594238,26.19499969482422 C-14.102999687194824,19.597000122070312 -25.72100067138672,10.723999977111816 -29.945999145507812,4.7220001220703125 C-36.74800109863281,-4.940999984741211 -39.73500061035156,-16.1299991607666 -44.4640007019043,-26.6560001373291 C-12.758000373840332,-27.981000900268555 16.722999572753906,-15.098999977111816 42.46099853515625,1.694000005722046z"></path><path stroke-linecap="butt" stroke-linejoin="miter" fill-opacity="0" stroke-miterlimit="10" stroke="rgb(65,63,63)" stroke-opacity="1" stroke-width="2" d=" M42.46099853515625,1.694000005722046 C52.573001861572266,8.291999816894531 57.98899841308594,15.883999824523926 63.361000061035156,19.0049991607666 C64.14299774169922,18.41900062561035 64.9219970703125,17.827999114990234 65.7040023803711,17.243000030517578 C66.68900299072266,16.506000518798828 66.74299621582031,16.44499969482422 66.42900085449219,16.666000366210938 C66.3030014038086,16.757999420166016 66.17500305175781,16.850000381469727 66.0479965209961,16.94099998474121 C65.68000030517578,17.209999084472656 65.2020034790039,17.569000244140625 64.83799743652344,17.861000061035156 C64.70999908447266,17.96500015258789 64.58000183105469,18.06800079345703 64.45899963378906,18.177000045776367 C64.5530014038086,18.091999053955078 64.68599700927734,17.98200035095215 64.83799743652344,17.861000061035156 C65.22699737548828,17.541000366210938 65.63500213623047,17.238000869750977 66.0479965209961,16.94099998474121 C66.20099639892578,16.82900047302246 66.33200073242188,16.735000610351562 66.42900085449219,16.666000366210938 C66.64800262451172,16.507999420166016 66.86499786376953,16.350000381469727 67.07499694824219,16.187999725341797 C69.93900299072266,13.984999656677246 72.76300048828125,11.72599983215332 75.43099975585938,9.300999641418457 C76.81800079345703,8.038999557495117 78.16400146484375,6.732999801635742 79.45099639892578,5.375 C79.81600189208984,4.989999771118164 80.16999816894531,4.59499979019165 80.52300262451172,4.198999881744385 C80.89399719238281,2.868000030517578 83.02300262451172,0.7549999952316284 83.72599792480469,-0.42899999022483826 C84.25,-1.309000015258789 84.74099731445312,-2.2049999237060547 85.21099853515625,-3.1110000610351562 C45.525001525878906,-49.198001861572266 -25.250999450683594,-66.87699890136719 -85.21099853515625,-58.327999114990234 C-78.16400146484375,-18.158000946044922 -65.94400024414062,23.43199920654297 -32.345001220703125,50.58300018310547 C-28.947999954223633,53.32699966430664 -14.630000114440918,63.12200164794922 -8.260000228881836,66.87699890136719 C-10.77400016784668,53.354000091552734 -10.720000267028809,39.94499969482422 -7.105999946594238,26.19499969482422 C-14.102999687194824,19.597000122070312 -25.72100067138672,10.723999977111816 -29.945999145507812,4.7220001220703125 C-36.74800109863281,-4.940999984741211 -39.73500061035156,-16.1299991607666 -44.4640007019043,-26.6560001373291 C-12.758000373840332,-27.981000900268555 16.722999572753906,-15.098999977111816 42.46099853515625,1.694000005722046z"></path></g><g opacity="1" transform="matrix(1,0,0,1,400.031005859375,165.04200744628906)"><path fill="rgb(65,63,63)" fill-opacity="1" d=" M75.73699951171875,20.135000228881836 C64.6709976196289,-13.855999946594238 39.54899978637695,-50.0369987487793 4.53000020980835,-63.74800109863281 C6.9019999504089355,-57.20600128173828 8.03600025177002,-50.20600128173828 8.095999717712402,-42.96200180053711 C8.137999534606934,-37.854000091552734 7.580999851226807,-32.763999938964844 6.915999889373779,-27.70400047302246 C6.789999961853027,-26.746000289916992 6.6529998779296875,-25.788000106811523 6.520999908447266,-24.83099937438965 C10.621000289916992,-21.76099967956543 16.756999969482422,-18.16200065612793 20.631999969482422,-13.41100025177002 C25.03499984741211,-8.01099967956543 46.757999420166016,26.74799919128418 43.33100128173828,29.79599952697754 C21.732999801635742,29.621999740600586 -1.3020000457763672,23.902999877929688 -20.562000274658203,14.699999809265137 C-37.24800109863281,6.7270002365112305 -52.62900161743164,-4.801000118255615 -64.8010025024414,-14.815999984741211 C-65.75199890136719,-14.359999656677246 -65.46499633789062,-14.508999824523926 -64.80899810791016,-14.817999839782715 C-64.8499984741211,-14.831000328063965 -64.89199829101562,-14.845999717712402 -64.93299865722656,-14.859000205993652 C-64.96800231933594,-14.845999717712402 -65.00199890136719,-14.831999778747559 -65.03600311279297,-14.819999694824219 C-65.73300170898438,-14.501999855041504 -66.4219970703125,-14.166000366210938 -67.11000061035156,-13.829999923706055 C-68.35900115966797,-13.142999649047852 -69.58799743652344,-12.425999641418457 -70.77999877929688,-11.64799976348877 C-71.41500091552734,-11.234000205993652 -72.2040023803711,-10.442000389099121 -72.96399688720703,-10.015000343322754 C-74.57499694824219,-8.654999732971191 -76.13099670410156,-7.236000061035156 -77.62999725341797,-5.760000228881836 C-79.37999725341797,-4.033999919891357 -81.05699920654297,-2.239000082015991 -82.66400146484375,-0.3869999945163727 C-83.00800323486328,0.008999999612569809 -83.33399963378906,0.4350000023841858 -83.6729965209961,0.8479999899864197 C-82.56099700927734,-0.4050000011920929 -81.00499725341797,-1.718999981880188 -84.11199951171875,1.3769999742507935 C-84.12699890136719,1.3969999551773071 -84.1449966430664,1.4179999828338623 -84.16000366210938,1.437999963760376 C-85.4219970703125,3.134999990463257 -86.62799835205078,4.868000030517578 -87.78600311279297,6.63100004196167 C-60.84400177001953,30.875 -18.992000579833984,56.73099899291992 16.856000900268555,61.474998474121094 C34.04899978637695,63.749000549316406 59.51300048828125,61.474998474121094 77.99299621582031,61.474998474121094 C87.78600311279297,61.474998474121094 78.0199966430664,27.145999908447266 75.73699951171875,20.135000228881836z"></path><path stroke-linecap="butt" stroke-linejoin="miter" fill-opacity="0" stroke-miterlimit="10" stroke="rgb(65,63,63)" stroke-opacity="1" stroke-width="2" d=" M75.73699951171875,20.135000228881836 C64.6709976196289,-13.855999946594238 39.54899978637695,-50.0369987487793 4.53000020980835,-63.74800109863281 C6.9019999504089355,-57.20600128173828 8.03600025177002,-50.20600128173828 8.095999717712402,-42.96200180053711 C8.137999534606934,-37.854000091552734 7.580999851226807,-32.763999938964844 6.915999889373779,-27.70400047302246 C6.789999961853027,-26.746000289916992 6.6529998779296875,-25.788000106811523 6.520999908447266,-24.83099937438965 C10.621000289916992,-21.76099967956543 16.756999969482422,-18.16200065612793 20.631999969482422,-13.41100025177002 C25.03499984741211,-8.01099967956543 46.757999420166016,26.74799919128418 43.33100128173828,29.79599952697754 C21.732999801635742,29.621999740600586 -1.3020000457763672,23.902999877929688 -20.562000274658203,14.699999809265137 C-37.24800109863281,6.7270002365112305 -52.62900161743164,-4.801000118255615 -64.8010025024414,-14.815999984741211 C-65.75199890136719,-14.359999656677246 -65.46499633789062,-14.508999824523926 -64.80899810791016,-14.817999839782715 C-64.8499984741211,-14.831000328063965 -64.89199829101562,-14.845999717712402 -64.93299865722656,-14.859000205993652 C-64.96800231933594,-14.845999717712402 -65.00199890136719,-14.831999778747559 -65.03600311279297,-14.819999694824219 C-65.73300170898438,-14.501999855041504 -66.4219970703125,-14.166000366210938 -67.11000061035156,-13.829999923706055 C-68.35900115966797,-13.142999649047852 -69.58799743652344,-12.425999641418457 -70.77999877929688,-11.64799976348877 C-71.41500091552734,-11.234000205993652 -72.2040023803711,-10.442000389099121 -72.96399688720703,-10.015000343322754 C-74.57499694824219,-8.654999732971191 -76.13099670410156,-7.236000061035156 -77.62999725341797,-5.760000228881836 C-79.37999725341797,-4.033999919891357 -81.05699920654297,-2.239000082015991 -82.66400146484375,-0.3869999945163727 C-83.00800323486328,0.008999999612569809 -83.33399963378906,0.4350000023841858 -83.6729965209961,0.8479999899864197 C-82.56099700927734,-0.4050000011920929 -81.00499725341797,-1.718999981880188 -84.11199951171875,1.3769999742507935 C-84.12699890136719,1.3969999551773071 -84.1449966430664,1.4179999828338623 -84.16000366210938,1.437999963760376 C-85.4219970703125,3.134999990463257 -86.62799835205078,4.868000030517578 -87.78600311279297,6.63100004196167 C-60.84400177001953,30.875 -18.992000579833984,56.73099899291992 16.856000900268555,61.474998474121094 C34.04899978637695,63.749000549316406 59.51300048828125,61.474998474121094 77.99299621582031,61.474998474121094 C87.78600311279297,61.474998474121094 78.0199966430664,27.145999908447266 75.73699951171875,20.135000228881836z"></path></g><g opacity="1" transform="matrix(1,0,0,1,317.7030029296875,385.78900146484375)"><path fill="rgb(65,63,63)" fill-opacity="1" d=" M31.43400001525879,8.946000099182129 C27.70400047302246,12.984000205993652 24.516000747680664,15.746999740600586 22.42300033569336,17.488000869750977 C15.621000289916992,23.14900016784668 -23.115999221801758,48.14500045776367 -29.19099998474121,42.53200149536133 C-25.6200008392334,10.706999778747559 -14.32699966430664,-15.633999824523926 4.10699987411499,-41.845001220703125 C7.058000087738037,-46.04199981689453 14.434000015258789,-52.09299850463867 19.423999786376953,-58.125 C19.391000747680664,-58.29499816894531 19.360000610351562,-58.46500015258789 19.32699966430664,-58.6349983215332 C18.479999542236328,-60.055999755859375 17.57900047302246,-61.448001861572266 16.650999069213867,-62.82099914550781 C16.141000747680664,-63.57600021362305 15.616000175476074,-64.31999969482422 15.095999717712402,-65.06800079345703 C13.451000213623047,-66.3270034790039 12.053000450134277,-68.5770034790039 10.583000183105469,-70.00599670410156 C8.852999687194824,-71.68800354003906 7.046999931335449,-73.29499816894531 5.208000183105469,-74.86199951171875 C4.480000019073486,-75.48200225830078 3.7300000190734863,-76.08300018310547 2.996999979019165,-76.69999694824219 C0.30000001192092896,-78.33300018310547 -2.502000093460083,-80.06900024414062 -5.083000183105469,-82.0270004272461 C-12.053999900817871,-77.81700134277344 -35.34700012207031,-44.82600021362305 -39.553001403808594,-36.74800109863281 C-56.85200119018555,-3.5209999084472656 -67.93399810791016,45.944000244140625 -57.54199981689453,82.0270004272461 C-16.482999801635742,80.18800354003906 53.196998596191406,51.12699890136719 67.93499755859375,10.675999641418457 C55.691001892089844,10.968999862670898 43.444000244140625,10.960000038146973 31.43400001525879,8.946000099182129z"></path><path stroke-linecap="butt" stroke-linejoin="miter" fill-opacity="0" stroke-miterlimit="10" stroke="rgb(65,63,63)" stroke-opacity="1" stroke-width="2" d=" M31.43400001525879,8.946000099182129 C27.70400047302246,12.984000205993652 24.516000747680664,15.746999740600586 22.42300033569336,17.488000869750977 C15.621000289916992,23.14900016784668 -23.115999221801758,48.14500045776367 -29.19099998474121,42.53200149536133 C-25.6200008392334,10.706999778747559 -14.32699966430664,-15.633999824523926 4.10699987411499,-41.845001220703125 C7.058000087738037,-46.04199981689453 14.434000015258789,-52.09299850463867 19.423999786376953,-58.125 C19.391000747680664,-58.29499816894531 19.360000610351562,-58.46500015258789 19.32699966430664,-58.6349983215332 C18.479999542236328,-60.055999755859375 17.57900047302246,-61.448001861572266 16.650999069213867,-62.82099914550781 C16.141000747680664,-63.57600021362305 15.616000175476074,-64.31999969482422 15.095999717712402,-65.06800079345703 C13.451000213623047,-66.3270034790039 12.053000450134277,-68.5770034790039 10.583000183105469,-70.00599670410156 C8.852999687194824,-71.68800354003906 7.046999931335449,-73.29499816894531 5.208000183105469,-74.86199951171875 C4.480000019073486,-75.48200225830078 3.7300000190734863,-76.08300018310547 2.996999979019165,-76.69999694824219 C0.30000001192092896,-78.33300018310547 -2.502000093460083,-80.06900024414062 -5.083000183105469,-82.0270004272461 C-12.053999900817871,-77.81700134277344 -35.34700012207031,-44.82600021362305 -39.553001403808594,-36.74800109863281 C-56.85200119018555,-3.5209999084472656 -67.93399810791016,45.944000244140625 -57.54199981689453,82.0270004272461 C-16.482999801635742,80.18800354003906 53.196998596191406,51.12699890136719 67.93499755859375,10.675999641418457 C55.691001892089844,10.968999862670898 43.444000244140625,10.960000038146973 31.43400001525879,8.946000099182129z"></path></g><g opacity="1" transform="matrix(1,0,0,1,192.7790069580078,330.718994140625)"><path fill="rgb(65,63,63)" fill-opacity="1" d=" M45.20100021362305,-47.45000076293945 C44.266998291015625,-47.49100112915039 43.334999084472656,-47.53900146484375 42.39799880981445,-47.54899978637695 C34.67399978637695,-47.63100051879883 26.947999954223633,-46.952999114990234 19.35300064086914,-45.59000015258789 C17.645000457763672,-45.28300094604492 11.902000427246094,-45.46500015258789 11.11299991607666,-43.85200119018555 C4.864999771118164,-31.079999923706055 1.5140000581741333,-22.30299949645996 -8.946999549865723,-11.444000244140625 C-19.992000579833984,0.020999999716877937 -31.211000442504883,10.163000106811523 -45.7760009765625,16.113000869750977 C-45.790000915527344,16.138999938964844 -45.80500030517578,16.163000106811523 -45.81999969482422,16.190000534057617 C-45.91600036621094,16.466999053955078 -46.00199890136719,16.71500015258789 -46.055999755859375,16.878999710083008 C-46.10100173950195,17.55699920654297 -46.143001556396484,18.235000610351562 -46.15599822998047,18.91699981689453 C-46.198001861572266,21.250999450683594 -46.07899856567383,23.582000732421875 -45.85499954223633,25.9060001373291 C-45.849998474121094,25.961000442504883 -45.845001220703125,26.006000518798828 -45.84000015258789,26.058000564575195 C-45.7400016784668,26.673999786376953 -45.64099884033203,27.290000915527344 -45.52299880981445,27.902999877929688 C-44.57899856567383,32.81999969482422 -43.25400161743164,37.707000732421875 -41.737998962402344,42.48500061035156 C-41.30799865722656,43.8390007019043 -40.85599899291992,45.185001373291016 -40.36000061035156,46.516998291015625 C-40.21799850463867,46.88800048828125 -40.07600021362305,47.2599983215332 -39.933998107910156,47.63100051879883 C2.799999952316284,35.60900115966797 38.89699935913086,-4.854000091552734 46.198001861572266,-47.2130012512207 C45.8650016784668,-47.290000915527344 45.53200149536133,-47.36899948120117 45.20100021362305,-47.45000076293945z"></path><path stroke-linecap="butt" stroke-linejoin="miter" fill-opacity="0" stroke-miterlimit="10" stroke="rgb(65,63,63)" stroke-opacity="1" stroke-width="2" d=" M45.20100021362305,-47.45000076293945 C44.266998291015625,-47.49100112915039 43.334999084472656,-47.53900146484375 42.39799880981445,-47.54899978637695 C34.67399978637695,-47.63100051879883 26.947999954223633,-46.952999114990234 19.35300064086914,-45.59000015258789 C17.645000457763672,-45.28300094604492 11.902000427246094,-45.46500015258789 11.11299991607666,-43.85200119018555 C4.864999771118164,-31.079999923706055 1.5140000581741333,-22.30299949645996 -8.946999549865723,-11.444000244140625 C-19.992000579833984,0.020999999716877937 -31.211000442504883,10.163000106811523 -45.7760009765625,16.113000869750977 C-45.790000915527344,16.138999938964844 -45.80500030517578,16.163000106811523 -45.81999969482422,16.190000534057617 C-45.91600036621094,16.466999053955078 -46.00199890136719,16.71500015258789 -46.055999755859375,16.878999710083008 C-46.10100173950195,17.55699920654297 -46.143001556396484,18.235000610351562 -46.15599822998047,18.91699981689453 C-46.198001861572266,21.250999450683594 -46.07899856567383,23.582000732421875 -45.85499954223633,25.9060001373291 C-45.849998474121094,25.961000442504883 -45.845001220703125,26.006000518798828 -45.84000015258789,26.058000564575195 C-45.7400016784668,26.673999786376953 -45.64099884033203,27.290000915527344 -45.52299880981445,27.902999877929688 C-44.57899856567383,32.81999969482422 -43.25400161743164,37.707000732421875 -41.737998962402344,42.48500061035156 C-41.30799865722656,43.8390007019043 -40.85599899291992,45.185001373291016 -40.36000061035156,46.516998291015625 C-40.21799850463867,46.88800048828125 -40.07600021362305,47.2599983215332 -39.933998107910156,47.63100051879883 C2.799999952316284,35.60900115966797 38.89699935913086,-4.854000091552734 46.198001861572266,-47.2130012512207 C45.8650016784668,-47.290000915527344 45.53200149536133,-47.36899948120117 45.20100021362305,-47.45000076293945z"></path></g><g opacity="1" transform="matrix(1,0,0,1,344.66400146484375,292.6619873046875)"><path fill="rgb(65,63,63)" fill-opacity="1" d=" M-8.074000358581543,13.442999839782715 C-1.0329999923706055,20.533000946044922 8.381999969482422,33.19599914550781 13.989999771118164,44.117000579833984 C15.565999984741211,44.19599914550781 17.142000198364258,44.25600051879883 18.719999313354492,44.25299835205078 C19.545000076293945,44.25899887084961 20.3700008392334,44.24300003051758 21.19499969482422,44.20600128173828 C23.27199935913086,44.03200149536133 23.406999588012695,44.066001892089844 21.597999572753906,44.30500030517578 C19.878000259399414,44.564998626708984 19.922000885009766,44.564998626708984 21.729999542236328,44.30400085449219 C22.430999755859375,44.202999114990234 23.131999969482422,44.09299850463867 23.83099937438965,43.97600173950195 C25.249000549316406,43.74300003051758 26.660999298095703,43.48500061035156 28.069000244140625,43.196998596191406 C30.922000885009766,42.612998962402344 33.74700164794922,41.91299819946289 36.5260009765625,41.05400085449219 C37.08300018310547,40.88199996948242 41.277000427246094,39.827999114990234 41.32400131225586,39.38999938964844 C40.45100021362305,39.74100112915039 39.58000183105469,40.09199905395508 38.70800018310547,40.44300079345703 C39.57899856567383,40.05500030517578 40.4370002746582,39.64500045776367 41.28499984741211,39.2130012512207 C43.301998138427734,38.18199920654297 45.17900085449219,36.97999954223633 47.040000915527344,35.7239990234375 C31.631000518798828,-3.9749999046325684 -4.5229997634887695,-34.82699966430664 -47.040000915527344,-44.56399917602539 C-46.89799880981445,-42.560001373291016 -46.72700119018555,-40.558998107910156 -46.53799819946289,-38.564998626708984 C-46.35599899291992,-36.64699935913086 -46.124000549316406,-34.73500061035156 -45.902000427246094,-32.82099914550781 C-45.7599983215332,-31.985000610351562 -45.63800048828125,-31.143999099731445 -45.49399948120117,-30.308000564575195 C-44.792999267578125,-26.236000061035156 -43.9370002746582,-22.18899917602539 -42.887001037597656,-18.187999725341797 C-42.06100082397461,-15.038999557495117 -41.11000061035156,-11.918999671936035 -40.03799819946289,-8.840999603271484 C-28.12700080871582,-4.181000232696533 -16.763999938964844,4.692999839782715 -8.074000358581543,13.442999839782715z"></path><path stroke-linecap="butt" stroke-linejoin="miter" fill-opacity="0" stroke-miterlimit="10" stroke="rgb(65,63,63)" stroke-opacity="1" stroke-width="2" d=" M-8.074000358581543,13.442999839782715 C-1.0329999923706055,20.533000946044922 8.381999969482422,33.19599914550781 13.989999771118164,44.117000579833984 C15.565999984741211,44.19599914550781 17.142000198364258,44.25600051879883 18.719999313354492,44.25299835205078 C19.545000076293945,44.25899887084961 20.3700008392334,44.24300003051758 21.19499969482422,44.20600128173828 C23.27199935913086,44.03200149536133 23.406999588012695,44.066001892089844 21.597999572753906,44.30500030517578 C19.878000259399414,44.564998626708984 19.922000885009766,44.564998626708984 21.729999542236328,44.30400085449219 C22.430999755859375,44.202999114990234 23.131999969482422,44.09299850463867 23.83099937438965,43.97600173950195 C25.249000549316406,43.74300003051758 26.660999298095703,43.48500061035156 28.069000244140625,43.196998596191406 C30.922000885009766,42.612998962402344 33.74700164794922,41.91299819946289 36.5260009765625,41.05400085449219 C37.08300018310547,40.88199996948242 41.277000427246094,39.827999114990234 41.32400131225586,39.38999938964844 C40.45100021362305,39.74100112915039 39.58000183105469,40.09199905395508 38.70800018310547,40.44300079345703 C39.57899856567383,40.05500030517578 40.4370002746582,39.64500045776367 41.28499984741211,39.2130012512207 C43.301998138427734,38.18199920654297 45.17900085449219,36.97999954223633 47.040000915527344,35.7239990234375 C31.631000518798828,-3.9749999046325684 -4.5229997634887695,-34.82699966430664 -47.040000915527344,-44.56399917602539 C-46.89799880981445,-42.560001373291016 -46.72700119018555,-40.558998107910156 -46.53799819946289,-38.564998626708984 C-46.35599899291992,-36.64699935913086 -46.124000549316406,-34.73500061035156 -45.902000427246094,-32.82099914550781 C-45.7599983215332,-31.985000610351562 -45.63800048828125,-31.143999099731445 -45.49399948120117,-30.308000564575195 C-44.792999267578125,-26.236000061035156 -43.9370002746582,-22.18899917602539 -42.887001037597656,-18.187999725341797 C-42.06100082397461,-15.038999557495117 -41.11000061035156,-11.918999671936035 -40.03799819946289,-8.840999603271484 C-28.12700080871582,-4.181000232696533 -16.763999938964844,4.692999839782715 -8.074000358581543,13.442999839782715z"></path></g><g opacity="1" transform="matrix(1,0,0,1,148.23800659179688,182.9409942626953)"><path fill="rgb(65,63,63)" fill-opacity="1" d=" M48,44.02899932861328 C47.95800018310547,41.034000396728516 47.69300079345703,38.04999923706055 47.3489990234375,35.07500076293945 C47.26100158691406,34.314998626708984 46.94900131225586,29.12700080871582 47.07699966430664,32.77299880981445 C47.334999084472656,34.63399887084961 47.33599853515625,34.637001037597656 47.07699966430664,32.77399826049805 C47.07699966430664,32.77299880981445 47.07699966430664,32.77299880981445 47.07699966430664,32.77299880981445 C47.07500076293945,32.76300048828125 47.07400131225586,32.75699996948242 47.073001861572266,32.74700164794922 C46.775001525878906,30.61400032043457 46.47999954223633,28.479999542236328 46.1879997253418,26.347000122070312 C46.07400131225586,25.5 46.06800079345703,20.655000686645508 45.9640007019043,24.13800048828125 C45.862998962402344,27.511999130249023 45.683998107910156,22.833999633789062 45.45899963378906,21.881000518798828 C45.347999572753906,21.405000686645508 45.152000427246094,20.1200008392334 44.86899948120117,18.972000122070312 C44.797000885009766,18.847000122070312 44.69200134277344,18.649999618530273 44.54399871826172,18.358999252319336 C43.79899978637695,16.895999908447266 43.11399841308594,15.404000282287598 42.37200164794922,13.939000129699707 C41.7599983215332,12.729000091552734 41.130001068115234,11.526000022888184 40.47999954223633,10.333000183105469 C27.339000701904297,-0.33399999141693115 8.232000350952148,-7.2270002365112305 -4.535999774932861,-23.59600067138672 C-10.932000160217285,-31.79599952697754 -13.529000282287598,-39.82699966430664 -16.7549991607666,-45.21500015258789 C-18.614999771118164,-45.150001525878906 -20.475000381469727,-45.051998138427734 -22.33099937438965,-44.9010009765625 C-23.083999633789062,-44.84199905395508 -23.836000442504883,-44.77299880981445 -24.586999893188477,-44.69300079345703 C-26.301000595092773,-44.5099983215332 -25.59000015258789,-44.61600112915039 -22.45400047302246,-45.01100158691406 C-23.209999084472656,-45.51599884033203 -27.410999298095703,-44.176998138427734 -28.340999603271484,-43.97800064086914 C-30.0310001373291,-43.617000579833984 -31.70599937438965,-43.198001861572266 -33.3650016784668,-42.71699905395508 C-36.57099914550781,-41.78799819946289 -39.632999420166016,-40.534000396728516 -42.72800064086914,-39.3129997253418 C-43.81999969482422,-38.88100051879883 -44.90800094604492,-38.391998291015625 -46.020999908447266,-38.01300048828125 C-45.21099853515625,-38.28900146484375 -44.582000732421875,-38.50400161743164 -44.10100173950195,-38.66899871826172 C-42.801998138427734,-39.137001037597656 -41.93199920654297,-39.415000915527344 -44.10100173950195,-38.66899871826172 C-44.900001525878906,-38.38199996948242 -45.86000061035156,-38.02299880981445 -46.369998931884766,-37.78799819946289 C-46.926998138427734,-37.53200149536133 -47.470001220703125,-37.249000549316406 -48.00699996948242,-36.95500183105469 C-35.76100158691406,7.473999977111816 4.833000183105469,31.934999465942383 47.972999572753906,45.51599884033203 C47.992000579833984,45.02000045776367 48.00699996948242,44.525001525878906 48,44.02899932861328z"></path><path stroke-linecap="butt" stroke-linejoin="miter" fill-opacity="0" stroke-miterlimit="10" stroke="rgb(65,63,63)" stroke-opacity="1" stroke-width="2" d=" M48,44.02899932861328 C47.95800018310547,41.034000396728516 47.69300079345703,38.04999923706055 47.3489990234375,35.07500076293945 C47.26100158691406,34.314998626708984 46.94900131225586,29.12700080871582 47.07699966430664,32.77299880981445 C47.334999084472656,34.63399887084961 47.33599853515625,34.637001037597656 47.07699966430664,32.77399826049805 C47.07699966430664,32.77299880981445 47.07699966430664,32.77299880981445 47.07699966430664,32.77299880981445 C47.07500076293945,32.76300048828125 47.07400131225586,32.75699996948242 47.073001861572266,32.74700164794922 C46.775001525878906,30.61400032043457 46.47999954223633,28.479999542236328 46.1879997253418,26.347000122070312 C46.07400131225586,25.5 46.06800079345703,20.655000686645508 45.9640007019043,24.13800048828125 C45.862998962402344,27.511999130249023 45.683998107910156,22.833999633789062 45.45899963378906,21.881000518798828 C45.347999572753906,21.405000686645508 45.152000427246094,20.1200008392334 44.86899948120117,18.972000122070312 C44.797000885009766,18.847000122070312 44.69200134277344,18.649999618530273 44.54399871826172,18.358999252319336 C43.79899978637695,16.895999908447266 43.11399841308594,15.404000282287598 42.37200164794922,13.939000129699707 C41.7599983215332,12.729000091552734 41.130001068115234,11.526000022888184 40.47999954223633,10.333000183105469 C27.339000701904297,-0.33399999141693115 8.232000350952148,-7.2270002365112305 -4.535999774932861,-23.59600067138672 C-10.932000160217285,-31.79599952697754 -13.529000282287598,-39.82699966430664 -16.7549991607666,-45.21500015258789 C-18.614999771118164,-45.150001525878906 -20.475000381469727,-45.051998138427734 -22.33099937438965,-44.9010009765625 C-23.083999633789062,-44.84199905395508 -23.836000442504883,-44.77299880981445 -24.586999893188477,-44.69300079345703 C-26.301000595092773,-44.5099983215332 -25.59000015258789,-44.61600112915039 -22.45400047302246,-45.01100158691406 C-23.209999084472656,-45.51599884033203 -27.410999298095703,-44.176998138427734 -28.340999603271484,-43.97800064086914 C-30.0310001373291,-43.617000579833984 -31.70599937438965,-43.198001861572266 -33.3650016784668,-42.71699905395508 C-36.57099914550781,-41.78799819946289 -39.632999420166016,-40.534000396728516 -42.72800064086914,-39.3129997253418 C-43.81999969482422,-38.88100051879883 -44.90800094604492,-38.391998291015625 -46.020999908447266,-38.01300048828125 C-45.21099853515625,-38.28900146484375 -44.582000732421875,-38.50400161743164 -44.10100173950195,-38.66899871826172 C-42.801998138427734,-39.137001037597656 -41.93199920654297,-39.415000915527344 -44.10100173950195,-38.66899871826172 C-44.900001525878906,-38.38199996948242 -45.86000061035156,-38.02299880981445 -46.369998931884766,-37.78799819946289 C-46.926998138427734,-37.53200149536133 -47.470001220703125,-37.249000549316406 -48.00699996948242,-36.95500183105469 C-35.76100158691406,7.473999977111816 4.833000183105469,31.934999465942383 47.972999572753906,45.51599884033203 C47.992000579833984,45.02000045776367 48.00699996948242,44.525001525878906 48,44.02899932861328z"></path></g><g opacity="1" transform="matrix(1,0,0,1,301.2720031738281,145.5399932861328)"><path fill="rgb(65,63,63)" fill-opacity="1" d=" M46.082000732421875,-26.847000122070312 C46.040000915527344,-28.138999938964844 45.915000915527344,-29.427000045776367 45.869998931884766,-30.718000411987305 C45.8650016784668,-30.843000411987305 45.86199951171875,-30.95400047302246 45.85900115966797,-31.062999725341797 C45.42300033569336,-33.17499923706055 44.994998931884766,-35.25899887084961 44.297000885009766,-37.3129997253418 C43.928001403808594,-37.749000549316406 43.667999267578125,-38.303001403808594 43.529998779296875,-38.7130012512207 C43.15399932861328,-39.520999908447266 42.80799865722656,-40.393001556396484 42.54999923706055,-40.86199951171875 C41.409000396728516,-42.93600082397461 40.18199920654297,-44.96500015258789 38.9739990234375,-47.00299835205078 C38.89899826049805,-47.12900161743164 38.82899856567383,-47.25600051879883 38.755001068115234,-47.38199996948242 C1.9290000200271606,-42.000999450683594 -46.20399856567383,17.4950008392334 -45.47100067138672,47.37799835205078 C-45.255001068115234,47.38100051879883 -45.03799819946289,47.38199996948242 -44.81999969482422,47.375 C-44.77000045776367,47.374000549316406 -44.707000732421875,47.369998931884766 -44.6349983215332,47.36399841308594 C-38.24800109863281,46.2859992980957 -31.8799991607666,45.111000061035156 -25.5939998626709,43.56700134277344 C-20.891000747680664,42.4119987487793 -16.29199981689453,40.999000549316406 -11.746999740600586,39.36899948120117 C-11.444000244140625,39.1609992980957 -11.053000450134277,38.9640007019043 -10.631999969482422,38.7760009765625 C-8.34000015258789,28.618000030517578 2.8980000019073486,10.928000450134277 15.5649995803833,-0.33899998664855957 C21.468000411987305,-5.5879998207092285 37.191001892089844,-11.930999755859375 45.87200164794922,-15.649999618530273 C46.082000732421875,-19.378999710083008 46.20500183105469,-23.11199951171875 46.082000732421875,-26.847000122070312z"></path><path stroke-linecap="butt" stroke-linejoin="miter" fill-opacity="0" stroke-miterlimit="10" stroke="rgb(65,63,63)" stroke-opacity="1" stroke-width="2" d=" M46.082000732421875,-26.847000122070312 C46.040000915527344,-28.138999938964844 45.915000915527344,-29.427000045776367 45.869998931884766,-30.718000411987305 C45.8650016784668,-30.843000411987305 45.86199951171875,-30.95400047302246 45.85900115966797,-31.062999725341797 C45.42300033569336,-33.17499923706055 44.994998931884766,-35.25899887084961 44.297000885009766,-37.3129997253418 C43.928001403808594,-37.749000549316406 43.667999267578125,-38.303001403808594 43.529998779296875,-38.7130012512207 C43.15399932861328,-39.520999908447266 42.80799865722656,-40.393001556396484 42.54999923706055,-40.86199951171875 C41.409000396728516,-42.93600082397461 40.18199920654297,-44.96500015258789 38.9739990234375,-47.00299835205078 C38.89899826049805,-47.12900161743164 38.82899856567383,-47.25600051879883 38.755001068115234,-47.38199996948242 C1.9290000200271606,-42.000999450683594 -46.20399856567383,17.4950008392334 -45.47100067138672,47.37799835205078 C-45.255001068115234,47.38100051879883 -45.03799819946289,47.38199996948242 -44.81999969482422,47.375 C-44.77000045776367,47.374000549316406 -44.707000732421875,47.369998931884766 -44.6349983215332,47.36399841308594 C-38.24800109863281,46.2859992980957 -31.8799991607666,45.111000061035156 -25.5939998626709,43.56700134277344 C-20.891000747680664,42.4119987487793 -16.29199981689453,40.999000549316406 -11.746999740600586,39.36899948120117 C-11.444000244140625,39.1609992980957 -11.053000450134277,38.9640007019043 -10.631999969482422,38.7760009765625 C-8.34000015258789,28.618000030517578 2.8980000019073486,10.928000450134277 15.5649995803833,-0.33899998664855957 C21.468000411987305,-5.5879998207092285 37.191001892089844,-11.930999755859375 45.87200164794922,-15.649999618530273 C46.082000732421875,-19.378999710083008 46.20500183105469,-23.11199951171875 46.082000732421875,-26.847000122070312z"></path></g><g opacity="1" transform="matrix(1,0,0,1,296.1340026855469,210.88400268554688)"><path fill="rgb(65,63,63)" fill-opacity="1" d=" M39.82400131225586,-5.894999980926514 C32.04600143432617,-11.508999824523926 24.466999053955078,-17.219999313354492 17.42300033569336,-23.625999450683594 C5.4629998207092285,-16.131999969482422 -22.440000534057617,-7.511000156402588 -44.22800064086914,-7.271999835968018 C-43.78499984741211,-4.296000003814697 -43.375,-1.315000057220459 -42.965999603271484,1.6670000553131104 C-42.68600082397461,3.7079999446868896 -42.297000885009766,5.769000053405762 -42.137001037597656,7.822000026702881 C-42.89099884033203,-1.8669999837875366 -41.250999450683594,14.22700023651123 -41.41899871826172,12.956000328063965 C-40.95000076293945,16.506000518798828 -40.630001068115234,20.06999969482422 -40.59400177001953,23.625999450683594 C-10.468999862670898,23.121000289916992 19.229999542236328,13.788999557495117 44.22800064086914,-2.622999906539917 C42.749000549316406,-3.7149999141693115 41.292999267578125,-4.835000038146973 39.82400131225586,-5.894999980926514z"></path><path stroke-linecap="butt" stroke-linejoin="miter" fill-opacity="0" stroke-miterlimit="10" stroke="rgb(65,63,63)" stroke-opacity="1" stroke-width="2" d=" M39.82400131225586,-5.894999980926514 C32.04600143432617,-11.508999824523926 24.466999053955078,-17.219999313354492 17.42300033569336,-23.625999450683594 C5.4629998207092285,-16.131999969482422 -22.440000534057617,-7.511000156402588 -44.22800064086914,-7.271999835968018 C-43.78499984741211,-4.296000003814697 -43.375,-1.315000057220459 -42.965999603271484,1.6670000553131104 C-42.68600082397461,3.7079999446868896 -42.297000885009766,5.769000053405762 -42.137001037597656,7.822000026702881 C-42.89099884033203,-1.8669999837875366 -41.250999450683594,14.22700023651123 -41.41899871826172,12.956000328063965 C-40.95000076293945,16.506000518798828 -40.630001068115234,20.06999969482422 -40.59400177001953,23.625999450683594 C-10.468999862670898,23.121000289916992 19.229999542236328,13.788999557495117 44.22800064086914,-2.622999906539917 C42.749000549316406,-3.7149999141693115 41.292999267578125,-4.835000038146973 39.82400131225586,-5.894999980926514z"></path></g><g opacity="1" transform="matrix(1,0,0,1,275.89898681640625,283.4360046386719)"><path fill="rgb(65,63,63)" fill-opacity="1" d=" M22.451000213623047,22.291000366210938 C11.899999618530273,1.2430000305175781 9.871999740600586,-17.136999130249023 8.557000160217285,-43.165000915527344 C-1.4259999990463257,-41.23500061035156 -20.10700035095215,-40.400001525878906 -20.10700035095215,-40.400001525878906 C-22.450000762939453,-17.42300033569336 -16.68899917602539,21.357999801635742 1.5679999589920044,43.165000915527344 C7.513999938964844,35.33100128173828 14.454000473022461,28.054000854492188 22.451000213623047,22.291000366210938z"></path><path stroke-linecap="butt" stroke-linejoin="miter" fill-opacity="0" stroke-miterlimit="10" stroke="rgb(65,63,63)" stroke-opacity="1" stroke-width="2" d=" M22.451000213623047,22.291000366210938 C11.899999618530273,1.2430000305175781 9.871999740600586,-17.136999130249023 8.557000160217285,-43.165000915527344 C-1.4259999990463257,-41.23500061035156 -20.10700035095215,-40.400001525878906 -20.10700035095215,-40.400001525878906 C-22.450000762939453,-17.42300033569336 -16.68899917602539,21.357999801635742 1.5679999589920044,43.165000915527344 C7.513999938964844,35.33100128173828 14.454000473022461,28.054000854492188 22.451000213623047,22.291000366210938z"></path></g><g opacity="1" transform="matrix(1,0,0,1,198.1750030517578,264.7349853515625)"><path fill="rgb(65,63,63)" fill-opacity="1" d=" M45.507999420166016,-22.4060001373291 C12.368000030517578,-23.81800079345703 -30.520000457763672,-13.461999893188477 -48.40999984741211,3.4489998817443848 C-48.16699981689453,3.615999937057495 -47.91899871826172,3.7769999504089355 -47.678001403808594,3.946000099182129 C-47.51300048828125,4.013000011444092 -47.3489990234375,4.080999851226807 -47.183998107910156,4.14900016784668 C-42.525001525878906,6.0920000076293945 -38.56100082397461,8.538999557495117 -34.55099868774414,11.545999526977539 C-29.797000885009766,15.11299991607666 -24.608999252319336,19.198999404907227 -20.214000701904297,23.81800079345703 C-14.508000373840332,16.70400047302246 14.371999740600586,5.854000091552734 48.40999984741211,9.144000053405762 C45.12099838256836,-2.2980000972747803 45.507999420166016,-22.4060001373291 45.507999420166016,-22.4060001373291z"></path><path stroke-linecap="butt" stroke-linejoin="miter" fill-opacity="0" stroke-miterlimit="10" stroke="rgb(65,63,63)" stroke-opacity="1" stroke-width="2" d=" M45.507999420166016,-22.4060001373291 C12.368000030517578,-23.81800079345703 -30.520000457763672,-13.461999893188477 -48.40999984741211,3.4489998817443848 C-48.16699981689453,3.615999937057495 -47.91899871826172,3.7769999504089355 -47.678001403808594,3.946000099182129 C-47.51300048828125,4.013000011444092 -47.3489990234375,4.080999851226807 -47.183998107910156,4.14900016784668 C-42.525001525878906,6.0920000076293945 -38.56100082397461,8.538999557495117 -34.55099868774414,11.545999526977539 C-29.797000885009766,15.11299991607666 -24.608999252319336,19.198999404907227 -20.214000701904297,23.81800079345703 C-14.508000373840332,16.70400047302246 14.371999740600586,5.854000091552734 48.40999984741211,9.144000053405762 C45.12099838256836,-2.2980000972747803 45.507999420166016,-22.4060001373291 45.507999420166016,-22.4060001373291z"></path></g><g opacity="1" transform="matrix(1,0,0,1,218.50999450683594,189.8939971923828)"><path fill="rgb(65,63,63)" fill-opacity="1" d=" M25.542999267578125,43.082000732421875 C23.211999893188477,-9.692000389099121 2.0369999408721924,-40.3120002746582 -5.545000076293945,-45.78900146484375 C-7.224999904632568,-42.65299987792969 -9.015000343322754,-39.577999114990234 -11.019000053405762,-36.632999420166016 C-14.27400016784668,-31.847999572753906 -18.05699920654297,-27.356000900268555 -21.884000778198242,-22.990999221801758 C-23.097000122070312,-21.608999252319336 -24.325000762939453,-20.239999771118164 -25.542999267578125,-18.863000869750977 C-15.923999786376953,2.117000102996826 -9.333999633789062,22.732999801635742 -7.642000198364258,45.78900146484375 C0,44.61600112915039 10.055000305175781,42.93899917602539 25.542999267578125,43.082000732421875z"></path><path stroke-linecap="butt" stroke-linejoin="miter" fill-opacity="0" stroke-miterlimit="10" stroke="rgb(65,63,63)" stroke-opacity="1" stroke-width="2" d=" M25.542999267578125,43.082000732421875 C23.211999893188477,-9.692000389099121 2.0369999408721924,-40.3120002746582 -5.545000076293945,-45.78900146484375 C-7.224999904632568,-42.65299987792969 -9.015000343322754,-39.577999114990234 -11.019000053405762,-36.632999420166016 C-14.27400016784668,-31.847999572753906 -18.05699920654297,-27.356000900268555 -21.884000778198242,-22.990999221801758 C-23.097000122070312,-21.608999252319336 -24.325000762939453,-20.239999771118164 -25.542999267578125,-18.863000869750977 C-15.923999786376953,2.117000102996826 -9.333999633789062,22.732999801635742 -7.642000198364258,45.78900146484375 C0,44.61600112915039 10.055000305175781,42.93899917602539 25.542999267578125,43.082000732421875z"></path></g></g></g></svg>