<svg xmlns="http://www.w3.org/2000/svg" xmlns:xlink="http://www.w3.org/1999/xlink" viewBox="0 0 512 512" width="512" height="512" style="width: 100%; height: 100%; transform: translate3d(0,0,0);" preserveAspectRatio="xMidYMid meet"><defs><clipPath id="__lottie_element_51750"><rect width="512" height="512" x="0" y="0"></rect></clipPath></defs><g clip-path="url(#__lottie_element_51750)"><g style="display: block;" transform="matrix(1.0299999713897705,0,0,1.0299999713897705,-3936.02197265625,-1310.41748046875)" opacity="1"><g opacity="1" transform="matrix(1,0,0,1,0,0)"><g opacity="1" transform="matrix(1,0,0,1,4068.73095703125,1675.0389404296875)"><path fill="rgb(0,0,0)" fill-opacity="1" d=" M-11.413999557495117,89.16899871826172 C-21.58300018310547,87.55599975585938 -31.288000106811523,83.43900299072266 -40.73899841308594,79.41100311279297 C-64.2509994506836,69.58499908447266 -86.21800231933594,54.71099853515625 -94.34600067138672,29.850000381469727 C-96.81600189208984,21.98200035095215 -97.62000274658203,13.949999809265137 -99.20099639892578,6.007999897003174 C-101.18399810791016,-3.6480000019073486 -105.60199737548828,0.5379999876022339 -107.9530029296875,6.809000015258789 C-111.51599884033203,15.57699966430664 -111.84300231933594,25.795000076293945 -115.8949966430664,34.66299819946289 C-122.40399932861328,48.96699905395508 -134.24099731445312,39.25199890136719 -140.91400146484375,30.111000061035156 C-148.7259979248047,19.541000366210938 -156.47999572753906,6.331999778747559 -156.4980010986328,-6.895999908447266 C-153.5989990234375,-33.763999938964844 -133.0399932861328,-61.83100128173828 -113.20099639892578,-79.46700286865234 C-106.31700134277344,-85.64399719238281 -97.16200256347656,-91.35700225830078 -91.73999786376953,-80.16100311279297 C-81.8270034790039,-55.209999084472656 -76.61299896240234,-27.64699935913086 -59.20600128173828,-6.459000110626221 C-45.19200134277344,11.071999549865723 -23.04599952697754,21.43600082397461 -0.6769999861717224,21.3439998626709 C14.017000198364258,21.371000289916992 28.701000213623047,16.927000045776367 40.779998779296875,8.411999702453613 C63.17499923706055,-6.953999996185303 71.50299835205078,-33.847999572753906 80.76399993896484,-57.99800109863281 C83.28399658203125,-64.41100311279297 85.86699676513672,-70.96299743652344 88.71399688720703,-77.19400024414062 C90.30599975585938,-80.68800354003906 93.25199890136719,-84.61699676513672 96.7750015258789,-85.06500244140625 C103.75599670410156,-85.82599639892578 109.72699737548828,-78.95899963378906 114.51300048828125,-74.44599914550781 C130.47300720214844,-58.24300003051758 143.00799560546875,-39.349998474121094 152.03399658203125,-18.384000778198242 C154.25599670410156,-13.093000411987305 156.4980010986328,-7.26200008392334 156.0590057373047,-1.5190000534057617 C155.16299438476562,9.128999710083008 144.56399536132812,16.788000106811523 137.75599670410156,24.795000076293945 C133.6230010986328,29.226999282836914 129.5959930419922,33.8129997253418 125.40699768066406,38.178001403808594 C122.83300018310547,40.75699996948242 119.90699768066406,43.45199966430664 116.27400207519531,44.23099899291992 C101.66000366210938,46.5989990234375 110.10299682617188,8.78499984741211 100.56999969482422,1.3300000429153442 C94.71800231933594,-2.3970000743865967 91.88099670410156,10.755999565124512 90.28900146484375,14.885000228881836 C78.99400329589844,50.23699951171875 59.430999755859375,68.36699676513672 26.014999389648438,83.28600311279297 C14.251999855041504,88.43299865722656 1.371999979019165,91.35700225830078 -11.413999557495117,89.16899871826172z"></path></g><g opacity="1" transform="matrix(1,0,0,1,4068.69091796875,1482.696044921875)"><path fill="rgb(0,0,0)" fill-opacity="1" d=" M-159.73199462890625,-197.98199462890625 C-153.86399841308594,-204.6179962158203 -149.57000732421875,-205.6269989013672 -142.2570037841797,-200.74600219726562 C-124.53700256347656,-188.92100524902344 -107.19200134277344,-176.53500366210938 -89.77100372314453,-164.26699829101562 C-78.08999633789062,-154.49600219726562 -72.46299743652344,-147.53599548339844 -56.44599914550781,-151.53700256347656 C-25.08799934387207,-158.2530059814453 7.644000053405762,-158.43299865722656 39.35200119018555,-154.4429931640625 C49.678001403808594,-153.36900329589844 60.31999969482422,-149.58599853515625 70.67400360107422,-151.7239990234375 C75.50299835205078,-152.81300354003906 79.51599884033203,-155.68899536132812 83.68800354003906,-158.85699462890625 C100.19499969482422,-175.67100524902344 120.47799682617188,-187.3730010986328 140.375,-199.4949951171875 C150.54600524902344,-205.6909942626953 155.18699645996094,-204.5570068359375 162.2530059814453,-194.8719940185547 C179.31700134277344,-171.48599243164062 187.08900451660156,-144.90199279785156 187.6529998779297,-116.27200317382812 C188.072998046875,-95.01399993896484 188.30599975585938,-73.74099731445312 187.79299926757812,-52.48400115966797 C187.6230010986328,-43.380001068115234 187.15699768066406,-33.974998474121094 189.66200256347656,-25.143999099731445 C191.40699768066406,-18.868000030517578 194.58900451660156,-13.0600004196167 197.58599853515625,-7.284999847412109 C205.2550048828125,7.179999828338623 210.57400512695312,22.69099998474121 215.23300170898438,38.349998474121094 C219.0260009765625,52.62900161743164 228.8459930419922,93.77899932861328 223.62100219726562,106.05000305175781 C217.25799560546875,113.76899719238281 205.2259979248047,96.95899963378906 200.20799255371094,92.92500305175781 C184.66400146484375,77.84100341796875 170.9219970703125,60.290000915527344 152.41799926757812,48.56100082397461 C147.62100219726562,45.382999420166016 137.718994140625,42.25 142.218994140625,51.40800094604492 C148.53399658203125,62.63999938964844 160.28799438476562,71.46499633789062 168.697998046875,81.2969970703125 C186.2169952392578,100.89399719238281 204.36500549316406,128.55499267578125 192.1540069580078,155.14300537109375 C188.29400634765625,163.81300354003906 176.33399963378906,189.66400146484375 166.85800170898438,172.82000732421875 C155.12399291992188,146.572998046875 139.1739959716797,122.9280014038086 117.84600067138672,103.48799896240234 C109.18099975585938,96.27300262451172 97.5780029296875,83.6719970703125 85.3759994506836,87.63800048828125 C76.9469985961914,91.4739990234375 72.28800201416016,104.38800048828125 68.58399963378906,113.91500091552734 C61.73899841308594,131.47000122070312 56.53200149536133,149.73699951171875 47.17399978637695,166.15699768066406 C32.540000915527344,194.3300018310547 -8.52299976348877,205.69000244140625 -33.95600128173828,185.9980010986328 C-42.93600082397461,179.1060028076172 -48.92300033569336,169.1959991455078 -53.672000885009766,159.0570068359375 C-61.2239990234375,142.4219970703125 -66.9280014038086,125.02999877929688 -73.59500122070312,108.03500366210938 C-77.09500122070312,99.13800048828125 -81.50900268554688,87.51300048828125 -91.83899688720703,86.62200164794922 C-120.04199981689453,87.88600158691406 -155.46800231933594,144.052001953125 -170.3300018310547,166.4550018310547 C-187.9340057373047,195.86099243164062 -202.26600646972656,158.2519989013672 -199.75799560546875,139.86599731445312 C-198.73399353027344,100.75199890136719 -171.9219970703125,80.55699920654297 -147.14700317382812,54.92599868774414 C-137.97799682617188,44.617000579833984 -144.18800354003906,42.7869987487793 -153.44200134277344,48.689998626708984 C-164.35000610351562,55.4739990234375 -174.10899353027344,63.98400115966797 -182.906005859375,73.36699676513672 C-189.2010040283203,79.70899963378906 -219.3090057373047,114.02300262451172 -226.77000427246094,105.93800354003906 C-228.8459930419922,103.14600372314453 -228.156005859375,97.3290023803711 -227.50399780273438,93.6510009765625 C-226.13800048828125,85.80999755859375 -224.80999755859375,77.85299682617188 -223.6529998779297,69.94200134277344 C-219.9720001220703,42.9010009765625 -211.29400634765625,17.229000091552734 -198.13499450683594,-6.560999870300293 C-194.51600646972656,-13.255000114440918 -190.64599609375,-20.065000534057617 -188.73500061035156,-27.434999465942383 C-186.4969940185547,-35.75899887084961 -187.05499267578125,-44.48500061035156 -187.63400268554688,-53.007999420166016 C-189.78599548339844,-81.58399963378906 -188.99400329589844,-110.28399658203125 -186.28599548339844,-138.80099487304688 C-184.093994140625,-161.343994140625 -174.71099853515625,-181.04200744628906 -159.73199462890625,-197.98199462890625z M-148.3780059814453,-65.11199951171875 C-143.06700134277344,-63.025001525878906 -136.7169952392578,-69.93399810791016 -133.87399291992188,-74.1449966430664 C-129.2729949951172,-81.25399780273438 -130.43699645996094,-89.69100189208984 -131.66299438476562,-98.25900268554688 C-132.17999267578125,-102.94100189208984 -133.6020050048828,-112.10299682617188 -127.0790023803711,-112.6709976196289 C-120.86100006103516,-112.31800079345703 -115.81900024414062,-105.73899841308594 -110.76200103759766,-102.57099914550781 C-104.375,-97.66100311279297 -93.21399688720703,-98.07499694824219 -91.95500183105469,-107.03199768066406 C-91.74199676513672,-113.4260025024414 -97.50499725341797,-118.64199829101562 -101.54399871826172,-123.125 C-109.60299682617188,-131.46400451660156 -136.09100341796875,-154.95599365234375 -147.6490020751953,-147.177001953125 C-154.0019989013672,-142.06199645996094 -152.4600067138672,-129.03799438476562 -153.23899841308594,-121.4280014038086 C-153.74899291992188,-107.97799682617188 -153.95700073242188,-95.552001953125 -153.09800720214844,-81.76699829101562 C-152.4770050048828,-76.52400207519531 -153.16900634765625,-68.375 -148.48599243164062,-65.16799926757812 C-148.48599243164062,-65.16799926757812 -148.3780059814453,-65.11199951171875 -148.3780059814453,-65.11199951171875z M148.24899291992188,-68.5719985961914 C153.50100708007812,-72.22200012207031 152.31500244140625,-80.90699768066406 152.69200134277344,-86.71800231933594 C152.75900268554688,-99.31900024414062 152.8179931640625,-111.96099853515625 152.65199279785156,-124.56700134277344 C152.46800231933594,-130.15499877929688 152.43099975585938,-136.23699951171875 150.57899475097656,-141.49600219726562 C147.0399932861328,-151.70599365234375 136.5330047607422,-148.17599487304688 129.43800354003906,-143.9969940185547 C118.00900268554688,-137.48899841308594 108.23500061035156,-129.0290069580078 98.60199737548828,-119.52300262451172 C95.86699676513672,-116.70999908447266 92.22200012207031,-113.10600280761719 92.74700164794922,-109.08300018310547 C94.30000305175781,-102.39600372314453 105.69300079345703,-101.31999969482422 111.31099700927734,-104.49099731445312 C116.43499755859375,-106.49299621582031 121.89099884033203,-114.03600311279297 127.59600067138672,-112.80999755859375 C132.08299255371094,-110.64700317382812 130.2209930419922,-102.93299865722656 129.77499389648438,-97.99500274658203 C129.3699951171875,-94.56600189208984 129.1529998779297,-91.0719985961914 129.59100341796875,-87.6500015258789 C130.27699279785156,-82.01499938964844 132.8280029296875,-76.66400146484375 136.81500244140625,-72.61799621582031 C139.78199768066406,-69.61000061035156 144.31199645996094,-66.5770034790039 148.1320037841797,-68.50800323486328 C148.1320037841797,-68.50800323486328 148.24899291992188,-68.5719985961914 148.24899291992188,-68.5719985961914z M-3.2699999809265137,-79.3219985961914 C-7.681000232696533,-79.19300079345703 -11.258999824523926,-75.47100067138672 -14.293000221252441,-72.4489974975586 C-18.83099937438965,-67.79000091552734 -23.349000930786133,-63.391998291015625 -27.422000885009766,-58.79499816894531 C-37.2599983215332,-48.215999603271484 -31.0310001373291,-41.25699996948242 -22.160999298095703,-32.89699935913086 C-18.30699920654297,-29.13800048828125 -14.553000450134277,-25.110000610351562 -10.604000091552734,-21.47599983215332 C-5.125,-16.233999252319336 0.6710000038146973,-16.45800018310547 6.140999794006348,-21.60700035095215 C10.340999603271484,-25.406999588012695 14.401000022888184,-29.551000595092773 18.514999389648438,-33.470001220703125 C26.913999557495117,-41.3489990234375 33.63600158691406,-47.45800018310547 24.141000747680664,-57.222999572753906 C18.86199951171875,-62.77000045776367 13.067999839782715,-67.86199951171875 7.466000080108643,-73.24800109863281 C4.534999847412109,-76.0009994506836 1.0369999408721924,-79.31300354003906 -3.1070001125335693,-79.3239974975586 C-3.1070001125335693,-79.3239974975586 -3.2699999809265137,-79.3219985961914 -3.2699999809265137,-79.3219985961914z M0.9710000157356262,126.91500091552734 C-11.265000343322754,125.76799774169922 -25.611000061035156,131.17999267578125 -27.690000534057617,144.2740020751953 C-30.565000534057617,166.78700256347656 -1.7690000534057617,181.2760009765625 15.710000038146973,166.1739959716797 C20.31999969482422,162.42300415039062 24.132999420166016,156.8159942626953 25.243999481201172,151.0570068359375 C28.1200008392334,137.07200622558594 13.779999732971191,127.83300018310547 1.1829999685287476,126.93499755859375 C1.1829999685287476,126.93499755859375 0.9710000157356262,126.91500091552734 0.9710000157356262,126.91500091552734z M-98.41699981689453,8.336000442504883 C-100.24700164794922,11.244000434875488 -98.84100341796875,15.413999557495117 -97.34700012207031,18.402000427246094 C-90.27200317382812,32.749000549316406 -73.99299621582031,39.069000244140625 -57.18299865722656,39.650001525878906 C-44.78900146484375,39.654998779296875 -44.78300094604492,28.55699920654297 -48.7859992980957,19.663999557495117 C-53.26599884033203,8.885000228881836 -65.8270034790039,6.738999843597412 -76.75800323486328,5.644000053405762 C-82.55599975585938,5.427999973297119 -94.62699890136719,3.128999948501587 -98.33999633789062,8.220000267028809 C-98.33999633789062,8.220000267028809 -98.41699981689453,8.336000442504883 -98.41699981689453,8.336000442504883z M95.55799865722656,8.633000373840332 C91.24700164794922,2.63700008392334 75.55999755859375,6.015999794006348 69.03199768066406,7.123000144958496 C56.79999923706055,9.418999671936035 45.70399856567383,13.343999862670898 44.314998626708984,26.493999481201172 C43.07600021362305,35.332000732421875 46.67900085449219,40.04600143432617 56.25199890136719,39.43199920654297 C60.52899932861328,39.29499816894531 65.13899993896484,38.56700134277344 69.31999969482422,37.505001068115234 C80.31099700927734,35.08100128173828 89.44300079345703,27.96500015258789 94.4260025024414,17.888999938964844 C95.83599853515625,15.156999588012695 97.2229995727539,11.48900032043457 95.62699890136719,8.74899959564209 C95.62699890136719,8.74899959564209 95.55799865722656,8.633000373840332 95.55799865722656,8.633000373840332z"></path></g></g></g></g></svg>