<svg xmlns="http://www.w3.org/2000/svg" xmlns:xlink="http://www.w3.org/1999/xlink" viewBox="0 0 512 512" width="512" height="512" style="width: 100%; height: 100%; transform: translate3d(0,0,0);" preserveAspectRatio="xMidYMid meet"><defs><clipPath id="__lottie_element_52706"><rect width="512" height="512" x="0" y="0"></rect></clipPath></defs><g clip-path="url(#__lottie_element_52706)"><g style="display: block;" transform="matrix(0.9816271662712097,-0.1908089965581894,0.1908089965581894,0.9816271662712097,-75.1436767578125,26.550537109375)" opacity="1"><g opacity="1" transform="matrix(1.0476139783859253,0.10345789790153503,-0.10345789790153503,1.0476139783859253,197.63800048828125,340.44000244140625)"><path fill="rgb(0,0,0)" fill-opacity="1" d=" M234.7480010986328,-177.50100708007812 C226.69900512695312,-195.0959930419922 204.6230010986328,-218.78900146484375 190.052001953125,-229.48800659179688 C185.49600219726562,-232.83299255371094 169.21200561523438,-222.87600708007812 157.36900329589844,-214.23300170898438 C150.63600158691406,-209.32000732421875 147.2259979248047,-206.96800231933594 152.26800537109375,-197.02200317382812 C155.3350067138672,-190.9709930419922 73.2750015258789,-134.2220001220703 65.90899658203125,-132.02099609375 C48.141998291015625,-126.71099853515625 -8.86400032043457,-126.3759994506836 -24.423999786376953,-120.25299835205078 C-28.40999984741211,-118.68399810791016 -41.516998291015625,-105.86399841308594 -58.68000030517578,-89.73699951171875 C-63.46699905395508,-85.23899841308594 -32.939998626708984,-25.485000610351562 30.798999786376953,24.722999572753906 C33.38800048828125,26.761999130249023 -58.39799880981445,118.34500122070312 -62.6150016784668,115.38400268554688 C-146.17100524902344,56.729000091552734 -149.88600158691406,2.183000087738037 -153.58799743652344,5.065999984741211 C-159.36199951171875,9.562999725341797 -167.74200439453125,17.72599983215332 -170.0030059814453,21.086999893188477 C-174.59300231933594,27.90999984741211 -181.22500610351562,68.58799743652344 -132.85800170898438,119.27899932861328 C-87.56900024414062,166.7449951171875 -43.24100112915039,170.4709930419922 -38.44599914550781,167.66299438476562 C-34.479000091552734,165.33999633789062 100.52999877929688,35.347999572753906 109.78600311279297,21 C118.69000244140625,7.197000026702881 120.0979995727539,-44.159000396728516 127.73300170898438,-58.79399871826172 C131.6739959716797,-66.3479995727539 189.01199340820312,-131.04299926757812 186.46600341796875,-134.30099487304688 C174.1540069580078,-150.05599975585938 168.15699768066406,-166.77699279785156 170.53199768066406,-168.4929962158203 C172.59800720214844,-169.98500061035156 175.07200622558594,-161.92300415039062 196.35699462890625,-147.13699340820312 C203.47999572753906,-142.18899536132812 211.98599243164062,-139.47300720214844 216.6300048828125,-146.65499877929688 C222.82000732421875,-156.22900390625 237.38699340820312,-171.73300170898438 234.7480010986328,-177.50100708007812z M-62.44599914550781,103.81900024414062 C-97.8290023803711,77.64900207519531 -129.79600524902344,38.30699920654297 -144.2169952392578,-2.7070000171661377 C-145.4149932861328,-6.114999771118164 -68.14099884033203,-78.83000183105469 -67.35600280761719,-76.66300201416016 C-52.25400161743164,-34.96099853515625 -5.421999931335449,5.879000186920166 16.511999130249023,25.17099952697754 C18.476999282836914,26.89900016784668 -60.52199935913086,105.24199676513672 -62.44599914550781,103.81900024414062z M16.070999145507812,-81.67500305175781 C14.09000015258789,-92.87300109863281 25.62700080871582,-102.24500274658203 39.41299819946289,-104.70099639892578 C54.14799880981445,-107.32599639892578 65.60299682617188,-105.9469985961914 68.72899627685547,-95.48400115966797 C72.11699676513672,-84.1449966430664 61.84600067138672,-72.52300262451172 46.15800094604492,-69.68699645996094 C29.277000427246094,-66.63500213623047 17.844999313354492,-71.64900207519531 16.070999145507812,-81.67500305175781z"></path></g><g opacity="1" transform="matrix(0.86954665184021,0.49385079741477966,-0.49385079741477966,0.86954665184021,517.9409790039062,122.20500183105469)"><path fill="rgb(0,0,0)" fill-opacity="1" d=" M-18.156999588012695,-16.79400062561035 C-23.558000564575195,-25.131999969482422 -22.9689998626709,-28.13599967956543 -14.710000038146973,-33.334999084472656 C-3.877000093460083,-40.15399932861328 10.303999900817871,-35.20899963378906 29.25,-15.875 C45.933998107910156,1.149999976158142 50.33399963378906,20.267000198364258 42.30099868774414,30.238000869750977 C36.39899826049805,37.56399917602539 31.628000259399414,37.18899917602539 26.969999313354492,33.85900115966797 C11.314000129699707,22.666000366210938 5.173999786376953,14.267000198364258 5.735000133514404,16.632999420166016 C6.913000106811523,21.604000091552734 8.217000007629395,21.98200035095215 13.02400016784668,29.798999786376953 C15.755000114440918,34.2400016784668 0.14800000190734863,48.98400115966797 -5.791999816894531,48.7140007019043 C-23.33300018310547,47.91600036621094 -40.724998474121094,20.361000061035156 -36.3129997253418,10.838000297546387 C-31.785999298095703,1.0670000314712524 -13.996000289916992,-10.369000434875488 -18.156999588012695,-16.79400062561035z"></path></g><g opacity="1" transform="matrix(0.590985894203186,0.8066819310188293,-0.8066819310188293,0.590985894203186,457.74200439453125,251.7949981689453)"><path fill="rgb(0,0,0)" fill-opacity="1" d=" M-57.862998962402344,-65.11799621582031 C-23.92300033569336,-79.56500244140625 35.854000091552734,-38.14400100708008 72.89099884033203,21.351999282836914 C99.48300170898438,64.06999969482422 42.880001068115234,94.08599853515625 26.966999053955078,48.237998962402344 C-12.446999549865723,-65.32099914550781 -63.018001556396484,-62.92399978637695 -57.862998962402344,-65.11799621582031z"></path></g><g opacity="1" transform="matrix(0.9904662370681763,-0.13775572180747986,0.13775572180747986,0.9904662370681763,521.2680053710938,233.79400634765625)"><path fill="rgb(0,0,0)" fill-opacity="1" d=" M-34.74700164794922,-72.39600372314453 C-12.20300006866455,-62.17399978637695 18.367000579833984,-31.083999633789062 16.441999435424805,4.182000160217285 C15.048999786376953,29.69700050354004 -14.130999565124512,33.2140007019043 -9.873000144958496,5.677999973297119 C-7.089000225067139,-12.324000358581543 -11.470999717712402,-31.92799949645996 -21.384000778198242,-45.46099853515625 C-24.04599952697754,-49.095001220703125 -36.12300109863281,-73.0199966430664 -34.74700164794922,-72.39600372314453z"></path></g><g opacity="1" transform="matrix(0.9360963702201843,-0.35174360871315,0.35174360871315,0.9360963702201843,368.8869934082031,91.21399688720703)"><path fill="rgb(0,0,0)" fill-opacity="1" d=" M49.60599899291992,33.09600067138672 C54.362998962402344,4.434999942779541 21.090999603271484,-33.768001556396484 -11.916000366210938,-33.92399978637695 C-52.57899856567383,-34.11600112915039 -43.957000732421875,-2.0859999656677246 -14.366999626159668,1.2929999828338623 C20.395999908447266,5.263000011444092 49.04999923706055,36.44900131225586 49.60599899291992,33.09600067138672z"></path></g></g></g></svg>