<svg xmlns="http://www.w3.org/2000/svg" xmlns:xlink="http://www.w3.org/1999/xlink" viewBox="0 0 512 512" width="512" height="512" style="width: 100%; height: 100%; transform: translate3d(0,0,0);" preserveAspectRatio="xMidYMid meet"><defs><clipPath id="__lottie_element_52648"><rect width="512" height="512" x="0" y="0"></rect></clipPath></defs><g clip-path="url(#__lottie_element_52648)"><g style="display: block;" transform="matrix(1,0,0,1,0,0)" opacity="1"><g opacity="1" transform="matrix(1,0,0,1,257.79998779296875,246.47999572753906)"><path fill="rgb(0,0,0)" fill-opacity="1" d=" M205.1999969482422,-68.4800033569336 C65.19999694824219,-53.47999954223633 -190.75,29.440000534057617 -172.8000030517578,20.520000457763672 C2.200000047683716,-66.4800033569336 216.1999969482422,-101.4800033569336 215.1999969482422,-118.4800033569336 C211.72999572753906,-177.39999389648438 100.76000213623047,-254.82000732421875 -62.79999923706055,-202.47999572753906 C-87.80000305175781,-194.47999572753906 -124.2699966430664,-137.77999877929688 -147.8000030517578,-102.4800033569336 C-175.8000030517578,-60.47999954223633 -234.5399932861328,-11.6899995803833 -229.8000030517578,2.5199999809265137 C-204.8000030517578,77.5199966430664 -212.8000030517578,195.52000427246094 -192.8000030517578,230.52000427246094 C-183.67999267578125,246.47999572753906 -158.60000610351562,240.17999267578125 -149.8000030517578,237.52000427246094 C167.1999969482422,141.52000427246094 169.1999969482422,185.52000427246094 188.67999267578125,166.52000427246094 C198.85000610351562,156.60000610351562 207.75999450683594,42.619998931884766 229.38999938964844,-43.47999954223633 C234.5399932861328,-63.970001220703125 217.55999755859375,-69.80000305175781 205.1999969482422,-68.4800033569336z M8.90999984741211,-78.13999938964844 C-4.699999809265137,-74.0199966430664 -18.06999969482422,-78.38999938964844 -20.950000762939453,-87.9000015258789 C-23.829999923706055,-97.41999816894531 -15.130000114440918,-108.47000122070312 -1.5199999809265137,-112.58999633789062 C12.09000015258789,-116.70999908447266 25.459999084472656,-112.33999633789062 28.34000015258789,-102.83000183105469 C31.219999313354492,-93.30999755859375 22.520000457763672,-82.26000213623047 8.90999984741211,-78.13999938964844z M-12.739999771118164,-193.47999572753906 C9.119999885559082,-200.10000610351562 33.849998474121094,-189.52999877929688 37.560001373291016,-177.25999450683594 C41.279998779296875,-165 24.56999969482422,-154.69000244140625 2.7100000381469727,-148.0800018310547 C-19.149999618530273,-141.4600067138672 -37.880001068115234,-139.0399932861328 -41.59000015258789,-151.3000030517578 C-45.29999923706055,-163.55999755859375 -34.59000015258789,-186.8699951171875 -12.739999771118164,-193.47999572753906z M-87.30000305175781,125.5199966430664 C-117.94999694824219,125.5199966430664 -142.8000030517578,100.66999816894531 -142.8000030517578,70.0199966430664 C-142.8000030517578,39.369998931884766 -117.94999694824219,18.520000457763672 -87.30000305175781,18.520000457763672 C-56.650001525878906,18.520000457763672 -31.799999237060547,39.369998931884766 -31.799999237060547,70.0199966430664 C-31.799999237060547,100.66999816894531 -56.650001525878906,125.5199966430664 -87.30000305175781,125.5199966430664z M59.70000076293945,143.02000427246094 C45.060001373291016,143.02000427246094 33.20000076293945,131.16000366210938 33.20000076293945,116.5199966430664 C33.20000076293945,101.87999725341797 45.060001373291016,90.0199966430664 59.70000076293945,90.0199966430664 C74.33999633789062,90.0199966430664 86.19999694824219,101.87999725341797 86.19999694824219,116.5199966430664 C86.19999694824219,131.16000366210938 74.33999633789062,143.02000427246094 59.70000076293945,143.02000427246094z M162.1999969482422,24.020000457763672 C158.97000122070312,46.709999084472656 141.6199951171875,61.52000045776367 118.69999694824219,61.52000045776367 C95.77999877929688,61.52000045776367 77.19999694824219,42.939998626708984 77.19999694824219,20.020000457763672 C77.19999694824219,-2.9000000953674316 96.20999908447266,-18.059999465942383 118.69999694824219,-22.479999542236328 C149.1999969482422,-28.479999542236328 166.1999969482422,-4.059999942779541 162.1999969482422,24.020000457763672z"></path></g></g></g></svg>