<svg xmlns="http://www.w3.org/2000/svg" xmlns:xlink="http://www.w3.org/1999/xlink" viewBox="0 0 512 512" width="512" height="512" style="width: 100%; height: 100%; transform: translate3d(0,0,0);" preserveAspectRatio="xMidYMid meet"><defs><clipPath id="__lottie_element_6062"><rect width="512" height="512" x="0" y="0"></rect></clipPath></defs><g clip-path="url(#__lottie_element_6062)"><g style="display: block;" transform="matrix(1,0,0,1,7.083984375,25.751022338867188)" opacity="1"><g opacity="1" transform="matrix(1,0,0,1,201.8459930419922,239.08299255371094)"><path fill="rgb(0,0,0)" fill-opacity="1" d=" M-125.27899932861328,-109.29299926757812 C-118.92900085449219,-32.83399963378906 -52.79199981689453,-3.121999979019165 -48.94300079345703,-11.793000221252441 C-44.92900085449219,-20.833999633789062 -101.26300048828125,-51.83300018310547 -99.93000030517578,-123.83300018310547 C-98.8010025024414,-184.83099365234375 -42.505001068115234,-238.83299255371094 31.070999145507812,-238.83299255371094 C110.07099914550781,-238.83299255371094 152.92799377441406,-190.7030029296875 158.0709991455078,-123.83300018310547 C165.0709991455078,-32.83300018310547 97.5479965209961,17.402999877929688 85.07099914550781,17.166000366210938 C-19.929000854492188,15.166000366210938 -67.93000030517578,49.66699981689453 -62.93000030517578,59.16699981689453 C-58.654998779296875,67.28900146484375 -5.928999900817871,44.16699981689453 68.07099914550781,49.16699981689453 C128.33599853515625,53.23899841308594 180.1529998779297,68.95099639892578 194.0709991455078,91.16699981689453 C197.68699645996094,96.93900299072266 201.5959930419922,177.6219940185547 194.0709991455078,185.16700744628906 C160.18499755859375,219.13900756835938 -20.26300048828125,238.83299255371094 -40.93000030517578,207.49899291992188 C-48.856998443603516,195.4810028076172 72.69200134277344,215.12399291992188 167.0709991455078,174.16700744628906 C184.73800659179688,166.5 101.57499694824219,149.46400451660156 28.070999145507812,160.16700744628906 C-38.16699981689453,169.81199645996094 -76.4000015258789,191.50999450683594 -92.93000030517578,174.16700744628906 C-113.26300048828125,152.83399963378906 -83.01100158691406,86.60299682617188 -94.93000030517578,84.16699981689453 C-140.5959930419922,74.83399963378906 -184.38800048828125,45.35900115966797 -190.92999267578125,-9.833000183105469 C-201.5959930419922,-99.83300018310547 -126.9800033569336,-129.7740020751953 -125.27899932861328,-109.29299926757812z"></path></g><g opacity="1" transform="matrix(1,0,0,1,410.25,190.94400024414062)"><path fill="rgb(0,0,0)" fill-opacity="1" d=" M-74.33300018310547,63.638999938964844 C16.51799964904785,-18.274999618530273 -35.91400146484375,-115.3550033569336 -17.33300018310547,-117.69400024414062 C78,-129.69400024414062 137.66700744628906,52.305999755859375 15.666999816894531,121.63899993896484 C1.4919999837875366,129.69500732421875 -10.034000396728516,102.9729995727539 -32.000999450683594,91.63899993896484 C-47.10499954223633,83.84600067138672 -94.66600036621094,81.9729995727539 -74.33300018310547,63.638999938964844z"></path></g></g></g></svg>