<svg xmlns="http://www.w3.org/2000/svg" xmlns:xlink="http://www.w3.org/1999/xlink" viewBox="0 0 512 512" width="512" height="512" style="width: 100%; height: 100%; transform: translate3d(0,0,0);" preserveAspectRatio="xMidYMid meet"><defs><clipPath id="__lottie_element_52618"><rect width="512" height="512" x="0" y="0"></rect></clipPath></defs><g clip-path="url(#__lottie_element_52618)"><g style="display: block;" transform="matrix(1,0,0,1,262.9469909667969,258.9530029296875)" opacity="1"><g opacity="1" transform="matrix(1,0,0,1,0,0)"><path fill="rgb(0,0,0)" fill-opacity="1" d=" M-43.77,0.43 C-44.24,1.39 -44.69,2.35 -45.13,3.31 C-58.03,3.55 -69.64,6.02 -78,10.02 C-80,-99.87 -22.48,-160.49 -22.48,-160.49 C-16.43,-120.4 17.42,-77.74 45.43,-48.44 C13.73,-49.05 -25.75,-36.2 -43.77,0.43z M211.19400024414062,0.43299999833106995 C188.6929931640625,-45.29499816894531 140.26300048828125,-53.96799850463867 111.82099914550781,-45.66600036621094 C17.507999420166016,-96.98400115966797 1.409999966621399,-200.30999755859375 1.409999966621399,-200.30999755859375 C3.4010000228881836,-214.2449951171875 -7.880000114440918,-234.81700134277344 -72.2490005493164,-237.4709930419922 C-136.6179962158203,-240.125 -242.79200744628906,-156.51300048828125 -212.92999267578125,-110.7249984741211 C-186.16900634765625,-69.69100189208984 -78.88500213623047,-130.63299560546875 -78.88500213623047,-130.63299560546875 C-105.15599822998047,-83.92900085449219 -112.87899780273438,-23.674999237060547 -115.13099670410156,5.160999774932861 C-143.9040069580078,-1.4470000267028809 -189.35400390625,8.319000244140625 -210.94000244140625,52.1870002746582 C-251.03599548339844,133.6719970703125 -200.78500366210938,216.80099487304688 -154.20199584960938,231.35800170898438 C-122.3499984741211,241.31199645996094 -97.46600341796875,231.35699462890625 -85.52100372314453,222.3990020751953 C-76.0199966430664,227.4429931640625 -55.0099983215332,243.29100036621094 -16.83799934387207,235.33900451660156 C3.378999948501587,231.1269989013672 24.56100082397461,212.2740020751953 39.23699951171875,185.7530059814453 C61.02899932861328,142.92599487304688 73.4739990234375,90.03500366210938 28.319000244140625,32.68600082397461 C25.674999237060547,29.327999114990234 29.243000030517578,24.652000427246094 33.154998779296875,26.375 C50.01599884033203,33.80099868774414 76.39800262451172,50.7599983215332 83.03199768066406,85.6989974975586 C92.01899719238281,133.0279998779297 81.02899932861328,165.85000610351562 77.05799865722656,175.59300231933594 C76.5009994506836,176.95799255371094 77.70700073242188,178.36900329589844 79.14800262451172,178.0570068359375 C82.51599884033203,177.32699584960938 87.8010025024414,175.6649932861328 92.3219985961914,171.96600341796875 C100.9489974975586,178.6020050048828 128.8209991455078,188.55599975585938 154.45700073242188,179.60299682617188 C199.2779998779297,163.9499969482422 251.2899932861328,81.91799926757812 211.19400024414062,0.43299999833106995z"></path><g opacity="1" transform="matrix(1,0,0,1,-16.31100082397461,-75.23600006103516)"></g><g opacity="1" transform="matrix(1,0,0,1,0,0)"></g></g></g></g></svg>