<svg xmlns="http://www.w3.org/2000/svg" xmlns:xlink="http://www.w3.org/1999/xlink" viewBox="0 0 512 512" width="512" height="512" style="width: 100%; height: 100%; transform: translate3d(0,0,0);" preserveAspectRatio="xMidYMid meet"><defs><clipPath id="__lottie_element_51480"><rect width="512" height="512" x="0" y="0"></rect></clipPath></defs><g clip-path="url(#__lottie_element_51480)"><g style="display: block;" transform="matrix(1,0,0,1,256,256)" opacity="1"><g opacity="1" transform="matrix(1,0,0,1,0,0)"><path fill="rgb(0,0,0)" fill-opacity="1" d=" M-226.0449981689453,-16.780000686645508 C-226.0449981689453,-16.780000686645508 -220.29299926757812,-15.99899959564209 -220.29299926757812,-15.99899959564209 C-205.9250030517578,-14.045999526977539 -192.09800720214844,-21.91699981689453 -186.22900390625,-35.17599868774414 C-173.7949981689453,-63.266998291015625 -146.08200073242188,-82.31099700927734 -111.24099731445312,-82.31199645996094 C-111.24099731445312,-82.31199645996094 -111.23899841308594,-82.31199645996094 -111.23899841308594,-82.31199645996094 C-111.23899841308594,-82.31199645996094 -111.23799896240234,-82.31199645996094 -111.23799896240234,-82.31199645996094 C-111.23799896240234,-82.31199645996094 -111.23799896240234,-82.31199645996094 -111.23799896240234,-82.31199645996094 C-66.51300048828125,-82.31199645996094 -24.451000213623047,-51.20500183105469 -7.146999835968018,-10.262999534606934 C-0.7409999966621399,4.894000053405762 12.979999542236328,15.704000473022461 29.285999298095703,17.920000076293945 C29.285999298095703,17.920000076293945 69.91300201416016,23.44099998474121 69.91300201416016,23.44099998474121 C78.05899810791016,24.54800033569336 86.31800079345703,22.47800064086914 92.97899627685547,17.659000396728516 C92.97899627685547,17.659000396728516 230.28399658203125,-81.67400360107422 230.28399658203125,-81.67400360107422 C234.58599853515625,-84.78700256347656 237.06199645996094,-89.8239974975586 236.89999389648438,-95.13200378417969 C235.2689971923828,-148.63600158691406 220.94500732421875,-240.33099365234375 175.36000061035156,-223.4320068359375 C126.93900299072266,-205.4709930419922 100.697998046875,-91.48300170898438 92.34600067138672,-37.54499816894531 C92.34600067138672,-37.54499816894531 92.33899688720703,-37.5 92.33899688720703,-37.5 C90.85700225830078,-27.927000045776367 76.68699645996094,-28.76799964904785 76.37200164794922,-38.4630012512207 C74.32099914550781,-100.11399841308594 78.29499816894531,-174.95700073242188 106.89199829101562,-229.33200073242188 C-130.60800170898438,-241.4429931640625 -116.70700073242188,-240.78599548339844 -119.19100189208984,-240.77499389648438 C-182.78700256347656,-240.44200134277344 -236.67599487304688,-139.08399963378906 -239.88400268554688,-33.198001861572266 C-240.13299560546875,-24.982999801635742 -234.18899536132812,-17.886999130249023 -226.0449981689453,-16.780000686645508z"></path></g><g opacity="1" transform="matrix(1,0,0,1,0,0)"><path fill="rgb(0,0,0)" fill-opacity="1" d=" M-193.08599853515625,208.6230010986328 C-186.2259979248047,211.35899353027344 -178.38299560546875,209.04400634765625 -174.10899353027344,203.02000427246094 C-174.10899353027344,203.02000427246094 -153.34300231933594,173.7530059814453 -153.34300231933594,173.7530059814453 C-153.34300231933594,173.7530059814453 78.43199920654297,218.10299682617188 78.43199920654297,218.10299682617188 C78.43199920654297,218.10299682617188 104.61799621582031,241.1929931640625 104.61799621582031,241.1929931640625 C109.88200378417969,245.83399963378906 117.55500030517578,246.50399780273438 123.54299926757812,242.84500122070312 C123.54299926757812,242.84500122070312 154.41700744628906,223.97799682617188 154.41700744628906,223.97799682617188 C159.70199584960938,220.74899291992188 162.64700317382812,214.75799560546875 161.97999572753906,208.6009979248047 C161.97999572753906,208.6009979248047 158.70599365234375,178.38400268554688 158.70599365234375,178.38400268554688 C158.70599365234375,178.38400268554688 180.64199829101562,155.4770050048828 180.64199829101562,155.4770050048828 C180.64199829101562,155.4770050048828 186.56100463867188,163.82000732421875 186.56100463867188,163.82000732421875 C191.76199340820312,171.14999389648438 201.97999572753906,172.75999450683594 209.1820068359375,167.38299560546875 C209.1820068359375,167.38299560546875 232.41700744628906,150.03599548339844 232.41700744628906,150.03599548339844 C236.46200561523438,147.01600646972656 238.8459930419922,142.26400756835938 238.8459930419922,137.21499633789062 C238.8459930419922,137.21499633789062 238.8459930419922,98.3290023803711 238.8459930419922,98.3290023803711 C238.8459930419922,91.35299682617188 234.3249969482422,85.18000030517578 227.6739959716797,83.07499694824219 C227.6739959716797,83.07499694824219 218.04800415039062,80.02799987792969 218.04800415039062,80.02799987792969 C218.04800415039062,80.02799987792969 231.5760040283203,-26.489999771118164 231.5760040283203,-26.489999771118164 C232.45799255371094,-33.43600082397461 224.6230010986328,-38.08300018310547 218.9499969482422,-33.979000091552734 C218.9499969482422,-33.979000091552734 110.36100006103516,44.58100128173828 110.36100006103516,44.58100128173828 C97.9229965209961,53.58000183105469 82.49800109863281,57.44599914550781 67.28500366210938,55.37900161743164 C67.28500366210938,55.37900161743164 28.062000274658203,50.04800033569336 28.062000274658203,50.04800033569336 C13.119999885559082,48.016998291015625 -1.3259999752044678,55.71099853515625 -8.366000175476074,69.0459976196289 C-23.642000198364258,97.98400115966797 -55.83399963378906,115.4530029296875 -93.97200012207031,110.34400177001953 C-134.89199829101562,104.86199951171875 -171.17100524902344,74.55599975585938 -186.11000061035156,36.59000015258789 C-190.10299682617188,26.44300079345703 -199.16099548339844,19.167999267578125 -209.96600341796875,17.698999404907227 C-209.96600341796875,17.698999404907227 -209.96600341796875,17.698999404907227 -209.96600341796875,17.698999404907227 C-221.45799255371094,16.136999130249023 -230.74200439453125,26.93899917602539 -227.4709930419922,38.066001892089844 C-227.4709930419922,38.066001892089844 -211.14100646972656,93.62300109863281 -211.14100646972656,93.62300109863281 C-211.14100646972656,93.62300109863281 -229.39999389648438,105.18000030517578 -229.39999389648438,105.18000030517578 C-234.6580047607422,108.50800323486328 -237.50999450683594,114.58200073242188 -236.71099853515625,120.75299835205078 C-236.71099853515625,120.75299835205078 -228.3000030517578,185.73399353027344 -228.3000030517578,185.73399353027344 C-227.55499267578125,191.49000549316406 -223.75100708007812,196.39199829101562 -218.36000061035156,198.54200744628906 C-218.36000061035156,198.54200744628906 -193.08599853515625,208.6230010986328 -193.08599853515625,208.6230010986328z"></path></g><g opacity="1" transform="matrix(1,0,0,1,0,0)"><path fill="rgb(0,0,0)" fill-opacity="1" d=" M-111.23999786376953,-50.3120002746582 C-142.52200317382812,-50.31100082397461 -164.2899932861328,-26.736000061035156 -161.0590057373047,5.752999782562256 C-157.53399658203125,41.194000244140625 -125.59600067138672,73.82099914550781 -89.7239990234375,78.62699890136719 C-53.8390007019043,83.43299865722656 -27.6299991607666,58.58399963378906 -31.15399932861328,23.1560001373291 C-35.02399826049805,-15.758000373840332 -72.73999786376953,-50.31399917602539 -111.23999786376953,-50.3120002746582z"></path></g></g></g></svg>