<svg xmlns="http://www.w3.org/2000/svg" xmlns:xlink="http://www.w3.org/1999/xlink" viewBox="0 0 512 512" width="512" height="512" style="width: 100%; height: 100%; transform: translate3d(0,0,0);" preserveAspectRatio="xMidYMid meet"><defs><clipPath id="__lottie_element_53539"><rect width="512" height="512" x="0" y="0"></rect></clipPath></defs><g clip-path="url(#__lottie_element_53539)"><g style="display: block;" transform="matrix(2.962939977645874,0,0,2.962939977645874,2.8374481201171875,2.8374481201171875)" opacity="1"><g opacity="1" transform="matrix(1,0,0,1,87.91000366210938,117.4489974975586)"><path fill="rgb(0,0,0)" fill-opacity="1" d=" M56.28799819946289,-44.37900161743164 C56.28799819946289,-44.37900161743164 47.04100036621094,-33.266998291015625 44.28799819946289,-29.097999572753906 C39.108001708984375,-22.62299919128418 37.68299865722656,-23.011999130249023 32.952999114990234,-27.437999725341797 C26.000999450683594,-33.59299850463867 19.051000595092773,-39.750999450683594 11.572999954223633,-46.375 C6.451000213623047,-41.1879997253418 3.437000036239624,-38.22200012207031 -2.128000020980835,-32.41899871826172 C-5.311999797821045,-29.097999572753906 -5.697999954223633,-26.507999420166016 -13.032999992370605,-29.388999938964844 C-25.323999404907227,-33.97999954223633 -48.19900131225586,-46.41299819946289 -60.57500076293945,-50.78200149536133 C-60.57500076293945,-50.78200149536133 -70.96399688720703,-33.500999450683594 -68.99099731445312,-5.235000133514404 C-66.8499984741211,25.424999237060547 -38.47100067138672,50.73899841308594 -2.6540000438690186,50.76100158691406 C30.56100082397461,50.78200149536133 47.95600128173828,34.064998626708984 55.14699935913086,19.26300048828125 C70.96399688720703,-13.300000190734863 62.67599868774414,-37.4010009765625 56.28799819946289,-44.37900161743164z M-9.324000358581543,37.72200012207031 C-34.83100128173828,37.72200012207031 -40.040000915527344,19.474000930786133 -37.75,15.144000053405762 C-36.5629997253418,12.899999618530273 -33.45000076293945,12.553999900817871 -31.722999572753906,14.413999557495117 C-22.408000946044922,24.44700050354004 -11.032999992370605,29.41200065612793 4.076000213623047,33.03499984741211 C4.035999774932861,33.75 -2.0380001068115234,37.72200012207031 -9.324000358581543,37.72200012207031z"></path></g><g opacity="1" transform="matrix(1,0,0,1,84.14199829101562,41.45199966430664)"><path fill="rgb(0,0,0)" fill-opacity="1" d=" M-43.42399978637695,19.645000457763672 C-39.65399932861328,22.07900047302246 -17.57200050354004,33.37699890136719 -10.218999862670898,36.382999420166016 C-6.751999855041504,37.80099868774414 -3.9690001010894775,36.507999420166016 -1.4140000343322754,33.665000915527344 C3.437000036239624,28.267000198364258 8.64900016784668,23.19300079345703 13.652999877929688,18.04599952697754 C21.999000549316406,23.625 31.48699951171875,31.80900001525879 39.03200149536133,36.99100112915039 C42.58100128173828,39.42900085449219 44.821998596191406,39.25299835205078 47.507999420166016,35.32899856567383 C50.8849983215332,30.39299964904785 47.18000030517578,22.951000213623047 44.73500061035156,19.211999893188477 C41.222999572753906,13.84000015258789 36.89400100708008,8.949000358581543 32.52799987792969,4.208000183105469 C29.277999877929688,0.6779999732971191 27.665000915527344,-2.3450000286102295 31.66200065612793,-6.39300012588501 C33.380001068115234,-8.133000373840332 38.74800109863281,-14.814000129699707 38.01300048828125,-17.7189998626709 C37.57899856567383,-19.43199920654297 33.22200012207031,-20.030000686645508 31.267000198364258,-20.290000915527344 C28.384000778198242,-20.674999237060547 25.410999298095703,-20.391000747680664 22.452999114990234,-20.391000747680664 C22.87700080871582,-24.993000030517578 23.81599998474121,-29.500999450683594 23.384000778198242,-32.507999420166016 C22.829999923706055,-36.367000579833984 21.499000549316406,-38.13800048828125 19.819000244140625,-38.79199981689453 C18.187000274658203,-39.428001403808594 10.690999984741211,-32.608001708984375 8.911999702453613,-31.150999069213867 C7.873000144958496,-30.298999786376953 5.985000133514404,-29.57699966430664 4.815999984741211,-29.924999237060547 C-15.333999633789062,-35.92900085449219 -35.92900085449219,-28.209999084472656 -44.73500061035156,-14.741999626159668 C-47.64699935913086,-10.288999557495117 -50.8849983215332,-1.4869999885559082 -50.80500030517578,5.6570000648498535 C-50.74100112915039,11.41100025177002 -48.499000549316406,16.367000579833984 -43.42399978637695,19.645000457763672z M-18.371000289916992,-12.25100040435791 C-17.996000289916992,-12.258000373840332 -17.634000778198242,-12.229000091552734 -17.277999877929688,-12.184000015258789 C-16.979000091552734,-12.220000267028809 -16.677000045776367,-12.246000289916992 -16.371000289916992,-12.25100040435791 C-12.291999816894531,-12.324000358581543 -9.258000373840332,-9.291999816894531 -9.112000465393066,-4.997000217437744 C-8.979000091552734,-1.0740000009536743 -12.095000267028809,2.0829999446868896 -16.358999252319336,2.3440001010894775 C-16.878000259399414,2.375999927520752 -17.38800048828125,2.3570001125335693 -17.885000228881836,2.2950000762939453 C-18.042999267578125,2.312999963760376 -18.197999954223633,2.3340001106262207 -18.358999252319336,2.3440001010894775 C-22.711999893188477,2.6110000610351562 -26.485000610351562,-0.5580000281333923 -26.57200050354004,-4.554999828338623 C-26.65999984741211,-8.645000457763672 -22.905000686645508,-12.170000076293945 -18.371000289916992,-12.25100040435791z"></path></g></g></g></svg>