<svg xmlns="http://www.w3.org/2000/svg" xmlns:xlink="http://www.w3.org/1999/xlink" viewBox="0 0 512 512" width="512" height="512" style="width: 100%; height: 100%; transform: translate3d(0,0,0);" preserveAspectRatio="xMidYMid meet"><defs><clipPath id="__lottie_element_53085"><rect width="512" height="512" x="0" y="0"></rect></clipPath></defs><g clip-path="url(#__lottie_element_53085)"><g style="display: block;" transform="matrix(1,0,0,1,260.0559997558594,256.4909973144531)" opacity="1"><g opacity="1" transform="matrix(1,0,0,1,0,0)"><g opacity="1" transform="matrix(1,0,0,1,15.225000381469727,54.16899871826172)"><path fill="rgb(0,0,0)" fill-opacity="1" d=" M-45.43000030517578,-126.59700012207031 C-58.599998474121094,-112.87699890136719 -85.91000366210938,-137.8769989013672 -71.9800033569336,-149.82699584960938 C-58.040000915527344,-161.76699829101562 -29.510000228881836,-143.18699645996094 -45.43000030517578,-126.59700012207031z M21.59000015258789,-39.007999420166016 C1.6699999570846558,-32.9379997253418 -4.949999809265137,-54.266998291015625 -18.889999389648438,-68.86699676513672 C-32.81999969482422,-83.46700286865234 -48.09000015258789,-102.0479965209961 -31.5,-114.65799713134766 C-14.90999984741211,-127.25800323486328 6.989999771118164,-102.0469970703125 17.610000610351562,-86.11699676513672 C28.229999542236328,-70.18699645996094 36.849998474121094,-43.64799880981445 21.59000015258789,-39.007999420166016z M211.36000061035156,154.32200622558594 C176.14999389648438,123.02200317382812 127.37999725341797,102.39199829101562 69.43000030517578,-57.667999267578125 C20.979999542236328,-191.4980010986328 -89.25,-204.9770050048828 -158.6999969482422,-162.53700256347656 C-241.47999572753906,-111.93699645996094 -243.85000610351562,24.04199981689453 -108.0999984741211,122.62200164794922 C-22.31999969482422,184.9320068359375 138.83999633789062,189.8719940185547 203.72000122070312,180.06199645996094 C216.16000366210938,178.19200134277344 220.75999450683594,162.6820068359375 211.36000061035156,154.32200622558594z"></path></g></g><g opacity="1" transform="matrix(1,0,0,1,-183.00900268554688,-161.03199768066406)"><path fill="rgb(0,0,0)" fill-opacity="1" d=" M48.39699935913086,29.763999938964844 C50.775001525878906,36.89899826049805 28.413000106811523,45.89500045776367 16.10300064086914,54.53799819946289 C-4.690000057220459,69.13700103759766 -6.9019999504089355,81.96700286865234 -19.731000900268555,75.33100128173828 C-32.560001373291016,68.69499969482422 -24.1560001373291,45.689998626708984 -14.42300033569336,37.72700119018555 C-14.42300033569336,37.72700119018555 -46.83100128173828,-2.555999994277954 -48.48699951171875,-41.46200180053711 C-50.25699996948242,-83.0469970703125 -24.1560001373291,-81.91500091552734 -17.961999893188477,-69.7750015258789 C-6.9019999504089355,-48.097999572753906 -25.040000915527344,-21.996000289916992 1.9459999799728394,23.128000259399414 C1.9459999799728394,23.128000259399414 40.433998107910156,5.875 48.39699935913086,29.763999938964844z"></path></g></g></g></svg>