<svg xmlns="http://www.w3.org/2000/svg" xmlns:xlink="http://www.w3.org/1999/xlink" viewBox="0 0 512 512" width="512" height="512" style="width: 100%; height: 100%; transform: translate3d(0,0,0);" preserveAspectRatio="xMidYMid meet"><defs><clipPath id="__lottie_element_52543"><rect width="512" height="512" x="0" y="0"></rect></clipPath></defs><g clip-path="url(#__lottie_element_52543)"><g style="display: block;" transform="matrix(1,0,0,1,0,0)" opacity="1"><g opacity="1" transform="matrix(1,0,0,1,235.02699279785156,295.9159851074219)"><path fill="rgb(4,5,52)" fill-opacity="1" d=" M-7.197999954223633,-76.40399932861328 C-20.413000106811523,-46.79800033569336 -30.915000915527344,12.536999702453613 -35.150001525878906,76.06600189208984 C-35.150001525878906,76.06600189208984 -40.231998443603516,44.724998474121094 -35.150001525878906,4.065999984741211 C-35.150001525878906,4.065999984741211 -44.46799850463867,35.40700149536133 -85.12699890136719,76.06600189208984 C-125.78600311279297,116.7249984741211 -171.5260009765625,141.28900146484375 -185.07899475097656,153.9949951171875 C-198.6320037841797,166.7010040283203 -206.25599670410156,186.18299865722656 -157.1269989013672,165.85400390625 C-107.99800109863281,145.52499389648438 -73.26799774169922,164.16000366210938 28.378999710083008,104.86599731445312 C130.0260009765625,45.571998596191406 196.0959930419922,-34.05099868774414 195.24899291992188,-82.33300018310547 C194.40199279785156,-130.61500549316406 175.76600646972656,-139.9340057373047 168.99000549316406,-143.32200622558594 C168.99000549316406,-143.32200622558594 177.46099853515625,-121.2979965209961 171.53199768066406,-116.21600341796875 C165.60299682617188,-111.13400268554688 151.20199584960938,-126.38099670410156 146.1199951171875,-128.0749969482422 C141.03799438476562,-129.7689971923828 130.8719940185547,-118.75700378417969 124.09600067138672,-120.45099639892578 C117.31999969482422,-122.1449966430664 117.31999969482422,-138.24000549316406 113.08499908447266,-143.32200622558594 C108.8499984741211,-148.4040069580078 96.14299774169922,-149.25 93.60199737548828,-156.87399291992188 C91.06099700927734,-164.4980010986328 110.54299926757812,-169.5800018310547 110.54299926757812,-169.5800018310547 C110.54299926757812,-169.5800018310547 51.316001892089844,-207.49099731445312 -7.197999954223633,-76.40399932861328z"></path></g><g opacity="1" transform="matrix(1,0,0,1,416.2640075683594,98.71199798583984)"><path fill="rgb(4,5,52)" fill-opacity="1" d=" M-78.78700256347656,38.25899887084961 C-79.46199798583984,41.981998443603516 -66.73999786376953,46.54199981689453 -64.1050033569336,49.176998138427734 C-61.470001220703125,51.8120002746582 -60.71699905395508,63.483001708984375 -55.823001861572266,66.11799621582031 C-50.92900085449219,68.75299835205078 -39.63399887084961,62.729000091552734 -36.999000549316406,62.729000091552734 C-34.36399841308594,62.729000091552734 -23.06999969482422,72.89399719238281 -18.552000045776367,71.76499938964844 C-14.034000396728516,70.63600158691406 -12.904999732971191,63.85900115966797 -18.552000045776367,50.305999755859375 C-24.198999404907227,36.75299835205078 -33.611000061035156,22.44700050354004 -1.6109999418258667,-12.187999725341797 C30.388999938964844,-46.823001861572266 66.15399932861328,-34.777000427246094 72.93000030517578,-35.90599822998047 C79.70600128173828,-37.03499984741211 83.09400177001953,-70.16400146484375 69.16500091552734,-71.66999816894531 C55.236000061035156,-73.1760025024414 5.164999961853027,-66.02300262451172 -15.916999816894531,-24.235000610351562 C-47.777000427246094,38.91600036621094 -77.26200103759766,29.849000930786133 -78.78700256347656,38.25899887084961z"></path></g></g></g></svg>