<svg xmlns="http://www.w3.org/2000/svg" xmlns:xlink="http://www.w3.org/1999/xlink" viewBox="0 0 512 512" width="512" height="512" style="width: 100%; height: 100%; transform: translate3d(0,0,0);" preserveAspectRatio="xMidYMid meet"><defs><clipPath id="__lottie_element_744"><rect width="512" height="512" x="0" y="0"></rect></clipPath></defs><g clip-path="url(#__lottie_element_744)"><g style="display: block;" transform="matrix(1,0,0,1,7.302001953125,4.6179962158203125)" opacity="1"><g opacity="1" transform="matrix(1,0,0,1,170.4949951171875,208.71200561523438)"><path fill="rgb(0,0,0)" fill-opacity="1" d=" M0.6309999823570251,42.902000427246094 C14.652000427246094,42.902000427246094 26.018999099731445,29.770999908447266 26.018999099731445,13.571999549865723 C26.018999099731445,6.686999797821045 23.951000213623047,0.3700000047683716 20.51300048828125,-4.632999897003174 C31.05299949645996,-4.60699987411499 41.48500061035156,-4.50600004196167 51.56800079345703,-4.355999946594238 C56.62799835205078,-4.2820000648498535 58.856998443603516,-10.678999900817871 54.86000061035156,-13.782999992370605 C38.29899978637695,-26.645999908447266 -5.492000102996826,-42.902000427246094 -25.908000946044922,-37.79800033569336 C-44.345001220703125,-33.18899917602539 -53.60499954223633,-19.201000213623047 -57.362998962402344,-10.128000259399414 C-58.85599899291992,-6.5229997634887695 -56.0890007019043,-2.5929999351501465 -52.19499969482422,-2.8399999141693115 C-41.63800048828125,-3.509000062942505 -30.649999618530273,-3.937000036239624 -19.520000457763672,-4.218999862670898 C-22.791000366210938,0.718999981880188 -24.756999969482422,6.873000144958496 -24.756999969482422,13.571999549865723 C-24.756999969482422,29.770999908447266 -13.390000343322754,42.902000427246094 0.6309999823570251,42.902000427246094z"></path></g><g opacity="1" transform="matrix(1,0,0,1,248.8979949951172,243.0989990234375)"><path fill="rgb(0,0,0)" fill-opacity="1" d=" M-19.277000427246094,6.547999858856201 C-17.81999969482422,6.386000156402588 -16.259000778198242,6.173999786376953 -14.670000076293945,6.122000217437744 C-3.5940001010894775,5.493000030517578 7.789000034332275,5.489999771118164 18.797000885009766,6.7779998779296875 C22.160999298095703,7.109000205993652 23.594999313354492,2.875 20.85300064086914,0.9359999895095825 C11.883000373840332,-6.545000076293945 -0.20600000023841858,-7.109000205993652 -10.970999717712402,-4.323999881744385 C-14.652000427246094,-3.2009999752044678 -18.47100067138672,-1.5540000200271606 -21.597000122070312,1.569000005722046 C-23.594999313354492,3.378000020980835 -21.979999542236328,6.9079999923706055 -19.277000427246094,6.547999858856201z"></path></g><g opacity="1" transform="matrix(1,0,0,1,327.2300109863281,208.71099853515625)"><path fill="rgb(0,0,0)" fill-opacity="1" d=" M25.908000946044922,-37.79800033569336 C5.492000102996826,-42.902000427246094 -38.29800033569336,-26.645999908447266 -54.86000061035156,-13.781999588012695 C-58.85599899291992,-10.678000450134277 -56.62799835205078,-4.281000137329102 -51.56700134277344,-4.355999946594238 C-41.5890007019043,-4.504000186920166 -31.268999099731445,-4.605000019073486 -20.840999603271484,-4.632999897003174 C-24.277999877929688,0.3709999918937683 -26.34600067138672,6.688000202178955 -26.34600067138672,13.571999549865723 C-26.34600067138672,29.770999908447266 -14.979999542236328,42.902000427246094 -0.9580000042915344,42.902000427246094 C13.062999725341797,42.902000427246094 24.429000854492188,29.770999908447266 24.429000854492188,13.571999549865723 C24.429000854492188,6.869999885559082 22.461999893188477,0.7110000252723694 19.187000274658203,-4.228000164031982 C30.43199920654297,-3.946000099182129 41.53300094604492,-3.515000104904175 52.19599914550781,-2.8389999866485596 C56.0890007019043,-2.5929999351501465 58.85599899291992,-6.521999835968018 57.362998962402344,-10.126999855041504 C53.60499954223633,-19.201000213623047 44.34600067138672,-33.18899917602539 25.908000946044922,-37.79800033569336z"></path></g><g opacity="1" transform="matrix(1,0,0,1,248.69900512695312,275.0849914550781)"><path fill="rgb(0,0,0)" fill-opacity="1" d=" M-36.334999084472656,-10.631999969482422 C-39.183998107910156,-12.208000183105469 -42.375,-9.380000114440918 -41.10499954223633,-6.382999897003174 C-36.09199905395508,5.447999954223633 -16.763999938964844,12.208000183105469 -0.0010000000474974513,12.208000183105469 C16.761999130249023,12.208000183105469 36.09199905395508,5.447999954223633 41.10499954223633,-6.382999897003174 C42.375,-9.380000114440918 39.18199920654297,-12.208000183105469 36.33300018310547,-10.631999969482422 C25.635000228881836,-4.711999893188477 11.359999656677246,-4.565000057220459 -0.0010000000474974513,-4.565000057220459 C-11.361000061035156,-4.565000057220459 -25.636999130249023,-4.711999893188477 -36.334999084472656,-10.631999969482422z"></path></g><g opacity="1" transform="matrix(1,0,0,1,248.697998046875,251.3820037841797)"><path fill="rgb(0,0,0)" fill-opacity="1" d=" M246.48199462890625,-2.2950000762939453 C244.51499938964844,-32.86000061035156 210.60299682617188,-65.02999877929688 193.13800048828125,-64.65299987792969 C188.11099243164062,-64.54499816894531 183.00999450683594,-63.01499938964844 177.9770050048828,-60.43000030517578 C179.11099243164062,-69.20999908447266 181.71499633789062,-77.30899810791016 184.5850067138672,-86.2020034790039 C189.63400268554688,-101.84100341796875 195.35699462890625,-119.56900024414062 192.82400512695312,-143.6510009765625 C186.16299438476562,-206.99099731445312 85.85600280761719,-251.1320037841797 -0.0010000000474974513,-251.1320037841797 C-85.85700225830078,-251.1320037841797 -186.16200256347656,-206.99099731445312 -192.82400512695312,-143.6510009765625 C-195.3560028076172,-119.56900024414062 -189.63400268554688,-101.84100341796875 -184.5850067138672,-86.2020034790039 C-181.71400451660156,-77.30799865722656 -179.11099243164062,-69.20800018310547 -177.9770050048828,-60.42900085449219 C-183.00999450683594,-63.013999938964844 -188.11000061035156,-64.54499816894531 -193.13699340820312,-64.65299987792969 C-210.6020050048828,-65.02999877929688 -244.51499938964844,-32.86000061035156 -246.48199462890625,-2.2950000762939453 C-248.44900512695312,28.268999099731445 -196.9530029296875,77.85700225830078 -176.4219970703125,77.43399810791016 C-173.71600341796875,77.37799835205078 -170.88699340820312,76.73600006103516 -168.01199340820312,75.66300201416016 C-168.0749969482422,76.4469985961914 -168.13400268554688,77.21199798583984 -168.197998046875,78.00399780273438 C-169.9499969482422,99.75499725341797 -171.93499755859375,124.40899658203125 -161.86199951171875,152.58200073242188 C-158.9510040283203,160.7259979248047 -146.83999633789062,189.28799438476562 -113.25800323486328,214.89700317382812 C-82.1760025024414,238.60299682617188 -43.012001037597656,251.1320037841797 -0.0010000000474974513,251.1320037841797 C43.0099983215332,251.1320037841797 82.17500305175781,238.60299682617188 113.25700378417969,214.89700317382812 C146.83900451660156,189.28799438476562 158.9499969482422,160.7259979248047 161.86199951171875,152.58200073242188 C171.93499755859375,124.40899658203125 169.9499969482422,99.75499725341797 168.197998046875,78.00399780273438 C168.13400268554688,77.21499633789062 168.0749969482422,76.4520034790039 168.01300048828125,75.6709976196289 C170.88699340820312,76.74500274658203 173.71499633789062,77.37799835205078 176.4219970703125,77.43399810791016 C196.9530029296875,77.85700225830078 248.44900512695312,28.268999099731445 246.48199462890625,-2.2950000762939453z M54.73699951171875,154.64599609375 C36.74700164794922,159.00999450683594 26.354999542236328,145.80099487304688 21.91900062561035,121.4229965209961 C20.652999877929688,114.46600341796875 25.26099967956543,107.86100006103516 32.189998626708984,106.4469985961914 C47.154998779296875,103.39199829101562 61.07600021362305,98.14399719238281 72.4520034790039,90.6969985961914 C80.00700378417969,85.60700225830078 86.8740005493164,79.23999786376953 91.70999908447266,71.45700073242188 C94.36399841308594,67.46099853515625 89.13300323486328,62.78099822998047 85.447998046875,65.8290023803711 C79.79199981689453,70.44499969482422 73.37699890136719,74.21199798583984 66.56300354003906,77.20700073242188 C45.611000061035156,86.1969985961914 22.525999069213867,88.44100189208984 -0.24300000071525574,88.56600189208984 C-29.961000442504883,88.20500183105469 -62.03300094604492,84.7249984741211 -85.80400085449219,65.53199768066406 C-89.51399993896484,62.465999603271484 -94.69599914550781,67.06600189208984 -92.0989990234375,71.13099670410156 C-87.302001953125,78.947998046875 -80.48200225830078,85.3280029296875 -72.94000244140625,90.4540023803711 C-61.45199966430664,98.0479965209961 -47.35200119018555,103.38700103759766 -32.19300079345703,106.4729995727539 C-25.26300048828125,107.88300323486328 -20.655000686645508,114.48999786376953 -21.92300033569336,121.4469985961914 C-26.361000061035156,145.8090057373047 -36.75400161743164,159.00900268554688 -54.737998962402344,154.64599609375 C-83.51899719238281,147.66099548339844 -85.36199951171875,116.58399963378906 -101.80599975585938,86.45999908447266 C-103.04399871826172,84.19100189208984 -103.71600341796875,81.63200378417969 -103.48600006103516,79.05799865722656 C-103.16100311279297,75.43699645996094 -102.4020004272461,71.91100311279297 -101.32599639892578,68.45899963378906 C-100.74600219726562,66.71900177001953 -100.08300018310547,65.01399993896484 -99.34400177001953,63.345001220703125 C-97.18399810791016,58.46799850463867 -91.23100280761719,56.58300018310547 -86.54399871826172,59.12799835205078 C-80.91600036621094,62.18299865722656 -74.2300033569336,64.75199890136719 -67.76599884033203,64.6520004272461 C-52.073001861572266,64.41200256347656 -17.290000915527344,62.43899917602539 -0.0010000000474974513,62.43899917602539 C17.288999557495117,62.43899917602539 52.07400131225586,64.41200256347656 67.76599884033203,64.6520004272461 C74.20999908447266,64.7509994506836 80.8740005493164,62.19900131225586 86.49099731445312,59.15700149536133 C91.3219985961914,56.540000915527344 97.29499816894531,58.694000244140625 99.45800018310547,63.744998931884766 C101.52100372314453,68.56500244140625 102.91999816894531,73.64099884033203 103.46900177001953,78.90799713134766 C103.74099731445312,81.51399993896484 103.08599853515625,84.11900329589844 101.8290023803711,86.41799926757812 C85.36299896240234,116.55500030517578 83.53199768066406,147.6580047607422 54.73699951171875,154.64599609375z M165.29200744628906,6.390999794006348 C160.00399780273438,25.097999572753906 149.4290008544922,30.423999786376953 131.30299377441406,48.87200164794922 C126.80400085449219,53.45199966430664 119.38300323486328,53.090999603271484 115.28600311279297,48.14799880981445 C104.36199951171875,34.96900177001953 88.16300201416016,25.56399917602539 72.15399932861328,21.319000244140625 C70.0009994506836,20.572999954223633 67.65699768066406,20.659000396728516 66.26300048828125,22.732999801635742 C64.94000244140625,24.702999114990234 65.61299896240234,27.496999740600586 67.625,28.756000518798828 C72.74299621582031,31.961000442504883 77.55999755859375,35.61800003051758 81.95099639892578,39.665000915527344 C82.25900268554688,39.95000076293945 82.56600189208984,40.23699951171875 82.87000274658203,40.527000427246094 C86.45899963378906,43.95000076293945 84.8270034790039,50.02199935913086 80,51.16299819946289 C77.98200225830078,51.63999938964844 75.86000061035156,51.90700149536133 73.66600036621094,51.86800003051758 C59.900001525878906,51.62200164794922 33.840999603271484,38.757999420166016 -0.0010000000474974513,38.757999420166016 C-33.84299850463867,38.757999420166016 -59.89899826049805,48.14099884033203 -73.66500091552734,48.38600158691406 C-74.32099914550781,48.39799880981445 -74.97100067138672,48.38999938964844 -75.61299896240234,48.3650016784668 C-81.28700256347656,48.13999938964844 -83.56800079345703,40.979000091552734 -79.2509994506836,37.290000915527344 C-75.5469970703125,34.125 -71.5999984741211,31.253999710083008 -67.53500366210938,28.698999404907227 C-63.50299835205078,26.19300079345703 -66.16000366210938,19.839000701904297 -70.80500030517578,20.983999252319336 C-84.53199768066406,24.2810001373291 -97.14800262451172,30.966999053955078 -107.7760009765625,40.50600051879883 C-110.4209976196289,42.82899856567383 -112.94100189208984,45.402000427246094 -115.25399780273438,48.17599868774414 C-119.36599731445312,53.108001708984375 -126.7760009765625,53.48099899291992 -131.2760009765625,48.900001525878906 C-149.41799926757812,30.429000854492188 -160.0019989013672,25.10700035095215 -165.29200744628906,6.390999794006348 C-171.55099487304688,-15.748000144958496 -156.0260009765625,-33.77299880981445 -149.72799682617188,-56.46799850463867 C-143.5850067138672,-79.03900146484375 -136.38099670410156,-108.3740005493164 -134.73199462890625,-137.1739959716797 C-134.32699584960938,-144.2550048828125 -129.2259979248047,-150.18600463867188 -122.28399658203125,-151.63999938964844 C-99.20800018310547,-156.47300720214844 -47.016998291015625,-166.1790008544922 -0.0010000000474974513,-166.1790008544922 C46.99100112915039,-166.1790008544922 99.15499877929688,-156.48399353027344 122.2490005493164,-151.6479949951172 C129.22000122070312,-150.18800354003906 134.32899475097656,-144.21299743652344 134.7010040283203,-137.10000610351562 C136.197998046875,-108.54900360107422 142.7530059814453,-81.46099853515625 149.04400634765625,-58.42599868774414 C149.04400634765625,-58.42599868774414 149.04400634765625,-58.42900085449219 149.04400634765625,-58.42900085449219 C149.04600524902344,-58.41999816894531 149.0489959716797,-58.4119987487793 149.05099487304688,-58.40399932861328 C150.0709991455078,-54.66699981689453 151.08399963378906,-51.0359992980957 152.0679931640625,-47.52299880981445 C159.1219940185547,-26.641000747680664 170.67599487304688,-12.654999732971191 165.29200744628906,6.390999794006348z"></path></g></g></g></svg>