<svg xmlns="http://www.w3.org/2000/svg" xmlns:xlink="http://www.w3.org/1999/xlink" viewBox="0 0 512 512" width="512" height="512" style="width: 100%; height: 100%; transform: translate3d(0,0,0);" preserveAspectRatio="xMidYMid meet"><defs><clipPath id="__lottie_element_52761"><rect width="512" height="512" x="0" y="0"></rect></clipPath></defs><g clip-path="url(#__lottie_element_52761)"><g style="display: block;" transform="matrix(1,0,0,1,256,256)" opacity="1"><g opacity="1" transform="matrix(1,0,0,1,0,0)"><path fill="rgb(0,0,0)" fill-opacity="1" d=" M97.5,125.55000305175781 C117.46700286865234,97.25 111.94999694824219,82.86699676513672 80.94999694824219,82.4000015258789 C14.704999923706055,81.9209976196289 -0.8600000143051147,-32.52899932861328 -78.89800262451172,-22.25200080871582 C-110.26599884033203,-19.983999252319336 -126.5,-27.533000946044922 -127.5999984741211,-44.900001525878906 C-139.32000732421875,-94.73500061035156 -175.25900268554688,-7.550000190734863 -189.35000610351562,17.149999618530273 C-189.35000610351562,17.149999618530273 -189.6999969482422,17.149999618530273 -189.6999969482422,17.149999618530273 C-189.6999969482422,17.149999618530273 -229.25,85.6500015258789 -229.25,85.6500015258789 C-237.14999389648438,99.38300323486328 -234.23300170898438,110.19999694824219 -220.5,118.0999984741211 C-220.5,118.0999984741211 0.4000000059604645,245.60000610351562 0.4000000059604645,245.60000610351562 C14.166999816894531,253.60000610351562 25,250.73300170898438 32.900001525878906,237 C32.900001525878906,237 64.3499984741211,182.35000610351562 64.3499984741211,182.35000610351562 C64.3499984741211,182.35000610351562 64.3499984741211,182.6999969482422 64.3499984741211,182.6999969482422 C64.3499984741211,182.6999969482422 97.5,125.55000305175781 97.5,125.55000305175781 M-109,83.75 C-116.29900360107422,22.297000885009766 -45.36600112915039,23.277000427246094 -52.849998474121094,76.5 C-30.757999420166016,53.50600051879883 12.102999687194824,75.52999877929688 -5.349999904632568,107.3010025024414 C-18.825000762939453,130.45799255371094 -52.38199996948242,138.75799560546875 -78.9000015258789,135.00100708007812 C-97.68900299072266,131.13900756835938 -106.50299835205078,99.21600341796875 -109,83.75 M79.05000305175781,-176 C81.66200256347656,-174.38800048828125 107.80500030517578,-160.2689971923828 109.3499984741211,-158.5500030517578 C111.0250015258789,-167.9290008544922 116.01699829101562,-176.00999450683594 124.25,-180.35000610351562 C-55.904998779296875,-279.76300048828125 20.190000534057617,-285.2969970703125 -100.5530014038086,-96.1510009765625 C-133.0989990234375,-52.69499969482422 -105.28399658203125,-33.55500030517578 -54.9010009765625,-39.500999450683594 C0.3869999945163727,-50.31399917602539 29.631000518798828,34.619998931884766 68.89900207519531,56.553001403808594 C91.23400115966797,69.8499984741211 109.8499984741211,66.3499984741211 124.75,46.04999923706055 C124.75,46.04999923706055 181.1999969482422,-51.70000076293945 181.1999969482422,-51.70000076293945 C163.28199768066406,-41.132999420166016 141.6179962158203,-58.53499984741211 143,-78.05000305175781 C110.55400085449219,-65.11299896240234 93.7249984741211,-112.23200225830078 119.6500015258789,-130 C114.20899963378906,-133.9499969482422 110.15399932861328,-141.4239959716797 109.1500015258789,-148.25 C95.0780029296875,-154.48399353027344 72.01699829101562,-177.16000366210938 60.6510009765625,-155.1999969482422 C57.9109992980957,-149.8260040283203 42.51300048828125,-126.59600067138672 41.70000076293945,-121 C34.46699905395508,-126.43299865722656 33.5,-133.60000610351562 38.79999923706055,-142.5 C38.79999923706055,-142.5 54.70000076293945,-169.1999969482422 54.70000076293945,-169.1999969482422 C60.79999923706055,-179.36700439453125 68.91699981689453,-181.63299560546875 79.05000305175781,-176 M141.64999389648438,-31.399999618530273 C140.51300048828125,-32.07400131225586 113.72599792480469,-47.23699951171875 111.69999694824219,-48.29999923706055 C101.56700134277344,-54.03300094604492 93.5,-51.83300018310547 87.5,-41.70000076293945 C84.89199829101562,-36.38399887084961 69.01100158691406,-13.180000305175781 68.5999984741211,-7.550000190734863 C61.266998291015625,-12.949999809265137 60.29999923706055,-20.100000381469727 65.69999694824219,-29 C65.69999694824219,-29 81.44999694824219,-55.75 81.44999694824219,-55.75 C87.51699829101562,-65.88300323486328 95.63300323486328,-68.13300323486328 105.80000305175781,-62.5 C114.66500091552734,-55.69200134277344 146.2259979248047,-46.347999572753906 141.64999389648438,-31.399999618530273 M15.300000190734863,-200 C5.166999816894531,-205.73300170898438 -2.950000047683716,-203.5330047607422 -9.050000190734863,-193.39999389648438 C-11.824999809265137,-188.031005859375 -27.135000228881836,-164.8249969482422 -28,-159.25 C-35.20000076293945,-164.64999389648438 -36.150001525878906,-171.8000030517578 -30.850000381469727,-180.6999969482422 C-30.850000381469727,-180.6999969482422 -14.949999809265137,-207.4499969482422 -14.949999809265137,-207.4499969482422 C-8.883000373840332,-217.58299255371094 -0.7670000195503235,-219.83299255371094 9.399999618530273,-214.1999969482422 C18.216999053955078,-207.4029998779297 49.87200164794922,-198.08200073242188 45.04999923706055,-183.10000610351562 C44.310001373291016,-183.94000244140625 17.072999954223633,-198.91600036621094 15.300000190734863,-200 M-28.850000381469727,-126.25 C-38.983001708984375,-132.01699829101562 -47.04999923706055,-129.81700134277344 -53.04999923706055,-119.6500015258789 C-55.75699996948242,-114.31999969482422 -71.46800231933594,-91.13999938964844 -71.94999694824219,-85.5 C-79.28299713134766,-90.9000015258789 -80.25,-98.06700134277344 -74.8499984741211,-107 C-74.8499984741211,-107 -59.099998474121094,-133.6999969482422 -59.099998474121094,-133.6999969482422 C-53.03300094604492,-143.83299255371094 -44.91699981689453,-146.08299255371094 -34.75,-140.4499969482422 C-25.827999114990234,-133.6649932861328 5.618000030517578,-124.34500122070312 1.100000023841858,-109.3499984741211 C0.054999999701976776,-110.21700286865234 -26.86400032043457,-125.09100341796875 -28.850000381469727,-126.25 M-5.349999904632568,-68.5999984741211 C4.017000198364258,-81.072998046875 13.383999824523926,-115.72000122070312 34.749000549316406,-102.0999984741211 C43.65800094604492,-95.27300262451172 75.17900085449219,-85.95600128173828 70.5999984741211,-70.94999694824219 C69.54900360107422,-71.7239990234375 42.650001525878906,-86.78700256347656 40.650001525878906,-87.8499984741211 C30.517000198364258,-93.61699676513672 22.466999053955078,-91.43299865722656 16.5,-81.30000305175781 C13.87600040435791,-75.9530029296875 -2.00600004196167,-52.74700164794922 -2.450000047683716,-47.099998474121094 C-9.782999992370605,-52.53300094604492 -10.75,-59.70000076293945 -5.349999904632568,-68.5999984741211z"></path></g></g></g></svg>