<svg xmlns="http://www.w3.org/2000/svg" xmlns:xlink="http://www.w3.org/1999/xlink" viewBox="0 0 512 512" width="512" height="512" style="width: 100%; height: 100%; transform: translate3d(0,0,0);" preserveAspectRatio="xMidYMid meet"><defs><clipPath id="__lottie_element_14367"><rect width="512" height="512" x="0" y="0"></rect></clipPath></defs><g clip-path="url(#__lottie_element_14367)"><g style="display: block;" transform="matrix(1,0,0,1,256,256)" opacity="1"><g opacity="1" transform="matrix(1,0,0,1,0,0)"><path fill="rgb(0,0,0)" fill-opacity="1" d=" M202.49400329589844,95.02799987792969 C173.10899353027344,71.58399963378906 141.76300048828125,49.65299987792969 128.58900451660156,24.951000213623047 C134.5850067138672,23.006000518798828 140.07899475097656,21.097000122070312 144.96200561523438,19.283000946044922 C159.49000549316406,13.88700008392334 207.52699279785156,-1.3459999561309814 157.21800231933594,-41.483001708984375 C133.9600067138672,-60.03799819946289 112.31800079345703,-77.83399963378906 97.1760025024414,-94.02100372314453 C115.62999725341797,-102.15699768066406 139.91200256347656,-119.0009994506836 98.3239974975586,-150.41900634765625 C28.17799949645996,-203.41099548339844 35.819000244140625,-253.34800720214844 0,-252.2100067138672 C-35.819000244140625,-253.34800720214844 -28.17799949645996,-203.41099548339844 -98.3239974975586,-150.41900634765625 C-139.91200256347656,-119.0009994506836 -115.62999725341797,-102.15699768066406 -97.1760025024414,-94.02100372314453 C-112.31800079345703,-77.83399963378906 -133.9600067138672,-60.03799819946289 -157.21800231933594,-41.483001708984375 C-207.52699279785156,-1.3459999561309814 -159.49000549316406,13.88700008392334 -144.96200561523438,19.283000946044922 C-140.07899475097656,21.097000122070312 -134.5850067138672,23.006000518798828 -128.58900451660156,24.951000213623047 C-141.76300048828125,49.65299987792969 -173.10899353027344,71.58399963378906 -202.49400329589844,95.02799987792969 C-252.80299377441406,135.1649932861328 -204.76699829101562,150.3979949951172 -190.23899841308594,155.79400634765625 C-160.45199584960938,166.85800170898438 -108.32499694824219,181.45399475097656 -53.89899826049805,186.26199340820312 C-56.9630012512207,200.55999755859375 -59.005001068115234,208.0489959716797 -60.0260009765625,219.6230010986328 C-62.5260009765625,247.95399475097656 -12.92199993133545,251.73199462890625 -1.2089999914169312,252.22900390625 C-1.2089999914169312,252.22900390625 1.2089999914169312,252.22900390625 1.2089999914169312,252.22900390625 C12.92199993133545,251.73199462890625 62.5260009765625,247.95399475097656 60.0260009765625,219.6230010986328 C59.005001068115234,208.0489959716797 56.9630012512207,200.55999755859375 53.89899826049805,186.26199340820312 C108.32499694824219,181.45399475097656 160.45199584960938,166.85800170898438 190.23899841308594,155.79400634765625 C204.76699829101562,150.3979949951172 252.80299377441406,135.1649932861328 202.49400329589844,95.02799987792969z M-79.43000030517578,114.68699645996094 C-94.23600006103516,114.68699645996094 -106.23899841308594,102.68499755859375 -106.23899841308594,87.87899780273438 C-106.23899841308594,73.072998046875 -94.23600006103516,61.06999969482422 -79.43000030517578,61.06999969482422 C-64.6240005493164,61.06999969482422 -52.62200164794922,73.072998046875 -52.62200164794922,87.87899780273438 C-52.62200164794922,102.68499755859375 -64.6240005493164,114.68699645996094 -79.43000030517578,114.68699645996094z M-14.579000473022461,-107.44100189208984 C-29.385000228881836,-107.44100189208984 -41.38800048828125,-119.44300079345703 -41.38800048828125,-134.24899291992188 C-41.38800048828125,-149.05499267578125 -29.385000228881836,-161.05799865722656 -14.579000473022461,-161.05799865722656 C0.22699999809265137,-161.05799865722656 12.229000091552734,-149.05499267578125 12.229000091552734,-134.24899291992188 C12.229000091552734,-119.44300079345703 0.22699999809265137,-107.44100189208984 -14.579000473022461,-107.44100189208984z M55.888999938964844,49.83599853515625 C41.08300018310547,49.83599853515625 29.079999923706055,37.83399963378906 29.079999923706055,23.027999877929688 C29.079999923706055,8.222000122070312 41.08300018310547,-3.7809998989105225 55.888999938964844,-3.7809998989105225 C70.69499969482422,-3.7809998989105225 82.6969985961914,8.222000122070312 82.6969985961914,23.027999877929688 C82.6969985961914,37.83399963378906 70.69499969482422,49.83599853515625 55.888999938964844,49.83599853515625z"></path></g></g></g></svg>