<svg xmlns="http://www.w3.org/2000/svg" xmlns:xlink="http://www.w3.org/1999/xlink" viewBox="0 0 512 512" width="512" height="512" style="width: 100%; height: 100%; transform: translate3d(0,0,0);" preserveAspectRatio="xMidYMid meet"><defs><clipPath id="__lottie_element_9103"><rect width="512" height="512" x="0" y="0"></rect></clipPath></defs><g clip-path="url(#__lottie_element_9103)"><g style="display: block;" transform="matrix(1,0,0,1,11.789993286132812,26.699996948242188)" opacity="1"><g opacity="1" transform="matrix(1,0,0,1,250.22999572753906,242.77499389648438)"><path fill="rgb(0,0,0)" fill-opacity="1" d=" M196.40899658203125,-20.514999389648438 C185.8990020751953,-7.824999809265137 166.94900512695312,-5.795000076293945 163.40899658203125,-8.515000343322754 C154.30999755859375,-15.515000343322754 249.97999572753906,-72.51499938964844 227.90899658203125,-163.0050048828125 C221.75999450683594,-188.21499633789062 174.48899841308594,-184.125 176.90899658203125,-167.5050048828125 C180.90899658203125,-140.0050048828125 175.15899658203125,-124.95500183105469 164.90899658203125,-124.00499725341797 C149.44900512695312,-122.58499908447266 170.40899658203125,-167.0050048828125 140.90899658203125,-187.0050048828125 C121.33999633789062,-200.27499389648438 123.62999725341797,-171.60499572753906 112.40899658203125,-178.0050048828125 C100.43000030517578,-184.84500122070312 95.91999816894531,-227.0050048828125 63.41999816894531,-235.0050048828125 C32.91999816894531,-242.51499938964844 44.28900146484375,-217.18499755859375 29.920000076293945,-218.5050048828125 C14.59000015258789,-219.90499877929688 18.920000076293945,-242.5050048828125 -3.0799999237060547,-242.5050048828125 C-22.910999298095703,-242.5050048828125 -19.360000610351562,-226.63499450683594 -33.58000183105469,-227.5050048828125 C-46.83000183105469,-228.31500244140625 -43.58000183105469,-242.52499389648438 -61.58000183105469,-241.0050048828125 C-78.08999633789062,-239.60499572753906 -70.11000061035156,-226.34500122070312 -79.58000183105469,-220.0050048828125 C-94.10099792480469,-210.26499938964844 -99.06999969482422,-235.0050048828125 -123.06999969482422,-221.5050048828125 C-144.51100158691406,-209.44500732421875 -121.56999969482422,-192.7949981689453 -132.07000732421875,-184.0050048828125 C-143.9709930419922,-174.0449981689453 -156.07000732421875,-202.0050048828125 -178.57000732421875,-184.0050048828125 C-194.3300018310547,-171.39500427246094 -174.12100219726562,-155.7050018310547 -185.07000732421875,-145.5050048828125 C-194.89100646972656,-136.36500549316406 -205.57000732421875,-149.5050048828125 -219.07000732421875,-137.5050048828125 C-238.64999389648438,-120.1050033569336 -214.39999389648438,-101.5250015258789 -213.07000732421875,-89.51499938964844 C-211.57000732421875,-76.01499938964844 -229.57000732421875,-89.51499938964844 -238.57000732421875,-61.01499938964844 C-249.97999572753906,-24.875 -214.57000732421875,-12.475000381469727 -214.57000732421875,-4.014999866485596 C-214.5800018310547,12.96500015258789 -244.07000732421875,10.984999656677246 -244.07000732421875,35.48500061035156 C-244.07000732421875,81.48500061035156 -178.08999633789062,111.0250015258789 -183.07000732421875,123.4749984741211 C-189.07000732421875,138.47500610351562 -198.99000549316406,122.55500030517578 -217.57000732421875,124.9749984741211 C-232.7100067138672,126.95500183105469 -246.11000061035156,155.2449951171875 -236.57000732421875,166.47500610351562 C-221.97999572753906,183.6649932861328 -189.89100646972656,198.18499755859375 -163.07000732421875,187.97500610351562 C-137.91099548339844,178.39500427246094 -128.80099487304688,157.2449951171875 -111.06999969482422,154.97500610351562 C-88.95999908447266,152.14500427246094 -64.20999908447266,156.94500732421875 -64.58000183105469,161.47500610351562 C-65.01100158691406,166.77499389648438 -86.08000183105469,172.97500610351562 -107.06999969482422,175.97500610351562 C-121.62100219726562,178.05499267578125 -118.29000091552734,208.8249969482422 -108.06999969482422,219.47500610351562 C-85.64099884033203,242.88499450683594 -18.35099983215332,222.00599670410156 2.9200000762939453,187.97500610351562 C17.920000076293945,163.97500610351562 9.819000244140625,144.93499755859375 18.920000076293945,134.97500610351562 C26.98900032043457,126.1449966430664 41.880001068115234,119.4749984741211 49.91999816894531,119.4749984741211 C61.91999816894531,119.4749984741211 47.48899841308594,146.48500061035156 37.41999816894531,169.97500610351562 C28.420000076293945,190.97500610351562 55.52899932861328,220.125 74.91999816894531,204.97500610351562 C161.90899658203125,136.97500610351562 101.91999816894531,72.48500061035156 110.90899658203125,54.48500061035156 C118.44000244140625,39.435001373291016 161.49899291992188,92.43499755859375 219.90899658203125,20.985000610351562 C242.40899658203125,-6.534999847412109 210.90899658203125,-38.01499938964844 196.40899658203125,-20.514999389648438z M-113.06999969482422,-122.00499725341797 C-104.47100067138672,-126.55500030517578 -97.04000091552734,-115.76499938964844 -86.08000183105469,-119.00499725341797 C-69.75,-123.83499908447266 -71.3010025024414,-152.15499877929688 -60.58000183105469,-153.5050048828125 C-51.150001525878906,-154.69500732421875 -38.10100173950195,-134.3249969482422 -36.58000183105469,-114.50499725341797 C-35.040000915527344,-94.4749984741211 -45.14099884033203,-72.8550033569336 -54.58000183105469,-72.51499938964844 C-62.150001525878906,-72.23500061035156 -66.04000091552734,-85.78500366210938 -72.58000183105469,-84.51499938964844 C-79.86000061035156,-83.09500122070312 -80.48999786376953,-70.76499938964844 -89.08000183105469,-67.01499938964844 C-98.6500015258789,-62.834999084472656 -115.7300033569336,-71.88500213623047 -120.56999969482422,-90.51499938964844 C-123.45099639892578,-101.59500122070312 -121.73999786376953,-117.42500305175781 -113.06999969482422,-122.00499725341797z M-165.57000732421875,-50.01499938964844 C-157.30099487304688,-62.494998931884766 -134.49000549316406,-58.3849983215332 -129.57000732421875,-50.01499938964844 C-119.0199966430664,-32.01499938964844 -120.61000061035156,-15.805000305175781 -156.07000732421875,-17.514999389648438 C-165.6699981689453,-17.975000381469727 -172.94000244140625,-38.8849983215332 -165.57000732421875,-50.01499938964844z M18.920000076293945,51.98500061035156 C3.5899999141693115,84.82499694824219 -38.06999969482422,59.404998779296875 -51.58000183105469,63.98500061035156 C-62.91999816894531,67.82499694824219 -40.97999954223633,86.42500305175781 -46.08000183105469,95.98500061035156 C-53.26100158691406,109.43499755859375 -89.08000183105469,113.4749984741211 -129.07000732421875,86.98500061035156 C-152.66099548339844,71.3550033569336 -164.07000732421875,43.875 -150.57000732421875,31.985000610351562 C-142.11000061035156,24.53499984741211 -118.06999969482422,40.165000915527344 -105.56999969482422,30.985000610351562 C-93.62999725341797,22.204999923706055 -118.06999969482422,6.485000133514404 -95.56999969482422,-13.015000343322754 C-74.48999786376953,-31.28499984741211 -50.34000015258789,-1.475000023841858 -33.58000183105469,8.484999656677246 C-15.420000076293945,19.274999618530273 29.420000076293945,29.485000610351562 18.920000076293945,51.98500061035156z M27.920000076293945,11.984999656677246 C14.609000205993652,1.0950000286102295 -1.3910000324249268,-29.954999923706055 -3.5799999237060547,-47.01499938964844 C-6.019999980926514,-66.00499725341797 16.499000549316406,-74.17500305175781 28.260000228881836,-66.00499725341797 C39.91999816894531,-57.904998779296875 53.749000549316406,-36.724998474121094 61.41999816894531,-6.514999866485596 C65.9800033569336,11.484999656677246 42.209999084472656,23.674999237060547 27.920000076293945,11.984999656677246z"></path></g></g></g></svg>