<svg xmlns="http://www.w3.org/2000/svg" xmlns:xlink="http://www.w3.org/1999/xlink" viewBox="0 0 512 512" width="512" height="512" style="width: 100%; height: 100%; transform: translate3d(0,0,0);" preserveAspectRatio="xMidYMid meet"><defs><clipPath id="__lottie_element_51290"><rect width="512" height="512" x="0" y="0"></rect></clipPath></defs><g clip-path="url(#__lottie_element_51290)"><g style="display: block;" transform="matrix(1,0,0,1,255.9949951171875,307.8970031738281)" opacity="1"><g opacity="1" transform="matrix(1,0,0,1,0,0)"><path fill="rgb(4,5,52)" fill-opacity="1" d=" M242.47000122070312,-145.69900512695312 C241.33999633789062,-169.41900634765625 161.14999389648438,-171.6790008544922 112.0199966430664,-149.468994140625 C67.66999816894531,-129.41900634765625 48.630001068115234,-103.37899780273438 40.77000045776367,-85.62899780273438 C32.91999816894531,-95.98899841308594 23.549999237060547,-99.39900207519531 23.549999237060547,-99.39900207519531 C23.549999237060547,-99.39900207519531 39.08000183105469,-104.12899780273438 38.16999816894531,-119.64900207519531 C48.529998779296875,-129.7689971923828 65.41000366210938,-162.79800415039062 58.939998626708984,-164.5279998779297 C53.290000915527344,-166.0279998779297 50.279998779296875,-149.468994140625 45.77000045776367,-140.61900329589844 C43.84000015258789,-136.83900451660156 39.77000045776367,-131.91799926757812 36.400001525878906,-127.52799987792969 C30.68000030517578,-141.88800048828125 12.6899995803833,-149.468994140625 0,-149.468994140625 C-12.6899995803833,-149.468994140625 -30.68000030517578,-141.88800048828125 -36.400001525878906,-127.52799987792969 C-39.77000045776367,-131.91799926757812 -43.84000015258789,-136.83900451660156 -45.77000045776367,-140.61900329589844 C-50.279998779296875,-149.468994140625 -53.290000915527344,-166.0279998779297 -58.939998626708984,-164.5279998779297 C-65.41000366210938,-162.79800415039062 -48.529998779296875,-129.7689971923828 -38.16999816894531,-119.64900207519531 C-39.08000183105469,-104.12899780273438 -23.549999237060547,-99.39900207519531 -23.549999237060547,-99.39900207519531 C-23.549999237060547,-99.39900207519531 -32.91999816894531,-95.98899841308594 -40.77000045776367,-85.62899780273438 C-48.630001068115234,-103.37899780273438 -67.66999816894531,-129.41900634765625 -112.0199966430664,-149.468994140625 C-161.14999389648438,-171.6790008544922 -241.33999633789062,-169.41900634765625 -242.47000122070312,-145.69900512695312 C-243.60000610351562,-121.98899841308594 -213.6699981689453,-105.04900360107422 -206.3300018310547,-94.87899780273438 C-198.99000549316406,-84.71900177001953 -183.74000549316406,-54.21900177001953 -127.2699966430664,-55.3489990234375 C-127.2699966430664,-55.3489990234375 -91.12999725341797,-60.999000549316406 -68.54000091552734,-88.66899871826172 C-68.54000091552734,-88.66899871826172 -82.08999633789062,-51.95899963378906 -131.22000122070312,-49.138999938964844 C-131.22000122070312,-49.138999938964844 -160.58999633789062,-54.21900177001953 -165.11000061035156,-34.45899963378906 C-169.6199951171875,-14.689000129699707 -130.66000366210938,29.351999282836914 -94.5199966430664,30.48200035095215 C-73.51000213623047,31.142000198364258 -58.61000061035156,20.72100067138672 -49.810001373291016,11.890999794006348 C-45.290000915527344,79.29100036621094 -31.18000030517578,164.88099670410156 0,164.88099670410156 C31.18000030517578,164.88099670410156 45.290000915527344,79.29100036621094 49.810001373291016,11.890999794006348 C58.61000061035156,20.72100067138672 73.51000213623047,31.142000198364258 94.5199966430664,30.48200035095215 C130.66000366210938,29.351999282836914 169.6199951171875,-14.689000129699707 165.11000061035156,-34.45899963378906 C160.58999633789062,-54.21900177001953 131.22000122070312,-49.138999938964844 131.22000122070312,-49.138999938964844 C82.08999633789062,-51.95899963378906 68.54000091552734,-88.66899871826172 68.54000091552734,-88.66899871826172 C91.12999725341797,-60.999000549316406 127.2699966430664,-55.3489990234375 127.2699966430664,-55.3489990234375 C183.74000549316406,-54.21900177001953 198.99000549316406,-84.71900177001953 206.3300018310547,-94.87899780273438 C213.6699981689453,-105.04900360107422 243.60000610351562,-121.98899841308594 242.47000122070312,-145.69900512695312z"></path></g></g></g></svg>