<svg xmlns="http://www.w3.org/2000/svg" xmlns:xlink="http://www.w3.org/1999/xlink" viewBox="0 0 512 512" width="512" height="512" style="width: 100%; height: 100%; transform: translate3d(0,0,0);" preserveAspectRatio="xMidYMid meet"><defs><clipPath id="__lottie_element_15831"><rect width="512" height="512" x="0" y="0"></rect></clipPath></defs><g clip-path="url(#__lottie_element_15831)"><g style="display: block;" transform="matrix(1,0,0,1,3.9600067138671875,4.2599945068359375)" opacity="1"><g opacity="1" transform="matrix(1,0,0,1,251.36000061035156,250.84500122070312)"><path fill="rgb(0,0,0)" fill-opacity="1" d=" M211.61000061035156,-25.145000457763672 C168.4499969482422,-54.85499954223633 108.37100219726562,-30.575000762939453 105.12100219726562,-41.64500045776367 C102.54100036621094,-50.3849983215332 142.13099670410156,-58.505001068115234 165.11000061035156,-92.63500213623047 C187.97000122070312,-126.59500122070312 193.09100341796875,-184.3249969482422 165.11000061035156,-205.13499450683594 C138.41099548339844,-224.9949951171875 88.30000305175781,-206.1649932861328 61.62099838256836,-178.13499450683594 C24.83099937438965,-139.48500061035156 29.58099937438965,-80.17500305175781 22.621000289916992,-80.6449966430664 C16.760000228881836,-81.0250015258789 23.43000030517578,-122.48500061035156 4.620999813079834,-164.63499450683594 C-13.199999809265137,-204.5850067138672 -56.34000015258789,-250.59500122070312 -89.86900329589844,-241.13499450683594 C-121.44999694824219,-232.22500610351562 -138.39999389648438,-175.875 -128.86900329589844,-133.13499450683594 C-117.27999877929688,-81.1449966430664 -66.40899658203125,-48.834999084472656 -68.87999725341797,-46.14500045776367 C-71.03900146484375,-43.775001525878906 -99.41999816894531,-80.49500274658203 -140.86900329589844,-86.6449966430664 C-186.05999755859375,-93.34500122070312 -246.22999572753906,-63.64500045776367 -248.86900329589844,-25.145000457763672 C-251.11000061035156,7.625999927520752 -211.1699981689453,39.32500076293945 -175.36900329589844,48.35499954223633 C-124.7300033569336,61.1150016784668 -74.4800033569336,30.4950008392334 -73.37999725341797,33.35499954223633 C-72.44000244140625,35.76499938964844 -113.20999908447266,44.67599868774414 -140.86900329589844,75.3550033569336 C-173.72999572753906,111.7959976196289 -187.38900756835938,178.18499755859375 -160.36900329589844,201.34500122070312 C-137.11900329589844,221.27499389648438 -87.05999755859375,206.35499572753906 -56.880001068115234,181.84500122070312 C-10.359999656677246,144.0749969482422 -7.46999979019165,84.34500122070312 -3.880000114440918,85.3550033569336 C-0.9300000071525574,86.1760025024414 -15.949999809265137,120.25599670410156 -4.380000114440918,162.34500122070312 C8.279999732971191,208.38499450683594 56.1609992980957,250.59500122070312 85.62100219726562,240.34500122070312 C108.71099853515625,232.30499267578125 118.38099670410156,192.75599670410156 117.11000061035156,163.84500122070312 C114.38099670410156,101.41500091552734 71.94000244140625,66.4749984741211 80.12100219726562,57.35499954223633 C87.76000213623047,48.82500076293945 116.0009994506836,86.83599853515625 172.61000061035156,82.8550033569336 C198.00999450683594,81.06500244140625 237.07000732421875,68.8759994506836 244.61000061035156,40.85499954223633 C251.11000061035156,16.704999923706055 232.00999450683594,-11.104999542236328 211.61000061035156,-25.145000457763672z M61.06999969482422,17.155000686645508 C56.099998474121094,32.23500061035156 30.950000762939453,18.094999313354492 25.690000534057617,22.104999542236328 C19.850000381469727,26.55500030517578 26.899999618530273,54.3650016784668 10.699999809265137,54.69499969482422 C-6.21999979019165,55.04600143432617 -0.8199999928474426,33.83599853515625 -6.28000020980835,31.114999771118164 C-13.380000114440918,27.575000762939453 -28.700000762939453,45.48500061035156 -37.409000396728516,29.69499969482422 C-45.36000061035156,15.274999618530273 -20,8.885000228881836 -23.260000228881836,3.2850000858306885 C-26.350000381469727,-2.0250000953674316 -46.310001373291016,5.835999965667725 -45.61000061035156,-15.085000038146973 C-45.060001373291016,-31.30500030517578 -23.299999237060547,-18.46500015258789 -20.059999465942383,-26.864999771118164 C-18.409000396728516,-31.135000228881836 -26.59000015258789,-49.69499969482422 -16.18000030517578,-52.375 C2.069999933242798,-57.05500030517578 6.929999828338623,-29.674999237060547 13.100000381469727,-28.975000381469727 C19.739999771118164,-28.225000381469727 29.690000534057617,-45.53499984741211 40.42100143432617,-39.6349983215332 C57.93000030517578,-30.0049991607666 40.02000045776367,-16.924999237060547 40.42100143432617,-9.925000190734863 C40.95000076293945,-0.5849999785423279 67.36000061035156,-1.934999942779541 61.06999969482422,17.155000686645508z"></path></g></g></g></svg>