<svg xmlns="http://www.w3.org/2000/svg" xmlns:xlink="http://www.w3.org/1999/xlink" viewBox="0 0 512 512" width="512" height="512" style="width: 100%; height: 100%; transform: translate3d(0,0,0);" preserveAspectRatio="xMidYMid meet"><defs><clipPath id="__lottie_element_52861"><rect width="512" height="512" x="0" y="0"></rect></clipPath></defs><g clip-path="url(#__lottie_element_52861)"><g style="display: block;" transform="matrix(1,0,0,1,256,256)" opacity="1"><g opacity="1" transform="matrix(1,0,0,1,0,0)"><path fill="rgb(0,0,0)" fill-opacity="1" d=" M-105.80799865722656,19.61400032043457 C-96.68599700927734,20.881000518798828 -96.5510025024414,34.02399826049805 -105.5469970703125,35.571998596191406 C-105.5469970703125,35.571998596191406 -105.80799865722656,35.61399841308594 -105.80799865722656,35.61399841308594 C-220.48699951171875,55.215999603271484 -321.5060119628906,242.6230010986328 -90.11499786376953,175.4530029296875 C-20.638999938964844,316.7279968261719 82.5009994506836,188.23199462890625 37.37699890136719,88.84200286865234 C80.35199737548828,165.51400756835938 157.8979949951172,269.4110107421875 199.24899291992188,97.36100006103516 C309.5509948730469,17.849000930786133 204.97900390625,-51.722999572753906 96.10900115966797,-34.685001373291016 C245.7100067138672,-73.66699981689453 265.2349853515625,-188.20799255371094 96.10900115966797,-197.96800231933594 C14.456999778747559,-288.8389892578125 -108.04199981689453,-254.29100036621094 -35.3390007019043,-64.1719970703125 C-111.13500213623047,-219.02699279785156 -212.8159942626953,-221.64300537109375 -201.4720001220703,-85.69100189208984 C-254.3260040283203,-39.314998626708984 -256.90301513671875,9.616999626159668 -206.82200622558594,30.104999542236328 C-203.23300170898438,31.572999954223633 -199.21800231933594,31.658000946044922 -195.5570068359375,30.3799991607666 C-166.4929962158203,20.232999801635742 -136.11700439453125,15.404000282287598 -105.80799865722656,19.61400032043457z"></path></g></g></g></svg>