<svg xmlns="http://www.w3.org/2000/svg" xmlns:xlink="http://www.w3.org/1999/xlink" viewBox="0 0 512 512" width="512" height="512" style="width: 100%; height: 100%; transform: translate3d(0,0,0);" preserveAspectRatio="xMidYMid meet"><defs><clipPath id="__lottie_element_53174"><rect width="512" height="512" x="0" y="0"></rect></clipPath></defs><g clip-path="url(#__lottie_element_53174)"><g style="display: block;" transform="matrix(1,0,0,1,0,0)" opacity="1"><g opacity="1" transform="matrix(1,0,0,1,276,111)"><path fill="rgb(0,0,0)" fill-opacity="1" d=" M100.24099731445312,33.255001068115234 C100.24099731445312,100.22200012207031 42.8849983215332,193.5590057373047 -21.527999877929688,193.5590057373047 C-85.94200134277344,193.5590057373047 -133.02099609375,100.22200012207031 -133.02099609375,33.255001068115234 C-133.02099609375,-33.71200180053711 -80.80400085449219,-88 -16.389999389648438,-88 C48.02299880981445,-88 100.24099731445312,-33.71200180053711 100.24099731445312,33.255001068115234z"></path></g><g opacity="1" transform="matrix(1,0,0,1,133.39300537109375,279.8489990234375)"><path fill="rgb(0,0,0)" fill-opacity="1" d=" M131.86900329589844,20.599000930786133 C131.86900329589844,84.16200256347656 79.6510009765625,135.68899536132812 15.23799991607666,135.68899536132812 C-49.17499923706055,135.68899536132812 -101.39299774169922,84.16200256347656 -101.39299774169922,20.599000930786133 C-101.39299774169922,-42.9640007019043 -49.17499923706055,-94.48999786376953 15.23799991607666,-94.48999786376953 C79.6510009765625,-94.48999786376953 131.86900329589844,-42.9640007019043 131.86900329589844,20.599000930786133z"></path></g><g opacity="1" transform="matrix(1,0,0,1,393.5,295.5)"><path fill="rgb(0,0,0)" fill-opacity="1" d=" M85.5,12.140999794006348 C85.5,75.13600158691406 37.077999114990234,126.2030029296875 -22.652999877929688,126.2030029296875 C-82.38400268554688,126.2030029296875 -130.8070068359375,75.13600158691406 -130.8070068359375,12.140999794006348 C-130.8070068359375,-50.854000091552734 -82.38400268554688,-101.9209976196289 -22.652999877929688,-101.9209976196289 C37.077999114990234,-101.9209976196289 85.5,-50.854000091552734 85.5,12.140999794006348z"></path></g><g opacity="1" transform="matrix(1,0,0,1,252.03599548339844,336.2669982910156)"><path fill="rgb(0,0,0)" fill-opacity="1" d=" M11.055000305175781,-15.395000457763672 C-30.961000442504883,54.60900115966797 -33.01499938964844,74.13400268554688 -70.25199890136719,102.177001953125 C-88.58300018310547,115.98200225830078 -90.75599670410156,141.50599670410156 -71.27799987792969,144.71099853515625 C-38.02399826049805,150.1820068359375 55.356998443603516,151.20199584960938 88.23899841308594,145.03700256347656 C100.3479995727539,142.76699829101562 100.6520004272461,114.177001953125 84.95800018310547,107.0770034790039 C-19.656999588012695,59.74700164794922 16.966999053955078,-25.246000289916992 11.055000305175781,-15.395000457763672z"></path></g></g></g></svg>