<svg xmlns="http://www.w3.org/2000/svg" xmlns:xlink="http://www.w3.org/1999/xlink" viewBox="0 0 512 512" width="512" height="512" style="width: 100%; height: 100%; transform: translate3d(0,0,0);" preserveAspectRatio="xMidYMid meet"><defs><clipPath id="__lottie_element_52185"><rect width="512" height="512" x="0" y="0"></rect></clipPath></defs><g clip-path="url(#__lottie_element_52185)"><g style="display: block;" transform="matrix(1,0,0,1,255.9949951171875,245.13900756835938)" opacity="1"><g opacity="1" transform="matrix(1,0,0,1,0,0)"><path fill="rgb(4,5,52)" fill-opacity="1" d=" M204.15699768066406,-150.89999389648438 C218.3209991455078,-154.03599548339844 228.91799926757812,-166.66099548339844 228.91799926757812,-181.76800537109375 C228.91799926757812,-199.23300170898438 214.75999450683594,-213.39199829101562 197.2949981689453,-213.39199829101562 C179.8300018310547,-213.39199829101562 165.67100524902344,-199.23300170898438 165.67100524902344,-181.76800537109375 C165.67100524902344,-181.76800537109375 156.447998046875,-141.6739959716797 143.08299255371094,-136.02699279785156 C136.14300537109375,-133.09500122070312 128.4010009765625,-157.48599243164062 128.4010009765625,-157.48599243164062 C128.4010009765625,-169.33700561523438 118.79299926757812,-178.94500732421875 106.94200134277344,-178.94500732421875 C95.09100341796875,-178.94500732421875 85.48300170898438,-169.33700561523438 85.48300170898438,-157.48599243164062 C85.48300170898438,-145.63499450683594 95.09100341796875,-136.02699279785156 106.94200134277344,-136.02699279785156 C106.94200134277344,-136.02699279785156 128.4010009765625,-131.50900268554688 128.4010009765625,-124.73300170898438 C128.4010009765625,-119.66699981689453 117.35900115966797,-110.5009994506836 111.78199768066406,-106.19499969482422 C79.86000061035156,-116.34500122070312 32.85900115966797,-127.0270004272461 9.59000015258789,-129.91099548339844 C9.59000015258789,-129.91099548339844 0,137.00999450683594 0,137.00999450683594 C0,137.00999450683594 -13.239999771118164,-129.42100524902344 -13.239999771118164,-129.42100524902344 C-37.50699996948242,-125.96700286865234 -81.4520034790039,-115.84100341796875 -111.78099822998047,-106.19499969482422 C-117.35800170898438,-110.5009994506836 -128.4010009765625,-119.66699981689453 -128.4010009765625,-124.73300170898438 C-128.4010009765625,-131.50900268554688 -106.94200134277344,-136.02699279785156 -106.94200134277344,-136.02699279785156 C-95.09100341796875,-136.02699279785156 -85.48300170898438,-145.63499450683594 -85.48300170898438,-157.48599243164062 C-85.48300170898438,-169.33700561523438 -95.09100341796875,-178.94500732421875 -106.94200134277344,-178.94500732421875 C-118.79299926757812,-178.94500732421875 -128.4010009765625,-169.33700561523438 -128.4010009765625,-157.48599243164062 C-128.4010009765625,-157.48599243164062 -136.14300537109375,-133.09500122070312 -143.08299255371094,-136.02699279785156 C-156.447998046875,-141.6739959716797 -165.67100524902344,-181.76800537109375 -165.67100524902344,-181.76800537109375 C-165.67100524902344,-199.23300170898438 -179.8300018310547,-213.39199829101562 -197.2949981689453,-213.39199829101562 C-214.75999450683594,-213.39199829101562 -228.91799926757812,-199.23300170898438 -228.91799926757812,-181.76800537109375 C-228.91799926757812,-166.66099548339844 -218.3209991455078,-154.03599548339844 -204.15699768066406,-150.89999389648438 C-187.69400024414062,-146.75599670410156 -166.8000030517578,-130.94500732421875 -165.67100524902344,-121.91000366210938 C-164.54200744628906,-112.875 -190.4010009765625,-113.7979965209961 -190.4010009765625,-113.7979965209961 C-190.4010009765625,-113.7979965209961 -190.38800048828125,-113.7770004272461 -190.38800048828125,-113.7770004272461 C-191.3560028076172,-113.91100311279297 -192.33700561523438,-114.00399780273438 -193.3419952392578,-114.00399780273438 C-205.1929931640625,-114.00399780273438 -214.8000030517578,-104.39600372314453 -214.8000030517578,-92.54499816894531 C-214.8000030517578,-80.69400024414062 -205.1929931640625,-71.08599853515625 -193.3419952392578,-71.08599853515625 C-184.0449981689453,-71.08599853515625 -176.1529998779297,-77.00900268554688 -173.1719970703125,-85.27799987792969 C-173.1719970703125,-85.27799987792969 -173.156005859375,-85.25299835205078 -173.156005859375,-85.25299835205078 C-173.156005859375,-85.25299835205078 -164.54200744628906,-105.53299713134766 -156.0709991455078,-108.35700225830078 C-151.79800415039062,-109.78099822998047 -145.51499938964844,-102.44000244140625 -140.33599853515625,-94.81500244140625 C-141.6300048828125,-94.0199966430664 -142.65699768066406,-93.25900268554688 -143.3699951171875,-92.54000091552734 C-156.4499969482422,-79.36000061035156 -150.17999267578125,44.308998107910156 -116.26000213623047,103.12899780273438 C-108.28900146484375,116.94599914550781 -99.58599853515625,129.35299682617188 -90.61599731445312,140.39300537109375 C-109.67400360107422,160.15499877929688 -142.4219970703125,210.89599609375 -136.16400146484375,213.2429962158203 C-130.0030059814453,215.55299377441406 -81.13500213623047,190.5570068359375 -58.939998626708984,173.26600646972656 C-34.125,194.781005859375 -11.277000427246094,205.61900329589844 0,205.61900329589844 C11.281999588012695,205.61900329589844 34.12900161743164,194.78199768066406 58.944000244140625,173.27000427246094 C81.14099884033203,190.56100463867188 130.0030059814453,215.55299377441406 136.16400146484375,213.2429962158203 C142.42100524902344,210.89700317382812 109.68000030517578,160.1649932861328 90.62100219726562,140.3990020751953 C99.59300231933594,129.35800170898438 108.2979965209961,116.947998046875 116.2699966430664,103.12899780273438 C150.19000244140625,44.308998107910156 156.4600067138672,-79.36000061035156 143.3800048828125,-92.54000091552734 C142.6649932861328,-93.26000213623047 141.63900756835938,-94.02300262451172 140.33999633789062,-94.81999969482422 C145.5189971923828,-102.44300079345703 151.7989959716797,-109.78099822998047 156.0709991455078,-108.35700225830078 C164.54200744628906,-105.53299713134766 173.156005859375,-85.25299835205078 173.156005859375,-85.25299835205078 C173.156005859375,-85.25299835205078 173.1719970703125,-85.27799987792969 173.1719970703125,-85.27799987792969 C176.1529998779297,-77.00900268554688 184.0449981689453,-71.08599853515625 193.3419952392578,-71.08599853515625 C205.1929931640625,-71.08599853515625 214.8000030517578,-80.69400024414062 214.8000030517578,-92.54499816894531 C214.8000030517578,-104.39600372314453 205.1929931640625,-114.00399780273438 193.3419952392578,-114.00399780273438 C192.33700561523438,-114.00399780273438 191.3560028076172,-113.91100311279297 190.38800048828125,-113.7770004272461 C190.38800048828125,-113.7770004272461 190.4010009765625,-113.7979965209961 190.4010009765625,-113.7979965209961 C190.4010009765625,-113.7979965209961 164.54200744628906,-112.875 165.67100524902344,-121.91000366210938 C166.8000030517578,-130.94500732421875 187.69400024414062,-146.75599670410156 204.15699768066406,-150.89999389648438z"></path></g></g></g></svg>