<svg xmlns="http://www.w3.org/2000/svg" xmlns:xlink="http://www.w3.org/1999/xlink" viewBox="0 0 512 512" width="512" height="512" style="width: 100%; height: 100%; transform: translate3d(0,0,0);" preserveAspectRatio="xMidYMid meet"><defs><clipPath id="__lottie_element_52408"><rect width="512" height="512" x="0" y="0"></rect></clipPath></defs><g clip-path="url(#__lottie_element_52408)"><g style="display: block;" transform="matrix(1,0,0,1,277.6659851074219,274.7850036621094)" opacity="1"><g opacity="1" transform="matrix(1,0,0,1,0,0)"><path fill="rgb(4,5,52)" fill-opacity="1" d=" M188.18899536132812,186.70399475097656 C144.08900451660156,232.66400146484375 -42.21099853515625,235.83399963378906 -79.48100280761719,172.58399963378906 C-80.24099731445312,171.28399658203125 -80.98100280761719,169.9739990234375 -81.70099639892578,168.66400146484375 C-168.06100463867188,189.58399963378906 -224.61099243164062,147.73399353027344 -222.3509979248047,82.79399871826172 C-220.11099243164062,18.36400032043457 -158.9510040283203,-6.5960001945495605 -157.99099731445312,-6.97599983215332 C-205.41099548339844,31.423999786376953 -209.93099975585938,89.01399993896484 -178.87100219726562,114.98400115966797 C-147.81100463867188,140.96400451660156 -96.09100341796875,122.92400360107422 -96.09100341796875,122.92400360107422 C-96.09100341796875,122.92400360107422 -96.07099914550781,122.98400115966797 -96.07099914550781,122.98400115966797 C-102.5009994506836,70.49400329589844 -78.93099975585938,14.784000396728516 -44.47100067138672,-18.785999298095703 C1.2690000534057617,-63.33599853515625 69.5989990234375,-80.96600341796875 73.73899841308594,-107.31600189208984 C77.87899780273438,-133.67599487304688 55.66899871826172,-144.58599853515625 55.66899871826172,-144.58599853515625 C80.51899719238281,-158.89599609375 127.1989974975586,-160.0260009765625 153.9290008544922,-144.21600341796875 C180.218994140625,-128.66600036621094 174.0989990234375,-77.43599700927734 173.88900756835938,-75.73600006103516 C174.37899780273438,-77.34600067138672 189.9290008544922,-129.51600646972656 156.93899536132812,-152.49600219726562 C123.42900085449219,-175.83599853515625 53.78900146484375,-170.5659942626953 18.77899932861328,-137.0659942626953 C-16.240999221801758,-103.55599975585938 -21.881000518798828,-70.0459976196289 -41.08100128173828,-65.15599822998047 C-59.46099853515625,-60.47600173950195 -71.98100280761719,-84.08599853515625 -73.01100158691406,-86.10600280761719 C-67.35099792480469,-76.82599639892578 -57.270999908447266,-76.44599914550781 -57.270999908447266,-76.44599914550781 C-60.6609992980957,-86.61599731445312 -57.6510009765625,-91.50599670410156 -57.6510009765625,-91.50599670410156 C-57.6510009765625,-84.35600280761719 -50.87099838256836,-76.44599914550781 -47.861000061035156,-76.44599914550781 C-44.85100173950195,-76.44599914550781 -42.21099853515625,-77.95600128173828 -28.660999298095703,-97.90599822998047 C-15.111000061035156,-117.86599731445312 -13.980999946594238,-138.9459991455078 -15.861000061035156,-140.0760040283203 C-17.740999221801758,-141.20599365234375 -23.391000747680664,-137.0659942626953 -33.180999755859375,-134.42599487304688 C-42.96099853515625,-131.78599548339844 -59.9109992980957,-134.80599975585938 -62.92100143432617,-134.04600524902344 C-65.93099975585938,-133.29600524902344 -62.92100143432617,-115.97599792480469 -62.92100143432617,-115.97599792480469 C-72.71099853515625,-120.49600219726562 -73.46099853515625,-129.906005859375 -74.21099853515625,-131.41600036621094 C-74.96099853515625,-132.91600036621094 -95.29100036621094,-135.55599975585938 -97.39099884033203,-132.16600036621094 C-99.48100280761719,-128.7760009765625 -90.78099822998047,-114.09600067138672 -90.78099822998047,-114.09600067138672 C-113.74099731445312,-125.38600158691406 -120.14099884033203,-149.86599731445312 -117.88099670410156,-154.00599670410156 C-115.62100219726562,-158.14599609375 -99.81099700927734,-162.28599548339844 -93.04100036621094,-167.17599487304688 C-86.26100158691406,-172.0760040283203 -84.58100128173828,-184.48599243164062 -76.47100067138672,-190.89599609375 C-63.861000061035156,-200.87600708007812 95.62899780273438,-244.78599548339844 169.5489959716797,-202.9459991455078 C229.40899658203125,-169.0659942626953 248.60899353027344,-58.375999450683594 172.93899536132812,-25.06599998474121 C92.4990005493164,10.354000091552734 41.92900085449219,3.1740000247955322 -4.38100004196167,47.2239990234375 C-38.500999450683594,79.68399810791016 -38.26100158691406,107.64399719238281 -38.26100158691406,107.64399719238281 C-38.26100158691406,107.64399719238281 -54.07099914550781,160.16400146484375 37.979000091552734,166.9340057373047 C130.0189971923828,173.71400451660156 145.2689971923828,139.26400756835938 145.2689971923828,139.26400756835938 C145.2689971923828,139.26400756835938 109.79900360107422,166.48399353027344 40.229000091552734,156.96400451660156 C-17.92099952697754,149.00399780273438 -24.621000289916992,127.92400360107422 -25.701000213623047,101.98400115966797 C3.6989998817443848,89.71399688720703 79.91899871826172,63.433998107910156 150.91900634765625,85.6240005493164 C203.06900024414062,101.92400360107422 228.2790069580078,144.91400146484375 188.18899536132812,186.70399475097656z"></path></g></g></g></svg>