<svg xmlns="http://www.w3.org/2000/svg" xmlns:xlink="http://www.w3.org/1999/xlink" viewBox="0 0 512 512" width="512" height="512" style="width: 100%; height: 100%; transform: translate3d(0,0,0);" preserveAspectRatio="xMidYMid meet"><defs><clipPath id="__lottie_element_51540"><rect width="512" height="512" x="0" y="0"></rect></clipPath></defs><g clip-path="url(#__lottie_element_51540)"><g style="display: block;" transform="matrix(1,0,0,1,256,256)" opacity="1"><g opacity="1" transform="matrix(1,0,0,1,0,0)"><path fill="rgb(0,0,0)" fill-opacity="1" d=" M211.6490020751953,144.04600524902344 C205.25399780273438,123.76699829101562 153.93499755859375,121.27999877929688 90.89700317382812,136.34500122070312 C74.97200012207031,116.11599731445312 63.93199920654297,86.86299896240234 56.28799819946289,56.86000061035156 C127.84100341796875,6.953999996185303 177.66200256347656,-192.33399963378906 170.79400634765625,-224.9239959716797 C170.79400634765625,-224.9239959716797 170.79400634765625,-224.9239959716797 170.79400634765625,-224.9239959716797 C170.79400634765625,-224.9239959716797 170.79400634765625,-224.9239959716797 170.79400634765625,-224.9239959716797 C170.79400634765625,-224.9239959716797 170.79400634765625,-224.9239959716797 170.79400634765625,-224.9239959716797 C150.1739959716797,-290.32000732421875 -265.97900390625,-161.6699981689453 -244.6199951171875,-93.93399810791016 C-235.31399536132812,-64.4229965209961 -151.6540069580078,-78.65899658203125 -126.9229965209961,-83.47100067138672 C-116.8759994506836,-85.427001953125 -113.1520004272461,-72.90399932861328 -120.9489974975586,-68.62799835205078 C-134.64300537109375,-61.138999938964844 -148.6479949951172,-54.435001373291016 -163.2949981689453,-49.016998291015625 C-174.79400634765625,-44.76300048828125 -177.41799926757812,-29.683000564575195 -168.04100036621094,-21.784000396728516 C-118.15799713134766,20.236000061035156 -52.566001892089844,65.91200256347656 1.3990000486373901,70.7770004272461 C13.067999839782715,100.93800354003906 21.45199966430664,132.78199768066406 19.75,159.5469970703125 C-35.90700149536133,182.89700317382812 -72.53500366210938,212.4010009765625 -66.43900299072266,231.73399353027344 C-48.6879997253418,288.02801513671875 229.3979949951172,200.33299255371094 211.6490020751953,144.04600524902344z M23.413000106811523,-46.79600143432617 C23.413000106811523,-86.83200073242188 84.00800323486328,-86.87300109863281 84.00800323486328,-46.79600143432617 C84.00800323486328,-6.761000156402588 23.413000106811523,-6.718999862670898 23.413000106811523,-46.79600143432617z M124.10099792480469,-210.21099853515625 C55.76499938964844,-158.59300231933594 -114.50499725341797,-105.63200378417969 -197.927001953125,-108.64600372314453 C-130.61000061035156,-159.49400329589844 39.58300018310547,-213.26499938964844 124.10099792480469,-210.21099853515625z M62.10200119018555,-120.41799926757812 C62.10200119018555,-144.6929931640625 98.84400177001953,-144.718994140625 98.84400177001953,-120.41799926757812 C98.84400177001953,-96.14299774169922 62.10200119018555,-96.11699676513672 62.10200119018555,-120.41799926757812z"></path></g></g></g></svg>