<svg xmlns="http://www.w3.org/2000/svg" xmlns:xlink="http://www.w3.org/1999/xlink" viewBox="0 0 512 512" width="512" height="512" style="width: 100%; height: 100%; transform: translate3d(0,0,0);" preserveAspectRatio="xMidYMid meet"><defs><clipPath id="__lottie_element_51760"><rect width="512" height="512" x="0" y="0"></rect></clipPath></defs><g clip-path="url(#__lottie_element_51760)"><g style="display: block;" transform="matrix(1,0,0,1,256,256)" opacity="1"><g opacity="1" transform="matrix(1,0,0,1,0,0)"><path fill="rgb(0,0,0)" fill-opacity="1" d=" M-202.97500610351562,-54.358001708984375 C-272.9330139160156,80.46900177001953 -152.78900146484375,240 0,240 C204.51499938964844,240 252.18099975585938,-0.027000000700354576 201.8990020751953,-56.180999755859375 C196.52099609375,-62.18600082397461 184.3769989013672,-71.12300109863281 157.0659942626953,-79.5989990234375 C140.5749969482422,-84.71700286865234 119.73999786376953,-59.92300033569336 157.89999389648438,-45.512001037597656 C140.31300354003906,-38.867000579833984 118.27200317382812,-34.209999084472656 99.69300079345703,-31.26799964904785 C99.69300079345703,-31.26799964904785 126.13300323486328,-118.75199890136719 126.13300323486328,-118.75199890136719 C133.31500244140625,-115.81300354003906 139.5030059814453,-111.6969985961914 143.46499633789062,-105.97899627685547 C150.57899475097656,-95.70999908447266 162.3939971923828,-99.8550033569336 171.26100158691406,-108.64399719238281 C174.4219970703125,-111.7770004272461 188.77699279785156,-108.30500030517578 199.18800354003906,-104.20500183105469 C214.53199768066406,-98.10800170898438 227.9600067138672,-116.61399841308594 217.38600158691406,-129.31399536132812 C217.38600158691406,-129.31399536132812 152.7760009765625,-206.906005859375 152.7760009765625,-206.906005859375 C165.06399536132812,-247.56199645996094 134.04600524902344,-255.54200744628906 122.12899780273438,-216.11199951171875 C122.12899780273438,-216.11199951171875 25.454999923706055,-187.322998046875 25.454999923706055,-187.322998046875 C8.62600040435791,-182.31100463867188 11.121999740600586,-157.60299682617188 28.606000900268555,-156.05099487304688 C46.481998443603516,-154.46400451660156 52.77399826049805,-148.06900024414062 52.731998443603516,-142.49600219726562 C50.915000915527344,-133.46400451660156 57.987998962402344,-123.14600372314453 70.61299896240234,-124.71600341796875 C75.7229995727539,-125.35099792480469 84.63999938964844,-125.8010025024414 94.64399719238281,-125.1719970703125 C94.64399719238281,-125.1719970703125 85.23999786376953,-94.05699920654297 85.23999786376953,-94.05699920654297 C58.62699890136719,-97.29399871826172 29.433000564575195,-99 0.15700000524520874,-99 C-20.985000610351562,-99 -21.006999969482422,-67 0.15700000524520874,-67 C26.141000747680664,-67 52.00199890136719,-65.60199737548828 75.83499908447266,-62.93899917602539 C75.83499908447266,-62.93899917602539 64.95700073242188,-26.94700050354004 64.95700073242188,-26.94700050354004 C32.933998107910156,-23.95199966430664 -0.4790000021457672,-23.333999633789062 -31.802000045776367,-24.70800018310547 C-31.802000045776367,-24.70800018310547 -88.56900024414062,-197.7519989013672 -88.56900024414062,-197.7519989013672 C-90.76100158691406,-204.2740020751953 -96.06600189208984,-209.77000427246094 -103.18399810791016,-211.79400634765625 C-208.20599365234375,-241.65699768066406 -201.51800537109375,-239.95799255371094 -205.48300170898438,-240.3520050048828 C-247.72799682617188,-244.5500030517578 -254.12600708007812,-180.61599731445312 -211.83700561523438,-176.41299438476562 C-211.83700561523438,-176.41299438476562 -126.79199981689453,-167.96099853515625 -126.79199981689453,-167.96099853515625 C-126.79199981689453,-167.96099853515625 -96.0270004272461,-92.60099792480469 -96.0270004272461,-92.60099792480469 C-120.80599975585938,-89.08699798583984 -191.427001953125,-76.61499786376953 -202.97500610351562,-54.358001708984375z M-157.57200622558594,-45.50600051879883 C-150.9029998779297,-48.0260009765625 -142.1909942626953,-50.77899932861328 -130.88999938964844,-53.52399826049805 C-116.68000030517578,-56.97600173950195 -100.79900360107422,-59.810001373291016 -83.53099822998047,-61.9900016784668 C-83.53099822998047,-61.9900016784668 -69.41400146484375,-27.410999298095703 -69.41400146484375,-27.410999298095703 C-77.70800018310547,-28.25200080871582 -85.77899932861328,-29.243999481201172 -93.57099914550781,-30.381999969482422 C-99.31400299072266,-31.22100067138672 -105.09600067138672,-28.95599937438965 -108.60800170898438,-24.334999084472656 C-119.15399932861328,-10.461000442504883 -129.70799255371094,13.767000198364258 -131.4720001220703,63 C-131.8350067138672,73.12799835205078 -144.52999877929688,74.0510025024414 -147.22500610351562,65.7979965209961 C-158.53199768066406,30.92300033569336 -166.78199768066406,-10.404000282287598 -157.57200622558594,-45.50600051879883z M73.73699951171875,121.31400299072266 C34.012001037597656,114.74500274658203 64.68199920654297,50.37200164794922 88.14800262451172,45.198001861572266 C135.25100708007812,34.8120002746582 113.46199798583984,127.88300323486328 73.73699951171875,121.31400299072266z M115.4520034790039,148.61900329589844 C97.51499938964844,139.71099853515625 124.91100311279297,106.02899932861328 137.2729949951172,106.00299835205078 C162.08700561523438,105.94999694824219 133.38900756835938,157.52699279785156 115.4520034790039,148.61900329589844z"></path></g></g></g></svg>