<svg xmlns="http://www.w3.org/2000/svg" xmlns:xlink="http://www.w3.org/1999/xlink" viewBox="0 0 512 512" width="512" height="512" style="width: 100%; height: 100%; transform: translate3d(0,0,0);" preserveAspectRatio="xMidYMid meet"><defs><clipPath id="__lottie_element_52443"><rect width="512" height="512" x="0" y="0"></rect></clipPath></defs><g clip-path="url(#__lottie_element_52443)"><g style="display: block;" transform="matrix(1,0,0,1,255.27699279785156,257.2720031738281)" opacity="1"><g opacity="1" transform="matrix(1,0,0,1,-44.72999954223633,-91.5250015258789)"><path fill="rgb(0,0,0)" fill-opacity="1" d=" M-168.60400390625,145.38900756835938 C-196.11099243164062,146.53500366210938 -212.2169952392578,64.25599670410156 -175.9029998779297,-5.578000068664551 C-124.14299774169922,-105.11699676513672 -1.378000020980835,-167.16299438476562 116.0780029296875,-138.2969970703125 C233.53399658203125,-109.43099975585938 202.67599487304688,-1.9290000200271606 150.91600036621094,40.87300109863281 C93.99600219726562,87.94200134277344 -4.363999843597412,61.7760009765625 -76.03199768066406,86.66100311279297 C-147.6999969482422,111.5459976196289 -144.71499633789062,144.3939971923828 -168.60400390625,145.38900756835938z"></path></g><g opacity="1" transform="matrix(1,0,0,1,29.13800048828125,78.55500030517578)"><path fill="rgb(0,0,0)" fill-opacity="1" d=" M175.52999877929688,-158.26300048828125 C202.87399291992188,-161.46400451660156 232.2790069580078,-93.21499633789062 194.83599853515625,7.49399995803833 C156.34800720214844,111.01499938964844 26.988000869750977,175.24099731445312 -92.16799926757812,154.47900390625 C-223.5590057373047,131.5850067138672 -238.49099731445312,29.06100082397461 -179.76300048828125,-23.69499969482422 C-124.81700134277344,-73.0530014038086 -38.417999267578125,-34.64400100708008 55.14899826049805,-74.45999908447266 C146.48800659179688,-113.3280029296875 151.78199768066406,-155.48300170898438 175.52999877929688,-158.26300048828125z"></path></g></g></g></svg>