<svg xmlns="http://www.w3.org/2000/svg" xmlns:xlink="http://www.w3.org/1999/xlink" viewBox="0 0 512 512" width="512" height="512" style="width: 100%; height: 100%; transform: translate3d(0,0,0);" preserveAspectRatio="xMidYMid meet"><defs><clipPath id="__lottie_element_53654"><rect width="512" height="512" x="0" y="0"></rect></clipPath></defs><g clip-path="url(#__lottie_element_53654)"><g style="display: block;" transform="matrix(1,0,0,1,256,256)" opacity="1"><g opacity="1" transform="matrix(1,0,0,1,0,0)"><path fill="rgb(0,0,0)" fill-opacity="1" d=" M191.7030029296875,-83.21499633789062 C191.7030029296875,-83.21499633789062 133.38999938964844,-188.8179931640625 133.38999938964844,-188.8179931640625 C130.75,-193.59800720214844 125.72000122070312,-196.56700134277344 120.25900268554688,-196.56700134277344 C120.25900268554688,-196.56700134277344 45.013999938964844,-196.56700134277344 45.013999938964844,-196.56700134277344 C45.013999938964844,-196.56700134277344 32.45800018310547,-219.30599975585938 32.45800018310547,-219.30599975585938 C29.81800079345703,-224.08599853515625 24.788999557495117,-227.05499267578125 19.327999114990234,-227.05499267578125 C19.327999114990234,-227.05499267578125 -120.26000213623047,-227.05499267578125 -120.26000213623047,-227.05499267578125 C-125.72100067138672,-227.05499267578125 -130.75100708007812,-224.08599853515625 -133.39100646972656,-219.30599975585938 C-133.39100646972656,-219.30599975585938 -191.7030029296875,-113.7030029296875 -191.7030029296875,-113.7030029296875 C-193.50799560546875,-110.43499755859375 -194.0290069580078,-106.61199951171875 -193.1649932861328,-102.98100280761719 C-193.1649932861328,-102.98100280761719 -124.66400146484375,185.03700256347656 -124.66400146484375,185.03700256347656 C-123.05699920654297,191.79600524902344 -117.01799774169922,196.5659942626953 -110.07099914550781,196.5659942626953 C-110.07099914550781,196.5659942626953 -28.240999221801758,196.5659942626953 -28.240999221801758,196.5659942626953 C-28.240999221801758,196.5659942626953 -23.73200035095215,215.52499389648438 -23.73200035095215,215.52499389648438 C-22.125,222.28399658203125 -16.086000442504883,227.05499267578125 -9.138999938964844,227.05499267578125 C-9.138999938964844,227.05499267578125 110.07099914550781,227.05499267578125 110.07099914550781,227.05499267578125 C117.01799774169922,227.05499267578125 123.05699920654297,222.28399658203125 124.66400146484375,215.52499389648438 C124.66400146484375,215.52499389648438 193.1649932861328,-72.49299621582031 193.1649932861328,-72.49299621582031 C194.0290069580078,-76.1240005493164 193.50799560546875,-79.9469985961914 191.7030029296875,-83.21499633789062z M-15.13700008392334,-79.35399627685547 C-15.13700008392334,-79.35399627685547 -35.465999603271484,-79.35399627685547 -35.465999603271484,-79.35399627685547 C-35.465999603271484,-79.35399627685547 -35.465999603271484,11.621000289916992 -35.465999603271484,11.621000289916992 C-35.465999603271484,19.905000686645508 -42.18199920654297,26.621000289916992 -50.465999603271484,26.621000289916992 C-58.75,26.621000289916992 -65.46600341796875,19.905000686645508 -65.46600341796875,11.621000289916992 C-65.46600341796875,11.621000289916992 -65.46600341796875,-79.35399627685547 -65.46600341796875,-79.35399627685547 C-65.46600341796875,-79.35399627685547 -85.79399871826172,-79.35399627685547 -85.79399871826172,-79.35399627685547 C-94.0780029296875,-79.35399627685547 -100.79399871826172,-86.06999969482422 -100.79399871826172,-94.35399627685547 C-100.79399871826172,-102.63800048828125 -94.0780029296875,-109.35399627685547 -85.79399871826172,-109.35399627685547 C-85.79399871826172,-109.35399627685547 -65.46600341796875,-109.35399627685547 -65.46600341796875,-109.35399627685547 C-65.46600341796875,-109.35399627685547 -65.46600341796875,-136.18800354003906 -65.46600341796875,-136.18800354003906 C-65.46600341796875,-144.4720001220703 -58.75,-151.18800354003906 -50.465999603271484,-151.18800354003906 C-42.18199920654297,-151.18800354003906 -35.465999603271484,-144.4720001220703 -35.465999603271484,-136.18800354003906 C-35.465999603271484,-136.18800354003906 -35.465999603271484,-109.35399627685547 -35.465999603271484,-109.35399627685547 C-35.465999603271484,-109.35399627685547 -15.13700008392334,-109.35399627685547 -15.13700008392334,-109.35399627685547 C-6.853000164031982,-109.35399627685547 -0.13699999451637268,-102.63800048828125 -0.13699999451637268,-94.35399627685547 C-0.13699999451637268,-86.06999969482422 -6.853000164031982,-79.35399627685547 -15.13700008392334,-79.35399627685547z M98.22000122070312,197.05499267578125 C98.22000122070312,197.05499267578125 11.083000183105469,197.05499267578125 11.083000183105469,197.05499267578125 C11.083000183105469,197.05499267578125 11.083000183105469,196.4409942626953 11.083000183105469,196.4409942626953 C17.18899917602539,195.64700317382812 22.277000427246094,191.15699768066406 23.73200035095215,185.03700256347656 C23.73200035095215,185.03700256347656 92.23300170898438,-102.98100280761719 92.23300170898438,-102.98100280761719 C93.09700012207031,-106.61199951171875 92.57599639892578,-110.43499755859375 90.77100372314453,-113.7030029296875 C90.77100372314453,-113.7030029296875 61.58000183105469,-166.56700134277344 61.58000183105469,-166.56700134277344 C61.58000183105469,-166.56700134277344 111.40699768066406,-166.56700134277344 111.40699768066406,-166.56700134277344 C111.40699768066406,-166.56700134277344 162.63600158691406,-73.79100036621094 162.63600158691406,-73.79100036621094 C162.63600158691406,-73.79100036621094 98.22000122070312,197.05499267578125 98.22000122070312,197.05499267578125z"></path></g></g></g></svg>