<svg xmlns="http://www.w3.org/2000/svg" xmlns:xlink="http://www.w3.org/1999/xlink" viewBox="0 0 512 512" width="512" height="512" style="width: 100%; height: 100%; transform: translate3d(0,0,0);" preserveAspectRatio="xMidYMid meet"><defs><clipPath id="__lottie_element_51315"><rect width="512" height="512" x="0" y="0"></rect></clipPath></defs><g clip-path="url(#__lottie_element_51315)"><g style="display: block;" transform="matrix(1,0,0,1,256,256)" opacity="1"><g opacity="1" transform="matrix(1,0,0,1,0,0)"><path fill="rgb(0,0,0)" fill-opacity="1" d=" M41.387001037597656,27.486000061035156 C116.00599670410156,-71.95500183105469 126.91200256347656,-184.6580047607422 76.71600341796875,-222.322998046875 C26.172000885009766,-260.2489929199219 -79.2490005493164,-217.1999969482422 -153.25799560546875,-118.57099914550781 C-227.9510040283203,-19.0310001373291 -238.73899841308594,93.60399627685547 -188.58700561523438,131.23699951171875 C-138.47999572753906,168.83599853515625 -33.28499984741211,126.9990005493164 41.387001037597656,27.486000061035156z M-151.87100219726562,-0.25200000405311584 C-142.48599243164062,-17.381000518798828 -129.8070068359375,-35.27199935913086 -115.302001953125,-52.51900100708008 C-113.87999725341797,-71.33499908447266 -110.27400207519531,-90.31700134277344 -104.34100341796875,-107.86900329589844 C-101.97699737548828,-114.86100006103516 -95.73899841308594,-120.85299682617188 -90.15699768066406,-121.49099731445312 C-76.14600372314453,-123.09300231933594 -61.965999603271484,-121.19400024414062 -48.65299987792969,-116.53199768066406 C-31.891000747680664,-129.3159942626953 -15.317999839782715,-139.5189971923828 -0.3959999978542328,-145.72999572753906 C5.548999786376953,-148.20399475097656 9.98799991607666,-145.0959930419922 9.697999954223633,-138.66400146484375 C8.968999862670898,-122.51699829101562 5.053999900817871,-103.45099639892578 -1.222000002861023,-83.32499694824219 C7.716000080108643,-72.40799713134766 14.354000091552734,-59.73400115966797 17.64299964904785,-46.027000427246094 C18.95400047302246,-40.56399917602539 15.458000183105469,-32.652000427246094 9.696999549865723,-28.038000106811523 C-4.764999866485596,-16.45599937438965 -21.365999221801758,-6.572000026702881 -38.55799865722656,1.2039999961853027 C-49.79899978637695,20.736000061035156 -62.270999908447266,38.77299880981445 -75.15399932861328,53.452999114990234 C-80.28900146484375,59.30400085449219 -86.88800048828125,61.08700180053711 -90.15799713134766,57.505001068115234 C-98.36299896240234,48.518001556396484 -104.70800018310547,35.5620002746582 -109.05899810791016,20.23900032043457 C-124.94599914550781,21.393999099731445 -139.29100036621094,19.867000579833984 -150.54299926757812,15.232999801635742 C-155.02699279785156,13.38599967956543 -155.61199951171875,6.574999809265137 -151.87100219726562,-0.25200000405311584z"></path></g><g opacity="1" transform="matrix(1,0,0,1,0,0)"><path fill="rgb(0,0,0)" fill-opacity="1" d=" M183.79299926757812,-181.98199462890625 C157.7969970703125,-201.48899841308594 116.12100219726562,-235.64300537109375 129.01100158691406,-203.7899932861328 C129.01100158691406,-203.7899932861328 128.968994140625,-203.81500244140625 128.968994140625,-203.81500244140625 C132.79200744628906,-194.3419952392578 135.5800018310547,-184.09500122070312 137.2989959716797,-173.1959991455078 C137.2989959716797,-173.1959991455078 187.4290008544922,-135.5800018310547 187.4290008544922,-135.5800018310547 C204.26699829101562,-122.94599914550781 185.19200134277344,-97.25599670410156 168.22300720214844,-109.98400115966797 C168.22300720214844,-109.98400115966797 139.02499389648438,-131.8939971923828 139.02499389648438,-131.8939971923828 C137.6510009765625,-109.41699981689453 132.7949981689453,-85.4260025024414 124.53099822998047,-60.90399932861328 C124.53099822998047,-60.90399932861328 173.9720001220703,-23.80500030517578 173.9720001220703,-23.80500030517578 C190.87899780273438,-11.119000434875488 171.7030029296875,14.49899959564209 154.76699829101562,1.7910000085830688 C154.76699829101562,1.7910000085830688 112.40499877929688,-29.996000289916992 112.40499877929688,-29.996000289916992 C102.85399627685547,-8.631999969482422 90.80799865722656,12.812000274658203 76.33399963378906,33.70500183105469 C76.33399963378906,33.70500183105469 123.5260009765625,69.11699676513672 123.5260009765625,69.11699676513672 C140.42799377441406,81.8010025024414 121.26300048828125,107.42400360107422 104.31900024414062,94.71199798583984 C104.31900024414062,94.71199798583984 57.132999420166016,59.30400085449219 57.132999420166016,59.30400085449219 C41.11899948120117,79.04100036621094 23.895000457763672,96.5989990234375 6.052000045776367,111.74199676513672 C6.052000045776367,111.74199676513672 48.40999984741211,143.5260009765625 48.40999984741211,143.5260009765625 C65.31700134277344,156.21200561523438 46.14099884033203,181.8300018310547 29.204999923706055,169.1219940185547 C29.204999923706055,169.1219940185547 -20.242000579833984,132.0189971923828 -20.242000579833984,132.0189971923828 C-41.47100067138672,146.8040008544922 -63.14400100708008,158.18899536132812 -84.33499908447266,165.79100036621094 C-84.33499908447266,165.79100036621094 -55.145999908447266,187.6929931640625 -55.145999908447266,187.6929931640625 C-38.308998107910156,200.32699584960938 -57.38600158691406,226.01800537109375 -74.35299682617188,213.28900146484375 C-74.35299682617188,213.28900146484375 -124.46900177001953,175.68299865722656 -124.46900177001953,175.68299865722656 C-134.76800537109375,176.9980010986328 -145.08999633789062,177.2969970703125 -155.19000244140625,176.36700439453125 C-184.20799255371094,176.88900756835938 -131.5959930419922,214.00799560546875 -119.9219970703125,222.76800537109375 C-52.0359992980957,273.7080078125 70.98600006103516,224.39700317382812 154.85400390625,112.62799835205078 C238.7220001220703,0.859000027179718 251.6790008544922,-131.04200744628906 183.79299926757812,-181.98199462890625z"></path></g></g></g></svg>