<svg xmlns="http://www.w3.org/2000/svg" xmlns:xlink="http://www.w3.org/1999/xlink" viewBox="0 0 512 512" width="512" height="512" style="width: 100%; height: 100%; transform: translate3d(0,0,0);" preserveAspectRatio="xMidYMid meet"><defs><clipPath id="__lottie_element_52125"><rect width="512" height="512" x="0" y="0"></rect></clipPath></defs><g clip-path="url(#__lottie_element_52125)"><g style="display: block;" transform="matrix(1,0,0,1,0,0)" opacity="1"><g opacity="1" transform="matrix(1,0,0,1,256.00299072265625,322.37200927734375)"><path fill="rgb(0,0,0)" fill-opacity="1" d=" M192.38299560546875,33.33399963378906 C178.2949981689453,79.20600128173828 164.19700622558594,99.49800109863281 132.70799255371094,121.46099853515625 C100.84500122070312,143.34500122070312 57.38100051879883,154.4739990234375 -17.23699951171875,144.9669952392578 C-91.875,135.6959991455078 -131.21800231933594,114.13600158691406 -156.68099975585938,85.0459976196289 C-181.74099731445312,55.95600128173828 -201.15699768066406,12.45300006866455 -200.42999267578125,-27.058000564575195 C-199.71200561523438,-66.56900024414062 -184.8179931640625,-94.65699768066406 -138.72999572753906,-123.61000061035156 C-126.72100067138672,-131.15499877929688 -114.30999755859375,-138.25100708007812 -101.02300262451172,-143.30999755859375 C-94.77400207519531,-145.68899536132812 -88.18399810791016,-148.06199645996094 -81.46700286865234,-148.34500122070312 C-75.32599639892578,-148.60299682617188 -69.22000122070312,-147.53500366210938 -63.417999267578125,-145.55099487304688 C-56.854000091552734,-143.30599975585938 -50.71099853515625,-140.02499389648438 -44.637001037597656,-136.71400451660156 C-34.375999450683594,-131.12100219726562 -23.739999771118164,-126.65799713134766 -12.517999649047852,-123.43299865722656 C-3.9260001182556152,-120.9749984741211 3.9700000286102295,-119.68699645996094 11.687000274658203,-114.6729965209961 C30.02199935913086,-102.74800109863281 35.88100051879883,-82.06400299072266 41.090999603271484,-62.02799987792969 C44.68899917602539,-48.20500183105469 47.24599838256836,-34.117000579833984 48.7400016784668,-19.910999298095703 C50.73699951171875,-0.9229999780654907 51.012001037597656,18.525999069213867 48.84000015258789,37.59000015258789 C48.619998931884766,39.516998291015625 48.34000015258789,41.43600082397461 48.104000091552734,43.361000061035156 C47.9109992980957,44.935001373291016 47.86800003051758,46.36899948120117 48.49300003051758,47.86199951171875 C49.14899826049805,49.428001403808594 50.35499954223633,50.720001220703125 51.86600112915039,51.492000579833984 C55.415000915527344,53.30099868774414 59.750999450683594,51.875999450683594 61.54999923706055,48.33700180053711 C74.63500213623047,22.63800048828125 78.3219985961914,-8.704000473022461 76.78800201416016,-37.2140007019043 C75.98600006103516,-52.21799850463867 73.7979965209961,-67.19100189208984 69.71399688720703,-81.66500091552734 C68.9800033569336,-84.26699829101562 66.4520034790039,-89.53500366210938 68.98100280761719,-91.91699981689453 C70.88600158691406,-93.71099853515625 73.86599731445312,-91.73999786376953 75.26399993896484,-90.26300048828125 C93.19599914550781,-71.26899719238281 107.24500274658203,-49.35599899291992 115.32599639892578,-24.423999786376953 C115.81500244140625,-22.915000915527344 116.26000213623047,-20.90399932861328 117.2300033569336,-19.584999084472656 C118.14600372314453,-18.34000015258789 119.7300033569336,-17.60300064086914 121.25399780273438,-17.552000045776367 C124.2229995727539,-17.43400001525879 126.71099853515625,-19.753999710083008 126.81900024414062,-22.722999572753906 C127.78199768066406,-49.42399978637695 118.99299621582031,-76.24299621582031 104.3740005493164,-98.4219970703125 C101.64099884033203,-102.57099914550781 98.69200134277344,-106.58200073242188 95.53600311279297,-110.41600036621094 C93,-113.50299835205078 89.5790023803711,-115.9800033569336 87.30799865722656,-119.20500183105469 C85.80400085449219,-121.33799743652344 85.0270004272461,-124.16000366210938 85.94100189208984,-126.5979995727539 C86.7959976196289,-128.9080047607422 88.95999908447266,-130.46200561523438 91.1520004272461,-131.58299255371094 C100.21600341796875,-136.22300720214844 106.85199737548828,-133.4010009765625 114.93299865722656,-128.22999572753906 C127.28099822998047,-120.33599853515625 138.9409942626953,-111.24199676513672 149.9219970703125,-101.53900146484375 C155.83999633789062,-96.30899810791016 161.56199645996094,-90.84300231933594 167.01800537109375,-85.13099670410156 C204.49400329589844,-45.66899871826172 206.4810028076172,-12.527999877929688 192.38299560546875,33.33399963378906z"></path></g><g opacity="1" transform="matrix(1,0,0,1,282.5069885253906,107.24299621582031)"><path fill="rgb(0,0,0)" fill-opacity="1" d=" M82.30699920654297,-20.53499984741211 C62.04999923706055,-23.54199981689453 43.0359992980957,-13.531000137329102 19.055999755859375,-38.04999923706055 C16.36199951171875,-40.803001403808594 13.522000312805176,-43.39799880981445 10.553999900817871,-45.856998443603516 C-11.329000473022461,-63.91999816894531 -45.957000732421875,-79.68099975585938 -73.23799896240234,-63.93000030517578 C-78.79199981689453,-60.71699905395508 -83.43499755859375,-55.18199920654297 -83.83699798583984,-48.7760009765625 C-84.89700317382812,-32.25 -63.457000732421875,-16.850000381469727 -43.04499816894531,-7.494999885559082 C-26.915000915527344,-0.597000002861023 -13.567000389099121,2.2230000495910645 -6.691999912261963,3.8480000495910645 C0.1860000044107437,5.473999977111816 -0.5649999976158142,11.350000381469727 -5.316999912261963,12.85099983215332 C-10.069000244140625,14.35200023651123 -34.577999114990234,19.479000091552734 -58.0880012512207,11.22599983215332 C-81.5979995727539,2.9730000495910645 -85.55899810791016,-2.944000005722046 -89.97599792480469,-6.531000137329102 C-94.38099670410156,-10.109000205993652 -102.86699676513672,-8.979000091552734 -101.64199829101562,-0.06800000369548798 C-101.43499755859375,1.3760000467300415 -101.06999969482422,2.812000036239624 -100.625,4.125 C-93.38300323486328,25.48900032043457 -76.98500061035156,43.097999572753906 -57.33599853515625,54.17900085449219 C-34.95000076293945,66.8030014038086 -7.118000030517578,73.13099670410156 18.31399917602539,69.27100372314453 C42.57600021362305,65.58899688720703 65.53800201416016,53.935001373291016 82.99299621582031,36.709999084472656 C88.21399688720703,31.558000564575195 92.84700012207031,26.631000518798828 95.78600311279297,21.155000686645508 C106.90399932861328,3.562000036239624 102.56400299072266,-17.538000106811523 82.30699920654297,-20.53499984741211z"></path></g></g></g></svg>