<svg xmlns="http://www.w3.org/2000/svg" xmlns:xlink="http://www.w3.org/1999/xlink" viewBox="0 0 512 512" width="512" height="512" style="width: 100%; height: 100%; transform: translate3d(0,0,0);" preserveAspectRatio="xMidYMid meet"><defs><clipPath id="__lottie_element_51390"><rect width="512" height="512" x="0" y="0"></rect></clipPath></defs><g clip-path="url(#__lottie_element_51390)"><g style="display: block;" transform="matrix(1,0,0,1,0,0)" opacity="1"><g opacity="1" transform="matrix(1,0,0,1,256,256)"><path fill="rgb(0,0,0)" fill-opacity="1" d=" M117.77300262451172,-139.05799865722656 C43.56700134277344,-128.1820068359375 -18.858999252319336,-38.85300064086914 -18.858999252319336,-38.85300064086914 C2.1559998989105225,-130.91799926757812 86.48899841308594,-153.61900329589844 86.48899841308594,-153.61900329589844 C-5.814000129699707,-228.0229949951172 -92.7750015258789,-108.68800354003906 -92.7750015258789,-108.68800354003906 C-91.79900360107422,-158.23399353027344 -20.375,-196.73899841308594 -20.375,-196.73899841308594 C-104.16300201416016,-238.42799377441406 -167.3560028076172,-152.2729949951172 -167.3560028076172,-152.2729949951172 C-169.03599548339844,-188.3990020751953 -129.33299255371094,-213.42799377441406 -129.33299255371094,-213.42799377441406 C-129.33299255371094,-213.42799377441406 -195.28500366210938,-257.7460021972656 -228.48199462890625,-221.55099487304688 C-261.67999267578125,-185.35699462890625 -204.84500122070312,-115.53399658203125 -204.84500122070312,-115.53399658203125 C-225.93899536132812,-18.371000289916992 -159.88499450683594,9.581000328063965 -159.88499450683594,9.581000328063965 C-194.03599548339844,106.9469985961914 -115.28900146484375,131.83399963378906 -115.28900146484375,131.83399963378906 C-117.19599914550781,162.6009979248047 -93.21800231933594,259.85400390625 7.803999900817871,242.6649932861328 C108.8270034790039,225.47500610351562 149.10800170898438,153.4949951171875 149.10800170898438,153.4949951171875 C152.06399536132812,176.76600646972656 141.51499938964844,192.99099731445312 131.23899841308594,202.9669952392578 C126.7979965209961,207.2779998779297 130.4759979248047,214.8459930419922 136.6300048828125,214.2030029296875 C279.1090087890625,199.31199645996094 229.92100524902344,45.84199905395508 229.92100524902344,45.84199905395508 C233.98599243164062,-162.53700256347656 117.77300262451172,-139.05799865722656 117.77300262451172,-139.05799865722656z M178.14999389648438,96.0250015258789 C169.58900451660156,108.73999786376953 166.05599975585938,96.6520004272461 160.85899353027344,80.05000305175781 C151.77099609375,51.02000045776367 121.13600158691406,37.67100143432617 70.88300323486328,29.698999404907227 C25.28700065612793,22.464000701904297 51.80699920654297,-53.27799987792969 125.47000122070312,-44.0989990234375 C187.26600646972656,-36.39799880981445 199.0570068359375,64.96900177001953 178.14999389648438,96.0250015258789z"></path></g></g></g></svg>