<svg xmlns="http://www.w3.org/2000/svg" xmlns:xlink="http://www.w3.org/1999/xlink" viewBox="0 0 512 512" width="512" height="512" style="width: 100%; height: 100%; transform: translate3d(0,0,0);" preserveAspectRatio="xMidYMid meet"><defs><clipPath id="__lottie_element_51230"><rect width="512" height="512" x="0" y="0"></rect></clipPath></defs><g clip-path="url(#__lottie_element_51230)"><g style="display: block;" transform="matrix(1,0,0,1,257.84698486328125,267.4049987792969)" opacity="1"><g opacity="1" transform="matrix(1,0,0,1,0,0)"><path fill="rgb(4,5,52)" fill-opacity="1" d=" M183.1580047607422,29.19300079345703 C183.1580047607422,29.19300079345703 173.93800354003906,-42.46699905395508 132.33799743652344,-71.3270034790039 C132.33799743652344,-71.3270034790039 124.4280014038086,-124.78700256347656 68.52799987792969,-148.1269989013672 C68.52799987792969,-148.1269989013672 33.327999114990234,-182.0070037841797 -12.60200023651123,-188.40699768066406 C-12.60200023651123,-188.40699768066406 -74.34200286865234,-217.02699279785156 -119.52200317382812,-201.20700073242188 C-146.8520050048828,-191.64700317382812 -163.57200622558594,-144.73599243164062 -163.57200622558594,-116.50599670410156 C-163.57200622558594,-116.50599670410156 -138.73199462890625,-111.98699951171875 -116.1520004272461,-91.66699981689453 C-117.052001953125,-91.95700073242188 -145.8419952392578,-101.2770004272461 -167.52200317382812,-102.38700103759766 C-167.52200317382812,-102.38700103759766 -196.89199829101562,-68.50700378417969 -183.33200073242188,-15.427000045776367 C-183.33200073242188,-15.427000045776367 -144.3719940185547,1.5130000114440918 -179.3820037841797,2.0829999446868896 C-179.3820037841797,2.0829999446868896 -190.11199951171875,38.792999267578125 -161.31199645996094,84.53299713134766 C-161.31199645996094,84.53299713134766 -113.31199645996094,102.03299713134766 -147.19200134277344,104.86299896240234 C-147.19200134277344,104.86299896240234 -159.052001953125,134.97300720214844 -100.3219985961914,180.5330047607422 C-82.98200225830078,193.98300170898438 -43.29199981689453,222.31300354003906 53.8380012512207,193.51300048828125 C150.96800231933594,164.71299743652344 201.60800170898438,97.33300018310547 183.1580047607422,29.19300079345703z M3.388000011444092,-138.3470001220703 C14.807999610900879,-136.82699584960938 42.428001403808594,-126.10700225830078 42.428001403808594,-126.10700225830078 C42.428001403808594,-126.10700225830078 11.508000373840332,-127.20600128173828 2.578000068664551,-127.2760009765625 C-6.211999893188477,-127.35600280761719 -25.191999435424805,-109.51699829101562 -25.781999588012695,-108.95700073242188 C-25.52199935913086,-109.41699981689453 -7.941999912261963,-139.85699462890625 3.388000011444092,-138.3470001220703z M-27.66200065612793,-60.15700149536133 C-15.902000427246094,-65.96700286865234 38.78799819946289,-48.21699905395508 40.257999420166016,-47.73699951171875 C38.847999572753906,-47.887001037597656 -6.4120001792907715,-52.887001037597656 -19.91200065612793,-47.72700119018555 C-33.62200164794922,-42.49700164794922 -55.71200180053711,-8.927000045776367 -55.71200180053711,-8.927000045776367 C-55.71200180053711,-8.927000045776367 -39.582000732421875,-54.266998291015625 -27.66200065612793,-60.15700149536133z M-138.45199584960938,-37.39699935913086 C-138.19200134277344,-37.856998443603516 -120.96199798583984,-68.49700164794922 -109.62200164794922,-67.11699676513672 C-98.19200134277344,-65.72699737548828 -79.94200134277344,-54.34700012207031 -79.94200134277344,-54.34700012207031 C-79.94200134277344,-54.34700012207031 -101.37200164794922,-56.06700134277344 -110.302001953125,-56.047000885009766 C-119.09200286865234,-56.016998291015625 -137.86199951171875,-37.96699905395508 -138.45199584960938,-37.39699935913086z M-74.13200378417969,41.73400115966797 C-93.46199798583984,45.13399887084961 -109.78199768066406,75.86299896240234 -110.78199768066406,77.78299713134766 C-109.79199981689453,75.58300018310547 -89.6719970703125,31.444000244140625 -79.21199798583984,26.493999481201172 C-68.58200073242188,21.45400047302246 -14.751999855041504,51.59299850463867 -13.722000122070312,52.17300033569336 C-14.821999549865723,51.803001403808594 -54.45199966430664,38.27399826049805 -74.13200378417969,41.73400115966797z M30.648000717163086,80.34300231933594 C14.98799991607666,83.35299682617188 -22.961999893188477,133.9530029296875 -22.961999893188477,133.9530029296875 C-22.961999893188477,133.9530029296875 -2.4820001125335693,77.33300018310547 22.218000411987305,67.69300079345703 C46.5880012512207,58.18299865722656 102.02799987792969,85.61299896240234 103.50800323486328,86.35299682617188 C102.00800323486328,86.12300109863281 46.097999572753906,77.37300109863281 30.648000717163086,80.34300231933594z M74.25800323486328,-22.62700080871582 C58.4379997253418,-18.656999588012695 37.46799850463867,25.92300033569336 37.46799850463867,25.92300033569336 C37.46799850463867,25.92300033569336 51.018001556396484,-22.636999130249023 65.697998046875,-31.10700035095215 C80.18800354003906,-39.46699905395508 126.5780029296875,-18.12700080871582 127.7979965209961,-17.566999435424805 C126.85800170898438,-17.78700065612793 89.86799621582031,-26.55699920654297 74.25800323486328,-22.62700080871582z"></path></g></g></g></svg>