<svg xmlns="http://www.w3.org/2000/svg" xmlns:xlink="http://www.w3.org/1999/xlink" viewBox="0 0 512 512" width="512" height="512" style="width: 100%; height: 100%; transform: translate3d(0,0,0);" preserveAspectRatio="xMidYMid meet"><defs><clipPath id="__lottie_element_53249"><rect width="512" height="512" x="0" y="0"></rect></clipPath></defs><g clip-path="url(#__lottie_element_53249)"><g style="display: block;" transform="matrix(1,0,0,1,14.739990234375,11.535995483398438)" opacity="1"><g opacity="1" transform="matrix(1,0,0,1,241.24200439453125,147.16700744628906)"><path fill="rgb(0,0,0)" fill-opacity="1" d=" M-2.119999885559082,-146.6719970703125 C-36.67900085449219,-146.4010009765625 -248.95899963378906,67.9000015258789 -248.9709930419922,114.87300109863281 C-248.9810028076172,155.9219970703125 -112.88700103759766,191.29600524902344 0.5180000066757202,191.29600524902344 C129.74600219726562,191.29600524902344 250.01800537109375,135.98599243164062 250.01800537109375,97.28099822998047 C250.01800537109375,58.57699966430664 30.58300018310547,-146.92799377441406 -2.119999885559082,-146.6719970703125z M62.23099899291992,64.30000305175781 C48.10499954223633,58.529998779296875 30.183000564575195,51.52899932861328 10.138999938964844,45.05400085449219 C5.570000171661377,52.7130012512207 1.0980000495910645,60.452999114990234 -3.1640000343322754,68.1240005493164 C5.297999858856201,74.1520004272461 -0.2770000100135803,87.7020034790039 -9.598999977111816,86.0459976196289 C-10.590999603271484,85.87000274658203 -11.581999778747559,85.69400024414062 -12.585000038146973,85.52899932861328 C-16.836000442504883,93.65599822998047 -20.773000717163086,101.57099914550781 -24.273000717163086,109.10299682617188 C-30,121.42900085449219 -48.28200149536133,118.0739974975586 -45.37200164794922,101.9729995727539 C-44.347999572753906,96.30799865722656 -41.816001892089844,89.3290023803711 -38.17599868774414,81.47000122070312 C-53.356998443603516,79.3479995727539 -69.71900177001953,77.63500213623047 -87.20899963378906,77.06099700927734 C-89.63500213623047,83.1719970703125 -91.87000274658203,89.1780014038086 -93.89700317382812,95.02999877929688 C-98.38099670410156,107.97799682617188 -114.99600219726562,104.31900024414062 -114.99600219726562,87.89800262451172 C-114.99600219726562,84.76699829101562 -114.47899627685547,81.14199829101562 -113.50900268554688,77.09600067138672 C-131.71600341796875,77.76499938964844 -150.99000549316406,79.84300231933594 -171.2760009765625,83.96900177001953 C-183.55599975585938,86.46700286865234 -193.39999389648438,71.90899658203125 -179.24099731445312,67.22100067138672 C-159.83099365234375,60.79499816894531 -133.62600708007812,58.27199935913086 -107.052001953125,57.979000091552734 C-102.93900299072266,47.95100021362305 -97.46299743652344,36.832000732421875 -91.31300354003906,25.43199920654297 C-98.60299682617188,25.22100067138672 -105.83899688720703,25.364999771118164 -112.95999908447266,25.902000427246094 C-125.40699768066406,26.84000015258789 -132.29800415039062,11.086000442504883 -117.83399963378906,7.756999969482422 C-107.33799743652344,5.341000080108643 -94.45600128173828,4.9770002365112305 -80.37300109863281,6.057000160217285 C-63.91699981689453,-22.020999908447266 -45.52899932861328,-49.11399841308594 -34.821998596191406,-63.39899826049805 C-24.273000717163086,-77.4729995727539 -2.688999891281128,-66.28299713134766 -10.559000015258789,-57.534000396728516 C-23.735000610351562,-42.88600158691406 -39.84299850463867,-18.408000946044922 -55.00199890136719,9.211999893188477 C-37.56399917602539,12.097000122070312 -19.409000396728516,16.413000106811523 -2.3410000801086426,21.174999237060547 C16.878999710083008,-7.2789998054504395 37.57400131225586,-34.72600173950195 48.516998291015625,-49.32500076293945 C59.066001892089844,-63.39899826049805 79.59400177001953,-52.209999084472656 71.7249984741211,-43.46099853515625 C57.946998596191406,-28.14299964904785 38.99100112915039,-1.4490000009536743 20.57200050354004,28.000999450683594 C39.86600112915039,34.111000061035156 56.22700119018555,40.222999572753906 66.29199981689453,44.50299835205078 C81.68399810791016,51.04800033569336 72.6760025024414,68.56700134277344 62.23099899291992,64.30000305175781z"></path></g><g opacity="1" transform="matrix(1,0,0,1,195.91400146484375,167.10800170898438)"><path fill="rgb(0,0,0)" fill-opacity="1" d=" M31.889999389648438,18.08799934387207 C26.457000732421875,26.531999588012695 21.36199951171875,34.87099838256836 16.899999618530273,42.78799819946289 C2.4690001010894775,40.89899826049805 -15.307999610900879,39.26900100708008 -34.05400085449219,38.483001708984375 C-29.496000289916992,28.173999786376953 -24.548999786376953,17.783000946044922 -19.3799991607666,7.614999771118164 C-1.930999994277954,9.854999542236328 15.411999702453613,13.619999885559082 31.889999389648438,18.08799934387207z"></path></g><g opacity="1" transform="matrix(1,0,0,1,244.48699951171875,370.9230041503906)"><path fill="rgb(0,0,0)" fill-opacity="1" d=" M145.2220001220703,-78.1500015258789 C112.77400207519531,-55.459999084472656 63.77399826049805,-11.460000038146973 44.15700149536133,17.54599952697754 C49.933998107910156,23.395000457763672 53.305999755859375,30.465999603271484 53.305999755859375,38.07899856567383 C53.305999755859375,42.53099822998047 52.154998779296875,46.790000915527344 50.055999755859375,50.73400115966797 C65.58399963378906,63.62300109863281 79.55400085449219,78.56099700927734 86.07499694824219,96.13800048828125 C90.49700164794922,108.06999969482422 65.37999725341797,119.69599914550781 58.44200134277344,111.21800231933594 C46.23500061035156,96.3010025024414 33.04999923706055,84.09400177001953 18.631999969482422,72.39700317382812 C12.935999870300293,73.84300231933594 6.7820000648498535,74.63800048828125 0.3630000054836273,74.63800048828125 C-8.574000358581543,74.63800048828125 -16.990999221801758,73.11000061035156 -24.368000030517578,70.41000366210938 C-37.72700119018555,84.37899780273438 -49.66899871826172,98.61399841308594 -60.185001373291016,115.71199798583984 C-65.87000274658203,124.94400024414062 -92.21900177001953,120.18499755859375 -89.427001953125,107.81500244140625 C-84.34300231933594,85.3270034790039 -67.66300201416016,65.49800109863281 -50.39099884033203,48.512001037597656 C-51.81800079345703,45.21099853515625 -52.582000732421875,41.70500183105469 -52.582000732421875,38.07899856567383 C-52.582000732421875,31.577999114990234 -50.117000579833984,25.46299934387207 -45.797000885009766,20.174999237060547 C-65.22699737548828,-5.460000038146973 -120.31300354003906,-41.709999084472656 -142.3730010986328,-68.40599822998047 C-148.4969940185547,-75.81400299072266 -117.83699798583984,-91.10800170898438 -108.625,-80.25599670410156 C-92.01599884033203,-60.672000885009766 -37.22600173950195,-25.459999084472656 -17.062000274658203,3.555999994277954 C-11.600000381469727,2.242000102996826 -5.741000175476074,1.5290000438690186 0.3630000054836273,1.5290000438690186 C5.182000160217285,1.5290000438690186 9.857999801635742,1.9769999980926514 14.300999641418457,2.812000036239624 C34.77299880981445,-32.459999084472656 87.77400207519531,-77.45999908447266 110.9540023803711,-90.12300109863281 C123.55899810791016,-97.00900268554688 153.16600036621094,-83.70500183105469 145.2220001220703,-78.1500015258789z"></path></g></g></g></svg>