<svg xmlns="http://www.w3.org/2000/svg" xmlns:xlink="http://www.w3.org/1999/xlink" viewBox="0 0 512 512" width="512" height="512" style="width: 100%; height: 100%; transform: translate3d(0,0,0);" preserveAspectRatio="xMidYMid meet"><defs><clipPath id="__lottie_element_14372"><rect width="512" height="512" x="0" y="0"></rect></clipPath></defs><g clip-path="url(#__lottie_element_14372)"><g style="display: block;" transform="matrix(1,0,0,1,256,256)" opacity="1"><g opacity="1" transform="matrix(1,0,0,1,0,0)"><g opacity="1" transform="matrix(1,0,0,1,0,0)"><path fill="rgb(0,0,0)" fill-opacity="1" d=" M250.96400451660156,-12.777000427246094 C247.83900451660156,-78.33699798583984 219.93899536132812,-139.0989990234375 172.40499877929688,-183.8679962158203 C124.87200164794922,-228.63400268554688 62.573001861572266,-252.80499267578125 -3.0829999446868896,-252.05099487304688 C-28.895000457763672,-251.73699951171875 -54.316001892089844,-247.5229949951172 -78.63899993896484,-239.52699279785156 C-87.01699829101562,-236.77200317382812 -93.00299835205078,-229.7010040283203 -94.25900268554688,-221.072998046875 C-95.56900024414062,-212.08099365234375 -88.68199920654297,-203.08799743652344 -81.05799865722656,-197.7949981689453 C-63.67599868774414,-185.7259979248047 -52.090999603271484,-160.552001953125 -58.29800033569336,-139.86199951171875 C-64.96700286865234,-117.63300323486328 -88.36599731445312,-109.01699829101562 -121.59200286865234,-102.2490005493164 C-129.41400146484375,-100.65499877929688 -134.66900634765625,-93.28099822998047 -133.6219940185547,-85.36799621582031 C-129.8820037841797,-57.095001220703125 -137.9429931640625,-34.137001037597656 -155.73699951171875,-22.381000518798828 C-172.53700256347656,-11.281000137329102 -195.4739990234375,-11.788000106811523 -215.5970001220703,-23.702999114990234 C-223.0970001220703,-28.143999099731445 -232.35499572753906,-28.322999954223633 -239.75900268554688,-24.172000885009766 C-246.93299865722656,-20.149999618530273 -251.28599548339844,-12.779999732971191 -251.406005859375,-4.456999778747559 C-251.406005859375,-4.456999778747559 -251.406005859375,-4.456999778747559 -251.406005859375,-4.456999778747559 C-251.5,2.0910000801086426 -251.33799743652344,8.734999656677246 -250.9239959716797,15.291999816894531 C-246.86199951171875,79.59100341796875 -218.47900390625,139.27099609375 -171.0030059814453,183.33999633789062 C-124.197998046875,226.78599548339844 -63.62699890136719,250.61700439453125 -0.16899999976158142,250.61700439453125 C0.7269999980926514,250.61700439453125 1.625,250.61199951171875 2.5220000743865967,250.6020050048828 C37.2400016784668,250.23399353027344 70.80599975585938,242.8939971923828 102.29000091552734,228.78599548339844 C132.64100646972656,215.18499755859375 159.66700744628906,195.95399475097656 182.61700439453125,171.6269989013672 C205.56100463867188,147.3070068359375 223.18099975585938,119.21800231933594 234.98800659179688,88.13999938964844 C247.2429962158203,55.88399887084961 252.6179962158203,21.93000030517578 250.96400451660156,-12.777000427246094z M-221.02000427246094,-4.020999908447266 C-221.02000427246094,-4.019999980926514 -221.02000427246094,-4.019000053405762 -221.02000427246094,-4.01800012588501 C-221.02000427246094,-4.019000053405762 -221.02000427246094,-4.019999980926514 -221.02000427246094,-4.020999908447266 C-221.02000427246094,-4.020999908447266 -221.02000427246094,-4.020999908447266 -221.02000427246094,-4.020999908447266 C-221.02000427246094,-4.020999908447266 -221.02000427246094,-4.020999908447266 -221.02000427246094,-4.020999908447266z M-137.7259979248047,91.61599731445312 C-146.156005859375,98.5989990234375 -158.6510009765625,97.427001953125 -165.63400268554688,88.99700164794922 C-172.61700439453125,80.56700134277344 -171.44500732421875,68.072998046875 -163.01499938964844,61.09000015258789 C-154.5850067138672,54.106998443603516 -142.08999633789062,55.27799987792969 -135.10699462890625,63.70800018310547 C-128.12399291992188,72.13800048828125 -129.29600524902344,84.63300323486328 -137.7259979248047,91.61599731445312z M-8.675999641418457,-60.67100143432617 C-20.834999084472656,-75.3479995727539 -18.792999267578125,-97.10299682617188 -4.116000175476074,-109.26200103759766 C10.560999870300293,-121.4209976196289 32.316001892089844,-119.37999725341797 44.474998474121094,-104.7030029296875 C56.63399887084961,-90.0260009765625 54.59199905395508,-68.27100372314453 39.915000915527344,-56.11199951171875 C25.238000869750977,-43.952999114990234 3.4830000400543213,-45.99399948120117 -8.675999641418457,-60.67100143432617z M87.6760025024414,158.0330047607422 C72.9990005493164,170.19200134277344 51.24399948120117,168.14999389648438 39.084999084472656,153.47300720214844 C26.926000595092773,138.79600524902344 28.968000411987305,117.04100036621094 43.64500045776367,104.88200378417969 C58.321998596191406,92.7229995727539 80.0770034790039,94.76499938964844 92.23600006103516,109.44200134277344 C104.3949966430664,124.11900329589844 102.35299682617188,145.87399291992188 87.6760025024414,158.0330047607422z M175.73300170898438,13.510000228881836 C167.30299377441406,20.493000030517578 154.8090057373047,19.320999145507812 147.8260040283203,10.890999794006348 C140.84300231933594,2.4609999656677246 142.01400756835938,-10.034000396728516 150.44400024414062,-17.017000198364258 C158.87399291992188,-24 171.36900329589844,-22.827999114990234 178.3520050048828,-14.39799976348877 C185.3350067138672,-5.9679999351501465 184.16299438476562,6.5269999504089355 175.73300170898438,13.510000228881836z"></path></g></g><g opacity="1" transform="matrix(1,0,0,1,0,0)"><path fill="rgb(0,0,0)" fill-opacity="1" d=" M-139.1320037841797,-176.69000244140625 C-141.56900024414062,-181.08799743652344 -139.08700561523438,-186.6199951171875 -134.1699981689453,-187.6739959716797 C-130.5780029296875,-188.44400024414062 -127.12200164794922,-188.66200256347656 -126.4219970703125,-186.91099548339844 C-124.86499786376953,-183.01699829101562 -133.43099975585938,-170.94700622558594 -135.76699829101562,-172.11500549316406 C-136.64300537109375,-172.55299377441406 -137.9010009765625,-174.4669952392578 -139.1320037841797,-176.69000244140625z"></path><path stroke-linecap="round" stroke-linejoin="round" fill-opacity="0" stroke="rgb(0,0,0)" stroke-opacity="1" stroke-width="30" d=" M-139.1320037841797,-176.69000244140625 C-141.56900024414062,-181.08799743652344 -139.08700561523438,-186.6199951171875 -134.1699981689453,-187.6739959716797 C-130.5780029296875,-188.44400024414062 -127.12200164794922,-188.66200256347656 -126.4219970703125,-186.91099548339844 C-124.86499786376953,-183.01699829101562 -133.43099975585938,-170.94700622558594 -135.76699829101562,-172.11500549316406 C-136.64300537109375,-172.55299377441406 -137.9010009765625,-174.4669952392578 -139.1320037841797,-176.69000244140625z"></path></g><g opacity="1" transform="matrix(1,0,0,1,0,0)"><path fill="rgb(0,0,0)" fill-opacity="1" d=" M-201.92300415039062,-154.24200439453125 C-187.69200134277344,-143.3509979248047 -187.90699768066406,-121.74299621582031 -202.46200561523438,-111.29000091552734 C-213.09500122070312,-103.65399932861328 -224.072998046875,-98.01399993896484 -228.85699462890625,-102.73400115966797 C-239.4969940185547,-113.22899627685547 -228.73500061035156,-164.8679962158203 -219.43899536132812,-164.38499450683594 C-215.9550018310547,-164.20399475097656 -209.11399841308594,-159.74600219726562 -201.92300415039062,-154.24200439453125z"></path><path stroke-linecap="round" stroke-linejoin="round" fill-opacity="0" stroke="rgb(0,0,0)" stroke-opacity="1" stroke-width="30" d=" M-201.92300415039062,-154.24200439453125 C-187.69200134277344,-143.3509979248047 -187.90699768066406,-121.74299621582031 -202.46200561523438,-111.29000091552734 C-213.09500122070312,-103.65399932861328 -224.072998046875,-98.01399993896484 -228.85699462890625,-102.73400115966797 C-239.4969940185547,-113.22899627685547 -228.73500061035156,-164.8679962158203 -219.43899536132812,-164.38499450683594 C-215.9550018310547,-164.20399475097656 -209.11399841308594,-159.74600219726562 -201.92300415039062,-154.24200439453125z"></path></g><g opacity="1" transform="matrix(1,0,0,1,0,0)"><path fill="rgb(0,0,0)" fill-opacity="1" d=" M-122.40399932861328,-171.42599487304688 C-122.40399932861328,-171.42599487304688 -143.8509979248047,-171.42599487304688 -143.8509979248047,-171.42599487304688 C-143.8509979248047,-171.42599487304688 -143.8509979248047,-194.4040069580078 -143.8509979248047,-194.4040069580078 C-143.8509979248047,-194.4040069580078 -122.40399932861328,-194.4040069580078 -122.40399932861328,-194.4040069580078 C-122.40399932861328,-194.4040069580078 -122.40399932861328,-171.42599487304688 -122.40399932861328,-171.42599487304688z"></path></g></g></g></svg>