<svg xmlns="http://www.w3.org/2000/svg" xmlns:xlink="http://www.w3.org/1999/xlink" viewBox="0 0 512 512" width="512" height="512" style="width: 100%; height: 100%; transform: translate3d(0,0,0);" preserveAspectRatio="xMidYMid meet"><defs><clipPath id="__lottie_element_51890"><rect width="512" height="512" x="0" y="0"></rect></clipPath></defs><g clip-path="url(#__lottie_element_51890)"><g style="display: block;" transform="matrix(1,0,0,1,-0.449981689453125,30.229995727539062)" opacity="1"><g opacity="1" transform="matrix(1,0,0,1,256.45001220703125,230.5850067138672)"><path fill="rgb(0,0,0)" fill-opacity="1" d=" M236,-62.814998626708984 C217,-100.81500244140625 189.9499969482422,-90.88500213623047 193,-101.81500244140625 C197.9409942626953,-119.50499725341797 202.35000610351562,-147.86500549316406 198,-159.81500244140625 C188.2310028076172,-186.6750030517578 138,-218.64500427246094 99,-222.64500427246094 C23.959999084472656,-230.3350067138672 -87,-230.06500244140625 -119,-220.81500244140625 C-152.55999755859375,-211.125 -197,-217.81500244140625 -226,-189.81500244140625 C-243.8699951171875,-172.56500244140625 -256.20001220703125,-39.6349983215332 -228,-7.815000057220459 C-168.3300018310547,59.51499938964844 -13,-2.2960000038146973 29,3.184999942779541 C39.709999084472656,4.585000038146973 43.88999938964844,-3.065000057220459 34,-11.8149995803833 C13.670000076293945,-29.815000534057617 -180.3300018310547,5.514999866485596 -182,-20.815000534057617 C-183.16000366210938,-39.185001373291016 112.33000183105469,-61.814998626708984 111,-30.815000534057617 C110.25,-13.364999771118164 42.441001892089844,2.065000057220459 49,15.1850004196167 C54,25.184999465942383 -45,23.184999465942383 -46,52.185001373291016 C-46.400001525878906,63.834999084472656 -111,51.185001373291016 -143,109.18499755859375 C-159.99000549316406,139.97500610351562 -149.77000427246094,179.53500366210938 -136,187.18499755859375 C-127,192.18499755859375 -126,162.18499755859375 -91,164.18499755859375 C-86.63999938964844,164.43499755859375 -97.4000015258789,180.60499572753906 -93,186.18499755859375 C-88.30999755859375,192.14500427246094 -81,183.18499755859375 -59,185.18499755859375 C-28.969999313354492,187.9149932861328 -21,207.18499755859375 21,219.18499755859375 C60.02000045776367,230.3350067138672 104.12000274658203,217.8350067138672 123,205.18499755859375 C223,138.18499755859375 265.1600036621094,-4.494999885559082 236,-62.814998626708984z M88.69999694824219,189.85499572753906 C58.66999816894531,181.85499572753906 23.670000076293945,189.23500061035156 13.670000076293945,176.18499755859375 C4.010000228881836,163.5749969482422 16.19099998474121,152.15499877929688 11.670000076293945,116.8550033569336 C8.329999923706055,90.8550033569336 -15.670000076293945,78.18499755859375 -5.670000076293945,67.51499938964844 C4.389999866485596,56.78499984741211 43.470001220703125,60.85499954223633 63,92.18499755859375 C71.26000213623047,105.43499755859375 58.029998779296875,120.4540023803711 66.33000183105469,130.18499755859375 C73.54000091552734,138.625 87.05999755859375,139.74400329589844 83.66999816894531,144.51499938964844 C74.91999816894531,156.81500244140625 73.13999938964844,161.2550048828125 78.33000183105469,161.85499572753906 C101.66999816894531,164.51499938964844 103.95999908447266,193.9149932861328 88.69999694824219,189.85499572753906z M185.6699981689453,52.51499938964844 C183,62.165000915527344 181.0800018310547,62.04499816894531 177,68.8550033569336 C173,75.51499938964844 177.49000549316406,81.7750015258789 179,87.51499938964844 C182.3300018310547,100.18499755859375 164.7100067138672,91.4749984741211 166.3300018310547,106.8550033569336 C167.6699981689453,119.51499938964844 159.6699981689453,138.18499755859375 148.3300018310547,135.18499755859375 C138.3300018310547,132.53500366210938 154,90.8550033569336 139.6699981689453,82.8550033569336 C132.3699951171875,78.78500366210938 133,50.185001373291016 121,43.85499954223633 C108.48999786376953,37.255001068115234 94.98999786376953,13.444999694824219 101,9.515000343322754 C122.93000030517578,-4.815000057220459 139.39999389648438,-30.46500015258789 151,-22.485000610351562 C162.74000549316406,-14.404999732971191 147.52000427246094,15.614999771118164 158.3300018310547,20.514999389648438 C164.14999389648438,23.155000686645508 169.60000610351562,20.315000534057617 173,23.514999389648438 C175.91000366210938,26.2549991607666 179.3300018310547,35.51499938964844 175.3300018310547,42.51499938964844 C171.5399932861328,49.154998779296875 187.13999938964844,47.20399856567383 185.6699981689453,52.51499938964844z"></path></g></g></g></svg>