<svg xmlns="http://www.w3.org/2000/svg" xmlns:xlink="http://www.w3.org/1999/xlink" viewBox="0 0 512 512" width="512" height="512" style="width: 100%; height: 100%; transform: translate3d(0,0,0);" preserveAspectRatio="xMidYMid meet"><defs><clipPath id="__lottie_element_53669"><rect width="512" height="512" x="0" y="0"></rect></clipPath></defs><g clip-path="url(#__lottie_element_53669)"><g style="display: block;" transform="matrix(1,0,0,1,256,255.99998474121094)" opacity="1"><g opacity="1" transform="matrix(1,0,0,1,0,0)"><path fill="rgb(0,0,0)" fill-opacity="1" d=" M199.72999572753906,-103.30500030517578 C210.6009979248047,-108.29399871826172 218.42100524902344,-119.00199890136719 218.39500427246094,-133.4949951171875 C218.39500427246094,-133.4949951171875 218.2779998779297,-133.4949951171875 218.2779998779297,-133.4949951171875 C218.24000549316406,-146.32200622558594 210.6269989013672,-157.36000061035156 199.6790008544922,-162.38600158691406 C231.9770050048828,-187.3820037841797 196.2169952392578,-237.50900268554688 162.11000061035156,-215.3509979248047 C161.89199829101562,-215.2100067138672 161.677001953125,-215.0659942626953 161.46499633789062,-214.92100524902344 C151.63299560546875,-244.39999389648438 109.35700225830078,-243.60899353027344 99.74500274658203,-214.71400451660156 C80.6449966430664,-234.6999969482422 46.150001525878906,-222.4080047607422 43.75600051879883,-195.06500244140625 C20.79199981689453,-209.7899932861328 -10.017999649047852,-190.30999755859375 -6.040999889373779,-162.95199584960938 C-6.50600004196167,-163.1179962158203 -6.96999979019165,-163.27200317382812 -7.434999942779541,-163.4149932861328 C-35.48899841308594,-172.0489959716797 -55.01599884033203,-135.32899475097656 -32.65800094604492,-116.30999755859375 C1.0980000495910645,-87.59500122070312 19.868000030517578,-55.50600051879883 30.551000595092773,-14.272000312805176 C32.94499969482422,-5.033999919891357 19.924999237060547,-0.11900000274181366 15.626999855041504,-8.640000343322754 C15.626999855041504,-8.640000343322754 15.4399995803833,-9.015000343322754 15.4399995803833,-9.015000343322754 C-7.52400016784668,-54.492000579833984 -44.28799819946289,-82.8239974975586 -86.88400268554688,-97.37899780273438 C-113.46700286865234,-106.46299743652344 -142.80099487304688,-104.52300262451172 -167.17100524902344,-90.54900360107422 C-188.87600708007812,-78.10299682617188 -206.00900268554688,-56.900001525878906 -205.8560028076172,-23.041000366210938 C-205.80799865722656,-12.435999870300293 -195.4980010986328,-4.710000038146973 -185.38099670410156,-7.889999866485596 C-169.6439971923828,-12.836999893188477 -152.7010040283203,-12.081000328063965 -135.88999938964844,-7.50600004196167 C-185.5500030517578,66.34500122070312 -199.35000610351562,123.44100189208984 -187.5570068359375,210.4429931640625 C-185.77099609375,223.61700439453125 -164.42999267578125,241.11199951171875 -150.73699951171875,239.94400024414062 C-58.356998443603516,232.0659942626953 -4.749000072479248,203.61000061035156 61.08100128173828,130.78599548339844 C66.76499938964844,138.88999938964844 69.34600067138672,147.4459991455078 69.95600128173828,154.8820037841797 C70.79399871826172,165.08700561523438 80.5780029296875,172.13299560546875 90.4280014038086,169.33399963378906 C157.9709930419922,150.1439971923828 142.37600708007812,75.83799743652344 136.3560028076172,54.47200012207031 C157.3820037841797,50.86800003051758 170.23699951171875,27.06100082397461 159.85800170898438,7.248000144958496 C159.9459991455078,7.249000072479248 160.0330047607422,7.249000072479248 160.12100219726562,7.249000072479248 C186.76699829101562,7.249000072479248 202.35800170898438,-24.3439998626709 185.7429962158203,-45.457000732421875 C213.08099365234375,-50.45899963378906 221.71099853515625,-86.41000366210938 199.72999572753906,-103.30500030517578z M72.50199890136719,-137.12100219726562 C85.75700378417969,-137.12100219726562 96.50199890136719,-126.3759994506836 96.50199890136719,-113.12100219726562 C96.50199890136719,-99.86599731445312 85.75700378417969,-89.12100219726562 72.50199890136719,-89.12100219726562 C59.24700164794922,-89.12100219726562 48.50199890136719,-99.86599731445312 48.50199890136719,-113.12100219726562 C48.50199890136719,-126.3759994506836 59.24700164794922,-137.12100219726562 72.50199890136719,-137.12100219726562z M130.50799560546875,-45.60499954223633 C117.25299835205078,-45.60499954223633 106.50800323486328,-56.349998474121094 106.50800323486328,-69.6050033569336 C106.50800323486328,-82.86000061035156 117.25299835205078,-93.6050033569336 130.50799560546875,-93.6050033569336 C143.76300048828125,-93.6050033569336 154.50799560546875,-82.86000061035156 154.50799560546875,-69.6050033569336 C154.50799560546875,-56.349998474121094 143.76300048828125,-45.60499954223633 130.50799560546875,-45.60499954223633z M146.00799560546875,-113.12100219726562 C132.7530059814453,-113.12100219726562 122.00800323486328,-123.86599731445312 122.00800323486328,-137.12100219726562 C122.00800323486328,-150.37600708007812 132.7530059814453,-161.12100219726562 146.00799560546875,-161.12100219726562 C159.26300048828125,-161.12100219726562 170.00799560546875,-150.37600708007812 170.00799560546875,-137.12100219726562 C170.00799560546875,-123.86599731445312 159.26300048828125,-113.12100219726562 146.00799560546875,-113.12100219726562z"></path></g></g></g></svg>