<svg xmlns="http://www.w3.org/2000/svg" xmlns:xlink="http://www.w3.org/1999/xlink" viewBox="0 0 512 512" width="512" height="512" style="width: 100%; height: 100%; transform: translate3d(0,0,0);" preserveAspectRatio="xMidYMid meet"><defs><clipPath id="__lottie_element_52135"><rect width="512" height="512" x="0" y="0"></rect></clipPath></defs><g clip-path="url(#__lottie_element_52135)"><g style="display: block;" transform="matrix(1,0,0,1,257.8160095214844,253.49099731445312)" opacity="1"><g opacity="1" transform="matrix(1,0,0,1,0,0)"><path fill="rgb(0,0,0)" fill-opacity="1" d=" M-3.36,187.1 C-3.12,181.54 -9.66,172.41 -14.96,171.04 C-20.83,168.96 -28.96,174.15 -26.18,180.79 C-23.57,187.12 -5.72,199.44 -3.36,187.1z M20.09,192.06 C53.03,184.38 34.82,163.97 23.25,170.13 C17.57,173.91 8.4,190.75 20.09,192.06z M44.48,34.09 C44.27,52.66 40.79,70.81 66.42,59.53 C85.23,49.98 113.48,38.43 108.16,12.6 C103.79,-9.51 98.98,-32.84 86.16,-51.64 C71.63,-69.57 55.55,-48.1 53.29,-32.46 C48.52,-10.52 44.73,11.56 44.48,34.09z M-35.08,44.16 C-39.12,13.15 -39.37,-21.49 -56.51,-48.53 C-87.23,-78.14 -98.04,-0.33 -101.09,18.5 C-105.4,44.75 -70.21,57.01 -50.5,64.46 C-35.8,69.92 -34.19,55.21 -35.08,44.16z M-11.63599967956543,219.99099731445312 C-14.163999557495117,225.33099365234375 -12.298999786376953,228.7480010986328 -12.515999794006348,232.16000366210938 C-13.02299976348877,240.1490020751953 -19.006999969482422,243.73300170898438 -26.333999633789062,240.28199768066406 C-37.97200012207031,235.39500427246094 -39.07699966430664,221.50900268554688 -48.652000427246094,214.36000061035156 C-54.347999572753906,209.85800170898438 -56.74700164794922,203.11099243164062 -58.75400161743164,196.42599487304688 C-66.62699890136719,170.13299560546875 -74.30699920654297,143.77000427246094 -82.11199951171875,117.46199798583984 C-87.28800201416016,97.54900360107422 -109.19300079345703,89.79399871826172 -123.3949966430664,77.00299835205078 C-154.43600463867188,56.404998779296875 -141.55099487304688,18.562000274658203 -138.45899963378906,-12.041000366210938 C-136.90899658203125,-23.35099983215332 -137.04800415039062,-24.148000717163086 -148.1929931640625,-25.062000274658203 C-240.0659942626953,-26.236000061035156 -282.3599853515625,-179.60000610351562 -208.09500122070312,-229.21800231933594 C-176.13299560546875,-250.4739990234375 -135.29400634765625,-231.90199279785156 -128.08900451660156,-198.2050018310547 C-127.24400329589844,-187.28799438476562 -135.32200622558594,-180.61900329589844 -145.8820037841797,-183.4969940185547 C-155.86099243164062,-187.87100219726562 -171.89700317382812,-191.03399658203125 -175.08900451660156,-177.0070037841797 C-180.76499938964844,-142.0570068359375 -154.65899658203125,-131.75399780273438 -124.48500061035156,-144.76199340820312 C-93.37699890136719,-153.42799377441406 -91.86499786376953,-132.24099731445312 -78.40499877929688,-140.86300659179688 C-59.849998474121094,-150.47799682617188 -40.33399963378906,-153.33099365234375 -19.899999618530273,-148.447998046875 C-14.446000099182129,-146.47999572753906 -2.930000066757202,-145.28399658203125 -5.4070000648498535,-137.1179962158203 C-13.420000076293945,-104.8290023803711 -3.255000114440918,-72.73200225830078 -0.6859999895095825,-40.08399963378906 C7.190000057220459,-40.71699905395508 3.7960000038146973,-64.53800201416016 3.5320000648498535,-70.54100036621094 C1.659999966621399,-84.80500030517578 1.9930000305175781,-99.11699676513672 2.3550000190734863,-113.40699768066406 C4.301000118255615,-155.43600463867188 47.80099868774414,-160.96800231933594 79.15499877929688,-144.7989959716797 C99.78700256347656,-137.8979949951172 89.18499755859375,-161.7830047607422 142.38699340820312,-143.072998046875 C177.0989990234375,-132.35899353027344 190.43899536132812,-196.20799255371094 156.9669952392578,-190.9810028076172 C144.31199645996094,-185.57899475097656 127.83999633789062,-182.093994140625 128.02200317382812,-201.35800170898438 C133.7310028076172,-237.81300354003906 180.92599487304688,-253.30099487304688 209.53799438476562,-231.7519989013672 C281.2850036621094,-179.0919952392578 239.5050048828125,-34.599998474121094 153.22799682617188,-29.363000869750977 C143.29299926757812,-28.40999984741211 143.25799560546875,-28.239999771118164 144.927001953125,-17.913000106811523 C148.39100646972656,11.65999984741211 162.96499633789062,49.79800033569336 134.30999755859375,71.15499877929688 C124.71600341796875,78.96900177001953 115.3270034790039,87.0510025024414 105.49500274658203,94.5530014038086 C99.33399963378906,99.25299835205078 95.4749984741211,104.97100067138672 93.54100036621094,112.4209976196289 C85.41200256347656,140.6649932861328 79.05799865722656,169.36099243164062 71.09300231933594,197.65199279785156 C69.81199645996094,202.1580047607422 68.3219985961914,207.23199462890625 64.625,209.7689971923828 C54.770999908447266,216.53199768066406 48.790000915527344,226.21600341796875 42.35599899291992,235.76100158691406 C39.76900100708008,239.5989990234375 35.96200180053711,242.92799377441406 30.576000213623047,241.00799560546875 C25.729999542236328,239.27999877929688 25.465999603271484,234.86500549316406 24.94099998474121,230.51699829101562 C23.687999725341797,211.38299560546875 14.942999839782715,234.35899353027344 -11.63599967956543,219.99099731445312z"></path><g opacity="1" transform="matrix(1,0,0,1,-15.04699993133545,181.47799682617188)"></g><g opacity="1" transform="matrix(1,0,0,1,26.621999740600586,180.5260009765625)"></g><g opacity="1" transform="matrix(1,0,0,1,76.51300048828125,2.2880001068115234)"></g><g opacity="1" transform="matrix(1,0,0,1,-68.16799926757812,5.229000091552734)"></g><g opacity="1" transform="matrix(1,0,0,1,0,0)"></g></g></g></g></svg>