<svg xmlns="http://www.w3.org/2000/svg" xmlns:xlink="http://www.w3.org/1999/xlink" viewBox="0 0 512 512" width="512" height="512" style="width: 100%; height: 100%; transform: translate3d(0,0,0);" preserveAspectRatio="xMidYMid meet"><defs><clipPath id="__lottie_element_52045"><rect width="512" height="512" x="0" y="0"></rect></clipPath></defs><g clip-path="url(#__lottie_element_52045)"><g style="display: block;" transform="matrix(1,0,0,1,8.2919921875,39.75099182128906)" opacity="1"><g opacity="1" transform="matrix(1,0,0,1,160.2969970703125,285.62200927734375)"><path fill="rgb(0,0,0)" fill-opacity="1" d=" M-159.58900451660156,-55.82400131225586 C-156.30599975585938,-81.21499633789062 -118.31099700927734,-101.15699768066406 -94.58899688720703,-97.58699798583984 C-49.5890007019043,-90.81500244140625 97.11199951171875,63.112998962402344 145.41099548339844,120.25700378417969 C158.04800415039062,135.20799255371094 137.0989990234375,150.62899780273438 115.41100311279297,136.05999755859375 C54.19900131225586,94.94200134277344 -53.93899917602539,34.060001373291016 -119.58899688720703,1.7410000562667847 C-152.95399475097656,-14.684000015258789 -162.0469970703125,-36.8120002746582 -159.58900451660156,-55.82400131225586z"></path></g><g opacity="1" transform="matrix(1,0,0,1,326.2239990234375,194.80999755859375)"><path fill="rgb(0,0,0)" fill-opacity="1" d=" M-173.51600646972656,14.670999526977539 C-179.48300170898438,-10.932000160217285 -164.51600646972656,-95.94400024414062 -165.51600646972656,-145.60800170898438 C-165.93899536132812,-166.6060028076172 -146.33399963378906,-192.46800231933594 -127.51599884033203,-196.4010009765625 C-100.51599884033203,-202.0449981689453 -59.13100051879883,-132.46299743652344 -52.51599884033203,-135.4499969482422 C-32.51599884033203,-144.47999572753906 -66.93800354003906,-168.14199829101562 -61.51599884033203,-178.34100341796875 C-46.51599884033203,-206.5590057373047 -15.753999710083008,-186.33799743652344 23.483999252319336,-133.19200134277344 C48.48400115966797,-99.33000183105469 55.90999984741211,27.18000030517578 53.48400115966797,60.94900131225586 C49.52199935913086,116.08799743652344 -77.93099975585938,77.09200286865234 -71.51599884033203,90.2959976196289 C-54.51599884033203,125.28700256347656 24.965999603271484,138.39599609375 59.48400115966797,107.22699737548828 C84.48400115966797,84.6520004272461 84.36900329589844,42.41699981689453 74.48400115966797,10.130000114440918 C68.48400115966797,-9.468000411987305 124.51100158691406,-40.66400146484375 139.48399353027344,-21.447999954223633 C212.48399353027344,72.23600006103516 128.48399353027344,231.75100708007812 53.48400115966797,232.51600646972656 C40.31999969482422,232.64999389648438 16.89699935913086,220.00999450683594 -9.515999794006348,189.62399291992188 C-113.51599884033203,69.97899627685547 -164.84500122070312,51.875 -173.51600646972656,14.670999526977539z"></path></g></g></g></svg>