<svg xmlns="http://www.w3.org/2000/svg" xmlns:xlink="http://www.w3.org/1999/xlink" viewBox="0 0 512 512" width="512" height="512" style="width: 100%; height: 100%; transform: translate3d(0,0,0);" preserveAspectRatio="xMidYMid meet"><defs><clipPath id="__lottie_element_53444"><rect width="512" height="512" x="0" y="0"></rect></clipPath></defs><g clip-path="url(#__lottie_element_53444)"><g style="display: block;" transform="matrix(1,0,0,1,256,256)" opacity="1"><g opacity="1" transform="matrix(1,0,0,1,0,0)"><path fill="rgb(0,0,0)" fill-opacity="1" d=" M-229.18499755859375,159.67100524902344 C-235.26800537109375,165.16600036621094 -235.96499633789062,174.53500366210938 -230.66099548339844,180.8769989013672 C-230.66099548339844,180.8769989013672 -188.86900329589844,230.84500122070312 -188.86900329589844,230.84500122070312 C-182.9980010986328,237.84300231933594 -171.7899932861328,231.2270050048828 -175.08999633789062,222.71299743652344 C-175.08999633789062,222.71299743652344 -191.6580047607422,179.96800231933594 -191.6580047607422,179.96800231933594 C-191.6580047607422,179.96800231933594 -132.5970001220703,147.95399475097656 -132.5970001220703,147.95399475097656 C-130.1580047607422,146.6320037841797 -127.20099639892578,146.656005859375 -124.802001953125,148.0500030517578 C-123.00900268554688,149.0919952392578 -121.2040023803711,150.12100219726562 -119.38600158691406,151.13499450683594 C-114.81500244140625,153.68499755859375 -113.88500213623047,159.86300659179688 -117.50299835205078,163.64500427246094 C-131.36099243164062,178.13099670410156 -130.68499755859375,177.30799865722656 -132.16799926757812,180.7050018310547 C-135.63999938964844,188.65899658203125 -132.03199768066406,197.91900634765625 -124.06700134277344,201.36500549316406 C-124.06700134277344,201.36500549316406 -68.4000015258789,225.44700622558594 -68.4000015258789,225.44700622558594 C-60.0880012512207,229.02099609375 -53.040000915527344,218.33799743652344 -59.558998107910156,212.11099243164062 C-59.558998107910156,212.11099243164062 -84.19499969482422,188.5760040283203 -84.19499969482422,188.5760040283203 C-84.19499969482422,188.5760040283203 -67.73400115966797,177.32899475097656 -67.73400115966797,177.32899475097656 C-65.73899841308594,175.96600341796875 -63.23699951171875,175.60499572753906 -60.92300033569336,176.3000030517578 C-24.70800018310547,187.1820068359375 14.730999946594238,190.1280059814453 56.417999267578125,179.18600463867188 C59.83700180053711,178.28900146484375 63.44200134277344,179.72900390625 65.28299713134766,182.74600219726562 C65.28299713134766,182.74600219726562 67.822998046875,186.91000366210938 67.822998046875,186.91000366210938 C67.822998046875,186.91000366210938 53.41299819946289,213.42100524902344 53.41299819946289,213.42100524902344 C49.32099914550781,220.98699951171875 58.18199920654297,229.01100158691406 65.29399871826172,224.13699340820312 C65.29399871826172,224.13699340820312 102.66200256347656,198.5290069580078 102.66200256347656,198.5290069580078 C106.79499816894531,195.6840057373047 108.9520034790039,190.45599365234375 107.63899993896484,185.31100463867188 C105.78700256347656,178.05299377441406 104.72699737548828,173.9010009765625 103.26100158691406,168.15499877929688 C102.34700012207031,164.5709991455078 104.00900268554688,160.83999633789062 107.2770004272461,159.10800170898438 C113.40599822998047,155.86000061035156 119.57099914550781,152.28700256347656 125.77100372314453,148.3719940185547 C128.1540069580078,146.86700439453125 131.16400146484375,146.75599670410156 133.66900634765625,148.0469970703125 C133.66900634765625,148.0469970703125 190.96200561523438,177.57699584960938 190.96200561523438,177.57699584960938 C190.96200561523438,177.57699584960938 162.83799743652344,212.91200256347656 162.83799743652344,212.91200256347656 C157.1020050048828,220.13400268554688 166.08200073242188,229.83200073242188 173.71600341796875,224.64599609375 C236.98699951171875,181.67300415039062 233.2480010986328,184.5019989013672 235.26600646972656,182.12600708007812 C241.10400390625,175.2530059814453 240.26499938964844,164.9499969482422 233.39199829101562,159.11199951171875 C228.27000427246094,154.76100158691406 196.97500610351562,128.17999267578125 182.3300018310547,115.73999786376953 C178.7220001220703,112.67500305175781 178.5399932861328,107.15799713134766 181.96200561523438,103.88700103759766 C193.45399475097656,92.9020004272461 205.031005859375,80.64600372314453 216.677001953125,67.01599884033203 C221.74000549316406,61.09000015258789 221.8090057373047,52.3380012512207 216.80099487304688,46.3650016784668 C201.83399963378906,28.514999389648438 186.1580047607422,13.222000122070312 169.99200439453125,0.2720000147819519 C183.73399353027344,-24.91200065612793 187.0679931640625,-51.11800003051758 177.2239990234375,-77.68900299072266 C230.427001953125,-127.97200012207031 211.59300231933594,-223.33099365234375 116.7040023803711,-226.68800354003906 C105.6760025024414,-227.0780029296875 97.5979995727539,-216.38900756835938 100.92500305175781,-205.86700439453125 C100.92500305175781,-205.86700439453125 123.26200103759766,-135.2209930419922 123.26200103759766,-135.2209930419922 C123.26200103759766,-135.2209930419922 77.39299774169922,-175.29100036621094 77.39299774169922,-175.29100036621094 C70.34300231933594,-181.4499969482422 59.534000396728516,-180.25799560546875 53.972999572753906,-172.7270050048828 C9.145000457763672,-112.02100372314453 66.38500213623047,-56.84400177001953 127.5199966430664,-58.20899963378906 C139.072998046875,-49.077999114990234 142.94000244140625,-34.604000091552734 141.8769989013672,-19.645999908447266 C32.402000427246094,-87.5530014038086 -92.94999694824219,-58.76599884033203 -172.70399475097656,10.520999908447266 C-177.5189971923828,-16.052000045776367 -157.218994140625,-40.297000885009766 -137.2169952392578,-58.417999267578125 C-79.66699981689453,-62.316001892089844 -30.025999069213867,-115.0739974975586 -72.75700378417969,-172.8159942626953 C-78.30000305175781,-180.30599975585938 -89.09300231933594,-181.42100524902344 -96.11100006103516,-175.29100036621094 C-96.11100006103516,-175.29100036621094 -141.97999572753906,-135.2209930419922 -141.97999572753906,-135.2209930419922 C-141.97999572753906,-135.2209930419922 -119.64299774169922,-205.86700439453125 -119.64299774169922,-205.86700439453125 C-116.3030014038086,-216.42999267578125 -124.4540023803711,-227.08399963378906 -135.52499389648438,-226.6840057373047 C-234.9029998779297,-223.0959930419922 -250.77099609375,-118.53099822998047 -187.73800659179688,-70.73500061035156 C-205.98199462890625,-37.65399932861328 -213.45199584960938,-1.3639999628067017 -192.9320068359375,30.006999969482422 C-201.5570068359375,39.231998443603516 -209.43499755859375,48.97600173950195 -216.44700622558594,59.14500045776367 C-216.49099731445312,59.20899963378906 -216.53500366210938,59.27299880981445 -216.5780029296875,59.3380012512207 C-222.46299743652344,68.13999938964844 -214.08200073242188,79.52999877929688 -203.85899353027344,76.77400207519531 C-203.85899353027344,76.77400207519531 -144.75599670410156,60.8390007019043 -144.75599670410156,60.8390007019043 C-136.40699768066406,58.5880012512207 -130.72000122070312,69.15899658203125 -137.14199829101562,74.91100311279297 C-197.1490020751953,128.447998046875 -229.16700744628906,159.6540069580078 -229.18499755859375,159.67100524902344z"></path></g></g></g></svg>