<svg xmlns="http://www.w3.org/2000/svg" xmlns:xlink="http://www.w3.org/1999/xlink" viewBox="0 0 512 512" width="512" height="512" style="width: 100%; height: 100%; transform: translate3d(0,0,0);" preserveAspectRatio="xMidYMid meet"><defs><clipPath id="__lottie_element_53959"><rect width="512" height="512" x="0" y="0"></rect></clipPath></defs><g clip-path="url(#__lottie_element_53959)"><g style="display: block;" transform="matrix(1,0,0,1,254.6909942626953,253.49099731445312)" opacity="1"><g opacity="1" transform="matrix(1,0,0,1,0,0)"><path fill="rgb(0,0,0)" fill-opacity="1" d=" M13.69,-202.72 C-29.04,-199.28 -65.84,-164.96 -70.86,-123.93 C-74.7,-92.48 -68.37,-63.21 -51.76,-36.17 C-46.2,-27.11 -40.07,-18.44 -32.87,-10.69 C0.22,24.97 40.21,46.28 89.83,45.32 C151.02,44.13 193.12,-7.2 183.74,-67.7 C178.9,-98.93 165.34,-125.89 144.22,-148.84 C113.46,-182.24 70.89,-206.16 13.69,-202.72z M0.7160000205039978,249.5570068359375 C-8.630999565124512,249.26600646972656 -15.574999809265137,249.81900024414062 -22.430999755859375,248.3419952392578 C-26.604999542236328,247.4429931640625 -29.06800079345703,245.30299377441406 -28.457000732421875,240.7570037841797 C-25.954999923706055,222.1280059814453 -33.88199996948242,206.67799377441406 -42.986000061035156,191.3990020751953 C-49.45600128173828,180.54200744628906 -55.61399841308594,169.47799682617188 -53.2140007019043,155.81100463867188 C-52.40599822998047,151.21099853515625 -54.231998443603516,146.53799438476562 -59.54899978637695,145.39199829101562 C-64.34400177001953,144.35899353027344 -67.03500366210938,147.95199584960938 -68.9520034790039,151.6739959716797 C-72.99800109863281,159.531005859375 -74.35399627685547,167.8090057373047 -72.28800201416016,176.5570068359375 C-70.27799987792969,188.5780029296875 -56.34000015258789,211.71099853515625 -54.33300018310547,230.61300659179688 C-53.297000885009766,240.3730010986328 -58.209999084472656,242.90499877929688 -67.69999694824219,240.28500366210938 C-89.45700073242188,235.53599548339844 -105.8010025024414,228.18699645996094 -123.14800262451172,218.0330047607422 C-198.49899291992188,173.92799377441406 -240.19400024414062,107.97899627685547 -249.85400390625,21.562999725341797 C-250.97999572753906,11.489999771118164 -250.3560028076172,1.2120000123977661 -250.35800170898438,-8.972000122070312 C-250.35899353027344,-14.361000061035156 -248.17799377441406,-17.510000228881836 -242.02499389648438,-16.1560001373291 C-230.2480010986328,-13.5649995803833 -219.46200561523438,-16.785999298095703 -208.98500061035156,-21.944000244140625 C-200.0540008544922,-26.340999603271484 -190.68699645996094,-28.55299949645996 -180.5919952392578,-27.64900016784668 C-175.83799743652344,-27.222999572753906 -170.427001953125,-26.54400062561035 -168.03599548339844,-32.486000061035156 C-166.177001953125,-37.104000091552734 -169.031005859375,-42.53300094604492 -175.44000244140625,-46.41299819946289 C-186.31399536132812,-52.994998931884766 -203.33900451660156,-55.499000549316406 -223.468994140625,-44.45500183105469 C-237.01600646972656,-39.63800048828125 -245.53700256347656,-46.689998626708984 -242.51499938964844,-60.762001037597656 C-238.5590057373047,-79.18299865722656 -231.89500427246094,-96.75800323486328 -222.95799255371094,-113.31700134277344 C-181.8070068359375,-189.56199645996094 -118.26399993896484,-235.50900268554688 -32.606998443603516,-247.197998046875 C98.08399963378906,-265.0320129394531 217.0780029296875,-180.0050048828125 244.87899780273438,-51.016998291015625 C256.5069885253906,2.930999994277954 250.00399780273438,55.08100128173828 227.05799865722656,105.21499633789062 C225.7030029296875,108.1760025024414 224.13099670410156,111.03900146484375 222.61199951171875,113.9229965209961 C220.87100219726562,117.22899627685547 218.14500427246094,118.85099792480469 214.53599548339844,117.48300170898438 C204.1479949951172,113.74400329589844 198.49099731445312,106.8550033569336 195.57200622558594,99.33399963378906 C194.33799743652344,96.15399932861328 192.15499877929688,93.69000244140625 188.40199279785156,93.51899719238281 C184.11000061035156,93.3239974975586 181.72300720214844,96.0479965209961 179.9810028076172,99.48500061035156 C175.34800720214844,108.62899780273438 178.04800415039062,122.5999984741211 186.23300170898438,129.7519989013672 C189.5679931640625,132.66600036621094 193.61900329589844,134.7760009765625 197.4080047607422,137.14999389648438 C204.91400146484375,141.85299682617188 204.7209930419922,146.8470001220703 199.6009979248047,154.47300720214844 C188.40899658203125,171.14199829101562 166.38499450683594,193.6199951171875 124.27200317382812,218.53199768066406 C85.9729995727539,239.7729949951172 41.8380012512207,248.68499755859375 0.7160000205039978,249.5570068359375z"></path><g opacity="1" transform="matrix(1,0,0,1,56.551998138427734,-78.8499984741211)"></g><g opacity="1" transform="matrix(1,0,0,1,0,0)"></g></g><g opacity="1" transform="matrix(1,0,0,1,55.069000244140625,-84.6729965209961)"><path fill="rgb(0,0,0)" fill-opacity="1" d=" M81.77400207519531,22.406999588012695 C81.78199768066406,61.196998596191406 52.44300079345703,86.8489990234375 13.552000045776367,81.88200378417969 C2.999000072479248,80.53399658203125 -7.111000061035156,77.43800354003906 -16.641000747680664,72.60900115966797 C-26.46299934387207,67.63200378417969 -26.756999969482422,66.76499938964844 -19.224000930786133,59.132999420166016 C-13.920999526977539,53.7599983215332 -10.067999839782715,47.83399963378906 -8.710000038146973,40.30699920654297 C-5.98199987411499,25.19099998474121 -15.692999839782715,12.586999893188477 -30.937000274658203,11.581999778747559 C-41.564998626708984,10.880999565124512 -50.79600143432617,14.732999801635742 -59.78099822998047,19.885000228881836 C-67.39800262451172,24.253000259399414 -69.05999755859375,23.797000885009766 -72.72799682617188,15.848999977111816 C-80.9469985961914,-1.9620000123977661 -84.30500030517578,-20.499000549316406 -79.68399810791016,-39.95000076293945 C-73.20099639892578,-67.23999786376953 -48.875,-83.93000030517578 -17.9060001373291,-82.39800262451172 C32.564998626708984,-79.9010009765625 81.76399993896484,-28.17300033569336 81.77400207519531,22.406999588012695z"></path></g></g></g></svg>