<svg xmlns="http://www.w3.org/2000/svg" xmlns:xlink="http://www.w3.org/1999/xlink" viewBox="0 0 512 512" width="512" height="512" style="width: 100%; height: 100%; transform: translate3d(0,0,0);" preserveAspectRatio="xMidYMid meet"><defs><clipPath id="__lottie_element_51960"><rect width="512" height="512" x="0" y="0"></rect></clipPath></defs><g clip-path="url(#__lottie_element_51960)"><g style="display: block;" transform="matrix(1,0,0,1,256.0669860839844,255.031005859375)" opacity="1"><g opacity="1" transform="matrix(1,0,0,1,0,0)"><path fill="rgb(0,0,0)" fill-opacity="1" d=" M62.70000076293945,132.78500366210938 C123.39399719238281,132.96299743652344 174.74400329589844,117.42500305175781 222.3939971923828,88.81800079345703 C226.8730010986328,86.12899780273438 231.3209991455078,83.24500274658203 236.11599731445312,81.25399780273438 C244.12100219726562,77.93000030517578 249.73300170898438,82.21499633789062 248.98300170898438,90.85299682617188 C248.48899841308594,96.5479965209961 245.99099731445312,101.71199798583984 243.47000122070312,106.74700164794922 C175.38400268554688,235.1269989013672 84.98400115966797,256.4429931640625 -7.142000198364258,251.31300354003906 C-111.55799865722656,245.4980010986328 -189.06300354003906,191.81199645996094 -230.27000427246094,94.9229965209961 C-268.0400085449219,6.116000175476074 -271.39599609375,-215.1699981689453 -18.850000381469727,-249.9669952392578 C2.114000082015991,-252.85499572753906 21.167999267578125,-252.46099853515625 41.99599838256836,-250.0570068359375 C47.59199905395508,-249.41099548339844 55.01100158691406,-247.51100158691406 59.86800003051758,-244.40499877929688 C65.5250015258789,-240.78700256347656 65.68199920654297,-235.2239990234375 59.87300109863281,-232.04299926757812 C55.3390007019043,-229.55999755859375 50.196998596191406,-228.1230010986328 45.236000061035156,-226.4929962158203 C8.536999702453613,-214.43899536132812 -25.367000579833984,-197.21299743652344 -55.207000732421875,-172.4340057373047 C-86.3270034790039,-146.5919952392578 -110.23799896240234,-116.05999755859375 -118.96600341796875,-75.44499969482422 C-131.04800415039062,-19.222000122070312 -119.6240005493164,31.763999938964844 -84.25399780273438,76.9469985961914 C-29.82900047302246,128.41600036621094 30.71500015258789,132.875 62.70000076293945,132.78500366210938z"></path></g><g opacity="1" transform="matrix(1,0,0,1,104.55899810791016,-13.692999839782715)"><path fill="rgb(0,0,0)" fill-opacity="1" d=" M-37.367000579833984,67.68800354003906 C-54.67900085449219,67.68800354003906 -71.99099731445312,67.69599914550781 -89.3030014038086,67.68399810791016 C-96.552001953125,67.67900085449219 -103.81199645996094,67.78700256347656 -110.83999633789062,65.51399993896484 C-121.25599670410156,62.145999908447266 -125.76300048828125,55.507999420166016 -125.052001953125,44.60200119018555 C-124.61599731445312,37.90399932861328 -121.83899688720703,32.25299835205078 -117.677001953125,27.10700035095215 C-108.62100219726562,15.90999984741211 -96.41200256347656,9.88599967956543 -82.7979965209961,6.947999954223633 C-75.23300170898438,5.315000057220459 -71.66899871826172,1.8639999628067017 -68.80500030517578,-5.551000118255615 C-55.165000915527344,-40.87099838256836 -31.110000610351562,-64.53600311279297 8.343000411987305,-67.49299621582031 C39.39400100708008,-69.81999969482422 64.81099700927734,-51.40299987792969 75.99099731445312,-24.459999084472656 C78.96499633789062,-17.292999267578125 82.7509994506836,-13.911999702453613 89.9219970703125,-11.619000434875488 C112.02300262451172,-4.552000045776367 124.18900299072266,11.272000312805176 125.08200073242188,32.417999267578125 C125.64900207519531,45.85599899291992 120.6510009765625,53.6619987487793 107.94499969482422,58.27899932861328 C96.90299987792969,62.29100036621094 68.4800033569336,67.05899810791016 -37.367000579833984,67.68800354003906z"></path></g><g opacity="1" transform="matrix(1,0,0,1,-5.814000129699707,-63.928001403808594)"><path fill="rgb(0,0,0)" fill-opacity="1" d=" M30.86400032043457,-69.87999725341797 C39.65999984741211,-70.04000091552734 68.80500030517578,-64.75599670410156 86,-46.457000732421875 C100.0979995727539,-31.452999114990234 76.51799774169922,-25.628999710083008 72.59600067138672,-24.424999237060547 C54.97800064086914,-19.017000198364258 37.54800033569336,3.546999931335449 32.0369987487793,28.45800018310547 C30.214000701904297,34.74300003051758 26.663000106811523,39.231998443603516 20.172000885009766,40.874000549316406 C5.736999988555908,44.527000427246094 -6.771999835968018,50.89799880981445 -15.649999618530273,63.573001861572266 C-23.429000854492188,75.0790023803711 -55.30699920654297,67.51499938964844 -66.91300201416016,66.59600067138672 C-89.73699951171875,64.78800201416016 -96.4800033569336,51.65999984741211 -84.8550033569336,32.073001861572266 C-81.53600311279297,26.481000900268555 -63.57600021362305,10.043000221252441 -61.87900161743164,3.865999937057495 C-56.915000915527344,-14.199000358581543 -48.8489990234375,-30.707000732421875 -35.577999114990234,-44.3129997253418 C-19.003000259399414,-61.305999755859375 1.1160000562667847,-69.33999633789062 30.86400032043457,-69.87999725341797z"></path></g></g></g></svg>