<svg xmlns="http://www.w3.org/2000/svg" xmlns:xlink="http://www.w3.org/1999/xlink" viewBox="0 0 512 512" width="512" height="512" style="width: 100%; height: 100%; transform: translate3d(0,0,0);" preserveAspectRatio="xMidYMid meet"><defs><clipPath id="__lottie_element_53829"><rect width="512" height="512" x="0" y="0"></rect></clipPath></defs><g clip-path="url(#__lottie_element_53829)"><g style="display: block;" transform="matrix(1,0,0,1,16.75,21.750015258789062)" opacity="1"><g opacity="1" transform="matrix(1,0,0,1,241.75,235.3249969482422)"><path fill="rgb(0,0,0)" fill-opacity="1" d=" M13.5,-235.0749969482422 C-151.5,-235.0749969482422 -241.5,-114.07499694824219 -241.5,-19.075000762939453 C-241.5,-0.07500000298023224 -222.72000122070312,-3.484999895095825 -213.92999267578125,3.174999952316284 C-205.57000732421875,9.505000114440918 -208.38999938964844,16.325000762939453 -200.5,18.924999237060547 C-197.44000244140625,19.934999465942383 -194.38999938964844,20.875 -191.35000610351562,21.7450008392334 C-192.07000732421875,38.94499969482422 -190.27999877929688,62.474998474121094 -187.1199951171875,86.59500122070312 C-191.0399932861328,88.33499908447266 -194.74000549316406,90.1449966430664 -198.1999969482422,92.03500366210938 C-216.69000244140625,102.16500091552734 -202.4600067138672,130.69500732421875 -186.50999450683594,125.46499633789062 C-184.75,124.88500213623047 -182.99000549316406,124.32499694824219 -181.24000549316406,123.7750015258789 C-178.4199981689453,139.0050048828125 -175.25999450683594,153.2050018310547 -172.0800018310547,164.7449951171875 C-183.4600067138672,167.3249969482422 -192.9499969482422,169.43499755859375 -199.5,170.9250030517578 C-221.5,175.9250030517578 -209.41000366210938,214.27499389648438 -183.5,211.9250030517578 C-122.1500015258789,206.35499572753906 -37.5,186.9250030517578 20.5,159.9250030517578 C36.150001525878906,152.63499450683594 13.5,227.9250030517578 92.5,231.9250030517578 C154.7100067138672,235.0749969482422 241.5,111.92500305175781 241.5,15.925000190734863 C241.5,-101.18499755859375 165.5,-235.0749969482422 13.5,-235.0749969482422z M-1.5,28.924999237060547 C4.440000057220459,35.244998931884766 9.460000038146973,43.404998779296875 12.90999984741211,52.28499984741211 C-3.9100000858306885,52.89500045776367 -28.43000030517578,54.415000915527344 -55.459999084472656,57.375 C-55.790000915527344,47.45500183105469 -55.959999084472656,37.54499816894531 -55.93000030517578,27.915000915527344 C-28.040000915527344,24.635000228881836 -8.350000381469727,21.645000457763672 -1.5,28.924999237060547z M-153.32000732421875,29.575000762939453 C-132.32000732421875,32.30500030517578 -112.41999816894531,32.415000915527344 -94.31999969482422,31.434999465942383 C-94.66999816894531,40.80500030517578 -94.54000091552734,51.375 -94.0199966430664,62.45500183105469 C-113.11000061035156,65.44499969482422 -132.24000549316406,69.20500183105469 -149.82000732421875,73.91500091552734 C-151.30999755859375,59.084999084472656 -152.52999877929688,44.04499816894531 -153.32000732421875,29.575000762939453z M-138.39999389648438,156.9149932861328 C-140.66000366210938,144.5850067138672 -143,129.77499389648438 -145.16000366210938,113.70500183105469 C-126.31999969482422,109.11499786376953 -108.22000122070312,105.7249984741211 -90.66999816894531,102.94499969482422 C-89.01000213623047,117.36499786376953 -86.9000015258789,131.28500366210938 -84.56999969482422,143.2949981689453 C-102.62000274658203,148.18499755859375 -121.23999786376953,152.81500244140625 -138.39999389648438,156.9149932861328z M7.5,107.92500305175781 C0.5,115.70500183105469 -22.040000915527344,124.63500213623047 -50.099998474121094,133.34500122070312 C-51.29999923706055,122.4749984741211 -52.40999984741211,110.375 -53.33000183105469,97.65499877929688 C-29.229999542236328,94.5250015258789 -5.949999809265137,91.79499816894531 17.110000610351562,87.78500366210938 C15.729999542236328,95.25499725341797 12.65999984741211,102.19499969482422 7.5,107.92500305175781z M117,129.9250030517578 C90.7699966430664,129.9250030517578 69.5,100.19499969482422 69.5,63.51499938964844 C69.5,26.834999084472656 90.7699966430664,-2.9049999713897705 117,-2.9049999713897705 C143.22999572753906,-2.9049999713897705 164.5,26.834999084472656 164.5,63.51499938964844 C164.5,100.19499969482422 143.22999572753906,129.9250030517578 117,129.9250030517578z"></path></g></g></g></svg>