<svg xmlns="http://www.w3.org/2000/svg" xmlns:xlink="http://www.w3.org/1999/xlink" viewBox="0 0 512 512" width="512" height="512" style="width: 100%; height: 100%; transform: translate3d(0,0,0);" preserveAspectRatio="xMidYMid meet"><defs><clipPath id="__lottie_element_51615"><rect width="512" height="512" x="0" y="0"></rect></clipPath></defs><g clip-path="url(#__lottie_element_51615)"><g style="display: block;" transform="matrix(1,0,0,1,251.76100158691406,254.13099670410156)" opacity="1"><g opacity="1" transform="matrix(1,0,0,1,-124.58799743652344,116.25199890136719)"><path fill="rgb(0,0,0)" fill-opacity="1" d=" M28.909000396728516,-95.41200256347656 C52.249000549316406,-93.02999877929688 61.42499923706055,-78.822998046875 81.99600219726562,-31.04400062561035 C102.56700134277344,16.735000610351562 126.45700073242188,73.80400085449219 114.51200103759766,87.07599639892578 C102.56700134277344,100.3479995727539 25.304000854492188,99.52400207519531 -14.887999534606934,77.12200164794922 C-55.367000579833984,54.560001373291016 -55.36800003051758,28.016000747680664 -55.36800003051758,28.016000747680664 C-55.36800003051758,28.016000747680664 -65.32099914550781,37.970001220703125 -85.22899627685547,20.05299949645996 C-105.13700103759766,2.135999917984009 -129.0260009765625,-42.32400131225586 -111.77300262451172,-68.86799621582031 C-94.5199966430664,-95.41200256347656 -32.141998291015625,-96.73899841308594 -22.851999282836914,-78.8219985961914 C-22.851999282836914,-78.8219985961914 -3.6070001125335693,-98.7300033569336 28.909000396728516,-95.41200256347656z"></path></g><g opacity="1" transform="matrix(1,0,0,1,73.16999816894531,74.3219985961914)"><path fill="rgb(0,0,0)" fill-opacity="1" d=" M-42.10300064086914,127.67900085449219 C-58.57899856567383,114.59500122070312 -98.76499938964844,16.582000732421875 -119.24600219726562,-35.34400177001953 C-126.63200378417969,-54.069000244140625 -120.14099884033203,-75.41100311279297 -103.59100341796875,-86.86900329589844 C-103.59100341796875,-86.86900329589844 -47.55799865722656,-125.66200256347656 -47.55799865722656,-125.66200256347656 C-30.983999252319336,-137.13600158691406 -8.687000274658203,-135.67799377441406 6.236999988555908,-122.12699890136719 C45.823001861572266,-86.18399810791016 117.49500274658203,-17.916000366210938 121.80400085449219,8.895999908447266 C127.7760009765625,46.05699920654297 74.83599853515625,86.93599700927734 48.87799835205078,104.6050033569336 C31.302000045776367,116.56900024414062 -19.541000366210938,145.5959930419922 -42.10300064086914,127.67900085449219z"></path></g><g opacity="1" transform="matrix(1,0,0,1,154.26800537109375,-96.41400146484375)"><path fill="rgb(0,0,0)" fill-opacity="1" d=" M59.95100021362305,-29.399999618530273 C59.95100021362305,-29.399999618530273 81.18599700927734,-26.082000732421875 85.83100128173828,-6.8379998207092285 C90.47599792480469,12.406000137329102 90.89199829101562,108.46600341796875 54.641998291015625,115.26300048828125 C33.40700149536133,119.24500274658203 5.2779998779296875,89.5009994506836 -32.28799819946289,60.8489990234375 C-71.44000244140625,30.98699951171875 -88.02999877929688,27.0049991607666 -88.02999877929688,10.414999961853027 C-88.02999877929688,-6.175000190734863 -77.41300201416016,-43.999000549316406 -58.16899871826172,-45.32600021362305 C-58.16899871826172,-45.32600021362305 -57.505001068115234,-107.04100036621094 -19.017000198364258,-115.00399780273438 C19.47100067138672,-122.96700286865234 55.305999755859375,-51.96200180053711 59.95100021362305,-29.399999618530273z"></path></g></g></g></svg>