<svg xmlns="http://www.w3.org/2000/svg" xmlns:xlink="http://www.w3.org/1999/xlink" viewBox="0 0 512 512" width="512" height="512" style="width: 100%; height: 100%; transform: translate3d(0,0,0);" preserveAspectRatio="xMidYMid meet"><defs><clipPath id="__lottie_element_53604"><rect width="512" height="512" x="0" y="0"></rect></clipPath></defs><g clip-path="url(#__lottie_element_53604)"><g style="display: block;" transform="matrix(1,0,0,1,256,256)" opacity="1"><g opacity="1" transform="matrix(1,0,0,1,0,0)"><path fill="rgb(0,0,0)" fill-opacity="1" d=" M183.2550048828125,151.88600158691406 C169.87899780273438,137.09500122070312 155.83900451660156,123.21199798583984 149.3679962158203,116.9219970703125 C150.3489990234375,114.08000183105469 151.04299926757812,110.19999694824219 150.66000366210938,105.12699890136719 C149.6510009765625,91.73400115966797 141.593994140625,75.0989990234375 126.71299743652344,55.685001373291016 C89.8550033569336,7.598999977111816 18.02400016784668,-55.32099914550781 -5.203000068664551,-75.21399688720703 C14.927000045776367,-85.87100219726562 63.983001708984375,-106.96700286865234 150.65499877929688,-133.70899963378906 C155.13999938964844,-135.09300231933594 158.4709930419922,-138.61500549316406 159.56300354003906,-143.1300048828125 C160.63299560546875,-147.55799865722656 159.31500244140625,-152.11300659179688 156.03799438476562,-155.3159942626953 C156.03799438476562,-155.3159942626953 156.03700256347656,-155.3159942626953 156.03700256347656,-155.3159942626953 C142.52699279785156,-168.51499938964844 87.55699920654297,-195.625 10.699999809265137,-192.17599487304688 C3.052000045776367,-204.73199462890625 -25.750999450683594,-236.48899841308594 -112.64900207519531,-210.031005859375 C-157.61700439453125,-196.33999633789062 -189.92999267578125,-161.75100708007812 -206.0959930419922,-110.0009994506836 C-220.4010009765625,-64.20899963378906 -218.61300659179688,-16.07200050354004 -212.16799926757812,13.708000183105469 C-205.46800231933594,44.678001403808594 -177.08200073242188,76.08699798583984 -127.80400085449219,107.06500244140625 C-114.16400146484375,115.63899993896484 -98.8219985961914,124.18699645996094 -82.23300170898438,132.5050048828125 C-82.23300170898438,132.5050048828125 -103.60600280761719,189.15199279785156 -103.60600280761719,189.15199279785156 C-103.60600280761719,189.15199279785156 -151.843994140625,189.15199279785156 -151.843994140625,189.15199279785156 C-160.43499755859375,189.15199279785156 -167.39999389648438,196.11700439453125 -167.39999389648438,204.70799255371094 C-167.39999389648438,213.2989959716797 -160.43499755859375,220.26300048828125 -151.843994140625,220.26300048828125 C-151.843994140625,220.26300048828125 18.742000579833984,220.26300048828125 18.742000579833984,220.26300048828125 C27.33300018310547,220.26300048828125 34.29800033569336,213.2989959716797 34.29800033569336,204.70799255371094 C34.29800033569336,196.11700439453125 27.33300018310547,189.15199279785156 18.742000579833984,189.15199279785156 C18.742000579833984,189.15199279785156 9.072999954223633,189.15199279785156 9.072999954223633,189.15199279785156 C9.072999954223633,189.15199279785156 15.045999526977539,173.3209991455078 15.045999526977539,173.3209991455078 C65.37999725341797,190.91000366210938 112.3550033569336,204.60299682617188 147.3350067138672,211.88099670410156 C165.3159942626953,215.6219940185547 179.8730010986328,217.63099670410156 190.5989990234375,217.8520050048828 C191.28900146484375,217.86599731445312 191.9980010986328,217.87399291992188 192.72300720214844,217.87399291992188 C201.23500061035156,217.87399291992188 211.85000610351562,216.67799377441406 215.656005859375,209.11300659179688 C219.24899291992188,201.9709930419922 217.80999755859375,190.09500122070312 183.2550048828125,151.88600158691406z M-87.44300079345703,-145.03500366210938 C-94.78500366210938,-152.36700439453125 -94.78500366210938,-164.3040008544922 -87.44300079345703,-171.64599609375 C-80.11100006103516,-178.96800231933594 -68.18399810791016,-178.96800231933594 -60.84199905395508,-171.64599609375 C-57.180999755859375,-167.97500610351562 -55.34600067138672,-163.15199279785156 -55.34600067138672,-158.33999633789062 C-55.34600067138672,-153.51800537109375 -57.180999755859375,-148.6959991455078 -60.84199905395508,-145.03500366210938 C-64.51300048828125,-141.36399841308594 -69.32499694824219,-139.53900146484375 -74.14700317382812,-139.53900146484375 C-78.95899963378906,-139.53900146484375 -83.78199768066406,-141.36399841308594 -87.44300079345703,-145.03500366210938z M-24.179000854492188,189.15199279785156 C-24.179000854492188,189.15199279785156 -70.35399627685547,189.15199279785156 -70.35399627685547,189.15199279785156 C-70.35399627685547,189.15199279785156 -54.02899932861328,145.88400268554688 -54.02899932861328,145.88400268554688 C-41.20399856567383,151.64300537109375 -27.854000091552734,157.2239990234375 -14.144000053405762,162.55299377441406 C-14.144000053405762,162.55299377441406 -24.179000854492188,189.15199279785156 -24.179000854492188,189.15199279785156z"></path></g></g></g></svg>