<svg xmlns="http://www.w3.org/2000/svg" xmlns:xlink="http://www.w3.org/1999/xlink" viewBox="0 0 512 512" width="512" height="512" style="width: 100%; height: 100%; transform: translate3d(0,0,0);" preserveAspectRatio="xMidYMid meet"><defs><clipPath id="__lottie_element_52503"><rect width="512" height="512" x="0" y="0"></rect></clipPath></defs><g clip-path="url(#__lottie_element_52503)"><g style="display: block;" transform="matrix(1,0,0,1,256,256)" opacity="1"><g opacity="1" transform="matrix(1,0,0,1,0,0)"><path fill="rgb(0,0,0)" fill-opacity="1" d=" M-49.58000183105469,154.13600158691406 C-49.58000183105469,154.13600158691406 -49.48699951171875,154.15699768066406 -49.48699951171875,154.15699768066406 C-40.124000549316406,156.32400512695312 -41.874000549316406,170.28399658203125 -51.51499938964844,170.01800537109375 C-82.85299682617188,169.1719970703125 -112.93399810791016,164.3209991455078 -140.89500427246094,156.24200439453125 C-148.1060028076172,154.15899658203125 -155.83200073242188,157.38800048828125 -159.36199951171875,164.01199340820312 C-172.66900634765625,188.9810028076172 -163.67300415039062,223.72000122070312 -94.947998046875,237.95199584960938 C-10.637999534606934,255.41000366210938 136.79600524902344,238.23199462890625 188.00100708007812,195.77099609375 C215.9429931640625,172.6009979248047 213.08399963378906,142.0540008544922 188.531005859375,123.802001953125 C195.69700622558594,54.347999572753906 194.16900634765625,-46.507999420166016 237.9550018310547,-141.2519989013672 C249.85400390625,-166.9980010986328 205.14599609375,-179.3470001220703 179.38800048828125,-147.64599609375 C145.7220001220703,-172.49400329589844 104.91300201416016,-122.62899780273438 115.3219985961914,-103.6050033569336 C136.5590057373047,-64.78900146484375 112.31300354003906,-13.979999542236328 79.9000015258789,-24.242000579833984 C45.194000244140625,-35.23400115966797 37.340999603271484,-98.875 67.91200256347656,-120.52400207519531 C86.15699768066406,-133.44400024414062 67.48300170898438,-199.4429931640625 28.69300079345703,-196.32200622558594 C15.42300033569336,-262.135986328125 -43.659000396728516,-252.66799926757812 -45.742000579833984,-190.13699340820312 C-84.73699951171875,-186.79600524902344 -91.88600158691406,-118.56300354003906 -71.91200256347656,-108.90599822998047 C-38.21099853515625,-92.61000061035156 -35.42300033569336,-28.53700065612793 -67.84500122070312,-11.96500015258789 C-97.9990005493164,3.450000047683716 -130.46299743652344,-42.47999954223633 -115.87899780273438,-84.39399719238281 C-108.75700378417969,-104.85900115966797 -157.20599365234375,-147.34800720214844 -186.3350067138672,-117.25599670410156 C-217.48500061035156,-144.718994140625 -258.7049865722656,-124.24199676513672 -243.04299926757812,-101.28399658203125 C-204.82400512695312,-45.26599884033203 -185.0489959716797,16.45199966430664 -170.81199645996094,71.23100280761719 C-164.67999267578125,94.82599639892578 -148.79400634765625,114.72200012207031 -127.11900329589844,125.88099670410156 C-104.33399963378906,137.61099243164062 -78.01100158691406,147.55499267578125 -49.58000183105469,154.13600158691406z"></path></g></g></g></svg>