<svg xmlns="http://www.w3.org/2000/svg" xmlns:xlink="http://www.w3.org/1999/xlink" viewBox="0 0 512 512" width="512" height="512" style="width: 100%; height: 100%; transform: translate3d(0,0,0);" preserveAspectRatio="xMidYMid meet"><defs><clipPath id="__lottie_element_52583"><rect width="512" height="512" x="0" y="0"></rect></clipPath></defs><g clip-path="url(#__lottie_element_52583)"><g style="display: block;" transform="matrix(1,0,0,1,256,256)" opacity="1"><g opacity="1" transform="matrix(1,0,0,1,0,0)"><path fill="rgb(0,0,0)" fill-opacity="1" d=" M-224.48300170898438,163.15499877929688 C-181.95899963378906,120.79499816894531 -144.76300048828125,71.33499908447266 -50.55799865722656,50.55799865722656 C-71.33499908447266,144.76300048828125 -120.79499816894531,181.95899963378906 -163.15499877929688,224.48300170898438 C-169.3090057373047,230.66099548339844 -162.531005859375,240.7969970703125 -154.4499969482422,237.52000427246094 C-43.058998107910156,192.3419952392578 43.05799865722656,192.3419952392578 154.44900512695312,237.52000427246094 C162.52999877929688,240.7969970703125 169.3090057373047,230.66099548339844 163.15499877929688,224.48300170898438 C120.79499816894531,181.95899963378906 71.33499908447266,144.76300048828125 50.55799865722656,50.55799865722656 C144.76300048828125,71.33499908447266 181.95899963378906,120.79499816894531 224.48300170898438,163.15499877929688 C230.66099548339844,169.3090057373047 240.79800415039062,162.52999877929688 237.52000427246094,154.44900512695312 C192.3419952392578,43.05799865722656 192.3419952392578,-43.05799865722656 237.52000427246094,-154.44900512695312 C240.79800415039062,-162.52999877929688 230.66099548339844,-169.3090057373047 224.48300170898438,-163.15499877929688 C181.95899963378906,-120.79499816894531 144.76300048828125,-71.33499908447266 50.55799865722656,-50.55799865722656 C71.33499908447266,-144.76300048828125 120.79499816894531,-181.95899963378906 163.15499877929688,-224.48300170898438 C169.3090057373047,-230.66099548339844 162.52999877929688,-240.7969970703125 154.44900512695312,-237.52000427246094 C43.05799865722656,-192.3419952392578 -43.058998107910156,-192.3419952392578 -154.4499969482422,-237.52000427246094 C-162.531005859375,-240.7969970703125 -169.3090057373047,-230.66099548339844 -163.15499877929688,-224.48300170898438 C-120.79499816894531,-181.95899963378906 -71.33499908447266,-144.76300048828125 -50.55799865722656,-50.55799865722656 C-144.76300048828125,-71.33499908447266 -181.95899963378906,-120.79499816894531 -224.48300170898438,-163.15499877929688 C-230.66099548339844,-169.3090057373047 -240.7969970703125,-162.52999877929688 -237.52000427246094,-154.44900512695312 C-192.3419952392578,-43.05799865722656 -192.3419952392578,43.05799865722656 -237.52000427246094,154.44900512695312 C-240.7969970703125,162.52999877929688 -230.66099548339844,169.3090057373047 -224.48300170898438,163.15499877929688z"></path></g></g></g></svg>