<svg xmlns="http://www.w3.org/2000/svg" xmlns:xlink="http://www.w3.org/1999/xlink" viewBox="0 0 512 512" width="512" height="512" style="width: 100%; height: 100%; transform: translate3d(0,0,0);" preserveAspectRatio="xMidYMid meet"><defs><clipPath id="__lottie_element_51440"><rect width="512" height="512" x="0" y="0"></rect></clipPath></defs><g clip-path="url(#__lottie_element_51440)"><g style="display: block;" transform="matrix(1,0,0,1,0,0)" opacity="1"><g opacity="1" transform="matrix(1,0,0,1,256.10400390625,254.37600708007812)"><path fill="rgb(0,0,0)" fill-opacity="1" d=" M-253.10400390625,-69.49800109863281 C-247.9709930419922,-65.51799774169922 -246.55099487304688,-58.79399871826172 -242.22999572753906,-53.3380012512207 C-215.8179931640625,-19.983999252319336 -125.72200012207031,-16.479999542236328 -85.46700286865234,-15.425000190734863 C-75.03199768066406,-15.151000022888184 -59.62099838256836,-8.310999870300293 -53.972999572753906,-23.11199951171875 C-53.08599853515625,-34.03900146484375 -91.51300048828125,-73.89099884033203 -103.2750015258789,-75.62300109863281 C-112.91600036621094,-77.04199981689453 -129.29600524902344,-55.874000549316406 -131.9499969482422,-58.696998596191406 C-127.23999786376953,-77.83899688720703 -106.43900299072266,-87.21800231933594 -124.30899810791016,-106.33899688720703 C-138.46800231933594,-121.48899841308594 -156.35000610351562,-131.45199584960938 -177.51199340820312,-126.92500305175781 C-185.56900024414062,-125.2020034790039 -190.68800354003906,-118.67900085449219 -195.81700134277344,-117.10099792480469 C-198.70599365234375,-116.21199798583984 -199.8350067138672,-117.38099670410156 -198.99000549316406,-120.27100372314453 C-197.1320037841797,-126.62699890136719 -182.31399536132812,-146.7429962158203 -177.32899475097656,-152.6909942626953 C-172.1280059814453,-158.8979949951172 -132.28599548339844,-199.45799255371094 -125.48100280761719,-192.74400329589844 C-127.36499786376953,-183.16700744628906 -136.07400512695312,-173.7530059814453 -135.9510040283203,-163.52000427246094 C-135.79400634765625,-150.48599243164062 -108.49700164794922,-116.22899627685547 -95.93299865722656,-115.54299926757812 C-85.9260025024414,-114.99600219726562 -70.27100372314453,-133.43099975585938 -69.24600219726562,-132.20799255371094 C-77.03700256347656,-106.05599975585938 -88.5510025024414,-102.84600067138672 -66.04199981689453,-80.2490005493164 C-60.67300033569336,-74.85900115966797 -33.01300048828125,-50.85200119018555 -26.136999130249023,-56.71699905395508 C-21.99799919128418,-73.78800201416016 -24.038000106811523,-92.14299774169922 -25.976999282836914,-109.48600006103516 C-29.551000595092773,-141.4499969482422 -41.446998596191406,-212.31199645996094 -61.630001068115234,-236.0279998779297 C-61.630001068115234,-236.0279998779297 -75.70600128173828,-248.95799255371094 -75.70600128173828,-248.95799255371094 C-66.24600219726562,-251.17599487304688 -57.28499984741211,-248.8990020751953 -48.76300048828125,-248.87899780273438 C-16.270999908447266,-248.80099487304688 16.270000457763672,-248.63900756835938 48.75899887084961,-248.8719940185547 C57.36000061035156,-248.9340057373047 66.31700134277344,-252.70199584960938 75.7040023803711,-247.906005859375 C67.41000366210938,-242.34800720214844 59.5369987487793,-234.55099487304688 54.45500183105469,-225.89999389648438 C40.029998779296875,-201.3470001220703 22.197999954223633,-103.72000122070312 23.718000411987305,-74.822998046875 C24.23900032043457,-64.91699981689453 24.799999237060547,-53.694000244140625 36.86899948120117,-57.474998474121094 C45.29600143432617,-60.1150016784668 75.80899810791016,-87.20700073242188 78.86100006103516,-95.54000091552734 C84.10700225830078,-109.85700225830078 70.28099822998047,-119.16799926757812 69.24500274658203,-132.20799255371094 C77.93800354003906,-127.61299896240234 86.74099731445312,-114.03900146484375 97.45800018310547,-115.81099700927734 C105.49700164794922,-117.13899993896484 132.86900329589844,-145.7220001220703 135.29299926757812,-153.7270050048828 C140.06399536132812,-169.47900390625 129.5760040283203,-178.29299926757812 127.64299774169922,-192.7449951171875 C130.1840057373047,-195.25900268554688 145.35699462890625,-184.1230010986328 148.13900756835938,-181.8990020751953 C167.88900756835938,-166.11300659179688 188.8990020751953,-141.3800048828125 199.04100036621094,-118.1719970703125 C191.39500427246094,-117.197998046875 186.01800537109375,-125.05999755859375 177.51600646972656,-126.91699981689453 C152.552001953125,-132.37100219726562 127.16799926757812,-113.4749984741211 116.82499694824219,-92.0469970703125 C116.82499694824219,-92.0469970703125 131.94900512695312,-58.69599914550781 131.94900512695312,-58.69599914550781 C128.4149932861328,-54.71699905395508 114.66300201416016,-80.14399719238281 100.17500305175781,-74.34700012207031 C90.177001953125,-70.34700012207031 57.56399917602539,-36.58399963378906 54.983001708984375,-26.257999420166016 C54.1619987487793,-22.968000411987305 53.45600128173828,-21.440000534057617 56.020999908447266,-18.49799919128418 C65.82599639892578,-10.199999809265137 76.0009994506836,-15.302000045776367 85.46800231933594,-15.430000305175781 C123.41000366210938,-15.942000389099121 213.3560028076172,-21.03700065612793 240.13299560546875,-49.558998107910156 C240.13299560546875,-49.558998107910156 253.10299682617188,-69.49800109863281 253.10299682617188,-69.49800109863281 C253.10299682617188,-69.49800109863281 253.10299682617188,73.22100067138672 253.10299682617188,73.22100067138672 C253.10299682617188,73.22100067138672 243.22799682617188,56.0620002746582 243.22799682617188,56.0620002746582 C222.2949981689453,27.572999954223633 134.80799865722656,18.66900062561035 100.57599639892578,17.013999938964844 C90.28099822998047,16.516000747680664 51.87799835205078,12.49899959564209 54.34700012207031,28.399999618530273 C55.650001525878906,36.79399871826172 89.00199890136719,73.29399871826172 97.44200134277344,76.36900329589844 C112.81199645996094,81.96800231933594 120.2040023803711,66.9530029296875 131.93800354003906,60.24700164794922 C129.71299743652344,79.55400085449219 106.9469985961914,87.29399871826172 123.26399993896484,106.78099822998047 C137.56100463867188,123.85399627685547 159.0330047607422,133.94700622558594 181.3179931640625,127.96700286865234 C188.0330047607422,126.16600036621094 191.99899291992188,120.52999877929688 199.01100158691406,120.80500030517578 C202.08200073242188,123.76100158691406 176.81500244140625,156.65699768066406 173.11900329589844,160.85699462890625 C167.8699951171875,166.82200622558594 134.1219940185547,200.58099365234375 127.64299774169922,194.30599975585938 C130.03199768066406,179.5679931640625 140.2989959716797,172.23899841308594 134.61700439453125,155.96400451660156 C131.39599609375,146.73699951171875 107.70999908447266,119.60800170898438 98.23400115966797,118.63899993896484 C85.44499969482422,117.33000183105469 80.99600219726562,131.62399291992188 69.23500061035156,133.75799560546875 C71.58599853515625,121.65499877929688 84.95500183105469,110.23500061035156 78.91300201416016,97.03600311279297 C76.16000366210938,91.02100372314453 39.75899887084961,59.45199966430664 33.209999084472656,58.611000061035156 C31.020000457763672,58.33000183105469 28.320999145507812,59.72700119018555 26.243000030517578,60.5620002746582 C22.81999969482422,84.83899688720703 27.367000579833984,109.91699981689453 30.908000946044922,134.2270050048828 C34.808998107910156,161.01100158691406 41.76300048828125,210.0050048828125 56.5989990234375,231.80499267578125 C56.5989990234375,231.80499267578125 77.87699890136719,252.70199584960938 77.87699890136719,252.70199584960938 C77.87699890136719,252.70199584960938 -77.87899780273438,252.70199584960938 -77.87899780273438,252.70199584960938 C-77.87899780273438,252.70199584960938 -51.540000915527344,223.88800048828125 -51.540000915527344,223.88800048828125 C-39.1879997253418,200.46499633789062 -20.600000381469727,95.89700317382812 -23.999000549316406,70.18000030517578 C-24.941999435424805,63.04199981689453 -26.444000244140625,56.28200149536133 -34.69300079345703,58.99599838256836 C-41.86000061035156,61.35499954223633 -72.58599853515625,88.18699645996094 -76.61299896240234,95.01399993896484 C-86.70500183105469,112.12200164794922 -65.65899658203125,129.80099487304688 -69.23699951171875,133.75999450683594 C-79.41500091552734,131.1999969482422 -84.23600006103516,117.34100341796875 -96.06199645996094,118.60399627685547 C-107.41699981689453,119.81600189208984 -128.99200439453125,145.23899841308594 -133.01300048828125,155.41099548339844 C-138.57699584960938,169.48800659179688 -131.8990020751953,181.7779998779297 -125.47100067138672,194.29600524902344 C-131.28799438476562,199.16799926757812 -150.0469970703125,183.22300720214844 -154.7310028076172,179.23599243164062 C-172.71200561523438,163.9340057373047 -188.79200744628906,142.0019989013672 -199.02200317382812,120.81500244140625 C-183.6909942626953,125.58699798583984 -176.42300415039062,131.5540008544922 -158.93899536132812,129.49200439453125 C-146.2239990234375,127.99299621582031 -116.65399932861328,107.42900085449219 -116.69400024414062,93.76300048828125 C-116.72699737548828,82.60900115966797 -130.31100463867188,73.42500305175781 -131.9510040283203,62.41999816894531 C-117.22899627685547,63.92100143432617 -115.90499877929688,83.0979995727539 -97.44200134277344,76.36900329589844 C-91.90699768066406,74.35099792480469 -75.91400146484375,57.972999572753906 -71.33100128173828,52.736000061035156 C-36.70000076293945,13.161999702453613 -61.08100128173828,15.125 -100.5780029296875,17.013999938964844 C-134.1820068359375,18.621000289916992 -210.2519989013672,27.04400062561035 -235.6300048828125,48.520999908447266 C-235.6300048828125,48.520999908447266 -253.10400390625,73.22100067138672 -253.10400390625,73.22100067138672 C-253.10400390625,73.22100067138672 -253.10400390625,-69.49800109863281 -253.10400390625,-69.49800109863281z"></path></g></g></g></svg>