<svg xmlns="http://www.w3.org/2000/svg" xmlns:xlink="http://www.w3.org/1999/xlink" viewBox="0 0 512 512" width="512" height="512" style="width: 100%; height: 100%; transform: translate3d(0,0,0);" preserveAspectRatio="xMidYMid meet"><defs><clipPath id="__lottie_element_51310"><rect width="512" height="512" x="0" y="0"></rect></clipPath></defs><g clip-path="url(#__lottie_element_51310)"><g style="display: block;" transform="matrix(1,0,0,1,260.6929931640625,251.51199340820312)" opacity="1"><g opacity="1" transform="matrix(1,0,0,1,0,0)"><path fill="rgb(0,0,0)" fill-opacity="1" d=" M-39.62,118.76 C-36.11,131.65 -31.67,147.95 -27.19,164.23 C-25.6,167.81 -20.67,169.91 -19.48,164.88 C-17.18,152.28 -19.11,138.89 -22.12,126.6 C-24.58,117.44 -22.44,110 -16.61,103.09 C21.8,54.7 67.13,12.61 113.23,-28.29 C118.25,-32.77 123.46,-33.87 129.9,-31.49 C145.42,-26.02 161.03,-20.29 176.71,-15.39 C190.62,-15.84 176.86,-33.22 169.56,-34.29 C157.95,-38.89 146.03,-42.76 134.61,-47.77 C122.64,-53.01 112.8,-50.26 103.56,-42.02 C74.55,-15.76 -43.44,83.46 -39.62,118.76z M73.09,-150.58 C70.58,-174 73.32,-187.48 68.25,-204.82 C64.89,-212.42 53.46,-211.78 52.38,-203.08 C50.46,-186.32 51.76,-169.26 51.6,-152.41 C51.74,-143.8 48.89,-136.76 42.52,-130.94 C-7.58,-83.69 -59.62,-38.56 -108.65,9.82 C-114.31,17.97 -160.95,46.05 -134.86,50.49 C-114.67,52.9 -66.57,-4.03 -47.09,-18.91 C-13.58,-49.68 19.88,-80.51 53.65,-111.01 C67.45,-123.48 75.22,-137.93 73.09,-150.58z M-202.68,181.5 C-200.07,181.77 -199.06,180.48 -198.19,179.17 C-182.43,155.32 -166.47,131.59 -151.05,107.51 C-144.47,97.23 -144.6,96.66 -134.75,102.75 C-86.23,131.37 -89.57,137.66 -66.25,186.09 C-63.29,194.28 -50.14,210.49 -46.39,193.91 C-46.14,176.29 -58.76,161.75 -63.94,145.49 C-72.17,123.66 -87.42,108.52 -107.02,96.72 C-140.18,76.82 -172.27,55.18 -206.03,36.28 C-214.39,30.1 -222.79,41.02 -216.07,48.41 C-207.34,57.48 -201.88,59.45 -202.37,73.59 C-200.89,109.25 -204.74,146.55 -202.68,181.5z M224.88,-193.45 C227.17,-211.88 210.36,-213.69 200.82,-201.94 C173.11,-172.42 140.95,-146.46 116.4,-114.25 C110.92,-105.53 111.48,-98.03 119.27,-91.51 C136.24,-77.29 154.5,-64.79 174.21,-54.55 C188.26,-47.68 196.87,-58.22 198.73,-71.52 C207.85,-111.22 217.5,-154.13 224.88,-193.45z M-243.74400329589844,55.61399841308594 C-243.16900634765625,36.891998291015625 -237.80499267578125,20.95400047302246 -224.53199768066406,6.4730000495910645 C-173.29200744628906,-49.43000030517578 -119.4469985961914,-102.5530014038086 -61.790000915527344,-151.8159942626953 C-25.982999801635742,-178.5489959716797 22.106000900268555,-237.66200256347656 67.14199829101562,-238.85400390625 C118.29299926757812,-238.95700073242188 169.4770050048828,-237.7050018310547 220.43899536132812,-233.34300231933594 C237.20899963378906,-230.33099365234375 245.9320068359375,-219.54600524902344 244.3489990234375,-202.6820068359375 C240.1719970703125,-158.17599487304688 235.0760040283203,-113.7760009765625 227.3679962158203,-69.71800231933594 C221.4040069580078,-42.125999450683594 221.50399780273438,-11.241000175476074 200.89999389648438,10.375 C138.48399353027344,82.51300048828125 68.61000061035156,146.7449951171875 -5.234000205993652,206.94700622558594 C-46.095001220703125,240.9949951171875 -158.39700317382812,230.57400512695312 -214.85000610351562,238.8459930419922 C-233.85400390625,239.23800659179688 -242.572998046875,231.38999938964844 -243.71099853515625,212.61399841308594 C-244.80599975585938,194.53199768066406 -244.7949981689453,89.83499908447266 -243.74400329589844,55.61399841308594z"></path><g opacity="1" transform="matrix(1,0,0,1,71.48699951171875,58.709999084472656)"></g><g opacity="1" transform="matrix(1,0,0,1,-34.643001556396484,-79.76399993896484)"></g><g opacity="1" transform="matrix(1,0,0,1,-132.44700622558594,117.7750015258789)"></g><g opacity="1" transform="matrix(1,0,0,1,168.93600463867188,-130.86599731445312)"></g><g opacity="1" transform="matrix(1,0,0,1,0,0)"></g></g></g></g></svg>