<svg xmlns="http://www.w3.org/2000/svg" xmlns:xlink="http://www.w3.org/1999/xlink" viewBox="0 0 512 512" width="512" height="512" style="width: 100%; height: 100%; transform: translate3d(0,0,0);" preserveAspectRatio="xMidYMid meet"><defs><clipPath id="__lottie_element_52726"><rect width="512" height="512" x="0" y="0"></rect></clipPath></defs><g clip-path="url(#__lottie_element_52726)"><g style="display: block;" transform="matrix(1,0,0,1,256,256)" opacity="1"><g opacity="1" transform="matrix(1,0,0,1,0,0)"><path fill="rgb(0,0,0)" fill-opacity="1" d=" M116.42900085449219,134.4770050048828 C64.8740005493164,167.1929931640625 -22.878000259399414,179.4250030517578 -81.30899810791016,162.1649932861328 C-115.7239990234375,151.552001953125 -117.28199768066406,152.89500427246094 -119.83100128173828,172.72000122070312 C-121.19999694824219,193.26699829101562 -121.36900329589844,194.5749969482422 -120.99700164794922,197.22999572753906 C-110.26499938964844,273.8800048828125 174.70599365234375,234.13099670410156 163.9530029296875,157.3300018310547 C163.56399536132812,154.55099487304688 163.0570068359375,153.47900390625 154.70899963378906,130.6009979248047 C148.81700134277344,115.41100311279297 144.76600646972656,115.71099853515625 116.42900085449219,134.4770050048828z"></path></g><g opacity="1" transform="matrix(1,0,0,1,0,0)"><path fill="rgb(0,0,0)" fill-opacity="1" d=" M-84.1709976196289,94.2040023803711 C-135.77099609375,126.52100372314453 -77.75299835205078,154.8179931640625 16.76799964904785,141.96200561523438 C111.23799896240234,128.73500061035156 159.4219970703125,85.77999877929688 100.99700164794922,68.64800262451172 C234.61700439453125,-43.125 138.1490020751953,-261.33099365234375 -34.62200164794922,-237.13900756835938 C-34.62200164794922,-237.13900756835938 -36.44900131225586,-236.88699340820312 -36.44900131225586,-236.88699340820312 C-209.31500244140625,-213.37600708007812 -243.0709991455078,22.80299949645996 -84.1709976196289,94.2040023803711z M75.49600219726562,-184.46099853515625 C91.16500091552734,-172.49200439453125 106.55000305175781,-149.10499572753906 109.34400177001953,-130.11099243164062 C116.95899963378906,-78.32099914550781 51.64500045776367,-118.94300079345703 42.29899978637695,-127.36000061035156 C-16.65399932861328,-180.4530029296875 32.01100158691406,-217.6739959716797 75.49600219726562,-184.46099853515625z M-151.77200317382812,-23.56599998474121 C-152.8040008544922,-30.934999465942383 -120.03199768066406,-38.584999084472656 -110.66999816894531,-50.99599838256836 C-101.30799865722656,-63.40599822998047 -103.53600311279297,-96.93900299072266 -96.16600036621094,-97.97000122070312 C-88.7969970703125,-99.00199890136719 -81.14800262451172,-66.22799682617188 -68.73699951171875,-56.86600112915039 C-56.32699966430664,-47.50299835205078 -22.795000076293945,-49.73400115966797 -21.76300048828125,-42.3650016784668 C-20.73200035095215,-34.994998931884766 -53.50400161743164,-27.34600067138672 -62.86600112915039,-14.9350004196167 C-72.22799682617188,-2.5250000953674316 -69.9990005493164,31.007999420166016 -77.36799621582031,32.03900146484375 C-84.73699951171875,33.07099914550781 -92.38600158691406,0.2980000078678131 -104.7969970703125,-9.064000129699707 C-117.20800018310547,-18.427000045776367 -150.74200439453125,-16.19700050354004 -151.77200317382812,-23.56599998474121z"></path></g></g></g></svg>