<svg xmlns="http://www.w3.org/2000/svg" xmlns:xlink="http://www.w3.org/1999/xlink" viewBox="0 0 512 512" width="512" height="512" style="width: 100%; height: 100%; transform: translate3d(0,0,0);" preserveAspectRatio="xMidYMid meet"><defs><clipPath id="__lottie_element_52403"><rect width="512" height="512" x="0" y="0"></rect></clipPath></defs><g clip-path="url(#__lottie_element_52403)"><g style="display: block;" transform="matrix(1,0,0,1,256,256)" opacity="1"><g opacity="1" transform="matrix(1,0,0,1,0,0)"><path fill="rgb(0,0,0)" fill-opacity="1" d=" M202.6739959716797,0.020999999716877937 C190.28399658203125,-7.709000110626221 178.35400390625,-17.958999633789062 166.10400390625,-29.159000396728516 C168.69400024414062,-63.44900131225586 168.35400390625,-100.2490005493164 165.01400756835938,-131.60899353027344 C159.843994140625,-180.0590057373047 149.08399963378906,-205.23899841308594 132.11399841308594,-208.5590057373047 C108.40399932861328,-213.20899963378906 79.50399780273438,-181.0590057373047 59.84400177001953,-156.45899963378906 C46.694000244140625,-140.0290069580078 35.24399948120117,-123.46900177001953 28.29400062561035,-113.02899932861328 C19.36400032043457,-114.41899871826172 9.954000473022461,-115.16899871826172 0.004000000189989805,-115.16899871826172 C-9.675999641418457,-115.16899871826172 -18.836000442504883,-114.45899963378906 -27.535999298095703,-113.13899993896484 C-34.486000061035156,-123.58899688720703 -45.90599822998047,-140.08900451660156 -59.00600051879883,-156.45899963378906 C-78.66600036621094,-181.0489959716797 -107.56600189208984,-213.20899963378906 -131.2760009765625,-208.5590057373047 C-148.24600219726562,-205.23899841308594 -159.00599670410156,-180.0590057373047 -164.17599487304688,-131.60899353027344 C-167.49600219726562,-100.46900177001953 -167.8560028076172,-63.94900131225586 -165.33599853515625,-29.858999252319336 C-177.8560028076172,-18.388999938964844 -190.0260009765625,-7.86899995803833 -202.67599487304688,0.020999999716877937 C-208.73599243164062,3.8010001182556152 -211.37600708007812,11.420999526977539 -208.9459991455078,18.131000518798828 C-201.74600219726562,38.04100036621094 -186.6959991455078,62.53099822998047 -125.8759994506836,106.59100341796875 C-98.45600128173828,126.47100067138672 -81.45600128173828,146.8209991455078 -66.46600341796875,164.781005859375 C-46.13600158691406,189.14100646972656 -30.086000442504883,208.37100219726562 -0.2160000056028366,209.01100158691406 C-0.2160000056028366,209.01100158691406 0.21400000154972076,209.01100158691406 0.21400000154972076,209.01100158691406 C30.083999633789062,208.37100219726562 46.14400100708008,189.14100646972656 66.4739990234375,164.781005859375 C81.46399688720703,146.8209991455078 98.4540023803711,126.47100067138672 125.88400268554688,106.59100341796875 C186.69400024414062,62.53099822998047 201.74400329589844,38.04100036621094 208.94400024414062,18.141000747680664 C209.5540008544922,16.461000442504883 209.843994140625,14.730999946594238 209.843994140625,13.01099967956543 C209.843994140625,7.85099983215332 207.2239990234375,2.8610000610351562 202.6739959716797,0.020999999716877937z M62.79399871826172,52.361000061035156 C61.013999938964844,55.79100036621094 57.52399826049805,57.76100158691406 53.91400146484375,57.76100158691406 C52.36399841308594,57.76100158691406 50.784000396728516,57.39099884033203 49.31399917602539,56.63100051879883 C44.41400146484375,54.08100128173828 42.50400161743164,48.05099868774414 45.04399871826172,43.14099884033203 C45.624000549316406,42.03099822998047 59.58399963378906,15.770999908447266 91.28399658203125,8.800999641418457 C96.67400360107422,7.611000061035156 102.01399993896484,11.031000137329102 103.19400024414062,16.42099952697754 C104.38400268554688,21.81100082397461 100.9739990234375,27.150999069213867 95.5739974975586,28.340999603271484 C72.92400360107422,33.32099914550781 62.89400100708008,52.17100143432617 62.79399871826172,52.361000061035156z M16.753999710083008,173.9010009765625 C12.973999977111816,177.7310028076172 8.553999900817871,181.37100219726562 5.834000110626221,183.281005859375 C4.093999862670898,184.50100708007812 2.063999891281128,185.11099243164062 0.024000000208616257,185.11099243164062 C-2.0460000038146973,185.11099243164062 -4.116000175476074,184.4810028076172 -5.875999927520752,183.21099853515625 C-8.586000442504883,181.27099609375 -12.986000061035156,177.62100219726562 -16.715999603271484,173.83099365234375 C-23.006000518798828,167.4510040283203 -25.125999450683594,163.11099243164062 -24.016000747680664,158.86099243164062 C-22.125999450683594,151.63099670410156 -10.086000442504883,147.16099548339844 -0.006000000052154064,147.16099548339844 C10.083999633789062,147.16099548339844 22.134000778198242,151.63099670410156 24.013999938964844,158.87100219726562 C24.194000244140625,159.5709991455078 24.284000396728516,160.281005859375 24.284000396728516,161.00100708007812 C24.284000396728516,164.6510009765625 21.923999786376953,168.6510009765625 16.753999710083008,173.9010009765625z M-62.715999603271484,52.4109992980957 C-63.17599868774414,51.55099868774414 -73.23600006103516,33.24100112915039 -95.5260009765625,28.340999603271484 C-100.91600036621094,27.150999069213867 -104.32599639892578,21.81100082397461 -103.13600158691406,16.42099952697754 C-101.95600128173828,11.031000137329102 -96.61599731445312,7.611000061035156 -91.22599792480469,8.800999641418457 C-59.5359992980957,15.770999908447266 -45.566001892089844,42.03099822998047 -44.986000061035156,43.14099884033203 C-42.44599914550781,48.05099868774414 -44.35599899291992,54.08100128173828 -49.25600051879883,56.63100051879883 C-50.72600173950195,57.39099884033203 -52.305999755859375,57.76100158691406 -53.85599899291992,57.76100158691406 C-57.45600128173828,57.76100158691406 -60.92599868774414,55.81100082397461 -62.715999603271484,52.4109992980957z M-121.05599975585938,-104.67900085449219 C-120.1760025024414,-126.76899719238281 -116.41600036621094,-130.78900146484375 -112.49600219726562,-131.8489990234375 C-108.18599700927734,-132.99899291992188 -103.50599670410156,-130.53900146484375 -91.10600280761719,-114.22899627685547 C-84.72599792480469,-105.8290023803711 -79.11599731445312,-97.40899658203125 -78.88600158691406,-97.05899810791016 C-78.85600280761719,-97.00900268554688 -78.82599639892578,-96.96900177001953 -78.7959976196289,-96.91899871826172 C-80.30599975585938,-96.16899871826172 -81.7959976196289,-95.40899658203125 -83.26599884033203,-94.61900329589844 C-85.65599822998047,-93.36900329589844 -87.99600219726562,-92.05899810791016 -90.2959976196289,-90.71900177001953 C-97.32599639892578,-86.62899780273438 -104.00599670410156,-82.17900085449219 -110.41600036621094,-77.4990005493164 C-111.99600219726562,-76.3489990234375 -113.55599975585938,-75.17900085449219 -115.09600067138672,-74.00900268554688 C-116.65599822998047,-72.80899810791016 -118.20600128173828,-71.60900115966797 -119.73600006103516,-70.38899993896484 C-121.00599670410156,-81.33899688720703 -121.49600219726562,-93.64900207519531 -121.05599975585938,-104.67900085449219z M113.33399963378906,-131.8489990234375 C117.25399780273438,-130.78900146484375 121.01399993896484,-126.76899719238281 121.89399719238281,-104.67900085449219 C122.34400177001953,-93.43900299072266 121.8239974975586,-80.88899993896484 120.49400329589844,-69.78900146484375 C118.9739990234375,-71.00900268554688 117.43399810791016,-72.21900177001953 115.8740005493164,-73.40899658203125 C114.33399963378906,-74.58899688720703 112.78399658203125,-75.75900268554688 111.2040023803711,-76.91899871826172 C104.92400360107422,-81.54900360107422 98.3740005493164,-85.9489974975586 91.48400115966797,-90.01899719238281 C89.00399780273438,-91.4990005493164 86.46399688720703,-92.91899871826172 83.88400268554688,-94.28900146484375 C82.42400360107422,-95.0790023803711 80.94400024414062,-95.83899688720703 79.4540023803711,-96.58899688720703 C79.53399658203125,-96.7490005493164 79.6240005493164,-96.90899658203125 79.7239990234375,-97.05899810791016 C79.9540023803711,-97.40899658203125 85.56400299072266,-105.8290023803711 91.94400024414062,-114.22899627685547 C104.34400177001953,-130.53900146484375 109.02400207519531,-132.99899291992188 113.33399963378906,-131.8489990234375z"></path></g></g></g></svg>