<svg xmlns="http://www.w3.org/2000/svg" xmlns:xlink="http://www.w3.org/1999/xlink" viewBox="0 0 512 512" width="512" height="512" style="width: 100%; height: 100%; transform: translate3d(0,0,0);" preserveAspectRatio="xMidYMid meet"><defs><clipPath id="__lottie_element_52588"><rect width="512" height="512" x="0" y="0"></rect></clipPath></defs><g clip-path="url(#__lottie_element_52588)"><g style="display: block;" transform="matrix(1,0,0,1,244.9530029296875,252.2239990234375)" opacity="1"><g opacity="1" transform="matrix(1,0,0,1,0,0)"><g opacity="1" transform="matrix(1,0,0,1,0,58.86399841308594)"><path fill="rgb(0,0,0)" fill-opacity="1" d=" M-49.44300079345703,128.45799255371094 C-55.952999114990234,129.66799926757812 -62.202999114990234,125.36799621582031 -63.40299987792969,118.85800170898438 C-63.40299987792969,118.85800170898438 -74.99299621582031,56.29800033569336 -74.99299621582031,56.29800033569336 C-76.19300079345703,49.78799819946289 -71.89299774169922,43.53799819946289 -65.39299774169922,42.327999114990234 C-64.65299987792969,42.1879997253418 -63.92300033569336,42.12799835205078 -63.202999114990234,42.12799835205078 C-57.53300094604492,42.12799835205078 -52.49300003051758,46.15800094604492 -51.42300033569336,51.928001403808594 C-51.42300033569336,51.928001403808594 -39.84299850463867,114.49800109863281 -39.84299850463867,114.49800109863281 C-38.632999420166016,121.00800323486328 -42.93299865722656,127.25800323486328 -49.44300079345703,128.45799255371094z M68.3270034790039,56.29800033569336 C68.3270034790039,56.29800033569336 56.73699951171875,118.85800170898438 56.73699951171875,118.85800170898438 C55.5369987487793,125.36799621582031 49.2869987487793,129.66799926757812 42.777000427246094,128.45799255371094 C36.266998291015625,127.25800323486328 31.966999053955078,121.00800323486328 33.176998138427734,114.49800109863281 C33.176998138427734,114.49800109863281 44.75699996948242,51.928001403808594 44.75699996948242,51.928001403808594 C45.82699966430664,46.15800094604492 50.867000579833984,42.12799835205078 56.5369987487793,42.12799835205078 C57.25699996948242,42.12799835205078 57.98699951171875,42.1879997253418 58.72700119018555,42.327999114990234 C65.23699951171875,43.53799819946289 69.5270004272461,49.78799819946289 68.3270034790039,56.29800033569336z M156.19700622558594,-38.332000732421875 C149.5570068359375,-83.4520034790039 108.41699981689453,-114.64199829101562 31.437000274658203,-131.23199462890625 C-21.71299934387207,-142.6820068359375 -33.17300033569336,-168.1219940185547 -35.18299865722656,-182.29200744628906 C-35.632999420166016,-185.48199462890625 -39.33300018310547,-187.04200744628906 -41.93299865722656,-185.14199829101562 C-121.23300170898438,-126.88200378417969 -83.25299835205078,-68.62200164794922 -27.62299919128418,-59.5620002746582 C29.44700050354004,-50.27199935913086 42.72700119018555,-65.53199768066406 46.0369987487793,-57.571998596191406 C49.356998443603516,-49.61199951171875 27.746999740600586,-28.172000885009766 -31.60300064086914,-36.34199905395508 C-85.85299682617188,-43.801998138427734 -103.89299774169922,-74.04199981689453 -109.52300262451172,-88.69200134277344 C-110.9729995727539,-92.46199798583984 -115.78299713134766,-93.552001953125 -118.79299926757812,-90.86199951171875 C-182.51300048828125,-33.902000427246094 -148.39300537109375,20.066999435424805 -148.39300537109375,20.066999435424805 C-148.39300537109375,20.066999435424805 -121.75299835205078,148.1479949951172 -121.75299835205078,148.1479949951172 C-118.822998046875,162.23800659179688 -107.96299743652344,173.30799865722656 -93.93299865722656,176.50799560546875 C-74.56300354003906,180.91799926757812 -43.91299819946289,185.96800231933594 -5.052999973297119,185.96800231933594 C40.59700012207031,185.96800231933594 72.427001953125,181.28799438476562 92.00700378417969,177.00799560546875 C106.56700134277344,173.8280029296875 117.7770004272461,162.18800354003906 120.37699890136719,147.50799560546875 C120.37699890136719,147.50799560546875 142.2570037841797,24.04800033569336 142.2570037841797,24.04800033569336 C142.2570037841797,24.04800033569336 162.83700561523438,6.797999858856201 156.19700622558594,-38.332000732421875z"></path></g></g><g opacity="1" transform="matrix(1,0,0,1,62.60599899291992,-157.46800231933594)"><path fill="rgb(0,0,0)" fill-opacity="1" d=" M79.5780029296875,39.82099914550781 C78.4530029296875,1.034000039100647 46.555999755859375,-30.39299964904785 7.756999969482422,-30.974000930786133 C0.996999979019165,-31.075000762939453 -5.556000232696533,-30.253000259399414 -11.78600025177002,-28.631999969482422 C-22.816999435424805,-83.21800231933594 -66.06199645996094,-96.1520004272461 -75.625,-82.1259994506836 C-85.5790023803711,-67.5270004272461 -76.28900146484375,-60.22700119018555 -54.38999938964844,-47.61899948120117 C-40.750999450683594,-39.76599884033203 -35.09400177001953,-27.540000915527344 -32.76499938964844,-19.43199920654297 C-49.527000427246094,-8.656000137329102 -61.59600067138672,8.78600025177002 -65.20999908447266,29.1560001373291 C-65.93800354003906,33.25899887084961 -64.95899963378906,37.492000579833984 -62.400001525878906,40.78200149536133 C-56.59000015258789,48.25199890136719 -41.11600112915039,59.38600158691406 -1.965999960899353,69.1729965209961 C32.54100036621094,77.80000305175781 44.40999984741211,82.18599700927734 53.29800033569336,86.30699920654297 C58.3129997253418,88.63200378417969 64.322998046875,87.0250015258789 67.38999938964844,82.427001953125 C75.48200225830078,70.29399871826172 80.03600311279297,55.60200119018555 79.5780029296875,39.82099914550781z"></path></g></g></g></svg>