<svg xmlns="http://www.w3.org/2000/svg" xmlns:xlink="http://www.w3.org/1999/xlink" viewBox="0 0 512 512" width="512" height="512" style="width: 100%; height: 100%; transform: translate3d(0,0,0);" preserveAspectRatio="xMidYMid meet"><defs><clipPath id="__lottie_element_52731"><rect width="512" height="512" x="0" y="0"></rect></clipPath></defs><g clip-path="url(#__lottie_element_52731)"><g style="display: block;" transform="matrix(1,0,0,1,256,256)" opacity="1"><g opacity="1" transform="matrix(1,0,0,1,0,0)"><path fill="rgb(0,0,0)" fill-opacity="1" d=" M-178.9499969482422,-26.600000381469727 C-182.38600158691406,-53.01900100708008 -225.48500061035156,-57.88199996948242 -229.44900512695312,-26.75 C-233.35899353027344,-12.91100025177002 -213.46600341796875,-4.317999839782715 -205.8000030517578,-16.399999618530273 C-207.73500061035156,-11.673999786376953 -209.58599853515625,-9.199000358581543 -216,1.4500000476837158 C-225.52099609375,16.430999755859375 -232.45700073242188,42.76100158691406 -228.8000030517578,59.25 C-228.8000030517578,59.25 -228.8000030517578,59.099998474121094 -228.8000030517578,59.099998474121094 C-225.99099731445312,74.56500244140625 -216.31700134277344,88.62699890136719 -205,99.9000015258789 C-196.47500610351562,105.2699966430664 -190.5709991455078,113.04100036621094 -187.5500030517578,122.9000015258789 C-187.5500030517578,122.9000015258789 -205.8000030517578,133.25 -205.8000030517578,133.25 C-202.75799560546875,119.33999633789062 -218.1909942626953,107.86900329589844 -230.25,115.95099639892578 C-243.93800354003906,123.06099700927734 -252.3419952392578,147.90699768066406 -247.10000610351562,161.25 C-241.35899353027344,167.64700317382812 -224.83200073242188,172.63900756835938 -215.0500030517578,171.9499969482422 C-197.6909942626953,172.17100524902344 -181.62899780273438,154.125 -197.89999389648438,140.5500030517578 C-197.89999389648438,140.5500030517578 -182.64999389648438,131.8000030517578 -182.64999389648438,131.8000030517578 C-164.79800415039062,144.0500030517578 -189.9510040283203,165.53199768066406 -163.25,195.9499969482422 C-163.25,195.9499969482422 -163.10000610351562,195.9499969482422 -163.10000610351562,195.9499969482422 C-152.36099243164062,209.02200317382812 -127.7959976196289,219.88699340820312 -110,222 C-97.98899841308594,223.50799560546875 -94.98999786376953,223.7899932861328 -90.4000015258789,224.89999389648438 C-109.7699966430664,225.77999877929688 -107.45999908447266,250.4510040283203 -89.5989990234375,252.74899291992188 C-60.6619987487793,258.32000732421875 -46.40399932861328,219.6699981689453 -71.75,204.64999389648438 C-71.75,204.64999389648438 -78.75,126.44999694824219 -78.75,126.44999694824219 C-78.94999694824219,124.8499984741211 -79.6500015258789,123.55000305175781 -80.8499984741211,122.55000305175781 C-84.40299987792969,119.302001953125 -90.91799926757812,122.52100372314453 -90.05000305175781,127.44999694824219 C-90.05000305175781,127.44999694824219 -83.5999984741211,199.5 -83.5999984741211,199.5 C-84.46700286865234,199.26699829101562 -85.33300018310547,199.0500030517578 -86.19999694824219,198.85000610351562 C-86.19999694824219,198.85000610351562 -86,198.85000610351562 -86,198.85000610351562 C-92.41999816894531,197.3979949951172 -118.19300079345703,195.63999938964844 -128.25,189.1490020751953 C-144.4239959716797,181.031005859375 -147.75999450683594,176.9250030517578 -146.89999389648438,155.75 C-146.4669952392578,144.11700439453125 -148.61700439453125,137 -153.35000610351562,134.39999389648438 C-168.85299682617188,127.08100128173828 -178.51800537109375,109.78800201416016 -173.75,92.30000305175781 C-172.42300415039062,75.8270034790039 -190.57400512695312,79.52300262451172 -197.39999389648438,67.6500015258789 C-197.39999389648438,67.6500015258789 -197.39999389648438,67.8499984741211 -197.39999389648438,67.8499984741211 C-208.35000610351562,52.375 -202.46200561523438,30.31999969482422 -193.5,14.899999618530273 C-193.5,14.899999618530273 -193.5,15.050000190734863 -193.5,15.050000190734863 C-191.56700134277344,11.916999816894531 -189.89999389648438,9.166999816894531 -188.5,6.800000190734863 C-188.5,6.800000190734863 -113.19999694824219,57.150001525878906 -113.19999694824219,57.150001525878906 C-110.5469970703125,58.88199996948242 -106.99099731445312,58.125999450683594 -105.30000305175781,55.5 C-103.45800018310547,53.02399826049805 -104.13500213623047,49.209999084472656 -106.75,47.599998474121094 C-106.75,47.599998474121094 -182.85000610351562,-3.0999999046325684 -182.85000610351562,-3.0999999046325684 C-178.75,-11.833000183105469 -177.4499969482422,-19.66699981689453 -178.9499969482422,-26.600000381469727 M-205,-21.700000762939453 C-205,-21.700000762939453 -204.85000610351562,-21.899999618530273 -204.85000610351562,-21.899999618530273 C-204.85000610351562,-21.899999618530273 -204.85000610351562,-21.700000762939453 -204.85000610351562,-21.700000762939453 C-204.85000610351562,-21.700000762939453 -205,-21.700000762939453 -205,-21.700000762939453 M122.8499984741211,136.8000030517578 C136.1320037841797,123.6259994506836 143.17799377441406,116.13500213623047 152.2989959716797,134.3990020751953 C159.92999267578125,151.84100341796875 171.33299255371094,137.83900451660156 170.4499969482422,126.44999694824219 C165.94000244140625,87.21700286865234 154.3699951171875,77.06199645996094 115.4000015258789,94.5510025024414 C84.06999969482422,107.38300323486328 93.46099853515625,166.73599243164062 122.8499984741211,136.8000030517578 M106.80000305175781,22.950000762939453 C100.0999984741211,13.682999610900879 88.01699829101562,6.882999897003174 70.55000305175781,2.549999952316284 C53.027000427246094,-1.5759999752044678 32.26100158691406,-10.439000129699707 9.350000381469727,-22.700000762939453 C32.887001037597656,-40.16299819946289 37.40299987792969,-83.92900085449219 10.798999786376953,-99.1500015258789 C6.738999843597412,-102.19200134277344 8.682000160217285,-110.4489974975586 9,-116.30000305175781 C11.46500015258789,-131.82400512695312 -2.5769999027252197,-149.52699279785156 -14.449999809265137,-155 C-23,-158.49899291992188 -25.28700065612793,-162.6300048828125 -15.899999618530273,-161 C-2.677000045776367,-160.2969970703125 -20.493999481201172,-190.40499877929688 -37.95000076293945,-174.25 C-32.03900146484375,-182.88900756835938 -49.119998931884766,-194.1269989013672 -53.000999450683594,-185.4499969482422 C-54.599998474121094,-181.7830047607422 -57.45000076293945,-181.18299865722656 -61.54999923706055,-183.64999389648438 C-88.2040023803711,-198.2010040283203 -143.06100463867188,-184.8990020751953 -156.75,-150.14999389648438 C-191.843994140625,-153.35400390625 -226.28599548339844,-109.34700012207031 -200.94900512695312,-80.4990005493164 C-195.7220001220703,-70.73999786376953 -159.36500549316406,-66.56400299072266 -176.0489959716797,-86.5009994506836 C-187.7050018310547,-98.08499908447266 -168.88699340820312,-101.13400268554688 -160.8000030517578,-99.30000305175781 C-162.43099975585938,-85.41100311279297 -160.0570068359375,-70.62899780273438 -154.35000610351562,-58.650001525878906 C-162.5229949951172,-7.019000053405762 -103.04499816894531,33.92100143432617 -57.349998474121094,7.449999809265137 C-63.652000427246094,14.961000442504883 -68.82099914550781,26.777999877929688 -70.1500015258789,36.900001525878906 C-78.88300323486328,50.5 -86.11699676513672,60.81700134277344 -91.8499984741211,67.8499984741211 C-99.90399932861328,72.53099822998047 -127.91500091552734,82.4729995727539 -131.0500030517578,83.85099792480469 C-133.7169952392578,84.81700134277344 -138.51699829101562,84.44999694824219 -145.4499969482422,82.75 C-160.33099365234375,79.24400329589844 -165.8470001220703,98.97899627685547 -162.4499969482422,110.9000015258789 C-152.01400756835938,130.3470001220703 -136.53500366210938,123.76899719238281 -117.9000015258789,119.99800109863281 C-100.19999694824219,116.21700286865234 -63.52000045776367,101.38800048828125 -42.150001525878906,85.80000305175781 C-29.667999267578125,100.26599884033203 -5.313000202178955,115.96199798583984 8.699999809265137,120.30000305175781 C3.2750000953674316,174.0570068359375 43.60900115966797,181.50100708007812 88.20099639892578,188.6490020751953 C112.56700134277344,194.072998046875 97.95600128173828,224.281005859375 112.79900360107422,225.4010009765625 C125.23100280761719,223.9459991455078 132.71499633789062,203.3470001220703 134.14999389648438,191.6999969482422 C136.2689971923828,174.61099243164062 129.03700256347656,177.57400512695312 117.3499984741211,168.5500030517578 C118.18299865722656,169.31700134277344 113.58300018310547,166.3000030517578 103.55000305175781,159.5 C84.9489974975586,148.4759979248047 79.55699920654297,120.14700317382812 92.25,104.25 C112.75,79.4020004272461 129.6230010986328,53.72800064086914 106.80000305175781,22.950000762939453 M184.6999969482422,-232.25 C183.22300720214844,-274.4700012207031 102.58699798583984,-231.4320068359375 70.20099639892578,-214.25100708007812 C39.66699981689453,-197.64999389648438 25.75,-181.56700134277344 28.450000762939453,-166 C34.097999572753906,-133.0959930419922 36.07500076293945,-116.55599975585938 37.20000076293945,-82.44999694824219 C39.930999755859375,-45.987998962402344 60.54800033569336,-101.1449966430664 62.45000076293945,-111.0999984741211 C62.45000076293945,-111.0999984741211 62.45000076293945,-110.94999694824219 62.45000076293945,-110.94999694824219 C71.61699676513672,-146.58299255371094 79.16699981689453,-167.9669952392578 85.0999984741211,-175.10000610351562 C107.39199829101562,-209.35299682617188 182.19400024414062,-191.5989990234375 184.6999969482422,-232.25 M242.5,-204.25 C188.29600524902344,-200.32699584960938 151.6649932861328,-196.57000732421875 108.25,-179.45199584960938 C83.82499694824219,-164.66900634765625 87.66500091552734,-153.66600036621094 73.4469985961914,-108.20099639892578 C60.7140007019043,-51.30400085449219 18.81800079345703,-41.52899932861328 43.79899978637695,-19.60099983215332 C58.266998291015625,-10 73.5999984741211,-5.099999904632568 89.80000305175781,-4.900000095367432 C118.21399688720703,-9.45199966430664 123.0479965209961,-32.0620002746582 102.25,-47.45000076293945 C126.33899688720703,-43.42399978637695 183.73899841308594,-68.6500015258789 188.5500030517578,-94.10099792480469 C194.72300720214844,-115.76100158691406 165.0919952392578,-124.58599853515625 149.6999969482422,-124.05000305175781 C175.35699462890625,-125.79399871826172 220.4340057373047,-136.7550048828125 238.44900512695312,-160.8509979248047 C249.04600524902344,-173.18499755859375 259.74200439453125,-198.49400329589844 242.5,-204.25z"></path></g></g></g></svg>