<svg xmlns="http://www.w3.org/2000/svg" xmlns:xlink="http://www.w3.org/1999/xlink" viewBox="0 0 512 512" width="512" height="512" style="width: 100%; height: 100%; transform: translate3d(0,0,0);" preserveAspectRatio="xMidYMid meet"><defs><clipPath id="__lottie_element_51335"><rect width="512" height="512" x="0" y="0"></rect></clipPath></defs><g clip-path="url(#__lottie_element_51335)"><g style="display: block;" transform="matrix(1,0,0,1,28.599990844726562,8.75)" opacity="1"><g opacity="1" transform="matrix(1,0,0,1,236.3249969482422,251.75)"><path fill="rgb(0,0,0)" fill-opacity="1" d=" M189.40499877929688,86.16999816894531 C184.05499267578125,90.48999786376953 183.62399291992188,95.20999908447266 184.3249969482422,99.66999816894531 C177.22500610351562,98.54000091552734 171.15499877929688,97.41000366210938 172.7449951171875,93.16999816894531 C174.7449951171875,87.83000183105469 200.7449951171875,78.5 205.0749969482422,37.83000183105469 C207.2449951171875,17.489999771118164 189.40499877929688,6.170000076293945 192.7449951171875,-9.170000076293945 C194.54400634765625,-17.479999542236328 201.093994140625,-16.600000381469727 207.40499877929688,-22.170000076293945 C216.0749969482422,-29.799999237060547 209.78500366210938,-53.5 192.7449951171875,-45.5 C187.15499877929688,-42.880001068115234 181.10499572753906,-40.95000076293945 176.51499938964844,-35.47999954223633 C167.58399963378906,-35.33000183105469 157.14500427246094,-34.869998931884766 145.93499755859375,-33.97999954223633 C146.11500549316406,-42.93000030517578 145.52499389648438,-52.75 144.0749969482422,-63.5 C143.03500366210938,-71.16999816894531 219.40499877929688,-91.5 202.0749969482422,-156.5 C200.11500549316406,-163.8300018310547 167.90499877929688,-150.6300048828125 173.0749969482422,-160.5 C176.7449951171875,-167.5 173.66400146484375,-185.47000122070312 171.0749969482422,-196.5 C168.58399963378906,-207.08999633789062 141.91400146484375,-190.85000610351562 132.0749969482422,-203.5 C108.74500274658203,-233.5 66.78500366210938,-245.11000061035156 42.404998779296875,-246.8300018310547 C-23.594999313354492,-251.5 -33.005001068115234,-202.77000427246094 -37.92499923706055,-200.8300018310547 C-135.9250030517578,-162.1699981689453 -82.55500030517578,-42.25 -62.92499923706055,-37.5 C-50.744998931884766,-34.54999923706055 -111.25499725341797,-36.83000183105469 -111.17500305175781,-106.80999755859375 C-111.1449966430664,-130.25 -137.9250030517578,-144.8300018310547 -145.9250030517578,-168.5 C-152.1060028076172,-186.8000030517578 -152.9250030517578,-207.5500030517578 -166.41600036621094,-212.44000244140625 C-185.9250030517578,-219.5 -231.9250030517578,-161.5 -192.9250030517578,-105.5 C-188.84500122070312,-99.63999938964844 -235.37600708007812,-113.62999725341797 -235.7949981689453,-75.47000122070312 C-236.0749969482422,-50.16999816894531 -217.9250030517578,-26.989999771118164 -193.9250030517578,-14.539999961853027 C-175.13499450683594,-4.789999961853027 -210.2550048828125,-3.5 -205.01499938964844,21.700000762939453 C-203.6060028076172,28.459999084472656 -198.68499755859375,43.4900016784668 -175.9250030517578,52.5 C-143.9250030517578,65.16999816894531 -133.9250030517578,67.5 -136.9250030517578,71.5 C-141.0449981689453,77 -147.9250030517578,68.16999816894531 -188.9250030517578,68.5 C-220.01499938964844,68.75 -225.9250030517578,116.5 -203.9250030517578,118.5 C-189.84500122070312,119.77999877929688 -189.13499450683594,109.68000030517578 -181.03500366210938,108.58999633789062 C-164.96499633789062,106.43000030517578 -142.40499877929688,121.66000366210938 -138.9250030517578,133.5 C-138.62600708007812,134.5399932861328 -157.30499267578125,123.36000061035156 -166.59500122070312,129.1699981689453 C-182.59500122070312,139.1699981689453 -181.08599853515625,165.67999267578125 -170.9250030517578,169.5 C-150.13499450683594,177.3300018310547 -152.4250030517578,158.3300018310547 -143.9250030517578,166.5 C-109.92500305175781,199.1699981689453 -75.92500305175781,187.8300018310547 -70.92500305175781,172.5 C-69.3759994506836,167.75 -26.78499984741211,192.42999267578125 18.405000686645508,129.1699981689453 C22.3439998626709,123.66000366210938 47.00400161743164,186.1199951171875 54.16400146484375,205.13900756835938 C49.78499984741211,212.1699981689453 48.58399963378906,221.67999267578125 49.07500076293945,231.5 C50.07500076293945,251.5 75.07499694824219,248.5 74.07499694824219,232.1699981689453 C73.49500274658203,222.72999572753906 76.32499694824219,219.8000030517578 82.07499694824219,214.8300018310547 C89.40499877929688,208.5 124.74500274658203,219.1699981689453 150.40499877929688,185.1699981689453 C166.15499877929688,164.3090057373047 164.03500366210938,137.8300018310547 164.0749969482422,126.16999816894531 C164.08399963378906,123.02999877929688 169.04400634765625,124.01899719238281 174.46400451660156,125.58000183105469 C173.75399780273438,128.97999572753906 174.72500610351562,133.75999450683594 178.96400451660156,141.1300048828125 C190.31500244140625,160.83999633789062 228.8249969482422,141.75 233.0749969482422,120.5 C236.0749969482422,105.5 211.28500366210938,68.5 189.40499877929688,86.16999816894531z M118.85800170898438,167.0279998779297 C105.40699768066406,183.5 100.21099853515625,172.23399353027344 80.74600219726562,180.0050048828125 C74.60099792480469,158.3090057373047 61.53200149536133,139.76400756835938 54.3650016784668,116.86000061035156 C98.04499816894531,122.88400268554688 102.34300231933594,128.447998046875 115.75299835205078,125.51399993896484 C120.59600067138672,124.4540023803711 120.71700286865234,122.94100189208984 125.36399841308594,129.53900146484375 C131.21099853515625,137.83999633789062 127.36599731445312,156.60899353027344 118.85800170898438,167.0279998779297z M148.55599975585938,75.63300323486328 C141.0570068359375,81.5199966430664 125.54399871826172,64.21900177001953 73.3239974975586,52.85100173950195 C73.07499694824219,50.935001373291016 73.11699676513672,50.233001708984375 73.93599700927734,50.02799987792969 C96.1520004272461,44.4739990234375 116.51699829101562,40.77000045776367 139.13099670410156,3.872999906539917 C141.3520050048828,0.24899999797344208 162.3979949951172,-2.5969998836517334 163.1909942626953,1.4520000219345093 C165.6750030517578,14.128999710083008 171.87600708007812,25.3700008392334 171.7550048828125,34.59600067138672 C171.44000244140625,58.66400146484375 155.85699462890625,69.9020004272461 148.55599975585938,75.63300323486328z"></path></g></g></g></svg>