<svg xmlns="http://www.w3.org/2000/svg" xmlns:xlink="http://www.w3.org/1999/xlink" viewBox="0 0 512 512" width="512" height="512" style="width: 100%; height: 100%; transform: translate3d(0,0,0);" preserveAspectRatio="xMidYMid meet"><defs><clipPath id="__lottie_element_52508"><rect width="512" height="512" x="0" y="0"></rect></clipPath></defs><g clip-path="url(#__lottie_element_52508)"><g style="display: block;" transform="matrix(1,0,0,1,256,256)" opacity="1"><g opacity="1" transform="matrix(1,0,0,1,0,0)"><path fill="rgb(0,0,0)" fill-opacity="1" d=" M202.39999389648438,-74.94999694824219 C206.4969940185547,-187.7169952392578 59.05500030517578,-215.9429931640625 -1.2999999523162842,-134.85000610351562 C-17.32900047302246,-157.52999877929688 -41.21699905395508,-172.83999633789062 -68.55000305175781,-178.35000610351562 C-62.95899963378906,-195.38900756835938 -71.50399780273438,-215.1540069580078 -84.94999694824219,-226.3000030517578 C-98.53800201416016,-238.20799255371094 -121.98500061035156,-239.48300170898438 -138.75,-243.75100708007812 C-158.8990020751953,-247.9029998779297 -184.85400390625,-257.1239929199219 -203.39999389648438,-243.5989990234375 C-212.65899658203125,-239.52000427246094 -217.32200622558594,-230.28500366210938 -222.6999969482422,-222.35000610351562 C-222.6999969482422,-222.35000610351562 -222.14999389648438,-223.5500030517578 -222.14999389648438,-223.5500030517578 C-233.08999633789062,-208.16200256347656 -224.47500610351562,-154.75599670410156 -225.6020050048828,-136.94900512695312 C-225.21299743652344,-121.00499725341797 -216.8769989013672,-105.9800033569336 -203.25,-97.05000305175781 C-217.1219940185547,-5.946000099182129 -151.156005859375,79.31400299072266 -77.6989974975586,131.3489990234375 C-48.70899963378906,150.70799255371094 -18.003000259399414,171.28799438476562 13.899999618530273,164.8000030517578 C29.488000869750977,208.61099243164062 88.60700225830078,274.3219909667969 133.14999389648438,238.15199279785156 C145.3159942626953,228.5449981689453 148.0540008544922,202.89599609375 152.3000030517578,189.10000610351562 C165.81700134277344,187.12600708007812 190.85800170898438,188.58599853515625 202.5500030517578,180.8000030517578 C252.3090057373047,146.9010009765625 194.29100036621094,71.71299743652344 158,48.900001525878906 C183.4929962158203,10.149999618530273 202.83900451660156,-33.60499954223633 202.39999389648438,-74.94999694824219 M128.39999389648438,73.19999694824219 C156.55099487304688,81.51799774169922 186.25399780273438,119.41600036621094 185.9029998779297,148.1479949951172 C183.32699584960938,158.08399963378906 171.0290069580078,157.59800720214844 163,158.3000030517578 C163,158.3000030517578 93.6500015258789,74.6500015258789 93.6500015258789,74.6500015258789 C93.6500015258789,74.6500015258789 128.39999389648438,73.19999694824219 128.39999389648438,73.19999694824219 M-69.9000015258789,-93.75 C-79.4000015258789,-91.18299865722656 -86.75,-85.01699829101562 -91.94999694824219,-75.25 C-91.94999694824219,-75.25 -140.35000610351562,-132.85000610351562 -140.35000610351562,-132.85000610351562 C-138.5189971923828,-144.9770050048828 -129.9040069580078,-149.5 -118.1500015258789,-151.35000610351562 C-118.1500015258789,-151.35000610351562 -69.9000015258789,-93.75 -69.9000015258789,-93.75 M-173.89999389648438,-213.75 C-157.58099365234375,-210.17599487304688 -130.1300048828125,-204.4199981689453 -113.9000015258789,-200.8000030517578 C-103.58100128173828,-198.90699768066406 -99.0459976196289,-185.33399963378906 -106.0009994506836,-177.5500030517578 C-108.90299987792969,-173.27699279785156 -118.75700378417969,-171.1479949951172 -123.30000305175781,-169.35000610351562 C-140.95599365234375,-166.22900390625 -153.82000732421875,-156.83799743652344 -158.0500030517578,-139.60000610351562 C-160.34100341796875,-136.02699279785156 -163.5919952392578,-127.63600158691406 -167.6999969482422,-125.69999694824219 C-176.58399963378906,-119.947998046875 -189.86500549316406,-126.51399993896484 -189.8000030517578,-137.1999969482422 C-189.8000030517578,-137.1999969482422 -191.89999389648438,-199.35000610351562 -191.89999389648438,-199.35000610351562 C-192.32400512695312,-203.71800231933594 -190.3300018310547,-208.0590057373047 -186.85000610351562,-210.85000610351562 C-186.85000610351562,-210.85000610351562 -186.85000610351562,-211 -186.85000610351562,-211 C-182.85299682617188,-213.4980010986328 -178.6269989013672,-215.20799255371094 -173.89999389648438,-213.75 M45,148.9499969482422 C42.183998107910156,143.78599548339844 50.65399932861328,117.14700317382812 51.20000076293945,111.55000305175781 C51.20000076293945,111.55000305175781 122.44999694824219,189.25 122.44999694824219,189.25 C120.15499877929688,197.18800354003906 119.16999816894531,211.2740020751953 108.55000305175781,212.49899291992188 C77.99299621582031,207.89700317382812 57.60499954223633,181.1580047607422 45,148.9499969482422 M7.449999809265137,33.54999923706055 C7.396999835968018,22.110000610351562 23.097000122070312,16.72599983215332 30.450000762939453,25.5 C30.450000762939453,25.5 56.79999923706055,59.349998474121094 56.79999923706055,59.349998474121094 C-3.684000015258789,-13.574999809265137 147.2899932861328,168.4929962158203 140.39999389648438,160.14999389648438 C140.33299255371094,167.38299560546875 136.1999969482422,169.9499969482422 128,167.85000610351562 C128,167.85000610351562 59.54999923706055,93.1500015258789 59.54999923706055,93.1500015258789 C55.89699935913086,87.1510009765625 3.4619998931884766,41.76900100708008 7.449999809265137,33.54999923706055z"></path></g></g></g></svg>