<svg xmlns="http://www.w3.org/2000/svg" xmlns:xlink="http://www.w3.org/1999/xlink" viewBox="0 0 512 512" width="512" height="512" style="width: 100%; height: 100%; transform: translate3d(0,0,0);" preserveAspectRatio="xMidYMid meet"><defs><clipPath id="__lottie_element_1022"><rect width="512" height="512" x="0" y="0"></rect></clipPath></defs><g clip-path="url(#__lottie_element_1022)"><g style="display: block;" transform="matrix(1,0,0,1,5.740020751953125,21.079986572265625)" opacity="1"><g opacity="1" transform="matrix(1,0,0,1,250.30499267578125,243.1300048828125)"><path fill="rgb(0,0,0)" fill-opacity="1" d=" M210.28500366210938,150.4600067138672 C204.9550018310547,129.1199951171875 250.05499267578125,64.77999877929688 215.625,1.4600000381469727 C191.0850067138672,-43.66999816894531 113.86499786376953,-47.540000915527344 76.125,-61.560001373291016 C90.61499786376953,-73.43000030517578 103.88500213623047,-84.13999938964844 114.95500183105469,-93.20999908447266 C120.38500213623047,-97.66000366210938 107.625,-114.54000091552734 126.28500366210938,-133.2100067138672 C137.10499572753906,-144.02999877929688 157.0449981689453,-153.3300018310547 160.28500366210938,-145.8800048828125 C162.31500244140625,-141.2100067138672 113.625,-125.87999725341797 145.625,-73.20999908447266 C157.73500061035156,-53.279998779296875 202.28500366210938,-53.880001068115234 217.28500366210938,-78.54000091552734 C235.44500732421875,-108.4000015258789 231.15499877929688,-208.97000122070312 227.625,-214.5399932861328 C224.2449951171875,-219.86000061035156 129.625,-236.5399932861328 96.28500366210938,-221.2100067138672 C78.4739990234375,-213.02000427246094 67.59500122070312,-199.0800018310547 68.95500183105469,-175.8800048828125 C70.95500183105469,-141.8800048828125 102.78500366210938,-142.58999633789062 90.95500183105469,-134.5399932861328 C76.30500030517578,-124.56999969482422 61.70500183105469,-113.48999786376953 47.375,-101.72000122070312 C42.505001068115234,-132.69000244140625 45.03499984741211,-173.82000732421875 20.954999923706055,-191.5399932861328 C-33.904998779296875,-231.9199981689453 -136.375,-197.5399932861328 -147.0449981689453,-206.8800048828125 C-151.5850067138672,-210.85000610351562 -138.375,-242.8800048828125 -180.375,-242.8800048828125 C-201.71499633789062,-242.8800048828125 -218.375,-218.2100067138672 -213.71499633789062,-187.5399932861328 C-210.88499450683594,-168.97000122070312 -201.40499877929688,-158.3300018310547 -187.8350067138672,-152.10000610351562 C-192.55499267578125,-98.08999633789062 -191.69500732421875,14.460000038146973 -186.68499755859375,90.0999984741211 C-221.94500732421875,111.8499984741211 -250.05499267578125,154.6999969482422 -244.71499633789062,164.7899932861328 C-234.6649932861328,183.75999450683594 -194.30499267578125,178.6999969482422 -191.71499633789062,182.1199951171875 C-188.64500427246094,186.16000366210938 -187.47500610351562,233.38999938964844 -170.2449951171875,239.38999938964844 C-160.21499633789062,242.8800048828125 -120.98500061035156,201.77999877929688 -103.6449966430664,173.24000549316406 C-23.80500030517578,174.77999877929688 100.15499877929688,170.94000244140625 153.26499938964844,181.27000427246094 C157.69500732421875,194.47999572753906 165.5850067138672,202.39999389648438 172.625,206.4600067138672 C190.48500061035156,216.77000427246094 226.9550018310547,214.7899932861328 235.28500366210938,190.7899932861328 C246.28500366210938,159.1199951171875 212.09500122070312,157.69000244140625 210.28500366210938,150.4600067138672z M-125.375,79.12000274658203 C-128.02499389648438,82.58000183105469 -139.4250030517578,82.27999877929688 -150.7050018310547,81.94000244140625 C-151.8350067138672,19.920000076293945 -151.31500244140625,-89.83999633789062 -148.875,-143.88999938964844 C-112.98500061035156,-142.0500030517578 -72.78500366210938,-152.6999969482422 -46.71500015258789,-135.2100067138672 C-26.514999389648438,-121.66000366210938 -30.635000228881836,-71.08000183105469 -22.665000915527344,-37.540000915527344 C-69.81500244140625,9.859999656677246 -107.86499786376953,56.220001220703125 -125.375,79.12000274658203z M-95.98500061035156,132.7899932861328 C-96.59500122070312,122.69000244140625 -96.8550033569336,112.48999786376953 -93.71499633789062,107.45999908447266 C-71.88500213623047,72.54000091552734 -33.14500045776367,33.380001068115234 7.005000114440918,-2.6700000762939453 C46.4739990234375,12.369999885559082 120.88500213623047,11.109999656677246 139.9550018310547,26.790000915527344 C154.9550018310547,39.119998931884766 168.9550018310547,72.45999908447266 154.9550018310547,123.12000274658203 C153.11500549316406,129.75999450683594 151.81500244140625,135.9499969482422 150.9739990234375,141.69000244140625 C84.34500122070312,119.83000183105469 -29.325000762939453,130.77000427246094 -95.98500061035156,132.7899932861328z"></path></g></g></g></svg>