<svg xmlns="http://www.w3.org/2000/svg" xmlns:xlink="http://www.w3.org/1999/xlink" viewBox="0 0 512 512" width="512" height="512" style="width: 100%; height: 100%; transform: translate3d(0,0,0);" preserveAspectRatio="xMidYMid meet"><defs><clipPath id="__lottie_element_52418"><rect width="512" height="512" x="0" y="0"></rect></clipPath></defs><g clip-path="url(#__lottie_element_52418)"><g style="display: block;" transform="matrix(1,0,0,1,0,-3.097991943359375)" opacity="1"><g opacity="1" transform="matrix(1,0,0,1,256,259.0979919433594)"><path fill="rgb(0,0,0)" fill-opacity="1" d=" M212.98599243164062,14.22700023651123 C209.11000061035156,-14.201000213623047 197,-44.37900161743164 179.76199340820312,-68.56900024414062 C177.66900634765625,-71.50700378417969 175.2830047607422,-74.66799926757812 172.60499572753906,-77.98300170898438 C182.6840057373047,-87.82499694824219 189.2239990234375,-100.95700073242188 190.40199279785156,-114.58699798583984 C192.07899475097656,-133.99200439453125 183.072998046875,-153.1230010986328 165.04299926757812,-168.45599365234375 C137.16400146484375,-192.16400146484375 111.8290023803711,-189.23300170898438 99.20600128173828,-185.375 C81.63300323486328,-180.00399780273438 67.71600341796875,-166.58900451660156 62.42399978637695,-150.1280059814453 C42.527000427246094,-155.70799255371094 21.666000366210938,-158.52200317382812 0,-158.52200317382812 C-21.562999725341797,-158.52200317382812 -42.33100128173828,-155.73500061035156 -62.143001556396484,-150.20799255371094 C-67.4540023803711,-166.6320037841797 -81.3550033569336,-180.01300048828125 -98.89900207519531,-185.375 C-111.5199966430664,-189.23300170898438 -136.8560028076172,-192.1649932861328 -164.73599243164062,-168.45599365234375 C-182.76499938964844,-153.1230010986328 -191.77200317382812,-133.99200439453125 -190.09500122070312,-114.58699798583984 C-188.9239959716797,-101.03500366210938 -182.44700622558594,-87.97799682617188 -172.46600341796875,-78.15499877929688 C-175.2010040283203,-74.7770004272461 -177.6320037841797,-71.55799865722656 -179.76199340820312,-68.56900024414062 C-197,-44.37900161743164 -209.11000061035156,-14.201000213623047 -212.98599243164062,14.22700023651123 C-218.01100158691406,51.07699966430664 -209.656005859375,84.80799865722656 -188.822998046875,111.7699966430664 C-167.20399475097656,139.75 -134.60499572753906,160.64599609375 -91.93099975585938,173.8769989013672 C-50.867000579833984,186.60800170898438 -13.961000442504883,187.98399353027344 0,187.98399353027344 C13.961000442504883,187.98399353027344 50.867000579833984,186.60800170898438 91.93099975585938,173.8769989013672 C134.60499572753906,160.64599609375 167.20399475097656,139.75 188.822998046875,111.7699966430664 C209.656005859375,84.80799865722656 218.01100158691406,51.07699966430664 212.98599243164062,14.22700023651123z M-96,-27.777000427246094 C-96,-38.823001861572266 -87.0459976196289,-47.777000427246094 -76,-47.777000427246094 C-64.9540023803711,-47.777000427246094 -56,-38.823001861572266 -56,-27.777000427246094 C-56,-27.777000427246094 -56,-19.336000442504883 -56,-19.336000442504883 C-56,-8.289999961853027 -64.9540023803711,0.6639999747276306 -76,0.6639999747276306 C-87.0459976196289,0.6639999747276306 -96,-8.289999961853027 -96,-19.336000442504883 C-96,-19.336000442504883 -96,-27.777000427246094 -96,-27.777000427246094z M95.3489990234375,86.8280029296875 C93.8479995727539,109.14600372314453 80.21600341796875,126.36399841308594 55.928001403808594,136.61900329589844 C33.94300079345703,145.90199279785156 9.491999626159668,146.9040069580078 0,146.9040069580078 C-9.491999626159668,146.9040069580078 -33.94300079345703,145.90199279785156 -55.928001403808594,136.61900329589844 C-80.21600341796875,126.36399841308594 -93.84700012207031,109.14600372314453 -95.3479995727539,86.8280029296875 C-96.91699981689453,63.48899841308594 -82.8550033569336,43.198001861572266 -70.78199768066406,30.285999298095703 C-49.93199920654297,7.98799991607666 -19.503000259399414,-8.82699966430664 0,-8.82699966430664 C19.503000259399414,-8.82699966430664 49.93299865722656,7.98799991607666 70.78299713134766,30.28700065612793 C82.85600280761719,43.19900131225586 96.91799926757812,63.48899841308594 95.3489990234375,86.8280029296875z M96.30699920654297,-19.336000442504883 C96.30699920654297,-8.289999961853027 87.35299682617188,0.6639999747276306 76.30699920654297,0.6639999747276306 C65.26100158691406,0.6639999747276306 56.30699920654297,-8.289999961853027 56.30699920654297,-19.336000442504883 C56.30699920654297,-19.336000442504883 56.30699920654297,-27.777000427246094 56.30699920654297,-27.777000427246094 C56.30699920654297,-38.823001861572266 65.26100158691406,-47.777000427246094 76.30699920654297,-47.777000427246094 C87.35299682617188,-47.777000427246094 96.30699920654297,-38.823001861572266 96.30699920654297,-27.777000427246094 C96.30699920654297,-27.777000427246094 96.30699920654297,-19.336000442504883 96.30699920654297,-19.336000442504883z"></path></g><g opacity="1" transform="matrix(1,0,0,1,256.0299987792969,331.74200439453125)"><path fill="rgb(0,0,0)" fill-opacity="1" d=" M-0.03200000151991844,-52.21200180053711 C-26.148000717163086,-52.21200180053711 -46.933998107910156,-43.84199905395508 -49.45500183105469,-32.310001373291016 C-51.20000076293945,-24.32699966430664 -43.652000427246094,-16.367000579833984 -25.700000762939453,-7.258999824523926 C-20.0939998626709,-4.414999961853027 -14.42300033569336,-1.9479999542236328 -10.00100040435791,-0.13600000739097595 C-10.00100040435791,-0.13600000739097595 -10.00100040435791,42.21200180053711 -10.00100040435791,42.21200180053711 C-10.00100040435791,47.73400115966797 -5.52400016784668,52.21200180053711 -0.0010000000474974513,52.21200180053711 C5.521999835968018,52.21200180053711 9.99899959564209,47.73400115966797 9.99899959564209,42.21200180053711 C9.99899959564209,42.21200180053711 9.99899959564209,-0.07199999690055847 9.99899959564209,-0.07199999690055847 C14.482999801635742,-1.8639999628067017 20.22800064086914,-4.309000015258789 25.884000778198242,-7.139999866485596 C37.334999084472656,-12.869999885559082 52.222999572753906,-21.738000869750977 49.334999084472656,-32.534000396728516 C46.28499984741211,-43.93600082397461 25.52400016784668,-52.21200180053711 -0.03200000151991844,-52.21200180053711z"></path></g></g></g></svg>