<svg xmlns="http://www.w3.org/2000/svg" xmlns:xlink="http://www.w3.org/1999/xlink" viewBox="0 0 512 512" width="512" height="512" style="width: 100%; height: 100%; transform: translate3d(0,0,0);" preserveAspectRatio="xMidYMid meet"><defs><clipPath id="__lottie_element_15776"><rect width="512" height="512" x="0" y="0"></rect></clipPath></defs><g clip-path="url(#__lottie_element_15776)"><g style="display: block;" transform="matrix(1.0499999523162842,0,0,1.0499999523162842,16.483001708984375,6.6792755126953125)" opacity="1"><g opacity="1" transform="matrix(1,0,0,1,228.33999633789062,238.4149932861328)"><path fill="rgb(0,0,0)" fill-opacity="1" d=" M207.58999633789062,-14.6850004196167 C206.64999389648438,-14.6850004196167 205.72000122070312,-14.625 204.80999755859375,-14.484999656677246 C196.0290069580078,-62.8849983215332 149.13999938964844,-56.94499969482422 149.3800048828125,-63.01499938964844 C149.72999572753906,-72.29499816894531 213.8300018310547,-122.67500305175781 156.55999755859375,-180.86500549316406 C160.7790069580078,-184.61500549316406 163.42999267578125,-190.0749969482422 163.42999267578125,-196.1649932861328 C163.42999267578125,-207.48500061035156 154.25,-216.6649932861328 142.92999267578125,-216.6649932861328 C134.63999938964844,-216.6649932861328 127.51000213623047,-211.7550048828125 124.29000091552734,-204.68499755859375 C74.87999725341797,-227.0449981689453 43.380001068115234,-171.6750030517578 37.380001068115234,-173.01499938964844 C30.350000381469727,-174.5850067138672 30.829999923706055,-224.06500244140625 -20.770000457763672,-220.47500610351562 C-22.1299991607666,-230.46499633789062 -30.700000762939453,-238.1649932861328 -41.06999969482422,-238.1649932861328 C-52.400001525878906,-238.1649932861328 -61.56999969482422,-228.98500061035156 -61.56999969482422,-217.6649932861328 C-61.56999969482422,-214.9949951171875 -61.060001373291016,-212.44500732421875 -60.130001068115234,-210.11500549316406 C-120.58000183105469,-182.1649932861328 -90.62999725341797,-120.61499786376953 -93.62000274658203,-118.01499938964844 C-96.2300033569336,-115.76499938964844 -124.45999908447266,-138.2550048828125 -156.4499969482422,-122.5250015258789 C-160.08999633789062,-128.23500061035156 -166.47000122070312,-132.01499938964844 -173.74000549316406,-132.01499938964844 C-185.05999755859375,-132.01499938964844 -194.24000549316406,-122.83499908447266 -194.24000549316406,-111.51499938964844 C-194.24000549316406,-105.21499633789062 -191.39999389648438,-99.58499908447266 -186.92999267578125,-95.82499694824219 C-228.08999633789062,-41.8849983215332 -192.2899932861328,23.04400062561035 -155.6199951171875,44.98500061035156 C-144.89999389648438,51.404998779296875 -211.22000122070312,156.63499450683594 -203.58999633789062,182.56500244140625 C-195.91000366210938,208.65499877929688 -117.87000274658203,225.63499450683594 -47.619998931884766,231.98500061035156 C20.760000228881836,238.1649932861328 97.43000030517578,231.98500061035156 109.37999725341797,212.98500061035156 C124.11000061035156,189.56500244140625 100.9000015258789,82.3550033569336 109.37999725341797,85.98500061035156 C125.66000366210938,92.9749984741211 190.16000366210938,84.94499969482422 203.6999969482422,25.934999465942383 C204.9600067138672,26.184999465942383 206.25999450683594,26.315000534057617 207.58999633789062,26.315000534057617 C218.9199981689453,26.315000534057617 228.08999633789062,17.135000228881836 228.08999633789062,5.815000057220459 C228.08999633789062,-5.505000114440918 218.9199981689453,-14.6850004196167 207.58999633789062,-14.6850004196167z M-129.57000732421875,-33.01499938964844 C-145.58999633789062,-33.01499938964844 -158.57000732421875,-44.95500183105469 -158.57000732421875,-59.685001373291016 C-158.57000732421875,-74.40499877929688 -145.58999633789062,-86.34500122070312 -129.57000732421875,-86.34500122070312 C-113.55999755859375,-86.34500122070312 -100.56999969482422,-74.40499877929688 -100.56999969482422,-59.685001373291016 C-100.56999969482422,-44.95500183105469 -113.55999755859375,-33.01499938964844 -129.57000732421875,-33.01499938964844z M6.590000152587891,-141.93499755859375 C6.590000152587891,-126.42500305175781 -5.980000019073486,-113.84500122070312 -21.489999771118164,-113.84500122070312 C-37,-113.84500122070312 -49.56999969482422,-126.42500305175781 -49.56999969482422,-141.93499755859375 C-49.56999969482422,-157.44500732421875 -37,-170.01499938964844 -21.489999771118164,-170.01499938964844 C-5.980000019073486,-170.01499938964844 6.590000152587891,-157.44500732421875 6.590000152587891,-141.93499755859375z M87.3499984741211,2.815000057220459 C72.68000030517578,51.48500061035156 1.7300000190734863,85.31500244140625 -25.56999969482422,79.65499877929688 C-49.18000030517578,74.75399780273438 -95.56999969482422,16.315000534057617 -86.56999969482422,-31.344999313354492 C-81.9000015258789,-56.095001220703125 -55.2400016784668,-74.68499755859375 -29.239999771118164,-70.68499755859375 C6.480000019073486,-65.18499755859375 -2.9600000381469727,-39.525001525878906 6.090000152587891,-39.345001220703125 C12.550000190734863,-39.224998474121094 17.799999237060547,-68.53500366210938 57.43000030517578,-59.685001373291016 C88.76000213623047,-52.685001373291016 94.76000213623047,-21.774999618530273 87.3499984741211,2.815000057220459z M94.33999633789062,-94.51499938964844 C78.83000183105469,-94.51499938964844 66.26000213623047,-107.08499908447266 66.26000213623047,-122.59500122070312 C66.26000213623047,-138.10499572753906 78.83000183105469,-150.68499755859375 94.33999633789062,-150.68499755859375 C109.8499984741211,-150.68499755859375 122.43000030517578,-138.10499572753906 122.43000030517578,-122.59500122070312 C122.43000030517578,-107.08499908447266 109.8499984741211,-94.51499938964844 94.33999633789062,-94.51499938964844z M143.8000030517578,28.315000534057617 C129.3300018310547,28.315000534057617 117.5999984741211,16.584999084472656 117.5999984741211,2.1050000190734863 C117.5999984741211,-12.364999771118164 129.3300018310547,-24.094999313354492 143.8000030517578,-24.094999313354492 C158.2790069580078,-24.094999313354492 170.00999450683594,-12.364999771118164 170.00999450683594,2.1050000190734863 C170.00999450683594,16.584999084472656 158.2790069580078,28.315000534057617 143.8000030517578,28.315000534057617z"></path></g></g></g></svg>