<svg xmlns="http://www.w3.org/2000/svg" xmlns:xlink="http://www.w3.org/1999/xlink" viewBox="0 0 512 512" width="512" height="512" style="width: 100%; height: 100%; transform: translate3d(0,0,0);" preserveAspectRatio="xMidYMid meet"><defs><clipPath id="__lottie_element_15821"><rect width="512" height="512" x="0" y="0"></rect></clipPath></defs><g clip-path="url(#__lottie_element_15821)"><g style="display: block;" transform="matrix(1,0,0,1,2.4600067138671875,-3.5800018310546875)" opacity="1"><g opacity="1" transform="matrix(1,0,0,1,232.77999877929688,257.7049865722656)"><path fill="rgb(0,0,0)" fill-opacity="1" d=" M219.83999633789062,14.875 C249.75999450683594,53.875 249.76100158691406,86.875 245.7310028076172,126.95500183105469 C242.16000366210938,162.468994140625 201.64500427246094,154.8939971923828 196.29100036621094,132.13499450683594 C187.76100158691406,95.875 187.23199462890625,82.89600372314453 173.29100036621094,63.96500015258789 C157.76100158691406,42.875 129.61099243164062,38.814998626708984 122.31999969482422,37.314998626708984 C91.13099670410156,68.3550033569336 60.189998626708984,94.24500274658203 56.20000076293945,105.83499908447266 C47.18000030517578,131.97500610351562 69.41000366210938,147.47500610351562 57.70000076293945,160.8249969482422 C53.02899932861328,166.15499877929688 43.5,166.7050018310547 31.639999389648438,166.0050048828125 C36.709999084472656,181.65499877929688 40.130001068115234,195.43499755859375 44.38999938964844,198.26499938964844 C49.380001068115234,201.5850067138672 58.691001892089844,198.875 65.11100006103516,210.5850067138672 C68.81999969482422,217.3350067138672 63.24100112915039,230.27499389648438 58.55099868774414,234.19500732421875 C52.49100112915039,239.2550048828125 33.691001892089844,238.1750030517578 30.31100082397461,230.21499633789062 C26.121000289916992,220.3350067138672 29.301000595092773,216.63499450683594 27.361000061035156,209.84500122070312 C25.81999969482422,204.40499877929688 13.039999961853027,187.2949981689453 7.980000019073486,164.13499450683594 C7.539999961853027,164.09500122070312 7.099999904632568,164.06500244140625 6.670000076293945,164.0449981689453 C8.529000282287598,188.9250030517578 1.090999960899353,210.0050048828125 1.2209999561309814,215.98500061035156 C1.4010000228881836,223.56500244140625 5.829999923706055,226.34500122070312 4.670000076293945,237.80499267578125 C3.740000009536743,247.0449981689453 -15.199000358581543,254.125 -23.02899932861328,250.86500549316406 C-29.07900047302246,248.3350067138672 -38.909000396728516,236.8350067138672 -37.249000549316406,228.73500061035156 C-34.37900161743164,214.68499755859375 -23.979999542236328,214.5050048828125 -19.90999984741211,209.51499938964844 C-15.90999984741211,204.61500549316406 -17.700000762939453,185.11500549316406 -16.899999618530273,164.14500427246094 C-18.100000381469727,164.2550048828125 -19.309999465942383,164.38499450683594 -20.520000457763672,164.53500366210938 C-29.15999984741211,183.93499755859375 -41.529998779296875,197.30499267578125 -43.56999969482422,202.2050018310547 C-46.4900016784668,209.19500732421875 -43.56999969482422,213.5449981689453 -49.290000915527344,223.5449981689453 C-53.900001525878906,231.59500122070312 -74.08999633789062,230.36500549316406 -79.91000366210938,224.2050018310547 C-84.41000366210938,219.43499755859375 -88.72000122070312,204.94500732421875 -83.91000366210938,198.2050018310547 C-75.56999969482422,186.5449981689453 -65.9990005493164,190.60499572753906 -60.249000549316406,187.7050018310547 C-56.8489990234375,185.98500061035156 -53.21900177001953,178.5850067138672 -48.8390007019043,168.85499572753906 C-58.29899978637695,170.01499938964844 -66.00900268554688,169.89500427246094 -69.79900360107422,165.8249969482422 C-81.0989990234375,153.71499633789062 -59.79999923706055,131.8249969482422 -65.95999908447266,112.81500244140625 C-71.62999725341797,95.33499908447266 -127.26000213623047,55.224998474121094 -170.7899932861328,11.835000038146973 C-232.52999877929688,-49.69499969482422 -227.61000061035156,-151.77499389648438 -192.3300018310547,-183.53500366210938 C-162.3300018310547,-210.53500366210938 -107.58000183105469,-45.404998779296875 -92.79000091552734,-49.665000915527344 C-74.1500015258789,-55.03499984741211 -110.77899932861328,-105.69499969482422 -114.63899993896484,-153.52499389648438 C-118.02899932861328,-195.47500610351562 -104.12000274658203,-235.05499267578125 -83.80000305175781,-237.15499877929688 C-3.8499999046325684,-245.4250030517578 -3.4200000762939453,-90.43499755859375 16,-87.94499969482422 C32.849998474121094,-85.78500366210938 13.699999809265137,-196.65499877929688 106.69999694824219,-241.65499877929688 C139.35000610351562,-257.4549865722656 114.19000244140625,-129.15499877929688 127.69000244140625,-136.65499877929688 C137.47000122070312,-142.09500122070312 159.19000244140625,-210.15499877929688 211.69000244140625,-213.15499877929688 C232.5290069580078,-214.34500122070312 213.33999633789062,-92.5250015258789 166.8300018310547,-23.165000915527344 C171.2899932861328,-19.584999084472656 199.35899353027344,-11.821999549865723 219.83999633789062,14.875z"></path></g></g></g></svg>