<svg xmlns="http://www.w3.org/2000/svg" xmlns:xlink="http://www.w3.org/1999/xlink" viewBox="0 0 512 512" width="512" height="512" style="width: 100%; height: 100%; transform: translate3d(0,0,0);" preserveAspectRatio="xMidYMid meet"><defs><clipPath id="__lottie_element_15696"><rect width="512" height="512" x="0" y="0"></rect></clipPath></defs><g clip-path="url(#__lottie_element_15696)"><g style="display: block;" transform="matrix(1,0,0,1,14.625,7.480010986328125)" opacity="1"><g opacity="1" transform="matrix(1,0,0,1,344.3009948730469,285.72198486328125)"><path fill="rgb(0,0,0)" fill-opacity="1" d=" M-68.927001953125,-56.86899948120117 C-50.05699920654297,-80.87699890136719 -8.595000267028809,-37.20199966430664 30.405000686645508,-31.20199966430664 C58.70800018310547,-26.847999572753906 92.74099731445312,-42.529998779296875 92.73999786376953,-26.20199966430664 C92.73699951171875,11.130999565124512 62.51100158691406,8.826000213623047 56.073001861572266,17.131000518798828 C48.678001403808594,26.670000076293945 64.40599822998047,59.4640007019043 15.739999771118164,75.46399688720703 C-0.7269999980926514,80.87799835205078 -1.9270000457763672,32.4640007019043 -12.927000045776367,20.79800033569336 C-32.23699951171875,0.31700000166893005 -92.73999786376953,-26.57200050354004 -68.927001953125,-56.86899948120117z"></path></g><g opacity="1" transform="matrix(1,0,0,1,246.97900390625,240.88499450683594)"><path fill="rgb(0,0,0)" fill-opacity="1" d=" M41.729000091552734,-43.69900131225586 C70.06300354003906,-46.69900131225586 94.25499725341797,-12.73900032043457 133.72900390625,-12.364999771118164 C204.06300354003906,-11.697999954223633 246.72900390625,-95.36499786376953 231.39599609375,-112.03099822998047 C225.33999633789062,-118.61399841308594 174.06199645996094,-105.03099822998047 122.13400268554688,-104.8550033569336 C100.31300354003906,-104.78099822998047 91.39399719238281,-88.62000274658203 83.72899627685547,-94.03099822998047 C73.00700378417969,-101.60099792480469 107.06300354003906,-206.36599731445312 36.395999908447266,-235.69900512695312 C24.503999710083008,-240.63499450683594 22.927000045776367,-200.19200134277344 10.062999725341797,-188.031005859375 C-15.277999877929688,-164.07699584960938 -8.180000305175781,-149.23399353027344 -17.270999908447266,-146.69900512695312 C-44.44900131225586,-139.1179962158203 -80.72000122070312,-212.9949951171875 -93.93900299072266,-208.69900512695312 C-120.6050033569336,-200.03199768066406 -125.27200317382812,-112.03199768066406 -91.93900299072266,-54.69900131225586 C-86.99099731445312,-46.18899917602539 -199.93800354003906,-44.698001861572266 -206.60400390625,-1.3650000095367432 C-207.96299743652344,7.4720001220703125 -246.72900390625,20.635000228881836 -246.60499572753906,105.96900177001953 C-246.47300720214844,196.6750030517578 -158.60400390625,231.96800231933594 -116.60399627685547,229.30099487304688 C-105.27400207519531,228.58200073242188 -103.6520004272461,208.44400024414062 -113.93900299072266,207.30099487304688 C-161.93899536132812,201.96800231933594 -206.60400390625,176.63499450683594 -217.27099609375,107.96900177001953 C-222.35899353027344,75.20999908447266 -200.4720001220703,27.084999084472656 -192.60400390625,25.635000228881836 C-179.93800354003906,23.302000045776367 -144.06900024414062,33.04100036621094 -136.60400390625,22.635000228881836 C-106.60399627685547,-19.17799949645996 -72.6259994506836,-31.110000610351562 -69.6050033569336,-22.17799949645996 C-65.27200317382812,-9.364999771118164 -97.6050033569336,-4.698999881744385 -122.93900299072266,47.30099868774414 C-146.5679931640625,95.80400085449219 -171.5070037841797,119.36499786376953 -166.93899536132812,130.63400268554688 C-156.93899536132812,155.30099487304688 -91.6050033569336,154.63400268554688 -40.93899917602539,104.63400268554688 C-29.641000747680664,93.48600006103516 -43.1349983215332,134.6540069580078 -33.93899917602539,173.30099487304688 C-28.172000885009766,197.5330047607422 -1.3320000171661377,234.93899536132812 8.729000091552734,237.30099487304688 C22.927000045776367,240.63400268554688 87.28099822998047,158.31700134277344 67.72899627685547,99.3010025024414 C51.874000549316406,51.43899917602539 10.062000274658203,51.77199935913086 1.3949999809265137,6.302000045776367 C-4.271999835968018,-23.42799949645996 18.44099998474121,-41.233001708984375 41.729000091552734,-43.69900131225586z"></path></g></g></g></svg>