<svg xmlns="http://www.w3.org/2000/svg" xmlns:xlink="http://www.w3.org/1999/xlink" viewBox="0 0 512 512" width="512" height="512" style="width: 100%; height: 100%; transform: translate3d(0,0,0);" preserveAspectRatio="xMidYMid meet"><defs><clipPath id="__lottie_element_52050"><rect width="512" height="512" x="0" y="0"></rect></clipPath></defs><g clip-path="url(#__lottie_element_52050)"><g style="display: block;" transform="matrix(1,0,0,1,256.6709899902344,255.98399353027344)" opacity="1"><g opacity="1" transform="matrix(1,0,0,1,0,0)"><path fill="rgb(0,0,0)" fill-opacity="1" d=" M-79.21499633789062,-190.6439971923828 C-23.513999938964844,-192.74600219726562 10.979999542236328,-150.32400512695312 33.417999267578125,-104.53600311279297 C35.305999755859375,-101.83100128173828 36.874000549316406,-97.33200073242188 41.202999114990234,-99.63500213623047 C46.2859992980957,-101.61100006103516 52.604000091552734,-104.4469985961914 50.3849983215332,-111.9800033569336 C50.36899948120117,-127.90799713134766 62.25,-135.7100067138672 77.0719985961914,-129.51699829101562 C89.7300033569336,-124.22899627685547 89.53700256347656,-124.40599822998047 98.84200286865234,-134.51199340820312 C108.7979965209961,-145.3249969482422 119.03900146484375,-155.88600158691406 129.4149932861328,-166.29800415039062 C133.86599731445312,-170.76400756835938 136.52099609375,-175.125 134.10899353027344,-181.69700622558594 C129.84500122070312,-196.65499877929688 133.55999755859375,-213.63999938964844 149.3209991455078,-219.72999572753906 C157.1699981689453,-223.16200256347656 165.39199829101562,-225.59800720214844 174.031005859375,-225.468994140625 C181.12600708007812,-225.36300659179688 186.3780059814453,-227.48899841308594 190.86500549316406,-233.45599365234375 C202.66200256347656,-248.90699768066406 231.51100158691406,-248.14700317382812 240.3280029296875,-229.9770050048828 C253.73800659179688,-205.11300659179688 230.36000061035156,-200.76400756835938 233.80999755859375,-180.18499755859375 C238.4550018310547,-154.41900634765625 226.84500122070312,-123.7040023803711 196.1929931640625,-129.87100219726562 C185.1490020751953,-131.6580047607422 178.8470001220703,-128.17300415039062 172.49600219726562,-120.40599822998047 C163.19500732421875,-109.03099822998047 153.38900756835938,-98.05799865722656 143.5189971923828,-87.16600036621094 C136.44500732421875,-80.68800354003906 142.177001953125,-75.322998046875 146.1739959716797,-69.24600219726562 C152.572998046875,-57.1609992980957 147.19400024414062,-44.21200180053711 133.8520050048828,-41.36899948120117 C121.78199768066406,-40.209999084472656 122.98999786376953,-26.361000061035156 114.35700225830078,-20.530000686645508 C109.48799896240234,-16.56399917602539 110.09100341796875,-13.201000213623047 114.23100280761719,-9.097000122070312 C133.62399291992188,11.772000312805176 156.76100158691406,29.878000259399414 172.6580047607422,53.65700149536133 C221.656005859375,126.44400024414062 104.3740005493164,198.83799743652344 87.91899871826172,127.81999969482422 C86.94599914550781,110.78500366210938 100.69000244140625,102.62799835205078 114.65699768066406,96.822998046875 C134.72900390625,86.61799621582031 123.20600128173828,64.8280029296875 109.21299743652344,54.76300048828125 C80.11599731445312,30.405000686645508 51.50299835205078,5.565999984741211 29.195999145507812,-25.572999954223633 C25.77899932861328,-31.45599937438965 14.163999557495117,-38.42300033569336 15.104000091552734,-26.413000106811523 C21.12299919128418,-15.994000434875488 13.982000350952148,-10.326000213623047 7.480999946594238,-3.944000005722046 C-17.14299964904785,20.655000686645508 -42.33700180053711,44.790000915527344 -66.28099822998047,70.02999877929688 C-68.54199981689453,72.76499938964844 -73.39399719238281,75.83000183105469 -69.947998046875,79.59700012207031 C-67.13999938964844,82.66600036621094 -63.60300064086914,78.71299743652344 -60.933998107910156,76.81900024414062 C-30.770999908447266,55.720001220703125 -4.109000205993652,30.16900062561035 22.02899932861328,4.382999897003174 C27.586999893188477,-0.30799999833106995 29.042999267578125,-0.5040000081062317 33.37099838256836,4.9039998054504395 C44.744998931884766,19.117000579833984 56.722999572753906,32.779998779296875 69.31500244140625,45.9109992980957 C72.7760009765625,49.52000045776367 73.23799896240234,53.11000061035156 70.43499755859375,57.34600067138672 C45.099998474121094,95.64199829101562 18.503000259399414,132.43299865722656 -24.299999237060547,153.85699462890625 C-87.37899780273438,184.94400024414062 -149.55799865722656,218.66200256347656 -215.99899291992188,242.2010040283203 C-229.6479949951172,247.79400634765625 -247.63600158691406,242.78900146484375 -244.05499267578125,224.947998046875 C-226.73300170898438,160.09300231933594 -189.39300537109375,101.89600372314453 -159.7830047607422,41.972999572753906 C-131.41299438476562,-13.944000244140625 -80.4540023803711,-47.61800003051758 -27.275999069213867,-77.17500305175781 C-20.61199951171875,-81.15599822998047 -20.305999755859375,-81.44100189208984 -24.400999069213867,-87.697998046875 C-28.683000564575195,-94.24199676513672 -31.351999282836914,-101.5009994506836 -34.71500015258789,-108.4540023803711 C-47.75899887084961,-138.7550048828125 -95.24800109863281,-147.72900390625 -106.89900207519531,-111.4219970703125 C-117.06999969482422,-91.36699676513672 -145.2689971923828,-95.07499694824219 -152.20799255371094,-115.6969985961914 C-165.28700256347656,-157.52200317382812 -118.63200378417969,-194.4810028076172 -79.21499633789062,-190.6439971923828z"></path></g></g></g></svg>