<svg xmlns="http://www.w3.org/2000/svg" xmlns:xlink="http://www.w3.org/1999/xlink" viewBox="0 0 512 512" width="512" height="512" style="width: 100%; height: 100%; transform: translate3d(0,0,0);" preserveAspectRatio="xMidYMid meet"><defs><clipPath id="__lottie_element_15676"><rect width="512" height="512" x="0" y="0"></rect></clipPath></defs><g clip-path="url(#__lottie_element_15676)"><g style="display: block;" transform="matrix(1,0,0,1,1.75,7.6300048828125)" opacity="1"><g opacity="1" transform="matrix(1,0,0,1,250.22000122070312,245.80999755859375)"><path fill="rgb(0,0,0)" fill-opacity="1" d=" M246.45899963378906,5.019999980926514 C241.02999877929688,-72.44000244140625 113.02999877929688,-18.440000534057617 112.47000122070312,-30.979999542236328 C111.61900329589844,-49.83000183105469 225.02999877929688,-59.439998626708984 205.02999877929688,-90.44000244140625 C164.52000427246094,-153.24000549316406 101.29900360107422,-76.80000305175781 97.97000122070312,-89.47000122070312 C94.02999877929688,-104.44000244140625 177.38999938964844,-152.64999389648438 128.45899963378906,-180.47000122070312 C81.02999877929688,-207.44000244140625 49.029998779296875,-124.44000244140625 39.470001220703125,-126.47000122070312 C26.31999969482422,-129.27000427246094 56.029998779296875,-245.55999755859375 -20.530000686645508,-227.47000122070312 C-62.970001220703125,-217.44000244140625 -34.08000183105469,-120.5199966430664 -46.029998779296875,-114.47000122070312 C-55.970001220703125,-109.44000244140625 -69.18000030517578,-222.92999267578125 -124.73999786376953,-200.3699951171875 C-163.97000122070312,-184.44000244140625 -108.72000122070312,-146.0399932861328 -119.5199966430664,-138.97000122070312 C-127.97000122070312,-133.44000244140625 -175.88999938964844,-172.8000030517578 -197.02000427246094,-140.97000122070312 C-242.52000427246094,-72.44000244140625 -108.97000122070312,-55.63999938964844 -121.0199966430664,-29.479999542236328 C-124.8499984741211,-21.170000076293945 -229.02000427246094,-64.37999725341797 -241.9499969482422,4.690000057220459 C-249.97000122070312,47.560001373291016 -180.47999572753906,21.239999771118164 -181.02000427246094,30.020000457763672 C-181.66000366210938,40.439998626708984 -221.1999969482422,53.689998626708984 -204.52000427246094,82.5199966430664 C-174.97000122070312,133.55999755859375 -87.13099670410156,67.38999938964844 -85.0199966430664,72.5199966430664 C-81.33000183105469,81.52999877929688 -179.97000122070312,144.55999755859375 -143.02000427246094,192.00999450683594 C-121.8499984741211,219.1999969482422 -79.44000244140625,158.9199981689453 -68.52999877929688,167.00999450683594 C-61.08000183105469,172.52999877929688 -86.79000091552734,232.49000549316406 -41.529998779296875,237.50999450683594 C31.030000686645508,245.55999755859375 3.7100000381469727,130.8000030517578 13.970000267028809,131.00999450683594 C21.339000701904297,131.1699981689453 33.810001373291016,239.74000549316406 91.97000122070312,233.00999450683594 C139.02999877929688,227.55999755859375 64.56999969482422,118.37000274658203 72.47000122070312,116.01000213623047 C84.02999877929688,112.55999755859375 129.24899291992188,225.79100036621094 184.95899963378906,201.50999450683594 C233.02999877929688,180.55999755859375 162.82899475097656,116.97000122070312 169.95899963378906,108.5199966430664 C176.86000061035156,100.3499984741211 241.32000732421875,152.10000610351562 240.45899963378906,105.5199966430664 C239.02999877929688,28.559999465942383 118.18000030517578,48.619998931884766 117.47000122070312,35.52000045776367 C117.02999877929688,27.559999465942383 249.97000122070312,55.150001525878906 246.45899963378906,5.019999980926514z M30.969999313354492,75.0199966430664 C4.03000020980835,56.560001373291016 -25.559999465942383,49.34000015258789 -35.529998779296875,39.52000045776367 C-49.40999984741211,25.829999923706055 -40.029998779296875,2.559999942779541 -47.529998779296875,-32.47999954223633 C-50.349998474121094,-45.68000030517578 25.94499969482422,-73.39700317382812 60.470001220703125,-26.479999542236328 C98.02999877929688,24.559999465942383 50.779998779296875,88.59400177001953 30.969999313354492,75.0199966430664z"></path></g></g></g></svg>