<svg xmlns="http://www.w3.org/2000/svg" xmlns:xlink="http://www.w3.org/1999/xlink" viewBox="0 0 512 512" width="512" height="512" style="width: 100%; height: 100%; transform: translate3d(0,0,0);" preserveAspectRatio="xMidYMid meet"><defs><clipPath id="__lottie_element_15826"><rect width="512" height="512" x="0" y="0"></rect></clipPath></defs><g clip-path="url(#__lottie_element_15826)"><g style="display: block;" transform="matrix(1,0,0,1,33.990997314453125,23.910003662109375)" opacity="1"><g opacity="1" transform="matrix(1,0,0,1,228.843994140625,237.44500732421875)"><path fill="rgb(0,0,0)" fill-opacity="1" d=" M228.593994140625,-40.89500045776367 C228.593994140625,-82.8949966430664 171.093994140625,-70.3949966430664 174.093994140625,-86.8949966430664 C176.87399291992188,-102.17500305175781 202.593994140625,-94.38500213623047 193.593994140625,-122.88500213623047 C182.82400512695312,-157.0050048828125 157.4239959716797,-121.00499725341797 151.593994140625,-137.88499450683594 C148.56500244140625,-146.6750030517578 176.593994140625,-162.88499450683594 154.093994140625,-188.38499450683594 C137.19500732421875,-207.53500366210938 117.09400177001953,-172.38499450683594 109.59400177001953,-185.88499450683594 C101.0250015258789,-201.3249969482422 129.90499877929688,-236.5449981689453 94.6050033569336,-236.88499450683594 C61.60499954223633,-237.19500732421875 68.3740005493164,-196.44500732421875 55.60499954223633,-199.38499450683594 C47.2239990234375,-201.31500244140625 61.60499954223633,-217.38499450683594 37.60499954223633,-224.88499450683594 C13.21399974822998,-232.5050048828125 23.534000396728516,-216.84500122070312 10.604999542236328,-217.38499450683594 C-6.315999984741211,-218.09500122070312 0.843999981880188,-237.0050048828125 -22.395999908447266,-235.38499450683594 C-47.8849983215332,-233.60499572753906 -32.25600051879883,-205.64500427246094 -44.895999908447266,-202.38499450683594 C-56.375999450683594,-199.4250030517578 -53.895999908447266,-223.38499450683594 -76.39600372314453,-217.38499450683594 C-105.26599884033203,-209.68499755859375 -85.4260025024414,-179.27499389648438 -101.88500213623047,-172.38499450683594 C-118.40599822998047,-165.47500610351562 -127.38500213623047,-202.38499450683594 -149.88499450683594,-187.38499450683594 C-179.34500122070312,-167.7449951171875 -161.68899536132812,-143.0959930419922 -165.76699829101562,-130.4409942626953 C-170.1790008544922,-116.75 -191.0279998779297,-134.74000549316406 -199.41600036621094,-114.79900360107422 C-207.4929962158203,-95.59600067138672 -189.38600158691406,-97.31300354003906 -194.54100036621094,-84.17900085449219 C-198.35400390625,-74.46299743652344 -228.84300231933594,-79.38999938964844 -227.88499450683594,-36.89500045776367 C-226.83599853515625,9.645000457763672 -175.71600341796875,-4.355000019073486 -171.88499450683594,7.105000019073486 C-169.49600219726562,14.244999885559082 -203.88499450683594,33.10499954223633 -187.38499450683594,60.10499954223633 C-167.95599365234375,91.8949966430664 -134.42999267578125,49.922000885009766 -122.88500213623047,58.10499954223633 C-110.83599853515625,66.6449966430664 -151.7760009765625,121.05500030517578 -115.88500213623047,129.59500122070312 C-84.39600372314453,137.09500122070312 -76.70600128173828,99.95500183105469 -71.39600372314453,122.09500122070312 C-53.395999908447266,197.09500122070312 3.5840001106262207,236.81500244140625 66.6050033569336,237.09500122070312 C90.6050033569336,237.19500732421875 99.98500061035156,211.77499389648438 81.6050033569336,207.09500122070312 C-6.835999965667725,184.59500122070312 -26.625999450683594,122.73500061035156 -18.895999908447266,117.59500122070312 C-9.53600025177002,111.38500213623047 -6.534999847412109,147.3249969482422 19.606000900268555,138.09500122070312 C45.10599899291992,129.09500122070312 26.3439998626709,93.4749984741211 37.60499954223633,90.1050033569336 C50.50400161743164,86.23500061035156 51.10499954223633,138.09500122070312 84.1050033569336,129.09500122070312 C110.18399810791016,121.98500061035156 96.68399810791016,85.46499633789062 105.1050033569336,78.1050033569336 C117.09400177001953,67.6050033569336 130.4340057373047,115.40499877929688 160.093994140625,90.6050033569336 C182.73500061035156,71.67500305175781 136.31500244140625,53.584999084472656 143.593994140625,40.10499954223633 C150.24400329589844,27.795000076293945 176.75399780273438,59.775001525878906 187.593994140625,31.604999542236328 C195.093994140625,12.104999542236328 172.45399475097656,11.364999771118164 178.593994140625,0.10499999672174454 C187.593994140625,-16.395000457763672 228.593994140625,1.1050000190734863 228.593994140625,-40.89500045776367z M38.60499954223633,-87.3949966430664 C31.884000778198242,-76.83499908447266 16.423999786376953,-77.06500244140625 10.604999542236328,-88.3949966430664 C3.8949999809265137,-101.44499969482422 11.973999977111816,-123.15499877929688 18.104999542236328,-145.38499450683594 C20.913999557495117,-155.5749969482422 44.63399887084961,-155.375 49.60499954223633,-145.38499450683594 C59.2140007019043,-126.05500030517578 43.38399887084961,-94.90499877929688 38.60499954223633,-87.3949966430664z M115.59400177001953,-7.394999980926514 C95.53399658203125,-9.345000267028809 72.9739990234375,2.365000009536743 58.60499954223633,-13.395000457763672 C43.99399948120117,-29.405000686645508 48.33399963378906,-51.665000915527344 49.60499954223633,-53.89500045776367 C62.025001525878906,-75.74500274658203 82.76399993896484,-91.69499969482422 102.1050033569336,-92.8949966430664 C111.3949966430664,-93.46499633789062 128.6739959716797,-81.18499755859375 114.09400177001953,-68.8949966430664 C106.5739974975586,-62.54499816894531 97.01399993896484,-57.85499954223633 97.6050033569336,-53.89500045776367 C98.31500244140625,-49.04499816894531 115.42400360107422,-49.255001068115234 126.09400177001953,-43.39500045776367 C139.74400329589844,-35.89500045776367 136.61500549316406,-5.355000019073486 115.59400177001953,-7.394999980926514z"></path></g></g></g></svg>