<svg xmlns="http://www.w3.org/2000/svg" xmlns:xlink="http://www.w3.org/1999/xlink" viewBox="0 0 512 512" width="512" height="512" style="width: 100%; height: 100%; transform: translate3d(0,0,0);" preserveAspectRatio="xMidYMid meet"><defs><clipPath id="__lottie_element_51240"><rect width="512" height="512" x="0" y="0"></rect></clipPath></defs><g clip-path="url(#__lottie_element_51240)"><g style="display: block;" transform="matrix(1,0,0,1,-1521.7060546875,1279.9990234375)" opacity="1"><g opacity="1" transform="matrix(1,0,0,1,1777.458984375,-1078.241943359375)"><path fill="rgb(0,0,0)" fill-opacity="1" d=" M0.984000027179718,200.81399536132812 C22.746999740600586,200.81399536132812 62.78200149536133,165.3209991455078 90.78199768066406,132.35000610351562 C114.96399688720703,103.86000061035156 156.84800720214844,46.03200149536133 165.56500244140625,-21.216999053955078 C171.86300659179688,-69.7760009765625 160.1439971923828,-112.56700134277344 131.68499755859375,-144.9459991455078 C100.9489974975586,-179.92799377441406 52.08399963378906,-200.81399536132812 0.984000027179718,-200.81399536132812 C-51.32099914550781,-200.81399536132812 -100.94200134277344,-180.11199951171875 -131.74899291992188,-145.43600463867188 C-159.67799377441406,-114.00599670410156 -171.4669952392578,-72.37899780273438 -165.86300659179688,-25.03499984741211 C-157.67599487304688,44.071998596191406 -114.95700073242188,102.91000366210938 -90.21299743652344,131.82899475097656 C-60.88600158691406,166.10699462890625 -20.145999908447266,200.81399536132812 0.984000027179718,200.81399536132812z M0.5659999847412109,-80.83999633789062 C12.746999740600586,-81.75700378417969 16.243000030517578,-106.63899993896484 54.2400016784668,-106.70700073242188 C82.24700164794922,-106.75700378417969 106.2979965209961,-84.98699951171875 101.43900299072266,-42.33399963378906 C96.24700164794922,3.243000030517578 17.30500030517578,50.553001403808594 3.880000114440918,51.10300064086914 C-11.753000259399414,51.74300003051758 -89.75299835205078,6.243000030517578 -98.31500244140625,-41.67100143432617 C-105.54299926757812,-82.11900329589844 -80.25299835205078,-104.25700378417969 -52.75600051879883,-104.42500305175781 C-16.25200080871582,-104.64800262451172 -10.798999786376953,-79.98400115966797 0.5659999847412109,-80.83999633789062z"></path></g><g opacity="1" transform="matrix(1,0,0,1,1778.447021484375,-818.1110229492188)"><path fill="rgb(0,0,0)" fill-opacity="1" d=" M0,-49.167999267578125 C-92.08100128173828,-49.167999267578125 -166.72799682617188,-27.155000686645508 -166.72799682617188,0 C-166.72799682617188,27.155000686645508 -92.08100128173828,49.167999267578125 0,49.167999267578125 C92.08100128173828,49.167999267578125 166.72799682617188,27.155000686645508 166.72799682617188,0 C166.72799682617188,-27.155000686645508 92.08100128173828,-49.167999267578125 0,-49.167999267578125z"></path></g></g></g></svg>