<svg xmlns="http://www.w3.org/2000/svg" xmlns:xlink="http://www.w3.org/1999/xlink" viewBox="0 0 512 512" width="512" height="512" style="width: 100%; height: 100%; transform: translate3d(0,0,0);" preserveAspectRatio="xMidYMid meet"><defs><clipPath id="__lottie_element_53854"><rect width="512" height="512" x="0" y="0"></rect></clipPath></defs><g clip-path="url(#__lottie_element_53854)"><g style="display: block;" transform="matrix(0.9171690344810486,0.5510907769203186,-0.5510907769203186,0.9171690344810486,515.3016357421875,333.4825439453125)" opacity="1"><g opacity="1" transform="matrix(1,0,0,1,-293.2619934082031,-81.13099670410156)"><path fill="rgb(0,0,0)" fill-opacity="1" d=" M-99.33499908447266,87.69300079345703 C-90.01599884033203,32.91299819946289 -33.01599884033203,-68.08699798583984 83.00499725341797,-65.20899963378906 C91.21499633789062,-65.00499725341797 98.45500183105469,-57.03099822998047 89.68099975585938,-48.064998626708984 C65.84700012207031,-23.708999633789062 51.678001403808594,1.7039999961853027 43.94300079345703,16.988000869750977 C38.279998779296875,28.179000854492188 41.78099822998047,37.87699890136719 55.104000091552734,23.20599937438965 C57.79199981689453,20.246000289916992 48.709999084472656,110.25 44.73500061035156,109.81600189208984 C30.56599998474121,108.2699966430664 -60.558998107910156,93.64800262451172 -90.61299896240234,98.6240005493164 C-96.77100372314453,99.64399719238281 -100.38200378417969,93.84700012207031 -99.33499908447266,87.69300079345703z"></path></g><g opacity="1" transform="matrix(1,0,0,1,-194.49000549316406,-51.33700180053711)"><path fill="rgb(0,0,0)" fill-opacity="1" d=" M-72.62300109863281,72.41100311279297 C-51.676998138427734,74.94000244140625 18.76300048828125,86.46199798583984 62.79800033569336,107.50299835205078 C67.81800079345703,109.9020004272461 73.67900085449219,106.54100036621094 74.22599792480469,101.00399780273438 C76.61499786376953,76.83399963378906 83.48999786376953,-17.624000549316406 45.72700119018555,-74.55400085449219 C41.92399978637695,-80.28700256347656 29.84600067138672,-80.22599792480469 26.513999938964844,-78.40399932861328 C-0.5099999904632568,-63.624000549316406 -56.96799850463867,-7.710999965667725 -79.302001953125,61.95199966430664 C-80.84500122070312,66.76499938964844 -77.64099884033203,71.80500030517578 -72.62300109863281,72.41100311279297z"></path></g><g opacity="1" transform="matrix(1,0,0,1,-74.4010009765625,-26.871999740600586)"><path fill="rgb(0,0,0)" fill-opacity="1" d=" M51.249000549316406,140.4219970703125 C68.12300109863281,51.65399932861328 61.784000396728516,-40.75899887084961 -38.38399887084961,-95.20099639892578 C-45.167999267578125,-98.88800048828125 -49.071998596191406,-96.68399810791016 -45.262001037597656,-89.96900177001953 C-33.888999938964844,-69.9219970703125 -27.385000228881836,1.3700000047683716 -31.177000045776367,23.972000122070312 C-33.5880012512207,38.34000015258789 -43.70600128173828,44.97700119018555 -44.48500061035156,26.045000076293945 C-44.65299987792969,21.969999313354492 -49.01100158691406,88.34600067138672 -45.12799835205078,89.59500122070312 C-31.670000076293945,93.92500305175781 12.192999839782715,124.75700378417969 38.20199966430664,145.73199462890625 C43.13800048828125,149.71200561523438 50.064998626708984,146.65199279785156 51.249000549316406,140.4219970703125z"></path></g><g opacity="1" transform="matrix(-0.9993908405303955,0.03489949554204941,-0.03489949554204941,-0.9993908405303955,-157.16000366210938,-169.25)"><path fill="rgb(0,0,0)" fill-opacity="1" d=" M-27.826000213623047,11.5649995803833 C-21.05900001525879,10.4350004196167 -4.749000072479248,8.21500015258789 -0.5320000052452087,10.234999656677246 C5.263000011444092,13.01099967956543 14.255000114440918,24.569000244140625 22.600000381469727,28.350000381469727 C28.79199981689453,31.155000686645508 38.08000183105469,21.731000900268555 37.595001220703125,14.951000213623047 C36.7239990234375,2.7690000534057617 27.577999114990234,-20.47800064086914 7.834000110626221,-23.433000564575195 C-10.654000282287598,-26.200000762939453 -24.649999618530273,-21.4060001373291 -35.064998626708984,-12.680999755859375 C-45.2760009765625,-4.126999855041504 -39.45399856567383,13.506999969482422 -27.826000213623047,11.5649995803833z"></path></g><g opacity="1" transform="matrix(1,0,0,1,-252.2779998779297,91.25800323486328)"><path fill="rgb(0,0,0)" fill-opacity="1" d=" M-140.27499389648438,-84.04900360107422 C-140.27499389648438,-84.04900360107422 -45.9640007019043,-88.68299865722656 56.59400177001953,-62.82099914550781 C152.61599731445312,-38.606998443603516 257.7929992675781,16.933000564575195 253.4530029296875,63.22600173950195 C249.47300720214844,105.68399810791016 189.53900146484375,73.43800354003906 168.86900329589844,59.244998931884766 C142.54600524902344,41.16999816894531 111.44999694824219,6.235000133514404 41.165000915527344,8.82699966430664 C-39.77000045776367,11.812000274658203 -151.2220001220703,64.5530014038086 -229.8350067138672,20.104999542236328 C-308.447998046875,-24.343000411987305 -169.13600158691406,-83.06500244140625 -140.27499389648438,-84.04900360107422z"></path></g></g></g></svg>