<svg xmlns="http://www.w3.org/2000/svg" xmlns:xlink="http://www.w3.org/1999/xlink" viewBox="0 0 512 512" width="512" height="512" style="width: 100%; height: 100%; transform: translate3d(0,0,0);" preserveAspectRatio="xMidYMid meet"><defs><clipPath id="__lottie_element_53125"><rect width="512" height="512" x="0" y="0"></rect></clipPath></defs><g clip-path="url(#__lottie_element_53125)"><g style="display: block;" transform="matrix(1,0,0,1,259.64801025390625,255.68299865722656)" opacity="1"><g opacity="1" transform="matrix(1,0,0,1,0,103.76699829101562)"><path fill="rgb(0,0,0)" fill-opacity="1" d=" M220.39300537109375,-117.08200073242188 C219.54800415039062,-133.32899475097656 202.28500366210938,-143.33999633789062 187.7209930419922,-136.08999633789062 C152.17300415039062,-118.39399719238281 83.68699645996094,-91.77999877929688 -6.682000160217285,-91.77999877929688 C-96.1050033569336,-91.77999877929688 -155.41299438476562,-114.94400024414062 -185.3730010986328,-130.6699981689453 C-198.81399536132812,-137.72500610351562 -215.2310028076172,-129.72000122070312 -218.0570068359375,-114.80500030517578 C-227.75799560546875,-63.60200119018555 -218.9029998779297,34.92499923706055 -28.579999923706055,43.053001403808594 C-28.579999923706055,43.053001403808594 -28.579999923706055,67.6449966430664 -28.579999923706055,67.6449966430664 C-71.0780029296875,71.15699768066406 -102.90299987792969,85.49600219726562 -102.90299987792969,102.65399932861328 C-102.90299987792969,122.44499969482422 -60.566001892089844,138.48800659179688 -8.340999603271484,138.48800659179688 C43.88399887084961,138.48800659179688 86.22200012207031,122.44499969482422 86.22200012207031,102.65399932861328 C86.22200012207031,85.58599853515625 54.729000091552734,71.30500030517578 12.562999725341797,67.6989974975586 C12.562999725341797,67.6989974975586 12.562999725341797,43.38800048828125 12.562999725341797,43.38800048828125 C202.53799438476562,38.28200149536133 223.23300170898438,-62.505001068115234 220.39300537109375,-117.08200073242188z"></path></g><g opacity="1" transform="matrix(1,0,0,1,-2.132999897003174,-125.40899658203125)"><path fill="rgb(0,0,0)" fill-opacity="1" d=" M-7.866000175476074,116.82599639892578 C-99.43800354003906,117.66200256347656 -196.32699584960938,91.60900115966797 -204.2899932861328,47.8120002746582 C-212.2530059814453,4.014999866485596 -149.21200561523438,-46.417999267578125 -94.7969970703125,-45.090999603271484 C-48.8849983215332,-43.97100067138672 1.2790000438690186,0.13899999856948853 18.625,52.56100082397461 C20.809999465942383,59.16299819946289 30.591999053955078,57.61399841308594 30.45199966430664,50.6609992980957 C29.92300033569336,24.326000213623047 17.121999740600586,-14.883999824523926 -40.486000061035156,-53.007999420166016 C-43.11600112915039,-54.749000549316406 -43.301998138427734,-58.54999923706055 -40.816001892089844,-60.492000579833984 C-23.954999923706055,-73.66500091552734 35.810001373291016,-111.83300018310547 125.51599884033203,-75.61599731445312 C125.51599884033203,-75.61599731445312 145.37600708007812,-107.39099884033203 145.37600708007812,-107.39099884033203 C151,-116.38899993896484 162.64599609375,-119.47000122070312 171.98300170898438,-114.4280014038086 C171.98300170898438,-114.4280014038086 171.98300170898438,-114.4280014038086 171.98300170898438,-114.4280014038086 C181.3070068359375,-109.39299774169922 185.12399291992188,-97.98799896240234 180.70899963378906,-88.3550033569336 C180.70899963378906,-88.3550033569336 159.35899353027344,-41.77299880981445 159.35899353027344,-41.77299880981445 C159.35899353027344,-41.77299880981445 173.29400634765625,-29.827999114990234 173.95799255371094,-5.939000129699707 C173.95799255371094,-5.939000129699707 197.1840057373047,-5.275000095367432 204.48399353027344,27.240999221801758 C211.78399658203125,59.75699996948242 137.46099853515625,115.4990005493164 -7.866000175476074,116.82599639892578z"></path></g></g></g></svg>