<svg xmlns="http://www.w3.org/2000/svg" xmlns:xlink="http://www.w3.org/1999/xlink" viewBox="0 0 512 512" width="512" height="512" style="width: 100%; height: 100%; transform: translate3d(0,0,0);" preserveAspectRatio="xMidYMid meet"><defs><clipPath id="__lottie_element_51595"><rect width="512" height="512" x="0" y="0"></rect></clipPath></defs><g clip-path="url(#__lottie_element_51595)"><g style="display: block;" transform="matrix(1,0,0,1,254.7270050048828,263.87200927734375)" opacity="1"><g opacity="1" transform="matrix(1,0,0,1,0,50.37099838256836)"><path fill="rgb(0,0,0)" fill-opacity="1" d=" M-240.5229949951172,-108.33000183105469 C-241.98599243164062,-124.91600036621094 -217.0399932861328,-150.42799377441406 -205.10899353027344,-161.61000061035156 C-201.74099731445312,-164.76600646972656 -196.66700744628906,-165.20199584960938 -192.8040008544922,-162.67599487304688 C-176.33900451660156,-151.91099548339844 -106.81099700927734,-126.89299774169922 -12.13599967956543,-125.60199737548828 C128.6060028076172,-123.68299865722656 186.1820068359375,-166.5449981689453 199.61700439453125,-164.62600708007812 C205.98199462890625,-163.7169952392578 241.64999389648438,-128.13999938964844 240.55999755859375,-109.60900115966797 C238.82000732421875,-80.03099822998047 76.1989974975586,98.33499908447266 45.81999969482422,131.41400146484375 C44.63399887084961,132.7050018310547 42.51599884033203,131.54100036621094 42.95600128173828,129.843994140625 C71.66600036621094,18.988000869750977 83.62000274658203,-13.37399959564209 73.58799743652344,-15.567999839782715 C66.76399993896484,-17.06100082397461 55.62699890136719,14.829000473022461 41.60200119018555,56.29600143432617 C30.086999893188477,90.34100341796875 17.288999557495117,132.47000122070312 8.069000244140625,160.40699768066406 C6.491000175476074,165.19000244140625 0.878000020980835,165.94000244140625 -3.0510001182556152,162.78900146484375 C-14.055999755859375,153.96299743652344 -239.1540069580078,-92.81199645996094 -240.5229949951172,-108.33000183105469z"></path></g><g opacity="1" transform="matrix(1,0,0,1,0,0)"><path fill="rgb(0,0,0)" fill-opacity="1" d=" M169.54,-154.78 C158.03,-176.1 96.62,-209.36 87.23,-212.35 C77.85,-215.34 -56.49,-216.19 -71.84,-213.2 C-87.2,-210.22 -140.08,-180.36 -160.56,-167.99 C-181.02,-155.62 -181.79,-148.19 -179.75,-141.55 C-176.34,-130.46 -94.45,-98.9 -0.62,-98.9 C100.89,-98.9 158.88,-128.33 165.28,-133.45 C171.68,-138.57 173.55,-147.38 169.54,-154.78z"></path><g opacity="1" transform="matrix(1,0,0,1,-4.431000232696533,-156.97999572753906)"></g></g></g></g></svg>