<svg xmlns="http://www.w3.org/2000/svg" xmlns:xlink="http://www.w3.org/1999/xlink" viewBox="0 0 512 512" width="512" height="512" style="width: 100%; height: 100%; transform: translate3d(0,0,0);" preserveAspectRatio="xMidYMid meet"><defs><clipPath id="__lottie_element_51775"><rect width="512" height="512" x="0" y="0"></rect></clipPath></defs><g clip-path="url(#__lottie_element_51775)"><g style="display: block;" transform="matrix(1,0,0,1,0,0)" opacity="1"><g opacity="1" transform="matrix(1,0,0,1,252.8159942626953,258.4809875488281)"><path fill="rgb(0,0,0)" fill-opacity="1" d=" M-217.65899658203125,11.519000053405762 C-219.60899353027344,-5.408999919891357 -149.0500030517578,-53.08599853515625 -108.01000213623047,-96.60700225830078 C-51.59299850463867,-156.4340057373047 -8.345000267028809,-226.4810028076172 11.184000015258789,-226.4810028076172 C26.18400001525879,-226.4810028076172 58.30099868774414,-158.1020050048828 109.41100311279297,-101.49099731445312 C159.56100463867188,-45.944000244140625 222.1840057373047,-9.513999938964844 222.1840057373047,5.519000053405762 C222.1840057373047,21.518999099731445 160.47500610351562,55.236000061035156 110.4749984741211,104.8290023803711 C54.32400131225586,160.5229949951172 23.18400001525879,223.5189971923828 3.184000015258789,225.5189971923828 C-19.724000930786133,227.80999755859375 -53.47700119018555,161.48899841308594 -96.31900024414062,117.96800231933594 C-121.44499969482422,92.44400024414062 -146.04299926757812,73.11599731445312 -144.8159942626953,63.51900100708008 C-140.5659942626953,30.267000198364258 -129.7550048828125,6.715000152587891 -121.65599822998047,-8.864999771118164 C-118.96499633789062,-14.041999816894531 -161.3159942626953,17.768999099731445 -176.8159942626953,46.51900100708008 C-188.5659942626953,37.01900100708008 -215.8159942626953,27.518999099731445 -217.65899658203125,11.519000053405762z"></path></g></g></g></svg>