<svg xmlns="http://www.w3.org/2000/svg" xmlns:xlink="http://www.w3.org/1999/xlink" viewBox="0 0 512 512" width="512" height="512" style="width: 100%; height: 100%; transform: translate3d(0,0,0);" preserveAspectRatio="xMidYMid meet"><defs><clipPath id="__lottie_element_52866"><rect width="512" height="512" x="0" y="0"></rect></clipPath></defs><g clip-path="url(#__lottie_element_52866)"><g style="display: block;" transform="matrix(1,0,0,1,0,0)" opacity="1"><g opacity="1" transform="matrix(1,0,0,1,259.1650085449219,259.614990234375)"><path fill="rgb(0,0,0)" fill-opacity="1" d=" M217.8350067138672,-202.61500549316406 C207.22500610351562,-214.40499877929688 -60.375,-211.1750030517578 -75.16500091552734,-206.61500549316406 C-97.46499633789062,-199.7449951171875 -204.4550018310547,-126.3949966430664 -216.1649932861328,-107.61499786376953 C-226.8350067138672,-90.49500274658203 -225.1649932861328,190.38499450683594 -211.1649932861328,200.38499450683594 C-191.96499633789062,214.10499572753906 67.3550033569336,214.40499877929688 80.83499908447266,210.38499450683594 C98.93499755859375,204.98500061035156 212.88499450683594,122.40499877929688 218.8350067138672,107.38500213623047 C223.5449981689453,95.48500061035156 226.8350067138672,-192.61500549316406 217.8350067138672,-202.61500549316406z M4.554999828338623,-189.2449951171875 C24.665000915527344,-189.2449951171875 40.96500015258789,-177.8350067138672 40.96500015258789,-163.7449951171875 C40.96500015258789,-149.6649932861328 24.665000915527344,-138.2449951171875 4.554999828338623,-138.2449951171875 C-15.555000305175781,-138.2449951171875 -31.854999542236328,-149.6649932861328 -31.854999542236328,-163.7449951171875 C-31.854999542236328,-177.8350067138672 -15.555000305175781,-189.2449951171875 4.554999828338623,-189.2449951171875z M-164.4149932861328,8.885000228881836 C-184.71499633789062,8.885000228881836 -201.1649932861328,-7.565000057220459 -201.1649932861328,-27.864999771118164 C-201.1649932861328,-48.165000915527344 -184.71499633789062,-64.61499786376953 -164.4149932861328,-64.61499786376953 C-144.11500549316406,-64.61499786376953 -127.66500091552734,-48.165000915527344 -127.66500091552734,-27.864999771118164 C-127.66500091552734,-7.565000057220459 -144.11500549316406,8.885000228881836 -164.4149932861328,8.885000228881836z M-89.16500091552734,91.38500213623047 C-110.70500183105469,91.38500213623047 -128.1649932861328,73.92500305175781 -128.1649932861328,52.3849983215332 C-128.1649932861328,30.844999313354492 -110.70500183105469,13.385000228881836 -89.16500091552734,13.385000228881836 C-67.625,13.385000228881836 -50.165000915527344,30.844999313354492 -50.165000915527344,52.3849983215332 C-50.165000915527344,73.92500305175781 -67.625,91.38500213623047 -89.16500091552734,91.38500213623047z M3.2149999141693115,167.88499450683594 C-17.084999084472656,167.88499450683594 -33.53499984741211,151.43499755859375 -33.53499984741211,131.13499450683594 C-33.53499984741211,110.83499908447266 -17.084999084472656,94.38500213623047 3.2149999141693115,94.38500213623047 C23.5049991607666,94.38500213623047 39.96500015258789,110.83499908447266 39.96500015258789,131.13499450683594 C39.96500015258789,151.43499755859375 23.5049991607666,167.88499450683594 3.2149999141693115,167.88499450683594z M91.83499908447266,154.38499450683594 C91.04499816894531,170.36500549316406 68.9749984741211,168.69500732421875 69.83499908447266,151.38499450683594 C72.03500366210938,107.03500366210938 71.74500274658203,-80.04499816894531 62.834999084472656,-83.61499786376953 C52.834999084472656,-87.61499786376953 -114.16500091552734,-80.61499786376953 -167.1649932861328,-90.61499786376953 C-189.76499938964844,-94.87899780273438 -180.71499633789062,-108.20500183105469 -166.1649932861328,-107.61499786376953 C-117.1050033569336,-105.625 55.01499938964844,-99.69499969482422 67.83499908447266,-104.61499786376953 C79.99500274658203,-109.28500366210938 167.10499572753906,-165.9250030517578 188.8350067138672,-183.61500549316406 C202.34500122070312,-194.61500549316406 209.36500549316406,-174.90499877929688 195.8350067138672,-164.61500549316406 C170.8350067138672,-145.61500549316406 93.83499908447266,-93.61499786376953 89.83499908447266,-85.61499786376953 C83.83499908447266,-73.61499786376953 97.83499908447266,32.3849983215332 91.83499908447266,154.38499450683594z M137.8350067138672,123.88500213623047 C121.81500244140625,123.88500213623047 108.83499908447266,107.43499755859375 108.83499908447266,87.13500213623047 C108.83499908447266,66.83499908447266 121.81500244140625,50.3849983215332 137.8350067138672,50.3849983215332 C153.85499572753906,50.3849983215332 166.8350067138672,66.83499908447266 166.8350067138672,87.13500213623047 C166.8350067138672,107.43499755859375 153.85499572753906,123.88500213623047 137.8350067138672,123.88500213623047z M187.3350067138672,-39.6150016784668 C173.2550048828125,-39.6150016784668 161.8350067138672,-56.064998626708984 161.8350067138672,-76.36499786376953 C161.8350067138672,-96.66500091552734 173.2550048828125,-113.11499786376953 187.3350067138672,-113.11499786376953 C201.4149932861328,-113.11499786376953 212.8350067138672,-96.66500091552734 212.8350067138672,-76.36499786376953 C212.8350067138672,-56.064998626708984 201.4149932861328,-39.6150016784668 187.3350067138672,-39.6150016784668z"></path></g></g></g></svg>