<svg xmlns="http://www.w3.org/2000/svg" xmlns:xlink="http://www.w3.org/1999/xlink" viewBox="0 0 512 512" width="512" height="512" style="width: 100%; height: 100%; transform: translate3d(0,0,0);" preserveAspectRatio="xMidYMid meet"><defs><clipPath id="__lottie_element_52358"><rect width="512" height="512" x="0" y="0"></rect></clipPath></defs><g clip-path="url(#__lottie_element_52358)"><g style="display: block;" transform="matrix(1,0,0,1,0,0)" opacity="1"><g opacity="1" transform="matrix(1,0,0,1,260.1730041503906,230.7429962158203)"><path fill="rgb(0,0,0)" fill-opacity="1" d=" M63.06999969482422,-84.28700256347656 C64.49500274658203,-76.49800109863281 61.10499954223633,-69.16500091552734 60.8380012512207,-61.8129997253418 C59.810001373291016,-33.48400115966797 65.8030014038086,17.690000534057617 57.303001403808594,42.15399932861328 C42.659000396728516,84.2969970703125 -52.034000396728516,82.19100189208984 -60.715999603271484,40.525001525878906 C-62.130001068115234,33.74399948120117 -63.3650016784668,20.7549991607666 -63.80699920654297,13.515000343322754 C-65.8030014038086,-19.222000122070312 -61.4119987487793,-51.74100112915039 -61.650001525878906,-84.2959976196289 C-22.93000030517578,-67.34300231933594 23.738000869750977,-71.24299621582031 63.06999969482422,-84.28700256347656z"></path></g><g opacity="1" transform="matrix(1,0,0,1,255.95799255371094,73.677001953125)"><path fill="rgb(0,0,0)" fill-opacity="1" d=" M116.65499877929688,-26.243999481201172 C96.16100311279297,-21.597000122070312 78.50499725341797,0.6100000143051147 71.18499755859375,19.680999755859375 C62.0629997253418,43.44900131225586 68.93399810791016,52.70600128173828 40.790000915527344,64.55000305175781 C19.58099937438965,73.47599792480469 -15.805999755859375,73.677001953125 -36.750999450683594,63.89799880981445 C-40.0260009765625,62.36899948120117 -55.375,52.63600158691406 -56.8129997253418,50.64099884033203 C-61.49800109863281,44.14099884033203 -64.9800033569336,22.086000442504883 -70.66699981689453,13.949999809265137 C-70.66699981689453,13.949999809265137 -87.55500030517578,-15.37399959564209 -87.55500030517578,-15.37399959564209 C-65.8740005493164,-10.074000358581543 -42.84400177001953,-9.288999557495117 -20.899999618530273,-13.230999946594238 C-20.32900047302246,17.790000915527344 -1.0069999694824219,38.92100143432617 31.676000595092773,33.933998107910156 C75.16799926757812,27.297000885009766 70.46900177001953,-48.22700119018555 21.256999969482422,-47.441001892089844 C-2.0789999961853027,-47.069000244140625 -14.279000282287598,-31.135000228881836 -22.527000427246094,-28.841999053955078 C-40.380001068115234,-23.878999710083008 -90.3499984741211,-27.54599952697754 -105.56600189208984,-37.16600036621094 C-113.58100128173828,-42.233001708984375 -118.35099792480469,-55.20600128173828 -111.14800262451172,-63.68600082397461 C-105.1500015258789,-70.74700164794922 -79.63899993896484,-61.494998931884766 -66.76799774169922,-59.862998962402344 C-47.84299850463867,-57.4640007019043 -30.610000610351562,-60.47200012207031 -14.524999618530273,-64.12799835205078 C8.657999992370605,-69.39700317382812 64.37000274658203,-80.58399963378906 100.58599853515625,-51.88399887084961 C107.86900329589844,-46.11199951171875 118.35199737548828,-36.387001037597656 116.65499877929688,-26.243999481201172z"></path></g><g opacity="1" transform="matrix(1,0,0,1,258.72698974609375,487.2229919433594)"><path fill="rgb(0,0,0)" fill-opacity="1" d=" M118.2979965209961,-22.575000762939453 C118.2979965209961,-22.575000762939453 116.14700317382812,22.575000762939453 116.14700317382812,22.575000762939453 C116.14700317382812,22.575000762939453 -116.14800262451172,22.575000762939453 -116.14800262451172,22.575000762939453 C-116.14800262451172,22.575000762939453 -118.29900360107422,-22.575000762939453 -118.29900360107422,-22.575000762939453 C-118.29900360107422,-22.575000762939453 118.2979965209961,-22.575000762939453 118.2979965209961,-22.575000762939453z"></path></g><g opacity="1" transform="matrix(1,0,0,1,55.46900177001953,344.2380065917969)"><path fill="rgb(0,0,0)" fill-opacity="1" d=" M16.131999969482422,-134.2469940185547 C16.131999969482422,-134.2469940185547 16.131999969482422,104.28500366210938 16.131999969482422,104.28500366210938 C7.249000072479248,111.60700225830078 -0.7770000100135803,123.29299926757812 -9.664999961853027,130.09800720214844 C-11.833999633789062,131.75799560546875 -12.376999855041504,134.2469940185547 -16.131999969482422,133.30999755859375 C-16.131999969482422,133.30999755859375 -16.131999969482422,-134.2469940185547 -16.131999969482422,-134.2469940185547 C-16.131999969482422,-134.2469940185547 16.131999969482422,-134.2469940185547 16.131999969482422,-134.2469940185547z"></path></g><g opacity="1" transform="matrix(1,0,0,1,214.63999938964844,377.56298828125)"><path fill="rgb(0,0,0)" fill-opacity="1" d=" M33.34400177001953,-48.354000091552734 C33.34400177001953,-48.354000091552734 22.506000518798828,63.362998962402344 22.506000518798828,63.362998962402344 C22.506000518798828,63.362998962402344 -33.34299850463867,65.56500244140625 -33.34299850463867,65.56500244140625 C-19.8700008392334,23.92799949645996 -13.8100004196167,-21.843000411987305 -11.8149995803833,-65.56500244140625 C2.312999963760376,-57.9370002746582 16.607999801635742,-48.750999450683594 33.34400177001953,-48.354000091552734z"></path></g><g opacity="1" transform="matrix(1,0,0,1,300.7030029296875,377.5719909667969)"><path fill="rgb(0,0,0)" fill-opacity="1" d=" M13.935999870300293,-65.56500244140625 C14.333999633789062,-21.476999282836914 23.292999267578125,22.305999755859375 31.145999908447266,65.56500244140625 C31.145999908447266,65.56500244140625 -19.017000198364258,63.481998443603516 -19.017000198364258,63.481998443603516 C-19.017000198364258,63.481998443603516 -31.145999908447266,-48.30400085449219 -31.145999908447266,-48.30400085449219 C-22.770000457763672,-49.10599899291992 -12.428999900817871,-51.90700149536133 -4.810999870300293,-55.30099868774414 C2.1040000915527344,-58.38100051879883 6.868000030517578,-63.8650016784668 13.935999870300293,-65.56500244140625z"></path></g><g opacity="1" transform="matrix(1,0,0,1,96.26699829101562,320.59100341796875)"><path fill="rgb(0,0,0)" fill-opacity="1" d=" M11.909000396728516,-111.80599975585938 C11.909000396728516,-111.80599975585938 14.005999565124512,87.03900146484375 14.005999565124512,87.03900146484375 C14.005999565124512,87.03900146484375 -9.59000015258789,111.80599975585938 -9.59000015258789,111.80599975585938 C-9.59000015258789,111.80599975585938 -14.005999565124512,-110.85900115966797 -14.005999565124512,-110.85900115966797 C-7.0320000648498535,-111.80599975585938 2.0309998989105225,-111.80599975585938 11.909000396728516,-111.80599975585938z"></path></g><g opacity="1" transform="matrix(1,0,0,1,133.36099243164062,302.3160095214844)"><path fill="rgb(0,0,0)" fill-opacity="1" d=" M13.520999908447266,-93.5199966430664 C13.520999908447266,-93.5199966430664 13.520999908447266,70.95600128173828 13.520999908447266,70.95600128173828 C13.520999908447266,70.95600128173828 -10.118000030517578,93.53099822998047 -10.118000030517578,93.53099822998047 C-10.74899959564209,31.19700050354004 -13.520000457763672,-31.02199935913086 -12.300000190734863,-93.53099822998047 C-12.300000190734863,-93.53099822998047 13.520999908447266,-93.5199966430664 13.520999908447266,-93.5199966430664z"></path></g><g opacity="1" transform="matrix(1,0,0,1,169.46499633789062,282.96600341796875)"><path fill="rgb(0,0,0)" fill-opacity="1" d=" M9.689000129699707,-74.18000030517578 C9.689000129699707,-74.18000030517578 7.492000102996826,60.16999816894531 7.492000102996826,60.16999816894531 C7.492000102996826,60.16999816894531 -7.506999969482422,74.18099975585938 -7.506999969482422,74.18099975585938 C-7.506999969482422,74.18099975585938 -9.689000129699707,-74.18099975585938 -9.689000129699707,-74.18099975585938 C-9.689000129699707,-74.18099975585938 9.689000129699707,-74.18000030517578 9.689000129699707,-74.18000030517578z"></path></g><g opacity="1" transform="matrix(1,0,0,1,275.7090148925781,69.10800170898438)"><path fill="rgb(0,0,0)" fill-opacity="1" d=" M21.957000732421875,-15.045999526977539 C30.944000244140625,1.4739999771118164 24.82200050354004,22.520000457763672 5.623000144958496,23.763999938964844 C-30.944000244140625,26.135000228881836 -28.503000259399414,-21.509000778198242 -0.6909999847412109,-25.104000091552734 C7.291999816894531,-26.135000228881836 18.767000198364258,-20.90999984741211 21.957000732421875,-15.045999526977539z"></path></g><g opacity="1" transform="matrix(1,0,0,1,111.71900177001953,125.22799682617188)"><path fill="rgb(0,0,0)" fill-opacity="1" d=" M22.746999740600586,-57.74700164794922 C3.049999952316284,-64.21800231933594 -12.307999610900879,-64.13999938964844 -30.82900047302246,-54.422000885009766 C-74.30899810791016,-31.606000900268555 -69.60199737548828,21.924999237060547 -70.2300033569336,64.21800231933594 C-70.2300033569336,64.21800231933594 67.4260025024414,64.21800231933594 67.4260025024414,64.21800231933594 C74.24299621582031,19.61199951171875 74.30999755859375,-40.80799865722656 22.746999740600586,-57.74700164794922z M2.7709999084472656,39.87900161743164 C-37.98899841308594,44.8129997253418 -45.20600128173828,-16.922000885009766 -7.5269999504089355,-24.718000411987305 C35.49399948120117,-33.619998931884766 51.00600051879883,34.04100036621094 2.7709999084472656,39.87900161743164z"></path></g><g opacity="1" transform="matrix(1,0,0,1,461.8399963378906,336.61199951171875)"><path fill="rgb(0,0,0)" fill-opacity="1" d=" M-16.131999969482422,-134.2469940185547 C-16.131999969482422,-134.2469940185547 -16.131999969482422,104.28500366210938 -16.131999969482422,104.28500366210938 C-7.249000072479248,111.60700225830078 0.7770000100135803,123.29299926757812 9.664999961853027,130.09800720214844 C11.833999633789062,131.75799560546875 12.376999855041504,134.2469940185547 16.131999969482422,133.30999755859375 C16.131999969482422,133.30999755859375 16.131999969482422,-134.2469940185547 16.131999969482422,-134.2469940185547 C16.131999969482422,-134.2469940185547 -16.131999969482422,-134.2469940185547 -16.131999969482422,-134.2469940185547z"></path></g><g opacity="1" transform="matrix(1,0,0,1,421.0409851074219,312.9649963378906)"><path fill="rgb(0,0,0)" fill-opacity="1" d=" M-11.909000396728516,-111.80599975585938 C-11.909000396728516,-111.80599975585938 -14.005999565124512,87.03900146484375 -14.005999565124512,87.03900146484375 C-14.005999565124512,87.03900146484375 9.59000015258789,111.80599975585938 9.59000015258789,111.80599975585938 C9.59000015258789,111.80599975585938 14.005999565124512,-110.85900115966797 14.005999565124512,-110.85900115966797 C7.0320000648498535,-111.80599975585938 -2.0309998989105225,-111.80599975585938 -11.909000396728516,-111.80599975585938z"></path></g><g opacity="1" transform="matrix(1,0,0,1,383.947998046875,294.69000244140625)"><path fill="rgb(0,0,0)" fill-opacity="1" d=" M-13.520000457763672,-93.5199966430664 C-13.520000457763672,-93.5199966430664 -13.520000457763672,70.95600128173828 -13.520000457763672,70.95600128173828 C-13.520000457763672,70.95600128173828 10.119000434875488,93.53099822998047 10.119000434875488,93.53099822998047 C10.75,31.19700050354004 13.520999908447266,-31.02199935913086 12.300999641418457,-93.53099822998047 C12.300999641418457,-93.53099822998047 -13.520000457763672,-93.5199966430664 -13.520000457763672,-93.5199966430664z"></path></g><g opacity="1" transform="matrix(1,0,0,1,347.843994140625,275.3399963378906)"><path fill="rgb(0,0,0)" fill-opacity="1" d=" M-9.689000129699707,-74.18000030517578 C-9.689000129699707,-74.18000030517578 -7.492000102996826,60.16999816894531 -7.492000102996826,60.16999816894531 C-7.492000102996826,60.16999816894531 7.506999969482422,74.18099975585938 7.506999969482422,74.18099975585938 C7.506999969482422,74.18099975585938 9.6899995803833,-74.18099975585938 9.6899995803833,-74.18099975585938 C9.6899995803833,-74.18099975585938 -9.689000129699707,-74.18000030517578 -9.689000129699707,-74.18000030517578z"></path></g><g opacity="1" transform="matrix(1,0,0,1,405.5899963378906,117.60199737548828)"><path fill="rgb(0,0,0)" fill-opacity="1" d=" M-67.42500305175781,64.21800231933594 C-67.42500305175781,64.21800231933594 70.23100280761719,64.21800231933594 70.23100280761719,64.21800231933594 C69.60299682617188,21.924999237060547 74.30999755859375,-31.606000900268555 30.82900047302246,-54.422000885009766 C12.309000015258789,-64.13999938964844 -3.0490000247955322,-64.21800231933594 -22.746999740600586,-57.74800109863281 C-74.30899810791016,-40.80799865722656 -74.24299621582031,19.61199951171875 -67.42500305175781,64.21800231933594z M7.5279998779296875,-24.718000411987305 C45.207000732421875,-16.922000885009766 37.98899841308594,44.8120002746582 -2.7709999084472656,39.87900161743164 C-51.00600051879883,34.04100036621094 -35.49300003051758,-33.619998931884766 7.5279998779296875,-24.718000411987305z"></path></g></g></g></svg>