<svg xmlns="http://www.w3.org/2000/svg" xmlns:xlink="http://www.w3.org/1999/xlink" viewBox="0 0 512 512" width="512" height="512" style="width: 100%; height: 100%; transform: translate3d(0,0,0);" preserveAspectRatio="xMidYMid meet"><defs><clipPath id="__lottie_element_52235"><rect width="512" height="512" x="0" y="0"></rect></clipPath></defs><g clip-path="url(#__lottie_element_52235)"><g style="display: block;" transform="matrix(1.0299999713897705,0,0,1.0299999713897705,-574.17822265625,-1933.57373046875)" opacity="1"><g opacity="1" transform="matrix(1,0,0,1,0,0)"><g opacity="1" transform="matrix(1,0,0,1,804.47998046875,2119.962890625)"><path fill="rgb(0,0,0)" fill-opacity="1" d=" M-46.69499969482422,123.5770034790039 C-54.099998474121094,134.06700134277344 -47.49100112915039,148.69700622558594 -47.64099884033203,160.62100219726562 C-46.02000045776367,186.82200622558594 -47.702999114990234,213.5659942626953 -54.59600067138672,238.95899963378906 C-57.66699981689453,248.18499755859375 -66.40699768066406,248.6540069580078 -75.72100067138672,248.76199340820312 C-85.9000015258789,247.89100646972656 -104.04100036621094,253.0229949951172 -106.63300323486328,239.531005859375 C-107.32499694824219,215.04200744628906 -93.70099639892578,140.44400024414062 -115.27300262451172,125.41899871826172 C-136.2550048828125,116.7300033569336 -151.75,100.3740005493164 -165.5279998779297,82.58000183105469 C-186.61300659179688,58.98400115966797 -201.12399291992188,29.601999282836914 -196.62399291992188,-2.9030001163482666 C-194.88400268554688,-22.976999282836914 -187.1490020751953,-42.117000579833984 -179.47300720214844,-60.415000915527344 C-176.23399353027344,-69.13400268554688 -168.08599853515625,-83.28199768066406 -181.7530059814453,-86.1449966430664 C-193.73500061035156,-88.55000305175781 -206.3719940185547,-86.52799987792969 -218.34800720214844,-89.16699981689453 C-234.093994140625,-92.60299682617188 -230.5540008544922,-112.90299987792969 -231.8780059814453,-125.48799896240234 C-230.67300415039062,-137.89599609375 -238.06399536132812,-158.3179931640625 -225.5590057373047,-165.81399536132812 C-208.26800537109375,-171.61900329589844 -186.31900024414062,-164.22900390625 -170.718994140625,-175.05999755859375 C-161.5469970703125,-183.53799438476562 -151.2449951171875,-190.25900268554688 -138.16900634765625,-188.85800170898438 C-94.52100372314453,-190.67999267578125 -88.23899841308594,-170.9219970703125 -84.85199737548828,-225.20799255371094 C-78.76399993896484,-255.30799865722656 -64.46199798583984,-222.39100646972656 -62.382999420166016,-209.7259979248047 C-51.082000732421875,-160.4550018310547 -55.042999267578125,-109.25700378417969 -53.46900177001953,-59.099998474121094 C-55.361000061035156,-25.722999572753906 -45.367000579833984,-27.22599983215332 -16.476999282836914,-27.85700035095215 C17.101999282836914,-28.14900016784668 50.61000061035156,-28.89299964904785 84.20099639892578,-28.347999572753906 C92.05000305175781,-28.4060001373291 101,-28.15399932861328 107.91200256347656,-31.173999786376953 C118.7229995727539,-35.165000915527344 119.48400115966797,-50.54600143432617 130.7270050048828,-54.132999420166016 C140.56399536132812,-56.10300064086914 153.29400634765625,-47.66899871826172 153.468994140625,-37.07699966430664 C154.41400146484375,-25.051000595092773 145.56900024414062,-14.90999984741211 145.0590057373047,-3.259999990463257 C145.73899841308594,6.099999904632568 154.7100067138672,12.531999588012695 158.72000122070312,20.645000457763672 C164.8040008544922,30.975000381469727 166.6959991455078,43.07899856567383 168.4600067138672,55.016998291015625 C169.56700134277344,83.88700103759766 183.35699462890625,108.47000122070312 205.12399291992188,126.98100280761719 C213.97000122070312,136.33299255371094 226.73699951171875,143.69700622558594 232.52499389648438,155.26100158691406 C238.06399536132812,177.7429962158203 233.72799682617188,201.98599243164062 234.947998046875,225.06399536132812 C235.8730010986328,241.92100524902344 231.43699645996094,250.0399932861328 213.10000610351562,248.75599670410156 C202.25399780273438,247.2270050048828 174.86399841308594,254.47900390625 172.0780029296875,240.1009979248047 C170.1020050048828,223.7899932861328 187.0469970703125,208.14999389648438 181.2270050048828,192.0970001220703 C177.7519989013672,186.5229949951172 171.18699645996094,182.8209991455078 165.89300537109375,178.927001953125 C135.61099243164062,159.17100524902344 107.76399993896484,134.6999969482422 74.75800323486328,119.61399841308594 C64.68399810791016,114.22899627685547 40.314998626708984,118.0250015258789 62.724998474121094,126.83599853515625 C79.06800079345703,133.31300354003906 91.56400299072266,146.27999877929688 104.97899627685547,157.49400329589844 C120.7699966430664,168.77999877929688 125.447998046875,179.68299865722656 117.34500122070312,198.14500427246094 C113.09400177001953,210.052001953125 108.70800018310547,221.94900512695312 104.27300262451172,234.10499572753906 C101.90899658203125,243.06900024414062 94.76200103759766,249.12100219726562 85.33999633789062,248.98199462890625 C69.10299682617188,249.2030029296875 50.91600036621094,255.3070068359375 35.71900177001953,248.83099365234375 C25.55500030517578,239.60800170898438 61.0099983215332,211.47500610351562 62.58300018310547,198.0659942626953 C66.33000183105469,183.5030059814453 48.470001220703125,175.08200073242188 39.862998962402344,166.13999938964844 C29.604999542236328,157.20399475097656 20.356000900268555,147.33399963378906 12.531000137329102,136.24000549316406 C6.848999977111816,126.68900299072266 -1.3140000104904175,118.25299835205078 -13.244999885559082,118.9530029296875 C-23.902000427246094,119.4530029296875 -37.630001068115234,116.15399932861328 -46.58100128173828,123.45600128173828 C-46.58100128173828,123.45600128173828 -46.69499969482422,123.5770034790039 -46.69499969482422,123.5770034790039z M-153.39599609375,-158.10800170898438 C-155.16900634765625,-154.81900024414062 -151.23199462890625,-151.24000549316406 -148.39300537109375,-149.8070068359375 C-143.1750030517578,-146.7209930419922 -133.74200439453125,-149.84300231933594 -132.30499267578125,-155.11900329589844 C-130.64199829101562,-162.66600036621094 -150.79100036621094,-162.45700073242188 -153.32000732421875,-158.22500610351562 C-153.32000732421875,-158.22500610351562 -153.39599609375,-158.10800170898438 -153.39599609375,-158.10800170898438z"></path></g><g opacity="1" transform="matrix(1,0,0,1,652.4439697265625,2292.955078125)"><path fill="rgb(0,0,0)" fill-opacity="1" d=" M-19.172000885009766,-77.80400085449219 C-18.065000534057617,-78.19200134277344 -16.726999282836914,-77.85399627685547 -15.267999649047852,-76.9280014038086 C-12.649999618530273,-75.21499633789062 -10.116000175476074,-72.28500366210938 -7.827000141143799,-69.97000122070312 C-2.9149999618530273,-64.88700103759766 2.2219998836517334,-59.233001708984375 7.5229997634887695,-54.02299880981445 C14.154999732971191,-47.50600051879883 21.684999465942383,-41.1870002746582 25.048999786376953,-32.2599983215332 C26.91699981689453,-27.518999099731445 27.799999237060547,-22.336999893188477 28.378000259399414,-17.238000869750977 C30.87700080871582,7.544000148773193 30.371999740600586,32.5359992980957 26.56800079345703,57.21099853515625 C24.731000900268555,70.21600341796875 21.172000885009766,77.96700286865234 6.6570000648498535,77.85099792480469 C-1.6649999618530273,77.86799621582031 -10.317999839782715,78.19300079345703 -18.81999969482422,77.69100189208984 C-30.878000259399414,76.74600219726562 -28.854999542236328,64.27400207519531 -28.378000259399414,55.33300018310547 C-26.30900001525879,26.2810001373291 -20.586999893188477,-2.558000087738037 -21.645999908447266,-31.764999389648438 C-21.72599983215332,-41.012001037597656 -22.172000885009766,-50.70899963378906 -22.5939998626709,-59.77899932861328 C-22.506999969482422,-64.54299926757812 -23.87299919128418,-75.33399963378906 -19.26799964904785,-77.76799774169922 C-19.26799964904785,-77.76799774169922 -19.172000885009766,-77.80400085449219 -19.172000885009766,-77.80400085449219z"></path></g></g></g></g></svg>