<svg xmlns="http://www.w3.org/2000/svg" xmlns:xlink="http://www.w3.org/1999/xlink" viewBox="0 0 512 512" width="512" height="512" style="width: 100%; height: 100%; transform: translate3d(0,0,0);" preserveAspectRatio="xMidYMid meet"><defs><clipPath id="__lottie_element_53184"><rect width="512" height="512" x="0" y="0"></rect></clipPath></defs><g clip-path="url(#__lottie_element_53184)"><g style="display: block;" transform="matrix(1,0,0,1,5.024993896484375,37.9219970703125)" opacity="1"><g opacity="1" transform="matrix(1,0,0,1,253.61199951171875,217.61599731445312)"><path fill="rgb(0,0,0)" fill-opacity="1" d=" M211.63800048828125,-55.07099914550781 C210.92799377441406,-92.35199737548828 179.80799865722656,-159.46099853515625 165.63800048828125,-175.77999877929688 C132.36700439453125,-214.08099365234375 56.72800064086914,-217.36599731445312 -8.362000465393066,-216.4029998779297 C-79.14199829101562,-215.3470001220703 -164.65199279785156,-197.49600219726562 -193.36199951171875,-164.17300415039062 C-201.38299560546875,-154.86500549316406 -233.36199951171875,-79.44499969482422 -227.83200073242188,-30.825000762939453 C-225.9720001220703,-14.505999565124512 -253.36199951171875,58.67300033569336 -247.36199951171875,116.70700073242188 C-244.76199340820312,141.88099670410156 -232.66900634765625,165.45399475097656 -211.36199951171875,164.29299926757812 C-198.2220001220703,163.5780029296875 -190.64300537109375,150.31399536132812 -179.66900634765625,144.56199645996094 C-163.197998046875,135.92999267578125 -108.66899871826172,114.38500213623047 1.3309999704360962,115.54499816894531 C94.39199829101562,116.53199768066406 178.5469970703125,126.0719985961914 179.36300659179688,143.46200561523438 C180.1219940185547,159.67999267578125 91.29100036621094,170.58799743652344 19.33099937438965,175.41799926757812 C-33.04600143432617,178.93299865722656 -57.560001373291016,174.2469940185547 -102.66899871826172,171.77499389648438 C-126.63700103759766,170.46200561523438 -135.63699340820312,193.46200561523438 -112.66899871826172,201.30999755859375 C-71.84500122070312,215.2570037841797 -20.714000701904297,217.36599731445312 24.33099937438965,216.5229949951172 C97.54900360107422,215.1540069580078 210.36300659179688,206.81700134277344 236.36300659179688,146.46200561523438 C257.74200439453125,96.84400177001953 212.20700073242188,-25.010000228881836 211.63800048828125,-55.07099914550781z M76.0780029296875,-22.43899917602539 C69.5790023803711,-13.819000244140625 33.71799850463867,-30.822999954223633 25.01799964904785,-19.05699920654297 C16.763999938964844,-7.894000053405762 26.913999557495117,25.457000732421875 23.160999298095703,30.507999420166016 C18.277000427246094,37.08100128173828 -24.591999053955078,39.459999084472656 -32.54100036621094,31.584999084472656 C-39.96799850463867,24.226999282836914 -33.9109992980957,-12.539999961853027 -38.111000061035156,-22.290000915527344 C-42.75299835205078,-33.066001892089844 -87.31099700927734,-14.565999984741211 -94.74099731445312,-25.34000015258789 C-99.6520004272461,-32.46099853515625 -98.072998046875,-73.08300018310547 -91.02799987792969,-79.21600341796875 C-83.60099792480469,-85.68099975585938 -43.611000061035156,-74.98300170898438 -37.18299865722656,-89.09600067138672 C-33.41400146484375,-97.37100219726562 -41.821998596191406,-139.73800659179688 -34.39699935913086,-149.43699645996094 C-27.51799964904785,-158.4239959716797 21.969999313354492,-159.10400390625 25.01799964904785,-142.9720001220703 C27.655000686645508,-129.0189971923828 16.16699981689453,-98.55000305175781 26.875,-85.86299896240234 C36.715999603271484,-74.20500183105469 66.75700378417969,-82.52100372314453 76.0780029296875,-77.39299774169922 C85.87200164794922,-72.00499725341797 82.92400360107422,-31.518999099731445 76.0780029296875,-22.43899917602539z"></path></g></g></g></svg>