<svg xmlns="http://www.w3.org/2000/svg" xmlns:xlink="http://www.w3.org/1999/xlink" viewBox="0 0 512 512" width="512" height="512" style="width: 100%; height: 100%; transform: translate3d(0,0,0);" preserveAspectRatio="xMidYMid meet"><defs><clipPath id="__lottie_element_51535"><rect width="512" height="512" x="0" y="0"></rect></clipPath></defs><g clip-path="url(#__lottie_element_51535)"><g style="display: block;" transform="matrix(1,0,0,1,0,0)" opacity="1"><g opacity="1" transform="matrix(1,0,0,1,256.489990234375,253.59300231933594)"><path fill="rgb(0,0,0)" fill-opacity="1" d=" M249.46400451660156,-72.86100006103516 C225.5399932861328,-103.96299743652344 142.4429931640625,-200.66299438476562 0.703000009059906,-250.14100646972656 C0.5120000243186951,-250.20799255371094 -0.42500001192092896,-250.23800659179688 -0.5740000009536743,-250.18699645996094 C-142.39300537109375,-200.7220001220703 -225.531005859375,-103.9729995727539 -249.46200561523438,-72.86100006103516 C-253.90699768066406,-67.08300018310547 -254.322998046875,-59.04600143432617 -250.52200317382812,-52.79899978637695 C-250.52200317382812,-52.79899978637695 -231.1580047607422,-20.974000930786133 -231.1580047607422,-20.974000930786133 C-227.15899658203125,-14.402999877929688 -218.0970001220703,-13.74899959564209 -213.26800537109375,-19.69700050354004 C-203.5749969482422,-31.635000228881836 -162.53599548339844,-78.16200256347656 -136.86700439453125,-86.51599884033203 C-136.86700439453125,-86.51599884033203 -168.47500610351562,-54.95500183105469 -183.98199462890625,-16.722999572753906 C-186.5760040283203,45.25400161743164 -186.02000427246094,101.58599853515625 -182.43600463867188,152.4949951171875 C-163.91299438476562,164.08599853515625 -128.11700439453125,173.37600708007812 -128.11700439453125,173.37600708007812 C-162.23399353027344,173.37600708007812 -176.81500244140625,170.33999633789062 -182.45399475097656,168.5449981689453 C-182.45399475097656,168.5449981689453 -186.52000427246094,168.5449981689453 -186.52000427246094,168.5449981689453 C-196.37399291992188,168.5449981689453 -204.36300659179688,176.7790069580078 -204.36300659179688,186.93499755859375 C-204.36300659179688,186.93499755859375 -204.36300659179688,219.71800231933594 -204.36300659179688,219.71800231933594 C-204.36300659179688,229.87399291992188 -196.37399291992188,238.10800170898438 -186.52000427246094,238.10800170898438 C-78.85399627685547,250.23800659179688 47.05799865722656,250.02499389648438 190.27000427246094,238.10800170898438 C200.125,238.10800170898438 208.11199951171875,229.87399291992188 208.11199951171875,219.71800231933594 C208.11199951171875,219.71800231933594 208.11199951171875,186.93499755859375 208.11199951171875,186.93499755859375 C208.11199951171875,176.7790069580078 200.125,168.5449981689453 190.27000427246094,168.5449981689453 C190.27000427246094,168.5449981689453 187.08099365234375,168.5449981689453 187.08099365234375,168.5449981689453 C180.17599487304688,170.33900451660156 165.28500366210938,172.73300170898438 134.99099731445312,172.73300170898438 C134.99099731445312,172.73300170898438 169.5279998779297,163.77000427246094 188.3090057373047,152.46600341796875 C191.31500244140625,108.00700378417969 191.28599548339844,54.54600143432617 188.83999633789062,-6.080999851226807 C175.5659942626953,-48.91600036621094 137.9080047607422,-86.51599884033203 137.9080047607422,-86.51599884033203 C167.8070068359375,-76.78500366210938 204.656005859375,-30.30299949645996 213.26800537109375,-19.69700050354004 C218.0970001220703,-13.74899959564209 227.16000366210938,-14.402999877929688 231.1580047607422,-20.974000930786133 C231.1580047607422,-20.974000930786133 250.52200317382812,-52.79899978637695 250.52200317382812,-52.79899978637695 C254.322998046875,-59.04600143432617 253.9080047607422,-67.08300018310547 249.46400451660156,-72.86100006103516z M-90.33499908447266,-90.89600372314453 C-89.47200012207031,-101.58799743652344 -80.89900207519531,-110.21099853515625 -70.50700378417969,-110.86199951171875 C-58.54399871826172,-111.61100006103516 -48.58599853515625,-102.13600158691406 -48.007999420166016,-90.11900329589844 C-48.007999420166016,-90.11900329589844 51.340999603271484,-90.11900329589844 51.340999603271484,-90.11900329589844 C51.91899871826172,-102.13600158691406 61.87699890136719,-111.61100006103516 73.83999633789062,-110.86199951171875 C84.23100280761719,-110.21099853515625 92.80599975585938,-101.58799743652344 93.66799926757812,-90.89600372314453 C94.33499908447266,-82.63600158691406 90.54199981689453,-75.24299621582031 84.50499725341797,-70.9749984741211 C90.54100036621094,-66.70899963378906 94.33399963378906,-59.31700134277344 93.66899871826172,-51.058998107910156 C92.80400085449219,-40.314998626708984 84.15399932861328,-31.67099952697754 73.70899963378906,-31.08099937438965 C61.624000549316406,-30.399999618530273 51.608001708984375,-40.145999908447266 51.31399917602539,-52.37900161743164 C51.31399917602539,-52.37900161743164 -47.981998443603516,-52.37900161743164 -47.981998443603516,-52.37900161743164 C-48.2760009765625,-40.145999908447266 -58.29100036621094,-30.399999618530273 -70.37699890136719,-31.08099937438965 C-80.82099914550781,-31.67099952697754 -89.47000122070312,-40.314998626708984 -90.33499908447266,-51.058998107910156 C-91,-59.31700134277344 -87.20800018310547,-66.70899963378906 -81.1719970703125,-70.9749984741211 C-87.20899963378906,-75.24299621582031 -91.00199890136719,-82.63600158691406 -90.33499908447266,-90.89600372314453z M42.49700164794922,169.51199340820312 C49.28099822998047,157.6300048828125 49.99800109863281,122.81500244140625 41.24800109863281,111.86599731445312 C41.24800109863281,111.86599731445312 22.031999588012695,171.5919952392578 -21.249000549316406,170.47799682617188 C-37.145999908447266,170.06900024414062 -45.452999114990234,169.44400024414062 -58.26499938964844,159.73699951171875 C-78.33599853515625,144.5290069580078 -85.62000274658203,120.23699951171875 -85.62000274658203,92.86499786376953 C-85.62000274658203,46.79800033569336 -46.167999267578125,9.454000473022461 2.5,9.454000473022461 C51.16699981689453,9.454000473022461 90.61900329589844,46.79800033569336 90.61900329589844,92.86499786376953 C90.61900329589844,120.86100006103516 84.99500274658203,163.39300537109375 42.49700164794922,169.51199340820312z"></path></g></g></g></svg>