<svg xmlns="http://www.w3.org/2000/svg" xmlns:xlink="http://www.w3.org/1999/xlink" viewBox="0 0 512 512" width="512" height="512" style="width: 100%; height: 100%; transform: translate3d(0,0,0);" preserveAspectRatio="xMidYMid meet"><defs><clipPath id="__lottie_element_27214"><rect width="512" height="512" x="0" y="0"></rect></clipPath></defs><g clip-path="url(#__lottie_element_27214)"><g style="display: block;" transform="matrix(1,0,0,1,0,0)" opacity="1"><g opacity="1" transform="matrix(1,0,0,1,255.83900451660156,256)"><path fill="rgb(52,52,52)" fill-opacity="1" d=" M204.45799255371094,47.53200149536133 C201.22300720214844,18.83099937438965 194.89300537109375,-13.303999900817871 172.4510040283203,-34.01900100708008 C150.42599487304688,-54.35100173950195 115.70899963378906,-62.33399963378906 63.198001861572266,-59.132999420166016 C47.76499938964844,-58.19300079345703 33.16400146484375,-56.61199951171875 19.42799949645996,-54.60300064086914 C20.749000549316406,-61.64899826049805 21.85099983215332,-68.51899719238281 22.770000457763672,-75.21399688720703 C101.6520004272461,-65.54900360107422 124.51599884033203,-78.74600219726562 147.57699584960938,-98.25700378417969 C164.41799926757812,-112.50700378417969 172.36700439453125,-137.13400268554688 168.83799743652344,-164.13499450683594 C165.92300415039062,-186.44700622558594 155.86599731445312,-204.73399353027344 143.2209930419922,-210.7259979248047 C123.89299774169922,-219.87899780273438 107.72699737548828,-208.13600158691406 89.01000213623047,-194.53700256347656 C71.51799774169922,-181.8260040283203 51.82500076293945,-167.4759979248047 24.731000900268555,-166.43600463867188 C23.9060001373291,-174.51600646972656 22.871000289916992,-181.81100463867188 21.76300048828125,-188.2480010986328 C16.176000595092773,-220.697998046875 5.703999996185303,-247.0760040283203 -3.7049999237060547,-252.3939971923828 C-17.757999420166016,-260.33599853515625 -41.05699920654297,-253.3769989013672 -53.69599914550781,-248.5229949951172 C-71.71800231933594,-241.6009979248047 -89.17900085449219,-230.84800720214844 -96.15799713134766,-222.3719940185547 C-108.9260025024414,-206.8679962158203 -97.83499908447266,-190.30499267578125 -83.79299926757812,-169.3350067138672 C-82.04399871826172,-166.7220001220703 -80.23500061035156,-164.02200317382812 -78.40499877929688,-161.2270050048828 C-126.62899780273438,-155.16600036621094 -158.54100036621094,-144.66400146484375 -170.78799438476562,-134.45899963378906 C-186.38900756835938,-121.45800018310547 -198.0469970703125,-92.88300323486328 -202.77099609375,-56.0629997253418 C-206.8459930419922,-24.304000854492188 -204.96200561523438,7.932000160217285 -198.08099365234375,24.150999069213867 C-189.406005859375,44.5989990234375 -174.36399841308594,55.1870002746582 -152.0959930419922,56.51900100708008 C-132.6999969482422,57.678001403808594 -110.1729965209961,51.45800018310547 -90.58300018310547,45.5359992980957 C-82.79000091552734,43.17900085449219 -73.23799896240234,41.0099983215332 -62.57899856567383,39.16699981689453 C-64.13899993896484,51.595001220703125 -65.70999908447266,65.21099853515625 -67.1050033569336,79.33599853515625 C-74.20999908447266,79.76799774169922 -81.25499725341797,80.44100189208984 -88.21600341796875,81.36599731445312 C-138.4929962158203,88.04299926757812 -177.03500366210938,107.31700134277344 -191.3159942626953,132.9239959716797 C-207.86700439453125,162.6020050048828 -199.03599548339844,193.47799682617188 -182.9409942626953,210.91400146484375 C-173.43600463867188,221.21099853515625 -161.98899841308594,226.6999969482422 -150.99000549316406,226.6999969482422 C-146.4290008544922,226.6999969482422 -141.94400024414062,225.75599670410156 -137.70700073242188,223.81900024414062 C-123.89900207519531,217.5070037841797 -114.68499755859375,207.38099670410156 -105.77300262451172,197.58799743652344 C-96.45500183105469,187.3489990234375 -86.97899627685547,176.9409942626953 -71.84200286865234,170.1699981689453 C-71.17900085449219,219.8260040283203 -62.8489990234375,246.85499572753906 -46.604000091552734,252.38400268554688 C-39.50299835205078,254.802001953125 -30.944000244140625,256 -21.597000122070312,256 C-10.02400016784668,256 2.755000114440918,254.16200256347656 15.461999893188477,250.5240020751953 C38.18000030517578,244.02099609375 55.14400100708008,233.55299377441406 60.84000015258789,222.5229949951172 C67.04100036621094,210.51300048828125 58.29100036621094,201.73399353027344 52.52299880981445,197.57000732421875 C42.82500076293945,190.57000732421875 34.558998107910156,182.33599853515625 27.67799949645996,172.83099365234375 C30.41900062561035,173.79400634765625 33.20000076293945,174.79299926757812 36.01900100708008,175.8070068359375 C62.15599822998047,185.21200561523438 94.68199920654297,196.91000366210938 132.0330047607422,191.76300048828125 C146.8459930419922,189.718994140625 167.0229949951172,170.37399291992188 182.24200439453125,143.625 C199.77000427246094,112.81600189208984 207.86700439453125,77.79199981689453 204.45799255371094,47.53200149536133z M-52.31100082397461,-39.09700012207031 C-68.53399658203125,-34.48500061035156 -82.31199645996094,-29.868000030517578 -93.46399688720703,-26.128999710083008 C-108.88600158691406,-20.95800018310547 -121.06900024414062,-16.878999710083008 -124.60099792480469,-18.17300033569336 C-131.5780029296875,-20.743999481201172 -133.98199462890625,-26.672000885009766 -134.77000427246094,-31.19300079345703 C-136.47900390625,-41.005001068115234 -132.29299926757812,-55.861000061035156 -119.09300231933594,-66.93299865722656 C-110.24700164794922,-74.35099792480469 -85.16600036621094,-79.90899658203125 -51.933998107910156,-80.66200256347656 C-51.18000030517578,-67.447998046875 -51.284000396728516,-53.255001068115234 -52.31100082397461,-39.09700012207031z M4.396999835968018,33.198001861572266 C31.007999420166016,32.92599868774414 57.19300079345703,35.314998626708984 76.79100036621094,41.722999572753906 C94.76799774169922,47.599998474121094 100.40899658203125,58.7599983215332 101.97799682617188,67.08799743652344 C104.51599884033203,80.5739974975586 98.0459976196289,94.2979965209961 90.66899871826172,100.36399841308594 C88.28500366210938,102.32599639892578 83.54199981689453,105.31700134277344 78.54499816894531,103.31999969482422 C53.89400100708008,93.45899963378906 27.993999481201172,86.49700164794922 1.9240000247955322,82.55999755859375 C1.5290000438690186,66.3280029296875 2.555999994277954,49.672000885009766 4.396999835968018,33.198001861572266z"></path></g></g></g></svg>