<svg xmlns="http://www.w3.org/2000/svg" xmlns:xlink="http://www.w3.org/1999/xlink" viewBox="0 0 512 512" width="512" height="512" style="width: 100%; height: 100%; transform: translate3d(0,0,0);" preserveAspectRatio="xMidYMid meet"><defs><clipPath id="__lottie_element_53150"><rect width="512" height="512" x="0" y="0"></rect></clipPath></defs><g clip-path="url(#__lottie_element_53150)"><g style="display: block;" transform="matrix(1,0,0,1,264.739013671875,240.11900329589844)" opacity="1"><g opacity="1" transform="matrix(1,0,0,1,0,0)"><path fill="rgb(4,5,52)" fill-opacity="1" d=" M17.584999084472656,-33.3129997253418 C-2.180000066757202,-27.666000366210938 -8.956000328063965,-9.595999717712402 -18.555999755859375,-1.125 C-28.1560001373291,7.3460001945495605 -50.18000030517578,9.734000205993652 -51.308998107910156,15.880999565124512 C-52.4379997253418,22.027999877929688 -14.604000091552734,35.58100128173828 24.361000061035156,33.321998596191406 C63.32600021362305,31.062999725341797 79.7020034790039,11.86400032043457 79.7020034790039,11.86400032043457 C79.7020034790039,11.86400032043457 90.43099975585938,44.05099868774414 111.88999938964844,54.215999603271484 C133.3489990234375,64.38099670410156 144.07899475097656,67.2040023803711 147.4669952392578,70.02799987792969 C150.85499572753906,72.85199737548828 179.08999633789062,132.71099853515625 207.88999938964844,124.80500030517578 C236.69000244140625,116.89900207519531 205.63099670410156,76.23999786376953 207.88999938964844,53.652000427246094 C210.1490020751953,31.06399917602539 227.09100341796875,10.168999671936035 216.92599487304688,-36.70100021362305 C206.76100158691406,-83.57099914550781 150.29100036621094,-126.48899841308594 97.77300262451172,-141.73599243164062 C97.77300262451172,-141.73599243164062 91.56099700927734,-111.80699920654297 67.27899932861328,-95.99500274658203 C67.27899932861328,-95.99500274658203 89.16600036621094,-121.40699768066406 84.43399810791016,-145.68899536132812 C79.7020034790039,-169.9709930419922 53.1609992980957,-204.41900634765625 22.66699981689453,-217.40699768066406 C-7.827000141143799,-230.39500427246094 -32.67399978637695,-229.26600646972656 -36.0620002746582,-227.0070037841797 C-39.45000076293945,-224.7480010986328 -16.863000869750977,-207.24200439453125 -12.345000267028809,-192.55999755859375 C-7.827000141143799,-177.8780059814453 -7.827000141143799,-166.58299255371094 -14.602999687194824,-161.50100708007812 C-21.378999710083008,-156.41900634765625 -67.68599700927734,-159.24200439453125 -132.6269989013672,-103.33599853515625 C-197.5679931640625,-47.43000030517578 -215.07400512695312,46.875 -174.4149932861328,136.66299438476562 C-174.4149932861328,136.66299438476562 -197.0030059814453,149.08700561523438 -207.73199462890625,165.46299743652344 C-218.46099853515625,181.83900451660156 -222.97999572753906,222.49899291992188 -218.46200561523438,227.58099365234375 C-213.94400024414062,232.66299438476562 -161.42599487304688,214.0279998779297 -152.39100646972656,180.14599609375 C-152.39100646972656,180.14599609375 -137.14500427246094,195.95799255371094 -115.68599700927734,199.3459930419922 C-94.22699737548828,202.73399353027344 -68.25,199.91000366210938 -66.55599975585938,196.52200317382812 C-64.86199951171875,193.13400268554688 -76.15599822998047,159.25100708007812 -94.22699737548828,144.56900024414062 C-112.2979965209961,129.88699340820312 -141.66200256347656,131.01600646972656 -141.66200256347656,131.01600646972656 C-141.66200256347656,131.01600646972656 -157.4739990234375,88.0989990234375 -136.5800018310547,35.58100128173828 C-115.68599700927734,-16.937000274658203 -33.237998962402344,-66.63099670410156 17.584999084472656,-33.3129997253418z"></path></g></g></g></svg>