<svg xmlns="http://www.w3.org/2000/svg" xmlns:xlink="http://www.w3.org/1999/xlink" viewBox="0 0 512 512" width="512" height="512" style="width: 100%; height: 100%; transform: translate3d(0,0,0);" preserveAspectRatio="xMidYMid meet"><defs><clipPath id="__lottie_element_51199"><rect width="512" height="512" x="0" y="0"></rect></clipPath></defs><g clip-path="url(#__lottie_element_51199)"><g style="display: block;" transform="matrix(1,0,0,1,0,0)" opacity="1"><g opacity="1" transform="matrix(1,0,0,1,252.62399291992188,255.41000366210938)"><path fill="rgb(0,0,0)" fill-opacity="1" d=" M246.5970001220703,150.48699951171875 C231.45899963378906,142.3280029296875 187.54100036621094,115.41999816894531 95.90899658203125,37.30799865722656 C61.43199920654297,7.918000221252441 33.22100067138672,-21.881999969482422 10.545000076293945,-49.358001708984375 C9.067000389099121,-51.14799880981445 11.055000305175781,-53.7130012512207 13.156999588012695,-52.72800064086914 C35.14699935913086,-42.41899871826172 52.21900177001953,-30.19099998474121 61.87300109863281,-22.52400016784668 C67.1719970703125,-18.315000534057617 74.39099884033203,-17.472000122070312 80.51399993896484,-20.35300064086914 C112.7020034790039,-35.49100112915039 145.947998046875,-30.0049991607666 164.19200134277344,-24.826000213623047 C172.4759979248047,-22.472999572753906 181.0489959716797,-27.43899917602539 183.26300048828125,-35.762001037597656 C192.27699279785156,-69.6510009765625 205.39700317382812,-150.52000427246094 146.322998046875,-206.03599548339844 C86.1449966430664,-262.5880126953125 20.54599952697754,-255.7030029296875 -8.711000442504883,-248.63400268554688 C-17.277999877929688,-246.56399536132812 -22.652000427246094,-238.11900329589844 -20.908000946044922,-229.47999572753906 C-9.166000366210938,-171.302001953125 -26.83300018310547,-134.25 -38.55799865722656,-117.18900299072266 C-51.61000061035156,-138.00900268554688 -59.814998626708984,-154.01300048828125 -63.880001068115234,-162.47999572753906 C-65.875,-166.63499450683594 -70.41899871826172,-168.91400146484375 -74.94499969482422,-168.04800415039062 C-98.81999969482422,-163.4810028076172 -120.98100280761719,-149.5540008544922 -127.12300109863281,-145.45700073242188 C-128.20799255371094,-144.73300170898438 -129.1490020751953,-143.81199645996094 -129.8719940185547,-142.7270050048828 C-143.9759979248047,-121.54399871826172 -148.36399841308594,-101.33899688720703 -149.72799682617188,-91.01399993896484 C-150.2740020751953,-86.88400268554688 -148.25,-82.85199737548828 -144.61700439453125,-80.81400299072266 C-138.11199951171875,-77.16500091552734 -126.31500244140625,-70.0979995727539 -110.56600189208984,-58.81800079345703 C-129.37899780273438,-48.78799819946289 -167.68299865722656,-35.861000061035156 -223.41799926757812,-53.00899887084961 C-231.22799682617188,-55.4119987487793 -239.53399658203125,-51.22999954223633 -242.2550048828125,-43.525001525878906 C-252.0850067138672,-15.6899995803833 -266.1969909667969,49.84600067138672 -214.88400268554688,115.98799896240234 C-164.91700744628906,180.3939971923828 -82.54000091552734,174.5500030517578 -48.2869987487793,168.74099731445312 C-40.025001525878906,167.33999633789062 -34.58100128173828,159.41099548339844 -36.11600112915039,151.1719970703125 C-39.612998962402344,132.3979949951172 -42.069000244140625,98.10900115966797 -23.274999618530273,67.09700012207031 C-20.083999633789062,61.83100128173828 -20.319000244140625,55.18299865722656 -23.698999404907227,50.0359992980957 C-30.722000122070312,39.34600067138672 -42.39099884033203,19.48900032043457 -50.93199920654297,-5.658999919891357 C-51.47200012207031,-7.249000072479248 -49.51900100708008,-8.508000373840332 -48.292999267578125,-7.361999988555908 C-27.636999130249023,11.942999839782715 -4.874000072479248,35.4630012512207 18.9950008392334,63.80799865722656 C65.08200073242188,118.53500366210938 99.12100219726562,166.28500366210938 121.74600219726562,200.55299377441406 C123.66300201416016,203.45599365234375 127.53500366210938,204.29299926757812 130.48399353027344,202.44700622558594 C143.63600158691406,194.21400451660156 161.86399841308594,179.37399291992188 175.91900634765625,154.73399353027344 C177.13699340820312,152.60000610351562 180.38900756835938,153.2480010986328 180.66200256347656,155.69000244140625 C182.15199279785156,169.03199768066406 180.66799926757812,198.94400024414062 146.2779998779297,228.88600158691406 C143.85400390625,230.99600219726562 143.3300018310547,234.56199645996094 144.98500061035156,237.3159942626953 C147.91400146484375,242.19000244140625 150.25599670410156,246.2010040283203 152.01300048828125,249.26499938964844 C154.427001953125,253.47500610351562 159.4929962158203,255.41000366210938 164.0760040283203,253.81300354003906 C230.48500061035156,230.67799377441406 247.4949951171875,180.8990020751953 251.67100524902344,161.5590057373047 C252.62399291992188,157.14500427246094 250.572998046875,152.6300048828125 246.5970001220703,150.48699951171875z M40.15399932861328,-211.2449951171875 C55.92399978637695,-209.71299743652344 92.66999816894531,-202.83999633789062 120.14600372314453,-172.10400390625 C135.75999450683594,-154.63800048828125 148.37899780273438,-129.4669952392578 152.45599365234375,-93.19100189208984 C152.61300659179688,-91.79199981689453 150.63299560546875,-91.3239974975586 150.14500427246094,-92.6449966430664 C144.82899475097656,-107.0469970703125 132.50799560546875,-135.38299560546875 110.33799743652344,-160.97300720214844 C92.9729995727539,-181.01600646972656 67.93099975585938,-197.56900024414062 39.58599853515625,-208.947998046875 C38.303001403808594,-209.46299743652344 38.77799987792969,-211.37899780273438 40.15399932861328,-211.2449951171875z M-86.96199798583984,126.70800018310547 C-102.7300033569336,125.16999816894531 -139.4759979248047,118.28500366210938 -166.9429931640625,87.53800201416016 C-182.5489959716797,70.06600189208984 -195.16000366210938,44.89099884033203 -199.2239990234375,8.61400032043457 C-199.38099670410156,7.215000152587891 -197.39999389648438,6.747000217437744 -196.91299438476562,8.067999839782715 C-191.6020050048828,22.472999572753906 -179.29100036621094,50.8129997253418 -157.1300048828125,76.41000366210938 C-139.77200317382812,96.45999908447266 -114.73600006103516,113.02100372314453 -86.39399719238281,124.41100311279297 C-85.11100006103516,124.9260025024414 -85.58699798583984,126.84200286865234 -86.96199798583984,126.70800018310547z M-77.0459976196289,-135.61000061035156 C-81.53500366210938,-106.49099731445312 -105.16300201416016,-98.18299865722656 -118.27899932861328,-95.81300354003906 C-120.05799865722656,-95.49199676513672 -120.90499877929688,-97.91300201416016 -119.3290023803711,-98.7979965209961 C-98.13500213623047,-110.69999694824219 -85.6520004272461,-127.53700256347656 -79.99700164794922,-136.7259979248047 C-79.07099914550781,-138.2310028076172 -76.7760009765625,-137.35699462890625 -77.0459976196289,-135.61000061035156z M88.15299987792969,90.50599670410156 C83.0459976196289,90.50599670410156 78.90499877929688,86.36499786376953 78.90499877929688,81.25800323486328 C78.90499877929688,76.1500015258789 83.0459976196289,72.01100158691406 88.15299987792969,72.01100158691406 C93.26100158691406,72.01100158691406 97.4000015258789,76.1500015258789 97.4000015258789,81.25800323486328 C97.4000015258789,86.36499786376953 93.26100158691406,90.50599670410156 88.15299987792969,90.50599670410156z M123.70099639892578,133 C116.89900207519531,133 111.38600158691406,127.48600006103516 111.38600158691406,120.68499755859375 C111.38600158691406,113.88300323486328 116.89900207519531,108.36799621582031 123.70099639892578,108.36799621582031 C130.5030059814453,108.36799621582031 136.01600646972656,113.88300323486328 136.01600646972656,120.68499755859375 C136.01600646972656,127.48600006103516 130.5030059814453,133 123.70099639892578,133z"></path></g></g></g></svg>