<svg xmlns="http://www.w3.org/2000/svg" xmlns:xlink="http://www.w3.org/1999/xlink" viewBox="0 0 512 512" width="512" height="512" style="width: 100%; height: 100%; transform: translate3d(0,0,0);" preserveAspectRatio="xMidYMid meet"><defs><clipPath id="__lottie_element_52911"><rect width="512" height="512" x="0" y="0"></rect></clipPath></defs><g clip-path="url(#__lottie_element_52911)"><g style="display: block;" transform="matrix(1,0,0,1,256,256)" opacity="1"><g opacity="1" transform="matrix(1,0,0,1,0,0)"><path fill="rgb(0,0,0)" fill-opacity="1" d=" M-59.75,-110.75 C-68.9209976196289,-125.43499755859375 -96.0979995727539,-139.10899353027344 -114.30000305175781,-132.2989959716797 C-138.60400390625,-126.177001953125 -153.51600646972656,-100.84500122070312 -143.8990020751953,-76.30000305175781 C-129.7480010986328,-34.69900131225586 -68.81300354003906,-5.175000190734863 -25.700000762939453,-11.5 C13.125,-32.45199966430664 43.034000396728516,-95.26899719238281 27.750999450683594,-136.24899291992188 C19.604999542236328,-161.92999267578125 -7.196000099182129,-171.86599731445312 -30.549999237060547,-161.75 C-48.39699935913086,-155.6009979248047 -61.691001892089844,-127.9219970703125 -59.75,-110.75 M147.39999389648438,-113.9000015258789 C147.16700744628906,-113.9000015258789 147.0500030517578,-113.76699829101562 147.0500030517578,-113.5 C129.1699981689453,-98.54199981689453 136.36900329589844,-61.775001525878906 135.3000030517578,-41.5 C79.0999984741211,-32.29999923706055 35.849998474121094,-2.7669999599456787 5.550000190734863,47.099998474121094 C5.550000190734863,47.099998474121094 -127.1500015258789,47.099998474121094 -127.1500015258789,47.099998474121094 C-128.51699829101562,47.099998474121094 -129.88299560546875,47.16699981689453 -131.25,47.29999923706055 C-131.25,47.29999923706055 -131.25,14.899999618530273 -131.25,14.899999618530273 C-130.76400756835938,-7.427000045776367 -150.07899475097656,-26.770000457763672 -172.5500030517578,-26.399999618530273 C-187.53199768066406,-27.075000762939453 -204.19000244140625,-26.37700080871582 -214.85000610351562,-14.5 C-215.08299255371094,-14.5 -215.1999969482422,-14.383000373840332 -215.1999969482422,-14.149999618530273 C-223.13299560546875,-6.183000087738037 -227.10000610351562,3.5 -227.10000610351562,14.899999618530273 C-227.10000610351562,14.899999618530273 -227.10000610351562,204.5500030517578 -227.10000610351562,204.5500030517578 C-227.41099548339844,227.07000732421875 -208.177001953125,246.38099670410156 -185.8000030517578,245.89999389648438 C-170.6219940185547,246.59800720214844 -153.77999877929688,245.80099487304688 -143.14999389648438,233.5989990234375 C-129.15699768066406,221.6649932861328 -131.11000061035156,199.98500061035156 -131.25,183.35000610351562 C-124.31199645996094,183.35000610351562 127.99299621582031,183.35000610351562 135.14999389648438,183.35000610351562 C135.14999389648438,183.35000610351562 135.14999389648438,209.60000610351562 135.14999389648438,209.60000610351562 C134.7779998779297,232.072998046875 154.125,251.38400268554688 176.4499969482422,250.89999389648438 C191.20799255371094,251.66299438476562 206.90899658203125,250.2100067138672 217.25,238.6490020751953 C225.1840057373047,230.6840057373047 229.14999389648438,221 229.14999389648438,209.60000610351562 C229.14999389648438,209.60000610351562 229.14999389648438,-84.5 229.14999389648438,-84.5 C229.63099670410156,-106.87699890136719 210.32000732421875,-126.11100006103516 187.8000030517578,-125.80000305175781 C173.26800537109375,-126.45099639892578 157.7030029296875,-125.29299926757812 147.39999389648438,-113.9000015258789 M135.14999389648438,-3.700000047683716 C135.14999389648438,-3.700000047683716 135.14999389648438,47.099998474121094 135.14999389648438,47.099998474121094 C135.14999389648438,47.099998474121094 51,47.099998474121094 51,47.099998474121094 C72.69999694824219,20.299999237060547 100.75,3.367000102996826 135.14999389648438,-3.700000047683716 M165.10000610351562,-218.6999969482422 C165.10000610351562,-218.6999969482422 165.3000030517578,-218.5 165.3000030517578,-218.5 C159.6999969482422,-225.43299865722656 152.38299560546875,-229.89999389648438 143.35000610351562,-231.89999389648438 C143.35000610351562,-231.89999389648438 143.5,-231.89999389648438 143.5,-231.89999389648438 C134.33299255371094,-234.26699829101562 125.0999984741211,-232.89999389648438 115.80000305175781,-227.8000030517578 C115.80000305175781,-227.8000030517578 115.5999984741211,-228 115.5999984741211,-228 C110.8239974975586,-237.06700134277344 103.35099792480469,-243.16700744628906 94.3499984741211,-246.39999389648438 C94.3499984741211,-246.39999389648438 94.55000305175781,-246.39999389648438 94.55000305175781,-246.39999389648438 C73.77100372314453,-254.41099548339844 49.678001403808594,-244.01400756835938 43.900001525878906,-221.3000030517578 C43.900001525878906,-221.3000030517578 43.900001525878906,-221.5 43.900001525878906,-221.5 C36.54499816894531,-197.27499389648438 46.83100128173828,-171.72799682617188 63.45000076293945,-151.3000030517578 C63.45000076293945,-151.3000030517578 63.45000076293945,-151.10000610351562 63.45000076293945,-151.10000610351562 C69.97100067138672,-143.625 77.24600219726562,-136.42599487304688 85.80000305175781,-133.4499969482422 C94.98500061035156,-129.76499938964844 106.52999877929688,-132.21600341796875 117.0999984741211,-135.3000030517578 C117.0999984741211,-135.3000030517578 116.9000015258789,-135.3000030517578 116.9000015258789,-135.3000030517578 C129.54800415039062,-139.24000549316406 139.8070068359375,-144.57400512695312 148.5500030517578,-150.5500030517578 C170.1750030517578,-166.4759979248047 183.46099853515625,-197.625 165.10000610351562,-218.6999969482422 M76.30000305175781,-222.39999389648438 C82.79000091552734,-224.3159942626953 89.41999816894531,-221.4739990234375 92.69999694824219,-215.5 C97.38800048828125,-206.90899658203125 93.24800109863281,-195.8679962158203 104.60099792480469,-192.4510040283203 C116.08200073242188,-188.51600646972656 118.93399810791016,-200.58799743652344 128.0500030517578,-204.75 C131.14999389648438,-206.58299255371094 134.25,-207.1999969482422 137.35000610351562,-206.60000610351562 C137.35000610351562,-206.60000610351562 137.5500030517578,-206.39999389648438 137.5500030517578,-206.39999389648438 C140.51699829101562,-205.76699829101562 143,-204.33299255371094 145,-202.10000610351562 C152.34500122070312,-191.3990020751953 141.9010009765625,-178.9029998779297 132.6999969482422,-171.1999969482422 C132.6999969482422,-171.1999969482422 132.89999389648438,-171.60000610351562 132.89999389648438,-171.60000610351562 C123.5989990234375,-165.00999450683594 108.15499877929688,-158.0989990234375 95.5,-157.64999389648438 C94.63300323486328,-158.14999389648438 93.76699829101562,-158.4499969482422 92.9000015258789,-158.5500030517578 C93,-158.81700134277344 92.93299865722656,-158.9499969482422 92.69999694824219,-158.9499969482422 C92.69999694824219,-158.9499969482422 92.69999694824219,-159.14999389648438 92.69999694824219,-159.14999389648438 C89.5999984741211,-161.38299560546875 86.55000305175781,-164.2830047607422 83.55000305175781,-167.85000610351562 C83.55000305175781,-167.85000610351562 83.75,-167.6999969482422 83.75,-167.6999969482422 C72.47000122070312,-181.4219970703125 57.1609992980957,-211.6929931640625 76.5,-222.39999389648438 C76.5,-222.39999389648438 76.30000305175781,-222.39999389648438 76.30000305175781,-222.39999389648438z"></path></g></g></g></svg>