<svg xmlns="http://www.w3.org/2000/svg" xmlns:xlink="http://www.w3.org/1999/xlink" viewBox="0 0 512 512" width="512" height="512" style="width: 100%; height: 100%; transform: translate3d(0,0,0);" preserveAspectRatio="xMidYMid meet"><defs><clipPath id="__lottie_element_51690"><rect width="512" height="512" x="0" y="0"></rect></clipPath></defs><g clip-path="url(#__lottie_element_51690)"><g style="display: block;" transform="matrix(1,0,0,1,0,0)" opacity="1"><g opacity="1" transform="matrix(1,0,0,1,245.52999877929688,235.37399291992188)"><path fill="rgb(4,5,52)" fill-opacity="1" d=" M3.2739999294281006,1.1019999980926514 C3.2739999294281006,1.1019999980926514 3.003999948501587,1.527999997138977 3.003999948501587,1.527999997138977 C2.7860000133514404,1.4240000247955322 2.5769999027252197,1.3309999704360962 2.3589999675750732,1.2269999980926514 C0.5709999799728394,0.38499999046325684 -1.309000015258789,-0.5299999713897705 -3.2739999294281006,-1.527999997138977 C-0.4050000011920929,-0.34299999475479126 1.5800000429153442,0.44699999690055847 2.6089999675750732,0.8420000076293945 C2.9100000858306885,0.9670000076293945 3.1389999389648438,1.0499999523162842 3.2739999294281006,1.1019999980926514z"></path></g><g opacity="1" transform="matrix(1,0,0,1,245.52999877929688,235.37399291992188)"><path fill="rgb(4,5,52)" fill-opacity="1" d=" M3.2739999294281006,1.1019999980926514 C3.2739999294281006,1.1019999980926514 3.003999948501587,1.527999997138977 3.003999948501587,1.527999997138977 C2.7860000133514404,1.4240000247955322 2.5769999027252197,1.3309999704360962 2.3589999675750732,1.2269999980926514 C0.5709999799728394,0.38499999046325684 -1.309000015258789,-0.5299999713897705 -3.2739999294281006,-1.527999997138977 C-0.4050000011920929,-0.34299999475479126 1.5800000429153442,0.44699999690055847 2.6089999675750732,0.8420000076293945 C2.9100000858306885,0.9670000076293945 3.1389999389648438,1.0499999523162842 3.2739999294281006,1.1019999980926514z"></path></g><g opacity="1" transform="matrix(1,0,0,1,256,251.22300720214844)"><path fill="rgb(4,5,52)" fill-opacity="1" d=" M242.1699981689453,156.9010009765625 C239.19700622558594,166.4320068359375 160.79400634765625,162.8780059814453 103.60600280761719,130.38600158691406 C103.60600280761719,130.38600158691406 39.016998291015625,46.452999114990234 17.04400062561035,6.498000144958496 C16.784000396728516,6.010000228881836 16.52400016784668,5.531000137329102 16.263999938964844,5.052999973297119 C16.31599998474121,5.188000202178955 16.545000076293945,5.697999954223633 16.940000534057617,6.571000099182129 C21.055999755859375,15.541000366210938 43.47600173950195,62.492000579833984 91.16400146484375,128.77499389648438 C144.3300018310547,202.656005859375 147.33399963378906,223.65199279785156 143.02000427246094,230.3769989013672 C134.28900146484375,244.00399780273438 64.90799713134766,192.0540008544922 18.062000274658203,145.43600463867188 C-10.26200008392334,117.24700164794922 -23.940000534057617,89.48400115966797 -30.104000091552734,69.31999969482422 C-63.042999267578125,104.71199798583984 -187.7519989013672,232.94500732421875 -202.50100708007812,217.67599487304688 C-216.84500122070312,202.81199645996094 -99.8280029296875,71.23200225830078 -65.04900360107422,35.67399978637695 C-85.74400329589844,31.45400047302246 -116.36499786376953,19.708999633789062 -148.48300170898438,-8.968000411987305 C-197.79299926757812,-52.98699951171875 -253.73399353027344,-119.177001953125 -240.63699340820312,-128.70799255371094 C-234.1820068359375,-133.39599609375 -213.05099487304688,-131.63900756835938 -136.15499877929688,-82.9219970703125 C-75.48500061035156,-44.48500061035156 -30.16699981689453,-24.215999603271484 -13.744000434875488,-17.37700080871582 C-11.779000282287598,-16.378999710083008 -9.89799976348877,-15.46500015258789 -8.109999656677246,-14.623000144958496 C-7.892000198364258,-14.519000053405762 -7.684000015258789,-14.425000190734863 -7.466000080108643,-14.321000099182129 C-7.466000080108643,-14.321000099182129 -7.195000171661377,-14.746999740600586 -7.195000171661377,-14.746999740600586 C-7.329999923706055,-14.798999786376953 -7.559999942779541,-14.881999969482422 -7.861000061035156,-15.006999969482422 C-8.890000343322754,-15.402000427246094 -10.875,-16.191999435424805 -13.744000434875488,-17.37700080871582 C-56.5890007019043,-39.02799987792969 -138.50399780273438,-95.25 -138.50399780273438,-95.25 C-174.31199645996094,-150.4219970703125 -182.4720001220703,-228.4810028076172 -173.13800048828125,-232.0050048828125 C-151.41400146484375,-240.2270050048828 -86.85600280761719,-159.2259979248047 -66.30699920654297,-130.4340057373047 C-45.768001556396484,-101.64199829101562 -19.35700035095215,-85.85299682617188 -6.436999797821045,-73.5260009765625 C6.4720001220703125,-61.20899963378906 12.345000267028809,-46.35599899291992 12.345000267028809,-46.35599899291992 C21.14900016784668,-52.051998138427734 31.128000259399414,-54.1619987487793 31.128000259399414,-54.1619987487793 C31.128000259399414,-54.1619987487793 14.694000244140625,-72.35199737548828 30.53499984741211,-81.74800109863281 C46.38600158691406,-91.14399719238281 62.819000244140625,-68.83799743652344 62.819000244140625,-68.83799743652344 C82.19400024414062,-67.07099914550781 90.99700164794922,-46.53300094604492 79.25199890136719,-35.96200180053711 C67.51699829101562,-25.402000427246094 53.43299865722656,-33.612998962402344 53.43299865722656,-33.612998962402344 C53.94200134277344,-26.961000442504883 50.439998626708984,-18.083999633789062 49.525001525878906,-15.92199993133545 C54.80500030517578,-13.697999954223633 64.99199676513672,-8.697999954223633 74.14900207519531,-0.164000004529953 C87.21399688720703,11.996999740600586 104.53099822998047,37.430999755859375 134.48699951171875,56.24399948120117 C164.4320068359375,75.05699920654297 249.09300231933594,134.74099731445312 242.1699981689453,156.9010009765625z"></path></g><g opacity="1" transform="matrix(1,0,0,1,248.3470001220703,236.5590057373047)"><path fill="rgb(4,5,52)" fill-opacity="1" d=" M0.4569999873638153,-0.08299999684095383 C0.4569999873638153,-0.08299999684095383 0.18700000643730164,0.34299999475479126 0.18700000643730164,0.34299999475479126 C-0.03099999949336052,0.23899999260902405 -0.23899999260902405,0.1459999978542328 -0.4569999873638153,0.041999999433755875 C-0.4569999873638153,0.041999999433755875 -0.20800000429153442,-0.34299999475479126 -0.20800000429153442,-0.34299999475479126 C0.09300000220537186,-0.21799999475479126 0.32199999690055847,-0.13500000536441803 0.4569999873638153,-0.08299999684095383z"></path></g><g opacity="1" transform="matrix(1,0,0,1,272.65399169921875,257.0350036621094)"><path fill="rgb(4,5,52)" fill-opacity="1" d=" M0.38999998569488525,0.6859999895095825 C0.38999998569488525,0.6859999895095825 0.28600001335144043,0.7590000033378601 0.28600001335144043,0.7590000033378601 C-0.10899999737739563,-0.11400000005960464 -0.33799999952316284,-0.6240000128746033 -0.38999998569488525,-0.7590000033378601 C-0.12999999523162842,-0.2809999883174896 0.12999999523162842,0.1979999989271164 0.38999998569488525,0.6859999895095825z"></path></g></g></g></svg>