<svg xmlns="http://www.w3.org/2000/svg" xmlns:xlink="http://www.w3.org/1999/xlink" viewBox="0 0 512 512" width="512" height="512" style="width: 100%; height: 100%; transform: translate3d(0,0,0);" preserveAspectRatio="xMidYMid meet"><defs><clipPath id="__lottie_element_51410"><rect width="512" height="512" x="0" y="0"></rect></clipPath></defs><g clip-path="url(#__lottie_element_51410)"><g style="display: block;" transform="matrix(1,0,0,1,0,0)" opacity="1"><g opacity="1" transform="matrix(1,0,0,1,258.8179931640625,254.99200439453125)"><path fill="rgb(0,0,0)" fill-opacity="1" d=" M165.71400451660156,-22.923999786376953 C145.43600463867188,-30.53700065612793 155.10699462890625,-66.69499969482422 147.3820037841797,-107.61100006103516 C141.3509979248047,-139.55599975585938 119.38099670410156,-182.77099609375 58.832000732421875,-199.6269989013672 C45.19599914550781,-178.87899780273438 9.407999992370605,-180.8800048828125 9.407999992370605,-180.8800048828125 C40.810001373291016,-190.0780029296875 48.104000091552734,-205.6199951171875 48.104000091552734,-205.6199951171875 C59.68199920654297,-226.04600524902344 53.17900085449219,-248.44000244140625 47.7859992980957,-252.8800048828125 C46.5880012512207,-253.86700439453125 45.57600021362305,-254.9250030517578 44.500999450683594,-253.80499267578125 C38.986000061035156,-248.05799865722656 44.29800033569336,-220.84500122070312 -33.18899917602539,-203.875 C-33.45500183105469,-203.81700134277344 -33.61199951171875,-203.7550048828125 -33.683998107910156,-203.67599487304688 C-102.9749984741211,-191.06700134277344 -140.92100524902344,-142.96499633789062 -147.5959930419922,-107.61100006103516 C-155.3209991455078,-66.69499969482422 -145.43600463867188,-30.53700065612793 -165.71499633789062,-22.923999786376953 C-185.9929962158203,-15.312000274658203 -246.8260040283203,40.82899856567383 -222.68600463867188,146.4499969482422 C-199.30499267578125,248.74400329589844 -52.744998931884766,254.64300537109375 -2.305999994277954,254.91299438476562 C-2.305999994277954,254.91299438476562 -2.305999994277954,254.9250030517578 -2.305999994277954,254.9250030517578 C-1.5670000314712524,254.9250030517578 -0.796999990940094,254.9239959716797 -0.0010000000474974513,254.9219970703125 C0.7950000166893005,254.9239959716797 1.5670000314712524,254.9250030517578 2.305000066757202,254.9250030517578 C2.305000066757202,254.9250030517578 2.305000066757202,254.91299438476562 2.305000066757202,254.91299438476562 C52.74399948120117,254.64300537109375 199.30599975585938,248.74400329589844 222.68600463867188,146.4499969482422 C246.8260040283203,40.82899856567383 185.99200439453125,-15.312000274658203 165.71400451660156,-22.923999786376953z M-89.87000274658203,-91.11799621582031 C-76.13999938964844,-91.11799621582031 -72.375,-80.84700012207031 -72.42400360107422,-70.18399810791016 C-72.47699737548828,-58.67599868774414 -77.35800170898438,-46.7130012512207 -89.87000274658203,-46.7130012512207 C-101.9209976196289,-46.7130012512207 -106.1240005493164,-57.8120002746582 -106.0459976196289,-68.91200256347656 C-105.96800231933594,-80.01399993896484 -101.60700225830078,-91.11799621582031 -89.87000274658203,-91.11799621582031z M56.02199935913086,168.3350067138672 C23.66900062561035,175.31300354003906 35.0880012512207,188.63400268554688 5.9079999923706055,191.1719970703125 C5.9079999923706055,191.1719970703125 -4.230000019073486,191.1719970703125 -4.230000019073486,191.1719970703125 C-33.4109992980957,188.63400268554688 -21.993000030517578,175.31300354003906 -54.34600067138672,168.3350067138672 C-78.4260025024414,163.14100646972656 -103.82599639892578,155.6479949951172 -103.19100189208984,124.56400299072266 C-102.55699920654297,93.48100280761719 -64.49400329589844,93.48100280761719 -55.612998962402344,47.80699920654297 C-46.731998443603516,2.131999969482422 -43.56100082397461,-47.34700012207031 -24.5310001373291,-47.34700012207031 C-9.623000144958496,-47.34700012207031 -9.305000305175781,-29.743999481201172 0.8389999866485596,-29.134000778198242 C10.677000045776367,-29.586000442504883 12.104000091552734,-47.34700012207031 26.20599937438965,-47.34700012207031 C45.23699951171875,-47.34700012207031 48.409000396728516,2.131999969482422 57.290000915527344,47.80699920654297 C66.1709976196289,93.48100280761719 104.23300170898438,93.48100280761719 104.86699676513672,124.56400299072266 C105.5009994506836,155.6479949951172 80.10199737548828,163.14100646972656 56.02199935913086,168.3350067138672z M96.63200378417969,-46.7130012512207 C84.12000274658203,-46.7130012512207 79.23999786376953,-58.67599868774414 79.18800354003906,-70.18399810791016 C79.13800048828125,-80.84700012207031 82.90299987792969,-91.11799621582031 96.63200378417969,-91.11799621582031 C108.36900329589844,-91.11799621582031 112.7300033569336,-80.01399993896484 112.80799865722656,-68.91200256347656 C112.88600158691406,-57.8120002746582 108.68399810791016,-46.7130012512207 96.63200378417969,-46.7130012512207z"></path></g><g opacity="1" transform="matrix(1,0,0,1,241.8719940185547,284.9010009765625)"><path fill="rgb(0,0,0)" fill-opacity="1" d=" M-0.3149999976158142,-11.282999992370605 C6.6620001792907715,-11.282999992370605 8.574999809265137,-6.063000202178955 8.550000190734863,-0.6439999938011169 C8.52299976348877,5.203000068664551 6.043000221252441,11.282999992370605 -0.3149999976158142,11.282999992370605 C-6.440000057220459,11.282999992370605 -8.574999809265137,5.64300012588501 -8.53600025177002,0.0020000000949949026 C-8.496000289916992,-5.639999866485596 -6.28000020980835,-11.282999992370605 -0.3149999976158142,-11.282999992370605z"></path></g><g opacity="1" transform="matrix(1,0,0,1,278.52899169921875,284.9010009765625)"><path fill="rgb(0,0,0)" fill-opacity="1" d=" M0.3160000145435333,-11.282999992370605 C-6.6620001792907715,-11.282999992370605 -8.574999809265137,-6.063000202178955 -8.548999786376953,-0.6439999938011169 C-8.52299976348877,5.203000068664551 -6.041999816894531,11.282999992370605 0.3160000145435333,11.282999992370605 C6.440000057220459,11.282999992370605 8.574999809265137,5.64300012588501 8.53600025177002,0.0020000000949949026 C8.496000289916992,-5.639999866485596 6.281000137329102,-11.282999992370605 0.3160000145435333,-11.282999992370605z"></path></g></g></g></svg>