<svg xmlns="http://www.w3.org/2000/svg" xmlns:xlink="http://www.w3.org/1999/xlink" viewBox="0 0 512 512" width="512" height="512" style="width: 100%; height: 100%; transform: translate3d(0,0,0);" preserveAspectRatio="xMidYMid meet"><defs><clipPath id="__lottie_element_714"><rect width="512" height="512" x="0" y="0"></rect></clipPath></defs><g clip-path="url(#__lottie_element_714)"><g style="display: block;" transform="matrix(1,0,0,1,27.009994506835938,4.6179962158203125)" opacity="1"><g opacity="1" transform="matrix(1,0,0,1,229.4770050048828,251.3820037841797)"><path fill="rgb(0,0,0)" fill-opacity="1" d=" M227.44000244140625,10.885000228881836 C225.65199279785156,-16.87700080871582 194.82699584960938,-46.0989990234375 178.95199584960938,-45.75600051879883 C178.4739990234375,-45.74599838256836 177.99400329589844,-45.71500015258789 177.51400756835938,-45.67599868774414 C178.1580047607422,-50.5629997253418 179.1320037841797,-55.737998962402344 180.19900512695312,-61.380001068115234 C183.52499389648438,-78.96800231933594 187.66400146484375,-100.85700225830078 184.1230010986328,-129.8979949951172 C180.22799682617188,-161.8280029296875 161.7949981689453,-191.4600067138672 132.218994140625,-213.3350067138672 C98.78700256347656,-238.06100463867188 53.066001892089844,-251.1320037841797 0,-251.1320037841797 C-53.066001892089844,-251.1320037841797 -98.78700256347656,-238.06100463867188 -132.218994140625,-213.3350067138672 C-161.7949981689453,-191.4600067138672 -180.2270050048828,-161.8280029296875 -184.1219940185547,-129.8979949951172 C-187.66299438476562,-100.85700225830078 -183.52499389648438,-78.96800231933594 -180.19900512695312,-61.380001068115234 C-179.13099670410156,-55.73500061035156 -178.15699768066406,-50.558998107910156 -177.51300048828125,-45.67100143432617 C-177.9929962158203,-45.70899963378906 -178.47300720214844,-45.74599838256836 -178.95199584960938,-45.75600051879883 C-194.82699584960938,-46.0989990234375 -225.65199279785156,-16.87700080871582 -227.44000244140625,10.885000228881836 C-229.22799682617188,38.64699935913086 -182.4199981689453,83.69000244140625 -163.7570037841797,83.30599975585938 C-163.69900512695312,83.30500030517578 -163.63999938964844,83.2969970703125 -163.58099365234375,83.29499816894531 C-163.1009979248047,91.01499938964844 -162.91600036621094,99.38999938964844 -162.73800659179688,107.64600372314453 C-162.22000122070312,131.67599487304688 -161.72999572753906,154.37100219726562 -154.63900756835938,169.04600524902344 C-144.5800018310547,189.86399841308594 -122.44200134277344,203.18600463867188 -101.03199768066406,216.07000732421875 C-91.8270034790039,221.60800170898438 -83.13200378417969,226.83999633789062 -75.91100311279297,232.36599731445312 C-59.183998107910156,245.16799926757812 -35.06399917602539,251.1320037841797 0,251.1320037841797 C35.0629997253418,251.1320037841797 59.185001373291016,245.16799926757812 75.91300201416016,232.36599731445312 C83.13300323486328,226.83999633789062 91.8270034790039,221.60800170898438 101.03199768066406,216.07000732421875 C122.44200134277344,203.18600463867188 144.5800018310547,189.86399841308594 154.63999938964844,169.04600524902344 C161.7310028076172,154.37100219726562 162.22000122070312,131.67599487304688 162.73800659179688,107.64600372314453 C162.91600036621094,99.38999938964844 163.1009979248047,91.01499938964844 163.58200073242188,83.29499816894531 C163.63999938964844,83.2969970703125 163.697998046875,83.30500030517578 163.7570037841797,83.30599975585938 C182.41900634765625,83.69000244140625 229.22799682617188,38.64699935913086 227.44000244140625,10.885000228881836z M0.0010000000474974513,165.9340057373047 C-27.207000732421875,165.9340057373047 -44.12799835205078,173.13699340820312 -59.058998107910156,168.22500610351562 C-66.16400146484375,165.88800048828125 -74.62200164794922,156.94700622558594 -82.64399719238281,145.71499633789062 C-82.9530029296875,128.968994140625 -85.1500015258789,110.41799926757812 -81.29100036621094,106.50700378417969 C-78.99500274658203,104.18000030517578 -75.46900177001953,101.71199798583984 -71.11299896240234,99.24099731445312 C-71.2760009765625,103.58300018310547 -69.9020004272461,108.58999633789062 -67.46299743652344,108.44000244140625 C-45.49300003051758,107.09300231933594 -24.33300018310547,105.2750015258789 0.0010000000474974513,105.2750015258789 C24.333999633789062,105.2750015258789 45.49300003051758,107.09300231933594 67.46299743652344,108.44000244140625 C69.9020004272461,108.58999633789062 71.2770004272461,103.58399963378906 71.11299896240234,99.24099731445312 C75.46900177001953,101.71299743652344 78.99500274658203,104.18000030517578 81.29000091552734,106.50700378417969 C84.88600158691406,110.1520004272461 83.26100158691406,128.55299377441406 83.43199920654297,144.60299682617188 C75.1780014038086,156.35299682617188 66.39900207519531,165.81100463867188 59.06100082397461,168.22500610351562 C44.130001068115234,173.13699340820312 27.20800018310547,165.9340057373047 0.0010000000474974513,165.9340057373047z M31.8700008392334,-176.06300354003906 C45.45600128173828,-164.05099487304688 60.8129997253418,-168.29400634765625 62.09299850463867,-178.98399353027344 C74.3219985961914,-169.69900512695312 90.2509994506836,-170.11599731445312 89.58699798583984,-180.2220001220703 C99.01200103759766,-173.4810028076172 114.43199920654297,-173.50399780273438 117.43199920654297,-179.1230010986328 C119.12999725341797,-178.52999877929688 142.9530029296875,-156.26100158691406 149.7050018310547,-129.7310028076172 C151.68499755859375,-96.33399963378906 133.27000427246094,-68.34200286865234 140.68299865722656,-45.75899887084961 C148.31500244140625,-22.510000228881836 160.50100708007812,-12.055999755859375 160.0919952392578,9.70199966430664 C159.83599853515625,23.28700065612793 150.16799926757812,37.323001861572266 129.81399536132812,43.494998931884766 C116.21199798583984,47.61899948120117 107.08599853515625,60.36000061035156 107.19200134277344,74.40299987792969 C107.26200103759766,83.7750015258789 106.99500274658203,93.3499984741211 106.51699829101562,102.88999938964844 C106.08799743652344,103.90899658203125 105.66000366210938,104.9260025024414 105.18099975585938,106.01000213623047 C105.16999816894531,106.03500366210938 105.15799713134766,106.05999755859375 105.14700317382812,106.08499908447266 C104.08300018310547,108.48500061035156 100.50399780273438,108.11100006103516 99.95700073242188,105.5469970703125 C97.68199920654297,94.88200378417969 94.86599731445312,85.99600219726562 92.5719985961914,81.65599822998047 C88.59100341796875,74.1259994506836 82.4000015258789,74.57599639892578 72.2229995727539,72.61100006103516 C64.0999984741211,71.04199981689453 51.49599838256836,61.77299880981445 38.111000061035156,58.0880012512207 C42.74300003051758,52.96099853515625 44.13999938964844,46.979000091552734 42.35100173950195,41.56999969482422 C41.356998443603516,38.5620002746582 38.6609992980957,37.058998107910156 37.0880012512207,39.683998107910156 C32.316001892089844,47.64799880981445 18.14900016784668,53.862998962402344 0.0010000000474974513,53.862998962402344 C-18.14699935913086,53.862998962402344 -32.316001892089844,47.64799880981445 -37.0880012512207,39.683998107910156 C-38.6609992980957,37.058998107910156 -41.22100067138672,38.61000061035156 -42.35200119018555,41.56999969482422 C-44.428001403808594,47.00199890136719 -43.05500030517578,53.01100158691406 -38.33300018310547,58.15399932861328 C-51.63600158691406,61.87799835205078 -64.14399719238281,71.0510025024414 -72.2229995727539,72.61100006103516 C-82.39900207519531,74.57599639892578 -88.59100341796875,74.1259994506836 -92.5719985961914,81.65599822998047 C-94.8280029296875,85.92400360107422 -97.60900115966797,94.97000122070312 -99.83300018310547,105.79299926757812 C-100.36299896240234,108.37000274658203 -103.95999908447266,108.75399780273438 -105.03099822998047,106.34600067138672 C-105.08100128173828,106.23400115966797 -105.13099670410156,106.12200164794922 -105.18000030517578,106.01000213623047 C-105.947998046875,104.2750015258789 -106.62999725341797,102.65299987792969 -107.2750015258789,101.08300018310547 C-107.69400024414062,92.17500305175781 -107.91999816894531,83.2490005493164 -107.85700225830078,74.5009994506836 C-107.75499725341797,60.41699981689453 -116.85399627685547,47.624000549316406 -130.5,43.49599838256836 C-150.9029998779297,37.32500076293945 -160.66700744628906,23.288000106811523 -160.92300415039062,9.70199966430664 C-160.99899291992188,5.669000148773193 -160.63299560546875,2.0280001163482666 -159.9429931640625,-1.38100004196167 C-159.3459930419922,-3.3320000171661377 -158.60699462890625,-5.250999927520752 -157.79299926757812,-7.360000133514404 C-156.7469940185547,-10.067999839782715 -155.60299682617188,-13.043000221252441 -154.61300659179688,-16.48200035095215 C-150.5489959716797,-25.040000915527344 -145.31399536132812,-33.66999816894531 -141.3459930419922,-45.75899887084961 C-134.0800018310547,-67.89299774169922 -151.38099670410156,-95.22699737548828 -150.19500732421875,-127.7490005493164 C-144.2469940185547,-155.11099243164062 -119.55799865722656,-178.3730010986328 -117.98600006103516,-178.9250030517578 C-114.81500244140625,-173.5050048828125 -100.78299713134766,-173.11000061035156 -90.2490005493164,-180.2220001220703 C-90.91300201416016,-170.11599731445312 -74.73699951171875,-168.7169952392578 -62.75699996948242,-178.98399353027344 C-61.47700119018555,-168.29400634765625 -47.1150016784668,-163.31399536132812 -32.53300094604492,-176.06300354003906 C-29.944000244140625,-159.63099670410156 -5.639999866485596,-165.4429931640625 -0.6629999876022339,-176.0229949951172 C3.9820001125335693,-165.11500549316406 28.534000396728516,-160.61199951171875 31.8700008392334,-176.06300354003906z"></path></g><g opacity="1" transform="matrix(1,0,0,1,298.17999267578125,206.6179962158203)"><path fill="rgb(0,0,0)" fill-opacity="1" d=" M-49.73099899291992,-1.5119999647140503 C-49.53099822998047,-0.878000020980835 -49.332000732421875,-0.2329999953508377 -49.14400100708008,0.42800000309944153 C-48.11800003051758,4.019000053405762 -44.59400177001953,6.334000110626221 -40.834999084472656,5.940000057220459 C-34.007999420166016,5.223999977111816 -24.676000595092773,4.531000137329102 -14.812999725341797,4.188000202178955 C-20.513999938964844,9.562000274658203 -24.138999938964844,17.53700065612793 -24.138999938964844,26.454999923706055 C-24.138999938964844,42.638999938964844 -12.244000434875488,55.757999420166016 2.428999900817871,55.757999420166016 C17.101999282836914,55.757999420166016 28.996999740600586,42.638999938964844 28.996999740600586,26.454999923706055 C28.996999740600586,18.00200080871582 25.73200035095215,10.407999992370605 20.540000915527344,5.059000015258789 C33.946998596191406,6.318999767303467 43.38100051879883,8.03499984741211 52.9370002746582,9.755000114440918 C56.875999450683594,10.46500015258789 59.867000579833984,6.3460001945495605 57.9370002746582,2.884000062942505 C52.222999572753906,-7.363999843597412 42.106998443603516,-23.062999725341797 33.15999984741211,-24.92099952697754 C24.593000411987305,-26.70199966430664 -9.99899959564209,-22.142000198364258 -32.15700149536133,-17.905000686645508 C-33.10900115966797,-18.954999923706055 -34.07099914550781,-19.895000457763672 -35.10599899291992,-20.895999908447266 C-40.323001861572266,-26.06100082397461 -40.11800003051758,-35.59199905395508 -40.37099838256836,-42.737998962402344 C-40.37099838256836,-42.737998962402344 -40.4119987487793,-44.70500183105469 -40.4119987487793,-44.70500183105469 C-40.810001373291016,-54.63199996948242 -55.16400146484375,-55.757999420166016 -57.08300018310547,-45.91999816894531 C-57.08300018310547,-45.91999816894531 -57.994998931884766,-40.65800094604492 -57.994998931884766,-40.65800094604492 C-59.86600112915039,-29.22800064086914 -59.53099822998047,-16.121999740600586 -52.387001037597656,-6.183000087738037 C-51.073001861572266,-4.228000164031982 -50.52799987792969,-3.0429999828338623 -49.73099899291992,-1.5119999647140503z"></path></g><g opacity="1" transform="matrix(1,0,0,1,161.16600036621094,206.65499877929688)"><path fill="rgb(0,0,0)" fill-opacity="1" d=" M40.02199935913086,-44.73899841308594 C39.939998626708984,-41.340999603271484 39.93199920654297,-36.93600082397461 39.50899887084961,-33.597999572753906 C38.9370002746582,-28.858999252319336 37.92300033569336,-23.888999938964844 34.7140007019043,-20.933000564575195 C34.04399871826172,-20.264999389648438 33.382999420166016,-19.687000274658203 32.229000091552734,-18.45599937438965 C32.0880012512207,-18.30699920654297 31.93000030517578,-18.134000778198242 31.759000778198242,-17.944000244140625 C9.60200023651123,-22.179000854492188 -24.985000610351562,-26.738000869750977 -33.55099868774414,-24.95800018310547 C-42.49800109863281,-23.100000381469727 -52.61399841308594,-7.401000022888184 -58.327999114990234,2.8469998836517334 C-60.257999420166016,6.309000015258789 -57.266998291015625,10.428000450134277 -53.32899856567383,9.718000411987305 C-43.724998474121094,7.989999771118164 -34.249000549316406,6.263999938964844 -20.735000610351562,5.002999782562256 C-25.93899917602539,10.352999687194824 -29.211000442504883,17.95400047302246 -29.211000442504883,26.41699981689453 C-29.211000442504883,42.60100173950195 -17.316999435424805,55.720001220703125 -2.6429998874664307,55.720001220703125 C12.029999732971191,55.720001220703125 23.924999237060547,42.60100173950195 23.924999237060547,26.41699981689453 C23.924999237060547,17.50200080871582 20.302000045776367,9.531999588012695 14.605999946594238,4.1579999923706055 C24.399999618530273,4.502999782562256 33.65999984741211,5.190999984741211 40.44300079345703,5.9029998779296875 C44.202999114990234,6.296999931335449 47.72600173950195,3.9820001125335693 48.75199890136719,0.39100000262260437 C48.915000915527344,-0.1809999942779541 49.08700180053711,-0.7400000095367432 49.2599983215332,-1.2920000553131104 C49.525001525878906,-1.7799999713897705 49.770999908447266,-2.2820000648498535 49.972999572753906,-2.812999963760376 C51.25600051879883,-5.328999996185303 53.5260009765625,-8.298999786376953 54.95399856567383,-11.38700008392334 C60.25699996948242,-22.410999298095703 58.75299835205078,-34.56800079345703 56.69200134277344,-45.957000732421875 C54.81999969482422,-55.720001220703125 40.45000076293945,-54.74800109863281 40.02199935913086,-44.73899841308594z"></path></g><g opacity="1" transform="matrix(1,0,0,1,229,388.2909851074219)"><path fill="rgb(0,0,0)" fill-opacity="1" d=" M51.6150016784668,-17.198999404907227 C40.112998962402344,-14.83899974822998 29.676000595092773,-12.425000190734863 18.577999114990234,-11.027999877929688 C-5.684999942779541,-7.644000053405762 -28.98200035095215,-11.831999778747559 -52.91899871826172,-17.533000946044922 C-57.29600143432617,-18.59000015258789 -60.832000732421875,-13.36299991607666 -58.10300064086914,-9.765000343322754 C-45.05699920654297,8.286999702453613 -23.04400062561035,17.613000869750977 -0.8339999914169312,18.229000091552734 C21.104999542236328,18.590999603271484 43.30699920654297,10.222000122070312 56.75899887084961,-7.258999824523926 C60.832000732421875,-11.46399974822998 57.5359992980957,-18.23200035095215 51.6150016784668,-17.198999404907227z"></path></g><g opacity="1" transform="matrix(1,0,0,1,201.94200134277344,255.19700622558594)"><path fill="rgb(0,0,0)" fill-opacity="1" d=" M9.567999839782715,-27.461000442504883 C9.567999839782715,-27.461000442504883 8.428999900817871,-26.9689998626709 8.428999900817871,-26.9689998626709 C-9.428999900817871,-18.632999420166016 -17.679000854492188,4.0920000076293945 -12.781999588012695,22.371000289916992 C-10.998000144958496,29.341999053955078 -0.5550000071525574,28.027000427246094 -0.6520000100135803,20.784000396728516 C-0.8560000061988831,13.157999992370605 0.04100000113248825,5.5320000648498535 2.4709999561309814,-1.5829999446868896 C4.881999969482422,-8.692000389099121 8.868000030517578,-15.251999855041504 14.315999984741211,-20.52899932861328 C17.679000854492188,-23.761999130249023 13.920000076293945,-29.341999053955078 9.567999839782715,-27.461000442504883z"></path></g></g></g></svg>