<svg xmlns="http://www.w3.org/2000/svg" xmlns:xlink="http://www.w3.org/1999/xlink" viewBox="0 0 512 512" width="512" height="512" style="width: 100%; height: 100%; transform: translate3d(0,0,0);" preserveAspectRatio="xMidYMid meet"><defs><clipPath id="__lottie_element_51250"><rect width="512" height="512" x="0" y="0"></rect></clipPath></defs><g clip-path="url(#__lottie_element_51250)"><g style="display: block;" transform="matrix(1,0,0,1,247.29800415039062,255.60400390625)" opacity="1"><g opacity="1" transform="matrix(1,0,0,1,0,0)"><path fill="rgb(4,5,52)" fill-opacity="1" d=" M223.63699340820312,20.665000915527344 C220.2469940185547,-28.46500015258789 193.14700317382812,-53.03499984741211 193.14700317382812,-53.03499984741211 C193.14700317382812,-53.03499984741211 225.32699584960938,-76.75499725341797 193.14700317382812,-132.65499877929688 C169.16700744628906,-174.30499267578125 112.5770034790039,-198.60499572753906 85.2770004272461,-208.2550048828125 C82.80699920654297,-209.125 81.0270004272461,-205.875 83.08699798583984,-204.2550048828125 C90.2770004272461,-198.625 98.66699981689453,-190.73500061035156 103.34700012207031,-181.7949981689453 C102.33699798583984,-182.44500732421875 24.476999282836914,-232.23500061035156 -63.233001708984375,-212.5749969482422 C-68.48300170898438,-211.40499877929688 -68.072998046875,-203.78500366210938 -62.722999572753906,-203.23500061035156 C-50.84299850463867,-201.9949951171875 -36.643001556396484,-199.2949981689453 -22.882999420166016,-193.65499877929688 C-24.792999267578125,-194.0850067138672 -115.14299774169922,-213.76600646972656 -189.72300720214844,-114.86599731445312 C-247.88299560546875,-37.75600051879883 -219.33299255371094,55.48500061035156 -193.91299438476562,99.5250015258789 C-189.7530059814453,106.73500061035156 -178.68299865722656,102.94499969482422 -179.76300048828125,94.69499969482422 C-183.47300720214844,66.4749984741211 -185.4029998779297,23.424999237060547 -170.2429962158203,-8.984999656677246 C-168.36300659179688,24.885000228881836 -172.4929962158203,58.534000396728516 -144.83299255371094,120.61399841308594 C-111.6729965209961,195.03399658203125 -13.77299976348877,235.48500061035156 69.13700103759766,209.06500244140625 C79.46700286865234,205.76499938964844 79.45700073242188,191.22500610351562 69.14700317382812,187.8350067138672 C48.9370002746582,181.18499755859375 27.267000198364258,165.72500610351562 24.927000045776367,130.15499877929688 C32.87699890136719,138.2449951171875 43.08700180053711,140.85400390625 52.9370002746582,140.86399841308594 C63.97700119018555,140.88400268554688 68.88700103759766,127.17500305175781 60.65700149536133,119.80500030517578 C52.75699996948242,112.7249984741211 45.91699981689453,101.79499816894531 44.90700149536133,85.03500366210938 C42.39699935913086,43.165000915527344 77.97699737548828,5.425000190734863 78.7770004272461,4.574999809265137 C78.78700256347656,4.565000057220459 78.78700256347656,4.565000057220459 78.78700256347656,4.565000057220459 C78.78700256347656,4.565000057220459 127.24700164794922,12.765000343322754 153.70700073242188,46.29499816894531 C155.28700256347656,48.28499984741211 158.43699645996094,46.50400161743164 157.51699829101562,44.13399887084961 C151.86700439453125,29.604000091552734 139.2270050048828,6.914999961853027 111.84700012207031,-11.515000343322754 C113.0469970703125,-11.125 174.01699829101562,9.494999885559082 175.06700134277344,89.32499694824219 C175.15699768066406,95.7750015258789 182.7969970703125,99.1050033569336 187.5469970703125,94.73500061035156 C202.86700439453125,80.66500091552734 225.91700744628906,53.73500061035156 223.63699340820312,20.665000915527344z M75.98699951171875,7.034999847412109 C77.31700134277344,5.795000076293945 78.22699737548828,5.025000095367432 78.59700012207031,4.724999904632568 C78.22699737548828,5.045000076293945 77.31700134277344,5.835000038146973 75.98699951171875,7.034999847412109z M77.97699737548828,-64.4749984741211 C56.9370002746582,-82.45500183105469 70.97699737548828,-115.91500091552734 84.8270034790039,-114.05500030517578 C99.66699981689453,-112.06500244140625 76.87699890136719,-87.15499877929688 91.58699798583984,-76.65499877929688 C103.21700286865234,-68.36499786376953 121.00700378417969,-88.01499938964844 127.23699951171875,-79.98500061035156 C133.45700073242188,-71.94499969482422 101.24700164794922,-44.57500076293945 77.97699737548828,-64.4749984741211z"></path></g></g></g></svg>