<svg xmlns="http://www.w3.org/2000/svg" xmlns:xlink="http://www.w3.org/1999/xlink" viewBox="0 0 512 512" width="512" height="512" style="width: 100%; height: 100%; transform: translate3d(0,0,0);" preserveAspectRatio="xMidYMid meet"><defs><clipPath id="__lottie_element_53804"><rect width="512" height="512" x="0" y="0"></rect></clipPath></defs><g clip-path="url(#__lottie_element_53804)"><g style="display: block;" transform="matrix(1,0,0,1,-6.050018310546875,27.75)" opacity="1"><g opacity="1" transform="matrix(1,0,0,1,262.04998779296875,234.75)"><path fill="rgb(0,0,0)" fill-opacity="1" d=" M64,-234.5 C-76,-234.5 -137,-158.5 -125,-37.5 C-124.33000183105469,-30.75 -170,-40.5 -213,-36.5 C-254.92999267578125,-32.599998474121094 -261.79998779296875,31.56999969482422 -205,38.5 C-82,53.5 21.469999313354492,37.970001220703125 29,45.5 C45,61.5 20.899999618530273,118.91999816894531 29,174.5 C33.099998474121094,202.61000061035156 55,234.5 100,234.5 C151,234.5 175.97000122070312,197.16000366210938 182,162.5 C198,70.5 235,65.5 241,40.5 C273.7699890136719,-96.05000305175781 224,-234.5 64,-234.5z M111.5,179.5 C89.68000030517578,179.5 72,160.25 72,136.5 C72,112.75 89.68000030517578,93.5 111.5,93.5 C133.32000732421875,93.5 151,112.75 151,136.5 C151,160.25 133.32000732421875,179.5 111.5,179.5z"></path></g></g></g></svg>