<svg xmlns="http://www.w3.org/2000/svg" xmlns:xlink="http://www.w3.org/1999/xlink" viewBox="0 0 512 512" width="512" height="512" style="width: 100%; height: 100%; transform: translate3d(0,0,0);" preserveAspectRatio="xMidYMid meet"><defs><clipPath id="__lottie_element_53304"><rect width="512" height="512" x="0" y="0"></rect></clipPath></defs><g clip-path="url(#__lottie_element_53304)"><g style="display: block;" transform="matrix(1,0,0,1,0,0)" opacity="1"><g opacity="1" transform="matrix(1,0,0,1,75.74700164794922,325.60101318359375)"><path fill="rgb(0,0,0)" fill-opacity="1" d=" M73.91999816894531,79.88899993896484 C73.91999816894531,73.21600341796875 70.66400146484375,71.12300109863281 58.64099884033203,66.9010009765625 C49.638999938964844,63.73899841308594 37.3120002746582,59.40800094604492 35.650001525878906,46.12200164794922 C34.262001037597656,35.0099983215332 38.74300003051758,26.594999313354492 42.34400177001953,19.83300018310547 C45.349998474121094,14.1899995803833 47.7239990234375,9.732999801635742 47.29800033569336,3.9800000190734863 C46.90700149536133,-1.024999976158142 35.29399871826172,-17.809999465942383 28.354999542236328,-27.84000015258789 C10.484999656677246,-53.667999267578125 -0.10999999940395355,-70.29900360107422 3.434999942779541,-83.46700286865234 C10.9399995803833,-111.34200286865234 6.057000160217285,-125.3499984741211 1.7309999465942383,-133.46099853515625 C1.7209999561309814,-133.46400451660156 -3.4660000801086426,-140.20399475097656 -39.6870002746582,-140.6179962158203 C-48.55400085449219,-140.7209930419922 -57.20100021362305,-140.4040069580078 -64.14399719238281,-140.01400756835938 C-70.50700378417969,-117.79499816894531 -73.91999816894531,-94.33100128173828 -73.91999816894531,-70.06800079345703 C-73.91999816894531,17.79800033569336 -29.22599983215332,95.21900177001953 38.66299819946289,140.7209930419922 C53.770999908447266,123.2020034790039 73.91999816894531,94.7969970703125 73.91999816894531,79.88899993896484z"></path><path stroke-linecap="butt" stroke-linejoin="miter" fill-opacity="0" stroke-miterlimit="10" stroke="rgb(29,29,27)" stroke-opacity="1" stroke-width="0.994" d=" M73.91999816894531,79.88899993896484 C73.91999816894531,73.21600341796875 70.66400146484375,71.12300109863281 58.64099884033203,66.9010009765625 C49.638999938964844,63.73899841308594 37.3120002746582,59.40800094604492 35.650001525878906,46.12200164794922 C34.262001037597656,35.0099983215332 38.74300003051758,26.594999313354492 42.34400177001953,19.83300018310547 C45.349998474121094,14.1899995803833 47.7239990234375,9.732999801635742 47.29800033569336,3.9800000190734863 C46.90700149536133,-1.024999976158142 35.29399871826172,-17.809999465942383 28.354999542236328,-27.84000015258789 C10.484999656677246,-53.667999267578125 -0.10999999940395355,-70.29900360107422 3.434999942779541,-83.46700286865234 C10.9399995803833,-111.34200286865234 6.057000160217285,-125.3499984741211 1.7309999465942383,-133.46099853515625 C1.7209999561309814,-133.46400451660156 -3.4660000801086426,-140.20399475097656 -39.6870002746582,-140.6179962158203 C-48.55400085449219,-140.7209930419922 -57.20100021362305,-140.4040069580078 -64.14399719238281,-140.01400756835938 C-70.50700378417969,-117.79499816894531 -73.91999816894531,-94.33100128173828 -73.91999816894531,-70.06800079345703 C-73.91999816894531,17.79800033569336 -29.22599983215332,95.21900177001953 38.66299819946289,140.7209930419922 C53.770999908447266,123.2020034790039 73.91999816894531,94.7969970703125 73.91999816894531,79.88899993896484z"></path></g><g opacity="1" transform="matrix(1,0,0,1,360.72100830078125,216.44000244140625)"><path fill="rgb(0,0,0)" fill-opacity="1" d=" M-102.56099700927734,-153.39300537109375 C-107.87200164794922,-140.2449951171875 -114.60099792480469,-121.99500274658203 -111.75199890136719,-115.33300018310547 C-109.88300323486328,-110.96099853515625 -100.84500122070312,-107.36199951171875 -88.33599853515625,-102.38200378417969 C-88.33599853515625,-102.38200378417969 -85.14099884033203,-101.10800170898438 -85.14099884033203,-101.10800170898438 C-74.18199920654297,-96.7249984741211 -66.0009994506836,-94.13200378417969 -59.426998138427734,-92.0479965209961 C-45.54899978637695,-87.64900207519531 -36.37900161743164,-84.74400329589844 -29.78499984741211,-71.5530014038086 C-24.000999450683594,-59.987998962402344 -20.059999465942383,-42.83399963378906 -26.340999603271484,-29.37700080871582 C-30.176000595092773,-21.159000396728516 -37.20500183105469,-15.62399959564209 -46.665000915527344,-13.371999740600586 C-56.034000396728516,-11.140999794006348 -65.54399871826172,-11.055999755859375 -74.74199676513672,-10.973999977111816 C-86.40299987792969,-10.869000434875488 -97.41600036621094,-10.770000457763672 -104.74299621582031,-6.0289998054504395 C-109.8270034790039,-2.739000082015991 -119.55400085449219,9.104000091552734 -127.56400299072266,24.572999954223633 C-136.4290008544922,41.691001892089844 -137.3459930419922,51.77199935913086 -136.3979949951172,54.1609992980957 C-132.6909942626953,58.400001525878906 -128.21299743652344,60.358001708984375 -123.47699737548828,62.43000030517578 C-116.76100158691406,65.36599731445312 -105.52100372314453,70.28099822998047 -106.69100189208984,84.31199645996094 C-109.39700317382812,116.7959976196289 -102.69300079345703,126.30000305175781 -99.68499755859375,128.8780059814453 C-95.5999984741211,132.37899780273438 -90.46499633789062,135.5959930419922 -85.5,138.70799255371094 C-73.9489974975586,145.9459991455078 -62.00400161743164,153.42999267578125 -59.97600173950195,166.61300659179688 C-55.95500183105469,192.7530059814453 -47.54999923706055,206.61399841308594 -42.36000061035156,208.90199279785156 C-36.689998626708984,205.42300415039062 -21.097999572753906,187.9600067138672 2.3970000743865967,150.46099853515625 C22.725000381469727,118.01499938964844 36.53300094604492,90.33999633789062 37.61800003051758,84.51899719238281 C37.78200149536133,80.4530029296875 35.25899887084961,71.25299835205078 33.029998779296875,63.12200164794922 C27.232999801635742,41.979000091552734 21.238000869750977,20.118000030517578 34.96099853515625,9.560999870300293 C46.35900115966797,0.7940000295639038 109.36599731445312,-23.965999603271484 137.34500122070312,-34.7400016784668 C110.76799774169922,-122.1989974975586 38.21200180053711,-189.6300048828125 -52.183998107910156,-208.90199279785156 C-60.44499969482422,-205.3990020751953 -87.19000244140625,-191.45399475097656 -102.56099700927734,-153.39300537109375z"></path><path stroke-linecap="butt" stroke-linejoin="miter" fill-opacity="0" stroke-miterlimit="10" stroke="rgb(29,29,27)" stroke-opacity="1" stroke-width="0.994" d=" M-102.56099700927734,-153.39300537109375 C-107.87200164794922,-140.2449951171875 -114.60099792480469,-121.99500274658203 -111.75199890136719,-115.33300018310547 C-109.88300323486328,-110.96099853515625 -100.84500122070312,-107.36199951171875 -88.33599853515625,-102.38200378417969 C-88.33599853515625,-102.38200378417969 -85.14099884033203,-101.10800170898438 -85.14099884033203,-101.10800170898438 C-74.18199920654297,-96.7249984741211 -66.0009994506836,-94.13200378417969 -59.426998138427734,-92.0479965209961 C-45.54899978637695,-87.64900207519531 -36.37900161743164,-84.74400329589844 -29.78499984741211,-71.5530014038086 C-24.000999450683594,-59.987998962402344 -20.059999465942383,-42.83399963378906 -26.340999603271484,-29.37700080871582 C-30.176000595092773,-21.159000396728516 -37.20500183105469,-15.62399959564209 -46.665000915527344,-13.371999740600586 C-56.034000396728516,-11.140999794006348 -65.54399871826172,-11.055999755859375 -74.74199676513672,-10.973999977111816 C-86.40299987792969,-10.869000434875488 -97.41600036621094,-10.770000457763672 -104.74299621582031,-6.0289998054504395 C-109.8270034790039,-2.739000082015991 -119.55400085449219,9.104000091552734 -127.56400299072266,24.572999954223633 C-136.4290008544922,41.691001892089844 -137.3459930419922,51.77199935913086 -136.3979949951172,54.1609992980957 C-132.6909942626953,58.400001525878906 -128.21299743652344,60.358001708984375 -123.47699737548828,62.43000030517578 C-116.76100158691406,65.36599731445312 -105.52100372314453,70.28099822998047 -106.69100189208984,84.31199645996094 C-109.39700317382812,116.7959976196289 -102.69300079345703,126.30000305175781 -99.68499755859375,128.8780059814453 C-95.5999984741211,132.37899780273438 -90.46499633789062,135.5959930419922 -85.5,138.70799255371094 C-73.9489974975586,145.9459991455078 -62.00400161743164,153.42999267578125 -59.97600173950195,166.61300659179688 C-55.95500183105469,192.7530059814453 -47.54999923706055,206.61399841308594 -42.36000061035156,208.90199279785156 C-36.689998626708984,205.42300415039062 -21.097999572753906,187.9600067138672 2.3970000743865967,150.46099853515625 C22.725000381469727,118.01499938964844 36.53300094604492,90.33999633789062 37.61800003051758,84.51899719238281 C37.78200149536133,80.4530029296875 35.25899887084961,71.25299835205078 33.029998779296875,63.12200164794922 C27.232999801635742,41.979000091552734 21.238000869750977,20.118000030517578 34.96099853515625,9.560999870300293 C46.35900115966797,0.7940000295639038 109.36599731445312,-23.965999603271484 137.34500122070312,-34.7400016784668 C110.76799774169922,-122.1989974975586 38.21200180053711,-189.6300048828125 -52.183998107910156,-208.90199279785156 C-60.44499969482422,-205.3990020751953 -87.19000244140625,-191.45399475097656 -102.56099700927734,-153.39300537109375z"></path></g><g opacity="1" transform="matrix(1,0,0,1,263.989990234375,255.5330047607422)"><path fill="rgb(0,0,0)" fill-opacity="1" d=" M145.19900512695312,-12.756999969482422 C143.29200744628906,-8.00100040435791 148.1540069580078,9.729000091552734 150.51300048828125,18.339000701904297 C153.61300659179688,29.639999389648438 156.2899932861328,39.4010009765625 155.81700134277344,46.948001861572266 C155.00100708007812,60.02199935913086 130.45899963378906,101.36499786376953 122.95700073242188,113.7249984741211 C113.0530014038086,130.04100036621094 88.11599731445312,169.5970001220703 70.49500274658203,184.49200439453125 C66.7979965209961,187.61599731445312 61.275001525878906,191.61900329589844 54.86600112915039,191.61900329589844 C54.34000015258789,191.61900329589844 53.80799865722656,191.5919952392578 53.270999908447266,191.53599548339844 C41.05500030517578,190.25 31.233999252319336,180.6739959716797 24.07699966430664,163.0709991455078 C18.815000534057617,150.13099670410156 16.31599998474121,136.18699645996094 15.487000465393066,130.79200744628906 C14.956000328063965,127.34300231933594 6.198999881744385,121.85700225830078 -0.19499999284744263,117.8499984741211 C-5.828000068664551,114.31999969482422 -11.654000282287598,110.66999816894531 -16.95800018310547,106.125 C-29.128000259399414,95.69200134277344 -33.89500045776367,75.63300323486328 -31.516000747680664,44.82400131225586 C-32.58399963378906,44.27000045776367 -34.13100051879883,43.59400177001953 -35.36600112915039,43.05400085449219 C-41.20899963378906,40.499000549316406 -49.2130012512207,36.999000549316406 -56.15299987792969,28.900999069213867 C-60.72100067138672,23.570999145507812 -62.33599853515625,16.024999618530273 -60.95100021362305,6.4720001220703125 C-57.67599868774414,-16.128999710083008 -36.08700180053711,-52.58599853515625 -19.701000213623047,-63.18899917602539 C-7.127999782562256,-71.3239974975586 7.576000213623047,-71.45700073242188 21.797000885009766,-71.58399963378906 C30.16900062561035,-71.65899658203125 38.07699966430664,-71.7300033569336 45.082000732421875,-73.39800262451172 C48.90999984741211,-74.30999755859375 50.16699981689453,-76.01899719238281 50.88999938964844,-77.56999969482422 C53.2400016784668,-82.60299682617188 51.86800003051758,-92.68599700927734 47.69900131225586,-101.02200317382812 C45.36399841308594,-105.69499969482422 44.0989990234375,-106.41300201416016 30.80299949645996,-110.62699890136719 C24.256999969482422,-112.7020034790039 15.293999671936035,-115.54299926757812 3.5989999771118164,-120.22000122070312 C3.5989999771118164,-120.22000122070312 0.4359999895095825,-121.48200225830078 0.4359999895095825,-121.48200225830078 C-16.898000717163086,-128.38299560546875 -29.422000885009766,-133.36900329589844 -34.80699920654297,-145.96499633789062 C-40.40599822998047,-159.05999755859375 -35.737998962402344,-175.8939971923828 -25.783000946044922,-200.54400634765625 C-15.239999771118164,-226.6510009765625 -1.1660000085830688,-242.9149932861328 10.87600040435791,-252.85000610351562 C4.455999851226807,-253.33700561523438 -2.0309998989105225,-253.5850067138672 -8.576000213623047,-253.5850067138672 C-27.562999725341797,-253.5850067138672 -46.055999755859375,-251.48300170898438 -63.85200119018555,-247.5260009765625 C-150.2169952392578,-210.23199462890625 -137.03900146484375,-118.50900268554688 -137.03900146484375,-118.50900268554688 C-161.2899932861328,-140.62100219726562 -161.5399932861328,-182.55299377441406 -159.92599487304688,-203.47999572753906 C-197.85299682617188,-175.2239990234375 -227.60400390625,-136.61199951171875 -245.00900268554688,-91.83399963378906 C-239.3040008544922,-92.04100036621094 -233.01699829101562,-92.1510009765625 -226.58399963378906,-92.0530014038086 C-192.3000030517578,-91.53800201416016 -174.0850067138672,-85.82099914550781 -167.5240020751953,-73.5199966430664 C-154.95899963378906,-49.96200180053711 -159.4429931640625,-24.906999588012695 -163.9669952392578,-8.031999588012695 C-163.96400451660156,-7.354000091552734 -163.63800048828125,-3.8940000534057617 -158.22000122070312,5.546000003814697 C-153.93600463867188,13.008999824523926 -147.96499633789062,21.638999938964844 -142.1909942626953,29.986000061035156 C-128.60899353027344,49.61600112915039 -120.24600219726562,62.16999816894531 -119.48400115966797,72.45899963378906 C-118.59700012207031,84.4209976196289 -123.2030029296875,93.06700134277344 -126.90499877929688,100.01599884033203 C-129.8730010986328,105.59200286865234 -131.58999633789062,109.04399871826172 -131.2969970703125,112.94200134277344 C-129.79100036621094,114.09500122070312 -125.43199920654297,115.6259994506836 -122.46900177001953,116.66600036621094 C-111.37300109863281,120.56400299072266 -92.8030014038086,127.08799743652344 -92.8030014038086,149.95799255371094 C-92.8030014038086,163.4759979248047 -100.36299896240234,180.6909942626953 -115.91699981689453,202.58599853515625 C-121.43099975585938,210.3470001220703 -126.90499877929688,217.19000244140625 -131.01300048828125,222.10499572753906 C-94.71299743652344,242.15899658203125 -52.981998443603516,253.5850067138672 -8.576000213623047,253.5850067138672 C131.4739990234375,253.5850067138672 245.00900268554688,140.052001953125 245.00900268554688,0 C245.00900268554688,-18.125 243.0919952392578,-35.79999923706055 239.4770050048828,-52.847999572753906 C201.35499572753906,-38.11000061035156 153.4949951171875,-18.570999145507812 145.19900512695312,-12.756999969482422z"></path><path stroke-linecap="butt" stroke-linejoin="miter" fill-opacity="0" stroke-miterlimit="10" stroke="rgb(29,29,27)" stroke-opacity="1" stroke-width="0.994" d=" M145.19900512695312,-12.756999969482422 C143.29200744628906,-8.00100040435791 148.1540069580078,9.729000091552734 150.51300048828125,18.339000701904297 C153.61300659179688,29.639999389648438 156.2899932861328,39.4010009765625 155.81700134277344,46.948001861572266 C155.00100708007812,60.02199935913086 130.45899963378906,101.36499786376953 122.95700073242188,113.7249984741211 C113.0530014038086,130.04100036621094 88.11599731445312,169.5970001220703 70.49500274658203,184.49200439453125 C66.7979965209961,187.61599731445312 61.275001525878906,191.61900329589844 54.86600112915039,191.61900329589844 C54.34000015258789,191.61900329589844 53.80799865722656,191.5919952392578 53.270999908447266,191.53599548339844 C41.05500030517578,190.25 31.233999252319336,180.6739959716797 24.07699966430664,163.0709991455078 C18.815000534057617,150.13099670410156 16.31599998474121,136.18699645996094 15.487000465393066,130.79200744628906 C14.956000328063965,127.34300231933594 6.198999881744385,121.85700225830078 -0.19499999284744263,117.8499984741211 C-5.828000068664551,114.31999969482422 -11.654000282287598,110.66999816894531 -16.95800018310547,106.125 C-29.128000259399414,95.69200134277344 -33.89500045776367,75.63300323486328 -31.516000747680664,44.82400131225586 C-32.58399963378906,44.27000045776367 -34.13100051879883,43.59400177001953 -35.36600112915039,43.05400085449219 C-41.20899963378906,40.499000549316406 -49.2130012512207,36.999000549316406 -56.15299987792969,28.900999069213867 C-60.72100067138672,23.570999145507812 -62.33599853515625,16.024999618530273 -60.95100021362305,6.4720001220703125 C-57.67599868774414,-16.128999710083008 -36.08700180053711,-52.58599853515625 -19.701000213623047,-63.18899917602539 C-7.127999782562256,-71.3239974975586 7.576000213623047,-71.45700073242188 21.797000885009766,-71.58399963378906 C30.16900062561035,-71.65899658203125 38.07699966430664,-71.7300033569336 45.082000732421875,-73.39800262451172 C48.90999984741211,-74.30999755859375 50.16699981689453,-76.01899719238281 50.88999938964844,-77.56999969482422 C53.2400016784668,-82.60299682617188 51.86800003051758,-92.68599700927734 47.69900131225586,-101.02200317382812 C45.36399841308594,-105.69499969482422 44.0989990234375,-106.41300201416016 30.80299949645996,-110.62699890136719 C24.256999969482422,-112.7020034790039 15.293999671936035,-115.54299926757812 3.5989999771118164,-120.22000122070312 C3.5989999771118164,-120.22000122070312 0.4359999895095825,-121.48200225830078 0.4359999895095825,-121.48200225830078 C-16.898000717163086,-128.38299560546875 -29.422000885009766,-133.36900329589844 -34.80699920654297,-145.96499633789062 C-40.40599822998047,-159.05999755859375 -35.737998962402344,-175.8939971923828 -25.783000946044922,-200.54400634765625 C-15.239999771118164,-226.6510009765625 -1.1660000085830688,-242.9149932861328 10.87600040435791,-252.85000610351562 C4.455999851226807,-253.33700561523438 -2.0309998989105225,-253.5850067138672 -8.576000213623047,-253.5850067138672 C-27.562999725341797,-253.5850067138672 -46.055999755859375,-251.48300170898438 -63.85200119018555,-247.5260009765625 C-150.2169952392578,-210.23199462890625 -137.03900146484375,-118.50900268554688 -137.03900146484375,-118.50900268554688 C-161.2899932861328,-140.62100219726562 -161.5399932861328,-182.55299377441406 -159.92599487304688,-203.47999572753906 C-197.85299682617188,-175.2239990234375 -227.60400390625,-136.61199951171875 -245.00900268554688,-91.83399963378906 C-239.3040008544922,-92.04100036621094 -233.01699829101562,-92.1510009765625 -226.58399963378906,-92.0530014038086 C-192.3000030517578,-91.53800201416016 -174.0850067138672,-85.82099914550781 -167.5240020751953,-73.5199966430664 C-154.95899963378906,-49.96200180053711 -159.4429931640625,-24.906999588012695 -163.9669952392578,-8.031999588012695 C-163.96400451660156,-7.354000091552734 -163.63800048828125,-3.8940000534057617 -158.22000122070312,5.546000003814697 C-153.93600463867188,13.008999824523926 -147.96499633789062,21.638999938964844 -142.1909942626953,29.986000061035156 C-128.60899353027344,49.61600112915039 -120.24600219726562,62.16999816894531 -119.48400115966797,72.45899963378906 C-118.59700012207031,84.4209976196289 -123.2030029296875,93.06700134277344 -126.90499877929688,100.01599884033203 C-129.8730010986328,105.59200286865234 -131.58999633789062,109.04399871826172 -131.2969970703125,112.94200134277344 C-129.79100036621094,114.09500122070312 -125.43199920654297,115.6259994506836 -122.46900177001953,116.66600036621094 C-111.37300109863281,120.56400299072266 -92.8030014038086,127.08799743652344 -92.8030014038086,149.95799255371094 C-92.8030014038086,163.4759979248047 -100.36299896240234,180.6909942626953 -115.91699981689453,202.58599853515625 C-121.43099975585938,210.3470001220703 -126.90499877929688,217.19000244140625 -131.01300048828125,222.10499572753906 C-94.71299743652344,242.15899658203125 -52.981998443603516,253.5850067138672 -8.576000213623047,253.5850067138672 C131.4739990234375,253.5850067138672 245.00900268554688,140.052001953125 245.00900268554688,0 C245.00900268554688,-18.125 243.0919952392578,-35.79999923706055 239.4770050048828,-52.847999572753906 C201.35499572753906,-38.11000061035156 153.4949951171875,-18.570999145507812 145.19900512695312,-12.756999969482422z"></path></g></g></g></svg>