<svg xmlns="http://www.w3.org/2000/svg" xmlns:xlink="http://www.w3.org/1999/xlink" viewBox="0 0 512 512" width="512" height="512" style="width: 100%; height: 100%; transform: translate3d(0,0,0);" preserveAspectRatio="xMidYMid meet"><defs><clipPath id="__lottie_element_52170"><rect width="512" height="512" x="0" y="0"></rect></clipPath></defs><g clip-path="url(#__lottie_element_52170)"><g style="display: block;" transform="matrix(1,0,0,1,-2.14599609375,-1.701995849609375)" opacity="1"><g opacity="1" transform="matrix(1,0,0,1,258.1449890136719,253.4969940185547)"><path fill="rgb(65,63,63)" fill-opacity="1" d=" M252.06199645996094,148.718994140625 C247.406005859375,133.41400146484375 232.97500610351562,117.73999786376953 216.16000366210938,117.16999816894531 C210.9029998779297,116.99199676513672 203.28700256347656,120.95500183105469 200.2989959716797,117.25299835205078 C198.28799438476562,114.76100158691406 191.4770050048828,89.73699951171875 188.55499267578125,82.95500183105469 C159.83799743652344,16.285999298095703 96.32599639892578,-17.025999069213867 26.525999069213867,-25.948999404907227 C6.9079999923706055,-28.457000732421875 -12.543000221252441,-27.094999313354492 -32.125999450683594,-29.274999618530273 C-39.93600082397461,-32.909000396728516 -46.895999908447266,-63.7760009765625 -53.58399963378906,-71.68900299072266 C-54.1150016784668,-73.38700103759766 -52.88199996948242,-73.87699890136719 -52.02899932861328,-74.84300231933594 C-47.64400100708008,-79.80400085449219 -22.388999938964844,-90.49400329589844 -14.295000076293945,-95.60800170898438 C7.929999828338623,-109.6520004272461 31.750999450683594,-132.35000610351562 44.52000045776367,-155.43699645996094 C62.54899978637695,-188.03199768066406 70.80999755859375,-238.51600646972656 15.659000396728516,-221.48599243164062 C-2.4059998989105225,-215.9080047607422 -18.708999633789062,-201.3459930419922 -32.5260009765625,-189.11599731445312 C-22.540000915527344,-227.9340057373047 -31.26099967956543,-253.2469940185547 -72.05799865722656,-225.9739990234375 C-107.33300018310547,-202.39300537109375 -126.13999938964844,-153.02000427246094 -136.9320068359375,-113.71199798583984 C-184.96200561523438,-123.0739974975586 -248.81300354003906,-65.21199798583984 -253.70799255371094,-19.816999435424805 C-257.8949890136719,19.006000518798828 -230.48800659179688,50.696998596191406 -191.91700744628906,53.50199890136719 C-204.281005859375,83.23300170898438 -191.1280059814453,126.7229995727539 -172.13499450683594,151.46200561523438 C-165.80999755859375,159.6999969482422 -156.7969970703125,165.61099243164062 -151.5189971923828,174.80299377441406 C-165.95799255371094,189.0970001220703 -198.31700134277344,198.9040069580078 -200.822998046875,222.56399536132812 C-202.6840057373047,240.13099670410156 -191.6439971923828,248.64500427246094 -175.1649932861328,250.11700439453125 C-160.63499450683594,251.41400146484375 -121.4729995727539,251.6439971923828 -108.73999786376953,247.33700561523438 C-87.64900207519531,240.20399475097656 -81.0719985961914,216.48500061035156 -64.43900299072266,203.09800720214844 C-55.77899932861328,196.1280059814453 -45.744998931884766,192.89599609375 -36.972999572753906,186.29400634765625 C-34.513999938964844,162.04100036621094 -30.194000244140625,138.32899475097656 -17.523000717163086,117.2030029296875 C-6.340000152587891,98.55599975585938 14.642000198364258,78.5199966430664 38.279998779296875,82.69499969482422 C2.8989999294281006,112.8479995727539 -14.175999641418457,161.1999969482422 9.956000328063965,203.98599243164062 C0.13500000536441803,203.26199340820312 -9.015000343322754,201.21200561523438 -19.06599998474121,202.42999267578125 C-40.137001037597656,204.98199462890625 -65.41999816894531,226.156005859375 -62.744998931884766,249.21400451660156 C-62.744998931884766,249.21400451660156 140.08999633789062,251.7949981689453 140.08999633789062,251.7949981689453 C157.8730010986328,249.53599548339844 171.00599670410156,239.58099365234375 179.8520050048828,224.3719940185547 C222.38699340820312,242.12399291992188 263.49798583984375,186.3090057373047 252.06199645996094,148.718994140625z M-168.8560028076172,-32.444000244140625 C-179.16400146484375,-39.840999603271484 -173.73800659179688,-60.39799880981445 -162.322998046875,-63.00299835205078 C-126.56700134277344,-71.16400146484375 -145.67999267578125,-15.8100004196167 -168.8560028076172,-32.444000244140625z"></path></g></g></g></svg>