<svg xmlns="http://www.w3.org/2000/svg" xmlns:xlink="http://www.w3.org/1999/xlink" viewBox="0 0 512 512" width="512" height="512" style="width: 100%; height: 100%; transform: translate3d(0,0,0);" preserveAspectRatio="xMidYMid meet"><defs><clipPath id="__lottie_element_20371"><rect width="512" height="512" x="0" y="0"></rect></clipPath></defs><g clip-path="url(#__lottie_element_20371)"><g style="display: block;" transform="matrix(1,0,0,1,65.27798461914062,1.75)" opacity="1"><g opacity="1" transform="matrix(1,0,0,1,191.78900146484375,296.3349914550781)"><path fill="rgb(65,63,63)" fill-opacity="1" d=" M178.4340057373047,-73.86499786376953 C156.3699951171875,-73.75700378417969 138.15499877929688,-88.96199798583984 123.33699798583984,-101.322998046875 C117.64399719238281,-106.0719985961914 109.10299682617188,-113.19400024414062 105.54399871826172,-114.24299621582031 C102.28900146484375,-114.06300354003906 99.50800323486328,-111.6709976196289 92.79199981689453,-104.60900115966797 C83.9749984741211,-95.33599853515625 71.9010009765625,-82.63800048828125 50.50699996948242,-81.91300201416016 C31.586000442504883,-81.2239990234375 20.53499984741211,-94.12000274658203 12.458999633789062,-103.50299835205078 C7.01800012588501,-109.8270034790039 3.4019999504089355,-113.76499938964844 0.0820000022649765,-114.11499786376953 C-2.8940000534057617,-113.06500244140625 -9.595000267028809,-106.61599731445312 -13.645000457763672,-102.71900177001953 C-24.759000778198242,-92.02300262451172 -38.55699920654297,-78.7020034790039 -57.44200134277344,-79.11599731445312 C-76.41500091552734,-79.5199966430664 -88.32099914550781,-93.48200225830078 -97.01200103759766,-103.677001953125 C-99.94599914550781,-107.11799621582031 -104.76799774169922,-112.77200317382812 -107.1510009765625,-113.99199676513672 C-111.96900177001953,-113.0989990234375 -122.91500091552734,-104.47599792480469 -130.23699951171875,-98.70800018310547 C-144.9459991455078,-87.11699676513672 -161.4219970703125,-74.14399719238281 -180.44900512695312,-71.64299774169922 C-191.53900146484375,-8.748000144958496 -189.3679962158203,57.784000396728516 -166.57000732421875,110.5469970703125 C-162.1009979248047,107.38999938964844 -157.5709991455078,103.8239974975586 -153.25100708007812,100.41999816894531 C-139.14999389648438,89.30899810791016 -125.83100128173828,78.81500244140625 -110.5780029296875,77.51699829101562 C-91.44599914550781,75.875 -79.39700317382812,90.0250015258789 -70.59700012207031,100.34700012207031 C-66.79399871826172,104.80799865722656 -60.42900085449219,112.27400207519531 -57.525001525878906,112.33499908447266 C-57.50600051879883,112.33599853515625 -57.48500061035156,112.33599853515625 -57.465999603271484,112.33599853515625 C-53.4640007019043,112.33599853515625 -44.62300109863281,103.8280029296875 -39.33100128173828,98.73500061035156 C-28.882999420166016,88.68000030517578 -17.058000564575195,77.3010025024414 -1.1109999418258667,77.3010025024414 C-0.8889999985694885,77.3010025024414 -0.6679999828338623,77.30500030517578 -0.4449999928474426,77.30899810791016 C19.236000061035156,77.6989974975586 30.989999771118164,91.35900115966797 38.76900100708008,100.39800262451172 C41.71799850463867,103.82499694824219 46.64500045776367,109.5510025024414 48.422000885009766,109.5510025024414 C48.43000030517578,109.5510025024414 48.439998626708984,109.552001953125 48.448001861572266,109.5510025024414 C54.58399963378906,109.34300231933594 58.31700134277344,106.03800201416016 65.98600006103516,97.9729995727539 C74.32499694824219,89.20099639892578 85.74700164794922,77.18900299072266 105.10700225830078,77.18900299072266 C119.97000122070312,77.18900299072266 132.3419952392578,87.50900268554688 145.44000244140625,98.43599700927734 C152.1230010986328,104.01100158691406 159.83900451660156,110.43499755859375 166.91099548339844,114.24299621582031 C191.1300048828125,60.16999816894531 191.5399932861328,-9.090999603271484 178.4340057373047,-73.86499786376953z M-104.72699737548828,24.267000198364258 C-117.96800231933594,24.267000198364258 -128.7030029296875,13.534000396728516 -128.7030029296875,0.2930000126361847 C-128.7030029296875,-12.947999954223633 -117.96800231933594,-23.680999755859375 -104.72699737548828,-23.680999755859375 C-91.48699951171875,-23.680999755859375 -80.75299835205078,-12.947999954223633 -80.75299835205078,0.2930000126361847 C-80.75299835205078,13.534000396728516 -91.48699951171875,24.267000198364258 -104.72699737548828,24.267000198364258z M-2.319000005722046,24.267000198364258 C-15.5600004196167,24.267000198364258 -26.292999267578125,13.534000396728516 -26.292999267578125,0.2930000126361847 C-26.292999267578125,-12.947999954223633 -15.5600004196167,-23.680999755859375 -2.319000005722046,-23.680999755859375 C10.920999526977539,-23.680999755859375 21.655000686645508,-12.947999954223633 21.655000686645508,0.2930000126361847 C21.655000686645508,13.534000396728516 10.920999526977539,24.267000198364258 -2.319000005722046,24.267000198364258z M100.35700225830078,24.267000198364258 C87.11599731445312,24.267000198364258 76.38300323486328,13.534000396728516 76.38300323486328,0.2930000126361847 C76.38300323486328,-12.947999954223633 87.11599731445312,-23.680999755859375 100.35700225830078,-23.680999755859375 C113.5979995727539,-23.680999755859375 124.33100128173828,-12.947999954223633 124.33100128173828,0.2930000126361847 C124.33100128173828,13.534000396728516 113.5979995727539,24.267000198364258 100.35700225830078,24.267000198364258z"></path></g><g opacity="1" transform="matrix(1,0,0,1,190.6999969482422,92.0739974975586)"><path fill="rgb(65,63,63)" fill-opacity="1" d=" M-151.3159942626953,77.41500091552734 C-137.21499633789062,66.30400085449219 -123.89600372314453,55.808998107910156 -108.64299774169922,54.51100158691406 C-89.51100158691406,52.86899948120117 -77.46199798583984,67.0199966430664 -68.66200256347656,77.34100341796875 C-64.86000061035156,81.802001953125 -58.49399948120117,89.26799774169922 -55.590999603271484,89.33000183105469 C-55.57099914550781,89.33100128173828 -55.55099868774414,89.33100128173828 -55.53099822998047,89.33100128173828 C-51.529998779296875,89.33100128173828 -42.68899917602539,80.822998046875 -37.39699935913086,75.7300033569336 C-26.948999404907227,65.67500305175781 -15.123000144958496,54.29600143432617 0.8230000138282776,54.29600143432617 C1.0449999570846558,54.29600143432617 1.2660000324249268,54.29899978637695 1.4889999628067017,54.30400085449219 C21.170000076293945,54.694000244140625 32.92499923706055,68.35399627685547 40.702999114990234,77.39299774169922 C43.65299987792969,80.81999969482422 48.57899856567383,86.5459976196289 50.35599899291992,86.5459976196289 C50.3650016784668,86.5459976196289 50.374000549316406,86.5469970703125 50.382999420166016,86.5459976196289 C56.518001556396484,86.33799743652344 60.25199890136719,83.03299713134766 67.91999816894531,74.96700286865234 C76.26000213623047,66.19599914550781 87.68099975585938,54.183998107910156 107.04100036621094,54.183998107910156 C121.90399932861328,54.183998107910156 134.2760009765625,64.50399780273438 147.375,75.43099975585938 C154.42599487304688,81.31300354003906 162.6219940185547,88.1240005493164 170.0030059814453,91.82499694824219 C158.66200256347656,52.98500061035156 142.86199951171875,17.45199966430664 125.11299896240234,-9.96399974822998 C90.87300109863281,-65.15299987792969 40.763999938964844,-91.82499694824219 -0.6370000243186951,-91.82499694824219 C-42.03900146484375,-91.82499694824219 -92.14800262451172,-65.15299987792969 -126.38700103759766,-9.96399974822998 C-144.3179931640625,17.78499984741211 -159.4759979248047,52.948001861572266 -170.0030059814453,91.12200164794922 C-163.86000061035156,87.29000091552734 -157.38099670410156,82.19400024414062 -151.3159942626953,77.41500091552734z"></path></g><g opacity="1" transform="matrix(1,0,0,1,191.68299865722656,458.6130065917969)"><path fill="rgb(65,63,63)" fill-opacity="1" d=" M122.5989990234375,-36.334999084472656 C116.90499877929688,-41.08399963378906 108.36599731445312,-48.20800018310547 104.80699920654297,-49.25600051879883 C101.5510025024414,-49.07600021362305 98.76799774169922,-46.683998107910156 92.0530014038086,-39.62200164794922 C83.23600006103516,-30.349000930786133 71.16300201416016,-17.649999618530273 49.768001556396484,-16.924999237060547 C30.847000122070312,-16.236000061035156 19.79599952697754,-29.131999969482422 11.720999717712402,-38.51499938964844 C6.2789998054504395,-44.84000015258789 2.6640000343322754,-48.77799987792969 -0.656000018119812,-49.12799835205078 C-3.631999969482422,-48.07899856567383 -10.333000183105469,-41.630001068115234 -14.383999824523926,-37.731998443603516 C-25.49799919128418,-27.03700065612793 -39.29600143432617,-13.71399974822998 -58.180999755859375,-14.128000259399414 C-77.15399932861328,-14.531999588012695 -89.05899810791016,-28.4950008392334 -97.7509994506836,-38.689998626708984 C-100.68399810791016,-42.13100051879883 -105.50599670410156,-47.78499984741211 -107.88999938964844,-49.005001068115234 C-112.70800018310547,-48.11199951171875 -123.65299987792969,-39.4900016784668 -130.9739990234375,-33.72100067138672 C-136.72799682617188,-29.187000274658203 -142.75399780273438,-24.441999435424805 -149.0959930419922,-20.19300079345703 C-120.11900329589844,21.73900032043457 -72.81999969482422,49.25600051879883 -1.6200000047683716,49.25600051879883 C71.7020034790039,49.25600051879883 119.80000305175781,23.104999542236328 149.0959930419922,-16.982999801635742 C139.26400756835938,-22.43000030517578 130.45399475097656,-29.781999588012695 122.5989990234375,-36.334999084472656z"></path></g></g></g></svg>