<svg xmlns="http://www.w3.org/2000/svg" xmlns:xlink="http://www.w3.org/1999/xlink" viewBox="0 0 512 512" width="512" height="512" style="width: 100%; height: 100%; transform: translate3d(0,0,0);" preserveAspectRatio="xMidYMid meet"><defs><clipPath id="__lottie_element_51220"><rect width="512" height="512" x="0" y="0"></rect></clipPath></defs><g clip-path="url(#__lottie_element_51220)"><g style="display: block;" transform="matrix(2.962939977645874,0,0,2.962939977645874,2.8374481201171875,2.8374481201171875)" opacity="1"><g opacity="1" transform="matrix(1,0,0,1,85.15399932861328,85.41400146484375)"><path fill="rgb(0,0,0)" fill-opacity="1" d=" M24.54199981689453,-79.72899627685547 C-10.067000389099121,-89.38500213623047 -51.75899887084961,-48.33700180053711 -62.665000915527344,-9.248000144958496 C-73.57099914550781,29.840999603271484 -54.35599899291992,69.35600280761719 -19.746999740600586,79.01200103759766 C14.862000465393066,88.66799926757812 51.7599983215332,64.80799865722656 62.665000915527344,25.7189998626709 C73.57099914550781,-13.369999885559082 59.1510009765625,-70.072998046875 24.54199981689453,-79.72899627685547z M16.788000106811523,-42.76900100708008 C14.487000465393066,-36.8849983215332 1.8380000591278076,-41.32699966430664 -14.027000427246094,-33.13600158691406 C-27.19099998474121,-26.33799934387207 -24.591999053955078,-28.618000030517578 -25.511999130249023,-29.308000564575195 C-27.434999465942383,-30.75200080871582 -17.972999572753906,-57.551998138427734 0.054999999701976776,-58.69900131225586 C11.456000328063965,-59.42499923706055 18.790000915527344,-47.88800048828125 16.788000106811523,-42.76900100708008z M14.890000343322754,67.64800262451172 C8.331000328063965,69.447998046875 1.059000015258789,67.1510009765625 0.9539999961853027,65.322998046875 C0.9110000133514404,64.56099700927734 2.115000009536743,63.96099853515625 13.944999694824219,59.832000732421875 C25.93600082397461,55.64699935913086 26.908000946044922,55.492000579833984 27.256999969482422,55.99300003051758 C28.3700008392334,57.59199905395508 22.871000289916992,65.45700073242188 14.890000343322754,67.64800262451172z"></path></g></g></g></svg>