<svg xmlns="http://www.w3.org/2000/svg" xmlns:xlink="http://www.w3.org/1999/xlink" viewBox="0 0 512 512" width="512" height="512" style="width: 100%; height: 100%; transform: translate3d(0,0,0);" preserveAspectRatio="xMidYMid meet"><defs><clipPath id="__lottie_element_52468"><rect width="512" height="512" x="0" y="0"></rect></clipPath></defs><g clip-path="url(#__lottie_element_52468)"><g style="display: block;" transform="matrix(1,0,0,1,0,0)" opacity="1"><g opacity="1" transform="matrix(1,0,0,1,249.0189971923828,259.18701171875)"><path fill="rgb(0,0,0)" fill-opacity="1" d=" M228.90699768066406,-221.1300048828125 C213.0659942626953,-252.81300354003906 176.63099670410156,-251.22900390625 176.63099670410156,-251.22900390625 C189.3040008544922,-205.28900146484375 162.37399291992188,-186.2790069580078 162.37399291992188,-186.2790069580078 C162.37399291992188,-186.2790069580078 129.10800170898438,-205.28900146484375 75.24700164794922,-175.19000244140625 C21.38599967956543,-145.0919952392578 21.38599967956543,-75.38999938964844 -76.83000183105469,-51.62799835205078 C-175.04600524902344,-27.865999221801758 -223.1320037841797,18.12700080871582 -227.322998046875,89.35900115966797 C-233.65899658203125,197.08099365234375 -119.81400299072266,296.4949951171875 32.474998474121094,212.9219970703125 C162.37399291992188,141.63600158691406 190.88800048828125,-46.875999450683594 190.88800048828125,-46.875999450683594 C182.96800231933594,-107.072998046875 141.77999877929688,-135.58700561523438 141.77999877929688,-135.58700561523438 C189.3040008544922,-137.17100524902344 208.31399536132812,-80.14199829101562 208.31399536132812,-80.14199829101562 C228.90699768066406,-124.49800109863281 194.0570068359375,-160.93299865722656 194.0570068359375,-160.93299865722656 C233.65899658203125,-184.69500732421875 228.90699768066406,-221.1300048828125 228.90699768066406,-221.1300048828125z M-125.28800201416016,53.249000549316406 C-134.3280029296875,70.10299682617188 -147.91400146484375,113.40599822998047 -163.57200622558594,96.1729965209961 C-178.93699645996094,79.26100158691406 -142.8509979248047,14.107999801635742 -91.21800231933594,13.687999725341797 C-75.54900360107422,13.560999870300293 -110.23200225830078,25.17799949645996 -125.28800201416016,53.249000549316406z"></path></g></g></g></svg>