<svg xmlns="http://www.w3.org/2000/svg" xmlns:xlink="http://www.w3.org/1999/xlink" viewBox="0 0 512 512" width="512" height="512" style="width: 100%; height: 100%; transform: translate3d(0,0,0);" preserveAspectRatio="xMidYMid meet"><defs><clipPath id="__lottie_element_51975"><rect width="512" height="512" x="0" y="0"></rect></clipPath></defs><g clip-path="url(#__lottie_element_51975)"><g style="display: block;" transform="matrix(1,0,0,1,-2714.0068359375,-2477.760009765625)" opacity="1"><g opacity="1" transform="matrix(1,0,0,1,0,0)"><g opacity="1" transform="matrix(1,0,0,1,2968.64599609375,2798.779052734375)"><path fill="rgb(0,0,0)" fill-opacity="1" d=" M-195.4969940185547,-6.010000228881836 C-200.8300018310547,-3.924999952316284 -203.7530059814453,3.7300000190734863 -209.76100158691406,5.781000137329102 C-223.79100036621094,12.60099983215332 -225.28900146484375,-7.613999843597412 -220.15199279785156,-16.198999404907227 C-212.81199645996094,-32.654998779296875 -198.73199462890625,-45.38100051879883 -184.3209991455078,-55.520999908447266 C-134.48500061035156,-91.18299865722656 -68.23899841308594,-65.74500274658203 -12.069000244140625,-76.447998046875 C11.053000450134277,-81.85600280761719 28.177000045776367,-102.78700256347656 51.58000183105469,-107.58699798583984 C65.72000122070312,-111.34300231933594 81.19599914550781,-109.41699981689453 95.90899658203125,-108.55000305175781 C102.57099914550781,-107.61799621582031 117.29499816894531,-115.01200103759766 107.50199890136719,-121.39199829101562 C90.71399688720703,-124.7750015258789 68.79900360107422,-127.16100311279297 63.97999954223633,-147.02200317382812 C54.0890007019043,-181.8300018310547 213.55999755859375,-162.4949951171875 235.36599731445312,-159.24400329589844 C246.5919952392578,-157.00799560546875 247.11900329589844,-146.39199829101562 246.54200744628906,-137.093994140625 C245.83200073242188,-128.9219970703125 246.45599365234375,-118.3270034790039 241.1699981689453,-111.99700164794922 C234.39700317382812,-105.34700012207031 223.9029998779297,-107.06999969482422 215.24000549316406,-105.29399871826172 C180.78700256347656,-104.58699798583984 235.6219940185547,-45.025001525878906 188.85699462890625,14.515999794006348 C175.18099975585938,29.423999786376953 172.77499389648438,-15.11299991607666 165.875,5.639999866485596 C164.04800415039062,37.46500015258789 137.6269989013672,57.97800064086914 114.08899688720703,75.70099639892578 C78.80999755859375,103.26799774169922 95.1729965209961,47.112998962402344 94.14199829101562,29.58300018310547 C95.39299774169922,24.84000015258789 90.61199951171875,-1.3259999752044678 85.16400146484375,13.182000160217285 C78.88200378417969,38.577999114990234 76.16999816894531,64.29900360107422 77.18099975585938,90.48200225830078 C76.822998046875,115.81300354003906 77.78600311279297,141.33999633789062 74.31199645996094,166.47799682617188 C72.1729965209961,180.73899841308594 53.034000396728516,176.24099731445312 43.112998962402344,176.66799926757812 C28.825000762939453,177.33599853515625 29.68000030517578,161.85899353027344 30.0310001373291,151.593994140625 C29.916000366210938,127.08399963378906 30.04800033569336,102.55999755859375 29.933000564575195,78.04499816894531 C30.97800064086914,65.47200012207031 26.757999420166016,57.95399856567383 13.156999588012695,59.78499984741211 C-20.308000564575195,60.27199935913086 -53.928001403808594,62.87099838256836 -87.29000091552734,59.26499938964844 C-98.7760009765625,60.117000579833984 -103.7030029296875,42.44900131225586 -111.23799896240234,51.59000015258789 C-133.04299926757812,81.93900299072266 -174.02699279785156,90.18800354003906 -199.7429962158203,115.64600372314453 C-205.47500610351562,129.09100341796875 -201.2570037841797,145.83399963378906 -202.66700744628906,160.3070068359375 C-203.01300048828125,167.49600219726562 -201.63900756835938,177.697998046875 -209.49400329589844,179.88499450683594 C-218.1439971923828,181.4550018310547 -227.8280029296875,181.83099365234375 -236.2779998779297,179.42599487304688 C-246.677001953125,173.08099365234375 -241.41799926757812,153.8249969482422 -243.56199645996094,143.1929931640625 C-242.927001953125,123.04199981689453 -247.11900329589844,101.07099914550781 -241.2010040283203,81.6780014038086 C-237.3489990234375,75.49500274658203 -229.6580047607422,72.89700317382812 -223.96600341796875,68.56600189208984 C-199.55999755859375,51.630001068115234 -187.41099548339844,22.207000732421875 -195.427001953125,-5.982999801635742 C-195.427001953125,-5.982999801635742 -195.4969940185547,-6.010000228881836 -195.4969940185547,-6.010000228881836z"></path></g><g opacity="1" transform="matrix(1,0,0,1,2985.27001953125,2585.431884765625)"><path fill="rgb(0,0,0)" fill-opacity="1" d=" M150.24400329589844,36.03099822998047 C145.9219970703125,40.88800048828125 131.06500244140625,39.94900131225586 125.02799987792969,39.31999969482422 C116.47200012207031,38.42900085449219 108.68099975585938,34.74399948120117 100.72200012207031,31.56800079345703 C92.52999877929688,28.447999954223633 84.3759994506836,27.131999969482422 76.26100158691406,27.27199935913086 C64.01799774169922,27.42799949645996 51.882999420166016,31.069000244140625 40.520999908447266,35.58399963378906 C4.834000110626221,50.374000549316406 -32.06999969482422,70.86699676513672 -72.02100372314453,62.95600128173828 C-100.9800033569336,57.808998107910156 -127.75900268554688,40.895999908447266 -143.5050048828125,15.791999816894531 C-150.34100341796875,5.164000034332275 -154.7209930419922,-7.938000202178955 -153.68899536132812,-20.082000732421875 C-152.968994140625,-31.04199981689453 -148.43499755859375,-41.54199981689453 -141.86199951171875,-50.39699935913086 C-139.6820068359375,-53.22200012207031 -137.53799438476562,-56.30500030517578 -134.66900634765625,-58.38800048828125 C-130.81199645996094,-61.18899917602539 -127.5999984741211,-59.040000915527344 -127.1729965209961,-53.935001373291016 C-126.89399719238281,-51.1870002746582 -127.11900329589844,-48.17399978637695 -127.05799865722656,-45.2400016784668 C-127.41400146484375,-5.123000144958496 -93.41799926757812,30.906999588012695 -53.04100036621094,30.281999588012695 C-44.18199920654297,29.966999053955078 -35.47200012207031,26.738000869750977 -27.093000411987305,23.89900016784668 C-21.614999771118164,21.95199966430664 -16.08099937438965,19.57200050354004 -10.878999710083008,17.172000885009766 C-4.145999908447266,14.21500015258789 -2.26200008392334,9.107999801635742 -7.618000030517578,3.6459999084472656 C-13.072999954223633,-1.9149999618530273 -19.027000427246094,-7.320000171661377 -23.447999954223633,-13.85099983215332 C-32.72700119018555,-27.113000869750977 -36.3650016784668,-42.069000244140625 -35.29600143432617,-58.22700119018555 C-35.18899917602539,-63.78900146484375 -32.04499816894531,-70.86699676513672 -25.572999954223633,-67.26300048828125 C-22.64699935913086,-65.50199890136719 -21.134000778198242,-62.31800079345703 -19.84000015258789,-58.88399887084961 C-12.451000213623047,-35.44900131225586 4.925000190734863,-18.195999145507812 26.163999557495117,-7.046000003814697 C38.025001525878906,0.0860000029206276 50.73099899291992,-4.933000087738037 63.19499969482422,-7.139999866485596 C83.80699920654297,-10.640000343322754 103.9800033569336,-6.6539998054504395 123.55799865722656,-0.3619999885559082 C131.7899932861328,2.306999921798706 139.7429962158203,6.651000022888184 145.06199645996094,13.57699966430664 C149.1300048828125,18.847000122070312 154.7220001220703,29.819000244140625 150.3470001220703,35.909000396728516 C150.3470001220703,35.909000396728516 150.24400329589844,36.03099822998047 150.24400329589844,36.03099822998047z"></path></g><g opacity="1" transform="matrix(1,0,0,1,2841.125,2923.949951171875)"><path fill="rgb(0,0,0)" fill-opacity="1" d=" M22.354000091552734,52.66400146484375 C20.77400016784668,54.7140007019043 17.775999069213867,55.35599899291992 15.217000007629395,55.6609992980957 C8.482000350952148,56.45500183105469 1.9639999866485596,56.23699951171875 -4.419000148773193,55.88800048828125 C-6.97599983215332,55.724998474121094 -9.586000442504883,55.4379997253418 -12.005999565124512,54.59600067138672 C-17.11199951171875,52.93199920654297 -20.16200065612793,48.41400146484375 -22.805999755859375,43.76599884033203 C-25.152999877929688,39.71099853515625 -27.472000122070312,35.63600158691406 -29.775999069213867,31.555999755859375 C-34.15399932861328,23.79400062561035 -38.452999114990234,16.011999130249023 -42.69200134277344,8.16100025177002 C-45.27899932861328,3.0850000381469727 -49.02199935913086,-2.864000082015991 -46.97100067138672,-8.67300033569336 C-45.14699935913086,-13.390999794006348 -39.474998474121094,-16.743000030517578 -35.111000061035156,-19.450000762939453 C-25.336000442504883,-25.378999710083008 -15.494000434875488,-31.03700065612793 -5.7779998779296875,-37.18000030517578 C-0.7760000228881836,-40.297000885009766 3.4560000896453857,-44.516998291015625 8.137999534606934,-48.10599899291992 C17.788999557495117,-55.58700180053711 29.329999923706055,-56.45600128173828 41.013999938964844,-54.604000091552734 C44.33300018310547,-54.0890007019043 49.02299880981445,-52.83000183105469 48.48699951171875,-48.82699966430664 C47.856998443603516,-41.382999420166016 40.9109992980957,-33.797000885009766 30.04800033569336,-25.37700080871582 C22.697999954223633,-19.28700065612793 15.164999961853027,-14.14900016784668 7.948999881744385,-8.097999572753906 C2.1730000972747803,-3.134000062942505 4.7179999351501465,3.1579999923706055 7.377999782562256,9.003000259399414 C11.3100004196167,17.74799919128418 15.642999649047852,26.277999877929688 19.53700065612793,34.994998931884766 C21.422000885009766,39.89099884033203 25.496000289916992,47.683998107910156 22.444000244140625,52.54399871826172 C22.444000244140625,52.54399871826172 22.354000091552734,52.66400146484375 22.354000091552734,52.66400146484375z"></path></g><g opacity="1" transform="matrix(1,0,0,1,3098.56103515625,2925.10595703125)"><path fill="rgb(0,0,0)" fill-opacity="1" d=" M8.225000381469727,-51.231998443603516 C18.34600067138672,-46.229000091552734 25.003999710083008,27.555999755859375 24.04599952697754,40.904998779296875 C23.808000564575195,48.191001892089844 20.951000213623047,51.257999420166016 13.604000091552734,51.757999420166016 C9.234999656677246,52.132999420166016 4.75,52.000999450683594 0.47099998593330383,51.62200164794922 C-2.372999906539917,51.3120002746582 -5.4710001945495605,50.90599822998047 -7.811999797821045,49.229000091552734 C-11.461000442504883,46.393001556396484 -12.192000389099121,40.56399917602539 -13.178000450134277,36.20000076293945 C-14.947999954223633,26.94499969482422 -16.597999572753906,17.714000701904297 -18.274999618530273,8.447999954223633 C-19.937999725341797,-1.1380000114440918 -21.82699966430664,-10.675000190734863 -23.325000762939453,-20.31800079345703 C-25.003999710083008,-30.270999908447266 -21.19499969482422,-35.402000427246094 -13.003000259399414,-40.483001708984375 C-8.4399995803833,-43.483001708984375 -4.02400016784668,-46.652000427246094 0.9319999814033508,-49.53099822998047 C3.0339999198913574,-50.75600051879883 5.784999847412109,-52.132999420166016 8.092000007629395,-51.28300094604492 C8.092000007629395,-51.28300094604492 8.225000381469727,-51.231998443603516 8.225000381469727,-51.231998443603516z"></path></g><g opacity="1" transform="matrix(1,0,0,1,3171.18408203125,2592.091064453125)"><path fill="rgb(0,0,0)" fill-opacity="1" d=" M16.084999084472656,-34.35599899291992 C26.625,-33.763999938964844 29.878999710083008,-11.82800006866455 28.041000366210938,-3.6040000915527344 C25.149999618530273,10.206999778747559 13.378000259399414,20.996999740600586 1.1779999732971191,27.309999465942383 C-5.135000228881836,30.488000869750977 -12.91100025177002,34.35599899291992 -20.030000686645508,31.878999710083008 C-28.10700035095215,28.95599937438965 -29.878999710083008,18.452999114990234 -26.516000747680664,11.145000457763672 C-23.757999420166016,4.736000061035156 -17.19700050354004,1.3580000400543213 -11.397000312805176,-1.9620000123977661 C-6.184000015258789,-4.941999912261963 -1.6130000352859497,-8.572999954223633 2.0339999198913574,-12.954999923706055 C5.193999767303467,-16.70599937438965 7.745999813079834,-21.041000366210938 9.704000473022461,-25.82200050354004 C11.161999702453613,-28.889999389648438 12.133000373840332,-33.60100173950195 15.939000129699707,-34.3390007019043 C15.939000129699707,-34.3390007019043 16.084999084472656,-34.35599899291992 16.084999084472656,-34.35599899291992z"></path></g></g></g></g></svg>