<svg xmlns="http://www.w3.org/2000/svg" xmlns:xlink="http://www.w3.org/1999/xlink" viewBox="0 0 512 512" width="512" height="512" style="width: 100%; height: 100%; transform: translate3d(0,0,0);" preserveAspectRatio="xMidYMid meet"><defs><clipPath id="__lottie_element_53189"><rect width="512" height="512" x="0" y="0"></rect></clipPath></defs><g clip-path="url(#__lottie_element_53189)"><g style="display: block;" transform="matrix(1,0,0,1,0,0)" opacity="1"><g opacity="1" transform="matrix(1,0,0,1,258.9649963378906,254.94400024414062)"><path fill="rgb(0,0,0)" fill-opacity="1" d=" M244.73899841308594,-24.451000213623047 C160.77999877929688,-118.2509994506836 79.27400207519531,-51.95399856567383 79.27400207519531,-51.95399856567383 C79.27400207519531,-51.95399856567383 51.55099868774414,-110.53199768066406 1.5850000381469727,-114.7770004272461 C-80.19300079345703,-121.7249984741211 -96.54900360107422,-63.244998931884766 -134.16700744628906,-67.58799743652344 C-171.78399658203125,-71.93000030517578 -169.33099365234375,-125.77799987792969 -178.32699584960938,-163.1230010986328 C-187.90699768066406,-202.89700317382812 -209.0919952392578,-216.66000366210938 -223.0489959716797,-221.41600036621094 C-228.76100158691406,-223.36300659179688 -234.05299377441406,-217.63800048828125 -232.36900329589844,-211.5229949951172 C-227.94900512695312,-195.468994140625 -229.0290069580078,-187.44200134277344 -229.0290069580078,-187.44200134277344 C-229.43800354003906,-182.2310028076172 -238.3730010986328,-186.91900634765625 -242.3179931640625,-186.3560028076172 C-249.64199829101562,-185.31100463867188 -253.03500366210938,-177.93899536132812 -248.88099670410156,-171.44900512695312 C-244.62399291992188,-164.7989959716797 -239.38600158691406,-168.25900268554688 -233.93600463867188,-150.52999877929688 C-215.0679931640625,-89.16200256347656 -246.20199584960938,-29.37299919128418 -214.3090057373047,42.7130012512207 C-177.91299438476562,124.9749984741211 -66.56400299072266,90.7699966430664 -66.56400299072266,90.7699966430664 C-82.51000213623047,117.25900268554688 -121.9739990234375,118.24700164794922 -134.98500061035156,124.78700256347656 C-139.63400268554688,127.125 -139.697998046875,134.03700256347656 -135.156005859375,136.60400390625 C-68.74400329589844,174.14700317382812 -0.8679999709129333,139.1179962158203 -0.8679999709129333,139.1179962158203 C26.118000030517578,223.36300659179688 77.91100311279297,204.8350067138672 77.91100311279297,204.8350067138672 C230.56300354003906,166.6199951171875 254.5850067138672,-13.451000213623047 244.73899841308594,-24.451000213623047z M-6.48799991607666,32.69499969482422 C-29.14699935913086,23.902999877929688 -13.006999969482422,-16.01099967956543 6.3470001220703125,-3.0959999561309814 C25.700000762939453,9.821000099182129 6.942999839782715,37.90599822998047 -6.48799991607666,32.69499969482422z"></path></g></g></g></svg>