<svg xmlns="http://www.w3.org/2000/svg" xmlns:xlink="http://www.w3.org/1999/xlink" viewBox="0 0 512 512" width="512" height="512" style="width: 100%; height: 100%; transform: translate3d(0,0,0);" preserveAspectRatio="xMidYMid meet"><defs><clipPath id="__lottie_element_53194"><rect width="512" height="512" x="0" y="0"></rect></clipPath></defs><g clip-path="url(#__lottie_element_53194)"><g style="display: block;" transform="matrix(1.0399999618530273,0,0,1.0399999618530273,-3.202423095703125,0.3293609619140625)" opacity="1"><g opacity="1" transform="matrix(1,0,0,1,248.81100463867188,246.01600646972656)"><path fill="rgb(0,0,0)" fill-opacity="1" d=" M-237.56100463867188,115.81400299072266 C-248.56100463867188,109.81400299072266 -230.56100463867188,79.81400299072266 -200.56100463867188,71.81400299072266 C-181.1699981689453,66.64299774169922 -157.49200439453125,80.37799835205078 -158.56100463867188,67.81400299072266 C-162.56100463867188,20.81399917602539 -167.56100463867188,-50.18600082397461 -114.56099700927734,-140.18600463867188 C-75.58300018310547,-206.375 16.496000289916992,-245.76499938964844 91.43900299072266,-238.18600463867188 C180.43899536132812,-229.18600463867188 248.56100463867188,-190.01600646972656 243.43899536132812,-113.18599700927734 C238.43899536132812,-38.18600082397461 181.16900634765625,-12.020000457763672 132.43899536132812,-19.18600082397461 C98.43900299072266,-24.18600082397461 86.08699798583984,-46.76599884033203 89.43900299072266,-71.18599700927734 C92.29299926757812,-91.97899627685547 119.1780014038086,-109.6520004272461 136.43899536132812,-107.18599700927734 C178.43899536132812,-101.18599700927734 156.56100463867188,-68.95800018310547 172.43899536132812,-69.18599700927734 C185.33700561523438,-69.37100219726562 199.65199279785156,-92.4260025024414 197.43899536132812,-112.18599700927734 C194.3159942626953,-140.0679931640625 158.3249969482422,-158.05299377441406 129.43899536132812,-156.18600463867188 C86.6709976196289,-153.4219970703125 60.43899917602539,-118.18599700927734 56.43899917602539,-65.18599700927734 C51.61600112915039,-1.2730000019073486 102.052001953125,57.35200119018555 115.43900299072266,61.81399917602539 C127.43900299072266,65.81400299072266 130.3209991455078,46.78900146484375 164.43899536132812,45.81399917602539 C199.43899536132812,44.81399917602539 214.51699829101562,75.48100280761719 210.43899536132812,92.81400299072266 C206.43899536132812,109.81400299072266 180.43899536132812,64.81400299072266 153.43899536132812,131.81399536132812 C147.3800048828125,146.8489990234375 169.05999755859375,154.1540069580078 169.23300170898438,183.17100524902344 C169.43899536132812,217.81399536132812 101.2509994506836,227.9010009765625 42.43899917602539,235.81399536132812 C-31.530000686645508,245.76600646972656 -98.44599914550781,233.8350067138672 -96.56099700927734,217.81399536132812 C-94.56099700927734,200.81399536132812 -48.895999908447266,218.13099670410156 29.43899917602539,205.81399536132812 C85.25199890136719,197.03799438476562 117.00900268554688,189.94000244140625 116.43900299072266,181.81399536132812 C115.7770004272461,172.38299560546875 47.970001220703125,158.2779998779297 -23.56100082397461,170.81399536132812 C-120.56099700927734,187.81399536132812 -148.67799377441406,211.1490020751953 -163.56100463867188,206.81399536132812 C-189.81300354003906,199.16799926757812 -180.41400146484375,139.32400512695312 -187.56100463867188,130.81399536132812 C-199.28700256347656,116.85299682617188 -230.55599975585938,119.63500213623047 -237.56100463867188,115.81400299072266z"></path></g></g></g></svg>