<svg xmlns="http://www.w3.org/2000/svg" xmlns:xlink="http://www.w3.org/1999/xlink" viewBox="0 0 512 512" width="512" height="512" style="width: 100%; height: 100%; transform: translate3d(0,0,0);" preserveAspectRatio="xMidYMid meet"><defs><clipPath id="__lottie_element_51705"><rect width="512" height="512" x="0" y="0"></rect></clipPath></defs><g clip-path="url(#__lottie_element_51705)"><g style="display: block;" transform="matrix(1,0,0,1,254.8159942626953,262.5419921875)" opacity="1"><g opacity="1" transform="matrix(1,0,0,1,0,0)"><path fill="rgb(0,0,0)" fill-opacity="1" d=" M-1.9390000104904175,176.26199340820312 C-17.361000061035156,168.9759979248047 -34.472999572753906,172.85899353027344 -50.59199905395508,174.76400756835938 C-244.69200134277344,205.2270050048828 -177.11099243164062,-69.33300018310547 -18.62700080871582,-24.624000549316406 C-51.50400161743164,-64.97000122070312 -112.83399963378906,-44.02799987792969 -145.60000610351562,-14.109000205993652 C-155.5780029296875,-3.2950000762939453 -173.70599365234375,-10.409000396728516 -173.91400146484375,-25.011999130249023 C-176.94400024414062,-61.81399917602539 -212.97000122070312,-31.093000411987305 -225.64500427246094,-16.97800064086914 C-228.86000061035156,-13.616999626159668 -232.41700744628906,-11.072999954223633 -237.3769989013672,-11.420999526977539 C-258.0329895019531,-15.03499984741211 -245.3679962158203,-43.28200149536133 -239.3470001220703,-55.52000045776367 C-197.6719970703125,-135.75599670410156 -125.25299835205078,-198.7740020751953 -39.8849983215332,-228.64500427246094 C-22.80500030517578,-235.61700439453125 -2.0399999618530273,-224.9409942626953 -9.892999649047852,-203.43699645996094 C-14.10099983215332,-190.92300415039062 -15.63599967956543,-178.18699645996094 -14.961000442504883,-165.125 C-12.70199966430664,-127.37200164794922 5.932000160217285,-92.33300018310547 35.689998626708984,-69.04499816894531 C36.974998474121094,-71.64099884033203 35.21200180053711,-73.14099884033203 34.53200149536133,-74.7959976196289 C19.7450008392334,-108.38200378417969 25.28499984741211,-148.56900024414062 55.257999420166016,-172.04200744628906 C58.540000915527344,-174.67999267578125 58.643001556396484,-176.77000427246094 55.314998626708984,-179.55499267578125 C41.1349983215332,-192.25100708007812 26.358999252319336,-206.9980010986328 21.097999572753906,-225.78500366210938 C18.75200080871582,-234.32400512695312 26.257999420166016,-241.68499755859375 34.46799850463867,-236.9080047607422 C47.641998291015625,-231.30499267578125 60.17100143432617,-224.3730010986328 73.08599853515625,-218.24099731445312 C76.35600280761719,-216.68800354003906 80.12100219726562,-212.53199768066406 83.35800170898438,-215.36599731445312 C85.98799896240234,-217.66900634765625 83.13700103759766,-222.19400024414062 82.40599822998047,-225.66099548339844 C81.41100311279297,-230.3820037841797 80.37000274658203,-235.05099487304688 80.23699951171875,-239.92100524902344 C78.83100128173828,-249.49099731445312 91.35700225830078,-254.51400756835938 97.11000061035156,-246.72799682617188 C109.63300323486328,-232.2469940185547 122.9260025024414,-218.5229949951172 137.5070037841797,-206.08099365234375 C154.7209930419922,-188.34800720214844 186.75,-180.30499267578125 186.92799377441406,-151.39999389648438 C187.93800354003906,-110.0250015258789 246.6840057373047,-135.09800720214844 240.20199584960938,-88.95800018310547 C237.8820037841797,-63.24800109863281 221.73800659179688,-46.98899841308594 199.24600219726562,-36.65599822998047 C186.08599853515625,-29.934999465942383 184.46499633789062,-42.4630012512207 183.7550048828125,-52.79899978637695 C181.75599670410156,-70.8740005493164 163.77000427246094,-69.70999908447266 149.58900451660156,-69.20700073242188 C144.24099731445312,-69.18000030517578 140.2550048828125,-71.63400268554688 137.76800537109375,-76.2020034790039 C132.8209991455078,-91.34500122070312 93.38400268554688,-94.02300262451172 106.40599822998047,-73.05899810791016 C112.36000061035156,-65.4800033569336 118.78900146484375,-58.270999908447266 125.08300018310547,-50.9630012512207 C143.0919952392578,-30.292999267578125 161.85800170898438,-6.590000152587891 161.90699768066406,22.211000442504883 C161.9510040283203,28.825000762939453 163.69700622558594,29.944000244140625 169.82400512695312,27.43199920654297 C200.45700073242188,11.154999732971191 251.02699279785156,28.31599998474121 248.6540069580078,66.5999984741211 C247.99099731445312,80.74500274658203 234.7449951171875,98.69999694824219 219.39599609375,93.57099914550781 C214.14199829101562,91.51300048828125 212.4219970703125,86.08200073242188 214.73899841308594,80.16100311279297 C215.74099731445312,77.60099792480469 217.99099731445312,75.52899932861328 217.87600708007812,72.05999755859375 C211.46499633789062,73.7249984741211 207.1280059814453,81.55699920654297 199.87899780273438,77.61799621582031 C190.52699279785156,72.16899871826172 203.57699584960938,55.34000015258789 186.45799255371094,59.696998596191406 C173.66099548339844,61.95399856567383 162.29200744628906,72.79199981689453 148.7969970703125,66.79399871826172 C145.8979949951172,65.58300018310547 142.8560028076172,66.15799713134766 140.32899475097656,68.2239990234375 C131.69200134277344,75.28600311279297 121.53500366210938,79.44400024414062 111.32099914550781,83.50499725341797 C108.09700012207031,85.18299865722656 101.77400207519531,85.98600006103516 102.3280029296875,90.72799682617188 C102.89800262451172,93.7020034790039 105.68199920654297,92.84200286865234 107.71499633789062,92.83899688720703 C118.68000030517578,92.822998046875 129.66400146484375,92.23899841308594 140.48500061035156,94.81400299072266 C171.78599548339844,98.53199768066406 189.97999572753906,138.63299560546875 164.43899536132812,160.72300720214844 C147.2689971923828,171.8159942626953 147.28700256347656,145.01300048828125 140.78199768066406,151.72500610351562 C135.47900390625,155.677001953125 129.33299255371094,156.75 122.81099700927734,156.33299255371094 C113.43900299072266,156.8459930419922 109.33399963378906,144.7949981689453 117.44300079345703,139.8699951171875 C121.4990005493164,136.05999755859375 129.98899841308594,133.21800231933594 127.54100036621094,126.22699737548828 C125.15799713134766,116.33999633789062 94.88999938964844,124.48400115966797 85.3479995727539,122.4020004272461 C71.16899871826172,122.677001953125 54.91600036621094,115.52100372314453 60.28799819946289,98.7300033569336 C62.22600173950195,90.51599884033203 62.2130012512207,90.73500061035156 53.95899963378906,90.25900268554688 C39.784000396728516,90.62200164794922 24.488000869750977,83.24099731445312 11.706000328063965,91.88999938964844 C-18.382999420166016,110.06999969482422 -59.426998138427734,114.36000061035156 -87.91200256347656,90.64900207519531 C-96.37100219726562,81.5459976196289 -100.01599884033203,92.1259994506836 -103.3219985961914,99.41400146484375 C-112.34200286865234,133.87100219726562 -45.22800064086914,122.22599792480469 -25.797000885009766,125.75299835205078 C-6.198999881744385,127.86499786376953 12.123000144958496,132.8159942626953 26.413000106811523,147.57000732421875 C34.28900146484375,153.0850067138672 36.09199905395508,170.7760009765625 46.37699890136719,167.53199768066406 C90.32599639892578,160.14999389648438 55.577999114990234,226.11399841308594 44.321998596191406,242.62399291992188 C37.071998596191406,253.6280059814453 24.308000564575195,253.17799377441406 18.861000061035156,241.27099609375 C12.972000122070312,228.39599609375 4.066999912261963,218.10699462890625 -4.64300012588501,207.45199584960938 C-14.937000274658203,195.13600158691406 -15.58899974822998,186.02000427246094 -1.9390000104904175,176.26199340820312z"></path></g></g></g></svg>