<svg xmlns="http://www.w3.org/2000/svg" xmlns:xlink="http://www.w3.org/1999/xlink" viewBox="0 0 512 512" width="512" height="512" style="width: 100%; height: 100%; transform: translate3d(0,0,0);" preserveAspectRatio="xMidYMid meet"><defs><clipPath id="__lottie_element_53684"><rect width="512" height="512" x="0" y="0"></rect></clipPath></defs><g clip-path="url(#__lottie_element_53684)"><g style="display: block;" transform="matrix(1,0,0,1,256,266.65301513671875)" opacity="1"><g opacity="1" transform="matrix(1,0,0,1,0,0)"><path fill="rgb(0,0,0)" fill-opacity="1" d=" M90.87899780273438,-152.56900024414062 C90.87899780273438,-152.56900024414062 81.31900024414062,-152.56900024414062 81.31900024414062,-152.56900024414062 C71.46099853515625,-152.56900024414062 61.81399917602539,-151.6510009765625 52.45199966430664,-149.91099548339844 C52.95199966430664,-190.6179962158203 47.22800064086914,-205.96800231933594 45.9010009765625,-208.95199584960938 C44.733001708984375,-211.57899475097656 42.83399963378906,-213.81500244140625 40.430999755859375,-215.3939971923828 C14.918000221252441,-232.15899658203125 -16.990999221801758,-220.7779998779297 -18.336999893188477,-220.28700256347656 C-23.697999954223633,-218.32400512695312 -27.479999542236328,-213.48899841308594 -28.0939998626709,-207.81399536132812 C-31.03499984741211,-180.60800170898438 -41.45000076293945,-158.53799438476562 -46.768001556396484,-148.7449951171875 C-57.89099884033203,-151.24200439453125 -69.4530029296875,-152.56900024414062 -81.31900024414062,-152.56900024414062 C-81.31900024414062,-152.56900024414062 -90.87899780273438,-152.56900024414062 -90.87899780273438,-152.56900024414062 C-177.78700256347656,-152.56900024414062 -248.49099731445312,-81.86499786376953 -248.49099731445312,5.043000221252441 C-248.49099731445312,5.043000221252441 -248.49099731445312,37.393001556396484 -248.49099731445312,37.393001556396484 C-248.49099731445312,124.3010025024414 -177.78700256347656,195.0070037841797 -90.87899780273438,195.0070037841797 C-90.87899780273438,195.0070037841797 -90.55899810791016,195.0070037841797 -90.55899810791016,195.0070037841797 C-67.90899658203125,213.44500732421875 -39.03499984741211,224.51499938964844 -7.619999885559082,224.51499938964844 C-7.619999885559082,224.51499938964844 7.619999885559082,224.51499938964844 7.619999885559082,224.51499938964844 C39.03499984741211,224.51499938964844 67.90899658203125,213.44500732421875 90.55899810791016,195.0070037841797 C90.55899810791016,195.0070037841797 90.87899780273438,195.0070037841797 90.87899780273438,195.0070037841797 C177.78700256347656,195.0070037841797 248.49099731445312,124.3010025024414 248.49099731445312,37.393001556396484 C248.49099731445312,37.393001556396484 248.49099731445312,5.043000221252441 248.49099731445312,5.043000221252441 C248.49099731445312,-81.86499786376953 177.78700256347656,-152.56900024414062 90.87899780273438,-152.56900024414062z M53.72800064086914,-11.223999977111816 C53.72800064086914,-11.223999977111816 129.7239990234375,-75.59600067138672 129.7239990234375,-75.59600067138672 C134.8350067138672,-79.927001953125 142.45399475097656,-79.45800018310547 146.99600219726562,-74.52799987792969 C169.56900024414062,-50.02799987792969 162.33700561523438,-17.177000045776367 162.01800537109375,-15.789999961853027 C160.90899658203125,-10.96500015258789 157.05599975585938,-7.250999927520752 152.19400024414062,-6.316999912261963 C152.19400024414062,-6.316999912261963 64.16400146484375,10.59000015258789 64.16400146484375,10.59000015258789 C63.374000549316406,10.741999626159668 62.58399963378906,10.8149995803833 61.801998138427734,10.8149995803833 C57.0620002746582,10.8149995803833 52.6349983215332,8.109000205993652 50.53099822998047,3.7090001106262207 C48.077999114990234,-1.4160000085830688 49.391998291015625,-7.551000118255615 53.72800064086914,-11.223999977111816z M-147.1439971923828,-74.52799987792969 C-142.60400390625,-79.45600128173828 -134.98599243164062,-79.9280014038086 -129.8719940185547,-75.59600067138672 C-129.8719940185547,-75.59600067138672 -53.875,-11.223999977111816 -53.875,-11.223999977111816 C-49.53900146484375,-7.551000118255615 -48.22600173950195,-1.4160000085830688 -50.678001403808594,3.7090001106262207 C-52.78300094604492,8.109000205993652 -57.20899963378906,10.8149995803833 -61.95000076293945,10.8149995803833 C-62.731998443603516,10.8149995803833 -63.52199935913086,10.741999626159668 -64.31199645996094,10.59000015258789 C-64.31199645996094,10.59000015258789 -152.34100341796875,-6.316999912261963 -152.34100341796875,-6.316999912261963 C-157.2030029296875,-7.250999927520752 -161.05599975585938,-10.96500015258789 -162.16600036621094,-15.789999961853027 C-162.48500061035156,-17.177000045776367 -169.7169952392578,-50.02799987792969 -147.1439971923828,-74.52799987792969z M170.65499877929688,81.66000366210938 C170.65499877929688,81.66000366210938 124.9729995727539,126.71600341796875 124.9729995727539,126.71600341796875 C121.18299865722656,130.4530029296875 115.44499969482422,131.38099670410156 110.66699981689453,129.02699279785156 C110.66699981689453,129.02699279785156 80.48400115966797,114.14399719238281 80.48400115966797,114.14399719238281 C80.48400115966797,114.14399719238281 29.78700065612793,151.10499572753906 29.78700065612793,151.10499572753906 C27.604999542236328,152.69500732421875 25.020999908447266,153.5050048828125 22.422000885009766,153.5050048828125 C20.430999755859375,153.5050048828125 18.43199920654297,153.0290069580078 16.601999282836914,152.0659942626953 C16.601999282836914,152.0659942626953 -42.76499938964844,120.822998046875 -42.76499938964844,120.822998046875 C-42.76499938964844,120.822998046875 -90.39900207519531,144.0399932861328 -90.39900207519531,144.0399932861328 C-95.03900146484375,146.30099487304688 -100.59400177001953,145.47900390625 -104.37799835205078,141.9669952392578 C-104.37799835205078,141.9669952392578 -173.53500366210938,77.79399871826172 -173.53500366210938,77.79399871826172 C-178.1320037841797,73.52799987792969 -178.85699462890625,66.51699829101562 -175.2310028076172,61.402000427246094 C-171.60499572753906,56.2859992980957 -164.7480010986328,54.64799880981445 -159.20199584960938,57.57400131225586 C-159.20199584960938,57.57400131225586 -100.86100006103516,88.34100341796875 -100.86100006103516,88.34100341796875 C-100.86100006103516,88.34100341796875 -50.62200164794922,52.06999969482422 -50.62200164794922,52.06999969482422 C-46.51499938964844,49.104000091552734 -41.02299880981445,48.90999984741211 -36.71699905395508,51.582000732421875 C-36.71699905395508,51.582000732421875 20.391000747680664,86.99800109863281 20.391000747680664,86.99800109863281 C20.391000747680664,86.99800109863281 60.494998931884766,51.6150016784668 60.494998931884766,51.6150016784668 C64.69300079345703,47.9109992980957 70.84600067138672,47.45000076293945 75.55000305175781,50.4900016784668 C75.55000305175781,50.4900016784668 114.09500122070312,75.40399932861328 114.09500122070312,75.40399932861328 C114.09500122070312,75.40399932861328 157.9499969482422,60.893001556396484 157.9499969482422,60.893001556396484 C163.46299743652344,59.066001892089844 169.50999450683594,61.284000396728516 172.5399932861328,66.23699951171875 C175.5709991455078,71.19200134277344 174.79100036621094,77.58200073242188 170.65499877929688,81.66000366210938z"></path></g></g></g></svg>