<svg xmlns="http://www.w3.org/2000/svg" xmlns:xlink="http://www.w3.org/1999/xlink" viewBox="0 0 512 512" width="512" height="512" style="width: 100%; height: 100%; transform: translate3d(0,0,0);" preserveAspectRatio="xMidYMid meet"><defs><clipPath id="__lottie_element_53514"><rect width="512" height="512" x="0" y="0"></rect></clipPath></defs><g clip-path="url(#__lottie_element_53514)"><g style="display: block;" transform="matrix(1,0,0,1,0,0)" opacity="1"><g opacity="1" transform="matrix(1,0,0,1,256,299.0469970703125)"><path fill="rgb(0,0,0)" fill-opacity="1" d=" M129.1320037841797,20.927000045776367 C127.84700012207031,19.44300079345703 114.73699951171875,30.43899917602539 112.91999816894531,32.016998291015625 C40.70100021362305,94.73100280761719 -28.29800033569336,173.49099731445312 -132.822998046875,180.63600158691406 C-205.2969970703125,185.58999633789062 -278.5190124511719,136.89300537109375 -244.0449981689453,57.327999114990234 C-225.32400512695312,14.121999740600586 -156.6300048828125,-4.939000129699707 -128.84300231933594,37.18600082397461 C-112.96199798583984,61.262001037597656 -123.34200286865234,99.21099853515625 -153.49200439453125,105.40299987792969 C-169.99899291992188,108.79199981689453 -194.03700256347656,94.60199737548828 -184.11599731445312,76.79399871826172 C-176.0959930419922,62.395999908447266 -165.781005859375,69.3010025024414 -154.052001953125,71.4739990234375 C-151.5540008544922,38.49300003051758 -191.3509979248047,44.06100082397461 -206.2790069580078,64.75 C-235.36099243164062,105.05400085449219 -197.3179931640625,140.02999877929688 -156.8350067138672,144.02200317382812 C-89.48999786376953,150.66299438476562 -1.6749999523162842,92.0979995727539 46.233001708984375,48.25299835205078 C48.47600173950195,46.20000076293945 62.6510009765625,33.172000885009766 60.35200119018555,31.04599952697754 C35.887001037597656,30.91200065612793 13.387999534606934,24.815000534057617 -9.458999633789062,16.92099952697754 C-69.7979965209961,-3.930000066757202 -123.572998046875,-46.941001892089844 -187.9759979248047,-55.345001220703125 C-193.20199584960938,-56.027000427246094 -218.53399658203125,-54.78499984741211 -218.8990020751953,-59.13999938964844 C-218.9429931640625,-61.98400115966797 -217.88999938964844,-64.37799835205078 -216.47300720214844,-66.75800323486328 C-211.7570037841797,-74.67900085449219 -178.46099853515625,-97.5 -168.843994140625,-104.05999755859375 C-83.90399932861328,-161.9969940185547 11.118000030517578,-199.0659942626953 114.5479965209961,-167.69200134277344 C161.5959930419922,-153.42100524902344 200.79200744628906,-121.8489990234375 250.61599731445312,-117.69300079345703 C256.7309875488281,-108.63500213623047 249.2100067138672,-83.95500183105469 239.90199279785156,-79.63200378417969 C230.03900146484375,-75.05000305175781 197.43299865722656,-80.63300323486328 185.6929931640625,-83.125 C157.16799926757812,-89.18199920654297 128.73399353027344,-102.10399627685547 100.822998046875,-110.48300170898438 C123.7300033569336,-53.59299850463867 37.86899948120117,-15.03499984741211 11.451000213623047,-68.68000030517578 C2.2230000495910645,-87.41699981689453 5.690000057220459,-101.72599792480469 11.807000160217285,-120.59400177001953 C-32.0989990234375,-117.35800170898438 -75.18099975585938,-100.69400024414062 -114.9520034790039,-82.54199981689453 C-118.00900268554688,-81.14700317382812 -124.61499786376953,-79.18499755859375 -125.71099853515625,-76.14700317382812 C-88.44599914550781,-64.93499755859375 -57.75899887084961,-40.284000396728516 -22.5049991607666,-24.628999710083008 C34.347999572753906,0.6179999709129333 74.9749984741211,2.4609999656677246 130.49400329589844,-27.246999740600586 C139.80299377441406,-32.22800064086914 166.64199829101562,-52.02799987792969 173.04100036621094,-53.459999084472656 C186.1179962158203,-56.387001037597656 206.6320037841797,-53.040000915527344 220.15199279785156,-51.840999603271484 C217.53799438476562,-48.013999938964844 212.47999572753906,-44.86800003051758 208.65699768066406,-42.12099838256836 C199.6649932861328,-35.6609992980957 167.32400512695312,-17.976999282836914 165.57200622558594,-8.359000205993652 C161.58200073242188,13.543000221252441 163.9219970703125,41.832000732421875 163.60299682617188,64.48300170898438 C163.53599548339844,69.26300048828125 161.5290069580078,73.677001953125 161.40899658203125,78.46399688720703 C160.927001953125,97.78099822998047 166.34100341796875,115.88099670410156 161.34800720214844,134.7989959716797 C187.9250030517578,149.61199951171875 181.02699279785156,187.9429931640625 151.46400451660156,193.96200561523438 C126.39199829101562,199.0659942626953 106.83599853515625,171.11300659179688 117.8949966430664,148.19400024414062 C120.05799865722656,143.7100067138672 129.1320037841797,136.0229949951172 129.1320037841797,135.16200256347656 C129.1320037841797,135.16200256347656 129.1320037841797,20.927000045776367 129.1320037841797,20.927000045776367z"></path></g><g opacity="1" transform="matrix(1,0,0,1,289.3160095214844,51.43899917602539)"><path fill="rgb(0,0,0)" fill-opacity="1" d=" M-7.892000198364258,-32.244998931884766 C46.18600082397461,-42.1619987487793 46.395999908447266,42.16299819946289 -7.814000129699707,35.50699996948242 C-46.39699935913086,30.768999099731445 -43.32899856567383,-25.746000289916992 -7.892000198364258,-32.244998931884766z"></path></g><g opacity="1" transform="matrix(1,0,0,1,388.3550109863281,81.00700378417969)"><path fill="rgb(0,0,0)" fill-opacity="1" d=" M-3.756999969482422,-35.51599884033203 C16.937000274658203,-38.994998931884766 37.665000915527344,-19.934999465942383 34.768001556396484,0.8799999952316284 C30.584999084472656,30.941999435424805 -6.438000202178955,38.994998931884766 -24.499000549316406,14.579000473022461 C-37.66400146484375,-3.2170000076293945 -25.599000930786133,-31.8439998626709 -3.756999969482422,-35.51599884033203z"></path></g><g opacity="1" transform="matrix(1,0,0,1,177.30099487304688,82.04100036621094)"><path fill="rgb(0,0,0)" fill-opacity="1" d=" M-0.9819999933242798,-38.66999816894531 C14.220000267028809,-40.797000885009766 32.26100158691406,-24.58300018310547 33.92300033569336,-9.798999786376953 C38.04499816894531,26.858999252319336 -8.545999526977539,40.79800033569336 -26.50200080871582,10.175000190734863 C-38.04499816894531,-9.510000228881836 -22.76799964904785,-35.62200164794922 -0.9819999933242798,-38.66999816894531z"></path></g><g opacity="1" transform="matrix(1,0,0,1,477.98699951171875,125.6050033569336)"><path fill="rgb(0,0,0)" fill-opacity="1" d=" M-2.306999921798706,-33.70500183105469 C11.128999710083008,-35.54999923706055 28.233999252319336,-24.642000198364258 30.395999908447266,-10.729999542236328 C34.749000549316406,17.291000366210938 5.791999816894531,35.54999923706055 -17.02199935913086,16.46299934387207 C-34.01300048828125,2.247999906539917 -25.32200050354004,-30.545000076293945 -2.306999921798706,-33.70500183105469z"></path></g><g opacity="1" transform="matrix(1,0,0,1,99.2020034790039,126.09500122070312)"><path fill="rgb(0,0,0)" fill-opacity="1" d=" M-11.960000038146973,-34.12799835205078 C-4.228000164031982,-35.73899841308594 4.763000011444092,-34.22600173950195 11.555000305175781,-30.246000289916992 C39.617000579833984,-13.79800033569336 19.239999771118164,35.737998962402344 -17.481000900268555,18.996999740600586 C-39.617000579833984,8.906000137329102 -36.494998931884766,-29.014999389648438 -11.960000038146973,-34.12799835205078z"></path></g></g></g></svg>