<svg xmlns="http://www.w3.org/2000/svg" xmlns:xlink="http://www.w3.org/1999/xlink" viewBox="0 0 512 512" width="512" height="512" style="width: 100%; height: 100%; transform: translate3d(0,0,0);" preserveAspectRatio="xMidYMid meet"><defs><clipPath id="__lottie_element_53664"><rect width="512" height="512" x="0" y="0"></rect></clipPath></defs><g clip-path="url(#__lottie_element_53664)"><g style="display: block;" transform="matrix(1,0,0,1,1766.4520263671875,-596.8280029296875)" opacity="1"><g opacity="1" transform="matrix(1,0,0,1,-1516.363037109375,1010.9650268554688)"><path fill="rgb(0,0,0)" fill-opacity="1" d=" M109.58399963378906,-72.4739990234375 C79.72000122070312,-53.066001892089844 44.10599899291992,-41.78499984741211 5.910999774932861,-41.78499984741211 C-37.23400115966797,-41.78499984741211 -77.08200073242188,-56.1870002746582 -109.08100128173828,-80.43000030517578 C-113.93099975585938,-84.1050033569336 -120.89800262451172,-81.0530014038086 -121.44999694824219,-74.99299621582031 C-122.2040023803711,-66.72200012207031 -119.00900268554688,-58.23899841308594 -111.56900024414062,-52.17499923706055 C-91.64900207519531,-35.935001373291016 -81.69999694824219,-31.7450008392334 -85.88999938964844,-5.554999828338623 C-90.08000183105469,20.635000228881836 -86.41000366210938,45.255001068115234 -63.88999938964844,43.67499923706055 C-41.369998931884766,42.10499954223633 -50.79999923706055,0.7350000143051147 -37.18000030517578,0.7350000143051147 C-23.559999465942383,0.7350000143051147 -12.039999961853027,-0.3149999976158142 -14.65999984741211,33.724998474121094 C-17.280000686645508,67.7750015258789 -9.949000358581543,83.48500061035156 8.91100025177002,81.91500091552734 C27.770999908447266,80.34500122070312 35.630001068115234,54.154998779296875 36.66999816894531,21.155000686645508 C37.720001220703125,-11.845000267028809 60.77000045776367,-13.3149995803833 73.86000061035156,-6.505000114440918 C86.95999908447266,0.3050000071525574 106.45999908447266,-4.005000114440918 107.37999725341797,-32.26499938964844 C107.71900177001953,-42.70000076293945 116.28900146484375,-53.18199920654297 120.80400085449219,-62.84600067138672 C124.0719985961914,-69.83999633789062 116.05699920654297,-76.68000030517578 109.58399963378906,-72.4739990234375z"></path></g><g opacity="1" transform="matrix(1,0,0,1,-1462.238037109375,768.4520263671875)"><path fill="rgb(0,0,0)" fill-opacity="1" d=" M32.82400131225586,-8.859000205993652 C19.610000610351562,-8.859000205993652 8.859999656677246,-19.608999252319336 8.859999656677246,-32.823001861572266 C8.859999656677246,-41.358001708984375 13.348999977111816,-48.86000061035156 20.086000442504883,-53.10599899291992 C13.836999893188477,-55.47700119018555 7.070000171661377,-56.7869987487793 0,-56.7869987487793 C-31.312000274658203,-56.7869987487793 -56.7869987487793,-31.312000274658203 -56.7869987487793,0 C-56.7869987487793,31.312000274658203 -31.312000274658203,56.7869987487793 0,56.7869987487793 C31.312000274658203,56.7869987487793 56.7869987487793,31.312000274658203 56.7869987487793,0 C56.7869987487793,-7.070000171661377 55.47800064086914,-13.836000442504883 53.106998443603516,-20.084999084472656 C48.861000061035156,-13.347999572753906 41.358001708984375,-8.859000205993652 32.82400131225586,-8.859000205993652z"></path></g><g opacity="1" transform="matrix(1,0,0,1,-1510.4520263671875,778.426025390625)"><path fill="rgb(0,0,0)" fill-opacity="1" d=" M0,-165.75599670410156 C-14.232999801635742,-165.75599670410156 -28.05299949645996,-163.9510040283203 -41.24300003051758,-160.56100463867188 C-41.24300003051758,-160.56100463867188 -39.209999084472656,-139.8249969482422 -39.209999084472656,-139.8249969482422 C-39.209999084472656,-139.8249969482422 -32.14899826049805,-136.3209991455078 -32.14899826049805,-136.3209991455078 C-25.96500015258789,-133.2519989013672 -23.441999435424805,-125.7509994506836 -26.510000228881836,-119.56600189208984 C-28.694000244140625,-115.16899871826172 -33.11800003051758,-112.62100219726562 -37.71699905395508,-112.62100219726562 C-39.58300018310547,-112.62100219726562 -41.479000091552734,-113.04000091552734 -43.26499938964844,-113.9260025024414 C-43.26499938964844,-113.9260025024414 -56.53200149536133,-120.51100158691406 -56.53200149536133,-120.51100158691406 C-60.391998291015625,-122.4280014038086 -62.99399948120117,-126.1989974975586 -63.415000915527344,-130.48899841308594 C-63.415000915527344,-130.48899841308594 -65.5469970703125,-152.23300170898438 -65.5469970703125,-152.23300170898438 C-124.43800354003906,-126.77899932861328 -165.7570037841797,-68.12799835205078 -165.7570037841797,0 C-165.7570037841797,6.5329999923706055 -165.36399841308594,12.97599983215332 -164.625,19.31399917602539 C-164.625,19.31399917602539 -139.46400451660156,19.31399917602539 -139.46400451660156,19.31399917602539 C-139.46400451660156,19.31399917602539 -125.64900207519531,-1.6799999475479126 -125.64900207519531,-1.6799999475479126 C-121.85299682617188,-7.446000099182129 -114.10299682617188,-9.045000076293945 -108.33599853515625,-5.250999927520752 C-102.56900024414062,-1.4559999704360962 -100.97000122070312,6.295000076293945 -104.76499938964844,12.062000274658203 C-104.76499938964844,12.062000274658203 -115.20500183105469,27.929000854492188 -115.20500183105469,27.929000854492188 C-115.20500183105469,27.929000854492188 -110.91999816894531,30.56999969482422 -110.91999816894531,30.56999969482422 C-105.04299926757812,34.19300079345703 -103.21499633789062,41.893001556396484 -106.83699798583984,47.77000045776367 C-109.1989974975586,51.60200119018555 -113.2969970703125,53.7130012512207 -117.48999786376953,53.7130012512207 C-119.72699737548828,53.7130012512207 -121.99199676513672,53.112998962402344 -124.03700256347656,51.85300064086914 C-124.03700256347656,51.85300064086914 -136.2689971923828,44.31399917602539 -136.2689971923828,44.31399917602539 C-136.2689971923828,44.31399917602539 -159.73199462890625,44.31399917602539 -159.73199462890625,44.31399917602539 C-146.5489959716797,91.7750015258789 -112.73600006103516,130.73599243164062 -68.59700012207031,150.88299560546875 C-68.59700012207031,150.88299560546875 -64.3489990234375,132.3719940185547 -64.3489990234375,132.3719940185547 C-63.606998443603516,129.14199829101562 -61.612998962402344,126.33699798583984 -58.80500030517578,124.5770034790039 C-58.80500030517578,124.5770034790039 -38.79899978637695,112.03600311279297 -38.79899978637695,112.03600311279297 C-32.94599914550781,108.36900329589844 -25.235000610351562,110.13800048828125 -21.56800079345703,115.98699951171875 C-17.900999069213867,121.83699798583984 -19.67099952697754,129.55099487304688 -25.520000457763672,133.2169952392578 C-25.520000457763672,133.2169952392578 -41.13999938964844,143.00900268554688 -41.13999938964844,143.00900268554688 C-41.13999938964844,143.00900268554688 -44.93899917602539,159.56300354003906 -44.93899917602539,159.56300354003906 C-30.642000198364258,163.59500122070312 -15.569000244140625,165.75599670410156 0,165.75599670410156 C52.683998107910156,165.75599670410156 99.7020034790039,141.0469970703125 130.0850067138672,102.61199951171875 C130.0850067138672,102.61199951171875 117.91300201416016,91.30799865722656 117.91300201416016,91.30799865722656 C112.85399627685547,86.61100006103516 112.56199645996094,78.7020034790039 117.26000213623047,73.64299774169922 C121.95600128173828,68.58399963378906 129.8679962158203,68.29199981689453 134.9250030517578,72.98999786376953 C134.9250030517578,72.98999786376953 144.2220001220703,81.62300109863281 144.2220001220703,81.62300109863281 C157.92100524902344,57.51300048828125 165.7570037841797,29.6560001373291 165.7570037841797,0 C165.7570037841797,-91.39800262451172 91.39800262451172,-165.75599670410156 0,-165.75599670410156z M40.2140007019043,89.8499984741211 C-14.277000427246094,89.8499984741211 -58.608001708984375,45.518001556396484 -58.608001708984375,-8.972999572753906 C-58.608001708984375,-63.4640007019043 -14.277000427246094,-107.79499816894531 40.2140007019043,-107.79499816894531 C94.70500183105469,-107.79499816894531 139.03700256347656,-63.4640007019043 139.03700256347656,-8.972999572753906 C139.03700256347656,45.518001556396484 94.70500183105469,89.8499984741211 40.2140007019043,89.8499984741211z"></path></g></g></g></svg>