<svg xmlns="http://www.w3.org/2000/svg" xmlns:xlink="http://www.w3.org/1999/xlink" viewBox="0 0 512 512" width="512" height="512" style="width: 100%; height: 100%; transform: translate3d(0,0,0);" preserveAspectRatio="xMidYMid meet"><defs><clipPath id="__lottie_element_52613"><rect width="512" height="512" x="0" y="0"></rect></clipPath></defs><g clip-path="url(#__lottie_element_52613)"><g style="display: block;" transform="matrix(1,0,0,1,0,0)" opacity="1"><g opacity="1" transform="matrix(1,0,0,1,353.53399658203125,266.1499938964844)"><path fill="rgb(4,5,52)" fill-opacity="1" d=" M-129.94000244140625,-189.79100036621094 C-138.41000366210938,-189.86599731445312 -135.02200317382812,-157.60299682617188 -129.94000244140625,-155.06199645996094 C-124.85800170898438,-152.52099609375 -64.43399810791016,-157.88600158691406 -20.386999130249023,-135.01499938964844 C-20.386999130249023,-135.01499938964844 -47.49300003051758,-57.084999084472656 -0.057999998331069946,-4.002999782562256 C-0.057999998331069946,-4.002999782562256 7.2829999923706055,-32.80400085449219 18.57699966430664,-39.58000183105469 C18.57699966430664,-39.58000183105469 47.37699890136719,-16.992000579833984 41.165000915527344,51.902000427246094 C34.952999114990234,120.7959976196289 -9.093000411987305,162.5850067138672 -49.75199890136719,189.12600708007812 C-90.41100311279297,215.66700744628906 17.447999954223633,187.43099975585938 68.27100372314453,127.00800323486328 C119.09400177001953,66.58499908447266 146.76499938964844,-24.89699935913086 130.38900756835938,-99.43800354003906 C114.01300048828125,-173.97900390625 43.98899841308594,-168.89700317382812 43.98899841308594,-168.89700317382812 C43.98899841308594,-168.89700317382812 63.75400161743164,-193.7449951171875 90.29499816894531,-194.87399291992188 C90.29499816894531,-194.87399291992188 45.74100112915039,-213.86500549316406 0,-171.51199340820312 C0,-171.51199340820312 49.63600158691406,-150.82699584960938 70.52999877929688,-111.86199951171875 C70.52999877929688,-111.86199951171875 -1.7519999742507935,-188.66200256347656 -129.94000244140625,-189.79100036621094z"></path></g><g opacity="1" transform="matrix(1,0,0,1,198.64500427246094,355.74700927734375)"><path fill="rgb(4,5,52)" fill-opacity="1" d=" M137.88999938964844,-102.06999969482422 C140.71400451660156,-102.06999969482422 152.57200622558594,-80.61199951171875 156.52499389648438,-80.61199951171875 C160.47799682617188,-80.61199951171875 170.64300537109375,-112.23600006103516 172.33700561523438,-113.36499786376953 C174.031005859375,-114.49400329589844 183.06700134277344,-93.03500366210938 180.80799865722656,-73.83499908447266 C178.5489959716797,-54.6349983215332 155.39599609375,-29.222999572753906 104.00800323486328,-16.235000610351562 C52.619998931884766,-3.246999979019165 -75.00399780273438,-35.435001373291016 -75.00399780273438,-35.435001373291016 C-75.00399780273438,-35.435001373291016 0.10199999809265137,11.4350004196167 104.00800323486328,0.14100000262260437 C174.39500427246094,-6.809999942779541 177.98399353027344,-42.21200180053711 177.98399353027344,-42.21200180053711 C177.98399353027344,-42.21200180053711 181.3719940185547,11.4350004196167 145.79600524902344,48.70600128173828 C110.22000122070312,85.97699737548828 86.6989974975586,106.31400299072266 58.832000732421875,111.38800048828125 C32.354000091552734,116.20899963378906 7.442999839782715,111.38800048828125 7.442999839782715,107.43499755859375 C7.442999839782715,103.48200225830078 54.31399917602539,92.75299835205078 65.04299926757812,58.305999755859375 C65.04299926757812,58.305999755859375 41.20899963378906,85.0530014038086 5.749000072479248,96.70600128173828 C-45.07400131225586,113.40799713134766 -113.40299987792969,68.47100067138672 -113.96800231933594,56.047000885009766 C-114.3010025024414,48.7130012512207 -72.18000030517578,44.1879997253418 -58.62699890136719,28.94099998474121 C-58.62699890136719,28.94099998474121 -92.50900268554688,35.71799850463867 -129.77999877929688,19.9060001373291 C-167.05099487304688,4.093999862670898 -181.16799926757812,-51.8120002746582 -181.16799926757812,-51.8120002746582 C-181.16799926757812,-51.8120002746582 -143.33299255371094,-75.52999877929688 -72.18000030517578,-82.30599975585938 C-1.0269999504089355,-89.08200073242188 63.91400146484375,-60.84700012207031 94.40799713134766,-67.05899810791016 C124.9020004272461,-73.27100372314453 137.88999938964844,-102.06999969482422 137.88999938964844,-102.06999969482422z"></path></g></g></g></svg>