<svg xmlns="http://www.w3.org/2000/svg" xmlns:xlink="http://www.w3.org/1999/xlink" viewBox="0 0 512 512" width="512" height="512" style="width: 100%; height: 100%; transform: translate3d(0,0,0);" preserveAspectRatio="xMidYMid meet"><defs><clipPath id="__lottie_element_2706"><rect width="512" height="512" x="0" y="0"></rect></clipPath></defs><g clip-path="url(#__lottie_element_2706)"><g style="display: block;" transform="matrix(1,0,0,1,23.409988403320312,13.5)" opacity="1"><g opacity="1" transform="matrix(1,0,0,1,227.5850067138672,242.875)"><path fill="rgb(0,0,0)" fill-opacity="1" d=" M213.13099670410156,-157.4550018310547 C210.39300537109375,-158.14300537109375 205.6999969482422,-158.88999938964844 199.36199951171875,-159.66700744628906 C199.1750030517578,-185.52000427246094 188.2100067138672,-225.36599731445312 139.89199829101562,-225.28199768066406 C123.0199966430664,-225.2530059814453 109.43900299072266,-221.093994140625 98.87200164794922,-214.0659942626953 C90.3479995727539,-223.4040069580078 77.70500183105469,-229.91000366210938 59.31100082397461,-229.8730010986328 C39.72200012207031,-229.83399963378906 25.025999069213867,-223.64100646972656 14.70199966430664,-213.55499267578125 C10.428999900817871,-222.322998046875 1.7269999980926514,-230.6959991455078 -15.928000450134277,-232.4969940185547 C-34.33399963378906,-234.375 -48.45600128173828,-229.39100646972656 -58.680999755859375,-220.23899841308594 C-64.05799865722656,-225.11500549316406 -72.12999725341797,-228.89199829101562 -82.92900085449219,-229.83299255371094 C-120.81300354003906,-233.13600158691406 -140.63299560546875,-206.48699951171875 -142.31100463867188,-171.78700256347656 C-153.0989990234375,-170.77499389648438 -159.83900451660156,-169.30299377441406 -161.18099975585938,-167.28500366210938 C-171.85800170898438,-151.23300170898438 -153.9759979248047,-110.81300354003906 -173.32699584960938,3.9630000591278076 C-192.46200561523438,117.45999908447266 -250.9949951171875,175.61500549316406 -242.28199768066406,193.56399536132812 C-234.05599975585938,210.51100158691406 37.935001373291016,234.11500549316406 75.11100006103516,230.82899475097656 C85.89900207519531,229.87600708007812 115.96800231933594,162.0189971923828 129.21499633789062,75.51499938964844 C141.6699981689453,-5.817999839782715 133.99899291992188,-41.78200149536133 141.36099243164062,-46.375999450683594 C150.4810028076172,-52.06800079345703 164.24099731445312,84.05599975585938 121.25399780273438,217.843994140625 C118.06400299072266,227.77200317382812 161.60000610351562,242.625 170.06900024414062,242.625 C181.85000610351562,242.625 236.5399932861328,215.35699462890625 239.63099670410156,199.3730010986328 C251.03700256347656,140.39300537109375 227.48500061035156,-153.84800720214844 213.13099670410156,-157.4550018310547z M-80.697998046875,-202.25999450683594 C-77.31900024414062,-201.91600036621094 -74.68099975585938,-201.38499450683594 -72.59400177001953,-200.70700073242188 C-76.28199768066406,-192.48899841308594 -78.52400207519531,-183.23899841308594 -79.40699768066406,-173.6060028076172 C-88.75900268554688,-173.63499450683594 -97.58100128173828,-173.58599853515625 -105.74099731445312,-173.45799255371094 C-103.86399841308594,-190.3459930419922 -98.44000244140625,-204.06700134277344 -80.697998046875,-202.25999450683594z M-76.8010025024414,106.447998046875 C-74.87999725341797,131.6009979248047 -128.06399536132812,118.86699676513672 -134.68099975585938,111.22899627685547 C-140.76499938964844,104.20700073242188 -139.03199768066406,85.46399688720703 -127.31600189208984,83.98899841308594 C-122.93199920654297,83.43699645996094 -109.37300109863281,36.35599899291992 -110.38899993896484,-5.811999797821045 C-114.2979965209961,-7.324999809265137 -128.30299377441406,-7.4120001792907715 -131.36900329589844,-19.062000274658203 C-136.1060028076172,-37.060001373291016 -113.0780029296875,-50.125 -93.8270034790039,-63.229000091552734 C-84.62899780273438,-69.48999786376953 -62.57600021362305,-65.22799682617188 -62.54600143432617,-55.13600158691406 C-62.46900177001953,-29.364999771118164 -78.81199645996094,80.125 -76.8010025024414,106.447998046875z M-12.593000411987305,-199.0260009765625 C-5.9679999351501465,-198.2689971923828 -1.5959999561309814,-195.9980010986328 1.2970000505447388,-193.18699645996094 C-1.3530000448226929,-186.6699981689453 -3.0759999752044678,-179.56300354003906 -3.947999954223633,-172.11199951171875 C-15.265999794006348,-172.48599243164062 -26.429000854492188,-172.7899932861328 -37.27199935913086,-173.03599548339844 C-35.108001708984375,-188.69500732421875 -29.32200050354004,-200.93699645996094 -12.593000411987305,-199.0260009765625z M72.53800201416016,-9.125 C63.70500183105469,22.05699920654297 53.74300003051758,103.58699798583984 51.18299865722656,129.25999450683594 C49.7140007019043,143.99000549316406 5.007999897003174,138.85499572753906 6.6519999504089355,126.322998046875 C8.583999633789062,111.59300231933594 13.496000289916992,73.05799865722656 15.850000381469727,65.21900177001953 C18.058000564575195,57.8650016784668 -31.038000106811523,67.75499725341797 -35.66999816894531,59.33300018310547 C-51.86800003051758,29.885000228881836 -16.1560001373291,-33.77000045776367 -3.6500000953674316,-52.1870002746582 C2.2130000591278076,-60.821998596191406 30.013999938964844,-55.14699935913086 27.996000289916992,-45.926998138427734 C23.29199981689453,-24.440000534057617 4.054999828338623,7.068999767303467 1.496000051498413,22.895999908447266 C0.414000004529953,29.586999893188477 18.586999893188477,36.20000076293945 23.21500015258789,30.625 C30.32699966430664,22.05699920654297 28.363000869750977,-3.6110000610351562 39.777000427246094,-16.854000091552734 C46.24800109863281,-24.36199951171875 75.12200164794922,-18.2450008392334 72.53800201416016,-9.125z M71.01399993896484,-168.98599243164062 C59.486000061035156,-169.5659942626953 47.71799850463867,-170.11700439453125 35.91299819946289,-170.6179962158203 C38.22100067138672,-185.60899353027344 44.1150016784668,-197.05799865722656 60.43600082397461,-195.41900634765625 C69.24800109863281,-194.53399658203125 73.54299926757812,-190.51300048828125 75.67400360107422,-184.98899841308594 C73.5979995727539,-179.927001953125 72.06300354003906,-174.55999755859375 71.01399993896484,-168.98599243164062z M117.44400024414062,-166.36099243164062 C120.5250015258789,-179.93600463867188 127.4260025024414,-189.79200744628906 143.56900024414062,-188.2530059814453 C159.85499572753906,-186.6999969482422 162.3939971923828,-175.46400451660156 162.53799438476562,-163.1959991455078 C149.17799377441406,-164.25799560546875 133.90699768066406,-165.33900451660156 117.44400024414062,-166.36099243164062z"></path></g></g></g></svg>