<svg xmlns="http://www.w3.org/2000/svg" xmlns:xlink="http://www.w3.org/1999/xlink" viewBox="0 0 512 512" width="512" height="512" style="width: 100%; height: 100%; transform: translate3d(0,0,0);" preserveAspectRatio="xMidYMid meet"><defs><clipPath id="__lottie_element_51680"><rect width="512" height="512" x="0" y="0"></rect></clipPath></defs><g clip-path="url(#__lottie_element_51680)"><g style="display: block;" transform="matrix(1,0,0,1,-37.739990234375,38.009002685546875)" opacity="1"><g opacity="1" transform="matrix(1,0,0,1,289.3919982910156,219.01800537109375)"><path fill="rgb(0,0,0)" fill-opacity="1" d=" M-133.6510009765625,-104.0270004272461 C-121.6510009765625,-101.0270004272461 -122.63899993896484,-128.2239990234375 -106.6510009765625,-153.02699279785156 C-83.06199645996094,-189.6219940185547 -32.95100021362305,-218.76800537109375 7.348999977111816,-214.02699279785156 C58.3489990234375,-208.02699279785156 57.3489990234375,-171.02699279785156 99.3489990234375,-141.02699279785156 C132.26199340820312,-117.51799774169922 142.3489990234375,-96.02799987792969 147.3489990234375,-105.02799987792969 C154.2169952392578,-117.38999938964844 142.9199981689453,-134.61900329589844 121.3489990234375,-150.02699279785156 C107.3489990234375,-160.02699279785156 133.03199768066406,-170.20700073242188 141.3489990234375,-167.02699279785156 C163.92799377441406,-158.39599609375 187.80499267578125,-133.6320037841797 191.3489990234375,-124.0270004272461 C198.2469940185547,-105.33300018310547 182.61399841308594,31.834999084472656 169.3489990234375,34.97200012207031 C21.349000930786133,69.97200012207031 -28.020000457763672,-12.657999992370605 -36.6510009765625,-4.0269999504089355 C-48.6510009765625,7.9730000495910645 -8.651000022888184,57.972999572753906 65.3489990234375,73.9729995727539 C140.15199279785156,90.14700317382812 177.3489990234375,71.9729995727539 185.3489990234375,58.972999572753906 C192.85299682617188,46.77899932861328 251.6510009765625,90.58699798583984 251.3489990234375,118.9729995727539 C250.88600158691406,162.58700561523438 167.78599548339844,224.7689971923828 100.3489990234375,215.97300720214844 C-152.6510009765625,182.97300720214844 -289.1419982910156,-53.95100021362305 -226.6510009765625,-106.0270004272461 C-202.6510009765625,-126.0270004272461 -146.41099548339844,-107.21700286865234 -133.6510009765625,-104.0270004272461z"></path></g></g></g></svg>