<svg xmlns="http://www.w3.org/2000/svg" xmlns:xlink="http://www.w3.org/1999/xlink" viewBox="0 0 512 512" width="512" height="512" style="width: 100%; height: 100%; transform: translate3d(0,0,0);" preserveAspectRatio="xMidYMid meet"><defs><clipPath id="__lottie_element_53000"><rect width="512" height="512" x="0" y="0"></rect></clipPath></defs><g clip-path="url(#__lottie_element_53000)"><g style="display: block;" transform="matrix(1,0,0,1,260.47698974609375,252.5279998779297)" opacity="1"><g opacity="1" transform="matrix(1,0,0,1,0,0)"><path fill="rgb(4,5,52)" fill-opacity="1" d=" M172.6179962158203,-150.18899536132812 C165.84800720214844,-171.6490020751953 120.66799926757812,-228.11900329589844 105.98799896240234,-234.8990020751953 C91.30799865722656,-241.6790008544922 -109.73200225830078,-228.11900329589844 -159.4219970703125,-199.88900756835938 C-170.69200134277344,-193.48899841308594 -178.45199584960938,-156.56900024414062 -183.27200317382812,-107.30899810791016 C-177.7220001220703,-44.638999938964844 -186.5919952392578,188.49099731445312 -177.49200439453125,206.7010040283203 C-159.4219970703125,242.84100341796875 119.53800201416016,248.49099731445312 159.0679931640625,211.2209930419922 C198.59800720214844,173.9510040283203 179.3979949951172,-128.72900390625 172.6179962158203,-150.18899536132812z M40.198001861572266,-28.77899932861328 C10.54800033569336,-5.908999919891357 -30.95199966430664,27.121000289916992 -30.95199966430664,27.121000289916992 C-30.95199966430664,27.121000289916992 -21.631999969482422,116.06099700927734 -25.02199935913086,144.86099243164062 C-28.41200065612793,173.66099548339844 -60.60200119018555,171.9709930419922 -71.61199951171875,158.42100524902344 C-82.62200164794922,144.86099243164062 -74.1520004272461,45.76100158691406 -76.69200134277344,-40.638999938964844 C-79.23200225830078,-127.03900146484375 -71.33200073242188,-154.5290069580078 -50.43199920654297,-158.37899780273438 C-18.25200080871582,-164.3090057373047 -31.802000045776367,-91.45899963378906 -31.802000045776367,-91.45899963378906 C-31.802000045776367,-91.45899963378906 17.327999114990234,-139.74899291992188 30.038000106811523,-154.1490020751953 C42.737998962402344,-168.5489959716797 80.85800170898438,-172.7790069580078 71.53800201416016,-145.6790008544922 C62.21799850463867,-118.56900024414062 -26.722000122070312,-63.50899887084961 -31.802000045776367,-56.729000091552734 C-36.88199996948242,-49.95899963378906 -30.95199966430664,-4.218999862670898 -30.95199966430664,-4.218999862670898 C-21.631999969482422,-9.298999786376953 68.99800109863281,-103.31900024414062 83.39800262451172,-115.17900085449219 C97.7979965209961,-127.03900146484375 116.43800354003906,-125.3489990234375 117.27799987792969,-103.31900024414062 C118.12799835205078,-81.29900360107422 69.8479995727539,-51.64899826049805 40.198001861572266,-28.77899932861328z"></path></g></g></g></svg>