<svg xmlns="http://www.w3.org/2000/svg" xmlns:xlink="http://www.w3.org/1999/xlink" viewBox="0 0 512 512" width="512" height="512" style="width: 100%; height: 100%; transform: translate3d(0,0,0);" preserveAspectRatio="xMidYMid meet"><defs><clipPath id="__lottie_element_52433"><rect width="512" height="512" x="0" y="0"></rect></clipPath></defs><g clip-path="url(#__lottie_element_52433)"><g style="display: block;" transform="matrix(1.0299999713897705,0,0,1.0299999713897705,-3357.31884765625,-1313.5592041015625)" opacity="1"><g opacity="1" transform="matrix(1,0,0,1,3510.970947265625,1526.4310302734375)"><path fill="rgb(0,0,0)" fill-opacity="1" d=" M201.27099609375,-0.3310000002384186 C199.2570037841797,5.421000003814697 205.94700622558594,10.654000282287598 208.9980010986328,14.937000274658203 C227.2259979248047,38.39799880981445 236.30099487304688,65.65399932861328 234.9669952392578,95.33899688720703 C234.76499938964844,97.05899810791016 233.7689971923828,98.75299835205078 232.0800018310547,99.4219970703125 C227.6649932861328,101.03700256347656 224.16000366210938,97.35800170898438 220.70399475097656,95.20500183105469 C202.45799255371094,82.89600372314453 188.16700744628906,65.98400115966797 173.9429931640625,49.41999816894531 C171.61599731445312,46.79600143432617 169.23399353027344,44.154998779296875 166.41200256347656,42.0359992980957 C165.0019989013672,41.02299880981445 163.8459930419922,42.06100082397461 163.4510040283203,43.41699981689453 C162.23199462890625,47.301998138427734 164.09100341796875,50.35300064086914 165.2790069580078,53.922000885009766 C175.37100219726562,83.16699981689453 187.9980010986328,108.13800048828125 183.11700439453125,140.04600524902344 C182.58700561523438,144.39500427246094 181.64300537109375,148.76600646972656 180.75900268554688,153.07200622558594 C179.70799255371094,158.61000061035156 179.9409942626953,164.6510009765625 177.35699462890625,169.79400634765625 C174.85899353027344,175.7239990234375 170.22000122070312,173.8040008544922 166.16400146484375,170.83599853515625 C161.9250030517578,167.54800415039062 159.34300231933594,162.60699462890625 156.17999267578125,158.41299438476562 C140.8979949951172,138.71299743652344 127.77300262451172,117.50199890136719 116.5999984741211,95.18800354003906 C113.99700164794922,90.5270004272461 111.86000061035156,81.19100189208984 106.16200256347656,79.6729965209961 C100.8280029296875,80.46099853515625 103.23500061035156,86.8759994506836 103.46299743652344,90.47599792480469 C104.68900299072266,113.78600311279297 110.5719985961914,137.82200622558594 106.00800323486328,161.01100158691406 C100.62799835205078,185.61599731445312 83.63999938964844,203.68600463867188 62.077999114990234,218.95599365234375 C59.73099899291992,220.7790069580078 56.7400016784668,221.53199768066406 53.90700149536133,220.43899536132812 C49.03499984741211,218.71499633789062 52.262001037597656,212.781005859375 52.91899871826172,209.23800659179688 C61.25,182.98699951171875 59.983001708984375,155.34800720214844 47.51599884033203,130.6750030517578 C46.516998291015625,128.76199340820312 44.79399871826172,126.13899993896484 42.48099899291992,126.17500305175781 C38.89099884033203,126.60600280761719 38.70899963378906,131.3470001220703 38.60300064086914,134.19000244140625 C38.39400100708008,136.822998046875 37.762001037597656,139.6840057373047 37.404998779296875,142.5189971923828 C35.29600143432617,168.31399536132812 25.634000778198242,190.33099365234375 3.5510001182556152,205.22300720214844 C-8.36400032043457,213.42300415039062 -23.841999053955078,224.3179931640625 -38.52899932861328,224.98599243164062 C-41.47700119018555,225.24200439453125 -43.79399871826172,222.5989990234375 -43.775001525878906,219.72500610351562 C-43.5880012512207,211.62399291992188 -37.1510009765625,205.3730010986328 -34.04999923706055,198.2429962158203 C-28.733999252319336,186.81399536132812 -24.14299964904785,175.03599548339844 -19.684999465942383,163.25 C-18.06999969482422,159.59100341796875 -18.173999786376953,156.4219970703125 -18.562000274658203,152.2449951171875 C-18.636999130249023,150.79100036621094 -19.55900001525879,150.01800537109375 -20.922000885009766,150.6999969482422 C-25.256999969482422,152.697998046875 -29.224000930786133,154.66000366210938 -33.4109992980957,156.60699462890625 C-36.944000244140625,158.302001953125 -37.111000061035156,152.89300537109375 -36.909000396728516,150.66799926757812 C-36.547000885009766,146.28599548339844 -34.47700119018555,142.3249969482422 -33.946998596191406,138.04299926757812 C-32.94900131225586,130.42100524902344 -31.827999114990234,122.76100158691406 -31.448999404907227,115.09700012207031 C-31.158000946044922,110.177001953125 -30.624000549316406,103.2969970703125 -34.2400016784668,99.49400329589844 C-34.986000061035156,99.06300354003906 -35.762001037597656,99.82599639892578 -36.25,100.44200134277344 C-39.51900100708008,104.76599884033203 -42.29199981689453,108.73699951171875 -45.45800018310547,112.44100189208984 C-50.88399887084961,117.92900085449219 -60.79399871826172,125.76100158691406 -60.51100158691406,111.7699966430664 C-61.87200164794922,99.9739990234375 -62.58700180053711,87.9530029296875 -65.29399871826172,76.33599853515625 C-70.98500061035156,51.45800018310547 -87.09700012207031,33.64400100708008 -111.4530029296875,25.007999420166016 C-136.9080047607422,16.006999969482422 -163.64999389648438,12.467000007629395 -190.31199645996094,9 C-197.94000244140625,7.9730000495910645 -204.0800018310547,5.091000080108643 -208.56199645996094,-1.0329999923706055 C-210.8419952392578,-4.072999954223633 -212.5189971923828,-8.199000358581543 -213.8800048828125,-11.824000358581543 C-221.61399841308594,-31.285999298095703 -232.56500244140625,-49.558998107910156 -237.73699951171875,-69.98999786376953 C-239.24099731445312,-74.93199920654297 -239.8719940185547,-81.41200256347656 -234.05099487304688,-83.7509994506836 C-231.73399353027344,-84.84400177001953 -228.46600341796875,-85.4000015258789 -225.77999877929688,-85.78900146484375 C-206.29200744628906,-88.74099731445312 -186.82000732421875,-91.69100189208984 -167.3280029296875,-94.57499694824219 C-161.58299255371094,-95.44000244140625 -155.8459930419922,-96.23400115966797 -150.10299682617188,-97.12999725341797 C-113.3479995727539,-103.36799621582031 -118.50900268554688,-127.18299865722656 -74.35399627685547,-137.61099243164062 C-62.05500030517578,-141.21600341796875 -45.709999084472656,-143.88499450683594 -34.48899841308594,-148.42799377441406 C-28.211000442504883,-150.41600036621094 -23.573999404907227,-161.9199981689453 -18.24799919128418,-171.25599670410156 C-11.425000190734863,-183.1790008544922 -2.8989999294281006,-194.14599609375 5.122000217437744,-205.38699340820312 C7.206999778747559,-208.8979949951172 11.369999885559082,-210.7530059814453 14.956000328063965,-207.6820068359375 C20.139999389648438,-204.58200073242188 23.270999908447266,-185.8939971923828 31.097999572753906,-190.197998046875 C35.92100143432617,-193.5489959716797 39.013999938964844,-198.61599731445312 42.53900146484375,-203.17799377441406 C46.91999816894531,-208.6649932861328 51.33300018310547,-214.19900512695312 56.08599853515625,-219.3780059814453 C58.34199905395508,-221.82200622558594 61.51300048828125,-225.24099731445312 65.04900360107422,-224.55799865722656 C68.197998046875,-223.69200134277344 69.72200012207031,-219.45700073242188 70.44100189208984,-216.322998046875 C74.5530014038086,-194.8679962158203 78.99800109863281,-173.37899780273438 78.29900360107422,-151.46499633789062 C78.177001953125,-148.5189971923828 78.1709976196289,-144.86599731445312 78.86399841308594,-142.09500122070312 C80.52300262451172,-134.0970001220703 87.47899627685547,-129.6790008544922 94.48699951171875,-126.55599975585938 C129.41600036621094,-109.51699829101562 165.2100067138672,-94.072998046875 199.0749969482422,-75.1510009765625 C199.66099548339844,-74.71900177001953 200.2689971923828,-74.10800170898438 200.37899780273438,-73.40599822998047 C200.4600067138672,-72.61499786376953 199.75,-71.92400360107422 199.0850067138672,-71.44000244140625 C190.73199462890625,-65.10399627685547 179.9199981689453,-65.4229965209961 170.8280029296875,-60.250999450683594 C169.86300659179688,-59.42599868774414 170.79299926757812,-58.3650016784668 171.49600219726562,-57.7140007019043 C174.31300354003906,-55.224998474121094 176.6009979248047,-53.14899826049805 179.6320037841797,-51.12300109863281 C197.51800537109375,-38.57500076293945 217.30999755859375,-28.142000198364258 233.60499572753906,-13.4350004196167 C239.8719940185547,-7.0960001945495605 239.2779998779297,2.003000020980835 228.4199981689453,0.5329999923706055 C220.96200561523438,-0.023000000044703484 213.50799560546875,-1.3240000009536743 206.0919952392578,-1.1369999647140503 C204.6269989013672,-0.9950000047683716 202.54800415039062,-1.5019999742507935 201.36700439453125,-0.44200000166893005 C201.36700439453125,-0.44200000166893005 201.27099609375,-0.3310000002384186 201.27099609375,-0.3310000002384186z M-51.09199905395508,-90.25700378417969 C-51.07400131225586,-90.64299774169922 -51.31700134277344,-91.00900268554688 -51.70600128173828,-91.36499786376953 C-53.40599822998047,-92.7509994506836 -55.82400131225586,-94.53700256347656 -57.83100128173828,-95.97599792480469 C-65.48500061035156,-101.41799926757812 -69.1510009765625,-102.33200073242188 -74.6500015258789,-99.52999877929688 C-82.0199966430664,-95.27200317382812 -89.06700134277344,-89.83799743652344 -95.26599884033203,-84.06400299072266 C-99.8949966430664,-79.35800170898438 -97.80999755859375,-73.43599700927734 -91.01699829101562,-73.45500183105469 C-76.95099639892578,-74.49299621582031 -64.31099700927734,-79.66400146484375 -52.82600021362305,-88.24600219726562 C-52.17900085449219,-88.72100067138672 -51.22700119018555,-89.43900299072266 -51.10900115966797,-90.11100006103516 C-51.10900115966797,-90.11100006103516 -51.09199905395508,-90.25700378417969 -51.09199905395508,-90.25700378417969z"></path></g></g></g></svg>