<svg xmlns="http://www.w3.org/2000/svg" xmlns:xlink="http://www.w3.org/1999/xlink" viewBox="0 0 512 512" width="512" height="512" style="width: 100%; height: 100%; transform: translate3d(0,0,0);" preserveAspectRatio="xMidYMid meet"><defs><clipPath id="__lottie_element_14377"><rect width="512" height="512" x="0" y="0"></rect></clipPath></defs><g clip-path="url(#__lottie_element_14377)"><g style="display: block;" transform="matrix(1,0,0,1,256,256)" opacity="1"><g opacity="1" transform="matrix(1,0,0,1,0,0)"><path fill="rgb(0,0,0)" fill-opacity="1" d=" M213.3090057373047,-115.48500061035156 C211.11099243164062,-118.26899719238281 208.87100219726562,-120.9020004272461 206.6219940185547,-123.38500213623047 C199.36900329589844,-131.39100646972656 186.0800018310547,-127.86299896240234 183.79100036621094,-117.30500030517578 C181.39599609375,-106.25599670410156 177.9290008544922,-96.12799835205078 173.39999389648438,-86.99299621582031 C155.7259979248047,-51.34299850463867 128.25399780273438,-39.92399978637695 107.40299987792969,-36.75400161743164 C95.64700317382812,-34.965999603271484 91.01699829101562,-20.391000747680664 99.66699981689453,-12.230999946594238 C99.75499725341797,-12.14799976348877 99.84300231933594,-12.064000129699707 99.93199920654297,-11.980999946594238 C89.51300048828125,3.4660000801086426 82.55899810791016,22.417999267578125 80.19000244140625,42.55400085449219 C80.19000244140625,42.55400085449219 80.18900299072266,42.55500030517578 80.18900299072266,42.55500030517578 C79.40899658203125,49.1870002746582 79.12899780273438,55.775001525878906 79.34500122070312,62.27899932861328 C61.05500030517578,65.83499908447266 42.736000061035156,74.31700134277344 26.823999404907227,86.87899780273438 C21.582000732421875,91.01799774169922 16.725000381469727,95.47699737548828 12.279000282287598,100.2300033569336 C-3.1670000553131104,89.81099700927734 -22.118999481201172,82.85600280761719 -42.25600051879883,80.48699951171875 C-47.44499969482422,79.87699890136719 -52.60599899291992,79.5719985961914 -57.72100067138672,79.5719985961914 C-59.14400100708008,79.5719985961914 -60.56399917602539,79.59500122070312 -61.97999954223633,79.64299774169922 C-65.53600311279297,61.35300064086914 -74.01899719238281,43.03300094604492 -86.58200073242188,27.1200008392334 C-90.72000122070312,21.878999710083008 -95.18000030517578,17.020999908447266 -99.93099975585938,12.576000213623047 C-93.93900299072266,3.691999912261963 -89.0979995727539,-6.353000164031982 -85.61499786376953,-17.114999771118164 C-82.7300033569336,-26.027999877929688 -89.07499694824219,-35.25600051879883 -98.427001953125,-35.805999755859375 C-119.07099914550781,-37.02000045776367 -152.9459991455078,-45.73400115966797 -173.39999389648438,-86.99299621582031 C-180.14300537109375,-100.59500122070312 -183.75100708007812,-115.48899841308594 -185.67100524902344,-128.1719970703125 C-187.4980010986328,-140.24200439453125 -203.16799926757812,-143.76699829101562 -209.9149932861328,-133.59300231933594 C-220.31199645996094,-117.91500091552734 -229.4029998779297,-96.72599792480469 -232.7030029296875,-68.66300201416016 C-234.83900451660156,-50.50299835205078 -233.86099243164062,-32.132999420166016 -229.88600158691406,-15.144000053405762 C-234.9340057373047,-12.906000137329102 -238.93699645996094,-8.62600040435791 -240.75100708007812,-3.197000026702881 C-252.99000549316406,33.433998107910156 -242.47500610351562,79.13899993896484 -213.30799865722656,116.08100128173828 C-201.9770050048828,130.43299865722656 -188.2969970703125,142.72999572753906 -173.47300720214844,151.93299865722656 C-175.46200561523438,157.08900451660156 -175.26199340820312,162.9459991455078 -172.70799255371094,168.06399536132812 C-155.4600067138672,202.6199951171875 -115.70700073242188,227.5019989013672 -68.95999908447266,233.00100708007812 C-50.79999923706055,235.13699340820312 -32.43199920654297,234.15899658203125 -15.442000389099121,230.1840057373047 C-13.20300006866455,235.23399353027344 -8.920999526977539,239.23599243164062 -3.494999885559082,241.04800415039062 C6.609000205993652,244.4239959716797 17.399999618530273,246.06900024414062 28.510000228881836,246.06900024414062 C57.67900085449219,246.06900024414062 89.02999877929688,234.72799682617188 115.78299713134766,213.6060028076172 C130.13400268554688,202.27699279785156 142.42999267578125,188.5959930419922 151.63499450683594,173.77099609375 C156.7899932861328,175.75900268554688 162.64700317382812,175.55999755859375 167.76600646972656,173.0050048828125 C202.32200622558594,155.75799560546875 227.20399475097656,116.00399780273438 232.7030029296875,69.25900268554688 C234.83900451660156,51.10200119018555 233.86199951171875,32.731998443603516 229.88699340820312,15.73900032043457 C234.93899536132812,13.5 238.93899536132812,9.217000007629395 240.7519989013672,3.7920000553131104 C252.99000549316406,-32.84000015258789 242.4739990234375,-78.54399871826172 213.3090057373047,-115.48500061035156z M-149.22500610351562,104.97599792480469 C-165.79400634765625,104.97599792480469 -179.22500610351562,91.54499816894531 -179.22500610351562,74.97599792480469 C-179.22500610351562,58.40700149536133 -165.79400634765625,44.97600173950195 -149.22500610351562,44.97600173950195 C-132.656005859375,44.97600173950195 -119.2249984741211,58.40700149536133 -119.2249984741211,74.97599792480469 C-119.2249984741211,91.54499816894531 -132.656005859375,104.97599792480469 -149.22500610351562,104.97599792480469z M-11.699000358581543,194.01800537109375 C-28.26799964904785,194.01800537109375 -41.69900131225586,180.58700561523438 -41.69900131225586,164.01800537109375 C-41.69900131225586,147.4499969482422 -28.26799964904785,134.01800537109375 -11.699000358581543,134.01800537109375 C4.869999885559082,134.01800537109375 18.301000595092773,147.4499969482422 18.301000595092773,164.01800537109375 C18.301000595092773,180.58700561523438 4.869999885559082,194.01800537109375 -11.699000358581543,194.01800537109375z M157.71400451660156,70.5790023803711 C141.14500427246094,70.5790023803711 127.71399688720703,57.14699935913086 127.71399688720703,40.57899856567383 C127.71399688720703,24.010000228881836 141.14500427246094,10.579000473022461 157.71400451660156,10.579000473022461 C174.2830047607422,10.579000473022461 187.71400451660156,24.010000228881836 187.71400451660156,40.57899856567383 C187.71400451660156,57.14699935913086 174.2830047607422,70.5790023803711 157.71400451660156,70.5790023803711z"></path></g><g opacity="1" transform="matrix(1,0,0,1,0,0)"><g opacity="1" transform="matrix(1,0,0,1,0,0)"><path fill="rgb(0,0,0)" fill-opacity="1" d=" M-25.15999984741211,-157.36900329589844 C-25.15999984741211,-123.21700286865234 -70.27899932861328,-95.53199768066406 -93.8290023803711,-95.53199768066406 C-117.37899780273438,-95.53199768066406 -127.79499816894531,-123.21700286865234 -127.79499816894531,-157.36900329589844 C-127.79499816894531,-191.52099609375 -117.37899780273438,-219.20700073242188 -93.8290023803711,-219.20700073242188 C-70.27899932861328,-219.20700073242188 -25.15999984741211,-191.52099609375 -25.15999984741211,-157.36900329589844z"></path><path stroke-linecap="round" stroke-linejoin="round" fill-opacity="0" stroke="rgb(0,0,0)" stroke-opacity="1" stroke-width="40" d=" M-25.15999984741211,-157.36900329589844 C-25.15999984741211,-123.21700286865234 -70.27899932861328,-95.53199768066406 -93.8290023803711,-95.53199768066406 C-117.37899780273438,-95.53199768066406 -127.79499816894531,-123.21700286865234 -127.79499816894531,-157.36900329589844 C-127.79499816894531,-191.52099609375 -117.37899780273438,-219.20700073242188 -93.8290023803711,-219.20700073242188 C-70.27899932861328,-219.20700073242188 -25.15999984741211,-191.52099609375 -25.15999984741211,-157.36900329589844z"></path></g><g opacity="1" transform="matrix(1,0,0,1,0,0)"><path fill="rgb(0,0,0)" fill-opacity="1" d=" M25.15999984741211,-157.36900329589844 C25.15999984741211,-123.21700286865234 70.27899932861328,-95.53199768066406 93.8290023803711,-95.53199768066406 C117.37899780273438,-95.53199768066406 127.79499816894531,-123.21700286865234 127.79499816894531,-157.36900329589844 C127.79499816894531,-191.52099609375 117.37899780273438,-219.20700073242188 93.8290023803711,-219.20700073242188 C70.27899932861328,-219.20700073242188 25.15999984741211,-191.52099609375 25.15999984741211,-157.36900329589844z"></path><path stroke-linecap="round" stroke-linejoin="round" fill-opacity="0" stroke="rgb(0,0,0)" stroke-opacity="1" stroke-width="40" d=" M25.15999984741211,-157.36900329589844 C25.15999984741211,-123.21700286865234 70.27899932861328,-95.53199768066406 93.8290023803711,-95.53199768066406 C117.37899780273438,-95.53199768066406 127.79499816894531,-123.21700286865234 127.79499816894531,-157.36900329589844 C127.79499816894531,-191.52099609375 117.37899780273438,-219.20700073242188 93.8290023803711,-219.20700073242188 C70.27899932861328,-219.20700073242188 25.15999984741211,-191.52099609375 25.15999984741211,-157.36900329589844z"></path></g><g opacity="1" transform="matrix(1,0,0,1,0,0)"><path fill="rgb(0,0,0)" fill-opacity="1" d=" M12.791000366210938,-157.36900329589844 C12.791000366210938,-141.0279998779297 7.064000129699707,-136.32899475097656 0,-136.32899475097656 C-7.064000129699707,-136.32899475097656 -12.791000366210938,-141.0279998779297 -12.791000366210938,-157.36900329589844 C-12.791000366210938,-173.7100067138672 -7.064000129699707,-178.41000366210938 0,-178.41000366210938 C7.064000129699707,-178.41000366210938 12.791000366210938,-173.7100067138672 12.791000366210938,-157.36900329589844z"></path><path stroke-linecap="round" stroke-linejoin="round" fill-opacity="0" stroke="rgb(0,0,0)" stroke-opacity="1" stroke-width="40" d=" M12.791000366210938,-157.36900329589844 C12.791000366210938,-141.0279998779297 7.064000129699707,-136.32899475097656 0,-136.32899475097656 C-7.064000129699707,-136.32899475097656 -12.791000366210938,-141.0279998779297 -12.791000366210938,-157.36900329589844 C-12.791000366210938,-173.7100067138672 -7.064000129699707,-178.41000366210938 0,-178.41000366210938 C7.064000129699707,-178.41000366210938 12.791000366210938,-173.7100067138672 12.791000366210938,-157.36900329589844z"></path></g></g></g></g></svg>