<svg xmlns="http://www.w3.org/2000/svg" xmlns:xlink="http://www.w3.org/1999/xlink" viewBox="0 0 512 512" width="512" height="512" style="width: 100%; height: 100%; transform: translate3d(0,0,0);" preserveAspectRatio="xMidYMid meet"><defs><clipPath id="__lottie_element_53889"><rect width="512" height="512" x="0" y="0"></rect></clipPath></defs><g clip-path="url(#__lottie_element_53889)"><g style="display: block;" transform="matrix(1.0024715662002563,0.12308803200721741,-0.12308803200721741,1.0024715662002563,-496.21832275390625,135.80133056640625)" opacity="1"><g opacity="1" transform="matrix(1,0,0,1,720.9340209960938,3.071000099182129)"><path fill="rgb(0,0,0)" fill-opacity="1" d=" M133.9340057373047,-60.73699951171875 C150.75100708007812,-63.018001556396484 176.9949951171875,16.433000564575195 181.82400512695312,36.09700012207031 C182.71800231933594,39.73699951171875 189.1230010986328,41.0620002746582 191.57899475097656,38.23099899291992 C196.76300048828125,32.255001068115234 203.96099853515625,31.222000122070312 209.26199340820312,31.459999084472656 C212.6230010986328,31.611000061035156 215.28199768066406,28.41699981689453 214.19900512695312,25.231000900268555 C169.9949951171875,-104.81700134277344 108.21099853515625,-175.57899475097656 88.88600158691406,-185.8459930419922 C88.37999725341797,-186.11500549316406 87.8550033569336,-186.27699279785156 87.33000183105469,-186.3560028076172 C29.31399917602539,-218.50599670410156 -103.10399627685547,-201.17300415039062 -128.85499572753906,-150.79600524902344 C-145.11599731445312,-118.99099731445312 -199.0229949951172,69.73500061035156 -203.48699951171875,106.0989990234375 C-206.5050048828125,130.68299865722656 -178.94900512695312,137.1529998779297 -153.51400756835938,126.55799865722656 C-119.00499725341797,112.18299865722656 -55.08700180053711,103.60600280761719 -7.51200008392334,103.85299682617188 C55.994998931884766,104.18299865722656 121.11199951171875,118.10600280761719 120.96299743652344,133.27000427246094 C120.81700134277344,148.14500427246094 63.994998931884766,160.68299865722656 -11.04800033569336,162.76100158691406 C-89.2040023803711,164.92599487304688 -132.60499572753906,154.7740020751953 -134.76100158691406,167.7220001220703 C-137.2760009765625,182.82699584960938 -84.36299896240234,194.85000610351562 -12.092000007629395,194.85000610351562 C143.8209991455078,194.85000610351562 173.82200622558594,156.6649932861328 167.53900146484375,113.49199676513672 C148.22000122070312,-19.24799919128418 112.16600036621094,-52.29600143432617 133.9340057373047,-60.73699951171875z"></path></g><g opacity="1" transform="matrix(0.8768945932388306,0.48068270087242126,-0.48068270087242126,0.8768945932388306,925.8410034179688,47.29499816894531)"><path fill="rgb(0,0,0)" fill-opacity="1" d=" M32.013999938964844,-2.187000036239624 C29.433000564575195,-20.018999099731445 12.371999740600586,-36.67399978637695 -5.184999942779541,-35.95899963378906 C-23.200000762939453,-35.224998474121094 -43.361000061035156,-17.336999893188477 -32.3120002746582,-4.879000186920166 C-20.343000411987305,8.616000175476074 -9.397000312805176,19.69700050354004 -3.5190000534057617,25.518999099731445 C8.270999908447266,37.19499969482422 34.6879997253418,16.290000915527344 32.013999938964844,-2.187000036239624z"></path></g><g opacity="1" transform="matrix(1,0,0,1,972.06201171875,155.8209991455078)"><path fill="rgb(0,0,0)" fill-opacity="1" d=" M51.18299865722656,29.628000259399414 C44.10499954223633,1.2209999561309814 -12.630999565124512,-81.16600036621094 -24.961000442504883,-102.87300109863281 C-26.856000900268555,-106.20899963378906 -30.92799949645996,-106.34200286865234 -33.02399826049805,-103.17900085449219 C-40.071998596191406,-92.54100036621094 -49.70500183105469,-93.1240005493164 -56.10200119018555,-95.16699981689453 C-59.415000915527344,-96.2249984741211 -63.44200134277344,-93.03900146484375 -62.4109992980957,-89.10900115966797 C-54.132999420166016,-57.56700134277344 -41.132999420166016,0.43299999833106995 -42.20800018310547,49.79999923706055 C-43.37699890136719,103.49600219726562 59.83000183105469,64.33300018310547 51.18299865722656,29.628000259399414z"></path></g></g></g></svg>