<svg xmlns="http://www.w3.org/2000/svg" xmlns:xlink="http://www.w3.org/1999/xlink" viewBox="0 0 512 512" width="512" height="512" style="width: 100%; height: 100%; transform: translate3d(0,0,0);" preserveAspectRatio="xMidYMid meet"><defs><clipPath id="__lottie_element_729"><rect width="512" height="512" x="0" y="0"></rect></clipPath></defs><g clip-path="url(#__lottie_element_729)"><g style="display: block;" transform="matrix(1,0,0,1,256,256)" opacity="1"><g opacity="1" transform="matrix(1,0,0,1,0,0)"><path fill="rgb(0,0,0)" fill-opacity="1" d=" M-60.165000915527344,256 C-118.06099700927734,254.60699462890625 -118.01699829101562,134.0489959716797 -60.165000915527344,132.6790008544922 C-60.165000915527344,132.6790008544922 127.50900268554688,132.6790008544922 127.50900268554688,132.6790008544922 C133.2519989013672,132.6790008544922 137.90699768066406,137.33399963378906 137.90699768066406,143.07699584960938 C137.90699768066406,143.07699584960938 137.90699768066406,245.6020050048828 137.90699768066406,245.6020050048828 C137.90699768066406,251.34500122070312 133.2519989013672,256 127.50900268554688,256 C127.50900268554688,256 -60.165000915527344,256 -60.165000915527344,256z"></path></g><g opacity="1" transform="matrix(1,0,0,1,0,0)"><g opacity="1" transform="matrix(1,0,0,1,0,0)"><path fill="rgb(0,0,0)" fill-opacity="1" d=" M90.76200103759766,-115.71299743652344 C90.76200103759766,-115.71299743652344 -21.656999588012695,-115.71299743652344 -21.656999588012695,-115.71299743652344 C-5.864999771118164,-86.68399810791016 4.361999988555908,-45.319000244140625 7.5,3.062999963760376 C8.121000289916992,12.628999710083008 13.21399974822998,20.892000198364258 21.472999572753906,25.732999801635742 C29.628000259399414,30.51300048828125 39.185001373291016,30.959999084472656 47.7400016784668,26.972000122070312 C47.7400016784668,26.972000122070312 102.43800354003906,-3.9179999828338623 102.43800354003906,-3.9179999828338623 C102.61699676513672,-4.019000053405762 102.7979965209961,-4.113999843597412 102.98300170898438,-4.202000141143799 C112.77899932861328,-8.883000373840332 119.10900115966797,-18.922000885009766 119.10900115966797,-29.77899932861328 C119.10900115966797,-29.77899932861328 119.10900115966797,-87.36599731445312 119.10900115966797,-87.36599731445312 C119.10900115966797,-102.99700164794922 106.39299774169922,-115.71299743652344 90.76200103759766,-115.71299743652344z"></path></g><g opacity="1" transform="matrix(1,0,0,1,0,0)"><path fill="rgb(0,0,0)" fill-opacity="1" d=" M151.9429931640625,-244.0500030517578 C151.9429931640625,-244.0500030517578 128.57699584960938,-244.0500030517578 128.57699584960938,-244.0500030517578 C121.74800109863281,-244.0500030517578 116.21099853515625,-238.51300048828125 116.21099853515625,-231.6840057373047 C116.21099853515625,-231.6840057373047 116.21099853515625,-199.54100036621094 116.21099853515625,-199.54100036621094 C116.3239974975586,-191.78700256347656 92.1969985961914,-191.79100036621094 92.31099700927734,-199.54100036621094 C92.31099700927734,-199.54100036621094 92.31099700927734,-243.63400268554688 92.31099700927734,-243.63400268554688 C92.31099700927734,-250.46299743652344 86.77400207519531,-256 79.94499969482422,-256 C79.94499969482422,-256 55.382999420166016,-256 55.382999420166016,-256 C48.55400085449219,-256 43.018001556396484,-250.46299743652344 43.018001556396484,-243.63400268554688 C43.018001556396484,-243.63400268554688 43.018001556396484,-199.54100036621094 43.018001556396484,-199.54100036621094 C43.13100051879883,-191.78700256347656 19.003999710083008,-191.79100036621094 19.118000030517578,-199.54100036621094 C19.118000030517578,-199.54100036621094 19.118000030517578,-243.63400268554688 19.118000030517578,-243.63400268554688 C19.118000030517578,-250.46299743652344 13.581000328063965,-256 6.751999855041504,-256 C6.751999855041504,-256 -15.420000076293945,-256 -15.420000076293945,-256 C-22.249000549316406,-256 -27.785999298095703,-250.46299743652344 -27.785999298095703,-243.63400268554688 C-27.785999298095703,-243.63400268554688 -27.785999298095703,-199.54100036621094 -27.785999298095703,-199.54100036621094 C-27.67300033569336,-191.78700256347656 -51.79899978637695,-191.79100036621094 -51.685001373291016,-199.54100036621094 C-51.685001373291016,-199.54100036621094 -51.685001373291016,-231.6840057373047 -51.685001373291016,-231.6840057373047 C-51.685001373291016,-238.51300048828125 -57.22200012207031,-244.0500030517578 -64.0510025024414,-244.0500030517578 C-64.0510025024414,-244.0500030517578 -87.41699981689453,-244.0500030517578 -87.41699981689453,-244.0500030517578 C-94.24600219726562,-244.0500030517578 -99.78299713134766,-238.51300048828125 -99.78299713134766,-231.6840057373047 C-99.78299713134766,-231.6840057373047 -99.78299713134766,-123.43800354003906 -99.78299713134766,-123.43800354003906 C-99.78299713134766,-118.86599731445312 -97.94200134277344,-114.48899841308594 -94.66300201416016,-111.30400085449219 C-72.58999633789062,-89.86299896240234 -52.930999755859375,-47.983001708984375 -59.35200119018555,-4.821000099182129 C-59.84700012207031,-1.49399995803833 -63.91600036621094,-1.1469999551773071 -64.07099914550781,-4.974999904632568 C-65.4000015258789,-37.85100173950195 -79.40899658203125,-56.96200180053711 -94.35199737548828,-75.3949966430664 C-99.77100372314453,-82.08000183105469 -107.02799987792969,-87.03399658203125 -115.24600219726562,-89.58599853515625 C-115.24600219726562,-89.58599853515625 -148.30799865722656,-99.85399627685547 -148.30799865722656,-99.85399627685547 C-156.59300231933594,-102.427001953125 -165.50999450683594,-98.53099822998047 -169.2530059814453,-90.70600128173828 C-169.2530059814453,-90.70600128173828 -182.60000610351562,-62.64099884033203 -182.60000610351562,-62.64099884033203 C-185.6280059814453,-56.310001373291016 -184.57400512695312,-48.78300094604492 -179.9250030517578,-43.527000427246094 C-179.9250030517578,-43.527000427246094 -112.88200378417969,21.513999938964844 -112.88200378417969,21.513999938964844 C-99.12000274658203,37.071998596191406 -92.06300354003906,63.4109992980957 -83.53099822998047,82.3489990234375 C-83.53099822998047,82.3489990234375 -76.25299835205078,98.50399780273438 -76.25299835205078,98.50399780273438 C-74.21900177001953,103.0199966430664 -69.72599792480469,105.9229965209961 -64.77300262451172,105.9229965209961 C-64.77300262451172,105.9229965209961 125.3479995727539,105.9229965209961 125.3479995727539,105.9229965209961 C131.06700134277344,105.9229965209961 136.06700134277344,102.06900024414062 137.5229949951172,96.53900146484375 C137.5229949951172,96.53900146484375 158.0959930419922,18.43000030517578 158.0959930419922,18.43000030517578 C162.22000122070312,2.7709999084472656 164.3090057373047,-13.354999542236328 164.3090057373047,-29.54800033569336 C164.3090057373047,-29.54800033569336 164.3090057373047,-231.6840057373047 164.3090057373047,-231.6840057373047 C164.3090057373047,-238.51300048828125 158.77200317382812,-244.0500030517578 151.9429931640625,-244.0500030517578z M137.10899353027344,-29.77899932861328 C137.10899353027344,-12.13599967956543 126.88600158691406,4.185999870300293 111.03600311279297,11.89799976348877 C111.03600311279297,11.89799976348877 56.305999755859375,42.80699920654297 56.305999755859375,42.80699920654297 C56.12699890136719,42.90800094604492 55.94599914550781,43.00199890136719 55.76100158691406,43.09000015258789 C49.41999816894531,46.119998931884766 42.59299850463867,47.625 35.78200149536133,47.625 C27.673999786376953,47.625 19.589000701904297,45.492000579833984 12.371999740600586,41.26300048828125 C-0.9269999861717224,33.46799850463867 -9.463000297546387,19.625 -10.461999893188477,4.229000091552734 C-13.940999984741211,-49.40700149536133 -26.268999099731445,-93.32499694824219 -45.17399978637695,-119.43499755859375 C-47.15700149536133,-122.17400360107422 -47.4379997253418,-125.79399871826172 -45.900001525878906,-128.80599975585938 C-44.36199951171875,-131.8179931640625 -41.266998291015625,-133.71299743652344 -37.8849983215332,-133.71299743652344 C-37.8849983215332,-133.71299743652344 90.76200103759766,-133.71299743652344 90.76200103759766,-133.71299743652344 C116.31800079345703,-133.71299743652344 137.10899353027344,-112.9219970703125 137.10899353027344,-87.36599731445312 C137.10899353027344,-87.36599731445312 137.10899353027344,-29.77899932861328 137.10899353027344,-29.77899932861328z"></path></g></g></g></g></svg>