<svg xmlns="http://www.w3.org/2000/svg" xmlns:xlink="http://www.w3.org/1999/xlink" viewBox="0 0 512 512" width="512" height="512" style="width: 100%; height: 100%; transform: translate3d(0,0,0);" preserveAspectRatio="xMidYMid meet"><defs><clipPath id="__lottie_element_52200"><rect width="512" height="512" x="0" y="0"></rect></clipPath></defs><g clip-path="url(#__lottie_element_52200)"><g style="display: block;" transform="matrix(1,0,0,1,256,256)" opacity="1"><g opacity="1" transform="matrix(1,0,0,1,0,0)"><path fill="rgb(0,0,0)" fill-opacity="1" d=" M-181.3209991455078,-112.94200134277344 C-287.2460021972656,14.1850004196167 -215.1929931640625,239.69000244140625 -1.1699999570846558,239.69000244140625 C112.82599639892578,239.69000244140625 201.61700439453125,168.18800354003906 225.11599731445312,73.90599822998047 C251.44700622558594,-31.738000869750977 151.5709991455078,-74.38999938964844 187.9739990234375,-120.21600341796875 C192.88400268554688,-126.39700317382812 186.84100341796875,-135.2779998779297 179.33299255371094,-132.8419952392578 C141.11000061035156,-120.44000244140625 126.6510009765625,-89.19499969482422 132.0189971923828,-57.28200149536133 C147.8260040283203,36.689998626708984 50.492000579833984,68.02300262451172 99.78199768066406,-103.9260025024414 C119.34600067138672,-172.17599487304688 46.30500030517578,-281.6830139160156 -107.39099884033203,-222.97500610351562 C-113.26499938964844,-220.7310028076172 -114.31999969482422,-212.89999389648438 -109.30799865722656,-209.10299682617188 C5.74399995803833,-121.95700073242188 -200.25599670410156,68.23600006103516 -167.35000610351562,-106.32099914550781 C-165.83200073242188,-114.3740005493164 -176.0749969482422,-119.23799896240234 -181.3209991455078,-112.94200134277344z"></path></g></g></g></svg>