<svg xmlns="http://www.w3.org/2000/svg" xmlns:xlink="http://www.w3.org/1999/xlink" viewBox="0 0 512 512" width="512" height="512" style="width: 100%; height: 100%; transform: translate3d(0,0,0);" preserveAspectRatio="xMidYMid meet"><defs><clipPath id="__lottie_element_52165"><rect width="512" height="512" x="0" y="0"></rect></clipPath></defs><g clip-path="url(#__lottie_element_52165)"><g style="display: block;" transform="matrix(1,0,0,1,-2170.0078125,-1884.760986328125)" opacity="1"><g opacity="1" transform="matrix(1,0,0,1,0,0)"><g opacity="1" transform="matrix(1,0,0,1,2430.0869140625,2094.8759765625)"><path fill="rgb(0,0,0)" fill-opacity="1" d=" M188.302001953125,2.7070000171661377 C187.1439971923828,3.9860000610351562 185.41799926757812,4.808000087738037 183.72900390625,5.363999843597412 C170.3769989013672,9.817999839782715 157.3280029296875,8.302000045776367 143.91799926757812,9.222000122070312 C136.9029998779297,9.35099983215332 127.47899627685547,15.479999542236328 137.46800231933594,20.249000549316406 C147.30799865722656,24.232999801635742 158.5260009765625,25.12700080871582 168.92100524902344,25.10700035095215 C172.61300659179688,25.059999465942383 176.302001953125,24.874000549316406 179.9669952392578,25.55900001525879 C184.4010009765625,26.14900016784668 187.63600158691406,28.764999389648438 186.01100158691406,33.88999938964844 C181.84300231933594,51.23099899291992 169.33700561523438,73.75599670410156 154.1510009765625,83.19200134277344 C138.8769989013672,88.44300079345703 123.60099792480469,78.83100128173828 110.7699966430664,71.31400299072266 C105.65599822998047,68.43099975585938 100.84100341796875,64.8239974975586 95.44200134277344,62.53300094604492 C92.41899871826172,61.20000076293945 88.48699951171875,62.987998962402344 89.55500030517578,66.68299865722656 C96.78600311279297,79.3550033569336 116.99600219726562,89.3479995727539 129.76600646972656,97.1729965209961 C132.86300659179688,98.71900177001953 135.16200256347656,101.51399993896484 132.7570037841797,105.177001953125 C131.06100463867188,108.25900268554688 128.67799377441406,110.68399810791016 125.95999908447266,112.85399627685547 C103.08499908447266,131.45700073242188 77.56500244140625,146.3679962158203 48.64799880981445,152.1580047607422 C-23.865999221801758,167.093994140625 -101.4729995727539,154.25900268554688 -162.11900329589844,111.43299865722656 C-165.2729949951172,109.30799865722656 -169.1719970703125,106.5469970703125 -169.81199645996094,102.68599700927734 C-170.3730010986328,99.25 -167.39599609375,96.75499725341797 -164.61599731445312,95.28399658203125 C-153.71600341796875,88.63300323486328 -132.16000366210938,82.53800201416016 -126.75499725341797,70.61699676513672 C-125.78099822998047,67.16600036621094 -129.27499389648438,65.68699645996094 -132.3509979248047,66.0199966430664 C-136.9080047607422,66.53500366210938 -140.79600524902344,69.53399658203125 -145.1199951171875,70.96199798583984 C-156.36500549316406,74.7979965209961 -167.84800720214844,77.96099853515625 -179.31500244140625,81.06800079345703 C-184.49600219726562,82.69999694824219 -190.3350067138672,81.94400024414062 -194.50999450683594,78.43900299072266 C-205.75399780273438,68.97599792480469 -214.53599548339844,52.88399887084961 -219.95899963378906,37.26900100708008 C-222.802001953125,30.152000427246094 -215.5469970703125,29.339000701904297 -210.3769989013672,28.19300079345703 C-198.17999267578125,26.256999969482422 -185.83799743652344,25.108999252319336 -173.73699951171875,22.56399917602539 C-170.43299865722656,21.93199920654297 -164.2989959716797,20.261999130249023 -165.06900024414062,15.92300033569336 C-166.7550048828125,11.942000389099121 -172.8280029296875,13.090999603271484 -176.41000366210938,12.78499984741211 C-188.81700134277344,12.782999992370605 -201.18099975585938,12.71399974822998 -213.6269989013672,13.062000274658203 C-227.072998046875,13.954999923706055 -233.4929962158203,9.069999694824219 -236.38499450683594,-4.3379998207092285 C-238.9459991455078,-15.166000366210938 -242.49200439453125,-25.72599983215332 -244.03500366210938,-36.72700119018555 C-244.73300170898438,-44.25199890136719 -238.1439971923828,-44.71200180053711 -232.3520050048828,-43.88399887084961 C-218.93299865722656,-42.33100128173828 -205.62399291992188,-40.09000015258789 -192.18499755859375,-39.7859992980957 C-189.2790069580078,-39.823001861572266 -185.97300720214844,-39.222999572753906 -183.22000122070312,-40.270999908447266 C-179.26100158691406,-42.13399887084961 -182.28500366210938,-45.529998779296875 -185.2899932861328,-46.1879997253418 C-191.09500122070312,-47.770999908447266 -196.9969940185547,-49.11000061035156 -202.89500427246094,-50.332000732421875 C-214.12399291992188,-52.665000915527344 -243.2050018310547,-57.62099838256836 -243.66400146484375,-71.28099822998047 C-245.00599670410156,-100.42900085449219 -243.6230010986328,-129.60899353027344 -239.21499633789062,-158.41799926757812 C-238.7790069580078,-161.74000549316406 -237.0019989013672,-165.8520050048828 -233.5709991455078,-166.49000549316406 C-230.21200561523438,-167.093994140625 -227.41200256347656,-163.7519989013672 -225.35699462890625,-161.36500549316406 C-192.2760009765625,-121.23400115966797 -158.01199340820312,-82.03800201416016 -121.71700286865234,-44.7869987487793 C-86.77799987792969,-5.410999774932861 -29.822999954223633,17.454999923706055 21.375999450683594,-0.550000011920929 C37.1510009765625,-6.533999919891357 53.02299880981445,-15.64900016784668 64.48300170898438,-28.18400001525879 C70.12799835205078,-34.9109992980957 73.81300354003906,-43.00299835205078 76.66699981689453,-51.25 C81.6520004272461,-65.74600219726562 85.47899627685547,-80.65799713134766 89.93299865722656,-95.34700012207031 C95.18800354003906,-115.83000183105469 103.48100280761719,-137.74600219726562 122.33799743652344,-149.23699951171875 C133.2220001220703,-156.4340057373047 148.2899932861328,-158.9320068359375 161.50799560546875,-158.83700561523438 C171.85299682617188,-159.0659942626953 182.20199584960938,-158.92300415039062 192.48599243164062,-158.2429962158203 C202.4499969482422,-157.58299255371094 212.3470001220703,-156.43099975585938 222.25100708007812,-154.61500549316406 C232.7270050048828,-152.9980010986328 245.00599670410156,-148.19000244140625 239.2050018310547,-134.71499633789062 C234.6179962158203,-124.74199676513672 226.31500244140625,-117.06500244140625 217.1439971923828,-111.46299743652344 C202.8159942626953,-104.90799713134766 193.697998046875,-94.00800323486328 192.4510040283203,-78.11399841308594 C191.24000549316406,-59.51599884033203 191.41799926757812,-40.87200164794922 190.89300537109375,-22.246999740600586 C190.4770050048828,-15.319000244140625 192.41900634765625,-3.00600004196167 188.4199981689453,2.575000047683716 C188.4199981689453,2.575000047683716 188.302001953125,2.7070000171661377 188.302001953125,2.7070000171661377z M165.41200256347656,-130.07200622558594 C158.5399932861328,-130.24099731445312 151.71400451660156,-124.02300262451172 152.99000549316406,-116.85099792480469 C153.48300170898438,-109.87699890136719 159.94900512695312,-108.22699737548828 165.38699340820312,-111.30599975585938 C168.86700439453125,-113.28900146484375 171.6840057373047,-116.1729965209961 172.4029998779297,-120.13899993896484 C173.36000061035156,-124.53199768066406 170.28500366210938,-129.79200744628906 165.5989990234375,-130.06100463867188 C165.5989990234375,-130.06100463867188 165.41200256347656,-130.07200622558594 165.41200256347656,-130.07200622558594z"></path></g><g opacity="1" transform="matrix(1,0,0,1,2412.37890625,2325.573974609375)"><path fill="rgb(0,0,0)" fill-opacity="1" d=" M106.46299743652344,53.422000885009766 C103.88800048828125,57.23899841308594 97.75399780273438,56.69900131225586 93.54299926757812,56.94900131225586 C84.97599792480469,57.090999603271484 76.43699645996094,57.183998107910156 67.8239974975586,57.35499954223633 C52.590999603271484,58.000999450683594 48.38800048828125,53.58700180053711 43.45100021362305,39.78099822998047 C39.82699966430664,30.381999969482422 35.97600173950195,21.083999633789062 32.02899932861328,11.835000038146973 C29.86400032043457,7.181000232696533 28.023000717163086,1.9809999465942383 24.601999282836914,-1.88100004196167 C22.4060001373291,-4.385000228881836 19.409000396728516,-4.863999843597412 18.243000030517578,-1.5360000133514404 C15.020999908447266,13.060999870300293 26.988000869750977,32.70000076293945 27.298999786376953,47.94599914550781 C27.5310001373291,55.85499954223633 19.833999633789062,56.43199920654297 12.97599983215332,56.4109992980957 C4.284999847412109,56.5369987487793 -4.328999996185303,55.56399917602539 -13.187000274658203,54.777000427246094 C-23.742000579833984,54.17499923706055 -23.531999588012695,48.73699951171875 -21.29199981689453,39.441001892089844 C-19.299999237060547,30.457000732421875 -16.31800079345703,21.562999725341797 -14.963000297546387,12.503999710083008 C-14.472000122070312,8.196000099182129 -13.446000099182129,2.6630001068115234 -15.394000053405762,-0.9290000200271606 C-18.641000747680664,-5.564000129699707 -23.135000228881836,1.2740000486373901 -24.31399917602539,4.590000152587891 C-28.573999404907227,15.508999824523926 -32.37900161743164,26.673999786376953 -36.36199951171875,37.770999908447266 C-38.59299850463867,44.22700119018555 -41.79999923706055,51.823001861572266 -49.268001556396484,53.21900177001953 C-51.52799987792969,53.731998443603516 -53.959999084472656,53.76499938964844 -56.310001373291016,53.72200012207031 C-69.2750015258789,53.40299987792969 -82.29000091552734,52.78499984741211 -95.2509994506836,52.13600158691406 C-101.01399993896484,51.9640007019043 -108.19999694824219,50.65299987792969 -104.88700103759766,42.99800109863281 C-103.14299774169922,39.00699996948242 -100.24199676513672,35.10499954223633 -97.77300262451172,31.410999298095703 C-79.68499755859375,5.781000137329102 -61.435001373291016,-19.670000076293945 -43.32699966430664,-45.305999755859375 C-38.055999755859375,-53.055999755859375 -32.95600128173828,-58.00199890136719 -22.958999633789062,-56.99599838256836 C-8.008999824523926,-55.547000885009766 6.882999897003174,-55.3120002746582 21.86199951171875,-56.29399871826172 C29.339000701904297,-56.87699890136719 37.61899948120117,-56.69499969482422 42.775001525878906,-50.391998291015625 C63.97100067138672,-20.167999267578125 82.98500061035156,11.795000076293945 103.37799835205078,42.555999755859375 C105.29000091552734,45.630001068115234 108.19999694824219,49.98500061035156 106.5270004272461,53.305999755859375 C106.5270004272461,53.305999755859375 106.46299743652344,53.422000885009766 106.46299743652344,53.422000885009766z"></path></g><g opacity="1" transform="matrix(1,0,0,1,2414.818115234375,1972.718994140625)"><path fill="rgb(0,0,0)" fill-opacity="1" d=" M-36.446998596191406,-64.18399810791016 C-34.89899826049805,-62.481998443603516 -36.323001861572266,-58.35100173950195 -36.78499984741211,-55.65599822998047 C-37.900001525878906,-50.999000549316406 -39.04199981689453,-46.361000061035156 -39.73500061035156,-41.61800003051758 C-42.78099822998047,-24.54199981689453 -37.30799865722656,-4.673999786376953 -23.974000930786133,6.517000198364258 C-14.505000114440918,14.654999732971191 -0.37400001287460327,15.859000205993652 10.871999740600586,10.857000350952148 C28.270000457763672,3.1089999675750732 34.564998626708984,-18.256000518798828 34.95800018310547,-36.24300003051758 C35.51100158691406,-40.2760009765625 32.20399856567383,-57.566001892089844 38.77799987792969,-56.04899978637695 C41.05099868774414,-55.465999603271484 44.250999450683594,-52.21699905395508 46.917999267578125,-48.106998443603516 C67.77100372314453,-16.256000518798828 62.29600143432617,19.576000213623047 36.54100036621094,44.784000396728516 C30.81999969482422,50.362998962402344 23.708999633789062,54.30699920654297 16.031999588012695,56.33599853515625 C-13.22700023651123,64.98899841308594 -43.82699966430664,54.698001861572266 -58.88600158691406,26.406999588012695 C-67.27899932861328,12.303000450134277 -67.77100372314453,-4.571000099182129 -64.68199920654297,-19.850000381469727 C-61.823001861572266,-34.13199996948242 -54.77000045776367,-45.117000579833984 -45.180999755859375,-57.138999938964844 C-43.321998596191406,-59.150001525878906 -39.11199951171875,-64.98899841308594 -36.49599838256836,-64.21600341796875 C-36.49599838256836,-64.21600341796875 -36.446998596191406,-64.18399810791016 -36.446998596191406,-64.18399810791016z"></path></g></g></g></g></svg>