<svg xmlns="http://www.w3.org/2000/svg" xmlns:xlink="http://www.w3.org/1999/xlink" viewBox="0 0 512 512" width="512" height="512" style="width: 100%; height: 100%; transform: translate3d(0,0,0);" preserveAspectRatio="xMidYMid meet"><defs><clipPath id="__lottie_element_53834"><rect width="512" height="512" x="0" y="0"></rect></clipPath></defs><g clip-path="url(#__lottie_element_53834)"><g style="display: block;" transform="matrix(1.0299999713897705,0,0,1.0299999713897705,0.903167724609375,13.500625610351562)" opacity="1"><g opacity="1" transform="matrix(1,0,0,1,251.89500427246094,245.65499877929688)"><path fill="rgb(0,0,0)" fill-opacity="1" d=" M219.64500427246094,98.40499877929688 C193.14500427246094,66.11499786376953 138.6060028076172,72.24099731445312 94.61599731445312,73.20099639892578 C48.61600112915039,74.20099639892578 2.8550000190734863,68.44300079345703 7.324999809265137,56.143001556396484 C11.324999809265137,45.143001556396484 104.51000213623047,67.45099639892578 149.64500427246094,42.404998779296875 C183.72300720214844,23.493999481201172 169.4250030517578,-73.70500183105469 157.64500427246094,-82.59500122070312 C140.68499755859375,-95.3949966430664 79.62300109863281,-84.38700103759766 51.67399978637695,-71.6240005493164 C17.131000518798828,-55.849998474121094 -15.470999717712402,-14.62399959564209 -24.47100067138672,-19.624000549316406 C-34.04100036621094,-24.944000244140625 3.007999897003174,-65.94599914550781 41.64500045776367,-95.59500122070312 C69.55799865722656,-117.01499938964844 141.21499633789062,-106.56500244140625 140.64500427246094,-117.59500122070312 C138.64500427246094,-156.59500122070312 93.74500274658203,-208.0749969482422 85.6449966430664,-209.59500122070312 C37.64500045776367,-218.59500122070312 9.515000343322754,-245.40499877929688 -5.355000019073486,-242.59500122070312 C-17.415000915527344,-240.31500244140625 -20.975000381469727,-228.77499389648438 -32.35499954223633,-224.59500122070312 C-44.025001525878906,-220.31500244140625 -93.13500213623047,-218.46499633789062 -110.3550033569336,-212.59500122070312 C-130.73500061035156,-205.64500427246094 -167.05499267578125,-116.45500183105469 -180.14500427246094,-100.11499786376953 C-187.4250030517578,-91.0250015258789 -220.35499572753906,-103.59500122070312 -239.35499572753906,-81.59500122070312 C-251.64500427246094,-67.3550033569336 -251.21499633789062,-43.32500076293945 -242.81500244140625,-28.065000534057617 C-213.35499572753906,25.405000686645508 -98.40299987792969,80.072998046875 -26.354999542236328,99.40499877929688 C33.37799835205078,115.43299865722656 90.375,112.93499755859375 138.64500427246094,125.40499877929688 C158.73500061035156,130.59500122070312 194.9250030517578,154.69500732421875 180.64500427246094,176.40499877929688 C171.31500244140625,190.5850067138672 86.7750015258789,166.9949951171875 48.64500045776367,131.40499877929688 C33.64500045776367,117.40499877929688 29.655000686645508,139.48500061035156 35.64500045776367,149.40499877929688 C64.6449966430664,197.40499877929688 163.13499450683594,250.05499267578125 217.64500427246094,210.40499877929688 C250.64500427246094,186.40499877929688 251.64500427246094,137.40499877929688 219.64500427246094,98.40499877929688z M-87.3550033569336,-21.594999313354492 C-124.875,-48.89500045776367 -154.13499450683594,-54.67499923706055 -155.35499572753906,-66.59500122070312 C-156.9949951171875,-82.63500213623047 -118.71499633789062,-162.5749969482422 -108.3550033569336,-165.59500122070312 C-71.91500091552734,-176.23500061035156 -42.35499954223633,-183.60499572753906 -39.35499954223633,-173.59500122070312 C-34.625,-157.7949981689453 -13.4350004196167,-110.625 -17.084999084472656,-105.41500091552734 C-38.084999084472656,-75.41500091552734 -70.3550033569336,-9.225000381469727 -87.3550033569336,-21.594999313354492z"></path></g></g></g></svg>