<svg xmlns="http://www.w3.org/2000/svg" xmlns:xlink="http://www.w3.org/1999/xlink" viewBox="0 0 512 512" width="512" height="512" style="width: 100%; height: 100%; transform: translate3d(0,0,0);" preserveAspectRatio="xMidYMid meet"><defs><clipPath id="__lottie_element_14382"><rect width="512" height="512" x="0" y="0"></rect></clipPath></defs><g clip-path="url(#__lottie_element_14382)"><g style="display: block;" transform="matrix(1,0,0,1,256,256)" opacity="1"><g opacity="1" transform="matrix(1,0,0,1,0,0)"><path fill="rgb(0,0,0)" fill-opacity="1" d=" M-234.88400268554688,-231.1699981689453 C-234.88400268554688,-231.1699981689453 -20.80900001525879,-226.86500549316406 -20.333999633789062,-226.41400146484375 C-13.741000175476074,-220.15199279785156 -44.79800033569336,-162.3040008544922 -99.68599700927734,-104.51699829101562 C-154.57400512695312,-46.72999954223633 -212.50900268554688,-10.88700008392334 -219.1020050048828,-17.14900016784668 C-219.57699584960938,-17.600000381469727 -234.88400268554688,-231.1699981689453 -234.88400268554688,-231.1699981689453z"></path><path stroke-linecap="round" stroke-linejoin="round" fill-opacity="0" stroke="rgb(0,0,0)" stroke-opacity="1" stroke-width="30" d=" M-234.88400268554688,-231.1699981689453 C-234.88400268554688,-231.1699981689453 -20.80900001525879,-226.86500549316406 -20.333999633789062,-226.41400146484375 C-13.741000175476074,-220.15199279785156 -44.79800033569336,-162.3040008544922 -99.68599700927734,-104.51699829101562 C-154.57400512695312,-46.72999954223633 -212.50900268554688,-10.88700008392334 -219.1020050048828,-17.14900016784668 C-219.57699584960938,-17.600000381469727 -234.88400268554688,-231.1699981689453 -234.88400268554688,-231.1699981689453z"></path></g><g opacity="1" transform="matrix(1,0,0,1,0,0)"><path stroke-linecap="round" stroke-linejoin="round" fill-opacity="0" stroke="rgb(0,0,0)" stroke-opacity="1" stroke-width="30" d=" M169.53399658203125,155.52499389648438 C169.53399658203125,155.52499389648438 102.45500183105469,91.26799774169922 102.45500183105469,91.26799774169922"></path></g><g opacity="1" transform="matrix(1,0,0,1,0,0)"><g opacity="1" transform="matrix(1,0,0,1,0,0)"><path fill="rgb(0,0,0)" fill-opacity="1" d=" M186.85299682617188,32.37200164794922 C186.18699645996094,29.698999404907227 184.77699279785156,27.179000854492188 182.63099670410156,25.142000198364258 C182.63099670410156,25.142000198364258 127.03199768066406,-27.66900062561035 127.03199768066406,-27.66900062561035 C127.03199768066406,-27.66900062561035 28.195999145507812,152.3179931640625 28.195999145507812,152.3179931640625 C28.195999145507812,152.3179931640625 45.88100051879883,169.11500549316406 45.88100051879883,169.11500549316406 C47.95399856567383,171.0850067138672 50.529998779296875,172.4040069580078 53.29100036621094,172.95199584960938 C55.082000732421875,173.43899536132812 56.97200012207031,173.68600463867188 58.98099899291992,173.68499755859375 C67.447998046875,173.68499755859375 77.99099731445312,169.3179931640625 91.72699737548828,160.28900146484375 C106.76499938964844,150.4029998779297 123.39600372314453,136.1699981689453 138.55499267578125,120.20899963378906 C153.71499633789062,104.2490005493164 167.0749969482422,86.90799713134766 176.1739959716797,71.38200378417969 C186.44700622558594,53.85100173950195 189.85699462890625,41.56399917602539 186.85299682617188,32.37200164794922z"></path></g><g opacity="1" transform="matrix(1,0,0,1,0,0)"><path fill="rgb(0,0,0)" fill-opacity="1" d=" M34.551998138427734,-115.50900268554688 C34.551998138427734,-115.50900268554688 -64.28299713134766,64.47799682617188 -64.28299713134766,64.47799682617188 C-64.28299713134766,64.47799682617188 5.703000068664551,130.9530029296875 5.703000068664551,130.9530029296875 C5.703000068664551,130.9530029296875 104.53800201416016,-49.034000396728516 104.53800201416016,-49.034000396728516 C104.53800201416016,-49.034000396728516 34.551998138427734,-115.50900268554688 34.551998138427734,-115.50900268554688z"></path></g><g opacity="1" transform="matrix(1,0,0,1,0,0)"><path fill="rgb(0,0,0)" fill-opacity="1" d=" M-71.45999908447266,-216.2030029296875 C-74.73100280761719,-219.30799865722656 -79.2249984741211,-220.7790069580078 -83.697998046875,-220.20599365234375 C-88.1709976196289,-219.6320037841797 -92.14900207519531,-217.0760040283203 -94.52999877929688,-213.24600219726562 C-107.04900360107422,-193.1060028076172 -124.85600280761719,-170.5260009765625 -144.6699981689453,-149.6649932861328 C-164.86099243164062,-128.40699768066406 -186.8470001220703,-109.22000122070312 -206.57400512695312,-95.63999938964844 C-210.2989959716797,-93.07599639892578 -212.66799926757812,-88.96700286865234 -213.02200317382812,-84.45899963378906 C-213.37600708007812,-79.94999694824219 -211.67799377441406,-75.52300262451172 -208.3990020751953,-72.40799713134766 C-208.3990020751953,-72.40799713134766 -86.7760009765625,43.112998962402344 -86.7760009765625,43.112998962402344 C-86.7760009765625,43.112998962402344 12.059000015258789,-136.87399291992188 12.059000015258789,-136.87399291992188 C12.059000015258789,-136.87399291992188 -71.45999908447266,-216.2030029296875 -71.45999908447266,-216.2030029296875z"></path></g></g><g opacity="1" transform="matrix(1,0,0,1,0,0)"><path stroke-linecap="round" stroke-linejoin="round" fill-opacity="0" stroke="rgb(0,0,0)" stroke-opacity="1" stroke-width="30" d=" M99.7229995727539,213.0850067138672 C99.7229995727539,213.0850067138672 -212.9250030517578,-88.3010025024414 -212.9250030517578,-88.3010025024414"></path></g><g opacity="1" transform="matrix(1,0,0,1,0,0)"><path stroke-linecap="round" stroke-linejoin="round" fill-opacity="0" stroke="rgb(0,0,0)" stroke-opacity="1" stroke-width="30" d=" M237.0800018310547,222.01499938964844 C233.78399658203125,222.04800415039062 184.43600463867188,223.2740020751953 163.1739959716797,206.17300415039062 C151.97799682617188,197.16799926757812 152.38800048828125,172.6320037841797 167.80999755859375,156.61399841308594 C184.9429931640625,138.81900024414062 207.69000244140625,138.6580047607422 217.35400390625,150.0070037841797 C235.04299926757812,170.781005859375 237.03799438476562,218.66700744628906 237.1719970703125,221.91799926757812 C237.1719970703125,221.91799926757812 237.27099609375,222.01300048828125 237.27099609375,222.01300048828125 C237.27099609375,222.01300048828125 237.23800659179688,222.01300048828125 237.17599487304688,222.01400756835938 C237.17799377441406,222.0749969482422 237.1790008544922,222.10899353027344 237.1790008544922,222.10899353027344 C237.1790008544922,222.10899353027344 237.0800018310547,222.01499938964844 237.0800018310547,222.01499938964844z"></path></g><g opacity="1" transform="matrix(1,0,0,1,0,0)"><path stroke-linecap="round" stroke-linejoin="round" fill-opacity="0" stroke="rgb(255,255,255)" stroke-opacity="1" stroke-width="30" d=" M-158.6580047607422,-197.59800720214844 C-135.3159942626953,-197.24000549316406 -109.16200256347656,-196.83299255371094 -86.36799621582031,-196.45700073242188"></path></g></g></g></svg>