<svg xmlns="http://www.w3.org/2000/svg" xmlns:xlink="http://www.w3.org/1999/xlink" viewBox="0 0 512 512" width="512" height="512" style="width: 100%; height: 100%; transform: translate3d(0,0,0);" preserveAspectRatio="xMidYMid meet"><defs><clipPath id="__lottie_element_51445"><rect width="512" height="512" x="0" y="0"></rect></clipPath></defs><g clip-path="url(#__lottie_element_51445)"><g style="display: block;" transform="matrix(1,0,0,1,254.3260040283203,275.12701416015625)" opacity="1"><g opacity="1" transform="matrix(1,0,0,1,0,0)"><path fill="rgb(0,0,0)" fill-opacity="1" d=" M-101.12,-130.22 C-101.12,-147.25 -114.95,-161.08 -131.98,-161.08 C-149.01,-161.08 -162.83,-147.25 -162.83,-130.22 C-162.83,-113.19 -149.01,-99.36 -131.98,-99.36 C-114.95,-99.36 -101.12,-113.19 -101.12,-130.22z M241.4739990234375,29.281999588012695 C237.0679931640625,4.752999782562256 196.67100524902344,-8.515999794006348 151.24400329589844,-0.35600000619888306 C138.90699768066406,1.8600000143051147 127.47899627685547,5.436999797821045 117.447998046875,9.95199966430664 C117.37699890136719,8.484000205993652 117.2969970703125,7.004000186920166 117.1969985961914,5.492000102996826 C109.23699951171875,-114.61799621582031 -6.89300012588501,-170.3679962158203 -6.89300012588501,-170.3679962158203 C-6.89300012588501,-170.3679962158203 -7.013000011444092,-135.10800170898438 -29.452999114990234,-94.71800231933594 C-41.983001708984375,-72.15799713134766 -68.2030029296875,-53.79800033569336 -85.90299987792969,-43.29800033569336 C-88.6729965209961,-41.65800094604492 -91.54299926757812,-45.237998962402344 -89.35299682617188,-47.608001708984375 C-76.58300018310547,-61.37799835205078 -58.74300003051758,-84.43800354003906 -50.68299865722656,-112.62799835205078 C-35.18299865722656,-166.9080047607422 -48.03300094604492,-189.60800170898438 -48.03300094604492,-189.60800170898438 C-63.9630012512207,-198.23800659179688 -189.3730010986328,-228.09800720214844 -232.51300048828125,-184.96800231933594 C-261.0429992675781,-156.42799377441406 -222.92300415039062,-6.828000068664551 -136.9530029296875,55.262001037597656 C-59.11399841308594,111.4739990234375 4.270999908447266,113.47100067138672 41.176998138427734,106.58799743652344 C40.709999084472656,109.62799835205078 40.316001892089844,112.72200012207031 40.00699996948242,115.86399841308594 C35.26100158691406,164.09100341796875 51.51900100708008,205.1649932861328 76.32099914550781,207.6060028076172 C101.12300109863281,210.0469970703125 125.07599639892578,172.9290008544922 129.82200622558594,124.7020034790039 C131.0070037841797,112.65599822998047 130.8820037841797,101.05799865722656 129.64100646972656,90.3949966430664 C141.23199462890625,91.39299774169922 154,90.84200286865234 167.1999969482422,88.47100067138672 C212.62600708007812,80.31099700927734 245.8800048828125,53.81100082397461 241.4739990234375,29.281999588012695z"></path><g opacity="1" transform="matrix(0,1,-1,0,-131.97799682617188,-130.21800231933594)"></g><g opacity="1" transform="matrix(1,0,0,1,0,0)"></g></g></g></g></svg>