<svg xmlns="http://www.w3.org/2000/svg" xmlns:xlink="http://www.w3.org/1999/xlink" viewBox="0 0 512 512" width="512" height="512" style="width: 100%; height: 100%; transform: translate3d(0,0,0);" preserveAspectRatio="xMidYMid meet"><defs><clipPath id="__lottie_element_52906"><rect width="512" height="512" x="0" y="0"></rect></clipPath></defs><g clip-path="url(#__lottie_element_52906)"><g style="display: block;" transform="matrix(1,0,0,1,0,0)" opacity="1"><g opacity="1" transform="matrix(1,0,0,1,184.72999572753906,161.875)"><path fill="rgb(0,0,0)" fill-opacity="1" d=" M136.2689971923828,-117.875 C-9.701000213623047,-180.875 -163.72999572753906,-123.18499755859375 -163.72999572753906,-20.875 C-163.72999572753906,-0.875 -74.30000305175781,15.694999694824219 -77.7300033569336,31.125 C-81.7300033569336,49.125 -129.72999572753906,39.125 -152.72999572753906,25.125 C-174.9600067138672,11.595000267028809 -120.7300033569336,142.125 -21.729999542236328,159.125 C-5.690000057220459,161.875 65.80000305175781,147.13499450683594 114.69999694824219,89.375 C111.63099670410156,87.48500061035156 108.47899627685547,85.73500061035156 105.26899719238281,84.125 C80.36900329589844,71.67500305175781 110.86900329589844,32.54499816894531 130.2689971923828,40.125 C134.4600067138672,41.76499938964844 138.52000427246094,43.55500030517578 142.4499969482422,45.505001068115234 C174.96099853515625,-27.295000076293945 151.63900756835938,-111.24500274658203 136.2689971923828,-117.875z M93.61000061035156,-10.414999961853027 C83.22000122070312,27.594999313354492 46.7400016784668,50.724998474121094 12.119999885559082,41.26499938964844 C-22.5,31.80500030517578 -42.150001525878906,-6.664999961853027 -31.770000457763672,-44.67499923706055 C-21.3799991607666,-82.67500305175781 15.100000381469727,-105.81500244140625 49.720001220703125,-96.3550033569336 C84.33999633789062,-86.8949966430664 103.98999786376953,-48.415000915527344 93.61000061035156,-10.414999961853027z"></path></g><g opacity="1" transform="matrix(1,0,0,1,296.1400146484375,222.8350067138672)"><path fill="rgb(0,0,0)" fill-opacity="1" d=" M31.040000915527344,-15.454999923706055 C29.459999084472656,-11.885000228881836 27.729999542236328,-8.345000267028809 25.860000610351562,-4.835000038146973 C19.239999771118164,7.574999809265137 11.60099983215332,18.614999771118164 3.2899999618530273,28.415000915527344 C0.22100000083446503,26.524999618530273 -2.930000066757202,24.774999618530273 -6.139999866485596,23.165000915527344 C-31.040000915527344,10.71500015258789 -0.5400000214576721,-28.415000915527344 18.860000610351562,-20.834999084472656 C23.051000595092773,-19.19499969482422 27.110000610351562,-17.405000686645508 31.040000915527344,-15.454999923706055z"></path></g><g opacity="1" transform="matrix(1,0,0,1,337.29998779296875,303.32000732421875)"><path fill="rgb(0,0,0)" fill-opacity="1" d=" M70.12999725341797,70.75 C69.51000213623047,75.6989974975586 68.69999694824219,80.68000030517578 67.69999694824219,85.68000030517578 C64.19100189208984,103.30000305175781 16.65999984741211,108.89900207519531 20.700000762939453,84.68000030517578 C21.290000915527344,81.12999725341797 21.760000228881836,77.61000061035156 22.09000015258789,74.14099884033203 C23.040000915527344,64.60099792480469 23.049999237060547,55.369998931884766 22.239999771118164,46.5 C21.1299991607666,34.209999084472656 18.430999755859375,22.608999252319336 14.40999984741211,11.850000381469727 C10.029999732971191,0.10000000149011612 4.079999923706055,-10.65999984741211 -3.0899999141693115,-20.239999771118164 C-11.65999984741211,-31.700000762939453 -21.979000091552734,-41.459999084472656 -33.45000076293945,-49.209999084472656 C-34.90999984741211,-50.20000076293945 -36.380001068115234,-51.150001525878906 -37.869998931884766,-52.06999969482422 C-40.93899917602539,-53.959999084472656 -44.09000015258789,-55.709999084472656 -47.29999923706055,-57.31999969482422 C-72.19999694824219,-69.77100372314453 -41.70000076293945,-108.9000015258789 -22.299999237060547,-101.31999969482422 C-18.108999252319336,-99.68000030517578 -14.050000190734863,-97.88999938964844 -10.119999885559082,-95.94000244140625 C-3.438999891281128,-92.63999938964844 2.859999895095825,-88.88999938964844 8.770999908447266,-84.73999786376953 C19.85099983215332,-76.98999786376953 29.540000915527344,-67.83000183105469 37.790000915527344,-57.54999923706055 C50.90999984741211,-41.189998626708984 60.369998931884766,-21.97100067138672 65.91999816894531,-0.949999988079071 C68.66999816894531,9.439000129699707 70.47000122070312,20.270000457763672 71.27100372314453,31.420000076293945 C72.19999694824219,44.18000030517578 71.83999633789062,57.349998474121094 70.12999725341797,70.75z"></path></g><g opacity="1" transform="matrix(1,0,0,1,371.260009765625,440.1300048828125)"><path fill="rgb(0,0,0)" fill-opacity="1" d=" M-99.33300018310547,47.869998931884766 C-117.66600036621094,24.202999114990234 -68.16600036621094,-62.93299865722656 15.666999816894531,-67.23300170898438 C91.66699981689453,-71.12999725341797 117.66699981689453,12.20300006866455 110.66699981689453,43.869998931884766 C108.03900146484375,55.76100158691406 54.85100173950195,32.48400115966797 55.66699981689453,25.8700008392334 C59,-1.1299999952316284 54.33399963378906,-27.46299934387207 41.66699981689453,-32.130001068115234 C39.619998931884766,-32.88399887084961 39.80699920654297,20.820999145507812 28.66699981689453,19.8700008392334 C-37.66600036621094,14.20300006866455 -81.31500244140625,71.12899780273438 -99.33300018310547,47.869998931884766z"></path></g><g opacity="1" transform="matrix(1,0,0,1,365.8240051269531,278.78399658203125)"><path fill="rgb(0,0,0)" fill-opacity="1" d=" M-74.66699981689453,79.12899780273438 C-50.39899826049805,25.753000259399414 25.464000701904297,-52.029998779296875 93.0479965209961,-64.30699920654297 C117.20500183105469,-68.69599914550781 109.31500244140625,-104.47599792480469 86.31999969482422,-99.2239990234375 C6.25600004196167,-80.94000244140625 -90.36399841308594,-10.923999786376953 -111.97200012207031,72.3479995727539 C-117.2040023803711,92.51000213623047 -86.19000244140625,104.47599792480469 -74.66699981689453,79.12899780273438z"></path></g><g opacity="1" transform="matrix(1,0,0,1,390.54901123046875,345.6210021972656)"><path fill="rgb(0,0,0)" fill-opacity="1" d=" M-62.46099853515625,33.75299835205078 C-25.819000244140625,7.974999904632568 20.048999786376953,-15.317000389099121 67.88899993896484,3.3949999809265137 C84.98799896240234,10.083000183105469 95.25299835205078,-20.6560001373291 78.54900360107422,-26.309999465942383 C20.389999389648438,-45.99399948120117 -37.08000183105469,-34.44200134277344 -83.91400146484375,12.232999801635742 C-95.25399780273438,23.534000396728516 -79.86000061035156,45.99399948120117 -62.46099853515625,33.75299835205078z"></path></g></g></g></svg>