<svg xmlns="http://www.w3.org/2000/svg" xmlns:xlink="http://www.w3.org/1999/xlink" viewBox="0 0 512 512" width="512" height="512" style="width: 100%; height: 100%; transform: translate3d(0,0,0);" preserveAspectRatio="xMidYMid meet"><defs><clipPath id="__lottie_element_53724"><rect width="512" height="512" x="0" y="0"></rect></clipPath></defs><g clip-path="url(#__lottie_element_53724)"><g style="display: block;" transform="matrix(2.962939977645874,0,0,2.962939977645874,2.8374481201171875,2.8374481201171875)" opacity="1"><g opacity="1" transform="matrix(1,0,0,1,83.21399688720703,85.41400146484375)"><path fill="rgb(0,0,0)" fill-opacity="1" d=" M37.986000061035156,35.82699966430664 C37.231998443603516,34.84199905395508 35.797000885009766,34.71500015258789 34.8849983215332,35.55699920654297 C30.097000122070312,39.981998443603516 14.897000312805176,52.099998474121094 -4.695000171661377,48.56100082397461 C-17.867000579833984,46.180999755859375 -30.55299949645996,34.38199996948242 -27.05500030517578,19.41200065612793 C-25.034000396728516,10.76200008392334 -17.134000778198242,6.848999977111816 -8.192999839782715,5.545000076293945 C7.192999839782715,3.302000045776367 20.47800064086914,12.751999855041504 24.763999938964844,11.767000198364258 C29.40999984741211,10.699999809265137 31.85300064086914,-4.474999904632568 33.97800064086914,-6.876999855041504 C34.303001403808594,-7.24399995803833 34.53799819946289,-7.552000045776367 34.722999572753906,-7.826000213623047 C35.70899963378906,-8.673999786376953 36.986000061035156,-9.47599983215332 38.75699996948242,-10.16100025177002 C45.356998443603516,-12.71500015258789 53.25199890136719,-12.270000457763672 60.92399978637695,-18.711999893188477 C69.06099700927734,-25.542999267578125 74.98300170898438,-37.757999420166016 72.18199920654297,-50.012001037597656 C66.96199798583984,-72.84700012207031 37.119998931884766,-87.83200073242188 12.269000053405762,-82.72100067138672 C0.460999995470047,-80.29199981689453 -12.920000076293945,-68.98400115966797 -13.859000205993652,-57.255001068115234 C-14.107999801635742,-54.13600158691406 -16.440000534057617,-47.35599899291992 -8.817999839782715,-35.220001220703125 C-5.576000213623047,-30.05900001525879 -4.882999897003174,-27.882999420166016 -4.934000015258789,-25.204999923706055 C-5.631999969482422,-22.354000091552734 -7.065999984741211,-21.392000198364258 -8.246999740600586,-21.285999298095703 C-31.832000732421875,-19.17300033569336 -50.847999572753906,-14.109999656677246 -62.433998107910156,4.769000053405762 C-74.98200225830078,25.21500015258789 -65.91899871826172,49.85300064086914 -52.41899871826172,64.13400268554688 C-34.595001220703125,82.98899841308594 4.697999954223633,89.68099975585938 25.214000701904297,77.7750015258789 C36.47700119018555,71.23799896240234 44.604000091552734,61.676998138427734 43.518001556396484,48.46099853515625 C43.08599853515625,43.2140007019043 39.92499923706055,38.356998443603516 37.986000061035156,35.82699966430664z M11.729000091552734,-54.4370002746582 C14.947999954223633,-61.659000396728516 25.333999633789062,-64.0469970703125 34.926998138427734,-59.770999908447266 C44.52000045776367,-55.494998931884766 49.68600082397461,-46.17499923706055 46.46699905395508,-38.952999114990234 C43.24800109863281,-31.731000900268555 32.862998962402344,-29.343000411987305 23.270000457763672,-33.61899948120117 C13.677000045776367,-37.89500045776367 8.510000228881836,-47.215999603271484 11.729000091552734,-54.4370002746582z M-43.25299835205078,51.93600082397461 C-46.52299880981445,53.29600143432617 -54.36199951171875,45.91699981689453 -56.13399887084961,37.58100128173828 C-59.60300064086914,21.264999389648438 -48.54999923706055,14.239999771118164 -48.54999923706055,14.239999771118164 C-48.24599838256836,38.58000183105469 -37.14799880981445,49.39799880981445 -43.25299835205078,51.93600082397461z"></path></g></g></g></svg>