<svg xmlns="http://www.w3.org/2000/svg" xmlns:xlink="http://www.w3.org/1999/xlink" viewBox="0 0 512 512" width="512" height="512" style="width: 100%; height: 100%; transform: translate3d(0,0,0);" preserveAspectRatio="xMidYMid meet"><defs><clipPath id="__lottie_element_52751"><rect width="512" height="512" x="0" y="0"></rect></clipPath></defs><g clip-path="url(#__lottie_element_52751)"><g style="display: block;" transform="matrix(1,0,0,1,258.6929931640625,255.06199645996094)" opacity="1"><g opacity="1" transform="matrix(1,0,0,1,0,0)"><path fill="rgb(0,0,0)" fill-opacity="1" d=" M53.56100082397461,-42.57099914550781 C152.06399536132812,-31.50200080871582 227.18099975585938,26.565000534057617 227.18099975585938,96.54499816894531 C227.18099975585938,174.43299865722656 134.13299560546875,237.57400512695312 19.351999282836914,237.57400512695312 C-95.43000030517578,237.57400512695312 -188.47799682617188,174.43299865722656 -188.47799682617188,96.54499816894531 C-188.47799682617188,96.31500244140625 -188.46600341796875,96.08599853515625 -188.46499633789062,95.85600280761719 C-193.22900390625,37.395999908447266 -154.2570037841797,-33.928001403808594 -120.62799835205078,-72.33899688720703 C-104.44000244140625,-90.8290023803711 -83.62999725341797,-114.53500366210938 -88.88099670410156,-122.67400360107422 C-96.0780029296875,-133.8300018310547 -104.2969970703125,-124.19400024414062 -123.84100341796875,-123.09300231933594 C-134.03399658203125,-122.51899719238281 -134.82200622558594,-125.60099792480469 -142.2570037841797,-118.7239990234375 C-170.86300659179688,-92.25700378417969 -139.94400024414062,-60.551998138427734 -192.72000122070312,-17.297000885009766 C-217.20899963378906,2.7750000953674316 -258.5660095214844,-91.97200012207031 -187.7480010986328,-157.77000427246094 C-183.1820068359375,-162.01100158691406 -184.54400634765625,-159.80299377441406 -184.8209991455078,-165.7030029296875 C-186.83200073242188,-208.60000610351562 -140.7779998779297,-231.7790069580078 -109.74700164794922,-236.17599487304688 C-27.72599983215332,-247.79800415039062 13.682999610900879,-184.71099853515625 10.289999961853027,-130.59800720214844 C7.27400016784668,-82.5 -11.097999572753906,-68.36000061035156 -29.72100067138672,-31.211000442504883 C-33.46799850463867,-23.735000610351562 -56.74100112915039,19.847000122070312 -46.15700149536133,24.590999603271484 C-40.5,27.12700080871582 -37.474998474121094,20.905000686645508 -29.96299934387207,10.956000328063965 C-21.16699981689453,-0.6940000057220459 -11.656000137329102,-14.663999557495117 0.7559999823570251,-27.100000381469727 C16.621000289916992,-42.99599838256836 26.30900001525879,-45.632999420166016 53.56100082397461,-42.57099914550781 C53.56100082397461,-42.57099914550781 53.56100082397461,-42.57099914550781 53.56100082397461,-42.57099914550781z M103.6050033569336,112.26399993896484 C42.542999267578125,140.53599548339844 65.69100189208984,167.031005859375 109.24299621582031,150.99899291992188 C124.93699645996094,145.2220001220703 143.25799560546875,130.1179962158203 150.27499389648438,115.42500305175781 C169.4080047607422,75.36100006103516 113.28600311279297,107.78199768066406 103.6050033569336,112.26399993896484 C103.6050033569336,112.26399993896484 103.6050033569336,112.26399993896484 103.6050033569336,112.26399993896484z M-53.27799987792969,62.987998962402344 C-54.26499938964844,67.4990005493164 -31.08300018310547,93.54000091552734 23.405000686645508,91.51899719238281 C64.16400146484375,90.00700378417969 100.88899993896484,71.88400268554688 98.12100219726562,62.8120002746582 C95.125,52.99399948120117 64.50900268554688,61.39899826049805 23.660999298095703,63.45199966430664 C-8.270999908447266,65.05699920654297 -50.8489990234375,51.891998291015625 -53.27799987792969,62.987998962402344z"></path></g></g></g></svg>