<svg xmlns="http://www.w3.org/2000/svg" xmlns:xlink="http://www.w3.org/1999/xlink" viewBox="0 0 512 512" width="512" height="512" style="width: 100%; height: 100%; transform: translate3d(0,0,0);" preserveAspectRatio="xMidYMid meet"><defs><clipPath id="__lottie_element_51385"><rect width="512" height="512" x="0" y="0"></rect></clipPath></defs><g clip-path="url(#__lottie_element_51385)"><g style="display: block;" transform="matrix(1,0,0,1,0,0)" opacity="1"><g opacity="1" transform="matrix(1,0,0,1,115.1449966430664,405.5450134277344)"><path fill="rgb(0,0,0)" fill-opacity="1" d=" M51.85499954223633,-57.54499816894531 C30.235000610351562,-78.1050033569336 25.665000915527344,-92.95500183105469 22.225000381469727,-91.11599731445312 C4.394999980926514,-81.61599731445312 -65.7249984741211,-15.28600025177002 -73.8550033569336,-6.656000137329102 C-87.1449966430664,7.454999923706055 -91.9749984741211,38.263999938964844 -64.6449966430664,63.45500183105469 C-32.64500045776367,92.95500183105469 4.505000114440918,78.07499694824219 16.854999542236328,65.45500183105469 C22.764999389648438,59.415000915527344 80.8550033569336,-16.545000076293945 89.90499877929688,-31.045000076293945 C91.9749984741211,-34.375 72.3550033569336,-38.04499816894531 51.85499954223633,-57.54499816894531z M9.03499984741211,-15.225000381469727 C-2.6649999618530273,-3.5260000228881836 -18.7450008392334,-0.6449999809265137 -26.885000228881836,-8.78600025177002 C-35.025001525878906,-16.924999237060547 -32.1349983215332,-33.005001068115234 -20.44499969482422,-44.69599914550781 C-8.744999885559082,-56.39500045776367 7.335000038146973,-59.2859992980957 15.475000381469727,-51.14500045776367 C23.614999771118164,-43.005001068115234 20.735000610351562,-26.924999237060547 9.03499984741211,-15.225000381469727z"></path></g><g opacity="1" transform="matrix(1,0,0,1,288.5950012207031,221.96499633789062)"><path fill="rgb(0,0,0)" fill-opacity="1" d=" M78.7249984741211,-70.46499633789062 C37.314998626708984,-120.08499908447266 -43.095001220703125,-141.96499633789062 -95.01499938964844,-101.30500030517578 C-110.73699951171875,-88.99299621582031 -143.40499877929688,49.505001068115234 -139.09500122070312,71.03500366210938 C-133.09500122070312,101.03500366210938 -96.73500061035156,129.2259979248047 -71.09500122070312,134.03500366210938 C-47.095001220703125,138.53500366210938 86.40499877929688,102.03500366210938 95.40499877929688,93.03500366210938 C112.6050033569336,75.83499908447266 143.40499877929688,7.034999847412109 78.7249984741211,-70.46499633789062z M53.48500061035156,42.35200119018555 C38.91999816894531,55.81100082397461 5.190999984741211,43.00400161743164 -21.854000091552734,13.74899959564209 C-48.89899826049805,-15.505999565124512 -59.02000045776367,-50.143001556396484 -44.45500183105469,-63.60200119018555 C-29.889999389648438,-77.06099700927734 3.8389999866485596,-64.25399780273438 30.884000778198242,-34.999000549316406 C57.92900085449219,-5.74399995803833 68.05000305175781,28.89299964904785 53.48500061035156,42.35200119018555z"></path></g><g opacity="1" transform="matrix(1,0,0,1,323.0880126953125,60.83399963378906)"><path fill="rgb(0,0,0)" fill-opacity="1" d=" M6.9029998779296875,31.691999435424805 C23.225000381469727,15.383999824523926 29.996999740600586,-12.263999938964844 28.666000366210938,-25.31800079345703 C27.197999954223633,-39.71200180053711 -10.086999893188477,-41.17900085449219 -14.305999755859375,-29.608999252319336 C-19.606000900268555,-15.072999954223633 -18.180999755859375,-5.739999771118164 -25.12299919128418,12.267000198364258 C-29.996999740600586,24.910999298095703 -2.5910000801086426,41.17900085449219 6.9029998779296875,31.691999435424805z"></path></g><g opacity="1" transform="matrix(1,0,0,1,414.77899169921875,117.68399810791016)"><path fill="rgb(0,0,0)" fill-opacity="1" d=" M-34.69900131225586,3.177999973297119 C-19.277999877929688,-12.684000015258789 -8.190999984741211,-23.920000076293945 8.352999687194824,-30.981000900268555 C21.889999389648438,-36.75899887084961 44.05699920654297,-9.255999565124512 37.652000427246094,1.8270000219345093 C30.722000122070312,13.815999984741211 8.722000122070312,28.81599998474121 -9.861000061035156,33.46200180053711 C-23.04800033569336,36.75899887084961 -44.055999755859375,12.803000450134277 -34.69900131225586,3.177999973297119z"></path></g><g opacity="1" transform="matrix(1,0,0,1,459.3590087890625,240.02999877929688)"><path fill="rgb(0,0,0)" fill-opacity="1" d=" M-30.06999969482422,-13.0600004196167 C-10.45199966430664,-25.211999893188477 15.173999786376953,-25.086999893188477 27.68600082397461,-20.538000106811523 C41.481998443603516,-15.520999908447266 36.22600173950195,21.027000427246094 23.940000534057617,22.347999572753906 C8.503000259399414,24.009000778198242 0.09200000017881393,21.076000213623047 -19.113000869750977,23.5049991607666 C-32.597999572753906,25.211000442504883 -41.481998443603516,-5.991000175476074 -30.06999969482422,-13.0600004196167z"></path></g></g></g></svg>