<svg xmlns="http://www.w3.org/2000/svg" xmlns:xlink="http://www.w3.org/1999/xlink" viewBox="0 0 512 512" width="512" height="512" style="width: 100%; height: 100%; transform: translate3d(0,0,0);" preserveAspectRatio="xMidYMid meet"><defs><clipPath id="__lottie_element_53314"><rect width="512" height="512" x="0" y="0"></rect></clipPath></defs><g clip-path="url(#__lottie_element_53314)"><g style="display: block;" transform="matrix(1,0,0,1,5.704010009765625,31.725006103515625)" opacity="1"><g opacity="1" transform="matrix(1,0,0,1,230.30999755859375,10.48799991607666)"><path fill="rgb(0,0,0)" fill-opacity="1" d=" M41.810001373291016,-12.958999633789062 C64.68800354003906,-10.229000091552734 78.14399719238281,6.359000205993652 75.35900115966797,22.68199920654297 C72.24700164794922,40.92300033569336 60.891998291015625,31.00200080871582 34.8380012512207,28.3439998626709 C4.349999904632568,25.232999801635742 -10.682999610900879,21.91699981689453 -4.556000232696533,8.053000450134277 C3.2309999465942383,-9.567999839782715 17.799999237060547,-15.824000358581543 41.810001373291016,-12.958999633789062z"></path></g><g opacity="1" transform="matrix(1,0,0,1,249.2729949951172,180.57000732421875)"><path fill="rgb(0,0,0)" fill-opacity="1" d=" M-73.09700012207031,143.56399536132812 C-70.13700103759766,141.052001953125 -65.58100128173828,150.63299560546875 -62.95399856567383,153.0780029296875 C0.023000000044703484,211.7050018310547 60.560001373291016,171.86099243164062 147.69700622558594,164 C227.06900024414062,156.83900451660156 229.552001953125,179.67300415039062 239.30999755859375,166.43600463867188 C273.02301025390625,120.7040023803711 208.02200317382812,67.70500183105469 202.31900024414062,28.253999710083008 C184.93699645996094,-91.97599792480469 118.78099822998047,-142.76400756835938 22.844999313354492,-160.75100708007812 C-46.59299850463867,-173.77000427246094 -130.06399536132812,-152.11399841308594 -143.80799865722656,-134.3090057373047 C-166.9770050048828,-104.29499816894531 -165.2030029296875,-76.18299865722656 -162.3699951171875,-28.225000381469727 C-158.9770050048828,29.204999923706055 -138.9770050048828,50.20500183105469 -143.60800170898438,54.250999450683594 C-148.52000427246094,58.542999267578125 -185.4770050048828,21.704999923706055 -191.99899291992188,-28.05299949645996 C-196.7570037841797,-64.35700225830078 -186.70599365234375,-100.10099792480469 -188.8249969482422,-101.39600372314453 C-202.39199829101562,-109.68599700927734 -253.9770050048828,-45.29499816894531 -232.0449981689453,37.255001068115234 C-224.0780029296875,67.23899841308594 -251.63400268554688,57.72200012207031 -245.4739990234375,91.62300109863281 C-239.06399536132812,126.9010009765625 -200.177001953125,121.3030014038086 -163.10499572753906,133.68299865722656 C-140.89700317382812,141.0989990234375 -79.97699737548828,212.7050018310547 -46.62799835205078,236.8350067138672 C-14.196999549865723,260.3009948730469 -48.965999603271484,214.37899780273438 -45.0629997253418,204.48599243164062 C-40.507999420166016,192.93899536132812 -77.97699737548828,147.7050018310547 -73.09700012207031,143.56399536132812z"></path></g><g opacity="1" transform="matrix(1,0,0,1,334.30999755859375,381.4880065917969)"><path fill="rgb(0,0,0)" fill-opacity="1" d=" M-160.9550018310547,-46.88199996948242 C-149.88900756835938,-53.74300003051758 -129.84800720214844,22.167999267578125 -52.24399948120117,9.595999717712402 C-21.44099998474121,4.605999946594238 22.469999313354492,-11.826000213623047 58.47999954223633,-11.255999565124512 C88.79900360107422,-10.776000022888184 127.5790023803711,-6.951000213623047 140.3979949951172,-0.16699999570846558 C162.98500061035156,11.786999702453613 169.06700134277344,42.125 138.94000244140625,41.486000061035156 C105.98600006103516,40.7869987487793 94.98600006103516,16.28700065612793 51.53900146484375,11.675999641418457 C7.952000141143799,7.050000190734863 -25.486000061035156,56.08399963378906 -86.93199920654297,57.439998626708984 C-148.01499938964844,58.78799819946289 -220.01400756835938,-47.2130012512207 -246.6750030517578,-68.0719985961914 C-256.8599853515625,-76.04100036621094 -164.8350067138672,-44.47700119018555 -160.9550018310547,-46.88199996948242z"></path></g></g></g></svg>