<svg xmlns="http://www.w3.org/2000/svg" xmlns:xlink="http://www.w3.org/1999/xlink" viewBox="0 0 512 512" width="512" height="512" style="width: 100%; height: 100%; transform: translate3d(0,0,0);" preserveAspectRatio="xMidYMid meet"><defs><clipPath id="__lottie_element_52095"><rect width="512" height="512" x="0" y="0"></rect></clipPath></defs><g clip-path="url(#__lottie_element_52095)"><g style="display: block;" transform="matrix(1,0,0,1,256,256)" opacity="1"><g opacity="1" transform="matrix(1,0,0,1,0,0)"><path fill="rgb(0,0,0)" fill-opacity="1" d=" M117.3949966430664,-17.39900016784668 C173.17599487304688,-109.81400299072266 75.26699829101562,-203.2480010986328 0,-246.33299255371094 C-60.683998107910156,-211.5959930419922 -136.08399963378906,-144.12899780273438 -133.79400634765625,-70.85700225830078 C-70.36100006103516,-55.14699935913086 -28.833999633789062,-0.17299999296665192 -18.604999542236328,61.61600112915039 C-17.038000106811523,71.0790023803711 -30.503999710083008,74.7760009765625 -34.007999420166016,65.88099670410156 C-34.007999420166016,65.88099670410156 -34.06999969482422,65.71800231933594 -34.06999969482422,65.71800231933594 C-52.88999938964844,18 -96.30899810791016,-25.7189998626709 -154.677001953125,-19.90399932861328 C-227.32200622558594,-12.008999824523926 -282.1449890136719,71.36100006103516 -221.13400268554688,126.46499633789062 C-216.38999938964844,130.75 -208.78399658203125,127.96600341796875 -207.87399291992188,121.63899993896484 C-199.8470001220703,65.81300354003906 -114.9209976196289,46.987998962402344 -100.88200378417969,104.32099914550781 C-87.97699737548828,157.02099609375 -126.69499969482422,188.27200317382812 -179.51699829101562,184.63900756835938 C-187.89500427246094,184.06300354003906 -191.31300354003906,195.27499389648438 -184.0760040283203,199.53500366210938 C-134.41299438476562,228.7729949951172 -74.7509994506836,222.96400451660156 -41.75199890136719,174.88699340820312 C-31.354999542236328,199.56199645996094 -18.55900001525879,220.9149932861328 -6.401000022888184,237.0800018310547 C-3.194000005722046,241.343994140625 3.194000005722046,241.343994140625 6.401000022888184,237.0800018310547 C18.55900001525879,220.9149932861328 31.354999542236328,199.56199645996094 41.75199890136719,174.88699340820312 C74.76599884033203,222.98599243164062 134.43800354003906,228.75799560546875 184.0760040283203,199.53500366210938 C191.31300354003906,195.27499389648438 187.89500427246094,184.06300354003906 179.51699829101562,184.63900756835938 C126.69499969482422,188.27200317382812 87.97799682617188,157.02099609375 100.88200378417969,104.32099914550781 C114.9209976196289,46.987998962402344 199.8470001220703,65.81300354003906 207.87399291992188,121.63899993896484 C208.78399658203125,127.96600341796875 216.38999938964844,130.75 221.13400268554688,126.46499633789062 C291.6260070800781,62.79800033569336 206.78599548339844,-41.10900115966797 117.3949966430664,-17.39900016784668z"></path></g></g></g></svg>