<svg xmlns="http://www.w3.org/2000/svg" xmlns:xlink="http://www.w3.org/1999/xlink" viewBox="0 0 512 512" width="512" height="512" style="width: 100%; height: 100%; transform: translate3d(0,0,0);" preserveAspectRatio="xMidYMid meet"><defs><clipPath id="__lottie_element_52741"><rect width="512" height="512" x="0" y="0"></rect></clipPath></defs><g clip-path="url(#__lottie_element_52741)"><g style="display: block;" transform="matrix(1,0,0,1,0,0)" opacity="1"><g opacity="1" transform="matrix(1,0,0,1,252.87600708007812,255.843994140625)"><path fill="rgb(0,0,0)" fill-opacity="1" d=" M187.6540069580078,-139.531005859375 C230.42300415039062,-169.468994140625 222.93899536132812,-232.552001953125 222.93899536132812,-232.552001953125 C129.91799926757812,-234.6909942626953 121.36399841308594,-156.63800048828125 121.36399841308594,-156.63800048828125 C20.858999252319336,-194.06100463867188 -66.81600189208984,-156.63800048828125 -66.81600189208984,-156.63800048828125 C-66.81600189208984,-156.63800048828125 -71.09300231933594,-170.53799438476562 -68.9540023803711,-188.71499633789062 C-66.81600189208984,-206.89100646972656 -60.400001525878906,-248.58999633789062 -80.71499633789062,-241.1060028076172 C-159.52200317382812,-212.0709991455078 -163.04400634765625,-105.31700134277344 -163.04400634765625,-105.31700134277344 C-298.8330078125,21.91900062561035 -189.7740020751953,164.1230010986328 -189.7740020751953,164.1230010986328 C-189.7740020751953,164.1230010986328 -187.63600158691406,179.0919952392578 -197.25900268554688,192.99099731445312 C-206.8820037841797,206.89100646972656 -219.71200561523438,237.8979949951172 -183.35899353027344,243.24400329589844 C-147.00599670410156,248.58999633789062 -115.9990005493164,192.99099731445312 -115.9990005493164,192.99099731445312 C16.582000732421875,205.82200622558594 52.935001373291016,107.45500183105469 52.935001373291016,107.45500183105469 C145.95599365234375,107.45500183105469 145.95599365234375,30.472999572753906 145.95599365234375,30.472999572753906 C122.43399810791016,19.780000686645508 76.45700073242188,33.68000030517578 76.45700073242188,33.68000030517578 C76.45700073242188,33.68000030517578 18.72100067138672,94.625 18.72100067138672,94.625 C22.996999740600586,48.64799880981445 66.83499908447266,13.364999771118164 66.83499908447266,13.364999771118164 C76.45700073242188,-81.79499816894531 138.4720001220703,-89.27899932861328 138.4720001220703,-89.27899932861328 C172.68600463867188,-22.988000869750977 247.52999877929688,-37.957000732421875 247.52999877929688,-37.957000732421875 C252.87600708007812,-114.94000244140625 187.6540069580078,-139.531005859375 187.6540069580078,-139.531005859375z M-182.2899932861328,50.7869987487793 C-198.3280029296875,40.09600067138672 -176.94400024414062,-37.957000732421875 -155.55999755859375,-33.68000030517578 C-134.17599487304688,-29.402999877929688 -171.5399932861328,57.95399856567383 -182.2899932861328,50.7869987487793z"></path></g></g></g></svg>