<svg xmlns="http://www.w3.org/2000/svg" xmlns:xlink="http://www.w3.org/1999/xlink" viewBox="0 0 512 512" width="512" height="512" style="width: 100%; height: 100%; transform: translate3d(0,0,0);" preserveAspectRatio="xMidYMid meet"><defs><clipPath id="__lottie_element_52478"><rect width="512" height="512" x="0" y="0"></rect></clipPath></defs><g clip-path="url(#__lottie_element_52478)"><g style="display: block;" transform="matrix(1,0,0,1,256,256)" opacity="1"><g opacity="1" transform="matrix(1,0,0,1,0,0)"><path fill="rgb(0,0,0)" fill-opacity="1" d=" M-249.5540008544922,0.21799999475479126 C-249.5540008544922,56.04100036621094 -229.99400329589844,104.58200073242188 -190.875,145.83999633789062 C-203.76199340820312,161.25 -215.9250030517578,175.44000244140625 -227.36399841308594,188.40899658203125 C-270.1300048828125,236.41200256347656 -132.10899353027344,213.55499267578125 -106.22699737548828,205.5019989013672 C-15.357000350952148,244.656005859375 105.35600280761719,228.802001953125 177.13800048828125,160.13800048828125 C274.885009765625,75.88999938964844 274.9939880371094,-75.38300323486328 177.13699340820312,-159.53799438476562 C33.87900161743164,-296.6080017089844 -249.70199584960938,-209.71800231933594 -249.5540008544922,0.21799999475479126 M68.8219985961914,-97.24600219726562 C151.3769989013672,-98.79100036621094 154.593994140625,-10.107000350952148 111.55599975585938,44.10200119018555 C89.60199737548828,72.96800231933594 43.202999114990234,113.61000061035156 3.7339999675750732,118.55699920654297 C-14.649999618530273,118.40899658203125 -32.888999938964844,107.98100280761719 -50.34299850463867,96.86199951171875 C-96.35600280761719,65.27899932861328 -134.42599487304688,21.413000106811523 -134.4980010986328,-31.996000289916992 C-135.94500732421875,-72.57099914550781 -102.49800109863281,-100.03500366210938 -64.47799682617188,-97.24600219726562 C-35.862998962402344,-97.5989990234375 -3.2860000133514404,-64.54100036621094 2.253999948501587,-39.22800064086914 C7.716000080108643,-64.61399841308594 40.33300018310547,-97.58899688720703 68.8219985961914,-97.24600219726562z"></path></g></g></g></svg>