<svg xmlns="http://www.w3.org/2000/svg" xmlns:xlink="http://www.w3.org/1999/xlink" viewBox="0 0 512 512" width="512" height="512" style="width: 100%; height: 100%; transform: translate3d(0,0,0);" preserveAspectRatio="xMidYMid meet"><defs><clipPath id="__lottie_element_52766"><rect width="512" height="512" x="0" y="0"></rect></clipPath></defs><g clip-path="url(#__lottie_element_52766)"><g style="display: block;" transform="matrix(1,0,0,1,253.49600219726562,253.5970001220703)" opacity="1"><g opacity="1" transform="matrix(1,0,0,1,-54.6879997253418,0)"><path fill="rgb(0,0,0)" fill-opacity="1" d=" M110.6729965209961,31.33099937438965 C149.4929962158203,1.468999981880188 176.36900329589844,-69.2040023803711 160.4429931640625,-138.88099670410156 C144.51699829101562,-208.55799865722656 97.73300170898438,-239.4149932861328 56.922000885009766,-232.44700622558594 C16.111000061035156,-225.47900390625 4.165999889373779,-176.70599365234375 8.14799976348877,-128.927001953125 C12.130000114440918,-81.14800262451172 33.03200149536133,-48.29999923706055 19.097000122070312,-43.323001861572266 C5.1620001792907715,-38.34600067138672 -13.180999755859375,-71.64900207519531 -20.718000411987305,-111.01000213623047 C-27.06399917602539,-144.1479949951172 -23.920000076293945,-168.79600524902344 -21.547000885009766,-180.35499572753906 C-20.746999740600586,-184.25 -23.804000854492188,-187.85299682617188 -27.780000686645508,-187.78599548339844 C-102.86499786376953,-186.52000427246094 -110.3030014038086,-113.99600219726562 -110.3030014038086,-113.99600219726562 C-151.11399841308594,-126.93599700927734 -225.03500366210938,-60.268001556396484 -165.0500030517578,31.33099937438965 C-91.39099884033203,143.80999755859375 71.85299682617188,61.19300079345703 71.85299682617188,61.19300079345703 C71.85299682617188,61.19300079345703 101.71499633789062,75.12799835205078 129.58599853515625,134.8509979248047 C153.8730010986328,186.8939971923828 154.25999450683594,234.3509979248047 173.38299560546875,233.39500427246094 C193.29100036621094,232.39999389648438 193.2899932861328,194.5749969482422 167.41000366210938,125.89299774169922 C145.8769989013672,68.74700164794922 110.6729965209961,31.33099937438965 110.6729965209961,31.33099937438965z"></path></g><g opacity="1" transform="matrix(1,0,0,1,171.6479949951172,-1.1690000295639038)"><path fill="rgb(0,0,0)" fill-opacity="1" d=" M-49.96799850463867,98.19599914550781 C-86.2959976196289,73.97699737548828 -72.86199951171875,-0.3479999899864197 -25.08300018310547,-56.09000015258789 C22.695999145507812,-111.83200073242188 65.49700164794922,-128.7530059814453 70.4739990234375,-45.13999938964844 C75.45099639892578,38.472999572753906 -11.14799976348877,124.07599639892578 -49.96799850463867,98.19599914550781z"></path></g><g opacity="1" transform="matrix(1,0,0,1,-28.937000274658203,150.22799682617188)"><path fill="rgb(0,0,0)" fill-opacity="1" d=" M78.94999694824219,-18.363000869750977 C88.74500274658203,17.804000854492188 52.07400131225586,37.37799835205078 3.299999952316284,46.33700180053711 C-52.71799850463867,56.625999450683594 -90.26699829101562,27.423999786376953 -78.3219985961914,-4.427999973297119 C-59.86399841308594,-53.64799880981445 66.01000213623047,-66.14199829101562 78.94999694824219,-18.363000869750977z"></path></g></g></g></svg>