<svg xmlns="http://www.w3.org/2000/svg" xmlns:xlink="http://www.w3.org/1999/xlink" viewBox="0 0 512 512" width="512" height="512" style="width: 100%; height: 100%; transform: translate3d(0,0,0);" preserveAspectRatio="xMidYMid meet"><defs><clipPath id="__lottie_element_51510"><rect width="512" height="512" x="0" y="0"></rect></clipPath></defs><g clip-path="url(#__lottie_element_51510)"><g style="display: block;" transform="matrix(1,0,0,1,0,0)" opacity="1"><g opacity="1" transform="matrix(1,0,0,1,85.4489974975586,190.89599609375)"><path fill="rgb(0,0,0)" fill-opacity="1" d=" M62.279998779296875,19.256999969482422 C59.74100112915039,21.149999618530273 45.672000885009766,8.194999694824219 43.983001708984375,16.231000900268555 C43.25299835205078,19.702999114990234 54.8120002746582,26.551000595092773 58.16400146484375,27.56800079345703 C58.16400146484375,27.56800079345703 52.882999420166016,39.78300094604492 52.882999420166016,39.78300094604492 C27.56999969482422,35.85300064086914 4.197999954223633,24.009000778198242 -16.58300018310547,9.538999557495117 C-29.725000381469727,0.3869999945163727 -47.71099853515625,-14.383000373840332 -57.827999114990234,-26.608999252319336 C-59.316001892089844,-28.408000946044922 -67.51399993896484,-38.45600128173828 -66.01699829101562,-39.78300094604492 C-20.73900032043457,-37.737998962402344 31.95800018310547,-26.4689998626709 67.51399993896484,3.0139999389648438 C67.51399993896484,3.0139999389648438 62.279998779296875,19.256999969482422 62.279998779296875,19.256999969482422z"></path></g><g opacity="1" transform="matrix(1,0,0,1,427.0320129394531,191.0279998779297)"><path fill="rgb(0,0,0)" fill-opacity="1" d=" M64.97100067138672,-39.91699981689453 C67.59400177001953,-37.347999572753906 51.68299865722656,-19.386999130249023 48.768001556396484,-16.426000595092773 C28.533000946044922,4.125999927520752 -18.069000244140625,34.779998779296875 -46.57699966430664,38.95199966430664 C-49.428001403808594,39.36899948120117 -52.26100158691406,39.91699981689453 -55.14400100708008,39.42599868774414 C-55.14400100708008,39.42599868774414 -56.34700012207031,27.280000686645508 -56.34700012207031,27.280000686645508 C-56.34700012207031,27.280000686645508 -43.020999908447266,16.069000244140625 -43.020999908447266,16.069000244140625 C-46.98699951171875,8.23900032043457 -58.209999084472656,21.43899917602539 -61.290000915527344,19.124000549316406 C-61.290000915527344,19.124000549316406 -67.59400177001953,2.0920000076293945 -67.59400177001953,2.0920000076293945 C-30.683000564575195,-25.106000900268555 19.535999298095703,-38.125 64.97100067138672,-39.91699981689453z"></path></g><g opacity="1" transform="matrix(1,0,0,1,427.2749938964844,328.2130126953125)"><path fill="rgb(0,0,0)" fill-opacity="1" d=" M66.77300262451172,38.72700119018555 C66.77300262451172,38.72700119018555 37.23699951171875,38.72700119018555 37.23699951171875,38.72700119018555 C28.506000518798828,38.72700119018555 5.294000148773193,32.095001220703125 -4.089000225067139,29.1299991607666 C-26.773000717163086,21.961000442504883 -48.03099822998047,10.505000114440918 -66.77300262451172,-3.996999979019165 C-66.77300262451172,-3.996999979019165 -61.65599822998047,-15.260000228881836 -61.65599822998047,-15.260000228881836 C-59.236000061035156,-16.64299964904785 -52.37900161743164,-11.253000259399414 -49.375,-17.270000457763672 C-49.375,-17.270000457763672 -57.257999420166016,-23.577999114990234 -57.257999420166016,-23.577999114990234 C-57.257999420166016,-23.577999114990234 -52.26300048828125,-38.72700119018555 -52.26300048828125,-38.72700119018555 C-6.199999809265137,-27.68199920654297 38.98899841308594,0.3869999945163727 66.77300262451172,38.72700119018555z"></path></g><g opacity="1" transform="matrix(1,0,0,1,255.34100341796875,71.16100311279297)"><path fill="rgb(0,0,0)" fill-opacity="1" d=" M20.65399932861328,67.62200164794922 C20.65399932861328,67.62200164794922 7.296000003814697,65.8949966430664 7.296000003814697,65.8949966430664 C7.296000003814697,65.8949966430664 2.3889999389648438,51.43899917602539 2.3889999389648438,51.43899917602539 C-0.7549999952316284,51.72100067138672 -0.7120000123977661,54.573001861572266 -1.562000036239624,56.66299819946289 C-5.435999870300293,66.18499755859375 -3.2799999713897705,68.66300201416016 -17.81800079345703,67.57599639892578 C-30.0939998626709,22.966999053955078 -22.856000900268555,-29.235000610351562 1.3940000534057617,-68.66300201416016 C22.83099937438965,-28.08799934387207 30.0939998626709,22.666000366210938 20.65399932861328,67.62200164794922z"></path></g><g opacity="1" transform="matrix(1,0,0,1,86.64299774169922,328.3489990234375)"><path fill="rgb(0,0,0)" fill-opacity="1" d=" M-67.22000122070312,38.590999603271484 C-39.73400115966797,0.5720000267028809 3.9179999828338623,-27.584999084472656 49.763999938964844,-38.590999603271484 C52.439998626708984,-38.04600143432617 54.981998443603516,-27.742000579833984 54.8489990234375,-25.39900016784668 C54.56399917602539,-20.36199951171875 48.11600112915039,-19.601999282836914 48.89799880981445,-14.361000061035156 C48.89799880981445,-14.361000061035156 60.91400146484375,-16.239999771118164 60.91400146484375,-16.239999771118164 C60.91400146484375,-16.239999771118164 67.22000122070312,-4.2129998207092285 67.22000122070312,-4.2129998207092285 C43.582000732421875,12.031999588012695 20.305999755859375,24.5049991607666 -7.706999778747559,31.90399932861328 C-13.883999824523926,33.53499984741211 -32.784000396728516,38.590999603271484 -37.68299865722656,38.590999603271484 C-37.68299865722656,38.590999603271484 -67.22000122070312,38.590999603271484 -67.22000122070312,38.590999603271484z"></path></g><g opacity="1" transform="matrix(1,0,0,1,127.25,387.44000244140625)"><path fill="rgb(0,0,0)" fill-opacity="1" d=" M34.77299880981445,-34.76300048828125 C44.49399948120117,-35.97100067138672 48.74800109863281,-42.452999114990234 57.334999084472656,-33.446998596191406 C60.1150016784668,-15.977999687194824 0.5070000290870667,30.01300048828125 -14.295999526977539,39.39799880981445 C-27.312000274658203,47.650001525878906 -41.12900161743164,55.51599884033203 -56.89400100708008,56.8650016784668 C-60.11600112915039,53.76900100708008 -38.37799835205078,19.677000045776367 -34.946998596191406,14.682999610900879 C-27.12700080871582,3.299999952316284 21.290000915527344,-56.8650016784668 31.729000091552734,-56.79800033569336 C31.729000091552734,-56.79800033569336 40.744998931884766,-47.72100067138672 40.744998931884766,-47.72100067138672 C40.744998931884766,-47.72100067138672 34.77299880981445,-34.76300048828125 34.77299880981445,-34.76300048828125z"></path></g><g opacity="1" transform="matrix(1,0,0,1,385.3559875488281,385.406005859375)"><path fill="rgb(0,0,0)" fill-opacity="1" d=" M57.76599884033203,58.89099884033203 C31.101999282836914,55.145999908447266 6.017000198364258,36.87900161743164 -14.5,20.17300033569336 C-31.55900001525879,6.2820000648498535 -48.36600112915039,-9.343999862670898 -57.76599884033203,-29.694000244140625 C-49.92399978637695,-45.05799865722656 -42.042999267578125,-28.18899917602539 -33.93899917602539,-35.77299880981445 C-33.93899917602539,-35.77299880981445 -42.01599884033203,-43.917999267578125 -42.01599884033203,-43.917999267578125 C-42.01599884033203,-43.917999267578125 -33.83700180053711,-55.08599853515625 -33.83700180053711,-55.08599853515625 C-28.593000411987305,-58.88999938964844 12.128999710083008,-13.199000358581543 16.979999542236328,-7.2210001945495605 C33.132999420166016,12.684000015258789 48.025001525878906,35.09700012207031 57.76599884033203,58.89099884033203z"></path></g><g opacity="1" transform="matrix(1,0,0,1,380.2179870605469,130.2949981689453)"><path fill="rgb(0,0,0)" fill-opacity="1" d=" M58.819000244140625,-54.52299880981445 C49.097999572753906,-9.718999862670898 10.946999549865723,32.858001708984375 -28.798999786376953,54.52299880981445 C-34.3650016784668,48.66899871826172 -32.94599914550781,42.308998107910156 -28.81599998474121,36.05799865722656 C-28.81599998474121,36.05799865722656 -33.625,33.19599914550781 -33.625,33.19599914550781 C-33.625,33.19599914550781 -42.029998779296875,38.66400146484375 -42.029998779296875,38.66400146484375 C-58.81999969482422,29.082000732421875 -45.98699951171875,18.295000076293945 -36.85900115966797,7.623000144958496 C-11.70199966430664,-21.791000366210938 22.268999099731445,-42.34400177001953 58.819000244140625,-54.52299880981445z"></path></g><g opacity="1" transform="matrix(1,0,0,1,128.3090057373047,129.73800659179688)"><path fill="rgb(0,0,0)" fill-opacity="1" d=" M33.7140007019043,33.590999603271484 C33.7140007019043,33.590999603271484 37.52199935913086,48.430999755859375 37.52199935913086,48.430999755859375 C37.52199935913086,48.430999755859375 30.676000595092773,53.96699905395508 30.676000595092773,53.96699905395508 C-8.62600040435791,30.46500015258789 -43.39099884033203,-9.460000038146973 -55.91299819946289,-53.96699905395508 C-11.050999641418457,-39.71900177001953 31.351999282836914,-12.07699966430664 55.9119987487793,28.832000732421875 C55.9119987487793,28.832000732421875 44.90700149536133,39.625999450683594 44.90700149536133,39.625999450683594 C41.595001220703125,36.198001861572266 39.196998596191406,32.56999969482422 33.7140007019043,33.590999603271484z"></path></g><g opacity="1" transform="matrix(1,0,0,1,443.5880126953125,260.4750061035156)"><path fill="rgb(0,0,0)" fill-opacity="1" d=" M64.71299743652344,-3.4600000381469727 C65.76799774169922,1.3209999799728394 64.01499938964844,-0.20200000703334808 62.090999603271484,1.0609999895095825 C56.946998596191406,4.438000202178955 46.8849983215332,8.020000457763672 40.78300094604492,10.253000259399414 C7.2220001220703125,22.531999588012695 -30.93899917602539,28.729000091552734 -65.76799774169922,19.773000717163086 C-65.76799774169922,19.773000717163086 -65.56500244140625,6.769999980926514 -65.56500244140625,6.769999980926514 C-65.56500244140625,6.769999980926514 -55.50400161743164,3.635999917984009 -55.50400161743164,3.635999917984009 C-55.50400161743164,3.635999917984009 -65.56400299072266,0.5009999871253967 -65.56400299072266,0.5009999871253967 C-65.56400299072266,0.5009999871253967 -65.3759994506836,-16.45199966430664 -65.3759994506836,-16.45199966430664 C-65.3759994506836,-16.45199966430664 -62.257999420166016,-19.444000244140625 -62.257999420166016,-19.444000244140625 C-17.582000732421875,-28.729000091552734 24.386999130249023,-25.160999298095703 64.71299743652344,-3.4600000381469727z"></path></g><g opacity="1" transform="matrix(1,0,0,1,70.81600189208984,260.28900146484375)"><path fill="rgb(0,0,0)" fill-opacity="1" d=" M64.68699645996094,-17.493000030517578 C64.68699645996094,-17.493000030517578 62.696998596191406,0.781000018119812 62.696998596191406,0.781000018119812 C62.696998596191406,0.781000018119812 54.512001037597656,1.8049999475479126 54.512001037597656,1.8049999475479126 C54.61000061035156,8.173999786376953 68.75399780273438,5.317999839782715 64.47699737548828,17.815000534057617 C63.35200119018555,21.101999282836914 56.66699981689453,22.554000854492188 53.327999114990234,22.98200035095215 C20.586999893188477,27.183000564575195 -30.013999938964844,19.249000549316406 -59.52199935913086,3.802000045776367 C-66.33300018310547,0.2370000034570694 -68.75399780273438,-0.8429999947547913 -60.994998931884766,-5.776000022888184 C-55.67900085449219,-9.156999588012695 -40.112998962402344,-14.991000175476074 -33.5890007019043,-17.069000244140625 C-1.8339999914169312,-27.183000564575195 32.65599822998047,-25.645000457763672 64.68699645996094,-17.493000030517578z"></path></g><g opacity="1" transform="matrix(1,0,0,1,319.96600341796875,426.58099365234375)"><path fill="rgb(0,0,0)" fill-opacity="1" d=" M37.582000732421875,66.60299682617188 C1.9040000438690186,39.40800094604492 -32.417999267578125,-5.715000152587891 -37.582000732421875,-51.31999969482422 C-37.582000732421875,-51.31999969482422 -26.93199920654297,-53.26300048828125 -26.93199920654297,-53.26300048828125 C-26.93199920654297,-53.26300048828125 -15.371999740600586,-43.361000061035156 -15.371999740600586,-43.361000061035156 C-15.371999740600586,-43.361000061035156 -16.441999435424805,-57.71500015258789 -16.441999435424805,-57.71500015258789 C-4.557000160217285,-65.42500305175781 -2.321000099182129,-66.60299682617188 4.64300012588501,-54.18600082397461 C23.85700035095215,-19.924999237060547 36.676998138427734,27.485000610351562 37.582000732421875,66.60299682617188z"></path></g><g opacity="1" transform="matrix(1,0,0,1,191.70700073242188,428.1510009765625)"><path fill="rgb(0,0,0)" fill-opacity="1" d=" M16.916000366210938,-60.95800018310547 C12.968000411987305,-46.12799835205078 19.54400062561035,-36.4119987487793 25.46299934387207,-54.99399948120117 C25.46299934387207,-54.99399948120117 37.665000915527344,-51.83300018310547 37.665000915527344,-51.83300018310547 C32.64099884033203,-6.184000015258789 -0.5270000100135803,37.638999938964844 -35.78499984741211,65.03299713134766 C-37.66600036621094,19.23699951171875 -18.415000915527344,-24.76300048828125 1.1030000448226929,-65.03399658203125 C1.1030000448226929,-65.03399658203125 16.916000366210938,-60.95800018310547 16.916000366210938,-60.95800018310547z"></path></g><g opacity="1" transform="matrix(1,0,0,1,318.4110107421875,94.37000274658203)"><path fill="rgb(0,0,0)" fill-opacity="1" d=" M39.14699935913086,-65.43000030517578 C37.7140007019043,-34.54800033569336 31.804000854492188,3.2160000801086426 19.143999099731445,31.636999130249023 C13.97599983215332,43.24100112915039 4.525000095367432,67.11499786376953 -9.755000114440918,53.67900085449219 C-15.975000381469727,47.82600021362305 -2.7980000972747803,39.97999954223633 -10.779000282287598,36.38999938964844 C-15.520999908447266,34.25699996948242 -15.833999633789062,47.97200012207031 -19.225000381469727,48.72800064086914 C-19.225000381469727,48.72800064086914 -36.154998779296875,46.49300003051758 -36.154998779296875,46.49300003051758 C-39.14699935913086,43.35599899291992 -26.3799991607666,14.479000091552734 -23.7450008392334,9.126999855041504 C-12.86400032043457,-12.972999572753906 7.849999904632568,-42.814998626708984 26.905000686645508,-58.34299850463867 C28.76799964904785,-59.861000061035156 37.630001068115234,-67.11499786376953 39.14699935913086,-65.43000030517578z"></path></g><g opacity="1" transform="matrix(1,0,0,1,195.59800720214844,90.36399841308594)"><path fill="rgb(0,0,0)" fill-opacity="1" d=" M33.42599868774414,50.362998962402344 C33.42599868774414,50.362998962402344 18.66699981689453,52.74100112915039 18.66699981689453,52.74100112915039 C16.385000228881836,52.220001220703125 14.246999740600586,38.599998474121094 7.166999816894531,40.3849983215332 C7.166999816894531,40.3849983215332 11.23900032043457,56.632999420166016 11.23900032043457,56.632999420166016 C11.23900032043457,56.632999420166016 -2.382999897003174,62.54199981689453 -2.382999897003174,62.54199981689453 C-6.560999870300293,62.922000885009766 -16.926000595092773,43.47700119018555 -19.034000396728516,39.06800079345703 C-32.9370002746582,9.99899959564209 -39.112998962402344,-29.459999084472656 -39.685001373291016,-61.42399978637695 C-38.356998443603516,-62.92100143432617 -28.30699920654297,-54.724998474121094 -26.5049991607666,-53.237998962402344 C-13.017999649047852,-42.099998474121094 -0.09700000286102295,-24.392000198364258 9.237000465393066,-9.555000305175781 C14.607000350952148,-1.0180000066757202 39.68600082397461,42.95100021362305 33.42599868774414,50.362998962402344z"></path></g><g opacity="1" transform="matrix(1,0,0,1,257.9360046386719,443.2619934082031)"><path fill="rgb(0,0,0)" fill-opacity="1" d=" M1.8359999656677246,-47.8120002746582 C1.8359999656677246,-47.8120002746582 4.067999839782715,-63.93299865722656 4.067999839782715,-63.93299865722656 C4.067999839782715,-63.93299865722656 17.131000518798828,-64.1500015258789 17.131000518798828,-64.1500015258789 C25.163999557495117,-21.614999771118164 17.649999618530273,27.351999282836914 -1.190999984741211,66.2040023803711 C-20.408000946044922,31.913999557495117 -25.163999557495117,-13.989999771118164 -22.67799949645996,-52.98699951171875 C-22.527000427246094,-55.347999572753906 -21.0939998626709,-66.2040023803711 -19.44300079345703,-66.18699645996094 C-19.44300079345703,-66.18699645996094 -7.177999973297119,-62.20199966430664 -7.177999973297119,-62.20199966430664 C-7.177999973297119,-62.20199966430664 -5.323999881744385,-49.80099868774414 -5.323999881744385,-49.80099868774414 C-5.323999881744385,-49.80099868774414 1.8359999656677246,-47.8120002746582 1.8359999656677246,-47.8120002746582z"></path></g><g opacity="1" transform="matrix(1,0,0,1,260.39898681640625,251.60000610351562)"><path fill="rgb(0,0,0)" fill-opacity="1" d=" M-17.325000762939453,-95.8290023803711 C-141.83399963378906,-82.46600341796875 -138.9409942626953,111.39399719238281 -3.6630001068115234,111.4540023803711 C141.83399963378906,111.5199966430664 128.89100646972656,-111.5199966430664 -17.325000762939453,-95.8290023803711z M4.460000038146973,101.06199645996094 C-124.51599884033203,110.57499694824219 -134.625,-78.26899719238281 -9.154000282287598,-85.65699768066406 C112.91699981689453,-92.84400177001953 126.82499694824219,92.03700256347656 4.460000038146973,101.06199645996094z"></path></g><g opacity="1" transform="matrix(1,0,0,1,285.4670104980469,260.99798583984375)"><path fill="rgb(0,0,0)" fill-opacity="1" d=" M43.1349983215332,-9.095000267028809 C40.880001068115234,-8.449000358581543 38.23899841308594,-9.579999923706055 35.98500061035156,-9.8100004196167 C32.58399963378906,-10.156999588012695 29.04800033569336,-10.168999671936035 25.663000106811523,-9.619999885559082 C26.38800048828125,-8.27299976348877 26.976999282836914,-6.853000164031982 27.417999267578125,-5.388000011444092 C30.277999877929688,4.104000091552734 18.202999114990234,3.1610000133514404 12.67300033569336,1.1330000162124634 C8.479999542236328,-0.4050000011920929 7.383999824523926,-3.806999921798706 9.189000129699707,-7.861999988555908 C9.303999900817871,-8.119000434875488 9.428000450134277,-8.385000228881836 9.420999526977539,-8.666999816894531 C9.406000137329102,-9.251999855041504 8.83899974822998,-9.670999526977539 8.282999992370605,-9.85200023651123 C7.068999767303467,-10.248000144958496 5.748000144958496,-9.95199966430664 4.514999866485596,-9.619999885559082 C2.2820000648498535,-9.019000053405762 -0.7509999871253967,-8.29699993133545 -2.4230000972747803,-6.576000213623047 C-3.694999933242798,-5.267000198364258 -4.781000137329102,-3.2190001010894775 -5.797999858856201,-1.6950000524520874 C-7.616000175476074,1.0290000438690186 -13.73799991607666,10.385000228881836 -9.965999603271484,13.020999908447266 C-8.77400016784668,13.854000091552734 -7.110000133514404,13.815999984741211 -5.982999801635742,14.736000061035156 C-4.834000110626221,15.673999786376953 -4.583000183105469,17.39900016784668 -5.02400016784668,18.81599998474121 C-5.464000225067139,20.23200035095215 -6.465000152587891,21.399999618530273 -7.498000144958496,22.464000701904297 C-9.251999855041504,24.27199935913086 -9.911999702453613,26.499000549316406 -11.592000007629395,28.229000091552734 C-12.876999855041504,29.551000595092773 -14.467000007629395,30.655000686645508 -16.06100082397461,31.56800079345703 C-19.222999572753906,33.37900161743164 -22.819000244140625,34.45399856567383 -26.461000442504883,34.625999450683594 C-33.922000885009766,34.97800064086914 -40.89899826049805,31.257999420166016 -44.16299819946289,24.43199920654297 C-44.45899963378906,23.812999725341797 -45.89699935913086,18.426000595092773 -46.0359992980957,18.393999099731445 C-36.779998779296875,20.58300018310547 -30.38800048828125,21.472000122070312 -22.07200050354004,15.873000144958496 C-16.625999450683594,-22.562999725341797 -14.159000396728516,-34.979000091552734 28.31599998474121,-30.496000289916992 C34.694000244140625,-29.822999954223633 43.97800064086914,-28.33300018310547 45.64500045776367,-20.83799934387207 C46.0359992980957,-19.079999923706055 45.9379997253418,-17.242000579833984 45.64699935913086,-15.47700023651123 C45.39899826049805,-13.97599983215332 44.97800064086914,-10.380999565124512 43.73099899291992,-9.385000228881836 C43.57099914550781,-9.256999969482422 43.36899948120117,-9.161999702453613 43.1349983215332,-9.095000267028809z"></path></g><g opacity="1" transform="matrix(1,0,0,1,210.17300415039062,245.83799743652344)"><path fill="rgb(0,0,0)" fill-opacity="1" d=" M24.621999740600586,-10.727999687194824 C26.784000396728516,-8.456999778747559 27.267000198364258,-5.604000091552734 26.591999053955078,-2.618000030517578 C26.059999465942383,-0.26600000262260437 25.714000701904297,2.8610000610351562 22.71500015258789,3.003999948501587 C21.295000076293945,3.072000026702881 19.926000595092773,2.5339999198913574 18.538000106811523,2.2200000286102295 C16.391000747680664,1.7350000143051147 14.125,1.7879999876022339 12.003000259399414,2.374000072479248 C8.045999526977539,3.4670000076293945 9.170000076293945,7.929999828338623 7.364999771118164,10.70199966430664 C6.896999835968018,11.420000076293945 6.205999851226807,11.956000328063965 5.5229997634887695,12.472999572753906 C3.9809999465942383,13.640999794006348 2.3959999084472656,14.791000366210938 0.609000027179718,15.529999732971191 C-1.1790000200271606,16.268999099731445 -3.2109999656677246,16.570999145507812 -5.059999942779541,16.000999450683594 C-6.881999969482422,15.4399995803833 -8.387999534606934,14.0649995803833 -9.347999572753906,12.418000221252441 C-10.366000175476074,10.67300033569336 -10.065999984741211,8.52299976348877 -10.873000144958496,6.900000095367432 C-11.642000198364258,5.35099983215332 -13.717000007629395,5.111000061035156 -15.364999771118164,5.0289998054504395 C-17.766000747680664,4.9070000648498535 -20.202999114990234,5.564000129699707 -22.613000869750977,5.6539998054504395 C-23.26099967956543,5.677999973297119 -23.92300033569336,5.684999942779541 -24.542999267578125,5.495999813079834 C-27.06399917602539,4.724999904632568 -26.9950008392334,0.32199999690055847 -27.111000061035156,-1.809000015258789 C-27.267000198364258,-4.677999973297119 -26.76799964904785,-7.548999786376953 -24.738000869750977,-9.71399974822998 C-22.472000122070312,-11.708000183105469 -19.52400016784668,-12.89900016784668 -16.677000045776367,-13.78600025177002 C-9.354999542236328,-16.069000244140625 -1.3630000352859497,-16.57200050354004 6.256999969482422,-16.115999221801758 C11.979999542236328,-15.77299976348877 20.368000030517578,-15.196999549865723 24.621999740600586,-10.727999687194824z"></path></g><g opacity="1" transform="matrix(1,0,0,1,257.9649963378906,317.2760009765625)"><path fill="rgb(0,0,0)" fill-opacity="1" d=" M-19.562000274658203,-5.314000129699707 C-20.16900062561035,-5.309000015258789 -21.725000381469727,-3.5360000133514404 -23.649999618530273,-3.4570000171661377 C-26.92799949645996,-3.322999954223633 -30.485000610351562,-5.190999984741211 -32.106998443603516,-8.071999549865723 C-32.683998107910156,-9.095999717712402 -33.83000183105469,-12.062000274658203 -32.84199905395508,-13.149999618530273 C-31.538999557495117,-14.583999633789062 -29.670000076293945,-12.932999610900879 -28.354000091552734,-12.298999786376953 C-27.641000747680664,-11.956000328063965 -26.82200050354004,-11.923999786376953 -26.0310001373291,-11.930000305175781 C-18.476999282836914,-11.986000061035156 -11.192999839782715,-14.88700008392334 -3.6480000019073486,-15.267000198364258 C1.0420000553131104,-15.503000259399414 5.724999904632568,-14.758999824523926 10.335000038146973,-13.859999656677246 C14.140999794006348,-13.116999626159668 18.048999786376953,-12.265000343322754 21.857999801635742,-12.989999771118164 C23.746999740600586,-13.348999977111816 25.673999786376953,-14.093000411987305 27.53499984741211,-13.607999801635742 C33.82899856567383,-11.968999862670898 26.586000442504883,-7.795000076293945 24.863000869750977,-6.367000102996826 C21.868000030517578,-3.884000062942505 19.479999542236328,-0.7390000224113464 17.059999465942383,2.2799999713897705 C12.319000244140625,8.196000099182129 6.955999851226807,14.878000259399414 -1.2760000228881836,15.196000099182129 C-9.222999572753906,15.503000259399414 -18.256000518798828,10.616000175476074 -20.58099937438965,2.8499999046325684 C-8.217000007629395,5.751999855041504 4.353000164031982,6.320000171661377 15.515999794006348,-0.7329999804496765 C17.597999572753906,-2.0490000247955322 19.076000213623047,-0.5699999928474426 18.121999740600586,-5.314000129699707 C5.585000038146973,-5.236999988555908 -7.004000186920166,-5.419000148773193 -19.562000274658203,-5.314000129699707z"></path></g></g></g></svg>