<svg xmlns="http://www.w3.org/2000/svg" xmlns:xlink="http://www.w3.org/1999/xlink" viewBox="0 0 512 512" width="512" height="512" style="width: 100%; height: 100%; transform: translate3d(0,0,0);" preserveAspectRatio="xMidYMid meet"><defs><clipPath id="__lottie_element_52538"><rect width="512" height="512" x="0" y="0"></rect></clipPath></defs><g clip-path="url(#__lottie_element_52538)"><g style="display: block;" transform="matrix(1,0,0,1,255.32400512695312,255.41400146484375)" opacity="1"><g opacity="1" transform="matrix(1,0,0,1,0,0)"><path fill="rgb(0,0,0)" fill-opacity="1" d=" M-36.76,3.02 C-38.71,3.02 -40.68,2.45 -42.41,1.26 C-46.96,-1.86 -48.12,-8.09 -45,-12.64 C-22.04,-46.1 -11.19,-83.91 -12.75,-125.01 C-13.92,-155.98 -22.09,-177.32 -22.18,-177.53 C-24.18,-182.67 -21.64,-188.47 -16.5,-190.48 C-11.37,-192.49 -5.58,-189.97 -3.56,-184.84 C-3.18,-183.87 5.78,-160.73 7.21,-126.6 C8.52,-95.11 3.39,-47.82 -28.51,-1.33 C-30.45,1.5 -33.58,3.02 -36.76,3.02z M-20.832000732421875,108.47899627685547 C141.41799926757812,144.31900024414062 217.0679931640625,-69.69100189208984 176.25799560546875,-99.5510025024414 C135.447998046875,-129.42100524902344 79.70800018310547,-50.78099822998047 79.70800018310547,-50.78099822998047 C79.70800018310547,-50.78099822998047 69.74800109863281,-21.910999298095703 49.847999572753906,4.959000110626221 C29.937999725341797,31.839000701904297 -10.871999740600586,68.66899871826172 -16.851999282836914,58.70899963378906 C-22.82200050354004,48.75899887084961 14.008000373840332,13.918999671936035 42.87799835205078,-32.861000061035156 C71.73799896240234,-79.6510009765625 61.78799819946289,-170.2310028076172 25.95800018310547,-213.031005859375 C-9.881999969482422,-255.83099365234375 -41.731998443603516,-237.91099548339844 -75.5719985961914,-204.0709991455078 C-109.4219970703125,-170.2310028076172 -166.15199279785156,-100.5510025024414 -151.2220001220703,-10.961000442504883 C-136.29200744628906,78.61900329589844 -56.6619987487793,96.53900146484375 -56.6619987487793,96.53900146484375 C-73.58200073242188,110.46900177001953 -77.56199645996094,130.37899780273438 -77.56199645996094,130.37899780273438 C-77.56199645996094,130.37899780273438 -82.54199981689453,113.45899963378906 -120.37200164794922,89.56900024414062 C-158.19200134277344,65.67900085449219 -208.96200561523438,93.54900360107422 -177.1020050048828,140.32899475097656 C-145.2519989013672,187.11900329589844 -84.53199768066406,189.10899353027344 -84.53199768066406,189.10899353027344 C-66.62200164794922,233.8990020751953 8.038000106811523,253.8090057373047 15.998000144958496,223.94900512695312 C23.968000411987305,194.08900451660156 -19.832000732421875,184.12899780273438 -37.75199890136719,163.22900390625 C-55.672000885009766,142.32899475097656 -20.832000732421875,108.47899627685547 -20.832000732421875,108.47899627685547z"></path><g opacity="1" transform="matrix(1,0,0,1,-19.68199920654297,-94.0770034790039)"></g><g opacity="1" transform="matrix(1,0,0,1,0,0)"></g></g></g></g></svg>