<svg xmlns="http://www.w3.org/2000/svg" xmlns:xlink="http://www.w3.org/1999/xlink" viewBox="0 0 512 512" width="512" height="512" style="width: 100%; height: 100%; transform: translate3d(0,0,0);" preserveAspectRatio="xMidYMid meet"><defs><clipPath id="__lottie_element_53055"><rect width="512" height="512" x="0" y="0"></rect></clipPath></defs><g clip-path="url(#__lottie_element_53055)"><g style="display: block;" transform="matrix(1,0,0,1,256,256)" opacity="1"><g opacity="1" transform="matrix(1,0,0,1,0,0)"><path fill="rgb(0,0,0)" fill-opacity="1" d=" M207.00999450683594,-16.750999450683594 C207.00999450683594,-16.750999450683594 207,-16.750999450683594 207,-16.750999450683594 C206.97999572753906,-16.76099967956543 206.9600067138672,-16.76099967956543 206.94000244140625,-16.770999908447266 C204.92999267578125,-17.42099952697754 174.80999755859375,-27.72100067138672 148.6199951171875,-67.99099731445312 C151,-96.26100158691406 149.7100067138672,-126.78099822998047 144.88999938964844,-153.4409942626953 C138.55999755859375,-188.531005859375 128.0800018310547,-207.74099731445312 113.75,-210.55099487304688 C98.62999725341797,-213.52099609375 80.91000366210938,-201.76100158691406 57.97999954223633,-173.5709991455078 C46.59000015258789,-159.56100463867188 37.150001525878906,-145.37100219726562 32.959999084472656,-138.8509979248047 C22.969999313354492,-139.4510040283203 12.050000190734863,-139.68099975585938 0,-139.68099975585938 C-12.819999694824219,-139.68099975585938 -24.3700008392334,-139.42100524902344 -34.880001068115234,-138.7310028076172 C-39.029998779296875,-145.1909942626953 -48.5099983215332,-159.4709930419922 -59.97999954223633,-173.5709991455078 C-82.91000366210938,-201.76100158691406 -100.62999725341797,-213.52099609375 -115.75,-210.55099487304688 C-130.0800018310547,-207.74099731445312 -140.55999755859375,-188.531005859375 -146.88999938964844,-153.4409942626953 C-151.85000610351562,-125.95099639892578 -153.07000732421875,-94.34100341796875 -150.38999938964844,-65.34100341796875 C-176.13999938964844,-27.26099967956543 -204.97999572753906,-17.410999298095703 -206.94000244140625,-16.770999908447266 C-213.77000427246094,-14.821000099182129 -218.07000732421875,-8.401000022888184 -217.5500030517578,-1.3209999799728394 C-214.41000366210938,41.51900100708008 -185.52999877929688,93.81900024414062 -140.30999755859375,138.57899475097656 C-94.48999786376953,183.9290008544922 -42.040000915527344,210.99899291992188 0,210.99899291992188 C42.040000915527344,210.99899291992188 94.48999786376953,183.9290008544922 140.30999755859375,138.57899475097656 C185.5399932861328,93.81900024414062 214.41000366210938,41.51900100708008 217.5500030517578,-1.3209999799728394 C218.07000732421875,-8.380999565124512 213.8000030517578,-14.781000137329102 207.00999450683594,-16.750999450683594z M-110.5199966430664,-130.81100463867188 C-111.61000061035156,-136.2209930419922 -108.0999984741211,-141.50100708007812 -102.69000244140625,-142.59100341796875 C-97.2699966430664,-143.68099975585938 -92,-140.18099975585938 -90.91000366210938,-134.76100158691406 C-90.91000366210938,-134.76100158691406 -89.37999725341797,-127.1510009765625 -89.37999725341797,-127.1510009765625 C-89.37999725341797,-127.1510009765625 -87.05999755859375,-115.66100311279297 -87.05999755859375,-115.66100311279297 C-86.7699966430664,-114.23100280761719 -86.80000305175781,-112.82099914550781 -87.11000061035156,-111.49099731445312 C-87.94000244140625,-107.76100158691406 -90.9000015258789,-104.69100189208984 -94.87999725341797,-103.88099670410156 C-95.55000305175781,-103.74099731445312 -96.22000122070312,-103.68099975585938 -96.87000274658203,-103.68099975585938 C-97.61000061035156,-103.68099975585938 -98.3499984741211,-103.76100158691406 -99.05000305175781,-103.93099975585938 C-102.77999877929688,-104.76100158691406 -105.86000061035156,-107.72100067138672 -106.66000366210938,-111.70099639892578 C-106.66000366210938,-111.70099639892578 -107.5999984741211,-116.36100006103516 -107.5999984741211,-116.36100006103516 C-107.5999984741211,-116.36100006103516 -110.5199966430664,-130.81100463867188 -110.5199966430664,-130.81100463867188z M-85.19999694824219,11.949000358581543 C-85.19999694824219,0.9089999794960022 -76.25,-8.050999641418457 -65.19999694824219,-8.050999641418457 C-54.15999984741211,-8.050999641418457 -45.20000076293945,0.9089999794960022 -45.20000076293945,11.949000358581543 C-45.20000076293945,11.949000358581543 -45.20000076293945,21.858999252319336 -45.20000076293945,21.858999252319336 C-45.20000076293945,32.89899826049805 -54.15999984741211,41.85900115966797 -65.19999694824219,41.85900115966797 C-76.25,41.85900115966797 -85.19999694824219,32.89899826049805 -85.19999694824219,21.858999252319336 C-85.19999694824219,21.858999252319336 -85.19999694824219,11.949000358581543 -85.19999694824219,11.949000358581543z M-40.18000030517578,133.5989990234375 C-37.709999084472656,124.12899780273438 -19.1299991607666,115.80899810791016 -0.41999998688697815,115.80899810791016 C18.299999237060547,115.80899810791016 36.880001068115234,124.12899780273438 39.349998474121094,133.60899353027344 C39.56999969482422,134.43899536132812 39.68000030517578,135.2989959716797 39.68000030517578,136.1790008544922 C39.68000030517578,141.44900512695312 35.75,147.72900390625 27.110000610351562,156.48899841308594 C20.270000457763672,163.43899536132812 12.039999961853027,170.18899536132812 7.289999961853027,173.5290069580078 C4.989999771118164,175.1490020751953 2.309999942779541,175.94900512695312 -0.3700000047683716,175.94900512695312 C-3.0999999046325684,175.94900512695312 -5.829999923706055,175.11900329589844 -8.149999618530273,173.44900512695312 C-12.899999618530273,170.03900146484375 -21.100000381469727,163.22900390625 -27.8700008392334,156.36900329589844 C-37.9900016784668,146.10899353027344 -41.66999816894531,139.2989959716797 -40.18000030517578,133.5989990234375z M86.83000183105469,21.858999252319336 C86.83000183105469,32.89899826049805 77.87999725341797,41.85900115966797 66.83000183105469,41.85900115966797 C55.790000915527344,41.85900115966797 46.83000183105469,32.89899826049805 46.83000183105469,21.858999252319336 C46.83000183105469,21.858999252319336 46.83000183105469,11.949000358581543 46.83000183105469,11.949000358581543 C46.83000183105469,0.9089999794960022 55.790000915527344,-8.050999641418457 66.83000183105469,-8.050999641418457 C77.87999725341797,-8.050999641418457 86.83000183105469,0.9089999794960022 86.83000183105469,11.949000358581543 C86.83000183105469,11.949000358581543 86.83000183105469,21.858999252319336 86.83000183105469,21.858999252319336z M87.11000061035156,-115.66100311279297 C87.11000061035156,-115.66100311279297 89.41999816894531,-127.13099670410156 89.41999816894531,-127.13099670410156 C89.41999816894531,-127.13099670410156 90.95999908447266,-134.76100158691406 90.95999908447266,-134.76100158691406 C92.05999755859375,-140.18099975585938 97.33000183105469,-143.68099975585938 102.73999786376953,-142.59100341796875 C108.16000366210938,-141.50100708007812 111.66000366210938,-136.2209930419922 110.56999969482422,-130.81100463867188 C110.56999969482422,-130.81100463867188 107.6500015258789,-116.33100128173828 107.6500015258789,-116.33100128173828 C107.6500015258789,-116.33100128173828 106.72000122070312,-111.70099639892578 106.72000122070312,-111.70099639892578 C105.91000366210938,-107.70099639892578 102.80999755859375,-104.74099731445312 99.05999755859375,-103.9209976196289 C98.37000274658203,-103.76100158691406 97.6500015258789,-103.68099975585938 96.91999816894531,-103.68099975585938 C96.2699966430664,-103.68099975585938 95.5999984741211,-103.74099731445312 94.94000244140625,-103.88099670410156 C90.95999908447266,-104.68099975585938 88.01000213623047,-107.74099731445312 87.16999816894531,-111.46099853515625 C86.8499984741211,-112.8010025024414 86.81999969482422,-114.22100067138672 87.11000061035156,-115.66100311279297z"></path></g></g></g></svg>