<svg xmlns="http://www.w3.org/2000/svg" xmlns:xlink="http://www.w3.org/1999/xlink" viewBox="0 0 512 512" width="512" height="512" style="width: 100%; height: 100%; transform: translate3d(0,0,0);" preserveAspectRatio="xMidYMid meet"><defs><clipPath id="__lottie_element_53264"><rect width="512" height="512" x="0" y="0"></rect></clipPath></defs><g clip-path="url(#__lottie_element_53264)"><g style="display: block;" transform="matrix(1,0,0,1,253.21099853515625,261.62298583984375)" opacity="1"><g opacity="1" transform="matrix(1,0,0,1,0,0)"><path fill="rgb(0,0,0)" fill-opacity="1" d=" M-205.80499267578125,-62.388999938964844 C-212.9290008544922,-59.3849983215332 -220.36700439453125,-56.952999114990234 -227.11099243164062,-53.25600051879883 C-240.83200073242188,-45.73500061035156 -254.44200134277344,-53.81700134277344 -251.60000610351562,-72.10800170898438 C-231.54200744628906,-146.7429962158203 -156.45899963378906,-196.52699279785156 -80.66799926757812,-201.91600036621094 C-64.72599792480469,-202.9720001220703 -48.96099853515625,-203.0279998779297 -33.53900146484375,-198.3209991455078 C-29.27899932861328,-197.02099609375 -25.823999404907227,-199.03500366210938 -22.06599998474121,-200.14199829101562 C12.01099967956543,-208.1320037841797 -8.696000099182129,-155.64500427246094 -17.625999450683594,-141.50399780273438 C-27.614999771118164,-124.9010009765625 -34.49399948120117,-105.7969970703125 -32.39899826049805,-86.16300201416016 C-31.12299919128418,-71.79000091552734 -29.541000366210938,-71.16500091552734 -16.04400062561035,-76.177001953125 C-2.3320000171661377,-82.572998046875 15.645000457763672,-81.8489990234375 26.5939998626709,-93.05899810791016 C28.82699966430664,-96.0719985961914 30.18899917602539,-99.52999877929688 27.59000015258789,-102.89199829101562 C22.31599998474121,-107.93399810791016 12.6899995803833,-99.39399719238281 6.704999923706055,-98.125 C-25.709999084472656,-86.98899841308594 -20.51099967956543,-136.7949981689453 -1.180999994277954,-148.2429962158203 C7.2829999923706055,-154.9409942626953 16.61199951171875,-160.2270050048828 26.483999252319336,-164.44900512695312 C43.29800033569336,-171.11199951171875 40.755001068115234,-189.29400634765625 58.32600021362305,-199.85000610351562 C67.2760009765625,-208.03700256347656 79.7969970703125,-201.1999969482422 76.30400085449219,-188.96299743652344 C75.60700225830078,-185.5449981689453 74.49400329589844,-182.13900756835938 75.9540023803711,-177.6750030517578 C84.9260025024414,-183.65899658203125 94.73300170898438,-194.8939971923828 105.55899810791016,-186.92999267578125 C110.98100280761719,-182.48699951171875 110.42400360107422,-176.47999572753906 108.54900360107422,-170.50999450683594 C106.1709976196289,-162.93699645996094 104.08200073242188,-155.33700561523438 102.73600006103516,-147.4669952392578 C100.97699737548828,-137.18299865722656 100.9990005493164,-127.23400115966797 102.61000061035156,-116.80500030517578 C108.03500366210938,-81.67500305175781 95.7490005493164,-52.965999603271484 68.99199676513672,-30.018999099731445 C65.80500030517578,-27.285999298095703 61.15599822998047,-25.849000930786133 59.9119987487793,-20.573999404907227 C106.75800323486328,-9.423999786376953 145.49099731445312,-58.9109992980957 147.99000549316406,-89.49099731445312 C149.12399291992188,-97.00800323486328 150.57000732421875,-104.33599853515625 154.20199584960938,-111.09400177001953 C162.38800048828125,-127.23699951171875 188.21099853515625,-136.75900268554688 190.97900390625,-111.94100189208984 C191.99099731445312,-106.11299896240234 194.4010009765625,-101.56700134277344 198.32699584960938,-97.4229965209961 C242.83099365234375,-57.15700149536133 263.4289855957031,-2.053999900817871 245.5570068359375,56.097999572753906 C236.42300415039062,82.80699920654297 242.18600463867188,113.08699798583984 223.5030059814453,136.50999450683594 C218.47000122070312,143.1840057373047 211.9199981689453,151.72000122070312 202.42599487304688,148.86700439453125 C187.07000732421875,143.8159942626953 197.58599853515625,115.5989990234375 183.97799682617188,104.28399658203125 C180.41799926757812,106.2239990234375 180.30499267578125,110.08699798583984 179.06900024414062,113.16100311279297 C161.12899780273438,157.60699462890625 124.54299926757812,193.02099609375 76.99099731445312,203.08799743652344 C64.83999633789062,205.83799743652344 57.56999969482422,190.94200134277344 67.45500183105469,183.26600646972656 C93.71299743652344,162.6820068359375 122.95800018310547,140.33900451660156 132.76300048828125,106.85600280761719 C127.4729995727539,106.0510025024414 124.5459976196289,109.2239990234375 121.1760025024414,110.89299774169922 C111.0459976196289,115.90899658203125 101.9229965209961,114.5199966430664 93.73899841308594,106.98600006103516 C79.96099853515625,91.23699951171875 64.84700012207031,77.01799774169922 43.733001708984375,72.51300048828125 C33.4010009765625,69.86100006103516 24.19099998474121,70.99500274658203 16.761999130249023,79.78299713134766 C7.173999786376953,92.19200134277344 -10.633000373840332,92.57499694824219 -20.5310001373291,104.63500213623047 C-45.20100021362305,131.2030029296875 8.569999694824219,158.5229949951172 16.179000854492188,130.17100524902344 C11.053999900817871,123.16400146484375 -1.2920000553131104,130.656005859375 3.5380001068115234,111.19100189208984 C6.394999980926514,101.07499694824219 8.72700023651123,88.23200225830078 21.483999252319336,87.40599822998047 C32.6609992980957,86.55400085449219 42.667999267578125,90.23899841308594 49.93600082397461,99.29399871826172 C58.40999984741211,109.19999694824219 41.612998962402344,113.69499969482422 46.560001373291016,123.87300109863281 C60.37099838256836,166.82699584960938 9.666000366210938,197.572998046875 -27.047000885009766,201.13400268554688 C-104.93800354003906,214.77000427246094 -172.20799255371094,114.6240005493164 -100.21600341796875,61.388999938964844 C-94.38500213623047,55.19300079345703 -73.43199920654297,45.17100143432617 -73.74199676513672,37.12799835205078 C-79.59700012207031,29.784000396728516 -99.56600189208984,39.03099822998047 -107.6969985961914,40.35300064086914 C-124.37799835205078,45.013999938964844 -135.64999389648438,32.30799865722656 -137.88699340820312,16.812999725341797 C-140.08900451660156,4.072999954223633 -147.70199584960938,-5.480000019073486 -155.8800048828125,-14.817999839782715 C-159.68299865722656,-19.15999984741211 -162.46299743652344,-17.753000259399414 -165.48800659179688,-14.102999687194824 C-185.66799926757812,7.3470001220703125 -188.3679962158203,35.70100021362305 -187.3990020751953,63.849998474121094 C-197.697998046875,110.85099792480469 -266.5039978027344,32.82899856567383 -205.80499267578125,-62.388999938964844z"></path></g></g></g></svg>