<svg xmlns="http://www.w3.org/2000/svg" xmlns:xlink="http://www.w3.org/1999/xlink" viewBox="0 0 512 512" width="512" height="512" style="width: 100%; height: 100%; transform: translate3d(0,0,0);" preserveAspectRatio="xMidYMid meet"><defs><clipPath id="__lottie_element_52398"><rect width="512" height="512" x="0" y="0"></rect></clipPath></defs><g clip-path="url(#__lottie_element_52398)"><g style="display: block;" transform="matrix(1,0,0,1,256,256)" opacity="1"><g opacity="1" transform="matrix(1,0,0,1,0,0)"><path fill="rgb(0,0,0)" fill-opacity="1" d=" M-44.6619987487793,149.13900756835938 C-98.80799865722656,206.5970001220703 -17.725000381469727,287.7900085449219 39.79999923706055,233.59500122070312 C94.0270004272461,176.09500122070312 12.638999938964844,94.94100189208984 -44.6619987487793,149.13900756835938 M3.069000005722046,184.447998046875 C-13.302000045776367,168.10000610351562 11.892999649047852,143.3560028076172 28.089000701904297,159.60800170898438 C44.38800048828125,175.98300170898438 19.450000762939453,200.66400146484375 3.069000005722046,184.447998046875 M205.8800048828125,-141.49200439453125 C209.92100524902344,-255.48899841308594 61.15299987792969,-283.9549865722656 0.23000000417232513,-201.99600219726562 C-56.983001708984375,-284.3909912109375 -211.55099487304688,-255.11099243164062 -205.41799926757812,-141.49099731445312 C-208.3679962158203,-40.03200149536133 -99.40699768066406,80.88500213623047 0.9380000233650208,102.3010025024414 C96.89800262451172,88.64299774169922 205.75799560546875,-44.74599838256836 205.8800048828125,-141.49200439453125 M146.9709930419922,-189.2209930419922 C157.468994140625,-174.4530029296875 151.2010040283203,-158.71800231933594 132.9530029296875,-156.7519989013672 C115.39800262451172,-153.572998046875 90.59200286865234,-164.64999389648438 80.96399688720703,-179.63999938964844 C61.180999755859375,-209.67999267578125 100.95899963378906,-219.5850067138672 123.72599792480469,-207.3179931640625 C133.8990020751953,-202.82400512695312 141.6479949951172,-196.79100036621094 146.9709930419922,-189.2209930419922 M-96.4729995727539,-183.54299926757812 C-105.20899963378906,-195.36000061035156 -99.90799713134766,-207.50900268554688 -85.29499816894531,-209.27099609375 C-71.51399993896484,-211.59300231933594 -51.547000885009766,-203.01699829101562 -43.77399826049805,-191.17300415039062 C-35.12099838256836,-179.44200134277344 -40.58700180053711,-167.2449951171875 -54.952999114990234,-165.4459991455078 C-68.74400329589844,-163.50799560546875 -88.76699829101562,-171.83799743652344 -96.4729995727539,-183.54299926757812z"></path></g></g></g></svg>