<svg xmlns="http://www.w3.org/2000/svg" xmlns:xlink="http://www.w3.org/1999/xlink" viewBox="0 0 512 512" width="512" height="512" style="width: 100%; height: 100%; transform: translate3d(0,0,0);" preserveAspectRatio="xMidYMid meet"><defs><clipPath id="__lottie_element_53699"><rect width="512" height="512" x="0" y="0"></rect></clipPath></defs><g clip-path="url(#__lottie_element_53699)"><g style="display: block;" transform="matrix(1,0,0,1,256,256)" opacity="1"><g opacity="1" transform="matrix(1,0,0,1,0,0)"><path fill="rgb(0,0,0)" fill-opacity="1" d=" M208.572998046875,180.11300659179688 C205.7429962158203,174.55299377441406 200.0260009765625,171.0959930419922 193.58799743652344,171.18299865722656 C163.54100036621094,171.38499450683594 148.19000244140625,162.53199768066406 131.947998046875,153.1179962158203 C118.25299835205078,145.18099975585938 104.09100341796875,136.9739990234375 83.3239974975586,136.25 C70.87300109863281,135.8159942626953 61.90999984741211,137.98300170898438 55.46200180053711,141.15499877929688 C55.46200180053711,141.15499877929688 22.39299964904785,121.64399719238281 22.39299964904785,121.64399719238281 C43.01499938964844,118.1240005493164 65.35600280761719,113.41500091552734 72.26100158691406,92.66200256347656 C78.74099731445312,73.18499755859375 69.02899932861328,46.76599884033203 42.564998626708984,11.892999649047852 C40.387001037597656,9.02299976348877 38.19200134277344,6.229000091552734 36.012001037597656,3.5250000953674316 C44.54499816894531,5.263000011444092 53.80500030517578,6.1479997634887695 63.7239990234375,6.1479997634887695 C65.82599639892578,6.1479997634887695 67.95899963378906,6.109000205993652 70.11900329589844,6.0289998054504395 C95.47799682617188,5.0970001220703125 115.79199981689453,-0.8820000290870667 116.6449966430664,-1.1360000371932983 C119.98200225830078,-2.13100004196167 122.06600189208984,-5.427999973297119 121.55400085449219,-8.871999740600586 C121.04399871826172,-12.305000305175781 118.08300018310547,-14.843999862670898 114.61599731445312,-14.843999862670898 C114.58999633789062,-14.843999862670898 114.56600189208984,-14.843999862670898 114.53199768066406,-14.843999862670898 C112.53199768066406,-14.843999862670898 79.83000183105469,-15.397000312805176 58.777000427246094,-49.62900161743164 C67.26100158691406,-48.361000061035156 75.01100158691406,-47.25899887084961 81.76699829101562,-46.358001708984375 C92.17500305175781,-44.96900177001953 100.48400115966797,-44.013999938964844 106.46299743652344,-43.518001556396484 C109.13400268554688,-43.29600143432617 111.62699890136719,-43.0890007019043 113.91500091552734,-43.0890007019043 C118.85299682617188,-43.0890007019043 122.83899688720703,-44.053001403808594 125.60600280761719,-47.9109992980957 C127.79199981689453,-50.95800018310547 128.3470001220703,-54.847999572753906 127.12999725341797,-58.582000732421875 C126.30899810791016,-61.10499954223633 123.80799865722656,-68.78399658203125 92.65399932861328,-88.79199981689453 C84.59100341796875,-93.97100067138672 65.37799835205078,-105.7750015258789 46.96799850463867,-113.10199737548828 C47.347999572753906,-141.44400024414062 48.67900085449219,-172.3679962158203 50.448001861572266,-180.5050048828125 C54.93199920654297,-184.5050048828125 69.19200134277344,-195.87100219726562 82.93000030517578,-206.55599975585938 C82.93000030517578,-206.55599975585938 101.03199768066406,-203.4250030517578 101.03199768066406,-203.4250030517578 C106.16300201416016,-202.53199768066406 111.16400146484375,-205.54299926757812 112.79399871826172,-210.48500061035156 C114.4229965209961,-215.42799377441406 112.18499755859375,-220.8179931640625 107.53500366210938,-223.1540069580078 C107.53500366210938,-223.1540069580078 77.8550033569336,-238.06399536132812 77.8550033569336,-238.06399536132812 C75.30500030517578,-239.3459930419922 72.34300231933594,-239.5330047607422 69.6520004272461,-238.58399963378906 C69.6520004272461,-238.58399963378906 3.7799999713897705,-215.3679962158203 3.7799999713897705,-215.3679962158203 C2.9649999141693115,-215.08099365234375 2.187999963760376,-214.69400024414062 1.4670000076293945,-214.21600341796875 C-1.3259999752044678,-212.36399841308594 -7.13700008392334,-208.51100158691406 -31.003999710083008,-170.41600036621094 C-38.67599868774414,-158.1719970703125 -45.79999923706055,-146.22500610351562 -49.61199951171875,-139.76600646972656 C-58.3650016784668,-139.29100036621094 -75.9520034790039,-138.1750030517578 -94.63500213623047,-136.05799865722656 C-144.0399932861328,-130.45799255371094 -156.36500549316406,-122.97200012207031 -161.58299255371094,-117.07599639892578 C-164.6479949951172,-113.61199951171875 -165.52499389648438,-108.98400115966797 -163.9250030517578,-104.69499969482422 C-160.8800048828125,-96.5270004272461 -149.38600158691406,-91.98100280761719 -127.84700012207031,-85.97000122070312 C-114.87000274658203,-82.3489990234375 -98.03600311279297,-78.34500122070312 -77.67500305175781,-74.03500366210938 C-78.16899871826172,-72.92400360107422 -78.65499877929688,-71.79000091552734 -79.12699890136719,-70.64199829101562 C-87.30500030517578,-50.750999450683594 -86.77899932861328,-36.56100082397461 -77.56400299072266,-28.465999603271484 C-73.38800048828125,-24.797000885009766 -67.09100341796875,-21.584999084472656 -59.882999420166016,-18.937000274658203 C-52.707000732421875,-15.513999938964844 -46.909000396728516,-11.13700008392334 -42.215999603271484,-6.4120001792907715 C-47.37099838256836,-2.4690001010894775 -62.16699981689453,4.443999767303467 -93.63500213623047,11.24899959564209 C-119.3740005493164,16.81399917602539 -143.7530059814453,19.663000106811523 -143.99400329589844,19.690000534057617 C-145.5489959716797,19.868999481201172 -147.02000427246094,20.281999588012695 -148.3780059814453,20.88599967956543 C-148.3780059814453,20.88599967956543 -191.54400634765625,-4.581999778747559 -191.54400634765625,-4.581999778747559 C-197.48899841308594,-8.09000015258789 -205.1540069580078,-6.113999843597412 -208.66200256347656,-0.16899999976158142 C-212.1699981689453,5.7769999504089355 -210.1929931640625,13.440999984741211 -204.2469940185547,16.948999404907227 C-204.2469940185547,16.948999404907227 -109.1729965209961,73.04399871826172 -109.1729965209961,73.04399871826172 C-112.88099670410156,77.3010025024414 -115.76100158691406,82.43800354003906 -117.46900177001953,88.69999694824219 C-122.9020004272461,108.61699676513672 -118.10199737548828,129.16099548339844 -103.2040023803711,149.75999450683594 C-90.53399658203125,167.27999877929688 -70.4280014038086,184.86700439453125 -43.444000244140625,202.03599548339844 C-32.44900131225586,209.03199768066406 -26.55500030517578,210.66400146484375 -22.652000427246094,210.66400146484375 C-21.732999801635742,210.66400146484375 -20.924999237060547,210.57400512695312 -20.18600082397461,210.4409942626953 C-16.493000030517578,209.78199768066406 -13.437999725341797,207.1929931640625 -12.163000106811523,203.6649932861328 C-10.888999938964844,200.13699340820312 -11.60099983215332,196.18699645996094 -14.020000457763672,193.32000732421875 C-14.309000015258789,192.9759979248047 -42.73500061035156,158.7949981689453 -24.764999389648438,138.48300170898438 C-21.57900047302246,134.8820037841797 -17.374000549316406,132.18299865722656 -12.550000190734863,130.0540008544922 C-12.550000190734863,130.0540008544922 39.04199981689453,160.49400329589844 39.04199981689453,160.49400329589844 C36.909000396728516,168.97799682617188 38.95199966430664,178.17599487304688 44.952999114990234,186.08200073242188 C51.7400016784668,195.0240020751953 65.0530014038086,205.49099731445312 80.56600189208984,214.08200073242188 C101.64800262451172,225.75799560546875 126.04900360107422,234.08599853515625 153.08799743652344,238.8350067138672 C154.4290008544922,239.07000732421875 155.76699829101562,239.18099975585938 157.10899353027344,239.18099975585938 C177.49200439453125,239.17799377441406 197.5780029296875,213.5050048828125 201.60899353027344,208.05599975585938 C207.4530029296875,200.156005859375 213.52499389648438,189.83999633789062 208.572998046875,180.11300659179688z M-85.94599914550781,40.277000427246094 C-57.60900115966797,34.0620002746582 -38.25,27.207000732421875 -26.260000228881836,18.945999145507812 C-24.805999755859375,22.8700008392334 -23.972000122070312,26.113000869750977 -23.535999298095703,28.118000030517578 C-21.106000900268555,39.275001525878906 -22.6299991607666,46.21099853515625 -23.691999435424805,48.18899917602539 C-28.44499969482422,49.57699966430664 -36.34000015258789,50.356998443603516 -44.67100143432617,51.18000030517578 C-57.277000427246094,52.42499923706055 -72.0459976196289,53.88999938964844 -85.10199737548828,58.22100067138672 C-85.10199737548828,58.22100067138672 -108.12200164794922,44.63800048828125 -108.12200164794922,44.63800048828125 C-101.20500183105469,43.41899871826172 -93.6520004272461,41.96699905395508 -85.94599914550781,40.277000427246094z"></path></g></g></g></svg>