<svg xmlns="http://www.w3.org/2000/svg" xmlns:xlink="http://www.w3.org/1999/xlink" viewBox="0 0 512 512" width="512" height="512" style="width: 100%; height: 100%; transform: translate3d(0,0,0);" preserveAspectRatio="xMidYMid meet"><defs><clipPath id="__lottie_element_15816"><rect width="512" height="512" x="0" y="0"></rect></clipPath></defs><g clip-path="url(#__lottie_element_15816)"><g style="display: block;" transform="matrix(1.0399999618530273,0,0,1.0399999618530273,2.0230560302734375,-2.9048309326171875)" opacity="1"><g opacity="1" transform="matrix(1,0,0,1,240.9239959716797,241.37100219726562)"><path fill="rgb(0,0,0)" fill-opacity="1" d=" M-81.63899993896484,-93.15499877929688 C-65.13999938964844,-165.15199279785156 -24.73699951171875,-212.0989990234375 54.354000091552734,-224.1490020751953 C165.74899291992188,-241.12100219726562 229.08299255371094,-179.78700256347656 233.7949981689453,-128.15499877929688 C234.20599365234375,-123.65399932861328 222.39500427246094,-120.47100067138672 218.34500122070312,-114.15399932861328 C213.36500549316406,-106.38400268554688 219.08299255371094,-85.78700256347656 202.3459930419922,-81.65499877929688 C184.23500061035156,-77.18399810791016 182.21099853515625,-104.4739990234375 169.84800720214844,-103.15499877929688 C152.63699340820312,-101.31700134277344 168.08299255371094,-67.78700256347656 143.81700134277344,-61.01300048828125 C128.00999450683594,-56.60100173950195 118.9739990234375,-81.197998046875 113.35099792480469,-84.65499877929688 C107.25700378417969,-88.40299987792969 99.70700073242188,-85.70800018310547 94.85199737548828,-81.15599822998047 C88.41600036621094,-75.12100219726562 96.4020004272461,-52.19599914550781 82.85199737548828,-49.65700149536133 C60.41600036621094,-45.45399856567383 59.73099899291992,-67.21800231933594 52.854000091552734,-69.15599822998047 C43.180999755859375,-71.88300323486328 -28.750999450683594,-63.17300033569336 -29.142000198364258,-55.65700149536133 C-29.476999282836914,-49.20800018310547 26.416000366210938,-19.121000289916992 39.85499954223633,-21.159000396728516 C45.347999572753906,-21.992000579833984 44.749000549316406,-45.45399856567383 65.85299682617188,-42.15800094604492 C88.20899963378906,-38.66600036621094 76.41600036621094,-8.454000473022461 85.35199737548828,-3.1600000858306885 C92.8740005493164,1.2960000038146973 110.17900085449219,0.5479999780654907 110.85099792480469,0.3400000035762787 C123.08300018310547,-3.4539999961853027 118.50700378417969,-34.76300048828125 146.3489990234375,-31.658000946044922 C175.08299255371094,-28.45400047302246 156.41600036621094,18.878999710083008 177.34800720214844,22.839000701904297 C199.3489990234375,27.000999450683594 197.3419952392578,-16.895999908447266 217.84500122070312,-15.659000396728516 C237.82000732421875,-14.454000473022461 240.6739959716797,19.77899932861328 233.84500122070312,44.8380012512207 C219.98300170898438,95.7020034790039 159.6320037841797,136.7570037841797 49.08300018310547,112.5459976196289 C-31.583999633789062,94.87899780273438 -58.917999267578125,18.211999893188477 -69.13999938964844,21.339000701904297 C-76.84600067138672,23.695999145507812 -70.36499786376953,48.737998962402344 -66.63999938964844,56.83700180053711 C-59.027000427246094,73.39299774169922 -40.917999267578125,77.5459976196289 -45.64099884033203,91.33499908447266 C-47.54899978637695,96.90599822998047 -79.03099822998047,90.58799743652344 -96.58399963378906,60.21200180053711 C-104.7030029296875,46.16400146484375 -103.33100128173828,34.694000244140625 -109.13800048828125,28.33799934387207 C-119.75399780273438,16.719999313354492 -131.58399963378906,68.21199798583984 -88.13899993896484,104.33399963378906 C-61.87300109863281,126.17400360107422 -30.033000946044922,125.81300354003906 5.35699987411499,140.83299255371094 C29.715999603271484,151.17300415039062 37.08300018310547,166.21200561523438 47.354000091552734,171.33099365234375 C58.375,176.82400512695312 95.57599639892578,165.78199768066406 101.35099792480469,176.83099365234375 C105.802001953125,185.3470001220703 95.62699890136719,232.61900329589844 87.85199737548828,235.3280029296875 C75.7490005493164,239.54600524902344 -88.91799926757812,241.12100219726562 -98.63899993896484,235.3280029296875 C-109.06300354003906,229.11599731445312 -125.44300079345703,189.49200439453125 -123.63700103759766,181.33099365234375 C-121.86100006103516,173.30299377441406 -109.26799774169922,177.906005859375 -107.13800048828125,172.33099365234375 C-102.2509994506836,159.54600524902344 -176.91799926757812,150.21200561523438 -184.13400268554688,61.33700180053711 C-189.7449951171875,-7.775000095367432 -137.82899475097656,-41.92900085449219 -140.13600158691406,-47.65700149536133 C-149.58399963378906,-71.12100219726562 -233.31399536132812,-47.757999420166016 -237.63099670410156,-61.65700149536133 C-240.6739959716797,-71.4530029296875 -206.0469970703125,-106.38099670410156 -171.63499450683594,-103.15499877929688 C-131.50599670410156,-99.39299774169922 -128.0469970703125,-72.35800170898438 -123.63700103759766,-76.65599822998047 C-113.58399963378906,-86.4540023803711 -148.8780059814453,-108.74299621582031 -146.13600158691406,-142.6529998779297 C-142.91799926757812,-182.45399475097656 -115.49500274658203,-194.2570037841797 -108.63800048828125,-191.1510009765625 C-101.48500061035156,-187.91000366210938 -107.70099639892578,-147.052001953125 -102.91799926757812,-125.78700256347656 C-101.19000244140625,-118.10800170898438 -84.89099884033203,-78.96499633789062 -81.63899993896484,-93.15499877929688z"></path></g></g></g></svg>