<svg xmlns="http://www.w3.org/2000/svg" xmlns:xlink="http://www.w3.org/1999/xlink" viewBox="0 0 512 512" width="512" height="512" style="width: 100%; height: 100%; transform: translate3d(0,0,0);" preserveAspectRatio="xMidYMid meet"><defs><clipPath id="__lottie_element_53509"><rect width="512" height="512" x="0" y="0"></rect></clipPath></defs><g clip-path="url(#__lottie_element_53509)"><g style="display: block;" transform="matrix(1,0,0,1,0,0)" opacity="1"><g opacity="1" transform="matrix(1,0,0,1,247.77999877929688,371.5)"><path fill="rgb(0,0,0)" fill-opacity="1" d=" M154.781005859375,-33.9010009765625 C130.5330047607422,-46.112998962402344 106.20800018310547,-58.178001403808594 81.71099853515625,-69.8550033569336 C64.90499877929688,-77.86699676513672 44.21799850463867,-88.08999633789062 29.30900001525879,-76.81800079345703 C24.950000762939453,-73.52100372314453 -5.495999813079834,-29.84600067138672 -54.81700134277344,-44.97600173950195 C-80.68299865722656,-52.9109992980957 -92.71600341796875,-79.30599975585938 -92.24700164794922,-106.9729995727539 C-91.78099822998047,-134.5 -92.63600158691406,-131.2050018310547 -114.8239974975586,-135.37399291992188 C-136.77999877929688,-139.5 -141.781005859375,-140.5 -145.24899291992188,-123.46700286865234 C-146.25799560546875,-118.51300048828125 -157.57699584960938,-13.003000259399414 -163.22900390625,46.404998779296875 C-164.58700561523438,60.676998138427734 -158.67300415039062,74.75199890136719 -147.34100341796875,83.53199768066406 C-102.36499786376953,118.37899780273438 13.715999603271484,144.2469940185547 69.94300079345703,134.3800048828125 C82.04900360107422,132.25599670410156 92.41699981689453,124.35700225830078 97.96499633789062,113.15399932861328 C118.69000244140625,71.30899810791016 138.61700439453125,29.045000076293945 159.57200622558594,-12.680000305175781 C164.58700561523438,-22.665000915527344 163.9810028076172,-29.26799964904785 154.781005859375,-33.9010009765625z"></path></g><g opacity="1" transform="matrix(1,0,0,1,227.9029998779297,154.94700622558594)"><path fill="rgb(0,0,0)" fill-opacity="1" d=" M-15.902999877929688,150.3209991455078 C-1.3980000019073486,150.28799438476562 7.377999782562256,136.97799682617188 9.73799991607666,121.37699890136719 C21.05500030517578,46.54499816894531 32.89099884033203,-28.20400047302246 44.29600143432617,-103.02200317382812 C47.91400146484375,-126.75599670410156 26.895999908447266,-150.14999389648438 3.3929998874664307,-150.2899932861328 C-9.668000221252441,-150.36700439453125 -17.92099952697754,-146.24899291992188 -19.990999221801758,-131.93099975585938 C-25.204999923706055,-95.86599731445312 -36.90299987792969,21.054000854492188 -46.904998779296875,125.34600067138672 C-47.91400146484375,135.86099243164062 -36.11399841308594,150.36700439453125 -15.902999877929688,150.3209991455078z"></path></g><g opacity="1" transform="matrix(1,0,0,1,378.5719909667969,160.0590057373047)"><path fill="rgb(0,0,0)" fill-opacity="1" d=" M-34.7130012512207,127.0530014038086 C-21.406999588012695,125.87999725341797 -7.767000198364258,113.75299835205078 -1.24399995803833,97.48400115966797 C21.42799949645996,40.941001892089844 36.30400085449219,-0.8650000095367432 55.06700134277344,-54.04499816894531 C63.99100112915039,-79.33799743652344 56.297000885009766,-99.822998046875 37.66999816894531,-117.1719970703125 C25.219999313354492,-128.76800537109375 14.717000007629395,-128.0050048828125 6.934000015258789,-112.14199829101562 C0.05900000035762787,-98.12799835205078 -42.29999923706055,41.77399826049805 -58.54199981689453,97.0250015258789 C-63.99100112915039,115.55899810791016 -54.167999267578125,128.76800537109375 -34.7130012512207,127.0530014038086z"></path></g><g opacity="1" transform="matrix(1,0,0,1,297.8699951171875,183.2989959716797)"><path fill="rgb(0,0,0)" fill-opacity="1" d=" M-44.303001403808594,81.76799774169922 C-45.2859992980957,87.72599792480469 -41.869998931884766,92.7020034790039 -33.89099884033203,94.87200164794922 C-25.575000762939453,97.13400268554688 -8.017000198364258,88.85900115966797 -1.4049999713897705,83.33000183105469 C4.130000114440918,78.7020034790039 5.5269999504089355,74.02200317382812 6.611000061035156,70.52899932861328 C17.554000854492188,35.2760009765625 28.525999069213867,-9.663999557495117 38.4010009765625,-45.23899841308594 C45.28499984741211,-70.03800201416016 37.89099884033203,-82.96600341796875 14.119999885559082,-92.02400207519531 C0.7099999785423279,-97.13400268554688 -10.706000328063965,-91.6449966430664 -14.333999633789062,-77.48100280761719 C-16.367000579833984,-69.54199981689453 -37.85100173950195,42.67499923706055 -44.303001403808594,81.76799774169922z"></path></g><g opacity="1" transform="matrix(1,0,0,1,144.29600524902344,132.66099548339844)"><path fill="rgb(0,0,0)" fill-opacity="1" d=" M-17.849000930786133,72.3280029296875 C-17.549999237060547,83.71099853515625 -10.498000144958496,90.37799835205078 0.4519999921321869,91.41400146484375 C10.996999740600586,92.41200256347656 20.41200065612793,88.62899780273438 23.007999420166016,77.35399627685547 C27.31599998474121,58.638999938964844 31.704999923706055,-40.6609992980957 30.065000534057617,-67.20099639892578 C28.507999420166016,-92.41200256347656 -31.704999923706055,-64.75199890136719 -27.503000259399414,-35.62099838256836 C-20.295000076293945,14.34000015258789 -18.295000076293945,55.3390007019043 -17.849000930786133,72.3280029296875z"></path></g><g opacity="1" transform="matrix(1,0,0,1,416.24798583984375,261.3609924316406)"><path fill="rgb(0,0,0)" fill-opacity="1" d=" M32.64400100708008,-54.025001525878906 C20.75200080871582,-50.36000061035156 -18.24799919128418,-3.359999895095825 -36.24800109863281,17.639999389648438 C-51.430999755859375,35.354000091552734 -31.77199935913086,58.47700119018555 -14.52400016784668,52.77399826049805 C5.982999801635742,45.992000579833984 32.75199890136719,21.639999389648438 38.53799819946289,13.61400032043457 C51.43199920654297,-4.27400016784668 47.08599853515625,-58.47600173950195 32.64400100708008,-54.025001525878906z"></path></g></g></g></svg>