<svg xmlns="http://www.w3.org/2000/svg" xmlns:xlink="http://www.w3.org/1999/xlink" viewBox="0 0 512 512" width="512" height="512" style="width: 100%; height: 100%; transform: translate3d(0,0,0);" preserveAspectRatio="xMidYMid meet"><defs><clipPath id="__lottie_element_53399"><rect width="512" height="512" x="0" y="0"></rect></clipPath></defs><g clip-path="url(#__lottie_element_53399)"><g style="display: block;" transform="matrix(2.962939977645874,0,0,2.962939977645874,2.8374481201171875,2.8374481201171875)" opacity="1"><g opacity="1" transform="matrix(1,0,0,1,83.98200225830078,87.13400268554688)"><path fill="rgb(0,0,0)" fill-opacity="1" d=" M82.41300201416016,-71.96499633789062 C80.52799987792969,-76.7020034790039 73.54000091552734,-83.43199920654297 65.68699645996094,-83.63500213623047 C63.37699890136719,-83.69400024414062 60.22600173950195,-82.23600006103516 58.667999267578125,-80.52899932861328 C52.402000427246094,-73.66699981689453 46.60499954223633,-66.37699890136719 40.637001037597656,-59.242000579833984 C37.44200134277344,-55.42100143432617 34.24800109863281,-51.5989990234375 31.07200050354004,-47.76100158691406 C29.312000274658203,-45.632999420166016 27.429000854492188,-45.35900115966797 25.010000228881836,-46.8380012512207 C12.5,-54.20800018310547 -38.952999114990234,-63.87799835205078 -68.65299987792969,-22.016000747680664 C-91.0199966430664,9.508999824523926 -80.19599914550781,53.6879997253418 -43.40800094604492,72.04900360107422 C-10.984000205993652,88.23300170898438 30.775999069213867,79.59100341796875 54.94900131225586,52.428001403808594 C71.91999816894531,33.358001708984375 75.29000091552734,1.0019999742507935 59.972999572753906,-19.218000411987305 C57.60200119018555,-22.347999572753906 55.07899856567383,-25.36199951171875 52.21200180053711,-28.860000610351562 C51.03799819946289,-30.29199981689453 51.10599899291992,-32.369998931884766 52.375999450683594,-33.71699905395508 C58.816001892089844,-40.547000885009766 72.802001953125,-53.81999969482422 80.52899932861328,-61.97800064086914 C82.7229995727539,-64.29399871826172 83.98200225830078,-68.02100372314453 82.41300201416016,-71.96499633789062z M37.191001892089844,42.18000030517578 C30.031999588012695,50.90599822998047 18.770999908447266,57.44599914550781 6.796000003814697,53.71500015258789 C4.098999977111816,52.874000549316406 1.4880000352859497,51.750999450683594 -1.1460000276565552,50.715999603271484 C-7.86899995803833,48.07400131225586 -14.630999565124512,47.54999923706055 -21.68899917602539,49.55099868774414 C-25.170000076293945,50.53799819946289 -28.899999618530273,51.10599899291992 -32.513999938964844,51.0880012512207 C-49.042999267578125,51.00400161743164 -59.494998931884766,36.867000579833984 -54.90599822998047,20.993000030517578 C-54.26300048828125,18.767000198364258 -53.382999420166016,16.56100082397461 -52.275001525878906,14.529999732971191 C-50.505001068115234,11.286999702453613 -50.3129997253418,8.468000411987305 -51.62699890136719,4.705999851226807 C-54.66299819946289,-3.9830000400543213 -51,-11.77400016784668 -44.834999084472656,-17.402999877929688 C-39.97999954223633,-21.836999893188477 -33.6619987487793,-25.229000091552734 -27.41200065612793,-27.433000564575195 C-19.81399917602539,-30.111000061035156 -11.635000228881836,-31.215999603271484 -3.6540000438690186,-32.72100067138672 C16.1200008392334,-36.44900131225586 33.04600143432617,-24.875999450683594 37.345001220703125,-4.752999782562256 C37.91699981689453,-2.072000026702881 37.7599983215332,3.984999895095825 37.50400161743164,6.473999977111816 C37.39899826049805,7.493000030517578 37.54499816894531,8.527000427246094 37.965999603271484,9.461999893188477 C38.534000396728516,10.72599983215332 39.20899963378906,11.656999588012695 40.03499984741211,13.20199966430664 C46.33300018310547,24.983999252319336 44.77399826049805,32.9379997253418 37.191001892089844,42.18000030517578z"></path></g><g opacity="1" transform="matrix(1,0,0,1,75.90399932861328,92.70600128173828)"><path fill="rgb(0,0,0)" fill-opacity="1" d=" M16.84000015258789,-18.649999618530273 C-5.823999881744385,-29.301000595092773 -31.964000701904297,-11.468999862670898 -29.312000274658203,5.561999797821045 C-28.71500015258789,9.402000427246094 -27.27400016784668,13.253000259399414 -25.242000579833984,16.45599937438965 C-19.5049991607666,25.49799919128418 -4.690999984741211,29.299999237060547 6.5229997634887695,24.013999938964844 C12.378000259399414,21.253999710083008 17.922000885009766,17.084999084472656 22.45800018310547,12.432000160217285 C31.964000701904297,2.683000087738037 26.847000122070312,-13.946999549865723 16.84000015258789,-18.649999618530273z M0.4790000021457672,-6.4770002365112305 C-3.7909998893737793,-3.049999952316284 -8.3100004196167,0.07999999821186066 -12.83899974822998,3.1670000553131104 C-15.07699966430664,4.691999912261963 -16.218000411987305,3.6029999256134033 -16.33799934387207,1.1230000257492065 C-16.68000030517578,-5.98799991607666 -8.925999641418457,-13.993000030517578 -0.7839999794960022,-13.946999549865723 C0.020999999716877937,-13.942999839782715 3.2320001125335693,-13.612000465393066 3.7860000133514404,-11.491999626159668 C4.295000076293945,-9.545000076293945 1.965000033378601,-7.670000076293945 0.4790000021457672,-6.4770002365112305z"></path></g></g></g></svg>