<svg xmlns="http://www.w3.org/2000/svg" xmlns:xlink="http://www.w3.org/1999/xlink" viewBox="0 0 512 512" width="512" height="512" style="width: 100%; height: 100%; transform: translate3d(0,0,0);" preserveAspectRatio="xMidYMid meet"><defs><clipPath id="__lottie_element_9043"><rect width="512" height="512" x="0" y="0"></rect></clipPath></defs><g clip-path="url(#__lottie_element_9043)"><g style="display: block;" transform="matrix(1.0100734233856201,0.14195656776428223,-0.14195656776428223,1.0100734233856201,33.66944885253906,-22.50091552734375)" opacity="1"><g opacity="1" transform="matrix(1,0,0,1,252.21499633789062,242.75100708007812)"><path fill="rgb(0,0,0)" fill-opacity="1" d=" M-35.20000076293945,-83.59300231933594 C-29.48200035095215,-90.63099670410156 -46.60900115966797,-127.59700012207031 -26.867000579833984,-144.25999450683594 C-16.118999481201172,-153.33200073242188 -14.163000106811523,-221.6479949951172 43.83700180053711,-240.31500244140625 C84.23600006103516,-253.31700134277344 131.77499389648438,-224.94000244140625 143.52999877929688,-193.41400146484375 C148.31199645996094,-180.58900451660156 123.74600219726562,-169.36000061035156 115.36699676513672,-180.83200073242188 C103.01000213623047,-197.75100708007812 81.44200134277344,-207.1580047607422 60.94499969482422,-205.69400024414062 C23.611000061035156,-203.02699279785156 9.447999954223633,-146.77499389648438 15.97599983215332,-138.43899536132812 C35.57699966430664,-113.40699768066406 9.982000350952148,-74.34500122070312 22.30900001525879,-69.77200317382812 C26.145999908447266,-68.3489990234375 58.54899978637695,-86.61699676513672 72.36699676513672,-101.4990005493164 C81.03399658203125,-110.83200073242188 89.99199676513672,-150.1840057373047 104.36699676513672,-149.49899291992188 C118.36699676513672,-148.83200073242188 116.05599975585938,-114.98400115966797 105.78199768066406,-85.29299926757812 C101.70099639892578,-73.4990005493164 142.36700439453125,-91.4990005493164 146.8520050048828,-75.3740005493164 C152.9219970703125,-53.555999755859375 113.59300231933594,-58.19200134277344 110.36699676513672,-44.832000732421875 C105.70099639892578,-25.499000549316406 244.36700439453125,-36.832000732421875 247.7010040283203,-26.166000366210938 C251.96499633789062,-12.522000312805176 186.52499389648438,28.226999282836914 123.85800170898438,17.559999465942383 C77.74800109863281,9.711000442504883 55.42300033569336,-39.51599884033203 40.367000579833984,-26.832000732421875 C26.367000579833984,-15.038000106811523 94.1520004272461,24.020999908447266 90.87799835205078,67.40299987792969 C88.7699966430664,95.33200073242188 75.11100006103516,112.39700317382812 52.367000579833984,110.5009994506836 C20.367000579833984,107.83399963378906 23.70199966430664,85.83399963378906 13.03499984741211,85.83399963378906 C7.276000022888184,85.83399963378906 9.496000289916992,103.96199798583984 19.03499984741211,113.5009994506836 C28.03499984741211,122.5009994506836 37.42599868774414,123.33100128173828 41.03499984741211,129.50100708007812 C43.82899856567383,134.27699279785156 41.88399887084961,150.40699768066406 44.03499984741211,155.16799926757812 C46.59299850463867,160.8260040283203 55.70100021362305,161.83399963378906 56.382999420166016,175.02499389648438 C57.01100158691406,187.17100524902344 45.64099884033203,193.18499755859375 38.03499984741211,192.83399963378906 C29.226999282836914,192.4290008544922 19.367000579833984,186.16799926757812 18.701000213623047,174.16799926757812 C18.297000885009766,166.8939971923828 22.743000030517578,160.7790069580078 24.03499984741211,157.16799926757812 C26.077999114990234,151.45399475097656 25.490999221801758,145.3070068359375 22.014999389648438,141.0500030517578 C19.003999710083008,137.36300659179688 11.50100040435791,135.72999572753906 6.994999885559082,139.6580047607422 C2.010999917984009,144.0030059814453 2.3889999389648438,192.697998046875 4.955999851226807,197.52099609375 C7.955999851226807,203.1580047607422 15.034000396728516,211.16799926757812 14.701000213623047,225.16799926757812 C14.411999702453613,237.27699279785156 6.965000152587891,242.50100708007812 -4.465000152587891,242.50100708007812 C-19.96500015258789,242.50100708007812 -26.298999786376953,233.18800354003906 -26.298999786376953,222.16799926757812 C-26.298999786376953,211.16799926757812 -18.06999969482422,205.67799377441406 -17.298999786376953,201.16799926757812 C-15.241000175476074,189.12100219726562 -19.91200065612793,145.5749969482422 -25.160999298095703,139.4029998779297 C-28.73200035095215,135.2050018310547 -36.422000885009766,131.9239959716797 -37.1609992980957,133.4029998779297 C-40.494998931884766,140.07000732421875 -37.45600128173828,163.71200561523438 -38.96500015258789,170.50100708007812 C-40.29800033569336,176.50100708007812 -29.913000106811523,176.5760040283203 -33.6619987487793,189.64700317382812 C-36.965999603271484,201.16799926757812 -46.41299819946289,206.24099731445312 -57.632999420166016,202.50100708007812 C-73.63300323486328,197.16799926757812 -75.63300323486328,184.50100708007812 -70.62899780273438,174.33099365234375 C-66.55899810791016,166.06100463867188 -61.097999572753906,166.42799377441406 -57.29899978637695,162.83399963378906 C-52.35200119018555,158.1540069580078 -56.63600158691406,135.9239959716797 -59.1609992980957,128.07000732421875 C-61.369998931884766,121.2020034790039 -97.19100189208984,123.75499725341797 -104.41699981689453,81.01100158691406 C-111.73100280761719,37.74599838256836 -87.05599975585938,27.003999710083008 -94.88700103759766,18.893999099731445 C-102.08000183105469,11.444999694824219 -108.96499633789062,25.167999267578125 -144.29800415039062,24.500999450683594 C-170.92100524902344,23.999000549316406 -180.6320037841797,5.834000110626221 -197.96499633789062,8.50100040435791 C-221.6230010986328,12.140999794006348 -226.91400146484375,38.32500076293945 -235.63299560546875,35.83399963378906 C-251.96600341796875,31.167999267578125 -239.01400756835938,-19.54400062561035 -187.63299560546875,-32.832000732421875 C-148.96600341796875,-42.832000732421875 -95.40899658203125,-20.500999450683594 -89.63300323486328,-29.166000366210938 C-84.29900360107422,-37.16600036621094 -126.96499633789062,-49.499000549316406 -136.29800415039062,-132.16600036621094 C-142.12100219726562,-183.73599243164062 -127.36900329589844,-231.94000244140625 -116.10700225830078,-226.3090057373047 C-105.44000244140625,-220.9759979248047 -106.29900360107422,-178.83200073242188 -77.63300323486328,-132.16600036621094 C-73.35099792480469,-125.19599914550781 -43.867000579833984,-72.9260025024414 -35.20000076293945,-83.59300231933594z"></path></g></g></g></svg>