<svg xmlns="http://www.w3.org/2000/svg" xmlns:xlink="http://www.w3.org/1999/xlink" viewBox="0 0 512 512" width="512" height="512" style="width: 100%; height: 100%; transform: translate3d(0,0,0);" preserveAspectRatio="xMidYMid meet"><defs><clipPath id="__lottie_element_52130"><rect width="512" height="512" x="0" y="0"></rect></clipPath></defs><g clip-path="url(#__lottie_element_52130)"><g style="display: block;" transform="matrix(1,0,0,1,0,0)" opacity="1"><g opacity="1" transform="matrix(1,0,0,1,136.26300048828125,225.5780029296875)"><path fill="rgb(0,0,0)" fill-opacity="1" d=" M23.059999465942383,-49.7140007019043 C17.726999282836914,-51.999000549316406 11.935999870300293,-52.448001861572266 6.111000061035156,-51.32099914550781 C-8.890999794006348,-48.41899871826172 -24.134000778198242,-35.064998626708984 -32.45100021362305,-15.656000137329102 C-43.99700164794922,11.291000366210938 -37.88100051879883,39.858001708984375 -18.81800079345703,48.0260009765625 C-8.498000144958496,52.448001861572266 1.7680000066757202,51.606998443603516 11.690999984741211,45.52299880981445 C21.731000900268555,39.36899948120117 30.610000610351562,28.163000106811523 36.691001892089844,13.970000267028809 C42.48099899291992,0.4560000002384186 43.99599838256836,-13.817000389099121 40.95600128173828,-26.22100067138672 C38.1619987487793,-37.62300109863281 31.805999755859375,-45.96699905395508 23.059999465942383,-49.7140007019043z"></path></g><g opacity="1" transform="matrix(1,0,0,1,432.43701171875,182.68899536132812)"><path fill="rgb(0,0,0)" fill-opacity="1" d=" M-14.968000411987305,-39.19200134277344 C-15.852999687194824,-39.0260009765625 -16.718000411987305,-38.779998779296875 -17.562000274658203,-38.44900131225586 C-25.051000595092773,-35.51499938964844 -27.895999908447266,-27.09600067138672 -28.923999786376953,-22.34000015258789 C-30.961999893188477,-12.920000076293945 -29.746000289916992,-1.7660000324249268 -25.500999450683594,9.067000389099121 C-21.256000518798828,19.902000427246094 -14.571999549865723,28.913000106811523 -6.677000045776367,34.44200134277344 C-2.691999912261963,37.23400115966797 5.116000175476074,41.479000091552734 12.602999687194824,38.54499816894531 C24.062000274658203,34.055999755859375 30.961999893188477,17.621000289916992 20.542999267578125,-8.972000122070312 C12.920000076293945,-28.42799949645996 -2.7669999599456787,-41.47999954223633 -14.968000411987305,-39.19200134277344z"></path></g><g opacity="1" transform="matrix(1,0,0,1,322.6650085449219,425.2330017089844)"><path fill="rgb(0,0,0)" fill-opacity="1" d=" M30.611000061035156,-35.80699920654297 C29.398000717163086,-35.88199996948242 28.158000946044922,-35.91999816894531 26.895999908447266,-35.91999816894531 C14.635000228881836,-35.91999816894531 0.19300000369548798,-32.395999908447266 -13.368000030517578,-26.027999877929688 C-28.325000762939453,-19.003999710083008 -41.30500030517578,-8.946000099182129 -48.97999954223633,1.5679999589920044 C-55.43199920654297,10.404999732971191 -57.60499954223633,18.724000930786133 -54.94300079345703,24.39299964904785 C-51.683998107910156,31.333999633789062 -44.40299987792969,35.060001373291016 -33.29999923706055,35.46900177001953 C-20.993999481201172,35.91999816894531 -5.47599983215332,32.06399917602539 10.409000396728516,24.604999542236328 C41.915000915527344,9.8100004196167 57.60499954223633,-13.842000007629395 51.983001708984375,-25.816999435424805 C49.31999969482422,-31.486000061035156 41.529998779296875,-35.12699890136719 30.611000061035156,-35.80699920654297z"></path></g><g opacity="1" transform="matrix(1,0,0,1,254.8520050048828,258.2019958496094)"><path fill="rgb(0,0,0)" fill-opacity="1" d=" M3.0759999752044678,-253.5399932861328 C-23.36199951171875,-253.79800415039062 -48.867000579833984,-249.98199462890625 -72.86699676513672,-242.7050018310547 C-76.93099975585938,-241.47300720214844 -80.68000030517578,-239.3699951171875 -83.88400268554688,-236.58299255371094 C-120.1050033569336,-205.0760040283203 -124.47599792480469,-161.23500061035156 -124.28299713134766,-140.43800354003906 C-124.24500274658203,-136.3979949951172 -129.48599243164062,-134.70799255371094 -131.78900146484375,-138.02699279785156 C-144.89599609375,-156.91600036621094 -147.26699829101562,-183.18699645996094 -146.92599487304688,-202.0590057373047 C-146.89500427246094,-203.72900390625 -148.80299377441406,-204.71600341796875 -150.14300537109375,-203.718994140625 C-213.1320037841797,-156.8699951171875 -253.5709991455078,-81.4020004272461 -252.1909942626953,3.447999954223633 C-249.9320068359375,142.3260040283203 -134.9080047607422,253.8459930419922 3.9769999980926514,252.00999450683594 C141.88800048828125,250.18699645996094 253.1479949951172,137.92799377441406 253.35899353027344,-0.3659999966621399 C253.57200622558594,-139.60000610351562 142.30299377441406,-252.18499755859375 3.0759999752044678,-253.5399932861328z M48.32600021362305,-196.5749969482422 C51.224998474121094,-204.7830047607422 63.426998138427734,-207.95799255371094 75.5790023803711,-203.6649932861328 C87.7300033569336,-199.3719940185547 95.2300033569336,-189.23899841308594 92.33000183105469,-181.02999877929688 C89.43000030517578,-172.82200622558594 77.2300033569336,-169.64700317382812 65.0790023803711,-173.94000244140625 C52.926998138427734,-178.23199462890625 45.42599868774414,-188.36700439453125 48.32600021362305,-196.5749969482422z M53.70800018310547,-76.40699768066406 C58.54100036621094,-76.40699768066406 62.45800018310547,-72.48899841308594 62.45800018310547,-67.65699768066406 C62.45800018310547,-62.82400131225586 58.54100036621094,-58.90599822998047 53.70800018310547,-58.90599822998047 C48.875,-58.90599822998047 44.95600128173828,-62.82400131225586 44.95600128173828,-67.65699768066406 C44.95600128173828,-72.48899841308594 48.875,-76.40699768066406 53.70800018310547,-76.40699768066406z M31.670000076293945,-19.851999282836914 C45.36199951171875,-19.851999282836914 56.4630012512207,-8.751999855041504 56.4630012512207,4.940999984741211 C56.4630012512207,18.632999420166016 45.36199951171875,29.732999801635742 31.670000076293945,29.732999801635742 C17.97599983215332,29.732999801635742 6.876999855041504,18.632999420166016 6.876999855041504,4.940999984741211 C6.876999855041504,-8.751999855041504 17.97599983215332,-19.851999282836914 31.670000076293945,-19.851999282836914z M-25.40999984741211,-186.9320068359375 C-17.437000274658203,-189.16200256347656 -9.668999671936035,-186.30499267578125 -8.0600004196167,-180.55099487304688 C-6.451000213623047,-174.79800415039062 -11.609999656677246,-168.3260040283203 -19.583999633789062,-166.0959930419922 C-27.55699920654297,-163.86599731445312 -35.32500076293945,-166.72300720214844 -36.933998107910156,-172.4759979248047 C-38.542999267578125,-178.22999572753906 -33.38399887084961,-184.70199584960938 -25.40999984741211,-186.9320068359375z M-191.2209930419922,-118.54499816894531 C-188.86399841308594,-124.63999938964844 -183.94500732421875,-128.41700744628906 -180.23300170898438,-126.98100280761719 C-176.52099609375,-125.5459976196289 -175.4239959716797,-119.44100189208984 -177.781005859375,-113.34700012207031 C-180.13800048828125,-107.25199890136719 -185.05599975585938,-103.47599792480469 -188.76800537109375,-104.91100311279297 C-192.47999572753906,-106.34700012207031 -193.5780029296875,-112.45099639892578 -191.2209930419922,-118.54499816894531z M-175.58799743652344,101.06400299072266 C-180.06700134277344,103.38099670410156 -186.7830047607422,99.2979965209961 -190.58700561523438,91.94499969482422 C-194.39199829101562,84.59200286865234 -193.84500122070312,76.75199890136719 -189.36700439453125,74.43499755859375 C-184.88800048828125,72.11699676513672 -178.17300415039062,76.19999694824219 -174.3679962158203,83.55400085449219 C-170.56399536132812,90.90699768066406 -171.11000061035156,98.74600219726562 -175.58799743652344,101.06400299072266z M-87.74299621582031,168.74000549316406 C-92.49099731445312,176.03700256347656 -105.09700012207031,176.25399780273438 -115.89900207519531,169.2259979248047 C-126.70099639892578,162.1959991455078 -131.60800170898438,150.58299255371094 -126.86100006103516,143.28700256347656 C-122.11299896240234,135.99000549316406 -109.50700378417969,135.7729949951172 -98.70500183105469,142.802001953125 C-87.90299987792969,149.8300018310547 -82.99500274658203,161.4429931640625 -87.74299621582031,168.74000549316406z M-57.816001892089844,-32.358001708984375 C-58.98400115966797,-25.184999465942383 -61.060001373291016,-17.993999481201172 -64.0530014038086,-11.008999824523926 C-66.65899658203125,-4.927000045776367 -69.73400115966797,0.7369999885559082 -73.17500305175781,5.906000137329102 C-62.823001861572266,15.08899974822998 -61.20199966430664,27.033000946044922 -60.481998443603516,34.801998138427734 C-60.334999084472656,36.38600158691406 -62.3849983215332,37.10300064086914 -63.29800033569336,35.80099868774414 C-69.91600036621094,26.367000579833984 -77.48300170898438,21.02400016784668 -82.90799713134766,18.132999420166016 C-87.21299743652344,22.631000518798828 -91.85900115966797,26.45199966430664 -96.75199890136719,29.450000762939453 C-99.97000122070312,31.423999786376953 -103.28099822998047,33.025001525878906 -106.6500015258789,34.279998779296875 C-98.4260025024414,44.2130012512207 -97.05899810791016,54.60499954223633 -97.15599822998047,60.85200119018555 C-97.18299865722656,62.61600112915039 -99.48899841308594,63.30500030517578 -100.43900299072266,61.81700134277344 C-108.08399963378906,49.856998443603516 -120.73300170898438,41.388999938964844 -127.47599792480469,37.459999084472656 C-133.38900756835938,37.10900115966797 -139.2969970703125,35.7140007019043 -145.05499267578125,33.24700164794922 C-159.54299926757812,27.040000915527344 -169.87899780273438,14 -174.16099548339844,-3.4690001010894775 C-178.19700622558594,-19.93600082397461 -176.322998046875,-38.566001892089844 -168.88499450683594,-55.92599868774414 C-161.4459991455078,-73.28700256347656 -149.25,-87.49400329589844 -134.54400634765625,-95.93000030517578 C-118.94300079345703,-104.88099670410156 -102.37200164794922,-106.39099884033203 -87.88400268554688,-100.18299865722656 C-85.61100006103516,-99.20899963378906 -83.4540023803711,-98.04900360107422 -81.39299774169922,-96.74800109863281 C-81.39299774169922,-96.74800109863281 -81.31400299072266,-97.02100372314453 -81.31400299072266,-97.02100372314453 C-81.10199737548828,-96.95899963378906 -61.316001892089844,-91.42400360107422 -40.959999084472656,-98.4219970703125 C-39.749000549316406,-98.83799743652344 -38.7859992980957,-97.36299896240234 -39.66600036621094,-96.43299865722656 C-44.16999816894531,-91.6709976196289 -53.28099822998047,-83.73799896240234 -65.96199798583984,-80.97699737548828 C-62.797000885009766,-75.83200073242188 -60.36800003051758,-69.95600128173828 -58.777000427246094,-63.465999603271484 C-57.604000091552734,-58.68299865722656 -56.94599914550781,-53.7140007019043 -56.76300048828125,-48.650001525878906 C-51.516998291015625,-45.63600158691406 -42.20100021362305,-41.6619987487793 -29.367000579833984,-41.52799987792969 C-27.775999069213867,-41.51100158691406 -27.208999633789062,-39.41600036621094 -28.597000122070312,-38.641998291015625 C-35.10599899291992,-35.01100158691406 -45.21900177001953,-29.89699935913086 -57.816001892089844,-32.358001708984375z M86.4739990234375,209.20799255371094 C68.66699981689453,217.57000732421875 51.46699905395508,221.9499969482422 36.52899932861328,221.9499969482422 C35.61000061035156,221.9499969482422 34.70100021362305,221.93499755859375 33.79899978637695,221.9010009765625 C15.381999969482422,221.2220001220703 1.7089999914169312,213.32899475097656 -4.701000213623047,199.67599487304688 C-6.353000164031982,196.15899658203125 -7.291999816894531,192.427001953125 -7.578999996185303,188.55299377441406 C-10.96399974822998,184.09100341796875 -21.597000122070312,171.48199462890625 -37.98699951171875,165.0030059814453 C-39.176998138427734,164.53199768066406 -38.95000076293945,162.78500366210938 -37.676998138427734,162.64999389648438 C-30.503999710083008,161.88999938964844 -16.591999053955078,161.83299255371094 -4.2230000495910645,170.04400634765625 C-2.440000057220459,165.7779998779297 0.00800000037997961,161.45899963378906 3.1530001163482666,157.1510009765625 C6.377999782562256,152.73399353027344 10.236000061035156,148.46600341796875 14.600000381469727,144.4149932861328 C13.383999824523926,140.61500549316406 8.60200023651123,128.50799560546875 -5.368000030517578,118.39199829101562 C-6.6570000648498535,117.45899963378906 -5.908999919891357,115.4209976196289 -4.328000068664551,115.59200286865234 C4.535999774932861,116.5479965209961 18.834999084472656,118.75800323486328 28.04199981689453,133.75900268554688 C33.654998779296875,129.9409942626953 39.74100112915039,126.45999908447266 46.19300079345703,123.43099975585938 C51.457000732421875,120.95899963378906 56.79800033569336,118.87000274658203 62.12799835205078,117.15799713134766 C57.03200149536133,99.4749984741211 65.63600158691406,87.27200317382812 71.23500061035156,80.0719985961914 C72.21199798583984,78.81700134277344 74.19599914550781,79.69499969482422 73.97100067138672,81.2699966430664 C71.65699768066406,97.49400329589844 76.4000015258789,109.00499725341797 78.49800109863281,113.12899780273438 C85.81500244140625,111.88500213623047 92.94100189208984,111.43099975585938 99.62999725341797,111.84700012207031 C102.16699981689453,112.00499725341797 104.5979995727539,112.29399871826172 106.93800354003906,112.68800354003906 C105.31199645996094,96.75900268554688 112.0530014038086,86.13800048828125 116.75199890136719,80.81400299072266 C117.91999816894531,79.48999786376953 120.11799621582031,80.46499633789062 119.8740005493164,82.21399688720703 C117.8280029296875,96.85199737548828 122.36699676513672,112.13700103759766 124.89800262451172,119.16799926757812 C130.4600067138672,122.65399932861328 134.70399475097656,127.28700256347656 137.3679962158203,132.96200561523438 C148.66200256347656,157.01300048828125 126.30599975585938,190.5030059814453 86.4739990234375,209.20799255371094z M206.2010040283203,93.2760009765625 C202.34100341796875,100.60099792480469 195.6230010986328,104.64600372314453 191.19500732421875,102.31199645996094 C186.76699829101562,99.97899627685547 186.30499267578125,92.14900207519531 190.16600036621094,84.8239974975586 C194.0260009765625,77.5 200.7469940185547,73.4540023803711 205.1739959716797,75.78800201416016 C209.6020050048828,78.12200164794922 210.06100463867188,85.95099639892578 206.2010040283203,93.2760009765625z M196.1529998779297,-21.746000289916992 C194.32899475097656,-21.031999588012695 192.46299743652344,-20.49799919128418 190.56700134277344,-20.142000198364258 C190.0959930419922,-20.054000854492188 189.6230010986328,-19.985000610351562 189.1479949951172,-19.917999267578125 C184.07899475097656,-14.909000396728516 174.66299438476562,-4.09499979019165 170.30499267578125,10.675999641418457 C169.9429931640625,11.902999877929688 168.1820068359375,11.833999633789062 167.9340057373047,10.57800006866455 C166.5780029296875,3.7200000286102295 165.3159942626953,-9.501999855041504 171.67599487304688,-22.19300079345703 C168.26499938964844,-23.518999099731445 164.86399841308594,-25.3439998626709 161.5279998779297,-27.68000030517578 C157.39599609375,-30.573999404907227 153.5399932861328,-34.14099884033203 150.0449981689453,-38.233001708984375 C144.72999572753906,-36.025001525878906 135.13499450683594,-30.76099967956543 126.85700225830078,-19.368000030517578 C125.9229965209961,-18.082000732421875 123.88600158691406,-18.83300018310547 124.05899810791016,-20.413000106811523 C124.99800109863281,-28.986000061035156 127.11799621582031,-42.64099884033203 140.84300231933594,-51.834999084472656 C139.3719940185547,-54.604000091552734 138.0330047607422,-57.487998962402344 136.86000061035156,-60.48099899291992 C131.4550018310547,-74.27899932861328 129.968994140625,-88.77899932861328 132.67999267578125,-101.30999755859375 C133.2429962158203,-103.91300201416016 133.9739990234375,-106.3759994506836 134.86000061035156,-108.69100189208984 C119.552001953125,-110.41600036621094 110.71600341796875,-118.80899810791016 106.48500061035156,-124.31700134277344 C105.41000366210938,-125.71700286865234 106.78900146484375,-127.68900299072266 108.45800018310547,-127.11399841308594 C123.18900299072266,-122.04299926757812 140.03599548339844,-124.01499938964844 146.8209991455078,-125.14900207519531 C149.03500366210938,-126.80400085449219 151.4510040283203,-128.16299438476562 154.05799865722656,-129.1840057373047 C175.51300048828125,-137.5850067138672 201.54800415039062,-120.57099914550781 213.35000610351562,-90.44999694824219 C213.35000610351562,-90.44999694824219 213.35000610351562,-90.4489974975586 213.35000610351562,-90.4489974975586 C218.99099731445312,-76.052001953125 220.79100036621094,-62.143001556396484 218.5590057373047,-50.229000091552734 C215.99000549316406,-36.516998291015625 208.0330047607422,-26.400999069213867 196.1529998779297,-21.746000289916992z"></path></g></g></g></svg>