<svg xmlns="http://www.w3.org/2000/svg" xmlns:xlink="http://www.w3.org/1999/xlink" viewBox="0 0 512 512" width="512" height="512" style="width: 100%; height: 100%; transform: translate3d(0,0,0);" preserveAspectRatio="xMidYMid meet"><defs><clipPath id="__lottie_element_53484"><rect width="512" height="512" x="0" y="0"></rect></clipPath></defs><g clip-path="url(#__lottie_element_53484)"><g style="display: block;" transform="matrix(1,0,0,1,0,0)" opacity="1"><g opacity="1" transform="matrix(1,0,0,1,253.3159942626953,256)"><path fill="rgb(0,0,0)" fill-opacity="1" d=" M-233.13600158691406,-14.32699966430664 C-235.96400451660156,-8.434000015258789 -244.83700561523438,-11.001999855041504 -244.08200073242188,-17.493999481201172 C-238.84100341796875,-62.55099868774414 -212.8509979248047,-149.22000122070312 -96.62899780273438,-217.08999633789062 C3.5829999446868896,-275.6109924316406 100.7699966430664,-259.2430114746094 161.0780029296875,-205.7729949951172 C208.4709930419922,-163.7530059814453 234.16200256347656,-98.86599731445312 217.40899658203125,-31.18000030517578 C179.25100708007812,122.98899841308594 44.606998443603516,169.3939971923828 -3.7799999713897705,181.27000427246094 C-5.880000114440918,181.78599548339844 -5.410999774932861,184.8939971923828 -3.253000020980835,184.76499938964844 C42.59400177001953,182.03199768066406 160.91200256347656,170.24000549316406 232.91299438476562,-1.9500000476837158 C235.3719940185547,-7.831999778747559 244.11000061035156,-6.138999938964844 244.20399475097656,0.2370000034570694 C244.83700561523438,43.494998931884766 234.697998046875,131.90499877929688 151.77499389648438,198.38099670410156 C37.779998779296875,289.7650146484375 -103.13500213623047,253.83399963378906 -148.75799560546875,199.322998046875 C-193.65199279785156,145.68299865722656 -190.91700744628906,52.801998138427734 -123.21900177001953,-3.197999954223633 C-118.26499938964844,-7.296000003814697 -110.99600219726562,-2.558000087738037 -112.64600372314453,3.6549999713897705 C-120.16200256347656,31.94499969482422 -127.03800201416016,84.60299682617188 -85.63700103759766,112.64900207519531 C-27.226999282836914,152.2169952392578 83.15399932861328,97.64099884033203 132.93099975585938,-17.36199951171875 C187.57400512695312,-143.60499572753906 58.236000061035156,-258.3240051269531 -111.78500366210938,-103.59100341796875 C-116.4219970703125,-99.37100219726562 -123.70099639892578,-103.84600067138672 -122.05400085449219,-109.89399719238281 C-118.14099884033203,-124.26200103759766 -109.37200164794922,-145.322998046875 -89.7249984741211,-168.0189971923828 C-87.9489974975586,-170.0709991455078 -90.44100189208984,-173.02000427246094 -92.7509994506836,-171.5959930419922 C-121.68399810791016,-153.76600646972656 -189.8719940185547,-104.48300170898438 -233.13600158691406,-14.32699966430664z"></path></g><g opacity="1" transform="matrix(1,0,0,1,264.4599914550781,237.02999877929688)"><path fill="rgb(0,0,0)" fill-opacity="1" d=" M97.69300079345703,-69.03900146484375 C100.05400085449219,-65.10900115966797 105.98999786376953,-66.16899871826172 106.88500213623047,-70.66500091552734 C109.56700134277344,-84.125 105.83599853515625,-104.70099639892578 86.40299987792969,-115.49600219726562 C56.20199966430664,-132.2740020751953 -10.91100025177002,-122.43099975585938 -47.823001861572266,-55.31800079345703 C-77.7040023803711,-0.9900000095367432 -57.55500030517578,33.94200134277344 -34.06999969482422,42.305999755859375 C-30.913000106811523,43.43000030517578 -31.687000274658203,48.46900177001953 -34.483001708984375,50.314998626708984 C-41.624000549316406,55.03300094604492 -54.79100036621094,60.70899963378906 -67.95700073242188,50.72100067138672 C-78.10299682617188,43.02399826049805 -81.31900024414062,30.400999069213867 -82.0719985961914,20.082000732421875 C-82.42900085449219,15.194000244140625 -88.93800354003906,13.722999572753906 -91.37799835205078,17.972999572753906 C-103.45700073242188,39.016998291015625 -109.56700134277344,81.9280014038086 -78.02400207519531,99.04199981689453 C-16.77400016784668,132.2729949951172 53.48699951171875,59.28099822998047 68.28299713134766,30.586999893188477 C88.59700012207031,-8.812000274658203 85.19599914550781,-64.58499908447266 38.39699935913086,-73.0260009765625 C33.77299880981445,-73.86100006103516 34.16400146484375,-78.4229965209961 36.810001373291016,-82.30599975585938 C44.792999267578125,-94.0199966430664 79.4489974975586,-99.41300201416016 97.69300079345703,-69.03900146484375z"></path></g><g opacity="1" transform="matrix(1,0,0,1,165.4810028076172,192.47500610351562)"><path fill="rgb(0,0,0)" fill-opacity="1" d=" M20.099000930786133,0 C20.099000930786133,11.100000381469727 11.10099983215332,20.097999572753906 0.0010000000474974513,20.097999572753906 C-11.098999977111816,20.097999572753906 -20.097999572753906,11.100000381469727 -20.097999572753906,0 C-20.097999572753906,-11.100000381469727 -11.098999977111816,-20.097999572753906 0.0010000000474974513,-20.097999572753906 C11.10099983215332,-20.097999572753906 20.099000930786133,-11.100000381469727 20.099000930786133,0z"></path></g><g opacity="1" transform="matrix(1,0,0,1,203.47999572753906,147.2530059814453)"><path fill="rgb(0,0,0)" fill-opacity="1" d=" M10.677000045776367,0 C10.677000045776367,5.896999835968018 5.895999908447266,10.677000045776367 0,10.677000045776367 C-5.896999835968018,10.677000045776367 -10.677000045776367,5.896999835968018 -10.677000045776367,0 C-10.677000045776367,-5.896999835968018 -5.896999835968018,-10.677000045776367 0,-10.677000045776367 C5.895999908447266,-10.677000045776367 10.677000045776367,-5.896999835968018 10.677000045776367,0z"></path></g><g opacity="1" transform="matrix(1,0,0,1,42.33599853515625,296.4639892578125)"><path fill="rgb(0,0,0)" fill-opacity="1" d=" M13.774999618530273,0 C13.774999618530273,7.60699987411499 7.60699987411499,13.77400016784668 -0.0010000000474974513,13.77400016784668 C-7.607999801635742,13.77400016784668 -13.774999618530273,7.60699987411499 -13.774999618530273,0 C-13.774999618530273,-7.60699987411499 -7.607999801635742,-13.77400016784668 -0.0010000000474974513,-13.77400016784668 C7.60699987411499,-13.77400016784668 13.774999618530273,-7.60699987411499 13.774999618530273,0z"></path></g><g opacity="1" transform="matrix(1,0,0,1,92.21399688720703,219.17300415039062)"><path fill="rgb(0,0,0)" fill-opacity="1" d=" M-3.322000026702881,-43.72200012207031 C-3.322000026702881,-43.72200012207031 -10.831000328063965,-15.291000366210938 -10.831000328063965,-15.291000366210938 C-11.131999969482422,-14.151000022888184 -11.954999923706055,-13.223999977111816 -13.050999641418457,-12.789999961853027 C-13.050999641418457,-12.789999961853027 -33.512001037597656,-4.699999809265137 -33.512001037597656,-4.699999809265137 C-36.61000061035156,-3.4739999771118164 -36.64699935913086,0.8980000019073486 -33.56999969482422,2.174999952316284 C-33.56999969482422,2.174999952316284 -13.467000007629395,10.510000228881836 -13.467000007629395,10.510000228881836 C-12.387999534606934,10.956999778747559 -11.583000183105469,11.88700008392334 -11.293999671936035,13.019000053405762 C-11.293999671936035,13.019000053405762 -3.4779999256134033,43.68000030517578 -3.4779999256134033,43.68000030517578 C-2.553999900817871,47.30500030517578 2.549999952316284,47.43600082397461 3.6570000648498535,43.862998962402344 C3.6570000648498535,43.862998962402344 13.032999992370605,13.618000030517578 13.032999992370605,13.618000030517578 C13.331999778747559,12.652999877929688 14.012999534606934,11.85099983215332 14.916999816894531,11.39900016784668 C14.916999816894531,11.39900016784668 33.82400131225586,1.9459999799728394 33.82400131225586,1.9459999799728394 C36.64699935913086,0.5339999794960022 36.52799987792969,-3.5329999923706055 33.62799835205078,-4.7779998779296875 C33.62799835205078,-4.7779998779296875 15.163000106811523,-12.70199966430664 15.163000106811523,-12.70199966430664 C14.178000450134277,-13.125 13.423999786376953,-13.954999923706055 13.095999717712402,-14.97599983215332 C13.095999717712402,-14.97599983215332 3.7939999103546143,-43.90999984741211 3.7939999103546143,-43.90999984741211 C2.6600000858306885,-47.43600082397461 -2.375999927520752,-47.30400085449219 -3.322000026702881,-43.72200012207031z"></path></g></g></g></svg>