<svg xmlns="http://www.w3.org/2000/svg" xmlns:xlink="http://www.w3.org/1999/xlink" viewBox="0 0 512 512" width="512" height="512" style="width: 100%; height: 100%; transform: translate3d(0,0,0);" preserveAspectRatio="xMidYMid meet"><defs><clipPath id="__lottie_element_52608"><rect width="512" height="512" x="0" y="0"></rect></clipPath></defs><g clip-path="url(#__lottie_element_52608)"><g style="display: block;" transform="matrix(1,0,0,1,0,0)" opacity="1"><g opacity="1" transform="matrix(1,0,0,1,263.8949890136719,259.8349914550781)"><path fill="rgb(0,0,0)" fill-opacity="1" d=" M107.50700378417969,-194.66799926757812 C67.3949966430664,-224.77099609375 39.31999969482422,-226.24000549316406 25.43899917602539,-224.52499389648438 C-44.89500045776367,-215.8350067138672 -74.68399810791016,-152.54400634765625 -90.71299743652344,-141.10000610351562 C-114.8949966430664,-123.83499908447266 -190.89500427246094,-117.83499908447266 -231.66099548339844,-57.04899978637695 C-257.3349914550781,-18.767000198364258 -250.89500427246094,35.165000915527344 -236.20199584960938,68.81700134277344 C-233.02499389648438,76.09200286865234 -209.91200256347656,246.0189971923828 -106.9229965209961,240.29600524902344 C-32.125999450683594,236.13999938964844 -24.613000869750977,120.66600036621094 43.15800094604492,69.47100067138672 C106.49800109863281,21.62299919128418 209.1179962158203,56.731998443603516 234.86000061035156,-24.39699935913086 C262.1400146484375,-110.37100219726562 118.54900360107422,-186.38099670410156 107.50700378417969,-194.66799926757812z M54.025001525878906,-157.0540008544922 C65.26200103759766,-158.63499450683594 75.57499694824219,-151.31199645996094 77.06700134277344,-140.71400451660156 C78.55999755859375,-130.10299682617188 70.66899871826172,-120.21900177001953 59.43199920654297,-118.63700103759766 C48.207000732421875,-117.05699920654297 37.88100051879883,-124.37799835205078 36.38800048828125,-134.98899841308594 C34.895999908447266,-145.58700561523438 42.79999923706055,-155.4739990234375 54.025001525878906,-157.0540008544922z M45.79399871826172,-101.81999969482422 C57.01900100708008,-103.4000015258789 67.33000183105469,-96.08999633789062 68.822998046875,-85.47899627685547 C70.31600189208984,-74.86799621582031 62.42399978637695,-64.99600219726562 51.19900131225586,-63.41600036621094 C39.96200180053711,-61.834999084472656 29.64900016784668,-69.1449966430664 28.1560001373291,-79.75599670410156 C26.663000106811523,-90.36699676513672 34.55699920654297,-100.23799896240234 45.79399871826172,-101.81999969482422z M-0.5860000252723694,-162.17599487304688 C10.651000022888184,-163.7570037841797 20.96500015258789,-156.4340057373047 22.457000732421875,-145.83599853515625 C23.950000762939453,-135.22500610351562 16.058000564575195,-125.33999633789062 4.821000099182129,-123.75900268554688 C-6.4039998054504395,-122.17900085449219 -16.716999053955078,-129.5019989013672 -18.209999084472656,-140.11300659179688 C-19.70199966430664,-150.71099853515625 -11.810999870300293,-160.5959930419922 -0.5860000252723694,-162.17599487304688z M-6.534999847412109,-108.75800323486328 C4.702000141143799,-110.33999633789062 15.015000343322754,-103.01699829101562 16.507999420166016,-92.40599822998047 C18,-81.80799865722656 10.107999801635742,-71.9229965209961 -1.128999948501587,-70.34200286865234 C-12.354000091552734,-68.76200103759766 -22.679000854492188,-76.08300018310547 -24.17099952697754,-86.68099975585938 C-25.663999557495117,-97.29199981689453 -17.760000228881836,-107.1780014038086 -6.534999847412109,-108.75800323486328z M-41.340999603271484,32.444000244140625 C-45.05799865722656,36.81100082397461 -56.814998626708984,47.47100067138672 -60.612998962402344,51.487998962402344 C-56.25600051879883,57.17100143432617 -48.922000885009766,65.5 -44.775001525878906,71.50399780273438 C-36.56100082397461,83.39700317382812 -55.891998291015625,103.15299987792969 -66.97799682617188,94.802001953125 C-73.30799865722656,90.03399658203125 -82.05799865722656,82.51399993896484 -87.23600006103516,77.40299987792969 C-91.43000030517578,81.25299835205078 -98.71800231933594,88.11399841308594 -103.08699798583984,92.06500244140625 C-113.80500030517578,101.75900268554688 -135.76800537109375,81.697998046875 -127.28500366210938,70.71099853515625 C-122.3280029296875,64.29100036621094 -114.36599731445312,55.654998779296875 -109.4489974975586,50.61000061035156 C-112.77200317382812,45.63100051879883 -120.56700134277344,35.334999084472656 -122.84100341796875,30.895999908447266 C-131.90199279785156,13.208999633789062 -103.47100067138672,-4.159999847412109 -94.94300079345703,7.859000205993652 C-92.14800262451172,11.79800033569336 -84.64399719238281,19.791000366210938 -81.51100158691406,23.87299919128418 C-78.09100341796875,21.08799934387207 -68.26300048828125,12.883999824523926 -65.0719985961914,10.157999992370605 C-49.95500183105469,-2.756999969482422 -31.79199981689453,21.226999282836914 -41.340999603271484,32.444000244140625z"></path></g></g></g></svg>