<svg xmlns="http://www.w3.org/2000/svg" xmlns:xlink="http://www.w3.org/1999/xlink" viewBox="0 0 512 512" width="512" height="512" style="width: 100%; height: 100%; transform: translate3d(0,0,0);" preserveAspectRatio="xMidYMid meet"><defs><clipPath id="__lottie_element_53110"><rect width="512" height="512" x="0" y="0"></rect></clipPath></defs><g clip-path="url(#__lottie_element_53110)"><g style="display: block;" transform="matrix(1,0,0,1,252.74400329589844,257.8609924316406)" opacity="1"><g opacity="1" transform="matrix(1,0,0,1,0,0)"><path fill="rgb(0,0,0)" fill-opacity="1" d=" M28.948999404907227,-53.891998291015625 C28.948999404907227,-53.891998291015625 121.52100372314453,-76.78600311279297 163.32699584960938,-153.43099975585938 C204.98899841308594,-229.80999755859375 91.45600128173828,-299.260986328125 0.041999999433755875,-158.875 C-91.37200164794922,-299.260986328125 -204.906005859375,-229.80999755859375 -163.24400329589844,-153.43099975585938 C-121.43800354003906,-76.78600311279297 -28.865999221801758,-53.891998291015625 -28.865999221801758,-53.891998291015625 C-28.865999221801758,-53.891998291015625 -26.211999893188477,-30.00200080871582 -26.211999893188477,-30.00200080871582 C-26.211999893188477,-30.00200080871582 -137.54600524902344,-30.00200080871582 -137.54600524902344,-30.00200080871582 C-162.48399353027344,-30.00200080871582 -181.4720001220703,-7.642000198364258 -177.43299865722656,16.965999603271484 C-177.43299865722656,16.965999603271484 -169.2310028076172,66.93399810791016 -169.2310028076172,66.93399810791016 C-165.98500061035156,86.71099853515625 -148.7429962158203,101.12300109863281 -128.70399475097656,100.8030014038086 C-89.02899932861328,100.16899871826172 -28.363000869750977,99.30899810791016 -17.95599937438965,99.7979965209961 C-7.488999843597412,100.29000091552734 -7.807000160217285,111.21800231933594 -18.18899917602539,112.63200378417969 C-33.23699951171875,114.68099975585938 -120.44200134277344,122.95600128173828 -120.44200134277344,122.95600128173828 C-120.44200134277344,122.95600128173828 -94.98100280761719,222.53599548339844 -94.98100280761719,222.53599548339844 C-92.39199829101562,232.66400146484375 -83.26699829101562,239.7480010986328 -72.81400299072266,239.7480010986328 C-72.81400299072266,239.7480010986328 69.63600158691406,239.7480010986328 69.63600158691406,239.7480010986328 C80.1780014038086,239.7480010986328 89.35600280761719,232.54600524902344 91.86100006103516,222.30499267578125 C91.86100006103516,222.30499267578125 121.43800354003906,101.38899993896484 121.43800354003906,101.38899993896484 C121.43800354003906,101.38899993896484 129.24899291992188,101.38899993896484 129.24899291992188,101.38899993896484 C149.04600524902344,101.38899993896484 165.9290008544922,87.05000305175781 169.13600158691406,67.51499938964844 C169.13600158691406,67.51499938964844 177.43299865722656,16.965999603271484 177.43299865722656,16.965999603271484 C181.4720001220703,-7.642000198364258 162.48399353027344,-30.00200080871582 137.54600524902344,-30.00200080871582 C137.54600524902344,-30.00200080871582 26.875999450683594,-30.00200080871582 26.875999450683594,-30.00200080871582 C26.875999450683594,-30.00200080871582 28.948999404907227,-53.891998291015625 28.948999404907227,-53.891998291015625z"></path></g></g></g></svg>