<svg xmlns="http://www.w3.org/2000/svg" xmlns:xlink="http://www.w3.org/1999/xlink" viewBox="0 0 512 512" width="512" height="512" style="width: 100%; height: 100%; transform: translate3d(0,0,0);" preserveAspectRatio="xMidYMid meet"><defs><clipPath id="__lottie_element_51370"><rect width="512" height="512" x="0" y="0"></rect></clipPath></defs><g clip-path="url(#__lottie_element_51370)"><g style="display: block;" transform="matrix(1,0,0,1,0,0)" opacity="1"><g opacity="1" transform="matrix(1,0,0,1,255.8000030517578,256.5)"><path fill="rgb(0,0,0)" fill-opacity="1" d=" M224.88999938964844,-21.43000030517578 C214.80999755859375,-34.029998779296875 180.92999267578125,-32.959999084472656 181.1999969482422,-39.5 C182.1999969482422,-63.5 175.6699981689453,-86.5 164.1999969482422,-105.5 C159.44000244140625,-113.38999938964844 181.8800048828125,-123.12000274658203 185.1999969482422,-133.5 C194.0500030517578,-161.1300048828125 117.19999694824219,-205.5 100.19999694824219,-198.5 C86.80000305175781,-192.97999572753906 83.94000244140625,-164.63999938964844 75.19999694824219,-169.5 C65.98999786376953,-174.6199951171875 38.20000076293945,-181.5 27.200000762939453,-181.5 C18.200000762939453,-181.5 20.209999084472656,-220.44000244140625 10.199999809265137,-227.5 C-6.800000190734863,-239.5 -98.80000305175781,-213.5 -99.80000305175781,-197.5 C-100.98999786376953,-178.4199981689453 -76.06999969482422,-149.72000122070312 -83.80000305175781,-145.5 C-94.80000305175781,-139.5 -110.23999786376953,-121.5999984741211 -120.80000305175781,-114.5 C-126.80999755859375,-110.45999908447266 -158.8000030517578,-139.5 -178.8000030517578,-133.5 C-201.57000732421875,-126.66999816894531 -236.88999938964844,-37.400001525878906 -223.8000030517578,-25.5 C-212.8000030517578,-15.5 -166.8000030517578,-17 -165.8000030517578,-11.5 C-164.71200561523438,-5.514999866485596 -158.3000030517578,36.5 -153.8000030517578,46.5 C-152.23699951171875,49.97200012207031 -209.8000030517578,77.5 -217.8000030517578,101.5 C-224.16400146484375,120.59100341796875 -158.8000030517578,194.5 -126.80000305175781,185.5 C-110.66300201416016,180.96200561523438 -74.5,127.86000061035156 -68.26000213623047,133.69000244140625 C-61.06999969482422,140.41000366210938 -31.799999237060547,152.5 -17.799999237060547,150.5 C-11.470000267028809,149.5989990234375 -23.68000030517578,200.1999969482422 -14.800000190734863,210.5 C10.199999809265137,239.5 90.19999694824219,233.5 106.19999694824219,206.5 C121.94999694824219,179.9290008544922 100.21900177001953,130.14999389648438 110.19999694824219,123.5 C131.1999969482422,109.5 157.1999969482422,86.5 165.1999969482422,63.5 C168.32000732421875,54.540000915527344 186.9499969482422,74.4000015258789 199.1999969482422,69.5 C219.1999969482422,61.5 236.88999938964844,-6.429999828338623 224.88999938964844,-21.43000030517578z M96.48999786376953,32.95000076293945 C64.12999725341797,67.80899810791016 6.550000190734863,66.97000122070312 -32.11000061035156,31.06999969482422 C-70.77999877929688,-4.829999923706055 -75.87000274658203,-61.16999816894531 -43.5,-96.02999877929688 C-11.140000343322754,-130.88999938964844 46.41999816894531,-131.05999755859375 85.08999633789062,-95.16000366210938 C123.75,-59.2599983215332 128.86000061035156,-1.899999976158142 96.48999786376953,32.95000076293945z"></path></g><g opacity="1" transform="matrix(1,0,0,1,295.0679931640625,209.77000427246094)"><path fill="rgb(0,0,0)" fill-opacity="1" d=" M-65.06800079345703,-36.77000045776367 C-63.768001556396484,-44.98099899291992 -13.067999839782715,-68.7699966430664 34.93199920654297,-22.770000457763672 C66.02799987792969,7.03000020980835 44.16400146484375,67.5770034790039 34.93199920654297,68.2300033569336 C27.29599952697754,68.7699966430664 31.93199920654297,30.229999542236328 -1.0679999589920044,-0.7699999809265137 C-26.524999618530273,-24.68400001525879 -66.02799987792969,-30.701000213623047 -65.06800079345703,-36.77000045776367z"></path></g></g></g></svg>