<svg xmlns="http://www.w3.org/2000/svg" xmlns:xlink="http://www.w3.org/1999/xlink" viewBox="0 0 512 512" width="512" height="512" style="width: 100%; height: 100%; transform: translate3d(0,0,0);" preserveAspectRatio="xMidYMid meet"><defs><clipPath id="__lottie_element_51465"><rect width="512" height="512" x="0" y="0"></rect></clipPath></defs><g clip-path="url(#__lottie_element_51465)"><g style="display: block;" transform="matrix(1,0,0,1,256.1199951171875,264.2330017089844)" opacity="1"><g opacity="1" transform="matrix(1,0,0,1,0,0)"><path fill="rgb(0,0,0)" fill-opacity="1" d=" M-177.5540008544922,-205.4340057373047 C-136.05599975585938,-201.73899841308594 -133.75,-262.8399963378906 -80.84400177001953,-222.6649932861328 C-37.31399917602539,-196.1790008544922 -13.190999984741211,-264.1050109863281 25.658000946044922,-210.38099670410156 C57.207000732421875,-183.46600341796875 90.27400207519531,-235.65699768066406 108.29199981689453,-177.18800354003906 C115.88899993896484,-157.76800537109375 146.19000244140625,-155.1959991455078 155.0469970703125,-153.05999755859375 C184.59100341796875,-142.0240020751953 151.5229949951172,-110.8550033569336 210.57200622558594,-93.90599822998047 C232.30799865722656,-81.64299774169922 207.875,-49.073001861572266 222.98300170898438,-34.4010009765625 C232.46299743652344,-23.945999145507812 249.64999389648438,-16.493999481201172 241.05599975585938,0.3709999918937683 C213.3419952392578,39.20199966430664 271.4289855957031,62.775001525878906 243.7209930419922,93.65899658203125 C233.75,103.83599853515625 230.66000366210938,113.02200317382812 233.26600646972656,120.54900360107422 C254.1929931640625,180.9949951171875 241.8350067138672,151.0679931640625 221.1999969482422,193.6909942626953 C217.95199584960938,205.13499450683594 111.28900146484375,178.68600463867188 88.48300170898438,178.09300231933594 C74.83399963378906,175.927001953125 74.83300018310547,175.68699645996094 73.26599884033203,161.7570037841797 C69.4990005493164,128.27999877929688 60.86199951171875,96.49600219726562 42.04999923706055,67.90599822998047 C14.182999610900879,8.197999954223633 -119.197998046875,-23.051000595092773 -88.44999694824219,6.2820000648498535 C-62.145999908447266,14.038999557495117 -34.24599838256836,28.301000595092773 -15.937000274658203,49.095001220703125 C11.258999824523926,79.30699920654297 23.774999618530273,112.16500091552734 31.128000259399414,152.20799255371094 C34.12699890136719,168.53900146484375 32.81700134277344,169.61900329589844 16.753999710083008,167.21400451660156 C-10.6850004196167,163.10499572753906 -68.74400329589844,154.6790008544922 -70.32499694824219,154.59300231933594 C-78.14199829101562,154.1699981689453 -78.89700317382812,155 -76.53199768066406,162.39199829101562 C-73.27100372314453,172.58799743652344 -62.507999420166016,205.84100341796875 -61.604000091552734,212.4720001220703 C-60.22200012207031,222.61199951171875 -64.0530014038086,228.5030059814453 -73.63999938964844,231.44500732421875 C-124.62000274658203,247.08799743652344 -175.89100646972656,224.73599243164062 -197.3159942626953,178.0850067138672 C-225.23699951171875,116.65799713134766 -173.06700134277344,128.83700561523438 -139.79800415039062,125.39900207519531 C-129.85299682617188,124.96399688720703 -129.3699951171875,124.28099822998047 -133.86399841308594,115.0510025024414 C-169.12600708007812,42.62699890136719 -243.47900390625,-148.75799560546875 -251.02499389648438,-169.63499450683594 C-255.2779998779297,-198.25 -225.26100158691406,-214.40199279785156 -177.5540008544922,-205.4340057373047z"></path></g></g></g></svg>