<svg xmlns="http://www.w3.org/2000/svg" xmlns:xlink="http://www.w3.org/1999/xlink" viewBox="0 0 512 512" width="512" height="512" style="width: 100%; height: 100%; transform: translate3d(0,0,0);" preserveAspectRatio="xMidYMid meet"><defs><clipPath id="__lottie_element_53105"><rect width="512" height="512" x="0" y="0"></rect></clipPath></defs><g clip-path="url(#__lottie_element_53105)"><g style="display: block;" transform="matrix(1,0,0,1,256,256)" opacity="1"><g opacity="1" transform="matrix(1,0,0,1,0,0)"><path fill="rgb(0,0,0)" fill-opacity="1" d=" M-0.02500000037252903,3.680999994277954 C9.748000144958496,3.5799999237060547 11.10200023651123,17.836999893188477 1.5190000534057617,19.601999282836914 C-61.78200149536133,31.316999435424805 -126.302001953125,32.1510009765625 -183.94200134277344,24.16699981689453 C-191.656005859375,23.099000930786133 -196.20799255371094,32.529998779296875 -190.5570068359375,37.88800048828125 C-190.5570068359375,37.88800048828125 10.199999809265137,228.24099731445312 10.199999809265137,228.24099731445312 C17.28499984741211,234.95899963378906 28.68199920654297,233.82000732421875 34.297000885009766,225.83299255371094 C34.297000885009766,225.83299255371094 234.60299682617188,-59.064998626708984 234.60299682617188,-59.064998626708984 C238.18899536132812,-64.16600036621094 238.48599243164062,-70.88600158691406 235.36199951171875,-76.28299713134766 C235.36199951171875,-76.28299713134766 180.4040069580078,-171.23899841308594 180.4040069580078,-171.23899841308594 C177.2030029296875,-176.77000427246094 172.41900634765625,-181.21600341796875 166.66900634765625,-184.00399780273438 C166.66900634765625,-184.00399780273438 64.38300323486328,-233.5959930419922 64.38300323486328,-233.5959930419922 C59.060001373291016,-236.177001953125 53.125999450683594,-237.2310028076172 47.2400016784668,-236.64300537109375 C47.2400016784668,-236.64300537109375 -92.15599822998047,-222.71299743652344 -92.15599822998047,-222.71299743652344 C-97.71099853515625,-222.1580047607422 -103.02400207519531,-220.15899658203125 -107.56700134277344,-216.91600036621094 C-107.56700134277344,-216.91600036621094 -200.41900634765625,-150.62899780273438 -200.41900634765625,-150.62899780273438 C-205.9949951171875,-146.6479949951172 -210.14599609375,-140.98399353027344 -212.26199340820312,-134.46800231933594 C-212.26199340820312,-134.46800231933594 -238.36599731445312,-54.07699966430664 -238.36599731445312,-54.07699966430664 C-239.6739959716797,-50.04899978637695 -237.6219940185547,-45.702999114990234 -233.67799377441406,-44.159000396728516 C-185.40699768066406,-25.264999389648438 -112.25700378417969,4.849999904632568 -0.02500000037252903,3.680999994277954z M86.62300109863281,-102.24500274658203 C97.375,-120.60800170898438 89.00599670410156,-156.4530029296875 97.71800231933594,-158.72999572753906 C106.43000030517578,-161.0070037841797 116.6709976196289,-125.6510009765625 135.03399658203125,-114.89900207519531 C153.39700317382812,-104.14700317382812 189.24200439453125,-112.51599884033203 191.5189971923828,-103.80400085449219 C193.79600524902344,-95.09200286865234 158.4409942626953,-84.85099792480469 147.68899536132812,-66.48799896240234 C136.93699645996094,-48.125 145.30599975585938,-12.279999732971191 136.593994140625,-10.003000259399414 C127.88200378417969,-7.72599983215332 117.63999938964844,-43.082000732421875 99.2770004272461,-53.83399963378906 C80.91400146484375,-64.58599853515625 45.069000244140625,-56.21699905395508 42.79199981689453,-64.92900085449219 C40.51499938964844,-73.64099884033203 75.87100219726562,-83.88200378417969 86.62300109863281,-102.24500274658203z"></path></g></g></g></svg>