<svg xmlns="http://www.w3.org/2000/svg" xmlns:xlink="http://www.w3.org/1999/xlink" viewBox="0 0 512 512" width="512" height="512" style="width: 100%; height: 100%; transform: translate3d(0,0,0);" preserveAspectRatio="xMidYMid meet"><defs><clipPath id="__lottie_element_51270"><rect width="512" height="512" x="0" y="0"></rect></clipPath></defs><g clip-path="url(#__lottie_element_51270)"><g style="display: block;" transform="matrix(1,0,0,1,0,0)" opacity="1"><g opacity="1" transform="matrix(1,0,0,1,127,79.78399658203125)"><path fill="rgb(0,0,0)" fill-opacity="1" d=" M-54,56.215999603271484 C-118,20.215999603271484 -86.64399719238281,-58.784000396728516 -8,-58.784000396728516 C27,-58.784000396728516 38.91699981689453,-32.52199935913086 52,-28.784000396728516 C80,-20.784000396728516 91.33899688720703,-49.67300033569336 97,-45.784000396728516 C107.2020034790039,-38.775001525878906 118,39.215999603271484 37,46.215999603271484 C5.11899995803833,48.97100067138672 -10,28.215999603271484 -28,35.215999603271484 C-48.39899826049805,43.14899826049805 -49.435001373291016,58.784000396728516 -54,56.215999603271484z"></path></g><g opacity="1" transform="matrix(1,0,0,1,264.1669921875,310.12200927734375)"><path fill="rgb(0,0,0)" fill-opacity="1" d=" M-224.16700744628906,-169.1219940185547 C-205.2949981689453,-168.37100219726562 -168.9709930419922,-150.38400268554688 -158.16700744628906,-142.1219940185547 C-141.16700744628906,-129.1219940185547 -115.02300262451172,-86.4520034790039 -82.16699981689453,-75.12200164794922 C-53.16699981689453,-65.12200164794922 -32.930999755859375,-78.31400299072266 -30.16699981689453,-73.12200164794922 C-17.076000213623047,-48.53300094604492 19.381999969482422,-19.356000900268555 59.83300018310547,-14.121999740600586 C144.83299255371094,-3.121999979019165 162.1009979248047,-41.819000244140625 169.83299255371094,-42.12200164794922 C220.83299255371094,-44.12200164794922 243.16700744628906,26.017000198364258 218.83299255371094,71.87799835205078 C166.83299255371094,169.8780059814453 55.69200134277344,142.95399475097656 75.83300018310547,135.8780059814453 C112.83300018310547,122.87799835205078 201.83299255371094,63.87799835205078 169.83299255371094,0.878000020980835 C165.83099365234375,-7.000999927520752 134.83299255371094,20.878000259399414 136.83299255371094,29.878000259399414 C141.7469940185547,51.98899841308594 115.83300018310547,124.87799835205078 33.83300018310547,130.8780059814453 C-12.432999610900879,134.26400756835938 -91.16699981689453,99.87799835205078 -116.16699981689453,60.87799835205078 C-144.15699768066406,17.21299934387207 -161.58200073242188,-23.65999984741211 -174.16700744628906,-58.12200164794922 C-180.97999572753906,-76.7770004272461 -197.08599853515625,-110.5250015258789 -226.24099731445312,-128.01800537109375 C-236.24099731445312,-134.01800537109375 -243.16700744628906,-169.87899780273438 -224.16700744628906,-169.1219940185547z"></path></g><g opacity="1" transform="matrix(1,0,0,1,323.30499267578125,213.96299743652344)"><path fill="rgb(0,0,0)" fill-opacity="1" d=" M-82.30500030517578,-23.96299934387207 C-82.30500030517578,33.790000915527344 8.70300006866455,82.9469985961914 67.69499969482422,55.0369987487793 C82.30400085449219,48.125 56.90599822998047,-7.396999835968018 49.69499969482422,-3.9630000591278076 C7.695000171661377,16.03700065612793 -9.961999893188477,-5.965000152587891 -11.305000305175781,-15.963000297546387 C-11.315999984741211,-16.042999267578125 18.69499969482422,0.03700000047683716 42.69499969482422,-27.96299934387207 C56.56800079345703,-44.14899826049805 48.17399978637695,-71.9749984741211 42.69499969482422,-76.96299743652344 C36.12099838256836,-82.947998046875 -0.3050000071525574,-72.9749984741211 -5.304999828338623,-40.9630012512207 C-6.103000164031982,-35.856998443603516 -16.913000106811523,-30.750999450683594 -25.027999877929688,-33.231998443603516 C-42.15999984741211,-38.47200012207031 -82.30500030517578,-36.9630012512207 -82.30500030517578,-23.96299934387207z"></path></g><g opacity="1" transform="matrix(1,0,0,1,203.17599487304688,438.59600830078125)"><path fill="rgb(0,0,0)" fill-opacity="1" d=" M-72.1760025024414,-53.59600067138672 C-31.176000595092773,-4.5960001945495605 30.823999404907227,19.158000946044922 85.8239974975586,20.40399932861328 C107.62799835205078,20.898000717163086 111.66799926757812,48.90999984741211 103.8239974975586,50.40399932861328 C40.82400131225586,62.40399932861328 -71.1760025024414,27.40399932861328 -106.1760025024414,-42.59600067138672 C-111.66799926757812,-53.58000183105469 -79.54499816894531,-62.40299987792969 -72.1760025024414,-53.59600067138672z"></path></g></g></g></svg>