<svg xmlns="http://www.w3.org/2000/svg" xmlns:xlink="http://www.w3.org/1999/xlink" viewBox="0 0 512 512" width="512" height="512" style="width: 100%; height: 100%; transform: translate3d(0,0,0);" preserveAspectRatio="xMidYMid meet"><defs><clipPath id="__lottie_element_15711"><rect width="512" height="512" x="0" y="0"></rect></clipPath></defs><g clip-path="url(#__lottie_element_15711)"><g style="display: block;" transform="matrix(1,0,0,1,19.201995849609375,19.4580078125)" opacity="1"><g opacity="1" transform="matrix(1,0,0,1,230.2760009765625,241.87100219726562)"><path fill="rgb(0,0,0)" fill-opacity="1" d=" M-144.41799926757812,71.64299774169922 C-132.96800231933594,65.66699981689453 -150.06199645996094,49.17900085449219 -135.74000549316406,20.041000366210938 C-121.2229995727539,-9.493000030517578 -97.35600280761719,-20.898000717163086 -70.46099853515625,-75.22000122070312 C-30.70400047302246,-155.52000427246094 -39.125999450683594,-246.19700622558594 -15.467000007629395,-234.8159942626953 C25.683000564575195,-215.02099609375 -12.177000045776367,-97.7020034790039 -2.6559998989105225,-90.62999725341797 C9.46500015258789,-81.6259994506836 31.333999633789062,-99.92400360107422 62.07600021362305,-79.1050033569336 C92.48400115966797,-58.512001037597656 88.76599884033203,-26.165000915527344 107.14299774169922,-28.80299949645996 C123.21199798583984,-31.110000610351562 119.12300109863281,-72.78600311279297 86.96499633789062,-96.87000274658203 C64.14600372314453,-113.95999908447266 48.21900177001953,-110.0999984741211 37.499000549316406,-125.09300231933594 C13.005999565124512,-159.35000610351562 70.22200012207031,-254.3090057373047 91.98699951171875,-246.4550018310547 C123.25299835205078,-235.17300415039062 91.5530014038086,-134.93800354003906 128.8489990234375,-121.802001953125 C203.9219970703125,-95.36199951171875 258.2120056152344,-68.73699951171875 252.20199584960938,-57.50899887084961 C239.76800537109375,-34.27899932861328 170.2570037841797,-42.90599822998047 162.76800537109375,-35.316001892089844 C148.91900634765625,-21.280000686645508 217.42799377441406,-33.9109992980957 207.72500610351562,26.67099952697754 C204.93600463867188,44.0880012512207 143.77099609375,0.9629999995231628 96.75299835205078,15.265999794006348 C33.47700119018555,34.513999938964844 1.7899999618530273,89.76599884033203 -45.4379997253418,107.89900207519531 C-74.16899871826172,118.93000030517578 -80.2969970703125,105.12100219726562 -84.0790023803711,114.81300354003906 C-88.7040023803711,126.66400146484375 -63.013999938964844,133.51800537109375 -66.69200134277344,146.58900451660156 C-71.88700103759766,165.05099487304688 -114.61900329589844,177.43600463867188 -172.30599975585938,182.7740020751953 C-190.5679931640625,184.46400451660156 -199.6230010986328,205.1580047607422 -209.84100341796875,227.61500549316406 C-217.09300231933594,243.55499267578125 -247.1009979248047,228.72799682617188 -237.37399291992188,196.73899841308594 C-228.42100524902344,167.29400634765625 -204.8260040283203,163.8979949951172 -201.4080047607422,151.41700744628906 C-193.947998046875,124.1729965209961 -205.53700256347656,91.14099884033203 -178.56500244140625,64.45600128173828 C-169.6009979248047,55.58700180053711 -155.5800018310547,77.46900177001953 -144.41799926757812,71.64299774169922z"></path></g></g></g></svg>