<svg xmlns="http://www.w3.org/2000/svg" xmlns:xlink="http://www.w3.org/1999/xlink" viewBox="0 0 512 512" width="512" height="512" style="width: 100%; height: 100%; transform: translate3d(0,0,0);" preserveAspectRatio="xMidYMid meet"><defs><clipPath id="__lottie_element_51855"><rect width="512" height="512" x="0" y="0"></rect></clipPath></defs><g clip-path="url(#__lottie_element_51855)"><g style="display: block;" transform="matrix(1,0,0,1,271.9590148925781,254.39599609375)" opacity="1"><g opacity="1" transform="matrix(1,0,0,1,0,0)"><path fill="rgb(0,0,0)" fill-opacity="1" d=" M201.05599975585938,173.9219970703125 C201.05599975585938,173.02200317382812 201.0260009765625,172.1320037841797 200.96600341796875,171.24200439453125 C200.75599670410156,167.6719970703125 200.12600708007812,164.1320037841797 199.24600219726562,160.61199951171875 C197.3459930419922,153.64199829101562 194.2259979248047,146.82200622558594 189.99600219726562,140.802001953125 C185.8260040283203,134.71200561523438 180.67599487304688,129.3719940185547 175.11599731445312,124.71199798583984 C169.55599975585938,119.99199676513672 163.46600341796875,116.19200134277344 157.2760009765625,112.83200073242188 C151.05599975585938,109.4020004272461 144.64599609375,106.802001953125 138.18600463867188,104.41200256347656 C134.46600341796875,103.1520004272461 130.7259979248047,101.97200012207031 126.97599792480469,100.91200256347656 C93.11599731445312,86.79199981689453 85.94599914550781,61.742000579833984 106.14600372314453,4.552000045776367 C117.18299865722656,-25.90399932861328 122.01399993896484,-58.70100021362305 118.16699981689453,-89.29399871826172 C118.16699981689453,-89.29399871826172 112.74299621582031,-94.375 102.14700317382812,-93.0979995727539 C91.5510025024414,-91.82099914550781 85.59700012207031,-85.03900146484375 85.59700012207031,-85.03900146484375 C84.24299621582031,-61.040000915527344 72.00800323486328,-36.28099822998047 50.70600128173828,-32.518001556396484 C32.66400146484375,-29.333999633789062 19.128999710083008,-42.77899932861328 13.067000389099121,-60.801998138427734 C13.067000389099121,-60.801998138427734 -1.3849999904632568,-62.970001220703125 -17.21500015258789,-55.94900131225586 C-33.04499816894531,-48.928001403808594 -41.8380012512207,-35.57500076293945 -41.8380012512207,-35.57500076293945 C-42.19900131225586,-33.249000549316406 -42.67900085449219,-30.767000198364258 -43.27399826049805,-28.107999801635742 C-47.61399841308594,-8.697999954223633 -64.9739990234375,15.552000045776367 -84.31400299072266,-3.8480000495910645 C-103.65399932861328,-23.257999420166016 -70.69400024414062,-66.93800354003906 -52.9739990234375,-61.63800048828125 C-42.178001403808594,-58.402000427246094 -39.56399917602539,-50.22200012207031 -41.8380012512207,-35.57500076293945 C-41.8380012512207,-35.57500076293945 13.067000389099121,-60.801998138427734 13.067000389099121,-60.801998138427734 C3.9560000896453857,-87.89299774169922 11.741000175476074,-125.33200073242188 46.57600021362305,-132.23800659179688 C74.96800231933594,-137.86599731445312 87.11399841308594,-111.92900085449219 85.59700012207031,-85.03900146484375 C85.59700012207031,-85.03900146484375 118.16699981689453,-89.29399871826172 118.16699981689453,-89.29399871826172 C112.15599822998047,-137.0919952392578 84.95600128173828,-179.50599670410156 27.115999221801758,-199.18800354003906 C-31.34000015258789,-219.07899475097656 -81.68599700927734,-203.5959930419922 -118.6729965209961,-176.44400024414062 C-118.6729965209961,-176.44400024414062 -119.21499633789062,-169.43800354003906 -113.18299865722656,-162.73599243164062 C-107.1510009765625,-156.03399658203125 -96.49400329589844,-155.3699951171875 -96.49400329589844,-155.3699951171875 C-93.1240005493164,-157.78900146484375 -89.40599822998047,-160.2469940185547 -85.27400207519531,-162.73800659179688 C-12.133999824523926,-206.8280029296875 -1.3240000009536743,-140.66799926757812 -53.763999938964844,-111.65799713134766 C-103.32099914550781,-84.25800323486328 -154.21099853515625,-113.93099975585938 -96.49400329589844,-155.3699951171875 C-96.49400329589844,-155.3699951171875 -118.6729965209961,-176.44400024414062 -118.6729965209961,-176.44400024414062 C-140.9290008544922,-160.1060028076172 -158.34800720214844,-139.54299926757812 -169.78399658203125,-119.91799926757812 C-207.9340057373047,-61.80799865722656 -232.593994140625,106.88200378417969 -111.76399993896484,181.4720001220703 C-44.09400177001953,223.2519989013672 2.7360000610351562,208.79200744628906 40.125999450683594,187.04200744628906 C80.72599792480469,163.7519989013672 125.16600036621094,148.83200073242188 152.39599609375,158.9320068359375 C179.5959930419922,169.02200317382812 183.54600524902344,172.0919952392578 187.51600646972656,183.01199340820312 C187.9759979248047,185.98199462890625 190.46600341796875,188.33200073242188 193.5959930419922,188.49200439453125 C197.16600036621094,188.6719970703125 200.20599365234375,185.9219970703125 200.38600158691406,182.3419952392578 C200.38600158691406,182.3419952392578 200.62600708007812,180.71200561523438 200.62600708007812,180.71200561523438 C200.6959991455078,180.23199462890625 200.74600219726562,179.78199768066406 200.80599975585938,179.32200622558594 C200.906005859375,178.40199279785156 200.96600341796875,177.51199340820312 201.01600646972656,176.6020050048828 C201.05599975585938,175.71200561523438 201.08599853515625,174.802001953125 201.05599975585938,173.9219970703125z"></path></g></g></g></svg>