<svg xmlns="http://www.w3.org/2000/svg" xmlns:xlink="http://www.w3.org/1999/xlink" viewBox="0 0 512 512" width="512" height="512" style="width: 100%; height: 100%; transform: translate3d(0,0,0);" preserveAspectRatio="xMidYMid meet"><defs><clipPath id="__lottie_element_15681"><rect width="512" height="512" x="0" y="0"></rect></clipPath></defs><g clip-path="url(#__lottie_element_15681)"><g style="display: block;" transform="matrix(1,0,0,1,26.083999633789062,7.8040008544921875)" opacity="1"><g opacity="1" transform="matrix(1,0,0,1,231.08299255371094,246.59100341796875)"><path fill="rgb(0,0,0)" fill-opacity="1" d=" M-183.16700744628906,48.60499954223633 C-188.8520050048828,46.641998291015625 -205.68499755859375,51.797000885009766 -211.2209930419922,47.71900177001953 C-230.83399963378906,33.27299880981445 -223.8000030517578,-43.78300094604492 -198.16700744628906,-47.39500045776367 C-124.83399963378906,-57.72800064086914 23.83300018310547,-58.0620002746582 80.83300018310547,-39.39500045776367 C87.70999908447266,-37.143001556396484 82.5,-49.39500045776367 55.83300018310547,-57.39500045776367 C34.72999954223633,-63.72600173950195 15.189000129699707,-64.60099792480469 15.833000183105469,-67.3949966430664 C20.670000076293945,-88.3949966430664 63.86199951171875,-117.31400299072266 99.83300018310547,-130.39500427246094 C110.83300018310547,-134.39500427246094 108.60199737548828,-158.11399841308594 85.83300018310547,-150.39500427246094 C14.055999755859375,-126.06199645996094 7.165999889373779,-66.06199645996094 -13.166999816894531,-67.3949966430664 C-26.718000411987305,-68.28399658203125 -38.16699981689453,-121.3949966430664 -73.16699981689453,-144.39500427246094 C-86.38099670410156,-153.0780029296875 -111.16699981689453,-145.39500427246094 -100.16699981689453,-131.39500427246094 C-86.68800354003906,-114.23999786376953 -38.16699981689453,-91.3949966430664 -42.16699981689453,-73.3949966430664 C-44.99700164794922,-60.659000396728516 -128.7989959716797,-79.00800323486328 -171.5,-91.72699737548828 C-218.5,-105.72699737548828 -166.2729949951172,-246.3419952392578 -92.16699981689453,-239.39500427246094 C-28.16699981689453,-233.39500427246094 -4.863999843597412,-174.9219970703125 4.833000183105469,-175.39500427246094 C16.670000076293945,-175.97300720214844 53.83300018310547,-233.39500427246094 105.83300018310547,-238.39500427246094 C175.38400268554688,-245.08200073242188 230.83299255371094,-157.39500427246094 216.83299255371094,-121.3949966430664 C204.34500122070312,-89.28299713134766 147.02699279785156,-72.73400115966797 142.83299255371094,-65.3949966430664 C138.83299255371094,-58.39500045776367 172.5,-63.39500045776367 185.12100219726562,-29.739999771118164 C188.39999389648438,-20.996000289916992 211.5,-21.729000091552734 219.91099548339844,-13.317000389099121 C230.5,-2.7269999980926514 229.0850067138672,51.93899917602539 214.26800537109375,59.79600143432617 C203.21200561523438,65.65899658203125 175.53799438476562,56.11899948120117 176.83299255371094,64.6050033569336 C179.83299255371094,84.27200317382812 174.13999938964844,238.60699462890625 161.83299255371094,236.60499572753906 C51.16600036621094,218.60499572753906 -168.322998046875,246.34100341796875 -181.16700744628906,235.60499572753906 C-188.9010009765625,229.13999938964844 -172.49899291992188,179.93800354003906 -177.83299255371094,139.27200317382812 C-178.7259979248047,132.45899963378906 -111.83399963378906,142.60499572753906 -78.83399963378906,134.27200317382812 C-73.47699737548828,132.91900634765625 -70.83399963378906,161.27200317382812 -70.16699981689453,190.60499572753906 C-69.80599975585938,206.5070037841797 -18.820999145507812,205.3040008544922 -20.833999633789062,191.2729949951172 C-24.768999099731445,163.83999633789062 -24.27400016784668,129.14500427246094 -15.833999633789062,127.93900299072266 C12.166000366210938,123.93900299072266 77.5009994506836,120.27300262451172 100.16699981689453,114.27300262451172 C114.77400207519531,110.40599822998047 114.18199920654297,70.9229965209961 101.16699981689453,72.27300262451172 C56.16699981689453,76.93900299072266 -16.174999237060547,85.3740005493164 -21.16699981689453,80.93900299072266 C-29.88800048828125,73.19200134277344 -14.166999816894531,25.27199935913086 -20.698999404907227,24.211000442504883 C-27.413999557495117,23.121999740600586 -64.7979965209961,24.326000213623047 -69.16699981689453,26.604999542236328 C-76.83399963378906,30.604999542236328 -71.73999786376953,81.90799713134766 -76.83399963378906,86.27300262451172 C-82.83399963378906,91.41500091552734 -169.20799255371094,88.30999755859375 -178.83299255371094,89.27300262451172 C-185.49899291992188,89.93900299072266 -175.8179931640625,51.141998291015625 -183.16700744628906,48.60499954223633z"></path></g></g></g></svg>