<svg xmlns="http://www.w3.org/2000/svg" xmlns:xlink="http://www.w3.org/1999/xlink" viewBox="0 0 512 512" width="512" height="512" style="width: 100%; height: 100%; transform: translate3d(0,0,0);" preserveAspectRatio="xMidYMid meet"><defs><clipPath id="__lottie_element_52980"><rect width="512" height="512" x="0" y="0"></rect></clipPath></defs><g clip-path="url(#__lottie_element_52980)"><g style="display: block;" transform="matrix(1,0,0,1,0,0)" opacity="1"><g opacity="1" transform="matrix(1,0,0,1,260.6000061035156,260.3479919433594)"><path fill="rgb(0,0,0)" fill-opacity="1" d=" M120.91600036621094,-95.90499877929688 C61.57400131225586,-71.95999908447266 37.999000549316406,-57.507999420166016 1.5609999895095825,-67.91899871826172 C1.5609999895095825,-67.91899871826172 50.775001525878906,-59.560001373291016 94.21600341796875,-110.60199737548828 C135.85899353027344,-159.5330047607422 100.98400115966797,-250.62600708007812 -3.6429998874664307,-251.14700317382812 C-105.14700317382812,-251.65199279785156 -156.68099975585938,-139.7519989013672 -77.55899810791016,-76.24700164794922 C-77.55899810791016,-76.24700164794922 -111.50399780273438,-80.24700164794922 -141.69500732421875,-92.73999786376953 C-171.88600158691406,-105.23300170898438 -209.0019989013672,-90.43499755859375 -213.5290069580078,-54.220001220703125 C-216.65199279785156,-29.235000610351562 -200.02499389648438,-6.339000225067139 -165.63999938964844,3.0390000343322754 C-142.73599243164062,9.28499984741211 -116.8740005493164,12.28499984741211 -116.8740005493164,12.28499984741211 C-116.8740005493164,12.28499984741211 -131.36700439453125,59.25699996948242 -114.18900299072266,112.35099792480469 C-114.18900299072266,112.35099792480469 -146.41000366210938,149.8090057373047 -155.3520050048828,171.5279998779297 C-177.21499633789062,224.6219940185547 -106.11100006103516,278.489990234375 -71.0260009765625,216.29400634765625 C-48.12200164794922,175.69200134277344 -43.95800018310547,150.70599365234375 -43.95800018310547,150.70599365234375 C-43.95800018310547,150.70599365234375 -2.9730000495910645,154.78900146484375 28.259000778198242,152.70599365234375 C28.259000778198242,152.70599365234375 34.50600051879883,200.59500122070312 70.94400024414062,229.7449951171875 C107.38099670410156,258.8949890136719 157.35299682617188,212.04800415039062 143.81900024414062,176.6510009765625 C130.28500366210938,141.2550048828125 99.35399627685547,113.25499725341797 99.35399627685547,113.25499725341797 C99.35399627685547,113.25499725341797 118.4000015258789,48.652000427246094 99.25700378417969,0.7919999957084656 C99.25700378417969,0.7919999957084656 129.69200134277344,-4.004000186920166 160.4759979248047,-16.783000946044922 C215.6529998779297,-39.68600082397461 180.25599670410156,-119.8489990234375 120.91600036621094,-95.90499877929688z M43.61600112915039,-173.81300354003906 C55.645999908447266,-173.81300354003906 65.4000015258789,-164.0590057373047 65.4000015258789,-152.02699279785156 C65.4000015258789,-139.9949951171875 55.645999908447266,-130.24099731445312 43.61600112915039,-130.24099731445312 C31.583999633789062,-130.24099731445312 21.829999923706055,-139.9949951171875 21.829999923706055,-152.02699279785156 C21.829999923706055,-164.0590057373047 31.583999633789062,-173.81300354003906 43.61600112915039,-173.81300354003906z M-50.7760009765625,-131.9759979248047 C-62.80799865722656,-131.9759979248047 -72.55999755859375,-141.72999572753906 -72.55999755859375,-153.76199340820312 C-72.55999755859375,-165.79400634765625 -62.80799865722656,-175.54800415039062 -50.7760009765625,-175.54800415039062 C-38.742000579833984,-175.54800415039062 -28.989999771118164,-165.79400634765625 -28.989999771118164,-153.76199340820312 C-28.989999771118164,-141.72999572753906 -38.742000579833984,-131.9759979248047 -50.7760009765625,-131.9759979248047z M-8.871999740600586,83.6520004272461 C-20.409000396728516,83.6520004272461 -29.760000228881836,74.29900360107422 -29.760000228881836,62.763999938964844 C-29.760000228881836,51.22700119018555 -20.409000396728516,41.87300109863281 -8.871999740600586,41.87300109863281 C2.6649999618530273,41.87300109863281 12.015999794006348,51.22700119018555 12.015999794006348,62.763999938964844 C12.015999794006348,74.29900360107422 2.6649999618530273,83.6520004272461 -8.871999740600586,83.6520004272461z M-8.63700008392334,10.958999633789062 C-20.59600067138672,10.958999633789062 -30.290000915527344,1.2660000324249268 -30.290000915527344,-10.692999839782715 C-30.290000915527344,-22.652000427246094 -20.59600067138672,-32.347999572753906 -8.63700008392334,-32.347999572753906 C3.322000026702881,-32.347999572753906 13.015999794006348,-22.652000427246094 13.015999794006348,-10.692999839782715 C13.015999794006348,1.2660000324249268 3.322000026702881,10.958999633789062 -8.63700008392334,10.958999633789062z"></path></g></g></g></svg>