<svg xmlns="http://www.w3.org/2000/svg" xmlns:xlink="http://www.w3.org/1999/xlink" viewBox="0 0 512 512" width="512" height="512" style="width: 100%; height: 100%; transform: translate3d(0,0,0);" preserveAspectRatio="xMidYMid meet"><defs><clipPath id="__lottie_element_52488"><rect width="512" height="512" x="0" y="0"></rect></clipPath></defs><g clip-path="url(#__lottie_element_52488)"><g style="display: block;" transform="matrix(1,0,0,1,256,256)" opacity="1"><g opacity="1" transform="matrix(1,0,0,1,0,0)"><path fill="rgb(0,0,0)" fill-opacity="1" d=" M25.364999771118164,-239.8249969482422 C-9.282999992370605,-241.74600219726562 -21.67300033569336,-104.34700012207031 25.55699920654297,-115.08899688720703 C43.74300003051758,-119.23200225830078 52.56800079345703,-132.55099487304688 56.29800033569336,-145.48699951171875 C56.29800033569336,-145.48699951171875 147.84800720214844,-34.356998443603516 147.84800720214844,-34.356998443603516 C75.69000244140625,-17.253000259399414 26.48200035095215,24.670000076293945 -0.5490000247955322,30.827999114990234 C-27.610000610351562,36.992000579833984 -90.427001953125,20.55900001525879 -162.93899536132812,36.441001892089844 C-162.93899536132812,36.441001892089844 -129.7790069580078,-103.09700012207031 -129.7790069580078,-103.09700012207031 C-118.78299713134766,-90.94100189208984 -104.6050033569336,-85.43800354003906 -88.72899627685547,-89.05400085449219 C-41.321998596191406,-99.85399627685547 -113.43800354003906,-218.16799926757812 -143.6649932861328,-201.29400634765625 C-173.5570068359375,-184.60400390625 -275.3760070800781,106.28099822998047 -227.01199340820312,121.18499755859375 C-209.07899475097656,126.71299743652344 -183.99400329589844,219.44200134277344 -156.8350067138672,232.58999633789062 C-129.50900268554688,245.82000732421875 -32.96200180053711,245.76600646972656 -11.119999885559082,190.906005859375 C-5.605999946594238,177.05599975585938 0.1509999930858612,149.35299682617188 4.492000102996826,125.5250015258789 C7.414999961853027,109.48400115966797 28.474000930786133,105.27300262451172 37.3120002746582,118.97599792480469 C56.959999084472656,149.4409942626953 84.15299987792969,186.78700256347656 127.66500091552734,186.78700256347656 C169.22999572753906,186.78700256347656 216.02699279785156,161.2480010986328 229.12899780273438,144.64599609375 C247.8350067138672,120.94499969482422 229.01699829101562,27.069000244140625 242.93699645996094,14.118000030517578 C280.55499267578125,-20.891000747680664 59.02299880981445,-237.9290008544922 25.364999771118164,-239.8249969482422z"></path></g></g></g></svg>