<svg xmlns="http://www.w3.org/2000/svg" xmlns:xlink="http://www.w3.org/1999/xlink" viewBox="0 0 512 512" width="512" height="512" style="width: 100%; height: 100%; transform: translate3d(0,0,0);" preserveAspectRatio="xMidYMid meet"><defs><clipPath id="__lottie_element_52573"><rect width="512" height="512" x="0" y="0"></rect></clipPath></defs><g clip-path="url(#__lottie_element_52573)"><g style="display: block;" transform="matrix(1,0,0,1,256,256)" opacity="1"><g opacity="1" transform="matrix(1,0,0,1,0,0)"><path fill="rgb(0,0,0)" fill-opacity="1" d=" M45.34600067138672,-216 C45.34600067138672,-216 -45.34600067138672,-216 -45.34600067138672,-216 C-58.83000183105469,-216 -70.86799621582031,-207.5469970703125 -75.44599914550781,-194.86300659179688 C-75.44599914550781,-194.86300659179688 -132.26499938964844,-37.43199920654297 -132.26499938964844,-37.43199920654297 C-136.0290069580078,-27.003000259399414 -128.302001953125,-16 -117.21499633789062,-16 C-117.21499633789062,-16 117.21499633789062,-16 117.21499633789062,-16 C128.302001953125,-16 136.0290069580078,-27.003000259399414 132.26499938964844,-37.43199920654297 C132.26499938964844,-37.43199920654297 75.44599914550781,-194.86300659179688 75.44599914550781,-194.86300659179688 C70.86799621582031,-207.5469970703125 58.83000183105469,-216 45.34600067138672,-216z M-16.45800018310547,-163.85800170898438 C-16.45800018310547,-163.85800170898438 -38.183998107910156,-103.65899658203125 -38.183998107910156,-103.65899658203125 C-45.340999603271484,-83.83000183105469 -75.48600006103516,-94.56999969482422 -68.28399658203125,-114.52200317382812 C-68.28399658203125,-114.52200317382812 -46.55699920654297,-174.7220001220703 -46.55699920654297,-174.7220001220703 C-39.37900161743164,-194.60800170898438 -9.270999908447266,-183.7689971923828 -16.45800018310547,-163.85800170898438z"></path></g><g opacity="1" transform="matrix(1,0,0,1,0,0)"><path fill="rgb(0,0,0)" fill-opacity="1" d=" M-225.21499633789062,216 C-225.21499633789062,216 -66.0199966430664,216 -66.0199966430664,216 C-64.39399719238281,211.4949951171875 -18.63800048828125,84.71499633789062 -17.010000228881836,80.20500183105469 C-17.010000228881836,80.20500183105469 -32.55400085449219,37.137001037597656 -32.55400085449219,37.137001037597656 C-37.13199996948242,24.452999114990234 -49.16999816894531,16 -62.65399932861328,16 C-62.65399932861328,16 -153.3459930419922,16 -153.3459930419922,16 C-166.8300018310547,16 -178.8679962158203,24.452999114990234 -183.4459991455078,37.137001037597656 C-183.4459991455078,37.137001037597656 -240.26499938964844,194.5679931640625 -240.26499938964844,194.5679931640625 C-244.0290069580078,204.9969940185547 -236.302001953125,216 -225.21499633789062,216z M-176.28399658203125,117.47799682617188 C-176.28399658203125,117.47799682617188 -154.5570068359375,57.27799987792969 -154.5570068359375,57.27799987792969 C-147.37899780273438,37.393001556396484 -117.27100372314453,48.23099899291992 -124.45800018310547,68.14199829101562 C-124.45800018310547,68.14199829101562 -146.1840057373047,128.34100341796875 -146.1840057373047,128.34100341796875 C-153.34100341796875,148.1699981689453 -183.48599243164062,137.42999267578125 -176.28399658203125,117.47799682617188z"></path></g><g opacity="1" transform="matrix(1,0,0,1,0,0)"><path fill="rgb(0,0,0)" fill-opacity="1" d=" M183.4459991455078,37.137001037597656 C178.8679962158203,24.452999114990234 166.8300018310547,16 153.3459930419922,16 C153.3459930419922,16 62.65399932861328,16 62.65399932861328,16 C49.16999816894531,16 37.13199996948242,24.452999114990234 32.55400085449219,37.137001037597656 C32.55400085449219,37.137001037597656 -24.264999389648438,194.5679931640625 -24.264999389648438,194.5679931640625 C-28.02899932861328,204.9969940185547 -20.302000045776367,216 -9.21500015258789,216 C-9.21500015258789,216 225.21499633789062,216 225.21499633789062,216 C236.302001953125,216 244.0290069580078,204.9969940185547 240.26499938964844,194.5679931640625 C240.26499938964844,194.5679931640625 183.4459991455078,37.137001037597656 183.4459991455078,37.137001037597656z M91.54199981689453,68.14199829101562 C91.54199981689453,68.14199829101562 69.81600189208984,128.34100341796875 69.81600189208984,128.34100341796875 C62.659000396728516,148.1699981689453 32.513999938964844,137.42999267578125 39.715999603271484,117.47799682617188 C39.715999603271484,117.47799682617188 61.44300079345703,57.27799987792969 61.44300079345703,57.27799987792969 C68.62100219726562,37.393001556396484 98.72899627685547,48.23099899291992 91.54199981689453,68.14199829101562z"></path></g></g></g></svg>