<svg xmlns="http://www.w3.org/2000/svg" xmlns:xlink="http://www.w3.org/1999/xlink" viewBox="0 0 512 512" width="512" height="512" style="width: 100%; height: 100%; transform: translate3d(0,0,0);" preserveAspectRatio="xMidYMid meet"><defs><clipPath id="__lottie_element_51194"><rect width="512" height="512" x="0" y="0"></rect></clipPath></defs><g clip-path="url(#__lottie_element_51194)"><g style="display: block;" transform="matrix(1,0,0,1,51.08399963378906,4.553009033203125)" opacity="1"><g opacity="1" transform="matrix(1,0,0,1,103.88300323486328,301.2250061035156)"><path fill="rgb(65,63,63)" fill-opacity="1" d=" M85.04299926757812,148.13499450683594 C-55.15999984741211,135.08200073242188 -95.49500274658203,-62.034000396728516 5.091000080108643,-148.13600158691406 C5.091000080108643,-148.13600158691406 88.71199798583984,-62.8849983215332 88.71199798583984,-62.8849983215332 C86.697998046875,-1.5399999618530273 95.49500274658203,83.13899993896484 85.04299926757812,148.13499450683594z"></path></g><g opacity="1" transform="matrix(1,0,0,1,82.66799926757812,339.1260070800781)"><path fill="rgb(65,63,63)" fill-opacity="1" d=" M-18.405000686645508,-160.00999450683594 C-21.895000457763672,-155.0240020751953 -28.367000579833984,-141.67300415039062 -31.118000030517578,-131.83999633789062 C-36.35300064086914,-132.33900451660156 -51.012001037597656,-125.35299682617188 -53.6870002746582,-105.36199951171875 C-57.630001068115234,-75.90299987792969 -57.08100128173828,18.916000366210938 -48.78499984741211,45.57899856567383 C-40.012001037597656,73.77400207519531 -22.5049991607666,97.5770034790039 12.508000373840332,116.95099639892578 C34.55400085449219,129.14999389648438 53.58100128173828,133.26199340820312 61.36800003051758,135.6479949951172 C82.41699981689453,142.09800720214844 76.59300231933594,164.23300170898438 47.90599822998047,156.25599670410156 C-4.2870001792907715,141.74200439453125 -43.78900146484375,110.43900299072266 -61.57400131225586,74.8479995727539 C-82.30699920654297,33.35599899291992 -82.41799926757812,-46.887001037597656 -78.9209976196289,-93.5199966430664 C-76.4540023803711,-126.43199920654297 -58.52799987792969,-164.23300170898438 -18.405000686645508,-160.00999450683594z"></path></g><g opacity="1" transform="matrix(1,0,0,1,68.13300323486328,84.38600158691406)"><path fill="rgb(65,63,63)" fill-opacity="1" d=" M37.52399826049805,-56.06800079345703 C31.159000396728516,-48.91299819946289 14.298999786376953,-42.347999572753906 3.6989998817443848,-30.232999801635742 C-22.64699935913086,-0.11999999731779099 -27.350000381469727,47.948001861572266 14.204000473022461,66.93399810791016 C9.54699993133545,72.73300170898438 5.918000221252441,76.69400024414062 1.2410000562667847,84.13500213623047 C-12.484000205993652,83.31800079345703 -34.159000396728516,63.569000244140625 -38.5890007019043,40.99300003051758 C-44.64400100708008,10.130999565124512 -37.67399978637695,-16.27199935913086 -18.822999954223633,-40.39699935913086 C-11.342000007629395,-49.970001220703125 21.85700035095215,-84.13600158691406 34.57400131225586,-77.81099700927734 C43.30500030517578,-71.98500061035156 44.64400100708008,-64.0719985961914 37.52399826049805,-56.06800079345703z"></path></g><g opacity="1" transform="matrix(1,0,0,1,139.7169952392578,44.400001525878906)"><path fill="rgb(65,63,63)" fill-opacity="1" d=" M-9.640000343322754,-10.309000015258789 C20.304000854492188,-20.283000946044922 18.658000946044922,20.281999588012695 -5.979000091552734,18.336000442504883 C-20.304000854492188,17.20400047302246 -20.132999420166016,-6.814000129699707 -9.640000343322754,-10.309000015258789z"></path></g><g opacity="1" transform="matrix(1,0,0,1,303.947998046875,301.2250061035156)"><path fill="rgb(65,63,63)" fill-opacity="1" d=" M-85.04299926757812,148.13499450683594 C55.15999984741211,135.08200073242188 95.49500274658203,-62.034000396728516 -5.091000080108643,-148.13600158691406 C-5.091000080108643,-148.13600158691406 -88.71199798583984,-62.8849983215332 -88.71199798583984,-62.8849983215332 C-86.697998046875,-1.5399999618530273 -95.49500274658203,83.13899993896484 -85.04299926757812,148.13499450683594z"></path></g><g opacity="1" transform="matrix(1,0,0,1,325.16400146484375,339.1260070800781)"><path fill="rgb(65,63,63)" fill-opacity="1" d=" M18.40399932861328,-160.00999450683594 C21.893999099731445,-155.0240020751953 29.76099967956543,-141.1739959716797 32.51300048828125,-131.3419952392578 C37.74800109863281,-131.83999633789062 51.012001037597656,-125.35299682617188 53.6870002746582,-105.36199951171875 C57.630001068115234,-75.90299987792969 57.08000183105469,18.916000366210938 48.784000396728516,45.57899856567383 C40.01100158691406,73.77400207519531 22.5049991607666,97.5770034790039 -12.508000373840332,116.95099639892578 C-34.55400085449219,129.14999389648438 -53.582000732421875,133.26199340820312 -61.36899948120117,135.6479949951172 C-82.41799926757812,142.09800720214844 -76.59300231933594,164.23300170898438 -47.90599822998047,156.25599670410156 C4.2870001792907715,141.74200439453125 43.78799819946289,110.43900299072266 61.573001861572266,74.8479995727539 C82.30599975585938,33.35599899291992 82.41699981689453,-46.887001037597656 78.91999816894531,-93.5199966430664 C76.4530029296875,-126.43199920654297 58.527000427246094,-164.23300170898438 18.40399932861328,-160.00999450683594z"></path></g><g opacity="1" transform="matrix(1,0,0,1,339.697998046875,84.38600158691406)"><path fill="rgb(65,63,63)" fill-opacity="1" d=" M-37.52399826049805,-56.06800079345703 C-31.159000396728516,-48.91299819946289 -14.298999786376953,-42.347999572753906 -3.6989998817443848,-30.232999801635742 C22.64699935913086,-0.11999999731779099 27.350000381469727,47.948001861572266 -14.204000473022461,66.93399810791016 C-9.54699993133545,72.73300170898438 -5.918000221252441,76.69400024414062 -1.2410000562667847,84.13500213623047 C12.484000205993652,83.31800079345703 34.159000396728516,63.569000244140625 38.5890007019043,40.99300003051758 C44.64400100708008,10.130999565124512 37.67399978637695,-16.27199935913086 18.822999954223633,-40.39699935913086 C11.342000007629395,-49.970001220703125 -21.85700035095215,-84.13600158691406 -34.57400131225586,-77.81099700927734 C-43.30500030517578,-71.98500061035156 -44.64400100708008,-64.0719985961914 -37.52399826049805,-56.06800079345703z"></path></g><g opacity="1" transform="matrix(1,0,0,1,268.114013671875,44.400001525878906)"><path fill="rgb(65,63,63)" fill-opacity="1" d=" M9.640000343322754,-10.309000015258789 C-20.304000854492188,-20.283000946044922 -18.658000946044922,20.281999588012695 5.979000091552734,18.336000442504883 C20.304000854492188,17.20400047302246 20.132999420166016,-6.814000129699707 9.640000343322754,-10.309000015258789z"></path></g><g opacity="1" transform="matrix(1,0,0,1,206.46099853515625,99.57099914550781)"><path fill="rgb(65,63,63)" fill-opacity="1" d=" M-2.5450000762939453,-36.30699920654297 C-38.435001373291016,-37.0260009765625 -68.06199645996094,-21.319000244140625 -89.322998046875,11.6850004196167 C-96.36900329589844,22.621999740600586 -88.53900146484375,37.0260009765625 -75.52799987792969,37.0260009765625 C-75.52799987792969,37.0260009765625 -2.5450000762939453,37.0260009765625 -2.5450000762939453,37.0260009765625 C-2.5450000762939453,37.0260009765625 75.3239974975586,37.0260009765625 75.3239974975586,37.0260009765625 C88.54299926757812,37.0260009765625 96.36900329589844,22.18400001525879 88.86299896240234,11.300999641418457 C66.28199768066406,-21.44099998474121 33.20500183105469,-37.02299880981445 -2.5450000762939453,-36.30699920654297z"></path></g><g opacity="1" transform="matrix(1,0,0,1,203.91600036621094,188.2209930419922)"><path fill="rgb(65,63,63)" fill-opacity="1" d=" M59.944000244140625,-31.024999618530273 C59.944000244140625,-31.024999618530273 0,-31.024999618530273 0,-31.024999618530273 C0,-31.024999618530273 -59.944000244140625,-31.024999618530273 -59.944000244140625,-31.024999618530273 C-61.619998931884766,-23.968000411987305 -57.24100112915039,-22.79199981689453 -53.7859992980957,-18.64299964904785 C-47.12200164794922,-10.640999794006348 -6.177000045776367,30.941999435424805 -0.16500000655651093,31.024999618530273 C-0.1080000028014183,31.023000717163086 -0.0560000017285347,31.016000747680664 0,31.013999938964844 C0.0560000017285347,31.016000747680664 0.10899999737739563,31.023000717163086 0.16500000655651093,31.024999618530273 C6.177000045776367,30.941999435424805 47.12200164794922,-10.640999794006348 53.7859992980957,-18.64299964904785 C57.242000579833984,-22.79199981689453 61.619998931884766,-23.968000411987305 59.944000244140625,-31.024999618530273z"></path></g></g></g></svg>