<svg xmlns="http://www.w3.org/2000/svg" xmlns:xlink="http://www.w3.org/1999/xlink" viewBox="0 0 512 512" width="512" height="512" style="width: 100%; height: 100%; transform: translate3d(0,0,0);" preserveAspectRatio="xMidYMid meet"><defs><clipPath id="__lottie_element_51204"><rect width="512" height="512" x="0" y="0"></rect></clipPath></defs><g clip-path="url(#__lottie_element_51204)"><g style="display: block;" transform="matrix(1,0,0,1,253.1790008544922,300.1159973144531)" opacity="1"><g opacity="1" transform="matrix(1,0,0,1,0,0)"><path fill="rgb(0,0,0)" fill-opacity="1" d=" M53.96200180053711,-163.6009979248047 C119.65799713134766,-168.5780029296875 163.4550018310547,-136.7259979248047 162.0500030517578,-84.59300231933594 C189.6840057373047,-72.25800323486328 199.18099975585938,-44.04600143432617 197.5469970703125,-19.944000244140625 C194.60299682617188,23.49799919128418 141.2969970703125,44.39400100708008 84.82099914550781,15.687999725341797 C81.51899719238281,14.010000228881836 79.06099700927734,15.979000091552734 82.51399993896484,19.81599998474121 C88.48600006103516,26.45199966430664 104.08100128173828,37.89899826049805 137.48199462890625,48.07400131225586 C149.427001953125,98.06500244140625 112.26499938964844,129.47500610351562 57.196998596191406,131.35499572753906 C52.332000732421875,131.52099609375 47.57500076293945,130.88099670410156 42.95899963378906,130.01300048828125 C29.95599937438965,169.61500549316406 -7.508999824523926,198.12399291992188 -51.569000244140625,197.65499877929688 C-103.45099639892578,197.10299682617188 -156.0469970703125,160.99600219726562 -146.09300231933594,96.2959976196289 C-125.06700134277344,98.92400360107422 -71.14299774169922,84.18000030517578 -62.79800033569336,53.51100158691406 C-62.16899871826172,51.19900131225586 -65.04199981689453,49.52799987792969 -66.70800018310547,51.25 C-97.08999633789062,82.6520004272461 -145.48199462890625,87.8010025024414 -167.3280029296875,73.4020004272461 C-211.125,44.5359992980957 -204.1580047607422,-10.211999893188477 -168.27699279785156,-39.702999114990234 C-184.1320037841797,-53.744998931884766 -194.13900756835938,-74.24199676513672 -194.13900756835938,-97.08699798583984 C-194.13900756835938,-139.41700744628906 -159.82400512695312,-173.73199462890625 -117.49400329589844,-173.73199462890625 C-111.27799987792969,-173.73199462890625 -105.24099731445312,-172.97300720214844 -99.4540023803711,-171.5760040283203 C-99.4540023803711,-171.5760040283203 -72.4520034790039,-200.42999267578125 -15.71500015258789,-197.44400024414062 C32.03900146484375,-194.93099975585938 53.96200180053711,-163.6009979248047 53.96200180053711,-163.6009979248047z"></path></g></g><g style="display: block;" transform="matrix(1,0,0,1,327.76300048828125,85.16400146484375)" opacity="1"><g opacity="1" transform="matrix(1,0,0,1,0,0)"><path fill="rgb(0,0,0)" fill-opacity="1" d=" M-10.982000350952148,-63.68199920654297 C11.154000282287598,-86.77999877929688 52.185001373291016,-59.630001068115234 36.132999420166016,-44.4379997253418 C-1.027999997138977,-9.267999649047852 -15.626999855041504,16.61199951171875 -3.822000026702881,72.63200378417969 C-3.822000026702881,72.63200378417969 -14.986000061035156,57.73899841308594 -34.20800018310547,59.74599838256836 C-34.20800018310547,59.74599838256836 -56.77000045776367,-15.902999877929688 -10.982000350952148,-63.68199920654297z"></path></g></g><g style="display: block;" transform="matrix(1,0,0,1,374.2539978027344,104.14700317382812)" opacity="1"><g opacity="1" transform="matrix(1,0,0,1,0,0)"><path fill="rgb(0,0,0)" fill-opacity="1" d=" M-60.11800003051758,53.422000885009766 C-60.97600173950195,53.422000885009766 -61.84600067138672,53.32899856567383 -62.71799850463867,53.13600158691406 C-69.18299865722656,51.70600128173828 -73.26899719238281,45.316001892089844 -71.84700012207031,38.8489990234375 C-71.3219985961914,36.45899963378906 -58.542999267578125,-19.94700050354004 -21.058000564575195,-43.319000244140625 C-5.203999996185303,-53.20399856567383 12.527000427246094,-55.85100173950195 31.636999130249023,-51.189998626708984 C52.553001403808594,-46.0880012512207 66.89900207519531,-32.57899856567383 70.99800109863281,-14.12600040435791 C74.96199798583984,3.7230000495910645 68.26699829101562,23.785999298095703 54.71500015258789,34.66299819946289 C43.42599868774414,43.724998474121094 29.22599983215332,45.316001892089844 15.755999565124512,39.02899932861328 C8.451000213623047,35.619998931884766 3.4760000705718994,30.844999313354492 0.2630000114440918,25.520999908447266 C-7.724999904632568,12.286999702453613 5.6479997634887695,-3.5850000381469727 20.121999740600586,1.843000054359436 C20.121999740600586,1.843000054359436 20.121999740600586,1.843000054359436 20.121999740600586,1.843000054359436 C20.121999740600586,1.843000054359436 20.17099952697754,1.7120000123977661 20.17099952697754,1.7120000123977661 C20.159000396728516,1.746999979019165 18.972999572753906,5.21999979019165 19.406999588012695,9.005000114440918 C19.851999282836914,12.887999534606934 21.79599952697754,15.36299991607666 25.9060001373291,17.2810001373291 C31.065000534057617,19.687999725341797 35.573001861572266,19.250999450683594 39.69200134277344,15.946000099182129 C46.17499923706055,10.741999626159668 49.5620002746582,0.050999999046325684 47.569000244140625,-8.92199993133545 C45.46699905395508,-18.382999420166016 37.992000579833984,-24.93600082397461 25.950000762939453,-27.87299919128418 C13.194000244140625,-30.983999252319336 1.9859999418258667,-29.38599967956543 -8.309000015258789,-22.985000610351562 C-37.20800018310547,-5.015999794006348 -48.303001403808594,43.53099822998047 -48.4109992980957,44.01900100708008 C-49.65599822998047,49.611000061035156 -54.617000579833984,53.422000885009766 -60.11800003051758,53.422000885009766z"></path></g></g></g></svg>