<svg xmlns="http://www.w3.org/2000/svg" xmlns:xlink="http://www.w3.org/1999/xlink" viewBox="0 0 512 512" width="512" height="512" style="width: 100%; height: 100%; transform: translate3d(0,0,0);" preserveAspectRatio="xMidYMid meet"><defs><clipPath id="__lottie_element_53589"><rect width="512" height="512" x="0" y="0"></rect></clipPath></defs><g clip-path="url(#__lottie_element_53589)"><g style="display: block;" transform="matrix(1,0,0,1,256,256)" opacity="1"><g opacity="1" transform="matrix(1,0,0,1,0,0)"><path fill="rgb(0,0,0)" fill-opacity="1" d=" M173.52000427246094,-99.32499694824219 C173.52000427246094,-99.32499694824219 127.71099853515625,-113.35700225830078 127.71099853515625,-113.35700225830078 C123.09600067138672,-114.7699966430664 119.65799713134766,-118.5790023803711 118.73999786376953,-123.2959976196289 C115.23899841308594,-141.26800537109375 107.40499877929688,-167.35899353027344 89.96700286865234,-189.5970001220703 C68.44400024414062,-217.04600524902344 37.33300018310547,-231.55499267578125 0,-231.55499267578125 C-37.33300018310547,-231.55499267578125 -68.44300079345703,-217.04600524902344 -89.96600341796875,-189.5970001220703 C-107.40399932861328,-167.35899353027344 -115.23799896240234,-141.26800537109375 -118.73899841308594,-123.2959976196289 C-119.65699768066406,-118.5790023803711 -123.09600067138672,-114.7699966430664 -127.71199798583984,-113.35600280761719 C-127.71199798583984,-113.35600280761719 -173.5189971923828,-99.32499694824219 -173.5189971923828,-99.32499694824219 C-184.34300231933594,-96.01000213623047 -190.8470001220703,-84.76699829101562 -188.3260040283203,-73.73100280761719 C-188.26199340820312,-73.4489974975586 -188.18899536132812,-73.16899871826172 -188.10800170898438,-72.89099884033203 C-188.10800170898438,-72.89099884033203 -116.125,175.1479949951172 -116.125,175.1479949951172 C-115.9209976196289,175.8520050048828 -115.65899658203125,176.52699279785156 -115.36299896240234,177.1790008544922 C-115.36299896240234,177.1790008544922 -145.75,177.1790008544922 -145.75,177.1790008544922 C-154.03399658203125,177.1790008544922 -160.75,183.89500427246094 -160.75,192.1790008544922 C-160.75,192.1790008544922 -160.75,216.55499267578125 -160.75,216.55499267578125 C-160.75,224.83900451660156 -154.03399658203125,231.55499267578125 -145.75,231.55499267578125 C-145.75,231.55499267578125 145.74899291992188,231.55499267578125 145.74899291992188,231.55499267578125 C154.0330047607422,231.55499267578125 160.74899291992188,224.83900451660156 160.74899291992188,216.55499267578125 C160.74899291992188,216.55499267578125 160.74899291992188,192.1790008544922 160.74899291992188,192.1790008544922 C160.74899291992188,183.89500427246094 154.0330047607422,177.1790008544922 145.74899291992188,177.1790008544922 C145.74899291992188,177.1790008544922 114.83300018310547,177.1790008544922 114.83300018310547,177.1790008544922 C115.36399841308594,176.22000122070312 115.80400085449219,175.19700622558594 116.12100219726562,174.11000061035156 C116.12100219726562,174.11000061035156 188.10299682617188,-72.8740005493164 188.10299682617188,-72.8740005493164 C188.18600463867188,-73.15599822998047 188.25999450683594,-73.44100189208984 188.3249969482422,-73.72699737548828 C190.8489990234375,-84.76499938964844 184.3459930419922,-96.00900268554688 173.52000427246094,-99.32499694824219z M35.43299865722656,-38.124000549316406 C35.43299865722656,-38.124000549316406 15,-38.124000549316406 15,-38.124000549316406 C15,-38.124000549316406 15,53.16600036621094 15,53.16600036621094 C15,61.45000076293945 8.284000396728516,68.16600036621094 0,68.16600036621094 C-8.284000396728516,68.16600036621094 -15,61.45000076293945 -15,53.16600036621094 C-15,53.16600036621094 -15,-38.124000549316406 -15,-38.124000549316406 C-15,-38.124000549316406 -35.43299865722656,-38.124000549316406 -35.43299865722656,-38.124000549316406 C-43.71699905395508,-38.124000549316406 -50.43299865722656,-44.84000015258789 -50.43299865722656,-53.124000549316406 C-50.43299865722656,-61.40800094604492 -43.71699905395508,-68.1240005493164 -35.43299865722656,-68.1240005493164 C-35.43299865722656,-68.1240005493164 -15,-68.1240005493164 -15,-68.1240005493164 C-15,-68.1240005493164 -15,-95.08000183105469 -15,-95.08000183105469 C-15,-103.36399841308594 -8.284000396728516,-110.08000183105469 0,-110.08000183105469 C8.284000396728516,-110.08000183105469 15,-103.36399841308594 15,-95.08000183105469 C15,-95.08000183105469 15,-68.1240005493164 15,-68.1240005493164 C15,-68.1240005493164 35.43299865722656,-68.1240005493164 35.43299865722656,-68.1240005493164 C43.71699905395508,-68.1240005493164 50.43299865722656,-61.40800094604492 50.43299865722656,-53.124000549316406 C50.43299865722656,-44.84000015258789 43.71699905395508,-38.124000549316406 35.43299865722656,-38.124000549316406z"></path></g></g></g></svg>