<svg xmlns="http://www.w3.org/2000/svg" xmlns:xlink="http://www.w3.org/1999/xlink" viewBox="0 0 512 512" width="512" height="512" style="width: 100%; height: 100%; transform: translate3d(0,0,0);" preserveAspectRatio="xMidYMid meet"><defs><clipPath id="__lottie_element_52150"><rect width="512" height="512" x="0" y="0"></rect></clipPath></defs><g clip-path="url(#__lottie_element_52150)"><g style="display: block;" transform="matrix(2.962939977645874,0,0,2.962939977645874,2.8374481201171875,2.8374481201171875)" opacity="1"><g opacity="1" transform="matrix(1,0,0,1,85.42400360107422,84.9520034790039)"><path fill="rgb(0,0,0)" fill-opacity="1" d=" M41.82699966430664,82.54399871826172 C40.93299865722656,80.23799896240234 39.9010009765625,73.76100158691406 39.33700180053711,71.3740005493164 C34.882999420166016,52.54199981689453 30.566999435424805,33.67499923706055 26.15399932861328,14.833000183105469 C25.37299919128418,11.5 26.222999572753906,9.930999755859375 29.59000015258789,8.319999694824219 C34.88399887084961,5.7870001792907715 40.387001037597656,4.034999847412109 46.0880012512207,1.7200000286102295 C45.13800048828125,-3.2160000801086426 44.073001861572266,-7.9710001945495605 43.3489990234375,-12.779000282287598 C42.86000061035156,-16.018999099731445 41.38800048828125,-17.170000076293945 38.28799819946289,-16.511999130249023 C30.354999542236328,-14.829000473022461 16.86400032043457,-9.720999717712402 11.067999839782715,-6.10699987411499 C9.368000030517578,-5.047999858856201 6.563000202178955,-3.8970000743865967 8.406000137329102,1.246999979019165 C8.635000228881836,2.121000051498413 15.059000015258789,18.815000534057617 13.871999740600586,21.347000122070312 C10.873000144958496,27.743999481201172 2.3320000171661377,40.3849983215332 0.21699999272823334,40.24399948120117 C-2.0360000133514404,40.5260009765625 -15.392000198364258,24.04800033569336 -14.909000396728516,21.628999710083008 C-14.633000373840332,15.189000129699707 -12.131999969482422,7.438000202178955 -10.449000358581543,1.9010000228881836 C-9.439000129699707,-1.4220000505447388 -10.42300033569336,-3.2709999084472656 -13.28600025177002,-5.205999851226807 C-21.746999740600586,-10.923999786376953 -30.902999877929688,-14.53600025177002 -39.3380012512207,-15.71500015258789 C-42.909000396728516,-16.214000701904297 -44.70899963378906,-14.800000190734863 -45.055999755859375,-13.109000205993652 C-46.11800003051758,-7.934999942779541 -47.18299865722656,-2.742000102996826 -48.316001892089844,2.7769999504089355 C-46.92499923706055,3.313999891281128 -35.624000549316406,6.6020002365112305 -29.56399917602539,9.402000427246094 C-28.14299964904785,10.059000015258789 -26.264999389648438,10.958000183105469 -26.56599998474121,13.819999694824219 C-31.10099983215332,35.7859992980957 -41.2599983215332,81.51499938964844 -42.117000579833984,82.76100158691406 C-53.32099914550781,71.31400299072266 -64.4469985961914,60.17900085449219 -75.20600128173828,48.685001373291016 C-76.70899963378906,47.07899856567383 -77.14399719238281,43.60100173950195 -76.82099914550781,41.16299819946289 C-73.86599731445312,18.89699935913086 -71.1520004272461,-3.4260001182556152 -67.3550033569336,-25.548999786376953 C-62.3120002746582,-54.93000030517578 -41.67599868774414,-76.09500122070312 -13.916999816894531,-80.30699920654297 C-2.805999994277954,-81.99299621582031 8.619000434875488,-82.95700073242188 19.850000381469727,-79.53600311279297 C46.007999420166016,-71.56700134277344 60.18199920654297,-52.513999938964844 65.19499969482422,-26.31100082397461 C69.375,-4.4629998207092285 73.89299774169922,17.749000549316406 76.8030014038086,39.83700180053711 C77.14299774169922,42.42300033569336 76.60900115966797,46.02799987792969 75.02999877929688,47.83300018310547 C65.59200286865234,58.619998931884766 42.46200180053711,82.95800018310547 41.82699966430664,82.54399871826172z"></path></g></g></g></svg>