<svg xmlns="http://www.w3.org/2000/svg" xmlns:xlink="http://www.w3.org/1999/xlink" viewBox="0 0 512 512" width="512" height="512" style="width: 100%; height: 100%; transform: translate3d(0,0,0);" preserveAspectRatio="xMidYMid meet"><defs><clipPath id="__lottie_element_53339"><rect width="512" height="512" x="0" y="0"></rect></clipPath></defs><g clip-path="url(#__lottie_element_53339)"><g style="display: block;" transform="matrix(1,0,0,1,0,0)" opacity="1"><g opacity="1" transform="matrix(1,0,0,1,437.9410095214844,257.5610046386719)"><path fill="rgb(0,0,0)" fill-opacity="1" d=" M-74.05899810791016,-30.559999465942383 C-53.27299880981445,-35.37099838256836 -34.316001892089844,-14.567000389099121 -16.00200080871582,-14.118000030517578 C7.379000186920166,-13.545000076293945 13.534000396728516,-36.42100143432617 40.090999603271484,-29.614999771118164 C56.27199935913086,-25.468000411987305 77.12799835205078,2.24399995803833 72.36900329589844,19.06599998474121 C72.03399658203125,20.25200080871582 69.9010009765625,23.299999237060547 68.55400085449219,21.381999969482422 C59.895999908447266,12.517000198364258 45.18600082397461,-3.309000015258789 31.802000045776367,0.871999979019165 C22.743000030517578,3.7019999027252197 19.283000946044922,12.114999771118164 13.430000305175781,17.17300033569336 C-8.843999862670898,36.42100143432617 -49.26300048828125,30.541000366210938 -69.66200256347656,10.848999977111816 C-69.66200256347656,10.848999977111816 -74.05899810791016,-30.559999465942383 -74.05899810791016,-30.559999465942383z"></path></g><g opacity="1" transform="matrix(1,0,0,1,261.0480041503906,73.40699768066406)"><path fill="rgb(0,0,0)" fill-opacity="1" d=" M-15.869000434875488,2.380000114440918 C-3.9760000705718994,32.292999267578125 -33.0260009765625,49.749000549316406 -29.677000045776367,69.01200103759766 C-29.341999053955078,70.94400024414062 -28.503999710083008,72.21800231933594 -27.32699966430664,73.03199768066406 C-21.18199920654297,70.95700073242188 -14.776000022888184,70.9749984741211 -8.204999923706055,71.4729995727539 C-1.4179999828338623,71.98699951171875 5.677000045776367,71.83300018310547 12.350000381469727,73.40699768066406 C30.618000030517578,51.4640007019043 37.42499923706055,17.273000717163086 20.184999465942383,-7.184999942779541 C11.147000312805176,-20.007999420166016 -6.135000228881836,-24.68600082397461 2.8380000591278076,-45.152000427246094 C5.0929999351501465,-50.29499816894531 15.378000259399414,-63.28900146484375 21.31999969482422,-64.37300109863281 C20.309999465942383,-75.55500030517578 5.182000160217285,-69.33200073242188 -1.7380000352859497,-66.01300048828125 C-18.510000228881836,-57.970001220703125 -37.42399978637695,-36.428001403808594 -29.03700065612793,-17.02899932861328 C-26.415000915527344,-10.96500015258789 -18.562000274658203,-4.39300012588501 -15.869000434875488,2.380000114440918z"></path></g><g opacity="1" transform="matrix(1,0,0,1,71.91000366210938,257.0799865722656)"><path fill="rgb(0,0,0)" fill-opacity="1" d=" M71.91000366210938,31 C45.09700012207031,28.506999969482422 27.576000213623047,4.250999927520752 -0.1860000044107437,16.968000411987305 C-7.704999923706055,20.41200065612793 -13.119000434875488,28.139999389648438 -21.666000366210938,30.136999130249023 C-46.845001220703125,36.02199935913086 -74.11499786376953,2.055999994277954 -70.68599700927734,-21.93600082397461 C-62.720001220703125,-22.784000396728516 -58.944000244140625,-14.204999923706055 -53.332000732421875,-9.772000312805176 C-26.256999969482422,11.616000175476074 -21.718000411987305,-13.36299991607666 -2.510999917984009,-24.049999237060547 C19,-36.020999908447266 53.03900146484375,-30.666000366210938 69.50700378417969,-12.402000427246094 C69.50700378417969,-12.402000427246094 71.91000366210938,31 71.91000366210938,31z"></path></g><g opacity="1" transform="matrix(1,0,0,1,251.98199462890625,437.8039855957031)"><path fill="rgb(0,0,0)" fill-opacity="1" d=" M19.51799964904785,53.25699996948242 C12.067999839782715,61.37099838256836 -12.373000144958496,76.12699890136719 -22.538000106811523,67.18000030517578 C-10.208000183105469,55.090999603271484 7.366000175476074,39.4379997253418 -5.335999965667725,21.433000564575195 C-8.508999824523926,16.934999465942383 -13.255000114440918,15.673999786376953 -16.461000442504883,12.187999725341797 C-37.69200134277344,-10.897000312805176 -29.40999984741211,-47.904998779296875 -15.22700023651123,-72.45700073242188 C-4.839000225067139,-70.87300109863281 9.479999542236328,-74.19599914550781 19.215999603271484,-72.35299682617188 C24.983999252319336,-71.26100158691406 26.790000915527344,-60.198001861572266 26.298999786376953,-55.196998596191406 C24.83300018310547,-40.26499938964844 11.76099967956543,-33.9109992980957 14.10099983215332,-12.234999656677246 C16.35700035095215,8.66100025177002 37.69200134277344,12.895999908447266 28.461999893188477,38.77000045776367 C27.371000289916992,41.83000183105469 21.743000030517578,50.83399963378906 19.51799964904785,53.25699996948242z"></path></g><g opacity="1" transform="matrix(1,0,0,1,399.53399658203125,179.3679962158203)"><path fill="rgb(0,0,0)" fill-opacity="1" d=" M66.21199798583984,-9.425000190734863 C60.4630012512207,-9.04800033569336 56.744998931884766,-13.026000022888184 50.95800018310547,-13.579999923706055 C26.683000564575195,-15.902999877929688 21.915000915527344,13.548999786376953 6.992000102996826,26.100000381469727 C-3.9079999923706055,35.266998291015625 -27.94300079345703,37.891998291015625 -41.305999755859375,32.89500045776367 C-44.29999923706055,17.312000274658203 -55.5890007019043,8.189000129699707 -66.21199798583984,-2.2869999408721924 C-52.17399978637695,-14.604999542236328 -33.5629997253418,-6.15500020980835 -17.674999237060547,-10.777000427246094 C-1.9819999933242798,-15.342000007629395 6.302999973297119,-33.9379997253418 24.430999755859375,-35.87799835205078 C43.249000549316406,-37.89099884033203 62.16999816894531,-28.73699951171875 66.21199798583984,-9.425000190734863z"></path></g><g opacity="1" transform="matrix(1,0,0,1,110.2959976196289,334.31201171875)"><path fill="rgb(0,0,0)" fill-opacity="1" d=" M-62.209999084472656,8.770999908447266 C-51.94599914550781,11.211999893188477 -48.37799835205078,17.290000915527344 -37.25899887084961,12.336000442504883 C-19.58300018310547,4.460999965667725 -16.433000564575195,-23.808000564575195 5.916999816894531,-32.08700180053711 C14.298999786376953,-35.19200134277344 33.391998291015625,-37.44900131225586 40.840999603271484,-32.143001556396484 C46.625999450683594,-28.02199935913086 55.69900131225586,-2.930000066757202 66.0999984741211,1.6349999904632568 C66.11399841308594,3.4600000381469727 49.374000549316406,10.526000022888184 46.59299850463867,10.788000106811523 C41.95800018310547,11.223999977111816 37.38100051879883,8.725000381469727 32.52399826049805,8.590999603271484 C6.216000080108643,7.864999771118164 -4.578000068664551,37.44900131225586 -28.628000259399414,37.297000885009766 C-39.981998443603516,37.224998474121094 -66.11399841308594,23.101999282836914 -62.209999084472656,8.770999908447266z"></path></g><g opacity="1" transform="matrix(1,0,0,1,399.6910095214844,326.6029968261719)"><path fill="rgb(0,0,0)" fill-opacity="1" d=" M59.93199920654297,4.260000228881836 C59.20600128173828,11.96399974822998 51.23699951171875,19.090999603271484 45.058998107910156,22.976999282836914 C14.256999969482422,42.354000091552734 -37.46099853515625,30.8439998626709 -59.930999755859375,3.250999927520752 C-50.10599899291992,-10.47700023651123 -40.058998107910156,-24.3799991607666 -34.7400016784668,-40.60100173950195 C-19.856000900268555,-42.354000091552734 3.321000099182129,-4.586999893188477 17.808000564575195,2.5840001106262207 C32.54800033569336,9.880000114440918 44.62300109863281,9.513999938964844 59.93199920654297,4.260000228881836z"></path></g><g opacity="1" transform="matrix(1,0,0,1,320.0719909667969,397.0299987792969)"><path fill="rgb(0,0,0)" fill-opacity="1" d=" M37.691001892089844,58.03900146484375 C19.125999450683594,60.32600021362305 3.1610000133514404,50.39799880981445 -3.63700008392334,33.18000030517578 C-7.5329999923706055,23.309999465942383 -7.605999946594238,12.08899974822998 -11.72599983215332,2.569999933242798 C-17.827999114990234,-11.529000282287598 -33.07899856567383,-20.29199981689453 -37.691001892089844,-35.60499954223633 C-20.975000381469727,-38.52299880981445 -5.341000080108643,-48.516998291015625 8.637999534606934,-57.742000579833984 C19.201000213623047,-60.32500076293945 24.73699951171875,-36.24700164794922 25.43899917602539,-28.4689998626709 C28.121000289916992,1.2569999694824219 13.800999641418457,34.974998474121094 37.691001892089844,58.03900146484375z"></path></g><g opacity="1" transform="matrix(1,0,0,1,109.21499633789062,191.82200622558594)"><path fill="rgb(0,0,0)" fill-opacity="1" d=" M36.630001068115234,35.154998779296875 C28.96500015258789,40.55799865722656 -5.005000114440918,-3.134999990463257 -14.883000373840332,-8.017999649047852 C-19.01799964904785,-10.062000274658203 -29.476999282836914,-13.267000198364258 -33.917999267578125,-13.586000442504883 C-42.20100021362305,-14.180000305175781 -47.111000061035156,-10.534000396728516 -54.090999603271484,-9.687999725341797 C-61.47700119018555,-8.793999671936035 -53.060001373291016,-18.924999237060547 -51.03200149536133,-20.920000076293945 C-34.439998626708984,-37.244998931884766 -5.434000015258789,-40.55799865722656 16.301000595092773,-35.11600112915039 C25.368999481201172,-32.84600067138672 61.47700119018555,-19.523000717163086 60.619998931884766,-8.592000007629395 C47.3489990234375,2.9030001163482666 41.393001556396484,18.625 36.630001068115234,35.154998779296875z"></path></g><g opacity="1" transform="matrix(1,0,0,1,192.90499877929688,116.23500061035156)"><path fill="rgb(0,0,0)" fill-opacity="1" d=" M-16.43899917602539,59.8380012512207 C-21.1299991607666,49.43199920654297 -25.570999145507812,39.887001037597656 -26.6299991607666,28.242000579833984 C-29.3439998626709,-1.593999981880188 -14.54800033569336,-35.06399917602539 -38.882999420166016,-58.26599884033203 C-20.993000030517578,-59.8380012512207 -5.191999912261963,-51.44200134277344 1.9110000133514404,-34.9119987487793 C9.38700008392334,-17.517000198364258 7.336999893188477,-7.968999862670898 19.354000091552734,10.788000106811523 C22.382999420166016,15.515999794006348 38.88399887084961,29.628999710083008 29.006999969482422,35.03200149536133 C22.429000854492188,38.62900161743164 12.593999862670898,40.691001892089844 4.574999809265137,45.23500061035156 C-2.8959999084472656,49.46900177001953 -9.10099983215332,55.465999603271484 -16.43899917602539,59.8380012512207z"></path></g><g opacity="1" transform="matrix(1,0,0,1,187.8070068359375,398.2760009765625)"><path fill="rgb(0,0,0)" fill-opacity="1" d=" M37.51900100708008,-36.8489990234375 C21.447999954223633,-17.601999282836914 18.66200065612793,15.654999732971191 2.8299999237060547,33.33300018310547 C-6.335000038146973,43.566001892089844 -20.73200035095215,51.09000015258789 -33.777000427246094,54.76499938964844 C-29.909000396728516,45.11000061035156 -23.12700080871582,35.755001068115234 -21.729999542236328,25.076000213623047 C-18.142000198364258,-2.3570001125335693 -37.51900100708008,-44.13999938964844 -2.552000045776367,-54.76499938964844 C-2.552000045776367,-54.76499938964844 37.51900100708008,-36.8489990234375 37.51900100708008,-36.8489990234375z"></path></g><g opacity="1" transform="matrix(1,0,0,1,329.281005859375,116.72699737548828)"><path fill="rgb(0,0,0)" fill-opacity="1" d=" M30.518999099731445,-54.6870002746582 C-4.920000076293945,-22.232999801635742 45.672000885009766,29.298999786376953 -3.0989999771118164,54.6870002746582 C-15.222999572753906,46.19300079345703 -27.72100067138672,37.21500015258789 -42.83000183105469,34.88600158691406 C-45.67100143432617,31.621999740600586 -24.98699951171875,5.251999855041504 -22.077999114990234,-0.3610000014305115 C-8.487000465393066,-26.586999893188477 -7.7230000495910645,-52.599998474121094 30.518999099731445,-54.6870002746582z"></path></g><g opacity="1" transform="matrix(1,0,0,1,403.4909973144531,92.11100006103516)"><path fill="rgb(0,0,0)" fill-opacity="1" d=" M39.834999084472656,22.854000091552734 C19.91200065612793,16.861000061035156 12.154999732971191,7.875 -8.427000045776367,20.43400001525879 C-12.25,22.767000198364258 -22.726999282836914,34.891998291015625 -25.332000732421875,33.0369987487793 C-42.76300048828125,-19.77400016784668 42.763999938964844,-34.891998291015625 39.834999084472656,22.854000091552734z"></path></g><g opacity="1" transform="matrix(1,0,0,1,105.75499725341797,412.1579895019531)"><path fill="rgb(0,0,0)" fill-opacity="1" d=" M-28.54400062561035,15.833000183105469 C-34.099998474121094,10.782999992370605 -38.13100051879883,-6.51200008392334 -37.29600143432617,-14.085000038146973 C-35.56100082397461,-15.918999671936035 -17.71500015258789,-5.122000217437744 -13.354000091552734,-4.298999786376953 C0.7580000162124634,-1.6349999904632568 17.76099967956543,-15.604000091552734 27.868000030517578,-24.27400016784668 C38.130001068115234,1.3459999561309814 19.459999084472656,24.27400016784668 -7.828999996185303,22.663000106811523 C-13.187000274658203,22.347000122070312 -24.701000213623047,19.325000762939453 -28.54400062561035,15.833000183105469z"></path></g><g opacity="1" transform="matrix(1,0,0,1,89.8290023803711,99.58799743652344)"><path fill="rgb(0,0,0)" fill-opacity="1" d=" M29.555999755859375,31.679000854492188 C0.48500001430511475,36.33399963378906 7.7270002365112305,0.7269999980926514 -13.225000381469727,-8.038999557495117 C-16.32699966430664,-9.336999893188477 -29.42300033569336,-11.02400016784668 -29.55500030517578,-12.130000114440918 C-24.604000091552734,-36.33399963378906 4.74399995803833,-28.957000732421875 18.43000030517578,-15.243000030517578 C20.834999084472656,-12.833999633789062 29.555999755859375,0.2549999952316284 29.555999755859375,2.1480000019073486 C29.555999755859375,2.1480000019073486 29.555999755859375,31.679000854492188 29.555999755859375,31.679000854492188z"></path></g><g opacity="1" transform="matrix(1,0,0,1,423.72198486328125,415.0299987792969)"><path fill="rgb(0,0,0)" fill-opacity="1" d=" M-27.982999801635742,-33.09700012207031 C-8.057000160217285,-39.38100051879883 -5.616000175476074,-2.184000015258789 10.031000137329102,5.848999977111816 C16.972000122070312,9.413999557495117 32.93600082397461,8.196000099182129 25.841999053955078,18.795000076293945 C12.062000274658203,39.38100051879883 -27.663999557495117,16.780000686645508 -31.20400047302246,-5.886000156402588 C-31.9689998626709,-10.784000396728516 -32.93600082397461,-31.53499984741211 -27.982999801635742,-33.09700012207031z"></path></g><g opacity="1" transform="matrix(1,0,0,1,257.0459899902344,274.43701171875)"><path fill="rgb(0,0,0)" fill-opacity="1" d=" M84.16600036621094,-62.472999572753906 C66.14600372314453,-100.6240005493164 22.489999771118164,-116.91899871826172 -17.90399932861328,-112.0530014038086 C-99.11499786376953,-102.26899719238281 -129.05599975585938,8.423999786376953 -62.09700012207031,57.25699996948242 C19.714000701904297,116.91999816894531 129.05599975585938,32.5629997253418 84.16600036621094,-62.472999572753906z M-2.2239999771118164,-11.968999862670898 C5.8420000076293945,-11.984999656677246 18.003999710083008,4.452000141143799 15.651000022888184,7.982999801635742 C11.95300006866455,13.53499984741211 -18.312999725341797,13.913000106811523 -19.881000518798828,7.020999908447266 C-21.371000289916992,1.1770000457763672 -7.830999851226807,-11.958999633789062 -2.2239999771118164,-11.968999862670898z M-62.402000427246094,-38.35900115966797 C-61.750999450683594,-44.220001220703125 -54.95399856567383,-48.426998138427734 -49.09400177001953,-49.71200180053711 C-38.49700164794922,-52.03499984741211 -24.37299919128418,-51.750999450683594 -20.4060001373291,-39.417999267578125 C-11.829999923706055,-12.760000228881836 -65.8740005493164,-7.125999927520752 -62.402000427246094,-38.35900115966797z M16.71500015258789,45.770999908447266 C6.5320000648498535,52.237998962402344 -8.836999893188477,52.92599868774414 -19.12299919128418,46.10200119018555 C-31.847000122070312,37.6609992980957 -34.3849983215332,28.979999542236328 -23.316999435424805,26.990999221801758 C-13.097000122070312,25.15399932861328 13.489999771118164,25.363000869750977 23.856000900268555,26.84600067138672 C31.29199981689453,29.25 23.604000091552734,41.395999908447266 16.71500015258789,45.770999908447266z M14.829999923706055,-40.34400177001953 C18.797000885009766,-52.676998138427734 32.922000885009766,-52.959999084472656 43.518001556396484,-50.637001037597656 C49.37799835205078,-49.35300064086914 56.17499923706055,-45.145999908447266 56.82600021362305,-39.28499984741211 C60.29899978637695,-8.052000045776367 6.254000186920166,-13.685999870300293 14.829999923706055,-40.34400177001953z"></path></g></g></g></svg>