<svg xmlns="http://www.w3.org/2000/svg" xmlns:xlink="http://www.w3.org/1999/xlink" viewBox="0 0 512 512" width="512" height="512" style="width: 100%; height: 100%; transform: translate3d(0,0,0);" preserveAspectRatio="xMidYMid meet"><defs><clipPath id="__lottie_element_52821"><rect width="512" height="512" x="0" y="0"></rect></clipPath></defs><g clip-path="url(#__lottie_element_52821)"><g style="display: block;" transform="matrix(2.0196399688720703,0,0,2.0196399688720703,-263.02783203125,-321.02783203125)" opacity="1"><g opacity="1" transform="matrix(1,0,0,1,241.9759979248047,305.8689880371094)"><path fill="rgb(0,0,0)" fill-opacity="1" d=" M94.68699645996094,-66.80400085449219 C96.7239990234375,-71.46700286865234 95.25700378417969,-76.91400146484375 91.16500091552734,-79.93900299072266 C91.16500091552734,-79.93900299072266 61.7239990234375,-101.6989974975586 61.7239990234375,-101.6989974975586 C59.683998107910156,-103.20800018310547 53.12799835205078,-110.13099670410156 44.08100128173828,-99.79100036621094 C44.08100128173828,-99.79100036621094 35.72100067138672,-89.93900299072266 35.72100067138672,-89.93900299072266 C34.08300018310547,-88.01000213623047 31.437999725341797,-87.29499816894531 29.038999557495117,-88.10099792480469 C-14.29699993133545,-102.68000030517578 -66.89800262451172,-85.98799896240234 -88.97599792480469,-44.797000885009766 C-107.04100036621094,-11.093000411987305 -100.37200164794922,31 -80.05000305175781,58.082000732421875 C-74.85299682617188,64.26000213623047 -63.959999084472656,75.15299987792969 -54.207000732421875,81.2979965209961 C-9.993000030517578,109.15399932861328 52.02399826049805,110.13099670410156 85.02400207519531,61.553001403808594 C107.04100036621094,29.14299964904785 107.02400207519531,-14.869000434875488 81.05899810791016,-45.88999938964844 C79.80400085449219,-47.388999938964844 80.33000183105469,-49.70000076293945 81.7490005493164,-51.04499816894531 C87.06800079345703,-56.08599853515625 92.625,-62.084999084472656 94.68699645996094,-66.80400085449219z M59.02399826049805,15.130999565124512 C58.12699890136719,14.741999626159668 59.08399963378906,12.506999969482422 59.02399826049805,8.130999565124512 C58.808998107910156,-7.640999794006348 45.9010009765625,-14.645000457763672 49.02399826049805,-22.868999481201172 C50.33700180053711,-26.32699966430664 53.96900177001953,-28.645000457763672 57.02399826049805,-28.868999481201172 C63.87799835205078,-29.371999740600586 70.75399780273438,-19.551000595092773 72.02400207519531,-10.869000434875488 C74.10399627685547,3.3519999980926514 61.38100051879883,16.15399932861328 59.02399826049805,15.130999565124512z"></path></g><g opacity="1" transform="matrix(1,0,0,1,335.99700927734375,190.7830047607422)"><path fill="rgb(0,0,0)" fill-opacity="1" d=" M29.565000534057617,5.513999938964844 C25.225000381469727,-0.6259999871253967 17.281999588012695,-4.327000141143799 17.141000747680664,-7.486000061035156 C16.913999557495117,-12.579999923706055 22.801000595092773,-25.273000717163086 19.32699966430664,-28.089000701904297 C16.003000259399414,-30.783000946044922 10.003000259399414,-24.783000946044922 2.8450000286102295,-19.6299991607666 C1.121000051498413,-18.388999938964844 -0.875,-17.60700035095215 -2.874000072479248,-18.323999404907227 C-2.874000072479248,-18.323999404907227 -17.50200080871582,-25.01099967956543 -17.50200080871582,-25.01099967956543 C-21.618000030517578,-26.485000610351562 -23.70599937438965,-22.756000518798828 -22.615999221801758,-18.523000717163086 C-22.615999221801758,-18.523000717163086 -17.214000701904297,-8.222000122070312 -17.214000701904297,-8.222000122070312 C-16.844999313354492,-6.790999889373779 -16.80900001525879,-5.066999912261963 -17.84600067138672,-4.013999938964844 C-22.996999740600586,1.2170000076293945 -32.02899932861328,5.818999767303467 -30.187999725341797,9.361000061035156 C-27.711000442504883,14.128000259399414 -18.908000946044922,10.531999588012695 -11.838000297546387,10.776000022888184 C-9.51200008392334,10.855999946594238 -7.494999885559082,12.404999732971191 -6.815999984741211,14.631999969482422 C-6.815999984741211,14.631999969482422 -3.486999988555908,25.552000045776367 -3.486999988555908,25.552000045776367 C-2.015000104904175,30.381999969482422 4.668000221252441,30.783000946044922 6.708000183105469,26.163999557495117 C6.708000183105469,26.163999557495117 10.324000358581543,15.97599983215332 10.324000358581543,15.97599983215332 C11.147000312805176,14.112000465393066 12.940999984741211,12.86299991607666 14.973999977111816,12.73799991607666 C14.973999977111816,12.73799991607666 25.448999404907227,13.095999717712402 25.448999404907227,13.095999717712402 C29.709999084472656,12.835000038146973 32.02899932861328,9 29.565000534057617,5.513999938964844z"></path></g></g></g></svg>