<svg xmlns="http://www.w3.org/2000/svg" xmlns:xlink="http://www.w3.org/1999/xlink" viewBox="0 0 512 512" width="512" height="512" style="width: 100%; height: 100%; transform: translate3d(0,0,0);" preserveAspectRatio="xMidYMid meet"><defs><clipPath id="__lottie_element_53414"><rect width="512" height="512" x="0" y="0"></rect></clipPath></defs><g clip-path="url(#__lottie_element_53414)"><g style="display: block;" transform="matrix(1,0,0,1,0,0)" opacity="1"><g opacity="1" transform="matrix(1,0,0,1,234.70700073242188,303.2850036621094)"><path fill="rgb(0,0,0)" fill-opacity="1" d=" M17.027000427246094,171.93800354003906 C35.29600143432617,174.51100158691406 47.611000061035156,188.78199768066406 46.888999938964844,206.875 C46.888999938964844,206.875 -113.45800018310547,206.05299377441406 -113.45800018310547,206.05299377441406 C-139.73399353027344,204.0050048828125 -132.16700744628906,172.08599853515625 -131.33200073242188,153.80999755859375 C-191.5800018310547,125.5270004272461 -206.70899963378906,72.6719970703125 -177.78500366210938,13.322999954223633 C-156.54800415039062,-30.25200080871582 -96.72000122070312,-87.56600189208984 -104.9010009765625,-135.6020050048828 C-111.98500061035156,-177.1959991455078 -180.43899536132812,-166.4550018310547 -164.62399291992188,-123.04399871826172 C-157.14500427246094,-121.62699890136719 -154.92999267578125,-130.1580047607422 -148.7030029296875,-132.1649932861328 C-121.98100280761719,-140.77699279785156 -122.58499908447266,-103.38800048828125 -146.927001953125,-96.2969970703125 C-184.25100708007812,-85.42500305175781 -199.86399841308594,-127.31999969482422 -185.81900024414062,-157.2449951171875 C-162.52699279785156,-206.875 -88.00399780273438,-194.25 -80.8499984741211,-141.58299255371094 C-68.7030029296875,-52.152000427246094 -183.62399291992188,11.659000396728516 -159.67300415039062,85.697998046875 C-157.19500732421875,93.35600280761719 -141.03399658203125,113.59400177001953 -133.49200439453125,115.7229995727539 C-128.8769989013672,117.0260009765625 -131.02099609375,113.13400268554688 -130.59100341796875,110.69499969482422 C-117.76699829101562,38.08399963378906 -103.69200134277344,31.479000091552734 -52.202999114990234,-13.649999618530273 C-33.0620002746582,-30.427000045776367 -22.253999710083008,-49.441001892089844 -6.788000106811523,-68.71600341796875 C-3.7990000247955322,-69.36699676513672 13.123000144958496,-50.268001556396484 17.076000213623047,-46.83300018310547 C40.369998931884766,-26.589000701904297 64.7969970703125,-9.706000328063965 92.26000213623047,4.427999973297119 C98.83799743652344,7.813000202178955 136.25399780273438,23.302000045776367 137.5749969482422,25.420000076293945 C139.92300415039062,29.18600082397461 132.29299926757812,54.209999084472656 131.0760040283203,61.198001861572266 C128.75599670410156,74.5260009765625 125.35099792480469,91.58000183105469 124.44200134277344,104.73400115966797 C123.7040023803711,115.427001953125 122.6989974975586,153.7570037841797 125.31700134277344,162.01600646972656 C131.322998046875,180.96600341796875 161.86199951171875,172.2519989013672 177.63099670410156,173.93499755859375 C194.26300048828125,175.7100067138672 204.2760009765625,188.0019989013672 206.7100067138672,204.04299926757812 C199.7209930419922,200.94500732421875 193.68899536132812,195.88699340820312 185.66799926757812,195.83999633789062 C174.218994140625,195.7729949951172 163.61599731445312,205.6179962158203 151.3159942626953,205.84100341796875 C140.2030029296875,206.04299926757812 128.63999938964844,198.68699645996094 117.48400115966797,197.94000244140625 C106.06199645996094,197.1750030517578 96.29199981689453,202.1840057373047 87.46299743652344,201.86099243164062 C82.3280029296875,201.67300415039062 76.54100036621094,197.72900390625 71.31600189208984,198.08099365234375 C65.59600067138672,198.46600341796875 62.472999572753906,205.13099670410156 56.180999755859375,204.03399658203125 C57.8849983215332,181.427001953125 63.68000030517578,173.0800018310547 87.12200164794922,172.15199279785156 C87.12200164794922,172.15199279785156 88.47000122070312,168.9510040283203 88.47000122070312,168.9510040283203 C88.47000122070312,168.9510040283203 59.17300033569336,-0.6240000128746033 59.17300033569336,-0.6240000128746033 C55.31999969482422,11.694000244140625 55.481998443603516,25.66900062561035 56.077999114990234,38.590999603271484 C56.54600143432617,48.7599983215332 60.98699951171875,64.41200256347656 59.374000549316406,73.6449966430664 C56.119998931884766,92.28099822998047 36.26599884033203,114.4739990234375 18.0310001373291,119.76599884033203 C18.0310001373291,119.76599884033203 18.0310001373291,88.66300201416016 18.0310001373291,88.66300201416016 C18.0310001373291,85.41899871826172 11.28499984741211,69.22100067138672 8.871000289916992,65.71199798583984 C-7.579999923706055,41.80500030517578 -37.52299880981445,46.948001861572266 -60.30099868774414,58.520999908447266 C-65.91899871826172,61.375 -80.79000091552734,68.4020004272461 -79.34300231933594,75.60700225830078 C-45.66699981689453,50.77000045776367 5.9079999923706055,46.70000076293945 8.04800033569336,100.802001953125 C8.9399995803833,123.35399627685547 -14.048999786376953,148.1649932861328 -32.803001403808594,158.2480010986328 C-32.803001403808594,158.2480010986328 -64.2750015258789,171.93800354003906 -64.2750015258789,171.93800354003906 C-39.08700180053711,174.48500061035156 -7.326000213623047,168.50799560546875 17.027000427246094,171.93800354003906z"></path></g><g opacity="1" transform="matrix(1,0,0,1,347.4419860839844,232.08399963378906)"><path fill="rgb(0,0,0)" fill-opacity="1" d=" M31.7549991607666,76.59300231933594 C28.725000381469727,79.927001953125 -11.027000427246094,61.49100112915039 -16.149999618530273,57.26100158691406 C-17.30299949645996,11.175999641418457 -20.625,-35.327999114990234 -32.45600128173828,-79.927001953125 C-16.493000030517578,-72.177001953125 -6.26200008392334,-72.68599700927734 2.740999937057495,-55.93299865722656 C24.148000717163086,-16.093000411987305 32.45600128173828,31.590999603271484 31.7549991607666,76.59300231933594z"></path></g><g opacity="1" transform="matrix(1,0,0,1,288.83099365234375,201.31500244140625)"><path fill="rgb(0,0,0)" fill-opacity="1" d=" M22.099000930786133,77.2509994506836 C22.099000930786133,77.2509994506836 -25.738000869750977,43.82899856567383 -25.738000869750977,43.82899856567383 C-28.01099967956543,2.815999984741211 -22.39900016784668,-38.303001403808594 -9.97700023651123,-77.2509994506836 C-9.97700023651123,-77.2509994506836 13.66100025177002,-53.74599838256836 13.66100025177002,-53.74599838256836 C21.448999404907227,-10.805000305175781 28.010000228881836,33.74100112915039 22.099000930786133,77.2509994506836z"></path></g><g opacity="1" transform="matrix(1,0,0,1,392.04400634765625,240.75999450683594)"><path fill="rgb(0,0,0)" fill-opacity="1" d=" M1.2230000495910645,71.91699981689453 C4.5269999504089355,20.665000915527344 -5.744999885559082,-31.910999298095703 -34.92100143432617,-74.53800201416016 C-24.31399917602539,-71.58799743652344 0.3619999885559082,-75.13700103759766 8.027000427246094,-70.33200073242188 C19.923999786376953,-62.875 32.15399932861328,-25.246999740600586 33.305999755859375,-11.321999549865723 C34.92100143432617,8.208000183105469 29.10300064086914,37.608001708984375 18.92300033569336,54.513999938964844 C17.43000030517578,56.99399948120117 4.138000011444092,75.13800048828125 1.2230000495910645,71.91699981689453z"></path></g><g opacity="1" transform="matrix(1,0,0,1,241.2220001220703,159.56100463867188)"><path fill="rgb(0,0,0)" fill-opacity="1" d=" M5.482999801635742,66.83100128173828 C1.9279999732971191,67.56800079345703 0.6000000238418579,64.93900299072266 -1.5770000219345093,62.87099838256836 C-8.781999588012695,56.025001525878906 -31.246000289916992,24.916000366210938 -30.62700080871582,15.819999694824219 C-30.27899932861328,10.697999954223633 -15.692000389099121,-19.822999954223633 -12.180000305175781,-26.073999404907227 C-3.7780001163482666,-41.03099822998047 8.125,-55.82699966430664 20.548999786376953,-67.56800079345703 C20.548999786376953,-67.56800079345703 31.246000289916992,-46.88199996948242 31.246000289916992,-46.88199996948242 C14.289999961853027,-12.083000183105469 5.861000061035156,28.17099952697754 5.482999801635742,66.83100128173828z"></path></g><g opacity="1" transform="matrix(1,0,0,1,233.5469970703125,99.74199676513672)"><path fill="rgb(0,0,0)" fill-opacity="1" d=" M33.231998443603516,-45.902000427246094 C31.194000244140625,-38.76900100708008 31.652000427246094,-25.889999389648438 28.13800048828125,-19.910999298095703 C26.02199935913086,-16.30900001525879 6.5929999351501465,-0.9610000252723694 1.1740000247955322,5.307000160217285 C-10.060999870300293,18.30500030517578 -19.402000427246094,33.57600021362305 -27.974000930786133,48.39099884033203 C-30.871000289916992,47.09400177001953 -33.23099899291992,25.577999114990234 -33.176998138427734,21.315000534057617 C-32.83000183105469,-6.133999824523926 -21.158000946044922,-15.89799976348877 0.07699999958276749,-29.900999069213867 C4.142000198364258,-32.58100128173828 30.82900047302246,-48.38999938964844 33.231998443603516,-45.902000427246094z"></path></g><g opacity="1" transform="matrix(1,0,0,1,254.74400329589844,38.34000015258789)"><path fill="rgb(0,0,0)" fill-opacity="1" d=" M40.14699935913086,-28.636999130249023 C30.93899917602539,-19.06999969482422 20.479999542236328,-9.694000244140625 15.697999954223633,3.0889999866485596 C6.27400016784668,3.621000051498413 -2.8970000743865967,7.142000198364258 -11.416000366210938,11.10200023651123 C-15.362000465393066,12.9350004196167 -38.9370002746582,28.636999130249023 -40.14799880981445,27.51099967956543 C-25.55500030517578,-8.29800033569336 3.0889999866485596,-23.209999084472656 40.14699935913086,-28.636999130249023z"></path></g><g opacity="1" transform="matrix(1,0,0,1,362.0639953613281,76.6989974975586)"><path fill="rgb(0,0,0)" fill-opacity="1" d=" M82.08799743652344,-30.599000930786133 C69.96800231933594,-39.92399978637695 54.395999908447266,-37.492000579833984 42.68199920654297,-43.38100051879883 C34.029998779296875,-47.73099899291992 24.1200008392334,-61.85499954223633 12.484000205993652,-67.375 C-45.402000427246094,-94.83200073242188 -99.3550033569336,-36.56999969482422 -79.63899993896484,20.697999954223633 C-70.5770034790039,47.01900100708008 -33.025001525878906,71.94400024414062 -5.942999839782715,75.45700073242188 C3.638000011444092,76.6989974975586 15.312999725341797,74.5530014038086 25.172000885009766,75.45700073242188 C23.96299934387207,69.34300231933594 18.440000534057617,65.75499725341797 15.67199993133545,59.86899948120117 C-4.991000175476074,15.923999786376953 36.20899963378906,-5.802999973297119 75.34100341796875,10.256999969482422 C82.78700256347656,13.314000129699707 87.94599914550781,19.152999877929688 95.4219970703125,21.26799964904785 C99.35600280761719,4.665999889373779 96.38500213623047,-19.599000930786133 82.08799743652344,-30.599000930786133z M-21.81100082397461,-17.871999740600586 C-33.50299835205078,-25.708999633789062 -29.608999252319336,-42.43600082397461 -23.30500030517578,-47.8489990234375 C-10.991000175476074,-58.42100143432617 9.093000411987305,-52.83100128173828 13.585000038146973,-38.37699890136719 C19.608999252319336,-18.990999221801758 -5.864999771118164,-7.184999942779541 -21.81100082397461,-17.871999740600586z"></path></g><g opacity="1" transform="matrix(1,0,0,1,354.76800537109375,41.87699890136719)"><path fill="rgb(0,0,0)" fill-opacity="1" d=" M8.003000259399414,6.85099983215332 C2.496000051498413,14.614999771118164 -14.85200023651123,8.015999794006348 -8.52299976348877,-2.7980000972747803 C-1.6080000400543213,-14.614999771118164 14.85200023651123,-2.806999921798706 8.003000259399414,6.85099983215332z"></path></g></g></g></svg>