<svg xmlns="http://www.w3.org/2000/svg" xmlns:xlink="http://www.w3.org/1999/xlink" viewBox="0 0 512 512" width="512" height="512" style="width: 100%; height: 100%; transform: translate3d(0,0,0);" preserveAspectRatio="xMidYMid meet"><defs><clipPath id="__lottie_element_53694"><rect width="512" height="512" x="0" y="0"></rect></clipPath></defs><g clip-path="url(#__lottie_element_53694)"><g style="display: block;" transform="matrix(1,0,0,1,-1162.52099609375,3.634002685546875)" opacity="1"><g opacity="1" transform="matrix(1,0,0,1,1385.0570068359375,71.52899932861328)"><path fill="rgb(0,0,0)" fill-opacity="1" d=" M-4.868000030517578,58.27899932861328 C-3.2279999256134033,62.89099884033203 2.568000078201294,64.35800170898438 6.197999954223633,61.07400131225586 C15.173999786376953,52.95600128173828 24.83300018310547,44.79899978637695 35.222999572753906,36.665000915527344 C37.54100036621094,34.849998474121094 38.426998138427734,31.749000549316406 37.441001892089844,28.975000381469727 C37.441001892089844,28.975000381469727 10.503999710083008,-46.805999755859375 10.503999710083008,-46.805999755859375 C8.684000015258789,-51.92599868774414 5.314000129699707,-56.32600021362305 1.0140000581741333,-59.20600128173828 C-4.585999965667725,-62.94599914550781 -11.265999794006348,-63.85599899291992 -17.31599998474121,-61.70600128173828 C-17.31599998474121,-61.70600128173828 -24.145999908447266,-59.2760009765625 -24.145999908447266,-59.2760009765625 C-35.35599899291992,-55.29600143432617 -40.69599914550781,-42.49599838256836 -36.305999755859375,-30.1560001373291 C-36.305999755859375,-30.1560001373291 -4.868000030517578,58.27899932861328 -4.868000030517578,58.27899932861328z"></path></g><g opacity="1" transform="matrix(1,0,0,1,1267.52197265625,169.69200134277344)"><path fill="rgb(0,0,0)" fill-opacity="1" d=" M93.19200134277344,-17.417999267578125 C94.9209976196289,-21.02199935913086 95.14099884033203,-25.16699981689453 93.8010025024414,-28.933000564575195 C93.8010025024414,-28.933000564575195 62.51100158691406,-116.90599822998047 62.51100158691406,-116.90599822998047 C60.88100051879883,-121.48799896240234 57.13199996948242,-124.99600219726562 52.45100021362305,-126.31600189208984 C47.77199935913086,-127.63400268554688 42.73899841308594,-126.60700225830078 38.95600128173828,-123.552001953125 C-35.38999938964844,-63.5359992980957 -67.68599700927734,-3.1110000610351562 -81.68800354003906,37.01100158691406 C-97.23400115966797,81.55699920654297 -94.53900146484375,112.03500366210938 -94.41699981689453,113.30999755859375 C-93.8030014038086,119.71099853515625 -89.1780014038086,125.00900268554688 -82.91799926757812,126.48100280761719 C-81.77400207519531,126.75 -80.62300109863281,126.87899780273438 -79.48300170898438,126.87899780273438 C-74.38600158691406,126.87899780273438 -69.53399658203125,124.27300262451172 -66.75399780273438,119.81199645996094 C-35.340999603271484,69.40799713134766 4.0329999923706055,36.91400146484375 31.531999588012695,18.531999588012695 C61.53799819946289,-1.527999997138977 84.38800048828125,-9.666999816894531 84.58999633789062,-9.737000465393066 C88.36599731445312,-11.048999786376953 91.46299743652344,-13.814000129699707 93.19200134277344,-17.417999267578125z"></path></g><g opacity="1" transform="matrix(1,0,0,1,1485.2010498046875,301.9020080566406)"><path fill="rgb(0,0,0)" fill-opacity="1" d=" M169.98399353027344,29.864999771118164 C180.13999938964844,14.46500015258789 181.80999755859375,-4.758999824523926 174.4499969482422,-21.559999465942383 C160.0679931640625,-54.39099884033203 123.52100372314453,-118.76300048828125 40.35200119018555,-181.02200317382812 C16.972000122070312,-198.52499389648438 -16.969999313354492,-198.52699279785156 -40.35200119018555,-181.02200317382812 C-123.52100372314453,-118.76300048828125 -160.06700134277344,-54.39099884033203 -174.44900512695312,-21.559999465942383 C-181.8090057373047,-4.760000228881836 -180.14100646972656,14.46500015258789 -169.98599243164062,29.86400032043457 C-150.91400146484375,58.78499984741211 -129.18800354003906,79.9749984741211 -111.822998046875,94.15799713134766 C-137.81100463867188,108.15499877929688 -155.51800537109375,135.6199951171875 -155.51800537109375,167.1490020751953 C-155.51800537109375,167.1490020751953 -155.51800537109375,172.81199645996094 -155.51800537109375,172.81199645996094 C-155.51800537109375,184.5780029296875 -145.9459991455078,194.14999389648438 -134.17999267578125,194.14999389648438 C-134.17999267578125,194.14999389648438 134.17999267578125,194.14999389648438 134.17999267578125,194.14999389648438 C145.9459991455078,194.14999389648438 155.51800537109375,184.5780029296875 155.51800537109375,172.81199645996094 C155.51800537109375,172.81199645996094 155.51800537109375,167.1490020751953 155.51800537109375,167.1490020751953 C155.51800537109375,135.6199951171875 137.81100463867188,108.15499877929688 111.822998046875,94.15799713134766 C129.18800354003906,79.97599792480469 150.91299438476562,58.7859992980957 169.98399353027344,29.864999771118164z M83.93800354003906,61.5369987487793 C77.38899993896484,64.9540023803711 70.05799865722656,67.69100189208984 61.78099822998047,69.78900146484375 C61.78099822998047,69.78900146484375 61.78099822998047,80.15699768066406 61.78099822998047,80.15699768066406 C61.78099822998047,93.1709976196289 51.194000244140625,103.75800323486328 38.18000030517578,103.75800323486328 C30.339000701904297,103.75800323486328 23.384000778198242,99.91100311279297 19.09000015258789,94.01000213623047 C14.795999526977539,99.91100311279297 7.841000080108643,103.75800323486328 0,103.75800323486328 C-7.823999881744385,103.75800323486328 -14.767000198364258,99.92900085449219 -19.062999725341797,94.04900360107422 C-23.358999252319336,99.92900085449219 -30.301000595092773,103.75800323486328 -38.125,103.75800323486328 C-51.138999938964844,103.75800323486328 -61.72600173950195,93.1709976196289 -61.72600173950195,80.15699768066406 C-61.72600173950195,80.15699768066406 -61.72600173950195,69.80400085449219 -61.72600173950195,69.80400085449219 C-70.0260009765625,67.70500183105469 -77.375,64.96199798583984 -83.93800354003906,61.5369987487793 C-107.51799774169922,49.233001708984375 -119.98200225830078,27.827999114990234 -119.98200225830078,-0.3630000054836273 C-119.98200225830078,-30.993000030517578 -105.71399688720703,-60.375999450683594 -79.80899810791016,-83.10099792480469 C-56.67300033569336,-103.39600372314453 -26.934999465942383,-115.51200103759766 -0.2590000033378601,-115.51200103759766 C26.43199920654297,-115.51200103759766 56.25299835205078,-103.40699768066406 79.51399993896484,-83.13200378417969 C105.61000061035156,-60.38600158691406 119.98200225830078,-30.990999221801758 119.98200225830078,-0.36399999260902405 C119.98200225830078,27.827999114990234 107.51799774169922,49.233001708984375 83.93800354003906,61.5369987487793z"></path></g><g opacity="1" transform="matrix(1,0,0,1,1485.197021484375,336.20001220703125)"><path fill="rgb(0,0,0)" fill-opacity="1" d=" M0.004999999888241291,-20.177000045776367 C-4.525000095367432,-20.177000045776367 -8.805000305175781,-18.136999130249023 -11.654999732971191,-14.616999626159668 C-14.654999732971191,-10.916999816894531 -19.684999465942383,-3.556999921798706 -19.684999465942383,4.192999839782715 C-19.684999465942383,11.553000450134277 -15.104999542236328,17.732999801635742 -8.295000076293945,19.593000411987305 C-5.184999942779541,20.44300079345703 -2.424999952316284,20.30299949645996 0.004999999888241291,19.572999954223633 C1.274999976158142,19.952999114990234 2.634999990463257,20.17300033569336 4.09499979019165,20.17300033569336 C5.414999961853027,20.17300033569336 6.815000057220459,19.993000030517578 8.295000076293945,19.593000411987305 C15.104999542236328,17.732999801635742 19.684999465942383,11.553000450134277 19.684999465942383,4.192999839782715 C19.684999465942383,-3.556999921798706 14.654999732971191,-10.916999816894531 11.654999732971191,-14.616999626159668 C8.8149995803833,-18.136999130249023 4.525000095367432,-20.177000045776367 0.004999999888241291,-20.177000045776367z"></path></g><g opacity="1" transform="matrix(1,0,0,1,1424.4420166015625,295.2590026855469)"><path fill="rgb(0,0,0)" fill-opacity="1" d=" M16.84000015258789,-40.472999572753906 C-1.6540000438690186,-48.15399932861328 -23.52899932861328,-36.38399887084961 -32.959999084472656,-13.677000045776367 C-42.38999938964844,9.029999732971191 -35.290000915527344,32.83300018310547 -16.79599952697754,40.513999938964844 C-13.083999633789062,42.055999755859375 -9.140999794006348,42.81800079345703 -5.132999897003174,42.81800079345703 C1.1749999523162842,42.81800079345703 7.64300012588501,40.930999755859375 13.621000289916992,37.22999954223633 C21.972000122070312,32.058998107910156 28.856000900268555,23.708999633789062 33.00400161743164,13.718000411987305 C37.15299987792969,3.7279999256134033 38.209999084472656,-7.041999816894531 35.97999954223633,-16.606000900268555 C33.36899948120117,-27.80699920654297 26.39299964904785,-36.50600051879883 16.84000015258789,-40.472999572753906z"></path></g><g opacity="1" transform="matrix(1,0,0,1,1545.93798828125,295.3009948730469)"><path fill="rgb(0,0,0)" fill-opacity="1" d=" M13.600000381469727,-37.22999954223633 C3.821000099182129,-43.2859992980957 -7.267000198364258,-44.481998443603516 -16.816999435424805,-40.513999938964844 C-26.3700008392334,-36.547000885009766 -33.34700012207031,-27.847999572753906 -35.95899963378906,-16.64699935913086 C-38.1879997253418,-7.083000183105469 -37.13100051879883,3.687000036239624 -32.981998443603516,13.677000045776367 C-32.981998443603516,13.677000045776367 -32.981998443603516,13.678000450134277 -32.981998443603516,13.678000450134277 C-25.50200080871582,31.68899917602539 -10.192000389099121,42.819000244140625 5.050000190734863,42.819000244140625 C9.02400016784668,42.819000244140625 12.993000030517578,42.0620002746582 16.816999435424805,40.472999572753906 C26.3700008392334,36.50600051879883 33.34700012207031,27.80699920654297 35.95899963378906,16.606000900268555 C38.1879997253418,7.041999816894531 37.13100051879883,-3.7290000915527344 32.98099899291992,-13.718999862670898 C28.83300018310547,-23.709999084472656 21.950000762939453,-32.058998107910156 13.600000381469727,-37.22999954223633z"></path></g></g></g></svg>