<svg xmlns="http://www.w3.org/2000/svg" xmlns:xlink="http://www.w3.org/1999/xlink" viewBox="0 0 512 512" width="512" height="512" style="width: 100%; height: 100%; transform: translate3d(0,0,0);" preserveAspectRatio="xMidYMid meet"><defs><clipPath id="__lottie_element_52363"><rect width="512" height="512" x="0" y="0"></rect></clipPath></defs><g clip-path="url(#__lottie_element_52363)"><g style="display: block;" transform="matrix(1,0,0,1,7.75,15.750015258789062)" opacity="1"><g opacity="1" transform="matrix(1,0,0,1,249.375,248.25)"><path fill="rgb(0,0,0)" fill-opacity="1" d=" M238.875,-62 C222.9550018310547,-69.7699966430664 181.875,-37 38.875,-37 C-76.1449966430664,-37 -137.2550048828125,-63.90999984741211 -129.55499267578125,-73.80000305175781 C-122.55500030517578,-82.80000305175781 -74.125,-63 38.875,-64 C127.875,-64.79000091552734 235.36500549316406,-84.9800033569336 235.875,-107 C237.875,-194 107.875,-216 101.875,-207 C95.125,-196.8800048828125 190.3249969482422,-159.02999877929688 157.875,-140 C136.56500244140625,-127.51000213623047 115.875,-187 46.875,-210 C36.80400085449219,-213.36000061035156 54.875,-248 28.875,-248 C2.875,-248 17.045000076293945,-213.99000549316406 8.875,-210 C-60.85499954223633,-175.91000366210938 -91.125,-98 -113.56500244140625,-115.83000183105469 C-135.05499267578125,-132.88999938964844 -35.125,-194 -33.125,-206 C-30.934999465942383,-219.16000366210938 -148.55499267578125,-188.7100067138672 -175.125,-137 C-187.4550018310547,-113 -176.3260040283203,-46.15999984741211 -181.125,-41 C-186.38499450683594,-35.349998474121094 -202.0850067138672,-42.959999084472656 -217.125,-19 C-236.7949981689453,12.329999923706055 -222.406005859375,30.829999923706055 -225.125,37 C-227.8260040283203,43.119998931884766 -252.125,51 -252.125,79 C-252.125,118.33000183105469 -226.13499450683594,117.97000122070312 -223.125,126 C-220.5449981689453,132.88999938964844 -231.125,147.3300018310547 -213.125,170 C-195.0449981689453,192.75999450683594 -175.03500366210938,185.1199951171875 -170.625,189.5 C-166.80499267578125,193.3000030517578 -171.625,204.8300018310547 -147.625,215.5 C-119.30500030517578,228.08999633789062 -102.83499908447266,209.9199981689453 -97.625,211.5 C-92.13500213623047,213.16000366210938 -91.9749984741211,240.5 -56.125,241 C-32.45500183105469,241.3300018310547 -20.584999084472656,227.8000030517578 -3.125,225 C32.20500183105469,219.3300018310547 55.59400177001953,248.08999633789062 55.875,239 C57.20500183105469,195 25.204999923706055,195.6699981689453 19.875,189 C16.665000915527344,184.97999572753906 48.145999908447266,184.11099243164062 41.875,178.5 C13.375,153 -8.994999885559082,164.3090057373047 -32.69499969482422,158.8800048828125 C-75.79499816894531,149 -78.79499816894531,174.5 -87.125,171.5 C-95.59500122070312,168.4499969482422 -89.3949966430664,154.8300018310547 -118.3949966430664,146.8300018310547 C-137.875,141.4499969482422 -145.4550018310547,153.5 -147.125,145.5 C-148.38499450683594,139.47000122070312 -146.73500061035156,134.97000122070312 -158.125,121 C-168.9949951171875,107.66999816894531 -178.68499755859375,113.62000274658203 -182.125,108 C-185.38499450683594,102.66999816894531 -176.875,102.75 -174.875,88.25 C-173.91200256347656,81.27200317382812 -174.9149932861328,79.02999877929688 -170.625,81.25 C-138.156005859375,98.08999633789062 -92.15599822998047,118 38.875,118 C136.875,118 212.1739959716797,99.47000122070312 232.875,70 C245.51400756835938,52 249.125,-57 238.875,-62z M40.19499969482422,79.33000183105469 C15.53499984741211,79.33000183105469 -4.465000152587891,60.22999954223633 -4.465000152587891,36.66999816894531 C-4.465000152587891,13.100000381469727 15.53499984741211,-6 40.19499969482422,-6 C64.86499786376953,-6 84.86499786376953,13.100000381469727 84.86499786376953,36.66999816894531 C84.86499786376953,60.22999954223633 64.86499786376953,79.33000183105469 40.19499969482422,79.33000183105469z"></path></g></g></g></svg>