<svg xmlns="http://www.w3.org/2000/svg" xmlns:xlink="http://www.w3.org/1999/xlink" viewBox="0 0 512 512" width="512" height="512" style="width: 100%; height: 100%; transform: translate3d(0,0,0);" preserveAspectRatio="xMidYMid meet"><defs><clipPath id="__lottie_element_51710"><rect width="512" height="512" x="0" y="0"></rect></clipPath></defs><g clip-path="url(#__lottie_element_51710)"><g style="display: block;" transform="matrix(1,0,0,1,274.11199951171875,252.41299438476562)" opacity="1"><g opacity="1" transform="matrix(1,0,0,1,0,0)"><path fill="rgb(0,0,0)" fill-opacity="1" d=" M-95.16699981689453,189.15199279785156 C-97.27400207519531,192.05499267578125 -100.46700286865234,193.70599365234375 -103.78800201416016,193.93899536132812 C-106.41899871826172,194.1230010986328 -109.12799835205078,193.41400146484375 -111.43900299072266,191.74400329589844 C-111.43900299072266,191.74400329589844 -149.19700622558594,164.3560028076172 -149.19700622558594,164.3560028076172 C-154.41099548339844,160.57899475097656 -155.5659942626953,153.2969970703125 -151.78900146484375,148.08299255371094 C-148.01199340820312,142.87899780273438 -140.7310028076172,141.71499633789062 -135.51699829101562,145.49099731445312 C-135.51699829101562,145.49099731445312 -97.75900268554688,172.8800048828125 -97.75900268554688,172.8800048828125 C-92.54499816894531,176.65699768066406 -91.38999938964844,183.93800354003906 -95.16699981689453,189.15199279785156z M173.37100219726562,-233.89300537109375 C141.15699768066406,-226.1649932861328 103.14700317382812,-217.78599548339844 93.47699737548828,-200.38800048828125 C86.82599639892578,-188.41700744628906 91.16500091552734,-171.86199951171875 94.51499938964844,-162.70700073242188 C94.51499938964844,-162.70700073242188 3.3389999866485596,-53.880001068115234 3.3389999866485596,-53.880001068115234 C-5.126999855041504,-49.481998443603516 -15.010000228881836,-47.0359992980957 -23.457000732421875,-52.21099853515625 C-31.506000518798828,-57.143001556396484 -41.81700134277344,-63.803001403808594 -33.07899856567383,-85.22100067138672 C-27.856000900268555,-98.0270004272461 -38.301998138427734,-111.20099639892578 -51.50600051879883,-108.01699829101562 C-58.50600051879883,-106.3270034790039 -66.33200073242188,-103.2979965209961 -74.59400177001953,-98.13300323486328 C-122.23600006103516,-68.31700134277344 -100.03099822998047,-51.861000061035156 -117.78900146484375,-26.676000595092773 C-130.01199340820312,-9.336000442504883 -193.75100708007812,15.23799991607666 -208.1490020751953,80.28700256347656 C-225.94500732421875,160.66700744628906 -139.28399658203125,212.79299926757812 -139.28399658203125,212.79299926757812 C-139.28399658203125,212.79299926757812 -139.18699645996094,212.6280059814453 -139.18699645996094,212.6280059814453 C-121.26399993896484,222.93899536132812 -50.25299835205078,258.7170104980469 5.835000038146973,214.5800018310547 C58.20500183105469,173.37600708007812 52.68000030517578,105.2959976196289 63,86.76200103759766 C77.98999786376953,59.8390007019043 102.45800018310547,72.69400024414062 108.64199829101562,16.839000701904297 C109.70999908447266,7.158999919891357 109.04900360107422,-1.2009999752044678 107.5250015258789,-8.24899959564209 C104.66999816894531,-21.520999908447266 92.1520004272461,-22.590999603271484 82.95800018310547,-12.26099967956543 C75.33599853515625,-3.7070000171661377 65.7770004272461,-9.684000015258789 62.555999755859375,-14.194000244140625 C61.54399871826172,-15.609999656677246 24.777999877929688,29.56800079345703 -9.187000274658203,71.87799835205078 C-12.121999740600586,75.53399658203125 -17.707000732421875,71.4260025024414 -15.09000015258789,67.53600311279297 C7.208000183105469,34.38800048828125 31.136999130249023,-1.2690000534057617 43.834999084472656,-20.452999114990234 C43.834999084472656,-20.452999114990234 127.51599884033203,-130.9499969482422 127.51599884033203,-130.9499969482422 C137.9530029296875,-131.97900390625 154.32200622558594,-133.6009979248047 159.8459930419922,-137.89199829101562 C177.23500061035156,-151.42599487304688 198.4969940185547,-186.86300659179688 207.51699829101562,-207.47500610351562 C216.53700256347656,-228.0970001220703 205.5850067138672,-241.62100219726562 173.37100219726562,-233.89300537109375z"></path></g></g></g></svg>