<svg xmlns="http://www.w3.org/2000/svg" xmlns:xlink="http://www.w3.org/1999/xlink" viewBox="0 0 512 512" width="512" height="512" style="width: 100%; height: 100%; transform: translate3d(0,0,0);" preserveAspectRatio="xMidYMid meet"><defs><clipPath id="__lottie_element_53709"><rect width="512" height="512" x="0" y="0"></rect></clipPath></defs><g clip-path="url(#__lottie_element_53709)"><g style="display: block;" transform="matrix(1,0,0,1,-2342.35205078125,-2.162994384765625)" opacity="1"><g opacity="1" transform="matrix(1,0,0,1,2587.23193359375,258.1629943847656)"><path fill="rgb(0,0,0)" fill-opacity="1" d=" M204.34100341796875,107.95099639892578 C197.38400268554688,102.26499938964844 190.1300048828125,103.76200103759766 174.23399353027344,107.0459976196289 C158.98300170898438,110.19599914550781 135.32200622558594,115.08599853515625 108.20600128173828,115.08399963378906 C69.42500305175781,115.08200073242188 23.58799934387207,105.0770034790039 -14.725000381469727,65.67500305175781 C-42.172000885009766,37.446998596191406 -48.43899917602539,4.039000034332275 -48.86199951171875,-19.014999389648438 C-49.375999450683594,-46.926998138427734 -41.86000061035156,-76.21099853515625 -28.246000289916992,-99.35800170898438 C-0.08500000089406967,-147.23800659179688 30.8799991607666,-169.70899963378906 47.516998291015625,-181.77999877929688 C51.91999816894531,-184.97500610351562 55.39899826049805,-187.49899291992188 58.04399871826172,-189.91700744628906 C67.98200225830078,-199.0030059814453 65.56099700927734,-207.968994140625 64.05999755859375,-211.40199279785156 C61.9640007019043,-216.1929931640625 57.5260009765625,-219.5469970703125 52.34400177001953,-220.25399780273438 C50.858001708984375,-220.45700073242188 15.430000305175781,-225.08799743652344 -30.049999237060547,-213.81700134277344 C-72.1449966430664,-203.38499450683594 -131.2689971923828,-176.8090057373047 -173.87899780273438,-109.44300079345703 C-197.26199340820312,-72.4749984741211 -209.45799255371094,-33.41400146484375 -210.12899780273438,6.656000137329102 C-210.7480010986328,43.67900085449219 -201.093994140625,80.3239974975586 -182.21099853515625,112.62999725341797 C-142.55499267578125,180.4709930419922 -68.39800262451172,221.3679962158203 13.456999778747559,221.36599731445312 C17.64699935913086,221.36500549316406 21.864999771118164,221.25900268554688 26.093000411987305,221.04200744628906 C93.5739974975586,217.58799743652344 138.92999267578125,193.6060028076172 165.0959930419922,174.09500122070312 C180.6999969482422,162.4600067138672 191.2760009765625,151.16200256347656 197.39999389648438,143.73399353027344 C210.12899780273438,128.29299926757812 210.1479949951172,122.88300323486328 210.15699768066406,120.28199768066406 C210.1739959716797,115.4800033569336 208.0540008544922,110.98600006103516 204.34100341796875,107.95099639892578z"></path></g><g opacity="1" transform="matrix(1,0,0,1,2743.721923828125,145.72300720214844)"><path fill="rgb(0,0,0)" fill-opacity="1" d=" M60.90800094604492,-12.663000106811523 C28.729000091552734,-12.663000106811523 15,-28.64900016784668 15,-66.11399841308594 C15,-74.39800262451172 8.284000396728516,-81.11399841308594 0,-81.11399841308594 C-8.284000396728516,-81.11399841308594 -15,-74.39800262451172 -15,-66.11399841308594 C-15,-28.64900016784668 -28.729999542236328,-12.663000106811523 -60.90800094604492,-12.663000106811523 C-69.0790023803711,-12.663000106811523 -75.74700164794922,-6.122000217437744 -75.90499877929688,2.046999931335449 C-76.06300354003906,10.217000007629395 -69.65299987792969,17.009000778198242 -61.487998962402344,17.325000762939453 C-61.37099838256836,17.32900047302246 -49.237998962402344,18.062999725341797 -37.611000061035156,24.375 C-22.395999908447266,32.6349983215332 -15,46.28799819946289 -15,66.11399841308594 C-15,74.39800262451172 -8.284000396728516,81.11399841308594 0,81.11399841308594 C8.284000396728516,81.11399841308594 15,74.39800262451172 15,66.11399841308594 C15,46.62799835205078 22.142000198364258,33.11600112915039 36.832000732421875,24.805999755859375 C48.808998107910156,18.031999588012695 61.444000244140625,17.327999114990234 61.487998962402344,17.325000762939453 C69.65299987792969,17.009000778198242 76.06300354003906,10.217000007629395 75.90499877929688,2.046999931335449 C75.74700164794922,-6.122000217437744 69.0790023803711,-12.663000106811523 60.90800094604492,-12.663000106811523z"></path></g><g opacity="1" transform="matrix(1,0,0,1,2651.778076171875,278.5979919433594)"><path fill="rgb(0,0,0)" fill-opacity="1" d=" M-15,-28.461000442504883 C-15,-14.732000350952148 -19.23900032043457,-13.998000144958496 -26.160999298095703,-13.994000434875488 C-26.267000198364258,-13.998000144958496 -26.336999893188477,-13.994000434875488 -26.398000717163086,-13.993000030517578 C-34.64699935913086,-13.895000457763672 -41.26900100708008,-7.1539998054504395 -41.220001220703125,1.0950000286102295 C-41.17100143432617,9.336000442504883 -34.48400115966797,15.991999626159668 -26.246000289916992,16.006000518798828 C-25.197999954223633,16.035999298095703 -22.038999557495117,16.43199920654297 -19.5,17.920000076293945 C-18.152000427246094,18.709999084472656 -15,20.55900001525879 -15,28.461000442504883 C-15,36.744998931884766 -8.284000396728516,43.46099853515625 0,43.46099853515625 C8.284000396728516,43.46099853515625 15,36.744998931884766 15,28.461000442504883 C15,20.55900001525879 18.152999877929688,18.709999084472656 19.5,17.920000076293945 C22.040000915527344,16.43199920654297 25.197999954223633,16.035999298095703 26.246000289916992,16.006000518798828 C34.48400115966797,15.991999626159668 41.17100143432617,9.336000442504883 41.220001220703125,1.0950000286102295 C41.26900100708008,-7.1539998054504395 34.64699935913086,-13.895000457763672 26.398000717163086,-13.993000030517578 C26.336000442504883,-13.994000434875488 26.260000228881836,-13.996999740600586 26.160999298095703,-13.994000434875488 C19.239999771118164,-13.998000144958496 15,-14.732000350952148 15,-28.461000442504883 C15,-36.744998931884766 8.284000396728516,-43.46099853515625 0,-43.46099853515625 C-8.284000396728516,-43.46099853515625 -15,-36.744998931884766 -15,-28.461000442504883z"></path></g></g></g></svg>