<svg xmlns="http://www.w3.org/2000/svg" xmlns:xlink="http://www.w3.org/1999/xlink" viewBox="0 0 512 512" width="512" height="512" style="width: 100%; height: 100%; transform: translate3d(0,0,0);" preserveAspectRatio="xMidYMid meet"><defs><clipPath id="__lottie_element_53075"><rect width="512" height="512" x="0" y="0"></rect></clipPath></defs><g clip-path="url(#__lottie_element_53075)"><g style="display: block;" transform="matrix(1,0,0,1,254.1580047607422,251.1280059814453)" opacity="1"><g opacity="1" transform="matrix(1,0,0,1,-4.455999851226807,-121.89399719238281)"><path fill="rgb(0,0,0)" fill-opacity="1" d=" M12.890000343322754,-92.01799774169922 C-102.76000213623047,-94.66000366210938 -221.02000427246094,-59.965999603271484 -218.0399932861328,25.452999114990234 C-216.0500030517578,82.62200164794922 -47.31999969482422,93.78600311279297 12.890000343322754,91.97899627685547 C65.62000274658203,90.4020004272461 213.9499969482422,83.66600036621094 217.94000244140625,25.452999114990234 C221.9199981689453,-32.7599983215332 149.25,-88.90599822998047 12.890000343322754,-92.01799774169922z"></path></g><g opacity="1" transform="matrix(1,0,0,1,0,38.31700134277344)"><path fill="rgb(0,0,0)" fill-opacity="1" d=" M-64.26599884033203,-48.263999938964844 C-66.81500244140625,-49.79600143432617 -69.7249984741211,-50.61000061035156 -72.6989974975586,-50.617000579833984 C-84.01499938964844,-50.643001556396484 -115.20999908447266,-51.18899917602539 -148.50999450683594,-55.94599914550781 C-181.5,-60.659000396728516 -196.9429931640625,-71.53600311279297 -218.18699645996094,-65.9000015258789 C-250.7030029296875,-57.27299880981445 -258.6659851074219,-4.185999870300293 -234.77699279785156,23.684999465942383 C-202.73199462890625,61.07099914550781 -119.31099700927734,67.48200225830078 -0.527999997138977,67.48200225830078 C118.25499725341797,67.48200225830078 209.83099365234375,56.20100021362305 237.03799438476562,19.702999114990234 C264.2449951171875,-16.795000076293945 237.7010040283203,-53.95600128173828 217.1300048828125,-61.91899871826172 C196.5590057373047,-69.88200378417969 181.29600524902344,-63.909000396728516 181.29600524902344,-63.909000396728516 C181.29600524902344,-63.909000396728516 76.16100311279297,10.468000411987305 76.16100311279297,10.468000411987305 C64.23899841308594,18.902000427246094 48.45800018310547,19.489999771118164 35.94200134277344,11.967000007629395 C35.94200134277344,11.967000007629395 -64.26599884033203,-48.263999938964844 -64.26599884033203,-48.263999938964844z"></path></g><g opacity="1" transform="matrix(1,0,0,1,0.8849999904632568,165.5290069580078)"><path fill="rgb(0,0,0)" fill-opacity="1" d=" M-207.79100036621094,-45.13100051879883 C-200.73399353027344,-50.84400177001953 -165.21099853515625,-32.189998626708984 -67.66300201416016,-30.198999404907227 C-29.83300018310547,-29.427000045776367 35.08599853515625,-29.83799934387207 93.4800033569336,-33.849998474121094 C180.41099548339844,-39.821998596191406 196.33700561523438,-53.757999420166016 208.94500732421875,-46.45800018310547 C221.55299377441406,-39.15800094604492 197.66400146484375,17.910999298095703 167.13900756835938,32.5099983215332 C136.61399841308594,47.10900115966797 -138.24000549316406,59.70399856567383 -169.96600341796875,32.5099983215332 C-202.48199462890625,4.638999938964844 -221.7259979248047,-33.849998474121094 -207.79100036621094,-45.13100051879883z"></path></g></g></g></svg>