<svg xmlns="http://www.w3.org/2000/svg" xmlns:xlink="http://www.w3.org/1999/xlink" viewBox="0 0 512 512" width="512" height="512" style="width: 100%; height: 100%; transform: translate3d(0,0,0);" preserveAspectRatio="xMidYMid meet"><defs><clipPath id="__lottie_element_53579"><rect width="512" height="512" x="0" y="0"></rect></clipPath></defs><g clip-path="url(#__lottie_element_53579)"><g style="display: block;" transform="matrix(1,0,0,1,256,255.99998474121094)" opacity="1"><g opacity="1" transform="matrix(1,0,0,1,0,0)"><path fill="rgb(0,0,0)" fill-opacity="1" d=" M48.946998596191406,-226.66200256347656 C-48.16400146484375,-262.1820068359375 -114.08000183105469,-195.93800354003906 -72.0469970703125,-153.86500549316406 C-66.0270004272461,-147.13099670410156 -55.0359992980957,-138.3939971923828 -41.50299835205078,-128.6230010986328 C-55.500999450683594,-119.99600219726562 -70.52400207519531,-109.48799896240234 -85.3499984741211,-97.36299896240234 C-167.2480010986328,-105.87300109863281 -236.10299682617188,-98.36499786376953 -238.1060028076172,-69.45600128173828 C-239.69900512695312,-46.452999114990234 -203.92100524902344,-36.361000061035156 -167.85899353027344,4.638999938964844 C-236.1820068359375,160.64700317382812 -35.959999084472656,270.3280029296875 72.19999694824219,221.68899536132812 C87.86199951171875,214.64599609375 133.1179962158203,269.3190002441406 144.81500244140625,240.5919952392578 C151.98599243164062,222.97799682617188 128.4810028076172,212.73599243164062 134.52000427246094,168.03700256347656 C140.97799682617188,120.24099731445312 189.91700744628906,112.7979965209961 183.69700622558594,98.78099822998047 C177.11900329589844,83.95500183105469 126.60600280761719,72.61100006103516 74.51799774169922,166.0800018310547 C59.50899887084961,194.2429962158203 -79.03900146484375,124.34200286865234 0.3959999978542328,51.45399856567383 C15.72700023651123,61.979000091552734 44.17100143432617,87.9469985961914 52.983001708984375,85.35600280761719 C60.505001068115234,83.14399719238281 64.9010009765625,54.21099853515625 46.42399978637695,22.020999908447266 C69.2959976196289,11.22599983215332 94.57499694824219,3.003000020980835 117.20099639892578,-2.8429999351501465 C139.3070068359375,22.72599983215332 156.38999938964844,46.095001220703125 162.7969970703125,51.82500076293945 C184.09800720214844,75.25199890136719 246.51499938964844,29.184999465942383 239.44500732421875,-41.77799987792969 C233.21600341796875,-104.30000305175781 132.55799865722656,-196.07899475097656 48.946998596191406,-226.66200256347656z M-0.6790000200271606,-197.77099609375 C10.46500015258789,-183.21800231933594 -29.03700065612793,-155.6479949951172 -40.5629997253418,-173.07899475097656 C-55.25299835205078,-195.2949981689453 -9.685999870300293,-209.5330047607422 -0.6790000200271606,-197.77099609375z"></path></g></g></g></svg>