<svg xmlns="http://www.w3.org/2000/svg" xmlns:xlink="http://www.w3.org/1999/xlink" viewBox="0 0 512 512" width="512" height="512" style="width: 100%; height: 100%; transform: translate3d(0,0,0);" preserveAspectRatio="xMidYMid meet"><defs><clipPath id="__lottie_element_51650"><rect width="512" height="512" x="0" y="0"></rect></clipPath></defs><g clip-path="url(#__lottie_element_51650)"><g style="display: block;" transform="matrix(1,0,0,1,265.1000061035156,253.3939971923828)" opacity="1"><g opacity="1" transform="matrix(1,0,0,1,0,0)"><path fill="rgb(4,5,52)" fill-opacity="1" d=" M116.04499816894531,-53.3650016784668 C116.04499816894531,-53.3650016784668 91.48500061035156,-33.8849983215332 81.31500244140625,-2.5450000762939453 C81.31500244140625,-2.5450000762939453 83.8550033569336,-41.505001068115234 109.2750015258789,-75.38500213623047 C109.2750015258789,-75.38500213623047 109.2750015258789,-136.375 109.2750015258789,-159.2449951171875 C109.2750015258789,-180.02499389648438 88.98500061035156,-214.80499267578125 55.39500045776367,-199.9949951171875 C51.8650016784668,-188.375 40.005001068115234,-142.6750030517578 40.005001068115234,-52.79499816894531 C40.005001068115234,-52.79499816894531 31.46500015258789,-112.04499816894531 41.3650016784668,-204.06500244140625 C36.48500061035156,-213.78500366210938 25.19499969482422,-227.01499938964844 -0.004999999888241291,-227.01499938964844 C-22.795000076293945,-227.01499938964844 -34.20500183105469,-216.18499755859375 -39.79499816894531,-206.9250030517578 C-29.405000686645508,-113.2750015258789 -38.1150016784668,-52.79499816894531 -38.1150016784668,-52.79499816894531 C-38.1150016784668,-140.22500610351562 -49.345001220703125,-185.85499572753906 -53.20500183105469,-198.96499633789062 C-88.09500122070312,-216.31500244140625 -109.2750015258789,-180.47500610351562 -109.2750015258789,-159.2449951171875 C-109.2750015258789,-136.375 -109.2750015258789,-75.38500213623047 -109.2750015258789,-75.38500213623047 C-83.8550033569336,-41.505001068115234 -81.31500244140625,-2.5450000762939453 -81.31500244140625,-2.5450000762939453 C-91.48500061035156,-33.8849983215332 -116.04499816894531,-53.3650016784668 -116.04499816894531,-53.3650016784668 C-172.7949981689453,-66.91500091552734 -209.22500610351562,-12.704999923706055 -209.22500610351562,-12.704999923706055 C-209.22500610351562,-12.704999923706055 -166.02499389648438,-5.925000190734863 -151.625,35.57500076293945 C-137.22500610351562,77.08499908447266 -139.76499938964844,227.01499938964844 -0.004999999888241291,227.01499938964844 C139.76499938964844,227.01499938964844 137.22500610351562,77.08499908447266 151.625,35.57500076293945 C166.02499389648438,-5.925000190734863 209.22500610351562,-12.704999923706055 209.22500610351562,-12.704999923706055 C209.22500610351562,-12.704999923706055 172.7949981689453,-66.91500091552734 116.04499816894531,-53.3650016784668z M-0.004999999888241291,36.54499816894531 C-0.004999999888241291,43.755001068115234 -5.84499979019165,49.60499954223633 -13.055000305175781,49.60499954223633 C-20.274999618530273,49.60499954223633 -26.114999771118164,43.755001068115234 -26.114999771118164,36.54499816894531 C-26.114999771118164,29.334999084472656 -20.274999618530273,23.485000610351562 -13.055000305175781,23.485000610351562 C-5.84499979019165,23.485000610351562 -0.004999999888241291,29.334999084472656 -0.004999999888241291,36.54499816894531z M-1.4149999618530273,105.88500213623047 C-53.3650016784668,105.88500213623047 -88.375,57.314998626708984 -88.375,57.314998626708984 C-88.375,57.314998626708984 -64.23500061035156,24.55500030517578 -21.96500015258789,16.28499984741211 C-30.084999084472656,22.684999465942383 -35.29499816894531,32.6150016784668 -35.29499816894531,43.76499938964844 C-35.29499816894531,63.10499954223633 -19.614999771118164,78.7750015258789 -0.2849999964237213,78.7750015258789 C19.05500030517578,78.7750015258789 34.724998474121094,63.10499954223633 34.724998474121094,43.76499938964844 C34.724998474121094,33.44499969482422 30.264999389648438,24.174999237060547 23.165000915527344,17.764999389648438 C62.79499816894531,28.135000228881836 87.81500244140625,59.01499938964844 87.81500244140625,59.01499938964844 C87.81500244140625,59.01499938964844 50.54499816894531,105.88500213623047 -1.4149999618530273,105.88500213623047z"></path></g></g></g></svg>