<svg xmlns="http://www.w3.org/2000/svg" xmlns:xlink="http://www.w3.org/1999/xlink" viewBox="0 0 512 512" width="512" height="512" style="width: 100%; height: 100%; transform: translate3d(0,0,0);" preserveAspectRatio="xMidYMid meet"><defs><clipPath id="__lottie_element_15781"><rect width="512" height="512" x="0" y="0"></rect></clipPath></defs><g clip-path="url(#__lottie_element_15781)"><g style="display: block;" transform="matrix(1,0,0,1,14.970001220703125,0.94000244140625)" opacity="1"><g opacity="1" transform="matrix(1,0,0,1,163.8249969482422,236.0449981689453)"><path fill="rgb(0,0,0)" fill-opacity="1" d=" M-121.0250015258789,58.617000579833984 C-118.73899841308594,70.18900299072266 -45.625,96.01499938964844 -33.45399856567383,85.75800323486328 C-22.422000885009766,76.45999908447266 -13.199000358581543,41.97200012207031 -4.324999809265137,23.80299949645996 C1.4179999828338623,12.045000076293945 -114.80000305175781,-19.636999130249023 -115.50199890136719,-5.478000164031982 C-119.12300109863281,12.788000106811523 -124.5270004272461,40.89099884033203 -121.0250015258789,58.617000579833984z M-63.29100036621094,36.749000549316406 C-59.77899932861328,25.25200080871582 -52.650001525878906,35.48699951171875 -45.564998626708984,35.720001220703125 C-38.5989990234375,37.64899826049805 -33.19499969482422,36.56800079345703 -35.90999984741211,44.93199920654297 C-38.547000885009766,53.05699920654297 -38.5989990234375,47.91699981689453 -47.722999572753906,46.159000396728516 C-58.12099838256836,44.15599822998047 -66.7020034790039,47.91600036621094 -63.29100036621094,36.749000549316406z"></path></g><g opacity="1" transform="matrix(0.6133896112442017,0.7897804379463196,-0.7897804379463196,0.6133896112442017,291.93658447265625,439.9883728027344)"><path fill="rgb(0,0,0)" fill-opacity="1" d=" M-104.2249984741211,47.91899871826172 C-102.04000091552734,58.97700119018555 -31.797000885009766,81.59700012207031 -20.16699981689453,71.7959976196289 C-9.625,62.9109992980957 -0.8119999766349792,29.95599937438965 7.666999816894531,12.595000267028809 C13.154000282287598,1.3600000143051147 -98.2770004272461,-26.85700035095215 -98.947998046875,-13.32699966430664 C-102.40799713134766,4.126999855041504 -107.57099914550781,30.981000900268555 -104.2249984741211,47.91899871826172z M-84.4540023803711,19.36400032043457 C-81.0989990234375,8.378000259399414 -74.28600311279297,18.156999588012695 -67.51599884033203,18.3799991607666 C-60.86000061035156,20.222999572753906 -55.69599914550781,19.18899917602539 -58.290000915527344,27.18199920654297 C-60.810001373291016,34.94499969482422 -60.86000061035156,30.03499984741211 -69.5790023803711,28.354999542236328 C-79.51499938964844,26.44099998474121 -87.71299743652344,30.03499984741211 -84.4540023803711,19.36400032043457z"></path></g><g opacity="1" transform="matrix(1,0,0,1,301.9949951171875,350.1400146484375)"><path fill="rgb(0,0,0)" fill-opacity="1" d=" M-86.14099884033203,82.63899993896484 C-76.96900177001953,75.4469985961914 -85.71099853515625,45.64400100708008 -96.7239990234375,53.375 C-135.96499633789062,80.91999816894531 -181.96499633789062,89.91999816894531 -214.5189971923828,52.624000549316406 C-240.96499633789062,-0.07999999821186066 -209.968994140625,-36.1609992980957 -188.69200134277344,-55.39799880981445 C-176.79400634765625,-66.15499877929688 -215.87899780273438,-71.61599731445312 -221.7519989013672,-66.17400360107422 C-277.9649963378906,-14.079999923706055 -275.9649963378906,33.91999816894531 -236.7830047607422,84.99199676513672 C-188.96499633789062,128.9199981689453 -134.96499633789062,120.91999816894531 -86.14099884033203,82.63899993896484z"></path></g><g opacity="1" transform="matrix(0.7617155313491821,-0.6005743145942688,-0.6005743145942688,-0.7617155313491821,123.99500274658203,174.13999938964844)"><path fill="rgb(0,0,0)" fill-opacity="1" d=" M153.31900024414062,-67.23500061035156 C145.5800018310547,-73.16899871826172 156.57899475097656,-75.77200317382812 144.89599609375,-93.8550033569336 C129.0469970703125,-118.38600158691406 112.99500274658203,-109.802001953125 112.01799774169922,-114.48999786376953 C106.38200378417969,-141.53500366210938 47.191001892089844,-150.0050048828125 34.53900146484375,-124.38899993896484 C32.854000091552734,-120.97599792480469 23.812999725341797,-142.947998046875 -9.178000450134277,-125.75199890136719 C-23.634000778198242,-118.21700286865234 -14.128999710083008,-102.86399841308594 -19.469999313354492,-99.92900085449219 C-26.863000869750977,-95.86699676513672 -50.6510009765625,-77.98899841308594 -74.38999938964844,-41.643001556396484 C-83.99700164794922,-26.93400001525879 -105.41100311279297,-6.585000038146973 -97.03399658203125,21.701000213623047 C-150.3780059814453,43.143001556396484 -87.13999938964844,131.22500610351562 -62.78200149536133,118.97899627685547 C-52.132999420166016,113.625 -56.340999603271484,157.91000366210938 -8.772000312805176,163.6510009765625 C9.418999671936035,165.8459930419922 29.46500015258789,159.72999572753906 42.43899917602539,141.48399353027344 C46.42900085449219,135.8730010986328 66.50399780273438,161.3520050048828 96.44000244140625,145.39700317382812 C132.98300170898438,125.9209976196289 121.56900024414062,98.22799682617188 127.4280014038086,95.90499877929688 C159.1300048828125,83.33499908447266 182.4040069580078,63.284000396728516 192.21400451660156,34.56399917602539 C207.87600708007812,-11.286999702453613 178.27999877929688,-48.09600067138672 153.31900024414062,-67.23500061035156z M48.46799850463867,-13.553999900817871 C50.029998779296875,5.289000034332275 50.999000549316406,15.972999572753906 45.82899856567383,17.531999588012695 C21.275999069213867,24.934999465942383 14.727999687194824,43.69200134277344 8.348999977111816,39.8120002746582 C-13.800999641418457,26.34000015258789 -34.215999603271484,25.83099937438965 -48.49399948120117,28.5 C-56.090999603271484,12.513999938964844 -63.29100036621094,-10.01200008392334 -51.823001861572266,-31.1200008392334 C-34.12900161743164,-63.68600082397461 -24.860000610351562,-60.55500030517578 -11.013999938964844,-63.48400115966797 C-10.355999946594238,-62.5 -9.581000328063965,-61.638999938964844 -8.916999816894531,-60.729000091552734 C14.520000457763672,-28.625999450683594 37.60499954223633,-42.7869987487793 41.685001373291016,-40.645999908447266 C46.95500183105469,-37.880001068115234 47.47600173950195,-25.520999908447266 48.46799850463867,-13.553999900817871z"></path></g><g opacity="1" transform="matrix(0.5985648036003113,-0.7632956504821777,0.7632956504821777,0.5985648036003113,321.9949951171875,380.1400146484375)"><path fill="rgb(0,0,0)" fill-opacity="1" d=" M152.91400146484375,-54.689998626708984 C145.5189971923828,-60.36000061035156 155.11099243164062,-79.66500091552734 121.87999725341797,-105.80000305175781 C106.2490005493164,-118.09300231933594 68.07099914550781,-128.00900268554688 45.698001861572266,-109.64399719238281 C42.887001037597656,-107.33699798583984 37.209999084472656,-127.51399993896484 10.256999969482422,-110.98699951171875 C-8.039999961853027,-99.76799774169922 0.7580000162124634,-74.81600189208984 -0.5299999713897705,-86.86000061035156 C-1.3869999647140503,-94.875 -49.54800033569336,-88.82099914550781 -66.125,-37.19300079345703 C-71.25700378417969,-21.208999633789062 -94.31300354003906,3.2639999389648438 -86.30899810791016,30.292999267578125 C-137.281005859375,50.78200149536133 -80.05699920654297,128.3300018310547 -53.58000183105469,123.24700164794922 C-42.39500045776367,121.0999984741211 -43.492000579833984,159.92100524902344 -1.9709999561309814,165.93299865722656 C15.357000350952148,168.44200134277344 33.91999816894531,163.41099548339844 46.7239990234375,152.7989959716797 C51.78900146484375,148.6009979248047 69.95899963378906,163.73599243164062 98.56400299072266,148.49099731445312 C133.48199462890625,129.88099670410156 122.5770034790039,103.41799926757812 128.1750030517578,101.197998046875 C158.4669952392578,89.18599700927734 180.70700073242188,70.0270004272461 190.08099365234375,42.58399963378906 C205.0469970703125,-1.2289999723434448 176.76499938964844,-36.402000427246094 152.91400146484375,-54.689998626708984z M56.48699951171875,-6.361000061035156 C52.34199905395508,18.68199920654297 58.67300033569336,28.197999954223633 50.75600051879883,31.264999389648438 C22.18000030517578,42.334999084472656 17.834999084472656,59.27199935913086 13.52400016784668,55.05500030517578 C0.5609999895095825,42.374000549316406 -26.284000396728516,34.23899841308594 -39.926998138427734,36.78900146484375 C-47.1870002746582,21.513999938964844 -54.06700134277344,-0.009999999776482582 -43.108001708984375,-20.18000030517578 C-26.201000213623047,-51.29899978637695 -17.343000411987305,-48.30699920654297 -4.11299991607666,-51.10599899291992 C-3.4839999675750732,-50.16600036621094 -2.869999885559082,-49.23400115966797 -2.1089999675750732,-48.472999572753906 C24.961999893188477,-21.41200065612793 32.63199996948242,-35.70800018310547 38.426998138427734,-30.614999771118164 C43.7140007019043,-25.9689998626709 57.694000244140625,-13.652999877929688 56.48699951171875,-6.361000061035156z"></path></g></g></g></svg>