<svg xmlns="http://www.w3.org/2000/svg" xmlns:xlink="http://www.w3.org/1999/xlink" viewBox="0 0 512 512" width="512" height="512" style="width: 100%; height: 100%; transform: translate3d(0,0,0);" preserveAspectRatio="xMidYMid meet"><defs><clipPath id="__lottie_element_53179"><rect width="512" height="512" x="0" y="0"></rect></clipPath></defs><g clip-path="url(#__lottie_element_53179)"><g style="display: block;" transform="matrix(1,0,0,1,0,0)" opacity="1"><g opacity="1" transform="matrix(1,0,0,1,101.91600036621094,169.23399353027344)"><path fill="rgb(0,0,0)" fill-opacity="1" d=" M-36.952999114990234,-103.76599884033203 C35.084999084472656,-103.76599884033203 94.63099670410156,3.6389999389648438 85.8489990234375,59.90800094604492 C82.08499908447266,84.02999877929688 0.08399999886751175,103.76599884033203 -46.40700149536133,31.35700035095215 C-94.63099670410156,-43.75199890136719 -55.915000915527344,-103.76599884033203 -36.952999114990234,-103.76599884033203z"></path></g><g opacity="1" transform="matrix(1,0,0,1,335.14898681640625,417.5)"><path fill="rgb(0,0,0)" fill-opacity="1" d=" M-45.14899826049805,-94.5 C32.77399826049805,-94.5 90.54199981689453,1.319000005722046 83.71900177001953,55.652000427246094 C80.85099792480469,78.49199676513672 5.8470001220703125,94.5 -42.641998291015625,29.2189998626709 C-90.54100036621094,-35.268001556396484 -68.14900207519531,-94.5 -45.14899826049805,-94.5z"></path></g><g opacity="1" transform="matrix(1,0,0,1,288,243.01600646972656)"><path fill="rgb(0,0,0)" fill-opacity="1" d=" M-198,-192.01600646972656 C-139.09100341796875,-178.15499877929688 -88,-118.01599884033203 -79,-39.01599884033203 C-77.48200225830078,-25.690000534057617 -61.270999908447266,-57.56999969482422 -58,-69.01599884033203 C-56,-76.01599884033203 22.05500030517578,10.972000122070312 31,9.984000205993652 C75,5.126999855041504 92.76399993896484,12.984000205993652 108,26.983999252319336 C108.75299835205078,27.676000595092773 66,23.983999252319336 43,38.98400115966797 C33.277000427246094,45.32500076293945 12.694000244140625,59.61600112915039 22,60.98400115966797 C90,70.98400115966797 150,129.98399353027344 149,218.98399353027344 C148.83099365234375,234.01600646972656 215,132.98399353027344 188,38.98400115966797 C178.26600646972656,5.09499979019165 -41.2239990234375,-205.01800537109375 -59.893001556396484,-209.73500061035156 C-156,-234.01600646972656 -215,-196.01600646972656 -198,-192.01600646972656z"></path></g></g></g></svg>