<svg xmlns="http://www.w3.org/2000/svg" xmlns:xlink="http://www.w3.org/1999/xlink" viewBox="0 0 512 512" width="512" height="512" style="width: 100%; height: 100%; transform: translate3d(0,0,0);" preserveAspectRatio="xMidYMid meet"><defs><clipPath id="__lottie_element_53629"><rect width="512" height="512" x="0" y="0"></rect></clipPath></defs><g clip-path="url(#__lottie_element_53629)"><g style="display: block;" transform="matrix(1,0,0,1,2938.873046875,-599.427978515625)" opacity="1"><g opacity="1" transform="matrix(1,0,0,1,0,0)"><g opacity="1" transform="matrix(1,0,0,1,-2809.6640625,721.3140258789062)"><path fill="rgb(0,0,0)" fill-opacity="1" d=" M22.5310001373291,-54.88999938964844 C18.41900062561035,-62.62900161743164 10.420000076293945,-67.50299835205078 1.656000018119812,-67.60800170898438 C-7.104000091552734,-67.74400329589844 -15.222999572753906,-63.03499984741211 -19.520000457763672,-55.395999908447266 C-19.520000457763672,-55.395999908447266 -19.520000457763672,-55.39500045776367 -19.520000457763672,-55.39500045776367 C-19.520000457763672,-55.39500045776367 -68.62200164794922,31.898000717163086 -68.62200164794922,31.898000717163086 C-72.84200286865234,39.400001525878906 -72.76699829101562,48.31399917602539 -68.4209976196289,55.744998931884766 C-64.07599639892578,63.17599868774414 -56.34299850463867,67.61100006103516 -47.73500061035156,67.61100006103516 C-47.73500061035156,67.61100006103516 47.74100112915039,67.61100006103516 47.74100112915039,67.61100006103516 C56.229000091552734,67.61100006103516 63.90800094604492,63.268001556396484 68.28099822998047,55.99399948120117 C72.65399932861328,48.71900177001953 72.88700103759766,39.900001525878906 68.90499877929688,32.40299987792969 C68.90499877929688,32.40299987792969 22.5310001373291,-54.88999938964844 22.5310001373291,-54.88999938964844z"></path></g><g opacity="1" transform="matrix(1,0,0,1,-2556.300048828125,721.3140258789062)"><path fill="rgb(0,0,0)" fill-opacity="1" d=" M68.90499877929688,32.40299987792969 C68.90499877929688,32.40299987792969 22.530000686645508,-54.88999938964844 22.530000686645508,-54.88999938964844 C18.41900062561035,-62.62900161743164 10.420000076293945,-67.50399780273438 1.6549999713897705,-67.60900115966797 C1.5579999685287476,-67.61000061035156 1.4620000123977661,-67.61100006103516 1.3650000095367432,-67.61100006103516 C-7.2870001792907715,-67.61100006103516 -15.270000457763672,-62.95000076293945 -19.518999099731445,-55.395999908447266 C-19.518999099731445,-55.395999908447266 -19.518999099731445,-55.39500045776367 -19.518999099731445,-55.39500045776367 C-19.518999099731445,-55.39500045776367 -68.62100219726562,31.898000717163086 -68.62100219726562,31.898000717163086 C-72.84200286865234,39.400001525878906 -72.76699829101562,48.314998626708984 -68.4209976196289,55.744998931884766 C-64.07499694824219,63.17599868774414 -56.34199905395508,67.61100006103516 -47.73500061035156,67.61100006103516 C-47.73500061035156,67.61100006103516 47.74100112915039,67.61100006103516 47.74100112915039,67.61100006103516 C56.22800064086914,67.61100006103516 63.90700149536133,63.268001556396484 68.27999877929688,55.99399948120117 C72.65299987792969,48.71900177001953 72.88600158691406,39.900001525878906 68.90499877929688,32.40299987792969z"></path></g><g opacity="1" transform="matrix(1,0,0,1,-2684.01611328125,834.1599731445312)"><path fill="rgb(0,0,0)" fill-opacity="1" d=" M17.93899917602539,-31.32200050354004 C14.585000038146973,-37.63600158691406 8.059000015258789,-41.61199951171875 0.9089999794960022,-41.696998596191406 C0.8299999833106995,-41.698001861572266 0.753000020980835,-41.69900131225586 0.6740000247955322,-41.69900131225586 C-6.385000228881836,-41.69900131225586 -12.897000312805176,-37.895999908447266 -16.363000869750977,-31.732999801635742 C-16.363000869750977,-31.732999801635742 -41.28200149536133,12.567000389099121 -41.28200149536133,12.567000389099121 C-44.672000885009766,18.594999313354492 -44.60900115966797,26.048999786376953 -41.117000579833984,32.02000045776367 C-37.625,37.9900016784668 -31.159000396728516,41.69900131225586 -24.242000579833984,41.69900131225586 C-24.242000579833984,41.69900131225586 24.208999633789062,41.69900131225586 24.208999633789062,41.69900131225586 C31.134000778198242,41.69900131225586 37.39799880981445,38.15599822998047 40.9640007019043,32.220001220703125 C44.53099822998047,26.284000396728516 44.72100067138672,19.090999603271484 41.472999572753906,12.977999687194824 C41.472999572753906,12.977999687194824 17.93899917602539,-31.32200050354004 17.93899917602539,-31.32200050354004z M9.776000022888184,-17.01099967956543 C9.776000022888184,-17.01099967956543 9.784000396728516,-17.025999069213867 9.784000396728516,-17.025999069213867 C9.784000396728516,-17.025999069213867 9.78499984741211,-17.025999069213867 9.78499984741211,-17.025999069213867 C9.781999588012695,-17.020999908447266 9.779000282287598,-17.016000747680664 9.776000022888184,-17.01099967956543z"></path></g></g><g opacity="1" transform="matrix(1,0,0,1,-2682.873046875,970.3049926757812)"><path fill="rgb(0,0,0)" fill-opacity="1" d=" M212.43699645996094,-83.88300323486328 C200.99099731445312,-90.16200256347656 186.93299865722656,-85.62699890136719 163.63900756835938,-78.11900329589844 C156.80099487304688,-75.91400146484375 148.96800231933594,-73.39099884033203 140.12600708007812,-70.78800201416016 C140.12600708007812,-70.78800201416016 140.12600708007812,-36.13600158691406 140.12600708007812,-36.13600158691406 C140.12600708007812,-25.472000122070312 131.4499969482422,-16.79599952697754 120.78600311279297,-16.79599952697754 C120.78600311279297,-16.79599952697754 79.24600219726562,-16.79599952697754 79.24600219726562,-16.79599952697754 C68.58200073242188,-16.79599952697754 59.90599822998047,-25.472000122070312 59.90599822998047,-36.13600158691406 C59.90599822998047,-36.13600158691406 59.90599822998047,-54.10200119018555 59.90599822998047,-54.10200119018555 C41.82600021362305,-51.93299865722656 21.884000778198242,-50.58300018310547 0,-50.58300018310547 C-78.2229995727539,-50.58300018310547 -131.69200134277344,-67.81999969482422 -163.63900756835938,-78.11799621582031 C-186.9320068359375,-85.62899780273438 -200.99200439453125,-90.16100311279297 -212.43600463867188,-83.88400268554688 C-217.86599731445312,-80.90499877929688 -226.1929931640625,-72.86100006103516 -220.96099853515625,-52.4379997253418 C-215.66900634765625,-31.785999298095703 -196.27699279785156,3.049999952316284 -159.03399658203125,33.25699996948242 C-154.67300415039062,36.79399871826172 -149.83700561523438,40.42900085449219 -144.5500030517578,44.060001373291016 C-144.5500030517578,44.060001373291016 -144.5500030517578,38.51900100708008 -144.5500030517578,38.51900100708008 C-144.5500030517578,27.854999542236328 -135.87399291992188,19.18000030517578 -125.20999908447266,19.18000030517578 C-125.20999908447266,19.18000030517578 -83.66999816894531,19.18000030517578 -83.66999816894531,19.18000030517578 C-73.00599670410156,19.18000030517578 -64.33000183105469,27.854999542236328 -64.33000183105469,38.51900100708008 C-64.33000183105469,38.51900100708008 -64.33000183105469,79.46399688720703 -64.33000183105469,79.46399688720703 C-45.20399856567383,84.04900360107422 -23.792999267578125,86.8479995727539 0,86.8479995727539 C76.83100128173828,86.8479995727539 128.88999938964844,57.70500183105469 159.03399658203125,33.25699996948242 C196.2760009765625,3.049999952316284 215.6699981689453,-31.785999298095703 220.96200561523438,-52.4379997253418 C226.1929931640625,-72.86000061035156 217.86700439453125,-80.90399932861328 212.43699645996094,-83.88300323486328z"></path></g></g></g></svg>