<svg xmlns="http://www.w3.org/2000/svg" xmlns:xlink="http://www.w3.org/1999/xlink" viewBox="0 0 512 512" width="512" height="512" style="width: 100%; height: 100%; transform: translate3d(0,0,0);" preserveAspectRatio="xMidYMid meet"><defs><clipPath id="__lottie_element_53274"><rect width="512" height="512" x="0" y="0"></rect></clipPath></defs><g clip-path="url(#__lottie_element_53274)"><g style="display: block;" transform="matrix(1.0299999713897705,0,0,1.0299999713897705,-7.772491455078125,25.138900756835938)" opacity="1"><g opacity="1" transform="matrix(1,0,0,1,250.75,220.3699951171875)"><path fill="rgb(0,0,0)" fill-opacity="1" d=" M217.5,21.8799991607666 C212.8000030517578,13.260000228881836 209.58999633789062,-54.31999969482422 185.5,-93.12000274658203 C167.30999755859375,-122.41999816894531 122.7300033569336,-174.39999389648438 91.5,-171.1199951171875 C76.05999755859375,-169.5 75.24299621582031,15.416999816894531 54.5,10.880000114440918 C40.891998291015625,7.9029998779296875 55.849998474121094,-167.16000366210938 56.2400016784668,-198.16000366210938 C56.5,-218.1199951171875 10.5,-220.1199951171875 10.5,-220.1199951171875 C10.5,-220.1199951171875 -32.5,-219.1199951171875 -35.5,-202.1199951171875 C-43.9900016784668,-154.02999877929688 -24.716999053955078,9.381999969482422 -36.5,11.880000114440918 C-57.766998291015625,16.38800048828125 -58.5,-170.1199951171875 -70.5,-171.1199951171875 C-99.41999816894531,-173.52999877929688 -150.5,-135.1199951171875 -176.5,-90.12000274658203 C-197.02000427246094,-54.599998474121094 -198.69000244140625,4.150000095367432 -204.5,13.880000114440918 C-209.77000427246094,22.700000762939453 -235.47000122070312,29.709999084472656 -240.5,60.880001068115234 C-250.5,122.87999725341797 -156.61000061035156,219.6199951171875 13.5,219.8800048828125 C169.5,220.1199951171875 250.5,137.8800048828125 250.5,72.87999725341797 C250.5,44.880001068115234 222.2899932861328,30.65999984741211 217.5,21.8799991607666z M138.5,-103.12000274658203 C160.5,-87.12000274658203 191.5,-34.119998931884766 184.88999938964844,13.880000114440918 C183.27000427246094,25.639999389648438 154.5,31.8799991607666 149.5,16.8799991607666 C139.2899932861328,-13.739999771118164 125.5,-44.119998931884766 109.5,-72.12000274658203 C100.55999755859375,-87.7699966430664 119.83000183105469,-116.69999694824219 138.5,-103.12000274658203z M4.5289998054504395,135.43299865722656 C-138.35000610351562,135.80499267578125 -192.0449981689453,67.22100067138672 -180.9949951171875,56.17100143432617 C-168.9949951171875,44.17100143432617 -139.32000732421875,101.82499694824219 3.5,102.60800170898438 C153.66000366210938,103.43099975585938 179.9080047607422,43.34600067138672 192.9080047607422,55.34600067138672 C201.8780059814453,63.625999450683594 158.5290069580078,135.03199768066406 4.5289998054504395,135.43299865722656z"></path></g></g></g></svg>