<svg xmlns="http://www.w3.org/2000/svg" xmlns:xlink="http://www.w3.org/1999/xlink" viewBox="0 0 512 512" width="512" height="512" style="width: 100%; height: 100%; transform: translate3d(0,0,0);" preserveAspectRatio="xMidYMid meet"><defs><clipPath id="__lottie_element_53954"><rect width="512" height="512" x="0" y="0"></rect></clipPath></defs><g clip-path="url(#__lottie_element_53954)"><g style="display: block;" transform="matrix(1,0,0,1,251.66200256347656,253.04600524902344)" opacity="1"><g opacity="1" transform="matrix(1,0,0,1,0,0)"><path fill="rgb(0,0,0)" fill-opacity="1" d=" M130.74,190.57 C129.92,111.61 75.47,132.11 73.93,196.91 C73.27,207.19 74.98,208.83 85.76,207.97 C97.36,207.03 108.94,206.51 120.57,206.39 C131.89,207.53 130.75,199.05 130.74,190.57z M-87.42,36.6 C-79.51,36.24 -72.49,31.35 -73.12,23.45 C-73.92,8.23 -74.99,-7.21 -82.42,-20.98 C-111.17,-70.2 -157.5,34.19 -117.53,37.1 C-112.74,37.49 -92.64,36.63 -87.42,36.6z M56.551998138427734,240.85400390625 C-23.7189998626709,242.58200073242188 -104.99099731445312,247.43499755859375 -184.83200073242188,238.3459930419922 C-196.302001953125,235.2689971923828 -203.66000366210938,228.06700134277344 -206.33599853515625,216.23300170898438 C-210.8990020751953,172.9709930419922 -203.60400390625,129.30299377441406 -205.2030029296875,85.87000274658203 C-205.51100158691406,77.53099822998047 -203.11300659179688,67.63700103759766 -213.51699829101562,64.67400360107422 C-230.66700744628906,58.14699935913086 -235.4929962158203,47.970001220703125 -229.26800537109375,30.44700050354004 C-222.3939971923828,11.097000122070312 -214.95899963378906,-8.07699966430664 -207.07000732421875,-27.03700065612793 C-200.40699768066406,-43.04999923706055 -194.3560028076172,-46.430999755859375 -177.16099548339844,-44.77199935913086 C-171.8679962158203,-44.262001037597656 -169.5,-45.53499984741211 -169.427001953125,-50.823001861572266 C-172.48199462890625,-103.17900085449219 -135.58299255371094,-83.36399841308594 -133.2010040283203,-101.54299926757812 C-134.32699584960938,-114.05999755859375 -171.0540008544922,-110.83000183105469 -154.01100158691406,-146.53500366210938 C-139.41900634765625,-174.35699462890625 -124.41999816894531,-201.97500610351562 -109.11799621582031,-229.4149932861328 C-91.13400268554688,-259.12799072265625 -67.43099975585938,-236.99899291992188 -59.222999572753906,-212.80999755859375 C-48.9900016784668,-190.86199951171875 -36.2140007019043,-170.3070068359375 -24.21299934387207,-149.34800720214844 C-16.69099998474121,-133.82400512695312 -26.023000717163086,-120.02400207519531 -42.41400146484375,-117.86499786376953 C-57.21900177001953,-115.38500213623047 -57.220001220703125,-115.38700103759766 -57.19900131225586,-99.89199829101562 C-57.17399978637695,-81.7040023803711 -57.16999816894531,-81.8550033569336 -39.5629997253418,-81.35800170898438 C-26.28499984741211,-80.98300170898438 -13.026000022888184,-79.87799835205078 0.25200000405311584,-79.64399719238281 C8.222999572753906,-79.50299835205078 9.782999992370605,-80.84300231933594 9.642999649047852,-88.68099975585938 C9.298999786376953,-107.98799896240234 13.206999778747559,-127.18599700927734 10.484000205993652,-146.5850067138672 C9.904000282287598,-165.79200744628906 -10.343999862670898,-154.54400634765625 -11.685999870300293,-173.95399475097656 C-12.565999984741211,-192.73300170898438 10.729000091552734,-185.3249969482422 12.829999923706055,-202.76600646972656 C14.739999771118164,-216.9709930419922 36.428001403808594,-220.22900390625 39.854000091552734,-203.6510009765625 C41.856998443603516,-195.8249969482422 46.18600082397461,-192.17799377441406 53.632999420166016,-190.67799377441406 C70.24199676513672,-186.22900390625 75.03399658203125,-166.7220001220703 56.99100112915039,-159.96800231933594 C53.27199935913086,-157.41099548339844 45.770999908447266,-159.76300048828125 45.57600021362305,-153.17100524902344 C45.35499954223633,-145.7259979248047 44.92900085449219,-137.64500427246094 51.012001037597656,-131.57400512695312 C67.29199981689453,-115.43900299072266 82.45899963378906,-97.9280014038086 94.9530029296875,-78.71299743652344 C104.41400146484375,-63.67100143432617 96.71900177001953,-49.529998779296875 79.38899993896484,-47.20399856567383 C63.30799865722656,-44.790000915527344 62.83399963378906,-44.742000579833984 64.39900207519531,-29.111000061035156 C74.90699768066406,89.59100341796875 41.07899856567383,64.625 122.1709976196289,66.23100280761719 C126.16400146484375,66.11399841308594 131.00999450683594,66.5530014038086 132.04200744628906,61.42399978637695 C133.13600158691406,55.9900016784668 134.02099609375,50.185001373291016 131.0489959716797,44.95500183105469 C126.56900024414062,40.262001037597656 115.32099914550781,44.220001220703125 108.97100067138672,40.86199951171875 C93.96800231933594,36.26300048828125 91.04399871826172,21.055999755859375 98.24800109863281,8.454000473022461 C117.21499633789062,-20.9950008392334 158.71200561523438,-132.88400268554688 193.9149932861328,-59.35599899291992 C204.75100708007812,-38.20199966430664 215.38600158691406,-16.94499969482422 225.875,4.38100004196167 C234.73800659179688,20.075000762939453 236.08900451660156,43.11199951171875 213.69900512695312,46.63399887084961 C199.68699645996094,49.369998931884766 199.60000610351562,49.369998931884766 199.59500122070312,63.95399856567383 C199.12399291992188,112.6780014038086 200.66600036621094,161.5030059814453 199.02200317382812,210.18299865722656 C198.2259979248047,239.46499633789062 170.125,244.97999572753906 145.9290008544922,243.33599853515625 C116.11299896240234,243.697998046875 86.4020004272461,239.76499938964844 56.551998138427734,240.85400390625z"></path><g opacity="1" transform="matrix(1,0,0,1,102.29199981689453,173.76400756835938)"></g><g opacity="1" transform="matrix(1,0,0,1,-103.08799743652344,1.5230000019073486)"></g><g opacity="1" transform="matrix(1,0,0,1,0,0)"></g></g><g opacity="1" transform="matrix(1,0,0,1,158.8070068359375,-166.5919952392578)"><path fill="rgb(0,0,0)" fill-opacity="1" d=" M23.304000854492188,14.706999778747559 C52.361000061035156,11.411999702453613 62.49599838256836,40.854000091552734 39.5,56.82699966430664 C14.51200008392334,69.76000213623047 -17.80299949645996,61.99599838256836 -37.05699920654297,41.821998596191406 C-78.24400329589844,-3.8519999980926514 -28.395000457763672,-82.97000122070312 31.82699966430664,-58.6150016784668 C43.222999572753906,-54.61199951171875 49.185001373291016,-43.78300094604492 47.16299819946289,-32.85300064086914 C44.875999450683594,-16.232999801635742 26.91200065612793,-14.77400016784668 12.237000465393066,-15.248000144958496 C-14.456000328063965,-7.216000080108643 -1.840000033378601,19.326000213623047 23.304000854492188,14.779000282287598 C23.304000854492188,14.755000114440918 23.304000854492188,14.730999946594238 23.304000854492188,14.706999778747559z"></path></g></g></g></svg>