<svg xmlns="http://www.w3.org/2000/svg" xmlns:xlink="http://www.w3.org/1999/xlink" viewBox="0 0 512 512" width="512" height="512" style="width: 100%; height: 100%; transform: translate3d(0,0,0);" preserveAspectRatio="xMidYMid meet"><defs><clipPath id="__lottie_element_53439"><rect width="512" height="512" x="0" y="0"></rect></clipPath></defs><g clip-path="url(#__lottie_element_53439)"><g style="display: block;" transform="matrix(2.962939977645874,0,0,2.962939977645874,2.8374481201171875,2.8374481201171875)" opacity="1"><g opacity="1" transform="matrix(1,0,0,1,84.09500122070312,79.9520034790039)"><path fill="rgb(0,0,0)" fill-opacity="1" d=" M-6.228000164031982,59.82699966430664 C5.223999977111816,45.58300018310547 9.729000091552734,31.68899917602539 9.729000091552734,31.68899917602539 C9.729000091552734,31.68899917602539 21.00200080871582,36.20399856567383 27.326000213623047,38.20199966430664 C48.974998474121094,45.04199981689453 51.237998962402344,19.899999618530273 49.597999572753906,11.180999755859375 C52.2400016784668,10.673999786376953 71.26699829101562,10.92199993133545 78.26000213623047,4.014999866485596 C80.19300079345703,2.1059999465942383 82.20800018310547,-2.2720000743865967 82.11799621582031,-6.144000053405762 C81.71499633789062,-23.402000427246094 74.53700256347656,-37.1349983215332 62.45100021362305,-49.41299819946289 C33.7130012512207,-78.60399627685547 -10.682000160217285,-71.41500091552734 -25.020000457763672,-69.54900360107422 C-36.375999450683594,-68.07099914550781 -52.18600082397461,-75.1510009765625 -54.71200180053711,-72.25499725341797 C-56.1510009765625,-70.60399627685547 -57.89799880981445,-56.400001525878906 -59.00600051879883,-53.29399871826172 C-64.51699829101562,-37.85499954223633 -82.20899963378906,-14.350000381469727 -79.1259994506836,14.78600025177002 C-76.5009994506836,39.60100173950195 -57.56700134277344,64.81999969482422 -42.058998107910156,71.7699966430664 C-26.80500030517578,78.6050033569336 -12.145000457763672,67.18499755859375 -6.228000164031982,59.82699966430664z M-36.70399856567383,-16.672000885009766 C-40.617000579833984,-8.029000282287598 -45.8129997253418,-2.7200000286102295 -50.50299835205078,29.0049991607666 C-50.52199935913086,29.090999603271484 -64.7030029296875,-3.1080000400543213 -50.66699981689453,-24.027000427246094 C-44.27799987792969,-33.54899978637695 -34.45100021362305,-21.648000717163086 -36.70399856567383,-16.672000885009766z"></path></g><g opacity="1" transform="matrix(1,0,0,1,116.81600189208984,129.39599609375)"><path fill="rgb(0,0,0)" fill-opacity="1" d=" M-1.8799999952316284,0.24500000476837158 C-6.183000087738037,-0.5619999766349792 -13.208000183105469,-3.7339999675750732 -17.049999237060547,-5.040999889373779 C-28.791000366210938,22.4950008392334 -47.5260009765625,32.185001373291016 -47.5260009765625,32.185001373291016 C-47.32699966430664,32.917999267578125 -37.75899887084961,34.30099868774414 -33.17599868774414,34.39899826049805 C-21.41200065612793,34.652000427246094 -9.89900016784668,33.77799987792969 0.7630000114440918,28.027999877929688 C2.0959999561309814,27.30900001525879 3.9630000591278076,27.499000549316406 5.590000152587891,27.420000076293945 C13.875,27.016000747680664 20.503999710083008,23.72800064086914 26.78700065612793,18.054000854492188 C39.58300018310547,6.499000072479248 47.03200149536133,-24.746999740600586 47.5260009765625,-34.652000427246094 C38.375,-30.767000198364258 26.89299964904785,-30.66699981689453 26.89299964904785,-30.66699981689453 C26.115999221801758,-26.496999740600586 24.950000762939453,3.5199999809265137 -1.8799999952316284,0.24500000476837158z"></path></g></g></g></svg>