<svg xmlns="http://www.w3.org/2000/svg" xmlns:xlink="http://www.w3.org/1999/xlink" viewBox="0 0 512 512" width="512" height="512" style="width: 100%; height: 100%; transform: translate3d(0,0,0);" preserveAspectRatio="xMidYMid meet"><defs><clipPath id="__lottie_element_27219"><rect width="512" height="512" x="0" y="0"></rect></clipPath></defs><g clip-path="url(#__lottie_element_27219)"><g style="display: block;" transform="matrix(1,0,0,1,0,0)" opacity="1"><g opacity="1" transform="matrix(1,0,0,1,256,257.33599853515625)"><path fill="rgb(65,63,63)" fill-opacity="1" d=" M30.393999099731445,-206.2989959716797 C74.51399993896484,-173.19000244140625 151.22900390625,-78.20600128173828 160.92599487304688,-24.486000061035156 C164.90199279785156,-2.4600000381469727 162.86000061035156,23.05900001525879 164.40199279785156,45.507999420166016 C169.83700561523438,46.59400177001953 170.83399963378906,44.17300033569336 173.177001953125,40.15599822998047 C183.0189971923828,23.277000427246094 173.1269989013672,-17.226999282836914 176.98500061035156,-37.31999969482422 C178.72900390625,-46.402000427246094 195.49200439453125,-48.641998291015625 203.51300048828125,-48.09199905395508 C238.31199645996094,-45.702999114990234 262.33599853515625,13.300999641418457 254.52000427246094,42.5 C251.17599487304688,54.9900016784668 234.6739959716797,64.47799682617188 233.88499450683594,72.13400268554688 C233.16400146484375,79.13800048828125 239.09800720214844,89.46499633789062 239.88900756835938,97.40599822998047 C243.4770050048828,133.39300537109375 239.197998046875,170.4029998779297 219.4720001220703,201.55599975585938 C209.5970001220703,217.15199279785156 177.05299377441406,248.6739959716797 158.86199951171875,229.10499572753906 C154.468994140625,224.37899780273438 156.13900756835938,214.36099243164062 153.1750030517578,208.1479949951172 C150.86099243164062,203.29600524902344 141.8419952392578,197.83200073242188 137.8090057373047,192.10899353027344 C118.53500366210938,164.75900268554688 113.74600219726562,132.947998046875 126.46900177001953,101.78600311279297 C107.10199737548828,99.46600341796875 87.82099914550781,98.2509994506836 69.68000030517578,90.68699645996094 C59.39799880981445,86.4000015258789 57.10100173950195,80.78099822998047 50.99300003051758,78.08799743652344 C-31.822999954223633,41.582000732421875 -156.15899658203125,10.729999542236328 -229.43800354003906,79.41799926757812 C-271.23199462890625,65.0530014038086 -257.15399169921875,7.49399995803833 -231.92599487304688,-16.746999740600586 C-219.41299438476562,-28.770999908447266 -160.4709930419922,-43.8650016784668 -158.26199340820312,-50.196998596191406 C-156.80599975585938,-54.36899948120117 -157.3419952392578,-59.90299987792969 -159.43899536132812,-63.89500045776367 C-164.2429962158203,-71.88500213623047 -178.68299865722656,-73.54199981689453 -200.4010009765625,-69.93399810791016 C-206.98699951171875,-68.83999633789062 -212.6439971923828,-61.58599853515625 -217.9810028076172,-65.447998046875 C-208.06399536132812,-124.08799743652344 -191.8699951171875,-196.38999938964844 -132.74899291992188,-224.89100646972656 C-83.41500091552734,-248.6739959716797 -12.718999862670898,-238.65199279785156 30.393999099731445,-206.2989959716797z"></path></g><g opacity="1" transform="matrix(1,0,0,1,167.927001953125,367.83599853515625)"><path fill="rgb(65,63,63)" fill-opacity="1" d=" M84.26300048828125,9.302000045776367 C71.83799743652344,21.275999069213867 16.981000900268555,29.39299964904785 -36.27199935913086,22.143999099731445 C-46.35599899291992,20.770999908447266 -80.78900146484375,10.640000343322754 -86.7490005493164,4.079999923706055 C-91.4469985961914,-1.090000033378601 -89.72599792480469,-17.334999084472656 -84.35299682617188,-21.530000686645508 C-74.28600311279297,-29.392000198364258 -54.54499816894531,-22.999000549316406 -43.10100173950195,-21.100000381469727 C23.97800064086914,-9.970000267028809 59.98899841308594,-26.215999603271484 79.43199920654297,-17.288000106811523 C89.90299987792969,-12.479000091552734 91.447998046875,2.378000020980835 84.26300048828125,9.302000045776367z"></path></g></g></g></svg>