<svg xmlns="http://www.w3.org/2000/svg" xmlns:xlink="http://www.w3.org/1999/xlink" viewBox="0 0 512 512" width="512" height="512" style="width: 100%; height: 100%; transform: translate3d(0,0,0);" preserveAspectRatio="xMidYMid meet"><defs><clipPath id="__lottie_element_9038"><rect width="512" height="512" x="0" y="0"></rect></clipPath></defs><g clip-path="url(#__lottie_element_9038)"><g style="display: block;" transform="matrix(1.0299999713897705,0,0,1.0299999713897705,-1.7664337158203125,-4.982635498046875)" opacity="1"><g opacity="1" transform="matrix(1,0,0,1,249.21400451660156,254.7550048828125)"><path fill="rgb(0,0,0)" fill-opacity="1" d=" M198.44500732421875,-206.63499450683594 C157.13400268554688,-226.40499877929688 140.1750030517578,-189.94500732421875 133.78599548339844,-193.9149932861328 C126.66600036621094,-198.35499572753906 141.95599365234375,-222.01499938964844 97.23600006103516,-240.1649932861328 C61.91600036621094,-254.5050048828125 29.106000900268555,-224.26499938964844 20.666000366210938,-188.4149932861328 C11.996000289916992,-151.60499572753906 41.69499969482422,-105.06500244140625 67.57499694824219,-79.09500122070312 C60.165000915527344,-57.80500030517578 51.13399887084961,-30.5049991607666 43.20500183105469,-9.354999542236328 C30.354999542236328,-11.725000381469727 16.326000213623047,-12.414999961853027 1.0759999752044678,-11.085000038146973 C-23.04400062561035,-8.975000381469727 -46.54399871826172,-1.1549999713897705 -67.6240005493164,10.854000091552734 C-74.33399963378906,-11.53499984741211 -81.6240005493164,-39.224998474121094 -87.51399993896484,-59.96500015258789 C-59.90399932861328,-81.56500244140625 -27.70400047302246,-129.1750030517578 -30.923999786376953,-168.4149932861328 C-34.59400177001953,-213.0850067138672 -62.59400177001953,-231.7449951171875 -102.92400360107422,-225.4149932861328 C-147.10400390625,-218.47500610351562 -140.593994140625,-179.7449951171875 -147.9239959716797,-179.4149932861328 C-156.11399841308594,-179.0449981689453 -156.8939971923828,-206.5449981689453 -202.9239959716797,-196.4149932861328 C-239.28399658203125,-188.4149932861328 -248.96400451660156,-145.93499755859375 -235.9239959716797,-112.41500091552734 C-221.26400756835938,-74.73500061035156 -163.13400268554688,-53.095001220703125 -128.12399291992188,-48.915000915527344 C-123.8740005493164,-27.28499984741211 -113.06400299072266,8.984999656677246 -102.53399658203125,36.6349983215332 C-154.66400146484375,85.66500091552734 -175.82400512695312,163.71499633789062 -118.59400177001953,230.9149932861328 C-98.50399780273438,254.5050048828125 -63.444000244140625,233.9250030517578 -71.25399780273438,208.2550048828125 C-103.92400360107422,100.91500091552734 -27.924999237060547,73.58499908447266 10.423999786376953,68.01499938964844 C57.025001525878906,61.244998931884766 104.07499694824219,96.25499725341797 102.74500274658203,172.9149932861328 C102.2249984741211,202.4340057373047 140.98500061035156,193.8249969482422 148.7449951171875,165.5850067138672 C162.43499755859375,115.69499969482422 142.2050018310547,38.14400100708008 82.2750015258789,4.614999771118164 C91.1050033569336,-15.944999694824219 99.875,-39.6349983215332 105.5250015258789,-57.98500061035156 C140.21400451660156,-56.19499969482422 204.13400268554688,-78.3550033569336 226.14500427246094,-116.76499938964844 C248.96400451660156,-156.5850067138672 236.15499877929688,-188.5850067138672 198.44500732421875,-206.63499450683594z M-93.4739990234375,-199.0749969482422 C-83.71399688720703,-203.84500122070312 -70.63400268554688,-197.11500549316406 -64.25399780273438,-184.0449981689453 C-57.874000549316406,-170.97500610351562 -60.61399841308594,-156.51499938964844 -70.3740005493164,-151.7550048828125 C-80.13400268554688,-146.98500061035156 -93.21399688720703,-153.71499633789062 -99.59400177001953,-166.78500366210938 C-105.9739990234375,-179.85499572753906 -103.23400115966797,-194.31500244140625 -93.4739990234375,-199.0749969482422z M192.23599243164062,-130.0050048828125 C181.1750030517578,-128.875 170.98599243164062,-139.97500610351562 169.4759979248047,-154.7949981689453 C167.9759979248047,-169.61500549316406 175.7259979248047,-182.53500366210938 186.78599548339844,-183.65499877929688 C197.8560028076172,-184.78500366210938 208.04600524902344,-173.68499755859375 209.54600524902344,-158.86500549316406 C211.05599975585938,-144.0449981689453 203.30599975585938,-131.125 192.23599243164062,-130.0050048828125z"></path></g></g></g></svg>