<svg xmlns="http://www.w3.org/2000/svg" xmlns:xlink="http://www.w3.org/1999/xlink" viewBox="0 0 512 512" width="512" height="512" style="width: 100%; height: 100%; transform: translate3d(0,0,0);" preserveAspectRatio="xMidYMid meet"><defs><clipPath id="__lottie_element_54178"><rect width="512" height="512" x="0" y="0"></rect></clipPath></defs><g clip-path="url(#__lottie_element_54178)"><g style="display: block;" transform="matrix(1,0,0,1,0,0)" opacity="1"><g opacity="1" transform="matrix(1,0,0,1,256,256)"><path fill="rgb(65,63,63)" fill-opacity="1" d=" M233.8679962158203,17.760000228881836 C225.12100219726562,3.7990000247955322 214.98599243164062,-5.861000061035156 205.50999450683594,-18.947999954223633 C216.85699462890625,-159.30499267578125 131.69700622558594,-268.9280090332031 -22.875999450683594,-254.76600646972656 C-100.98799896240234,-247.61000061035156 -189.20899963378906,-185.3260040283203 -219.1479949951172,-115.83399963378906 C-232.08900451660156,-85.7959976196289 -269.3659973144531,23.392000198364258 -201.66900634765625,7.375 C-199.69900512695312,21.173999786376953 -218.25599670410156,23.976999282836914 -224.5030059814453,35.87099838256836 C-231.4929962158203,49.17900085449219 -227.88099670410156,63.569000244140625 -230.73300170898438,76.94999694824219 C-235.0070037841797,97.00399780273438 -251.4759979248047,114.95899963378906 -250.91400146484375,140.66200256347656 C-249.87399291992188,188.2969970703125 -168.1300048828125,265.3190002441406 -117.3949966430664,255.072998046875 C-107.84600067138672,253.14500427246094 -95.98400115966797,243.34100341796875 -88.10399627685547,242.64199829101562 C-75.73100280761719,241.5449981689453 -61.28200149536133,247.02999877929688 -44.95899963378906,243.8730010986328 C-27.483999252319336,240.49200439453125 -11.788999557495117,222.84800720214844 -5.895999908447266,207.38900756835938 C21.05699920654297,136.66900634765625 -38.262001037597656,-10.269000053405762 -131.71200561523438,-9.288999557495117 C-140.5780029296875,-15.303999900817871 -128.6060028076172,-73.0770034790039 -125.1989974975586,-84.00700378417969 C-94.30699920654297,-183.1179962158203 51.11800003051758,-243.1909942626953 119.02100372314453,-142.15199279785156 C134.11399841308594,-119.69400024414062 138.0240020751953,-88.31600189208984 149.2969970703125,-70.35700225830078 C154.54400634765625,-61.99800109863281 181.218994140625,-57.077999114990234 165.9949951171875,-37.35300064086914 C129.94700622558594,-43.448001861572266 101.9489974975586,-41.84700012207031 71.93800354003906,-20.45599937438965 C4.40500020980835,27.68000030517578 8.791000366210938,89.68199920654297 29.020999908447266,161.47799682617188 C35.904998779296875,185.91099548339844 41.54499816894531,198.75999450683594 61.2239990234375,215.73899841308594 C85.58300018310547,236.7550048828125 127.44400024414062,229.34300231933594 156.54200744628906,224.0970001220703 C173.95599365234375,220.95700073242188 201.44400024414062,203.85699462890625 213.14500427246094,191.11500549316406 C252.08599853515625,148.71600341796875 264.2239990234375,66.21199798583984 233.8679962158203,17.760000228881836z M-98.44499969482422,79.80400085449219 C-82.23600006103516,105.11000061035156 -72.3550033569336,136.9010009765625 -70.81099700927734,166.43299865722656 C-76.88700103759766,167.51199340820312 -74.92900085449219,165.343994140625 -76.5510025024414,161.9810028076172 C-93.1259994506836,127.62200164794922 -98.69400024414062,100.54000091552734 -123.5719985961914,68.0469970703125 C-128.5749969482422,61.51300048828125 -138.2100067138672,56.82400131225586 -138.55299377441406,47.70600128173828 C-121.97599792480469,48.12699890136719 -106.5510025024414,67.14800262451172 -98.44499969482422,79.80400085449219z M115.85800170898438,91.11299896240234 C114.59200286865234,103.03600311279297 105.79100036621094,133.11300659179688 96.76699829101562,141.10699462890625 C95.28500366210938,142.4199981689453 92.4260025024414,143.95899963378906 90.36699676513672,143.05999755859375 C75.10800170898438,135.7050018310547 93.64199829101562,85.15699768066406 99.38600158691406,73.0770034790039 C101.71600341796875,68.1780014038086 104.37699890136719,62.9119987487793 107.78099822998047,58.62900161743164 C109.04199981689453,57.04199981689453 108.61000061035156,52.652000427246094 112.60199737548828,54.4379997253418 C118.21399688720703,56.94900131225586 116.54499816894531,84.64700317382812 115.85800170898438,91.11299896240234z M209.69900512695312,80.28299713134766 C209.3520050048828,88.12300109863281 202.04400634765625,132.677001953125 192.08700561523438,132.79100036621094 C188.6320037841797,130.5070037841797 188.58399963378906,128.81199645996094 188.50399780273438,125.09300231933594 C188.2429962158203,112.9469985961914 195.12399291992188,92.0989990234375 195.68899536132812,78.03500366210938 C196.3300018310547,62.0989990234375 192.95599365234375,47.720001220703125 193.26800537109375,32.020999908447266 C209.1020050048828,37.13999938964844 210.31900024414062,66.27400207519531 209.69900512695312,80.28299713134766z"></path></g></g></g></svg>