<svg xmlns="http://www.w3.org/2000/svg" xmlns:xlink="http://www.w3.org/1999/xlink" viewBox="0 0 512 512" width="512" height="512" style="width: 100%; height: 100%; transform: translate3d(0,0,0);" preserveAspectRatio="xMidYMid meet"><defs><clipPath id="__lottie_element_52578"><rect width="512" height="512" x="0" y="0"></rect></clipPath></defs><g clip-path="url(#__lottie_element_52578)"><g style="display: block;" transform="matrix(1,0,0,1,256,256)" opacity="1"><g opacity="1" transform="matrix(1,0,0,1,0,0)"><path fill="rgb(0,0,0)" fill-opacity="1" d=" M-242.73500061035156,-91.26000213623047 C-263.6830139160156,91.71900177001953 -61.44300079345703,133.33700561523438 9.673999786376953,229.302001953125 C16.731000900268555,238.82400512695312 31.4950008392334,237.31900024414062 36.573001861572266,226.61000061035156 C86.76599884033203,120.75900268554688 264.8179931640625,43.189998626708984 224.8800048828125,-126.8290023803711 C202.71400451660156,-221.19000244140625 97.07099914550781,-265.5669860839844 18.583999633789062,-215.625 C11.218000411987305,-210.93800354003906 8.857999801635742,-201.22000122070312 13.432000160217285,-193.7830047607422 C26.450000762939453,-172.6179962158203 32.6609992980957,-150.86500549316406 36.03300094604492,-124.28500366210938 C37.75,-110.75 28.25,-103.75 24.80699920654297,-116.31400299072266 C17.75,-142.07000732421875 2.6010000705718994,-165.14599609375 -16.833999633789062,-183.30599975585938 C-16.854999542236328,-183.2790069580078 -16.875999450683594,-183.25100708007812 -16.89699935913086,-183.2239990234375 C-100.63899993896484,-256.6830139160156 -234.19000244140625,-203.7100067138672 -242.73500061035156,-91.26000213623047z"></path></g></g></g></svg>