<svg xmlns="http://www.w3.org/2000/svg" xmlns:xlink="http://www.w3.org/1999/xlink" viewBox="0 0 512 512" width="512" height="512" style="width: 100%; height: 100%; transform: translate3d(0,0,0);" preserveAspectRatio="xMidYMid meet"><defs><clipPath id="__lottie_element_52876"><rect width="512" height="512" x="0" y="0"></rect></clipPath></defs><g clip-path="url(#__lottie_element_52876)"><g style="display: block;" transform="matrix(1,0,0,1,256,256)" opacity="1"><g opacity="1" transform="matrix(1,0,0,1,0,0)"><path fill="rgb(0,0,0)" fill-opacity="1" d=" M143.9499969482422,-196.64999389648438 C124.98999786376953,-246.22999572753906 70.60700225830078,-262.7019958496094 26.048999786376953,-239.8489990234375 C-8.385000228881836,-225.99200439453125 -31.45199966430664,-169.32400512695312 -25.100000381469727,-136 C-62.24800109863281,-184.5189971923828 -144.87600708007812,-193.9409942626953 -181.24899291992188,-137.1479949951172 C-218.48899841308594,-79.70999908447266 -170.52999877929688,-11.859999656677246 -114.6510009765625,19.749000549316406 C-75.45999908447266,44.297000885009766 -17.510000228881836,57.111000061035156 33.29999923706055,64.0999984741211 C32.733001708984375,91.18900299072266 43.83000183105469,123.23799896240234 78.1500015258789,101.69999694824219 C83.53900146484375,106.56199645996094 88.10299682617188,110.78299713134766 90.19999694824219,116.8499984741211 C91.8270034790039,126.71800231933594 90.62899780273438,141.63699340820312 79.9489974975586,149.3000030517578 C69.9749984741211,158.41400146484375 29.68899917602539,178.0679931640625 21.600000381469727,186.25 C0.7070000171661377,201.23599243164062 -12.689000129699707,240.79299926757812 16.14900016784668,249.55099487304688 C31.94300079345703,253.75100708007812 44.7130012512207,235.60699462890625 33.95000076293945,222.85000610351562 C42.108001708984375,203.28500366210938 88.447998046875,188.7100067138672 101.4000015258789,174.39999389648438 C101.4000015258789,174.26699829101562 101.44999694824219,174.1999969482422 101.55000305175781,174.1999969482422 C130.02000427246094,150.16799926757812 132.02000427246094,105.41200256347656 105,81.75 C124.75399780273438,60.659000396728516 101.74700164794922,41.3390007019043 80.94999694824219,34.75 C136.2050018310547,-26.582000732421875 175.7449951171875,-120.94499969482422 143.9499969482422,-196.64999389648438 M68.0999984741211,-214.4499969482422 C83.3030014038086,-216.9499969482422 99.73300170898438,-210.1959991455078 108,-197.14999389648438 C116.68199920654297,-184.60499572753906 110.94499969482422,-171.2310028076172 95.80000305175781,-168.9499969482422 C67.98899841308594,-162.23199462890625 23.854999542236328,-204.10000610351562 68.0999984741211,-214.4499969482422 M110.44999694824219,-158.60000610351562 C124.15799713134766,-170.25399780273438 140.5279998779297,-149.79299926757812 127.9489974975586,-138.2989959716797 C114.73100280761719,-126.85800170898438 96.75199890136719,-146.7519989013672 110.44999694824219,-158.60000610351562z"></path></g></g></g></svg>