<svg xmlns="http://www.w3.org/2000/svg" xmlns:xlink="http://www.w3.org/1999/xlink" viewBox="0 0 512 512" width="512" height="512" style="width: 100%; height: 100%; transform: translate3d(0,0,0);" preserveAspectRatio="xMidYMid meet"><defs><clipPath id="__lottie_element_15926"><rect width="512" height="512" x="0" y="0"></rect></clipPath></defs><g clip-path="url(#__lottie_element_15926)"><g style="display: block;" transform="matrix(1,0,0,1,26.980010986328125,18.75)" opacity="1"><g opacity="1" transform="matrix(1,0,0,1,230.75,240.25)"><path fill="rgb(0,0,0)" fill-opacity="1" d=" M-167.72999572753906,37 C-162.72999572753906,23 114.2699966430664,54 206.27000427246094,-69 C230.46800231933594,-101.35199737548828 203.26300048828125,-164.9510040283203 116.2699966430664,-178 C56.27000045776367,-187 15.697999954223633,-158.71299743652344 12.270000457763672,-168 C8.404999732971191,-178.4720001220703 4.561999797821045,-230.37899780273438 -46.72999954223633,-234 C-131.72999572753906,-240 -196.72999572753906,-172 -217.44700622558594,-108 C-230.5,-67.68099975585938 -214.07200622558594,76.3759994506836 -201.72999572753906,171 C-192.72999572753906,240 -17.031999588012695,234.10400390625 49.27000045776367,217 C110.31400299072266,201.2530059814453 198.90899658203125,166.2570037841797 204.27000427246094,152 C211.8350067138672,131.8820037841797 230.50100708007812,26 209.27000427246094,13 C187.8280029296875,-0.12999999523162842 147.27000427246094,44 34.27000045776367,57 C-73.87100219726562,69.44100189208984 -172.16700744628906,49.422000885009766 -167.72999572753906,37z"></path></g></g></g></svg>