<svg xmlns="http://www.w3.org/2000/svg" xmlns:xlink="http://www.w3.org/1999/xlink" viewBox="0 0 512 512" width="512" height="512" style="width: 100%; height: 100%; transform: translate3d(0,0,0);" preserveAspectRatio="xMidYMid meet"><defs><clipPath id="__lottie_element_15851"><rect width="512" height="512" x="0" y="0"></rect></clipPath></defs><g clip-path="url(#__lottie_element_15851)"><g style="display: block;" transform="matrix(1,0,0,1,256,256)" opacity="1"><g opacity="1" transform="matrix(1,0,0,1,0,0)"><path fill="rgb(0,0,0)" fill-opacity="1" d=" M252.61900329589844,-97.3030014038086 C239.0019989013672,-212.88600158691406 75.177001953125,-248.79100036621094 4.229000091552734,-169.3159942626953 C0.9210000038146973,-169.28199768066406 -0.7889999747276306,-169.26600646972656 -4.0970001220703125,-169.23199462890625 C-77.86000061035156,-248.697998046875 -238.5449981689453,-209.80099487304688 -252.3769989013672,-96.18399810791016 C-274.07501220703125,82.09700012207031 -70.00199890136719,203.35800170898438 -6.014999866485596,202.75900268554688 C75,202 272.0580139160156,67.63200378417969 252.61900329589844,-97.3030014038086z M158.56500244140625,-50.28799819946289 C158.56500244140625,-50.28799819946289 171.3719940185547,-64.15299987792969 171.3719940185547,-64.15299987792969 C179.58099365234375,-73.05400085449219 193.45599365234375,-73.61299896240234 202.3470001220703,-65.39399719238281 C211.2480010986328,-57.185001373291016 211.8070068359375,-43.31999969482422 203.58799743652344,-34.41899871826172 C203.58799743652344,-34.41899871826172 190.781005859375,-20.54400062561035 190.781005859375,-20.54400062561035 C182.57200622558594,-11.642999649047852 168.70700073242188,-11.093999862670898 159.80599975585938,-19.30299949645996 C155.1269989013672,-23.625999450683594 152.74600219726562,-29.516000747680664 152.74600219726562,-35.41600036621094 C152.74600219726562,-40.736000061035156 154.66900634765625,-46.06700134277344 158.56500244140625,-50.28799819946289z M86.18900299072266,-158.12399291992188 C93.177001953125,-168.02200317382812 106.85900115966797,-170.37100219726562 116.74700164794922,-163.39300537109375 C116.74700164794922,-163.39300537109375 132.16799926757812,-152.50900268554688 132.16799926757812,-152.50900268554688 C142.0659942626953,-145.52099609375 144.427001953125,-131.83900451660156 137.43800354003906,-121.95099639892578 C133.16600036621094,-115.89800262451172 126.38999938964844,-112.66400146484375 119.51399993896484,-112.66400146484375 C115.13999938964844,-112.66400146484375 110.73500061035156,-113.97599792480469 106.88999938964844,-116.68199920654297 C106.88999938964844,-116.68199920654297 91.45800018310547,-127.56600189208984 91.45800018310547,-127.56600189208984 C81.57099914550781,-134.5540008544922 79.21099853515625,-148.2259979248047 86.18900299072266,-158.12399291992188z M-0.48899999260902405,-78.75399780273438 C8.5,-78.83100128173828 12.5,-98.5 38.560001373291016,-97.60600280761719 C57.7239990234375,-96.947998046875 75,-86.79199981689453 76.23400115966797,-58.45199966430664 C77.73600006103516,-23.961999893188477 18.5,10.616999626159668 -0.6240000128746033,10.8149995803833 C-18.5,11 -77.3270034790039,-18.916000366210938 -76.83000183105469,-58.005001068115234 C-76.5,-83.98200225830078 -57.5260009765625,-97.09500122070312 -37.51900100708008,-95.9800033569336 C-15.5,-94.75299835205078 -8.857000350952148,-78.68299865722656 -0.48899999260902405,-78.75399780273438z M-129.4550018310547,-148.06300354003906 C-129.4550018310547,-148.06300354003906 -115.38600158691406,-160.65699768066406 -115.38600158691406,-160.65699768066406 C-106.36299896240234,-168.73399353027344 -92.50900268554688,-167.9709930419922 -84.43199920654297,-158.947998046875 C-80.68900299072266,-154.76699829101562 -78.83699798583984,-149.53799438476562 -78.83699798583984,-144.3300018310547 C-78.83699798583984,-138.30799865722656 -81.29900360107422,-132.3159942626953 -86.14099884033203,-127.98300170898438 C-86.14099884033203,-127.98300170898438 -100.20899963378906,-115.38999938964844 -100.20899963378906,-115.38999938964844 C-109.23200225830078,-107.31300354003906 -123.08699798583984,-108.08599853515625 -131.16400146484375,-117.10900115966797 C-139.24099731445312,-126.13200378417969 -138.47799682617188,-139.98599243164062 -129.4550018310547,-148.06300354003906z M-203.9429931640625,-67.79499816894531 C-195.04200744628906,-76.00399780273438 -181.177001953125,-75.44499969482422 -172.95799255371094,-66.55400085449219 C-172.95799255371094,-66.55400085449219 -160.1510009765625,-52.67900085449219 -160.1510009765625,-52.67900085449219 C-156.26499938964844,-48.46799850463867 -154.3419952392578,-43.137001037597656 -154.3419952392578,-37.81700134277344 C-154.3419952392578,-31.906999588012695 -156.71299743652344,-26.017000198364258 -161.39199829101562,-21.694000244140625 C-170.29299926757812,-13.484999656677246 -184.16799926757812,-14.034000396728516 -192.3769989013672,-22.934999465942383 C-192.3769989013672,-22.934999465942383 -205.1840057373047,-36.810001373291016 -205.1840057373047,-36.810001373291016 C-213.39300537109375,-45.71099853515625 -212.843994140625,-59.57600021362305 -203.9429931640625,-67.79499816894531z M-2.9000000953674316,158.39100646972656 C-94.1050033569336,159.8179931640625 -192,51 -158.93800354003906,67.99299621582031 C-125.96800231933594,84.93900299072266 -116.7249984741211,53.819000244140625 -88.40899658203125,59.59400177001953 C-57,66 -48,103 -1.9539999961853027,102.44100189208984 C47.62200164794922,101.83899688720703 50.172000885009766,71.71099853515625 79.81999969482422,60.99399948120117 C113,49 108,82 145.88400268554688,70.4800033569336 C182.7830047607422,59.2599983215332 86,157 -2.9000000953674316,158.39100646972656z"></path></g></g></g></svg>