<svg xmlns="http://www.w3.org/2000/svg" xmlns:xlink="http://www.w3.org/1999/xlink" viewBox="0 0 512 512" width="512" height="512" style="width: 100%; height: 100%; transform: translate3d(0,0,0);" preserveAspectRatio="xMidYMid meet"><defs><clipPath id="__lottie_element_15921"><rect width="512" height="512" x="0" y="0"></rect></clipPath></defs><g clip-path="url(#__lottie_element_15921)"><g style="display: block;" transform="matrix(1.0199999809265137,0,0,1.0199999809265137,-7.73858642578125,0.768310546875)" opacity="1"><g opacity="1" transform="matrix(1,0,0,1,256.25,249.0850067138672)"><path fill="rgb(0,0,0)" fill-opacity="1" d=" M193,-136.76499938964844 C191.57000732421875,-137.39500427246094 190.16000366210938,-137.96499633789062 188.7689971923828,-138.48500061035156 C174.2100067138672,-169.96499633789062 165.1790008544922,-202.28500366210938 155,-232.8350067138672 C149.6699981689453,-248.8350067138672 112.33000183105469,-244.5050048828125 120,-216.8350067138672 C125.80899810791016,-195.86500549316406 133.7989959716797,-161.22500610351562 140.50900268554688,-137.60499572753906 C114.51899719238281,-125.33499908447266 99.87000274658203,-96.66500091552734 92.13899993896484,-92.57499694824219 C85.23999786376953,-88.91500091552734 11.710000038146973,-111.83499908447266 4.880000114440918,-31.614999771118164 C3.700000047683716,-17.80500030517578 4.848999977111816,-5.315000057220459 7.848999977111816,5.934999942779541 C-1.0700000524520874,11.475000381469727 -10.41100025177002,18.78499984741211 -17.969999313354492,25.885000228881836 C-22.979999542236328,21.594999313354492 -28.729999542236328,17.704999923706055 -35.310001373291016,14.305000305175781 C-94.13999938964844,-16.155000686645508 -119.7300033569336,37.654998779296875 -132,43.165000915527344 C-134.531005859375,44.30500030517578 -147.5800018310547,41.76499938964844 -163.8300018310547,41.584999084472656 C-126.0199966430664,-23.834999084472656 -83.16999816894531,-98.92500305175781 -63,-132.8350067138672 C-51.709999084472656,-151.81500244140625 -75.7300033569336,-176.15499877929688 -94,-153.8350067138672 C-131.7100067138672,-107.75499725341797 -199.50999450683594,8.505000114440918 -217.6300048828125,56.185001373291016 C-228.82000732421875,64.96499633789062 -237.41099548339844,78.75499725341797 -240.22000122070312,100.16500091552734 C-256,220.1649932861328 -83.08999633789062,248.8350067138672 -55,235.1649932861328 C-26.160999298095703,221.13499450683594 28.200000762939453,125.07499694824219 5.150000095367432,59.7760009765625 C11.598999977111816,53.82500076293945 19.099000930786133,47.724998474121094 26.670000076293945,42.435001373291016 C71.0989990234375,96.68499755859375 168.3699951171875,104.4749984741211 188.5399932861328,92.9749984741211 C224.27999877929688,72.59500122070312 292.3599853515625,-93.30500030517578 193,-136.76499938964844z M-88,200.1649932861328 C-163.08999633789062,198.5449981689453 -207.531005859375,128.61500549316406 -188,88.16500091552734 C-174,59.165000915527344 -138,71.56600189208984 -143,93.16500091552734 C-150.00999450683594,123.45500183105469 -115.06999969482422,157.6060028076172 -75,165.1649932861328 C-59.099998474121094,168.1649932861328 -65.94000244140625,200.64599609375 -88,200.1649932861328z M153.86000061035156,61.46500015258789 C84,61.46500015258789 45.51900100708008,1.125 49.86000061035156,-40.53499984741211 C53.20000076293945,-72.56500244140625 88.30899810791016,-65.23500061035156 92.86000061035156,-43.53499984741211 C99.12000274658203,-13.71500015258789 125.79000091552734,19.905000686645508 165.86000061035156,27.46500015258789 C181.7689971923828,30.46500015258789 175.9290008544922,61.46500015258789 153.86000061035156,61.46500015258789z"></path></g></g></g></svg>