<svg xmlns="http://www.w3.org/2000/svg" xmlns:xlink="http://www.w3.org/1999/xlink" viewBox="0 0 512 512" width="512" height="512" style="width: 100%; height: 100%; transform: translate3d(0,0,0);" preserveAspectRatio="xMidYMid meet"><defs><clipPath id="__lottie_element_15746"><rect width="512" height="512" x="0" y="0"></rect></clipPath></defs><g clip-path="url(#__lottie_element_15746)"><g style="display: block;" transform="matrix(1,0,0,1,24.1300048828125,-9.760009765625)" opacity="1"><g opacity="1" transform="matrix(1,0,0,1,230.33999633789062,261.1449890136719)"><path fill="rgb(0,0,0)" fill-opacity="1" d=" M130.52999877929688,-66.38500213623047 C19.739999771118164,-73.20500183105469 10.300000190734863,4.614999771118164 -0.4699999988079071,6.614999771118164 C-7.119999885559082,7.84499979019165 -31.440000534057617,-30.94499969482422 -86.27999877929688,-31.71500015258789 C-101.45999908447266,-66.55500030517578 -117.45999908447266,-108.08499908447266 -113.47000122070312,-125.38500213623047 C-107.47000122070312,-151.38499450683594 -7.420000076293945,-175.64500427246094 9.529999732971191,-168.38499450683594 C23.530000686645508,-162.38499450683594 23.1299991607666,-123.6449966430664 33.529998779296875,-105.38500213623047 C42.7400016784668,-89.2249984741211 92.52999877929688,-99.38500213623047 92.52999877929688,-123.38500213623047 C92.52999877929688,-158.78500366210938 80.52999877929688,-214.38499450683594 48.529998779296875,-235.38499450683594 C9.65999984741211,-260.8949890136719 -162.47000122070312,-208.38499450683594 -184.47000122070312,-162.38499450683594 C-199.8300018310547,-130.27499389648438 -175.75,-65.17500305175781 -154.1699981689453,-14.574999809265137 C-198.2899932861328,9.524999618530273 -230.08999633789062,58.095001220703125 -211.47000122070312,119.61499786376953 C-175.89999389648438,237.15499877929688 1.5299999713897705,251.38499450683594 41.529998779296875,251.3350067138672 C62.599998474121094,251.30499267578125 221.52999877929688,149.61500549316406 227.52999877929688,34.6150016784668 C230.08999633789062,-14.414999961853027 195.52999877929688,-62.3849983215332 130.52999877929688,-66.38500213623047z M68.52999877929688,157.61500549316406 C57.79999923706055,171.9250030517578 -2.4700000286102295,181.1750030517578 -11.470000267028809,169.61500549316406 C-16.649999618530273,162.97500610351562 -11.039999961853027,137.7449951171875 -5.519999980926514,117.6449966430664 C-21.84000015258789,114.67500305175781 -34.40999984741211,105.08499908447266 -37.029998779296875,91.7249984741211 C-40.84000015258789,72.32499694824219 -22.200000762939453,52.32500076293945 4.610000133514404,47.064998626708984 C31.420000076293945,41.79499816894531 56.2400016784668,53.26499938964844 60.04999923706055,72.66500091552734 C62.43000030517578,84.80500030517578 56.029998779296875,97.18499755859375 44.33000183105469,106.03500366210938 C55.529998779296875,122.61499786376953 76.19999694824219,147.38499450683594 68.52999877929688,157.61500549316406z"></path></g></g></g></svg>