<svg xmlns="http://www.w3.org/2000/svg" xmlns:xlink="http://www.w3.org/1999/xlink" viewBox="0 0 512 512" width="512" height="512" style="width: 100%; height: 100%; transform: translate3d(0,0,0);" preserveAspectRatio="xMidYMid meet"><defs><clipPath id="__lottie_element_15771"><rect width="512" height="512" x="0" y="0"></rect></clipPath></defs><g clip-path="url(#__lottie_element_15771)"><g style="display: block;" transform="matrix(1,0,0,1,45.66801452636719,13.75)" opacity="1"><g opacity="1" transform="matrix(1,0,0,1,249.35699462890625,120.25)"><path fill="rgb(0,0,0)" fill-opacity="1" d=" M75.9749984741211,-103 C24.264999389648438,-110.38999938964844 13.975000381469727,-82 0.9750000238418579,-84 C-8.675000190734863,-85.48999786376953 -20.024999618530273,-120 -77.0250015258789,-114 C-135.7050018310547,-107.81999969482422 -149.02499389648438,-66 -149.02499389648438,-17 C-149.02499389648438,48 -42.025001525878906,120 -21.024999618530273,120 C0.02500000037252903,120 131.97500610351562,77 142.97500610351562,-1 C149.02499389648438,-43.869998931884766 124.9749984741211,-96 75.9749984741211,-103z M-54.025001525878906,51 C-97.0250015258789,42 -129.1750030517578,-12.479999542236328 -97.0250015258789,-57 C-84.0250015258789,-75 -53.71500015258789,-55.150001525878906 -61.025001525878906,-41 C-75.4749984741211,-13.020000457763672 -62.915000915527344,14.5600004196167 -43.025001525878906,20 C-24.735000610351562,25 -31.514999389648438,55.709999084472656 -54.025001525878906,51z M109.15499877929688,-24.59000015258789 C101.4260025024414,-11.199999809265137 80.2249984741211,-8.960000038146973 61.814998626708984,-19.59000015258789 C43.39500045776367,-30.229999542236328 34.73500061035156,-49.70000076293945 42.465999603271484,-63.09000015258789 C50.20600128173828,-76.4800033569336 71.3949966430664,-78.72000122070312 89.81500244140625,-68.08999633789062 C108.2249984741211,-57.459999084472656 116.88500213623047,-37.97999954223633 109.15499877929688,-24.59000015258789z"></path></g><g opacity="1" transform="matrix(1,0,0,1,220.43299865722656,318.31298828125)"><path fill="rgb(0,0,0)" fill-opacity="1" d=" M-93.2969970703125,-95.8740005493164 C-83.86299896240234,-88.74800109863281 -115.81900024414062,-78.09600067138672 -118.10099792480469,-21.062000274658203 C-120.10099792480469,28.937999725341797 -80.0479965209961,80.40899658203125 -12.10099983215332,82.93800354003906 C59.566001892089844,85.6050033569336 106.33499908447266,35.06700134277344 113.89900207519531,-12.062000274658203 C118.23200225830078,-39.0620002746582 101.85399627685547,-67.13999938964844 113.89900207519531,-74.06199645996094 C156.23199462890625,-98.39600372314453 173.55599975585938,-120.23300170898438 180.8990020751953,-120.06199645996094 C195.23199462890625,-119.72899627685547 220.18299865722656,-59.84299850463867 200.8990020751953,9.937999725341797 C175.5659942626953,101.6050033569336 98.23200225830078,162.06300354003906 -11.10099983215332,161.93800354003906 C-117.67400360107422,161.81500244140625 -215.1009979248047,102.93800354003906 -218.1009979248047,-17.062000274658203 C-220.18299865722656,-100.37000274658203 -183.65899658203125,-143.14700317382812 -150.1009979248047,-158.06199645996094 C-141.1009979248047,-162.06199645996094 -124.43399810791016,-119.39600372314453 -93.2969970703125,-95.8740005493164z"></path></g></g></g></svg>