<svg xmlns="http://www.w3.org/2000/svg" xmlns:xlink="http://www.w3.org/1999/xlink" viewBox="0 0 512 512" width="512" height="512" style="width: 100%; height: 100%; transform: translate3d(0,0,0);" preserveAspectRatio="xMidYMid meet"><defs><clipPath id="__lottie_element_53015"><rect width="512" height="512" x="0" y="0"></rect></clipPath></defs><g clip-path="url(#__lottie_element_53015)"><g style="display: block;" transform="matrix(1,0,0,1,256,256)" opacity="1"><g opacity="1" transform="matrix(1,0,0,1,0,0)"><path fill="rgb(0,0,0)" fill-opacity="1" d=" M-89.5999984741211,-75.4000015258789 C-83.60900115966797,-69.52799987792969 -73.12100219726562,-70.08699798583984 -67.5,-76.19999694824219 C-61.483001708984375,-82.31900024414062 -61.87200164794922,-92.75700378417969 -68.30000305175781,-98.3499984741211 C-103.80000305175781,-131.38299560546875 -129.60000610351562,-140.7830047607422 -145.6999969482422,-126.55000305175781 C-164.8000030517578,-116.91699981689453 -193.91700744628906,-60.849998474121094 -233.0500030517578,41.650001525878906 C-226.14999389648438,36.849998474121094 -218.5,33.06700134277344 -210.10000610351562,30.299999237060547 C-210.10000610351562,30.299999237060547 -210.4499969482422,30.450000762939453 -210.4499969482422,30.450000762939453 C-204.75,28.517000198364258 -199.16700744628906,27.049999237060547 -193.6999969482422,26.049999237060547 C-162.76400756835938,-52 -143.62600708007812,-91.96199798583984 -129.9499969482422,-99.3499984741211 C-121.29499816894531,-104.49700164794922 -111.76000213623047,-94.68099975585938 -89.5999984741211,-75.4000015258789 M230.4499969482422,-166.39999389648438 C242.76100158691406,-161.10299682617188 256.01300048828125,-175.67100524902344 249.94900512695312,-187.5 C229.75,-231.43299865722656 207.3000030517578,-246.35000610351562 182.60000610351562,-232.25 C157.12600708007812,-223.19200134277344 153.22999572753906,-173.01699829101562 164.85000610351562,-78.3499984741211 C141.07899475097656,-80.74800109863281 112.14600372314453,-68.1989974975586 98.44999694824219,-49.20000076293945 C96.28299713134766,-46.43299865722656 94.26699829101562,-43.41699981689453 92.4000015258789,-40.150001525878906 C87.23300170898438,-41.91699981689453 81.86699676513672,-43.016998291015625 76.30000305175781,-43.45000076293945 C76.30000305175781,-43.45000076293945 76.44999694824219,-43.29999923706055 76.44999694824219,-43.29999923706055 C64.68299865722656,-44.70000076293945 52.400001525878906,-42.93299865722656 39.599998474121094,-38 C39.599998474121094,-38 39.79999923706055,-38.20000076293945 39.79999923706055,-38.20000076293945 C25.236000061035156,-32.439998626708984 13.182000160217285,-22.90999984741211 4.650000095367432,-9.649999618530273 C0.5370000004768372,-3.247999906539917 -2.4230000972747803,3.5999999046325684 -4.150000095367432,11 C-21.36400032043457,8.852999687194824 -35.95100021362305,13.024999618530273 -48.599998474121094,23.899999618530273 C-76.46399688720703,0.609000027179718 -123.17400360107422,8.569000244140625 -144.85000610351562,36.099998474121094 C-147.11700439453125,38.79999923706055 -149.25,41.78300094604492 -151.25,45.04999923706055 C-156.0500030517578,43.117000579833984 -161.13299560546875,41.70000076293945 -166.5,40.79999923706055 C-166.5,40.79999923706055 -166.35000610351562,41 -166.35000610351562,41 C-177.7169952392578,39 -189.68299865722656,40.18299865722656 -202.25,44.54999923706055 C-202.25,44.54999923706055 -202.0500030517578,44.400001525878906 -202.0500030517578,44.400001525878906 C-269.9469909667969,67.36799621582031 -255.4250030517578,152.093994140625 -206.14999389648438,190 C-206.14999389648438,190 -206.14999389648438,190.14999389648438 -206.14999389648438,190.14999389648438 C-204.85000610351562,191.25 -203.48300170898438,192.38299560546875 -202.0500030517578,193.5500030517578 C-175.58700561523438,213.8249969482422 -129.01199340820312,237.38800048828125 -93.05000305175781,229.5 C-42.00899887084961,206.93899536132812 -8.567999839782715,111.88200378417969 -25.649999618530273,59.5 C-25.649999618530273,59.5 -25.649999618530273,59.650001525878906 -25.649999618530273,59.650001525878906 C-25.75,59.117000579833984 -25.91699981689453,58.53300094604492 -26.149999618530273,57.900001525878906 C-18.926000595092773,53.61800003051758 -10.128000259399414,51.584999084472656 -1.399999976158142,51.5 C13.125,106.66500091552734 107.43000030517578,154.25399780273438 162.25,140.9499969482422 C212.69700622558594,116.62799835205078 243.7010040283203,19.332000732421875 222.89999389648438,-32.29999923706055 C222.89999389648438,-32.29999923706055 222.89999389648438,-32.099998474121094 222.89999389648438,-32.099998474121094 C217.1999969482422,-47.53300094604492 208.7830047607422,-58.91699981689453 197.64999389648438,-66.25 C185.85299682617188,-154.11900329589844 178.49000549316406,-256.4179992675781 221.4010009765625,-174.40199279785156 C223.36599731445312,-170.4669952392578 226.38299560546875,-167.8000030517578 230.4499969482422,-166.39999389648438 M174.0500030517578,-43.599998474121094 C181.60899353027344,-40.1870002746582 186.9929962158203,-33.61199951171875 191.10000610351562,-24.899999618530273 C191.10000610351562,-24.899999618530273 120.9000015258789,109.3499984741211 120.9000015258789,109.3499984741211 C100.88300323486328,103.90599822998047 82.23600006103516,96.13700103759766 68,86.4000015258789 C68,86.4000015258789 162.75,-47.04999923706055 162.75,-47.04999923706055 C166.5399932861328,-46.16299819946289 170.63299560546875,-45.816001892089844 174.0500030517578,-43.599998474121094 M-71.05000305175781,46.400001525878906 C-62.61800003051758,51.347999572753906 -56.41899871826172,62.88800048828125 -54.04999923706055,74.25 C-54.04999923706055,74.25 -127.44999694824219,196.6999969482422 -127.44999694824219,196.6999969482422 C-143.05599975585938,192.1269989013672 -158.78799438476562,185.31500244140625 -170.89999389648438,177.5500030517578 C-170.89999389648438,177.5500030517578 -73.05000305175781,45.400001525878906 -73.05000305175781,45.400001525878906 C-72.27100372314453,45.60200119018555 -71.63400268554688,45.994998931884766 -71.05000305175781,46.400001525878906z"></path></g></g></g></svg>