<svg xmlns="http://www.w3.org/2000/svg" xmlns:xlink="http://www.w3.org/1999/xlink" viewBox="0 0 512 512" width="512" height="512" style="width: 100%; height: 100%; transform: translate3d(0,0,0);" preserveAspectRatio="xMidYMid meet"><defs><clipPath id="__lottie_element_53100"><rect width="512" height="512" x="0" y="0"></rect></clipPath></defs><g clip-path="url(#__lottie_element_53100)"><g style="display: block;" transform="matrix(1,0,0,1,256,256)" opacity="1"><g opacity="1" transform="matrix(1,0,0,1,0,0)"><path fill="rgb(0,0,0)" fill-opacity="1" d=" M213.8730010986328,53.16999816894531 C216.63900756835938,49.43000030517578 219.2729949951172,45.23699951171875 221.7760009765625,40.59000015258789 C220.3939971923828,39.803001403808594 95.16400146484375,42.58599853515625 99.1969985961914,38.65599822998047 C93.5530014038086,36.52199935913086 85.87300109863281,21.884000778198242 82.26000213623047,17.525999069213867 C79.58599853515625,21.179000854492188 42.4900016784668,135.06300354003906 36.292999267578125,132.0399932861328 C27.570999145507812,137.67999267578125 13.314000129699707,133.07699584960938 11.614999771118164,122.36100006103516 C11.614999771118164,122.36100006103516 -14.998000144958496,-26.5049991607666 -14.998000144958496,-26.5049991607666 C-18.8439998626709,-21.5310001373291 -58.05400085449219,80.64099884033203 -65.64199829101562,79.29900360107422 C-72.15699768066406,82.55799865722656 -81.1510009765625,81.08100128173828 -85.80400085449219,75.58899688720703 C-85.80400085449219,75.58899688720703 -115.48200225830078,42.847999572753906 -115.48200225830078,42.847999572753906 C-115.48200225830078,42.847999572753906 -220.64300537109375,42.847999572753906 -220.64300537109375,42.847999572753906 C-175.51199340820312,118.7040023803711 -90.26100158691406,208.2790069580078 2.742000102996826,225.91000366210938 C86.72100067138672,216.88999938964844 171.16400146484375,125.49500274658203 214.6790008544922,53.16999816894531 C214.6790008544922,53.16999816894531 213.8730010986328,53.16999816894531 213.8730010986328,53.16999816894531 M122.58300018310547,-201.177001953125 C71.58100128173828,-200.95199584960938 33.529998779296875,-183.00900268554688 1.937999963760376,-143.92100524902344 C-40.3380012512207,-205.7220001220703 -137.4320068359375,-219.41799926757812 -198.38499450683594,-176.50100708007812 C-259.4530029296875,-134.4720001220703 -256.0409851074219,-48.64799880981445 -232.2550048828125,14.623000144958496 C-226.6820068359375,13.855999946594238 -105.4229965209961,12.553999900817871 -100.96499633789062,15.427000045776367 C-95.76899719238281,16.613000869750977 -82.06900024414062,34.875999450683594 -78.2239990234375,38.332000732421875 C-73.07099914550781,32.41899871826172 -24.881999969482422,-94.53299713134766 -16.618000030517578,-93.11499786376953 C-7.894999980926514,-98.23200225830078 5.829999923706055,-93.56099700927734 7.583000183105469,-83.11599731445312 C7.583000183105469,-83.11599731445312 32.904998779296875,58.97600173950195 32.904998779296875,58.97600173950195 C32.904998779296875,58.97600173950195 62.58300018310547,-21.183000564575195 62.58300018310547,-21.183000564575195 C65.06600189208984,-28.631000518798828 74.54399871826172,-32.750999450683594 82.0989990234375,-30.53700065612793 C92.27200317382812,-30.30500030517578 110.25800323486328,5.333000183105469 116.13099670410156,11.557999610900879 C116.13099670410156,11.557999610900879 234.83999633789062,11.557999610900879 234.83999633789062,11.557999610900879 C277.6409912109375,-86.20500183105469 240.4340057373047,-200.1510009765625 122.58300018310547,-201.177001953125z"></path></g></g></g></svg>