<svg xmlns="http://www.w3.org/2000/svg" xmlns:xlink="http://www.w3.org/1999/xlink" viewBox="0 0 512 512" width="512" height="512" style="width: 100%; height: 100%; transform: translate3d(0,0,0);" preserveAspectRatio="xMidYMid meet"><defs><clipPath id="__lottie_element_15846"><rect width="512" height="512" x="0" y="0"></rect></clipPath></defs><g clip-path="url(#__lottie_element_15846)"><g style="display: block;" transform="matrix(1.0299999713897705,0,0,1.0299999713897705,14.13006591796875,-8.6883544921875)" opacity="1"><g opacity="1" transform="matrix(1,0,0,1,188.8300018310547,352.8500061035156)"><path fill="rgb(0,0,0)" fill-opacity="1" d=" M172.3300018310547,-78.16999816894531 C170.3000030517578,-95.7300033569336 149.6699981689453,-146.83999633789062 97,-152.1699981689453 C53.880001068115234,-156.5399932861328 10.960000038146973,-128.6199951171875 22.579999923706055,-112.87999725341797 C39.58000183105469,-89.83999633789062 37.66999816894531,-50.84000015258789 27,-52.84000015258789 C22.5,-53.68000030517578 27,-140.83999633789062 -80.33000183105469,-136.83999633789062 C-144.8699951171875,-134.42999267578125 -173.24000549316406,-86.83999633789062 -176.3300018310547,-37.5099983215332 C-186.3300018310547,121.83000183105469 57.20000076293945,156.5399932861328 67.37000274658203,136.6199951171875 C98.70999908447266,75.29000091552734 186.3300018310547,42.4900016784668 172.3300018310547,-78.16999816894531z M139,-22.84000015258789 C132.25999450683594,-3.9600000381469727 101.66999816894531,-14.170000076293945 104.33000183105469,-28.84000015258789 C108.95999908447266,-54.310001373291016 101,-76.83999633789062 89.69999694824219,-93.1500015258789 C78.58999633789062,-109.18000030517578 109.2699966430664,-125.69999694824219 119.66999816894531,-113.51000213623047 C139,-90.83999633789062 149,-50.84000015258789 139,-22.84000015258789z"></path></g><g opacity="1" transform="matrix(1,0,0,1,368.6650085449219,125.94000244140625)"><path fill="rgb(0,0,0)" fill-opacity="1" d=" M73.83499908447266,-64.26000213623047 C51.275001525878906,-79.4000015258789 22.4950008392334,-72.5999984741211 7.295000076293945,-64.5199966430664 C-8.324999809265137,-56.220001220703125 -10.694999694824219,-46 -13.835000038146973,-45.599998474121094 C-17.295000076293945,-45.15999984741211 -12.505000114440918,-62.2599983215332 -5.505000114440918,-65.5999984741211 C-0.5350000262260437,-67.95999908447266 -13.164999961853027,-80.93000030517578 -32.834999084472656,-82.26000213623047 C-53.625,-83.66999816894531 -83.49500274658203,-71.44999694824219 -88.50499725341797,-41.599998474121094 C-98.16500091552734,16.06999969482422 -21.0049991607666,35.27000045776367 -25.7450008392334,63.66999816894531 C-29.075000762939453,83.66999816894531 64.16500091552734,50.7400016784668 84.16500091552734,7.739999771118164 C94.23500061035156,-13.90999984741211 98.16500091552734,-47.93000030517578 73.83499908447266,-64.26000213623047z M59.494998931884766,5.070000171661377 C51.14500045776367,14.380000114440918 38.42499923706055,4.25 41.834999084472656,-5.929999828338623 C44.994998931884766,-15.390000343322754 44.834999084472656,-30.260000228881836 39.494998931884766,-37.599998474121094 C31.30500030517578,-48.86000061035156 52.3849983215332,-57.560001373291016 61.165000915527344,-45.2599983215332 C71.16500091552734,-31.260000228881836 71.16500091552734,-7.929999828338623 59.494998931884766,5.070000171661377z"></path></g><g opacity="1" transform="matrix(1,0,0,1,180.99899291992188,59.41999816894531)"><path fill="rgb(0,0,0)" fill-opacity="1" d=" M50.83100128173828,-31.740999221801758 C18.861000061035156,-56.91999816894531 1.5110000371932983,-23.701000213623047 -2.8389999866485596,-22.740999221801758 C-6.829999923706055,-21.8700008392334 -38.83000183105469,-48.6510009765625 -57.16899871826172,-14.079999923706055 C-77.5,24.259000778198242 -12.5,56.91999816894531 15.831000328063965,51.25 C39.040000915527344,46.5989990234375 77.5,-10.741000175476074 50.83100128173828,-31.740999221801758z M44.16400146484375,7.25600004196167 C41.40700149536133,16.347999572753906 30.97100067138672,14.539999961853027 31.58099937438965,6.408999919891357 C32.150001525878906,-1.1399999856948853 29.26099967956543,-11.0600004196167 23.97100067138672,-15.460000038146973 C15.84000015258789,-22.229999542236328 28.740999221801758,-32.55099868774414 37.49100112915039,-25.139999389648438 C47.459999084472656,-16.69099998474121 46.98899841308594,-2.061000108718872 44.16400146484375,7.25600004196167z"></path></g></g></g></svg>