<svg xmlns="http://www.w3.org/2000/svg" xmlns:xlink="http://www.w3.org/1999/xlink" viewBox="0 0 512 512" width="512" height="512" style="width: 100%; height: 100%; transform: translate3d(0,0,0);" preserveAspectRatio="xMidYMid meet"><defs><clipPath id="__lottie_element_51455"><rect width="512" height="512" x="0" y="0"></rect></clipPath></defs><g clip-path="url(#__lottie_element_51455)"><g style="display: block;" transform="matrix(1,0,0,1,0,0)" opacity="1"><g opacity="1" transform="matrix(1,0,0,1,259.4119873046875,256.8590087890625)"><path fill="rgb(0,0,0)" fill-opacity="1" d=" M250.52499389648438,-128.93699645996094 C250.13800048828125,-134.70599365234375 244.79800415039062,-138.87899780273438 239.12600708007812,-137.76300048828125 C228.63900756835938,-135.7010040283203 211.62399291992188,-134.4980010986328 195.26499938964844,-142.677001953125 C171.5279998779297,-154.54600524902344 170.4810028076172,-181.08999633789062 171.31199645996094,-192.9720001220703 C171.572998046875,-196.70599365234375 169.65499877929688,-200.25999450683594 166.36000061035156,-202.03399658203125 C114.43499755859375,-230.0070037841797 57.34199905395508,-244.27999877929688 23.301000595092773,-249.1909942626953 C19.433000564575195,-249.74899291992188 15.937000274658203,-246.94500732421875 16.149999618530273,-243.04299926757812 C17.187999725341797,-223.94700622558594 19.489999771118164,-196.22000122070312 4.8420000076293945,-168.7949981689453 C4.031000137329102,-167.2760009765625 1.7289999723434448,-167.7729949951172 1.628000020980835,-169.49200439453125 C0.8240000009536743,-183.33900451660156 -2.194000005722046,-218.9550018310547 -12.657999992370605,-243.93899536132812 C-14.237000465393066,-247.7100067138672 -18.22800064086914,-249.86399841308594 -22.235000610351562,-249.05799865722656 C-56.07500076293945,-242.2530059814453 -118.8280029296875,-227.02200317382812 -165.3699951171875,-202.04100036621094 C-168.6699981689453,-200.27000427246094 -170.593994140625,-196.71099853515625 -170.33299255371094,-192.97500610351562 C-169.5019989013672,-181.093994140625 -170.5469970703125,-154.5469970703125 -194.28700256347656,-142.677001953125 C-210.65199279785156,-134.49400329589844 -227.6750030517578,-135.70199584960938 -238.16099548339844,-137.76600646972656 C-243.82899475097656,-138.8820037841797 -249.16000366210938,-134.70399475097656 -249.5449981689453,-128.94000244140625 C-252.58799743652344,-83.47599792480469 -251.06199645996094,85.7239990234375 -77.39099884033203,205.8419952392578 C-55.194000244140625,221.19500732421875 -28.83099937438965,235.74600219726562 -0.5889999866485596,249.13299560546875 C0.8809999823570251,249.83099365234375 2.5810000896453857,249.86399841308594 4.080999851226807,249.23399353027344 C13.619999885559082,245.22900390625 51.01300048828125,228.10499572753906 106.3949966430664,184.8769989013672 C254.26300048828125,69.45800018310547 253.3939971923828,-86.05799865722656 250.52499389648438,-128.93699645996094z M2.118000030517578,-113.3479995727539 C2.118000030517578,-113.3479995727539 32.4379997253418,-6.191999912261963 2.13100004196167,119.76300048828125 C2.13100004196167,119.76300048828125 -2.7760000228881836,5.410999774932861 2.118000030517578,-113.3479995727539z M199.68800354003906,-44.09600067138672 C192.85699462890625,-14.625 177.80599975585938,30.222000122070312 144.89599609375,76.50800323486328 C110.41999816894531,124.99700164794922 63.231998443603516,165.87399291992188 4.640999794006348,198.0070037841797 C3.555999994277954,198.6009979248047 2.384999990463257,198.88299560546875 1.2300000190734863,198.88299560546875 C0.968999981880188,198.88299560546875 0.7099999785423279,198.85899353027344 0.45399999618530273,198.83099365234375 C0.19599999487400055,198.85899353027344 -0.06300000101327896,198.88299560546875 -0.3240000009536743,198.88299560546875 C-1.4789999723434448,198.88299560546875 -2.6500000953674316,198.6009979248047 -3.734999895095825,198.0070037841797 C-62.32600021362305,165.87399291992188 -109.51399993896484,124.99700164794922 -143.99000549316406,76.50800323486328 C-176.8990020751953,30.222000122070312 -191.9510040283203,-14.625 -198.781005859375,-44.09600067138672 C-206.2259979248047,-76.21700286865234 -205.83900451660156,-97.24700164794922 -205.81900024414062,-98.12699890136719 C-205.7689971923828,-100.3239974975586 -204.7050018310547,-102.375 -202.93699645996094,-103.68099975585938 C-201.16900634765625,-104.98699951171875 -198.89599609375,-105.40299987792969 -196.781005859375,-104.80400085449219 C-196.5500030517578,-104.74099731445312 -171.73500061035156,-98.08100128173828 -151.3419952392578,-110.62999725341797 C-131.49899291992188,-122.84100341796875 -130.0850067138672,-152.63699340820312 -130.072998046875,-152.93600463867188 C-129.9759979248047,-155.37399291992188 -128.6199951171875,-157.58399963378906 -126.5199966430664,-158.8249969482422 C-98.39299774169922,-175.45199584960938 -52.53200149536133,-172.07899475097656 -52.402000427246094,-168.15699768066406 C-52.402000427246094,-168.15699768066406 -85.38600158691406,-169.2010040283203 -117.74099731445312,-151.66299438476562 C-118.90799713134766,-141.46600341796875 -122.4280014038086,-111.73300170898438 -143.89300537109375,-98.52400207519531 C-161.20700073242188,-87.86900329589844 -180.27499389648438,-88.02400207519531 -191.3249969482422,-89.38400268554688 C-190.7830047607422,-80.66799926757812 -189.22900390625,-65.68299865722656 -184.81199645996094,-46.78300094604492 C-178.2480010986328,-18.687999725341797 -163.82699584960938,24.07900047302246 -132.40499877929688,68.27300262451172 C-99.7040023803711,114.26499938964844 -55.0099983215332,160.9810028076172 0.45399999618530273,191.8419952392578 C55.91699981689453,160.9810028076172 100.61100006103516,114.26499938964844 133.31199645996094,68.27300262451172 C164.73300170898438,24.07900047302246 179.1540069580078,-18.687999725341797 185.71800231933594,-46.78300094604492 C190.13499450683594,-65.68299865722656 191.68899536132812,-80.66799926757812 192.23199462890625,-89.38400268554688 C181.1820068359375,-88.02400207519531 162.11300659179688,-87.86900329589844 144.7989959716797,-98.52400207519531 C123.33399963378906,-111.73300170898438 118.28299713134766,-141.36000061035156 117.11599731445312,-151.55799865722656 C84.83200073242188,-170.58900451660156 51.632999420166016,-168.947998046875 51.632999420166016,-168.947998046875 C51.763999938964844,-172.87100219726562 100.47899627685547,-174.8179931640625 127.4260025024414,-158.8249969482422 C129.5240020751953,-157.5800018310547 130.8820037841797,-155.37399291992188 130.97999572753906,-152.93600463867188 C130.99200439453125,-152.63699340820312 132.406005859375,-122.84100341796875 152.24899291992188,-110.62999725341797 C172.64100646972656,-98.08100128173828 197.45700073242188,-104.74099731445312 197.68699645996094,-104.80400085449219 C199.80299377441406,-105.40299987792969 202.0760040283203,-104.98699951171875 203.84300231933594,-103.68099975585938 C205.61099243164062,-102.375 206.6750030517578,-100.3239974975586 206.72500610351562,-98.12699890136719 C206.74600219726562,-97.24700164794922 207.1320037841797,-76.21700286865234 199.68800354003906,-44.09600067138672z"></path></g></g></g></svg>