<svg xmlns="http://www.w3.org/2000/svg" xmlns:xlink="http://www.w3.org/1999/xlink" viewBox="0 0 512 512" width="512" height="512" style="width: 100%; height: 100%; transform: translate3d(0,0,0);" preserveAspectRatio="xMidYMid meet"><defs><clipPath id="__lottie_element_52553"><rect width="512" height="512" x="0" y="0"></rect></clipPath></defs><g clip-path="url(#__lottie_element_52553)"><g style="display: block;" transform="matrix(1,0,0,1,0,0)" opacity="1"><g opacity="1" transform="matrix(1,0,0,1,250.4600067138672,252.31500244140625)"><path fill="rgb(0,0,0)" fill-opacity="1" d=" M245.7469940185547,0.8899999856948853 C245.7469940185547,0.8899999856948853 226.5399932861328,-65.31500244140625 126.98600006103516,-67.93900299072266 C126.98600006103516,-67.93900299072266 146.5399932861328,-126.31500244140625 187.7519989013672,-137.7830047607422 C187.7519989013672,-137.7830047607422 89.54000091552734,-201.31500244140625 -7.083000183105469,-106.7030029296875 C-19.100000381469727,-94.93599700927734 -29.459999084472656,-149.31500244140625 -10.706000328063965,-179.21499633789062 C-4.173999786376953,-189.6280059814453 -150.4600067138672,-165.31500244140625 -148.14500427246094,-22.2549991607666 C-147.06199645996094,44.66600036621094 -159.83700561523438,76.2750015258789 -198.60299682617188,71.42900085449219 C-198.60299682617188,71.42900085449219 -191.33399963378906,30.240999221801758 -226.06300354003906,43.16299819946289 C-250.43699645996094,52.231998443603516 -245.4459991455078,89.1969985961914 -219.6020050048828,85.96700286865234 C-219.6020050048828,85.96700286865234 -219.66400146484375,221.16000366210938 16.22599983215332,215.18699645996094 C154.5399932861328,211.68499755859375 184.9770050048828,155.27000427246094 184.9770050048828,155.27000427246094 C184.9770050048828,155.27000427246094 214.5399932861328,119.68499755859375 243.51499938964844,113.27400207519531 C243.51499938964844,113.27400207519531 235.5399932861328,61.685001373291016 172.05499267578125,43.19900131225586 C169.98599243164062,42.59600067138672 213.5399932861328,9.6850004196167 245.7469940185547,0.8899999856948853z M-113.30999755859375,85.85199737548828 C-129.8800048828125,76.20899963378906 -114.91000366210938,53.50699996948242 -103.51100158691406,57.237998962402344 C-84.28199768066406,63.53099822998047 -96.73999786376953,95.49600219726562 -113.30999755859375,85.85199737548828z"></path></g></g></g></svg>