<svg xmlns="http://www.w3.org/2000/svg" xmlns:xlink="http://www.w3.org/1999/xlink" viewBox="0 0 512 512" width="512" height="512" style="width: 100%; height: 100%; transform: translate3d(0,0,0);" preserveAspectRatio="xMidYMid meet"><defs><clipPath id="__lottie_element_53359"><rect width="512" height="512" x="0" y="0"></rect></clipPath></defs><g clip-path="url(#__lottie_element_53359)"><g style="display: block;" transform="matrix(1,0,0,1,0,0)" opacity="1"><g opacity="1" transform="matrix(1,0,0,1,256,255.39500427246094)"><path fill="rgb(0,0,0)" fill-opacity="1" d=" M235.3209991455078,-19.20400047302246 C202.99200439453125,-96.125 117.27799987792969,-76.07099914550781 96.95600128173828,-70.0719985961914 C94.3499984741211,-69.3030014038086 92.51200103759766,-66.99099731445312 92.31099700927734,-64.27999877929688 C91.18399810791016,-49.066001892089844 88.5739974975586,-36.10499954223633 87.06400299072266,-29.5310001373291 C86.68599700927734,-27.88599967956543 88.45700073242188,-26.591999053955078 89.91000366210938,-27.451000213623047 C100.01100158691406,-33.42399978637695 128.03500366210938,-47.14400100708008 158.88099670410156,-37.28300094604492 C182.0279998779297,-29.884000778198242 192.23699951171875,-13.631999969482422 196.70399475097656,-1.7660000324249268 C197.6739959716797,0.8100000023841858 194.281005859375,2.749000072479248 192.57200622558594,0.5910000205039978 C182.85400390625,-11.680999755859375 163.29299926757812,-28.999000549316406 131.28700256347656,-26.816999435424805 C105.27400207519531,-25.042999267578125 87.5260009765625,-7.8420000076293945 85.23100280761719,-5.508999824523926 C85.06700134277344,-5.3429999351501465 84.9540023803711,-5.142000198364258 84.89700317382812,-4.915999889373779 C84.1510009765625,-1.9420000314712524 78.07499694824219,20.381999969482422 60.13199996948242,36.691001892089844 C59.03900146484375,37.683998107910156 57.38399887084961,36.42300033569336 58.07600021362305,35.11800003051758 C71.83999633789062,9.208000183105469 82.75900268554688,-26.288000106811523 82.75900268554688,-73.75900268554688 C82.75900268554688,-188.48800659179688 19.000999450683594,-242.49600219726562 5.373000144958496,-252.72999572753906 C4.9120001792907715,-253.0749969482422 4.495999813079834,-253.37100219726562 4.13700008392334,-253.6179962158203 C3.2790000438690186,-254.2050018310547 2.1570000648498535,-254.19700622558594 1.3179999589920044,-253.58399963378906 C1.0080000162124634,-253.35699462890625 0.6449999809265137,-253.08900451660156 0.2329999953508377,-252.7790069580078 C-13.251999855041504,-242.67300415039062 -77.21900177001953,-188.67599487304688 -77.21900177001953,-73.75900268554688 C-77.21900177001953,-11.383000373840332 -58.60300064086914,24.350000381469727 -48.69200134277344,38.95500183105469 C-47.54600143432617,40.64099884033203 -49.63199996948242,42.66999816894531 -51.28300094604492,41.47200012207031 C-73.7979965209961,25.138999938964844 -81.0770034790039,-1.6449999809265137 -81.89700317382812,-4.916999816894531 C-81.9530029296875,-5.144000053405762 -82.06600189208984,-5.3429999351501465 -82.2300033569336,-5.510000228881836 C-84.5260009765625,-7.8429999351501465 -102.27300262451172,-25.042999267578125 -128.28500366210938,-26.816999435424805 C-166.4459991455078,-29.417999267578125 -186.91600036621094,-4.300000190734863 -194.10299682617188,6.935999870300293 C-194.76699829101562,7.973999977111816 -196.36300659179688,7.289000034332275 -196.0850067138672,6.0879998207092285 C-193.5229949951172,-4.97599983215332 -184.7989959716797,-28.038999557495117 -155.8800048828125,-37.28300094604492 C-127.28099822998047,-46.42499923706055 -101.10800170898438,-35.29800033569336 -89.39600372314453,-28.868000030517578 C-86.97200012207031,-27.53700065612793 -84.11199951171875,-29.666000366210938 -84.69300079345703,-32.36899948120117 C-86.21800231933594,-39.46900177001953 -88.3270034790039,-51.018001556396484 -89.30999755859375,-64.28099822998047 C-89.51000213623047,-66.99099731445312 -91.3479995727539,-69.3030014038086 -93.9540023803711,-70.0719985961914 C-114.2760009765625,-76.07099914550781 -199.99099731445312,-96.125 -232.32000732421875,-19.20400047302246 C-258.3349914550781,42.69200134277344 -210.00599670410156,87.42900085449219 -187.9810028076172,97.79299926757812 C-184.5850067138672,99.39099884033203 -180.57899475097656,97.44400024414062 -179.79100036621094,93.7750015258789 C-176.58099365234375,78.83699798583984 -165.70399475097656,42.374000549316406 -135.8979949951172,41.694000244140625 C-96.39700317382812,40.79499816894531 -76.66500091552734,62.31100082397461 -74.64399719238281,64.64399719238281 C-74.52400207519531,64.78299713134766 -74.37699890136719,64.89399719238281 -74.21199798583984,64.97200012207031 C-55.106998443603516,74.09600067138672 -27.535999298095703,72.50800323486328 -17.233999252319336,71.50199890136719 C-15.883999824523926,71.37000274658203 -15.246000289916992,73.12300109863281 -16.36400032043457,73.88999938964844 C-21.50200080871582,77.4209976196289 -33.638999938964844,82.58999633789062 -58.608001708984375,79.38700103759766 C-72.66400146484375,77.58399963378906 -83.98200225830078,90.74700164794922 -83.98200225830078,104.76200103759766 C-83.98200225830078,104.76200103759766 -83.98200225830078,105.45500183105469 -83.98200225830078,105.45500183105469 C-83.98200225830078,116.5479965209961 -77.21399688720703,126.05599975585938 -67.58300018310547,130.0850067138672 C-75.11299896240234,135.73899841308594 -86.2239990234375,142.46099853515625 -100.64099884033203,146.82400512695312 C-114.7490005493164,151.093994140625 -124.06700134277344,152.92300415039062 -129.91600036621094,153.677001953125 C-134.48699951171875,154.26499938964844 -137.28399658203125,158.9980010986328 -135.5780029296875,163.2790069580078 C-129.96600341796875,177.36099243164062 -114.18099975585938,202.5850067138672 -73.18499755859375,202.11900329589844 C-56.529998779296875,201.9290008544922 -44.387001037597656,198.64999389648438 -35.5890007019043,194.3470001220703 C-31.729999542236328,222.77999877929688 -12.744999885559082,244.75100708007812 1.5470000505447388,254.2050018310547 C1.5470000505447388,254.2050018310547 34.404998779296875,235.65899658203125 39.72100067138672,194.72900390625 C48.45000076293945,198.84300231933594 60.35900115966797,201.93499755859375 76.51599884033203,202.11900329589844 C117.51300048828125,202.5850067138672 133.29800415039062,177.36099243164062 138.91000366210938,163.2790069580078 C140.61599731445312,158.9980010986328 137.81900024414062,154.26499938964844 133.2480010986328,153.677001953125 C127.39800262451172,152.92300415039062 118.08000183105469,151.093994140625 103.9729995727539,146.82400512695312 C89.73300170898438,142.51400756835938 78.7249984741211,135.906005859375 71.19999694824219,130.29600524902344 C81.11299896240234,126.4000015258789 88.13400268554688,116.7509994506836 88.13400268554688,105.45500183105469 C88.13400268554688,105.45500183105469 88.13400268554688,104.76200103759766 88.13400268554688,104.76200103759766 C88.13400268554688,94.1259994506836 81.59200286865234,85.01899719238281 72.31099700927734,81.24600219726562 C71.81099700927734,81.04299926757812 71.46800231933594,80.56900024414062 71.4739990234375,80.02899932861328 C71.53399658203125,74.67400360107422 72.96399688720703,69.02400207519531 77.47200012207031,64.8479995727539 C77.47200012207031,64.8479995727539 97.13700103759766,40.74300003051758 138.8990020751953,41.694000244140625 C168.7050018310547,42.374000549316406 179.58299255371094,78.83699798583984 182.79200744628906,93.7750015258789 C183.5800018310547,97.44400024414062 187.58599853515625,99.39099884033203 190.98199462890625,97.79299926757812 C213.00799560546875,87.42900085449219 261.33599853515625,42.69200134277344 235.3209991455078,-19.20400047302246z M0.5370000004768372,-149.0500030517578 C0.8360000252723694,-150.83599853515625 3.3910000324249268,-150.83099365234375 3.7060000896453857,-149.0469970703125 C13.932999610900879,-91.00299835205078 6.945000171661377,-34.08399963378906 3.5999999046325684,-12.932999610900879 C3.315000057220459,-11.138999938964844 0.7490000128746033,-11.130999565124512 0.42899999022483826,-12.918999671936035 C-10.170000076293945,-72.22200012207031 -2.927999973297119,-128.30999755859375 0.5370000004768372,-149.0500030517578z"></path></g><g opacity="1" transform="matrix(1,0,0,1,257.10400390625,395.7959899902344)"><path fill="rgb(255,255,255)" fill-opacity="1" d=" M-34.143001556396484,-7.6020002365112305 C-11.652000427246094,-5.491000175476074 11.128000259399414,-5.6519999504089355 34.150001525878906,-7.703000068664551 C35.645999908447266,-7.835000038146973 36.16899871826172,-5.765999794006348 34.7859992980957,-5.184999942779541 C22.735000610351562,-0.12300000339746475 -4.244999885559082,7.835000038146973 -34.77799987792969,-5.074999809265137 C-36.16899871826172,-5.663000106811523 -35.645999908447266,-7.74399995803833 -34.143001556396484,-7.6020002365112305z"></path></g></g></g></svg>