<svg xmlns="http://www.w3.org/2000/svg" xmlns:xlink="http://www.w3.org/1999/xlink" viewBox="0 0 512 512" width="512" height="512" style="width: 100%; height: 100%; transform: translate3d(0,0,0);" preserveAspectRatio="xMidYMid meet"><defs><clipPath id="__lottie_element_52513"><rect width="512" height="512" x="0" y="0"></rect></clipPath></defs><g clip-path="url(#__lottie_element_52513)"><g style="display: block;" transform="matrix(1,0,0,1,0,-6)" opacity="1"><g opacity="1" transform="matrix(1,0,0,1,345.1919860839844,384)"><path fill="rgb(0,0,0)" fill-opacity="1" d=" M79.83899688720703,21.975000381469727 C66.20899963378906,71.49600219726562 19.41200065612793,101.802001953125 -24.680999755859375,89.66400146484375 C-68.77400207519531,77.52799987792969 -93.47000122070312,27.54400062561035 -79.83899688720703,-21.97599983215332 C-66.20800018310547,-71.49800109863281 -19.41200065612793,-101.8030014038086 24.68199920654297,-89.66600036621094 C68.7760009765625,-77.52899932861328 93.47000122070312,-27.54599952697754 79.83899688720703,21.975000381469727z"></path></g><g opacity="1" transform="matrix(1,0,0,1,248.85000610351562,220.43499755859375)"><path fill="rgb(0,0,0)" fill-opacity="1" d=" M185.14999389648438,206.56500244140625 C207.64999389648438,155.06500244140625 198.27200317382812,111.5530014038086 170.64999389648438,82.06500244140625 C133.64999389648438,42.564998626708984 69.1500015258789,58.564998626708984 69.1500015258789,58.564998626708984 C70.6500015258789,39.064998626708984 88.6500015258789,-14.4350004196167 36.150001525878906,-53.435001373291016 C-21.628000259399414,-96.35600280761719 -125.8499984741211,-68.43499755859375 -135.85000610351562,12.5649995803833 C-143.78700256347656,76.8550033569336 -102.3499984741211,104.06500244140625 -54.849998474121094,104.56500244140625 C-9.782999992370605,105.04000091552734 25.739999771118164,62.948001861572266 5.533999919891357,28.565000534057617 C-23.850000381469727,-21.434999465942383 -70.91200256347656,13.229999542236328 -64.8499984741211,22.000999450683594 C-61.349998474121094,27.065000534057617 -33.349998474121094,5.065000057220459 -15.350000381469727,39.064998626708984 C-4.915999889373779,58.77299880981445 -18.850000381469727,84.56500244140625 -57.849998474121094,84.56500244140625 C-95.90299987792969,84.56500244140625 -118.8499984741211,53.564998626708984 -115.8499984741211,15.5649995803833 C-112.68000030517578,-24.59600067138672 -53.04199981689453,-80.63200378417969 15.149999618530273,-40.435001373291016 C62.650001525878906,-12.4350004196167 57.323001861572266,46.749000549316406 44.150001525878906,66.56500244140625 C33.27299880981445,82.9260025024414 21.256999969482422,91.6780014038086 7.150000095367432,120.56500244140625 C-13.850000381469727,163.56500244140625 -4.849999904632568,196.56500244140625 -4.849999904632568,196.56500244140625 C-35.849998474121094,214.9530029296875 -136.55099487304688,220.43499755859375 -180.85000610351562,163.56500244140625 C-254.85000610351562,68.56500244140625 -227.85000610351562,-83.43499755859375 -83.8499984741211,-139.43499755859375 C136.39700317382812,-225.08700561523438 229.5290069580078,-31.756999969482422 225.14999389648438,-22.434999465942383 C222.84100341796875,-17.520999908447266 194.64999389648438,-51.435001373291016 154.14999389648438,-31.434999465942383 C147.06100463867188,-27.934999465942383 225.14999389648438,-1.934999942779541 237.14999389648438,53.564998626708984 C248.85000610351562,107.677001953125 214.14999389648438,183.56500244140625 185.14999389648438,206.56500244140625z"></path></g></g></g></svg>