<svg xmlns="http://www.w3.org/2000/svg" xmlns:xlink="http://www.w3.org/1999/xlink" viewBox="0 0 512 512" width="512" height="512" style="width: 100%; height: 100%; transform: translate3d(0,0,0);" preserveAspectRatio="xMidYMid meet"><defs><clipPath id="__lottie_element_53219"><rect width="512" height="512" x="0" y="0"></rect></clipPath></defs><g clip-path="url(#__lottie_element_53219)"><g style="display: block;" transform="matrix(1,0,0,1,0,0)" opacity="1"><g opacity="1" transform="matrix(1,0,0,1,258.20001220703125,237.84100341796875)"><path fill="rgb(0,0,0)" fill-opacity="1" d=" M-129.38600158691406,-16.149999618530273 C-129.28500366210938,-18.118000030517578 -129.16400146484375,-19.5310001373291 -129.0189971923828,-20.0939998626709 C-125.32599639892578,-20.354000091552734 -121.60800170898438,-20.44499969482422 -117.90699768066406,-20.614999771118164 C-116.16300201416016,-20.69499969482422 -114.40699768066406,-20.77400016784668 -112.6780014038086,-20.53700065612793 C-108.18499755859375,-19.922000885009766 -104.2750015258789,-17.253999710083008 -100.58499908447266,-14.618000030517578 C-100.41000366210938,-16.555999755859375 -100.23600006103516,-18.493999481201172 -100.06099700927734,-20.43199920654297 C-96.08399963378906,-20.44499969482422 -92.2490005493164,-20.180999755859375 -88.33599853515625,-19.95599937438965 C-70.38300323486328,-18.926000595092773 -52.17900085449219,-19.5 -34.202999114990234,-19.56999969482422 C-16.141000747680664,-19.641000747680664 1.9190000295639038,-19.86199951171875 19.979999542236328,-20.083999633789062 C56.077999114990234,-20.527000427246094 92.18599700927734,-20.97599983215332 128.2830047607422,-20.233999252319336 C128.2830047607422,-20.233999252319336 129.906005859375,18.72100067138672 129.906005859375,18.72100067138672 C122.64099884033203,19.020000457763672 115.23200225830078,18.297000885009766 107.95899963378906,18.68400001525879 C64.88300323486328,20.975000381469727 22.80299949645996,19.124000549316406 -20.145999908447266,18.636999130249023 C-56.67399978637695,18.224000930786133 -93.26399993896484,19.106000900268555 -129.7729949951172,18.71500015258789 C-129.8990020751953,18.71299934387207 -129.906005859375,-6.050000190734863 -129.38600158691406,-16.149999618530273z M-94.41600036621094,5.381999969482422 C-92.8479995727539,4.126999855041504 -91.18099975585938,-1.4140000343322754 -92.01799774169922,-3.4839999675750732 C-97.65699768066406,-17.417999267578125 -114.59300231933594,-1.3329999446868896 -101.17500305175781,7.0920000076293945 C-100.4020004272461,7.2270002365112305 -94.97100067138672,5.826000213623047 -94.41600036621094,5.381999969482422z M-50.77899932861328,-8.67300033569336 C-63.183998107910156,-6.802000045776367 -57.56399917602539,13.876999855041504 -47.70199966430664,5.8420000076293945 C-41.194000244140625,0.5389999747276306 -46.05400085449219,-9.385000228881836 -50.77899932861328,-8.67300033569336z M44.96500015258789,-8.572999954223633 C30.416000366210938,-7.046999931335449 42.650001525878906,19.2189998626709 53.43000030517578,-1.8420000076293945 C53.87300109863281,-4.767000198364258 47.680999755859375,-8.857999801635742 44.96500015258789,-8.572999954223633z M91.99700164794922,-8.699999809265137 C85.69999694824219,-6.815999984741211 83.18399810791016,4.111999988555908 90.3489990234375,7.184000015258789 C102.26399993896484,7.211999893188477 100.20700073242188,-11.156999588012695 91.99700164794922,-8.699999809265137z M-3.7160000801086426,-6.988999843597412 C-16.263999938964844,-3.177000045776367 -4.882999897003174,14.194999694824219 4.064000129699707,4.060999870300293 C9.809000015258789,-2.447000026702881 4.078000068664551,-9.357000350952148 -3.7160000801086426,-6.988999843597412z"></path></g><g opacity="1" transform="matrix(1,0,0,1,330.3330078125,146.22000122070312)"><path fill="rgb(0,0,0)" fill-opacity="1" d=" M-42.856998443603516,-58.41299819946289 C-13.869999885559082,-55.672000885009766 20.229999542236328,-22.385000228881836 21.81100082397461,-11.071000099182129 C21.81100082397461,-11.071000099182129 15.309000015258789,-6.520999908447266 15.309000015258789,-6.520999908447266 C29.173999786376953,13.060999870300293 34.52799987792969,31.614999771118164 41.534000396728516,54.41899871826172 C42.85599899291992,56.724998474121094 36.20399856567383,58.41299819946289 35.856998443603516,58.41299819946289 C35.856998443603516,58.41299819946289 -42.856998443603516,58.41299819946289 -42.856998443603516,58.41299819946289 C-42.856998443603516,58.41299819946289 -42.856998443603516,-58.41299819946289 -42.856998443603516,-58.41299819946289z"></path></g><g opacity="1" transform="matrix(1,0,0,1,431.9200134277344,96.64600372314453)"><path fill="rgb(0,0,0)" fill-opacity="1" d=" M14.822999954223633,-91.58000183105469 C11.45199966430664,-91.5989990234375 2.638000011444092,-81.4739990234375 0.1720000058412552,-79.02400207519531 C-7.5970001220703125,-71.3030014038086 -13.869000434875488,-60.54800033569336 -13.204999923706055,-49.257999420166016 C-12.411999702453613,-35.757999420166016 -1.9630000591278076,-29.430999755859375 7.328999996185303,-21.43000030517578 C41.95399856567383,8.38599967956543 31.030000686645508,61.66299819946289 -0.8050000071525574,88.6729965209961 C-2.056999921798706,89.73400115966797 -3.3359999656677246,90.76399993896484 -4.639999866485596,91.76100158691406 C-7.790999889373779,71.80799865722656 -19.393999099731445,51.14500045776367 -30.548999786376953,38.32500076293945 C-18.844999313354492,33.2400016784668 -11.418999671936035,19.305999755859375 -12.711999893188477,6.519000053405762 C-13.800000190734863,-4.236000061035156 -27.464000701904297,-15.329999923706055 -31.423999786376953,-26.69099998474121 C-41.95399856567383,-56.90599822998047 -17.024999618530273,-91.76100158691406 14.822999954223633,-91.58000183105469z"></path></g><g opacity="1" transform="matrix(1,0,0,1,184.7760009765625,147.07000732421875)"><path fill="rgb(0,0,0)" fill-opacity="1" d=" M42.6510009765625,-57.64099884033203 C42.6510009765625,-57.64099884033203 42.6510009765625,57.56399917602539 42.6510009765625,57.56399917602539 C42.6510009765625,57.56399917602539 -18.28700065612793,57.64099884033203 -18.28700065612793,57.64099884033203 C-18.28700065612793,57.64099884033203 -42.6510009765625,57.64099884033203 -42.6510009765625,57.64099884033203 C-32.04399871826172,-37.19200134277344 32.47999954223633,-57.61000061035156 42.6510009765625,-57.64099884033203z"></path></g><g opacity="1" transform="matrix(1,0,0,1,256.3080139160156,138.8489990234375)"><path fill="rgb(0,0,0)" fill-opacity="1" d=" M19.808000564575195,-62.400001525878906 C19.808000564575195,-62.400001525878906 19.808000564575195,67.40599822998047 19.808000564575195,67.40599822998047 C7.710999965667725,68.49099731445312 -3.953000068664551,65.78199768066406 -15.902999877929688,65.79000091552734 C-15.27299976348877,65.79000091552734 -17.232999801635742,47.47800064086914 -17.357999801635742,46.20600128173828 C-17.9060001373291,40.63800048828125 -18.32200050354004,35.055999755859375 -18.60700035095215,29.468000411987305 C-18.711999893188477,27.4060001373291 -19.808000564575195,22.674999237060547 -18.94300079345703,20.836999893188477 C-18.076000213623047,18.996000289916992 -15.059000015258789,19.142000198364258 -13.069000244140625,18.763999938964844 C-12.89900016784668,18.73200035095215 -12.717000007629395,18.691999435424805 -12.600000381469727,18.565000534057617 C-12.454000473022461,18.4060001373291 -12.456999778747559,18.163000106811523 -12.473999977111816,17.94700050354004 C-12.694999694824219,15.130999565124512 -13.697999954223633,12.444999694824219 -14.579000473022461,9.760000228881836 C-15.984000205993652,5.480000019073486 -17.726999282836914,0.6859999895095825 -17.698999404907227,-3.8480000495910645 C-17.658000946044922,-10.487000465393066 -17.4950008392334,-17.125 -17.246999740600586,-23.760000228881836 C-17,-30.384000778198242 -16.667999267578125,-37.005001068115234 -16.292999267578125,-43.62300109863281 C-16.110000610351562,-46.8489990234375 -15.916000366210938,-50.073001861572266 -15.717000007629395,-53.29800033569336 C-15.588000297546387,-55.380001068115234 -16.246999740600586,-60.75699996948242 -15.138999938964844,-62.45399856567383 C-11.192999839782715,-68.49199676513672 13.09000015258789,-65.56400299072266 19.808000564575195,-62.400001525878906z M-0.8880000114440918,-22.274999618530273 C0,-21.43600082397461 1.690000057220459,-21.21500015258789 2.7950000762939453,-20.493999481201172 C5.605000019073486,-22.3439998626709 9.196000099182129,-27.158000946044922 8.277000427246094,-30.472999572753906 C0.3720000088214874,-41.74800109863281 -9.973999977111816,-30.86199951171875 -0.8880000114440918,-22.274999618530273z M1.406999945640564,5.9029998779296875 C-8.170000076293945,8.717000007629395 -3.197000026702881,21.0049991607666 2.4809999465942383,20.14699935913086 C12.63700008392334,18.613000869750977 8.638999938964844,3.7769999504089355 1.406999945640564,5.9029998779296875z M-0.20499999821186066,43.27799987792969 C-7.8420000076293945,45.479000091552734 -4.803999900817871,58.40800094604492 4.116000175476074,55.8380012512207 C11.753000259399414,53.637001037597656 8.71500015258789,40.707000732421875 -0.20499999821186066,43.27799987792969z"></path></g><g opacity="1" transform="matrix(1,0,0,1,390.031005859375,171.2209930419922)"><path fill="rgb(0,0,0)" fill-opacity="1" d=" M28.763999938964844,26.785999298095703 C22.29400062561035,28.88800048828125 12.555999755859375,35.29100036621094 2.4089999198913574,38.084999084472656 C-3.947000026702881,11.9350004196167 -28.76300048828125,-26.62299919128418 -28.76300048828125,-26.62299919128418 C-28.76300048828125,-26.62299919128418 -7.659999847412109,-38.084999084472656 -7.659999847412109,-38.084999084472656 C-1.2740000486373901,-37.5260009765625 21.579999923706055,-9.819999694824219 28.763999938964844,26.785999298095703z"></path></g><g opacity="1" transform="matrix(1,0,0,1,212.16799926757812,281.3710021972656)"><path fill="rgb(0,0,0)" fill-opacity="1" d=" M-18.822999954223633,-8.58899974822998 C-18.822999954223633,-8.58899974822998 17.694000244140625,-8.58899974822998 17.694000244140625,-8.58899974822998 C18.902999877929688,5.309000015258789 6.177000045776367,8.59000015258789 -1.4220000505447388,7.269999980926514 C-8.413999557495117,6.054999828338623 -18.902999877929688,-0.7950000166893005 -18.822999954223633,-8.58899974822998z"></path></g><g opacity="1" transform="matrix(1,0,0,1,121.81800079345703,171.2209930419922)"><path fill="rgb(0,0,0)" fill-opacity="1" d=" M-28.763999938964844,26.785999298095703 C-22.29400062561035,28.88800048828125 -12.555999755859375,35.29100036621094 -2.4089999198913574,38.084999084472656 C3.947000026702881,11.9350004196167 28.763999938964844,-26.62299919128418 28.763999938964844,-26.62299919128418 C28.763999938964844,-26.62299919128418 7.659999847412109,-38.084999084472656 7.659999847412109,-38.084999084472656 C1.2740000486373901,-37.5260009765625 -21.579999923706055,-9.819999694824219 -28.763999938964844,26.785999298095703z"></path></g><g opacity="1" transform="matrix(1,0,0,1,81.38999938964844,93.39900207519531)"><path fill="rgb(0,0,0)" fill-opacity="1" d=" M31.423999786376953,-26.691999435424805 C41.95399856567383,-56.90700149536133 17.02400016784668,-91.76100158691406 -14.824000358581543,-91.58000183105469 C-11.45300006866455,-91.5989990234375 -2.638000011444092,-81.4739990234375 -0.17299999296665192,-79.02400207519531 C7.5960001945495605,-71.30400085449219 13.868000030517578,-60.54800033569336 13.204000473022461,-49.257999420166016 C12.41100025177002,-35.75899887084961 1.9630000591278076,-29.430999755859375 -7.328999996185303,-21.43000030517578 C-41.95399856567383,8.38599967956543 -31.0310001373291,61.66299819946289 0.8050000071525574,88.6719970703125 C2.055999994277954,89.73400115966797 3.3350000381469727,90.76399993896484 4.638999938964844,91.76100158691406 C7.789999961853027,71.80799865722656 19.393999099731445,51.14500045776367 30.548999786376953,38.32500076293945 C18.844999313354492,33.2400016784668 11.420000076293945,19.305999755859375 12.711999893188477,6.519000053405762 C13.800000190734863,-4.236000061035156 27.464000701904297,-15.329999923706055 31.423999786376953,-26.691999435424805z M-0.33799999952316284,56.77000045776367 C-17.079999923706055,36.744998931884766 -17.065000534057617,16.124000549316406 -2.505000114440918,1.4529999494552612 C-4.455999851226807,4.1539998054504395 -7.093999862670898,15.572999954223633 -7.072000026702881,18.905000686645508 C-6.984000205993652,32.16299819946289 -4.260000228881836,38.150001525878906 4.546000003814697,48.801998138427734 C11.664999961853027,57.41299819946289 3.0239999294281006,60.79199981689453 -0.33799999952316284,56.77000045776367z"></path></g><g opacity="1" transform="matrix(1,0,0,1,301.3819885253906,281.3710021972656)"><path fill="rgb(0,0,0)" fill-opacity="1" d=" M18.822999954223633,-8.58899974822998 C18.822999954223633,-8.58899974822998 -17.694000244140625,-8.58899974822998 -17.694000244140625,-8.58899974822998 C-18.902999877929688,5.309000015258789 -6.177000045776367,8.59000015258789 1.4220000505447388,7.269999980926514 C8.413999557495117,6.054999828338623 18.902999877929688,-0.7950000166893005 18.822999954223633,-8.58899974822998z"></path></g><g opacity="1" transform="matrix(1,0,0,1,258.1719970703125,384.5369873046875)"><path fill="rgb(0,0,0)" fill-opacity="1" d=" M115.03700256347656,-113.2770004272461 C115.03700256347656,-113.2770004272461 84.2959976196289,-113.38400268554688 84.2959976196289,-113.38400268554688 C84.71099853515625,-103.89700317382812 83.61499786376953,-93.46700286865234 79.73400115966797,-84.68199920654297 C73.99400329589844,-71.68599700927734 59.55799865722656,-62.612998962402344 54.62900161743164,-48.12300109863281 C52.861000061035156,-42.92599868774414 53.08599853515625,-36.143001556396484 49.29999923706055,-32.30500030517578 C44.70000076293945,-31.356000900268555 26.70400047302246,-52.119998931884766 15.895999908447266,-52.06100082397461 C15.418999671936035,-52.058998107910156 14.85200023651123,-51.9010009765625 14.222000122070312,-51.63399887084961 C14.1899995803833,-51.630001068115234 14.159000396728516,-51.630001068115234 14.126999855041504,-51.625999450683594 C12.439000129699707,-51.415000915527344 9.746999740600586,-49.15999984741211 7.048999786376953,-47.02799987792969 C4.3470001220703125,-45.10900115966797 1.722000002861023,-43.3390007019043 -0.0010000000474974513,-43.1609992980957 C-1.7239999771118164,-43.34000015258789 -4.3470001220703125,-45.108001708984375 -7.046999931335449,-47.0260009765625 C-9.746000289916992,-49.159000396728516 -12.439000129699707,-51.415000915527344 -14.128000259399414,-51.625999450683594 C-14.159000396728516,-51.630001068115234 -14.187999725341797,-51.62900161743164 -14.218999862670898,-51.632999420166016 C-14.850000381469727,-51.900001525878906 -15.418000221252441,-52.058998107910156 -15.895999908447266,-52.06100082397461 C-26.704999923706055,-52.119998931884766 -44.70100021362305,-31.356000900268555 -49.30099868774414,-32.30500030517578 C-53.08599853515625,-36.141998291015625 -52.86199951171875,-42.92599868774414 -54.630001068115234,-48.12200164794922 C-59.558998107910156,-62.612998962402344 -73.99500274658203,-71.68599700927734 -79.73500061035156,-84.68199920654297 C-83.61599731445312,-93.46700286865234 -84.71199798583984,-103.89700317382812 -84.2959976196289,-113.38400268554688 C-84.2959976196289,-113.38400268554688 -115.03700256347656,-113.2770004272461 -115.03700256347656,-113.2770004272461 C-107.58999633789062,-88.53900146484375 -138.33099365234375,-60.01499938964844 -136.22799682617188,-52.560001373291016 C-136.08700561523438,-52.058998107910156 -133.85400390625,-49.345001220703125 -133.01699829101562,-50.9010009765625 C-123.29900360107422,-53.43899917602539 -107.58999633789062,-62.43199920654297 -98.91699981689453,-82.55400085449219 C-93.66200256347656,-63.48099899291992 -105.52899932861328,-46.722999572753906 -110.66400146484375,-28.020000457763672 C-120.42400360107422,7.53000020980835 -119.39800262451172,26.30299949645996 -100.23400115966797,62.375 C-95.91699981689453,70.50199890136719 -87.93699645996094,85.43499755859375 -77.81500244140625,84.58000183105469 C-76.4020004272461,75.01699829101562 -82.14700317382812,66.91300201416016 -84.76699829101562,58.27000045776367 C-93.23100280761719,30.340999603271484 -93.94499969482422,7.619999885559082 -86.45899963378906,-20.079999923706055 C-83.55799865722656,-30.812999725341797 -74.06700134277344,-45.500999450683594 -72.54100036621094,-42.143001556396484 C-69.63400268554688,-35.74399948120117 -82.68800354003906,-24.72100067138672 -84.4280014038086,10.08899974822998 C-85.94999694824219,40.52299880981445 -77.23600006103516,67.85299682617188 -60.64099884033203,93.052001953125 C-52.808998107910156,104.94499969482422 -39.47100067138672,113.38400268554688 -29.89299964904785,112.23500061035156 C-25.54199981689453,107.55400085449219 -44.52899932861328,72.57599639892578 -46.52899932861328,65.2040023803711 C-52.18199920654297,44.36000061035156 -56.31800079345703,15.062000274658203 -42.28900146484375,-2.384000062942505 C-34.229000091552734,-12.406999588012695 -13.322999954223633,-27.902999877929688 0.0010000000474974513,-29.03499984741211 C13.326000213623047,-27.900999069213867 34.229000091552734,-12.406000137329102 42.28799819946289,-2.384000062942505 C56.31800079345703,15.062000274658203 52.180999755859375,44.36000061035156 46.52799987792969,65.2040023803711 C44.52899932861328,72.5770034790039 25.541000366210938,107.5530014038086 29.892000198364258,112.23500061035156 C39.470001220703125,113.38400268554688 52.808998107910156,104.94599914550781 60.64099884033203,93.052001953125 C77.23500061035156,67.85299682617188 85.9489974975586,40.52199935913086 84.427001953125,10.088000297546387 C82.68699645996094,-24.72100067138672 69.63300323486328,-35.74399948120117 72.54100036621094,-42.143001556396484 C74.06700134277344,-45.500999450683594 83.55699920654297,-30.812999725341797 86.45800018310547,-20.079999923706055 C93.94499969482422,7.619999885559082 93.2300033569336,30.340999603271484 84.76599884033203,58.26900100708008 C82.14700317382812,66.91300201416016 76.4010009765625,75.01799774169922 77.81500244140625,84.5790023803711 C87.93599700927734,85.43499755859375 95.91600036621094,70.5009994506836 100.23400115966797,62.375 C119.39700317382812,26.30299949645996 120.42400360107422,7.5289998054504395 110.66300201416016,-28.020000457763672 C105.52799987792969,-46.722999572753906 93.66100311279297,-63.48099899291992 98.91699981689453,-82.55400085449219 C107.58999633789062,-62.43199920654297 123.2979965209961,-53.43899917602539 133.01699829101562,-50.902000427246094 C133.85299682617188,-49.345001220703125 136.08599853515625,-52.060001373291016 136.22799682617188,-52.56100082397461 C138.33099365234375,-60.01499938964844 107.58999633789062,-88.53900146484375 115.03700256347656,-113.2770004272461z"></path></g><g opacity="1" transform="matrix(1,0,0,1,258.38299560546875,439.3630065917969)"><path fill="rgb(0,0,0)" fill-opacity="1" d=" M17.083999633789062,-63.99700164794922 C12.244999885559082,-66.85199737548828 6.948999881744385,-69.01200103759766 1.5549999475479126,-69.572998046875 C-7.539000034332275,-70.51799774169922 -16.084999084472656,-65.99600219726562 -22.91699981689453,-60.4010009765625 C-29.915000915527344,-54.66899871826172 -36.42399978637695,-47.45500183105469 -39.99599838256836,-39.0620002746582 C-42.016998291015625,-34.3120002746582 -43.24599838256836,-29.243000030517578 -43.722999572753906,-24.10700035095215 C-45.15700149536133,-8.675999641418457 -41.13199996948242,6.938000202178955 -36.01300048828125,21.368000030517578 C-33.319000244140625,28.96299934387207 -8.918999671936035,70.51100158691406 2.1419999599456787,70.51399993896484 C16.510000228881836,70.51799774169922 37.60300064086914,17.19700050354004 40.93899917602539,2.615000009536743 C43.9640007019043,-10.607000350952148 45.15700149536133,-24.99799919128418 40.40700149536133,-37.972999572753906 C37.49100112915039,-45.939998626708984 32.03799819946289,-52.7400016784668 25.510000228881836,-58.069000244140625 C22.937000274658203,-60.167999267578125 20.099000930786133,-62.21799850463867 17.083999633789062,-63.99700164794922z"></path></g></g></g></svg>