<svg xmlns="http://www.w3.org/2000/svg" xmlns:xlink="http://www.w3.org/1999/xlink" viewBox="0 0 512 512" width="512" height="512" style="width: 100%; height: 100%; transform: translate3d(0,0,0);" preserveAspectRatio="xMidYMid meet"><defs><clipPath id="__lottie_element_53944"><rect width="512" height="512" x="0" y="0"></rect></clipPath></defs><g clip-path="url(#__lottie_element_53944)"><g style="display: block;" transform="matrix(1,0,0,1,254.13900756835938,260.59600830078125)" opacity="1"><g opacity="1" transform="matrix(1,0,0,1,0,0)"><path fill="rgb(0,0,0)" fill-opacity="1" d=" M-193.99,19.96 C-194.2,18.26 -195.32,16.78 -197.15,17.35 C-201.96,18.86 -205.88,22.26 -206.99,26.92 C-208.84,34.73 -197.86,41.1 -194.21,39.16 C-190.65,37.26 -193.56,23.47 -193.99,19.96z M192.67,-140.97 C186.15,-139.88 184.96,-137.77 188.74,-132.6 C191.97,-128.18 195.74,-124.16 199.35,-120.03 C200.66,-118.52 202.22,-117.16 204.29,-118.97 C206.97,-121.31 208.48,-131.66 206.86,-135.85 C206.01,-141.03 199.2,-142.07 192.67,-140.97z M-123.8,-32.34 C-129.05,-32.52 -133.68,-30.53 -135.55,-25.76 C-145.56,-0.17 -141.82,33.89 -132.82,55.88 C-128.18,67.21 -122,77.82 -113.23,86.61 C-105.33,94.54 -97.93,96.05 -91.2,91.43 C-83.99,86.5 -82.56,78.57 -87.39,68.16 C-89.55,63.53 -92.2,59.11 -94.85,54.73 C-102.74,41.71 -107.91,27.84 -108.66,12.48 C-109.14,2.64 -109.59,-7.21 -110.52,-17 C-111.46,-26.84 -116.35,-32.13 -123.8,-32.34z M-138.2,-114.3 C-128.89,-112.46 -120.48,-113.59 -112.09,-115.35 C-50.84,-128.26 0.55,-158.94 27.06,-179.01 C31.64,-182.48 36.51,-185.89 39.44,-192.71 C31.18,-194.71 23.84,-193.76 16.71,-192.15 C-36.39,-180.12 -84.89,-158.02 -128.42,-125.23 C-132.07,-122.47 -136.1,-119.9 -138.2,-114.3z M142.06300354003906,176.718994140625 C142.01400756835938,183.44400024414062 141.9510040283203,190.15199279785156 139.41900634765625,196.56399536132812 C133.6719970703125,211.11700439453125 121.58100128173828,215.8159942626953 107.96700286865234,208.19400024414062 C98.64700317382812,202.9759979248047 89.96199798583984,196.59500122070312 82.41999816894531,189.05799865722656 C77.61599731445312,184.2570037841797 72.76599884033203,182.65699768066406 66.46399688720703,184.44500732421875 C47.270999908447266,189.88999938964844 27.583999633789062,191.44700622558594 7.7789998054504395,191.0489959716797 C-0.6129999756813049,190.8800048828125 -6.541999816894531,193.72999572753906 -11.277000427246094,200.47000122070312 C-15.130000114440918,205.9550018310547 -26.67799949645996,222.25900268554688 -37.83300018310547,230.65499877929688 C-50.1150016784668,240.0070037841797 -63.62900161743164,236.3489990234375 -69.72000122070312,222.09800720214844 C-73.59500122070312,213.03199768066406 -73.11499786376953,203.5399932861328 -71.91999816894531,194.07899475097656 C-70.28800201416016,181.15499877929688 -70.09300231933594,180.89300537109375 -81.66899871826172,176.93600463867188 C-122.08799743652344,163.11900329589844 -152.4720001220703,137.5970001220703 -171.927001953125,99.52400207519531 C-175.031005859375,93.44999694824219 -179.03599548339844,90.80000305175781 -185.54299926757812,90.11699676513672 C-194.59300231933594,89.16699981689453 -223.75599670410156,90.61799621582031 -243.12399291992188,59.11199951171875 C-256.4649963378906,37.4109992980957 -254.7030029296875,11.381999969482422 -237.03799438476562,-8.8100004196167 C-226.65699768066406,-20.676000595092773 -210.9459991455078,-30.04599952697754 -199.07200622558594,-34.263999938964844 C-190.60899353027344,-37.27000045776367 -187.5919952392578,-42.393001556396484 -184.00399780273438,-50.45800018310547 C-180.65499877929688,-57.986000061035156 -178.9290008544922,-63.45100021362305 -184.20799255371094,-69.73600006103516 C-187.30999755859375,-72.14800262451172 -190.33700561523438,-74.80599975585938 -192.83299255371094,-77.82099914550781 C-202.39999389648438,-89.37799835205078 -205.23199462890625,-102.33100128173828 -199.6490020751953,-116.54399871826172 C-194.61599731445312,-129.35699462890625 -186.17599487304688,-139.6490020751953 -175.4239959716797,-148.1580047607422 C-118.07599639892578,-193.5449981689453 -52.76499938964844,-220.8419952392578 18.889999389648438,-233.72999572753906 C34.58000183105469,-236.552001953125 50.34199905395508,-236.30099487304688 66.0719985961914,-234.2259979248047 C87.2770004272461,-231.42799377441406 103.11100006103516,-216.26400756835938 105.8270034790039,-194.7429962158203 C106.8239974975586,-186.84100341796875 110.28900146484375,-183.23399353027344 116.96499633789062,-179.99400329589844 C131.31399536132812,-173.02999877929688 144.0500030517578,-169.1739959716797 159.7779998779297,-179.3470001220703 C174.0229949951172,-188.56100463867188 191.4720001220703,-190.88600158691406 208.97500610351562,-187.27499389648438 C239.03900146484375,-181.072998046875 253.64199829101562,-155.83299255371094 251.72799682617188,-127.82499694824219 C250.4510040283203,-109.13600158691406 243.4530029296875,-92.44100189208984 232.87399291992188,-77.36900329589844 C227.5959930419922,-69.8489990234375 226.8719940185547,-62.88399887084961 228.927001953125,-54.095001220703125 C234.69900512695312,-29.41699981689453 237.55499267578125,1.74399995803833 221.40499877929688,45.266998291015625 C219.1699981689453,52.22999954223633 220.54200744628906,57.44499969482422 225.92300415039062,62.183998107910156 C228.8679962158203,64.7770004272461 241.0070037841797,75.76100158691406 242.54400634765625,90.19300079345703 C244.9530029296875,104.96399688720703 235.10899353027344,116.85800170898438 220.13999938964844,117.40299987792969 C212.9029998779297,117.66600036621094 206.0540008544922,115.53700256347656 199.20399475097656,113.71600341796875 C190.2830047607422,111.34400177001953 183.31900024414062,113.16699981689453 177.1060028076172,120.54199981689453 C171.02499389648438,127.76000213623047 163.8939971923828,134.13900756835938 156.8979949951172,140.5279998779297 C148.9739990234375,147.76499938964844 148.6790008544922,147.70399475097656 140.02099609375,141.2550048828125 C119.43699645996094,128.6840057373047 99.91100311279297,132.23899841308594 97.36399841308594,133.1790008544922 C93.85600280761719,134.4739990234375 88.29100036621094,135.14100646972656 89.26799774169922,140.05299377441406 C90.14199829101562,144.4499969482422 95.19499969482422,142.2740020751953 98.50800323486328,142.3699951171875 C100.46900177001953,142.427001953125 102.44000244140625,142.02200317382812 104.41000366210938,141.87600708007812 C129.55099487304688,140.01499938964844 142.01699829101562,151.55599975585938 142.06300354003906,176.718994140625z"></path><g opacity="1" transform="matrix(1,0,0,1,-199.82899475097656,28.367000579833984)"></g><g opacity="1" transform="matrix(1,0,0,1,197.06700134277344,-129.73699951171875)"></g><g opacity="1" transform="matrix(1,0,0,1,-113.04000091552734,30.836000442504883)"></g><g opacity="1" transform="matrix(1,0,0,1,-49.37799835205078,-153.5989990234375)"></g><g opacity="1" transform="matrix(1,0,0,1,0,0)"></g></g></g></g></svg>