<svg xmlns="http://www.w3.org/2000/svg" xmlns:xlink="http://www.w3.org/1999/xlink" viewBox="0 0 512 512" width="512" height="512" style="width: 100%; height: 100%; transform: translate3d(0,0,0);" preserveAspectRatio="xMidYMid meet"><defs><clipPath id="__lottie_element_15736"><rect width="512" height="512" x="0" y="0"></rect></clipPath></defs><g clip-path="url(#__lottie_element_15736)"><g style="display: block;" transform="matrix(1,0,0,1,7.3499908447265625,6.0830078125)" opacity="1"><g opacity="1" transform="matrix(1,0,0,1,252.4499969482422,253.6269989013672)"><path fill="rgb(0,0,0)" fill-opacity="1" d=" M-157.51800537109375,120.07099914550781 C-158.86599731445312,151.68899536132812 -132.35299682617188,155.58799743652344 -124.98300170898438,166.16000366210938 C-114.25800323486328,181.54400634765625 -139.76100158691406,225.00900268554688 -93.40299987792969,233.06399536132812 C-49.672000885009766,240.66200256347656 -34.354000091552734,211.24400329589844 -19.844999313354492,205.78199768066406 C-4.190000057220459,199.88800048828125 1.1230000257492065,222.2220001220703 29.190000534057617,194.15499877929688 C51.93899917602539,171.406005859375 23.930999755859375,132.31900024414062 20.090999603271484,112.25900268554688 C13.581999778747559,78.2509994506836 23.82200050354004,73.16500091552734 36.492000579833984,74.7770004272461 C43.1510009765625,75.6240005493164 41.19599914550781,106.12999725341797 53.45600128173828,125.90799713134766 C61.8120002746582,139.38800048828125 70.8740005493164,135.68299865722656 89.85299682617188,150.17300415039062 C99.42500305175781,157.4810028076172 91.14600372314453,204.6199951171875 141.41799926757812,198.7050018310547 C192.9810028076172,192.63800048828125 175.07899475097656,147.31500244140625 185.3979949951172,130.45799255371094 C191.3280029296875,120.77100372314453 221.8000030517578,153.20700073242188 227.86300659179688,80.41100311279297 C230.24000549316406,51.87200164794922 229.88400268554688,17.724000930786133 198.03599548339844,7.109000205993652 C165.7310028076172,-3.6579999923706055 162.04800415039062,-0.9380000233650208 153.5500030517578,-13.616000175476074 C149.593994140625,-19.517000198364258 155.5989990234375,-30.68000030517578 168.71499633789062,-33.332000732421875 C187.02999877929688,-37.03499984741211 221.73500061035156,-1.6970000267028809 243.0279998779297,-43.948001861572266 C252.1999969482422,-62.14699935913086 224.88299560546875,-77.69599914550781 223.31300354003906,-89.44599914550781 C221.88400268554688,-100.13899993896484 244.6179962158203,-118.11399841308594 232.41200256347656,-142.5260009765625 C220.27999877929688,-166.79100036621094 192.54299926757812,-153.63099670410156 180.8489990234375,-159.20799255371094 C172.63600158691406,-163.125 171.41600036621094,-185.7449951171875 153.5500030517578,-177.40699768066406 C108.052001953125,-156.1750030517578 111.08599853515625,-110.6780014038086 102.49199676513672,-94.50199890136719 C95.0790023803711,-80.5479965209961 67.10600280761719,-72.76300048828125 71.65499877929688,-54.56399917602539 C76.26399993896484,-36.12900161743164 104.93099975585938,-59.25 109.56900024414062,-52.0359992980957 C118.66899871826172,-37.88199996948242 86.29199981689453,-37.374000549316406 89.85299682617188,-16.649999618530273 C93.072998046875,2.0940001010894775 141.0679931640625,36.14500045776367 126.2509994506836,42.49599838256836 C105.0199966430664,51.59600067138672 71.20700073242188,0.8679999709129333 43.345001220703125,8.626999855041504 C3.4100000858306885,19.74799919128418 -12.767999649047852,85.46700286865234 -29.451000213623047,82.43299865722656 C-43.571998596191406,79.86499786376953 -46.63800048828125,66.76200103759766 -25.4060001373291,37.946998596191406 C-15.99899959564209,25.18000030517578 0.46799999475479126,14.020999908447266 -5.690999984741211,4.580999851226807 C-22.1560001373291,-20.65399932861328 -93.2760009765625,14.003999710083008 -94.66300201416016,-9.572999954223633 C-96.68499755859375,-43.948001861572266 -36.02199935913086,-22.715999603271484 -22.37299919128418,-44.45399856567383 C-6.008999824523926,-70.51499938964844 -45.12200164794922,-106.12699890136719 -26.92300033569336,-113.70999908447266 C-18.64299964904785,-117.16000366210938 -3.131999969482422,-92.88800048828125 9.475000381469727,-97.02799987792969 C32.20600128173828,-104.49299621582031 29.69700050354004,-203.00900268554688 3.4089999198913574,-212.28799438476562 C-22.37299919128418,-221.38800048828125 -19.27199935913086,-203.2220001220703 -26.92300033569336,-201.6719970703125 C-42.10599899291992,-198.5959930419922 -57.255001068115234,-235.03799438476562 -92.13600158691406,-209.25599670410156 C-119.9739990234375,-188.67999267578125 -99.16500091552734,-171.32899475097656 -102.7509994506836,-159.20799255371094 C-107.97799682617188,-141.53900146484375 -122.25399780273438,-152.23800659179688 -123.98400115966797,-134.9429931640625 C-127.01699829101562,-104.61199951171875 -86.36299896240234,-112.59600067138672 -72.41999816894531,-90.96299743652344 C-59.37300109863281,-70.72000122070312 -78.01599884033203,-71.98699951171875 -87.5009994506836,-71.52100372314453 C-108.13999938964844,-70.50800323486328 -135.16700744628906,-111.51000213623047 -179.92100524902344,-92.99099731445312 C-223.90199279785156,-74.79199981689453 -202.29200744628906,-52.33100128173828 -212.95599365234375,-41.42100143432617 C-221.8939971923828,-32.277000427246094 -257.79998779296875,-41.99100112915039 -251.37600708007812,4.581999778747559 C-245.3090057373047,48.5620002746582 -218.9980010986328,27.95800018310547 -209.92300415039062,36.43000030517578 C-200.85800170898438,44.891998291015625 -213.46200561523438,59.176998138427734 -192.22999572753906,66.76100158691406 C-171.15899658203125,74.28800201416016 -137.63299560546875,72.8270034790039 -96.68499755859375,45.52899932861328 C-85.93299865722656,38.361000061035156 -66.35299682617188,50.08000183105469 -79.21199798583984,63.97600173950195 C-88.61100006103516,74.13200378417969 -156.0260009765625,85.06400299072266 -157.51800537109375,120.07099914550781z"></path></g><g opacity="1" transform="matrix(1,0,0,1,316.4750061035156,122.87200164794922)"><path fill="rgb(0,0,0)" fill-opacity="1" d=" M-56.51100158691406,90.72100067138672 C-64.39900207519531,115.27300262451172 -26.007999420166016,125.34400177001953 -20.173999786376953,108.03900146484375 C-7.243000030517578,69.68499755859375 11.234000205993652,-22.18600082397461 18.246999740600586,-28.452999114990234 C23.219999313354492,-32.89699935913086 34.82500076293945,-32.970001220703125 40.59199905395508,-47.99300003051758 C43.57099914550781,-55.75199890136719 39.816001892089844,-65.71099853515625 41.500999450683594,-72.93900299072266 C44.12099838256836,-84.1760025024414 60.20000076293945,-82.93699645996094 60.20500183105469,-89.62100219726562 C60.220001220703125,-111.16300201416016 24.040000915527344,-122.62200164794922 8.13599967956543,-110.85299682617188 C3.628000020980835,-107.51699829101562 12.059000015258789,-96.49600219726562 8.13599967956543,-87.5989990234375 C4.732999801635742,-79.87999725341797 -0.902999997138977,-80.09700012207031 -7.534999847412109,-73.44499969482422 C-16.579999923706055,-64.37100219726562 -7.2729997634887695,-49.47700119018555 -6.019000053405762,-43.61800003051758 C-1.5750000476837158,-22.858999252319336 -46.95500183105469,60.97600173950195 -56.51100158691406,90.72100067138672z"></path></g></g></g></svg>