<svg xmlns="http://www.w3.org/2000/svg" xmlns:xlink="http://www.w3.org/1999/xlink" viewBox="0 0 512 512" width="512" height="512" style="width: 100%; height: 100%; transform: translate3d(0,0,0);" preserveAspectRatio="xMidYMid meet"><defs><clipPath id="__lottie_element_51635"><rect width="512" height="512" x="0" y="0"></rect></clipPath></defs><g clip-path="url(#__lottie_element_51635)"><g style="display: block;" transform="matrix(1,0,0,1,-17.5579833984375,42.20399475097656)" opacity="1"><g opacity="1" transform="matrix(1,0,0,1,273.5570068359375,201.89300537109375)"><path fill="rgb(0,0,0)" fill-opacity="1" d=" M246.77699279785156,118.00399780273438 C220.96400451660156,96.48500061035156 170.4949951171875,140.1280059814453 160.28399658203125,124.25700378417969 C149.4040069580078,107.322998046875 198.99899291992188,-157.8699951171875 180.02499389648438,-152.94000244140625 C-12.510000228881836,-102.91999816894531 -99.74099731445312,-158.48500061035156 -70.5009994506836,-156.0659942626953 C-25.4060001373291,-152.3350067138672 133.80499267578125,-144.06100463867188 168.427001953125,-194.6230010986328 C176.70700073242188,-206.71499633789062 75,-229.0970001220703 3.002000093460083,-229.22000122070312 C-58.24800109863281,-229.3249969482422 -138,-218.0970001220703 -164.44900512695312,-199.83299255371094 C-192.5500030517578,-180.42799377441406 -147.13099670410156,108.625 -154.42599487304688,124.25700378417969 C-161.54299926757812,139.51300048828125 -225.52699279785156,108.28099822998047 -241.96099853515625,120.08799743652344 C-275.3070068359375,144.05599975585938 -207.57200622558594,257.64300537109375 11.265000343322754,257.64300537109375 C207.177001953125,257.64300537109375 265.53399658203125,133.63600158691406 246.77699279785156,118.00399780273438z M113.7229995727539,141.2010040283203 C69,171.9029998779297 -53,175.9029998779297 -109.53500366210938,141.2010040283203 C-118.89800262451172,135.45399475097656 -116.38099670410156,72.7969970703125 -108.49299621582031,75.42400360107422 C-50,94.90299987792969 66,97.90299987792969 111.63899993896484,73.33899688720703 C123.41600036621094,67 124.7229995727539,133.64999389648438 113.7229995727539,141.2010040283203z"></path></g></g></g></svg>