<svg xmlns="http://www.w3.org/2000/svg" xmlns:xlink="http://www.w3.org/1999/xlink" viewBox="0 0 512 512" width="512" height="512" style="width: 100%; height: 100%; transform: translate3d(0,0,0);" preserveAspectRatio="xMidYMid meet"><defs><clipPath id="__lottie_element_52383"><rect width="512" height="512" x="0" y="0"></rect></clipPath></defs><g clip-path="url(#__lottie_element_52383)"><g style="display: block;" transform="matrix(1,0,0,1,0,0)" opacity="1"><g opacity="1" transform="matrix(1,0,0,1,262.8630065917969,257.9729919433594)"><path fill="rgb(0,0,0)" fill-opacity="1" d=" M155.86099243164062,-232.6540069580078 C144.8990020751953,-231.17599487304688 134.03199768066406,-226.6580047607422 123.34400177001953,-219.95399475097656 C187.3300018310547,-175.1510009765625 94.74600219726562,-88.90599822998047 94.74600219726562,-88.90599822998047 C149.2169952392578,-177.91900634765625 121.677001953125,-201.2949981689453 106.26000213623047,-207.33799743652344 C49.25899887084961,-158.61199951171875 -0.6299999952316284,-53.74599838256836 -27.48200035095215,-5.4120001792907715 C-43.34000015258789,23.131000518798828 -61.03499984741211,37.055999755859375 -83.23500061035156,46.729000091552734 C-67.98999786376953,92.73200225830078 -4.242000102996826,48.81700134277344 -4.242000102996826,48.81700134277344 C-57.48500061035156,108.4739990234375 -91.11399841308594,75.39600372314453 -104.80000305175781,54.66600036621094 C-126.6520004272461,61.637001037597656 -152.50599670410156,67.76799774169922 -184.14199829101562,79.80400085449219 C-247.32000732421875,103.83899688720703 -249.13699340820312,174.44200134277344 -247.2899932861328,202.01199340820312 C-246.8350067138672,208.7969970703125 -242.11000061035156,214.5019989013672 -235.52499389648438,216.1999969482422 C-171.6580047607422,232.6540069580078 -96.08699798583984,226.3800048828125 -56.2130012512207,221.0800018310547 C-38.72999954223633,218.75599670410156 -5.460999965667725,206.59500122070312 5.22599983215332,192.56500244140625 C5.22599983215332,192.56500244140625 139.5050048828125,-3.690000057220459 139.5050048828125,-3.690000057220459 C119.99600219726562,74.06600189208984 89.00700378417969,105.0530014038086 89.00700378417969,105.0530014038086 C89.00700378417969,105.0530014038086 96.14199829101562,193.47500610351562 96.14199829101562,193.47500610351562 C96.64800262451172,199.73800659179688 101.93399810791016,204.5279998779297 108.21499633789062,204.41600036621094 C108.21499633789062,204.41600036621094 135.5399932861328,203.93099975585938 135.5399932861328,203.93099975585938 C141.3179931640625,203.8300018310547 146.1719970703125,199.56500244140625 147.08299255371094,193.86000061035156 C180.70799255371094,-16.47599983215332 223.19700622558594,-31.304000854492188 235.91200256347656,-91.48799896240234 C258.3559875488281,-197.7259979248047 155.86099243164062,-232.6540069580078 155.86099243164062,-232.6540069580078z M-170.8780059814453,121.0199966430664 C-180.93800354003906,131.08099365234375 -199.9199981689453,158.99899291992188 -207.36700439453125,143.36099243164062 C-214.6739959716797,128.01400756835938 -174.9739990234375,89.37300109863281 -138.11300659179688,100.16899871826172 C-126.927001953125,103.4469985961914 -154.1230010986328,104.26499938964844 -170.8780059814453,121.0199966430664z"></path></g></g></g></svg>