<svg xmlns="http://www.w3.org/2000/svg" xmlns:xlink="http://www.w3.org/1999/xlink" viewBox="0 0 512 512" width="512" height="512" style="width: 100%; height: 100%; transform: translate3d(0,0,0);" preserveAspectRatio="xMidYMid meet"><defs><clipPath id="__lottie_element_27224"><rect width="512" height="512" x="0" y="0"></rect></clipPath></defs><g clip-path="url(#__lottie_element_27224)"><g style="display: block;" transform="matrix(1,0,0,1,0,0)" opacity="1"><g opacity="1" transform="matrix(1,0,0,1,103.55699920654297,127.86900329589844)"><path fill="rgb(52,52,52)" fill-opacity="1" d=" M-90.31400299072266,-6.880000114440918 C-89.1969985961914,7.992000102996826 -88.04199981689453,23.371000289916992 -87.52400207519531,38.29399871826172 C-87.41000366210938,41.571998596191406 -87.5260009765625,47.79600143432617 -87.66000366210938,55.00199890136719 C-88.26200103759766,87.39900207519531 -88.3239974975586,114.65299987792969 -82.95899963378906,120.01799774169922 C-79.66000366210938,123.31800079345703 -73.08699798583984,124.4260025024414 -64.31500244140625,124.42500305175781 C-57.71200180053711,124.42500305175781 -49.86199951171875,123.7979965209961 -41.22600173950195,123.00599670410156 C-34.683998107910156,122.40599822998047 -29.030000686645508,121.89399719238281 -25.68600082397461,122.0530014038086 C-25.68600082397461,122.0530014038086 -23.486000061035156,122.16300201416016 -23.486000061035156,122.16300201416016 C-23.486000061035156,122.16300201416016 -22.83799934387207,40.805999755859375 -22.83799934387207,40.805999755859375 C-18.68600082397461,40.027000427246094 -9.814000129699707,38.803001403808594 -0.5490000247955322,38.06399917602539 C16.35300064086914,36.71500015258789 20.03499984741211,38.14799880981445 20.6560001373291,38.49700164794922 C23.527000427246094,45.21699905395508 23.10700035095215,60.000999450683594 22.701000213623047,74.30599975585938 C22.2189998626709,91.26300048828125 21.802000045776367,105.90899658203125 26.20400047302246,111.15399932861328 C29.891000747680664,115.5469970703125 39.09400177001953,118.51599884033203 53.55699920654297,119.9749984741211 C64.38099670410156,121.06800079345703 76.10600280761719,121.09100341796875 82.85700225830078,120.78199768066406 C82.85700225830078,120.78199768066406 84.35800170898438,120.71299743652344 84.35800170898438,120.71299743652344 C84.35800170898438,120.71299743652344 84.78500366210938,119.27300262451172 84.78500366210938,119.27300262451172 C89.27200317382812,104.16699981689453 88.98300170898438,88.41100311279297 88.70500183105469,73.17400360107422 C88.59200286865234,67.06199645996094 88.47699737548828,60.742000579833984 88.677001953125,54.59600067138672 C89.0999984741211,41.619998931884766 89.71499633789062,28.256000518798828 90.31199645996094,15.329999923706055 C91.22799682617188,-4.513000011444092 92.17500305175781,-25.031999588012695 92.46199798583984,-44.93299865722656 C92.46199798583984,-44.93299865722656 92.48100280761719,-46.19499969482422 92.48100280761719,-46.19499969482422 C93.48200225830078,-113.8489990234375 91.88099670410156,-116.55799865722656 91.1969985961914,-117.71499633789062 C89.86799621582031,-119.96299743652344 86.69100189208984,-121.38899993896484 81.48300170898438,-122.0770034790039 C63.654998779296875,-124.4260025024414 31.836999893188477,-118.3550033569336 26.165000915527344,-112.80500030517578 C23.5,-110.197998046875 23.27199935913086,-108.43499755859375 22.926000595092773,-105.76499938964844 C22.926000595092773,-105.76499938964844 22.85300064086914,-105.20999908447266 22.85300064086914,-105.20999908447266 C22.059999465942383,-99.24700164794922 22.506999969482422,-85.61900329589844 22.979000091552734,-71.19000244140625 C23.518999099731445,-54.715999603271484 24.256999969482422,-32.154998779296875 22.36400032043457,-28.941999435424805 C19.764999389648438,-25.902999877929688 -9.60099983215332,-23.292999267578125 -22.027999877929688,-23.44300079345703 C-22.027999877929688,-23.44300079345703 -27.538999557495117,-105.24600219726562 -27.538999557495117,-105.24600219726562 C-27.538999557495117,-105.24600219726562 -28.875,-105.6989974975586 -28.875,-105.6989974975586 C-48.369998931884766,-112.3030014038086 -69.91699981689453,-112.94100189208984 -91.18900299072266,-107.53700256347656 C-91.18900299072266,-107.53700256347656 -92.78700256347656,-107.13200378417969 -92.78700256347656,-107.13200378417969 C-92.78700256347656,-107.13200378417969 -92.78099822998047,-105.48400115966797 -92.78099822998047,-105.48400115966797 C-92.76000213623047,-98.53299713134766 -92.90399932861328,-91.41300201416016 -93.04299926757812,-84.5260009765625 C-93.25900268554688,-73.9010009765625 -93.48200225830078,-62.91299819946289 -93.10900115966797,-52.1510009765625 C-92.58899688720703,-37.176998138427734 -91.43199920654297,-21.774999618530273 -90.31400299072266,-6.880000114440918z"></path></g><g opacity="1" transform="matrix(1,0,0,1,392.0669860839844,126.65399932861328)"><path fill="rgb(52,52,52)" fill-opacity="1" d=" M-90.26100158691406,13.074000358581543 C-89.93299865722656,24.746000289916992 -90.2509994506836,36.99300003051758 -90.55799865722656,48.83599853515625 C-90.95500183105469,64.11100006103516 -91.36399841308594,79.90599822998047 -90.40899658203125,94.83499908447266 C-89.14700317382812,114.51599884033203 -85.94999694824219,124.47699737548828 -80.34700012207031,126.18499755859375 C-79.27300262451172,126.51300048828125 -77.78600311279297,126.65399932861328 -76.01799774169922,126.65399932861328 C-70.15599822998047,126.65399932861328 -61.20000076293945,125.09600067138672 -53.89699935913086,123.58499908447266 C-42.95399856567383,121.3219985961914 -31.89299964904785,118.34300231933594 -27.5939998626709,116.50299835205078 C-15.34000015258789,111.25700378417969 -16.17799949645996,98.91400146484375 -16.916000366210938,88.0250015258789 C-17.017000198364258,86.53099822998047 -17.118999481201172,85.04399871826172 -17.187999725341797,83.5790023803711 C-17.266000747680664,81.91999816894531 -17.722000122070312,79.10399627685547 -18.301000595092773,75.54000091552734 C-19.160999298095703,70.23799896240234 -21.77400016784668,54.14400100708008 -19.60700035095215,52.237998962402344 C-17.06100082397461,51.486000061035156 -7.15500020980835,51.87099838256836 -0.5899999737739563,52.124000549316406 C2.4839999675750732,52.24300003051758 5.138000011444092,52.34600067138672 6.8979997634887695,52.34600067138672 C25.767000198364258,52.34600067138672 46.52299880981445,42.66299819946289 63.84299850463867,25.780000686645508 C80.62200164794922,9.423999786376953 91.60600280761719,-11.520000457763672 93.22699737548828,-30.242000579833984 C96.05000305175781,-62.86399841308594 85.21499633789062,-89.04900360107422 61.893001556396484,-105.96499633789062 C44.356998443603516,-118.68499755859375 20.511999130249023,-125.81400299072266 -7.065000057220459,-126.58399963378906 C-32.44599914550781,-127.30500030517578 -58.67300033569336,-122.46900177001953 -80.93499755859375,-113.00399780273438 C-82.18499755859375,-112.4729995727539 -83.3270034790039,-112.03399658203125 -84.36499786376953,-111.63300323486328 C-90.99299621582031,-109.08100128173828 -94.2040023803711,-107.41799926757812 -94.77899932861328,-97.57599639892578 C-96.04900360107422,-75.8550033569336 -94.28900146484375,-51.15700149536133 -92.58599853515625,-27.27400016784668 C-91.57599639892578,-13.086000442504883 -90.62000274658203,0.3160000145435333 -90.26100158691406,13.074000358581543z M-29.020999908447266,-62.608001708984375 C-14.633999824523926,-67.42900085449219 7.416999816894531,-67.46499633789062 20.94700050354004,-59.099998474121094 C27.968000411987305,-54.75899887084961 31.944000244140625,-48.61800003051758 32.763999938964844,-40.84600067138672 C33.641998291015625,-32.53799819946289 31.076000213623047,-25.392000198364258 25.13800048828125,-19.610000610351562 C13.984000205993652,-8.748000144958496 -7.388999938964844,-4.7230000495910645 -22.639999389648438,-6.2789998054504395 C-22.639999389648438,-6.2789998054504395 -29.020999908447266,-62.608001708984375 -29.020999908447266,-62.608001708984375z"></path></g><g opacity="1" transform="matrix(1,0,0,1,92.44999694824219,384.5530090332031)"><path fill="rgb(52,52,52)" fill-opacity="1" d=" M88.47699737548828,-80.96299743652344 C89.56700134277344,-91.14099884033203 90.69400024414062,-101.66600036621094 90.60299682617188,-110.6050033569336 C90.55400085449219,-115.35399627685547 89.98300170898438,-120.61000061035156 83.7699966430664,-122.86799621582031 C83.7699966430664,-122.86799621582031 83.49299621582031,-122.96900177001953 83.49299621582031,-122.96900177001953 C83.49299621582031,-122.96900177001953 19.86400032043457,-127.4469985961914 19.86400032043457,-127.4469985961914 C19.86400032043457,-127.4469985961914 23.45599937438965,-35.1870002746582 23.45599937438965,-35.1870002746582 C22.281999588012695,-29.357999801635742 5.165999889373779,-27.229999542236328 -10.814000129699707,-28.156999588012695 C-10.814000129699707,-28.156999588012695 -12.60200023651123,-29.937999725341797 -12.60200023651123,-29.937999725341797 C-12.60200023651123,-29.937999725341797 -16.774999618530273,-104.77300262451172 -16.774999618530273,-104.77300262451172 C-16.774999618530273,-104.77300262451172 -16.790000915527344,-104.927001953125 -16.790000915527344,-104.927001953125 C-17.145000457763672,-107.6729965209961 -18.343000411987305,-109.9209976196289 -20.2549991607666,-111.4280014038086 C-29.280000686645508,-118.54900360107422 -77.18000030517578,-110.43299865722656 -87.64099884033203,-105.36299896240234 C-87.64099884033203,-105.36299896240234 -88.18199920654297,-105.10099792480469 -88.18199920654297,-105.10099792480469 C-88.18199920654297,-105.10099792480469 -88.50299835205078,-104.59500122070312 -88.50299835205078,-104.59500122070312 C-90.69300079345703,-101.14600372314453 -88.26300048828125,-85.23899841308594 -82.34400177001953,-53.08599853515625 C-81.10399627685547,-46.34700012207031 -80.03199768066406,-40.5260009765625 -79.68199920654297,-37.88399887084961 C-72.86399841308594,13.720999717712402 -69.59300231933594,66.7300033569336 -66.8270034790039,116.60199737548828 C-66.8270034790039,116.60199737548828 -66.81099700927734,116.9209976196289 -66.81099700927734,116.9209976196289 C-66.81099700927734,116.9209976196289 -66.6989974975586,117.22000122070312 -66.6989974975586,117.22000122070312 C-65.83100128173828,119.56300354003906 -64.61799621582031,121.38200378417969 -62.99300003051758,122.77799987792969 C-59.12799835205078,126.0999984741211 -45.10100173950195,127.4469985961914 -32.7400016784668,127.4469985961914 C-24.437000274658203,127.4469985961914 -16.884000778198242,126.83899688720703 -13.678000450134277,125.81099700927734 C-13.678000450134277,125.81099700927734 -13.321999549865723,125.6969985961914 -13.321999549865723,125.6969985961914 C-13.321999549865723,125.6969985961914 -8.923999786376953,122.27300262451172 -8.923999786376953,122.27300262451172 C-8.923999786376953,122.27300262451172 -8.923999786376953,36.395999908447266 -8.923999786376953,36.395999908447266 C-6.841000080108643,36.025001525878906 -4.080999851226807,35.34400177001953 -0.8119999766349792,34.53799819946289 C5.670000076293945,32.939998626708984 20.600000381469727,29.257999420166016 23.197999954223633,31.547000885009766 C24.461999893188477,36.790000915527344 24.69499969482422,48.854000091552734 24.94300079345703,61.60499954223633 C25.458999633789062,88.25399780273438 26.17799949645996,106.04499816894531 31.256999969482422,110.35600280761719 C36.62799835205078,114.91300201416016 60.31100082397461,116.85099792480469 74.20099639892578,113.86699676513672 C80.29900360107422,112.55799865722656 83.94499969482422,110.48899841308594 85.34600067138672,107.54299926757812 C85.34600067138672,107.54299926757812 85.5270004272461,107.16500091552734 85.5270004272461,107.16500091552734 C85.5270004272461,107.16500091552734 85.54900360107422,106.74600219726562 85.54900360107422,106.74600219726562 C87.1719970703125,75.6729965209961 86.7979965209961,44.04999923706055 86.43599700927734,13.468000411987305 C86.16600036621094,-9.331999778747559 85.88700103759766,-32.90800094604492 86.44000244140625,-56.04499816894531 C86.62100219726562,-63.630001068115234 87.56500244140625,-72.44100189208984 88.47699737548828,-80.96299743652344z"></path></g><g opacity="1" transform="matrix(1,0,0,1,425.89898681640625,377.8420104980469)"><path fill="rgb(52,52,52)" fill-opacity="1" d=" M82.30799865722656,-55.34400177001953 C79.22100067138672,-85.8010025024414 65.21499633789062,-106.99600219726562 40.68000030517578,-118.33899688720703 C21.767000198364258,-127.08200073242188 -3.7249999046325684,-130.2469940185547 -37.25,-128.0260009765625 C-37.67499923706055,-127.99700164794922 -79.9800033569336,-124.51399993896484 -82.89800262451172,-115.8740005493164 C-85.10900115966797,-109.3280029296875 -82.88200378417969,-89.84500122070312 -79.19300079345703,-57.56700134277344 C-76.31900024414062,-32.42399978637695 -72.74099731445312,-1.1319999694824219 -70.0739974975586,34.93299865722656 C-68.93299865722656,50.36000061035156 -69.35099792480469,66.18900299072266 -69.75499725341797,81.49600219726562 C-70.11399841308594,95.0770034790039 -70.48600006103516,109.11900329589844 -69.7760009765625,122.9209976196289 C-69.7760009765625,122.9209976196289 -69.76300048828125,123.1709976196289 -69.76300048828125,123.1709976196289 C-69.76300048828125,123.1709976196289 -69.69300079345703,123.41000366210938 -69.69300079345703,123.41000366210938 C-68.80400085449219,126.4280014038086 -64.89199829101562,128.33599853515625 -57.38199996948242,129.4149932861328 C-53.571998596191406,129.96099853515625 -48.584999084472656,130.2469940185547 -43.18000030517578,130.2469940185547 C-27.14900016784668,130.2469940185547 -7.438000202178955,127.73899841308594 -3.8239998817443848,122.1259994506836 C0.722000002861023,115.06400299072266 -2.6080000400543213,92.55400085449219 -7.078999996185303,66.0530014038086 C-8.331000328063965,58.63199996948242 -9.729000091552734,50.354000091552734 -9.845000267028809,47.17100143432617 C22.05699920654297,44.691001892089844 47.472999572753906,33.231998443603516 63.731998443603516,13.977999687194824 C78.68599700927734,-3.7309999465942383 85.10900115966797,-27.70199966430664 82.30799865722656,-55.34400177001953z M-15.081000328063965,-71.28600311279297 C2.2290000915527344,-72.43000030517578 16.179000854492188,-66.77200317382812 23.382999420166016,-55.59299850463867 C29.208999633789062,-46.551998138427734 29.56399917602539,-35.250999450683594 24.309999465942383,-26.10300064086914 C18.18899917602539,-15.444999694824219 5.604000091552734,-9.468000411987305 -10.491000175476074,-9.468000411987305 C-10.843000411987305,-9.468000411987305 -11.196999549865723,-9.470999717712402 -11.550999641418457,-9.47599983215332 C-11.550999641418457,-9.47599983215332 -15.081000328063965,-71.28600311279297 -15.081000328063965,-71.28600311279297z"></path></g><g opacity="1" transform="matrix(1,0,0,1,265.68499755859375,382.9840087890625)"><path fill="rgb(52,52,52)" fill-opacity="1" d=" M69.71399688720703,-63.70399856567383 C62.698001861572266,-84.53399658203125 52.909000396728516,-100.23500061035156 40.61899948120117,-110.36900329589844 C27.691999435424805,-121.02799987792969 12.302000045776367,-125.1510009765625 -5.110000133514404,-122.61799621582031 C-56.35499954223633,-115.16500091552734 -81.35900115966797,-44.15800094604492 -78.85900115966797,18.871000289916992 C-77.75700378417969,46.70000076293945 -71.3280029296875,72.21399688720703 -60.76100158691406,90.71399688720703 C-48.709999084472656,111.80899810791016 -31.58300018310547,123.66000366210938 -11.229999542236328,124.98500061035156 C-9.524999618530273,125.09500122070312 -7.839000225067139,125.1510009765625 -6.170000076293945,125.1510009765625 C12.295999526977539,125.1510009765625 28.558000564575195,118.36199951171875 42.229000091552734,104.9280014038086 C70.37100219726562,77.2760009765625 81.35900115966797,26.14299964904785 79.65799713134766,-9.661999702453613 C78.78299713134766,-28.066999435424805 75.25199890136719,-47.2599983215332 69.71399688720703,-63.70399856567383z M15.682999610900879,41.88399887084961 C12.072999954223633,49.15299987792969 5.826000213623047,54.590999603271484 -0.23100000619888306,55.73699951171875 C-4.401000022888184,56.525001525878906 -8.3149995803833,55.29399871826172 -11.866999626159668,52.07500076293945 C-20.118000030517578,44.604000091552734 -23.832000732421875,16.575000762939453 -20.322999954223633,-11.736000061035156 C-17.676000595092773,-33.082000732421875 -11.597000122070312,-48.220001220703125 -4.061999797821045,-52.22999954223633 C-2.059999942779541,-53.29600143432617 -0.16899999976158142,-53.82699966430664 1.6460000276565552,-53.82699966430664 C2.924999952316284,-53.82699966430664 4.166999816894531,-53.56399917602539 5.383999824523926,-53.0369987487793 C11.994000434875488,-50.178001403808594 16.909000396728516,-39.733001708984375 19.305999755859375,-30.910999298095703 C24.48200035095215,-11.847999572753906 23.82699966430664,25.48699951171875 15.682999610900879,41.88399887084961z"></path></g><g opacity="1" transform="matrix(1,0,0,1,249.8939971923828,173.11099243164062)"><path fill="rgb(52,52,52)" fill-opacity="1" d=" M27.850000381469727,-69.72599792480469 C27.850000381469727,-69.72599792480469 27.75200080871582,-70.00599670410156 27.75200080871582,-70.00599670410156 C25.881999969482422,-75.37100219726562 21.69099998474121,-75.9280014038086 18.323999404907227,-76.3759994506836 C14.98900032043457,-76.81800079345703 3.111999988555908,-76.4010009765625 -6.443999767303467,-75.74099731445312 C-27.61400032043457,-74.27899932861328 -28.96500015258789,-72.62000274658203 -29.69099998474121,-71.7300033569336 C-29.69099998474121,-71.7300033569336 -30.13800048828125,-71.18099975585938 -30.13800048828125,-71.18099975585938 C-30.13800048828125,-71.18099975585938 -35.422000885009766,69.4000015258789 -35.422000885009766,69.4000015258789 C-35.422000885009766,69.4000015258789 -35.4370002746582,69.802001953125 -35.4370002746582,69.802001953125 C-35.4370002746582,69.802001953125 -35.303001403808594,70.18199920654297 -35.303001403808594,70.18199920654297 C-33.321998596191406,75.8010025024414 -29.159000396728516,76.14299774169922 -25.486000061035156,76.44400024414062 C-25.016000747680664,76.48400115966797 -24.533000946044922,76.52300262451172 -24.038000106811523,76.572998046875 C-22.3700008392334,76.74400329589844 -20.195999145507812,76.81800079345703 -17.69099998474121,76.81800079345703 C-7.308000087738037,76.81800079345703 8.772000312805176,75.55000305175781 18.139999389648438,74.63800048828125 C23.358999252319336,74.13099670410156 34.215999603271484,73.0739974975586 35.40800094604492,64.65599822998047 C35.40800094604492,64.65599822998047 35.4370002746582,64.4489974975586 35.4370002746582,64.4489974975586 C35.4370002746582,64.4489974975586 27.867000579833984,-69.43000030517578 27.867000579833984,-69.43000030517578 C27.867000579833984,-69.43000030517578 27.850000381469727,-69.72599792480469 27.850000381469727,-69.72599792480469z"></path></g><g opacity="1" transform="matrix(1,0,0,1,245.22300720214844,39.90299987792969)"><path fill="rgb(52,52,52)" fill-opacity="1" d=" M-31.97100067138672,27.1560001373291 C-31.97100067138672,27.1560001373291 -31.756999969482422,27.511999130249023 -31.756999969482422,27.511999130249023 C-28.531999588012695,32.909000396728516 -13.428000450134277,34.22100067138672 0.47600001096725464,34.22100067138672 C13.449999809265137,34.22100067138672 25.378000259399414,33.07899856567383 25.621999740600586,33.04999923706055 C25.621999740600586,33.04999923706055 26.066999435424805,32.99700164794922 26.066999435424805,32.99700164794922 C26.066999435424805,32.99700164794922 26.45199966430664,32.76900100708008 26.45199966430664,32.76900100708008 C27.48699951171875,32.15700149536133 30.632999420166016,30.291000366210938 32.30099868774414,16.211999893188477 C34.051998138427734,1.4179999828338623 33.349998474121094,-22.27400016784668 28.225000381469727,-27.25200080871582 C24.70400047302246,-30.67099952697754 11.647000312805176,-32.637001037597656 1.534999966621399,-33.28300094604492 C-5.257999897003174,-33.715999603271484 -21.549999237060547,-34.220001220703125 -26.097000122070312,-29.533000946044922 C-34.053001403808594,-21.33300018310547 -33.441001892089844,17.45599937438965 -32.03300094604492,26.743999481201172 C-32.03300094604492,26.743999481201172 -31.97100067138672,27.1560001373291 -31.97100067138672,27.1560001373291z"></path></g></g></g></svg>