<svg xmlns="http://www.w3.org/2000/svg" xmlns:xlink="http://www.w3.org/1999/xlink" viewBox="0 0 512 512" width="512" height="512" style="width: 100%; height: 100%; transform: translate3d(0,0,0);" preserveAspectRatio="xMidYMid meet"><defs><clipPath id="__lottie_element_52338"><rect width="512" height="512" x="0" y="0"></rect></clipPath></defs><g clip-path="url(#__lottie_element_52338)"><g style="display: block;" transform="matrix(1,0,0,1,0,0)" opacity="1"><g opacity="1" transform="matrix(1,0,0,1,256.22601318359375,451.4070129394531)"><path fill="rgb(0,0,0)" fill-opacity="1" d=" M6.040999889373779,-34.856998443603516 C-26.233999252319336,-34.856998443603516 -77.0479965209961,-18.975000381469727 -71.41999816894531,12.91100025177002 C-67.5469970703125,34.858001708984375 -49.472999572753906,30.986000061035156 -9.451000213623047,29.694000244140625 C30.570999145507812,28.402999877929688 71.88400268554688,32.2760009765625 74.46600341796875,7.747000217437744 C77.0479965209961,-16.783000946044922 38.31700134277344,-34.856998443603516 6.040999889373779,-34.856998443603516z"></path></g><g opacity="1" transform="matrix(1,0,0,1,258.6759948730469,243.1179962158203)"><path fill="rgb(0,0,0)" fill-opacity="1" d=" M66.85099792480469,-55.08000183105469 C66.85099792480469,-55.08000183105469 108.16300201416016,-91.2300033569336 163.67799377441406,-64.11799621582031 C163.67799377441406,-64.11799621582031 166.25999450683594,-89.93800354003906 145.60400390625,-119.63200378417969 C145.60400390625,-119.63200378417969 144.9759979248047,-120.97899627685547 143.66099548339844,-123.24400329589844 C154.9949951171875,-126.96900177001953 165.11300659179688,-134.7169952392578 171.58900451660156,-145.93600463867188 C185.4239959716797,-169.8990020751953 177.49200439453125,-200.37899780273438 153.87100219726562,-214.01600646972656 C130.25,-227.6540069580078 99.88600158691406,-219.2830047607422 86.0510025024414,-195.32000732421875 C82.41000366210938,-189.01400756835938 80.31600189208984,-182.25799560546875 79.5790023803711,-175.47500610351562 C59.02000045776367,-183.5399932861328 32.847999572753906,-188.61199951171875 -0.17299999296665192,-186.71400451660156 C-28.413000106811523,-185.08999633789062 -54.27799987792969,-182.9669952392578 -79.89399719238281,-173.0919952392578 C-80.51399993896484,-189.5540008544922 -89.16699981689453,-205.25900268554688 -104.33499908447266,-214.01600646972656 C-127.95600128173828,-227.6540069580078 -158.32000732421875,-219.2830047607422 -172.15499877929688,-195.32000732421875 C-185.99000549316406,-171.35699462890625 -178.0570068359375,-140.8769989013672 -154.43600463867188,-127.23899841308594 C-151.16200256347656,-125.3489990234375 -147.7519989013672,-123.9229965209961 -144.281005859375,-122.86100006103516 C-159.74099731445312,-96.94999694824219 -164.6649932861328,-65.49600219726562 -164.2429962158203,-48.625999450683594 C-164.2429962158203,-48.625999450683594 -245.5780029296875,-15.057999610900879 -249.4510040283203,86.93299865722656 C-253.32400512695312,188.9250030517578 -139.71400451660156,227.6540069580078 -94.52799987792969,194.08799743652344 C-49.34199905395508,160.52000427246094 8.753999710083008,142.4459991455078 60.395999908447266,174.7220001220703 C112.03600311279297,206.9980010986328 197.24400329589844,196.67100524902344 233.3939971923828,133.41000366210938 C269.5419921875,70.1500015258789 230.81199645996094,-74.44599914550781 66.85099792480469,-55.08000183105469z M-101.30599975585938,73.6989974975586 C-124.32099914550781,85.75499725341797 -163.27499389648438,34.96799850463867 -130.35400390625,19.475000381469727 C-101.33599853515625,5.821000099182129 -80.97200012207031,63.04800033569336 -101.30599975585938,73.6989974975586z M92.72200012207031,73.6989974975586 C72.38800048828125,63.04800033569336 92.75199890136719,5.821000099182129 121.77100372314453,19.475000381469727 C154.69200134277344,34.96799850463867 115.73799896240234,85.75499725341797 92.72200012207031,73.6989974975586z"></path></g></g></g></svg>