<svg xmlns="http://www.w3.org/2000/svg" xmlns:xlink="http://www.w3.org/1999/xlink" viewBox="0 0 512 512" width="512" height="512" style="width: 100%; height: 100%; transform: translate3d(0,0,0);" preserveAspectRatio="xMidYMid meet"><defs><clipPath id="__lottie_element_53409"><rect width="512" height="512" x="0" y="0"></rect></clipPath></defs><g clip-path="url(#__lottie_element_53409)"><g style="display: block;" transform="matrix(1,0,0,1,256.9360046386719,254.05099487304688)" opacity="1"><g opacity="1" transform="matrix(1,0,0,1,0,0)"><path fill="rgb(0,0,0)" fill-opacity="1" d=" M56.85,-51.61 C56.67,-65.48 22.77,-63.2 19.43,-79.52 C11.02,-120.58 1.2,-114.64 -13.05,-79.56 C-15.3,-73.51 -19.17,-69.84 -25.45,-68.25 C-35.67,-65.99 -64.99,-55.24 -46.09,-44.01 C-35.9,-36.86 -19.19,-36.95 -14.34,-23.93 C-11.57,-16.17 -8.38,-8.56 -5.24,-0.95 C-2.72,8.63 6.08,10.19 9.52,0.09 C16.84,-11.54 17.31,-28.87 31.45,-34.53 C39.08,-39.07 54.31,-42.54 56.85,-51.61z M7.736999988555908,-159.3780059814453 C-32.89500045776367,-159.93099975585938 -79.64700317382812,-164.23300170898438 -125.28900146484375,-170.2310028076172 C-127.23799896240234,-170.48699951171875 -129.1959991455078,-169.38699340820312 -129.4510040283203,-166.9250030517578 C-128.52499389648438,-160.3560028076172 -119.62100219726562,-159.02000427246094 -114.33200073242188,-157.6439971923828 C-38.86800003051758,-138.01800537109375 96.09200286865234,-131.2209930419922 177.2760009765625,-166.66700744628906 C184.8209991455078,-169.96099853515625 187.85400390625,-169.6199951171875 187.87100219726562,-160.66299438476562 C194.55299377441406,-63.39500045776367 150.89999389648438,44.8489990234375 42.26300048828125,56.14699935913086 C37.084999084472656,57.946998596191406 20.316999435424805,56.224998474121094 19.722999572753906,62.52799987792969 C19.652000427246094,64.90799713134766 21.422000885009766,65.94200134277344 23.333999633789062,66.55400085449219 C43.79499816894531,75.30000305175781 82.38899993896484,57.284000396728516 73.4729995727539,73.33300018310547 C68.08300018310547,86.4209976196289 56.67300033569336,95.00499725341797 44.61800003051758,101.70800018310547 C39.861000061035156,104.15599822998047 38.48500061035156,108.50599670410156 38.76900100708008,113.54499816894531 C38.74399948120117,137.8820037841797 37.85599899291992,133.5489959716797 57.887001037597656,137.3280029296875 C94.56099700927734,142.48899841308594 178.2480010986328,171.4429931640625 138.6219940185547,216.4510040283203 C98.28299713134766,262.2690124511719 -66.28800201416016,255.63299560546875 -117.73300170898438,221.47900390625 C-140.1750030517578,206.5800018310547 -147.61300659179688,177.45599365234375 -125.08799743652344,159.47000122070312 C-100.95099639892578,140.2100067138672 -68.572998046875,138.55299377441406 -39.316001892089844,133.1719970703125 C-30.70400047302246,131.87100219726562 -30.399999618530273,131.3780059814453 -30.1299991607666,122.68199920654297 C-30.363000869750977,113.28199768066406 -27.993000030517578,102.7249984741211 -38.441001892089844,97.97200012207031 C-49.43199920654297,91.62699890136719 -59.310001373291016,83.83100128173828 -64.43000030517578,71.5530014038086 C-66.09500122070312,67.55899810791016 -69.45500183105469,65.78700256347656 -73.27799987792969,64.39800262451172 C-171.47799682617188,29.98200035095215 -188.18499755859375,-85.09300231933594 -188.53199768066406,-176.03700256347656 C-187.56300354003906,-246.1840057373047 -47.60599899291992,-249.6750030517578 28.513999938964844,-248.8719940185547 C76.75599670410156,-248.36300659179688 141.7259979248047,-238.0240020751953 166.2570037841797,-207.10800170898438 C179.56199645996094,-190.33999633789062 156.88400268554688,-181.4550018310547 145.2989959716797,-177.5659942626953 C101.1729965209961,-163.6580047607422 58.31399917602539,-159.63400268554688 7.736999988555908,-159.3780059814453z"></path><g opacity="1" transform="matrix(1,0,0,1,2.2760000228881836,-50.57699966430664)"></g><g opacity="1" transform="matrix(1,0,0,1,0,0)"></g></g></g></g></svg>