<svg xmlns="http://www.w3.org/2000/svg" xmlns:xlink="http://www.w3.org/1999/xlink" viewBox="0 0 512 512" width="512" height="512" style="width: 100%; height: 100%; transform: translate3d(0,0,0);" preserveAspectRatio="xMidYMid meet"><defs><clipPath id="__lottie_element_51715"><rect width="512" height="512" x="0" y="0"></rect></clipPath></defs><g clip-path="url(#__lottie_element_51715)"><g style="display: block;" transform="matrix(1,0,0,1,0,0)" opacity="1"><g opacity="1" transform="matrix(1,0,0,1,260.5669860839844,256)"><path fill="rgb(0,0,0)" fill-opacity="1" d=" M193.4290008544922,-139.17999267578125 C190.65699768066406,-144.70199584960938 184.20899963378906,-147.15699768066406 178.39100646972656,-145.0780029296875 C162.9720001220703,-139.57200622558594 149.75599670410156,-142.875 149.75599670410156,-142.875 C149.75599670410156,-142.875 217.31500244140625,-185.69500732421875 199.23599243164062,-220.90199279785156 C181.15699768066406,-256.1090087890625 104.08200073242188,-249.447998046875 8.928000450134277,-218.99899291992188 C-86.22599792480469,-188.5500030517578 -182.33200073242188,-123.84500122070312 -152.83299255371094,-73.41300201416016 C-123.33599853515625,-22.98200035095215 5.122000217437744,-74.36499786376953 5.122000217437744,-74.36499786376953 C-4.223999977111816,-53.064998626708984 -29.80299949645996,-40.999000549316406 -44.979000091552734,-35.513999938964844 C-50.895999908447266,-33.375 -53.7239990234375,-26.6560001373291 -51.108001708984375,-20.93400001525879 C-42.69599914550781,-2.5299999713897705 -29.07699966430664,36.80699920654297 -41.50299835205078,79.1500015258789 C-65.5999984741211,161.25799560546875 -146.56100463867188,154.3820037841797 -169.34300231933594,150.70799255371094 C-173.38900756835938,150.05499267578125 -177.41000366210938,151.99099731445312 -179.41900634765625,155.56300354003906 C-187.85299682617188,170.5570068359375 -189.30999755859375,191.4320068359375 -189.30999755859375,191.4320068359375 C-198.50999450683594,175.93600463867188 -195.14199829101562,156.7429962158203 -193.0330047607422,148.5279998779297 C-192.3520050048828,145.8730010986328 -192.91400146484375,143.0570068359375 -194.55099487304688,140.85800170898438 C-194.55099487304688,140.85800170898438 -206.9600067138672,124.19499969482422 -206.9600067138672,124.19499969482422 C-210.51800537109375,119.41799926757812 -217.781005859375,119.73100280761719 -220.91099548339844,124.7979965209961 C-251.43299865722656,174.21200561523438 -236.24200439453125,218.5850067138672 -225.71200561523438,239.0760040283203 C-222.86900329589844,244.61000061035156 -215.1219940185547,245.11300659179688 -211.6060028076172,239.97999572753906 C-199.10299682617188,221.7220001220703 -188.04100036621094,214.9029998779297 -188.04100036621094,214.9029998779297 C-188.04100036621094,214.9029998779297 42.231998443603516,281.510986328125 162.12600708007812,142.58599853515625 C263.4930114746094,25.128999710083008 211.81900024414062,-102.52999877929688 193.4290008544922,-139.17999267578125z M-115.2249984741211,-107.11399841308594 C-119.09500122070312,-120.93599700927734 -108.27100372314453,-131.83399963378906 -99.05500030517578,-138.31399536132812 C-97.4990005493164,-139.4080047607422 -95.67400360107422,-137.3979949951172 -96.8740005493164,-135.92300415039062 C-102.36399841308594,-129.17599487304688 -110.12799835205078,-119.65699768066406 -103.4990005493164,-110.98799896240234 C-91.56900024414062,-95.38800048828125 -17.135000228881836,-111.7020034790039 50.77399826049805,-143.8209991455078 C118.68299865722656,-175.94000244140625 151.92300415039062,-201.2270050048828 148.2530059814453,-213.15699768066406 C146.0489959716797,-220.31700134277344 132.3459930419922,-222.0279998779297 116.75299835205078,-222.1840057373047 C114.81999969482422,-222.2030029296875 114.77300262451172,-225.1529998779297 116.68800354003906,-225.42300415039062 C131.79400634765625,-227.5570068359375 155.04299926757812,-228.63600158691406 161.10000610351562,-216.52200317382812 C170.27699279785156,-198.16799926757812 142.60499572753906,-168.19900512695312 48.224998474121094,-125.6709976196289 C-52.92399978637695,-80.09300231933594 -108.8010025024414,-84.1709976196289 -115.2249984741211,-107.11399841308594z M162.12600708007812,62.02299880981445 C142.93699645996094,116.10199737548828 102.75800323486328,139.59800720214844 79.52200317382812,149.0019989013672 C76.76000213623047,150.1199951171875 74.6729965209961,146.3769989013672 77.06199645996094,144.5970001220703 C94.79499816894531,131.38800048828125 124.27300262451172,104.71399688720703 144.36399841308594,62.02299880981445 C164.33799743652344,19.577999114990234 166.29600524902344,-19.04599952697754 165.2790069580078,-40.59700012207031 C165.13800048828125,-43.60599899291992 169.44900512695312,-44.314998626708984 170.26800537109375,-41.415000915527344 C175.66400146484375,-22.301000595092773 179.66400146484375,12.597999572753906 162.12600708007812,62.02299880981445z"></path></g></g></g></svg>