<svg xmlns="http://www.w3.org/2000/svg" xmlns:xlink="http://www.w3.org/1999/xlink" viewBox="0 0 512 512" width="512" height="512" style="width: 100%; height: 100%; transform: translate3d(0,0,0);" preserveAspectRatio="xMidYMid meet"><defs><clipPath id="__lottie_element_53209"><rect width="512" height="512" x="0" y="0"></rect></clipPath></defs><g clip-path="url(#__lottie_element_53209)"><g style="display: block;" transform="matrix(1.0199999809265137,0,0,1.0199999809265137,20.808395385742188,-6.93109130859375)" opacity="1"><g opacity="1" transform="matrix(1,0,0,1,243.25,254.36000061035156)"><path fill="rgb(0,0,0)" fill-opacity="1" d=" M143,-239.5 C135,-224.5 166.64999389648438,-204.3699951171875 162,-160.5 C157.74000549316406,-120.26000213623047 114.26899719238281,-82.98999786376953 92,-76.5 C78.0999984741211,-72.44999694824219 75,-88.5 51,-90.5 C35.709999084472656,-91.7699966430664 49.869998931884766,-118.69999694824219 39,-127.5 C26.610000610351562,-137.5399932861328 -30.510000228881836,-141.30999755859375 -45,-130.5 C-56.290000915527344,-122.06999969482422 -38.11000061035156,-96.5999984741211 -55,-93.5 C-104,-84.5 -107,-63.5099983215332 -116,-66.5 C-141.3300018310547,-74.91000366210938 -169.52000427246094,-117.37000274658203 -172,-146.5 C-176,-193.5 -137.91000366210938,-229.5800018310547 -145,-235.5 C-155.5,-244.27000427246094 -243,-200.5 -243,-127.5 C-243,-64.5 -216,-35.5 -170,3.5 C-164.64999389648438,8.039999961853027 -178,29.5 -173,77.5 C-171.58999633789062,91.05899810791016 -196,86.5 -198,96.5 C-208.85000610351562,150.74000549316406 -205,167.5 -68,179.5 C-61.0099983215332,180.11000061035156 -73,252.5 -26,252.5 C28,252.5 11.859999656677246,183.14999389648438 25,182.5 C187,174.5 173,133.5 164,96.5 C161.24000549316406,85.16999816894531 140.13999938964844,93.87000274658203 141,81.5 C144,38.5 136.99000549316406,11.489999771118164 145,6.5 C154.94000244140625,0.3100000023841858 200,-10.5 223,-94.5 C250.66000366210938,-195.52000427246094 150.7899932861328,-254.11000061035156 143,-239.5z M-21.5,56.15999984741211 C-36.25,56.15999984741211 -48.209999084472656,44.20000076293945 -48.209999084472656,29.450000762939453 C-48.209999084472656,14.699999809265137 -36.25,2.740000009536743 -21.5,2.740000009536743 C-6.75,2.740000009536743 5.210000038146973,14.699999809265137 5.210000038146973,29.450000762939453 C5.210000038146973,44.20000076293945 -6.75,56.15999984741211 -21.5,56.15999984741211z M-10.920000076293945,-29.34000015258789 C-21.670000076293945,-29.34000015258789 -30.3799991607666,-38.04999923706055 -30.3799991607666,-48.79999923706055 C-30.3799991607666,-59.54999923706055 -21.670000076293945,-68.26000213623047 -10.920000076293945,-68.26000213623047 C-0.18000000715255737,-68.26000213623047 8.529999732971191,-59.54999923706055 8.529999732971191,-48.79999923706055 C8.529999732971191,-38.04999923706055 -0.18000000715255737,-29.34000015258789 -10.920000076293945,-29.34000015258789z"></path></g></g></g></svg>