<svg xmlns="http://www.w3.org/2000/svg" xmlns:xlink="http://www.w3.org/1999/xlink" viewBox="0 0 512 512" width="512" height="512" style="width: 100%; height: 100%; transform: translate3d(0,0,0);" preserveAspectRatio="xMidYMid meet"><defs><clipPath id="__lottie_element_52195"><rect width="512" height="512" x="0" y="0"></rect></clipPath></defs><g clip-path="url(#__lottie_element_52195)"><g style="display: block;" transform="matrix(1,0,0,1,0,0)" opacity="1"><g opacity="1" transform="matrix(1,0,0,1,256,259.572998046875)"><path fill="rgb(0,0,0)" fill-opacity="1" d=" M249.3509979248047,-136.23899841308594 C247.11300659179688,-157.37899780273438 241.47900390625,-191.50900268554688 227.39500427246094,-219.8040008544922 C226.13400268554688,-222.33700561523438 224.04400634765625,-224.3520050048828 221.46299743652344,-225.51400756835938 C206.63999938964844,-232.18899536132812 159.19400024414062,-249.5279998779297 66.23699951171875,-252.18099975585938 C57.64799880981445,-252.427001953125 51.50199890136719,-243.927001953125 54.43000030517578,-235.84800720214844 C68.81800079345703,-196.13800048828125 101.51699829101562,-92.15599822998047 87.12300109863281,-1.1629999876022339 C69.7300033569336,108.77799987792969 -78.54000091552734,110.45600128173828 -99.05599975585938,-3.7669999599456787 C-117.58000183105469,-106.9010009765625 -78.00499725341797,-196.11300659179688 -61.29899978637695,-232.91000366210938 C-57.59199905395508,-241.0760040283203 -63.689998626708984,-250.31500244140625 -72.65599822998047,-250.125 C-102.9010009765625,-249.48300170898438 -163.5959930419922,-245.41400146484375 -225.4149932861328,-225.1009979248047 C-228.74000549316406,-224.00799560546875 -231.45599365234375,-221.57400512695312 -232.8459930419922,-218.36199951171875 C-237.77699279785156,-206.9669952392578 -249.1840057373047,-176.9770050048828 -252.4530029296875,-136.8990020751953 C-253.17100524902344,-128.1020050048828 -244.68899536132812,-121.4469985961914 -236.33799743652344,-124.30400085449219 C-216.07899475097656,-131.23599243164062 -180.4340057373047,-141.3489990234375 -144.59100341796875,-141.4929962158203 C-141.86099243164062,-141.50399780273438 -141.35400390625,-137.61000061035156 -143.9969940185547,-136.92799377441406 C-161.52099609375,-132.41000366210938 -188.3159942626953,-123.66500091552734 -202.91799926757812,-109.78099822998047 C-204.40899658203125,-108.36399841308594 -205.47000122070312,-106.56700134277344 -206.06500244140625,-104.59700012207031 C-213.05599975585938,-81.45999908447266 -261.3810119628906,72.14800262451172 -177.1719970703125,171.99600219726562 C-78.51499938964844,288.9750061035156 148.54800415039062,266.2569885253906 199.08999633789062,142.0500030517578 C260.281005859375,-8.324000358581543 186.7220001220703,-133.96200561523438 186.7220001220703,-133.96200561523438 C186.7220001220703,-133.96200561523438 205.156005859375,-133.74000549316406 232.94000244140625,-123.5469970703125 C241.44900512695312,-120.42500305175781 250.3040008544922,-127.22599792480469 249.3509979248047,-136.23899841308594z M-178.47500610351562,13.482999801635742 C-178.47500610351562,2.697999954223633 -169.7310028076172,-6.046000003814697 -158.94500732421875,-6.046000003814697 C-148.16000366210938,-6.046000003814697 -139.41600036621094,2.697999954223633 -139.41600036621094,13.482999801635742 C-139.41600036621094,24.268999099731445 -148.16000366210938,33.012001037597656 -158.94500732421875,33.012001037597656 C-169.7310028076172,33.012001037597656 -178.47500610351562,24.268999099731445 -178.47500610351562,13.482999801635742z M-126.72200012207031,136.51699829101562 C-137.50799560546875,136.51699829101562 -146.25100708007812,127.77400207519531 -146.25100708007812,116.98799896240234 C-146.25100708007812,106.2030029296875 -137.50799560546875,97.45899963378906 -126.72200012207031,97.45899963378906 C-115.93699645996094,97.45899963378906 -107.19300079345703,106.2030029296875 -107.19300079345703,116.98799896240234 C-107.19300079345703,127.77400207519531 -115.93699645996094,136.51699829101562 -126.72200012207031,136.51699829101562z M-2.1689999103546143,183.38699340820312 C-12.954999923706055,183.38699340820312 -21.697999954223633,174.6439971923828 -21.697999954223633,163.85800170898438 C-21.697999954223633,153.072998046875 -12.954999923706055,144.32899475097656 -2.1689999103546143,144.32899475097656 C8.616000175476074,144.32899475097656 17.360000610351562,153.072998046875 17.360000610351562,163.85800170898438 C17.360000610351562,174.6439971923828 8.616000175476074,183.38699340820312 -2.1689999103546143,183.38699340820312z M121.29900360107422,138.14500427246094 C110.51300048828125,138.14500427246094 101.7699966430664,129.4010009765625 101.7699966430664,118.61599731445312 C101.7699966430664,107.83000183105469 110.51300048828125,99.08699798583984 121.29900360107422,99.08699798583984 C132.08399963378906,99.08699798583984 140.8280029296875,107.83000183105469 140.8280029296875,118.61599731445312 C140.8280029296875,129.4010009765625 132.08399963378906,138.14500427246094 121.29900360107422,138.14500427246094z M155.04100036621094,27.15399932861328 C144.2550048828125,27.15399932861328 135.51199340820312,18.40999984741211 135.51199340820312,7.625 C135.51199340820312,-3.1610000133514404 144.2550048828125,-11.904999732971191 155.04100036621094,-11.904999732971191 C165.8260040283203,-11.904999732971191 174.57000732421875,-3.1610000133514404 174.57000732421875,7.625 C174.57000732421875,18.40999984741211 165.8260040283203,27.15399932861328 155.04100036621094,27.15399932861328z"></path></g></g></g></svg>