<svg xmlns="http://www.w3.org/2000/svg" xmlns:xlink="http://www.w3.org/1999/xlink" viewBox="0 0 512 512" width="512" height="512" style="width: 100%; height: 100%; transform: translate3d(0,0,0);" preserveAspectRatio="xMidYMid meet"><defs><clipPath id="__lottie_element_14387"><rect width="512" height="512" x="0" y="0"></rect></clipPath></defs><g clip-path="url(#__lottie_element_14387)"><g style="display: block;" transform="matrix(1,0,0,1,256,256)" opacity="1"><g opacity="1" transform="matrix(1,0,0,1,0,0)"><path fill="rgb(0,0,0)" fill-opacity="1" d=" M-40.097999572753906,5.7769999504089355 C-109.83799743652344,5.7769999504089355 -170.5229949951172,-15.949000358581543 -201.81700134277344,-47.987998962402344 C-201.81700134277344,-47.987998962402344 -201.81700134277344,107.65599822998047 -201.81700134277344,107.65599822998047 C-201.81700134277344,157.73899841308594 -129.41299438476562,198.33999633789062 -40.097999572753906,198.33999633789062 C49.21699905395508,198.33999633789062 121.62100219726562,157.73899841308594 121.62100219726562,107.65599822998047 C121.62100219726562,107.65599822998047 121.62100219726562,-47.987998962402344 121.62100219726562,-47.987998962402344 C90.3270034790039,-15.949000358581543 29.641000747680664,5.7769999504089355 -40.097999572753906,5.7769999504089355z M19.590999603271484,171.0959930419922 C-15.52299976348877,178.15699768066406 -51.694000244140625,178.15699768066406 -86.80699920654297,171.0959930419922 C-98.49800109863281,168.68099975585938 -104.9000015258789,153.156005859375 -97.65599822998047,145.85499572753906 C-86.23799896240234,134.1929931640625 -74.68299865722656,121.77400207519531 -63.066001892089844,108.5979995727539 C-61.04199981689453,106.302001953125 -62.42499923706055,102.69400024414062 -65.46399688720703,102.33300018310547 C-68.68299865722656,101.94999694824219 -71.89600372314453,101.50900268554688 -75.10299682617188,101.01000213623047 C-79.98200225830078,100.24199676513672 -82.87100219726562,94.22699737548828 -80.15699768066406,90.66600036621094 C-68.37300109863281,75.13700103759766 -56.48500061035156,58.819000244140625 -44.573001861572266,41.71099853515625 C-39.34000015258789,34.270999908447266 -27.875,34.270999908447266 -22.64299964904785,41.71099853515625 C-10.730999946594238,58.819000244140625 1.156999945640564,75.13700103759766 12.940999984741211,90.66600036621094 C15.654000282287598,94.22699737548828 12.765999794006348,100.24199676513672 7.88700008392334,101.01000213623047 C4.679999828338623,101.50900268554688 1.4670000076293945,101.94999694824219 -1.7519999742507935,102.33300018310547 C-4.790999889373779,102.69400024414062 -6.173999786376953,106.302001953125 -4.150000095367432,108.5979995727539 C7.4670000076293945,121.77400207519531 19.02199935913086,134.1929931640625 30.440000534057617,145.85499572753906 C37.683998107910156,153.15699768066406 31.283000946044922,168.68099975585938 19.590999603271484,171.0959930419922z"></path></g><g opacity="1" transform="matrix(1,0,0,1,0,0)"><path stroke-linecap="round" stroke-linejoin="round" fill-opacity="0" stroke="rgb(0,0,0)" stroke-opacity="1" stroke-width="40" d=" M-40.097999572753906,5.7769999504089355 C-109.83799743652344,5.7769999504089355 -170.5229949951172,-15.949000358581543 -201.81700134277344,-47.987998962402344 C-201.81700134277344,-47.987998962402344 -201.81700134277344,107.65599822998047 -201.81700134277344,107.65599822998047 C-201.81700134277344,157.73899841308594 -129.41299438476562,198.33999633789062 -40.097999572753906,198.33999633789062 C49.21699905395508,198.33999633789062 121.62100219726562,157.73899841308594 121.62100219726562,107.65599822998047 C121.62100219726562,107.65599822998047 121.62100219726562,-47.987998962402344 121.62100219726562,-47.987998962402344 C90.3270034790039,-15.949000358581543 29.641000747680664,5.7769999504089355 -40.097999572753906,5.7769999504089355z"></path></g><g opacity="1" transform="matrix(1,0,0,1,0,0)"><path stroke-linecap="round" stroke-linejoin="round" fill-opacity="0" stroke="rgb(0,0,0)" stroke-opacity="1" stroke-width="40" d=" M106.73699951171875,-35.92499923706055 C208.50599670410156,-35.92499923706055 226.10899353027344,-2.36899995803833 226.10899353027344,39.025001525878906 C226.10899353027344,80.41899871826172 208.50599670410156,113.9749984741211 106.73699951171875,113.9749984741211"></path></g><g opacity="1" transform="matrix(1,0,0,1,0,0)"><path fill="rgb(0,0,0)" fill-opacity="1" d=" M-42.28799819946289,-106.2229995727539 C-59.75699996948242,-105.11799621582031 -77.16000366210938,-103.35800170898438 -94.49600219726562,-100.94300079345703 C-106.16300201416016,-99.20999908447266 -111.43299865722656,-83.65399932861328 -109.58399963378906,-66.33499908447266 C-107.92900085449219,-48.99599838256836 -99.6500015258789,-34.81100082397461 -87.87300109863281,-35.44900131225586 C-70.40399932861328,-36.55400085449219 -53.000999450683594,-38.31399917602539 -35.665000915527344,-40.729000091552734 C-23.99799919128418,-42.46200180053711 -18.729000091552734,-58.01599884033203 -20.577999114990234,-75.33599853515625 C-22.233999252319336,-92.67500305175781 -30.51099967956543,-106.86100006103516 -42.28799819946289,-106.2229995727539z"></path></g><g opacity="1" transform="matrix(1,0,0,1,0,0)"><path fill="rgb(0,0,0)" fill-opacity="1" d=" M53.981998443603516,-55.3380012512207 C68.8280029296875,-64.61100006103516 70.16500091552734,-65.68900299072266 84.27100372314453,-76.052001953125 C93.71299743652344,-83.12100219726562 90.95800018310547,-99.31300354003906 81.0999984741211,-113.6729965209961 C71.40399932861328,-128.14199829101562 57.380001068115234,-136.69000244140625 47.31999969482422,-130.53199768066406 C32.474998474121094,-121.25900268554688 31.136999130249023,-120.18000030517578 17.0310001373291,-109.81700134277344 C7.589000225067139,-102.74800109863281 10.345000267028809,-86.55599975585938 20.20199966430664,-72.19599914550781 C29.898000717163086,-57.72700119018555 43.922000885009766,-49.18000030517578 53.981998443603516,-55.3380012512207z"></path></g><g opacity="1" transform="matrix(1,0,0,1,0,0)"><path fill="rgb(0,0,0)" fill-opacity="1" d=" M57.527000427246094,-208.05799865722656 C50.03099822998047,-210.45700073242188 43.2859992980957,-202.6580047607422 46.8120002746582,-195.62100219726562 C49.90800094604492,-189.4429931640625 52.04899978637695,-182.56100463867188 53.112998962402344,-175.13400268554688 C53.112998962402344,-175.13400268554688 53.112998962402344,-175.13400268554688 53.112998962402344,-175.13400268554688 C54.13100051879883,-167.98800659179688 58.729000091552734,-161.83399963378906 65.322998046875,-158.8979949951172 C70.2979965209961,-156.68299865722656 75.07099914550781,-154.2969970703125 79.61900329589844,-151.7469940185547 C106.8949966430664,-136.45199584960938 122.53900146484375,-116.6989974975586 122.53900146484375,-97.552001953125 C122.53900146484375,-78.40499877929688 106.8949966430664,-58.650001525878906 79.62000274658203,-43.35599899291992 C47.99399948120117,-25.621999740600586 5.4770002365112305,-15.854999542236328 -40.097999572753906,-15.854999542236328 C-85.67500305175781,-15.854999542236328 -128.1909942626953,-25.621999740600586 -159.8159942626953,-43.35599899291992 C-187.09100341796875,-58.650001525878906 -202.73500061035156,-78.40399932861328 -202.73500061035156,-97.552001953125 C-202.73500061035156,-116.6989974975586 -187.09100341796875,-136.45199584960938 -159.8159942626953,-151.7469940185547 C-155.06900024414062,-154.40899658203125 -150.0749969482422,-156.89199829101562 -144.86300659179688,-159.18899536132812 C-132.42999267578125,-164.66700744628906 -123.0459976196289,-175.18299865722656 -118.75,-188.07200622558594 C-118.45899963378906,-188.94500732421875 -118.15599822998047,-189.8159942626953 -117.83999633789062,-190.68800354003906 C-117.54299926757812,-191.52699279785156 -117.23699951171875,-192.35899353027344 -116.9229965209961,-193.1820068359375 C-113.2030029296875,-202.93299865722656 -122.13600158691406,-212.73800659179688 -132.14199829101562,-209.77099609375 C-200.1820068359375,-189.5970001220703 -246,-147.42300415039062 -246,-97.552001953125 C-246,-27.479999542236328 -155.5570068359375,27.40999984741211 -40.097999572753906,27.40999984741211 C75.36100006103516,27.40999984741211 165.80499267578125,-27.479999542236328 165.80499267578125,-97.552001953125 C165.80499267578125,-146.04800415039062 122.48100280761719,-187.27000427246094 57.527000427246094,-208.05799865722656z"></path></g><g opacity="1" transform="matrix(1,0,0,1,0,0)"><path fill="rgb(0,0,0)" fill-opacity="1" d=" M0.8029999732971191,-183.15499877929688 C-15.442000389099121,-189.6739959716797 -31.909000396728516,-195.572998046875 -48.597999572753906,-200.8509979248047 C-59.875999450683594,-204.30599975585938 -71.32499694824219,-192.531005859375 -77.10700225830078,-176.1009979248047 C-83.072998046875,-159.73699951171875 -81.7030029296875,-143.36900329589844 -70.7969970703125,-138.8780059814453 C-54.551998138427734,-132.35899353027344 -38.084999084472656,-126.46099853515625 -21.395999908447266,-121.18299865722656 C-10.119000434875488,-117.72799682617188 1.3309999704360962,-129.5030059814453 7.11299991607666,-145.93299865722656 C13.07800006866455,-162.2969970703125 11.708999633789062,-178.66400146484375 0.8029999732971191,-183.15499877929688z"></path></g><g opacity="1" transform="matrix(1,0,0,1,0,0)"><path fill="rgb(0,0,0)" fill-opacity="1" d=" M-146.23300170898438,-104.78900146484375 C-141.10699462890625,-117.41999816894531 -132.9669952392578,-127.45800018310547 -122.7509994506836,-134.13499450683594 C-117.17900085449219,-137.77699279785156 -118.82599639892578,-146.29299926757812 -125.3499984741211,-147.6199951171875 C-131.20199584960938,-148.80999755859375 -139.49200439453125,-148.16600036621094 -150.9669952392578,-142.8939971923828 C-166.79400634765625,-135.6230010986328 -177.46400451660156,-123.13600158691406 -172.98500061035156,-112.2249984741211 C-168.97500610351562,-102.7040023803711 -164.75,-93.28399658203125 -160.31900024414062,-83.95899963378906 C-158.30499267578125,-79.72200012207031 -151.99099731445312,-80.68499755859375 -151.3470001220703,-85.33200073242188 C-150.39300537109375,-92.21299743652344 -148.6820068359375,-98.75599670410156 -146.23300170898438,-104.78900146484375z"></path></g></g></g></svg>