<svg xmlns="http://www.w3.org/2000/svg" xmlns:xlink="http://www.w3.org/1999/xlink" viewBox="0 0 512 512" width="512" height="512" style="width: 100%; height: 100%; transform: translate3d(0,0,0);" preserveAspectRatio="xMidYMid meet"><defs><clipPath id="__lottie_element_53814"><rect width="512" height="512" x="0" y="0"></rect></clipPath></defs><g clip-path="url(#__lottie_element_53814)"><g style="display: block;" transform="matrix(1,0,0,1,252.1540069580078,254.69200134277344)" opacity="1"><g opacity="1" transform="matrix(1,0,0,1,0,-88.33599853515625)"><path fill="rgb(0,0,0)" fill-opacity="1" d=" M99.81600189208984,-118.26200103759766 C138.40899658203125,-91.87799835205078 145.60000610351562,-40.45800018310547 125.50700378417969,-3.364000082015991 C106.7020034790039,31.351999282836914 60.31999969482422,33.69200134277344 37.465999603271484,1.4789999723434448 C31.77400016784668,-6.543000221252441 28.729000091552734,-15.625 30.034000396728516,-25.459999084472656 C30.861000061035156,-31.690000534057617 28.172000885009766,-34.99300003051758 23.451000213623047,-38.08100128173828 C5.684000015258789,-49.70399856567383 -1.312999963760376,-48.91899871826172 -15.395999908447266,-33.250999450683594 C-20.19700050354004,-27.90999984741211 -24.457000732421875,-22.165000915527344 -27.545000076293945,-15.663999557495117 C-31.673999786376953,-6.9720001220703125 -30.8439998626709,-1.9520000219345093 -23.451000213623047,4.392000198364258 C-17.131999969482422,9.814000129699707 13.973999977111816,34.5359992980957 21.600000381469727,43.172000885009766 C33.64699935913086,56.816001892089844 42.71799850463867,70.45099639892578 39.125999450683594,91.14700317382812 C34.95600128173828,115.16999816894531 24.510000228881836,136.06100463867188 2.240999937057495,153.51600646972656 C-3.821000099182129,158.26699829101562 -8.772000312805176,156.156005859375 -9.288999557495117,148.44400024414062 C-11.076000213623047,121.7959976196289 -28.618000030517578,109.01899719238281 -50.736000061035156,100.12200164794922 C-59.20399856567383,96.71600341796875 -94.125,80.8479995727539 -118.33100128173828,63.98699951171875 C-130.44200134277344,55.55099868774414 -134.59800720214844,41.60300064086914 -135.8719940185547,27.284000396728516 C-136.9669952392578,14.979999542236328 -136.4720001220703,2.7219998836517334 -133.54600524902344,-9.409000396728516 C-122.15499877929688,-56.630001068115234 -99.38800048828125,-98.11499786376953 -69.68000030517578,-136.0540008544922 C-59.51499938964844,-149.03599548339844 -45.57600021362305,-155.20899963378906 -29.273000717163086,-155.85899353027344 C3.61899995803833,-157.1699981689453 45.40299987792969,-151.94700622558594 99.81600189208984,-118.26200103759766z"></path></g><g opacity="1" transform="matrix(1,0,0,1,2.631999969482422,137.2729949951172)"><path fill="rgb(0,0,0)" fill-opacity="1" d=" M-62.09700012207031,-70.38400268554688 C-38.04800033569336,-54.16899871826172 44.88399887084961,-55.00600051879883 64.53099822998047,-70.71199798583984 C63.39099884033203,-75.08799743652344 58.8120002746582,-75.81600189208984 56.06100082397461,-78.4729995727539 C50.38399887084961,-83.95700073242188 48.358001708984375,-90.4020004272461 50.75199890136719,-96.7030029296875 C53.047000885009766,-102.74400329589844 59.33599853515625,-107.25 66.9280014038086,-106.62100219726562 C82.56800079345703,-105.3239974975586 97.58100128173828,-101.38200378417969 110.11100006103516,-91.36499786376953 C123.48699951171875,-80.6709976196289 124.45800018310547,-67.1709976196289 113.21399688720703,-54.01599884033203 C105.26399993896484,-44.71500015258789 95.04399871826172,-38.632999420166016 83.61900329589844,-34.696998596191406 C74.99500274658203,-31.72599983215332 66.09500122070312,-29.562999725341797 57.426998138427734,-26.707000732421875 C54.25899887084961,-25.663000106811523 49.4630012512207,-25.066999435424805 50.03200149536133,-20.43000030517578 C50.57500076293945,-16.009000778198242 55.36800003051758,-16.187000274658203 58.67499923706055,-15.607999801635742 C69.06099700927734,-13.789999961853027 79.22200012207031,-16.395000457763672 89.34400177001953,-18.108999252319336 C98.35800170898438,-19.635000228881836 106.93299865722656,-22.893999099731445 115.41300201416016,-26.3700008392334 C123.68299865722656,-29.760000228881836 125.2239990234375,-28.84000015258789 124.51699829101562,-19.614999771118164 C122.36399841308594,8.479999542236328 120.38300323486328,36.61600112915039 113.73200225830078,64.14700317382812 C110.5009994506836,77.52200317382812 101.79399871826172,86.48100280761719 90.1050033569336,92.51100158691406 C78.39399719238281,98.5530014038086 45.755001068115234,105.19499969482422 7.500999927520752,107.10199737548828 C-23.072999954223633,106.91500091552734 -53.60300064086914,105.31400299072266 -83.0770034790039,95.61799621582031 C-100.04900360107422,90.03500366210938 -108.74299621582031,77.63099670410156 -112.3759994506836,61.08000183105469 C-115.86499786376953,45.18299865722656 -124.84500122070312,-34.42900085449219 -124.66699981689453,-58.32400131225586 C-124.53700256347656,-75.74700164794922 -116.01200103759766,-86.71099853515625 -101.54199981689453,-94.06300354003906 C-87.97100067138672,-100.95899963378906 -73.31500244140625,-104.64900207519531 -58.308998107910156,-106.86399841308594 C-55.604000091552734,-107.26300048828125 -42.28900146484375,-108.9469985961914 -36.32099914550781,-92.0479965209961 C-35.650001525878906,-84.86699676513672 -39.06399917602539,-79.64900207519531 -45.2869987487793,-76.64199829101562 C-50.18199920654297,-74.2770004272461 -55.50299835205078,-72.79299926757812 -62.09700012207031,-70.38400268554688z"></path></g></g></g></svg>