<svg xmlns="http://www.w3.org/2000/svg" xmlns:xlink="http://www.w3.org/1999/xlink" viewBox="0 0 512 512" width="512" height="512" style="width: 100%; height: 100%; transform: translate3d(0,0,0);" preserveAspectRatio="xMidYMid meet"><defs><clipPath id="__lottie_element_53894"><rect width="512" height="512" x="0" y="0"></rect></clipPath></defs><g clip-path="url(#__lottie_element_53894)"><g style="display: block;" transform="matrix(2.962939977645874,0,0,2.962939977645874,2.8374481201171875,2.8374481201171875)" opacity="1"><g opacity="1" transform="matrix(1,0,0,1,87.75800323486328,85.41300201416016)"><path fill="rgb(0,0,0)" fill-opacity="1" d=" M51.729000091552734,-69.63300323486328 C51.729000091552734,-69.63300323486328 51.64699935913086,-69.63200378417969 51.64699935913086,-69.63200378417969 C50.75299835205078,-77.64299774169922 27.683000564575195,-83.76000213623047 -0.5720000267028809,-83.36900329589844 C-28.847000122070312,-82.97699737548828 -51.750999450683594,-76.21399688720703 -52.391998291015625,-68.1729965209961 C-56.81700134277344,-67.93299865722656 -60.30400085449219,-64.31800079345703 -60.24399948120117,-59.93299865722656 C-60.24399948120117,-59.93299865722656 -60.141998291015625,-52.59000015258789 -60.141998291015625,-52.59000015258789 C-60.08100128173828,-48.22200012207031 -56.52399826049805,-44.71699905395508 -52.117000579833984,-44.571998596191406 C-49.36899948120117,-25.233999252319336 -41.055999755859375,-10.918999671936035 -27.966999053955078,-2.562999963760376 C-48.821998596191406,12.720999717712402 -59.2239990234375,40.428001403808594 -59.04600143432617,53.220001220703125 C-58.99800109863281,56.6870002746582 -57.03799819946289,59.68000030517578 -54.16699981689453,61.270999908447266 C-52.41600036621094,62.87699890136719 -49.7760009765625,64.40899658203125 -46.486000061035156,65.81700134277344 C-46.75600051879883,66.53199768066406 -46.90299987792969,67.26000213623047 -46.893001556396484,67.99800109863281 C-46.77000045776367,76.86199951171875 -25.840999603271484,83.76000213623047 -0.14800000190734863,83.40399932861328 C25.54599952697754,83.0479965209961 46.2760009765625,75.572998046875 46.15299987792969,66.70899963378906 C46.14400100708008,66.04100036621094 46.00199890136719,65.38600158691406 45.763999938964844,64.74299621582031 C51.11199951171875,62.42900085449219 54.915000915527344,59.85300064086914 56.255001068115234,57.24700164794922 C57.43199920654297,55.6609992980957 58.124000549316406,53.70899963378906 58.095001220703125,51.59700012207031 C57.96200180053711,42.02299880981445 52.21200180053711,27.441999435424805 43.7859992980957,15.310999870300293 C39.11600112915039,8.58899974822998 33.86899948120117,2.934999942779541 28.253999710083008,-1.531000018119812 C34.70600128173828,-5.040999889373779 40.06800079345703,-9.788999557495117 44.29100036621094,-15.751999855041504 C50.03200149536133,-23.856000900268555 53.51599884033203,-33.9630012512207 54.91299819946289,-46.54199981689453 C58.07400131225586,-47.73099899291992 60.30400085449219,-50.74700164794922 60.255001068115234,-54.257999420166016 C60.255001068115234,-54.257999420166016 60.15299987792969,-61.60100173950195 60.15299987792969,-61.60100173950195 C60.090999603271484,-66.10099792480469 56.319000244140625,-69.6969985961914 51.729000091552734,-69.63300323486328z M-2.7260000705718994,-13.298999786376953 C-10.62600040435791,-13.298999786376953 -24.052000045776367,-16.051000595092773 -30.792999267578125,-36.79999923706055 C-31.475000381469727,-39.18600082397461 -32.0989990234375,-42.17599868774414 -31.19499969482422,-43.757999420166016 C-30.825000762939453,-44.40599822998047 -29.5310001373291,-44.729000091552734 -28.084999084472656,-44.8849983215332 C-28.084999084472656,-44.8849983215332 31.92799949645996,-45.71699905395508 31.92799949645996,-45.71699905395508 C32.93199920654297,-45.551998138427734 33.72600173950195,-45.292999267578125 33.99399948120117,-44.882999420166016 C35.04999923706055,-43.27199935913086 33.5890007019043,-37.87099838256836 32.86600112915039,-35.0260009765625 C28.18000030517578,-22.07200050354004 18.25200080871582,-13.298999786376953 -2.7260000705718994,-13.298999786376953z M-29.760000228881836,26.816999435424805 C-24.94499969482422,19.565000534057617 -17.145000457763672,10.722000122070312 -6.285999774932861,7.182000160217285 C-6.381999969482422,13.939000129699707 -7.453000068664551,21.638999938964844 -14.729999542236328,27.82900047302246 C-22.37299919128418,34.33000183105469 -32.96500015258789,39.970001220703125 -38.33399963378906,44.805999755859375 C-36.77199935913086,39.65599822998047 -33.979000091552734,33.17100143432617 -29.760000228881836,26.816999435424805z M37.487998962402344,44.88600158691406 C37.3120002746582,44.8489990234375 37.12900161743164,44.814998626708984 36.95100021362305,44.77899932861328 C30.96500015258789,40.75699996948242 20.072999954223633,35.683998107910156 14.444999694824219,28.51099967956543 C9.9399995803833,22.76799964904785 9.758999824523926,15.461000442504883 9.765999794006348,8.819999694824219 C23.72100067138672,16.041000366210938 33.89799880981445,33.67599868774414 37.487998962402344,44.88600158691406z"></path></g></g></g></svg>