<svg xmlns="http://www.w3.org/2000/svg" xmlns:xlink="http://www.w3.org/1999/xlink" viewBox="0 0 512 512" width="512" height="512" style="width: 100%; height: 100%; transform: translate3d(0,0,0);" preserveAspectRatio="xMidYMid meet"><defs><clipPath id="__lottie_element_53679"><rect width="512" height="512" x="0" y="0"></rect></clipPath></defs><g clip-path="url(#__lottie_element_53679)"><g style="display: block;" transform="matrix(1,0,0,1,256,256)" opacity="1"><g opacity="1" transform="matrix(1,0,0,1,0,0)"><path fill="rgb(0,0,0)" fill-opacity="1" d=" M215.62899780273438,-58.875999450683594 C197.2949981689453,-109.69000244140625 161.06700134277344,-152.20199584960938 113.62100219726562,-178.58200073242188 C70.84500122070312,-202.36500549316406 16.618000030517578,-211.4709930419922 -35.14400100708008,-203.57200622558594 C-93.98799896240234,-194.59100341796875 -145.6719970703125,-165.36099243164062 -184.61000061035156,-119.04299926757812 C-203.17799377441406,-96.95600128173828 -215.9949951171875,-73.70999908447266 -222.70599365234375,-49.95100021362305 C-228.4969940185547,-29.447999954223633 -229.6790008544922,-9.038999557495117 -226.218994140625,10.708999633789062 C-222.23300170898438,33.45800018310547 -212.04600524902344,53.957000732421875 -199.1020050048828,66.31199645996094 C-201.2010040283203,74.41400146484375 -203.88299560546875,86.4540023803711 -205.2239990234375,99.30799865722656 C-206.6739959716797,113.21299743652344 -206.2530059814453,125.33499908447266 -203.9739990234375,135.3350067138672 C-199.7239990234375,153.9810028076172 -189.53700256347656,162.75799560546875 -181.74000549316406,166.83799743652344 C-167.98699951171875,174.03599548339844 -155.4250030517578,172.53399658203125 -145.3939971923828,167.7760009765625 C-138.53399658203125,180.75100708007812 -127.36000061035156,189.1959991455078 -113.52799987792969,191.73899841308594 C-96.9010009765625,194.79400634765625 -82.0459976196289,189.1739959716797 -71.25800323486328,182.68899536132812 C-63.819000244140625,195.0290069580078 -50.90399932861328,206.281005859375 -30.325000762939453,206.35400390625 C-30.257999420166016,206.35400390625 -30.19099998474121,206.35400390625 -30.125,206.35400390625 C0.5960000157356262,206.35299682617188 20.200000762939453,181.11500549316406 28.990999221801758,166.46400451660156 C42.70800018310547,167.7209930419922 67.90399932861328,168.83799743652344 95.89099884033203,164.26400756835938 C152.31900024414062,155.03900146484375 192.80799865722656,127.0780029296875 212.98300170898438,83.40499877929688 C232.2449951171875,41.70899963378906 233.20899963378906,-10.149999618530273 215.62899780273438,-58.875999450683594z M-132.6790008544922,-4.510000228881836 C-141.20399475097656,13.850000381469727 -151.6280059814453,23.632999420166016 -163.65899658203125,24.565000534057617 C-164.19500732421875,24.60700035095215 -164.77999877929688,24.632999420166016 -165.406005859375,24.632999420166016 C-171.13699340820312,24.632999420166016 -180.375,22.489999771118164 -188.1739959716797,10.82800006866455 C-208.5989990234375,-19.71500015258789 -182.66200256347656,-69.0979995727539 -160.85899353027344,-84.23100280761719 C-155.2689971923828,-88.11100006103516 -149.63699340820312,-90.15799713134766 -144.1199951171875,-90.31600189208984 C-136.43499755859375,-90.55500030517578 -129.38999938964844,-86.99700164794922 -124.78700256347656,-80.60399627685547 C-112.18299865722656,-63.097999572753906 -124.66100311279297,-21.777999877929688 -132.6790008544922,-4.510000228881836z M-70.81099700927734,77.62000274658203 C-74.70099639892578,81.78099822998047 -79.8030014038086,84.04900360107422 -85.10900115966797,84.04900360107422 C-85.95999908447266,84.04900360107422 -86.81500244140625,83.98999786376953 -87.6719970703125,83.87300109863281 C-89.63999938964844,83.60199737548828 -93.30500030517578,82.71800231933594 -97.20800018310547,79.86000061035156 C-103.83499908447266,80.41300201416016 -109.90799713134766,77.89800262451172 -113.83999633789062,72.4530029296875 C-119.48899841308594,64.63200378417969 -118.87799835205078,54.30500030517578 -112.02200317382812,41.76100158691406 C-109.48899841308594,37.12699890136719 -106.23300170898438,32.41299819946289 -102.85399627685547,28.485000610351562 C-98.43299865722656,23.347000122070312 -92.81900024414062,18.184999465942383 -84.9280014038086,18.590999603271484 C-76.10299682617188,19.076000213623047 -71.48899841308594,26.048999786376953 -69.17400360107422,31.812999725341797 C-69.05000305175781,32.12200164794922 -57.17499923706055,63.03499984741211 -70.81099700927734,77.62000274658203z M118.66400146484375,41.86000061035156 C114.76499938964844,54.257999420166016 104.71199798583984,63.88199996948242 89.59300231933594,69.69100189208984 C79.48899841308594,73.5719985961914 67.8499984741211,75.46099853515625 56.099998474121094,75.46099853515625 C38.821998596191406,75.46099853515625 21.29800033569336,71.38099670410156 8.022000312805176,63.55799865722656 C-10.33899974822998,52.73899841308594 -17.066999435424805,30.7549991607666 -9.975000381469727,4.750999927520752 C-5.793000221252441,-10.583000183105469 3.013000011444092,-25.990999221801758 14.182999610900879,-37.520999908447266 C27.364999771118164,-51.125999450683594 43.07500076293945,-58.61899948120117 58.42100143432617,-58.61899948120117 C74.0739974975586,-58.61899948120117 88.58399963378906,-50.119998931884766 100.38300323486328,-34.04100036621094 C116.92900085449219,-11.489999771118164 124.95899963378906,21.849000930786133 118.66400146484375,41.86000061035156z"></path></g></g></g></svg>