<svg xmlns="http://www.w3.org/2000/svg" xmlns:xlink="http://www.w3.org/1999/xlink" viewBox="0 0 512 512" width="512" height="512" style="width: 100%; height: 100%; transform: translate3d(0,0,0);" preserveAspectRatio="xMidYMid meet"><defs><clipPath id="__lottie_element_53559"><rect width="512" height="512" x="0" y="0"></rect></clipPath></defs><g clip-path="url(#__lottie_element_53559)"><g style="display: block;" transform="matrix(2.962939977645874,0,0,2.962939977645874,2.8374481201171875,2.8374481201171875)" opacity="1"><g opacity="1" transform="matrix(1,0,0,1,93.04000091552734,60.66400146484375)"><path fill="rgb(0,0,0)" fill-opacity="1" d=" M56.65399932861328,-57.53799819946289 C52.35900115966797,-59.154998779296875 43.6510009765625,-58.34400177001953 38.279998779296875,-56.875 C29.125,-54.37099838256836 18.31100082397461,-46.61899948120117 16.959999084472656,-47.0890007019043 C0.03099999949336052,-52.97800064086914 -12.359999656677246,-46.540000915527344 -22.694000244140625,-33.59000015258789 C-23.851999282836914,-32.138999938964844 -26.26799964904785,-31.062000274658203 -28.191999435424805,-30.906999588012695 C-43.20600128173828,-29.690000534057617 -54.196998596191406,-23.450000762939453 -60.36800003051758,-10.63700008392334 C-66.46199798583984,2.015000104904175 -62.319000244140625,15.680999755859375 -53.624000549316406,25.990999221801758 C-47.715999603271484,32.99599838256836 -38.4630012512207,36.43000030517578 -29.392000198364258,34.731998443603516 C-24.948999404907227,33.9010009765625 -20.70199966430664,32.27299880981445 -15.79800033569336,30.812999725341797 C-14.321000099182129,33.18600082397461 -13.038999557495117,35.409000396728516 -11.602999687194824,37.52899932861328 C-1.7400000095367432,52.08399963378906 14.89799976348877,59.154998779296875 29.108999252319336,54.87099838256836 C54.68000030517578,47.16299819946289 66.46199798583984,16.429000854492188 52.448001861572266,-5.890999794006348 C50.71900177001953,-8.644000053405762 48.89699935913086,-11.444999694824219 47.80799865722656,-14.46500015258789 C43.645999908447266,-26.006000518798828 51.64400100708008,-42.69300079345703 58.65599822998047,-53.4630012512207 C60.637001037597656,-56.50400161743164 57.72600173950195,-57.1349983215332 56.65399932861328,-57.53799819946289z M47.654998779296875,11.392000198364258 C48.24599838256836,19.461999893188477 41.68899917602539,27.46500015258789 32.2869987487793,29.273000717163086 C37.12200164794922,16.597999572753906 36.3650016784668,11.050999641418457 37.159000396728516,3.615000009536743 C37.42599868774414,1.1169999837875366 40.334999084472656,-0.15399999916553497 42.39400100708008,1.3209999799728394 C45.31100082397461,3.4089999198913574 47.345001220703125,7.1519999504089355 47.654998779296875,11.392000198364258z"></path></g><g opacity="1" transform="matrix(1,0,0,1,64.61000061035156,133.05099487304688)"><path fill="rgb(0,0,0)" fill-opacity="1" d=" M7.864999771118164,-29.121000289916992 C-3.8959999084472656,-27.270999908447266 -16.882999420166016,-24.874000549316406 -27.617000579833984,-36.65999984741211 C-27.617000579833984,-36.65999984741211 -36.7760009765625,-12.347999572753906 -40.400001525878906,2.3980000019073486 C-41.999000549316406,8.902000427246094 -39.37699890136719,17.194000244140625 -33.52000045776367,21.95599937438965 C-26.268999099731445,27.85099983215332 -18.285999298095703,32.698001861572266 -8.871999740600586,34.49599838256836 C2.4560000896453857,36.65999984741211 12.954000473022461,34.805999755859375 19.93899917602539,25.086999893188477 C27.97100067138672,13.91100025177002 36.215999603271484,2.7820000648498535 41.999000549316406,-6.739999771118164 C19.017000198364258,-11.571000099182129 8.89799976348877,-29.283000946044922 7.864999771118164,-29.121000289916992z"></path></g></g></g></svg>