<svg xmlns="http://www.w3.org/2000/svg" xmlns:xlink="http://www.w3.org/1999/xlink" viewBox="0 0 512 512" width="512" height="512" style="width: 100%; height: 100%; transform: translate3d(0,0,0);" preserveAspectRatio="xMidYMid meet"><defs><clipPath id="__lottie_element_53045"><rect width="512" height="512" x="0" y="0"></rect></clipPath></defs><g clip-path="url(#__lottie_element_53045)"><g style="display: block;" transform="matrix(1,0,0,1,229.03900146484375,255.00900268554688)" opacity="1"><g opacity="1" transform="matrix(1,0,0,1,0,0)"><path fill="rgb(0,0,0)" fill-opacity="1" d=" M-98.84,27.6 C-121.73,37.55 -154.58,-38.1 -163.54,-74.93 C-170.28,-102.63 -142.63,-112.02 -135.67,-82.89 C-124.72,-37.11 -80.47,19.61 -98.84,27.6z M187.62,6.15 C187.62,6.15 117.09,-119.78 117.09,-119.78 C113.21,-126.71 103.79,-127.89 98.24,-122.21 C79.12,-102.65 53.22,-104.39 42.18,-117 C38.12,-121.64 31.68,-123.33 25.69,-121.86 C-23.02,-109.93 -36.09,-157.44 -23.75,-180.89 C-21.42,-185.31 -23.67,-190.8 -28.52,-192.04 C-50.49,-197.66 -50.38,-216.34 -45.84,-229.05 C-43.22,-236.4 -49.28,-243.93 -57.05,-243.18 C-70.07,-241.91 -95.85,-233.2 -120.27,-218.81 C-198.34,-172.79 -210.63,-86.01 -169.51,-5.25 C-141.71,49.36 -96.42,126.82 -70.15,169.97 C-60.61,185.64 -40.05,190.38 -24.6,180.48 C-24.6,180.48 177.53,51.01 177.53,51.01 C192.61,41.34 197.11,21.34 187.62,6.15z"></path><g opacity="1" transform="matrix(1,0,0,1,-129.50900268554688,-36.11000061035156)"></g><g opacity="1" transform="matrix(1,0,0,1,0,-28.791000366210938)"></g></g><g opacity="1" transform="matrix(1,0,0,1,122.33100128173828,185.38999938964844)"><path fill="rgb(0,0,0)" fill-opacity="1" d=" M35.018001556396484,52.45199966430664 C35.018001556396484,52.45199966430664 35.018001556396484,52.452999114990234 35.018001556396484,52.452999114990234 C19.20800018310547,62.5989990234375 -1.8329999446868896,58.00699996948242 -11.979000091552734,42.196998596191406 C-11.979000091552734,42.196998596191406 -48.42100143432617,-14.58899974822998 -48.42100143432617,-14.58899974822998 C-52.64500045776367,-21.17099952697754 -50.733001708984375,-29.93000030517578 -44.1510009765625,-34.15399932861328 C-44.1510009765625,-34.15399932861328 -10.734000205993652,-55.599998474121094 -10.734000205993652,-55.599998474121094 C-4.1519999504089355,-59.82400131225586 4.607999801635742,-57.9119987487793 8.831999778747559,-51.33000183105469 C8.831999778747559,-51.33000183105469 45.27399826049805,5.455999851226807 45.27399826049805,5.455999851226807 C55.41999816894531,21.266000747680664 50.827999114990234,42.305999755859375 35.018001556396484,52.45199966430664z"></path></g></g></g></svg>