<svg xmlns="http://www.w3.org/2000/svg" xmlns:xlink="http://www.w3.org/1999/xlink" viewBox="0 0 512 512" width="512" height="512" style="width: 100%; height: 100%; transform: translate3d(0,0,0);" preserveAspectRatio="xMidYMid meet"><defs><clipPath id="__lottie_element_14392"><rect width="512" height="512" x="0" y="0"></rect></clipPath></defs><g clip-path="url(#__lottie_element_14392)"><g style="display: block;" transform="matrix(1,0,0,1,256,256)" opacity="1"><g opacity="1" transform="matrix(1,0,0,1,0,0)"><path fill="rgb(0,0,0)" fill-opacity="1" d=" M199.9810028076172,28.308000564575195 C182.77999877929688,13.140999794006348 155.68600463867188,-1.093999981880188 127.0009994506836,-16.163000106811523 C88.72799682617188,-36.270999908447266 45.68000030517578,-58.887001037597656 25.799999237060547,-84.21299743652344 C27.533000946044922,-102.46900177001953 31.618000030517578,-150.5590057373047 31.618000030517578,-198.36000061035156 C31.618000030517578,-209.406005859375 22.663999557495117,-218.36000061035156 11.618000030517578,-218.36000061035156 C11.618000030517578,-218.36000061035156 -182.37399291992188,-218.36000061035156 -182.37399291992188,-218.36000061035156 C-188.10400390625,-218.36000061035156 -193.5590057373047,-215.90199279785156 -197.35499572753906,-211.60899353027344 C-201.15199279785156,-207.31700134277344 -202.9239959716797,-201.60299682617188 -202.22300720214844,-195.9149932861328 C-195.94900512695312,-144.9770050048828 -206.01300048828125,-107.23999786376953 -215.74400329589844,-70.74600219726562 C-226.23699951171875,-31.398000717163086 -236.1479949951172,5.76800012588501 -224.01400756835938,52.05500030517578 C-219.7449951171875,68.24700164794922 -219.63800048828125,97.22000122070312 -219.95599365234375,107.01100158691406 C-220.13600158691406,112.427001953125 -218.10899353027344,117.68499755859375 -214.34100341796875,121.58000183105469 C-210.57200622558594,125.47599792480469 -205.38600158691406,127.67400360107422 -199.96600341796875,127.67400360107422 C-199.96600341796875,127.67400360107422 -99.51300048828125,127.67400360107422 -99.51300048828125,127.67400360107422 C-88.46700286865234,127.67400360107422 -79.51300048828125,118.72000122070312 -79.51300048828125,107.67400360107422 C-79.51300048828125,107.67400360107422 -79.51300048828125,95.3759994506836 -79.51300048828125,95.3759994506836 C-69.37000274658203,100.14700317382812 -60.736000061035156,105.14900207519531 -52.26300048828125,110.05500030517578 C-29.78700065612793,123.072998046875 -6.546000003814697,136.5330047607422 37.49599838256836,141.6909942626953 C55.55799865722656,143.80599975585938 72.8290023803711,144.65899658203125 88.95099639892578,144.65899658203125 C154.55999755859375,144.65899658203125 201.05099487304688,130.5229949951172 203.45399475097656,129.77699279785156 C209.55299377441406,127.88400268554688 214.38099670410156,123.19300079345703 216.447998046875,117.1520004272461 C217.2469940185547,114.82099914550781 235.58099365234375,59.698001861572266 199.9810028076172,28.308000564575195z M-34.48400115966797,-51.77899932861328 C-35.62699890136719,-51.582000732421875 -36.76499938964844,-51.48699951171875 -37.887001037597656,-51.48699951171875 C-47.409000396728516,-51.48699951171875 -55.83000183105469,-58.33399963378906 -57.5,-68.03600311279297 C-57.577999114990234,-68.48600006103516 -57.650001525878906,-68.94000244140625 -57.71699905395508,-69.39299774169922 C-59.332000732421875,-80.27799987792969 -51.81700134277344,-90.41200256347656 -40.93199920654297,-92.0270004272461 C-30.042999267578125,-93.63800048828125 -19.913000106811523,-86.12699890136719 -18.29800033569336,-75.24199676513672 C-18.275999069213867,-75.09200286865234 -18.25200080871582,-74.94300079345703 -18.226999282836914,-74.79399871826172 C-16.361000061035156,-63.94900131225586 -23.638999938964844,-53.64500045776367 -34.48400115966797,-51.77899932861328z M-13.402999877929688,-153.2729949951172 C-13.89900016784668,-142.69000244140625 -22.634000778198242,-134.4429931640625 -33.11899948120117,-134.4429931640625 C-33.430999755859375,-134.4429931640625 -33.74300003051758,-134.4499969482422 -34.05699920654297,-134.46400451660156 C-39.459999084472656,-134.7169952392578 -44.25400161743164,-137.11700439453125 -47.65299987792969,-140.802001953125 C-51.18000030517578,-144.3699951171875 -53.35900115966797,-149.2760009765625 -53.35900115966797,-154.69000244140625 C-53.35900115966797,-165.5989990234375 -44.51499938964844,-174.4429931640625 -33.60599899291992,-174.4429931640625 C-33.60599899291992,-174.4429931640625 -33.11199951171875,-174.4429931640625 -33.11199951171875,-174.4429931640625 C-27.71299934387207,-174.4429931640625 -22.549999237060547,-172.23300170898438 -18.82200050354004,-168.32699584960938 C-15.093999862670898,-164.4219970703125 -13.128000259399414,-159.16000366210938 -13.380000114440918,-153.76699829101562 C-13.380000114440918,-153.76699829101562 -13.402999877929688,-153.2729949951172 -13.402999877929688,-153.2729949951172z M30.040000915527344,2.7750000953674316 C26.18899917602539,7.992000102996826 20.246000289916992,10.751999855041504 14.225000381469727,10.751999855041504 C10.173999786376953,10.751999855041504 6.0879998207092285,9.503999710083008 2.5789999961853027,6.914000034332275 C2.5789999961853027,6.914000034332275 1.8259999752044678,6.35699987411499 1.8259999752044678,6.35699987411499 C-6.888000011444092,-0.10100000351667404 -8.718000411987305,-12.39900016784668 -2.260999917984009,-21.11199951171875 C4.197000026702881,-29.827999114990234 16.493999481201172,-31.652999877929688 25.207000732421875,-25.197999954223633 C25.207000732421875,-25.197999954223633 25.902000427246094,-24.684999465942383 25.902000427246094,-24.684999465942383 C34.62699890136719,-18.2450008392334 36.47999954223633,-5.949999809265137 30.040000915527344,2.7750000953674316z M102.67400360107422,43.058998107910156 C99.14900207519531,49.676998138427734 92.36799621582031,53.44900131225586 85.35800170898438,53.44900131225586 C82.25,53.44900131225586 79.0979995727539,52.70800018310547 76.16300201416016,51.14400100708008 C76.16300201416016,51.14400100708008 75.39399719238281,50.736000061035156 75.39399719238281,50.736000061035156 C65.83300018310547,45.6619987487793 62.194000244140625,33.79899978637695 67.26899719238281,24.238000869750977 C72.34200286865234,14.678000450134277 84.20500183105469,11.038000106811523 93.76799774169922,16.113000869750977 C93.76799774169922,16.113000869750977 94.58799743652344,16.547000885009766 94.58799743652344,16.547000885009766 C104.14299774169922,21.635000228881836 107.76200103759766,33.505001068115234 102.67400360107422,43.058998107910156z"></path></g><g opacity="1" transform="matrix(1,0,0,1,0,0)"><path stroke-linecap="round" stroke-linejoin="round" fill-opacity="0" stroke="rgb(0,0,0)" stroke-opacity="1" stroke-width="40" d=" M-153.40199279785156,109.09100341796875 C-153.40199279785156,109.09100341796875 -153.40199279785156,191.70199584960938 -153.40199279785156,191.70199584960938"></path></g><g opacity="1" transform="matrix(1,0,0,1,0,0)"><path stroke-linecap="round" stroke-linejoin="round" fill-opacity="0" stroke="rgb(0,0,0)" stroke-opacity="1" stroke-width="40" d=" M63.04999923706055,124.23400115966797 C63.04999923706055,124.23400115966797 63.04999923706055,191.70199584960938 63.04999923706055,191.70199584960938"></path></g><g opacity="1" transform="matrix(1,0,0,1,0,0)"><path stroke-linecap="round" stroke-linejoin="round" fill-opacity="0" stroke="rgb(0,0,0)" stroke-opacity="1" stroke-width="40" d=" M226.54299926757812,168.2310028076172 C223.4149932861328,181.14599609375 211.97799682617188,191.70199584960938 196.81399536132812,191.70199584960938 C196.81399536132812,191.70199584960938 -226.82699584960938,191.70199584960938 -226.82699584960938,191.70199584960938"></path></g></g></g></svg>