<svg xmlns="http://www.w3.org/2000/svg" xmlns:xlink="http://www.w3.org/1999/xlink" viewBox="0 0 512 512" width="512" height="512" style="width: 100%; height: 100%; transform: translate3d(0,0,0);" preserveAspectRatio="xMidYMid meet"><defs><clipPath id="__lottie_element_52110"><rect width="512" height="512" x="0" y="0"></rect></clipPath></defs><g clip-path="url(#__lottie_element_52110)"><g style="display: block;" transform="matrix(1,0,0,1,256,256)" opacity="1"><g opacity="1" transform="matrix(1,0,0,1,0,0)"><path fill="rgb(0,0,0)" fill-opacity="1" d=" M183.02099609375,61.005001068115234 C201.50799560546875,48.01100158691406 217.0030059814453,35.150001525878906 228.74600219726562,24.61199951171875 C243.67300415039062,11.217000007629395 243.67300415039062,-11.217000007629395 228.74600219726562,-24.61199951171875 C201.2760009765625,-49.263999938964844 153.29299926757812,-86.61799621582031 94.427001953125,-108.6780014038086 C62.803001403808594,-164.11900329589844 32.8489990234375,-210.88499450683594 11.944000244140625,-234.53199768066406 C5.609000205993652,-241.697998046875 -5.609000205993652,-241.697998046875 -11.944000244140625,-234.53199768066406 C-32.8489990234375,-210.88499450683594 -62.803001403808594,-164.11900329589844 -94.427001953125,-108.6780014038086 C-153.29299926757812,-86.61799621582031 -201.2760009765625,-49.263999938964844 -228.74600219726562,-24.61199951171875 C-243.67300415039062,-11.217000007629395 -243.67300415039062,11.217000007629395 -228.74600219726562,24.61199951171875 C-217.0030059814453,35.150001525878906 -201.50799560546875,48.01100158691406 -183.02099609375,61.005001068115234 C-212.7209930419922,123.21199798583984 -236.4320068359375,179.74000549316406 -245.44700622558594,213.55099487304688 C-247.97900390625,223.0469970703125 -241.38600158691406,232.5240020751953 -231.61199951171875,233.5500030517578 C-149.69700622558594,242.1510009765625 149.6959991455078,242.1510009765625 231.61199951171875,233.5500030517578 C241.38600158691406,232.5240020751953 247.97900390625,223.0469970703125 245.44700622558594,213.55099487304688 C236.4320068359375,179.74000549316406 212.7209930419922,123.21199798583984 183.02099609375,61.005001068115234z M183.81500244140625,0 C166.11900329589844,14.699999809265137 142.21099853515625,32.28200149536133 114.21900177001953,47.13199996948242 C74.60900115966797,68.1449966430664 36.18000030517578,78.79900360107422 0,78.79900360107422 C-36.18000030517578,78.79900360107422 -74.60900115966797,68.1449966430664 -114.21900177001953,47.13199996948242 C-142.21099853515625,32.28200149536133 -166.11900329589844,14.699999809265137 -183.81500244140625,0 C-166.11900329589844,-14.699999809265137 -142.21099853515625,-32.28200149536133 -114.21900177001953,-47.13199996948242 C-98.50700378417969,-55.46699905395508 -82.98200225830078,-62.16600036621094 -67.70800018310547,-67.2229995727539 C-102.90899658203125,-16.80900001525879 -64.86299896240234,51.5099983215332 0,51.5099983215332 C41.74800109863281,51.5099983215332 76.11199951171875,21.690000534057617 80.57099914550781,-16.635000228881836 C74.35900115966797,-9.621000289916992 65.02899932861328,-5.156000137329102 54.59199905395508,-5.156000137329102 C35.88800048828125,-5.156000137329102 20.72599983215332,-19.482999801635742 20.72599983215332,-37.15599822998047 C20.72599983215332,-54.82899856567383 35.88800048828125,-69.15599822998047 54.59199905395508,-69.15599822998047 C72.2040023803711,-69.15599822998047 128.093994140625,-46.28799819946289 183.81500244140625,0z"></path></g></g></g></svg>