<svg xmlns="http://www.w3.org/2000/svg" xmlns:xlink="http://www.w3.org/1999/xlink" viewBox="0 0 512 512" width="512" height="512" style="width: 100%; height: 100%; transform: translate3d(0,0,0);" preserveAspectRatio="xMidYMid meet"><defs><clipPath id="__lottie_element_51245"><rect width="512" height="512" x="0" y="0"></rect></clipPath></defs><g clip-path="url(#__lottie_element_51245)"><g style="display: block;" transform="matrix(1,0,0,1,0,0)" opacity="1"><g opacity="1" transform="matrix(1,0,0,1,193.1719970703125,430.0459899902344)"><path fill="rgb(0,0,0)" fill-opacity="1" d=" M6.474999904632568,75.44300079345703 C-0.6859999895095825,73.90299987792969 -29.722999572753906,32.645999908447266 -37.01300048828125,23.9950008392334 C-43.84700012207031,15.883999824523926 -66.375,-2.058000087738037 -65.25700378417969,-12.218999862670898 C-64.9990005493164,-14.5649995803833 -63.94900131225586,-16.19099998474121 -62.93600082397461,-18.191999435424805 C-61.020999908447266,-21.972999572753906 -33.87099838256836,-60.125 -31.663999557495117,-61.638999938964844 C-23.958999633789062,-66.9229965209961 35.95399856567383,-75.44300079345703 39.816001892089844,-71.97599792480469 C37.27399826049805,-47.483001708984375 11.105999946594238,-31.875999450683594 -6.2179999351501465,-17.049999237060547 C-7.547999858856201,-14.753999710083008 -6.925000190734863,-7.614999771118164 -6.223999977111816,-4.738999843597412 C-4.831999778747559,0.9700000286102295 22.54400062561035,36.792999267578125 27.774999618530273,40.013999938964844 C35.17300033569336,44.56999969482422 44.25299835205078,43.069000244140625 52.3390007019043,45.79999923706055 C64.43800354003906,49.88600158691406 66.375,64.05599975585938 66.07599639892578,75.44300079345703 C66.07599639892578,75.44300079345703 6.474999904632568,75.44300079345703 6.474999904632568,75.44300079345703z"></path></g><g opacity="1" transform="matrix(1,0,0,1,251.8090057373047,256.96600341796875)"><path fill="rgb(0,0,0)" fill-opacity="1" d=" M242.82200622558594,-58.459999084472656 C246.46200561523438,-110.33399963378906 214.5279998779297,-160.47799682617188 171.09800720214844,-186.6999969482422 C178.34300231933594,-192.08900451660156 201.75,-171.95199584960938 205.4239959716797,-175.59300231933594 C205.08599853515625,-182.43600463867188 198.74600219726562,-190.55299377441406 194.35000610351562,-195.80599975585938 C177.5570068359375,-215.8769989013672 145.28900146484375,-232.9929962158203 119.35900115966797,-235.96099853515625 C112.9219970703125,-236.697998046875 98.41899871826172,-234.63900756835938 94.28500366210938,-237.1510009765625 C90.2750015258789,-239.58700561523438 88.98899841308594,-253.94400024414062 81.2020034790039,-254.36700439453125 C79.70099639892578,-254.36199951171875 75.91899871826172,-241.46600341796875 74.47000122070312,-238.84100341796875 C73.03099822998047,-236.23500061035156 64.29499816894531,-221.2480010986328 63.52199935913086,-220.51100158691406 C60.861000061035156,-217.97500610351562 41.25699996948242,-211.8040008544922 35.04499816894531,-207.56500244140625 C29.781999588012695,-203.9739990234375 26.374000549316406,-198.43699645996094 21.458999633789062,-194.89100646972656 C13.87399959564209,-189.41799926757812 -16.645999908447266,-178.01699829101562 -16.78700065612793,-168.56100463867188 C-13.70300006866455,-163.31700134277344 -13.678000450134277,-156.93499755859375 -11.62600040435791,-151.48300170898438 C-7.294000148773193,-139.97799682617188 -8.12600040435791,-146.46299743652344 -6.354000091552734,-132.70599365234375 C-3.559000015258789,-110.9990005493164 27.158000946044922,-121.75399780273438 42.34600067138672,-118.58599853515625 C71.48600006103516,-112.50900268554688 99.43800354003906,-68.56500244140625 102.38500213623047,-40.28300094604492 C96.21800231933594,-39.1609992980957 99.3010025024414,-42.180999755859375 98.1780014038086,-45.053001403808594 C89.31999969482422,-67.71700286865234 76.97000122070312,-82.66000366210938 58.95800018310547,-98.802001953125 C46.52799987792969,-68.927001953125 20.402000427246094,-52.612998962402344 -8.74899959564209,-41.30699920654297 C-45.935001373291016,-26.882999420166016 -86.375,-25.67799949645996 -123.23999786376953,-10.345999717712402 C-147.718994140625,-0.16500000655651093 -159.87600708007812,12.901000022888184 -189.62899780273438,10.291999816894531 C-208.52999877929688,8.633999824523926 -219.5019989013672,-5.414999961853027 -215.91700744628906,-24.204999923706055 C-209.9290008544922,-55.59299850463867 -177.32000732421875,-61.551998138427734 -167.3769989013672,-90.81700134277344 C-158.83700561523438,-115.95600128173828 -165.28199768066406,-156.74899291992188 -189.52000427246094,-171.54100036621094 C-201.67100524902344,-153.58099365234375 -209.94500732421875,-130.0229949951172 -206.60000610351562,-108.04900360107422 C-205.3990020751953,-100.15799713134766 -197.8489990234375,-92.4489974975586 -198.93699645996094,-84.177001953125 C-200.33999633789062,-76.86799621582031 -216.55499267578125,-65.1050033569336 -221.8979949951172,-58.474998474121094 C-240.36300659179688,-35.5620002746582 -246.46200561523438,-3.7190001010894775 -224.89199829101562,19.29199981689453 C-208.1490020751953,37.15399932861328 -178.0989990234375,29.586999893188477 -156.22000122070312,28.400999069213867 C-155.86199951171875,30.6560001373291 -156.36700439453125,32.457000732421875 -157.11000061035156,34.55799865722656 C-163.23800659179688,51.89400100708008 -180.73199462890625,87.48600006103516 -193.27699279785156,100.3949966430664 C-205.06300354003906,112.52200317382812 -219.67799377441406,118.67500305175781 -235.0970001220703,124.63400268554688 C-233.27999877929688,134.91600036621094 -236.6540069580078,144.927001953125 -237.11099243164062,154.5279998779297 C-237.8000030517578,169.00100708007812 -239.22500610351562,225.80799865722656 -235.4499969482422,235.84100341796875 C-234.52000427246094,238.31399536132812 -229.06500244140625,245.8769989013672 -226.88099670410156,247.4709930419922 C-222.6510009765625,250.5590057373047 -200.6490020751953,252.34800720214844 -193.67300415039062,252.64700317382812 C-187.7830047607422,252.89999389648438 -166.18600463867188,254.36599731445312 -164.5,249.2429962158203 C-164.62399291992188,230.468994140625 -175.9429931640625,214.39599609375 -196.3459930419922,217.96200561523438 C-202.15899658203125,214.05799865722656 -196.9149932861328,168.11000061035156 -193.01400756835938,160.23500061035156 C-188.5229949951172,151.17100524902344 -157.71299743652344,143.41200256347656 -146.75399780273438,137.81199645996094 C-122.41100311279297,125.37300109863281 -109.03199768066406,107.94200134277344 -81.01899719238281,100.52400207519531 C-49.757999420166016,92.24500274658203 -17.395000457763672,91.72599792480469 14.496000289916992,88.96299743652344 C22.726999282836914,88.25 43.00600051879883,82.95800018310547 48.965999603271484,83.71299743652344 C58.08599853515625,84.86799621582031 56.874000549316406,117.99500274658203 57.970001220703125,126.31700134277344 C61.856998443603516,155.80999755859375 62.941001892089844,210.34300231933594 75.34600067138672,234.16099548339844 C78.04100036621094,239.33299255371094 83.05699920654297,242.76600646972656 84.21199798583984,248.5229949951172 C84.21199798583984,248.5229949951172 152.90499877929688,248.5229949951172 152.90499877929688,248.5229949951172 C152.55599975585938,236.46499633789062 146.06300354003906,224.21299743652344 134.73399353027344,219.2259979248047 C130.54200744628906,217.37899780273438 119.70899963378906,216.5240020751953 116.99700164794922,213.73599243164062 C110.12200164794922,206.67100524902344 111.74199676513672,165.45799255371094 112.75199890136719,154.86700439453125 C116.41000366210938,116.49800109863281 129.08200073242188,75.03600311279297 140.80599975585938,38.494998931884766 C151.96200561523438,43.45399856567383 137.38499450683594,71.22100067138672 140.79299926757812,74.83300018310547 C166.54200744628906,66.77200317382812 187.32699584960938,40.130001068115234 193.33999633789062,14.258999824523926 C198.43699645996094,13.105999946594238 197.5959930419922,16.200000762939453 198.70899963378906,19.884000778198242 C201.52099609375,29.183000564575195 201.71600341796875,38.95399856567383 201.41400146484375,48.58700180053711 C228.2949981689453,24.52199935913086 237.70199584960938,-20.128000259399414 228.76699829101562,-54.507999420166016 C225.27099609375,-67.95899963378906 215.99600219726562,-78.06700134277344 211.51400756835938,-90.76200103759766 C225.6529998779297,-84.12999725341797 232.55299377441406,-69.25 242.82200622558594,-58.459999084472656z M39.77399826049805,-177.60400390625 C39.77399826049805,-177.60400390625 41.80699920654297,-193.75900268554688 41.80699920654297,-193.75900268554688 C41.80699920654297,-193.75900268554688 55.92300033569336,-186.66700744628906 55.92300033569336,-186.66700744628906 C56.94200134277344,-182.41400146484375 43.79600143432617,-175.8730010986328 39.77399826049805,-177.60400390625z"></path></g></g></g></svg>