<svg xmlns="http://www.w3.org/2000/svg" xmlns:xlink="http://www.w3.org/1999/xlink" viewBox="0 0 512 512" width="512" height="512" style="width: 100%; height: 100%; transform: translate3d(0,0,0);" preserveAspectRatio="xMidYMid meet"><defs><clipPath id="__lottie_element_52563"><rect width="512" height="512" x="0" y="0"></rect></clipPath></defs><g clip-path="url(#__lottie_element_52563)"><g style="display: block;" transform="matrix(1.0399999618530273,0,0,1.0399999618530273,-1699.2205810546875,-1319.3936767578125)" opacity="1"><g opacity="1" transform="matrix(1,0,0,1,0,0)"><g opacity="1" transform="matrix(1,0,0,1,1878.259033203125,1509.5899658203125)"><path fill="rgb(0,0,0)" fill-opacity="1" d=" M106.66899871826172,3.803999900817871 C109.4209976196289,68.35199737548828 53.08399963378906,116.1709976196289 -11.010000228881836,109.88800048828125 C-66.64600372314453,104.3010025024414 -109.4209976196289,55.09000015258789 -103.44999694824219,-6.4770002365112305 C-98.41400146484375,-66.27400207519531 -36.06700134277344,-116.1709976196289 26.024999618530273,-98.6259994506836 C70.58300018310547,-86.93399810791016 109.3550033569336,-44.707000732421875 106.66899871826172,3.611999988555908 C106.66899871826172,3.611999988555908 106.66899871826172,3.803999900817871 106.66899871826172,3.803999900817871z M35.7859992980957,49.1870002746582 C33.222999572753906,46.821998596191406 28.54800033569336,46.62300109863281 24.989999771118164,46.611000061035156 C9.020999908447266,46.80699920654297 -7.531000137329102,46.02199935913086 -23.91200065612793,47.34199905395508 C-34.10100173950195,48.71099853515625 -31.589000701904297,57.70100021362305 -24.573999404907227,62.279998779296875 C-22.482999801635742,63.678001403808594 -20.075000762939453,64.66799926757812 -17.4950008392334,65.37699890136719 C-10.345000267028809,67.26399993896484 -2.7039999961853027,67.31099700927734 4.677999973297119,67.44999694824219 C13.522000312805176,67.4990005493164 22.507999420166016,67.76899719238281 29.841999053955078,62.93000030517578 C33.96200180053711,60.303001403808594 39.9739990234375,53.97800064086914 35.88399887084961,49.28200149536133 C35.88399887084961,49.28200149536133 35.7859992980957,49.1870002746582 35.7859992980957,49.1870002746582z M25.475000381469727,-26.66900062561035 C23.038000106811523,-19.43400001525879 34.125999450683594,-11.723999977111816 39.880001068115234,-8.61400032043457 C49.941001892089844,-3.3970000743865967 60.520999908447266,-4.392000198364258 69.07599639892578,-11.449000358581543 C79.03299713134766,-19.707000732421875 79.09100341796875,-29.406999588012695 64.5270004272461,-32.03200149536133 C56.66899871826172,-33.63399887084961 28.993999481201172,-34.81999969482422 25.531999588012695,-26.798999786376953 C25.531999588012695,-26.798999786376953 25.475000381469727,-26.66900062561035 25.475000381469727,-26.66900062561035z M14.199999809265137,8.428000450134277 C14.317999839782715,3.239000082015991 14.175999641418457,-2.117000102996826 13.8100004196167,-7.216000080108643 C13.51099967956543,-11.218000411987305 12.711999893188477,-15.70199966430664 10.343999862670898,-18.569000244140625 C8.569000244140625,-20.80900001525879 5.869999885559082,-22.1299991607666 3.194999933242798,-21.849000930786133 C-9.46500015258789,-20.270000457763672 -8.355999946594238,7.824999809265137 -7.388999938964844,17.4060001373291 C-6.761000156402588,22.687999725341797 -5.181000232696533,28.61199951171875 -0.8679999709129333,31.976999282836914 C2.194999933242798,34.40599822998047 6.374000072479248,34.678001403808594 9.105999946594238,31.774999618530273 C13.946000099182129,26.10099983215332 13.696999549865723,15.932999610900879 14.194999694824219,8.638999938964844 C14.194999694824219,8.638999938964844 14.199999809265137,8.428000450134277 14.199999809265137,8.428000450134277z M-23.3799991607666,-23.3439998626709 C-25.909000396728516,-35.137001037597656 -49.233001708984375,-33.926998138427734 -58.47800064086914,-32.255001068115234 C-69.08100128173828,-30.56800079345703 -74.91200256347656,-23.283000946044922 -66.04499816894531,-14.560999870300293 C-57.597999572753906,-6.209000110626221 -43.99399948120117,-3.381999969482422 -33.53099822998047,-9.480999946594238 C-28.645000457763672,-12.255000114440918 -22.826000213623047,-17.10099983215332 -23.358999252319336,-23.18199920654297 C-23.358999252319336,-23.18199920654297 -23.3799991607666,-23.3439998626709 -23.3799991607666,-23.3439998626709z"></path></g><g opacity="1" transform="matrix(1,0,0,1,2019.3990478515625,1658.4429931640625)"><path fill="rgb(0,0,0)" fill-opacity="1" d=" M-33.28099822998047,85.04299926757812 C-38.20899963378906,84.08599853515625 -40.96699905395508,72.51100158691406 -43.42300033569336,68.1780014038086 C-47.62699890136719,58.7869987487793 -51.862998962402344,49.35900115966797 -56.176998138427734,39.994998931884766 C-63.862998962402344,23.222999572753906 -72.12300109863281,6.690000057220459 -80.24400329589844,-9.904000282287598 C-82.83000183105469,-15.508999824523926 -86.69000244140625,-21.88800048828125 -84.84500122070312,-28.1560001373291 C-83.31999969482422,-33.125999450683594 -78.36000061035156,-36.422000885009766 -74.2040023803711,-39.35200119018555 C-61.763999938964844,-47.755001068115234 -50.375999450683594,-57.0359992980957 -40.96500015258789,-68.73799896240234 C-37.9109992980957,-72.44200134277344 -35.03300094604492,-76.81900024414062 -31.469999313354492,-79.9530029296875 C-25.56999969482422,-85.44499969482422 -17.766000747680664,-82.47000122070312 -11.265999794006348,-79.56700134277344 C-6.065999984741211,-77.3010025024414 -0.9900000095367432,-74.95600128173828 4.164000034332275,-72.62699890136719 C26.672000885009766,-62.244998931884766 49.5,-52.597999572753906 72.23300170898438,-42.77299880981445 C76.41899871826172,-40.7869987487793 82.25800323486328,-38.76300048828125 84.49400329589844,-34.86399841308594 C86.69100189208984,-30.44700050354004 82.5469970703125,-25.979999542236328 79.61299896240234,-22.73900032043457 C76.50700378417969,-19.395999908447266 73.41999816894531,-16.079999923706055 70.31900024414062,-12.746999740600586 C61.70199966430664,-3.0179998874664307 54.779998779296875,2.002000093460083 41.520999908447266,0.6940000057220459 C32.2760009765625,0.01899999938905239 23.156999588012695,-1.069000005722046 13.895000457763672,-1.8899999856948853 C9.661999702453613,-2.1689999103546143 4.882999897003174,-2.6730000972747803 1.0089999437332153,-0.8199999928474426 C-4.739999771118164,2.0269999504089355 -4.2179999351501465,9.472000122070312 -3.7839999198913574,14.980999946594238 C-3.1549999713897705,21.740999221801758 -2.313999891281128,28.226999282836914 -1.7139999866485596,34.874000549316406 C0.09799999743700027,51.06700134277344 -3.0889999866485596,58.43199920654297 -14.901000022888184,69.54100036621094 C-17.864999771118164,72.49500274658203 -20.683000564575195,75.50199890136719 -23.493999481201172,78.62899780273438 C-26.076000213623047,81.36900329589844 -29.250999450683594,85.44599914550781 -33.16600036621094,85.06300354003906 C-33.16600036621094,85.06300354003906 -33.28099822998047,85.04299926757812 -33.28099822998047,85.04299926757812z"></path></g><g opacity="1" transform="matrix(1,0,0,1,1738.9300537109375,1653.4599609375)"><path fill="rgb(0,0,0)" fill-opacity="1" d=" M0.21699999272823334,3.802999973297119 C-4.828000068664551,-0.40799999237060547 -12.96500015258789,2.055000066757202 -19.174999237060547,1.7740000486373901 C-31.784000396728516,1.843000054359436 -45.65800094604492,2.503000020980835 -56.98099899291992,-3.5460000038146973 C-63.106998443603516,-6.824999809265137 -68.07099914550781,-11.786999702453613 -72.93199920654297,-16.66900062561035 C-79.9020004272461,-23.44300079345703 -87.7509994506836,-30.937000274658203 -75.7300033569336,-37.21099853515625 C-47.268001556396484,-50.57600021362305 -18.152000427246094,-62.74800109863281 10.607000350952148,-75.56400299072266 C38.999000549316406,-88.5999984741211 26.843000411987305,-61.75699996948242 71.65499877929688,-33.63199996948242 C77.75299835205078,-29.322999954223633 87.75199890136719,-25.351999282836914 86.82099914550781,-16.52400016784668 C86.56999969482422,-13.95300006866455 85.62200164794922,-11.440999984741211 84.56500244140625,-8.991999626159668 C71.31999969482422,20.18899917602539 56.58100128173828,49.34299850463867 41.874000549316406,79.38099670410156 C40.34299850463867,82.52899932861328 37.85100173950195,86.59700012207031 34.750999450683594,87.36499786376953 C28.645999908447266,88.5999984741211 23.06800079345703,80.75399780273438 18.812000274658203,77.12699890136719 C12.739999771118164,71.03800201416016 5.49399995803833,65.02999877929688 2.627000093460083,57.13999938964844 C0.09200000017881393,50.1870002746582 0.9229999780654907,42.5890007019043 1.4290000200271606,35.3489990234375 C1.9889999628067017,28.023000717163086 2.4820001125335693,21.238000869750977 2.867000102996826,14.14900016784668 C3.0269999504089355,10.663999557495117 2.9159998893737793,6.427000045776367 0.3240000009536743,3.9059998989105225 C0.3240000009536743,3.9059998989105225 0.21699999272823334,3.802999973297119 0.21699999272823334,3.802999973297119z"></path></g><g opacity="1" transform="matrix(1,0,0,1,2017.864013671875,1377.6739501953125)"><path fill="rgb(0,0,0)" fill-opacity="1" d=" M87.86000061035156,36.551998138427734 C87.29900360107422,39.5260009765625 82.85099792480469,41.46900177001953 79.79499816894531,42.676998138427734 C51.23699951171875,53.83300018310547 25.003000259399414,65.61599731445312 -0.5519999861717224,78.33699798583984 C-7.855000019073486,81.92400360107422 -17.47800064086914,87.8270034790039 -24.214000701904297,80.2030029296875 C-25.898000717163086,78.46299743652344 -27.30900001525879,76.47899627685547 -28.684999465942383,74.47799682617188 C-36.814998626708984,61.89799880981445 -46.20899963378906,50.27799987792969 -57.98699951171875,40.92900085449219 C-65.7229995727539,34.37200164794922 -74.95700073242188,29.702999114990234 -82.98500061035156,23.621999740600586 C-88.43499755859375,19.222999572753906 -87.10800170898438,13.097000122070312 -83.96600341796875,7.71999979019165 C-67.98799896240234,-20.740999221801758 -51.64400100708008,-48.94300079345703 -39.513999938964844,-79.2770004272461 C-34.689998626708984,-87.82599639892578 -27.410999298095703,-82.54199981689453 -21.899999618530273,-77.2969970703125 C-18.309999465942383,-73.9800033569336 -14.54800033569336,-70.63700103759766 -10.864999771118164,-67.41100311279297 C0.8640000224113464,-57.680999755859375 -0.24400000274181366,-52.551998138427734 -0.2619999945163727,-38.49399948120117 C-0.3619999885559082,-30.650999069213867 -0.7279999852180481,-22.959999084472656 -1.7050000429153442,-15.197999954223633 C-2.2880001068115234,-9.857999801635742 -3.6410000324249268,-3.815999984741211 -2.1089999675750732,-0.26100000739097595 C-0.25999999046325684,4.315999984741211 5.446000099182129,4.2789998054504395 9.741999626159668,4.256999969482422 C20.395000457763672,4.09499979019165 31.047000885009766,3.7309999465942383 41.722999572753906,3.615000009536743 C46.95399856567383,3.609999895095825 52.32099914550781,3.990000009536743 57.17900085449219,6.010000228881836 C64.72000122070312,9.123000144958496 70.1500015258789,15.409000396728516 75.93699645996094,20.9060001373291 C79.35900115966797,24.844999313354492 88.43499755859375,31.174999237060547 87.88200378417969,36.433998107910156 C87.88200378417969,36.433998107910156 87.86000061035156,36.551998138427734 87.86000061035156,36.551998138427734z"></path></g><g opacity="1" transform="matrix(1,0,0,1,1737.5460205078125,1378.488037109375)"><path fill="rgb(0,0,0)" fill-opacity="1" d=" M36.500999450683594,-85.45099639892578 C39.417999267578125,-84.95999908447266 41.64500045776367,-80.99099731445312 43.05400085449219,-78.09400177001953 C57.55699920654297,-47.60599899291992 71.91999816894531,-18.94300079345703 85.4520034790039,10.425999641418457 C88.04299926757812,16.645999908447266 85.33699798583984,22.29599952697754 80.2770004272461,26.288000106811523 C76.70600128173828,29.29400062561035 73.00499725341797,32.176998138427734 69.36299896240234,35.0880012512207 C59.7869987487793,42.4900016784668 50.11199951171875,50.5369987487793 42.57400131225586,60.24300003051758 C37.814998626708984,65.88400268554688 34.237998962402344,72.4280014038086 29.27400016784668,77.9280014038086 C22.308000564575195,85.81999969482422 12.243000030517578,80.02100372314453 4.47599983215332,76.61100006103516 C-22.707000732421875,64.01000213623047 -49.7130012512207,50.500999450683594 -78.16100311279297,40.875 C-88.04299926757812,36.20100021362305 -79.52200317382812,27.948999404907227 -74.47799682617188,22.881999969482422 C-71.6780014038086,20.025999069213867 -68.78700256347656,17.233999252319336 -65.82099914550781,14.567999839782715 C-55.22200012207031,4.386000156402588 -45.388999938964844,2.125 -30.908000946044922,2.868000030517578 C-25.667999267578125,3.0199999809265137 -20.43000030517578,3.296999931335449 -15.196000099182129,3.5360000133514404 C-8.508000373840332,3.8510000705718994 0.8109999895095825,5.050000190734863 3.7130000591278076,-2.5309998989105225 C5.400000095367432,-6.943999767303467 4.839000225067139,-12.059000015258789 4.505000114440918,-16.70800018310547 C3.684000015258789,-25.0939998626709 2.5179998874664307,-33.672000885009766 1.5110000371932983,-42.35100173950195 C1.0390000343322754,-46.71799850463867 0.5809999704360962,-51.375 1.9470000267028809,-55.58399963378906 C4.0980000495910645,-62.43600082397461 10.659000396728516,-65.85299682617188 16.29199981689453,-70.39299774169922 C19.46299934387207,-72.91300201416016 22.43600082397461,-75.63800048828125 25.368000030517578,-78.44300079345703 C28.51799964904785,-81.24299621582031 31.969999313354492,-85.81999969482422 36.37799835205078,-85.47200012207031 C36.37799835205078,-85.47200012207031 36.500999450683594,-85.45099639892578 36.500999450683594,-85.45099639892578z"></path></g><g opacity="1" transform="matrix(1,0,0,1,2059.35595703125,1517.958984375)"><path fill="rgb(0,0,0)" fill-opacity="1" d=" M-50.268001556396484,-27.48699951171875 C-47.6879997253418,-31.25200080871582 -42.94599914550781,-33.49100112915039 -38.64099884033203,-35.117000579833984 C-14.642000198364258,-44.685001373291016 8.175999641418457,-51.777000427246094 30.582000732421875,-64.3030014038086 C48.97100067138672,-75.84700012207031 54.805999755859375,-71.58699798583984 54.65700149536133,-50.237998962402344 C55.29999923706055,-17.155000686645508 50.47100067138672,3.572999954223633 56.97999954223633,49.0629997253418 C57.0890007019043,55.98400115966797 59.19499969482422,65.15599822998047 55.486000061035156,71.11000061035156 C51.90399932861328,75.84700012207031 44.39799880981445,71.3740005493164 40.064998626708984,69.02100372314453 C13.991999626159668,54.98699951171875 -15.496999740600586,49.59199905395508 -42.59700012207031,37.84700012207031 C-59.19499969482422,31.427000045776367 -54.59000015258789,18.152000427246094 -54.117000579833984,3.4800000190734863 C-53.89400100708008,-0.29899999499320984 -53.707000732421875,-4.073999881744385 -53.58399963378906,-7.85099983215332 C-53.207000732421875,-14.890999794006348 -54.143001556396484,-21.781999588012695 -50.367000579833984,-27.3439998626709 C-50.367000579833984,-27.3439998626709 -50.268001556396484,-27.48699951171875 -50.268001556396484,-27.48699951171875z"></path></g><g opacity="1" transform="matrix(1,0,0,1,1700.6090087890625,1518.4229736328125)"><path fill="rgb(0,0,0)" fill-opacity="1" d=" M-51.28799819946289,69.87799835205078 C-54.0369987487793,68.0260009765625 -54.70199966430664,62.472999572753906 -54.707000732421875,58.720001220703125 C-54.97700119018555,37.90999984741211 -51.40599822998047,18.051000595092773 -51.57500076293945,-2.3320000171661377 C-51.6150016784668,-14.871999740600586 -52.82899856567383,-27.437000274658203 -54.36199951171875,-39.86600112915039 C-55.1349983215332,-48.06999969482422 -57.2239990234375,-56.95500183105469 -56.98899841308594,-64.99500274658203 C-56.64699935913086,-71.54000091552734 -52,-72.7229995727539 -46.27000045776367,-70.5469970703125 C-18.218000411987305,-57.88100051879883 9.998000144958496,-45.78200149536133 39.45600128173828,-35.24599838256836 C45.209999084472656,-33.194000244140625 50.731998443603516,-29.922000885009766 52.611000061035156,-23.854999542236328 C53.42599868774414,-21.479999542236328 53.79100036621094,-18.788000106811523 53.98500061035156,-16.20800018310547 C54.50699996948242,-8.220999717712402 54.87300109863281,-0.19699999690055847 55.31800079345703,7.8470001220703125 C55.7130012512207,16.711999893188477 57.2239990234375,28.01099967956543 48.45800018310547,33.404998779296875 C40.99700164794922,37.80400085449219 32.05500030517578,39.66299819946289 23.93600082397461,42.61000061035156 C3.8929998874664307,49.321998596191406 -16.42300033569336,55.71900177001953 -35.15700149536133,65.6510009765625 C-39.79999923706055,67.80899810791016 -46.404998779296875,72.7229995727539 -51.1870002746582,69.9489974975586 C-51.1870002746582,69.9489974975586 -51.28799819946289,69.87799835205078 -51.28799819946289,69.87799835205078z"></path></g><g opacity="1" transform="matrix(1,0,0,1,1882.7030029296875,1691.675048828125)"><path fill="rgb(0,0,0)" fill-opacity="1" d=" M60.880001068115234,54.41600036621094 C58.6609992980957,57.125999450683594 53.332000732421875,56.87799835205078 49.58300018310547,56.66699981689453 C41.44300079345703,56.15700149536133 33.435001373291016,55.58300018310547 25.378000259399414,55.18199920654297 C0.9049999713897705,53.520999908447266 -22.80500030517578,56.25899887084961 -47.7599983215332,56.66699981689453 C-50.41299819946289,56.694000244140625 -53.4370002746582,56.584999084472656 -55.73500061035156,55.9900016784668 C-61.694000244140625,54.65399932861328 -62.9379997253418,50.12300109863281 -61.52799987792969,44.72200012207031 C-51.84000015258789,17.23200035095215 -45.763999938964844,-11.255999565124512 -35.83399963378906,-39.07400131225586 C-29.739999771118164,-56.64099884033203 -15.531000137329102,-51.71500015258789 -0.4480000138282776,-52.395999908447266 C10.086000442504883,-51.9010009765625 23.246000289916992,-57.125 29.729999542236328,-46.617000579833984 C32.0989990234375,-42.90299987792969 33.59199905395508,-38.30699920654297 35.10300064086914,-34.106998443603516 C43.63999938964844,-8.5600004196167 51.79999923706055,16.69499969482422 60.645999908447266,43.74300003051758 C61.70399856567383,47.04499816894531 62.9379997253418,51.83000183105469 60.95399856567383,54.32099914550781 C60.95399856567383,54.32099914550781 60.880001068115234,54.41600036621094 60.880001068115234,54.41600036621094z"></path></g><g opacity="1" transform="matrix(1,0,0,1,1880.5660400390625,1335.510986328125)"><path fill="rgb(0,0,0)" fill-opacity="1" d=" M62.79899978637695,-48.94599914550781 C64.75599670410156,-45.58599853515625 62.95199966430664,-40.874000549316406 61.736000061035156,-37.3120002746582 C58.13999938964844,-27.29599952697754 54.604000091552734,-17.46299934387207 51.11800003051758,-7.760000228881836 C45.178001403808594,8.57699966430664 39.62699890136719,24.604999542236328 33.66899871826172,40.566001892089844 C32.33300018310547,43.797000885009766 30.44300079345703,46.91999816894531 27.704999923706055,48.98099899291992 C24.32699966430664,51.599998474121094 19.760000228881836,52.36000061035156 15.493000030517578,52.560001373291016 C7.375999927520752,52.904998779296875 -0.9629999995231628,52.81999969482422 -9.291999816894531,52.89799880981445 C-14.329999923706055,52.862998962402344 -19.652000427246094,53.13999938964844 -24.53499984741211,51.92100143432617 C-31.32900047302246,50.39099884033203 -35.00199890136719,44.43000030517578 -37.125999450683594,38.18000030517578 C-45.04399871826172,15.220999717712402 -52.53499984741211,-7.854000091552734 -60.224998474121094,-30.868999481201172 C-64.75700378417969,-43.4379997253418 -64.50599670410156,-53.14099884033203 -48.30400085449219,-52.28300094604492 C-35.86800003051758,-51.78799819946289 -23.815000534057617,-47.970001220703125 -11.472000122070312,-46.63800048828125 C-5.179999828338623,-45.97100067138672 1.1540000438690186,-45.880001068115234 7.468999862670898,-46.21500015258789 C16.659000396728516,-46.6619987487793 25.729000091552734,-48.21200180053711 34.84700012207031,-49.560001373291016 C39.80099868774414,-50.2760009765625 44.7760009765625,-50.9109992980957 49.494998931884766,-51.303001403808594 C53.81700134277344,-51.46099853515625 59.71900177001953,-52.737998962402344 62.73400115966797,-49.04399871826172 C62.73400115966797,-49.04399871826172 62.79899978637695,-48.94599914550781 62.79899978637695,-48.94599914550781z"></path></g></g></g></g></svg>