<svg xmlns="http://www.w3.org/2000/svg" xmlns:xlink="http://www.w3.org/1999/xlink" viewBox="0 0 512 512" width="512" height="512" style="width: 100%; height: 100%; transform: translate3d(0,0,0);" preserveAspectRatio="xMidYMid meet"><defs><clipPath id="__lottie_element_51565"><rect width="512" height="512" x="0" y="0"></rect></clipPath></defs><g clip-path="url(#__lottie_element_51565)"><g style="display: block;" transform="matrix(1,0,0,1,0,0)" opacity="1"><g opacity="1" transform="matrix(1,0,0,1,249.84500122070312,255.9320068359375)"><path fill="rgb(4,5,52)" fill-opacity="1" d=" M110.12999725341797,3.38700008392334 C110.12999725341797,9.317000389099121 10.170000076293945,98.26699829101562 1.4900000095367432,98.26699829101562 C-7.190000057220459,98.26699829101562 -111.80000305175781,6.7769999504089355 -110.11000061035156,-2.5329999923706055 C-108.41999816894531,-11.852999687194824 -7.519999980926514,-99.56300354003906 1.4900000095367432,-98.25299835205078 C13.140000343322754,-96.56300354003906 110.12999725341797,-2.5329999923706055 110.12999725341797,3.38700008392334z"></path></g><g opacity="1" transform="matrix(1,0,0,1,249.84500122070312,255.9320068359375)"><path fill="rgb(4,5,52)" fill-opacity="1" d=" M110.12999725341797,3.38700008392334 C110.12999725341797,9.317000389099121 10.170000076293945,98.26699829101562 1.4900000095367432,98.26699829101562 C-7.190000057220459,98.26699829101562 -111.80000305175781,6.7769999504089355 -110.11000061035156,-2.5329999923706055 C-108.41999816894531,-11.852999687194824 -7.519999980926514,-99.56300354003906 1.4900000095367432,-98.25299835205078 C13.140000343322754,-96.56300354003906 110.12999725341797,-2.5329999923706055 110.12999725341797,3.38700008392334z"></path></g><g opacity="1" transform="matrix(1,0,0,1,249.84500122070312,255.9320068359375)"><path fill="rgb(4,5,52)" fill-opacity="1" d=" M110.12999725341797,3.38700008392334 C110.12999725341797,9.317000389099121 10.170000076293945,98.26699829101562 1.4900000095367432,98.26699829101562 C-7.190000057220459,98.26699829101562 -111.80000305175781,6.7769999504089355 -110.11000061035156,-2.5329999923706055 C-108.41999816894531,-11.852999687194824 -7.519999980926514,-99.56300354003906 1.4900000095367432,-98.25299835205078 C13.140000343322754,-96.56300354003906 110.12999725341797,-2.5329999923706055 110.12999725341797,3.38700008392334z"></path></g><g opacity="1" transform="matrix(1,0,0,1,263.7309875488281,256.6080017089844)"><path fill="rgb(4,5,52)" fill-opacity="1" d=" M213.98399353027344,64.5510025024414 C213.13400268554688,17.961000442504883 211.44400024414062,-214.12899780273438 191.11399841308594,-227.6790008544922 C170.78399658203125,-241.23899841308594 -77.40599822998047,-250.5590057373047 -127.38600158691406,-237.8489990234375 C-137.76600646972656,-235.20899963378906 -205.3159942626953,-164.99899291992188 -211.24600219726562,-142.12899780273438 C-217.17599487304688,-119.25900268554688 -212.37600708007812,189.48199462890625 -207.8560028076172,206.86099243164062 C-196.8419952392578,249.20899963378906 -42.095001220703125,244.2259979248047 61.874000549316406,243.11099243164062 C98.78099822998047,242.71499633789062 133.19500732421875,240.6540069580078 140.32400512695312,238.2010040283203 C191.96200561523438,220.43299865722656 214.82400512695312,111.14099884033203 213.98399353027344,64.5510025024414z M14.074000358581543,120.46099853515625 C14.074000358581543,120.46099853515625 92.00399780273438,185.68099975585938 90.31400299072266,195.84100341796875 C88.61399841308594,206.01100158691406 58.9640007019043,217.02099609375 41.183998107910156,214.37100219726562 C23.393999099731445,211.7310028076172 -22.34600067138672,155.18099975585938 -22.34600067138672,155.18099975585938 C-22.34600067138672,155.18099975585938 -50.305999755859375,182.29100036621094 -77.40599822998047,206.01100158691406 C-104.51599884033203,229.7310028076172 -126.53600311279297,196.6909942626953 -116.3759994506836,184.83099365234375 C-106.20600128173828,172.9709930419922 -46.066001892089844,120.46099853515625 -46.066001892089844,120.46099853515625 C-162.95599365234375,19.660999298095703 -167.1959991455078,15.420999526977539 -164.656005859375,-4.908999919891357 C-162.11599731445312,-25.23900032043457 -38.44599914550781,-122.64900207519531 -38.44599914550781,-122.64900207519531 C-38.44599914550781,-122.64900207519531 -118.95600128173828,-188.0590057373047 -103.66600036621094,-206.50900268554688 C-79.10600280761719,-236.15899658203125 -3.7160000801086426,-156.5290069580078 -3.7160000801086426,-156.5290069580078 C-3.7160000801086426,-156.5290069580078 74.21399688720703,-221.75900268554688 84.38400268554688,-203.11900329589844 C94.54399871826172,-184.47900390625 18.31399917602539,-129.4290008544922 18.31399917602539,-129.4290008544922 C18.31399917602539,-129.4290008544922 137.74400329589844,-22.698999404907227 140.28399658203125,4.13100004196167 C142.82400512695312,30.961000442504883 14.074000358581543,120.46099853515625 14.074000358581543,120.46099853515625z"></path></g></g></g></svg>