<svg xmlns="http://www.w3.org/2000/svg" xmlns:xlink="http://www.w3.org/1999/xlink" viewBox="0 0 512 512" width="512" height="512" style="width: 100%; height: 100%; transform: translate3d(0,0,0);" preserveAspectRatio="xMidYMid meet"><defs><clipPath id="__lottie_element_52633"><rect width="512" height="512" x="0" y="0"></rect></clipPath></defs><g clip-path="url(#__lottie_element_52633)"><g style="display: block;" transform="matrix(1.9126900434494019,0,0,1.9126900434494019,-231.64865112304688,-293.6486511230469)" opacity="1"><g opacity="1" transform="matrix(1,0,0,1,284.8890075683594,234.3780059814453)"><path fill="rgb(61,48,59)" fill-opacity="1" d=" M46.948001861572266,17.974000930786133 C41.36000061035156,8.432000160217285 31.541000366210938,7.172999858856201 32.111000061035156,5.10699987411499 C32.74300003051758,2.812000036239624 45.387001037597656,2.4509999752044678 55.849998474121094,9.395999908447266 C56.41999816894531,9.77400016784668 59.41600036621094,11.8100004196167 62.51499938964844,14.842000007629395 C64.30000305175781,11.663000106811523 65.20500183105469,7.6519999504089355 67.97699737548828,4.73799991607666 C87.11100006103516,-15.378000259399414 64.0999984741211,-42.1870002746582 31.111000061035156,-59.37799835205078 C-1.878999948501587,-76.56900024414062 -41.888999938964844,-79.37699890136719 -53.48899841308594,-50.513999938964844 C-87.11100006103516,33.14699935913086 -62.65800094604492,30.322999954223633 -29.66900062561035,47.513999938964844 C-1.5779999494552612,62.152000427246094 18.965999603271484,79.37699890136719 50.42599868774414,34.32400131225586 C50.29100036621094,29.836999893188477 50.46900177001953,23.98699951171875 46.948001861572266,17.974000930786133z"></path></g><g opacity="1" transform="matrix(1,0,0,1,233.16000366210938,322.4320068359375)"><path fill="rgb(61,48,59)" fill-opacity="1" d=" M67.1989974975586,-13.901000022888184 C65.22899627685547,-23.499000549316406 70.35299682617188,-40.77000045776367 75.98500061035156,-48.06800079345703 C75.98500061035156,-48.06800079345703 -5.038000106811523,-89.06800079345703 -5.038000106811523,-89.06800079345703 C-10.503999710083008,-83.95800018310547 -20.14699935913086,-63.32500076293945 -30.41900062561035,-60.757999420166016 C-49.94300079345703,-55.87699890136719 -66.53800201416016,-63.68600082397461 -66.53800201416016,-63.68600082397461 C-87.6989974975586,-58.50299835205078 -73.94000244140625,35.48400115966797 -59.202999114990234,79.83999633789062 C-59.202999114990234,79.83999633789062 -18.957000732421875,9.059000015258789 -18.957000732421875,9.059000015258789 C-19.731000900268555,7.216000080108643 -20.15999984741211,5.191999912261963 -20.15999984741211,3.068000078201294 C-20.15999984741211,-5.492000102996826 -13.220000267028809,-12.432000160217285 -4.659999847412109,-12.432000160217285 C3.9010000228881836,-12.432000160217285 10.84000015258789,-5.492000102996826 10.84000015258789,3.068000078201294 C10.84000015258789,11.628999710083008 3.9010000228881836,18.56800079345703 -4.659999847412109,18.56800079345703 C-5.186999797821045,18.56800079345703 -5.708000183105469,18.540000915527344 -6.2220001220703125,18.488000869750977 C-6.2220001220703125,18.488000869750977 -42.23099899291992,89.06800079345703 -42.23099899291992,89.06800079345703 C-10.15999984741211,86.56800079345703 84.83999633789062,47.56800079345703 87.6989974975586,16.361000061035156 C87.6989974975586,16.361000061035156 70.2020034790039,0.734000027179718 67.1989974975586,-13.901000022888184z"></path></g></g></g></svg>