<svg xmlns="http://www.w3.org/2000/svg" xmlns:xlink="http://www.w3.org/1999/xlink" viewBox="0 0 512 512" width="512" height="512" style="width: 100%; height: 100%; transform: translate3d(0,0,0);" preserveAspectRatio="xMidYMid meet"><defs><clipPath id="__lottie_element_15716"><rect width="512" height="512" x="0" y="0"></rect></clipPath></defs><g clip-path="url(#__lottie_element_15716)"><g style="display: block;" transform="matrix(1,0,0,1,11.750015258789062,12.220993041992188)" opacity="1"><g opacity="1" transform="matrix(1,0,0,1,250.25,249.54100036621094)"><path fill="rgb(0,0,0)" fill-opacity="1" d=" M-66.55599975585938,-43.79999923706055 C-66.04900360107422,-62.13800048828125 -85,-90.76200103759766 -57.555999755859375,-144.2949981689453 C-36.64099884033203,-185.093994140625 -12.314000129699707,-189.71200561523438 6.940999984741211,-201.29200744628906 C31,-215.76199340820312 42,-249.29100036621094 60.9379997253418,-249.2899932861328 C71.00399780273438,-249.28900146484375 87.59600067138672,-208.7050018310547 33.93899917602539,-181.79299926757812 C-17.961000442504883,-155.76199340820312 -23,-98.76200103759766 -8.059000015258789,-99.2969970703125 C6.000999927520752,-99.80000305175781 12,-148.76199340820312 70.93699645996094,-172.79400634765625 C93.85099792480469,-182.13600158691406 96,-236.76199340820312 114.43499755859375,-235.7899932861328 C133.218994140625,-234.8000030517578 129.5449981689453,-181.27200317382812 135.9340057373047,-168.29400634765625 C153.35400390625,-132.9040069580078 169.99600219726562,-90.89600372314453 164.4320068359375,-66.29900360107422 C153,-15.76200008392334 128,3.23799991607666 117.43499755859375,12.697999954223633 C105.6240005493164,23.27199935913086 127,76.23799896240234 141.9340057373047,80.69400024414062 C250.08099365234375,112.96600341796875 214.73399353027344,203.18800354003906 207.92999267578125,209.68800354003906 C204.39199829101562,213.0679931640625 196.56900024414062,206.7740020751953 179.4320068359375,200.68800354003906 C129.1280059814453,182.8249969482422 101.65599822998047,206.47799682617188 81.93699645996094,191.68899536132812 C28,151.23800659179688 88,44.237998962402344 60.9379997253418,35.696998596191406 C48.13999938964844,31.656999588012695 33,139.23800659179688 0.9409999847412109,145.1909942626953 C-8.784000396728516,146.99600219726562 -29,177.23800659179688 -8.059000015258789,218.68699645996094 C-0.8889999985694885,232.87899780273438 -11.927000045776367,249.29100036621094 -28.058000564575195,234.18600463867188 C-73.71499633789062,191.4320068359375 -37.99399948120117,144.01499938964844 -41.05699920654297,136.1909942626953 C-52,108.23799896240234 -16.961000442504883,26.238000869750977 -26.558000564575195,21.69700050354004 C-40.22100067138672,15.232999801635742 -59,116.23799896240234 -99.55500030517578,127.19200134277344 C-111.60600280761719,130.44700622558594 -146.6699981689453,131.36000061035156 -170.05099487304688,119.69200134277344 C-191,109.23799896240234 -186.43899536132812,93.34700012207031 -204.5489959716797,86.69400024414062 C-221.69200134277344,80.39600372314453 -226.0279998779297,95.1050033569336 -237.54800415039062,82.19400024414062 C-250,68.23799896240234 -215.21200561523438,14.743000030517578 -165.05099487304688,3.197999954223633 C-134.697998046875,-3.7890000343322754 -115.03199768066406,0.17000000178813934 -90.55500030517578,-7.301000118255615 C-74.6989974975586,-12.142000198364258 -67,-27.761999130249023 -66.55599975585938,-43.79999923706055z"></path></g></g></g></svg>