<svg xmlns="http://www.w3.org/2000/svg" xmlns:xlink="http://www.w3.org/1999/xlink" viewBox="0 0 512 512" width="512" height="512" style="width: 100%; height: 100%; transform: translate3d(0,0,0);" preserveAspectRatio="xMidYMid meet"><defs><clipPath id="__lottie_element_51660"><rect width="512" height="512" x="0" y="0"></rect></clipPath></defs><g clip-path="url(#__lottie_element_51660)"><g style="display: block;" transform="matrix(1,0,0,1,256.9830017089844,251.97799682617188)" opacity="1"><g opacity="1" transform="matrix(1,0,0,1,0,0)"><path fill="rgb(0,0,0)" fill-opacity="1" d=" M-196.8,52.85 C-200.61,53.91 -210.32,53.64 -210.62,59.64 C-210.56,64.03 -206.17,63.44 -203.36,63.87 C-150.05,71.91 -2.71,144.19 17.22,194.15 C18.89,200.4 24.38,200.9 29,196.13 C58.8,151.4 -157.68,49.5 -196.8,52.85z M32.972999572753906,227.052001953125 C-52.16699981689453,221.42999267578125 -168.8070068359375,155.802001953125 -221.73699951171875,89.1969985961914 C-232.3419952392578,74.63999938964844 -240.94500732421875,59.321998596191406 -239.1219940185547,40.321998596191406 C-238.68099975585938,35.724998474121094 -240.7010040283203,31.97599983215332 -243.06300354003906,28.243999481201172 C-252.5540008544922,15.345000267028809 -256.0950012207031,-8.253999710083008 -235.88600158691406,-12.204999923706055 C-227.677001953125,-15.876999855041504 -218.08299255371094,-10.534000396728516 -210.67300415039062,-15.694999694824219 C-203.6280059814453,-21.60099983215332 -203.29100036621094,-23.767000198364258 -207.46200561523438,-30.413000106811523 C-299.63299560546875,-174.4409942626953 -74.42400360107422,-291.1369934082031 -88.22799682617188,-187.79100036621094 C-96.1719970703125,-162.65899658203125 -114.31800079345703,-146.8800048828125 -95.34100341796875,-120.69599914550781 C-90.56600189208984,-113.66999816894531 -89.52799987792969,-113.15599822998047 -82.16500091552734,-118.05599975585938 C-64.40799713134766,-129.875 -45.98699951171875,-140.3560028076172 -25.944000244140625,-147.84500122070312 C-6.328999996185303,-155.13900756835938 14.253000259399414,-159.593994140625 35.277000427246094,-158.46499633789062 C49.803001403808594,-157.32000732421875 50.840999603271484,-155.07200622558594 43.71799850463867,-142.05099487304688 C18.405000686645508,-95.77899932861328 -6.813000202178955,-49.45600128173828 -32.02899932861328,-3.13100004196167 C-38.09299850463867,6.5929999351501465 -39.939998626708984,22.04800033569336 -27.819000244140625,27.937999725341797 C-15.836000442504883,34.07600021362305 -5.166999816894531,22.02400016784668 -0.18799999356269836,12.263999938964844 C26.132999420166016,-35.698001861572266 52.178001403808594,-83.81600189208984 78.53900146484375,-131.7530059814453 C83.64800262451172,-140.8679962158203 85.68599700927734,-140.96299743652344 93.39800262451172,-133.5330047607422 C127.03500366210938,-99.16600036621094 130.81100463867188,-46.21099853515625 128.4669952392578,-0.5149999856948853 C127.66400146484375,9.85099983215332 129.18800354003906,10.685999870300293 139.59300231933594,11.220999717712402 C171.06100463867188,14.361000061035156 174.7270050048828,-12.685999870300293 193.39599609375,-30.08300018310547 C210.4250030517578,-45.69200134277344 230.46800231933594,-42.21699905395508 241.36199951171875,-21.94099998474121 C275.6960144042969,64.10099792480469 210.593994140625,157.7969970703125 116.57599639892578,153.74000549316406 C107.15299987792969,154.18299865722656 103.33499908447266,159.61300659179688 106.2959976196289,168.74099731445312 C112.86499786376953,180.71299743652344 117.822998046875,198.7209930419922 100.76000213623047,203.42300415039062 C87.12100219726562,207.68699645996094 74.76599884033203,213.73800659179688 62.76300048828125,221.33599853515625 C53.930999755859375,226.927001953125 43.39099884033203,227.5229949951172 32.972999572753906,227.052001953125z"></path><g opacity="1" transform="matrix(1,0,0,1,-89.40899658203125,126.0479965209961)"></g><g opacity="1" transform="matrix(1,0,0,1,0,0)"></g></g></g></g></svg>