<svg xmlns="http://www.w3.org/2000/svg" xmlns:xlink="http://www.w3.org/1999/xlink" viewBox="0 0 512 512" width="512" height="512" style="width: 100%; height: 100%; transform: translate3d(0,0,0);" preserveAspectRatio="xMidYMid meet"><defs><clipPath id="__lottie_element_53934"><rect width="512" height="512" x="0" y="0"></rect></clipPath></defs><g clip-path="url(#__lottie_element_53934)"><g style="display: block;" transform="matrix(1,0,0,1,256.2300109863281,254.718994140625)" opacity="1"><g opacity="1" transform="matrix(1,0,0,1,0,0)"><g opacity="1" transform="matrix(1,0,0,1,0,33.244998931884766)"><path fill="rgb(0,0,0)" fill-opacity="1" d=" M245.19400024414062,-38.50699996948242 C236.27499389648438,-88.41100311279297 213.6479949951172,-132.10299682617188 180.29800415039062,-169.79100036621094 C157.53199768066406,-195.4720001220703 129.6649932861328,-213.41299438476562 93.95500183105469,-217.0919952392578 C66.98999786376953,-219.8679962158203 43.77299880981445,-213.968994140625 24.68600082397461,-194.22300720214844 C20.833999633789062,-190.26699829101562 16.73900032043457,-186.48399353027344 13.0600004196167,-182.35400390625 C9.208000183105469,-178.08599853515625 5.426000118255615,-177.70399475097656 0.6019999980926514,-180.82699584960938 C-7.761000156402588,-186.24099731445312 -16.95800018310547,-189.85000610351562 -26.570999145507812,-192.41799926757812 C-62.90599822998047,-202.20399475097656 -94.55599975585938,-195.64500427246094 -120.0979995727539,-166.25100708007812 C-130.09300231933594,-154.76400756835938 -138.1790008544922,-142.23699951171875 -143.9739990234375,-128.28599548339844 C-146.9239959716797,-121.1719970703125 -151.26199340820312,-118.11799621582031 -159.07000732421875,-117.59700012207031 C-174.16600036621094,-116.52100372314453 -186.93699645996094,-109.58000183105469 -198.25,-99.69000244140625 C-214.56100463867188,-85.49600219726562 -224.52200317382812,-67.2760009765625 -232.08700561523438,-47.459999084472656 C-245.7259979248047,-11.71500015258789 -253.4980010986328,25.972999572753906 -247.2169952392578,63.27899932861328 C-225.87399291992188,189.8090057373047 -124.54000091552734,221.28500366210938 -84.63099670410156,217.43299865722656 C-75.12200164794922,216.531005859375 -56.277000427246094,212.26199340820312 -47.775001525878906,205.91099548339844 C-40.0359992980957,200.11500549316406 -36.946998596191406,194.04200744628906 -48.91999816894531,187.37899780273438 C-70.88700103759766,175.197998046875 -89.66200256347656,158.8179931640625 -105.41799926757812,139.17599487304688 C-108.99199676513672,134.69900512695312 -112.98300170898438,130.36099243164062 -114.85700225830078,124.04499816894531 C-109.79000091552734,124.14900207519531 -108.16000366210938,127.68900299072266 -105.80000305175781,130.01400756835938 C-98.12999725341797,137.4409942626953 -91.01599884033203,145.45799255371094 -83.06900024414062,152.57200622558594 C-59.99100112915039,173.2209930419922 -22.47599983215332,190.572998046875 16.18400001525879,194.63299560546875 C45.542999267578125,197.7209930419922 73.44499969482422,193.2790069580078 99.1259994506836,180.02200317382812 C169.43600463867188,143.7220001220703 162.94500732421875,49.8129997253418 158.052001953125,20.940000534057617 C157.46200561523438,17.469999313354492 154.13099670410156,11.881999969482422 159.47500610351562,10.87600040435791 C163.63999938964844,10.07800006866455 166.27699279785156,16.81100082397461 167.24899291992188,20.420000076293945 C180.50599670410156,62.13399887084961 168.7760009765625,95.72699737548828 167.6999969482422,103.11900329589844 C166.52000427246094,111.37799835205078 168.2899932861328,113.11299896240234 176.72300720214844,111.552001953125 C190.70899963378906,108.91500091552734 231.13900756835938,95.55400085449219 244.36099243164062,40.236000061035156 C252.06500244140625,14 249.843994140625,-12.34000015258789 245.19400024414062,-38.50699996948242z M29.170000076293945,-112.45999908447266 C47.5099983215332,-112.45999908447266 62.37799835205078,-100.43199920654297 62.37799835205078,-85.59400177001953 C62.37799835205078,-70.75599670410156 47.5099983215332,-58.72700119018555 29.170000076293945,-58.72700119018555 C10.829999923706055,-58.72700119018555 -4.0370001792907715,-70.75599670410156 -4.0370001792907715,-85.59400177001953 C-4.0370001792907715,-100.43199920654297 10.829999923706055,-112.45999908447266 29.170000076293945,-112.45999908447266z M-98.83399963378906,-49.33700180053711 C-83.9990005493164,-49.33700180053711 -71.9729995727539,-34.46900177001953 -71.9729995727539,-16.128999710083008 C-71.9729995727539,2.2109999656677246 -83.9990005493164,17.077999114990234 -98.83399963378906,17.077999114990234 C-113.66899871826172,17.077999114990234 -125.69499969482422,2.2109999656677246 -125.69499969482422,-16.128999710083008 C-125.69499969482422,-34.46900177001953 -113.66899871826172,-49.33700180053711 -98.83399963378906,-49.33700180053711z M97.94599914550781,68.65799713134766 C93.2959976196289,74.1760025024414 87.84700012207031,78.65299987792969 81.87799835205078,82.60900115966797 C77.60900115966797,85.41999816894531 74.58999633789062,84.552001953125 72.30000305175781,80.04100036621094 C69.76699829101562,75.11299896240234 67.44100189208984,70.0469970703125 64.38700103759766,65.43099975585938 C59.180999755859375,57.51900100708008 53.62900161743164,55.67900085449219 45.12699890136719,59.808998107910156 C35.895999908447266,64.31999969482422 26.941999435424805,69.48999786376953 18.266000747680664,74.93900299072266 C10.977999687194824,79.5199966430664 9.555000305175781,85.38500213623047 13.338000297546387,93.4020004272461 C15.52400016784668,98.01799774169922 18.507999420166016,102.2509994506836 21.25,106.58899688720703 C27.60099983215332,116.61799621582031 27.60099983215332,120.08799743652344 15.52400016784668,122.62200164794922 C3.308000087738037,125.19000244140625 -9.114999771118164,122.10199737548828 -21.226999282836914,119.25599670410156 C-50.27399826049805,112.4540023803711 -81.95800018310547,88.09200286865234 -91.60600280761719,74.21099853515625 C-99.5530014038086,62.827999114990234 -98.96299743652344,59.808998107910156 -87.6500015258789,52.3129997253418 C-78.41899871826172,46.16999816894531 -69.1520004272461,40.09700012207031 -59.7130012512207,34.37099838256836 C-50.23899841308594,28.610000610351562 -48.46900177001953,29.235000610351562 -43.125,38.70899963378906 C-41.94499969482422,40.79100036621094 -40.86899948120117,42.90800094604492 -39.51599884033203,44.85100173950195 C-34.5880012512207,51.861000061035156 -32.47100067138672,52.3120002746582 -24.801000595092773,48.14799880981445 C-24.10700035095215,47.76599884033203 -23.447999954223633,47.314998626708984 -22.753999710083008,46.89899826049805 C-7.830999851226807,38.15399932861328 -7.691999912261963,37.667999267578125 -14.979999542236328,21.98200035095215 C-19.040000915527344,13.375 -18.902000427246094,12.612000465393066 -11.510000228881836,7.440999984741211 C-7.623000144958496,4.698999881744385 -3.6670000553131104,2.062000036239624 0.3930000066757202,-0.4020000100135803 C10.387999534606934,-6.474999904632568 13.47700023651123,-5.7820000648498535 19.65399932861328,3.8310000896453857 C21.597000122070312,6.815000057220459 23.472000122070312,9.869999885559082 25.450000762939453,12.819999694824219 C28.364999771118164,17.12299919128418 32.21699905395508,18.025999069213867 36.72800064086914,15.491999626159668 C39.15700149536133,14.138999938964844 41.448001861572266,12.611000061035156 43.73899841308594,11.015000343322754 C54.70500183105469,3.380000114440918 55.15599822998047,1.6449999809265137 49.43000030517578,-10.258000373840332 C48.21500015258789,-12.756999969482422 46.895999908447266,-15.220999717712402 45.88999938964844,-17.788999557495117 C43.87699890136719,-22.820999145507812 44.81399917602539,-27.020999908447266 49.63800048828125,-30.108999252319336 C63.31100082397461,-38.81999969482422 76.81199645996094,-47.80799865722656 90.69300079345703,-56.17100143432617 C98.05000305175781,-60.612998962402344 100.40899658203125,-59.814998626708984 104.43499755859375,-51.34700012207031 C113.31900024414062,-32.53799819946289 117.86499786376953,-12.826000213623047 118.00399780273438,8.378000259399414 C118.10800170898438,30.934999465942383 112.6259994506836,51.132999420166016 97.94599914550781,68.65799713134766z"></path></g></g><g opacity="1" transform="matrix(1,0,0,1,-111.0989990234375,-194.718994140625)"><path fill="rgb(0,0,0)" fill-opacity="1" d=" M-49.130001068115234,9.373000144958496 C-49.50600051879883,2.6589999198913574 -47.242000579833984,-3.561000108718872 -42.66400146484375,-8.821000099182129 C-32.04899978637695,-21.018999099731445 -21.402000427246094,-33.19300079345703 -10.555000305175781,-45.183998107910156 C-0.7760000228881836,-55.994998931884766 11.255999565124512,-58.749000549316406 24.992000579833984,-54.08399963378906 C29.4689998626709,-52.56399917602539 33.994998931884766,-51.08399963378906 38.26300048828125,-49.08399963378906 C42.43899917602539,-47.12699890136719 45.132999420166016,-43.667999267578125 44.928001403808594,-38.777000427246094 C44.70500183105469,-33.44900131225586 41.64400100708008,-30.03499984741211 36.77299880981445,-28.26099967956543 C34.9370002746582,-27.591999053955078 32.91699981689453,-27.444000244140625 31.020000457763672,-26.917999267578125 C26.559999465942383,-25.68199920654297 26.341999053955078,-23.038999557495117 29.160999298095703,-20.00200080871582 C33.18600082397461,-15.666000366210938 44.500999450683594,-5.209000110626221 48.19599914550781,2.438999891281128 C50.090999603271484,6.361000061035156 49.42900085449219,9.324000358581543 45.05799865722656,10.822999954223633 C13.027999877929688,16.28499984741211 -10.677000045776367,34.590999603271484 -28.417999267578125,52.082000732421875 C-30.333999633789062,53.97100067138672 -31.816999435424805,56.981998443603516 -35.08399963378906,56.11000061035156 C-38.845001220703125,55.10599899291992 -39.12300109863281,51.51900100708008 -39.323001861572266,48.428001403808594 C-39.917999267578125,39.2239990234375 -50.11000061035156,21.082000732421875 -49.130001068115234,9.373000144958496z"></path></g></g></g></svg>