<svg xmlns="http://www.w3.org/2000/svg" xmlns:xlink="http://www.w3.org/1999/xlink" viewBox="0 0 512 512" width="512" height="512" style="width: 100%; height: 100%; transform: translate3d(0,0,0);" preserveAspectRatio="xMidYMid meet"><defs><clipPath id="__lottie_element_15791"><rect width="512" height="512" x="0" y="0"></rect></clipPath></defs><g clip-path="url(#__lottie_element_15791)"><g style="display: block;" transform="matrix(1.0199999809265137,0,0,1.0199999809265137,9.136093139648438,5.116424560546875)" opacity="1"><g opacity="1" transform="matrix(1,0,0,1,236.69500732421875,238.67999267578125)"><path fill="rgb(0,0,0)" fill-opacity="1" d=" M162.94500732421875,18.18000030517578 C165.16600036621094,6.71999979019165 195.85499572753906,-6.050000190734863 218.44500732421875,-41.810001373291016 C236.44500732421875,-70.30999755859375 236.44500732421875,-136.30999755859375 219.94500732421875,-158.80999755859375 C204.5749969482422,-179.75999450683594 146.9949951171875,-187.75999450683594 117.94499969482422,-181.30999755859375 C50.45500183105469,-166.30999755859375 42.95399856567383,-128.80999755859375 24.95400047302246,-133.30999755859375 C11.854000091552734,-136.5800018310547 26.454999923706055,-179.80999755859375 -29.04400062561035,-214.3000030517578 C-67.85399627685547,-238.42999267578125 -147.8249969482422,-217.6999969482422 -165.53500366210938,-206.8000030517578 C-185.03500366210938,-194.80999755859375 -188.23500061035156,-135.7100067138672 -188.03500366210938,-131.80999755859375 C-185.03500366210938,-73.30999755859375 -147.53500366210938,-57.40999984741211 -147.53500366210938,-40.310001373291016 C-147.53500366210938,-19.809999465942383 -189.5449981689453,-13.420000076293945 -215.03500366210938,27.18000030517578 C-236.44500732421875,61.279998779296875 -231.36500549316406,130.17999267578125 -215.03500366210938,154.67999267578125 C-200.03500366210938,177.17999267578125 -143.0959930419922,192.8800048828125 -111.53500366210938,190.67999267578125 C-47.04499816894531,186.17999267578125 -38.494998931884766,148.2100067138672 -14.043999671936035,150.17999267578125 C3.3459999561309814,151.57000732421875 3.3450000286102295,193.67999267578125 72.9540023803711,222.1699981689453 C112.66500091552734,238.42999267578125 183.71600341796875,219.9499969482422 201.94500732421875,198.17999267578125 C214.44500732421875,183.25 225.80599975585938,131.58999633789062 218.44500732421875,100.68000030517578 C203.44500732421875,37.68000030517578 160.80599975585938,29.260000228881836 162.94500732421875,18.18000030517578z M76.8759994506836,20.389999389648438 C64.1760025024414,37.88999938964844 79.71600341796875,49.9109992980957 60.375999450683594,56.38999938964844 C37.875999450683594,63.91999816894531 42.25600051879883,35.529998779296875 28.875999450683594,36.88999938964844 C14.994999885559082,38.29999923706055 25.54599952697754,62.54999923706055 1.8760000467300415,63.88999938964844 C-17.624000549316406,64.98999786376953 -0.15399999916553497,46.45000076293945 -13.12399959564209,32.38999938964844 C-24.233999252319336,20.34000015258789 -52.124000549316406,29.93000030517578 -52.124000549316406,7.429999828338623 C-52.124000549316406,-26.110000610351562 -36.38399887084961,-13.109999656677246 -23.624000549316406,-29.110000610351562 C-8.583999633789062,-47.959999084472656 -28.90399932861328,-70.97000122070312 -5.624000072479248,-71.11000061035156 C18.375999450683594,-71.23999786376953 6.614999771118164,-48.970001220703125 22.875999450683594,-45.61000061035156 C39.805999755859375,-42.099998474121094 46.08599853515625,-69.62999725341797 61.875999450683594,-59.11000061035156 C79.8759994506836,-47.11000061035156 57.98500061035156,-32.54999923706055 69.3759994506836,-18.610000610351562 C79.51599884033203,-6.199999809265137 98.8759994506836,-14.100000381469727 98.8759994506836,1.3899999856948853 C98.8759994506836,23.889999389648438 87.96600341796875,5.099999904632568 76.8759994506836,20.389999389648438z"></path></g></g></g></svg>