<svg xmlns="http://www.w3.org/2000/svg" xmlns:xlink="http://www.w3.org/1999/xlink" viewBox="0 0 512 512" width="512" height="512" style="width: 100%; height: 100%; transform: translate3d(0,0,0);" preserveAspectRatio="xMidYMid meet"><defs><clipPath id="__lottie_element_53639"><rect width="512" height="512" x="0" y="0"></rect></clipPath></defs><g clip-path="url(#__lottie_element_53639)"><g style="display: block;" transform="matrix(1,0,0,1,-1168.1099853515625,-5.49700927734375)" opacity="1"><g opacity="1" transform="matrix(1,0,0,1,1424.1099853515625,153.83799743652344)"><path fill="rgb(0,0,0)" fill-opacity="1" d=" M225.6020050048828,-59.70800018310547 C225.6009979248047,-59.70899963378906 225.5989990234375,-59.709999084472656 225.5970001220703,-59.71099853515625 C215.33099365234375,-67.70099639892578 188.39999389648438,-80.4280014038086 151.37899780273438,-90.8489990234375 C119.04299926757812,-99.95800018310547 66.53500366210938,-110.81800079345703 0,-110.81800079345703 C-0.13099999725818634,-110.81800079345703 -0.2619999945163727,-110.81600189208984 -0.3919999897480011,-110.81199645996094 C-66.74400329589844,-110.77100372314453 -119.10700225830078,-99.93599700927734 -151.37600708007812,-90.84400177001953 C-188.4010009765625,-80.4219970703125 -215.33200073242188,-67.69499969482422 -225.6020050048828,-59.70199966430664 C-235.63499450683594,-51.88600158691406 -243.66900634765625,-43.9010009765625 -240.343994140625,-25.302000045776367 C-227.98399353027344,43.86899948120117 -171.73500061035156,104.33899688720703 -169.3470001220703,106.87999725341797 C-166.93299865722656,109.4469985961914 -163.61599731445312,110.81900024414062 -160.23699951171875,110.81800079345703 C-158.56399536132812,110.81800079345703 -156.87600708007812,110.48300170898438 -155.27499389648438,109.79000091552734 C-150.44000244140625,107.697998046875 -147.43600463867188,102.79900360107422 -147.76400756835938,97.54100036621094 C-150.343994140625,56.14500045776367 -147.19500732421875,20.944000244140625 -143.50399780273438,-1.7999999523162842 C-135.47900390625,5.579999923706055 -126.07099914550781,13.60200023651123 -118.86599731445312,17.882999420166016 C-115.76899719238281,19.724000930786133 -110.00599670410156,23.148000717163086 -102.73799896240234,21.16900062561035 C-95.6500015258789,19.239999771118164 -91.6729965209961,13.279999732971191 -89.3030014038086,8.973999977111816 C-84.93900299072266,1.059000015258789 -79.37799835205078,-14.890000343322754 -75.08000183105469,-28.253000259399414 C-65.0199966430664,-17.31999969482422 -52.34299850463867,-4.696000099182129 -43.79899978637695,-0.29600000381469727 C-32.99399948120117,5.263000011444092 -25.829999923706055,4.373000144958496 -18.246000289916992,-3.4769999980926514 C-18.246000289916992,-3.4769999980926514 -18.125,-3.6019999980926514 -18.125,-3.6019999980926514 C-12.053000450134277,-9.895000457763672 -5.434999942779541,-20.586000442504883 0.003000000026077032,-30.434999465942383 C5.445000171661377,-20.58099937438965 12.065999984741211,-9.885000228881836 18.132999420166016,-3.5989999771118164 C18.132999420166016,-3.5989999771118164 18.246999740600586,-3.4820001125335693 18.246999740600586,-3.4820001125335693 C25.83099937438965,4.368000030517578 32.99599838256836,5.256999969482422 43.801998138427734,-0.30399999022483826 C52.34299850463867,-4.702000141143799 65.0199966430664,-17.32699966430664 75.08000183105469,-28.259000778198242 C79.37699890136719,-14.897000312805176 84.93599700927734,1.0499999523162842 89.2969970703125,8.958000183105469 C91.6719970703125,13.27299976348877 95.64800262451172,19.233999252319336 102.73600006103516,21.163999557495117 C110.00199890136719,23.142000198364258 115.76799774169922,19.718000411987305 118.86599731445312,17.878000259399414 C126.07099914550781,13.595999717712402 135.47900390625,5.573999881744385 143.50399780273438,-1.8049999475479126 C147.1959991455078,20.94499969482422 150.343994140625,56.141998291015625 147.76400756835938,97.53600311279297 C147.43600463867188,102.79399871826172 150.44000244140625,107.69300079345703 155.27499389648438,109.78500366210938 C160.11300659179688,111.87999725341797 165.73899841308594,110.71399688720703 169.3470001220703,106.875 C171.73500061035156,104.33399963378906 227.98300170898438,43.862998962402344 240.343994140625,-25.30699920654297 C243.66900634765625,-43.90599822998047 235.63499450683594,-51.89099884033203 225.6020050048828,-59.70800018310547z"></path></g><g opacity="1" transform="matrix(1,0,0,1,1424.155029296875,396.39801025390625)"><path fill="rgb(0,0,0)" fill-opacity="1" d=" M160.78399658203125,-77.90299987792969 C157.89700317382812,-82.33000183105469 152.53799438476562,-84.45899963378906 147.39999389648438,-83.2300033569336 C142.25999450683594,-81.9990005493164 138.4510040283203,-77.66699981689453 137.88600158691406,-72.41300201416016 C134.46200561523438,-40.638999938964844 126.03199768066406,-9.619000434875488 120.63999938964844,7.947000026702881 C120.63999938964844,7.947000026702881 96.29199981689453,-6.4679999351501465 96.29199981689453,-6.4679999351501465 C87.42400360107422,-12.02400016784668 77.1709976196289,-10.125 70.98300170898438,-2.2260000705718994 C70.55799865722656,-1.6829999685287476 70.1780014038086,-1.1059999465942383 69.8489990234375,-0.5019999742507935 C69.8489990234375,-0.5019999742507935 56.349998474121094,22.416000366210938 56.349998474121094,22.416000366210938 C56.349998474121094,22.416000366210938 39.292999267578125,6.953000068664551 39.292999267578125,6.953000068664551 C38.45800018310547,6.14900016784668 37.444000244140625,5.581999778747559 36.492000579833984,4.921000003814697 C28.775999069213867,-0.4350000023841858 20.849000930786133,0.8370000123977661 14.178000450134277,7.7220001220703125 C13.505000114440918,8.416000366210938 12.831000328063965,9.109000205993652 12.286999702453613,9.909000396728516 C12.286999702453613,9.909000396728516 -0.03200000151991844,26.554000854492188 -0.03200000151991844,26.554000854492188 C-0.03200000151991844,26.554000854492188 -12.350000381469727,9.909000396728516 -12.350000381469727,9.909000396728516 C-12.894000053405762,9.109000205993652 -13.58899974822998,8.4350004196167 -14.241999626159668,7.7220001220703125 C-20.856000900268555,0.492000013589859 -27.753000259399414,-0.6380000114440918 -36.55500030517578,4.921999931335449 C-37.534000396728516,5.539999961853027 -38.52000045776367,6.14900016784668 -39.354000091552734,6.953000068664551 C-39.354000091552734,6.953000068664551 -56.41299819946289,22.416000366210938 -56.41299819946289,22.416000366210938 C-56.41299819946289,22.416000366210938 -69.91200256347656,-0.5019999742507935 -69.91200256347656,-0.5019999742507935 C-70.24099731445312,-1.1059999465942383 -70.62100219726562,-1.6829999685287476 -71.0459976196289,-2.2260000705718994 C-77.23400115966797,-10.12399959564209 -87.48699951171875,-12.027999877929688 -96.28299713134766,-6.51200008392334 C-96.28299713134766,-6.51200008392334 -120.75499725341797,7.979000091552734 -120.75499725341797,7.979000091552734 C-125.9749984741211,-8.961999893188477 -134.06900024414062,-38.926998138427734 -137.9600067138672,-72.51300048828125 C-138.56700134277344,-77.75499725341797 -142.40199279785156,-82.052001953125 -147.54200744628906,-83.2490005493164 C-152.68800354003906,-84.4469985961914 -158.02200317382812,-82.28500366210938 -160.8820037841797,-77.8499984741211 C-162.0449981689453,-76.0459976196289 -189.5070037841797,-33.069000244140625 -201.85299682617188,20.726999282836914 C-205.8459930419922,38.125999450683594 -193.6230010986328,44.71500015258789 -187.0570068359375,48.25400161743164 C-143.57200622558594,71.69200134277344 -80.64900207519531,83.57499694824219 -0.026000000536441803,83.57599639892578 C108.45700073242188,83.57499694824219 163.85699462890625,61.3650016784668 187.22500610351562,48.125999450683594 C193.82200622558594,44.38800048828125 206.1020050048828,37.43000030517578 201.71099853515625,20.400999069213867 C186.71299743652344,-37.74800109863281 161.83599853515625,-76.29100036621094 160.78399658203125,-77.90299987792969z"></path></g></g></g></svg>