<svg xmlns="http://www.w3.org/2000/svg" xmlns:xlink="http://www.w3.org/1999/xlink" viewBox="0 0 512 512" width="512" height="512" style="width: 100%; height: 100%; transform: translate3d(0,0,0);" preserveAspectRatio="xMidYMid meet"><defs><clipPath id="__lottie_element_52483"><rect width="512" height="512" x="0" y="0"></rect></clipPath></defs><g clip-path="url(#__lottie_element_52483)"><g style="display: block;" transform="matrix(1,0,0,1,261.572998046875,256.6960144042969)" opacity="1"><g opacity="1" transform="matrix(1,0,0,1,0,0)"><path fill="rgb(0,0,0)" fill-opacity="1" d=" M-72.86,-97.85 C-76.85,-83.25 -81.49,-47.42 -108.03,-50.07 C-136.05,-52.87 -130.6,-96.52 -123.96,-115.77 C-117.32,-135.01 -101.4,-151.6 -82.82,-145.63 C-64.24,-139.66 -68.88,-112.45 -72.86,-97.85z M182.83900451660156,125.78099822998047 C168.6820068359375,127.99299621582031 161.60400390625,136.3979949951172 158.5070037841797,154.093994140625 C155.41000366210938,171.7899932861328 147.447998046875,179.7519989013672 135.5030059814453,177.09800720214844 C119.31500244140625,173.50100708007812 118.69100189208984,155.86300659179688 120.46099853515625,127.55000305175781 C121.9219970703125,104.17400360107422 118.54900360107422,70.86299896240234 106.12799835205078,52.231998443603516 C141.64700317382812,41.263999938964844 189.93499755859375,14.184000015258789 176.82899475097656,-44.73899841308594 C176.20899963378906,-47.569000244140625 172.86900329589844,-48.808998107910156 170.5489959716797,-47.0890007019043 C158.18899536132812,-37.909000396728516 123.47899627685547,-13.89900016784668 85.95899963378906,-3.8389999866485596 C36.909000396728516,9.310999870300293 -17.430999755859375,4.761000156402588 -13.140999794006348,-13.128999710083008 C-10.491000175476074,-24.18899917602539 25.77899932861328,-10.979000091552734 76.21900177001953,-32.5989990234375 C135.31900024414062,-57.92900085449219 156.60899353027344,-81.40899658203125 162.8489990234375,-89.97899627685547 C164.2989959716797,-91.96900177001953 164.8090057373047,-94.48899841308594 164.22900390625,-96.88899993896484 C146.90899658203125,-167.7790069580078 110.80899810791016,-242.4290008544922 -1.4910000562667847,-243.468994140625 C-168.05099487304688,-245.00900268554688 -179.8209991455078,-100.77899932861328 -195.55099487304688,-21.868999481201172 C-201.36700439453125,7.2870001792907715 -170.947998046875,32.25299835205078 -139.2830047607422,46.04100036621094 C-139.4320068359375,63.6510009765625 -139.96499633789062,99.16300201416016 -141.87899780273438,127.55000305175781 C-144.5330047607422,166.92300415039062 -148.51499938964844,172.23199462890625 -155.1510009765625,172.23199462890625 C-163.5679931640625,172.23199462890625 -160.4600067138672,158.0749969482422 -163.99899291992188,144.36099243164062 C-167.53799438476562,130.64700317382812 -190.54299926757812,120.91400146484375 -205.14199829101562,135.0709991455078 C-219.74099731445312,149.22799682617188 -227.70399475097656,197.447998046875 -179.9250030517578,216.0290069580078 C-132.14599609375,234.61000061035156 -94.54199981689453,207.6230010986328 -87.46399688720703,168.25 C-82.57499694824219,141.052001953125 -81.6969985961914,90.85299682617188 -81.62100219726562,62.402000427246094 C-67.74299621582031,65.03199768066406 -55.680999755859375,66.44200134277344 -45.44499969482422,67.08399963378906 C-40.481998443603516,80.95800018310547 -34.875,104.77200317382812 -38.35900115966797,136.3979949951172 C-44.11000061035156,188.6009979248047 -53.400001525878906,244.78500366210938 -14.911999702453613,243.45799255371094 C23.576000213623047,242.13099670410156 16.055999755859375,204.0850067138672 18.26799964904785,181.0800018310547 C20.2450008392334,160.52499389648438 26.104000091552734,100.05999755859375 13.758000373840332,67.53399658203125 C22.947999954223633,67.59100341796875 34.4109992980957,67.00900268554688 48.13100051879883,65.15899658203125 C54.50899887084961,72.93699645996094 64.58000183105469,89.52300262451172 64.2770004272461,116.48999786376953 C63.834999084472656,155.86300659179688 51.89099884033203,231.0709991455078 124.0009994506836,237.70700073242188 C196.11099243164062,244.34300231933594 212.47999572753906,200.5449981689453 216.0189971923828,168.25 C219.55799865722656,135.9550018310547 196.99600219726562,123.56900024414062 182.83900451660156,125.78099822998047z"></path><g opacity="1" transform="matrix(1,0,0,1,-99.28299713134766,-98.39700317382812)"></g><g opacity="1" transform="matrix(1,0,0,1,0,0)"></g></g></g></g></svg>