<svg xmlns="http://www.w3.org/2000/svg" xmlns:xlink="http://www.w3.org/1999/xlink" viewBox="0 0 512 512" width="512" height="512" style="width: 100%; height: 100%; transform: translate3d(0,0,0);" preserveAspectRatio="xMidYMid meet"><defs><clipPath id="__lottie_element_53429"><rect width="512" height="512" x="0" y="0"></rect></clipPath></defs><g clip-path="url(#__lottie_element_53429)"><g style="display: block;" transform="matrix(1.0246574878692627,0.5220890641212463,-0.5220890641212463,1.0246574878692627,282,266)" opacity="1"><g opacity="1" transform="matrix(1,0,0,1,0,0)"><path fill="rgb(0,0,0)" fill-opacity="1" d=" M229.1230010986328,41.0629997253418 C231.14500427246094,30.836000442504883 224.18099975585938,14.17300033569336 216.49000549316406,0.8370000123977661 C206.20399475097656,-16.98900032043457 183.2239990234375,-57.44599914550781 136.25599670410156,-54.020999908447266 C83.82599639892578,-50.194000244140625 73.50499725341797,-14.246999740600586 65.95800018310547,-19.047000885009766 C57.334999084472656,-24.531999588012695 77.87799835205078,-67.30799865722656 22.530000686645508,-122.82599639892578 C-25.801000595092773,-171.30599975585938 -74.78199768066406,-158.46400451660156 -74.78199768066406,-160.0850067138672 C-74.78199768066406,-178.0760040283203 -89.36699676513672,-192.66099548339844 -107.35800170898438,-192.66099548339844 C-125.3489990234375,-192.66099548339844 -139.9340057373047,-178.0760040283203 -139.9340057373047,-160.0850067138672 C-139.9340057373047,-142.093994140625 -125.3489990234375,-127.50800323486328 -107.35800170898438,-127.50800323486328 C-98.36499786376953,-127.50800323486328 -90.2229995727539,-131.15199279785156 -84.3280029296875,-137.0449981689453 C-83.53600311279297,-136.2740020751953 -82.88600158691406,-135.8730010986328 -82.88600158691406,-135.8730010986328 C-35.834999084472656,-100.39700317382812 -58.138999938964844,-22.743999481201172 -69.8239974975586,-18.357999801635742 C-81.99299621582031,-13.789999961853027 -113.81900024414062,-56.88100051879883 -163.19400024414062,-48.301998138427734 C-212.56900024414062,-39.733001708984375 -232.74899291992188,6.359000205993652 -223.59800720214844,36.24700164794922 C-219.8560028076172,48.46699905395508 -215.6179962158203,53.74599838256836 -212.44700622558594,59.242000579833984 C-223.04400634765625,67.02799987792969 -227.84800720214844,81.0719985961914 -223.33999633789062,94.16100311279297 C-217.7899932861328,110.2750015258789 -200.2270050048828,118.83899688720703 -184.11300659179688,113.28900146484375 C-167.99899291992188,107.73899841308594 -159.43499755859375,90.177001953125 -164.98500061035156,74.06300354003906 C-168.97799682617188,62.470001220703125 -179.18699645996094,54.7859992980957 -190.6020050048828,53.45199966430664 C-189.01300048828125,50.1150016784668 -189.58900451660156,44.60300064086914 -185.7729949951172,41.194000244140625 C-176.24600219726562,32.683998107910156 -164.072998046875,31.992000579833984 -143.53700256347656,47.814998626708984 C-118.51799774169922,67.09200286865234 -102.39700317382812,95.24700164794922 -102.0510025024414,124.73500061035156 C-101.99400329589844,129.5590057373047 -101.80799865722656,131.36300659179688 -102.45899963378906,139.83799743652344 C-103.38500213623047,151.88600158691406 -88.99299621582031,155.6699981689453 -67.24800109863281,146.572998046875 C-52.01900100708008,140.20199584960938 -21.413000106811523,134.67599487304688 2.6579999923706055,135.0659942626953 C45.75299835205078,135.76499938964844 67.3290023803711,148.57400512695312 72.21700286865234,156.4409942626953 C75.9000015258789,162.3699951171875 42.334999084472656,172.1529998779297 0.6660000085830688,172.4499969482422 C-38.25,172.72799682617188 -62.180999755859375,162.44900512695312 -65.40499877929688,174.0590057373047 C-68.02400207519531,183.49000549316406 -37.55799865722656,193.60899353027344 1.5609999895095825,193.60899353027344 C117.22599792480469,193.60899353027344 107.70899963378906,149.1510009765625 107.10399627685547,123.24600219726562 C105.96399688720703,74.44599914550781 141.62399291992188,25.298999786376953 185.97000122070312,31.017000198364258 C196.9949951171875,32.43899917602539 203.29100036621094,38.202999114990234 208.26400756835938,43.02299880981445 C197.79200744628906,47.95800018310547 190.54299926757812,58.60499954223633 190.54299926757812,70.9489974975586 C190.54299926757812,87.99199676513672 204.35899353027344,101.80799865722656 221.40199279785156,101.80799865722656 C238.44500732421875,101.80799865722656 252.26199340820312,87.99199676513672 252.26199340820312,70.9489974975586 C252.26199340820312,56.571998596191406 242.42999267578125,44.49100112915039 229.1230010986328,41.0629997253418z"></path></g></g></g></svg>