<svg xmlns="http://www.w3.org/2000/svg" xmlns:xlink="http://www.w3.org/1999/xlink" viewBox="0 0 512 512" width="512" height="512" style="width: 100%; height: 100%; transform: translate3d(0,0,0);" preserveAspectRatio="xMidYMid meet"><defs><clipPath id="__lottie_element_51490"><rect width="512" height="512" x="0" y="0"></rect></clipPath></defs><g clip-path="url(#__lottie_element_51490)"><g style="display: block;" transform="matrix(1,0,0,1,0,0)" opacity="1"><g opacity="1" transform="matrix(1,0,0,1,416.3900146484375,416.7439880371094)"><path fill="rgb(0,0,0)" fill-opacity="1" d=" M28.070999145507812,-10.927000045776367 C28.070999145507812,-10.927000045776367 39.959999084472656,-4.423999786376953 39.959999084472656,-4.423999786376953 C43.457000732421875,-2.510999917984009 43.457000732421875,2.510999917984009 39.959999084472656,4.423999786376953 C39.959999084472656,4.423999786376953 28.070999145507812,10.927000045776367 28.070999145507812,10.927000045776367 C20.834999084472656,14.885000228881836 14.885000228881836,20.834999084472656 10.927000045776367,28.070999145507812 C10.927000045776367,28.070999145507812 4.423999786376953,39.959999084472656 4.423999786376953,39.959999084472656 C2.510999917984009,43.457000732421875 -2.510999917984009,43.457000732421875 -4.423999786376953,39.959999084472656 C-4.423999786376953,39.959999084472656 -10.927000045776367,28.070999145507812 -10.927000045776367,28.070999145507812 C-14.885000228881836,20.834999084472656 -20.834999084472656,14.885000228881836 -28.070999145507812,10.927000045776367 C-28.070999145507812,10.927000045776367 -39.959999084472656,4.423999786376953 -39.959999084472656,4.423999786376953 C-43.457000732421875,2.510999917984009 -43.457000732421875,-2.510999917984009 -39.959999084472656,-4.423999786376953 C-39.959999084472656,-4.423999786376953 -28.070999145507812,-10.927000045776367 -28.070999145507812,-10.927000045776367 C-20.834999084472656,-14.885000228881836 -14.885000228881836,-20.834999084472656 -10.927000045776367,-28.070999145507812 C-10.927000045776367,-28.070999145507812 -4.423999786376953,-39.959999084472656 -4.423999786376953,-39.959999084472656 C-2.510999917984009,-43.457000732421875 2.510999917984009,-43.457000732421875 4.423999786376953,-39.959999084472656 C4.423999786376953,-39.959999084472656 10.927000045776367,-28.070999145507812 10.927000045776367,-28.070999145507812 C14.885000228881836,-20.834999084472656 20.834999084472656,-14.885000228881836 28.070999145507812,-10.927000045776367z"></path></g><g opacity="1" transform="matrix(1,0,0,1,88.16200256347656,85.01300048828125)"><path fill="rgb(0,0,0)" fill-opacity="1" d=" M37.266998291015625,-17.040000915527344 C37.266998291015625,-17.040000915527344 67.69200134277344,-5.040999889373779 67.69200134277344,-5.040999889373779 C72.26599884033203,-3.236999988555908 72.26599884033203,3.236999988555908 67.69200134277344,5.040999889373779 C67.69200134277344,5.040999889373779 37.266998291015625,17.040000915527344 37.266998291015625,17.040000915527344 C28.013999938964844,20.68899917602539 20.68899917602539,28.013999938964844 17.040000915527344,37.266998291015625 C17.040000915527344,37.266998291015625 5.040999889373779,67.69200134277344 5.040999889373779,67.69200134277344 C3.236999988555908,72.26599884033203 -3.236999988555908,72.26599884033203 -5.040999889373779,67.69200134277344 C-5.040999889373779,67.69200134277344 -17.040000915527344,37.266998291015625 -17.040000915527344,37.266998291015625 C-20.68899917602539,28.013999938964844 -28.013999938964844,20.68899917602539 -37.266998291015625,17.040000915527344 C-37.266998291015625,17.040000915527344 -67.69200134277344,5.040999889373779 -67.69200134277344,5.040999889373779 C-72.26599884033203,3.236999988555908 -72.26599884033203,-3.236999988555908 -67.69200134277344,-5.040999889373779 C-67.69200134277344,-5.040999889373779 -37.266998291015625,-17.040000915527344 -37.266998291015625,-17.040000915527344 C-28.013999938964844,-20.68899917602539 -20.68899917602539,-28.013999938964844 -17.040000915527344,-37.266998291015625 C-17.040000915527344,-37.266998291015625 -5.040999889373779,-67.69200134277344 -5.040999889373779,-67.69200134277344 C-3.236999988555908,-72.26599884033203 3.236999988555908,-72.26599884033203 5.040999889373779,-67.69200134277344 C5.040999889373779,-67.69200134277344 17.040000915527344,-37.266998291015625 17.040000915527344,-37.266998291015625 C20.68899917602539,-28.013999938964844 28.013999938964844,-20.68899917602539 37.266998291015625,-17.040000915527344z"></path></g><g opacity="1" transform="matrix(1,0,0,1,274.22198486328125,252.3730010986328)"><path fill="rgb(0,0,0)" fill-opacity="1" d=" M144.15699768066406,-69.37300109863281 C134.77999877929688,-77.52999877929688 124.91500091552734,-79.55699920654297 114.9990005493164,-69.37300109863281 C114.9990005493164,-69.37300109863281 115.65299987792969,31.405000686645508 115.65299987792969,31.405000686645508 C115.81800079345703,35.79199981689453 111.07099914550781,38.80099868774414 107.48400115966797,36.584999084472656 C107.48400115966797,36.584999084472656 100.86000061035156,32.49300003051758 100.86000061035156,32.49300003051758 C85.47799682617188,22.989999771118164 77.80899810791016,4.486999988555908 81.51200103759766,-14.1899995803833 C81.51200103759766,-14.1899995803833 104.11499786376953,-137.2449951171875 104.11499786376953,-137.2449951171875 C105.37000274658203,-143.5780029296875 114.31999969482422,-143.31100463867188 114.55999755859375,-136.93299865722656 C114.55999755859375,-136.93299865722656 114.9990005493164,-69.37300109863281 114.9990005493164,-69.37300109863281 C114.9990005493164,-69.37300109863281 144.15699768066406,-69.37300109863281 144.15699768066406,-69.37300109863281 C144.15699768066406,-69.37300109863281 133.1479949951172,-209.9429931640625 133.1479949951172,-209.9429931640625 C132.3459930419922,-220.19000244140625 122.2979965209961,-226.39700317382812 112.7750015258789,-222.5290069580078 C112.7750015258789,-222.5290069580078 -21.940000534057617,-167.80999755859375 -21.940000534057617,-167.80999755859375 C-26.027000427246094,-153.9320068359375 -21.92300033569336,-145.8939971923828 -9.32800006866455,-142.58599853515625 C-9.32800006866455,-142.58599853515625 79.71399688720703,-186.3209991455078 79.71399688720703,-186.3209991455078 C85.23799896240234,-189.03399658203125 89.7760009765625,-181.8719940185547 85.25900268554688,-177.57000732421875 C85.25900268554688,-177.57000732421875 -13.211000442504883,-83.77999877929688 -13.211000442504883,-83.77999877929688 C-30.448999404907227,-67.36100006103516 -55.637001037597656,-64.19100189208984 -74.79900360107422,-76.02999877929688 C-74.79900360107422,-76.02999877929688 -97.56900024414062,-90.09700012207031 -97.56900024414062,-90.09700012207031 C-101.09500122070312,-92.2750015258789 -100.62200164794922,-97.74500274658203 -96.74299621582031,-99.6500015258789 C-96.74299621582031,-99.6500015258789 -9.32800006866455,-142.58599853515625 -9.32800006866455,-142.58599853515625 C-9.32800006866455,-142.58599853515625 -21.940000534057617,-167.80999755859375 -21.940000534057617,-167.80999755859375 C-21.940000534057617,-167.80999755859375 -139.41400146484375,-120.09400177001953 -139.41400146484375,-120.09400177001953 C-145.56500244140625,-117.59600067138672 -149.7310028076172,-111.48100280761719 -149.8300018310547,-104.80799865722656 C-149.8300018310547,-104.80799865722656 -151.92999267578125,37.62699890136719 -151.92999267578125,37.62699890136719 C-143.92999267578125,44.95899963378906 -135.38800048828125,44.19499969482422 -126.45899963378906,37.62699890136719 C-126.45899963378906,37.62699890136719 -121.73100280761719,-49.10900115966797 -121.73100280761719,-49.10900115966797 C-121.50299835205078,-53.28300094604492 -116.96600341796875,-55.87799835205078 -113.56600189208984,-53.77799987792969 C-113.56600189208984,-53.77799987792969 -97.86199951171875,-44.07500076293945 -97.86199951171875,-44.07500076293945 C-75.06300354003906,-29.989999771118164 -65.72200012207031,-0.9789999723434448 -75.4000015258789,25.68400001525879 C-75.4000015258789,25.68400001525879 -122.60099792480469,155.718994140625 -122.60099792480469,155.718994140625 C-124.74299621582031,161.61900329589844 -133.1439971923828,160.2449951171875 -132.80599975585938,154.0500030517578 C-132.80599975585938,154.0500030517578 -126.45899963378906,37.62699890136719 -126.45899963378906,37.62699890136719 C-126.45899963378906,37.62699890136719 -151.92999267578125,37.62699890136719 -151.92999267578125,37.62699890136719 C-151.92999267578125,37.62699890136719 -154.447998046875,208.43699645996094 -154.447998046875,208.43699645996094 C-154.61900329589844,220.0399932861328 -142.96800231933594,227.23800659179688 -132.66799926757812,221.89300537109375 C-132.66799926757812,221.89300537109375 35.48899841308594,134.6199951171875 35.48899841308594,134.6199951171875 C40.04600143432617,123.63200378417969 35.26900100708008,114.5530014038086 23.601999282836914,106.88200378417969 C23.601999282836914,106.88200378417969 -40.832000732421875,143.91000366210938 -40.832000732421875,143.91000366210938 C-46.55799865722656,147.2010040283203 -51.527000427246094,139.36500549316406 -46.42599868774414,135.08799743652344 C-46.42599868774414,135.08799743652344 31.166000366210938,70.02999877929688 31.166000366210938,70.02999877929688 C45.31399917602539,58.16699981689453 64.7490005493164,56.38600158691406 79.64199829101562,65.58699798583984 C83.03500366210938,67.68299865722656 82.75499725341797,72.88899993896484 79.13600158691406,74.96900177001953 C79.13600158691406,74.96900177001953 23.601999282836914,106.88200378417969 23.601999282836914,106.88200378417969 C23.601999282836914,106.88200378417969 35.48899841308594,134.6199951171875 35.48899841308594,134.6199951171875 C35.48899841308594,134.6199951171875 145.39199829101562,77.58100128173828 145.39199829101562,77.58100128173828 C151.31500244140625,74.50700378417969 154.91900634765625,68.04399871826172 154.4010009765625,61.42499923706055 C154.4010009765625,61.42499923706055 144.15699768066406,-69.37300109863281 144.15699768066406,-69.37300109863281z"></path></g></g></g></svg>