<svg xmlns="http://www.w3.org/2000/svg" xmlns:xlink="http://www.w3.org/1999/xlink" viewBox="0 0 512 512" width="512" height="512" style="width: 100%; height: 100%; transform: translate3d(0,0,0);" preserveAspectRatio="xMidYMid meet"><defs><clipPath id="__lottie_element_14397"><rect width="512" height="512" x="0" y="0"></rect></clipPath></defs><g clip-path="url(#__lottie_element_14397)"><g style="display: block;" transform="matrix(1,0,0,1,256,256)" opacity="1"><g opacity="1" transform="matrix(1,0,0,1,0,0)"><path stroke-linecap="round" stroke-linejoin="round" fill-opacity="0" stroke="rgb(0,0,0)" stroke-opacity="1" stroke-width="30" d=" M63.82500076293945,184.5800018310547 C66.80599975585938,182.8990020751953 69.76300048828125,181.17999267578125 72.697998046875,179.4340057373047 C75.65799713134766,177.72999572753906 78.60399627685547,175.9949951171875 81.52899932861328,174.21800231933594 C119.37699890136719,151.23199462890625 186.41900634765625,104.74199676513672 213.03599548339844,52.62799835205078 C215.9320068359375,46.95800018310547 216.7100067138672,41.49100112915039 215.7729949951172,36.67599868774414 C215.55799865722656,36.167999267578125 215.3300018310547,35.68600082397461 215.07400512695312,35.262001037597656 C203.61599731445312,16.243999481201172 120.04100036621094,45.58000183105469 28.40399932861328,100.78700256347656 C-63.233001708984375,155.99400329589844 -128.23199462890625,216.1649932861328 -116.77400207519531,235.18299865722656 C-116.06800079345703,236.35400390625 -114.9469985961914,237.51300048828125 -113.45099639892578,238.64300537109375 C-111.35199737548828,239.23500061035156 -109.06199645996094,239.6020050048828 -106.58599853515625,239.6999969482422 C-48.11399841308594,242.01199340820312 25.25,206.322998046875 63.82500076293945,184.5800018310547z"></path></g><g opacity="1" transform="matrix(1,0,0,1,0,0)"><path stroke-linecap="round" stroke-linejoin="round" fill-opacity="0" stroke="rgb(0,0,0)" stroke-opacity="1" stroke-width="30" d=" M-146.9199981689453,-142.1959991455078 C-220.74600219726562,-163.7429962158203 -239.73599243164062,-134.7550048828125 -235.9550018310547,-115.33599853515625 C-233.1540069580078,-100.9489974975586 -220.32200622558594,-66.58300018310547 -209.9929962158203,-58.27399826049805 C-183.8679962158203,-37.2599983215332 -151.1280059814453,-65.23999786376953 -136.0850067138672,-117.51399993896484"></path></g><g opacity="1" transform="matrix(1,0,0,1,0,0)"><path stroke-linecap="round" stroke-linejoin="round" fill-opacity="0" stroke="rgb(0,0,0)" stroke-opacity="1" stroke-width="30" d=" M-101.73500061035156,-168.64300537109375 C-84.37000274658203,-243.56300354003906 -49.797000885009766,-245.9250030517578 -34.71699905395508,-233.11900329589844 C-23.545000076293945,-223.63099670410156 0.13600000739097595,-195.61399841308594 2.322000026702881,-182.53900146484375 C7.8520002365112305,-149.47000122070312 -32.57699966430664,-134.6269989013672 -85.52100372314453,-147.10899353027344"></path></g><g opacity="1" transform="matrix(1,0,0,1,0,0)"><path stroke-linecap="round" stroke-linejoin="round" fill-opacity="0" stroke="rgb(0,0,0)" stroke-opacity="1" stroke-width="30" d=" M-141.7969970703125,-125.28800201416016 C-150.12600708007812,-139.5189971923828 -145.3419952392578,-157.8070068359375 -131.11099243164062,-166.13600158691406 C-116.87999725341797,-174.46499633789062 -98.59200286865234,-169.68099975585938 -90.26300048828125,-155.4499969482422 C-81.93399810791016,-141.218994140625 -86.71800231933594,-122.93099975585938 -100.9489974975586,-114.60199737548828 C-115.18000030517578,-106.27300262451172 -133.46800231933594,-111.05699920654297 -141.7969970703125,-125.28800201416016z"></path></g><g opacity="1" transform="matrix(1,0,0,1,0,0)"><path stroke-linecap="round" stroke-linejoin="round" fill-opacity="0" stroke="rgb(0,0,0)" stroke-opacity="1" stroke-width="30" d=" M59.38999938964844,69.24199676513672 C76.73400115966797,98.8759994506836 74.13400268554688,132.64999389648438 53.582000732421875,144.6790008544922 C33.029998779296875,156.70799255371094 2.306999921798706,142.43699645996094 -15.036999702453613,112.8030014038086 C-32.38100051879883,83.16899871826172 -29.780000686645508,49.39500045776367 -9.227999687194824,37.36600112915039 C11.324000358581543,25.336999893188477 42.04600143432617,39.608001708984375 59.38999938964844,69.24199676513672z"></path></g><g opacity="1" transform="matrix(1,0,0,1,0,0)"><g opacity="1" transform="matrix(1,0,0,1,0,0)"><path fill="rgb(0,0,0)" fill-opacity="1" d=" M230.4969940185547,33.8120002746582 C227.2050018310547,16.888999938964844 212.50999450683594,5.314000129699707 193.05999755859375,4.323999881744385 C145.6750030517578,1.9119999408721924 104.56900024414062,-43.95199966430664 55.75699996948242,-103.65899658203125 C20.707000732421875,-146.53199768066406 -20.356000900268555,-150.96499633789062 -48.63399887084961,-147.1320037841797 C-76.6780014038086,-143.33200073242188 -97.51799774169922,-130.72900390625 -100.69400024414062,-128.7220001220703 C-100.69400024414062,-128.7220001220703 -111.07499694824219,-122.64600372314453 -111.07499694824219,-122.64600372314453 C-114.37999725341797,-120.85900115966797 -135.5749969482422,-108.86199951171875 -152.62100219726562,-86.27100372314453 C-169.8090057373047,-63.492000579833984 -186.052001953125,-25.51799964904785 -165.83599853515625,26.03700065612793 C-137.67999267578125,97.83399963378906 -117.81999969482422,156.1320037841797 -138.92100524902344,198.62899780273438 C-144.71099853515625,210.2899932861328 -145.3719940185547,222.9759979248047 -140.73500061035156,233.43299865722656 C-136.4550018310547,243.0850067138672 -128.21299743652344,250.06199645996094 -117.5270004272461,253.07899475097656 C-116.1719970703125,253.46200561523438 -114.802001953125,253.64599609375 -113.44999694824219,253.64599609375 C-107.87200164794922,253.64599609375 -102.60299682617188,250.51800537109375 -100.01899719238281,245.31900024414062 C-97.1760025024414,239.59800720214844 -98.29499816894531,232.80299377441406 -102.58499908447266,228.302001953125 C-100.52200317382812,222.89599609375 -91.5989990234375,209.04100036621094 -65.44100189208984,186.06199645996094 C-39.209999084472656,163.0189971923828 -3.132999897003174,137.29800415039062 36.14500045776367,113.63500213623047 C75.4229965209961,89.97200012207031 115.02400207519531,70.10099792480469 147.65499877929688,57.68299865722656 C181.7310028076172,44.7140007019043 198.13099670410156,43.779998779296875 203.0989990234375,44.70100021362305 C206.65499877929688,50.32600021362305 213.61300659179688,53.02399826049805 220.16299438476562,51.01900100708008 C227.50399780273438,48.77299880981445 231.96299743652344,41.34700012207031 230.4969940185547,33.8120002746582z M-104.64099884033203,226.48699951171875 C-104.64099884033203,226.48699951171875 -104.63999938964844,226.48699951171875 -104.63999938964844,226.48800659179688 C-104.63999938964844,226.48699951171875 -104.64099884033203,226.48699951171875 -104.64099884033203,226.48699951171875z M75.0199966430664,-12.829000473022461 C72.16500091552734,-10.293999671936035 68.60900115966797,-9.04800033569336 65.06900024414062,-9.04800033569336 C60.928001403808594,-9.04800033569336 56.808998107910156,-10.751999855041504 53.84400177001953,-14.092000007629395 C44.571998596191406,-24.54199981689453 34.56800079345703,-36.37799835205078 21.41200065612793,-52.470001220703125 C11.975000381469727,-64.01399993896484 1.4639999866485596,-72.68800354003906 -9.82800006866455,-78.25199890136719 C-17.259000778198242,-81.91400146484375 -20.315000534057617,-90.90599822998047 -16.652999877929688,-98.33699798583984 C-12.991999626159668,-105.76899719238281 -3.999000072479248,-108.82499694824219 3.433000087738037,-105.16300201416016 C18.601999282836914,-97.68800354003906 32.465999603271484,-86.3479995727539 44.638999938964844,-71.45800018310547 C57.52899932861328,-55.691001892089844 67.28800201416016,-44.13999938964844 76.28299713134766,-34.005001068115234 C81.78099822998047,-27.80900001525879 81.21600341796875,-18.327999114990234 75.0199966430664,-12.829000473022461z"></path></g></g></g></g></svg>