<svg xmlns="http://www.w3.org/2000/svg" xmlns:xlink="http://www.w3.org/1999/xlink" viewBox="0 0 512 512" width="512" height="512" style="width: 100%; height: 100%; transform: translate3d(0,0,0);" preserveAspectRatio="xMidYMid meet"><defs><clipPath id="__lottie_element_53404"><rect width="512" height="512" x="0" y="0"></rect></clipPath></defs><g clip-path="url(#__lottie_element_53404)"><g style="display: block;" transform="matrix(1,0,0,1,0,0)" opacity="1"><g opacity="1" transform="matrix(1,0,0,1,251.02200317382812,169.12899780273438)"><path fill="rgb(0,0,0)" fill-opacity="1" d=" M37.30500030517578,144.26600646972656 C36.082000732421875,169.12899780273438 28.972000122070312,164.45799255371094 8.22700023651123,161.9499969482422 C8.22700023651123,161.9499969482422 2.119999885559082,138.0780029296875 2.119999885559082,138.0780029296875 C-1.0809999704360962,134.86300659179688 -1.5180000066757202,138.38099670410156 -1.930999994277954,141.18800354003906 C-2.8359999656677246,147.34100341796875 -2.7200000286102295,154.38699340820312 -4.151000022888184,160.68299865722656 C-4.151000022888184,160.68299865722656 -30.812999725341797,160.68299865722656 -30.812999725341797,160.68299865722656 C-30.812999725341797,160.68299865722656 -32.992000579833984,140.13699340820312 -32.992000579833984,140.13699340820312 C-41.15800094604492,139.02499389648438 -34.8489990234375,155.5070037841797 -39.2760009765625,160.7449951171875 C-39.2760009765625,160.7449951171875 -63.99700164794922,157.7100067138672 -63.99700164794922,157.7100067138672 C-70.83799743652344,154.4429931640625 -66.81600189208984,143.39700317382812 -68.52799987792969,137.4510040283203 C-69.61900329589844,133.66400146484375 -76.46900177001953,130.0540008544922 -78.88700103759766,125.08300018310547 C-84.39800262451172,113.75199890136719 -80.68499755859375,99.21199798583984 -89.94000244140625,88.62000274658203 C-102.61799621582031,74.11199951171875 -126.41600036621094,80.43800354003906 -136.7239990234375,65.14700317382812 C-158.9340057373047,32.20100021362305 -119.79100036621094,23.909000396728516 -114.06999969482422,-5.978000164031982 C-110.4749984741211,-24.7549991607666 -113.71600341796875,-47.516998291015625 -111.49199676513672,-67.43599700927734 C-100.49500274658203,-165.95599365234375 9.496000289916992,-192.26300048828125 84.8550033569336,-145.99200439453125 C158.78199768066406,-100.60199737548828 129.42999267578125,-17.85700035095215 135.93499755859375,3.3489999771118164 C141.53900146484375,21.615999221801758 158.53199768066406,34.62900161743164 158.7779998779297,52.34000015258789 C158.9340057373047,63.57600021362305 153.57000732421875,72.53299713134766 144.21400451660156,78.66300201416016 C135.15899658203125,84.59500122070312 112.31600189208984,88.72200012207031 105.38999938964844,95.63099670410156 C100.54499816894531,100.46399688720703 96.30799865722656,115.05500030517578 90.71399688720703,122.2750015258789 C87.17900085449219,126.83699798583984 75.81300354003906,134.79600524902344 73.37000274658203,140.22300720214844 C70.3479995727539,146.9320068359375 82.70700073242188,163.36599731445312 60.79199981689453,164.85000610351562 C47.74700164794922,165.73300170898438 45.97700119018555,157.13400268554688 44.520999908447266,146.33099365234375 C44.520999908447266,146.33099365234375 37.30500030517578,144.26600646972656 37.30500030517578,144.26600646972656z M-73.60399627685547,19.62299919128418 C-69.64399719238281,24.292999267578125 -55.03900146484375,34.91699981689453 -48.78099822998047,34.25699996948242 C-47.69900131225586,34.143001556396484 -34.60300064086914,28.329999923706055 -33.1619987487793,27.381000518798828 C-15.413000106811523,15.699999809265137 -16.68400001525879,-5.341000080108643 -27.11400032043457,-21.68400001525879 C-41.97100067138672,-44.9640007019043 -59.79199981689453,-40.0369987487793 -73.11100006103516,-18.746999740600586 C-82.0260009765625,-4.495999813079834 -85.65299987792969,5.415999889373779 -73.60399627685547,19.62299919128418z M71.95500183105469,-30.875 C56.91999816894531,-30.243000030517578 33.74599838256836,-2.3610000610351562 33.231998443603516,11.241000175476074 C32.388999938964844,33.56399917602539 80.24600219726562,46.42900085449219 94.28299713134766,28.756999969482422 C99.55599975585938,22.117000579833984 98.177001953125,-8.625 93.95899963378906,-16.69300079345703 C90.8740005493164,-22.59600067138672 79.00599670410156,-31.172000885009766 71.95500183105469,-30.875z M19.20400047302246,87.95600128173828 C21.805999755859375,90.46900177001953 29.863000869750977,92.08599853515625 32.22700119018555,88.60600280761719 C39.24800109863281,76.09700012207031 17.475000381469727,39.597999572753906 6.861000061035156,37.24599838256836 C-8.991000175476074,33.733001708984375 -2.950000047683716,46.6510009765625 -5.043000221252441,53.39099884033203 C-7.090000152587891,59.98400115966797 -27.04400062561035,90.41300201416016 -5.564000129699707,86.1050033569336 C3.5339999198913574,84.27999877929688 2.8459999561309814,77.53800201416016 6.122000217437744,73.24199676513672 C12.449999809265137,64.94499969482422 16.43899917602539,85.28500366210938 19.20400047302246,87.95600128173828z"></path></g><g opacity="1" transform="matrix(1,0,0,1,256.4700012207031,407.8330078125)"><path fill="rgb(0,0,0)" fill-opacity="1" d=" M167.91400146484375,-46.611000061035156 C172.85899353027344,-38.78900146484375 165.98500061035156,-26.035999298095703 159.2100067138672,-20.8439998626709 C140.11300659179688,-6.210000038146973 136.6580047607422,-15.269000053405762 119.5479965209961,-17.871999740600586 C104.33399963378906,-20.187000274658203 92.35900115966797,-10.48799991607666 78.40899658203125,-5.539000034332275 C67.40799713134766,-1.6369999647140503 55.433998107910156,1.3040000200271606 44.250999450683594,4.742000102996826 C44.250999450683594,4.742000102996826 77.39399719238281,20.118000030517578 77.39399719238281,20.118000030517578 C100.72100067138672,32.80500030517578 117.06099700927734,19.0310001373291 136.46400451660156,17.288999557495117 C151.22000122070312,15.96399974822998 170.4320068359375,31.909000396728516 168.30499267578125,46.948001861572266 C168.16299438476562,47.95399856567383 158.30499267578125,62.840999603271484 157.25999450683594,63.99100112915039 C147.84100341796875,74.35800170898438 133.94500732421875,63.15599822998047 122.74299621582031,67.70600128173828 C114.62699890136719,71.75399780273438 122.5790023803711,98.22599792480469 99.2020034790039,95.55599975585938 C80.78099822998047,93.45099639892578 89.33000183105469,76.34100341796875 79.35700225830078,63.5989990234375 C66.24299621582031,46.84400177001953 14.211000442504883,33.10300064086914 -6.235000133514404,23.320999145507812 C-24.111000061035156,32.58300018310547 -71.33100128173828,50.0260009765625 -78.18000030517578,69.302001953125 C-80.6760025024414,76.3290023803711 -79.19100189208984,83.98999786376953 -83.8499984741211,90.48899841308594 C-96.72699737548828,108.447998046875 -139.802001953125,105.64700317382812 -137.52699279785156,82.41200256347656 C-136.7220001220703,74.18399810791016 -128.29299926757812,62.624000549316406 -129.2989959716797,55.444000244140625 C-130.56700134277344,46.38999938964844 -150.52099609375,43.60599899291992 -142.3090057373047,25.871000289916992 C-136.197998046875,12.673999786376953 -121.53299713134766,22.204999923706055 -113.7509994506836,23.191999435424805 C-88.98699951171875,26.333999633789062 -72.4739990234375,14.675999641418457 -50.840999603271484,5.757999897003174 C-50.840999603271484,5.757999897003174 -104.01300048828125,-17.527000427246094 -104.01300048828125,-17.527000427246094 C-119.33999633789062,-22.292999267578125 -137.83599853515625,-11.626999855041504 -151.1699981689453,-15.814000129699707 C-165.2790069580078,-20.243999481201172 -173.33399963378906,-38.874000549316406 -160.4949951171875,-48.08700180053711 C-155.1219940185547,-51.94300079345703 -149.7010040283203,-50.367000579833984 -146.13299560546875,-56.45500183105469 C-140.98899841308594,-65.2300033569336 -147.25100708007812,-77.85199737548828 -139.81399536132812,-85.25399780273438 C-129.89700317382812,-95.125 -112.7239990234375,-82.01499938964844 -105.5770034790039,-73.80000305175781 C-99.11599731445312,-66.3740005493164 -96.53900146484375,-53.76100158691406 -92.12000274658203,-50.069000244140625 C-83.1240005493164,-42.551998138427734 -23.608999252319336,-17.035999298095703 -11.666000366210938,-14.744999885559082 C-0.546999990940094,-12.612000465393066 11.458000183105469,-20.290000915527344 21.54400062561035,-25.194000244140625 C40.573001861572266,-34.44599914550781 74.21800231933594,-51.54800033569336 89.72799682617188,-64.45800018310547 C110.18399810791016,-81.48500061035156 116.52100372314453,-104.16699981689453 149.69700622558594,-95.53099822998047 C163.781005859375,-91.86499786376953 173.33299255371094,-73.822998046875 165.7760009765625,-60.74599838256836 C163.69700622558594,-57.14799880981445 157.04200744628906,-55.81700134277344 157.91200256347656,-52.117000579833984 C159.2469940185547,-48.702999114990234 167.1750030517578,-47.779998779296875 167.91400146484375,-46.611000061035156z"></path></g></g></g></svg>