<svg xmlns="http://www.w3.org/2000/svg" xmlns:xlink="http://www.w3.org/1999/xlink" viewBox="0 0 512 512" width="512" height="512" style="width: 100%; height: 100%; transform: translate3d(0,0,0);" preserveAspectRatio="xMidYMid meet"><defs><clipPath id="__lottie_element_719"><rect width="512" height="512" x="0" y="0"></rect></clipPath></defs><g clip-path="url(#__lottie_element_719)"><g style="display: block;" transform="matrix(1,0,0,1,16.0469970703125,4.6190032958984375)" opacity="1"><g opacity="1" transform="matrix(1,0,0,1,315.9079895019531,174.4250030517578)"><path fill="rgb(0,0,0)" fill-opacity="1" d=" M25.0939998626709,-27.076000213623047 C6.642000198364258,-32.32600021362305 -44.64500045776367,-4.9039998054504395 -51.875,-0.5979999899864197 C-52.404998779296875,-0.28200000524520874 -53.018001556396484,-0.14000000059604645 -53.63100051879883,-0.20999999344348907 C-58.40399932861328,-0.75 -66.32599639892578,-1.4490000009536743 -63.895999908447266,2.369999885559082 C-60.457000732421875,8.45300006866455 -53.415000915527344,32.32600021362305 -44.994998931884766,30.91200065612793 C-39.428001403808594,29.97800064086914 -3.9119999408721924,-0.4729999899864197 10.899999618530273,-0.4729999899864197 C23.70599937438965,-0.4729999899864197 41.91699981689453,12.57800006866455 60.68899917602539,27.850000381469727 C63.02799987792969,29.753000259399414 66.32599639892578,27.17799949645996 65.02899932861328,24.45599937438965 C57.167999267578125,7.9679999351501465 41.82600021362305,-22.31599998474121 25.0939998626709,-27.076000213623047z"></path></g><g opacity="1" transform="matrix(1,0,0,1,164.2030029296875,173.7469940185547)"><path fill="rgb(0,0,0)" fill-opacity="1" d=" M63.895999908447266,3.0460000038146973 C66.32599639892578,-0.7730000019073486 58.40399932861328,-0.07199999690055847 53.63100051879883,0.46700000762939453 C53.01900100708008,0.5370000004768372 52.404998779296875,0.39500001072883606 51.875999450683594,0.07900000363588333 C44.645999908447266,-4.22599983215332 -6.640999794006348,-31.64900016784668 -25.0939998626709,-26.39900016784668 C-41.82600021362305,-21.63800048828125 -57.167999267578125,8.644000053405762 -65.02799987792969,25.131999969482422 C-66.32599639892578,27.854000091552734 -63.027000427246094,30.43000030517578 -60.68899917602539,28.527000427246094 C-41.91699981689453,13.255000114440918 -23.70599937438965,0.20399999618530273 -10.89900016784668,0.20399999618530273 C3.9119999408721924,0.20399999618530273 39.35100173950195,31.54599952697754 44.99599838256836,31.59000015258789 C52.79800033569336,31.64900016784668 60.45800018310547,9.128999710083008 63.895999908447266,3.0460000038146973z"></path></g><g opacity="1" transform="matrix(1,0,0,1,326.1289978027344,233.13999938964844)"><path fill="rgb(0,0,0)" fill-opacity="1" d=" M21.197999954223633,14.569999694824219 C22.545000076293945,10.850000381469727 23.30900001525879,6.7820000648498535 23.30900001525879,2.494999885559082 C23.30900001525879,-14.932999610900879 11.079000473022461,-29.062000274658203 -4.00600004196167,-29.062000274658203 C-19.091999053955078,-29.062000274658203 -31.320999145507812,-14.932999610900879 -31.320999145507812,2.494999885559082 C-31.320999145507812,8.140000343322754 -30.0049991607666,13.411999702453613 -27.750999450683594,17.989999771118164 C-32.89899826049805,21.784000396728516 -34.99300003051758,25.820999145507812 -34.23400115966797,27.03499984741211 C-33.441001892089844,28.304000854492188 -14.54800033569336,26.724000930786133 -1.9049999713897705,26.724000930786133 C17.1200008392334,26.724000930786133 33.78300094604492,29.062999725341797 34.53200149536133,25.625 C34.99300003051758,23.510000228881836 30.347999572753906,18.305999755859375 21.197999954223633,14.569999694824219z"></path></g><g opacity="1" transform="matrix(1,0,0,1,153.22799682617188,233.13900756835938)"><path fill="rgb(0,0,0)" fill-opacity="1" d=" M29.125999450683594,19.027000427246094 C31.70400047302246,14.220000267028809 33.20899963378906,8.567999839782715 33.20899963378906,2.494999885559082 C33.20899963378906,-14.932999610900879 20.979999542236328,-29.062000274658203 5.894999980926514,-29.062000274658203 C-9.190999984741211,-29.062000274658203 -21.42099952697754,-14.932999610900879 -21.42099952697754,2.494999885559082 C-21.42099952697754,6.541999816894531 -20.753000259399414,10.404000282287598 -19.54800033569336,13.956000328063965 C-29.756000518798828,17.71299934387207 -34.97200012207031,23.389999389648438 -34.48500061035156,25.624000549316406 C-33.73500061035156,29.062000274658203 -17.072999954223633,26.725000381469727 1.9520000219345093,26.725000381469727 C14.595999717712402,26.725000381469727 33.4900016784668,28.304000854492188 34.28300094604492,27.03499984741211 C34.97200012207031,25.93199920654297 33.29999923706055,22.493999481201172 29.125999450683594,19.027000427246094z"></path></g><g opacity="1" transform="matrix(1,0,0,1,240.23500061035156,248.68299865722656)"><path fill="rgb(0,0,0)" fill-opacity="1" d=" M26.325000762939453,1.2630000114440918 C22.25200080871582,-2.0409998893737793 17.59000015258789,-3.755000114440918 13.053000450134277,-4.855000019073486 C-0.1720000058412552,-7.696000099182129 -14.668000221252441,-7.056000232696533 -26.10700035095215,1.1260000467300415 C-29.006999969482422,2.8480000495910645 -27.756000518798828,7.281000137329102 -24.327999114990234,7 C-8.406000137329102,5.583000183105469 7.989999771118164,5.672999858856201 23.893999099731445,7.250999927520752 C27.165000915527344,7.696000099182129 29.006999969482422,3.26200008392334 26.325000762939453,1.2630000114440918z"></path></g><g opacity="1" transform="matrix(1,0,0,1,239.58700561523438,369.30999755859375)"><path fill="rgb(0,0,0)" fill-opacity="1" d=" M55.86800003051758,-12.986000061035156 C53.27899932861328,-15.17199993133545 50.8120002746582,-17.410999298095703 48.2760009765625,-19.79199981689453 C39.63600158691406,-27.860000610351562 29.25200080871582,-36.24300003051758 16.81800079345703,-37.93899917602539 C12.331999778747559,-38.691001892089844 6.603000164031982,-37.654998779296875 2.5969998836517334,-35.69300079345703 C1.6360000371932983,-35.32899856567383 1.4299999475479126,-35.327999114990234 0.37700000405311584,-35.29800033569336 C-0.8999999761581421,-35.316001892089844 -0.3490000069141388,-35.17499923706055 -4.113999843597412,-36.62900161743164 C-14.07800006866455,-40.56800079345703 -26.073999404907227,-35.875 -34.119998931884766,-30.72100067138672 C-42.262001037597656,-25.549999237060547 -48.71799850463867,-19.29599952697754 -55.689998626708984,-13.029000282287598 C-60.73899841308594,-9.343000411987305 -60.89099884033203,-1.569000005722046 -55.736000061035156,2.0209999084472656 C-55.349998474121094,2.3529999256134033 -52.09400177001953,4.639999866485596 -51.702999114990234,4.999000072479248 C-45.292999267578125,9.77299976348877 -38.62200164794922,15.105999946594238 -31.909000396728516,19.57200050354004 C-1.909999966621399,40.56800079345703 19.812000274658203,30.881999969482422 45.9370002746582,10.104999542236328 C45.9370002746582,10.104999542236328 52.39099884033203,5.223999977111816 52.39099884033203,5.223999977111816 C55.180999755859375,3.0959999561309814 59.10300064086914,0.9459999799728394 59.81800079345703,-2.822999954223633 C60.89099884033203,-6.5970001220703125 59.097999572753906,-10.776000022888184 55.86800003051758,-12.986000061035156z M0.4790000021457672,10.41100025177002 C-37.70899963378906,10.41100025177002 -38.775001525878906,-6.464000225067139 -38.516998291015625,-8.807000160217285 C-38.04800033569336,-13.053999900817871 -25.784000396728516,-18.479999542236328 -18.451000213623047,-19.224000930786133 C-11.118000030517578,-19.966999053955078 -7.374000072479248,-17.41900062561035 0.4790000021457672,-17.41900062561035 C8.331999778747559,-17.41900062561035 12.07699966430664,-19.966999053955078 19.409000396728516,-19.224000930786133 C26.743000030517578,-18.479999542236328 38.720001220703125,-12.788000106811523 39.1879997253418,-8.538999557495117 C39.44599914550781,-6.202000141143799 38.66699981689453,10.41100025177002 0.4790000021457672,10.41100025177002z"></path></g><g opacity="1" transform="matrix(1,0,0,1,240.05599975585938,251.3820037841797)"><path fill="rgb(0,0,0)" fill-opacity="1" d=" M237.98899841308594,17.503999710083008 C236.1719970703125,-12.949999809265137 204.8419952392578,-45.00199890136719 188.70599365234375,-44.625999450683594 C188.1790008544922,-44.61399841308594 187.64999389648438,-44.551998138427734 187.1219940185547,-44.50400161743164 C187.28199768066406,-45.165000915527344 187.43800354003906,-45.816001892089844 187.6009979248047,-46.48500061035156 C192.36000061035156,-66.06900024414062 198.2830047607422,-90.44000244140625 192.68600463867188,-124.8499984741211 C187.10400390625,-159.16900634765625 162.6009979248047,-191.4149932861328 123.69100189208984,-215.64700317382812 C87.48100280761719,-238.197998046875 42.39699935913086,-251.1320037841797 -0.0010000000474974513,-251.1320037841797 C-42.39799880981445,-251.1320037841797 -87.48100280761719,-238.197998046875 -123.68900299072266,-215.64700317382812 C-162.5989990234375,-191.41700744628906 -187.10299682617188,-159.17100524902344 -192.68600463867188,-124.8499984741211 C-198.28399658203125,-90.44000244140625 -192.36000061035156,-66.06900024414062 -187.60000610351562,-46.48500061035156 C-187.43899536132812,-45.82099914550781 -187.28399658203125,-45.17499923706055 -187.125,-44.518001556396484 C-187.6529998779297,-44.56700134277344 -188.17999267578125,-44.61399841308594 -188.70599365234375,-44.625999450683594 C-204.8419952392578,-45.00199890136719 -236.17100524902344,-12.949999809265137 -237.98800659179688,17.503999710083008 C-239.80499267578125,47.957000732421875 -192.2310028076172,97.36399841308594 -173.26300048828125,96.94300079345703 C-172.02699279785156,96.91600036621094 -170.76199340820312,96.73899841308594 -169.47999572753906,96.4520034790039 C-167.5800018310547,112.08599853515625 -163.79200744628906,129.4969940185547 -155.33200073242188,145.2899932861328 C-141.76600646972656,170.61500549316406 -121.79399871826172,184.4499969482422 -104.17400360107422,196.65699768066406 C-99.01399993896484,200.23199462890625 -94.13999938964844,203.60699462890625 -89.74500274658203,207.06300354003906 C-86.62100219726562,209.52000427246094 -83.26499938964844,212.5959930419922 -79.71299743652344,215.8520050048828 C-63.46900177001953,230.74099731445312 -41.22200012207031,251.1320037841797 -0.0010000000474974513,251.1320037841797 C41.22100067138672,251.1320037841797 63.46900177001953,230.74099731445312 79.71299743652344,215.8520050048828 C83.26599884033203,212.59800720214844 86.62100219726562,209.52200317382812 89.74600219726562,207.06500244140625 C94.14199829101562,203.60699462890625 99.01599884033203,200.23199462890625 104.17500305175781,196.65699768066406 C121.79399871826172,184.4499969482422 141.76600646972656,170.61500549316406 155.33200073242188,145.2899932861328 C163.79299926757812,129.4969940185547 167.58200073242188,112.08499908447266 169.4810028076172,96.45099639892578 C170.76300048828125,96.73899841308594 172.02699279785156,96.91600036621094 173.26300048828125,96.94300079345703 C192.2310028076172,97.36399841308594 239.80599975585938,47.957000732421875 237.98899841308594,17.503999710083008z M77.84400177001953,127.31199645996094 C72.53299713134766,148.29400634765625 60.45800018310547,186.6219940185547 42.22999954223633,191.20199584960938 C34.98899841308594,193.02200317382812 27.326000213623047,191.61500549316406 21.378000259399414,187.1909942626953 C38.733001708984375,181.16099548339844 53.22700119018555,165.97500610351562 58.14899826049805,149.1739959716797 C59.91699981689453,145.12399291992188 55.03300094604492,141.4040069580078 51.65999984741211,144.30999755859375 C36.08000183105469,158.47300720214844 19.20400047302246,168.51400756835938 -1.7790000438690186,167.47900390625 C-23.572999954223633,167.62600708007812 -39.01300048828125,157.7429962158203 -54.736000061035156,142.75900268554688 C-58.47800064086914,139.45700073242188 -63.909000396728516,143.56100463867188 -61.90299987792969,148.1320037841797 C-57.9109992980957,160.10899353027344 -50.50299835205078,170.8260040283203 -40.06800079345703,178.56900024414062 C-34.53099822998047,182.5989990234375 -28.3799991607666,185.58299255371094 -21.92300033569336,187.60400390625 C-27.788999557495117,191.71099853515625 -35.21099853515625,192.96600341796875 -42.229000091552734,191.20199584960938 C-60.457000732421875,186.6219940185547 -72.53199768066406,148.29400634765625 -77.84300231933594,127.31199645996094 C-80.00900268554688,118.75499725341797 -78.21299743652344,109.68199920654297 -72.86299896240234,102.66000366210938 C-61.09600067138672,87.21800231933594 -39.00699996948242,60.81999969482422 -24.06599998474121,58.694000244140625 C-17.844999313354492,57.80799865722656 -8.640999794006348,67.50900268554688 -0.0010000000474974513,67.50900268554688 C8.638999938964844,67.50900268554688 17.844999313354492,57.80799865722656 24.06599998474121,58.694000244140625 C39.00699996948242,60.81999969482422 61.09600067138672,87.21800231933594 72.86299896240234,102.66000366210938 C78.21299743652344,109.68199920654297 80.00900268554688,118.75499725341797 77.84400177001953,127.31199645996094z M168.11399841308594,27.628999710083008 C166.22500610351562,44.229000091552734 160.70700073242188,52.512001037597656 144.79100036621094,73.34400177001953 C132.79100036621094,91.13999938964844 133.82000732421875,101.96800231933594 118.47200012207031,110.50900268554688 C113.12200164794922,113.48600006103516 106.37799835205078,110.45899963378906 105.0009994506836,104.49199676513672 C96.24700164794922,66.54900360107422 71.68599700927734,50.106998443603516 56.707000732421875,43.47700119018555 C58.90599822998047,41.77899932861328 60.23899841308594,39.86800003051758 60.43600082397461,37.736000061035156 C61.49399948120117,26.274999618530273 51.83700180053711,13.315999984741211 46.374000549316406,15.670000076293945 C45.20600128173828,16.17300033569336 48.202999114990234,24.66200065612793 47.321998596191406,30.30500030517578 C46.439998626708984,35.948001861572266 19.74799919128418,42.007999420166016 -0.0010000000474974513,42.007999420166016 C-19.749000549316406,42.007999420166016 -46.43899917602539,35.948001861572266 -47.32099914550781,30.30500030517578 C-48.20199966430664,24.66200065612793 -45.215999603271484,16.19700050354004 -46.37300109863281,15.670000076293945 C-50.3849983215332,13.843999862670898 -61.183998107910156,25.92300033569336 -60.125999450683594,37.382999420166016 C-59.900001525878906,39.83700180053711 -58.178001403808594,42.012001037597656 -55.374000549316406,43.91899871826172 C-70.93900299072266,51.27799987792969 -94.49199676513672,68.10299682617188 -102.95899963378906,104.1989974975586 C-104.33599853515625,110.06800079345703 -110.96800231933594,113.0989990234375 -116.2979965209961,110.28199768066406 C-132.3090057373047,101.82099914550781 -132.6649932861328,91.26200103759766 -144.74899291992188,73.39900207519531 C-160.69700622558594,52.527000427246094 -166.22300720214844,44.24399948120117 -168.11300659179688,27.628999710083008 C-169.90899658203125,11.85200023651123 -163.97000122070312,5.35099983215332 -158.66900634765625,-6.556000232696533 C-156.58700561523438,-11.230999946594238 -155.7989959716797,-16.374000549316406 -156.281005859375,-21.4689998626709 C-156.60499572753906,-24.89900016784668 -157.10499572753906,-28.767000198364258 -157.86500549316406,-33.236000061035156 C-158.45199584960938,-36.67900085449219 -159.1529998779297,-40.04399871826172 -159.91799926757812,-43.422000885009766 C-164.93899536132812,-84.68599700927734 -154.37600708007812,-96.04199981689453 -155.65199279785156,-105.28900146484375 C-156.4239959716797,-110.88899993896484 -157.3040008544922,-132.90699768066406 -151.66099548339844,-141.3699951171875 C-131.3090057373047,-171.8990020751953 -72.64700317382812,-190.98300170898438 -0.0010000000474974513,-190.98300170898438 C72.64600372314453,-190.98300170898438 131.57400512695312,-171.8990020751953 151.92599487304688,-141.3699951171875 C157.56900024414062,-132.90699768066406 156.68800354003906,-110.88899993896484 155.91600036621094,-105.28900146484375 C154.54400634765625,-95.34300231933594 167.33799743652344,-88.86100006103516 158.3159942626953,-35.65399932861328 C158.1649932861328,-34.847999572753906 158.0030059814453,-34.04999923706055 157.86500549316406,-33.236000061035156 C157.74899291992188,-32.553001403808594 157.64300537109375,-31.895999908447266 157.53900146484375,-31.240999221801758 C157.5260009765625,-31.170000076293945 157.51600646972656,-31.104999542236328 157.5030059814453,-31.03499984741211 C157.5070037841797,-31.062000274658203 157.51400756835938,-31.089000701904297 157.5189971923828,-31.115999221801758 C156.9510040283203,-27.538000106811523 156.55599975585938,-24.361000061035156 156.28399658203125,-21.489999771118164 C155.80099487304688,-16.386999130249023 156.58599853515625,-11.234999656677246 158.67100524902344,-6.552999973297119 C163.9720001220703,5.3520002365112305 169.90899658203125,11.852999687194824 168.11399841308594,27.628999710083008z"></path></g></g></g></svg>