<svg xmlns="http://www.w3.org/2000/svg" xmlns:xlink="http://www.w3.org/1999/xlink" viewBox="0 0 512 512" width="512" height="512" style="width: 100%; height: 100%; transform: translate3d(0,0,0);" preserveAspectRatio="xMidYMid meet"><defs><clipPath id="__lottie_element_51955"><rect width="512" height="512" x="0" y="0"></rect></clipPath></defs><g clip-path="url(#__lottie_element_51955)"><g style="display: block;" transform="matrix(1,0,0,1,0,0)" opacity="1"><g opacity="1" transform="matrix(1,0,0,1,256.6470031738281,262.26800537109375)"><path fill="rgb(0,0,0)" fill-opacity="1" d=" M220.29600524902344,43.946998596191406 C219.43899536132812,45.05500030517578 215.5469970703125,44.07099914550781 214.7949981689453,42.888999938964844 C209.9969940185547,35.345001220703125 210.07000732421875,25.913999557495117 198.927001953125,27.91900062561035 C197.92599487304688,36.779998779296875 200.21099853515625,45.77299880981445 204.52000427246094,53.486000061035156 C207.5229949951172,58.86199951171875 213.93699645996094,61.67100143432617 214.39300537109375,70.00700378417969 C214.6790008544922,75.2490005493164 206.05999755859375,103.48400115966797 198.9510040283203,97.34100341796875 C198.3159942626953,89.03700256347656 192.08799743652344,81.75 182.99099731445312,83.19100189208984 C178.60800170898438,101.00599670410156 197.18800354003906,103.40299987792969 190.99200439453125,124.1240005493164 C189.9510040283203,127.60299682617188 173.7779998779297,149.9429931640625 171.0659942626953,150.45599365234375 C160.72500610351562,152.41099548339844 162.30299377441406,133.71600341796875 159.843994140625,131.91600036621094 C151.91600036621094,129.56900024414062 148.40199279785156,135.59100341796875 148.90699768066406,142.7480010986328 C149.447998046875,150.40699768066406 157.00399780273438,152.4980010986328 154.01699829101562,165.49600219726562 C152.7030029296875,171.21299743652344 128.9770050048828,191.5229949951172 123.92900085449219,189.06900024414062 C122.53800201416016,188.39300537109375 120.0479965209961,186.16299438476562 119.5530014038086,184.697998046875 C118.83100128173828,182.55799865722656 119.80699920654297,175.66700744628906 119.80699920654297,175.66700744628906 C112.46299743652344,167.7429962158203 105.88600158691406,178.80999755859375 104.84600067138672,185.9199981689453 C104.0979995727539,191.02699279785156 108.56999969482422,197.30999755859375 104.0719985961914,201.91799926757812 C101.36100006103516,204.6959991455078 70.92400360107422,216.88999938964844 68.93099975585938,214.83399963378906 C68.93099975585938,214.83399963378906 67.29399871826172,203.54400634765625 67.29399871826172,203.54400634765625 C64.68399810791016,199.29200744628906 53.887001037597656,201.93499755859375 50.097999572753906,204.01499938964844 C48.42499923706055,211.6020050048828 51.26499938964844,219.2790069580078 42.255001068115234,222.87399291992188 C37.915000915527344,224.6060028076172 14.08899974822998,227.4600067138672 10.067999839782715,226.5780029296875 C1.406999945640564,224.67799377441406 9.468000411987305,208.95799255371094 -3.177999973297119,211.1840057373047 C-10.3149995803833,212.44000244140625 -6.086999893188477,221.406005859375 -10.267000198364258,225.54800415039062 C-13.63599967956543,228.88600158691406 -42.06399917602539,225.2469940185547 -46.70000076293945,222.70399475097656 C-55.07600021362305,218.10899353027344 -54.57500076293945,204.23599243164062 -60.055999755859375,202.01300048828125 C-74.62000274658203,196.10400390625 -69.83200073242188,215.5659942626953 -74.5530014038086,216.50999450683594 C-82.25399780273438,212.99099731445312 -106.31199645996094,207.74099731445312 -108.78800201416016,199.322998046875 C-110.60399627685547,193.1490020751953 -106.19999694824219,174.75 -113.9010009765625,172.28799438476562 C-127.33200073242188,167.9949951171875 -117.41699981689453,186.72999572753906 -128.58900451660156,189.09300231933594 C-138.5500030517578,186.13900756835938 -156.7100067138672,174.09500122070312 -158.68899536132812,163.63999938964844 C-160.6510009765625,153.2790069580078 -145.10499572753906,137.7760009765625 -154.91000366210938,131.052001953125 C-165.30299377441406,123.92400360107422 -163.61199951171875,141.01100158691406 -164.6540069580078,144.22500610351562 C-166.1540069580078,148.8509979248047 -175.3350067138672,150.5959930419922 -179.47500610351562,147.1479949951172 C-184.80299377441406,142.71099853515625 -196.0749969482422,121.01000213623047 -196.35400390625,114.08300018310547 C-196.63299560546875,107.14900207519531 -186.86599731445312,99.822998046875 -184.78399658203125,92.05699920654297 C-179.8090057373047,73.50399780273438 -200.48899841308594,82.44400024414062 -200.1490020751953,95.37699890136719 C-212.49099731445312,99.70899963378906 -217.0019989013672,78.36299896240234 -217.6060028076172,69.50599670410156 C-219.03700256347656,48.494998931884766 -194.6750030517578,48.667999267578125 -199.9810028076172,26.138999938964844 C-213.8979949951172,21.011999130249023 -213.58999633789062,42.28900146484375 -218.906005859375,43.83599853515625 C-230.34300231933594,47.16400146484375 -227.02699279785156,14.680999755859375 -225.8939971923828,8.256999969482422 C-222.86000061035156,-8.939000129699707 -200.48699951171875,-18.266000747680664 -209.0570068359375,-37.763999938964844 C-220.22799682617188,-45.37200164794922 -236.35800170898438,-10.845000267028809 -239.46800231933594,-3.5309998989105225 C-243.3489990234375,5.5960001945495605 -245.9290008544922,13.795999526977539 -248.03399658203125,23.506999969482422 C-248.03399658203125,23.506999969482422 -251.66200256347656,23.410999298095703 -251.66200256347656,23.410999298095703 C-253.38400268554688,17.57699966430664 -255.33700561523438,11.888999938964844 -255.34300231933594,5.670000076293945 C-255.35299682617188,-4.859000205993652 -253.4709930419922,-26.24799919128418 -250.68699645996094,-36.104000091552734 C-244.9980010986328,-56.244998931884766 -226.27999877929688,-70.45500183105469 -218.01699829101562,-88.88700103759766 C-212.6199951171875,-100.9260025024414 -215.1280059814453,-114.60600280761719 -208.6219940185547,-125.7760009765625 C-194.20199584960938,-150.53900146484375 -127.8949966430664,-169.48500061035156 -119.4229965209961,-193.2570037841797 C-113.06700134277344,-211.09100341796875 -117.1259994506836,-228.88600158691406 -90.78500366210938,-217.3800048828125 C-71.36699676513672,-208.8990020751953 -59.15700149536133,-193.10899353027344 -59.28499984741211,-171.42999267578125 C-59.28499984741211,-171.42999267578125 -49.51499938964844,-171.47300720214844 -49.51499938964844,-171.47300720214844 C-45.5629997253418,-158.78900146484375 -39.05400085449219,-145.7949981689453 -42.257999420166016,-132.13800048828125 C-45.47800064086914,-118.41699981689453 -66.24400329589844,-111.21499633789062 -73.89600372314453,-97.91300201416016 C-78.45099639892578,-89.99400329589844 -85.4219970703125,-68.9520034790039 -87.36900329589844,-59.762001037597656 C-89.7770004272461,-48.39699935913086 -82.87999725341797,-39.111000061035156 -100.21600341796875,-45.98899841308594 C-109.75800323486328,-49.77399826049805 -112.47899627685547,-59.7859992980957 -121.54100036621094,-51.185001373291016 C-123.19499969482422,-49.6150016784668 -133.03199768066406,-33.26900100708008 -134.42999267578125,-30.26099967956543 C-152.7899932861328,9.258999824523926 -136.10299682617188,67.88200378417969 -109.1050033569336,99.96299743652344 C-38.89799880981445,183.38999938964844 94.8030014038086,155.69000244140625 128.9550018310547,53.21900177001953 C138.35000610351562,25.0310001373291 139.87600708007812,-14.456000328063965 127.2959976196289,-41.98400115966797 C116.76399993896484,-65.03099822998047 106.84100341796875,-46.5099983215332 93.8030014038086,-42.39799880981445 C91.84300231933594,-41.779998779296875 90.90499877929688,-40.6150016784668 89.3550033569336,-43.22100067138672 C87.96499633789062,-45.558998107910156 85.697998046875,-64.2509994506836 84.05000305175781,-69.95700073242188 C81.80599975585938,-77.72000122070312 77.19000244140625,-91.76300048828125 73.47100067138672,-98.54199981689453 C61.849998474121094,-119.72200012207031 37.566001892089844,-115.79299926757812 43.013999938964844,-148.39199829101562 C43.435001373291016,-150.91200256347656 49.43000030517578,-170.52699279785156 50.17599868774414,-171.4770050048828 C52.1510009765625,-173.99200439453125 57.22999954223633,-172.4219970703125 59.18000030517578,-174.93699645996094 C61.92399978637695,-178.47799682617188 65.18900299072266,-194.88499450683594 69.93699645996094,-201.56500244140625 C74.6709976196289,-208.2270050048828 97.46700286865234,-221.58900451660156 105.50199890136719,-221.375 C117.55000305175781,-221.05499267578125 118.65499877929688,-196.99400329589844 122.74800109863281,-188.73399353027344 C130.1300048828125,-173.83599853515625 179.36900329589844,-151.4510040283203 195.21499633789062,-138.34800720214844 C219.2729949951172,-118.4530029296875 208.55599975585938,-110.72599792480469 218.73899841308594,-87.10299682617188 C233.10800170898438,-53.766998291015625 251.6790008544922,-53.65399932861328 254.11500549316406,-8.543999671936035 C254.36700439453125,-3.882999897003174 255.6739959716797,27.767000198364258 247.9250030517578,26.13800048828125 C246.2729949951172,25.791000366210938 239.13999938964844,-1.2319999933242798 237.17999267578125,-5.85699987411499 C233.5590057373047,-14.39900016784668 222.14300537109375,-38.979000091552734 210.88699340820312,-35.89699935913086 C194.1719970703125,-31.319000244140625 218.38299560546875,-2.947000026702881 220.29600524902344,0.33799999952316284 C229.52499389648438,16.190000534057617 224.50999450683594,38.494998931884766 220.29600524902344,43.946998596191406z M-59.27199935913086,-166.07400512695312 C-59.27199935913086,-166.07400512695312 -63.928001403808594,-157.3260040283203 -63.928001403808594,-157.3260040283203 C-73.4260025024414,-159.8699951171875 -79.11900329589844,-167.99600219726562 -89.6050033569336,-165.2790069580078 C-113.1729965209961,-159.17300415039062 -89.04299926757812,-138.44500732421875 -93.13999938964844,-134.0570068359375 C-101.197998046875,-133.44500732421875 -105.50700378417969,-143.48800659179688 -113.4729995727539,-142.9320068359375 C-116.53199768066406,-142.71800231933594 -138.66900634765625,-133.53199768066406 -141.12100219726562,-131.28500366210938 C-160.0030059814453,-113.9800033569336 -122.87799835205078,-81.23899841308594 -107.81800079345703,-95.33799743652344 C-106.375,-96.69000244140625 -103.5719985961914,-104.02400207519531 -100.98200225830078,-107.18800354003906 C-95.61399841308594,-113.74400329589844 -85.0999984741211,-122.7959976196289 -83.28299713134766,-130.43899536132812 C-78.11000061035156,-152.19000244140625 -96.86699676513672,-177.11599731445312 -60.2130012512207,-144.73599243164062 C-56.354000091552734,-145.5449981689453 -57.33000183105469,-158.45700073242188 -57.51900100708008,-161.67300415039062 C-57.637001037597656,-163.67599487304688 -56.334999084472656,-166.552001953125 -59.27199935913086,-166.07400512695312z M93.86599731445312,-134.0570068359375 C89.75499725341797,-138.17100524902344 114.54000091552734,-157.72900390625 89.96399688720703,-164.91299438476562 C79.4000015258789,-168.00100708007812 73.99299621582031,-159.7480010986328 64.34400177001953,-157.12399291992188 C64.34400177001953,-157.12399291992188 58.257999420166016,-162.5260009765625 58.257999420166016,-162.5260009765625 C58.46900177001953,-158.9739990234375 56.25,-143.3260040283203 62.6619987487793,-144.73800659179688 C69.3949966430664,-150.572998046875 74.51300048828125,-160.31300354003906 84.94400024414062,-158.96600341796875 C84.72699737548828,-146.85499572753906 80.47799682617188,-137.04600524902344 85.83000183105469,-125.13500213623047 C86.98600006103516,-122.56300354003906 109.20800018310547,-94.3219985961914 110.96700286865234,-93.31199645996094 C129.7550048828125,-82.52799987792969 159.9040069580078,-117.27799987792969 139.00399780273438,-132.00399780273438 C137,-133.41600036621094 113.96499633789062,-142.9250030517578 112.53500366210938,-142.8780059814453 C108.80699920654297,-142.7530059814453 96.55799865722656,-131.36300659179688 93.86599731445312,-134.0570068359375z M-192.84800720214844,-85.99099731445312 C-176.49200439453125,-86.2030029296875 -168.50399780273438,-97.21900177001953 -164.04600524902344,-111.52899932861328 C-163.47300720214844,-113.36900329589844 -161.98599243164062,-115.80699920654297 -165.29200744628906,-116.25599670410156 C-166.57699584960938,-116.43000030517578 -188.25999450683594,-107.66400146484375 -189.31199645996094,-106.4749984741211 C-191.38299560546875,-104.13200378417969 -194.02999877929688,-87.18900299072266 -192.84800720214844,-85.99099731445312z M189.5709991455078,-105.11799621582031 C188.30499267578125,-106.68199920654297 165.9770050048828,-115.43499755859375 165.1009979248047,-114.46099853515625 C165.62899780273438,-98.83499908447266 177.19400024414062,-84.27200317382812 193.5749969482422,-84.20999908447266 C195.01400756835938,-85.6520004272461 191.22999572753906,-103.06800079345703 189.5709991455078,-105.11799621582031z"></path></g></g></g></svg>