<svg xmlns="http://www.w3.org/2000/svg" xmlns:xlink="http://www.w3.org/1999/xlink" viewBox="0 0 512 512" width="512" height="512" style="width: 100%; height: 100%; transform: translate3d(0,0,0);" preserveAspectRatio="xMidYMid meet"><defs><clipPath id="__lottie_element_52736"><rect width="512" height="512" x="0" y="0"></rect></clipPath></defs><g clip-path="url(#__lottie_element_52736)"><g style="display: block;" transform="matrix(2.1107099056243896,0,0,2.1107099056243896,-300.34173583984375,-340.34173583984375)" opacity="1"><g opacity="1" transform="matrix(1,0,0,1,218.1840057373047,330.97601318359375)"><path fill="rgb(0,0,0)" fill-opacity="1" d=" M-7.560999870300293,52.68199920654297 C-9.26200008392334,52.83399963378906 -10.902000427246094,52.051998138427734 -11.847999572753906,50.63100051879883 C-14.590999603271484,46.5099983215332 -16.945999145507812,43.270999908447266 -28.18400001525879,33.02399826049805 C-37.513999938964844,24.517000198364258 -40.78200149536133,23.42799949645996 -46.387001037597656,22.003000259399414 C-48.0989990234375,21.566999435424805 -49.409000396728516,20.20800018310547 -49.78499984741211,18.481000900268555 C-52.513999938964844,5.940999984741211 -51.97100067138672,-38.86899948120117 -42.97100067138672,-47.86899948120117 C-38.00600051879883,-52.83399963378906 -10.288999557495117,-39.63399887084961 15.444999694824219,-18.7810001373291 C44.327999114990234,4.624000072479248 56.23500061035156,18.30500030517578 54.867000579833984,24.23200035095215 C51.867000579833984,37.231998443603516 6.328999996185303,51.444000244140625 -7.560999870300293,52.68199920654297z"></path></g><g opacity="1" transform="matrix(1,0,0,1,179.14199829101562,377.59600830078125)"><path fill="rgb(0,0,0)" fill-opacity="1" d=" M17.645999908447266,8.29699993133545 C19.05299949645996,3.3550000190734863 4.369999885559082,-16.417999267578125 -10.088000297546387,-14.22700023651123 C-17.148000717163086,-13.156999588012695 -17.142000198364258,14.404000282287598 -13.142000198364258,18.40399932861328 C-9.605999946594238,21.940000534057617 15.597999572753906,15.489999771118164 17.645999908447266,8.29699993133545z"></path></g><g opacity="1" transform="matrix(1,0,0,1,227.72799682617188,221.4949951171875)"><path fill="rgb(0,0,0)" fill-opacity="1" d=" M14.062000274658203,19.854999542236328 C30.527000427246094,0.25999999046325684 45.957000732421875,-18.70400047302246 63.08100128173828,-42.74100112915039 C64.86799621582031,-45.25 63.869998931884766,-48.66600036621094 60.840999603271484,-49.22800064086914 C50.59000015258789,-51.130001068115234 49.244998931884766,-52.12900161743164 37.72600173950195,-49.91299819946289 C35.847999572753906,-49.551998138427734 34.15299987792969,-48.540000915527344 32.957000732421875,-47.04800033569336 C32.957000732421875,-47.04800033569336 -44.290000915527344,46.553001403808594 -44.290000915527344,46.553001403808594 C-45.91699981689453,48.58100128173828 -45.25699996948242,51.590999603271484 -42.93199920654297,52.75299835205078 C-38.702999114990234,54.86800003051758 -32.444000244140625,56.11800003051758 -24.503000259399414,60.29100036621094 C-22.905000686645508,61.130001068115234 -20.93899917602539,60.777000427246094 -19.739999771118164,59.42900085449219 C-9.875,48.34199905395508 1.7760000228881836,34.47700119018555 14.062000274658203,19.854999542236328z"></path></g><g opacity="1" transform="matrix(1,0,0,1,282.89801025390625,250.2989959716797)"><path fill="rgb(0,0,0)" fill-opacity="1" d=" M25.51300048828125,17.35099983215332 C39.70000076293945,2.131999969482422 54.250999450683594,-13.51099967956543 67.69400024414062,-29.972999572753906 C68.75900268554688,-31.275999069213867 68.86399841308594,-33.12200164794922 67.9739990234375,-34.55099868774414 C59.492000579833984,-48.16699981689453 54.479000091552734,-55.30799865722656 51.10300064086914,-58.29899978637695 C48.57899856567383,-60.534000396728516 43.792999267578125,-64.96600341796875 28.6299991607666,-71.77799987792969 C27.084999084472656,-72.47200012207031 25.263999938964844,-72.11399841308594 24.117000579833984,-70.86699676513672 C3.4189999103546143,-48.393001556396484 -17.292999267578125,-23.749000549316406 -35.858001708984375,-1.656000018119812 C-46.72600173950195,11.277999877929688 -55.676998138427734,22.43600082397461 -64.83200073242188,32.88100051879883 C-66.49500274658203,34.77799987792969 -65.88700103759766,37.59199905395508 -63.742000579833984,38.91899871826172 C-52.71799850463867,45.73500061035156 -30.1200008392334,64.76399993896484 -27.422000885009766,69.03700256347656 C-25.95800018310547,71.35800170898438 -22.656999588012695,71.52400207519531 -20.972999572753906,69.35700225830078 C-5.317999839782715,49.209999084472656 8.673999786376953,35.41400146484375 25.51300048828125,17.35099983215332z"></path></g><g opacity="1" transform="matrix(1,0,0,1,319.95599365234375,296.385986328125)"><path fill="rgb(0,0,0)" fill-opacity="1" d=" M-52.694000244140625,30.761999130249023 C-53.94300079345703,32.387001037597656 -53.71900177001953,34.702999114990234 -52.189998626708984,36.069000244140625 C-47.880001068115234,39.922000885009766 -42.19900131225586,48.04100036621094 -38.733001708984375,50.034000396728516 C-37.07600021362305,50.98699951171875 -34.98500061035156,50.659000396728516 -33.69499969482422,49.249000549316406 C-33.69499969482422,49.249000549316406 41.650001525878906,-30.836000442504883 41.650001525878906,-30.836000442504883 C42.805999755859375,-32.099998474121094 43.51900100708008,-33.702999114990234 43.709999084472656,-35.40399932861328 C44.94200134277344,-46.37200164794922 44.731998443603516,-50.125 42.198001861572266,-59.316001892089844 C41.36199951171875,-62.34600067138672 37.85300064086914,-62.832000732421875 35.433998107910156,-60.82500076293945 C20.305999755859375,-48.28099822998047 -37.1349983215332,10.517999649047852 -52.694000244140625,30.761999130249023z"></path></g></g></g></svg>