<svg xmlns="http://www.w3.org/2000/svg" xmlns:xlink="http://www.w3.org/1999/xlink" viewBox="0 0 512 512" width="512" height="512" style="width: 100%; height: 100%; transform: translate3d(0,0,0);" preserveAspectRatio="xMidYMid meet"><defs><clipPath id="__lottie_element_53214"><rect width="512" height="512" x="0" y="0"></rect></clipPath></defs><g clip-path="url(#__lottie_element_53214)"><g style="display: block;" transform="matrix(1,0,0,1,8.75,24.53399658203125)" opacity="1"><g opacity="1" transform="matrix(1,0,0,1,251.75,241.35800170898438)"><path fill="rgb(0,0,0)" fill-opacity="1" d=" M-232.5,-59.89099884033203 C-247.75999450683594,-76.39700317382812 -251.5,-116.89099884033203 -244.5,-135.89100646972656 C-210.34500122070312,-228.5989990234375 -33.04100036621094,-241.10800170898438 -28.5,-230.89100646972656 C-24.5,-221.89100646972656 -103.5,-197.89100646972656 -125.5,-131.89100646972656 C-131.19200134277344,-114.81500244140625 -106.78700256347656,-113.61100006103516 -100.5,-124.89099884033203 C-66.5,-185.89100646972656 10.581000328063965,-232.5290069580078 24.5,-230.89100646972656 C41.5,-228.89100646972656 97.5,-165.89100646972656 114.5,-112.89099884033203 C119.55599975585938,-97.12899780273438 139.94400024414062,-97.8740005493164 140.5,-117.89099884033203 C141.5,-153.89100646972656 85.5,-198.89100646972656 88.5,-207.89100646972656 C92.4520034790039,-219.74899291992188 225.3509979248047,-161.58099365234375 237.8070068359375,-82.89099884033203 C251.5,3.61899995803833 171.4320068359375,68.92900085449219 170.5,80.10900115966797 C169.5,92.10900115966797 219.67599487304688,119.3030014038086 226.5,159.10899353027344 C232.5,194.10899353027344 221.2209930419922,220.45799255371094 196.5,228.10899353027344 C154.5,241.10899353027344 64.65799713134766,222.2830047607422 -5.5,171.10899353027344 C-90.5,109.10900115966797 -87.66699981689453,78.27400207519531 -109.5,65.10900115966797 C-128.78199768066406,53.481998443603516 -188.30299377441406,34.34600067138672 -220.5,25.108999252319336 C-233.2270050048828,21.45800018310547 -236.83999633789062,-16.608999252319336 -217.5,-14.890999794006348 C-184.33599853515625,-11.944000244140625 -139.62600708007812,7.421000003814697 -47.5,29.108999252319336 C37.2400016784668,49.05799865722656 116.5,40.10900115966797 115.5,27.108999252319336 C114.80699920654297,18.097999572753906 21.5,20.107999801635742 -50.5,1.1080000400543213 C-140.91600036621094,-22.75200080871582 -224.61099243164062,-51.358001708984375 -232.5,-59.89099884033203z"></path></g></g></g></svg>