<svg xmlns="http://www.w3.org/2000/svg" xmlns:xlink="http://www.w3.org/1999/xlink" viewBox="0 0 512 512" width="512" height="512" style="width: 100%; height: 100%; transform: translate3d(0,0,0);" preserveAspectRatio="xMidYMid meet"><defs><clipPath id="__lottie_element_53884"><rect width="512" height="512" x="0" y="0"></rect></clipPath></defs><g clip-path="url(#__lottie_element_53884)"><g style="display: block;" transform="matrix(1,0,0,1,38.71199035644531,10.75)" opacity="1"><g opacity="1" transform="matrix(1,0,0,1,223.9510040283203,250.75)"><path fill="rgb(0,0,0)" fill-opacity="1" d=" M-146.76699829101562,-127.34300231933594 C-154.0070037841797,-170.78199768066406 -115.73999786376953,-254.55599975585938 -3.00600004196167,-254.55599975585938 C101.4540023803711,-254.55599975585938 145.47500610351562,-177.91700744628906 137.65199279785156,-68.38999938964844 C133.51499938964844,-10.472000122070312 229.06500244140625,66.26599884033203 228.68699645996094,93.15699768066406 C228.41900634765625,112.22599792480469 212.52099609375,110.1449966430664 205.93299865722656,115.91000366210938 C197.65899658203125,123.1500015258789 216.53900146484375,155.47900390625 205.93299865722656,170.72500610351562 C189.38499450683594,194.51300048828125 108.97599792480469,242.11500549316406 77.68599700927734,238.98599243164062 C57.000999450683594,236.91799926757812 46.638999938964844,128.11900329589844 66.28900146484375,52.61800003051758 C78.56600189208984,5.448999881744385 87.8030014038086,6.815999984741211 83.94000244140625,-34.39699935913086 C82.33699798583984,-51.5 56.92300033569336,-77.65899658203125 -2.075000047683716,-75.58899688720703 C-61.027000427246094,-73.52100372314453 -96.66400146484375,-54.5 -97.22599792480469,-26.12299919128418 C-98.1989974975586,22.993999481201172 -77.47200012207031,26.76099967956543 -70.23200225830078,68.13099670410156 C-61.35300064086914,118.87000274658203 -55.775001525878906,227.54200744628906 -75.38300323486328,240.02000427246094 C-98.13700103759766,254.5 -195.3560028076172,217.26600646972656 -199.49400329589844,186.23899841308594 C-201.44700622558594,171.5970001220703 -189.25100708007812,157.0659942626953 -196.39100646972656,141.76600646972656 C-203.63099670410156,126.25199890136719 -233.59100341796875,129.61700439453125 -233.62399291992188,113.84200286865234 C-233.66299438476562,95.2249984741211 -182.96600341796875,45.37799835205078 -166.41799926757812,-8.402999877929688 C-157.218994140625,-38.29899978637695 -163.02099609375,-44.29399871826172 -155.04100036621094,-64.25299835205078 C-150.04100036621094,-76.75800323486328 -101.88300323486328,-135.09100341796875 -11.279999732971191,-139.75399780273438 C64.39199829101562,-143.6490020751953 94.02899932861328,-101.63400268554688 107.65899658203125,-107.69200134277344 C116.96700286865234,-111.8290023803711 90.0770034790039,-172.8489990234375 -11.279999732971191,-170.781005859375 C-102.37000274658203,-168.9219970703125 -142.97500610351562,-104.58799743652344 -146.76699829101562,-127.34300231933594z"></path></g></g></g></svg>