<svg xmlns="http://www.w3.org/2000/svg" xmlns:xlink="http://www.w3.org/1999/xlink" viewBox="0 0 512 512" width="512" height="512" style="width: 100%; height: 100%; transform: translate3d(0,0,0);" preserveAspectRatio="xMidYMid meet"><defs><clipPath id="__lottie_element_52070"><rect width="512" height="512" x="0" y="0"></rect></clipPath></defs><g clip-path="url(#__lottie_element_52070)"><g style="display: block;" transform="matrix(1,0,0,1,256,255.99998474121094)" opacity="1"><g opacity="1" transform="matrix(1,0,0,1,0,0)"><path fill="rgb(0,0,0)" fill-opacity="1" d=" M-85.19499969482422,-230.3209991455078 C-144.5229949951172,-208.4810028076172 -172.67799377441406,-142.13299560546875 -142.43600463867188,-90.26100158691406 C-232.89199829101562,-61.0369987487793 -242.69500732421875,57.01900100708008 -157.26499938964844,90.7760009765625 C-113.63700103759766,108.01499938964844 -48.07899856567383,97.14700317382812 -20.851999282836914,33.11600112915039 C-20.851999282836914,33.11600112915039 -20.674999237060547,32.69900131225586 -20.674999237060547,32.69900131225586 C-17.125999450683594,24.35300064086914 -4.603000164031982,27.385000228881836 -5.191999912261963,36.39799880981445 C-6.110000133514404,50.08599853515625 -8.196000099182129,62.98699951171875 -13.446999549865723,77.71199798583984 C-15.960000038146973,84.76000213623047 -15.918000221252441,92.47100067138672 -13.333000183105469,99.49299621582031 C-13.333000183105469,99.49299621582031 35.06999969482422,230.98399353027344 35.06999969482422,230.98399353027344 C44.8129997253418,257.45098876953125 132.07899475097656,225.32699584960938 122.33699798583984,198.86099243164062 C122.33699798583984,198.86099243164062 122.33699798583984,198.86099243164062 122.33699798583984,198.86099243164062 C122.33699798583984,198.86099243164062 199.10400390625,170.6020050048828 199.10400390625,170.6020050048828 C214.5279998779297,164.9239959716797 222.4290008544922,147.8179931640625 216.75100708007812,132.3939971923828 C216.75100708007812,132.3939971923828 216.75100708007812,132.3939971923828 216.75100708007812,132.3939971923828 C211.072998046875,116.97000122070312 193.9669952392578,109.06800079345703 178.54299926757812,114.74600219726562 C178.54299926757812,114.74600219726562 166.75999450683594,119.08300018310547 166.75999450683594,119.08300018310547 C166.75999450683594,119.08300018310547 156.47900390625,91.15499877929688 156.47900390625,91.15499877929688 C150.80099487304688,75.73100280761719 133.69500732421875,67.83000183105469 118.27100372314453,73.50800323486328 C118.27100372314453,73.50800323486328 81.21499633789062,87.14800262451172 81.21499633789062,87.14800262451172 C81.21499633789062,87.14800262451172 56.729000091552734,20.631000518798828 56.729000091552734,20.631000518798828 C136.22300720214844,40.7869987487793 212.16299438476562,-34.72999954223633 184.9239959716797,-108.7300033569336 C184.9239959716797,-108.7300033569336 184.9239959716797,-108.73100280761719 184.9239959716797,-108.73100280761719 C165.52699279785156,-161.42300415039062 102.94300079345703,-183.78599548339844 49.20600128173828,-160.7449951171875 C38.47999954223633,-220.73800659179688 -26.430999755859375,-251.9510040283203 -85.19499969482422,-230.3209991455078z M-102.66000366210938,31.072999954223633 C-151.2760009765625,48.96900177001953 -173.69000244140625,-10.670000076293945 -124.66699981689453,-28.711000442504883 C-75.99700164794922,-46.62799835205078 -53.41999816894531,12.946000099182129 -102.66000366210938,31.072999954223633z M-63.08599853515625,-170.26100158691406 C-41.722999572753906,-178.125 -20.71299934387207,-169.4709930419922 -15.022000312805176,-154.00999450683594 C-15.022000312805176,-154.00999450683594 -15.022000312805176,-154.01100158691406 -15.022000312805176,-154.01100158691406 C-9.04800033569336,-137.78199768066406 -20.62700080871582,-118.00299835205078 -41.07899856567383,-110.47699737548828 C-89.61599731445312,-92.61000061035156 -112.27899932861328,-152.15199279785156 -63.08599853515625,-170.26100158691406z M98.80699920654297,-43.0890007019043 C50.27000045776367,-25.222000122070312 27.60700035095215,-84.76399993896484 76.80000305175781,-102.87300109863281 C126.40299987792969,-121.13400268554688 147.18899536132812,-60.89899826049805 98.80699920654297,-43.0890007019043z"></path></g></g></g></svg>