<svg xmlns="http://www.w3.org/2000/svg" xmlns:xlink="http://www.w3.org/1999/xlink" viewBox="0 0 512 512" width="512" height="512" style="width: 100%; height: 100%; transform: translate3d(0,0,0);" preserveAspectRatio="xMidYMid meet"><defs><clipPath id="__lottie_element_53329"><rect width="512" height="512" x="0" y="0"></rect></clipPath></defs><g clip-path="url(#__lottie_element_53329)"><g style="display: block;" transform="matrix(1,0,0,1,0,0)" opacity="1"><g opacity="1" transform="matrix(1,0,0,1,171.5,286.4670104980469)"><path fill="rgb(0,0,0)" fill-opacity="1" d=" M86.96299743652344,-43.845001220703125 C60.87900161743164,-69.82499694824219 56.551998138427734,-84.86399841308594 69.4520034790039,-115.9000015258789 C80.59100341796875,-142.69500732421875 75.32499694824219,-157.6439971923828 51.382999420166016,-172.85000610351562 C46.108001708984375,-176.1999969482422 40.6150016784668,-179.2030029296875 35.09199905395508,-182.09300231933594 C4.915999889373779,-197.88400268554688 -32.33300018310547,-174.88699340820312 -34.319000244140625,-139.42999267578125 C-35.09400177001953,-125.59500122070312 -36.308998107910156,-111.78600311279297 -37.382999420166016,-97.97000122070312 C-38.393001556396484,-84.96399688720703 -44.16600036621094,-75.22699737548828 -55.46799850463867,-69.3219985961914 C-66.12899780273438,-63.750999450683594 -76.7030029296875,-57.99300003051758 -87.43399810791016,-52.57400131225586 C-118.06600189208984,-37.108001708984375 -143.71499633789062,-16.517000198364258 -157.67799377441406,17.565000534057617 C-181.19000244140625,74.95099639892578 -153.81100463867188,136.11199951171875 -96.7750015258789,153.1929931640625 C-92.66100311279297,154.4250030517578 -88.7030029296875,158.3730010986328 -85.947998046875,162.093994140625 C-69.48600006103516,184.3300018310547 -48.16400146484375,197.88499450683594 -15.435999870300293,197.5260009765625 C17.285999298095703,197.16799926757812 26.90999984741211,177.2449951171875 40.5,173.5330047607422 C45.5,173.5330047607422 60.45500183105469,175.6529998779297 81.0510025024414,171.46400451660156 C90.97000122070312,169.44700622558594 115.56900024414062,160.5850067138672 129.80999755859375,141.51199340820312 C139.5,128.5330047607422 136.5,114.53299713134766 136.5,114.53299713134766 C144.5,108.53299713134766 149.48800659179688,101.60700225830078 152.5,96.53299713134766 C171.5,64.53299713134766 158.99099731445312,26.591999053955078 131.1490020751953,-1.996999979019165 C116.9800033569336,-16.545000076293945 101.3489990234375,-29.516000747680664 86.96299743652344,-43.845001220703125z M-73.41400146484375,27.996999740600586 C-78.56700134277344,39.93199920654297 -88.06099700927734,67.03199768066406 -93.06999969482422,79.2020034790039 C-94.79299926757812,83.38899993896484 -105.30899810791016,95.8740005493164 -113.73899841308594,84.1760025024414 C-121.70700073242188,73.12000274658203 -119.36599731445312,62.132999420166016 -115.00900268554688,49.250999450683594 C-110.29199981689453,35.305999755859375 -56.470001220703125,-25.26099967956543 -34.766998291015625,-30.81800079345703 C-36.7859992980957,-26.55699920654297 -54.47600173950195,-15.862000465393066 -73.41400146484375,27.996999740600586z M12.427000045776367,139.13900756835938 C-3.6440000534057617,144.9530029296875 -17.597999572753906,118.8479995727539 -20.218000411987305,97.2750015258789 C-25.211999893188477,56.141998291015625 -12.614999771118164,1.8910000324249268 -10.621000289916992,-10.640999794006348 C-9.625,-7.507999897003174 -8.628000259399414,18.599000930786133 -1.6510000228881836,50.97100067138672 C3.2929999828338623,74.81300354003906 7.318999767303467,83.34300231933594 14.631999969482422,110.26399993896484 C18.283000946044922,126.15799713134766 18.961000442504883,136.7760009765625 12.427000045776367,139.13900756835938z M108.73799896240234,83.45600128173828 C74.17900085449219,101.47899627685547 61.551998138427734,20.37700080871582 53.60100173950195,-8.069999694824219 C55.1870002746582,-8.454000473022461 92.81500244140625,41.529998779296875 109.21800231933594,67.47799682617188 C111.63200378417969,71.2979965209961 114.96399688720703,80.20899963378906 108.73799896240234,83.45600128173828z"></path></g><g opacity="1" transform="matrix(1,0,0,1,381.5530090332031,213.24400329589844)"><path fill="rgb(0,0,0)" fill-opacity="1" d=" M126.49099731445312,59.74700164794922 C109.23400115966797,-15.73799991607666 19.964000701904297,-56.35599899291992 3.812000036239624,-64.72599792480469 C-6.36899995803833,-70.00199890136719 -12.550000190734863,-76.44400024414062 -13.553000450134277,-87.24400329589844 C-14.791999816894531,-100.58300018310547 -13.437000274658203,-115.9219970703125 -15.409000396728516,-129.16700744628906 C-17.509000778198242,-143.26600646972656 -21.437000274658203,-157.86199951171875 -33.553001403808594,-165.24400329589844 C-56.00899887084961,-178.9250030517578 -79.94499969482422,-177.92300415039062 -100.2490005493164,-162.2050018310547 C-127.50499725341797,-141.10499572753906 -130.1739959716797,-122.43800354003906 -115.7030029296875,-90.95099639892578 C-108.75499725341797,-75.83100128173828 -105.76899719238281,-61.499000549316406 -113.63899993896484,-44.691001892089844 C-122.61699676513672,-25.520999908447266 -116.1729965209961,-5.081999778747559 -100.5469970703125,8.678000450134277 C-90.4000015258789,17.61400032043457 -79.72100067138672,26.024999618530273 -70.4229965209961,35.856998443603516 C-39.86899948120117,68.16899871826172 -17.930999755859375,112.2959976196289 -20.55299949645996,143.75599670410156 C-21.55299949645996,155.75599670410156 -27.554000854492188,168.75599670410156 -26.996000289916992,168.98500061035156 C5.035999774932861,178.92599487304688 41.9630012512207,168.62399291992188 61.09299850463867,141.86500549316406 C68.80400085449219,131.0780029296875 77.93800354003906,124.17400360107422 90.3219985961914,119.72699737548828 C120.53199768066406,108.87799835205078 130.17300415039062,92.65399932861328 126.49099731445312,59.74700164794922z M65.40399932861328,69.14399719238281 C64.03900146484375,76.427001953125 58.053001403808594,77.7979965209961 53.012001037597656,70.45800018310547 C32.44599914550781,22.756000518798828 -12.446000099182129,-25.457000732421875 -13.23799991607666,-27.010000228881836 C-12.722999572753906,-27.95800018310547 4.9019999504089355,-22.937000274658203 12.388999938964844,-18.10099983215332 C34.6870002746582,-3.697000026702881 55.814998626708984,12.67300033569336 65,39.67399978637695 C68.00700378417969,48.51499938964844 67.18800354003906,59.62799835205078 65.40399932861328,69.14399719238281z"></path></g></g></g></svg>