<svg xmlns="http://www.w3.org/2000/svg" xmlns:xlink="http://www.w3.org/1999/xlink" viewBox="0 0 512 512" width="512" height="512" style="width: 100%; height: 100%; transform: translate3d(0,0,0);" preserveAspectRatio="xMidYMid meet"><defs><clipPath id="__lottie_element_51995"><rect width="512" height="512" x="0" y="0"></rect></clipPath></defs><g clip-path="url(#__lottie_element_51995)"><g style="display: block;" transform="matrix(1,0,0,1,0,0)" opacity="1"><g opacity="1" transform="matrix(1,0,0,1,296.875,190.89999389648438)"><path fill="rgb(0,0,0)" fill-opacity="1" d=" M189.125,-154.89999389648438 C150.125,-162.89999389648438 -127.875,-141.89999389648438 -152.875,-119.9000015258789 C-165.59500122070312,-108.72000122070312 -201.11500549316406,124.26000213623047 -189.8350067138672,150.5 C-184.8249969482422,145.8800048828125 -179.69500732421875,141.7899932861328 -174.61500549316406,138.3800048828125 C-161.94500732421875,129.86900329589844 -144.85499572753906,145.17999267578125 -155.875,154.10000610351562 C-157.35499572753906,155.3000030517578 -158.80499267578125,156.5 -160.21499633789062,157.6999969482422 C-91.3550033569336,162.89999389648438 77.86499786376953,156.0500030517578 107.13500213623047,144.15899658203125 C119.50499725341797,139.13999938964844 152.22500610351562,20.030000686645508 148.125,11.100000381469727 C136.55499267578125,-14.100000381469727 76.29499816894531,-15.930000305175781 76.71499633789062,-18.40999984741211 C77.13500213623047,-20.979999542236328 130.625,-44.5099983215332 169.625,-41.5099983215332 C175.9149932861328,-41.02000045776367 201.11500549316406,-152.44000244140625 189.125,-154.89999389648438z M125.17500305175781,-99.56999969482422 C83.50499725341797,-81.62000274658203 42.70500183105469,-55.150001525878906 5.465000152587891,-25.610000610351562 C48.85599899291992,16.90999984741211 76.48899841308594,56.95100021362305 93.18099975585938,100.43000030517578 C98.1449966430664,113.36100006103516 79.75700378417969,125.40499877929688 73.1449966430664,110.60600280761719 C55.987998962402344,72.20500183105469 23.655000686645508,30.25 -15.53499984741211,-8.350000381469727 C-57.974998474121094,27.829999923706055 -94.70500183105469,66.83999633789062 -121.26499938964844,99.5999984741211 C-133.09500122070312,114.19000244140625 -149.38499450683594,98.37999725341797 -140.46499633789062,84.63999938964844 C-120.33499908447266,53.56999969482422 -81.3949966430664,12.100000381469727 -35.29499816894531,-26.31999969482422 C-62.244998931884766,-48.849998474121094 -91.44499969482422,-65.41999816894531 -119.875,-71.9000015258789 C-130.77499389648438,-74.37999725341797 -127.94499969482422,-92.29000091552734 -112.875,-90.9000015258789 C-80.32499694824219,-87.9000015258789 -45.60499954223633,-69.56999969482422 -14.135000228881836,-43.34000015258789 C27.424999237060547,-75.55000305175781 73.04499816894531,-103.95999908447266 115.16500091552734,-119.83000183105469 C131.40499877929688,-125.94000244140625 143.6959991455078,-107.55000305175781 125.17500305175781,-99.56999969482422z"></path></g><g opacity="1" transform="matrix(1,0,0,1,129.52999877929688,334.68499755859375)"><path fill="rgb(0,0,0)" fill-opacity="1" d=" M11.470000267028809,10.3149995803833 C9.989999771118164,11.515000343322754 8.539999961853027,12.71500015258789 7.130000114440918,13.914999961853027 C-8.720000267028809,12.71500015258789 -19.25,10.875 -21.530000686645508,8.3149995803833 C-21.8799991607666,7.925000190734863 -22.200000762939453,7.385000228881836 -22.489999771118164,6.715000152587891 C-17.479999542236328,2.0950000286102295 -12.350000381469727,-1.9950000047683716 -7.269999980926514,-5.40500020980835 C5.400000095367432,-13.914999961853027 22.489999771118164,1.3949999809265137 11.470000267028809,10.3149995803833z"></path></g><g opacity="1" transform="matrix(1,0,0,1,211.08999633789062,406.0799865722656)"><path fill="rgb(0,0,0)" fill-opacity="1" d=" M227.41000366210938,77.91999816894531 C224.44000244140625,92.75 203.41000366210938,91.91999816894531 203.41000366210938,76.91999816894531 C203.41000366210938,67.27999877929688 202.24000549316406,56.369998931884766 197.97999572753906,46.02000045776367 C194.74000549316406,38.130001068115234 189.7100067138672,30.56999969482422 182.0500030517578,24.139999389648438 C173.5,16.950000762939453 163.41000366210938,9.420000076293945 145.41000366210938,7.920000076293945 C134.31300354003906,6.994999885559082 122.06999969482422,10.789999961853027 108.33999633789062,19.190000534057617 C99.12000274658203,24.829999923706055 84.87699890136719,32.069000244140625 74.48999786376953,39.47999954223633 C16.40999984741211,80.91999816894531 -56.599998474121094,88.30999755859375 -103.08999633789062,71.91999816894531 C-133.1199951171875,61.33000183105469 -146.08999633789062,37.91999816894531 -145.30999755859375,9.899999618530273 C-144.89300537109375,-5.078000068664551 -138.64999389648438,-21.829999923706055 -129.07000732421875,-35.709999084472656 C-121.66000366210938,-46.45000076293945 -113.02999877929688,-56.40999984741211 -104.05000305175781,-64.68000030517578 C-99.04000091552734,-69.30000305175781 -93.91000366210938,-73.38999938964844 -88.83000183105469,-76.80000305175781 C-76.16000366210938,-85.30999755859375 -59.06999969482422,-70 -70.08999633789062,-61.08000183105469 C-71.56999969482422,-59.880001068115234 -73.0199966430664,-58.68000030517578 -74.43000030517578,-57.47999954223633 C-86.11000061035156,-47.58000183105469 -95.43000030517578,-37.77000045776367 -102.62000274658203,-28.350000381469727 C-113.95999908447266,-13.5 -113.02999877929688,-4.590000152587891 -114.76000213623047,7.25 C-117.44000244140625,25.600000381469727 -96.69999694824219,41.9900016784668 -82.04000091552734,46.25 C-51.560001373291016,55.099998474121094 15.40999984741211,50.91999816894531 60.06999969482422,14.119999885559082 C72.19000244140625,4.132999897003174 90.02999877929688,-4.360000133514404 103.69000244140625,-10.510000228881836 C117.77999877929688,-16.850000381469727 132.4980010986328,-19.19700050354004 148.41000366210938,-18.079999923706055 C176.91000366210938,-16.079999923706055 192.47000122070312,-4.190000057220459 205.14999389648438,9.09000015258789 C212.1699981689453,16.43000030517578 217.4199981689453,24.6200008392334 221.13999938964844,32.97999954223633 C228.32000732421875,49.060001373291016 229.85000610351562,65.72000122070312 227.41000366210938,77.91999816894531z"></path></g><g opacity="1" transform="matrix(1,0,0,1,84.7969970703125,391.677001953125)"><path fill="rgb(0,0,0)" fill-opacity="1" d=" M-66.26399993896484,30.312000274658203 C-48.882999420166016,8.842000007629395 -17.75200080871582,27.63599967956543 -0.328000009059906,20.424999237060547 C12.020999908447266,15.314000129699707 38.57099914550781,-29.08099937438965 56.93600082397461,-25.23200035095215 C84.08599853515625,-19.54199981689453 100.1520004272461,39.22200012207031 85.14800262451172,53.93600082397461 C74.97799682617188,63.909000396728516 23.503000259399414,51.8380012512207 10.770999908447266,59.84000015258789 C-0.8059999942779541,67.11599731445312 -8.871000289916992,105.49199676513672 -32.79100036621094,103.97699737548828 C-62.83399963378906,102.0739974975586 -79.12899780273438,46.20399856567383 -66.26399993896484,30.312000274658203z"></path></g><g opacity="1" transform="matrix(1,0,0,1,342.97100830078125,421.1669921875)"><path fill="rgb(0,0,0)" fill-opacity="1" d=" M-16.81399917602539,-15.454999923706055 C-10.970999717712402,-4.166999816894531 23.350000381469727,-3.7699999809265137 28.177000045776367,11.876999855041504 C36.02899932861328,37.33300018310547 -33.47100067138672,75.83200073242188 -51.314998626708984,48.887001037597656 C-58.73899841308594,37.67599868774414 -40.1879997253418,11.293999671936035 -44.582000732421875,1.4359999895095825 C-47.97100067138672,-6.168000221252441 -89.38400268554688,-2.6519999504089355 -94.61399841308594,-23.415000915527344 C-100.47100067138672,-46.66699981689453 -37.60100173950195,-75.25800323486328 -20.55699920654297,-64.15699768066406 C5.5289998054504395,-47.16699981689453 -23.4689998626709,-28.31100082397461 -16.81399917602539,-15.454999923706055z"></path></g></g></g></svg>