<svg xmlns="http://www.w3.org/2000/svg" xmlns:xlink="http://www.w3.org/1999/xlink" viewBox="0 0 512 512" width="512" height="512" style="width: 100%; height: 100%; transform: translate3d(0,0,0);" preserveAspectRatio="xMidYMid meet"><defs><clipPath id="__lottie_element_52568"><rect width="512" height="512" x="0" y="0"></rect></clipPath></defs><g clip-path="url(#__lottie_element_52568)"><g style="display: block;" transform="matrix(1,0,0,1,1.9929962158203125,-2486.760009765625)" opacity="1"><g opacity="1" transform="matrix(1,0,0,1,251.11000061035156,2742.2958984375)"><path fill="rgb(0,0,0)" fill-opacity="1" d=" M0.39399999380111694,244.03799438476562 C-18.64900016784668,244.01699829101562 -38.63999938964844,239.2259979248047 -52.66899871826172,225.85299682617188 C-55.494998931884766,223.0330047607422 -57.94900131225586,219.81399536132812 -60.16999816894531,216.40899658203125 C-77.66500091552734,186.70899963378906 -91.76699829101562,154.3419952392578 -118.76599884033203,131.58299255371094 C-130.4980010986328,121.48200225830078 -143.77699279785156,113.0739974975586 -157.8470001220703,106.73899841308594 C-181.27999877929688,96.302001953125 -207.31900024414062,92.302001953125 -231.1790008544922,82.86399841308594 C-240.093994140625,79.35600280761719 -250.86000061035156,74.07099914550781 -247.406005859375,63.676998138427734 C-244.83599853515625,56.641998291015625 -236.6649932861328,50.09700012207031 -230.84500122070312,44.54199981689453 C-221.99099731445312,36.47100067138672 -213.37100219726562,28.006999969482422 -206.03399658203125,18.698999404907227 C-182.85000610351562,-10.251999855041504 -168.1580047607422,-49.512001037597656 -180.27499389648438,-86.15699768066406 C-182.67599487304688,-93.92900085449219 -185.9759979248047,-101.48799896240234 -189.3070068359375,-108.88300323486328 C-204.91200256347656,-143.07000732421875 -218.96099853515625,-178.01800537109375 -228.1020050048828,-214.5749969482422 C-229.30499267578125,-219.69400024414062 -230.3179931640625,-225.14999389648438 -229.9219970703125,-230.30499267578125 C-229.406005859375,-237.56500244140625 -225.36000061035156,-242.64199829101562 -218.3699951171875,-241.5959930419922 C-212.35000610351562,-240.63099670410156 -207.0399932861328,-236.59100341796875 -202.0760040283203,-233.1490020751953 C-191.22999572753906,-225.35000610351562 -180.51199340820312,-217.35800170898438 -169.73500061035156,-209.45599365234375 C-134.60000610351562,-183.8419952392578 -100.01899719238281,-157.46800231933594 -64.75700378417969,-132.0260009765625 C-46.64699935913086,-119.23799896240234 -28.79199981689453,-121.35199737548828 -7.938000202178955,-121.68699645996094 C11.564000129699707,-122.677001953125 32.540000915527344,-118.44599914550781 50.96200180053711,-125.43900299072266 C58.452999114990234,-128.34800720214844 65.3030014038086,-133.01800537109375 71.7979965209961,-137.80299377441406 C114.83499908447266,-170.3419952392578 158.33799743652344,-202.25100708007812 202.0659942626953,-233.81399536132812 C205.56300354003906,-236.3260040283203 209.36199951171875,-239.03900146484375 213.22900390625,-240.58099365234375 C222.1219940185547,-244.3679962158203 228.55299377441406,-239.3520050048828 228.85699462890625,-229.7729949951172 C229.09500122070312,-220.81100463867188 226.0760040283203,-211.94000244140625 223.7949981689453,-203.322998046875 C214.1580047607422,-170.01300048828125 200.31900024414062,-138.0540008544922 186.71499633789062,-106.1780014038086 C169.72999572753906,-70.76100158691406 170.5760040283203,-40.36800003051758 188.90699768066406,-5.604000091552734 C200.08900451660156,16.339000701904297 217.26300048828125,33.77899932861328 235.49899291992188,50.04899978637695 C242.22500610351562,56.505001068115234 250.86000061035156,64.71199798583984 244.76100158691406,73.55899810791016 C240.12600708007812,79.6719970703125 229.76699829101562,83.00199890136719 222.1060028076172,85.68900299072266 C194.66299438476562,95.18900299072266 164.7949981689453,100.09200286865234 139.59500122070312,115.13800048828125 C123.19400024414062,124.93900299072266 109.0469970703125,138.21499633789062 97.36199951171875,153.29400634765625 C80.0510025024414,176.12100219726562 68.7979965209961,203.38099670410156 48.26499938964844,223.83700561523438 C35.016998291015625,237.7239990234375 20.166000366210938,244.3679962158203 0.6010000109672546,244.03799438476562 C0.6010000109672546,244.03799438476562 0.39399999380111694,244.03799438476562 0.39399999380111694,244.03799438476562z M-122.80000305175781,-22.316999435424805 C-134.4600067138672,-22.20400047302246 -144.41799926757812,-14.095000267028809 -138.3780059814453,-2.4210000038146973 C-135.7899932861328,2.638000011444092 -131.02099609375,6.8480000495910645 -126.47899627685547,10.390000343322754 C-119.86699676513672,15.468000411987305 -112.98100280761719,20.19499969482422 -106.00599670410156,24.756000518798828 C-93.39399719238281,33.11000061035156 -56.1609992980957,55.15299987792969 -41.90700149536133,48.70399856567383 C-34.00299835205078,43.95600128173828 -38.222999572753906,31.8799991607666 -39.56800079345703,24.062999725341797 C-41.750999450683594,14.348999977111816 -43.236000061035156,3.4830000400543213 -50.676998138427734,-3.7769999504089355 C-61.07699966430664,-13.373000144958496 -79.02899932861328,-15.744999885559082 -92.78500366210938,-18.714000701904297 C-102.62899780273438,-20.322999954223633 -112.6050033569336,-22.52899932861328 -122.59700012207031,-22.326000213623047 C-122.59700012207031,-22.326000213623047 -122.80000305175781,-22.316999435424805 -122.80000305175781,-22.316999435424805z M44.51900100708008,49.862998962402344 C59.39799880981445,55.12300109863281 101.33300018310547,27.48200035095215 114.54199981689453,18.211000442504883 C123.18499755859375,11.677000045776367 134.2270050048828,5.4770002365112305 138.16799926757812,-5.081999778747559 C141.11099243164062,-13.517999649047852 134.95399475097656,-20.540000915527344 126.61799621582031,-22.014999389648438 C120.99500274658203,-23.20199966430664 115.00199890136719,-22.767000198364258 109.29100036621094,-22.12700080871582 C97.15899658203125,-20.62700080871582 85.19999694824219,-17.80900001525879 73.35199737548828,-14.762999534606934 C66.197998046875,-12.824999809265137 58.452999114990234,-10.892999649047852 52.74599838256836,-6 C45.60599899291992,0.07999999821186066 43.76100158691406,9.416000366210938 41.888999938964844,18.732999801635742 C40.70199966430664,27.479000091552734 34.31100082397461,45.29800033569336 44.380001068115234,49.80699920654297 C44.380001068115234,49.80699920654297 44.51900100708008,49.862998962402344 44.51900100708008,49.862998962402344z M-0.6190000176429749,161.73699951171875 C-11.621000289916992,162.17799377441406 -35.73400115966797,161.8000030517578 -35.23699951171875,177.46299743652344 C-33.14400100708008,193.81100463867188 -15.498000144958496,204.83700561523438 0.19300000369548798,204.2740020751953 C15.07800006866455,204.25399780273438 32.15599822998047,192.84500122070312 34.02799987792969,177.45799255371094 C34.518001556396484,161.89100646972656 10.970000267028809,162.17599487304688 -0.4090000092983246,161.73699951171875 C-0.4090000092983246,161.73699951171875 -0.6190000176429749,161.73699951171875 -0.6190000176429749,161.73699951171875z"></path></g></g></g></svg>