<svg xmlns="http://www.w3.org/2000/svg" xmlns:xlink="http://www.w3.org/1999/xlink" viewBox="0 0 512 512" width="512" height="512" style="width: 100%; height: 100%; transform: translate3d(0,0,0);" preserveAspectRatio="xMidYMid meet"><defs><clipPath id="__lottie_element_53319"><rect width="512" height="512" x="0" y="0"></rect></clipPath></defs><g clip-path="url(#__lottie_element_53319)"><g style="display: block;" transform="matrix(1,0,0,1,246.34500122070312,255.4810028076172)" opacity="1"><g opacity="1" transform="matrix(1,0,0,1,0,0)"><path fill="rgb(0,0,0)" fill-opacity="1" d=" M-183.89,9.99 C-219.06,13.94 -170.18,67.61 -161.54,35.32 C-160.18,23.96 -172.63,9.84 -183.89,9.99z M-92.09,181.84 C-89.65,226.61 -38.72,197.35 -53.99,185.13 C-62.04,178.68 -93.25,160.69 -92.09,181.84z M134.2,121.96 C116.87,119.41 97.51,141.8 118.24,152.24 C143.74,165.05 171.56,125.29 134.2,121.96z M114.28,-17.2 C116.17,-57.74 75.69,-51.52 60.71,-24.19 C53.33,-9.26 29.1,0.64 35.33,19.37 C55.09,50.38 114.01,12.62 114.28,-17.2z M-70.05,-58.24 C-70.21,-34.8 -63.78,-17.31 -48.17,-4.43 C-35.06,6.38 -20.21,0.95 -19.13,-15.69 C-21.45,-38.13 -8.52,-86.94 -32.32,-98.02 C-54.09,-104.64 -71.48,-74.89 -70.05,-58.24z M42.66,118.8 C71.38,115.54 126.41,100.71 138.82,80.16 C144.98,69.95 120.93,71.77 107.05,69.71 C53.29,61.72 -33.14,117.03 42.66,118.8z M-145.1,-23.98 C-141.47,18.59 -116.16,60.42 -76.59,78.08 C-54.74,78.25 -76.26,26.78 -82.07,15.69 C-94.23,-7.67 -114.95,-22.97 -134.51,-39.25 C-144.43,-46.61 -146.06,-32.54 -145.1,-23.98z M229.1739959716797,-42.847999572753906 C232.2899932861328,121.81199645996094 185.29100036621094,244.89199829101562 -0.6129999756813049,221.01300048828125 C-9.675999641418457,219.54100036621094 -15.970000267028809,222.79600524902344 -22.440000534057617,228.9720001220703 C-62.22200012207031,272.5880126953125 -142.28199768066406,249.21299743652344 -137.96099853515625,188.14999389648438 C-134.7969970703125,165.8990020751953 -173.17999267578125,151.427001953125 -189.28199768066406,134.33799743652344 C-246.2270050048828,73.9000015258789 -235.95899963378906,-2.2699999809265137 -198.68600463867188,-64.08300018310547 C-152.5229949951172,-137.53599548339844 -96.01699829101562,-220.46600341796875 -11.397000312805176,-250.95199584960938 C38.35599899291992,-257.6830139160156 33.19499969482422,-188.16900634765625 30.14900016784668,-155.38600158691406 C28.231000900268555,-143.17799377441406 29.065000534057617,-142.00999450683594 40.39699935913086,-138.5749969482422 C91.6259994506836,-123.1719970703125 79.38099670410156,-112.43099975585938 113.64900207519531,-158.2550048828125 C223.92300415039062,-291.4939880371094 227.58299255371094,-126.93099975585938 229.1739959716797,-42.847999572753906z"></path><g opacity="1" transform="matrix(1,0,0,1,-178.947998046875,27.799999237060547)"></g><g opacity="1" transform="matrix(1,0,0,1,-71.63300323486328,188.8509979248047)"></g><g opacity="1" transform="matrix(1,0,0,1,130.81700134277344,138.26800537109375)"></g><g opacity="1" transform="matrix(1,0,0,1,74.33100128173828,-7.5929999351501465)"></g><g opacity="1" transform="matrix(1,0,0,1,-43.89799880981445,-48.89799880981445)"></g><g opacity="1" transform="matrix(1,0,0,1,76.33599853515625,93.85900115966797)"></g><g opacity="1" transform="matrix(1,0,0,1,-106.16999816894531,18.38599967956543)"></g><g opacity="1" transform="matrix(1,0,0,1,0,0)"></g></g></g></g></svg>