<svg xmlns="http://www.w3.org/2000/svg" xmlns:xlink="http://www.w3.org/1999/xlink" viewBox="0 0 512 512" width="512" height="512" style="width: 100%; height: 100%; transform: translate3d(0,0,0);" preserveAspectRatio="xMidYMid meet"><defs><clipPath id="__lottie_element_52683"><rect width="512" height="512" x="0" y="0"></rect></clipPath></defs><g clip-path="url(#__lottie_element_52683)"><g style="display: block;" transform="matrix(1,0,0,1,256,256)" opacity="1"><g opacity="1" transform="matrix(1,0,0,1,0,0)"><path fill="rgb(0,0,0)" fill-opacity="1" d=" M236.3699951171875,60.409000396728516 C236.3699951171875,60.409000396728516 210.15499877929688,58.97800064086914 210.15499877929688,58.97800064086914 C209.947998046875,39.89500045776367 204.08299255371094,18.336999893188477 191.73899841308594,-9.14799976348877 C186.072998046875,-21.76300048828125 179.06300354003906,-33.34199905395508 170.74000549316406,-43.854000091552734 C171.3209991455078,-64.74099731445312 168.18600463867188,-88.33100128173828 161.54100036621094,-111.43900299072266 C157.447998046875,-125.6729965209961 152.32699584960938,-138.3979949951172 146.73199462890625,-148.23699951171875 C139.3800048828125,-161.1649932861328 131.50399780273438,-168.73300170898438 122.6510009765625,-171.37399291992188 C122.6510009765625,-171.37399291992188 122.6510009765625,-171.37399291992188 122.6500015258789,-171.37399291992188 C105.51499938964844,-176.48599243164062 84.97699737548828,-167.00399780273438 63.26100158691406,-143.95899963378906 C54.47800064086914,-134.63800048828125 45.939998626708984,-123.45500183105469 39.03300094604492,-112.51399993896484 C24.493000030517578,-114.50800323486328 11.156999588012695,-115.15399932861328 0.024000000208616257,-115.15399932861328 C-11.001999855041504,-115.15399932861328 -24.190000534057617,-114.51899719238281 -38.56700134277344,-112.56999969482422 C-45.46799850463867,-123.49400329589844 -53.992000579833984,-134.6540069580078 -62.7599983215332,-143.95899963378906 C-84.47699737548828,-167.00399780273438 -105.01399993896484,-176.48300170898438 -122.14900207519531,-171.37399291992188 C-122.1500015258789,-171.37399291992188 -122.1500015258789,-171.37399291992188 -122.1500015258789,-171.37399291992188 C-131.0030059814453,-168.73300170898438 -138.87899780273438,-161.1649932861328 -146.2310028076172,-148.23699951171875 C-151.8260040283203,-138.3979949951172 -156.94700622558594,-125.6729965209961 -161.0399932861328,-111.43900299072266 C-167.6269989013672,-88.53099822998047 -170.76499938964844,-65.1500015258789 -170.2530059814453,-44.39699935913086 C-178.76699829101562,-33.7400016784668 -185.927001953125,-21.98200035095215 -191.6909942626953,-9.14799976348877 C-204.03399658203125,18.336000442504883 -209.89999389648438,39.89400100708008 -210.10699462890625,58.97600173950195 C-210.10699462890625,58.97600173950195 -236.3699951171875,60.409000396728516 -236.3699951171875,60.409000396728516 C-241.88499450683594,60.709999084472656 -246.11099243164062,65.42400360107422 -245.80999755859375,70.93900299072266 C-245.5189971923828,76.26799774169922 -241.1060028076172,80.39399719238281 -235.83299255371094,80.39399719238281 C-235.6490020751953,80.39399719238281 -235.46600341796875,80.38999938964844 -235.27999877929688,80.37999725341797 C-235.27999877929688,80.37999725341797 -208.1269989013672,78.89800262451172 -208.1269989013672,78.89800262451172 C-206.2519989013672,87.39199829101562 -203.05999755859375,95.33399963378906 -198.50799560546875,102.76200103759766 C-198.50799560546875,102.76200103759766 -224.8470001220703,121.09100341796875 -224.8470001220703,121.09100341796875 C-229.3800048828125,124.24500274658203 -230.4969940185547,130.47799682617188 -227.34300231933594,135.01100158691406 C-225.39999389648438,137.8040008544922 -222.28799438476562,139.3000030517578 -219.12600708007812,139.3000030517578 C-217.1540069580078,139.3000030517578 -215.16299438476562,138.71800231933594 -213.42300415039062,137.5070037841797 C-213.42300415039062,137.5070037841797 -186.09800720214844,118.49199676513672 -186.09800720214844,118.49199676513672 C-179.54600524902344,125.15499877929688 -171.63800048828125,131.3459930419922 -162.32699584960938,137.1009979248047 C-126.23999786376953,159.406005859375 -65.5479965209961,172.7220001220703 0.024000000208616257,172.7220001220703 C65.59600067138672,172.7220001220703 126.28800201416016,159.406005859375 162.375,137.1009979248047 C171.677001953125,131.3509979248047 179.57699584960938,125.16799926757812 186.12600708007812,118.51200103759766 C186.12600708007812,118.51200103759766 213.42300415039062,137.5070037841797 213.42300415039062,137.5070037841797 C215.16400146484375,138.718994140625 217.1540069580078,139.3000030517578 219.12600708007812,139.3000030517578 C222.28799438476562,139.3000030517578 225.39999389648438,137.80299377441406 227.34300231933594,135.01100158691406 C230.4969940185547,130.47799682617188 229.3800048828125,124.24500274658203 224.8470001220703,121.09100341796875 C224.8470001220703,121.09100341796875 198.54200744628906,102.78600311279297 198.54200744628906,102.78600311279297 C203.1009979248047,95.35199737548828 206.2969970703125,87.4020004272461 208.1739959716797,78.9000015258789 C208.1739959716797,78.9000015258789 235.27999877929688,80.37999725341797 235.27999877929688,80.37999725341797 C235.46600341796875,80.38999938964844 235.6490020751953,80.39399719238281 235.83299255371094,80.39399719238281 C241.10499572753906,80.39399719238281 245.5189971923828,76.26799774169922 245.80999755859375,70.93900299072266 C246.11099243164062,65.42400360107422 241.88499450683594,60.709999084472656 236.3699951171875,60.409000396728516z M-84.48400115966797,53.834999084472656 C-84.48400115966797,66.26200103759766 -94.55699920654297,76.33499908447266 -106.98400115966797,76.33499908447266 C-119.41100311279297,76.33499908447266 -129.48399353027344,66.26200103759766 -129.48399353027344,53.834999084472656 C-129.48399353027344,53.834999084472656 -129.48399353027344,35.96099853515625 -129.48399353027344,35.96099853515625 C-129.48399353027344,23.534000396728516 -119.41100311279297,13.461000442504883 -106.98400115966797,13.461000442504883 C-94.55699920654297,13.461000442504883 -84.48400115966797,23.534000396728516 -84.48400115966797,35.96099853515625 C-84.48400115966797,35.96099853515625 -84.48400115966797,53.834999084472656 -84.48400115966797,53.834999084472656z M11.814000129699707,100.63800048828125 C4.117000102996826,105.31199645996094 2.9630000591278076,105.90699768066406 0.024000000208616257,105.90699768066406 C-2.9149999618530273,105.90699768066406 -4.068999767303467,105.31199645996094 -11.765999794006348,100.63800048828125 C-17.634000778198242,97.07599639892578 -23.176000595092773,93.71099853515625 -23.176000595092773,87.12999725341797 C-23.176000595092773,76.97000122070312 -10.678000450134277,73.36399841308594 0.024000000208616257,73.36399841308594 C10.72599983215332,73.36399841308594 23.224000930786133,76.97000122070312 23.224000930786133,87.12999725341797 C23.224000930786133,93.71099853515625 17.68199920654297,97.07599639892578 11.814000129699707,100.63800048828125z M129.2530059814453,53.834999084472656 C129.2530059814453,66.26200103759766 119.18000030517578,76.33499908447266 106.75299835205078,76.33499908447266 C94.32599639892578,76.33499908447266 84.25299835205078,66.26200103759766 84.25299835205078,53.834999084472656 C84.25299835205078,53.834999084472656 84.25299835205078,35.96099853515625 84.25299835205078,35.96099853515625 C84.25299835205078,23.534000396728516 94.32599639892578,13.461000442504883 106.75299835205078,13.461000442504883 C119.18000030517578,13.461000442504883 129.2530059814453,23.534000396728516 129.2530059814453,35.96099853515625 C129.2530059814453,35.96099853515625 129.2530059814453,53.834999084472656 129.2530059814453,53.834999084472656z"></path></g></g></g></svg>