<svg xmlns="http://www.w3.org/2000/svg" xmlns:xlink="http://www.w3.org/1999/xlink" viewBox="0 0 512 512" width="512" height="512" style="width: 100%; height: 100%; transform: translate3d(0,0,0);" preserveAspectRatio="xMidYMid meet"><defs><clipPath id="__lottie_element_51765"><rect width="512" height="512" x="0" y="0"></rect></clipPath></defs><g clip-path="url(#__lottie_element_51765)"><g style="display: block;" transform="matrix(1,0,0,1,0,0)" opacity="1"><g opacity="1" transform="matrix(1,0,0,1,252.4969940185547,245.36300659179688)"><g opacity="1" transform="matrix(1,0,0,1,0,0)"><path fill="rgb(4,5,52)" fill-opacity="1" d=" M31.238000869750977,-218.13299560546875 C16.82900047302246,-218.80299377441406 1.590999960899353,-173.23899841308594 1.590999960899353,-173.23899841308594 C1.590999960899353,-173.23899841308594 -71.25599670410156,-180.86300659179688 -118.69100189208984,-125.80400085449219 C-166.12600708007812,-70.74500274658203 -172.9029998779297,13.11299991607666 -165.2790069580078,51.23099899291992 C-157.65499877929688,89.3489990234375 -116.1500015258789,91.88999938964844 -116.1500015258789,91.88999938964844 C-116.1500015258789,91.88999938964844 -109.37300109863281,122.38400268554688 -118.69100189208984,127.46600341796875 C-128.00900268554688,132.54800415039062 -164.67300415039062,137.6320037841797 -167.9409942626953,158.80799865722656 C-171.20899963378906,179.98399353027344 -172.29600524902344,213.0189971923828 -167.9409942626953,215.55999755859375 C-163.58599853515625,218.1009979248047 154.9080047607422,219.7949981689453 164.2259979248047,215.55999755859375 C173.54400634765625,211.3249969482422 171.0019989013672,159.65499877929688 168.46099853515625,152.031005859375 C165.9199981689453,144.40699768066406 132.03799438476562,133.39599609375 121.87300109863281,130.85499572753906 C111.70800018310547,128.31399536132812 115.09600067138672,97.81999969482422 95.61399841308594,73.25499725341797 C81.14900207519531,55.016998291015625 56.4119987487793,43.78200149536133 47.40299987792969,20.485000610351562 C41.986000061035156,6.4770002365112305 55.03900146484375,-7.611000061035156 69.41000366210938,-3.249000072479248 C77.15699768066406,-0.8970000147819519 84.58100128173828,2.121000051498413 87.99099731445312,5.678999900817871 C96.6500015258789,14.71399974822998 104.55500030517578,25.631000518798828 117.3550033569336,25.631000518798828 C130.15499877929688,25.631000518798828 167.802001953125,-0.722000002861023 169.30799865722656,-16.90999984741211 C170.81399536132812,-33.097999572753906 141.072998046875,-48.72100067138672 133.73199462890625,-62.8390007019043 C126.39099884033203,-76.95700073242188 115.09600067138672,-119.8740005493164 93.072998046875,-142.46200561523438 C71.05000305175781,-165.0500030517578 55.801998138427734,-175.77999877929688 55.801998138427734,-175.77999877929688 C55.801998138427734,-175.77999877929688 43.37900161743164,-217.5679931640625 31.238000869750977,-218.13299560546875z"></path></g></g></g></g></svg>