<svg xmlns="http://www.w3.org/2000/svg" xmlns:xlink="http://www.w3.org/1999/xlink" viewBox="0 0 512 512" width="512" height="512" style="width: 100%; height: 100%; transform: translate3d(0,0,0);" preserveAspectRatio="xMidYMid meet"><defs><clipPath id="__lottie_element_52663"><rect width="512" height="512" x="0" y="0"></rect></clipPath></defs><g clip-path="url(#__lottie_element_52663)"><g style="display: block;" transform="matrix(1,0,0,1,0,0)" opacity="1"><g opacity="1" transform="matrix(1,0,0,1,255.8560028076172,256.7510070800781)"><path fill="rgb(0,0,0)" fill-opacity="1" d=" M250.5659942626953,-134.60699462890625 C243.76300048828125,-182.27200317382812 175.1439971923828,-218.75100708007812 91.08799743652344,-159.41299438476562 C91.08799743652344,-159.41299438476562 12.144000053405762,-216.75100708007812 -95.41999816894531,-163.44400024414062 C-169.8560028076172,-220.75100708007812 -235.9510040283203,-185.52099609375 -246.63099670410156,-145.30999755859375 C-260.8559875488281,-91.7509994506836 -228.8939971923828,-80.19999694824219 -228.8939971923828,-80.19999694824219 C-250.5570068359375,-13.710000038146973 -200.86300659179688,-4.328000068664551 -200.86300659179688,-4.328000068664551 C-201.33799743652344,10.60099983215332 -198.46200561523438,21.638999938964844 -194.23500061035156,29.83300018310547 C-181.86700439453125,8.138999938964844 -188.78799438476562,-6.910999774932861 -157.27099609375,-31.336000442504883 C-157.27099609375,-31.336000442504883 -182.8560028076172,6.249000072479248 -186.677001953125,54.87099838256836 C-186.97300720214844,75.60800170898438 -183.13999938964844,103.26300048828125 -173.53599548339844,123.22799682617188 C-139.8560028076172,193.24899291992188 -59.10499954223633,197.88099670410156 6.580999851226807,197.88099670410156 C72.26799774169922,197.88099670410156 191.6739959716797,177.10000610351562 176.74600219726562,57.887001037597656 C176.74600219726562,57.887001037597656 176.41900634765625,24.263999938964844 157.17799377441406,-10.005000114440918 C157.17799377441406,-10.005000114440918 177.1439971923828,3.249000072479248 186.4459991455078,47.321998596191406 C194.1699981689453,39.95000076293945 205.2480010986328,22.871000289916992 204.89300537109375,-2.744999885559082 C204.89300537109375,-2.744999885559082 247.54100036621094,-9.619000434875488 229.89599609375,-77 C229.89599609375,-77 257.3689880371094,-86.94300079345703 250.5659942626953,-134.60699462890625z M-94.7020034790039,28.937000274658203 C-118.30400085449219,27.784000396728516 -109.91300201416016,-17.746999740600586 -85.78500366210938,-10.831999778747559 C-71.48500061035156,-6.734000205993652 -71.0999984741211,30.09000015258789 -94.7020034790039,28.937000274658203z M33.78499984741211,81.03800201416016 C31.698999404907227,110.55999755859375 -34.88800048828125,119.86499786376953 -38.86899948120117,79.39800262451172 C-42.849998474121094,38.930999755859375 -28.492000579833984,-16.773000717163086 -3.5360000133514404,-17.395000457763672 C18.360000610351562,-17.94099998474121 37.763999938964844,24.714000701904297 33.78499984741211,81.03800201416016z M95.0719985961914,28.937000274658203 C71.47100067138672,30.09000015258789 71.8550033569336,-6.732999801635742 86.15499877929688,-10.831999778747559 C110.28199768066406,-17.749000549316406 118.67400360107422,27.784000396728516 95.0719985961914,28.937000274658203z"></path></g></g></g></svg>