<svg xmlns="http://www.w3.org/2000/svg" xmlns:xlink="http://www.w3.org/1999/xlink" viewBox="0 0 512 512" width="512" height="512" style="width: 100%; height: 100%; transform: translate3d(0,0,0);" preserveAspectRatio="xMidYMid meet"><defs><clipPath id="__lottie_element_51260"><rect width="512" height="512" x="0" y="0"></rect></clipPath></defs><g clip-path="url(#__lottie_element_51260)"><g style="display: block;" transform="matrix(1,0,0,1,0,0)" opacity="1"><g opacity="1" transform="matrix(1,0,0,1,135.08299255371094,60.59600067138672)"><path fill="rgb(0,0,0)" fill-opacity="1" d=" M78.43900299072266,14.906000137329102 C68.38099670410156,21.01300048828125 57.07500076293945,15.557000160217285 47.138999938964844,15.321000099182129 C12.46399974822998,14.496999740600586 -13.930999755859375,13.949999809265137 -39.428001403808594,40.0620002746582 C-48.6879997253418,49.54499816894531 -49.8380012512207,45.439998626708984 -62.95199966430664,49.34700012207031 C-70.85900115966797,51.702999114990234 -78.43399810791016,54.444000244140625 -85.57599639892578,58.57699966430664 C-89.68599700927734,17.535999298095703 -54.07899856567383,-21.610000610351562 -12.496000289916992,-19.611000061035156 C1.437999963760376,-18.941999435424805 49.249000549316406,-4.704999923706055 57.8380012512207,-11.815999984741211 C67.64900207519531,-19.940000534057617 43.14799880981445,-50.8129997253418 37.79800033569336,-58.57699966430664 C67.63300323486328,-48.6349983215332 89.68599700927734,-16.590999603271484 78.43900299072266,14.906000137329102z"></path></g><g opacity="1" transform="matrix(1,0,0,1,374.31201171875,60.58700180053711)"><path fill="rgb(0,0,0)" fill-opacity="1" d=" M88.51799774169922,58.58700180053711 C78.98799896240234,49.053001403808594 53.44599914550781,49.96900177001953 45.4109992980957,45.165000915527344 C43.40700149536133,43.965999603271484 36.84400177001953,34.0620002746582 31.628999710083008,30.16200065612793 C9.942999839782715,13.939000129699707 -18.243999481201172,14.701000213623047 -44.19499969482422,15.331000328063965 C-53.904998779296875,15.565999984741211 -64.47200012207031,20.60099983215332 -74.62000274658203,15.579999923706055 C-90.23300170898438,-14.550999641418457 -64.48600006103516,-46.83700180053711 -36.93000030517578,-58.58700180053711 C-34.3650016784668,-55.87799835205078 -64.35199737548828,-24.85700035095215 -56.54899978637695,-13.270999908447266 C-55.112998962402344,-11.138999938964844 -47.00299835205078,-9.25100040435791 -44.130001068115234,-9.241999626159668 C-26.465999603271484,-9.189000129699707 -2.8499999046325684,-18.80299949645996 15.447999954223633,-19.611000061035156 C57.03300094604492,-21.44700050354004 90.23200225830078,18.332000732421875 88.51799774169922,58.58700180053711z"></path></g><g opacity="1" transform="matrix(1,0,0,1,254.79800415039062,494.385009765625)"><path fill="rgb(0,0,0)" fill-opacity="1" d=" M29.04199981689453,-11.256999969482422 C27.40399932861328,15.916000366210938 -10.302000045776367,24.893999099731445 -24.066999435424805,-0.3059999942779541 C-26.33799934387207,-4.464000225067139 -29.04199981689453,-9.517000198364258 -23.551000595092773,-11.611000061035156 C-7.804999828338623,-17.614999771118164 12.96399974822998,-14.407999992370605 29.04199981689453,-11.256999969482422z"></path></g><g opacity="1" transform="matrix(1,0,0,1,254.24000549316406,299.1109924316406)"><path fill="rgb(0,0,0)" fill-opacity="1" d=" M230.71499633789062,-96.16500091552734 C227.2480010986328,-111.27200317382812 223.71499633789062,-116.75499725341797 207.56500244140625,-118.23300170898438 C178.09800720214844,-120.93000030517578 140.1060028076172,-106.31099700927734 122.23699951171875,-82.28900146484375 C112.73100280761719,-69.50900268554688 110.50299835205078,-44.55500030517578 89.32599639892578,-48.37200164794922 C88.24400329589844,-57.80699920654297 93.04100036621094,-66.125 97.91899871826172,-73.70700073242188 C113.91100311279297,-98.56400299072266 148.52699279785156,-121.1780014038086 174.30499267578125,-135.08299255371094 C193.36900329589844,-145.3679962158203 232.96499633789062,-152.73300170898438 191.50399780273438,-174.14500427246094 C174.9739990234375,-182.68099975585938 160.0019989013672,-183.43600463867188 142.83399963378906,-176.82200622558594 C106.28600311279297,-162.74000549316406 65.87699890136719,-131.10400390625 44.46900177001953,-98.35600280761719 C36.90999984741211,-86.79199981689453 32.4119987487793,-73.62200164794922 24.200000762939453,-62.95600128173828 C24.200000762939453,-62.95600128173828 -21.743999481201172,-63.691001892089844 -21.743999481201172,-63.691001892089844 C-41.095001220703125,-106.83399963378906 -71.88500213623047,-140.29100036621094 -112.88200378417969,-163.84500122070312 C-135.28599548339844,-176.7169952392578 -149.83200073242188,-184.58700561523438 -176.0659942626953,-179.01499938964844 C-193.6269989013672,-175.28500366210938 -221.97000122070312,-161.25399780273438 -196.2989959716797,-146.24600219726562 C-171.4949951171875,-131.7449951171875 -149.55299377441406,-125.2979965209961 -125.63300323486328,-105.8740005493164 C-108.74700164794922,-92.16200256347656 -86.39900207519531,-71.11699676513672 -85.46800231933594,-48.37200164794922 C-107.49099731445312,-44.138999938964844 -107.88200378417969,-67.62699890136719 -117.47699737548828,-81.13600158691406 C-134.61300659179688,-105.26300048828125 -172.65499877929688,-120.11900329589844 -201.7530059814453,-118.33100128173828 C-214.64599609375,-117.53900146484375 -220.77099609375,-116.65499877929688 -224.7310028076172,-104.33000183105469 C-241.48199462890625,-52.19599914550781 -206.95799255371094,3.3429999351501465 -152.28199768066406,9.15999984741211 C-145.9929962158203,9.829000473022461 -133.1219940185547,7.52400016784668 -128.6699981689453,10.225000381469727 C-119.73699951171875,23.51099967956543 -108.677001953125,35.46799850463867 -96.83200073242188,46.237998962402344 C-82.37000274658203,59.38600158691406 -78.7249984741211,53.465999603271484 -73.69100189208984,76.5530014038086 C-66.92500305175781,107.5780029296875 -66.96399688720703,130.50399780273438 -49.32099914550781,159.0919952392578 C-33.58599853515625,184.58799743652344 -35.314998626708984,173.36000061035156 -10.486000061035156,171.51300048828125 C-2.6670000553131104,170.93099975585938 8.428999900817871,171.05599975585938 16.297000885009766,171.61700439453125 C23.239999771118164,172.11199951171875 36.81700134277344,177.92100524902344 42.02199935913086,174.69400024414062 C58.0260009765625,155.3040008544922 66.93000030517578,132.6820068359375 72.27799987792969,108.28900146484375 C75.05000305175781,95.64199829101562 75.83499908447266,68.74600219726562 83.10399627685547,59.49599838256836 C87.31500244140625,54.138999938964844 97.23600006103516,49.369998931884766 102.75199890136719,44.1879997253418 C113.83599853515625,33.777000427246094 123.63400268554688,22.54800033569336 132.49600219726562,10.192999839782715 C141.48800659179688,7.995999813079834 150.6060028076172,9.885000228881836 159.75100708007812,8.657999992370605 C208.1719970703125,2.1630001068115234 241.48199462890625,-49.25400161743164 230.71499633789062,-96.16500091552734z M-208.58200073242188,-95.36499786376953 C-190.85299682617188,-99.5780029296875 -153.46499633789062,-78.48300170898438 -149.6479949951172,-61.31100082397461 C-148.36099243164062,-55.52000045776367 -149.85499572753906,-49.36800003051758 -148.9739990234375,-43.483001708984375 C-147.22799682617188,-31.82200050354004 -144.5,-20.538999557495117 -141.00799560546875,-9.324999809265137 C-186.99200439453125,-4.39900016784668 -224.0659942626953,-51.7599983215332 -208.58200073242188,-95.36499786376953z M-48.380001068115234,30.849000930786133 C-67.52300262451172,35.48400115966797 -86.29900360107422,35.198001861572266 -89.08799743652344,11.706000328063965 C-90.4229965209961,0.4690000116825104 -87.58799743652344,-6.64900016784668 -75.73799896240234,-8.8149995803833 C-49.095001220703125,-13.685999870300293 -37.8129997253418,8.866999626159668 -48.380001068115234,30.849000930786133z M9.13599967956543,157.20399475097656 C8.699000358581543,138.10899353027344 9.397000312805176,125.26899719238281 30.849000930786133,122.38800048828125 C30.849000930786133,122.38800048828125 31.54800033569336,114.21700286865234 31.54800033569336,114.21700286865234 C26.070999145507812,112.13099670410156 20.267000198364258,111.15399932861328 14.380000114440918,112.06600189208984 C8.972999572753906,112.90299987792969 5.223999977111816,118.13899993896484 1.9450000524520874,118.1240005493164 C-1.0759999752044678,118.10900115966797 -6.822000026702881,112.60700225830078 -12.71399974822998,112.05599975585938 C-18.200000762939453,111.54199981689453 -22.577999114990234,113.43099975585938 -27.78499984741211,114.13899993896484 C-30.881999969482422,127.9530029296875 -17.618999481201172,123.40299987792969 -11.996000289916992,126.92500305175781 C-6.882999897003174,130.1280059814453 -5.214000225067139,150.7050018310547 -5.2789998054504395,157.1959991455078 C-26.667999267578125,162.86599731445312 -46.38800048828125,119.01599884033203 -35.196998596191406,107.7509994506836 C-29.69300079345703,102.20999908447266 -0.6290000081062317,101.3239974975586 8.199000358581543,101.60099792480469 C15.069999694824219,101.81700134277344 35.03799819946289,103.49500274658203 38.86800003051758,107.9280014038086 C49.23400115966797,119.9229965209961 30.319000244140625,162.75799560546875 9.13599967956543,157.20399475097656z M53.6879997253418,31.45400047302246 C42.73500061035156,28.089000701904297 47.909000396728516,-5.193999767303467 64.0479965209961,-8.87399959564209 C77.22100067138672,-11.878000259399414 91.947998046875,-8.904000282287598 92.7020034790039,6.4120001792907715 C93.85600280761719,29.8700008392334 73.76699829101562,37.62200164794922 53.6879997253418,31.45400047302246z M144.86599731445312,-9.324999809265137 C148.51300048828125,-21.139999389648438 151.49899291992188,-33.28099822998047 152.9429931640625,-45.61399841308594 C153.52099609375,-50.55099868774414 151.0919952392578,-54.582000732421875 151.92999267578125,-58.70500183105469 C155.77000427246094,-77.60299682617188 193.06900024414062,-99.88099670410156 212.43800354003906,-95.36299896240234 C226.55599975585938,-50.948001861572266 191.41700744628906,-5.09499979019165 144.86599731445312,-9.324999809265137z"></path></g></g></g></svg>