<svg xmlns="http://www.w3.org/2000/svg" xmlns:xlink="http://www.w3.org/1999/xlink" viewBox="0 0 512 512" width="512" height="512" style="width: 100%; height: 100%; transform: translate3d(0,0,0);" preserveAspectRatio="xMidYMid meet"><defs><clipPath id="__lottie_element_53324"><rect width="512" height="512" x="0" y="0"></rect></clipPath></defs><g clip-path="url(#__lottie_element_53324)"><g style="display: block;" transform="matrix(1,0,0,1,0,0)" opacity="1"><g opacity="1" transform="matrix(1,0,0,1,254.58700561523438,69.83300018310547)"><path fill="rgb(0,0,0)" fill-opacity="1" d=" M45.06100082397461,28.8799991607666 C42.79999923706055,9.12600040435791 27.850000381469727,-6.769999980926514 8.564000129699707,-10.454999923706055 C8.564000129699707,-10.454999923706055 8.564000129699707,-26.645999908447266 8.564000129699707,-26.645999908447266 C8.564000129699707,-26.645999908447266 26.332000732421875,-26.645999908447266 26.332000732421875,-26.645999908447266 C29.56999969482422,-26.645999908447266 32.194000244140625,-29.270999908447266 32.194000244140625,-32.507999420166016 C32.194000244140625,-32.507999420166016 32.194000244140625,-38.231998443603516 32.194000244140625,-38.231998443603516 C32.194000244140625,-41.46900177001953 29.56999969482422,-44.09199905395508 26.332000732421875,-44.09199905395508 C26.332000732421875,-44.09199905395508 8.564000129699707,-44.09199905395508 8.564000129699707,-44.09199905395508 C8.564000129699707,-44.09199905395508 8.564000129699707,-59.95899963378906 8.564000129699707,-59.95899963378906 C8.564000129699707,-63.19499969482422 5.940000057220459,-65.81800079345703 2.7039999961853027,-65.81800079345703 C2.7039999961853027,-65.81800079345703 -3.0199999809265137,-65.81800079345703 -3.0199999809265137,-65.81800079345703 C-6.256999969482422,-65.81800079345703 -8.880000114440918,-63.19499969482422 -8.880000114440918,-59.95899963378906 C-8.880000114440918,-59.95899963378906 -8.880000114440918,-44.09199905395508 -8.880000114440918,-44.09199905395508 C-8.880000114440918,-44.09199905395508 -25.381000518798828,-44.09199905395508 -25.381000518798828,-44.09199905395508 C-28.618000030517578,-44.09199905395508 -31.242000579833984,-41.46900177001953 -31.242000579833984,-38.231998443603516 C-31.242000579833984,-38.231998443603516 -31.242000579833984,-32.507999420166016 -31.242000579833984,-32.507999420166016 C-31.242000579833984,-29.270999908447266 -28.618000030517578,-26.645999908447266 -25.381000518798828,-26.645999908447266 C-25.381000518798828,-26.645999908447266 -8.880000114440918,-26.645999908447266 -8.880000114440918,-26.645999908447266 C-8.880000114440918,-26.645999908447266 -8.880000114440918,-10.38700008392334 -8.880000114440918,-10.38700008392334 C-27.929000854492188,-6.605000019073486 -42.685001373291016,9.098999977111816 -45.029998779296875,28.62700080871582 C-45.39500045776367,31.666000366210938 -43.68199920654297,34.57699966430664 -40.85300064086914,35.74700164794922 C-26.350000381469727,41.744998931884766 -15.041999816894531,46.137001037597656 -5.978000164031982,61.28799819946289 C-3.318000078201294,65.73400115966797 3.115000009536743,65.81800079345703 5.771999835968018,61.369998931884766 C14.230999946594238,47.20500183105469 25.672000885009766,43.00400161743164 41.178001403808594,35.875999450683594 C43.85200119018555,34.64699935913086 45.395999908447266,31.80299949645996 45.06100082397461,28.8799991607666z"></path></g><g opacity="1" transform="matrix(1,0,0,1,255.3800048828125,310.1409912109375)"><path fill="rgb(0,0,0)" fill-opacity="1" d=" M159.9949951171875,-176.83700561523438 C149.91600036621094,-178.17999267578125 141.73199462890625,-168.85299682617188 144.07400512695312,-158.95899963378906 C165.61900329589844,-67.92400360107422 153.21200561523438,10.52400016784668 88.96800231933594,74.1719970703125 C88.96800231933594,74.1719970703125 124.6449966430664,24.05500030517578 133.0050048828125,-48.654998779296875 C137.1580047607422,-84.77799987792969 138.06199645996094,-127.99700164794922 117.51599884033203,-170.37399291992188 C106.79399871826172,-192.48699951171875 63.5099983215332,-201.85899353027344 33.19499969482422,-187.85499572753906 C15.54699993133545,-179.7030029296875 5.071000099182129,-161.1219940185547 6.992000102996826,-141.7779998779297 C8.852999687194824,-123.03199768066406 10.340999603271484,-88.43399810791016 10.340999603271484,-45.7599983215332 C10.340999603271484,31.56399917602539 -0.6690000295639038,64.65599822998047 -0.6690000295639038,64.65599822998047 C-7.539999961853027,26.55299949645996 -10.496000289916992,-10.423999786376953 -11.364999771118164,-42.90700149536133 C-12.534000396728516,-86.63400268554688 -9.923999786376953,-122.22100067138672 -8.00100040435791,-141.45799255371094 C-6.026000022888184,-161.20700073242188 -16.829999923706055,-180.13900756835938 -34.9640007019043,-188.20700073242188 C-65.29399871826172,-201.69900512695312 -108.02899932861328,-192.2989959716797 -118.66000366210938,-170.37399291992188 C-139.20599365234375,-127.99700164794922 -138.30299377441406,-84.77799987792969 -134.14999389648438,-48.654998779296875 C-128.58599853515625,-0.2590000033378601 -110.91999816894531,38.12900161743164 -99.72699737548828,58.388999938964844 C-98.40499877929688,60.78099822998047 -101.59200286865234,63.07099914550781 -103.45999908447266,61.07699966430664 C-181.62100219726562,-22.374000549316406 -152.6699981689453,-124.64199829101562 -138.11099243164062,-161.92799377441406 C-135.1929931640625,-169.4010009765625 -141.16200256347656,-177.31500244140625 -149.1540069580078,-176.6219940185547 C-195.13900756835938,-172.6320037841797 -251.6820068359375,-133.33700561523438 -251.6820068359375,-46.67399978637695 C-251.6820068359375,51.334999084472656 -142.2550048828125,94.15399932861328 -142.2550048828125,94.15399932861328 C-142.2550048828125,94.15399932861328 -142.2550048828125,94.36499786376953 -142.2550048828125,94.36499786376953 C-117.67400360107422,103.52200317382812 -88.15899658203125,107.85399627685547 -76.91899871826172,109.26300048828125 C-75.62799835205078,109.42500305175781 -75.38400268554688,111.2030029296875 -76.58699798583984,111.6989974975586 C-97.26100158691406,120.22699737548828 -118.75499725341797,118.88099670410156 -135.36000061035156,117.94200134277344 C-139.10899353027344,117.73100280761719 -142.2550048828125,120.71299743652344 -142.2550048828125,124.46800231933594 C-142.2550048828125,124.46800231933594 -142.2550048828125,162.08299255371094 -142.2550048828125,162.08299255371094 C-142.2550048828125,165.4199981689453 -140.63900756835938,168.5500030517578 -137.89700317382812,170.45199584960938 C-90.81199645996094,203.12399291992188 82.177001953125,205.0970001220703 138.11099243164062,169.85400390625 C140.70799255371094,168.21800231933594 142.25399780273438,165.33900451660156 142.25399780273438,162.26800537109375 C142.25399780273438,162.26800537109375 142.25399780273438,120.4800033569336 142.25399780273438,120.4800033569336 C142.25399780273438,116.22799682617188 138.49200439453125,112.93599700927734 134.28399658203125,113.54900360107422 C97.62699890136719,118.87799835205078 79.08000183105469,116.45800018310547 71.28500366210938,112.62300109863281 C69.68699645996094,111.83699798583984 70.15899658203125,109.44999694824219 71.93399810791016,109.3010025024414 C113.35299682617188,105.83200073242188 142.25399780273438,94.15399932861328 142.25399780273438,94.15399932861328 C142.25399780273438,94.15399932861328 251.6820068359375,51.334999084472656 251.6820068359375,-46.67399978637695 C251.6820068359375,-131.07000732421875 203.70199584960938,-171.01499938964844 159.9949951171875,-176.83700561523438z M-58.80400085449219,156.5959930419922 C-59.18299865722656,162.0500030517578 -62.5880012512207,166.18600463867188 -71.98300170898438,165.3249969482422 C-81.05500030517578,164.4929962158203 -84.16899871826172,159.75900268554688 -83.79000091552734,154.30499267578125 C-83.41100311279297,148.8509979248047 -79.68199920654297,144.74400329589844 -70.61000061035156,145.5760040283203 C-61.09600067138672,146.447998046875 -58.42499923706055,151.14199829101562 -58.80400085449219,156.5959930419922z M0.6179999709129333,170.0659942626953 C-10.270999908447266,170.0659942626953 -13.861000061035156,164.94200134277344 -13.861000061035156,158.6219940185547 C-13.861000061035156,152.302001953125 -10.409000396728516,147.1790008544922 0.6179999709129333,147.1790008544922 C11.130000114440918,147.1790008544922 15.095999717712402,152.302001953125 15.095999717712402,158.6219940185547 C15.095999717712402,164.94200134277344 11.130000114440918,170.0659942626953 0.6179999709129333,170.0659942626953z M71.8479995727539,145.5760040283203 C80.91899871826172,144.74400329589844 84.64700317382812,148.8509979248047 85.0260009765625,154.30499267578125 C85.40499877929688,159.75900268554688 82.29000091552734,164.4929962158203 73.21900177001953,165.3249969482422 C63.82400131225586,166.18600463867188 60.41899871826172,162.0500030517578 60.03900146484375,156.5959930419922 C59.65999984741211,151.14199829101562 62.33300018310547,146.447998046875 71.8479995727539,145.5760040283203z"></path></g></g></g></svg>