<svg xmlns="http://www.w3.org/2000/svg" xmlns:xlink="http://www.w3.org/1999/xlink" viewBox="0 0 512 512" width="512" height="512" style="width: 100%; height: 100%; transform: translate3d(0,0,0);" preserveAspectRatio="xMidYMid meet"><defs><clipPath id="__lottie_element_52811"><rect width="512" height="512" x="0" y="0"></rect></clipPath></defs><g clip-path="url(#__lottie_element_52811)"><g style="display: block;" transform="matrix(1,0,0,1,-1,0)" opacity="1"><g opacity="1" transform="matrix(1,0,0,1,251.70199584960938,260.31298828125)"><path fill="rgb(0,0,0)" fill-opacity="1" d=" M191.968994140625,-188.8520050048828 C189.9669952392578,-190.95700073242188 187.95199584960938,-192.87600708007812 185.92999267578125,-194.6790008544922 C212.72900390625,-223.9080047607422 192.92999267578125,-251.68699645996094 178.85000610351562,-244.8780059814453 C168.76199340820312,-240 168.70700073242188,-229.46099853515625 174.78199768066406,-219.68600463867188 C177.68800354003906,-215.00999450683594 175.93699645996094,-209.28900146484375 172.9550018310547,-204.22300720214844 C120.2699966430664,-235.54800415039062 66.59100341796875,-180.6699981689453 66.59100341796875,-180.6699981689453 C66.59100341796875,-180.6699981689453 19.610000610351562,-195.94200134277344 -36.42499923706055,-181.10400390625 C-37.27399826049805,-188.61399841308594 -36.26300048828125,-196.0749969482422 -30.517000198364258,-200.24600219726562 C-17.673999786376953,-209.57000732421875 -12.262999534606934,-223.0590057373047 -22.610000610351562,-234.53599548339844 C-37.05099868774414,-250.55599975585938 -76.79100036621094,-225.36900329589844 -57.75299835205078,-174.0919952392578 C-81.15799713134766,-164.72999572753906 -105.27200317382812,-149.47300720214844 -127.57499694824219,-125.28399658203125 C-140.46400451660156,-135.56900024414062 -151.39500427246094,-152.77999877929688 -142.1479949951172,-156.88600158691406 C-128.552001953125,-162.92300415039062 -123.83300018310547,-184.19700622558594 -140.8769989013672,-194.0500030517578 C-157.92100524902344,-203.9029998779297 -186.156005859375,-186.7480010986328 -174.82200622558594,-147.3489990234375 C-169.06399536132812,-127.33599853515625 -154.20700073242188,-115.77300262451172 -140.9720001220703,-109.21499633789062 C-142.0500030517578,-107.81099700927734 -143.1479949951172,-106.49099731445312 -144.21299743652344,-105.03800201416016 C-160.5050048828125,-82.82099914550781 -170.81700134277344,-61.104000091552734 -176.85800170898438,-40.44200134277344 C-234.15199279785156,-46.17900085449219 -259.70098876953125,-2.86299991607666 -233.906005859375,15.678999900817871 C-219.7169952392578,25.87700080871582 -205.26600646972656,13.690999984741211 -198.8820037841797,-3.25 C-196.35400390625,-9.958000183105469 -189.781005859375,-13.223999977111816 -182.32000732421875,-14.6899995803833 C-193.01699829101562,64.05699920654297 -145.822998046875,121.85800170898438 -145.822998046875,121.85800170898438 C-145.822998046875,121.85800170898438 -107.2020034790039,15.651000022888184 -21.915000915527344,-29.4060001373291 C-21.915000915527344,-29.4060001373291 -99.15599822998047,46.22600173950195 -112.02999877929688,147.60499572753906 C-112.02999877929688,147.60499572753906 -64.82499694824219,172.36199951171875 -5.4079999923706055,169.49000549316406 C-6.488999843597412,179.14599609375 -9.83899974822998,188.38099670410156 -18.29400062561035,191.4550018310547 C-35.994998931884766,197.89199829101562 -48.84700012207031,212.7779998779297 -38.409000396728516,227.66200256347656 C-19.163999557495117,255.10299682617188 27.18600082397461,227.8990020751953 20.371999740600586,166.4290008544922 C44.34700012207031,161.91099548339844 69.38200378417969,152.1840057373047 93.52100372314453,134.23500061035156 C100.3270034790039,147.6269989013672 112.02100372314453,162.197998046875 131.9040069580078,168.16900634765625 C172.7530059814453,180.43600463867188 190.94200134277344,151.27000427246094 180.8979949951172,133.42100524902344 C170.85400390625,115.57099914550781 148.66400146484375,120.2229995727539 142.22000122070312,134.29400634765625 C137.97000122070312,143.57400512695312 121.1520004272461,132.95399475097656 110.52100372314453,119.96399688720703 C115.24199676513672,115.55599975585938 119.927001953125,110.91400146484375 124.52200317382812,105.76599884033203 C142.52499389648438,85.59100341796875 154.91000366210938,66.08200073242188 162.9550018310547,47.395999908447266 C214.86300659179688,66.21199798583984 240.7480010986328,25.92099952697754 224.4459991455078,10.876999855041504 C212.63099670410156,-0.026000000536441803 198.5330047607422,5.440000057220459 188.6790008544922,18.687999725341797 C184.65199279785156,24.10099983215332 177.81199645996094,25.365999221801758 170.71299743652344,24.80699920654297 C188.20899963378906,-43.012001037597656 150.1479949951172,-97.98899841308594 119.69400024414062,-130.78500366210938 C119.69400024414062,-130.78500366210938 155.0959930419922,-119.52100372314453 180.84300231933594,-72.85399627685547 C180.84300231933594,-72.85399627685547 241.15699768066406,-120.5739974975586 201.9530029296875,-176.68899536132812 C207.4340057373047,-179.697998046875 213.71499633789062,-181.50399780273438 218.49899291992188,-178.12100219726562 C227.89700317382812,-171.4770050048828 238.42100524902344,-170.90899658203125 243.88800048828125,-180.69000244140625 C251.70199584960938,-194.67100524902344 223.66200256347656,-216.79800415039062 191.968994140625,-188.8520050048828z M-129.7899932861328,-34.47800064086914 C-142.1820068359375,-30.635000228881836 -147.82400512695312,-42.46799850463867 -148.50399780273438,-53.54399871826172 C-149.0279998779297,-62.058998107910156 -144.80099487304688,-80.40399932861328 -130.8459930419922,-79.24600219726562 C-118.46600341796875,-78.21800231933594 -118.46600341796875,-37.987998962402344 -129.7899932861328,-34.47800064086914z M-37.470001220703125,-69.90399932861328 C-44.09000015258789,-61.43299865722656 -63.58700180053711,-46.81999969482422 -75.50900268554688,-60.98400115966797 C-87.75700378417969,-75.53600311279297 -57.96099853515625,-108.66600036621094 -41.090999603271484,-101.68499755859375 C-25.61400032043457,-95.28099822998047 -28.86199951171875,-80.9219970703125 -37.470001220703125,-69.90399932861328z M-45.4119987487793,-142.64599609375 C-50.926998138427734,-153.98599243164062 -42.61800003051758,-160.23599243164062 -32.10599899291992,-162.96800231933594 C-24.02400016784668,-165.06900024414062 -4.198999881744385,-165.50100708007812 -2.5880000591278076,-152.08900451660156 C-0.9950000047683716,-138.83099365234375 -40.68899917602539,-132.92999267578125 -45.4119987487793,-142.64599609375z M9.418999671936035,113.86599731445312 C0.33399999141693115,117.2030029296875 -22.218000411987305,115.31700134277344 -24.139999389648438,96.7509994506836 C-26.535999298095703,73.60600280761719 14.458999633789062,63.5890007019043 23.91900062561035,81.43599700927734 C31.430999755859375,95.60900115966797 21.236000061035156,109.5250015258789 9.418999671936035,113.86599731445312z M7.951000213623047,27.924999237060547 C-6.059999942779541,15.95300006866455 -1.0420000553131104,-3.2230000495910645 9.75100040435791,-12.850000381469727 C18.049999237060547,-20.253000259399414 42.94499969482422,-27.76099967956543 52.8390007019043,-8.734000205993652 C65.1719970703125,14.984999656677246 25.597000122070312,43.000999450683594 7.951000213623047,27.924999237060547z M119.75800323486328,-13.755999565124512 C135.74099731445312,-12.402000427246094 141.9250030517578,3.7039999961853027 139.1790008544922,15.98900032043457 C137.0679931640625,25.434999465942383 123.2760009765625,43.37699890136719 106.62300109863281,34.944000244140625 C85.86499786376953,24.43199920654297 99.62999725341797,-15.461000442504883 119.75800323486328,-13.755999565124512z"></path></g></g></g></svg>