<svg xmlns="http://www.w3.org/2000/svg" xmlns:xlink="http://www.w3.org/1999/xlink" viewBox="0 0 512 512" width="512" height="512" style="width: 100%; height: 100%; transform: translate3d(0,0,0);" preserveAspectRatio="xMidYMid meet"><defs><clipPath id="__lottie_element_51725"><rect width="512" height="512" x="0" y="0"></rect></clipPath></defs><g clip-path="url(#__lottie_element_51725)"><g style="display: block;" transform="matrix(1.0299999713897705,0,0,1.0299999713897705,8.12091064453125,-3.7120513916015625)" opacity="1"><g opacity="1" transform="matrix(1,0,0,1,246.97000122070312,249.73500061035156)"><path fill="rgb(0,0,0)" fill-opacity="1" d=" M229.92999267578125,87.94499969482422 C246.72000122070312,70.19499969482422 219.5,30.485000610351562 162.42999267578125,29.44499969482422 C95.04000091552734,28.21500015258789 23.59000015258789,86.70500183105469 14.9399995803833,163.43499755859375 C13.130000114440918,179.48500061035156 -42.5,142.48500061035156 -50.560001373291016,108.94499969482422 C-57.02000045776367,82.08499908447266 -57.040000915527344,47.73500061035156 -47.560001373291016,48.94499969482422 C-35.5,50.48500061035156 -13.300000190734863,93.29499816894531 -5.559999942779541,89.44499969482422 C18.5,77.48500061035156 -7.389999866485596,53.28499984741211 -1.059999942779541,41.44499969482422 C2.2309999465942383,35.29499816894531 16.5,45.48500061035156 39.439998626708984,23.44499969482422 C56.189998626708984,7.34499979019165 55.849998474121094,-17.725000381469727 64.94000244140625,-26.05500030517578 C70.23100280761719,-30.905000686645508 83.5,-25.514999389648438 94.94000244140625,-44.05500030517578 C102.81999969482422,-56.82500076293945 92.19999694824219,-67.33499908447266 97.94000244140625,-78.55500030517578 C101.5,-85.51499938964844 121.5,-70.92500305175781 135.42999267578125,-93.54499816894531 C142.5,-105.03500366210938 136.80999755859375,-119.75499725341797 142.92999267578125,-125.04499816894531 C148.9600067138672,-130.2550048828125 160.58999633789062,-116.43499755859375 177.42999267578125,-135.5449981689453 C191.5,-151.51499938964844 172.52999877929688,-156.43499755859375 178.92999267578125,-164.0449981689453 C185.63999938964844,-172.02499389648438 191.17999267578125,-156.76499938964844 208.92999267578125,-171.5449981689453 C218.5,-179.51499938964844 211.25,-181.8350067138672 211.92999267578125,-192.5449981689453 C212.5,-201.51499938964844 234.5500030517578,-193.51499938964844 228.42999267578125,-217.5449981689453 C223.00999450683594,-238.84500122070312 171.07000732421875,-249.48500061035156 160.5,-221.51499938964844 C156.99000549316406,-212.22500610351562 147.5,-236.51499938964844 119.43000030517578,-230.5449981689453 C95.66999816894531,-225.4949951171875 99.5,-211.51499938964844 90.44000244140625,-209.0449981689453 C79.47000122070312,-206.05499267578125 73.23999786376953,-224.94500732421875 46.939998626708984,-213.5449981689453 C21.5,-202.51499938964844 28.674999237060547,-186.31100463867188 18.614999771118164,-185.84100341796875 C7.824999809265137,-185.34100341796875 6.304999828338623,-200.31100463867188 -9.885000228881836,-194.84100341796875 C-31.78499984741211,-187.4409942626953 -30.91900062561035,-176.2740020751953 -36.26900100708008,-169.25399780273438 C-41.8390007019043,-161.9340057373047 -43.94900131225586,-178.843994140625 -67.76899719238281,-163.25399780273438 C-89.20899963378906,-149.2239990234375 -84.9469985961914,-134.2530059814453 -93.00700378417969,-127.78299713134766 C-99.39700317382812,-122.65299987792969 -102.99800109863281,-127.33399963378906 -117.78800201416016,-110.5739974975586 C-137.23800659179688,-88.54399871826172 -118.47799682617188,-73.9540023803711 -120.78800201416016,-66.58399963378906 C-123.48799896240234,-57.9640007019043 -129.66799926757812,-69.3740005493164 -134.28799438476562,-51.08399963378906 C-140.23800659179688,-27.54400062561035 -114.45800018310547,-13.083999633789062 -117.78800201416016,-7.084000110626221 C-121.97799682617188,0.4659999907016754 -167.23800659179688,-15.543999671936035 -162.78799438476562,10.916000366210938 C-158.41799926757812,36.91600036621094 -101.23799896240234,13.456000328063965 -95.2979965209961,25.916000366210938 C-89.48799896240234,38.10599899291992 -93.0999984741211,46.80500030517578 -95.5,76.48500061035156 C-97.55000305175781,101.79499816894531 -81.55000305175781,124.25499725341797 -93.55999755859375,122.43499755859375 C-172.5,110.48500061035156 -241.9499969482422,136.7949981689453 -245.0500030517578,151.93499755859375 C-246.72000122070312,160.125 -221.94000244140625,176.84500122070312 -180.6699981689453,182.39500427246094 C-127.29000091552734,189.5850067138672 -99.5,176.15499877929688 -61.5,184.48500061035156 C-2.1500000953674316,197.5050048828125 1.9600000381469727,219.18499755859375 38.5,239.48500061035156 C56.5,249.48500061035156 80.55999755859375,242.4149932861328 68.5,221.48500061035156 C59.849998474121094,206.47500610351562 34.63999938964844,195.3249969482422 40.939998626708984,182.43499755859375 C82.5,97.48500061035156 210.5,108.48500061035156 229.92999267578125,87.94499969482422z M-60.3650016784668,-80.10700225830078 C-59.80500030517578,-93.05699920654297 -46.185001373291016,-100.63700103759766 -33.005001068115234,-100.63700103759766 C-31.614999771118164,-100.63700103759766 -32.994998931884766,-103.2770004272461 -31.905000686645508,-103.2770004272461 C-31.854999542236328,-103.2770004272461 -31.795000076293945,-103.26699829101562 -31.7450008392334,-103.25700378417969 C-28.395000457763672,-109.72699737548828 -21.645000457763672,-114.13700103759766 -13.854999542236328,-114.13700103759766 C-2.7249999046325684,-114.13700103759766 6.304999828338623,-105.11699676513672 6.304999828338623,-93.98699951171875 C6.304999828338623,-93.7770004272461 6.295000076293945,-93.56700134277344 6.295000076293945,-93.36699676513672 C6.135000228881836,-88.12699890136719 3.984999895095825,-83.39700317382812 0.574999988079071,-79.927001953125 C3.8550000190734863,-83.2969970703125 5.965000152587891,-87.8270034790039 6.244999885559082,-92.83699798583984 C5.394999980926514,-83.12699890136719 -6.255000114440918,-79.677001953125 -16.2450008392334,-78.89700317382812 C-18.584999084472656,-68.39700317382812 -23.9950008392334,-55.82699966430664 -34.79499816894531,-54.946998596191406 C-30.864999771118164,-55.14699935913086 -27.165000915527344,-56.266998291015625 -23.934999465942383,-58.106998443603516 C-23.19499969482422,-58.527000427246094 -22.475000381469727,-58.98699951171875 -21.78499984741211,-59.48699951171875 C-22.475000381469727,-58.98699951171875 -23.19499969482422,-58.516998291015625 -23.934999465942383,-58.106998443603516 C-27.315000534057617,-56.15700149536133 -31.21500015258789,-55.016998291015625 -35.3650016784668,-54.90700149536133 C-35.57500076293945,-54.90700149536133 -35.78499984741211,-54.89699935913086 -36.005001068115234,-54.89699935913086 C-49.46500015258789,-54.89699935913086 -60.3849983215332,-65.80699920654297 -60.3849983215332,-79.26699829101562 C-60.3849983215332,-79.5469970703125 -60.3849983215332,-79.8270034790039 -60.3650016784668,-80.10700225830078z"></path></g></g></g></svg>