<svg xmlns="http://www.w3.org/2000/svg" xmlns:xlink="http://www.w3.org/1999/xlink" viewBox="0 0 512 512" width="512" height="512" style="width: 100%; height: 100%; transform: translate3d(0,0,0);" preserveAspectRatio="xMidYMid meet"><defs><clipPath id="__lottie_element_53459"><rect width="512" height="512" x="0" y="0"></rect></clipPath></defs><g clip-path="url(#__lottie_element_53459)"><g style="display: block;" transform="matrix(1,0,0,1,0,0)" opacity="1"><g opacity="1" transform="matrix(1,0,0,1,255.6300048828125,260.23699951171875)"><path fill="rgb(0,0,0)" fill-opacity="1" d=" M83.60099792480469,-48.766998291015625 C83.60099792480469,-48.766998291015625 114.68299865722656,-63.77199935913086 139.33399963378906,-107.71600341796875 C139.33399963378906,-107.71600341796875 153.26699829101562,-95.9260025024414 144.6929931640625,-72.34700012207031 C144.6929931640625,-72.34700012207031 183.2779998779297,-70.2030029296875 221.86300659179688,-125.93599700927734 C221.86300659179688,-125.93599700927734 246.51300048828125,-77.70500183105469 203.64100646972656,-15.541000366210938 C203.64100646972656,-15.541000366210938 216.5030059814453,1.6069999933242798 243.2989959716797,0.5360000133514404 C243.2989959716797,0.5360000133514404 236.86700439453125,48.76599884033203 160.7689971923828,75.56099700927734 C160.7689971923828,75.56099700927734 175.77499389648438,100.21299743652344 226.1490020751953,100.21299743652344 C226.1490020751953,100.21299743652344 188.63699340820312,188.10000610351562 65.37999725341797,132.36700439453125 C65.37999725341797,132.36700439453125 28.93899917602539,86.27999877929688 26.795000076293945,12.326000213623047 C26.795000076293945,12.326000213623047 18.22100067138672,135.58299255371094 71.81099700927734,232.0449981689453 C71.81099700927734,232.0449981689453 54.6619987487793,249.1929931640625 32.15399932861328,240.61900329589844 C32.15399932861328,240.61900329589844 12.862000465393066,191.3159942626953 8.574999809265137,120.5770034790039 C8.574999809265137,120.5770034790039 -30.179000854492188,160.97999572753906 -86.71900177001953,171.468994140625 C-121.34200286865234,177.89300537109375 -162.63600158691406,173.0989990234375 -205.78500366210938,140.9409942626953 C-195.0659942626953,138.7969970703125 -160.42599487304688,122.43399810791016 -153.26699829101562,105.5719985961914 C-184.3489990234375,109.85900115966797 -235.79600524902344,78.7770004272461 -246.51400756835938,32.689998626708984 C-225.6840057373047,36.680999755859375 -210.8679962158203,33.529998779296875 -200.42599487304688,25.187000274658203 C-200.42599487304688,25.187000274658203 -245.4409942626953,-26.259000778198242 -226.1490020751953,-91.63899993896484 C-205.83200073242188,-69.62300109863281 -182.53700256347656,-54.005001068115234 -155.41000366210938,-46.62300109863281 C-156.9219970703125,-56.48500061035156 -161.3990020751953,-81.97799682617188 -146.83599853515625,-95.9260025024414 C-146.83599853515625,-95.9260025024414 -116.82499694824219,-48.766998291015625 -82.52799987792969,-43.40800094604492 C-82.52799987792969,-43.40800094604492 -110.3949966430664,-79.8489990234375 -101.81999969482422,-133.43899536132812 C-88.0530014038086,-133.50900268554688 -72.95899963378906,-130.43800354003906 -56.80500030517578,-124.86499786376953 C-56.80500030517578,-124.86499786376953 -65.37899780273438,-176.31100463867188 -11.788999557495117,-249.1929931640625 C-11.788999557495117,-249.1929931640625 22.858999252319336,-210.7429962158203 35.36899948120117,-177.38299560546875 C41.79899978637695,-160.23399353027344 45.01499938964844,-133.43899536132812 45.01499938964844,-133.43899536132812 C45.01499938964844,-133.43899536132812 58.94900131225586,-144.15699768066406 88.95800018310547,-153.80299377441406 C88.95800018310547,-153.80299377441406 101.8219985961914,-113.07499694824219 83.60099792480469,-48.766998291015625z"></path></g></g></g></svg>