<svg xmlns="http://www.w3.org/2000/svg" xmlns:xlink="http://www.w3.org/1999/xlink" viewBox="0 0 512 512" width="512" height="512" style="width: 100%; height: 100%; transform: translate3d(0,0,0);" preserveAspectRatio="xMidYMid meet"><defs><clipPath id="__lottie_element_53204"><rect width="512" height="512" x="0" y="0"></rect></clipPath></defs><g clip-path="url(#__lottie_element_53204)"><g style="display: block;" transform="matrix(2.962939977645874,0,0,2.962939977645874,2.8374481201171875,2.8374481201171875)" opacity="1"><g opacity="1" transform="matrix(1,0,0,1,94.14399719238281,109.51399993896484)"><path fill="rgb(0,0,0)" fill-opacity="1" d=" M44.31999969482422,-41.891998291015625 C42.02199935913086,-42.79100036621094 39.6349983215332,-43.465999603271484 37.332000732421875,-44.17300033569336 C36.58399963378906,-44.402000427246094 36.08599853515625,-45.11399841308594 36.111000061035156,-45.895999908447266 C36.39699935913086,-54.87300109863281 35.361000061035156,-55.678001403808594 26.139999389648438,-58.46900177001953 C18.320999145507812,-60.83599853515625 10.534000396728516,-60.75199890136719 2.4600000381469727,-59.987998962402344 C-13.579000473022461,-58.46799850463867 -28.072999954223633,-53.275001525878906 -40.856998443603516,-43.54999923706055 C-47.74399948120117,-38.31100082397461 -53.29800033569336,-31.801000595092773 -55.321998596191406,-23.17799949645996 C-55.930999755859375,-20.586000442504883 -54.89500045776367,-17.474000930786133 -54.14500045776367,-14.727999687194824 C-52.801998138427734,-9.810999870300293 -50.084999084472656,-5.059999942779541 -49.750999450683594,-0.11699999868869781 C-48.88800048828125,12.670000076293945 -48.374000549316406,25.586999893188477 -54.93199920654297,37.34000015258789 C-53.83599853515625,39.17900085449219 -50.29199981689453,42.527000427246094 -38.60499954223633,41.9119987487793 C-33.40999984741211,41.638999938964844 -30.079999923706055,39.78300094604492 -28.500999450683594,38.165000915527344 C-20.951000213623047,30.43000030517578 -18.72599983215332,3.743000030517578 -18.55699920654297,0.4230000078678131 C-18.520000457763672,-0.3059999942779541 -17.788000106811523,-1.8580000400543213 -16.395999908447266,-1.9220000505447388 C-14.21399974822998,-2.0239999294281006 -13.633000373840332,0.0949999988079071 -13.585000038146973,0.8450000286102295 C-13.29699993133545,5.324999809265137 -13.592000007629395,7.854000091552734 -13.555000305175781,14.322999954223633 C-13.486000061035156,26.702999114990234 -10.564000129699707,34.465999603271484 -3.822000026702881,42.77299880981445 C5.22599983215332,53.91899871826172 24.929000854492188,60.83599853515625 37.92300033569336,57.856998443603516 C38.76599884033203,57.66299819946289 39.35200119018555,56.89899826049805 39.29899978637695,56.0359992980957 C38.19499969482422,38 37.08300018310547,19.062000274658203 36.02000045776367,1.121000051498413 C35.845001220703125,-1.8350000381469727 34.14400100708008,-2.5220000743865967 31.517000198364258,-3.0899999141693115 C24.05500030517578,-4.703999996185303 16.549999237060547,-6.3460001945495605 9.35099983215332,-8.817000389099121 C6.889999866485596,-9.661999702453613 3.7799999713897705,-11.95199966430664 3.7070000171661377,-14.21399974822998 C3.630000114440918,-16.55699920654297 6.414000034332275,-19.687000274658203 8.758000373840332,-21.281999588012695 C15.131999969482422,-25.621000289916992 22.145999908447266,-25.51799964904785 29.305999755859375,-24.698999404907227 C37.15999984741211,-23.799999237060547 41.867000579833984,-18.20400047302246 43.54100036621094,-10.765000343322754 C44.85599899291992,-4.923999786376953 45.90399932861328,0.9769999980926514 47.130001068115234,6.840000152587891 C47.26900100708008,7.502999782562256 47.444000244140625,8.157999992370605 47.65800094604492,8.899999618530273 C48.16400146484375,10.652000427246094 50.784000396728516,10.565999984741211 51.04800033569336,8.76200008392334 C51.04899978637695,8.751999855041504 51.04999923706055,8.741999626159668 51.05099868774414,8.732000350952148 C52.59199905395508,-2.944000005722046 54.439998626708984,-14.60200023651123 55.34199905395508,-26.33099937438965 C55.930999755859375,-33.994998931884766 51.369998931884766,-39.13399887084961 44.31999969482422,-41.891998291015625z"></path></g><g opacity="1" transform="matrix(1,0,0,1,66.80799865722656,41.21099853515625)"><path fill="rgb(0,0,0)" fill-opacity="1" d=" M50.98400115966797,0.8119999766349792 C51.972999572753906,-8.61299991607666 53.0260009765625,-14.3149995803833 53.763999938964844,-23.045000076293945 C54.542999267578125,-32.27000045776367 53.277000427246094,-32.43600082397461 44.196998596191406,-33.694000244140625 C-2.494999885559082,-40.16299819946289 -47.36600112915039,-7.184999942779541 -54.316001892089844,29.67300033569336 C-54.542999267578125,30.874000549316406 -53.76499938964844,32.020999908447266 -52.55699920654297,32.21200180053711 C-46.965999603271484,33.09400177001953 -42.56800079345703,34.9739990234375 -37.32400131225586,40.16299819946289 C-15.704000473022461,8.993000030517578 12.644000053405762,-6.138999938964844 50.98400115966797,0.8119999766349792z"></path></g></g></g></svg>