<svg xmlns="http://www.w3.org/2000/svg" xmlns:xlink="http://www.w3.org/1999/xlink" viewBox="0 0 512 512" width="512" height="512" style="width: 100%; height: 100%; transform: translate3d(0,0,0);" preserveAspectRatio="xMidYMid meet"><defs><clipPath id="__lottie_element_52985"><rect width="512" height="512" x="0" y="0"></rect></clipPath></defs><g clip-path="url(#__lottie_element_52985)"><g style="display: block;" transform="matrix(1,0,0,1,244.5240020751953,254.78799438476562)" opacity="1"><g opacity="1" transform="matrix(1,0,0,1,0,0)"><path fill="rgb(0,0,0)" fill-opacity="1" d=" M184.12899780273438,-129.86700439453125 C191.09800720214844,-149.35299682617188 203.47999572753906,-196.3489990234375 170.843994140625,-217.91400146484375 C138.2220001220703,-239.46400451660156 89.16300201416016,-212.24000549316406 66.45500183105469,-195.56399536132812 C66.45500183105469,-195.56399536132812 -57.03099822998047,-225.81399536132812 -165.9530029296875,-78.63700103759766 C-247.72900390625,31.85700035095215 -188.125,156.4510040283203 -182.60000610351562,164.66700744628906 C-177.0760040283203,172.8979949951172 -188.83799743652344,208.02000427246094 -171.5279998779297,218.85400390625 C-154.23199462890625,229.67300415039062 -120.60399627685547,212.9669952392578 -105.88099670410156,216.32200622558594 C29.479000091552734,247.1909942626953 103.38500213623047,199.0050048828125 152.57699584960938,132.5240020751953 C261.5,-14.668000221252441 177.16000366210938,-110.38099670410156 184.12899780273438,-129.86700439453125z M112.50399780273438,-42.56700134277344 C119.01899719238281,-53.880001068115234 129.1909942626953,-60.233001708984375 135.2239990234375,-56.75899887084961 C141.2570037841797,-53.28499984741211 140.8679962158203,-41.29800033569336 134.35299682617188,-29.985000610351562 C127.83799743652344,-18.672000885009766 117.66600036621094,-12.317999839782715 111.63300323486328,-15.791999816894531 C105.5999984741211,-19.266000747680664 105.98899841308594,-31.253999710083008 112.50399780273438,-42.56700134277344z M131.70199584960938,9.319000244140625 C137.92599487304688,-5.875999927520752 149.54100036621094,-15.503000259399414 157.6439971923828,-12.184000015258789 C165.7469940185547,-8.864999771118164 167.27099609375,6.14300012588501 161.0469970703125,21.33799934387207 C154.822998046875,36.53300094604492 143.20899963378906,46.15999984741211 135.1060028076172,42.840999603271484 C127.00199890136719,39.52199935913086 125.47799682617188,24.513999938964844 131.70199584960938,9.319000244140625z"></path></g></g></g></svg>