<svg xmlns="http://www.w3.org/2000/svg" xmlns:xlink="http://www.w3.org/1999/xlink" viewBox="0 0 512 512" width="512" height="512" style="width: 100%; height: 100%; transform: translate3d(0,0,0);" preserveAspectRatio="xMidYMid meet"><defs><clipPath id="__lottie_element_53155"><rect width="512" height="512" x="0" y="0"></rect></clipPath></defs><g clip-path="url(#__lottie_element_53155)"><g style="display: block;" transform="matrix(1,0,0,1,379.20001220703125,349.09100341796875)" opacity="1"><g opacity="1" transform="matrix(1,0,0,1,0,0)"><path fill="rgb(0,0,0)" fill-opacity="1" d=" M-67.12799835205078,-49.84400177001953 C-72.1969985961914,-17.179000854492188 -81.16500091552734,65.12699890136719 -81.16500091552734,65.12699890136719 C-80.23799896240234,78.3290023803711 -67.94599914550781,88.2699966430664 -53.68199920654297,87.48500061035156 C-21.229000091552734,85.6989974975586 32.27399826049805,78.4000015258789 73.39700317382812,40.81800079345703 C83.4219970703125,31.656999588012695 83.80899810791016,16.788000106811523 74.18000030517578,7.2779998779296875 C74.18000030517578,7.2779998779296875 -6.677000045776367,-75.11199951171875 -6.677000045776367,-75.11199951171875 C-18.075000762939453,-86.36799621582031 -32.507999420166016,-90.79199981689453 -45.52799987792969,-84.9469985961914 C-59.30799865722656,-78.76000213623047 -64.9530029296875,-63.862998962402344 -67.12799835205078,-49.84400177001953z"></path></g></g><g style="display: block;" transform="matrix(1,0,0,1,181.5,162.16600036621094)" opacity="1"><g opacity="1" transform="matrix(1,0,0,1,0,0)"><path fill="rgb(0,0,0)" fill-opacity="1" d=" M5.241000175476074,-74.2239990234375 C-12.177000045776367,-89.7020034790039 -27.61400032043457,-83.75499725341797 -37.685001373291016,-74.5780029296875 C-63.582000732421875,-50.979000091552734 -94.00199890136719,13.423999786376953 -83.3479995727539,65.71299743652344 C-80.7509994506836,78.45899963378906 -68.69200134277344,86.18800354003906 -56.10300064086914,83.072998046875 C-56.10300064086914,83.072998046875 66.55899810791016,43.827999114990234 66.55899810791016,43.827999114990234 C84.44400024414062,36.433998107910156 93.5530014038086,20.670000076293945 76.36799621582031,1.3309999704360962 C54.32400131225586,-23.47599983215332 5.241000175476074,-74.2239990234375 5.241000175476074,-74.2239990234375z"></path></g></g><g style="display: block;" transform="matrix(1,0,0,1,209.6510009765625,314.66900634765625)" opacity="1"><g opacity="1" transform="matrix(1,0,0,1,0,0)"><path fill="rgb(0,0,0)" fill-opacity="1" d=" M40.25,-91.71399688720703 C40.25,-91.71399688720703 -84.13899993896484,-41.17399978637695 -84.13899993896484,-41.17399978637695 C-95.58899688720703,-34.53799819946289 -97.63200378417969,-19.84600067138672 -92.13700103759766,-6.658999919891357 C-79.11399841308594,24.59600067138672 -58.73699951171875,65.73200225830078 7.394000053405762,93.83699798583984 C19.892000198364258,99.14900207519531 33.55400085449219,92.6240005493164 37.86199951171875,79.79399871826172 C37.86199951171875,79.79399871826172 92.61599731445312,-44.50600051879883 92.61599731445312,-44.50600051879883 C97.71499633789062,-59.69200134277344 94.91600036621094,-72.04900360107422 83.34100341796875,-83.72000122070312 C70.62200164794922,-96.54299926757812 52.52399826049805,-98.8280029296875 40.25,-91.71399688720703z"></path></g></g><g style="display: block;" transform="matrix(1,0,0,1,260.5409851074219,264.197998046875)" opacity="1"><g opacity="1" transform="matrix(1,0,0,1,0,0)"><path fill="rgb(0,0,0)" fill-opacity="1" d=" M49.2869987487793,241.1540069580078 C-28.225000381469727,241.1540069580078 -101.13899993896484,212.08700561523438 -156.0229949951172,159.3090057373047 C-211.1300048828125,106.31500244140625 -241.47900390625,35.792999267578125 -241.47900390625,-39.26499938964844 C-241.47900390625,-112.875 -212.1320037841797,-182.4199981689453 -158.8419952392578,-235.08900451660156 C-150.59300231933594,-243.2429962158203 -137.29600524902344,-243.1649932861328 -129.14300537109375,-234.91600036621094 C-120.98999786376953,-226.66700744628906 -121.06800079345703,-213.37100219726562 -129.31700134277344,-205.21800231933594 C-174.56199645996094,-160.5 -199.47900390625,-101.56300354003906 -199.47900390625,-39.26499938964844 C-199.47900390625,24.26300048828125 -173.70599365234375,84.03399658203125 -126.91000366210938,129.03599548339844 C-79.88899993896484,174.2519989013672 -17.31599998474121,199.1540069580078 49.2869987487793,199.1540069580078 C109.68000030517578,199.1540069580078 169.8179931640625,178.27099609375 206.23399353027344,144.6540069580078 C214.75599670410156,136.78799438476562 228.04100036621094,137.3179931640625 235.90899658203125,145.83999633789062 C243.7760009765625,154.36199951171875 243.24400329589844,167.6479949951172 234.7220001220703,175.51499938964844 C190.19900512695312,216.61599731445312 120.87699890136719,241.1540069580078 49.2869987487793,241.1540069580078z"></path></g></g></g></svg>