<svg xmlns="http://www.w3.org/2000/svg" xmlns:xlink="http://www.w3.org/1999/xlink" viewBox="0 0 512 512" width="512" height="512" style="width: 100%; height: 100%; transform: translate3d(0,0,0);" preserveAspectRatio="xMidYMid meet"><defs><clipPath id="__lottie_element_51925"><rect width="512" height="512" x="0" y="0"></rect></clipPath></defs><g clip-path="url(#__lottie_element_51925)"><g style="display: block;" transform="matrix(1,0,0,1,-5.720001220703125,10.649993896484375)" opacity="1"><g opacity="1" transform="matrix(1,0,0,1,255.9600067138672,244.19000244140625)"><path fill="rgb(0,0,0)" fill-opacity="1" d=" M123.76000213623047,168.16000366210938 C83.05999755859375,155.5 50.7599983215332,130.16000366210938 37.7599983215332,138.16000366210938 C26.75,144.94000244140625 31.040000915527344,160.6300048828125 19.760000228881836,165.16000366210938 C7.150000095367432,170.22999572753906 -3.2100000381469727,151.6199951171875 -32.2400016784668,141.16000366210938 C-61.18000030517578,130.72999572753906 -73.41999816894531,144.0800018310547 -85.23999786376953,132.16000366210938 C-93.45999908447266,123.86000061035156 -93.23999786376953,55.15999984741211 -90.23999786376953,29.15999984741211 C-88.8499984741211,17.110000610351562 28.940000534057617,32.15999984741211 40.7599983215332,42.15999984741211 C53.7599983215332,53.15999984741211 34.7599983215332,97.16000366210938 49.7599983215332,101.16000366210938 C83.37000274658203,110.12000274658203 118.9000015258789,136.2100067138672 133.75999450683594,132.16000366210938 C148.49000549316406,128.13999938964844 149.94000244140625,72.87999725341797 186.75999450683594,-2.8399999141693115 C218.52000427246094,-68.1500015258789 250.24000549316406,-73.0199966430664 249.75999450683594,-106.83999633789062 C248.91000366210938,-167.22999572753906 134.13999938964844,-222.52999877929688 37.7599983215332,-233.83999633789062 C-48.290000915527344,-243.94000244140625 -161.8800048828125,-228.02999877929688 -177.24000549316406,-174.83999633789062 C-184.1300048828125,-150.97000122070312 -170.66000366210938,-131.58999633789062 -152.24000549316406,-82.83999633789062 C-128.1999969482422,-19.219999313354492 -122.87999725341797,39.47999954223633 -125.23999786376953,81.16000366210938 C-167.2100067138672,50.9900016784668 -214.8699951171875,52.66999816894531 -233.24000549316406,74.16000366210938 C-255.7100067138672,100.44999694824219 -234.36000061035156,156.6300048828125 -201.24000549316406,180.16000366210938 C-163.24000549316406,207.16000366210938 -85.91000366210938,206.49000549316406 -83.23999786376953,194.16000366210938 C-80.01000213623047,179.24000549316406 -174.24000549316406,170.16000366210938 -171.24000549316406,143.16000366210938 C-170.8000030517578,139.24000549316406 -136.22000122070312,141.99000549316406 -103.23999786376953,157.16000366210938 C-53.2400016784668,180.16000366210938 -42.2400016784668,224.16000366210938 76.76000213623047,236.16000366210938 C153.91000366210938,243.94000244140625 227.5399932861328,211.02000427246094 222.75999450683594,186.16000366210938 C217.75999450683594,160.16000366210938 168.75999450683594,182.16000366210938 123.76000213623047,168.16000366210938z M37.880001068115234,-107.24600219726562 C51.49599838256836,-113.87000274658203 82.77999877929688,-100.22000122070312 90.76000213623047,-99.83999633789062 C103.05000305175781,-99.25 84.76000213623047,-142.83999633789062 92.76000213623047,-156.83999633789062 C103.62200164794922,-175.84800720214844 119.01000213623047,-151.49000549316406 133.75999450683594,-146.83999633789062 C150.47999572753906,-141.57000732421875 175.56500244140625,-146.94500732421875 174.75999450683594,-130.83999633789062 C173.75999450683594,-110.83999633789062 144.1199951171875,-93.19000244140625 146.75999450683594,-86.83999633789062 C149.44000244140625,-80.4000015258789 191.21200561523438,-67.13200378417969 191.29100036621094,-54.143001556396484 C191.4010009765625,-36.11600112915039 173.83399963378906,-39.4119987487793 163.48899841308594,-28.8439998626709 C155.14100646972656,-20.315000534057617 149.78900146484375,7.681000232696533 129.5449981689453,8.085000038146973 C113.41300201416016,8.406999588012695 111.76000213623047,-40.84000015258789 101.76000213623047,-43.84000015258789 C96.10600280761719,-45.5359992980957 41.38399887084961,-16.378999710083008 30.257999420166016,-32.63399887084961 C22.024999618530273,-44.66299819946289 36.20399856567383,-53.229000091552734 37.25199890136719,-66.45899963378906 C38.194000244140625,-78.35600280761719 17.70400047302246,-97.43099975585938 37.880001068115234,-107.24600219726562z"></path></g><g opacity="1" transform="matrix(1,0,0,1,230.05099487304688,332.8450012207031)"><path fill="rgb(0,0,0)" fill-opacity="1" d=" M-35.33100128173828,-31.4950008392334 C-39.5099983215332,-25.55500030517578 -44.667999267578125,22.073999404907227 -34.33100128173828,22.5049991607666 C-10.331000328063965,23.5049991607666 25.66900062561035,39.85100173950195 32.66899871826172,38.505001068115234 C41.15299987792969,36.874000549316406 44.66899871826172,-23.4950008392334 37.66899871826172,-25.4950008392334 C27.80900001525879,-28.312000274658203 -29.452999114990234,-39.85200119018555 -35.33100128173828,-31.4950008392334z"></path></g></g></g></svg>