<svg xmlns="http://www.w3.org/2000/svg" xmlns:xlink="http://www.w3.org/1999/xlink" viewBox="0 0 512 512" width="512" height="512" style="width: 100%; height: 100%; transform: translate3d(0,0,0);" preserveAspectRatio="xMidYMid meet"><defs><clipPath id="__lottie_element_51360"><rect width="512" height="512" x="0" y="0"></rect></clipPath></defs><g clip-path="url(#__lottie_element_51360)"><g style="display: block;" transform="matrix(1,0,0,1,255.99998474121094,256)" opacity="1"><g opacity="1" transform="matrix(1,0,0,1,0,0)"><path fill="rgb(0,0,0)" fill-opacity="1" d=" M-228.1929931640625,228.06500244140625 C-228.1929931640625,228.06500244140625 -228.1929931640625,228.06500244140625 -228.1929931640625,228.06500244140625 C-209.95799255371094,246.2989959716797 -178.7689971923828,249.427001953125 -155.93600463867188,226.59300231933594 C-140.16099548339844,241.46499633789062 -115.31900024414062,241.19500732421875 -99.88600158691406,225.76199340820312 C-82.56099700927734,208.43699645996094 -49.819000244140625,168.41299438476562 11.638999938964844,174.79800415039062 C208.21400451660156,195.2209930419922 321.9129943847656,-45.11199951171875 179.3769989013672,-183.72999572753906 C40.33599853515625,-318.947998046875 -194.38299560546875,-206.83999633789062 -175.01400756835938,-12.630000114440918 C-168.843994140625,49.23899841308594 -206.927001953125,80.79399871826172 -225.89100646972656,99.75800323486328 C-241.32400512695312,115.19100189208984 -241.59300231933594,140.0330047607422 -226.7209930419922,155.80799865722656 C-249.35699462890625,178.44400024414062 -246.6009979248047,209.65699768066406 -228.1929931640625,228.06500244140625z M-71.68000030517578,-112.8239974975586 C-70.82099914550781,-133.9290008544922 -38.845001220703125,-132.67599487304688 -39.70600128173828,-111.52300262451172 C-40.53099822998047,-91.23500061035156 -42.26599884033203,-72.91000366210938 -44.694000244140625,-56.31700134277344 C-43.362998962402344,-60.0629997253418 -41.9370002746582,-63.68299865722656 -40.854000091552734,-67.01399993896484 C-34.319000244140625,-87.11699676513672 -3.877000093460083,-77.25299835205078 -10.42300033569336,-57.119998931884766 C-12.522000312805176,-50.66299819946289 -15.494000434875488,-43.73400115966797 -16.73900032043457,-38.61800003051758 C-3.180999994277954,-41.917999267578125 21.69499969482422,-57.415000915527344 39.4900016784668,-39.61800003051758 C57.27799987792969,-21.829999923706055 41.79199981689453,3.0409998893737793 38.4900016784668,16.611000061035156 C43.60100173950195,15.366999626159668 50.54499816894531,12.390000343322754 56.99100112915039,10.293999671936035 C77.09500122070312,3.759000062942505 87.01899719238281,34.18000030517578 66.88600158691406,40.72600173950195 C63.5369987487793,41.814998626708984 59.92100143432617,43.2400016784668 56.19200134277344,44.564998626708984 C72.78399658203125,42.137001037597656 91.10900115966797,40.40299987792969 111.39600372314453,39.577999114990234 C120.2229995727539,39.22600173950195 127.67400360107422,46.084999084472656 128.03199768066406,54.91400146484375 C128.39100646972656,63.74300003051758 121.5250015258789,71.19200134277344 112.69599914550781,71.5510025024414 C-12.175000190734863,76.63200378417969 -53.952999114990234,117.72100067138672 -74.0780029296875,138.92300415039062 C-78.72599792480469,128.8769989013672 -84.8499984741211,119.66400146484375 -91.9520034790039,111.36100006103516 C-72.97100067138672,92.1240005493164 -39.369998931884766,63.685001373291016 31.860000610351562,48.8489990234375 C25.784000396728516,48.25600051879883 19.792999267578125,45.933998107910156 14.480999946594238,40.62099838256836 C-3.306999921798706,22.833999633789062 12.178999900817871,-2.0409998893737793 15.480999946594238,-15.609999656677246 C1.940000057220459,-12.314000129699707 -22.95800018310547,3.184000015258789 -40.749000549316406,-14.609000205993652 C-46.05500030517578,-19.915000915527344 -48.38600158691406,-25.898000717163086 -48.981998443603516,-31.965999603271484 C-63.915000915527344,39.70899963378906 -92.62000274658203,73.27400207519531 -111.85900115966797,92.18599700927734 C-120.66300201416016,85.13200378417969 -130.05099487304688,79.14399719238281 -139.4239959716797,74.3030014038086 C-118.33399963378906,54.31399917602539 -76.79000091552734,12.779999732971191 -71.68000030517578,-112.8239974975586z"></path></g></g></g></svg>