<svg xmlns="http://www.w3.org/2000/svg" xmlns:xlink="http://www.w3.org/1999/xlink" viewBox="0 0 512 512" width="512" height="512" style="width: 100%; height: 100%; transform: translate3d(0,0,0);" preserveAspectRatio="xMidYMid meet"><defs><clipPath id="__lottie_element_51965"><rect width="512" height="512" x="0" y="0"></rect></clipPath></defs><g clip-path="url(#__lottie_element_51965)"><g style="display: block;" transform="matrix(1,0,0,1,256,256)" opacity="1"><g opacity="1" transform="matrix(1,0,0,1,0,0)"><path fill="rgb(0,0,0)" fill-opacity="1" d=" M222.76699829101562,-122.41000366210938 C162.44700622558594,-105.98200225830078 25.874000549316406,-64.72599792480469 -75.56099700927734,-3.6470000743865967 C-75.56099700927734,-3.6470000743865967 7.776000022888184,-121.37799835205078 178.2550048828125,-221.19200134277344 C185.0959930419922,-225.19700622558594 182.6230010986328,-235.625 174.7100067138672,-236.09500122070312 C127.10700225830078,-238.9239959716797 20.87299919128418,-241.6479949951172 -93.18900299072266,-220.86399841308594 C-117.03700256347656,-216.51800537109375 -137.99000549316406,-202.39300537109375 -151.0959930419922,-182 C-171.1719970703125,-150.76100158691406 -199.76600646972656,-96.08699798583984 -219.32699584960938,-15.817000389099121 C-221.81500244140625,-5.607999801635742 -224.1580047607422,5.01200008392334 -226.31700134277344,16.054000854492188 C-233.9239959716797,54.95000076293945 -239.27200317382812,99.03500366210938 -240.77499389648438,148.51800537109375 C-241.18299865722656,161.92999267578125 -225.91000366210938,169.86300659179688 -215.1790008544922,161.80599975585938 C-171.80099487304688,129.23699951171875 -77.3499984741211,63.683998107910156 43.98099899291992,10.89799976348877 C43.98099899291992,10.89799976348877 38.8129997253418,52.66899871826172 6.414000034332275,110.66899871826172 C6.414000034332275,110.66899871826172 -0.26600000262260437,75.16200256347656 -0.26600000262260437,75.16200256347656 C-1.8250000476837158,66.8740005493164 -13.489999771118164,66.3270034790039 -15.817000389099121,74.43299865722656 C-15.817000389099121,74.43299865722656 -60.97100067138672,231.68499755859375 -60.97100067138672,231.68499755859375 C-62.667999267578125,238.51699829101562 -55.3489990234375,244.052001953125 -49.23699951171875,240.5590057373047 C-49.23699951171875,240.5590057373047 163.05599975585938,119.24800109863281 163.05599975585938,119.24800109863281 C171.00100708007812,114.70800018310547 166.33999633789062,102.54000091552734 157.3979949951172,104.48200225830078 C131.16000366210938,110.18099975585938 99.49199676513672,117.52999877929688 75.66699981689453,124.53700256347656 C75.66699981689453,124.53700256347656 187.54299926757812,20.03700065612793 241.53199768066406,-100.36599731445312 C247.072998046875,-112.7239990234375 235.83399963378906,-125.96900177001953 222.76699829101562,-122.41000366210938z"></path></g></g></g></svg>