<svg xmlns="http://www.w3.org/2000/svg" xmlns:xlink="http://www.w3.org/1999/xlink" viewBox="0 0 512 512" width="512" height="512" style="width: 100%; height: 100%; transform: translate3d(0,0,0);" preserveAspectRatio="xMidYMid meet"><defs><clipPath id="__lottie_element_15856"><rect width="512" height="512" x="0" y="0"></rect></clipPath></defs><g clip-path="url(#__lottie_element_15856)"><g style="display: block;" transform="matrix(1.0399999618530273,0,0,1.0399999618530273,-3.960784912109375,62.18901062011719)" opacity="1"><g opacity="1" transform="matrix(1,0,0,1,253.04400634765625,202.52499389648438)"><path fill="rgb(0,0,0)" fill-opacity="1" d=" M214.12399291992188,-181.81500244140625 C203.28500366210938,-185.1649932861328 210.46400451660156,-113.1449966430664 198.46400451660156,-50.48500061035156 C186.86500549316406,10.055000305175781 171.65499877929688,55.19499969482422 167.79400634765625,54.185001373291016 C160.52499389648438,52.28499984741211 201.79400634765625,-155.81500244140625 182.46400451660156,-188.48500061035156 C174.29400634765625,-202.27499389648438 -158.20599365234375,-201.81500244140625 -182.87600708007812,-184.48500061035156 C-206.33599853515625,-167.9949951171875 -252.7949981689453,58.21500015258789 -233.53599548339844,81.51499938964844 C-217.70599365234375,100.68499755859375 -143.05599975585938,89.06500244140625 -126.8759994506836,99.51499938964844 C-112.65599822998047,108.70500183105469 -70.80599975585938,180.78500366210938 -51.36600112915039,178.98500061035156 C-35.5359992980957,177.51499938964844 22.464000701904297,125.51499938964844 45.79399871826172,98.51499938964844 C52.604000091552734,90.63500213623047 53.124000549316406,99.18499755859375 48.4640007019043,106.51499938964844 C34.904998779296875,127.81500244140625 -3.2060000896453857,173.18499755859375 -30.535999298095703,191.18499755859375 C-35.96500015258789,194.7550048828125 -14.38599967956543,202.27499389648438 -4.875999927520752,196.85499572753906 C47.79399871826172,166.85499572753906 70.79399871826172,112.51499938964844 90.1240005493164,105.8550033569336 C104.25399780273438,100.98500061035156 175.02499389648438,109.99500274658203 189.79400634765625,102.18499755859375 C252.79400634765625,68.8550033569336 233.5749969482422,-175.81500244140625 214.12399291992188,-181.81500244140625z M-94.8759994506836,17.514999389648438 C-112.20600128173828,17.514999389648438 -169.20599365234375,-26.315000534057617 -159.87600708007812,-66.81500244140625 C-155.46499633789062,-85.91500091552734 -142.20599365234375,-107.31500244140625 -117.20600128173828,-106.48500061035156 C-90.65599822998047,-105.59500122070312 -89.24600219726562,-88.67500305175781 -81.53600311279297,-89.1449966430664 C-73.61599731445312,-89.63500213623047 -68.20600128173828,-114.81500244140625 -37.20600128173828,-112.31500244140625 C-9.185999870300293,-110.05500030517578 2.4549999237060547,-92.31500244140625 2.4639999866485596,-69.48500061035156 C2.4739999771118164,-24.815000534057617 -73.19599914550781,17.514999389648438 -94.8759994506836,17.514999389648438z M131.43499755859375,-114.1449966430664 C130.09500122070312,-93.8550033569336 114.84400177001953,-16.895000457763672 119.46399688720703,-13.484999656677246 C127.1240005493164,-7.815000057220459 127.79399871826172,14.515000343322754 115.29399871826172,16.184999465942383 C98.15499877929688,18.475000381469727 72.13400268554688,15.994999885559082 61.79399871826172,13.854999542236328 C52.124000549316406,11.854999542236328 54.013999938964844,-15.8149995803833 69.9739990234375,-16.05500030517578 C73.63400268554688,-16.114999771118164 81.1240005493164,-74.48500061035156 77.79399871826172,-74.81500244140625 C70.16400146484375,-75.57499694824219 54.08399963378906,-85.8949966430664 62.64400100708008,-98.99500274658203 C71.46399688720703,-112.48500061035156 99.60399627685547,-124.1050033569336 108.26399993896484,-127.125 C119.21399688720703,-130.9550018310547 132.05499267578125,-123.625 131.43499755859375,-114.1449966430664z"></path></g></g></g></svg>