<svg xmlns="http://www.w3.org/2000/svg" xmlns:xlink="http://www.w3.org/1999/xlink" viewBox="0 0 512 512" width="512" height="512" style="width: 100%; height: 100%; transform: translate3d(0,0,0);" preserveAspectRatio="xMidYMid meet"><defs><clipPath id="__lottie_element_52533"><rect width="512" height="512" x="0" y="0"></rect></clipPath></defs><g clip-path="url(#__lottie_element_52533)"><g style="display: block;" transform="matrix(1,0,0,1,0,0)" opacity="1"><g opacity="1" transform="matrix(1,0,0,1,240.11900329589844,108.5979995727539)"><path fill="rgb(4,5,52)" fill-opacity="1" d=" M-36.34299850463867,-86.4800033569336 C-56.1510009765625,-79.72599792480469 -48.71200180053711,-27.72100067138672 -50.97100067138672,-13.038999557495117 C-53.22999954223633,1.6430000066757202 -62.83000183105469,24.79599952697754 -61.70100021362305,34.96099853515625 C-60.571998596191406,45.125999450683594 -34.03099822998047,50.77299880981445 -19.913000106811523,67.14900207519531 C-5.795000076293945,83.5250015258789 -3.2869999408721924,88.04299926757812 3.365000009536743,88.04299926757812 C10.017000198364258,88.04299926757812 19.617000579833984,71.10199737548828 28.652000427246094,53.03099822998047 C37.6870002746582,34.959999084472656 55.44300079345703,28.14699935913086 60.691001892089844,15.781000137329102 C71.00499725341797,-8.522000312805176 6.629000186920166,-101.13300323486328 -36.34299850463867,-86.4800033569336z"></path></g><g opacity="1" transform="matrix(1,0,0,1,257.7879943847656,288.1289978027344)"><path fill="rgb(4,5,52)" fill-opacity="1" d=" M223.3070068359375,15.239999771118164 C192.2570037841797,-12.989999771118164 149.7969970703125,-36.13999938964844 106.41699981689453,-35.02000045776367 C106.41699981689453,-35.02000045776367 129.56700134277344,-36.150001525878906 148.20700073242188,-70.30999755859375 C166.83700561523438,-104.4800033569336 165.14700317382812,-116.9000015258789 188.86700439453125,-140.6199951171875 C212.58700561523438,-164.3300018310547 235.16700744628906,-176.19000244140625 225.56700134277344,-197.08999633789062 C215.9669952392578,-217.97999572753906 93.63700103759766,-208.3800048828125 44.12699890136719,-141.17999267578125 C-5.39300012588501,-73.9800033569336 3.63700008392334,-65.51000213623047 -7.373000144958496,-63.25 C-18.382999420166016,-60.9900016784668 -27.413000106811523,-103.3499984741211 -101.96299743652344,-134.97000122070312 C-176.5030059814453,-166.58999633789062 -249.88299560546875,-117.45999908447266 -247.072998046875,-102.22000122070312 C-243.64300537109375,-83.58999633789062 -203.60299682617188,-87.52999877929688 -190.61300659179688,-71.72000122070312 C-177.63299560546875,-55.90999984741211 -166.31300354003906,-31.780000686645508 -136.97300720214844,-12.430000305175781 C-107.62300109863281,6.929999828338623 -65.81300354003906,-3.259999990463257 -62.43299865722656,0.9100000262260437 C-59.042999267578125,5.079999923706055 -75.41300201416016,12.979999542236328 -108.1729965209961,10.15999984741211 C-140.92300415039062,7.340000152587891 -141.26300048828125,2.130000114440918 -152.10299682617188,0.7799999713897705 C-162.9429931640625,-0.5699999928474426 -201.34300231933594,18.6299991607666 -217.72300720214844,53.63999938964844 C-234.10299682617188,88.6500015258789 -236.36300659179688,124.2300033569336 -223.3730010986328,133.8300018310547 C-210.38299560546875,143.42999267578125 -182.71299743652344,114.62999725341797 -164.64300537109375,102.20999908447266 C-146.572998046875,89.77999877929688 -91.23300170898438,77.91999816894531 -85.58300018310547,83.56999969482422 C-79.93299865722656,89.22000122070312 -82.76300048828125,119.1500015258789 -52.26300048828125,157.5500030517578 C-21.773000717163086,195.9499969482422 10.416999816894531,208.94000244140625 25.097000122070312,206.67999267578125 C39.7869987487793,204.4199981689453 58.41699981689453,182.38999938964844 66.88700103759766,137.22000122070312 C75.35700225830078,92.04000091552734 67.51699829101562,71.81999969482422 69.177001953125,66.68000030517578 C70.83699798583984,61.54999923706055 74.22699737548828,88.08999633789062 123.35700225830078,90.91000366210938 C172.48699951171875,93.73999786376953 182.65699768066406,86.95999908447266 199.5970001220703,93.16999816894531 C216.53700256347656,99.37999725341797 221.61700439453125,111.23999786376953 236.2969970703125,102.20999908447266 C250.98699951171875,93.16999816894531 254.36700439453125,43.47999954223633 223.3070068359375,15.239999771118164z M-55.393001556396484,-23.860000610351562 C-68.68299865722656,-23.860000610351562 -79.46299743652344,-33.310001373291016 -79.46299743652344,-44.970001220703125 C-79.46299743652344,-56.630001068115234 -68.68299865722656,-66.08000183105469 -55.393001556396484,-66.08000183105469 C-42.09299850463867,-66.08000183105469 -31.312999725341797,-56.630001068115234 -31.312999725341797,-44.970001220703125 C-31.312999725341797,-33.310001373291016 -42.09299850463867,-23.860000610351562 -55.393001556396484,-23.860000610351562z M-4.072999954223633,21.110000610351562 C-17.363000869750977,21.110000610351562 -28.14299964904785,11.65999984741211 -28.14299964904785,0 C-28.14299964904785,-11.65999984741211 -17.363000869750977,-21.110000610351562 -4.072999954223633,-21.110000610351562 C9.22700023651123,-21.110000610351562 19.996999740600586,-11.65999984741211 19.996999740600586,0 C19.996999740600586,11.65999984741211 9.22700023651123,21.110000610351562 -4.072999954223633,21.110000610351562z M44.12699890136719,-28.100000381469727 C30.82699966430664,-28.100000381469727 20.047000885009766,-37.54999923706055 20.047000885009766,-49.20000076293945 C20.047000885009766,-60.86000061035156 30.82699966430664,-70.30999755859375 44.12699890136719,-70.30999755859375 C57.41699981689453,-70.30999755859375 68.1969985961914,-60.86000061035156 68.1969985961914,-49.20000076293945 C68.1969985961914,-37.54999923706055 57.41699981689453,-28.100000381469727 44.12699890136719,-28.100000381469727z"></path></g></g></g></svg>