<svg xmlns="http://www.w3.org/2000/svg" xmlns:xlink="http://www.w3.org/1999/xlink" viewBox="0 0 512 512" width="512" height="512" style="width: 100%; height: 100%; transform: translate3d(0,0,0);" preserveAspectRatio="xMidYMid meet"><defs><clipPath id="__lottie_element_9053"><rect width="512" height="512" x="0" y="0"></rect></clipPath></defs><g clip-path="url(#__lottie_element_9053)"><g style="display: block;" transform="matrix(1.0399999618530273,0,0,1.0399999618530273,-32.471343994140625,12.484588623046875)" opacity="1"><g opacity="1" transform="matrix(1,0,0,1,268.739013671875,240.5850067138672)"><path fill="rgb(0,0,0)" fill-opacity="1" d=" M-190.6280059814453,28.266000747680664 C-222.71400451660156,25.266000747680664 -268.489013671875,-88.1240005493164 -124.63099670410156,-129.2259979248047 C-93.13300323486328,-138.2259979248047 -21.378000259399414,-72.01699829101562 -25.63599967956543,-34.73099899291992 C-27.25,-20.604000091552734 -67.63400268554688,5.767000198364258 -57.1349983215332,29.766000747680664 C-53.257999420166016,38.625 -29.267000198364258,15.288999557495117 5.861999988555908,-3.2320001125335693 C28.621000289916992,-15.232000350952148 -58.71799850463867,-111.82599639892578 -42.1349983215332,-123.22699737548828 C-18.136999130249023,-139.7259979248047 22.503999710083008,-32.27899932861328 37.361000061035156,-37.23099899291992 C50.86000061035156,-41.73099899291992 37.59000015258789,-130.10499572753906 32.361000061035156,-145.72500610351562 C25.091999053955078,-167.43699645996094 22.250999450683594,-107.03399658203125 14.862000465393066,-107.72699737548828 C3.756999969482422,-108.76899719238281 -37.290000915527344,-219.27699279785156 25.361000061035156,-232.7209930419922 C53.847999572753906,-238.83399963378906 118.35700225830078,-240.3350067138672 125.85600280761719,-223.7209930419922 C129.2429962158203,-216.22000122070312 106.35700225830078,-210.7830047607422 106.35700225830078,-189.72300720214844 C106.35700225830078,-144.2259979248047 73.93499755859375,-107.60600280761719 85.35800170898438,-100.72799682617188 C97.36799621582031,-93.49600219726562 107.85700225830078,-138.2259979248047 160.35499572753906,-142.7259979248047 C204.34100341796875,-146.49600219726562 245.8419952392578,-111.23200225830078 245.85000610351562,-78.22899627685547 C245.85499572753906,-56.47999954223633 214.7469940185547,-57.0369987487793 209.8520050048828,-64.7300033569336 C199.35299682617188,-81.22899627685547 232.3509979248047,-85.72799682617188 217.3520050048828,-102.22799682617188 C205.14300537109375,-115.65699768066406 123.35700225830078,-62.72999954223633 121.85700225830078,-46.22999954223633 C120.66600036621094,-33.138999938964844 167.85400390625,-67.72899627685547 208.3520050048828,-33.23099899291992 C246.57899475097656,-0.6679999828338623 234.57699584960938,90.86799621582031 209.8520050048828,98.76200103759766 C197.4969940185547,102.70700073242188 178.35400390625,94.26300048828125 178.35400390625,77.76300048828125 C178.35400390625,70.7490005493164 190.74099731445312,70.78700256347656 193.35299682617188,62.763999938964844 C197.67100524902344,49.49800109863281 174.41900634765625,26.18600082397461 146.85499572753906,20.766000747680664 C125.23200225830078,16.514999389648438 101.18900299072266,23.858999252319336 86.85800170898438,37.26499938964844 C71.6729965209961,51.47200012207031 95.35800170898438,130.76100158691406 62.86000061035156,145.25999450683594 C50.40700149536133,150.8159942626953 65.85900115966797,187.25799560546875 20.36199951171875,230.75599670410156 C10.342000007629395,240.3350067138672 -12.13700008392334,231.95599365234375 -1.6369999647140503,217.25599670410156 C15.690999984741211,192.9949951171875 33.861000061035156,149.25999450683594 23.361000061035156,143.25999450683594 C-1.190999984741211,129.22999572753906 11.008999824523926,89.52799987792969 -0.1379999965429306,83.76300048828125 C-13.258000373840332,76.97699737548828 -27.142000198364258,99.16400146484375 -32.63600158691406,117.26100158691406 C-38.840999603271484,137.70399475097656 -24.804000854492188,145.3040008544922 -37.63600158691406,155.75900268554688 C-53.895999908447266,169.00799560546875 -111.03800201416016,131.843994140625 -109.63200378417969,58.263999938964844 C-108.79399871826172,14.397000312805176 -87.00399780273438,-15.470999717712402 -92.13300323486328,-23.73200035095215 C-100.95700073242188,-37.941001892089844 -166.60000610351562,-36.29499816894531 -175.62899780273438,-21.23200035095215 C-184.34300231933594,-6.692999839782715 -171.21299743652344,30.08099937438965 -190.6280059814453,28.266000747680664z"></path></g><g opacity="1" transform="matrix(1,0,0,1,188.2740020751953,82.71199798583984)"><path fill="rgb(0,0,0)" fill-opacity="1" d=" M-32.16699981689453,-14.35099983215332 C-27.895000457763672,-24.099000930786133 -6.330999851226807,-24.507999420166016 8.331000328063965,-18.85099983215332 C21.268999099731445,-13.857999801635742 36.236000061035156,-1.284000039100647 33.83000183105469,8.14799976348877 C31.179000854492188,18.538999557495117 7.598999977111816,24.507999420166016 -9.668000221252441,17.148000717163086 C-23.902999877929688,11.079999923706055 -36.23699951171875,-5.064000129699707 -32.16699981689453,-14.35099983215332z"></path></g><g opacity="1" transform="matrix(1,0,0,1,223.60400390625,29.481000900268555)"><path fill="rgb(0,0,0)" fill-opacity="1" d=" M16.499000549316406,0 C16.499000549316406,13.189000129699707 9.112000465393066,23.8799991607666 0,23.8799991607666 C-9.112000465393066,23.8799991607666 -16.5,13.189000129699707 -16.5,0 C-16.5,-13.187999725341797 -9.112000465393066,-23.8799991607666 0,-23.8799991607666 C9.112000465393066,-23.8799991607666 16.499000549316406,-13.187999725341797 16.499000549316406,0z"></path></g></g></g></svg>