<svg xmlns="http://www.w3.org/2000/svg" xmlns:xlink="http://www.w3.org/1999/xlink" viewBox="0 0 512 512" width="512" height="512" style="width: 100%; height: 100%; transform: translate3d(0,0,0);" preserveAspectRatio="xMidYMid meet"><defs><clipPath id="__lottie_element_52623"><rect width="512" height="512" x="0" y="0"></rect></clipPath></defs><g clip-path="url(#__lottie_element_52623)"><g style="display: block;" transform="matrix(1,0,0,1,256,256)" opacity="1"><g opacity="1" transform="matrix(1,0,0,1,0,0)"><path fill="rgb(0,0,0)" fill-opacity="1" d=" M244.8000030517578,-97.5 C244.8000030517578,-97.5 244.89999389648438,-96.9000015258789 244.89999389648438,-96.9000015258789 C236.7449951171875,-127.77200317382812 225.81100463867188,-143.35499572753906 205.9499969482422,-132.6020050048828 C162.75,-96.4000015258789 99.48300170898438,-75.86699676513672 16.149999618530273,-71 C16.149999618530273,-71 16,-70.8499984741211 16,-70.8499984741211 C-67.5530014038086,-67.81199645996094 -158.656005859375,-92.51499938964844 -203.74899291992188,-132.60000610351562 C-225.21600341796875,-143.71299743652344 -235.77499389648438,-126.12899780273438 -244.14999389648438,-91.80000305175781 C-244.14999389648438,-91.80000305175781 -243.75,-93.69999694824219 -243.75,-93.69999694824219 C-250.83399963378906,-65.11900329589844 -253.39100646972656,-47.91400146484375 -233.60000610351562,-28.299999237060547 C-233.60000610351562,-28.299999237060547 -233.60000610351562,-28.149999618530273 -233.60000610351562,-28.149999618530273 C-220.4149932861328,-15.440999984741211 -199.86199951171875,-11.277999877929688 -182.1999969482422,-16.399999618530273 C-183.4219970703125,-1.3480000495910645 -178.4409942626953,12.277000427246094 -166.9499969482422,22.799999237060547 C-166.9499969482422,22.799999237060547 -166.9499969482422,22.899999618530273 -166.9499969482422,22.899999618530273 C-157.88299560546875,31.299999237060547 -147.10000610351562,35.882999420166016 -134.60000610351562,36.650001525878906 C-138.98399353027344,53.744998931884766 -134.36199951171875,71.9749984741211 -120.75,84.0999984741211 C-120.75,84.0999984741211 -120.75,84.25 -120.75,84.25 C-108.86599731445312,95.6500015258789 -91.73500061035156,100.01399993896484 -75.25,97.4000015258789 C-67.98300170898438,116.16699981689453 -59.78300094604492,135.35000610351562 -50.650001525878906,154.9499969482422 C-43.45000076293945,165.85000610351562 -24.732999801635742,171.58299255371094 5.5,172.14999389648438 C24.632999420166016,172.51699829101562 39.28300094604492,167.89999389648438 49.45000076293945,158.3000030517578 C60.75,136.4669952392578 70.03299713134766,116.16699981689453 77.30000305175781,97.4000015258789 C93.79100036621094,100.01300048828125 110.91000366210938,95.6510009765625 122.80000305175781,84.25 C122.80000305175781,84.25 122.80000305175781,84.0999984741211 122.80000305175781,84.0999984741211 C136.48199462890625,71.96900177001953 140.86199951171875,53.7869987487793 136.8000030517578,36.650001525878906 C149.1999969482422,35.882999420166016 159.93299865722656,31.299999237060547 169,22.899999618530273 C169,22.899999618530273 169,22.799999237060547 169,22.799999237060547 C180.49099731445312,12.279000282287598 185.47300720214844,-1.350000023841858 184.25,-16.399999618530273 C201.91900634765625,-11.279000282287598 222.45700073242188,-15.439000129699707 235.64999389648438,-28.149999618530273 C235.64999389648438,-28.149999618530273 235.64999389648438,-28.299999237060547 235.64999389648438,-28.299999237060547 C256.6619873046875,-49.849998474121094 252.36000061035156,-65.50499725341797 244.8000030517578,-97.5 M223.0500030517578,-63.70000076293945 C223.0659942626953,-57.87799835205078 220.8939971923828,-52.827999114990234 216.60000610351562,-48.75 C216.60000610351562,-48.75 216.4499969482422,-48.75 216.4499969482422,-48.75 C208.99899291992188,-41.564998626708984 196.01800537109375,-40.16899871826172 187.0500030517578,-45.400001525878906 C200.65499877929688,-52.69499969482422 213.97799682617188,-59.983001708984375 223.0500030517578,-63.70000076293945 M153.3000030517578,-22.700000762939453 C158.4010009765625,-15.003999710083008 156.97500610351562,-3.9189999103546143 149.9499969482422,2.3499999046325684 C149.9499969482422,2.3499999046325684 149.8000030517578,2.3499999046325684 149.8000030517578,2.3499999046325684 C142.88900756835938,9.029000282287598 131.10400390625,10.72700023651123 122.4000015258789,6.699999809265137 C131.33299255371094,-3.867000102996826 141.63299560546875,-13.666999816894531 153.3000030517578,-22.700000762939453 M103.05000305175781,33.849998474121094 C103.25,34.117000579833984 103.48300170898438,34.349998474121094 103.75,34.54999923706055 C103.75,34.54999923706055 103.6500015258789,34.54999923706055 103.6500015258789,34.54999923706055 C112.28600311279297,42.1619987487793 112.2760009765625,55.9900016784668 103.75,63.650001525878906 C103.75,63.650001525878906 103.6500015258789,63.650001525878906 103.6500015258789,63.650001525878906 C98.95500183105469,67.98300170898438 93.2229995727539,70.13600158691406 86.55000305175781,70.0999984741211 C90.8499984741211,57.29999923706055 96.3499984741211,45.21699905395508 103.05000305175781,33.849998474121094 M-221,-63.29999923706055 C-221,-63.5 -221,-63.632999420166016 -221,-63.70000076293945 C-212.11000061035156,-59.972999572753906 -200.77200317382812,-53.94900131225586 -187.10000610351562,-46.5 C-186.4669952392578,-46.132999420166016 -185.76699829101562,-45.766998291015625 -185,-45.400001525878906 C-193.97000122070312,-40.16899871826172 -206.9459991455078,-41.564998626708984 -214.39999389648438,-48.75 C-214.39999389648438,-48.75 -214.5500030517578,-48.75 -214.5500030517578,-48.75 C-218.75,-52.75 -220.89999389648438,-57.599998474121094 -221,-63.29999923706055 M-154.35000610351562,-12.199999809265137 C-154.25,-16.132999420166016 -153.18299865722656,-19.632999420166016 -151.14999389648438,-22.700000762939453 C-139.5500030517578,-13.666999816894531 -129.2830047607422,-3.816999912261963 -120.3499984741211,6.849999904632568 C-129.1020050048828,10.619999885559082 -140.8419952392578,9.055999755859375 -147.75,2.3499999046325684 C-147.75,2.3499999046325684 -147.89999389648438,2.3499999046325684 -147.89999389648438,2.3499999046325684 C-152.10000610351562,-1.649999976158142 -154.25,-6.5 -154.35000610351562,-12.199999809265137 M-101.5999984741211,34.54999923706055 C-101.5999984741211,34.54999923706055 -101.69999694824219,34.54999923706055 -101.69999694824219,34.54999923706055 C-101.43299865722656,34.349998474121094 -101.16699981689453,34.16699981689453 -100.9000015258789,34 C-94.26699829101562,45.266998291015625 -88.80000305175781,57.29999923706055 -84.5,70.0999984741211 C-91.1729965209961,70.13600158691406 -96.90499877929688,67.98300170898438 -101.5999984741211,63.650001525878906 C-101.5999984741211,63.650001525878906 -101.69999694824219,63.650001525878906 -101.69999694824219,63.650001525878906 C-110.22599792480469,55.9900016784668 -110.23600006103516,42.1619987487793 -101.5999984741211,34.54999923706055 M36.29999923706055,-19.049999237060547 C48.40599822998047,-15.28600025177002 52.85499954223633,-3.0799999237060547 52.39899826049805,8.649999618530273 C51.150001525878906,32.999000549316406 24.631000518798828,62.77299880981445 0.9010000228881836,66.7509994506836 C-22.649999618530273,62.45100021362305 -49.202999114990234,33.042999267578125 -50.20100021362305,8.651000022888184 C-51.66400146484375,-9.031999588012695 -40.04899978637695,-21.993999481201172 -22.048999786376953,-20.899999618530273 C-13.482000350952148,-19.867000579833984 -3.7990000247955322,-17.104000091552734 1,-9.25 C8.378000259399414,-19.93899917602539 24.527000427246094,-23.6200008392334 36.29999923706055,-19.049999237060547z"></path></g></g></g></svg>