<svg xmlns="http://www.w3.org/2000/svg" xmlns:xlink="http://www.w3.org/1999/xlink" viewBox="0 0 512 512" width="512" height="512" style="width: 100%; height: 100%; transform: translate3d(0,0,0);" preserveAspectRatio="xMidYMid meet"><defs><clipPath id="__lottie_element_53025"><rect width="512" height="512" x="0" y="0"></rect></clipPath></defs><g clip-path="url(#__lottie_element_53025)"><g style="display: block;" transform="matrix(1,0,0,1,264.5450134277344,251.2050018310547)" opacity="1"><g opacity="1" transform="matrix(1,0,0,1,0,0)"><path fill="rgb(4,5,52)" fill-opacity="1" d=" M173.63999938964844,-96.91600036621094 C173.63999938964844,-96.91600036621094 187.47000122070312,-112.6760025024414 164.74000549316406,-129.3560028076172 C142.00999450683594,-146.04600524902344 129.10000610351562,-153.5959930419922 125.06999969482422,-159.62600708007812 C121.04000091552734,-165.66600036621094 139.05999755859375,-204.54600524902344 66.83999633789062,-226.54600524902344 C-5.369999885559082,-248.53599548339844 -108.72000122070312,-228.20599365234375 -164.6199951171875,-182.46600341796875 C-220.52999877929688,-136.7259979248047 -226.74000549316406,-87.32599639892578 -223.9199981689453,-83.36599731445312 C-221.08999633789062,-79.40599822998047 -204.42999267578125,-114.70600128173828 -164.6199951171875,-130.79600524902344 C-124.80999755859375,-146.89599609375 -78.25,-147.86599731445312 -75.69000244140625,-143.14599609375 C-73.13999938964844,-138.42599487304688 -130.74000549316406,-141.5959930419922 -175.6300048828125,-100.30599975585938 C-220.52999877929688,-59.01599884033203 -229.5500030517578,-21.45599937438965 -232.66000366210938,20.86400032043457 C-235.77000427246094,63.17399978637695 -205.27999877929688,108.0739974975586 -196.80999755859375,107.2239990234375 C-188.33999633789062,106.3740005493164 -204.64999389648438,63.784000396728516 -180.39999389648438,16.474000930786133 C-156.14999389648438,-30.84600067138672 -115.48999786376953,-44.395999908447266 -110.41000366210938,-41.85599899291992 C-105.33000183105469,-39.316001892089844 -145.13999938964844,-8.826000213623047 -164.6199951171875,54.70399856567383 C-184.10000610351562,118.23400115966797 -157.69000244140625,170.6439971923828 -133.6300048828125,196.53399658203125 C-109.55999755859375,222.4239959716797 -76.94999694824219,236.2239990234375 -89.0199966430664,208.99400329589844 C-101.08999633789062,181.76400756835938 -90.08000183105469,153.81399536132812 -85,153.81399536132812 C-79.91999816894531,153.81399536132812 -73.69000244140625,194.6739959716797 -37.41999816894531,219.13400268554688 C-1.1399999856948853,243.60400390625 18.93000030517578,244.23399353027344 69.04000091552734,195.21400451660156 C119.13999938964844,146.1840057373047 89.5,104.68399810791016 69.16999816894531,70.80400085449219 C48.84000015258789,36.91400146484375 42.060001373291016,16.5939998626709 53.91999816894531,8.96399974822998 C72.44999694824219,-2.946000099182129 74.25,33.534000396728516 87.80000305175781,57.24399948120117 C101.3499984741211,80.96399688720703 115.12999725341797,94.64399719238281 127.61000061035156,95.36399841308594 C140.10000610351562,96.08399963378906 168.27000427246094,65.71399688720703 175.0500030517578,46.23400115966797 C175.0500030517578,46.23400115966797 214.00999450683594,23.36400032043457 227.57000732421875,-7.97599983215332 C241.1199951171875,-39.316001892089844 230.67999267578125,-47.7859992980957 173.63999938964844,-96.91600036621094z M-5.369999885559082,-151.9759979248047 C-22.31999969482422,-148.58599853515625 -35.869998931884766,-110.46600341796875 -38.40999984741211,-124.86599731445312 C-40.95000076293945,-139.26600646972656 -29.09000015258789,-175.6959991455078 -5.369999885559082,-172.30599975585938 C18.34000015258789,-168.91600036621094 56.619998931884766,-124.86599731445312 56.619998931884766,-124.86599731445312 C45.77000045776367,-117.24600219726562 11.569999694824219,-155.36599731445312 -5.369999885559082,-151.9759979248047z"></path></g></g></g></svg>