<svg xmlns="http://www.w3.org/2000/svg" xmlns:xlink="http://www.w3.org/1999/xlink" viewBox="0 0 512 512" width="512" height="512" style="width: 100%; height: 100%; transform: translate3d(0,0,0);" preserveAspectRatio="xMidYMid meet"><defs><clipPath id="__lottie_element_52025"><rect width="512" height="512" x="0" y="0"></rect></clipPath></defs><g clip-path="url(#__lottie_element_52025)"><g style="display: block;" transform="matrix(1.0299999713897705,0,0,1.0299999713897705,-2243.8017578125,-1305.35693359375)" opacity="1"><g opacity="1" transform="matrix(1,0,0,1,0,0)"><g opacity="1" transform="matrix(1,0,0,1,2426.220947265625,1521.219970703125)"><path fill="rgb(0,0,0)" fill-opacity="1" d=" M241.60800170898438,-11.501999855041504 C239.45399475097656,-10.060999870300293 236.4720001220703,-11.027999877929688 234.072998046875,-11.76099967956543 C222.8979949951172,-15.442999839782715 212.2220001220703,-20.000999450683594 200.75999450683594,-21.683000564575195 C192.20899963378906,-22.989999771118164 194.12899780273438,-20.235000610351562 199.48199462890625,-16.67099952697754 C210.79100036621094,-8.836999893188477 222.2570037841797,-1.3170000314712524 233.76699829101562,6.26800012588501 C240.41200256347656,10.154999732971191 245.18600463867188,16.503999710083008 244.01800537109375,24.552000045776367 C242.5679931640625,38.88199996948242 239.71499633789062,52.00899887084961 237.38699340820312,66.72100067138672 C235.58799743652344,79.60700225830078 226.73500061035156,69.74400329589844 221.11199951171875,65.56999969482422 C208.281005859375,55.150001525878906 195.4429931640625,44.62099838256836 182.58299255371094,34.27399826049805 C179.63800048828125,31.944000244140625 176.218994140625,28.761999130249023 172.52499389648438,28.083999633789062 C165.2779998779297,27.770999908447266 172.00799560546875,35.81800079345703 174.74200439453125,37.888999938964844 C194.54200744628906,54.880001068115234 211.4739990234375,75.69599914550781 221.8820037841797,99.74299621582031 C225.11599731445312,108.06700134277344 220.60699462890625,115.68800354003906 215.8939971923828,122.87300109863281 C212.42300415039062,128.39300537109375 208.9929962158203,133.8939971923828 205.5500030517578,139.41000366210938 C197.8509979248047,153.19700622558594 191.9770050048828,146.80999755859375 187.24400329589844,135.5030059814453 C176.14100646972656,113.7959976196289 158.9250030517578,96.66200256347656 140.1510009765625,81.57599639892578 C138.66900634765625,80.53500366210938 132.6580047607422,75.99299621582031 131.36300659179688,78.24600219726562 C130.93800354003906,79.54000091552734 132.87399291992188,81.79900360107422 133.7989959716797,83.10199737548828 C136.55799865722656,86.5739974975586 139.16400146484375,89.6520004272461 141.95799255371094,93.0510025024414 C157.80999755859375,112.57499694824219 172.3990020751953,134.1580047607422 178.77200317382812,158.78799438476562 C180.44900512695312,167.19400024414062 171.31700134277344,171.0850067138672 165.7480010986328,175.21600341796875 C159.07400512695312,179.60299682617188 152.66299438476562,184.26100158691406 145.8070068359375,188.5709991455078 C137.21299743652344,193.83399963378906 135.50799560546875,182.22500610351562 133.72000122070312,176.36199951171875 C130.7100067138672,166.13900756835938 126.62200164794922,155.63400268554688 121.45700073242188,146.1280059814453 C119.89800262451172,143.0229949951172 110.31300354003906,127.64299774169922 108.3270034790039,137.57200622558594 C108.14900207519531,142.66900634765625 110.65399932861328,147.78199768066406 111.7020034790039,152.7790069580078 C114.41000366210938,163.60000610351562 116.30500030517578,174.49600219726562 116.65399932861328,185.76300048828125 C116.7249984741211,190.10899353027344 116.5,194.81100463867188 114.12799835205078,198.5279998779297 C108.87999725341797,205.6230010986328 99.11399841308594,207.31399536132812 91.54000091552734,211.093994140625 C77.61499786376953,217.6320037841797 73.04900360107422,211.33099365234375 69.40899658203125,198.6230010986328 C67.69400024414062,192.34300231933594 61.319000244140625,181.9499969482422 59.1349983215332,194.29100036621094 C57.32500076293945,201.7530059814453 58.374000549316406,210.4499969482422 53.1870002746582,216.5260009765625 C49.08399963378906,221.8520050048828 18.69700050354004,229.2050018310547 13.206000328063965,225.60400390625 C6.519999980926514,221.8560028076172 6.396999835968018,211.8730010986328 4.526000022888184,204.9429931640625 C3.1740000247955322,198.52699279785156 -0.3310000002384186,199.177001953125 -2.7699999809265137,204.87600708007812 C-7.234000205993652,217.0850067138672 -6.052000045776367,228.0050048828125 -23.56999969482422,225.1230010986328 C-31.577999114990234,223.76300048828125 -46.152000427246094,221.5399932861328 -51.933998107910156,216.34100341796875 C-59.53099822998047,211.03900146484375 -51.65399932861328,183.30799865722656 -60.42900085449219,185.7239990234375 C-63.31100082397461,187.18699645996094 -64.91100311279297,190.7050018310547 -66.23799896240234,193.55499267578125 C-68.80500030517578,198.99200439453125 -70.22100067138672,205.0780029296875 -73.44400024414062,210.14999389648438 C-79.23600006103516,218.33099365234375 -94.99199676513672,207.4739990234375 -102.28900146484375,205.50900268554688 C-122.23500061035156,200.0330047607422 -105.55899810791016,160.1840057373047 -101.72699737548828,147.38800048828125 C-101.25800323486328,145.35299682617188 -100.12100219726562,141.13900756835938 -103.01000213623047,140.8730010986328 C-107.33899688720703,141.38099670410156 -111.72100067138672,149.03700256347656 -114.48200225830078,152.6959991455078 C-120.26699829101562,161.22000122070312 -124.73200225830078,170.5019989013672 -128.031005859375,180.38099670410156 C-129.6280059814453,184.94200134277344 -131.16099548339844,192.91900634765625 -137.6840057373047,190.0449981689453 C-147.07899475097656,185.83299255371094 -159.3179931640625,177.83900451660156 -165.91200256347656,172.4499969482422 C-170.18899536132812,169.1020050048828 -171.84300231933594,164.17300415039062 -170.73300170898438,158.68600463867188 C-163.6929931640625,134.02000427246094 -147.4669952392578,112.98200225830078 -135.5260009765625,90.53700256347656 C-133.0260009765625,86.97100067138672 -131.14700317382812,79.5719985961914 -138.2689971923828,81.86799621582031 C-154.3699951171875,91.54399871826172 -165.6540069580078,108.08399963378906 -175.55799865722656,123.76899719238281 C-178.08999633789062,128.02200317382812 -180.44000244140625,132.36300659179688 -182.63699340820312,136.74000549316406 C-185.03199768066406,142.1479949951172 -188.88699340820312,149.69000244140625 -195.0970001220703,142.9980010986328 C-201.9770050048828,135.62899780273438 -207.8800048828125,127.06800079345703 -213.20399475097656,118.1719970703125 C-219.6820068359375,107.36699676513672 -222.16799926757812,98.24199676513672 -214.6580047607422,86.60800170898438 C-206.49000549316406,72.64099884033203 -195.0050048828125,61.37699890136719 -183.87899780273438,49.768001556396484 C-180.05099487304688,45.45100021362305 -175.19000244140625,41.7869987487793 -171.58200073242188,37.374000549316406 C-167.2570037841797,30.731000900268555 -176.1649932861328,32.02399826049805 -179.59100341796875,34.18000030517578 C-198.6649932861328,42.27399826049805 -210.9929962158203,59.92399978637695 -227.4550018310547,71.49400329589844 C-233.28199768066406,73.91999816894531 -235.01499938964844,66.18299865722656 -235.92799377441406,61.89400100708008 C-238.30799865722656,49.435001373291016 -241.5019989013672,37.03499984741211 -243.38999938964844,24.44700050354004 C-245.18600463867188,13.505000114440918 -236.6300048828125,5.692999839782715 -228.11000061035156,0.4970000088214874 C-217.31399536132812,-6.625 -205.9600067138672,-12.53600025177002 -193.71800231933594,-16.80699920654297 C-190.1929931640625,-18.215999603271484 -185.93699645996094,-19.04599952697754 -182.7740020751953,-21.089000701904297 C-176.81700134277344,-25.341999053955078 -185.33700561523438,-27.496000289916992 -189.10400390625,-26.924999237060547 C-204.5780029296875,-26.5310001373291 -218.43699645996094,-18.733999252319336 -232.1820068359375,-12.413999557495117 C-239.98399353027344,-9.241000175476074 -243.78399658203125,-13.817000389099121 -242.58099365234375,-21.816999435424805 C-237.6009979248047,-68.41300201416016 -237.44900512695312,-65.1500015258789 -193.29100036621094,-77.66699981689453 C-185.99200439453125,-79.37000274658203 -184.0709991455078,-84.11499786376953 -192.6009979248047,-85.57599639892578 C-197.41400146484375,-86.21299743652344 -202.822998046875,-86.18299865722656 -207.79200744628906,-86.5989990234375 C-225.86000061035156,-87.64099884033203 -215.99099731445312,-102.80000305175781 -208.55299377441406,-110.5790023803711 C-203.84100341796875,-115.66400146484375 -198.26400756835938,-120.78700256347656 -191.03799438476562,-120.23999786376953 C-186.83799743652344,-120.11699676513672 -182.531005859375,-117.80799865722656 -178.677001953125,-116.73699951171875 C-169.56500244140625,-115.03199768066406 -175.9290008544922,-126.98500061035156 -177.04600524902344,-131.81700134277344 C-185.3179931640625,-161.21499633789062 -179.51400756835938,-193.85699462890625 -153.06399536132812,-212.26499938964844 C-134.2209930419922,-222.1999969482422 -109.0770034790039,-220.05799865722656 -91.66600036621094,-207.76499938964844 C-86.43000030517578,-204.66400146484375 -81.5469970703125,-197.08999633789062 -75.68199920654297,-196.23399353027344 C-66.19300079345703,-196.468994140625 -69.4800033569336,-210.43600463867188 -63.68899917602539,-215.3209991455078 C-53.922000885009766,-222.68800354003906 -30.54400062561035,-229.14599609375 -18.159000396728516,-229.0500030517578 C-10.357000350952148,-228.9290008544922 -7.997000217437744,-220.75599670410156 -4.392000198364258,-215.4969940185547 C-0.9490000009536743,-210.58799743652344 4.199999809265137,-213.16400146484375 6.732999801635742,-217.50399780273438 C10.104999542236328,-222.48899841308594 12.418000221252441,-229.1719970703125 19.107999801635742,-229.2050018310547 C30.07900047302246,-228.94700622558594 41.32099914550781,-225.26600646972656 52.02000045776367,-222.75399780273438 C63.31399917602539,-220.16600036621094 66.96800231933594,-216.4199981689453 68.76000213623047,-205.302001953125 C69.63899993896484,-201.71200561523438 71.48899841308594,-196.9149932861328 75.30599975585938,-196.29100036621094 C80.00299835205078,-195.468994140625 85.00599670410156,-199.8419952392578 88.69200134277344,-202.67799377441406 C93.26100158691406,-206.406005859375 97.91999816894531,-210.0540008544922 103.08300018310547,-212.89300537109375 C120.05599975585938,-222.46400451660156 142.5989990234375,-223.62100219726562 159.2220001220703,-212.83799743652344 C169.02200317382812,-206.68299865722656 175.82699584960938,-196.48300170898438 179.23599243164062,-185.4739990234375 C186.0749969482422,-166 185.81199645996094,-146.03500366210938 177.17599487304688,-127.18000030517578 C175.84800720214844,-122.74199676513672 177.20899963378906,-118.81500244140625 182.41200256347656,-119.24700164794922 C188.72799682617188,-119.86199951171875 195.90699768066406,-123.39900207519531 202.00399780273438,-120.12000274658203 C207.19500732421875,-117.44400024414062 211.5449981689453,-110.13400268554688 214.33200073242188,-104.26300048828125 C218.4759979248047,-95.54399871826172 216.39199829101562,-88.95700073242188 205.71299743652344,-89.48699951171875 C200.76400756835938,-89.36699676513672 195.49400329589844,-89.63300323486328 190.80099487304688,-87.87000274658203 C186.6320037841797,-86.28399658203125 186.43800354003906,-83.23600006103516 189.61300659179688,-81.2020034790039 C202.45399475097656,-75.00700378417969 217.02499389648438,-71.1760025024414 229.02200317382812,-62.944000244140625 C241.6230010986328,-53.79399871826172 243.53700256347656,-34.20399856567383 244.0189971923828,-19.356000900268555 C244.04200744628906,-16.73699951171875 243.77000427246094,-13.170000076293945 241.71400451660156,-11.57800006866455 C241.71400451660156,-11.57800006866455 241.60800170898438,-11.501999855041504 241.60800170898438,-11.501999855041504z M-135.41099548339844,-139.94200134277344 C-135.68600463867188,-137.2550048828125 -137.28599548339844,-134.6179962158203 -138.89100646972656,-132.3459930419922 C-157.27000427246094,-106.51399993896484 -158.83399963378906,-77.15399932861328 -156.79400634765625,-47.090999603271484 C-156.3719940185547,-37.25199890136719 -153.35699462890625,-27.930999755859375 -149.5189971923828,-18.874000549316406 C-140.9550018310547,1.9980000257492065 -126.26799774169922,19.290000915527344 -108.12000274658203,32.72999954223633 C-99.43000030517578,39.5880012512207 -89.03700256347656,46.26499938964844 -85.59300231933594,57.361000061035156 C-83.14800262451172,64.56999969482422 -84.24600219726562,72.67500305175781 -83.97799682617188,80.30500030517578 C-83.77200317382812,92.01200103759766 -82.447998046875,104.05400085449219 -78.87000274658203,114.90499877929688 C-73.04199981689453,132.68299865722656 -61.80699920654297,150.2469940185547 -46.06800079345703,160.6840057373047 C-13.314000129699707,180.62399291992188 31.783000946044922,175.302001953125 59.3120002746582,148.9320068359375 C66.29199981689453,142.38099670410156 70.90499877929688,133.9029998779297 74.27999877929688,125.05799865722656 C79.96499633789062,110.98799896240234 85.04100036621094,96.74500274658203 85.66899871826172,81.30000305175781 C85.85600280761719,72.90599822998047 86.13200378417969,63.6619987487793 90.66799926757812,56.5989990234375 C92.76799774169922,53.03499984741211 95.79100036621094,49.85599899291992 99.2699966430664,47.07600021362305 C105.12100219726562,42.54100036621094 110.8219985961914,38.321998596191406 116.33100128173828,33.50699996948242 C137.90499877929688,15.899999618530273 148.57200622558594,-11.265999794006348 154.1999969482422,-37.893001556396484 C161.5709991455078,-67.48300170898438 162.26600646972656,-94.74500274658203 145.26699829101562,-121.25800323486328 C143.15699768066406,-125.06900024414062 139.78599548339844,-128.6580047607422 138.8699951171875,-132.87399291992188 C137.7969970703125,-137.78500366210938 141.19200134277344,-142.2550048828125 143.093994140625,-146.5800018310547 C145.02099609375,-150.7030029296875 146.55799865722656,-155.1820068359375 146.5679931640625,-159.7779998779297 C146.73500061035156,-169.01699829101562 139.68099975585938,-177.93899536132812 130.34100341796875,-178.281005859375 C121.12699890136719,-178.9980010986328 112.62300109863281,-172.3520050048828 105.74299621582031,-166.72000122070312 C101.81800079345703,-163.61700439453125 96.94599914550781,-164.7949981689453 92.91000366210938,-167.39599609375 C33.444000244140625,-203.33999633789062 -27.52199935913086,-200.17100524902344 -88.59300231933594,-167.8040008544922 C-99.04499816894531,-161.39500427246094 -103.69000244140625,-168.2949981689453 -112.56400299072266,-172.89300537109375 C-117.25800323486328,-175.46099853515625 -122.79900360107422,-177.19200134277344 -128.0760040283203,-175.56500244140625 C-134.18699645996094,-173.74600219726562 -139.83700561523438,-168.11199951171875 -140.34100341796875,-161.68299865722656 C-140.6320037841797,-158.57000732421875 -139.96499633789062,-155.4709930419922 -138.9429931640625,-152.53799438476562 C-137.6529998779297,-148.5919952392578 -134.85699462890625,-144.40499877929688 -135.38999938964844,-140.12399291992188 C-135.38999938964844,-140.12399291992188 -135.41099548339844,-139.94200134277344 -135.41099548339844,-139.94200134277344z"></path></g><g opacity="1" transform="matrix(1,0,0,1,2427.2109375,1510.030029296875)"><path fill="rgb(0,0,0)" fill-opacity="1" d=" M3.0329999923706055,-165.74000549316406 C48.917999267578125,-165.60800170898438 90.76000213623047,-145.18899536132812 120.64199829101562,-110.3550033569336 C126.55500030517578,-103.4260025024414 134.5489959716797,-97.46800231933594 137.77000427246094,-88.67900085449219 C142.4770050048828,-70.84300231933594 137.11500549316406,-35.262001037597656 131.2429962158203,-17.530000686645508 C122.6520004272461,10.343999862670898 102.44999694824219,31.118999481201172 79.04100036621094,47.244998931884766 C70.69999694824219,52.9119987487793 66.31199645996094,59.22200012207031 65.9020004272461,69.427001953125 C64.62200164794922,86.87200164794922 64.11499786376953,104.76000213623047 58.7859992980957,121.5270004272461 C50.81399917602539,146.56399536132812 24.691999435424805,165.7429962158203 -2.2119998931884766,165.4810028076172 C-27.94499969482422,165.2729949951172 -53.24399948120117,148.1219940185547 -59.63800048828125,122.5250015258789 C-62.630001068115234,110.95999908447266 -63.474998474121094,98.9990005493164 -63.83000183105469,87.10800170898438 C-64.21499633789062,80.40899658203125 -64.83799743652344,73.73899841308594 -65.37000274658203,67.05899810791016 C-65.59300231933594,64.30999755859375 -66.08499908447266,61.44200134277344 -67.51399993896484,59.082000732421875 C-69.74400329589844,55.308998107910156 -74.2030029296875,52.57899856567383 -77.75,49.57699966430664 C-122.14399719238281,18.718000411987305 -142.4770050048828,-22.62700080871582 -137.85299682617188,-76.64099884033203 C-137.40199279785156,-87.9990005493164 -133.04200744628906,-97.85399627685547 -125.64600372314453,-106.36399841308594 C-93.60199737548828,-144.12100219726562 -48.59600067138672,-165.3699951171875 2.8269999027252197,-165.7429962158203 C2.8269999027252197,-165.7429962158203 3.0329999923706055,-165.74000549316406 3.0329999923706055,-165.74000549316406z M0.4320000112056732,-117.79399871826172 C-6.942999839782715,-117.8239974975586 -18.768999099731445,-104.5 -23.805999755859375,-99.33899688720703 C-28.834999084472656,-94.24800109863281 -31.68600082397461,-88.79199981689453 -27.565000534057617,-82.06199645996094 C-21.905000686645508,-72.53900146484375 -14.430000305175781,-64.4209976196289 -5.395999908447266,-58.04899978637695 C-1.9809999465942383,-55.4010009765625 2.424999952316284,-55.4370002746582 5.767000198364258,-58.19900131225586 C14.13700008392334,-64.60299682617188 36.06700134277344,-82.3280029296875 27.590999603271484,-93.68099975585938 C22.02400016784668,-102.16500091552734 14.215999603271484,-108.23600006103516 6.629000186920166,-114.59200286865234 C4.8979997634887695,-116.04900360107422 2.8499999046325684,-117.58799743652344 0.6019999980926514,-117.77999877929688 C0.6019999980926514,-117.77999877929688 0.4320000112056732,-117.79399871826172 0.4320000112056732,-117.79399871826172z M-91.68699645996094,-43.6349983215332 C-92.072998046875,-41.926998138427734 -91.3280029296875,-39.28200149536133 -90.65599822998047,-37.362998962402344 C-84.97899627685547,-21.165000915527344 -74.89800262451172,-12.696000099182129 -62.29499816894531,-8.776000022888184 C-57.066001892089844,-7.0970001220703125 -49.32699966430664,-5.784999847412109 -45.566001892089844,-10.720000267028809 C-41.92900085449219,-16.31599998474121 -43.66999816894531,-27.10300064086914 -46.56999969482422,-32.99100112915039 C-53.65800094604492,-46.72200012207031 -76.65799713134766,-47.57099914550781 -88.44300079345703,-46.07600021362305 C-89.9000015258789,-45.87200164794922 -91.28700256347656,-45.297000885009766 -91.65399932861328,-43.76900100708008 C-91.65399932861328,-43.76900100708008 -91.68699645996094,-43.6349983215332 -91.68699645996094,-43.6349983215332z M53.17499923706055,-8.815999984741211 C68.29199981689453,-9.192000389099121 85.28399658203125,-20.64299964904785 89.2959976196289,-38.02000045776367 C91.697998046875,-48.95600128173828 75.55500030517578,-45.845001220703125 70.06900024414062,-45.39500045776367 C66.00800323486328,-44.845001220703125 62.07099914550781,-43.770999908447266 58.2400016784668,-42.13399887084961 C48.7599983215332,-38.09700012207031 45.88199996948242,-31.509000778198242 44.70600128173828,-21.85099983215332 C43.85100173950195,-15.357000350952148 45.33300018310547,-9.109999656677246 52.99399948120117,-8.82699966430664 C52.99399948120117,-8.82699966430664 53.17499923706055,-8.815999984741211 53.17499923706055,-8.815999984741211z M25.50200080871582,111.36599731445312 C23.150999069213867,101.44200134277344 -5.190000057220459,104.18499755859375 -13.505999565124512,104.5510025024414 C-22.72599983215332,104.7959976196289 -26.54400062561035,109.23699951171875 -22.951000213623047,118.18499755859375 C-20.354999542236328,124.18900299072266 -15.381999969482422,127.94200134277344 -9.696999549865723,131.10299682617188 C-3.1710000038146973,134.98699951171875 4.357999801635742,135.85899353027344 10.996999740600586,131.72000122070312 C17.663000106811523,127.8499984741211 26.719999313354492,119.85900115966797 25.54400062561035,111.53600311279297 C25.54400062561035,111.53600311279297 25.50200080871582,111.36599731445312 25.50200080871582,111.36599731445312z"></path></g></g></g></g></svg>