<svg xmlns="http://www.w3.org/2000/svg" xmlns:xlink="http://www.w3.org/1999/xlink" viewBox="0 0 512 512" width="512" height="512" style="width: 100%; height: 100%; transform: translate3d(0,0,0);" preserveAspectRatio="xMidYMid meet"><defs><clipPath id="__lottie_element_51520"><rect width="512" height="512" x="0" y="0"></rect></clipPath></defs><g clip-path="url(#__lottie_element_51520)"><g style="display: block;" transform="matrix(1,0,0,1,0,0)" opacity="1"><g opacity="1" transform="matrix(1,0,0,1,152.04200744628906,10.163999557495117)"><path fill="rgb(0,0,0)" fill-opacity="1" d=" M40.34000015258789,3.8499999046325684 C40.34000015258789,3.8499999046325684 40.35200119018555,9.821000099182129 40.35200119018555,9.821000099182129 C31.7189998626709,10.163999557495117 23.604999542236328,7.071000099182129 15.206000328063965,5.829999923706055 C0.27000001072883606,3.622999906539917 -8.9399995803833,1.3609999418258667 -23.479000091552734,-1.715000033378601 C-25.802000045776367,-2.2060000896453857 -40.35200119018555,-0.8690000176429749 -36.03099822998047,-6.215000152587891 C-30.482999801635742,-13.079000473022461 29.316999435424805,-0.3799999952316284 40.34000015258789,3.8499999046325684z"></path></g><g opacity="1" transform="matrix(1,0,0,1,376.8840026855469,269.760009765625)"><path fill="rgb(0,0,0)" fill-opacity="1" d=" M61.7599983215332,230.48399353027344 C56.61399841308594,231.35400390625 31.02199935913086,244.93800354003906 26.590999603271484,240.52099609375 C26.590999603271484,240.52099609375 29.610000610351562,224.47000122070312 29.610000610351562,224.47000122070312 C29.610000610351562,224.47000122070312 -3.561000108718872,236.5030059814453 -3.561000108718872,236.5030059814453 C-4.0970001220703125,223.8000030517578 4.375,211.13900756835938 16.486000061035156,207.33200073242188 C25.375,204.53799438476562 34.78300094604492,207.29299926757812 41.111000061035156,197.78700256347656 C49.08599853515625,185.80799865722656 54.16699981689453,144.66000366210938 43.66999816894531,134.031005859375 C29.658000946044922,119.84300231933594 7.76200008392334,108.19300079345703 -7.61899995803833,94.875 C-15.956999778747559,87.65499877929688 -45.29399871826172,53.9630012512207 -50.8380012512207,51.66299819946289 C-54.70899963378906,50.05799865722656 -54.034000396728516,54.303001403808594 -53.90399932861328,56.720001220703125 C-53.625,61.87900161743164 -51.4640007019043,66.52200317382812 -51.87900161743164,71.6709976196289 C-51.87900161743164,71.6709976196289 -116.27300262451172,82.947998046875 -116.27300262451172,82.947998046875 C-116.27300262451172,82.947998046875 -118.1510009765625,78.76899719238281 -118.1510009765625,78.76899719238281 C-118.1510009765625,78.76899719238281 -120.1449966430664,-36.76599884033203 -120.1449966430664,-36.76599884033203 C-75.97100067138672,-19.871000289916992 -22.9950008392334,-29.84600067138672 20.562000274658203,-11.66100025177002 C35.99399948120117,-5.2179999351501465 71.13999938964844,23.729999542236328 82.65299987792969,-3.8320000171661377 C90.30699920654297,-22.156999588012695 60.84400177001953,-46.095001220703125 47.611000061035156,-56.784000396728516 C21.46500015258789,-77.9020004272461 -11.246999740600586,-90.55699920654297 -23.222000122070312,-124.62799835205078 C-50.65700149536133,-202.6820068359375 65.31400299072266,-242.24000549316406 89.85399627685547,-169.33700561523438 C102.0979995727539,-132.96200561523438 67.98799896240234,-98.49199676513672 30.624000549316406,-114.1520004272461 C15.64900016784668,-120.42900085449219 6.7129998207092285,-131.34300231933594 8.442000389099121,-148.31900024414062 C10.265999794006348,-166.22999572753906 43.33100128173828,-175.6060028076172 54.8390007019043,-158.42599487304688 C63.797000885009766,-145.05099487304688 21.582000732421875,-138.82699584960938 42.56100082397461,-132.1269989013672 C67.52999877929688,-124.1520004272461 86.27200317382812,-149.0260009765625 71.71900177001953,-171.30499267578125 C44.57400131225586,-212.86099243164062 -22.89900016784668,-180.89700317382812 -5.711999893188477,-130.0749969482422 C3.2269999980926514,-103.63999938964844 73.75,-68.88300323486328 95.75800323486328,-36.59199905395508 C120.14600372314453,-0.8100000023841858 97.23999786376953,31.78499984741211 56.731998443603516,33.57899856567383 C54.819000244140625,35.71900177001953 79.98799896240234,79.03800201416016 83.25199890136719,84.41799926757812 C86.7750015258789,90.22599792480469 106.50700378417969,116.71299743652344 106.9489974975586,118.99299621582031 C110.27799987792969,136.1580047607422 102.91100311279297,139.82899475097656 98.36599731445312,152.53900146484375 C89.7770004272461,176.55599975585938 86.41600036621094,205.76100158691406 92.91799926757812,230.48399353027344 C83.36399841308594,231.6020050048828 70.8489990234375,228.94700622558594 61.7599983215332,230.48399353027344z"></path></g><g opacity="1" transform="matrix(1,0,0,1,319.3479919433594,430.0400085449219)"><path fill="rgb(0,0,0)" fill-opacity="1" d=" M33.840999603271484,72.22000122070312 C10.61299991607666,61.6609992980957 -11.859999656677246,76.02899932861328 -35.37900161743164,78.1050033569336 C-35.37900161743164,78.1050033569336 -38.279998779296875,73.50499725341797 -38.279998779296875,73.50499725341797 C-38.279998779296875,73.50499725341797 -34.49399948120117,64.18699645996094 -34.49399948120117,64.18699645996094 C-34.49399948120117,64.18699645996094 -70.6500015258789,70.2040023803711 -70.6500015258789,70.2040023803711 C-71.96900177001953,68.67500305175781 -63.073001861572266,51.45399856567383 -61.21500015258789,49.99599838256836 C-49.2760009765625,40.630001068115234 -20.302000045776367,46.03200149536133 -5.283999919891357,32.077999114990234 C2.26200008392334,25.06800079345703 13.142000198364258,-6.377999782562256 8.699000358581543,-16.170000076293945 C6.044000148773193,-22.020000457763672 -18,-41.62900161743164 -24.378999710083008,-49.4109992980957 C-26.71500015258789,-52.262001037597656 -38.61899948120117,-68.06800079345703 -36.49700164794922,-70.43699645996094 C-36.49700164794922,-70.43699645996094 14.29800033569336,-78.1050033569336 14.29800033569336,-78.1050033569336 C14.29800033569336,-78.1050033569336 66.5,-37.74300003051758 66.5,-37.74300003051758 C71.96900177001953,-24.288999557495117 62.387001037597656,-18.2450008392334 58.51100158691406,-8.642000198364258 C54.1150016784668,2.246999979019165 37.9739990234375,39.42499923706055 36.319000244140625,47.542999267578125 C34.702999114990234,55.474998474121094 37.33599853515625,64.1719970703125 33.840999603271484,72.22000122070312z"></path></g><g opacity="1" transform="matrix(1,0,0,1,230.802001953125,285.8800048828125)"><path fill="rgb(0,0,0)" fill-opacity="1" d=" M9.652000427246094,-123.01200103759766 C10.48799991607666,-118.76000213623047 11.630999565124512,-114.62300109863281 11.932000160217285,-110.23200225830078 C15.741000175476074,-54.689998626708984 12.859000205993652,6.513999938964844 13.770999908447266,62.7400016784668 C14.02400016784668,78.32099914550781 17.11199951171875,94.3479995727539 15.951000213623047,110.96600341796875 C15.402000427246094,118.83399963378906 14.461999893188477,124.4209976196289 5.000999927520752,123.83499908447266 C-11.53499984741211,122.80999755859375 -13.133999824523926,110.68900299072266 -14.262999534606934,96.79100036621094 C-17.11199951171875,61.72100067138672 -16.375999450683594,7.677000045776367 -14.371999740600586,-27.854999542236328 C-12.640000343322754,-58.555999755859375 -3.9649999141693115,-89.08200073242188 -1.8459999561309814,-119.8239974975586 C-0.33500000834465027,-124.4209976196289 5.510000228881836,-123.5770034790039 9.652000427246094,-123.01200103759766z"></path></g><g opacity="1" transform="matrix(1,0,0,1,190.81399536132812,282.5)"><path fill="rgb(0,0,0)" fill-opacity="1" d=" M21.667999267578125,-117.8219985961914 C24.097000122070312,-115.29000091552734 14.53499984741211,-70.38600158691406 13.654999732971191,-62.551998138427734 C11.913000106811523,-47.03300094604492 10.300999641418457,-27.83099937438965 9.633999824523926,-12.317999839782715 C7.872000217437744,28.638999938964844 12.913999557495117,69.20700073242188 9.706999778747559,109.9209976196289 C2.509000062942505,117.8479995727539 -16.18400001525879,109.21099853515625 -20.67300033569336,102.34300231933594 C-24.097000122070312,97.1050033569336 -22.95199966430664,57.266998291015625 -22.628999710083008,47.86399841308594 C-21.777000427246094,23.052000045776367 -19.827999114990234,-9.710000038146973 -16.28499984741211,-34.20800018310547 C-11.951000213623047,-64.1709976196289 6.3460001945495605,-87.6709976196289 9.630999565124512,-117.8479995727539 C9.630999565124512,-117.8479995727539 21.667999267578125,-117.8219985961914 21.667999267578125,-117.8219985961914z"></path></g><g opacity="1" transform="matrix(1,0,0,1,161.21600341796875,452.0140075683594)"><path fill="rgb(0,0,0)" fill-opacity="1" d=" M5.044000148773193,-58.26900100708008 C16.70599937438965,-46.244998931884766 30.545000076293945,-43.516998291015625 46.3849983215332,-40.316001892089844 C47.058998107910156,-33.946998596191406 48.93299865722656,-27.552000045776367 49.354000091552734,-21.179000854492188 C50.26599884033203,-7.359000205993652 46.395999908447266,6.76200008392334 47.255001068115234,19.05900001525879 C48.00600051879883,29.808000564575195 54.362998962402344,39.54899978637695 55.2859992980957,50.231998443603516 C39.409000396728516,43.215999603271484 25.804000854492188,52.28300094604492 11.918000221252441,54.09600067138672 C-0.6000000238418579,55.73099899291992 -14.225000381469727,53.86600112915039 -27.108999252319336,58.268001556396484 C-27.108999252319336,58.268001556396484 -23.11199951171875,45.20199966430664 -23.11199951171875,45.20199966430664 C-31.066999435424805,44.2869987487793 -41.819000244140625,51.10200119018555 -49.856998443603516,54.63800048828125 C-51.47700119018555,55.349998474121094 -54.040000915527344,58.16699981689453 -55.2869987487793,55.237998962402344 C-52.472999572753906,42.45399856567383 -42.900001525878906,27.986000061035156 -29.6560001373291,24.594999313354492 C-23.163999557495117,22.933000564575195 5.044000148773193,22.559999465942383 5.044000148773193,13.0649995803833 C5.044000148773193,13.0649995803833 5.044000148773193,-58.26900100708008 5.044000148773193,-58.26900100708008z"></path></g><g opacity="1" transform="matrix(1,0,0,1,154.08799743652344,262.74200439453125)"><path fill="rgb(0,0,0)" fill-opacity="1" d=" M-0.164000004529953,100.58300018310547 C-2.86299991607666,101.73899841308594 -6.02400016784668,102.83499908447266 -8.980999946594238,102.9489974975586 C-34.917999267578125,103.947998046875 -25.95800018310547,72.64800262451172 -30.13800048828125,55.74399948120117 C-29.031999588012695,37.69900131225586 -29.63800048828125,17.41200065612793 -27.785999298095703,-0.3659999966621399 C-24.195999145507812,-34.82099914550781 10.744000434875488,-73.75700378417969 27.20800018310547,-103.9489974975586 C27.20800018310547,-103.9489974975586 33.367000579833984,-100.09500122070312 33.367000579833984,-100.09500122070312 C34.917999267578125,-97.99099731445312 34.21699905395508,-95.85600280761719 33.92499923706055,-93.56400299072266 C32.268001556396484,-80.58399963378906 15.802000045776367,-52.834999084472656 10.630000114440918,-38.323001861572266 C2.0940001010894775,-14.369000434875488 0.9330000281333923,8.25 0.02500000037252903,33.46200180053711 C-0.777999997138977,55.77399826049805 1.034000039100647,78.28600311279297 -0.164000004529953,100.58300018310547z"></path></g><g opacity="1" transform="matrix(1,0,0,1,123.65499877929688,241.6649932861328)"><path fill="rgb(0,0,0)" fill-opacity="1" d=" M-13.680000305175781,88.78399658203125 C-24.461000442504883,97.34100341796875 -42.10599899291992,84.08100128173828 -44.96900177001953,71.85199737548828 C-46.66899871826172,64.58999633789062 -44.775001525878906,46.87099838256836 -43.82600021362305,38.55699920654297 C-39.06700134277344,-3.1449999809265137 -21.996000289916992,-34.04100036621094 5.385000228881836,-64.96600341796875 C10.116000175476074,-70.30899810791016 32.61800003051758,-93.65599822998047 37.22999954223633,-95.61699676513672 C41.2859992980957,-97.34100341796875 46.66899871826172,-91.79299926757812 46.349998474121094,-88.38999938964844 C45.85499954223633,-83.11000061035156 8.041000366210938,-31.94499969482422 2.0439999103546143,-20.08099937438965 C-5.251999855041504,-5.64900016784668 -13.680000305175781,18.538000106811523 -13.680000305175781,34.529998779296875 C-13.680000305175781,34.529998779296875 -13.680000305175781,88.78399658203125 -13.680000305175781,88.78399658203125z"></path></g><g opacity="1" transform="matrix(1,0,0,1,111.51499938964844,431.5880126953125)"><path fill="rgb(0,0,0)" fill-opacity="1" d=" M38.17100143432617,32.00899887084961 C28.83300018310547,35.03099822998047 20.535999298095703,33.95100021362305 11.175999641418457,38.165000915527344 C1.4869999885559082,42.527000427246094 -4.616000175476074,53.529998779296875 -12.446000099182129,56.75 C-16.429000854492188,58.38800048828125 -43.856998443603516,64.1709976196289 -45.76499938964844,62.60900115966797 C-41.53200149536133,54.46200180053711 -34.207000732421875,43.81100082397461 -26.68400001525879,38.5 C-16.975000381469727,31.645999908447266 -0.6330000162124634,31.249000549316406 4.642000198364258,17.569000244140625 C10.486000061035156,2.4130001068115234 8.994999885559082,-33.645999908447266 8.609000205993652,-50.992000579833984 C8.527999877929688,-54.652000427246094 4.708000183105469,-62.9630012512207 9.560999870300293,-63.9739990234375 C10.505999565124512,-64.1709976196289 23.382999420166016,-56.38199996948242 26.628999710083008,-54.94900131225586 C31.253000259399414,-52.909000396728516 41.12300109863281,-52.42300033569336 42.428001403808594,-48.63800048828125 C41.91600036621094,-21.819000244140625 45.76499938964844,5.96999979019165 38.17100143432617,32.00899887084961z"></path></g><g opacity="1" transform="matrix(1,0,0,1,97.30999755859375,197.9739990234375)"><path fill="rgb(0,0,0)" fill-opacity="1" d=" M62.91699981689453,-59.46699905395508 C16.25200080871582,-31.479000091552734 -19.238000869750977,15.555000305175781 -31.642000198364258,69.10399627685547 C-62.917999267578125,68.06800079345703 -45.428001403808594,25.86400032043457 -36.37200164794922,9.111000061035156 C-17.41200065612793,-25.96299934387207 18.49799919128418,-55.65800094604492 55.6349983215332,-69.10399627685547 C55.6349983215332,-69.10399627685547 62.91699981689453,-59.46699905395508 62.91699981689453,-59.46699905395508z"></path></g><g opacity="1" transform="matrix(1,0,0,1,87.73899841308594,159.03599548339844)"><path fill="rgb(0,0,0)" fill-opacity="1" d=" M62.428001403808594,-52.62799835205078 C62.428001403808594,-52.62799835205078 64.46399688720703,-38.590999603271484 64.46399688720703,-38.590999603271484 C19.319000244140625,-27.743000030517578 -16.097999572753906,3.7839999198913574 -40.979000091552734,41.944000244140625 C-44.23099899291992,46.930999755859375 -42.895999908447266,52.62699890136719 -50.24300003051758,48.94900131225586 C-64.46399688720703,23.424999237060547 -36.23699951171875,-4.13700008392334 -17.9950008392334,-19.506999969482422 C3.6610000133514404,-37.75400161743164 34.61899948120117,-49.262001037597656 62.428001403808594,-52.62799835205078z"></path></g><g opacity="1" transform="matrix(1,0,0,1,86.64199829101562,116.56900024414062)"><path fill="rgb(0,0,0)" fill-opacity="1" d=" M61.50400161743164,-20.238000869750977 C27.645999908447266,-17.04400062561035 -8.512999534606934,-2.6630001068115234 -33.941001892089844,19.989999771118164 C-38.98699951171875,24.485000610351562 -44.53099822998047,38.724998474121094 -50.65800094604492,28.635000228881836 C-64.8239974975586,5.309000015258789 -24.7810001373291,-15.281999588012695 -8.182999610900879,-22.582000732421875 C9.095999717712402,-30.183000564575195 35.702999114990234,-38.72600173950195 54.595001220703125,-36.38199996948242 C64.8239974975586,-35.11199951171875 61.10100173950195,-28.76099967956543 61.50400161743164,-20.238000869750977z"></path></g><g opacity="1" transform="matrix(1,0,0,1,86.7490005493164,71.50900268554688)"><path fill="rgb(0,0,0)" fill-opacity="1" d=" M44.82600021362305,-18.851999282836914 C45.70899963378906,-18.117000579833984 52.15700149536133,-4.050000190734863 51.35900115966797,-3.2980000972747803 C28.78700065612793,-3.9779999256134033 5.89300012588501,1.2879999876022339 -14.937000274658203,9.805999755859375 C-19.780000686645508,11.786999702453613 -40.797000885009766,24.417999267578125 -43.08599853515625,22.822999954223633 C-52.15700149536133,5.576000213623047 -19.018999099731445,-13.256999969482422 -5.330999851226807,-16.76300048828125 C3.8940000534057617,-19.125999450683594 38.13600158691406,-24.417999267578125 44.82600021362305,-18.851999282836914z"></path></g><g opacity="1" transform="matrix(1,0,0,1,102.9520034790039,30.042999267578125)"><path fill="rgb(0,0,0)" fill-opacity="1" d=" M35.15800094604492,-12.045999526977539 C35.15800094604492,-12.045999526977539 27.014999389648438,10.020000457763672 27.014999389648438,10.020000457763672 C7.133999824523926,4.789999961853027 -13.208999633789062,11.244999885559082 -33.17300033569336,12.045999526977539 C-35.15800094604492,0.5370000004768372 -25.527999877929688,-3.2239999771118164 -16.20199966430664,-6.136000156402588 C-0.4339999854564667,-11.060999870300293 18.759000778198242,-11.913999557495117 35.15800094604492,-12.045999526977539z"></path></g><g opacity="1" transform="matrix(1,0,0,1,227.44000244140625,89.10299682617188)"><path fill="rgb(0,0,0)" fill-opacity="1" d=" M40.279998779296875,-38.9109992980957 C27.32900047302246,-46.48400115966797 19.381000518798828,-58.2760009765625 3.627000093460083,-60.54499816894531 C-11.005000114440918,-62.65299987792969 -29.01799964904785,-60.680999755859375 -44.17900085449219,-60.98400115966797 C-56.60300064086914,-61.233001708984375 -75.10700225830078,-69.11299896240234 -83.03500366210938,-53.779998779296875 C-91.7300033569336,-36.9630012512207 -78.35600280761719,-22.760000228881836 -65.5250015258789,-13.673999786376953 C-75.11799621582031,22.57900047302246 -51.57899856567383,69.11299896240234 -9.928999900817871,65.5510025024414 C4.084000110626221,64.35299682617188 12.621999740600586,53.40999984741211 24.770999908447266,49.96500015258789 C35.54600143432617,46.90999984741211 48.07899856567383,47.7859992980957 59.1510009765625,47.16400146484375 C59.1510009765625,47.16400146484375 61.18199920654297,25.601999282836914 61.18199920654297,25.601999282836914 C61.18199920654297,25.601999282836914 25.270000457763672,19.327999114990234 25.270000457763672,19.327999114990234 C25.270000457763672,19.327999114990234 66.58499908447266,13.47700023651123 66.58499908447266,13.47700023651123 C91.7300033569336,-26.875 66.98500061035156,-23.297000885009766 40.279998779296875,-38.9109992980957z M17.07200050354004,-26.131000518798828 C14.244000434875488,-17.415000915527344 -20.020000457763672,-26.124000549316406 -14.937999725341797,-32.917999267578125 C-4.123000144958496,-35.5359992980957 18.045000076293945,-44.12699890136719 17.07200050354004,-26.131000518798828z"></path></g></g></g></svg>