<svg xmlns="http://www.w3.org/2000/svg" xmlns:xlink="http://www.w3.org/1999/xlink" viewBox="0 0 512 512" width="512" height="512" style="width: 100%; height: 100%; transform: translate3d(0,0,0);" preserveAspectRatio="xMidYMid meet"><defs><clipPath id="__lottie_element_53020"><rect width="512" height="512" x="0" y="0"></rect></clipPath></defs><g clip-path="url(#__lottie_element_53020)"><g style="display: block;" transform="matrix(1,0,0,1,256,256)" opacity="1"><g opacity="1" transform="matrix(1,0,0,1,0,0)"><path fill="rgb(0,0,0)" fill-opacity="1" d=" M203.75,-73.3499984741211 C178.33399963378906,-93.77999877929688 129.71299743652344,-160.5 90.2490005493164,-163.3979949951172 C25.81599998474121,-175.96299743652344 22.010000228881836,-112.0739974975586 -30.249000549316406,-150.2989959716797 C-116.66000366210938,-206.9530029296875 -172.78900146484375,-82.26000213623047 -232.9499969482422,-49.097999572753906 C-252.51699829101562,-38.965999603271484 -255.25,-22.549999237060547 -241.14999389648438,0.15000000596046448 C-227.18299865722656,22.75 -208.8000030517578,51.516998291015625 -186,86.44999694824219 C-140.7570037841797,155.1739959716797 -79.49199676513672,186.35400390625 1.850000023841858,187.9499969482422 C1.850000023841858,187.9499969482422 1.850000023841858,187.8000030517578 1.850000023841858,187.8000030517578 C131.7169952392578,186.74400329589844 184.56900024414062,92.3759994506836 241.2469940185547,-2.303999900817871 C267.5799865722656,-45.17399978637695 230.14199829101562,-47.70800018310547 203.75,-73.3499984741211 M79.1500015258789,-134.25 C87.6500015258789,-134.25 95.88300323486328,-131.3000030517578 103.8499984741211,-125.4000015258789 C117.87000274658203,-115.28700256347656 119.98400115966797,-105.71099853515625 103.05000305175781,-101.5 C47.43000030517578,-87.19300079345703 24.746000289916992,-130.58799743652344 79.1500015258789,-134.25 M133.1999969482422,68.5999984741211 C130.23599243164062,85.06700134277344 97.33300018310547,82.78600311279297 97.6500015258789,65.5 C99.6500015258789,47.33700180053711 135.06900024414062,49.67599868774414 133.1999969482422,68.5999984741211 M89.44999694824219,97.4000015258789 C75.9020004272461,139.81700134277344 -24.51300048828125,117.83300018310547 4.14900016784668,95.29900360107422 C19.540000915527344,85.12799835205078 37.37799835205078,82.33499908447266 56.20000076293945,77.94999694824219 C71.26799774169922,74.5 95.4520034790039,78.11199951171875 89.44999694824219,97.4000015258789 M-46.29999923706055,-125.4000015258789 C-8.595000267028809,-98.26499938964844 -78.1729965209961,-93.56500244140625 -92.94999694824219,-104.0999984741211 C-105.01799774169922,-110.61499786376953 -104.90399932861328,-122.51699829101562 -92.94999694824219,-129.14999389648438 C-79.06800079345703,-136.64300537109375 -60.066001892089844,-136.31199645996094 -46.29999923706055,-125.4000015258789 M1.850000023841858,-21.450000762939453 C53.946998596191406,-31.57200050354004 37.3129997253418,-42.194000244140625 112.4000015258789,-12.449999809265137 C88.0530014038086,14.664999961853027 36.36800003051758,43.189998626708984 1.350000023841858,43.70000076293945 C-35.72600173950195,43.77299880981445 -86.83399963378906,16.525999069213867 -112.30000305175781,-11.300000190734863 C-31.875,-44.52199935913086 -54.3390007019043,-28.128999710083008 1.850000023841858,-21.450000762939453z"></path></g></g></g></svg>