<svg xmlns="http://www.w3.org/2000/svg" xmlns:xlink="http://www.w3.org/1999/xlink" viewBox="0 0 512 512" width="512" height="512" style="width: 100%; height: 100%; transform: translate3d(0,0,0);" preserveAspectRatio="xMidYMid meet"><defs><clipPath id="__lottie_element_53659"><rect width="512" height="512" x="0" y="0"></rect></clipPath></defs><g clip-path="url(#__lottie_element_53659)"><g style="display: block;" transform="matrix(1,0,0,1,-1144.625,-3.475006103515625)" opacity="1"><g opacity="1" transform="matrix(1,0,0,1,1512.822998046875,407.5450134277344)"><path fill="rgb(0,0,0)" fill-opacity="1" d=" M55.72800064086914,50.20500183105469 C55.72800064086914,50.20500183105469 -15.614999771118164,-73.36499786376953 -15.614999771118164,-73.36499786376953 C-17.604000091552734,-76.80999755859375 -20.881000518798828,-79.3239974975586 -24.724000930786133,-80.35399627685547 C-28.566999435424805,-81.38099670410156 -32.65999984741211,-80.84400177001953 -36.10499954223633,-78.8550033569336 C-36.10499954223633,-78.8550033569336 -50.23699951171875,-70.69599914550781 -50.23699951171875,-70.69599914550781 C-57.4119987487793,-66.5530014038086 -59.87099838256836,-57.380001068115234 -55.72800064086914,-50.20500183105469 C-55.72800064086914,-50.20500183105469 15.614999771118164,73.36399841308594 15.614999771118164,73.36399841308594 C17.604000091552734,76.80899810791016 20.881000518798828,79.322998046875 24.724000930786133,80.35299682617188 C26.000999450683594,80.69499969482422 27.30500030517578,80.86399841308594 28.604999542236328,80.86399841308594 C31.21500015258789,80.86399841308594 33.80500030517578,80.18199920654297 36.10499954223633,78.85399627685547 C36.10499954223633,78.85399627685547 50.23699951171875,70.69499969482422 50.23699951171875,70.69499969482422 C57.4119987487793,66.552001953125 59.87099838256836,57.380001068115234 55.72800064086914,50.20500183105469z"></path></g><g opacity="1" transform="matrix(1,0,0,1,1393.241943359375,184.13900756835938)"><path fill="rgb(0,0,0)" fill-opacity="1" d=" M72.552001953125,-25.2450008392334 C53.85100173950195,-46.94200134277344 25.691999435424805,-58.167999267578125 -4.754000186920166,-56.06100082397461 C-30.47599983215332,-54.27399826049805 -53.44599914550781,-36.9640007019043 -63.270999908447266,-11.96399974822998 C-71.96700286865234,10.161999702453613 -68.18699645996094,33.71500015258789 -53.404998779296875,49.505001068115234 C-46.34600067138672,57.04399871826172 -38.03300094604492,61.823001861572266 -29.363000869750977,63.323001861572266 C-20.24799919128418,64.9010009765625 -11.352999687194824,62.665000915527344 -4.948999881744385,57.19499969482422 C0.5820000171661377,52.470001220703125 3.734999895095825,45.85900115966797 3.9260001182556152,38.577999114990234 C4.105000019073486,31.777999877929688 1.6549999713897705,24.915000915527344 -3.1570000648498535,18.729999542236328 C-6.00600004196167,15.069999694824219 -9.22599983215332,9.765000343322754 -8.387999534606934,5.2829999923706055 C-7.767000198364258,1.9520000219345093 -4.9029998779296875,-0.8209999799728394 -2.430000066757202,-2.302999973297119 C4.784999847412109,-6.631999969482422 13.814000129699707,-0.6919999718666077 16.409000396728516,1.2309999465942383 C33.777000427246094,14.097999572753906 37.222999572753906,37.196998596191406 32.93299865722656,54.382999420166016 C27.356000900268555,76.72699737548828 6.089000225067139,92.68599700927734 -21.246999740600586,95.04000091552734 C-46.56700134277344,97.22799682617188 -79.3499984741211,86.66600036621094 -95.34700012207031,50.49599838256836 C-110.9489974975586,15.220000267028809 -102.23799896240234,-27.663999557495117 -73.15499877929688,-58.75699996948242 C-43.30400085449219,-90.6709976196289 -0.5260000228881836,-100.62300109863281 41.27899932861328,-85.37899780273438 C71.9229965209961,-74.20500183105469 93.65499877929688,-55.35900115966797 105.875,-29.363000869750977 C116.76300048828125,-6.201000213623047 119.79900360107422,22.270999908447266 114.65399932861328,52.9739990234375 C110.3280029296875,78.79499816894531 98.56500244140625,97.83999633789062 98.4469985961914,98.02899932861328 C94.28600311279297,104.64600372314453 95.90299987792969,113.3550033569336 102.1719970703125,118.03399658203125 C108.45099639892578,122.72200012207031 117.27999877929688,121.78299713134766 122.43699645996094,115.88600158691406 C148.30799865722656,86.2979965209961 162.55499267578125,48.32500076293945 162.55499267578125,8.963000297546387 C162.55499267578125,-80.6729965209961 89.63500213623047,-153.5970001220703 0.004999999888241291,-153.5970001220703 C-89.63099670410156,-153.5970001220703 -162.55499267578125,-80.6729965209961 -162.55499267578125,8.963000297546387 C-162.55499267578125,58.167999267578125 -143.13600158691406,96.83599853515625 -103.18699645996094,127.1780014038086 C-80.65899658203125,144.28900146484375 -52.395999908447266,153.59800720214844 -23.197999954223633,153.5970001220703 C-21.86400032043457,153.5970001220703 -20.524999618530273,153.5780029296875 -19.187000274658203,153.53900146484375 C12.154000282287598,152.62399291992188 40.72700119018555,140.98399353027344 61.26900100708008,120.76100158691406 C77.11399841308594,105.16100311279297 87.90699768066406,85.9729995727539 92.48200225830078,65.26899719238281 C100.01399993896484,31.180999755859375 92.75,-1.809999942779541 72.552001953125,-25.2450008392334z"></path></g></g></g></svg>