<svg xmlns="http://www.w3.org/2000/svg" xmlns:xlink="http://www.w3.org/1999/xlink" viewBox="0 0 512 512" width="512" height="512" style="width: 100%; height: 100%; transform: translate3d(0,0,0);" preserveAspectRatio="xMidYMid meet"><defs><clipPath id="__lottie_element_39091"><rect width="512" height="512" x="0" y="0"></rect></clipPath></defs><g clip-path="url(#__lottie_element_39091)"><g style="display: block;" transform="matrix(1,0,0,1,265.4519958496094,254.7239990234375)" opacity="1"><g opacity="1" transform="matrix(1,0,0,1,0,0)"><path fill="rgb(0,0,0)" fill-opacity="1" d=" M10.69,133.92 C10.69,133.92 10.69,161.35 10.69,161.35 C10.69,163.55 9.79,165.55 8.34,167 C6.89,168.44 4.91,169.33 2.7,169.33 C2.7,169.33 -28.02,169.33 -28.02,169.33 C-28.02,169.33 -94.65,169.33 -94.65,169.33 C-95.96,169.33 -97.2,169.01 -98.29,168.44 C-100.87,167.12 -102.64,164.44 -102.64,161.35 C-102.64,161.35 -102.64,133.17 -102.64,133.17 C-102.64,128.77 -99.06,125.19 -94.65,125.19 C-94.65,125.19 -75.62,125.19 -75.62,125.19 C-75.62,125.19 -74.67,125.19 -74.67,125.19 C-74.67,125.19 -68.27,112.03 -68.27,112.03 C-67.99,111.41 -67.64,110.84 -67.23,110.33 C-65.73,108.48 -63.45,107.36 -61.01,107.36 C-61.01,107.36 -27.38,107.36 -27.38,107.36 C-25.71,107.36 -24.21,107.84 -22.97,108.67 C-22.28,109.14 -21.66,109.7 -21.14,110.33 C-19.42,112.51 -18.8,115.55 -20.01,118.43 C-20.01,118.43 -23.16,125.92 -23.16,125.92 C-23.16,125.92 2.7,125.92 2.7,125.92 C5.67,125.92 8.26,127.55 9.63,129.95 C10.31,131.12 10.69,132.48 10.69,133.92z M-43.54,-215.98 C-39.13,-215.98 -35.56,-212.41 -35.56,-208 C-35.56,-208 -35.56,-201.28 -35.56,-201.28 C-35.56,-201.28 -35.56,-179.16 -35.56,-179.16 C-35.56,-177.02 -36.4,-175.08 -37.76,-173.65 C-39.22,-172.12 -41.27,-171.18 -43.54,-171.18 C-43.54,-171.18 -79.16,-171.18 -79.16,-171.18 C-79.16,-171.18 -79.16,-101.62 -79.16,-101.62 C-79.16,-101.62 -79.16,39.69 -79.16,39.69 C-79.16,39.69 83.69,39.69 83.69,39.69 C83.69,39.69 89.29,39.69 89.29,39.69 C89.29,39.69 52.86,-64.25 52.86,-64.25 C52.86,-64.25 46.45,-49 46.45,-49 C46.45,-49 21.02,11.57 21.02,11.57 C19.77,14.54 16.86,16.47 13.65,16.47 C13.65,16.47 -16.24,16.47 -16.24,16.47 C-21.94,16.47 -25.81,10.66 -23.6,5.41 C-23.6,5.41 12.14,-80.03 12.14,-80.03 C12.14,-80.03 14.03,-84.56 14.03,-84.56 C14.03,-84.56 3.6,-84.56 3.6,-84.56 C3.6,-84.56 -21,-84.56 -21,-84.56 C-25.41,-84.56 -28.99,-88.13 -28.99,-92.54 C-28.99,-92.54 -28.99,-101.18 -28.99,-101.18 C-28.99,-101.18 -28.99,-120.21 -28.99,-120.21 C-28.99,-124.62 -25.41,-128.2 -21,-128.2 C-21,-128.2 36.67,-128.2 36.67,-128.2 C36.67,-128.2 61.9,-128.2 61.9,-128.2 C65.11,-128.2 68,-126.27 69.25,-123.32 C69.25,-123.32 76.11,-107.06 76.11,-107.06 C76.11,-107.06 175.33,128.11 175.33,128.11 C175.33,128.11 195.42,128.11 195.42,128.11 C199.83,128.11 203.4,131.69 203.4,136.1 C203.4,136.1 203.4,161.35 203.4,161.35 C203.4,163.5 202.55,165.44 201.18,166.87 C199.72,168.38 197.68,169.33 195.42,169.33 C195.42,169.33 164.68,169.33 164.68,169.33 C164.68,169.33 97.29,169.33 97.29,169.33 C96.09,169.33 94.94,169.06 93.93,168.57 C91.19,167.31 89.29,164.56 89.29,161.35 C89.29,161.35 89.29,133.7 89.29,133.7 C89.29,130.26 91.49,127.32 94.55,126.21 C95.4,125.89 96.32,125.72 97.29,125.72 C97.29,125.72 119.16,125.72 119.16,125.72 C119.16,125.72 113.79,110.46 113.79,110.46 C113.79,110.46 104.23,83.31 104.23,83.31 C104.23,83.31 102,83.31 102,83.31 C102,83.31 5.49,83.31 5.49,83.31 C5.49,83.31 -84.44,83.31 -84.44,83.31 C-84.44,83.31 -158.4,83.31 -158.4,83.31 C-159.85,83.31 -161.22,82.91 -162.38,82.24 C-164.78,80.86 -166.38,78.28 -166.38,75.33 C-166.38,75.33 -166.38,46.49 -166.38,46.49 C-166.38,42.08 -162.81,38.51 -158.4,38.51 C-158.4,38.51 -139.93,38.51 -139.93,38.51 C-139.93,38.51 -129.94,38.51 -129.94,38.51 C-129.94,38.51 -129.94,-171.18 -129.94,-171.18 C-129.94,-171.18 -158.4,-171.18 -158.4,-171.18 C-159.86,-171.18 -161.23,-171.57 -162.41,-172.26 C-164.78,-173.64 -166.38,-176.22 -166.38,-179.16 C-166.38,-179.16 -166.38,-208 -166.38,-208 C-166.38,-209.65 -165.89,-211.16 -165.03,-212.43 C-165.03,-212.44 -165.02,-212.45 -165.01,-212.46 C-165.01,-212.46 -164.29,-213.37 -164.29,-213.37 C-164.27,-213.4 -164.26,-213.41 -164.25,-213.42 C-162.8,-215 -160.71,-215.98 -158.4,-215.98 C-158.4,-215.98 -82.32,-215.98 -82.32,-215.98 C-82.32,-215.98 -43.54,-215.98 -43.54,-215.98z M195.41000366210938,101.08100128173828 C195.41000366210938,101.08100128173828 193.25900268554688,101.08100128173828 193.25900268554688,101.08100128173828 C193.25900268554688,101.08100128173828 94.16000366210938,-133.83099365234375 94.16000366210938,-133.83099365234375 C88.66999816894531,-146.8249969482422 76.00399780273438,-155.22999572753906 61.89699935913086,-155.22999572753906 C61.89699935913086,-155.22999572753906 -17.891000747680664,-155.22999572753906 -17.891000747680664,-155.22999572753906 C-17.891000747680664,-155.22999572753906 -16.937000274658203,-156.42799377441406 -16.937000274658203,-156.42799377441406 C-16.83099937438965,-156.5449981689453 -16.736000061035156,-156.66099548339844 -16.650999069213867,-156.7779998779297 C-11.585000038146973,-162.8509979248047 -8.531999588012695,-170.66200256347656 -8.531999588012695,-179.16200256347656 C-8.531999588012695,-179.16200256347656 -8.531999588012695,-208.0019989013672 -8.531999588012695,-208.0019989013672 C-8.531999588012695,-227.302001953125 -24.229000091552734,-243.00999450683594 -43.540000915527344,-243.00999450683594 C-43.540000915527344,-243.00999450683594 -158.3990020751953,-243.00999450683594 -158.3990020751953,-243.00999450683594 C-167.7469940185547,-243.00999450683594 -176.2480010986328,-239.3209991455078 -182.5330047607422,-233.32200622558594 C-182.5540008544922,-233.31100463867188 -182.5760040283203,-233.2899932861328 -182.58599853515625,-233.2689971923828 C-182.77699279785156,-233.0989990234375 -182.95700073242188,-232.91900634765625 -183.13699340820312,-232.73899841308594 C-183.9320068359375,-231.9759979248047 -184.69500732421875,-231.13900756835938 -185.3939971923828,-230.24899291992188 C-185.46800231933594,-230.1750030517578 -185.54299926757812,-230.08900451660156 -185.5959930419922,-229.99400329589844 C-185.5959930419922,-229.99400329589844 -186.1790008544922,-229.2740020751953 -186.1790008544922,-229.2740020751953 C-186.1790008544922,-229.2740020751953 -222.05599975585938,-184.04800415039062 -222.05599975585938,-184.04800415039062 C-227.46099853515625,-177.7209930419922 -230.4290008544922,-169.697998046875 -230.4290008544922,-161.3459930419922 C-230.4290008544922,-161.3459930419922 -230.4290008544922,-132.51699829101562 -230.4290008544922,-132.51699829101562 C-230.4290008544922,-113.20600128173828 -214.7209930419922,-97.4990005493164 -195.41000366210938,-97.4990005493164 C-195.41000366210938,-97.4990005493164 -193.97900390625,-97.4990005493164 -193.97900390625,-97.4990005493164 C-193.97900390625,-97.4990005493164 -193.97900390625,35.11399841308594 -193.97900390625,35.11399841308594 C-193.97900390625,35.11399841308594 -222.0659942626953,70.44000244140625 -222.0659942626953,70.44000244140625 C-227.4709930419922,76.75700378417969 -230.4290008544922,84.7699966430664 -230.4290008544922,93.13200378417969 C-230.4290008544922,93.13200378417969 -230.4290008544922,121.97100067138672 -230.4290008544922,121.97100067138672 C-230.4290008544922,141.27099609375 -214.7209930419922,156.97900390625 -195.41000366210938,156.97900390625 C-195.41000366210938,156.97900390625 -158.218994140625,156.97900390625 -158.218994140625,156.97900390625 C-158.218994140625,156.97900390625 -158.843994140625,157.76300048828125 -158.843994140625,157.76300048828125 C-158.89700317382812,157.83700561523438 -158.96099853515625,157.91200256347656 -159.01400756835938,157.98599243164062 C-159.01400756835938,157.98599243164062 -159.38499450683594,158.46299743652344 -159.38499450683594,158.46299743652344 C-159.43800354003906,158.52699279785156 -159.5019989013672,158.6009979248047 -159.55499267578125,158.6750030517578 C-164.1439971923828,164.70599365234375 -166.677001953125,172.22000122070312 -166.677001953125,179.8300018310547 C-166.677001953125,179.8300018310547 -166.677001953125,208.0019989013672 -166.677001953125,208.0019989013672 C-166.677001953125,227.302001953125 -150.968994140625,243.00999450683594 -131.6580047607422,243.00999450683594 C-131.6580047607422,243.00999450683594 -34.30799865722656,243.00999450683594 -34.30799865722656,243.00999450683594 C-25.733999252319336,243.00999450683594 -17.552000045776367,239.9040069580078 -11.149999618530273,234.24400329589844 C-10.746999740600586,233.8939971923828 -10.354999542236328,233.53500366210938 -9.972999572753906,233.1529998779297 C-9.145999908447266,232.3470001220703 -8.373000144958496,231.49899291992188 -7.6519999504089355,230.58799743652344 C-7.6519999504089355,230.58799743652344 25.256999969482422,189.15699768066406 25.256999969482422,189.15699768066406 C25.256999969482422,189.15699768066406 25.256999969482422,208.0019989013672 25.256999969482422,208.0019989013672 C25.256999969482422,227.302001953125 40.95399856567383,243.00999450683594 60.26499938964844,243.00999450683594 C60.26499938964844,243.00999450683594 158.3990020751953,243.00999450683594 158.3990020751953,243.00999450683594 C167.29200744628906,243.00999450683594 175.781005859375,239.66000366210938 182.28900146484375,233.58700561523438 C183.26400756835938,232.6750030517578 184.1649932861328,231.7010040283203 184.99200439453125,230.65199279785156 C184.99200439453125,230.65199279785156 221.87600708007812,184.25 221.87600708007812,184.25 C221.9290008544922,184.19700622558594 221.9709930419922,184.1439971923828 222.01300048828125,184.09100341796875 C227.25900268554688,177.97500610351562 230.4290008544922,170.0260009765625 230.4290008544922,161.3459930419922 C230.4290008544922,161.3459930419922 230.4290008544922,136.10000610351562 230.4290008544922,136.10000610351562 C230.4290008544922,116.78900146484375 214.7209930419922,101.08100128173828 195.41000366210938,101.08100128173828z"></path><g opacity="1" transform="matrix(1,0,0,1,-45.97200012207031,138.34100341796875)"></g><g opacity="1" transform="matrix(1,0,0,1,18.51099967956543,-23.327999114990234)"></g><g opacity="1" transform="matrix(1,0,0,1,0,0)"></g></g></g></g></svg>