<svg xmlns="http://www.w3.org/2000/svg" xmlns:xlink="http://www.w3.org/1999/xlink" viewBox="0 0 512 512" width="512" height="512" style="width: 100%; height: 100%; transform: translate3d(0,0,0);" preserveAspectRatio="xMidYMid meet"><defs><clipPath id="__lottie_element_15666"><rect width="512" height="512" x="0" y="0"></rect></clipPath></defs><g clip-path="url(#__lottie_element_15666)"><g style="display: block;" transform="matrix(1,0,0,1,1.2710113525390625,37.73200988769531)" opacity="1"><g opacity="1" transform="matrix(1,0,0,1,249.3459930419922,224.48300170898438)"><path fill="rgb(0,0,0)" fill-opacity="1" d=" M-185.04400634765625,-213.74400329589844 C-83.04900360107422,-59.25199890136719 -110.27200317382812,-4.053999900817871 -92.04900360107422,20.243000030517578 C-83.04900360107422,32.24300003051758 12.878000259399414,-50.34600067138672 24.94499969482422,-36.75299835205078 C42.944000244140625,-16.47800064086914 -1.6699999570846558,62.90399932861328 0.9470000267028809,77.24099731445312 C2.6489999294281006,86.56800079345703 32.145999908447266,79.13300323486328 62.5,80.35199737548828 C95.6050033569336,81.68199920654297 114.31900024414062,95.23999786376953 129.94000244140625,86.24099731445312 C136.93899536132812,82.20899963378906 114.21800231933594,65.82499694824219 91.94100189208984,59.24300003051758 C73.23500061035156,53.71500015258789 47.92499923706055,58.39699935913086 44.44499969482422,51.74300003051758 C36.60900115966797,36.763999938964844 92.44100189208984,-50.25199890136719 66.94300079345703,-83.2509994506836 C53.084999084472656,-101.18399810791016 -40.875999450683594,-39.691001892089844 -55.54999923706055,-40.25299835205078 C-74.08999633789062,-40.9630012512207 -72.05000305175781,-128.7480010986328 -118.5479965209961,-169.24600219726562 C-127.56300354003906,-177.09800720214844 -128.1929931640625,-221.41400146484375 -113.5479965209961,-222.74400329589844 C-97.1520004272461,-224.23300170898438 -72.33599853515625,-153.28599548339844 -59.04999923706055,-160.2469940185547 C-47.125,-166.4949951171875 -12.831000328063965,-221.94400024414062 -1.8700000047683716,-209.74400329589844 C17.445999145507812,-188.2449951171875 4.855000019073486,-130.38900756835938 20.44499969482422,-137.2480010986328 C57.94300079345703,-153.7469940185547 116.51699829101562,-181.82699584960938 134.44000244140625,-166.24600219726562 C151.46600341796875,-151.4459991455078 111.4209976196289,-58.75699996948242 124.44000244140625,-55.25199890136719 C163.43800354003906,-44.75299835205078 209.36700439453125,-43.85900115966797 215.43499755859375,-24.753000259399414 C221.67300415039062,-5.113999843597412 163.66700744628906,32.11399841308594 161.43800354003906,42.74300003051758 C157.4409942626953,61.79399871826172 229.11300659179688,53.680999755859375 233.93499755859375,71.24199676513672 C238.5709991455078,88.1240005493164 192.43600463867188,104.23999786376953 194.93600463867188,119.73899841308594 C197.04400634765625,132.8070068359375 249.0959930419922,154.23599243164062 242.31100463867188,170.73599243164062 C239.54200744628906,177.4669952392578 194.31399536132812,172.73599243164062 169.31500244140625,182.73599243164062 C138.1739959716797,195.19200134277344 103.94100189208984,224.23399353027344 61.94300079345703,211.23399353027344 C-15.84000015258789,187.15899658203125 -35.05099868774414,217.10400390625 -92.04900360107422,164.23599243164062 C-97.6520004272461,159.03799438476562 -114.822998046875,167.7169952392578 -128.0469970703125,157.73599243164062 C-141.45799255371094,147.61399841308594 -141.58399963378906,127.60800170898438 -147.04600524902344,123.73899841308594 C-219.04299926757812,72.74199676513672 -180.04400634765625,43.74300003051758 -219.31100463867188,-16.47800064086914 C-249.0959930419922,-62.15700149536133 -207.04600524902344,-113.27999877929688 -205.54299926757812,-145.7480010986328 C-203.19500732421875,-196.4600067138672 -191.36700439453125,-223.322998046875 -185.04400634765625,-213.74400329589844z"></path></g></g></g></svg>