<svg xmlns="http://www.w3.org/2000/svg" xmlns:xlink="http://www.w3.org/1999/xlink" viewBox="0 0 512 512" width="512" height="512" style="width: 100%; height: 100%; transform: translate3d(0,0,0);" preserveAspectRatio="xMidYMid meet"><defs><clipPath id="__lottie_element_53254"><rect width="512" height="512" x="0" y="0"></rect></clipPath></defs><g clip-path="url(#__lottie_element_53254)"><g style="display: block;" transform="matrix(1,0,0,1,258.6780090332031,250.06300354003906)" opacity="1"><g opacity="1" transform="matrix(1,0,0,1,90.23400115966797,104.11900329589844)"><path fill="rgb(0,0,0)" fill-opacity="1" d=" M96.82099914550781,-104.93900299072266 C117.09400177001953,-104.27799987792969 165.51100158691406,-105.91000366210938 156.38499450683594,-74.10099792480469 C136.43499755859375,3.746000051498413 73.27300262451172,63.34400177001953 -0.5360000133514404,90.99199676513672 C-44.59700012207031,110.61699676513672 -91.11499786376953,105.41999816894531 -137.4290008544922,99.97000122070312 C-159.25,97.57599639892578 -160.7779998779297,95.15299987792969 -153.83799743652344,74.80799865722656 C-117.36699676513672,-36.547000885009766 -18.441999435424805,-102.65299987792969 96.82099914550781,-104.93900299072266z"></path></g><g opacity="1" transform="matrix(1,0,0,1,-158.46499633789062,34.862998962402344)"><path fill="rgb(0,0,0)" fill-opacity="1" d=" M-88.93499755859375,-75.61000061035156 C-87.96600341796875,-91.41100311279297 -87.58300018310547,-166.6439971923828 -63.047000885009766,-149.83099365234375 C-0.47999998927116394,-128.92599487304688 51.21500015258789,-82.53099822998047 72.98999786376953,-19.732999801635742 C85.6500015258789,19.270999908447266 93.07599639892578,63.242000579833984 87.2959976196289,104.63899993896484 C84.79299926757812,122.56500244140625 80.81199645996094,130.5279998779297 76.13099670410156,143.41400146484375 C67.53900146484375,167.0679931640625 31.441999435424805,136.41900634765625 19.95599937438965,131.08200073242188 C-47.34199905395508,85.96399688720703 -93.81800079345703,4.005000114440918 -88.93499755859375,-75.61000061035156z"></path></g><g opacity="1" transform="matrix(1,0,0,1,10.258000373840332,-63.029998779296875)"><path fill="rgb(0,0,0)" fill-opacity="1" d=" M88.94499969482422,-32.38800048828125 C87.07599639892578,-2.1510000228881836 90.51899719238281,45.849998474121094 61.393001556396484,61.928001403808594 C23.70599937438965,77.96600341796875 -9.151000022888184,101.14199829101562 -36.83000183105469,131.4550018310547 C-41.55099868774414,134.83099365234375 -49.9379997253418,153.15499877929688 -54.59199905395508,142.99000549316406 C-57.435001373291016,103.40599822998047 -65.26399993896484,65.20700073242188 -85.03099822998047,30.395999908447266 C-89.91699981689453,21.518999099731445 -90.1729965209961,13.72700023651123 -86.73300170898438,4.51200008392334 C-64.28600311279297,-56.652000427246094 -18.025999069213867,-106.05999755859375 35.959999084472656,-141.25399780273438 C76.20999908447266,-170.56900024414062 90.41999816894531,-56.250999450683594 88.94499969482422,-32.38800048828125z"></path></g><g opacity="1" transform="matrix(1,0,0,1,-103.37000274658203,-133.36199951171875)"><path fill="rgb(0,0,0)" fill-opacity="1" d=" M51.71200180053711,-19.027999877929688 C47.61000061035156,2.5869998931884766 36.66699981689453,17.05699920654297 28.233999252319336,43.57500076293945 C24.510000228881836,55.2859992980957 18.513999938964844,63.66600036621094 6.1570000648498535,55.02000045776367 C-11.112000465393066,42.9379997253418 -57.28900146484375,22.010000228881836 -51.159000396728516,1.1490000486373901 C-43.090999603271484,-26.68199920654297 -30.67099952697754,-71.40799713134766 8.904999732971191,-55.09600067138672 C24.163000106811523,-45.814998626708984 52.09000015258789,-40.689998626708984 51.71200180053711,-19.027999877929688z"></path></g><g opacity="1" transform="matrix(1,0,0,1,155.36700439453125,-64.24800109863281)"><path fill="rgb(0,0,0)" fill-opacity="1" d=" M47.04999923706055,-4.2129998207092285 C47.31100082397461,62.220001220703125 21.54599952697754,27.448999404907227 -37.9109992980957,47.04100036621094 C-46.15299987792969,48.99300003051758 -48.36000061035156,46.665000915527344 -46.676998138427734,38.42300033569336 C-43.03799819946289,18.777999877929688 -37.75899887084961,-1.4759999513626099 -40.16699981689453,-21.54199981689453 C-46.27799987792969,-42.150001525878906 51.58599853515625,-75.74500274658203 47.04999923706055,-4.2129998207092285z"></path></g></g></g></svg>