<svg xmlns="http://www.w3.org/2000/svg" xmlns:xlink="http://www.w3.org/1999/xlink" viewBox="0 0 512 512" width="512" height="512" style="width: 100%; height: 100%; transform: translate3d(0,0,0);" preserveAspectRatio="xMidYMid meet"><defs><clipPath id="__lottie_element_27229"><rect width="512" height="512" x="0" y="0"></rect></clipPath></defs><g clip-path="url(#__lottie_element_27229)"><g style="display: block;" transform="matrix(1,0,0,1,0,0)" opacity="1"><g opacity="1" transform="matrix(1,0,0,1,219.54800415039062,255.1699981689453)"><path fill="rgb(65,63,63)" fill-opacity="1" d=" M160.26300048828125,194.76600646972656 C164.10299682617188,175.69500732421875 159.6820068359375,142.18899536132812 160.62399291992188,120.90599822998047 C165.5800018310547,8.89900016784668 197.39500427246094,-101.30400085449219 219.54800415039062,-210.4510040283203 C218.71200561523438,-234.3560028076172 206.90699768066406,-241.92599487304688 184.5659942626953,-243.53399658203125 C136.80299377441406,-246.9720001220703 82.52400207519531,-244.593994140625 34.06800079345703,-245.28399658203125 C10.008000373840332,-245.62600708007812 -14.888999938964844,-249.80999755859375 -39.25400161743164,-246.44500732421875 C-39.25400161743164,-246.44500732421875 -216.17599487304688,-128.4320068359375 -216.17599487304688,-128.4320068359375 C-218.67999267578125,-126.51899719238281 -219.61900329589844,-122.73200225830078 -219.54299926757812,-119.7699966430664 C-219.33299255371094,-111.53700256347656 -164.03199768066406,49.59600067138672 -157.36000061035156,104.10099792480469 C-154.96299743652344,123.68199920654297 -157.18899536132812,161.17300415039062 -147.9929962158203,176.56900024414062 C-140.42300415039062,189.24099731445312 -91.40299987792969,215.68600463867188 -75.81199645996094,226.18499755859375 C-67.23500061035156,231.96099853515625 -50.87799835205078,249.81100463867188 -41.79100036621094,249.39999389648438 C7.172999858856201,247.18600463867188 156.5449981689453,213.22999572753906 160.26300048828125,194.76600646972656z M-48.65800094604492,217.08099365234375 C-51.59199905395508,215.60499572753906 -54.64899826049805,209.3679962158203 -56.02000045776367,206.39199829101562 C-94.65599822998047,122.56600189208984 -74.93199920654297,-104.79199981689453 -51.88600158691406,-196.2729949951172 C-50.209999084472656,-202.92599487304688 -47.61199951171875,-214.00999450683594 -42.948001861572266,-218.718994140625 C-42.948001861572266,-218.718994140625 -54.42599868774414,-40.856998443603516 -54.42599868774414,-40.856998443603516 C-54.42599868774414,-40.856998443603516 -54.42599868774414,92.51599884033203 -54.42599868774414,92.51599884033203 C-54.42599868774414,92.51599884033203 -48.65800094604492,217.08099365234375 -48.65800094604492,217.08099365234375z M86.06300354003906,-189.64100646972656 C106.7959976196289,-192.1269989013672 123.7770004272461,-188.00900268554688 137.90499877929688,-172.13299560546875 C195.08599853515625,-107.87699890136719 113.51499938964844,42.66600036621094 25.972000122070312,12.118000030517578 C-54.10200119018555,-15.821999549865723 -6.011000156402588,-178.60699462890625 86.06300354003906,-189.64100646972656z M6.554999828338623,164.7519989013672 C-21.604999542236328,127.08499908447266 9.581999778747559,59.99300003051758 55.564998626708984,53.92599868774414 C105.65899658203125,47.316001892089844 120.4219970703125,105.80799865722656 101.3740005493164,143.49000549316406 C84.55899810791016,176.75599670410156 33.38399887084961,200.63800048828125 6.554999828338623,164.7519989013672z"></path></g><g opacity="1" transform="matrix(1,0,0,1,276.760009765625,177.65899658203125)"><path fill="rgb(65,63,63)" fill-opacity="1" d=" M19.28700065612793,-83.61299896240234 C72.08599853515625,-90.56300354003906 70.84100341796875,-25.934999465942383 56.25,8.52400016784668 C42.9630012512207,39.90399932861328 -10.366999626159668,90.56300354003906 -40.23899841308594,52.952999114990234 C-72.08499908447266,12.857999801635742 -32.17599868774414,-76.83999633789062 19.28700065612793,-83.61299896240234z M-7.441999912261963,-32.32699966430664 C-23.999000549316406,-28.514999389648438 -39.111000061035156,11.83899974822998 -20.948999404907227,22.229999542236328 C6.421000003814697,37.88800048828125 30.64900016784668,-41.09700012207031 -7.441999912261963,-32.32699966430664z"></path></g><g opacity="1" transform="matrix(1,0,0,1,264.0010070800781,381.3299865722656)"><path fill="rgb(65,63,63)" fill-opacity="1" d=" M-4.202000141143799,-38.073001861572266 C27.78700065612793,-45.42499923706055 35.150001525878906,5.546999931335449 8.404000282287598,22.100000381469727 C-29.284000396728516,45.42399978637695 -35.14899826049805,-30.959999084472656 -4.202000141143799,-38.073001861572266z"></path></g><g opacity="1" transform="matrix(1,0,0,1,472.5159912109375,125.79900360107422)"><path fill="rgb(65,63,63)" fill-opacity="1" d=" M28.176000595092773,-15.086000442504883 C34.520999908447266,-14.373000144958496 49.44300079345703,6.72599983215332 29.363000869750977,11.029000282287598 C12.666000366210938,14.607000350952148 -30.04599952697754,16.28700065612793 -39.48400115966797,12.336999893188477 C-27.410999298095703,2.4210000038146973 17.458999633789062,-16.28700065612793 28.176000595092773,-15.086000442504883z"></path></g><g opacity="1" transform="matrix(1,0,0,1,465.2380065917969,256.7120056152344)"><path fill="rgb(65,63,63)" fill-opacity="1" d=" M33.7140007019043,-13.586000442504883 C47.2859992980957,-12.42300033569336 48.22600173950195,15.53499984741211 26.25200080871582,13.222000122070312 C7.980999946594238,11.29800033569336 -38.43000030517578,-2.190000057220459 -46.762001037597656,-9.385000228881836 C-31.099000930786133,-15.48900032043457 10.958999633789062,-15.53600025177002 33.7140007019043,-13.586000442504883z"></path></g><g opacity="1" transform="matrix(1,0,0,1,432.2820129394531,358.5780029296875)"><path fill="rgb(65,63,63)" fill-opacity="1" d=" M28.667999267578125,-2.2209999561309814 C35.92300033569336,5.660999774932861 27.336000442504883,27.607999801635742 12.444000244140625,18.643999099731445 C0.061000000685453415,11.190999984741211 -33.17499923706055,-19.200000762939453 -35.92399978637695,-27.607999801635742 C-21.753000259399414,-27.367000579833984 22.527000427246094,-8.892999649047852 28.667999267578125,-2.2209999561309814z"></path></g></g></g></svg>