<svg xmlns="http://www.w3.org/2000/svg" xmlns:xlink="http://www.w3.org/1999/xlink" viewBox="0 0 512 512" width="512" height="512" style="width: 100%; height: 100%; transform: translate3d(0,0,0);" preserveAspectRatio="xMidYMid meet"><defs><clipPath id="__lottie_element_9033"><rect width="512" height="512" x="0" y="0"></rect></clipPath></defs><g clip-path="url(#__lottie_element_9033)"><g style="display: block;" transform="matrix(1,0,0,1,12.083999633789062,-6.579986572265625)" opacity="1"><g opacity="1" transform="matrix(1,0,0,1,309.43701171875,163.2449951171875)"><path fill="rgb(0,0,0)" fill-opacity="1" d=" M105.00599670410156,-126.2020034790039 C34.29399871826172,-142.78599548339844 9.61400032043457,-82.02799987792969 2.0139999389648438,-84.24199676513672 C-4.956999778747559,-86.27300262451172 -2.249000072479248,-119.4000015258789 -40.89899826049805,-131.9239959716797 C-109.55999755859375,-154.1719970703125 -159.52000427246094,-102.66500091552734 -151.52000427246094,-48.95800018310547 C-142.76300048828125,9.833000183105469 -102.5199966430664,-1.6649999618530273 -58.415000915527344,66.55000305175781 C-35.303001403808594,102.2969970703125 -49.37699890136719,110.11499786376953 -40.89899826049805,114.76799774169922 C-24.687000274658203,123.66500091552734 154.47999572753906,80.33499908447266 169.85299682617188,-20.349000930786133 C179.6540069580078,-84.54399871826172 151.093994140625,-115.39299774169922 105.00599670410156,-126.2020034790039z M51.97999954223633,12.407999992370605 C27.777000427246094,26.968000411987305 8.979999542236328,37.334999084472656 -6.519999980926514,37.334999084472656 C-13.520000457763672,37.334999084472656 -13.656000137329102,23.788999557495117 -33.5099983215332,5.117000102996826 C-60.52000045776367,-20.28499984741211 -56.02000045776367,-47.01300048828125 -25.610000610351562,-46.37699890136719 C-1.6100000143051147,-45.875 1.0399999618530273,-30.893999099731445 5.809999942779541,-30.738000869750977 C10.479999542236328,-30.586000442504883 18.510000228881836,-51.37200164794922 51.47999954223633,-46.26100158691406 C74.58999633789062,-42.678001403808594 85.4800033569336,-7.744999885559082 51.97999954223633,12.407999992370605z"></path></g><g opacity="1" transform="matrix(1,0,0,1,98.58300018310547,165.62899780273438)"><path fill="rgb(0,0,0)" fill-opacity="1" d=" M-65.26300048828125,91.80699920654297 C-56.696998596191406,67.38800048828125 -47.14899826049805,42.71900177001953 -51.66600036621094,5.951000213623047 C-56.00699996948242,-29.378999710083008 -71.44999694824219,-41.986000061035156 -79.66000366210938,-59.2400016784668 C-97.33300018310547,-96.38300323486328 -49.17399978637695,-123.7509994506836 -23.02199935913086,-110.91999816894531 C27.66699981689453,-86.04900360107422 39.66600036621094,13.616999626159668 29.33300018310547,38.95100021362305 C25.732999801635742,47.7760009765625 58.33300018310547,25.951000213623047 89.33300018310547,37.95100021362305 C117.05999755859375,48.683998107910156 136.33299255371094,95.61699676513672 129.99899291992188,102.95099639892578 C120.75,113.66000366210938 55.999000549316406,102.61699676513672 32.33300018310547,110.95099639892578 C6.631999969482422,120 1.6660000085830688,118.66100311279297 -20.66699981689453,130.9510040283203 C-36.65999984741211,139.75100708007812 -74.33300018310547,117.66100311279297 -65.26300048828125,91.80699920654297z"></path></g><g opacity="1" transform="matrix(1,0,0,1,141.58299255371094,388.1310119628906)"><path fill="rgb(0,0,0)" fill-opacity="1" d=" M24.66699981689453,12.116000175476074 C26.333999633789062,-17.551000595092773 -9.572999954223633,-66.5270004272461 -5.936999797821045,-80.82599639892578 C-0.6660000085830688,-101.5510025024414 58.689998626708984,-103.30999755859375 71.33399963378906,-70.5510025024414 C93.33399963378906,-13.550999641418457 91.33399963378906,56.45000076293945 82.66699981689453,96.78299713134766 C77.88700103759766,119.02999877929688 20.333999633789062,127.44999694824219 8.333999633789062,103.78299713134766 C-11.494000434875488,64.68000030517578 -71.79499816894531,22.197999954223633 -96.5979995727539,11.736000061035156 C-136,-4.882999897003174 -97.77100372314453,-65.2229995727539 -63.79100036621094,-62.207000732421875 C-30.094999313354492,-59.21699905395508 24.229000091552734,19.9060001373291 24.66699981689453,12.116000175476074z"></path></g><g opacity="1" transform="matrix(1,0,0,1,360.7080078125,383.2749938964844)"><path fill="rgb(0,0,0)" fill-opacity="1" d=" M-73.75499725341797,-64.69400024414062 C-94.26399993896484,-44.694000244140625 -98.08000183105469,41.65599822998047 -103.86100006103516,86.30599975585938 C-106.88899993896484,109.68599700927734 -79.94100189208984,128.26699829101562 -59.957000732421875,121.4229965209961 C-17.26799964904785,106.80500030517578 19.381000518798828,104.7509994506836 63.858001708984375,108.30599975585938 C88.88600158691406,110.30599975585938 78.89800262451172,57.775001525878906 62.810001373291016,53.972999572753906 C9.208999633789062,41.305999755859375 -33.03099822998047,59.95500183105469 -29.200000762939453,47.891998291015625 C-26.791000366210938,40.305999755859375 -12.696999549865723,31.106000900268555 19.045000076293945,26.972999572753906 C47.20899963378906,23.305999755859375 42.71799850463867,-15.187999725341797 19.59600067138672,-16.027000427246094 C1.2089999914169312,-16.694000244140625 -28.114999771118164,-6.938000202178955 -21.003999710083008,-16.027000427246094 C2.2079999446868896,-45.694000244140625 56.20899963378906,-44.694000244140625 77.09500122070312,-61.027000427246094 C90.19599914550781,-71.27200317382812 78.85199737548828,-121.91899871826172 58.63399887084961,-113.0270004272461 C-5.790999889373779,-84.69400024414062 -55.8489990234375,-82.15699768066406 -73.75499725341797,-64.69400024414062z"></path></g></g></g></svg>