<svg xmlns="http://www.w3.org/2000/svg" xmlns:xlink="http://www.w3.org/1999/xlink" viewBox="0 0 512 512" width="512" height="512" style="width: 100%; height: 100%; transform: translate3d(0,0,0);" preserveAspectRatio="xMidYMid meet"><defs><clipPath id="__lottie_element_15801"><rect width="512" height="512" x="0" y="0"></rect></clipPath></defs><g clip-path="url(#__lottie_element_15801)"><g style="display: block;" transform="matrix(1.0299999713897705,0,0,1.0299999713897705,35.927154541015625,-6.3752288818359375)" opacity="1"><g opacity="1" transform="matrix(1,0,0,1,223.09500122070312,253.1750030517578)"><path fill="rgb(0,0,0)" fill-opacity="1" d=" M220.9550018310547,-0.39500001072883606 C218.28500366210938,-9.895000457763672 194.78500366210938,-4.894999980926514 186.28500366210938,-28.065000534057617 C182.02499389648438,-39.665000915527344 188.61500549316406,-42.345001220703125 183.28500366210938,-55.064998626708984 C176.73500061035156,-70.69499969482422 158.28500366210938,-71.8949966430664 161.61500549316406,-81.7249984741211 C164.5449981689453,-90.375 197.51600646972656,-87.32499694824219 193.28500366210938,-97.3949966430664 C178.78500366210938,-131.89500427246094 123.78500366210938,-117.8949966430664 122.28500366210938,-126.06500244140625 C120.57499694824219,-135.375 180.28500366210938,-140.89500427246094 165.28500366210938,-222.39500427246094 C161.0050048828125,-245.65499877929688 128.69500732421875,-252.9250030517578 114.61499786376953,-221.39500427246094 C102.78500366210938,-194.89500427246094 126.28500366210938,-160.89500427246094 97.95500183105469,-149.39500427246094 C89.1050033569336,-145.80499267578125 90.1050033569336,-168.2550048828125 75.28500366210938,-175.39500427246094 C61.084999084472656,-182.23500061035156 50.314998626708984,-170.18499755859375 39.28499984741211,-176.72500610351562 C23.96500015258789,-185.81500244140625 34.435001373291016,-213.7550048828125 22.954999923706055,-218.06500244140625 C14.645000457763672,-221.1750030517578 -0.8450000286102295,-211.06500244140625 -6.715000152587891,-197.39500427246094 C-13.024999618530273,-182.68499755859375 -1.184999942779541,-171.0850067138672 -8.71500015258789,-164.72500610351562 C-16.21500015258789,-158.39500427246094 -56.71500015258789,-192.89500427246094 -140.71499633789062,-130.72500610351562 C-207.59500122070312,-81.23500061035156 -214.4949951171875,22.71500015258789 -216.71499633789062,79.93499755859375 C-219.0749969482422,140.77499389648438 -222.84500122070312,191.81500244140625 -191.38499450683594,219.93499755859375 C-154.48500061035156,252.9250030517578 -98.38500213623047,240.61500549316406 -6.045000076293945,217.27499389648438 C67.78500366210938,198.60499572753906 125.15499877929688,176.22500610351562 150.28500366210938,132.93499755859375 C183.28500366210938,76.1050033569336 158.28500366210938,18.104999542236328 163.9550018310547,12.604999542236328 C168.2949981689453,8.385000228881836 176.13499450683594,20.905000686645508 189.28500366210938,22.274999618530273 C211.78500366210938,24.604999542236328 222.84500122070312,6.34499979019165 220.9550018310547,-0.39500001072883606z M-26.665000915527344,176.10499572753906 C-38.435001373291016,184.69500732421875 -52.45500183105469,185.4949951171875 -57.994998931884766,177.9149932861328 C-63.525001525878906,170.3249969482422 -58.474998474121094,157.22500610351562 -46.70500183105469,148.63499450683594 C-34.935001373291016,140.05499267578125 -20.915000915527344,139.2449951171875 -15.385000228881836,146.83599853515625 C-9.854999542236328,154.4250030517578 -14.904999732971191,167.52499389648438 -26.665000915527344,176.10499572753906z M48.28499984741211,52.275001525878906 C-14.385000228881836,101.6050033569336 -84.04499816894531,135.27499389648438 -133.38499450683594,143.93499755859375 C-154.36500549316406,147.625 -171.9149932861328,133.88499450683594 -172.38499450683594,112.6050033569336 C-173.71499633789062,51.275001525878906 -160.7050018310547,-29.7450008392334 -136.0449981689453,-64.3949966430664 C-111.38500213623047,-99.06500244140625 -69.59500122070312,-129.98500061035156 -30.045000076293945,-123.3949966430664 C9.954999923706055,-116.7249984741211 2.484999895095825,-84.125 14.614999771118164,-78.06500244140625 C27.954999923706055,-71.3949966430664 47.1349983215332,-81.65499877929688 70.28500366210938,-67.06500244140625 C100.95500183105469,-47.724998474121094 92.3949966430664,17.54599952697754 48.28499984741211,52.275001525878906z M100.83499908447266,155.89500427246094 C89.38500213623047,164.90499877929688 75.40499877929688,166.22500610351562 69.59500122070312,158.84500122070312 C63.78499984741211,151.47500610351562 68.3550033569336,138.18499755859375 79.79499816894531,129.1750030517578 C91.23500061035156,120.16500091552734 105.21499633789062,118.84500122070312 111.0250015258789,126.2249984741211 C116.83499908447266,133.59500122070312 112.2750015258789,146.88499450683594 100.83499908447266,155.89500427246094z M122.99500274658203,63.775001525878906 C111.23500061035156,72.3550033569336 97.20500183105469,73.16500091552734 91.67500305175781,65.57499694824219 C86.1449966430664,57.994998931884766 91.19499969482422,44.8849983215332 102.96499633789062,36.30500030517578 C114.7249984741211,27.725000381469727 128.7449951171875,26.915000915527344 134.28500366210938,34.505001068115234 C139.81500244140625,42.08599853515625 134.76600646972656,55.19499969482422 122.99500274658203,63.775001525878906z"></path></g><g opacity="1" transform="matrix(1,0,0,1,180.6199951171875,265.7799987792969)"><path fill="rgb(0,0,0)" fill-opacity="1" d=" M-71.23999786376953,71.66999816894531 C-85.76000213623047,63.33000183105469 -85.56999969482422,-80.66999816894531 -26.90999984741211,-72.66999816894531 C0.5199999809265137,-68.93000030517578 -3.240000009536743,-45 -5.239999771118164,-25.670000076293945 C19.43000030517578,-37 58.459999084472656,-42.150001525878906 66.43000030517578,-19.329999923706055 C85.76000213623047,36 -55.56999969482422,80.66999816894531 -71.23999786376953,71.66999816894531z"></path></g></g></g></svg>