<svg xmlns="http://www.w3.org/2000/svg" xmlns:xlink="http://www.w3.org/1999/xlink" viewBox="0 0 512 512" width="512" height="512" style="width: 100%; height: 100%; transform: translate3d(0,0,0);" preserveAspectRatio="xMidYMid meet"><defs><clipPath id="__lottie_element_9058"><rect width="512" height="512" x="0" y="0"></rect></clipPath></defs><g clip-path="url(#__lottie_element_9058)"><g style="display: block;" transform="matrix(1,0,0,1,72.19900512695312,-16.779998779296875)" opacity="1"><g opacity="1" transform="matrix(1,0,0,1,210.906005859375,236.26499938964844)"><path fill="rgb(0,0,0)" fill-opacity="1" d=" M69.33499908447266,-188.01499938964844 C-26.104999542236328,-236.01499938964844 -109.00499725341797,-189.47500610351562 -149.65499877929688,-135.51499938964844 C-203.15499877929688,-64.51499938964844 -182.69400024414062,28.475000381469727 -176.1540069580078,62.974998474121094 C-169.6739959716797,97.15499877929688 -195.09500122070312,133.3350067138672 -174.1540069580078,137.97500610351562 C-126.77400207519531,148.47500610351562 -83.1050033569336,147.51499938964844 -37.665000915527344,207.96499633789062 C-27.74799919128418,221.1580047607422 -2.565000057220459,179.60499572753906 12.095000267028809,171.84500122070312 C59.27399826049805,146.84500122070312 120.8949966430664,132.51499938964844 158.32400512695312,48.474998474121094 C198.99600219726562,-42.845001220703125 163.53399658203125,-140.63499450683594 69.33499908447266,-188.01499938964844z M24.895000457763672,-182.48500061035156 C39.40399932861328,-178.72500610351562 57.82500076293945,-170.35499572753906 69.89600372314453,-158.48500061035156 C76.41500091552734,-152.0749969482422 64.69499969482422,-134.46499633789062 55.895999908447266,-136.48500061035156 C43.895999908447266,-139.23500061035156 18.31399917602539,-151.01499938964844 11.895000457763672,-157.48500061035156 C2.934999942779541,-166.51499938964844 12.295000076293945,-185.7550048828125 24.895000457763672,-182.48500061035156z M84.83599853515625,10.475000381469727 C57.83599853515625,52.474998474121094 -43.275001525878906,72.50499725341797 -53.165000915527344,64.9749984741211 C-67.8949966430664,53.755001068115234 -118.15499877929688,-25.354999542236328 -95.66500091552734,-78.01499938964844 C-83.69499969482422,-106.03500366210938 -59.665000915527344,-124.51499938964844 -27.665000915527344,-112.51499938964844 C8.145000457763672,-99.08499908447266 -8.0649995803833,-60.23500061035156 3.8350000381469727,-55.51499938964844 C15.9350004196167,-50.724998474121094 36.715999603271484,-79.56500244140625 69.83599853515625,-66.01499938964844 C102.82499694824219,-52.51499938964844 100.94499969482422,-14.595000267028809 84.83599853515625,10.475000381469727z M99.08599853515625,-102.23500061035156 C89.14600372314453,-102.23500061035156 81.08599853515625,-110.29499816894531 81.08599853515625,-120.23500061035156 C81.08599853515625,-130.1750030517578 89.14600372314453,-138.23500061035156 99.08599853515625,-138.23500061035156 C109.0250015258789,-138.23500061035156 117.08599853515625,-130.1750030517578 117.08599853515625,-120.23500061035156 C117.08599853515625,-110.29499816894531 109.0250015258789,-102.23500061035156 99.08599853515625,-102.23500061035156z"></path></g><g opacity="1" transform="matrix(1,0,0,1,75.7770004272461,469.31201171875)"><path fill="rgb(0,0,0)" fill-opacity="1" d=" M-33.02899932861328,-94.0780029296875 C-21.875999450683594,-109.23600006103516 68.02400207519531,-50.53099822998047 79.46600341796875,-11.581000328063965 C82.86599731445312,-0.007000000216066837 40.02299880981445,69.46800231933594 -27.530000686645508,32.41699981689453 C-81.59600067138672,2.763000011444092 -56.97700119018555,-61.53099822998047 -33.02899932861328,-94.0780029296875z"></path></g></g></g></svg>