<svg xmlns="http://www.w3.org/2000/svg" xmlns:xlink="http://www.w3.org/1999/xlink" viewBox="0 0 512 512" width="512" height="512" style="width: 100%; height: 100%; transform: translate3d(0,0,0);" preserveAspectRatio="xMidYMid meet"><defs><clipPath id="__lottie_element_15786"><rect width="512" height="512" x="0" y="0"></rect></clipPath></defs><g clip-path="url(#__lottie_element_15786)"><g style="display: block;" transform="matrix(1.0299999713897705,0,0,1.0299999713897705,9.467514038085938,9.542510986328125)" opacity="1"><g opacity="1" transform="matrix(1,0,0,1,242.75,240.25)"><path fill="rgb(0,0,0)" fill-opacity="1" d=" M196.5,-147 C175.5,-167 170.5,-240 119.5,-240 C96.72000122070312,-240 76.5,-153 69.5,-157 C61.72999954223633,-161.44000244140625 -45.040000915527344,-207.10000610351562 -126.5,-146 C-222.5,-74 -191.5,52 -172.5,88 C-167.3699951171875,97.7300033569336 -242.5,81 -242.5,115 C-242.5,151 -202.8300018310547,143.8800048828125 -190.5,161 C-172.5,186 -180.08999633789062,226.8000030517578 -161.5,233 C-140.5,240 -139.44000244140625,225.74000549316406 -132.5,227 C-110.5,231 -94.36000061035156,234.02000427246094 -88.5,225 C-75.5,205 -94.15699768066406,141.35800170898438 -72.5,151 C-23.83300018310547,172.66700744628906 48.88999938964844,168.61000061035156 106.5,111 C161.5,56 156.16700744628906,-30 146.5,-66 C144.49099731445312,-73.4800033569336 224.50999450683594,-61.310001373291016 235.5,-88 C242.5,-105 226.22999572753906,-118.69000244140625 196.5,-147z M38.854000091552734,49.66400146484375 C31.097999572753906,54.60200119018555 -55.86800003051758,55.779998779296875 -78.62899780273438,44.15700149536133 C-104.04399871826172,31.179000854492188 -120.19999694824219,1.7690000534057617 -104.3280029296875,-27.434999465942383 C-81.38200378417969,-69.65599822998047 -37.69200134277344,-42.933998107910156 -32.73699951171875,-45.79199981689453 C-27.836000442504883,-48.61899948120117 -40.99700164794922,-107.28700256347656 15.909000396728516,-107.28700256347656 C57.21200180053711,-107.28700256347656 64.572998046875,-73.32599639892578 64.55400085449219,-41.20199966430664 C64.54499816894531,-25.49799919128418 48.94900131225586,43.23699951171875 38.854000091552734,49.66400146484375z"></path></g></g></g></svg>