<svg xmlns="http://www.w3.org/2000/svg" xmlns:xlink="http://www.w3.org/1999/xlink" viewBox="0 0 512 512" width="512" height="512" style="width: 100%; height: 100%; transform: translate3d(0,0,0);" preserveAspectRatio="xMidYMid meet"><defs><clipPath id="__lottie_element_15686"><rect width="512" height="512" x="0" y="0"></rect></clipPath></defs><g clip-path="url(#__lottie_element_15686)"><g style="display: block;" transform="matrix(1.0499999523162842,0,0,1.0499999523162842,-8.150985717773438,-2.4539947509765625)" opacity="1"><g opacity="1" transform="matrix(1,0,0,1,238.02000427246094,244.0800018310547)"><path fill="rgb(0,0,0)" fill-opacity="1" d=" M183.61199951171875,-36.31700134277344 C119.28900146484375,-29.996999740600586 120.74199676513672,32.91699981689453 116.03700256347656,37.393001556396484 C112.24299621582031,41.00299835205078 101.54100036621094,17.06999969482422 109.9020004272461,-6.335000038146973 C118.16200256347656,-29.45599937438965 121.84500122070312,-29.659000396728516 122.41500091552734,-36.39099884033203 C123.27100372314453,-46.50400161743164 110.2300033569336,-80.83000183105469 93.2699966430664,-109.16000366210938 C87.68000030517578,-118.51000213623047 111.30999755859375,-101.44000244140625 152.27000427246094,-110.5 C196.72999572753906,-120.33000183105469 228.17999267578125,-190.3699951171875 226.27000427246094,-199.8300018310547 C220.72999572753906,-227.3300018310547 159.22999572753906,-243.8300018310547 109.61000061035156,-233.8300018310547 C71.4800033569336,-226.14999389648438 28.059999465942383,-193.4499969482422 34.27000045776367,-182.5 C38.15999984741211,-175.64999389648438 120.12000274658203,-195.1300048828125 124.66999816894531,-168.8300018310547 C127.55999755859375,-152.16000366210938 49.22999954223633,-155.3300018310547 34.72999954223633,-165.3300018310547 C29.969999313354492,-168.61000061035156 12.1899995803833,-165.6300048828125 8.229999542236328,-158.7899932861328 C-4.769999980926514,-136.2899932861328 -55.27000045776367,-104.33000183105469 -64.18000030517578,-117.83000183105469 C-75.87999725341797,-135.57000732421875 -3.930000066757202,-169.27999877929688 -6.389999866485596,-177.8300018310547 C-8.270000457763672,-184.3300018310547 -61.540000915527344,-184.69000244140625 -98.2699966430664,-171.8300018310547 C-138.27000427246094,-157.8300018310547 -178.27000427246094,-109.83000183105469 -174.38999938964844,-91.5 C-171.00999450683594,-75.47000122070312 -127.29000091552734,-42.2599983215332 -85.7300033569336,-44.15999984741211 C-49.27000045776367,-45.83000183105469 -33.810001373291016,-62.90999984741211 -31.729999542236328,-61.15999984741211 C-27.739999771118164,-57.81999969482422 -42.27000045776367,-19.479999542236328 -47.38999938964844,-10.15999984741211 C-70.87000274658203,32.47999954223633 -75.24500274658203,23.018999099731445 -77.26300048828125,32.58700180053711 C-78.8280029296875,40.005001068115234 -52.92300033569336,85.1240005493164 -83.69100189208984,123.76599884033203 C-90.81600189208984,132.71499633789062 -86.28500366210938,100.1259994506836 -89.31900024414062,74.23600006103516 C-90.47799682617188,64.34100341796875 -95.50800323486328,45.52399826049805 -123.04399871826172,36.334999084472656 C-162.54400634765625,23.152999877929688 -197.5659942626953,46.67300033569336 -211.58900451660156,77.98500061035156 C-240.15899658203125,141.77699279785156 -169.80099487304688,235.18699645996094 -136.552001953125,241.20700073242188 C-122.06500244140625,243.8300018310547 -17.8439998626709,235.2050018310547 17.292999267578125,165.41600036621094 C32.78200149536133,134.6510009765625 34.50400161743164,82.11900329589844 -5.21999979019165,67.11100006103516 C-36.68199920654297,55.2239990234375 -47.66899871826172,73.06500244140625 -47.66899871826172,64.66799926757812 C-47.66899871826172,50.034000396728516 -34.77000045776367,49.66999816894531 -7.389999866485596,-2.5 C27.8700008392334,-69.69000244140625 27.229999542236328,-127.62999725341797 33.61000061035156,-121.83000183105469 C51.72999954223633,-105.33000183105469 90.00399780273438,-35.95500183105469 84.97100067138672,-3.440000057220459 C83.74600219726562,4.4730000495910645 71.45099639892578,-4.5960001945495605 58.95500183105469,-0.9150000214576721 C32.57099914550781,6.85699987411499 15.770999908447266,32.33100128173828 23.54199981689453,76.41600036621094 C33.15700149536133,130.96099853515625 127.95899963378906,185.16400146484375 164.45799255371094,175.77200317382812 C198.87399291992188,166.91600036621094 244.78399658203125,99.71199798583984 250.8179931640625,50.400001525878906 C256.4110107421875,4.689000129699707 224.54400634765625,-40.3380012512207 183.61199951171875,-36.31700134277344z M-24.874000549316406,94.67900085449219 C-14.461999893188477,93.5199966430664 -4.567999839782715,105.51899719238281 -2.7769999504089355,121.49199676513672 C-0.9869999885559082,137.45399475097656 -7.979000091552734,151.3470001220703 -18.389999389648438,152.51600646972656 C-28.81399917602539,153.68699645996094 -38.70899963378906,141.68600463867188 -40.499000549316406,125.71299743652344 C-42.28900146484375,109.73999786376953 -35.29899978637695,95.83999633789062 -24.874000549316406,94.67900085449219z M218.5050048828125,39.321998596191406 C216.50999450683594,60.1879997253418 204.10800170898438,76.0790023803711 190.79800415039062,74.80000305175781 C177.48699951171875,73.52100372314453 168.30599975585938,55.590999603271484 170.30099487304688,34.72600173950195 C172.29600524902344,13.869999885559082 184.6959991455078,-2.009999990463257 198.0070037841797,-0.7409999966621399 C211.3070068359375,0.5270000100135803 220.4980010986328,18.466999053955078 218.5050048828125,39.321998596191406z"></path></g></g></g></svg>