<svg xmlns="http://www.w3.org/2000/svg" xmlns:xlink="http://www.w3.org/1999/xlink" viewBox="0 0 512 512" width="512" height="512" style="width: 100%; height: 100%; transform: translate3d(0,0,0);" preserveAspectRatio="xMidYMid meet"><defs><clipPath id="__lottie_element_51830"><rect width="512" height="512" x="0" y="0"></rect></clipPath></defs><g clip-path="url(#__lottie_element_51830)"><g style="display: block;" transform="matrix(1,0,0,1,-1.399993896484375,7.2610015869140625)" opacity="1"><g opacity="1" transform="matrix(1,0,0,1,257.3999938964844,248.46600341796875)"><path fill="rgb(0,0,0)" fill-opacity="1" d=" M192,-3.7260000705718994 C189,-12.72599983215332 258,-39.72600173950195 210.17999267578125,-128.8459930419922 C169.1320037841797,-205.34500122070312 99.63300323486328,-177.34100341796875 87,-171.7259979248047 C78,-167.7259979248047 99,-240.7259979248047 -3,-245.21600341796875 C-86.91999816894531,-248.91000366210938 -92.56400299072266,-185.625 -91,-163.7259979248047 C-90,-149.7259979248047 -165.47500610351562,-201.67799377441406 -207,-135.7259979248047 C-258,-54.72600173950195 -193,-16.72599983215332 -183,-4.72599983215332 C-178.83900451660156,0.2669999897480011 -261.0950012207031,28.424999237060547 -224,114.27300262451172 C-189,195.2729949951172 -105,158.2729949951172 -94,155.2729949951172 C-82.3479995727539,152.09500122070312 -112,238.2729949951172 -2,243.2729949951172 C96.89800262451172,247.76800537109375 90,164.2729949951172 91,154.2729949951172 C92.28199768066406,141.44900512695312 154,206.2729949951172 215,121.27300262451172 C268.5450134277344,46.6609992980957 196,8.27400016784668 192,-3.7260000705718994z M123,-28.72599983215332 C116,37.27399826049805 29,106.27300262451172 4,106.27300262451172 C-33,106.27300262451172 -122,28.27400016784668 -122,-31.72599983215332 C-122,-76.72599792480469 -84.72000122070312,-93.4260025024414 -58,-93.72599792480469 C-21,-94.14600372314453 -8.710000038146973,-53.97600173950195 3,-53.72600173950195 C14.880000114440918,-53.47600173950195 21.93000030517578,-100.03600311279297 75,-94.72599792480469 C115,-90.72599792480469 125.95999908447266,-56.58599853515625 123,-28.72599983215332z"></path></g></g></g></svg>