<svg xmlns="http://www.w3.org/2000/svg" xmlns:xlink="http://www.w3.org/1999/xlink" viewBox="0 0 512 512" width="512" height="512" style="width: 100%; height: 100%; transform: translate3d(0,0,0);" preserveAspectRatio="xMidYMid meet"><defs><clipPath id="__lottie_element_52215"><rect width="512" height="512" x="0" y="0"></rect></clipPath></defs><g clip-path="url(#__lottie_element_52215)"><g style="display: block;" transform="matrix(1,0,0,1,256,256)" opacity="1"><g opacity="1" transform="matrix(1,0,0,1,0,0)"><path fill="rgb(0,0,0)" fill-opacity="1" d=" M5.861999988555908,86.94000244140625 C4.460999965667725,84.95700073242188 1.8990000486373901,84.16600036621094 -0.3790000081062317,85.00599670410156 C-58.400001525878906,106.39600372314453 -67.58200073242188,115.57599639892578 -91.05599975585938,105.66200256347656 C-130.593994140625,88.96399688720703 -166.93699645996094,-58.11600112915039 -151.86399841308594,-187.2729949951172 C-151.2469940185547,-192.55799865722656 -157.92999267578125,-195.4080047607422 -161.31100463867188,-191.3000030517578 C-215.18499755859375,-125.85099792480469 -241.63400268554688,-41.071998596191406 -242.5030059814453,23.867000579833984 C-242.6439971923828,34.39400100708008 -232.86199951171875,42.16699981689453 -222.6320037841797,39.68000030517578 C-205.50399780273438,35.516998291015625 -188.49000549316406,33.255001068115234 -172.6320037841797,32.882999420166016 C-163.57899475097656,32.66999816894531 -160.7270050048828,45.762001037597656 -170.80799865722656,48.77899932861328 C-185.15699768066406,53.073001861572266 -199.36399841308594,59.11800003051758 -212.90499877929688,66.60900115966797 C-226.7550048828125,74.27100372314453 -231.60899353027344,91.7229995727539 -223.71099853515625,105.44000244140625 C-174.3179931640625,191.22999572753906 -32.4109992980957,240.1490020751953 76.54199981689453,246.05499267578125 C82.16999816894531,246.36000061035156 86.34200286865234,240.8939971923828 84.56600189208984,235.5449981689453 C63.68199920654297,172.65499877929688 23.40999984741211,111.77799987792969 5.861999988555908,86.94000244140625z"></path></g><g opacity="1" transform="matrix(1,0,0,1,0,0)"><path fill="rgb(0,0,0)" fill-opacity="1" d=" M218.1179962158203,24.698999404907227 C156.21600341796875,34.917999267578125 93.80699920654297,52.733001708984375 41.65800094604492,70.2300033569336 C38.28300094604492,71.36199951171875 36.935001373291016,75.4020004272461 38.94599914550781,78.33899688720703 C57.98500061035156,106.15399932861328 89.38200378417969,156.26300048828125 109.79199981689453,210.92100524902344 C112.45500183105469,218.05299377441406 122.60299682617188,217.7310028076172 124.90799713134766,210.47500610351562 C142.13299560546875,156.2449951171875 189.36599731445312,81.99700164794922 225.64300537109375,37.64099884033203 C230.31300354003906,31.93000030517578 225.39700317382812,23.496999740600586 218.1179962158203,24.698999404907227z"></path></g><g opacity="1" transform="matrix(1,0,0,1,0,0)"><path fill="rgb(0,0,0)" fill-opacity="1" d=" M241.81300354003906,-18.66699981689453 C172.95899963378906,-127.3270034790039 -26.70599937438965,-243.3159942626953 -108.04000091552734,-242.01400756835938 C-108.04499816894531,-242.00999450683594 -108.0510025024414,-242.00599670410156 -108.05599975585938,-242.0019989013672 C-109.06800079345703,-241.25999450683594 -109.7760009765625,-240.16700744628906 -110.06800079345703,-238.9459991455078 C-143.4459991455078,-99.43499755859375 -106.8740005493164,18.47100067138672 -87.3740005493164,67.01000213623047 C-85.78800201416016,70.95899963378906 -82.83899688720703,74.28299713134766 -78.95899963378906,76.02999877929688 C-74.91899871826172,77.8489990234375 -70.41600036621094,77.92500305175781 -66.33100128173828,76.25199890136719 C-7.48799991607666,52.172000885009766 117.8270034790039,5.4070000648498535 237.9980010986328,-10.487000465393066 C241.875,-11 243.906005859375,-15.36299991607666 241.81300354003906,-18.66699981689453z M-42.111000061035156,-3.686000108718872 C-67.56500244140625,-50.36399841308594 -85.73799896240234,-128.7100067138672 -49,-143 C-30.458999633789062,-150.21200561523438 -10,-116 -11,-99 C65,-134 88.29100036621094,-98.84100341796875 90.33300018310547,-79.66699981689453 C95.03199768066406,-35.547000885009766 10.78600025177002,-9.03600025177002 -42.111000061035156,-3.686000108718872z"></path></g></g></g></svg>