<svg xmlns="http://www.w3.org/2000/svg" xmlns:xlink="http://www.w3.org/1999/xlink" viewBox="0 0 512 512" width="512" height="512" style="width: 100%; height: 100%; transform: translate3d(0,0,0);" preserveAspectRatio="xMidYMid meet"><defs><clipPath id="__lottie_element_51845"><rect width="512" height="512" x="0" y="0"></rect></clipPath></defs><g clip-path="url(#__lottie_element_51845)"><g style="display: block;" transform="matrix(1,0,0,1,262.6579895019531,258.0530090332031)" opacity="1"><g opacity="1" transform="matrix(1,0,0,1,0,0)"><path fill="rgb(0,0,0)" fill-opacity="1" d=" M68.01,151.19 C68.01,151.19 38.61,204.89 26.97,207.22 C13.1,210.02 -2.46,155.28 -2.46,155.28 C-2.46,155.28 24.35,106.4 24.35,106.4 C27.15,101.3 20.87,96.08 16.37,99.77 C2.97,110.74 -13.7,124.17 -24.02,131.63 C-29.44,135.54 -85.06,127.68 -86.36,117.76 C-87.96,105.55 -31.4,64.97 -31.4,64.97 C-31.4,64.97 -48.03,2.33 -32.35,-8.62 C-19.43,-17.65 29.77,26.86 29.77,26.86 C29.77,26.86 93.23,-10.73 103.49,-0.53 C117.78,13.68 95.13,76.91 95.13,76.91 C95.13,76.91 146.52,124.93 134.56,140.19 C122.59,155.46 68.01,151.19 68.01,151.19z M145.85,-86.54 C53.78,-165.78 -39.47,-70.49 -47.06,-31.66 C-85.51,-40.95 -209.35,5.55 -177.34,120.83 C-140.75,252.58 64.38,257.99 129.66,243.79 C129.66,243.79 129.67,243.8 129.67,243.8 C129.67,243.8 129.68,243.79 129.68,243.79 C129.69,243.79 129.69,243.77 129.7,243.77 C129.7,243.77 129.69,243.76 129.69,243.76 C169.81,190.34 249.5,2.65 145.85,-86.54z"></path><g opacity="1" transform="matrix(1,0,0,1,24.98699951171875,98.74800109863281)"></g><g opacity="1" transform="matrix(1,0,0,1,7.173999786376953,66.02799987792969)"></g></g><g opacity="1" transform="matrix(1,0,0,1,-106.18399810791016,-136.2570037841797)"><path fill="rgb(0,0,0)" fill-opacity="1" d=" M4.36299991607666,88.14600372314453 C-3.6619999408721924,89.63500213623047 -16.840999603271484,94.34400177001953 -31.9689998626709,111.6500015258789 C-33.680999755859375,113.60900115966797 -36.82400131225586,113.25199890136719 -38.04600143432617,110.95500183105469 C-45.21200180053711,97.48200225830078 -65.43699645996094,59.13100051879883 -77.48799896240234,33.01900100708008 C-106.1520004272461,-29.090999603271484 -85.78500366210938,-74.4280014038086 -40.33000183105469,-100.20500183105469 C-8.805000305175781,-118.08200073242188 49.487998962402344,-125.072998046875 82.01100158691406,-66.28700256347656 C82.01100158691406,-66.28700256347656 89.94599914550781,-49.553001403808594 89.94599914550781,-49.553001403808594 C91.58699798583984,-46.6510009765625 90.56600189208984,-42.96799850463867 87.66400146484375,-41.32699966430664 C87.66400146484375,-41.32699966430664 56.27399826049805,-23.54400062561035 56.27399826049805,-23.54400062561035 C53.37200164794922,-21.902999877929688 49.31700134277344,-23.708999633789062 47.67499923706055,-26.611000061035156 C25.9950008392334,-65.70600128173828 -1.350000023841858,-59.35499954223633 -15.156999588012695,-51.88600158691406 C-30.052000045776367,-43.82899856567383 -47.07400131225586,-28.650999069213867 -26.760000228881836,16.16900062561035 C-18.198999404907227,35.058998107910156 -0.5509999990463257,69.52300262451172 6.90500020980835,82.66400146484375 C8.163000106811523,84.88200378417969 6.869999885559082,87.68099975585938 4.36299991607666,88.14600372314453z"></path></g></g></g></svg>