<svg xmlns="http://www.w3.org/2000/svg" xmlns:xlink="http://www.w3.org/1999/xlink" viewBox="0 0 512 512" width="512" height="512" style="width: 100%; height: 100%; transform: translate3d(0,0,0);" preserveAspectRatio="xMidYMid meet"><defs><clipPath id="__lottie_element_15886"><rect width="512" height="512" x="0" y="0"></rect></clipPath></defs><g clip-path="url(#__lottie_element_15886)"><g style="display: block;" transform="matrix(1,0,0,1,51.850006103515625,7.2689971923828125)" opacity="1"><g opacity="1" transform="matrix(1,0,0,1,214.52999877929688,317.97100830078125)"><path fill="rgb(0,0,0)" fill-opacity="1" d=" M144.2899932861328,-112.91000366210938 C124.04000091552734,-112.98999786376953 116.80000305175781,-93.62000274658203 114.62000274658203,-100.23999786376953 C102.12000274658203,-138.24000549316406 50.119998931884766,-162.24000549316406 -32.31999969482422,-167.42999267578125 C-109.01000213623047,-172.25999450683594 -184.8800048828125,-156.24000549316406 -186.7100067138672,-124.91000366210938 C-187.88999938964844,-104.73999786376953 -115.87999725341797,-77.73999786376953 -47.88999938964844,-74.58999633789062 C19.260000228881836,-71.4800033569336 77.52999877929688,-81.7300033569336 79.62000274658203,-78.23999786376953 C82.62000274658203,-73.23999786376953 22.1200008392334,-51.779998779296875 -50.880001068115234,-54.7400016784668 C-179.1300048828125,-59.939998626708984 -203.3800048828125,-109.73999786376953 -208.0500030517578,-105.56999969482422 C-214.27999877929688,-100.01000213623047 -202,71.31999969482422 -194.3800048828125,97.43000030517578 C-185.3800048828125,128.25999450683594 -131.97000122070312,166.97000122070312 -56.709999084472656,169.08999633789062 C55.619998931884766,172.25999450683594 72.48999786376953,129.42999267578125 73.94999694824219,119.76000213623047 C75.62000274658203,108.76000213623047 99.36000061035156,138.94000244140625 118.62000274658203,139.08999633789062 C161.3000030517578,139.44000244140625 205.6199951171875,75.76000213623047 209.9499969482422,5.760000228881836 C214.27999877929688,-64.16000366210938 185.6199951171875,-112.73999786376953 144.2899932861328,-112.91000366210938z M-68.87999725341797,100.26000213623047 C-112.41999816894531,97.91999816894531 -166.49000549316406,11.390000343322754 -126.87999725341797,-14.739999771118164 C-88.37999725341797,-40.13999938964844 -68.94000244140625,-0.10000000149011612 -62.880001068115234,0.25999999046325684 C-58.970001220703125,0.49000000953674316 -27.8799991607666,-41.13999938964844 8.119999885559082,-6.239999771118164 C40.880001068115234,25.510000228881836 -22.3799991607666,102.76000213623047 -68.87999725341797,100.26000213623047z M117.62000274658203,83.26000213623047 C107.30000305175781,85.11000061035156 95.98999786376953,70.7300033569336 96.79000091552734,60.2400016784668 C98.0199966430664,44.25 106.0199966430664,-7.960000038146973 108.12000274658203,-19.239999771118164 C110.30000305175781,-30.950000762939453 127.12999725341797,-43.54999923706055 134.6199951171875,-40.7400016784668 C150.6199951171875,-34.7400016784668 142.77999877929688,78.76000213623047 117.62000274658203,83.26000213623047z"></path></g><g opacity="1" transform="matrix(1,0,0,1,101.21199798583984,72.74099731445312)"><path fill="rgb(0,0,0)" fill-opacity="1" d=" M-19.562000274658203,55.9900016784668 C-37.87799835205078,48.98699951171875 -50.43899917602539,37.858001708984375 -47.5620002746582,15.989999771118164 C-42.5620002746582,-22.010000228881836 13.526000022888184,-19.632999420166016 9.937999725341797,-55.5099983215332 C6.438000202178955,-90.51000213623047 52.479000091552734,-68.04000091552734 53.4379997253418,-45.5099983215332 C55.4379997253418,1.4900000095367432 10.937999725341797,1.4900000095367432 5.438000202178955,18.489999771118164 C0.6639999747276306,33.244998931884766 13.937999725341797,34.4900016784668 18.937999725341797,50.4900016784668 C23.208999633789062,64.15599822998047 -2.562000036239624,62.4900016784668 -19.562000274658203,55.9900016784668z"></path></g><g opacity="1" transform="matrix(1,0,0,1,205.4239959716797,88.10399627685547)"><path fill="rgb(0,0,0)" fill-opacity="1" d=" M-31.77400016784668,17.12700080871582 C-37.632999420166016,-28.767000198364258 2.2260000705718994,-6.873000144958496 -6.77400016784668,-45.37300109863281 C-13.038000106811523,-72.16899871826172 31.36199951171875,-54.856998443603516 32.71200180053711,-28.37299919128418 C34.72600173950195,11.126999855041504 2.2260000705718994,6.626999855041504 -0.04800000041723251,37.70100021362305 C-1.0119999647140503,50.880001068115234 -28.77400016784668,40.62699890136719 -31.77400016784668,17.12700080871582z"></path></g></g></g></svg>