<svg xmlns="http://www.w3.org/2000/svg" xmlns:xlink="http://www.w3.org/1999/xlink" viewBox="0 0 512 512" width="512" height="512" style="width: 100%; height: 100%; transform: translate3d(0,0,0);" preserveAspectRatio="xMidYMid meet"><defs><clipPath id="__lottie_element_15726"><rect width="512" height="512" x="0" y="0"></rect></clipPath></defs><g clip-path="url(#__lottie_element_15726)"><g style="display: block;" transform="matrix(1,0,0,1,-519.9450073242188,1791.7569580078125)" opacity="1"><g opacity="1" transform="matrix(1,0,0,1,689.9580078125,-1739.113037109375)"><path fill="rgb(0,0,0)" fill-opacity="1" d=" M-15.057999610900879,-34.084999084472656 C32.78499984741211,-51.0890007019043 60.48699951171875,-58.14400100708008 75.51899719238281,-21.101999282836914 C92.64299774169922,21.09600067138672 80.26100158691406,25.892000198364258 22.093000411987305,47.48699951171875 C-24.915000915527344,64.93900299072266 -52.51300048828125,90.35600280761719 -73.02999877929688,41.00400161743164 C-92.08699798583984,-4.835999965667725 -51.6870002746582,-21.06599998474121 -15.057999610900879,-34.084999084472656z"></path></g><g opacity="1" transform="matrix(1,0,0,1,775.9450073242188,-1487.9759521484375)"><path fill="rgb(0,0,0)" fill-opacity="1" d=" M146.60699462890625,-164.01400756835938 C27,-207.781005859375 -11.005000114440918,-94.11499786376953 -11.005000114440918,-94.11499786376953 C-11.005000114440918,-94.11499786376953 -14,-125.28099822998047 11.871999740600586,-165.6479949951172 C15.630999565124512,-171.51199340820312 -19.70800018310547,-250.0050048828125 -19.70800018310547,-250.0050048828125 C-19.70800018310547,-250.0050048828125 -22.937000274658203,-271.18798828125 -87.33000183105469,-246.5 C-146.0780029296875,-223.9759979248047 -138.8249969482422,-209.2760009765625 -138.8249969482422,-209.2760009765625 C-138.8249969482422,-209.2760009765625 -99.06700134277344,-109.20700073242188 -99.06700134277344,-109.20700073242188 C-99.06700134277344,-109.20700073242188 -184.06199645996094,-106.88700103759766 -207.27999877929688,-24.68199920654297 C-230.73599243164062,58.34299850463867 -145.36300659179688,200.4709930419922 78.86699676513672,205.4550018310547 C86.70899963378906,205.62899780273438 94.23300170898438,202.4250030517578 99.58200073242188,196.68899536132812 C224.94700622558594,62.25299835205078 253.16799926757812,-125.02100372314453 146.60699462890625,-164.01400756835938z M64.13200378417969,147.27200317382812 C3.997999906539917,161.2209930419922 -119.03800201416016,116.4260025024414 -123.46499633789062,70.9010009765625 C-126.0009994506836,44.827999114990234 -67.01699829101562,-0.13899999856948853 15.614999771118164,45.494998931884766 C99.06500244140625,91.58100128173828 143.89500427246094,9.753000259399414 157.3979949951172,21.989999771118164 C173,36.130001068115234 97.97799682617188,139.42100524902344 64.13200378417969,147.27200317382812z"></path></g></g></g></svg>