<svg xmlns="http://www.w3.org/2000/svg" xmlns:xlink="http://www.w3.org/1999/xlink" viewBox="0 0 512 512" width="512" height="512" style="width: 100%; height: 100%; transform: translate3d(0,0,0);" preserveAspectRatio="xMidYMid meet"><defs><clipPath id="__lottie_element_15721"><rect width="512" height="512" x="0" y="0"></rect></clipPath></defs><g clip-path="url(#__lottie_element_15721)"><g style="display: block;" transform="matrix(0.9848077297210693,-0.1736481785774231,0.1736481785774231,0.9848077297210693,264,268)" opacity="1"><g opacity="1" transform="matrix(1,0,0,1,0,0)"><path fill="rgb(0,0,0)" fill-opacity="1" d=" M252.6909942626953,-73.85800170898438 C251,22 202,69 183.72999572753906,82.72000122070312 C178.7550048828125,86.45600128173828 161.74200439453125,77.61599731445312 172.10899353027344,61.6510009765625 C180,49.5 189.5,39.75 185.80299377441406,31.533000946044922 C183.8679962158203,27.23200035095215 165.84800720214844,12.942000389099121 157.6199951171875,7.619999885559082 C150.4409942626953,4.460000038146973 149.59100341796875,13.354000091552734 149.5749969482422,18.375 C147.66600036621094,50.40999984741211 100.18900299072266,49.96500015258789 91.3499984741211,21.98900032043457 C85.61599731445312,6.565000057220459 95.18399810791016,-7.830999851226807 108.08899688720703,-11.656999588012695 C112.90899658203125,-13.446000099182129 127.5979995727539,-12.312000274658203 125.2959976196289,-20.204999923706055 C115.31900024414062,-34.12900161743164 109,-35.5 97.24600219726562,-51.32400131225586 C84.5,-66.5 67.83599853515625,-32.10900115966797 57.1609992980957,-23.93600082397461 C45.362998962402344,-7.7820000648498535 36,-15 30.159000396728516,-33.513999938964844 C23.141000747680664,-57.28799819946289 -18.5,-53.5 -19.420000076293945,-20.91200065612793 C-20,-0.5 -9.843000411987305,8.520999908447266 5.363999843597412,8.232000350952148 C17.77199935913086,9.699000358581543 18.718000411987305,22.023000717163086 10.664999961853027,28.711999893188477 C-39,72 -20.5,68 9.689000129699707,94.3270034790039 C24.365999221801758,99.91699981689453 9.848999977111816,66.65599822998047 36.709999084472656,59.566001892089844 C78.5,48 90.61699676513672,101.01599884033203 56.75299835205078,112.90299987792969 C38.71500015258789,115.75800323486328 37.41600036621094,121.37300109863281 51.75699996948242,132.70599365234375 C58.38999938964844,137.07200622558594 75.0719985961914,150.9010009765625 78.42400360107422,149.59500122070312 C91.5,144.5 97.35199737548828,135.35000610351562 107.48400115966797,128.93099975585938 C127.5,116.25 125.96600341796875,140.1510009765625 123.11399841308594,144.1840057373047 C111.94000244140625,159.98800659179688 77.48699951171875,199.29299926757812 24.538999557495117,227.86700439453125 C17.29199981689453,231.7779998779297 9.432999610900879,231.7530059814453 1.8519999980926514,228.52099609375 C-58,203 -254,124 -244.6909942626953,-73.71099853515625 C-240.8990020751953,-154.24600219726562 -185.9320068359375,-212.03900146484375 -123.07599639892578,-215.2480010986328 C-30,-220 -35,-155.85400390625 -23,-156.927001953125 C-11,-158 26,-240 139.16600036621094,-228.17799377441406 C200.48300170898438,-221.77200317382812 254.56300354003906,-179.9969940185547 252.6909942626953,-73.85800170898438z"></path></g></g></g></svg>