<svg xmlns="http://www.w3.org/2000/svg" xmlns:xlink="http://www.w3.org/1999/xlink" viewBox="0 0 512 512" width="512" height="512" style="width: 100%; height: 100%; transform: translate3d(0,0,0);" preserveAspectRatio="xMidYMid meet"><defs><clipPath id="__lottie_element_51850"><rect width="512" height="512" x="0" y="0"></rect></clipPath></defs><g clip-path="url(#__lottie_element_51850)"><g style="display: block;" transform="matrix(0.8998957872390747,-0.19127875566482544,0.19127875566482544,0.8998957872390747,224.29476928710938,1232.0621337890625)" opacity="1"><g opacity="1" transform="matrix(1,0,0,1,256.3500061035156,-974.8179931640625)"><path fill="rgb(0,0,0)" fill-opacity="1" d=" M201.64700317382812,-118.72699737548828 C201.64700317382812,-118.72699737548828 144.01499938964844,-118.72699737548828 144.01499938964844,-118.72699737548828 C141.75599670410156,-118.72699737548828 139.39599609375,-117.65499877929688 138.302001953125,-115.81999969482422 C119.95500183105469,-85.0510025024414 94.68699645996094,-55.900001525878906 94.68699645996094,-55.900001525878906 C66.84200286865234,-22.22100067138672 36.986000061035156,-36.19200134277344 50.119998931884766,-54.22100067138672 C50.119998931884766,-54.22100067138672 77.21199798583984,-87.03700256347656 87.61499786376953,-107.4990005493164 C89.51799774169922,-111.24199676513672 87.68000030517578,-118.72699737548828 81.9020004272461,-118.72699737548828 C81.9020004272461,-118.72699737548828 -27.041000366210938,-125.04499816894531 -31.954999923706055,-115.81999969482422 C-42.37099838256836,-96.26799774169922 -72.06999969482422,-59.900001525878906 -72.06999969482422,-59.900001525878906 C-103.63200378417969,-21.82200050354004 -130.01400756835938,-40.69200134277344 -115.64600372314453,-59.72100067138672 C-115.64600372314453,-59.72100067138672 -88.69100189208984,-90.77899932861328 -82.64399719238281,-107.4990005493164 C-81.21600341796875,-111.447998046875 -84.197998046875,-118.14199829101562 -88.35600280761719,-118.72699737548828 C-112.83399963378906,-122.16799926757812 -162.51300048828125,-115.72699737548828 -162.51300048828125,-115.72699737548828 C-162.51300048828125,-115.72699737548828 -134.5,-129.2760009765625 -83.25599670410156,-144.08299255371094 C-79.33200073242188,-145.2169952392578 -140.45399475097656,-185.2729949951172 -184.48500061035156,-200.31500244140625 C-188.77499389648438,-201.781005859375 -222.28700256347656,-187.54400634765625 -222.28700256347656,-187.54400634765625 C-227.75599670410156,-186.01199340820312 -237.6719970703125,-174.13099670410156 -230.25599670410156,-164.2469940185547 C-212.60899353027344,-140.72900390625 -200.89500427246094,-116.84400177001953 -200.66400146484375,-112.27300262451172 C-197.0989990234375,-41.689998626708984 -227.31199645996094,164.73699951171875 -214.9759979248047,176.26699829101562 C-201.60400390625,188.76600646972656 192.23500061035156,202.95700073242188 197.02200317382812,188.43299865722656 C219.3560028076172,120.66699981689453 221.0070037841797,-99.36699676513672 221.0070037841797,-99.36699676513672 C221.0070037841797,-110.05899810791016 212.33900451660156,-118.72699737548828 201.64700317382812,-118.72699737548828z M8.635000228881836,134.99600219726562 C-3.319999933242798,135.33700561523438 -72.11199951171875,106.51000213623047 -70.65599822998047,59.54600143432617 C-69.65599822998047,27.273000717163086 -51.465999603271484,15.946999549865723 -32.4739990234375,15.565999984741211 C4.046999931335449,14.833999633789062 3.632999897003174,41.42900085449219 9.795000076293945,41.34000015258789 C15.63700008392334,41.25600051879883 12.031999588012695,15.895000457763672 51.55099868774414,15.154000282287598 C71.25900268554688,14.784000396728516 88.54100036621094,35.84400177001953 88.16999816894531,61.500999450683594 C87.56999969482422,102.99199676513672 22.18199920654297,134.60899353027344 8.635000228881836,134.99600219726562z"></path></g><g opacity="1" transform="matrix(1,0,0,1,231.9250030517578,-1175.552001953125)"><path fill="rgb(0,0,0)" fill-opacity="1" d=" M-13.01099967956543,42.50400161743164 C-0.574999988079071,37.45800018310547 86.92500305175781,15.958000183105469 102.15399932861328,10.182000160217285 C105.66999816894531,8.847999572753906 50.47100067138672,-30.367000579833984 5.281000137329102,-47.847999572753906 C1.2139999866485596,-49.42100143432617 -118.5999984741211,-19.608999252319336 -109.65399932861328,-15.682000160217285 C-41.375999450683594,14.291000366210938 -18.138999938964844,44.584999084472656 -13.01099967956543,42.50400161743164z"></path></g><g opacity="1" transform="matrix(1,0,0,1,372.718994140625,-1225.3280029296875)"><path fill="rgb(0,0,0)" fill-opacity="1" d=" M78.9469985961914,32.724998474121094 C86.38099670410156,30.483999252319336 91.12200164794922,29.010000228881836 89.58999633789062,23.541000366210938 C89.58999633789062,23.541000366210938 78.13999938964844,-12.939000129699707 55.5,-39.56100082397461 C52.42399978637695,-43.178001403808594 47.78499984741211,-46.486000061035156 42.316001892089844,-44.95399856567383 C42.316001892089844,-44.95399856567383 -94.47799682617188,-13.869999885559082 -87.9739990234375,-11.37600040435791 C-27.902999877929688,11.661999702453613 5.7789998054504395,46.99100112915039 10.387999534606934,47.654998779296875 C17.881000518798828,48.73400115966797 78.9469985961914,32.724998474121094 78.9469985961914,32.724998474121094z"></path></g></g></g></svg>