<svg xmlns="http://www.w3.org/2000/svg" xmlns:xlink="http://www.w3.org/1999/xlink" viewBox="0 0 512 512" width="512" height="512" style="width: 100%; height: 100%; transform: translate3d(0,0,0);" preserveAspectRatio="xMidYMid meet"><defs><clipPath id="__lottie_element_52950"><rect width="512" height="512" x="0" y="0"></rect></clipPath></defs><g clip-path="url(#__lottie_element_52950)"><g style="display: block;" transform="matrix(1,0,0,1,256,256)" opacity="1"><g opacity="1" transform="matrix(1,0,0,1,0,0)"><path fill="rgb(0,0,0)" fill-opacity="1" d=" M-8.027999877929688,-11.102999687194824 C-7.230000019073486,-22.19700050354004 -25.261999130249023,-22.45599937438965 -33.37799835205078,-24.600000381469727 C-36.277000427246094,-30.656999588012695 -40.02899932861328,-36.8650016784668 -44.571998596191406,-44.1879997253418 C-44.571998596191406,-44.1879997253418 -44.571998596191406,-44.68199920654297 -44.571998596191406,-44.68199920654297 C-74.11799621582031,-97.23899841308594 -151.33700561523438,-114.53299713134766 -192.7259979248047,-69.69999694824219 C-227.81500244140625,-33.38999938964844 -226.85400390625,22.131999969482422 -208.69200134277344,69.05899810791016 C-209.35000610351562,69.8270034790039 -209.95399475097656,70.48500061035156 -210.5030059814453,71.03399658203125 C-211.60000610351562,71.14399719238281 -213.08200073242188,70.92500305175781 -214.947998046875,70.3759994506836 C-227.91000366210938,64.61199951171875 -238.47500610351562,66.15499877929688 -245.23699951171875,75.14900207519531 C-263.1860046386719,97.56999969482422 -215.85800170898438,150.43099975585938 -185.9759979248047,157.61599731445312 C-189.68499755859375,172.14199829101562 -205.88499450683594,191.0050048828125 -186.96299743652344,200.74200439453125 C-164.8679962158203,209.8280029296875 -159.3979949951172,180.3730010986328 -153.5469970703125,164.5290069580078 C-141.0780029296875,165.15199279785156 -127.96399688720703,163.88999938964844 -114.2040023803711,160.7429962158203 C-108.86399841308594,176.0850067138672 -115.18199920654297,202.46099853515625 -92.63899993896484,202.22300720214844 C-67.36000061035156,198.63600158691406 -79.83000183105469,167.5290069580078 -82.76300048828125,149.87899780273438 C-42.09299850463867,129.54800415039062 -24.614999771118164,78.95700073242188 -24.15999984741211,35.1510009765625 C-24.15999984741211,35.1510009765625 -23.9950008392334,35.314998626708984 -23.9950008392334,35.314998626708984 C-24.18899917602539,27.951000213623047 -24.31599998474121,16.173999786376953 -24.65399932861328,12.105999946594238 C-16.974000930786133,5.236999988555908 -10.048999786376953,-2.3570001125335693 -8.027999877929688,-11.102999687194824 M-134.28700256347656,-21.802000045776367 C-115.12300109863281,-57.20399856567383 -74.11399841308594,-18.097999572753906 -89.18399810791016,10.789999961853027 C-108.7490005493164,45.99399948120117 -148.58299255371094,7.59499979019165 -134.28700256347656,-21.802000045776367 M207.28700256347656,-34.64099884033203 C184.01800537109375,-146.21200561523438 49.63600158691406,-136.7259979248047 19.957000732421875,-32.500999450683594 C-13.305999755859375,-25.621999740600586 -9.034000396728516,-13.581999778747559 14.52400016784668,4.863999843597412 C14.413999557495117,5.302999973297119 14.579000473022461,8.375 15.017999649047852,14.081000328063965 C15.017999649047852,14.081000328063965 15.182999610900879,14.081000328063965 15.182999610900879,14.081000328063965 C17.68400001525879,61.70199966430664 37.38800048828125,115.23899841308594 81.35800170898438,137.53399658203125 C77.26000213623047,155.16700744628906 66.36199951171875,183.72500610351562 76.58200073242188,196.79100036621094 C82.30699920654297,203.68699645996094 93.1729965209961,203.95799255371094 99.79399871826172,198.10800170898438 C103.08599853515625,195.03599548339844 104.89800262451172,191.24899291992188 105.22699737548828,186.75 C106.02799987792969,174.5030059814453 108.552001953125,161.38999938964844 112.79900360107422,147.41000366210938 C123.91500091552734,149.22999572753906 134.5050048828125,149.9980010986328 144.56900024414062,149.71499633789062 C149.86900329589844,166.3489990234375 154.72500610351562,195.79100036621094 169.75399780273438,201.5659942626953 C178.21800231933594,204.7790069580078 187.6820068359375,199.552001953125 190.66099548339844,191.19500732421875 C191.97799682617188,186.9149932861328 191.593994140625,182.7449951171875 189.50900268554688,178.68499755859375 C184.56900024414062,168.64999389648438 180.50900268554688,157.29200744628906 177.3280029296875,144.61199951171875 C204.38499450683594,136.27699279785156 229.26199340820312,116.87200164794922 240.53900146484375,93.7490005493164 C250.97799682617188,71.16000366210938 256.93798828125,54.68000030517578 240.5399932861328,50.29399871826172 C226.89199829101562,47.42100143432617 213.37100219726562,67.91400146484375 203.33700561523438,47.00199890136719 C211.0189971923828,18.250999450683594 212.3350067138672,-8.963000297546387 207.28700256347656,-34.64099884033203 M120.04199981689453,-48.63199996948242 C139.33399963378906,-22.457000732421875 104.41500091552734,22.666000366210938 80.2040023803711,-9.621000289916992 C62.040000915527344,-36.69499969482422 95.38099670410156,-80.54900360107422 120.04199981689453,-48.63199996948242 M-25.312000274658203,-199.73800659179688 C-39.50600051879883,-214.55999755859375 -60.8849983215332,-215.927001953125 -77.16600036621094,-205.5 C-116.94499969482422,-173.8090057373047 -78.21199798583984,-117.2030029296875 -42.762001037597656,-95.052001953125 C-28.766000747680664,-86.58000183105469 -16.94499969482422,-78.572998046875 -1.2790000438690186,-83.85700225830078 C34.79899978637695,-98.26699829101562 71.2300033569336,-133.74000549316406 71.1520004272461,-172.7429962158203 C71.97699737548828,-197.177001953125 52.01300048828125,-213.8679962158203 29.010000228881836,-212.08399963378906 C11.918999671936035,-212.31700134277344 -7.7789998054504395,-192.4929962158203 -11.154999732971191,-177.18800354003906 C-12.800999641418457,-184.64999389648438 -17.520000457763672,-192.16600036621094 -25.312000274658203,-199.73800659179688z"></path></g></g></g></svg>