<svg xmlns="http://www.w3.org/2000/svg" xmlns:xlink="http://www.w3.org/1999/xlink" viewBox="0 0 512 512" width="512" height="512" style="width: 100%; height: 100%; transform: translate3d(0,0,0);" preserveAspectRatio="xMidYMid meet"><defs><clipPath id="__lottie_element_52776"><rect width="512" height="512" x="0" y="0"></rect></clipPath></defs><g clip-path="url(#__lottie_element_52776)"><g style="display: block;" transform="matrix(1,0,0,1,256,256)" opacity="1"><g opacity="1" transform="matrix(1,0,0,1,0,0)"><path fill="rgb(0,0,0)" fill-opacity="1" d=" M202.03500366210938,-129.6540069580078 C199.697998046875,-172.5290069580078 188.3159942626953,-195.59300231933594 167.88900756835938,-198.843994140625 C161.36700439453125,-200.54800415039062 154.61199951171875,-195.56199645996094 153.2550048828125,-188.93800354003906 C151.73199462890625,-182.31700134277344 155.98399353027344,-174.60800170898438 162.5540008544922,-173.08799743652344 C188.96099853515625,-151.1020050048828 176.1020050048828,-78.7249984741211 172.1580047607422,-31.202999114990234 C153.0189971923828,-64.84700012207031 105.08999633789062,-55.007999420166016 97.76699829101562,-17.944000244140625 C69.73100280761719,-27.670000076293945 41.86600112915039,-0.4020000100135803 45.327999114990234,28.233999252319336 C9.822999954223633,29.832000732421875 -4.915999889373779,79.8499984741211 19.413000106811523,103.82499694824219 C16.770999908447266,107.99099731445312 14.178999900817871,112.25700378417969 11.638999938964844,116.6259994506836 C11.638999938964844,116.6259994506836 -10.006999969482422,116.6259994506836 -10.006999969482422,116.6259994506836 C-12.54699993133545,112.25700378417969 -15.140000343322754,107.99099731445312 -17.781999588012695,103.82499694824219 C-17.680999755859375,103.82499694824219 -17.628999710083008,103.77400207519531 -17.628999710083008,103.6719970703125 C6.473999977111816,79.6050033569336 -8.237000465393066,30.10300064086914 -43.54399871826172,28.233999252319336 C-40.0620002746582,-0.5 -68.08000183105469,-27.691999435424805 -96.13500213623047,-17.944000244140625 C-103.43399810791016,-55.194000244140625 -152.04600524902344,-64.9219970703125 -170.67799377441406,-30.7450008392334 C-174.67599487304688,-78.93499755859375 -187.8280029296875,-150.39100646972656 -161.2310028076172,-173.08900451660156 C-157.9739990234375,-173.89999389648438 -155.4340057373047,-175.88099670410156 -153.60499572753906,-179.031005859375 C-147.61099243164062,-187.81300354003906 -155.94700622558594,-201.6320037841797 -166.56300354003906,-198.84300231933594 C-222.02699279785156,-179.8979949951172 -197.77499389648438,-64.0199966430664 -190.03799438476562,6.744999885559082 C-197.76199340820312,17.209999084472656 -204.01199340820312,29.910999298095703 -208.78799438476562,44.84600067138672 C-213.156005859375,43.694000244140625 -219.0330047607422,42.895999908447266 -223.57400512695312,41.64500045776367 C-264.385009765625,35.678001403808594 -255.1009979248047,97.5989990234375 -217.78199768066406,100.9280014038086 C-206.9929962158203,207.8159942626953 -82.59700012207031,226.1929931640625 -11.074000358581543,153.96499633789062 C-11.074000358581543,153.96499633789062 12.706000328063965,153.96499633789062 12.706000328063965,153.96499633789062 C84.12200164794922,226.3939971923828 209.03700256347656,207.60800170898438 219.26100158691406,100.47200012207031 C253.7220001220703,96.81199645996094 264.0880126953125,35.834999084472656 223.07200622558594,41.64400100708008 C219.29200744628906,42.694000244140625 213.95399475097656,43.55099868774414 210.26800537109375,44.38800048828125 C205.38999938964844,29.6560001373291 199.08900451660156,17.058000564575195 191.36500549316406,6.5929999351501465 C200.41000366210938,-51.92900085449219 203.9669952392578,-97.34500122070312 202.03500366210938,-129.6540069580078 M72.91999816894531,10.25 C79.2770004272461,3.009999990463257 90.46099853515625,2.558000087738037 97.61399841308594,8.878999710083008 C88.56999969482422,15.888999938964844 79.4229965209961,24.524999618530273 70.17500305175781,34.7869987487793 C65.86100006103516,27.301000595092773 67.01000213623047,16.511999130249023 72.91999816894531,10.25 M124.44400024414062,-21.9060001373291 C133.7760009765625,-32.84199905395508 151.8419952392578,-27.14299964904785 155.08399963378906,-13.675999641418457 C143.26400756835938,-14.244000434875488 130.38400268554688,-10.621999740600586 119.26100158691406,-4.989999771118164 C118.52899932861328,-11.215999603271484 120.33000183105469,-17.43199920654297 124.44400024414062,-21.9060001373291 M29.77899932861328,72.43000030517578 C29.135000228881836,59.54800033569336 42.26100158691406,48.31800079345703 54.4739990234375,53.53200149536133 C46.95399856567383,62.98099899291992 39.6879997253418,72.88800048828125 32.67599868774414,83.2509994506836 C30.743999481201172,80.10099792480469 29.77899932861328,76.49400329589844 29.77899932861328,72.43000030517578 M-134.5500030517578,-11.390000343322754 C-141.2570037841797,-13.218999862670898 -147.5070037841797,-13.980999946594238 -153.3000030517578,-13.675999641418457 C-146.55499267578125,-37.24700164794922 -114.36699676513672,-28.413000106811523 -117.62899780273438,-4.989999771118164 C-123.31999969482422,-7.732999801635742 -128.96099853515625,-9.866000175476074 -134.5500030517578,-11.390000343322754 M-71.13500213623047,10.25 C-65.16600036621094,16.59000015258789 -64.1240005493164,27.31800079345703 -68.39199829101562,34.93899917602539 C-68.39199829101562,34.93899917602539 -68.54399871826172,34.93899917602539 -68.54399871826172,34.93899917602539 C-77.69000244140625,24.677000045776367 -86.78600311279297,15.991000175476074 -95.83100128173828,8.878999710083008 C-88.85600280761719,2.5439999103546143 -77.4229965209961,3.0230000019073486 -71.13500213623047,10.25 M-33.483001708984375,58.104000091552734 C-27.35700035095215,64.5719985961914 -26.440000534057617,75.81500244140625 -31.04400062561035,83.40299987792969 C-38.15800094604492,72.93800354003906 -45.474998474121094,62.98099899291992 -52.994998931884766,53.53200149536133 C-46.290000915527344,50.89099884033203 -38.39400100708008,52.52399826049805 -33.483001708984375,58.104000091552734z"></path></g></g></g></svg>