<svg xmlns="http://www.w3.org/2000/svg" xmlns:xlink="http://www.w3.org/1999/xlink" viewBox="0 0 512 512" width="512" height="512" style="width: 100%; height: 100%; transform: translate3d(0,0,0);" preserveAspectRatio="xMidYMid meet"><defs><clipPath id="__lottie_element_52423"><rect width="512" height="512" x="0" y="0"></rect></clipPath></defs><g clip-path="url(#__lottie_element_52423)"><g style="display: block;" transform="matrix(1,0,0,1,256,256)" opacity="1"><g opacity="1" transform="matrix(1,0,0,1,0,0)"><path fill="rgb(0,0,0)" fill-opacity="1" d=" M-30.22800064086914,-209.88099670410156 C-77.81900024414062,-150.7469940185547 -71.66300201416016,-53.374000549316406 -34.00899887084961,12.652000427246094 C-34.00899887084961,12.652000427246094 -81.0989990234375,73.31099700927734 -81.0989990234375,73.31099700927734 C-104.01799774169922,55.39500045776367 -135.01400756835938,22.288000106811523 -161.531005859375,55.268001556396484 C-161.531005859375,55.268001556396484 -161.7030029296875,55.268001556396484 -161.7030029296875,55.268001556396484 C-189.7259979248047,97.0270004272461 -134.01100158691406,111.8290023803711 -131.28199768066406,128.98599243164062 C-132.88699340820312,137.57899475097656 -139.24600219726562,136.94900512695312 -150.36000061035156,127.09700012207031 C-150.36000061035156,127.09700012207031 -185.93499755859375,99.08699798583984 -185.93499755859375,99.08699798583984 C-209.9029998779297,79.33699798583984 -247.74899291992188,100.81900024414062 -242.9929962158203,131.3939971923828 C-241.84800720214844,141.01600646972656 -237.37899780273438,148.86300659179688 -229.58799743652344,154.93499755859375 C-229.58799743652344,154.93499755859375 -176.48300170898438,194.9739990234375 -176.48300170898438,194.9739990234375 C-206.96299743652344,228.05999755859375 -156.28399658203125,272.3710021972656 -127.84600067138672,237.76199340820312 C-127.84600067138672,237.76199340820312 19.09600067138672,49.59700012207031 19.09600067138672,49.59700012207031 C45.808998107910156,55.013999938964844 71.61900329589844,55.05699920654297 100.90299987792969,50.28499984741211 C100.90299987792969,50.28499984741211 100.73100280761719,50.28499984741211 100.73100280761719,50.28499984741211 C146.9149932861328,43.361000061035156 195.98699951171875,22.236000061035156 222.23699951171875,-12.95199966430664 C222.23699951171875,-12.95199966430664 222.23699951171875,-12.781000137329102 222.23699951171875,-12.781000137329102 C278.1510009765625,-76.68199920654297 224.6540069580078,-171.15699768066406 148.1649932861328,-177.5749969482422 C140.8780059814453,-197.35499572753906 128.93899536132812,-213.25599670410156 110.6989974975586,-227.5800018310547 C110.6989974975586,-227.5800018310547 110.87100219726562,-227.40899658203125 110.87100219726562,-227.40899658203125 C67.01799774169922,-261.66400146484375 5.447999954223633,-258.3290100097656 -30.22800064086914,-209.88099670410156 M25.798999786376953,-166.06199645996094 C25.798999786376953,-166.06199645996094 25.798999786376953,-166.06199645996094 25.798999786376953,-166.06199645996094 C44.46799850463867,-193.71200561523438 84.13899993896484,-169.3300018310547 83.02999877929688,-142.00399780273438 C82.14099884033203,-127.33000183105469 91.28399658203125,-112.8270034790039 104.85600280761719,-107.29299926757812 C116.73300170898438,-101.13600158691406 130.58900451660156,-107.93499755859375 142.4929962158203,-106.6050033569336 C142.4929962158203,-106.6050033569336 141.97799682617188,-106.6050033569336 141.97799682617188,-106.6050033569336 C192.50100708007812,-92.39900207519531 176.19500732421875,-51.50299835205078 135.61900329589844,-33.573001861572266 C106.14299774169922,-20.591999053955078 64.37000274658203,-12.019000053405762 33.18899917602539,-21.027999877929688 C-0.04100000113248825,-55.72600173950195 -1.4620000123977661,-128.4969940185547 25.798999786376953,-166.06199645996094z"></path></g></g></g></svg>