<svg xmlns="http://www.w3.org/2000/svg" xmlns:xlink="http://www.w3.org/1999/xlink" viewBox="0 0 512 512" width="512" height="512" style="width: 100%; height: 100%; transform: translate3d(0,0,0);" preserveAspectRatio="xMidYMid meet"><defs><clipPath id="__lottie_element_52160"><rect width="512" height="512" x="0" y="0"></rect></clipPath></defs><g clip-path="url(#__lottie_element_52160)"><g style="display: block;" transform="matrix(1,0,0,1,256,256)" opacity="1"><g opacity="1" transform="matrix(1,0,0,1,0,0)"><path fill="rgb(0,0,0)" fill-opacity="1" d=" M240.36199951171875,68.84200286865234 C213.96099853515625,-18.06100082397461 170.56399536132812,-131.93600463867188 102.47699737548828,-157.70199584960938 C91.66400146484375,-161.79400634765625 80.24800109863281,-153.32000732421875 80.90599822998047,-141.77699279785156 C82.50299835205078,-113.7760009765625 78.90899658203125,-87.02400207519531 70.85600280761719,-59.51300048828125 C68.1500015258789,-50.268001556396484 54.32099914550781,-52.8489990234375 55.12900161743164,-62.4379997253418 C55.12900161743164,-62.4379997253418 55.1349983215332,-62.48699951171875 55.1349983215332,-62.48699951171875 C60.840999603271484,-130.69500732421875 44.564998626708984,-191.84100341796875 -11.432999610900879,-236.23800659179688 C-49.65599822998047,-266.5419921875 -117.0979995727539,-229.04299926757812 -202.8179931640625,-182.79299926757812 C-225.3990020751953,-170.61000061035156 -227.1219940185547,-138.7169952392578 -205.8730010986328,-124.33599853515625 C-176.9250030517578,-104.74299621582031 -124.1520004272461,-82.41600036621094 -28.527000427246094,-70.30500030517578 C-11.434000015258789,-18.31599998474121 22.066999435424805,22.062000274658203 98.48200225830078,-7.577000141143799 C98.48200225830078,-7.577000141143799 103.88400268554688,56.034000396728516 189.82000732421875,108.15599822998047 C216.6959991455078,124.45700073242188 249.49899291992188,98.91799926757812 240.36199951171875,68.84200286865234z"></path></g><g opacity="1" transform="matrix(1,0,0,1,0,0)"><path fill="rgb(0,0,0)" fill-opacity="1" d=" M-27.173999786376953,71.34600067138672 C-47.75699996948242,-26.548999786376953 -89.68499755859375,-59.4370002746582 -145.7270050048828,-67.76000213623047 C-177.4149932861328,-72.46600341796875 -203.50799560546875,-42.926998138427734 -195.0229949951172,-12.03499984741211 C-175.9290008544922,57.48099899291992 -134.89199829101562,170.927001953125 -49.108001708984375,217.927001953125 C48.933998107910156,271.64300537109375 100.93299865722656,226.09800720214844 154.0189971923828,198.01699829101562 C178.00599670410156,185.32899475097656 185.20799255371094,154.35699462890625 169.21200561523438,132.43699645996094 C112.15799713134766,54.255001068115234 33.513999938964844,30.867000579833984 -27.173999786376953,71.34600067138672z"></path></g></g></g></svg>