<svg xmlns="http://www.w3.org/2000/svg" xmlns:xlink="http://www.w3.org/1999/xlink" viewBox="0 0 512 512" width="512" height="512" style="width: 100%; height: 100%; transform: translate3d(0,0,0);" preserveAspectRatio="xMidYMid meet"><defs><clipPath id="__lottie_element_51800"><rect width="512" height="512" x="0" y="0"></rect></clipPath></defs><g clip-path="url(#__lottie_element_51800)"><g style="display: block;" transform="matrix(1,0,0,1,256,256)" opacity="1"><g opacity="1" transform="matrix(1,0,0,1,0,0)"><path fill="rgb(0,0,0)" fill-opacity="1" d=" M57.75,146.1999969482422 C40.79199981689453,138.55099487304688 19.606000900268555,148.25599670410156 12.850000381469727,165.25 C-8.782999992370605,146.23899841308594 -49.80799865722656,166.57000732421875 -39.54899978637695,197.1009979248047 C-31.55900001525879,226.4759979248047 4.816999912261963,249.57899475097656 35.44900131225586,249.052001953125 C66.15899658203125,236.07000732421875 95.68000030517578,165.7689971923828 57.75,146.1999969482422 M-111,69.4000015258789 C-113.93299865722656,72.43299865722656 -116.48300170898438,76.21700286865234 -118.6500015258789,80.75 C-132.04200744628906,69.20500183105469 -155.17100524902344,72.13200378417969 -166.64999389648438,85.5 C-180.697998046875,102.78700256347656 -168.70399475097656,128.47900390625 -152.9499969482422,142.4499969482422 C-139.16099548339844,154.1199951171875 -115.45800018310547,167.61700439453125 -95.69999694824219,165.7010040283203 C-75.38999938964844,157.84100341796875 -61.20500183105469,128.93299865722656 -56.29899978637695,108.2509994506836 C-46.79999923706055,69.89199829101562 -79.94100189208984,42.97800064086914 -111,69.4000015258789 M130.3000030517578,77.69999694824219 C117.58799743652344,66.86399841308594 96.2040023803711,69.46499633789062 85.4000015258789,82.0999984741211 C71.35800170898438,98.9209976196289 84.71299743652344,124.4280014038086 100.3499984741211,137.10000610351562 C111.63099670410156,146.24899291992188 129.66400146484375,155.56100463867188 145.4499969482422,157.10000610351562 C161.197998046875,158.38299560546875 171.30799865722656,140.58700561523438 179.30099487304688,127.6510009765625 C214.0749969482422,61.391998291015625 152.44900512695312,34.8650016784668 130.3000030517578,77.69999694824219 M148.6999969482422,-114.5 C145.33299255371094,-115.03299713134766 141.91700744628906,-115.30000305175781 138.4499969482422,-115.30000305175781 C118.55500030517578,-215.35000610351562 -28.145000457763672,-188.97300720214844 -10.75,-87.6500015258789 C-23.363000869750977,-72.93399810791016 -29.885000228881836,-117.53600311279297 -27.349000930786133,-131.24899291992188 C-24.992000579833984,-173.3260040283203 13.180999755859375,-201.62100219726562 52.54999923706055,-203 C-8.300999641418457,-292.49798583984375 -153.54400634765625,-246.6280059814453 -150.6999969482422,-138.10000610351562 C-72.47599792480469,-117.88700103759766 -92.71700286865234,-3.368000030517578 -123.70099639892578,-40.5989990234375 C-127.5009994506836,-49.69200134277344 -119.56400299072266,-57.84299850463867 -120.9010009765625,-67.44999694824219 C-119.51000213623047,-105.48400115966797 -166.302001953125,-129.00900268554688 -196.4010009765625,-106.8489990234375 C-228.14300537109375,-75.36000061035156 -227.9340057373047,-19.634000778198242 -195.44900512695312,11.300000190734863 C-157.84500122070312,44.03099822998047 -145.5780029296875,34.84199905395508 -87.4010009765625,35.55099868774414 C-71.79499816894531,35.71099853515625 84.24700164794922,35.327999114990234 95.5009994506836,35.70000076293945 C145.0760040283203,35.22999954223633 158.875,42.71500015258789 191.00100708007812,13.901000022888184 C235.54400634765625,-27.250999450683594 208.82699584960938,-107.72599792480469 148.6999969482422,-114.5z"></path></g></g></g></svg>