<svg xmlns="http://www.w3.org/2000/svg" xmlns:xlink="http://www.w3.org/1999/xlink" viewBox="0 0 512 512" width="512" height="512" style="width: 100%; height: 100%; transform: translate3d(0,0,0);" preserveAspectRatio="xMidYMid meet"><defs><clipPath id="__lottie_element_52975"><rect width="512" height="512" x="0" y="0"></rect></clipPath></defs><g clip-path="url(#__lottie_element_52975)"><g style="display: block;" transform="matrix(1,0,0,1,256,256)" opacity="1"><g opacity="1" transform="matrix(1,0,0,1,0,0)"><path fill="rgb(0,0,0)" fill-opacity="1" d=" M-146.40699768066406,93.36100006103516 C-207.7949981689453,111.25800323486328 -215.46099853515625,120.9800033569336 -179.51199340820312,174.98399353027344 C-139.01199340820312,232.55799865722656 -91.5250015258789,226.70399475097656 -45.93199920654297,194.35400390625 C-45.93199920654297,194.35400390625 -45.766998291015625,194.52000427246094 -45.766998291015625,194.52000427246094 C-11.60099983215332,171.16700744628906 -34.073001861572266,151.61500549316406 -51.7239990234375,121.6719970703125 C-72.4729995727539,91.31600189208984 -110.14900207519531,83.4530029296875 -146.40699768066406,93.36100006103516 M88.97200012207031,57.10300064086914 C88.97200012207031,57.10300064086914 89.13700103759766,57.10300064086914 89.13700103759766,57.10300064086914 C73.90899658203125,59.641998291015625 61.54899978637695,73.10700225830078 52.058998107910156,97.5 C52.058998107910156,97.5 52.058998107910156,97.33399963378906 52.058998107910156,97.33399963378906 C45.106998443603516,114.88400268554688 39.36800003051758,129.3979949951172 34.84400177001953,140.8769989013672 C20.822999954223633,173.69500732421875 61.452999114990234,182.23300170898438 93.7699966430664,184.08900451660156 C136.1490020751953,187.24400329589844 166.82200622558594,166.7989959716797 183.48800659179688,124.48699951171875 C188.64300537109375,102.9800033569336 195.48500061035156,81.95800018310547 185.97300720214844,66.04299926757812 C166.81300354003906,51.48400115966797 109.7020034790039,51.255001068115234 88.97200012207031,57.10300064086914 M45.4379997253418,-12.600000381469727 C35.617000579833984,-16.131999969482422 22.319000244140625,-14.531000137329102 5.546000003814697,-7.797999858856201 C-34.137001037597656,9.423999786376953 -74.78700256347656,-13.437000274658203 -110.48699951171875,-24.025999069213867 C-114.947998046875,-23.413000106811523 -114.9489974975586,-18.114999771118164 -110.48799896240234,-8.128999710083008 C-96.59400177001953,21.408000946044922 -62.97700119018555,58.63399887084961 -24.7450008392334,62.400001525878906 C-27.229999542236328,151.9739990234375 -10.401000022888184,213.343994140625 25.740999221801758,246.5070037841797 C35.67499923706055,256.5669860839844 54.6879997253418,248.4409942626953 53.7140007019043,234.08900451660156 C53.604000091552734,229.45399475097656 51.89400100708008,225.59100341796875 48.58300018310547,222.5 C19.517000198364258,193.2220001220703 6.109000205993652,139.80099487304688 8.359999656677246,62.23500061035156 C51.875999450683594,63.50899887084961 140.69400024414062,-42.76599884033203 85.66100311279297,-18.562000274658203 C68.66699981689453,-11.053999900817871 55.25899887084961,-9.067999839782715 45.4379997253418,-12.600000381469727 M66.45999908447266,-245.5469970703125 C36.55500030517578,-251.39700317382812 12.387999534606934,-249.7969970703125 -6.040999889373779,-240.74600219726562 C-25.90399932861328,-229.3769989013672 -25.90399932861328,-219.38800048828125 -6.040999889373779,-210.7790069580078 C23.23699951171875,-202.46499633789062 79.13200378417969,-191.5240020751953 85.49500274658203,-155.81199645996094 C96.82099914550781,-124.62899780273438 56.17300033569336,-81.4229965209961 39.3120002746582,-63.59299850463867 C21.44099998474121,-45.266998291015625 25.55699920654297,-31.253000259399414 54.21099853515625,-29.819000244140625 C98.79399871826172,-27.198999404907227 147.10000610351562,-55.75299835205078 159.48599243164062,-99.68499755859375 C177.302001953125,-161.447998046875 139.52499389648438,-234.44400024414062 66.45999908447266,-245.5469970703125 M-36.16600036621094,-162.2689971923828 C-31.724000930786133,-167.4709930419922 -8.479999542236328,-177.36700439453125 -5.544000148773193,-163.0970001220703 C-4.085999965667725,-149.4499969482422 -27.695999145507812,-157.68899536132812 -25.242000579833984,-144.5540008544922 C-24.027999877929688,-137.04800415039062 -19.172000885009766,-131.80499267578125 -10.675000190734863,-128.8249969482422 C-10.675000190734863,-128.8249969482422 -10.840999603271484,-128.8249969482422 -10.840999603271484,-128.8249969482422 C-1.6820000410079956,-125.95500183105469 7.5879998207092285,-127.83100128173828 16.968000411987305,-134.45399475097656 C16.968000411987305,-134.45399475097656 16.968000411987305,-134.6199951171875 16.968000411987305,-134.6199951171875 C38.928001403808594,-160.66900634765625 42.624000549316406,-177.5 28.058000564575195,-185.11599731445312 C2.2149999141693115,-199.90699768066406 -40.79800033569336,-196.6219940185547 -60.66400146484375,-174.8509979248047 C-96.63899993896484,-135.81500244140625 -51.99599838256836,-96.86000061035156 -23.253999710083008,-68.56099700927734 C2.686000108718872,-40.18899917602539 53.46699905395508,-100.5 63.97800064086914,-118.89099884033203 C71.26100158691406,-132.2469940185547 72.197998046875,-143.5050048828125 66.79100036621094,-152.66600036621094 C59.507999420166016,-164.91799926757812 52.44599914550781,-163.20700073242188 45.604000091552734,-147.53399658203125 C42.845001220703125,-136.7169952392578 36.83000183105469,-127.99800109863281 27.56100082397461,-121.375 C27.56100082397461,-121.375 27.395999908447266,-121.375 27.395999908447266,-121.375 C3.131999969482422,-101.30000305175781 -38.75600051879883,-111.53199768066406 -42.457000732421875,-142.40199279785156 C-43.547000885009766,-150.91700744628906 -41.5260009765625,-157.61700439453125 -36.16600036621094,-162.2689971923828 M-92.11399841308594,-224.0240020751953 C-187.04800415039062,-184.27200317382812 -197.8040008544922,-77.17500305175781 -98.23799896240234,-37.93199920654297 C-66.38400268554688,-25.42099952697754 -33.099998474121094,-15.013999938964844 -0.24699999392032623,-20.21500015258789 C8.802000045776367,-21.871000289916992 13.767000198364258,-25.128000259399414 14.649999618530273,-29.983999252319336 C15.42199993133545,-34.84000015258789 8.968000411987305,-39.972999572753906 -4.716000080108643,-45.38100051879883 C-42.8650016784668,-62.034000396728516 -100.87200164794922,-93.1500015258789 -96.08799743652344,-142.23500061035156 C-96.87000274658203,-169.16099548339844 -46.95199966430664,-200.7899932861328 -43.77799987792969,-215.91000366210938 C-52.2130012512207,-234.677001953125 -60.959999084472656,-237.11500549316406 -92.11399841308594,-224.0240020751953z"></path></g></g></g></svg>