<svg xmlns="http://www.w3.org/2000/svg" xmlns:xlink="http://www.w3.org/1999/xlink" viewBox="0 0 512 512" width="512" height="512" style="width: 100%; height: 100%; transform: translate3d(0,0,0);" preserveAspectRatio="xMidYMid meet"><defs><clipPath id="__lottie_element_15881"><rect width="512" height="512" x="0" y="0"></rect></clipPath></defs><g clip-path="url(#__lottie_element_15881)"><g style="display: block;" transform="matrix(1,0,0,1,13.731002807617188,30.75)" opacity="1"><g opacity="1" transform="matrix(1,0,0,1,242.1790008544922,222.75)"><path fill="rgb(0,0,0)" fill-opacity="1" d=" M189.08999633789062,-131.5 C122.41999816894531,-207.92999267578125 21.809999465942383,-198.8300018310547 -21.690000534057617,-188.3300018310547 C-41.808998107910156,-183.47000122070312 -38,-151.6300048828125 -59.90999984741211,-121.5 C-81.11100006103516,-92.36000061035156 -113.72000122070312,-81.83999633789062 -116.91000366210938,-85.5 C-121.91999816894531,-91.23999786376953 -59.90999984741211,-123.5 -62.90999984741211,-175.5 C-64.69999694824219,-206.5500030517578 -86.41000366210938,-222.5 -117.91000366210938,-219.5 C-157.22999572753906,-215.75999450683594 -153.4409942626953,-184.13999938964844 -159.91000366210938,-184.5 C-165.84100341796875,-184.8300018310547 -164.41000366210938,-207.5 -195.91000366210938,-206.5 C-223.4010009765625,-205.6300048828125 -241.92999267578125,-186.5 -241.91000366210938,-154.5 C-241.86099243164062,-88.44999694824219 -162.781005859375,-83.63999938964844 -166.91000366210938,-76.5 C-172.41000366210938,-67 -190.5399932861328,-46.4900016784668 -191.91000366210938,14.5 C-194.41000366210938,126 -118.91000366210938,222.5 3.0899999141693115,222.5 C62.59000015258789,222.5 116.5,204.0590057373047 105.08999633789062,188.5 C88.58999633789062,166 84.18900299072266,133.5590057373047 99.08999633789062,114.5 C133.08999633789062,71 163.08999633789062,106 183.1199951171875,88.05899810791016 C205.52999877929688,67.9800033569336 216.58999633789062,81.5 225.08999633789062,57.5 C241.9290008544922,9.9399995803833 237.6699981689453,-75.80999755859375 189.08999633789062,-131.5z M-104.91000366210938,15.5 C-113.72000122070312,27.638999938964844 -128.281005859375,19.799999237060547 -127.91000366210938,9.5 C-124.91000366210938,-73 -16.40999984741211,-68 -6.909999847412109,-12.5 C-4.619999885559082,0.8999999761581421 -13.630000114440918,10.489999771118164 -28.40999984741211,-1 C-50.90999984741211,-18.5 -82.41000366210938,-15.489999771118164 -104.91000366210938,15.5z M80.08999633789062,71 C53.59000015258789,114.5 -30.40999984741211,122 -54.90999984741211,72.5 C-58.790000915527344,64.66000366210938 -48.040000915527344,54.290000915527344 -37.90999984741211,61 C-5.940999984741211,82.17900085449219 35.59000015258789,80 66.08999633789062,60.5 C75.88899993896484,54.2400016784668 84.51899719238281,63.72999954223633 80.08999633789062,71z M144.281005859375,2.700000047683716 C118.88999938964844,-25.979999542236328 91.62999725341797,-24.389999389648438 70.92900085449219,-4.800000190734863 C57.33000183105469,8.069999694824219 47.42900085449219,-0.6000000238418579 48.41999816894531,-14.15999984741211 C52.5,-70.31999969482422 155.6199951171875,-87.31999969482422 166.58999633789062,-5.5 C167.9600067138672,4.71999979019165 154.22000122070312,13.928999900817871 144.281005859375,2.700000047683716z"></path></g><g opacity="1" transform="matrix(1,0,0,1,418.2699890136719,378.1759948730469)"><path fill="rgb(0,0,0)" fill-opacity="1" d=" M-4,-32.926998138427734 C0.8790000081062317,-32.50199890136719 3.3489999771118164,-54.702999114990234 33,-54.926998138427734 C52.5,-55.07400131225586 66.9990005493164,-40.426998138427734 67,-13.927000045776367 C67.0009994506836,19.072999954223633 9,55.073001861572266 0,55.073001861572266 C-12,55.073001861572266 -66.9990005493164,27.073999404907227 -67,-6.927000045776367 C-67.0009994506836,-27.427000045776367 -58.17300033569336,-48.367000579833984 -33,-48.926998138427734 C-10.5,-49.426998138427734 -9.343000411987305,-33.391998291015625 -4,-32.926998138427734z"></path></g></g></g></svg>