<svg xmlns="http://www.w3.org/2000/svg" xmlns:xlink="http://www.w3.org/1999/xlink" viewBox="0 0 512 512" width="512" height="512" style="width: 100%; height: 100%; transform: translate3d(0,0,0);" preserveAspectRatio="xMidYMid meet"><defs><clipPath id="__lottie_element_53120"><rect width="512" height="512" x="0" y="0"></rect></clipPath></defs><g clip-path="url(#__lottie_element_53120)"><g style="display: block;" transform="matrix(1,0,0,1,0,0)" opacity="1"><g opacity="1" transform="matrix(1,0,0,1,0,0)"><g opacity="1" transform="matrix(1,0,0,1,256.50201416015625,259.2669982910156)"><g opacity="1" transform="matrix(1,0,0,1,0,0)"><path fill="rgb(0,0,0)" fill-opacity="1" d=" M-48.207000732421875,-125.47100067138672 C-63.49399948120117,-96.99299621582031 -130.1479949951172,-125.91400146484375 -119.79299926757812,-156.52999877929688 C-104.50599670410156,-185.00799560546875 -37.85200119018555,-156.08599853515625 -48.207000732421875,-125.47100067138672z M187.781005859375,-118.31900024414062 C168.4969940185547,-82.09300231933594 85.14800262451172,-119.16899871826172 98.21900177001953,-157.68099975585938 C117.50299835205078,-193.906005859375 200.8520050048828,-156.8300018310547 187.781005859375,-118.31900024414062z M205.1479949951172,-184.36700439453125 C144.79200744628906,-233.59800720214844 45.625999450683594,-218.57899475097656 -0.5019999742507935,-156.16700744628906 C-28.139999389648438,-195.27000427246094 -71.73500061035156,-213.58799743652344 -120.6520004272461,-213.41600036621094 C-274.4729919433594,-212.0240020751953 -277.84100341796875,-33.70899963378906 -199.4969940185547,67.08399963378906 C-157.36199951171875,124.76899719238281 -76.4520034790039,201.6510009765625 0.296999990940094,213.68600463867188 C53.57099914550781,210.95399475097656 113.41000366210938,161.54299926757812 154.3489990234375,118.38500213623047 C228.96600341796875,41.310001373291016 298.1159973144531,-103.55999755859375 205.1479949951172,-184.36700439453125z"></path></g></g></g></g></g></svg>