<svg xmlns="http://www.w3.org/2000/svg" xmlns:xlink="http://www.w3.org/1999/xlink" viewBox="0 0 512 512" width="512" height="512" style="width: 100%; height: 100%; transform: translate3d(0,0,0);" preserveAspectRatio="xMidYMid meet"><defs><clipPath id="__lottie_element_27234"><rect width="512" height="512" x="0" y="0"></rect></clipPath></defs><g clip-path="url(#__lottie_element_27234)"><g style="display: block;" transform="matrix(1,0,0,1,0,0)" opacity="1"><g opacity="1" transform="matrix(1,0,0,1,256,255.7949981689453)"><path fill="rgb(65,63,63)" fill-opacity="1" d=" M243.13400268554688,-68.5469970703125 C243.41299438476562,-81.60299682617188 246.34800720214844,-113.18199920654297 237.03599548339844,-122.8499984741211 C231.9320068359375,-128.1490020751953 211.5570068359375,-129.875 203.91900634765625,-130.3560028076172 C161.20399475097656,-133.04800415039062 117.45899963378906,-124.61599731445312 74.78500366210938,-122.04399871826172 C59.23099899291992,-130.43899536132812 45.70000076293945,-151.6490020751953 26.583999633789062,-152.51300048828125 C-4.756999969482422,-153.9290008544922 -81.68399810791016,-146.2760009765625 -110.23999786376953,-134.94500732421875 C-126.45700073242188,-128.50999450683594 -165.14500427246094,-103.33499908447266 -175.01699829101562,-89.3740005493164 C-188.66200256347656,-70.0770034790039 -193.96299743652344,-41.80799865722656 -204.30799865722656,-20.523000717163086 C-215.00399780273438,-10.154000282287598 -225.2760009765625,-7.800000190734863 -237.5959930419922,0.3630000054836273 C-243.13800048828125,4.034999847412109 -250.75999450683594,7.828000068664551 -250.94200134277344,15.159000396728516 C-251.1510009765625,23.58099937438965 -245.802001953125,51.86399841308594 -246.07699584960938,55.39799880981445 C-246.43899536132812,60.0369987487793 -253.94200134277344,60.92499923706055 -255.53599548339844,66.22000122070312 C-257.6090087890625,73.1050033569336 -252.3719940185547,86.41200256347656 -246.95700073242188,90.75700378417969 C-240.42599487304688,95.99800109863281 -229.78599548339844,90.56099700927734 -222.9709930419922,88.10900115966797 C-219.26499938964844,86.7760009765625 -208.41200256347656,84.26300048828125 -207.38800048828125,81.50199890136719 C-206.156005859375,78.18099975585938 -208.20399475097656,70.69499969482422 -208.0760040283203,66.43299865722656 C-207.1719970703125,36.2239990234375 -183.27000427246094,14.847000122070312 -166.80099487304688,49.4900016784668 C-183.5570068359375,37.63399887084961 -195.6529998779297,42.513999938964844 -199.21299743652344,62.409000396728516 C-203.66900634765625,87.31600189208984 -197.3800048828125,114.69400024414062 -184.64700317382812,136.34800720214844 C-181.281005859375,142.07200622558594 -176.21600341796875,148.78500366210938 -170.65699768066406,152.16000366210938 C-164.49000549316406,153.9290008544922 -143.33200073242188,153.5189971923828 -135.28399658203125,147.93099975585938 C-125.60199737548828,141.20899963378906 -126.16300201416016,109.66000366210938 -126.16300201416016,109.66000366210938 C-118.02300262451172,107.30699920654297 -103.83300018310547,95.88600158691406 -95.88899993896484,98.11799621582031 C-91.75,99.28099822998047 -87.99400329589844,103.25599670410156 -82.55699920654297,104.51000213623047 C-66.70999908447266,108.16799926757812 -50.50699996948242,102.58699798583984 -42.34600067138672,88.56600189208984 C-49.303001403808594,76.7969970703125 -53.779998779296875,63.797000885009766 -58.17499923706055,50.915000915527344 C-64.49600219726562,50.709999084472656 -70.38099670410156,53.560001373291016 -75.98600006103516,56.09700012207031 C-95.18000030517578,64.78299713134766 -113.8290023803711,77.72599792480469 -133.48199462890625,85.96700286865234 C-133.48199462890625,85.96700286865234 -140.99200439453125,66.3280029296875 -140.99200439453125,66.3280029296875 C-139.531005859375,63.45100021362305 -108.40799713134766,52.9119987487793 -103.08300018310547,51.17900085449219 C-97.31400299072266,49.301998138427734 -65.09600067138672,40.89899826049805 -63.67900085449219,39.402000427246094 C-60.65700149536133,36.20899963378906 -58.65999984741211,2.0209999084472656 -57.06800079345703,-5.8429999351501465 C-54.40999984741211,-18.96299934387207 -49.80400085449219,-32.24399948120117 -37.749000549316406,-39.49100112915039 C-4.546999931335449,-59.45000076293945 7.3420000076293945,-36.25899887084961 19.02400016784668,-8.914999961853027 C21.270999908447266,-3.6540000438690186 24.115999221801758,1.0980000495910645 23.865999221801758,7.063000202178955 C17.863000869750977,8.852999687194824 14.711999893188477,4.3429999351501465 11.696000099182129,-0.10400000214576721 C2.8970000743865967,-13.074999809265137 -2.3420000076293945,-39.45399856567383 -23.447999954223633,-34.85100173950195 C-51.4109992980957,-28.753999710083008 -53.757999420166016,14.562000274658203 -50.279998779296875,37.05500030517578 C-45.65299987792969,66.98100280761719 -22.614999771118164,119.11299896240234 15.890999794006348,104.49800109863281 C33.67300033569336,97.74800109863281 31.167999267578125,87.33799743652344 37.290000915527344,73.61299896240234 C40.849998474121094,65.62999725341797 52.308998107910156,64.96900177001953 59.81800079345703,61.27199935913086 C80.98999786376953,50.845001220703125 102.86599731445312,29.371999740600586 123.54900360107422,16.902000427246094 C125.98300170898438,15.434000015258789 128.78599548339844,14.381999969482422 131.27099609375,12.970000267028809 C140.6790008544922,32.513999938964844 155.52499389648438,60.992000579833984 180.88400268554688,60.48500061035156 C215.94000244140625,59.784000396728516 225.322998046875,18.288000106811523 218.04100036621094,-9.664999961853027 C237.54299926757812,-13.947999954223633 249.60499572753906,-18.423999786376953 254.072998046875,-39.26300048828125 C256.3240051269531,-49.7599983215332 259.8059997558594,-71.1709976196289 243.13400268554688,-68.5469970703125z M-11.043999671936035,67.08499908447266 C-28.009000778198242,61.882999420166016 -37.89099884033203,5.370999813079834 -22.437999725341797,-0.8960000276565552 C-8.069000244140625,-6.7230000495910645 2.2130000591278076,24.36400032043457 3.7960000038146973,34.305999755859375 C5.435999870300293,44.611000061035156 5.868000030517578,72.27100372314453 -11.043999671936035,67.08499908447266z M201.718994140625,-109.7030029296875 C223.36500549316406,-116.27200317382812 233.32699584960938,-79.93399810791016 213.5290069580078,-73.98300170898438 C191.33999633789062,-67.31199645996094 182.08599853515625,-103.74600219726562 201.718994140625,-109.7030029296875z M99.63099670410156,-88.9219970703125 C116.72000122070312,-93.81800079345703 142.79800415039062,-99.40599822998047 160.35899353027344,-101.61699676513672 C164.85499572753906,-102.18199920654297 170.7779998779297,-103.33499908447266 174.89700317382812,-101.68599700927734 C178.46400451660156,-100.25900268554688 181.36599731445312,-95.74700164794922 178.46499633789062,-92.25700378417969 C177.677001953125,-91.30899810791016 176.0500030517578,-90.98799896240234 174.875,-90.6259994506836 C149.72799682617188,-87.69499969482422 124.16400146484375,-79.28500366210938 99.37899780273438,-75.66999816894531 C95.39700317382812,-75.08899688720703 82.0979995727539,-72.43000030517578 81.61299896240234,-77.98200225830078 C83.84500122070312,-85.1969985961914 93.09700012207031,-87.0510025024414 99.63099670410156,-88.9219970703125z M83.43000030517578,-54.7599983215332 C87.76599884033203,-57.77199935913086 114.93900299072266,-63.57400131225586 121.99500274658203,-65.15799713134766 C135.52000427246094,-68.19499969482422 150.75100708007812,-71.43099975585938 164.40899658203125,-73.39900207519531 C175.97500610351562,-75.06500244140625 197.39199829101562,-78.48999786376953 177.2969970703125,-63.72200012207031 C177.2969970703125,-63.72200012207031 88.61000061035156,-45.159000396728516 88.61000061035156,-45.159000396728516 C82.79900360107422,-43.935001373291016 78.15299987792969,-51.09600067138672 83.43000030517578,-54.7599983215332z M62.99300003051758,-74.23899841308594 C71.91100311279297,-61.972999572753906 67.8010025024414,-34.930999755859375 48.222999572753906,-37.803001403808594 C26.569000244140625,-40.97999954223633 24.260000228881836,-76.50700378417969 43.70000076293945,-81.60399627685547 C50.422000885009766,-83.36599731445312 58.97100067138672,-79.77200317382812 62.99300003051758,-74.23899841308594z M-165.17599487304688,127.87100219726562 C-176.54299926757812,121.99600219726562 -183.843994140625,96.6520004272461 -183.58999633789062,84.70999908447266 C-183.4029998779297,75.90299987792969 -181.0399932861328,64.7699966430664 -170.68499755859375,72.85800170898438 C-164.05299377441406,78.03900146484375 -157.7429962158203,94.09100341796875 -156.29299926757812,102.25399780273438 C-155.08900451660156,109.0270004272461 -151.9149932861328,134.7239990234375 -165.17599487304688,127.87100219726562z M-88.53900146484375,-70.3949966430664 C-90.77899932861328,-66.25800323486328 -176.35800170898438,-29.92300033569336 -176.35800170898438,-29.92300033569336 C-177.25399780273438,-30.597000122070312 -169.65899658203125,-48.744998931884766 -168.71299743652344,-50.999000549316406 C-165.5449981689453,-58.55400085449219 -158.0500030517578,-78.04000091552734 -153.08200073242188,-83.37100219726562 C-145.6529998779297,-91.34400177001953 -120.36599731445312,-105.71800231933594 -116.44999694824219,-108.00700378417969 C-112.5530014038086,-110.28500366210938 -106.91799926757812,-114.12100219726562 -102.5260009765625,-113.0989990234375 C-101.11499786376953,-112.3290023803711 -92.47100067138672,-86.81800079345703 -91.30599975585938,-82.99400329589844 C-90.38600158691406,-79.9739990234375 -87.29000091552734,-72.70099639892578 -88.53900146484375,-70.3949966430664z M-61.58399963378906,-80.03399658203125 C-62.9109992980957,-79.947998046875 -63.70000076293945,-80.6760025024414 -64.65599822998047,-81.4209976196289 C-67.8010025024414,-83.87000274658203 -82.63700103759766,-114.1709976196289 -82.7249984741211,-118.26899719238281 C-82.75299835205078,-119.61000061035156 -82.42400360107422,-120.5739974975586 -81.072998046875,-121.06300354003906 C-71.10900115966797,-122.93699645996094 -61.24599838256836,-125.50900268554688 -51.28200149536133,-127.36499786376953 C-31.38599967956543,-131.0709991455078 3.0450000762939453,-137.18699645996094 22.44300079345703,-136.3249969482422 C29.67799949645996,-136.0030059814453 36.45000076293945,-131.6269989013672 41.426998138427734,-126.7699966430664 C42.50299835205078,-125.72000122070312 51.86199951171875,-114.90699768066406 51.15599822998047,-114.19599914550781 C51.15599822998047,-114.19599914550781 -61.58399963378906,-80.03399658203125 -61.58399963378906,-80.03399658203125z M58.619998931884766,28.139999389648438 C52.64699935913086,32.948001861572266 45.97200012207031,36.83700180053711 40.060001373291016,41.724998474121094 C37.56999969482422,41.81999969482422 37.40599822998047,31.989999771118164 37.40399932861328,29.70400047302246 C39.26100158691406,29.43199920654297 43.21900177001953,26.76099967956543 44.334999084472656,26.659000396728516 C44.334999084472656,26.659000396728516 60.5989990234375,25.160999298095703 60.5989990234375,25.160999298095703 C61.5369987487793,28.167999267578125 59.840999603271484,27.156999588012695 58.619998931884766,28.139999389648438z M233.04299926757812,-36.03099822998047 C203.4239959716797,-28.604000091552734 173.16600036621094,-23.95599937438965 143.36300659179688,-17.3700008392334 C113.36100006103516,-10.739999771118164 78.80400085449219,0.5920000076293945 49.095001220703125,4.7179999351501465 C43.8129997253418,5.451000213623047 38.018001556396484,7.039999961853027 35.95800018310547,0.6140000224113464 C30.847000122070312,-15.335000038146973 42.03900146484375,-15.07699966430664 54.233001708984375,-18.961000442504883 C100.0510025024414,-33.553001403808594 157.0919952392578,-45.9370002746582 204.8179931640625,-52.24100112915039 C210.1179962158203,-52.941001892089844 231.9810028076172,-56.165000915527344 235.36599731445312,-54.84000015258789 C240.75599670410156,-52.72999954223633 239.58399963378906,-37.40399932861328 233.04299926757812,-36.03099822998047z"></path></g></g></g></svg>