<svg xmlns="http://www.w3.org/2000/svg" xmlns:xlink="http://www.w3.org/1999/xlink" viewBox="0 0 512 512" width="512" height="512" style="width: 100%; height: 100%; transform: translate3d(0,0,0);" preserveAspectRatio="xMidYMid meet"><defs><clipPath id="__lottie_element_52965"><rect width="512" height="512" x="0" y="0"></rect></clipPath></defs><g clip-path="url(#__lottie_element_52965)"><g style="display: block;" transform="matrix(1,0,0,1,-2712.007080078125,-1878.7608642578125)" opacity="1"><g opacity="1" transform="matrix(1,0,0,1,0,0)"><g opacity="1" transform="matrix(1,0,0,1,2968.27294921875,2112.18798828125)"><path fill="rgb(0,0,0)" fill-opacity="1" d=" M111.7770004272461,175.89500427246094 C106.4219970703125,174.35800170898438 103.60900115966797,167.8209991455078 101.63800048828125,162.7969970703125 C95.04100036621094,145.42300415039062 88.8030014038086,127.8740005493164 85.52200317382812,109.5530014038086 C83.09700012207031,96.19100189208984 82.65399932861328,82.4739990234375 81.5530014038086,69.01000213623047 C81.03800201416016,61.5989990234375 80.13800048828125,54.084999084472656 80.54199981689453,46.66299819946289 C80.60600280761719,28.361000061035156 97.81199645996094,19.749000549316406 110.40299987792969,9.807000160217285 C123.90699768066406,-0.5910000205039978 138.12100219726562,-9.947999954223633 152.25,-19.445999145507812 C154.93499755859375,-21.315000534057617 157.52699279785156,-23.176000595092773 159.55999755859375,-25.658000946044922 C165.48199462890625,-33.63800048828125 148.71200561523438,-31.392000198364258 144.66099548339844,-31.163000106811523 C120.14800262451172,-28.98200035095215 95.50599670410156,-28.81100082397461 70.98100280761719,-27.204999923706055 C63.15299987792969,-26.56100082397461 53.020999908447266,-25.857999801635742 49.09700012207031,-18.113000869750977 C46.82600021362305,-13.847999572753906 46.90299987792969,-8.041999816894531 47.05500030517578,-3.061000108718872 C47.37300109863281,5.255000114440918 47.77299880981445,13.62399959564209 48.141998291015625,21.947999954223633 C49.50899887084961,49.44300079345703 50.74100112915039,77.11799621582031 56.12699890136719,104.16899871826172 C59.48400115966797,121.21600341796875 64.1719970703125,137.96299743652344 69.68499755859375,154.44000244140625 C77.91899871826172,178.7519989013672 90.14099884033203,206.29200744628906 50.053001403808594,196.38299560546875 C37.11199951171875,192.77499389648438 13.99899959564209,187.1179962158203 18.716999053955078,169.69500732421875 C20.816999435424805,162.06399536132812 26.073999404907227,155.23699951171875 29.336000442504883,148.09500122070312 C34.66299819946289,137.43699645996094 31.80900001525879,131.54600524902344 20.57200050354004,129.17300415039062 C10.934000015258789,127.11199951171875 0.8989999890327454,127.11499786376953 -8.805999755859375,127.7300033569336 C-17.944000244140625,128.21099853515625 -32.37099838256836,131.00599670410156 -28.506000518798828,143.49400329589844 C-26.599000930786133,149.8300018310547 -21.32900047302246,156.95899963378906 -18.44499969482422,163.20700073242188 C-10.291000366210938,178.95399475097656 -17.974000930786133,185.656005859375 -33.95899963378906,191.93299865722656 C-47.55099868774414,197.23500061035156 -78.96299743652344,207.34500122070312 -75.64399719238281,182.29600524902344 C-73.4540023803711,170.03399658203125 -68.2030029296875,158.2259979248047 -64.81099700927734,146.20899963378906 C-59.71500015258789,129.3300018310547 -55.26300048828125,112.21499633789062 -52.12799835205078,94.8550033569336 C-46.32699966430664,60.119998931884766 -44.7599983215332,24.58300018310547 -44.45199966430664,-10.593999862670898 C-45.2760009765625,-25.680999755859375 -59.7859992980957,-26.55299949645996 -71.64399719238281,-27.5049991607666 C-89.59300231933594,-28.996999740600586 -107.6719970703125,-28.299999237060547 -125.63400268554688,-29.85300064086914 C-133.27699279785156,-29.898000717163086 -154.17799377441406,-34.650001525878906 -158.60000610351562,-29.69300079345703 C-160.0749969482422,-26.9689998626709 -155.8560028076172,-23.954999923706055 -153.39500427246094,-22.11400032043457 C-134.27999877929688,-10.392999649047852 -116.80000305175781,3.684000015258789 -98.802001953125,17.020999908447266 C-83.2030029296875,27.69499969482422 -77.677001953125,35.10300064086914 -78.46499633789062,54.457000732421875 C-78.77100372314453,82.88999938964844 -81.10299682617188,111.48300170898438 -90.51799774169922,138.52499389648438 C-93.38200378417969,147.09500122070312 -96.33399963378906,155.61599731445312 -99.59600067138672,164.0469970703125 C-105.76899719238281,180.71499633789062 -116.01000213623047,177.88400268554688 -127.56500244140625,167.5959930419922 C-157.2530059814453,140.96299743652344 -184.1649932861328,111.43699645996094 -210.63699340820312,81.65299987792969 C-215.84800720214844,75.94100189208984 -221.1529998779297,70.52300262451172 -226.63900756835938,64.77100372314453 C-232.56900024414062,58.417999267578125 -239.9040069580078,50.994998931884766 -237.16000366210938,41.74700164794922 C-235.26600646972656,35.14699935913086 -231.0229949951172,28.937000274658203 -227.5019989013672,23.01099967956543 C-217.5970001220703,6.8420000076293945 -207.78199768066406,-9.37399959564209 -196.02200317382812,-24.302000045776367 C-192.11500549316406,-29.253999710083008 -188.3070068359375,-34.400001525878906 -185.7779998779297,-40.183998107910156 C-182.69900512695312,-46.9630012512207 -180.82699584960938,-54.29899978637695 -176.9770050048828,-60.77899932861328 C-174.27499389648438,-65.40599822998047 -170.94200134277344,-69.68399810791016 -167.67599487304688,-73.94000244140625 C-143.1929931640625,-105.44400024414062 -118.91799926757812,-137.24200439453125 -89.48899841308594,-164.4010009765625 C-78,-174.4969940185547 -66.8270034790039,-184.71299743652344 -55.64099884033203,-195.0570068359375 C-45.98500061035156,-203.86599731445312 -33.04100036621094,-207.3459930419922 -20.170000076293945,-207.1999969482422 C-5.813000202178955,-207.28599548339844 8.472000122070312,-206.8470001220703 22.816999435424805,-206.64199829101562 C43.04899978637695,-206.73800659179688 52.76300048828125,-201.07699584960938 66.9209976196289,-187.18099975585938 C87.91899871826172,-166.9510040283203 110.13400268554688,-147.87600708007812 129.21200561523438,-125.77899932861328 C143.13400268554688,-109.2040023803711 156.20799255371094,-91.95700073242188 169.42999267578125,-74.81400299072266 C173.86300659179688,-69.06099700927734 178.2969970703125,-63.17300033569336 181.37899780273438,-56.58599853515625 C185.48199462890625,-47.82400131225586 188.39999389648438,-38.71799850463867 193.93499755859375,-30.78499984741211 C206.5659942626953,-12.38599967956543 218.89700317382812,6.210999965667725 230.83399963378906,25.117000579833984 C234.7169952392578,31.389999389648438 239.90499877929688,38.7130012512207 239.8939971923828,46.07500076293945 C239.89500427246094,49.75400161743164 238.53399658203125,53.30500030517578 236.24099731445312,56.63600158691406 C212.36700439453125,84.56600189208984 185.94900512695312,110.4729995727539 160.98500061035156,137.46200561523438 C151.41799926757812,147.4550018310547 141.7239990234375,157.24899291992188 131.43499755859375,166.53500366210938 C126.302001953125,171.0800018310547 118.69300079345703,177.68699645996094 111.91500091552734,175.93299865722656 C111.91500091552734,175.93299865722656 111.7770004272461,175.89500427246094 111.7770004272461,175.89500427246094z"></path></g><g opacity="1" transform="matrix(1,0,0,1,2782.18798828125,1984.136962890625)"><path fill="rgb(0,0,0)" fill-opacity="1" d=" M0.6449999809265137,92.9540023803711 C-7.7820000648498535,94.56600189208984 -34.16299819946289,66.21499633789062 -40.45899963378906,60.53300094604492 C-67.45899963378906,34.98899841308594 -72.8759994506836,-3.2079999446868896 -51.16299819946289,-34.180999755859375 C-33.61800003051758,-60.402000427246094 -13.699999809265137,-76.56600189208984 19.274999618530273,-74.30500030517578 C44.819000244140625,-72.3759994506836 102.8030014038086,-43.54100036621094 107.1259994506836,-38.8849983215332 C112.8759994506836,-33.141998291015625 90.697998046875,-11.487000465393066 85.2239990234375,-5.693999767303467 C68.18599700927734,11.91100025177002 33.819000244140625,-35.875999450683594 11.045999526977539,-20.176000595092773 C0.4000000059604645,-10.86299991607666 -13.067000389099121,6.169000148773193 -7.5289998054504395,19.905000686645508 C7.318999767303467,45.624000549316406 35.452999114990234,50.861000061035156 31.017000198364258,58.88399887084961 C27.73200035095215,65 0.6449999809265137,92.9540023803711 0.6449999809265137,92.9540023803711z"></path></g><g opacity="1" transform="matrix(1,0,0,1,2969.1298828125,2345.715087890625)"><path fill="rgb(0,0,0)" fill-opacity="1" d=" M50.79600143432617,-8.789999961853027 C51.74700164794922,-0.49399998784065247 35.37200164794922,10.967000007629395 29.108999252319336,15.722999572753906 C-1.0329999923706055,37.7239990234375 -23.582000732421875,22.219999313354492 -46.8390007019043,-0.25099998712539673 C-49.720001220703125,-3.259999990463257 -51.40800094604492,-5.769000053405762 -51.551998138427734,-8.017000198364258 C-51.74700164794922,-14.23900032043457 -40.98500061035156,-18.665000915527344 -35.87099838256836,-21.635000228881836 C-29.06800079345703,-25.08099937438965 -22.14299964904785,-28.368999481201172 -15.130999565124512,-31.413000106811523 C-6.879000186920166,-35.05799865722656 1.24399995803833,-37.724998474121094 9.993000030517578,-33.981998443603516 C16.30900001525879,-31.617000579833984 22.392000198364258,-28.41900062561035 28.524999618530273,-25.562000274658203 C35.49700164794922,-21.767000198364258 49.59299850463867,-17.535999298095703 50.78099822998047,-8.9399995803833 C50.78099822998047,-8.9399995803833 50.79600143432617,-8.789999961853027 50.79600143432617,-8.789999961853027z"></path></g><g opacity="1" transform="matrix(-1,0,0,1,3155.969970703125,1986.02294921875)"><path fill="rgb(0,0,0)" fill-opacity="1" d=" M0.6449999809265137,92.9540023803711 C-7.7820000648498535,94.56600189208984 -34.16299819946289,66.21499633789062 -40.45899963378906,60.53300094604492 C-67.45899963378906,34.98899841308594 -72.8759994506836,-3.2079999446868896 -51.16299819946289,-34.180999755859375 C-33.61800003051758,-60.402000427246094 -13.699999809265137,-76.56600189208984 19.274999618530273,-74.30500030517578 C44.819000244140625,-72.3759994506836 102.8030014038086,-43.54100036621094 107.1259994506836,-38.8849983215332 C112.8759994506836,-33.141998291015625 90.697998046875,-11.487000465393066 85.2239990234375,-5.693999767303467 C68.18599700927734,11.91100025177002 33.819000244140625,-35.875999450683594 11.045999526977539,-20.176000595092773 C0.4000000059604645,-10.86299991607666 -13.067000389099121,6.169000148773193 -7.5289998054504395,19.905000686645508 C7.318999767303467,45.624000549316406 35.452999114990234,50.861000061035156 31.017000198364258,58.88399887084961 C27.73200035095215,65 0.6449999809265137,92.9540023803711 0.6449999809265137,92.9540023803711z"></path></g></g></g></g></svg>