<svg xmlns="http://www.w3.org/2000/svg" xmlns:xlink="http://www.w3.org/1999/xlink" viewBox="0 0 512 512" width="512" height="512" style="width: 100%; height: 100%; transform: translate3d(0,0,0);" preserveAspectRatio="xMidYMid meet"><defs><clipPath id="__lottie_element_53994"><rect width="512" height="512" x="0" y="0"></rect></clipPath></defs><g clip-path="url(#__lottie_element_53994)"><g style="display: block;" transform="matrix(1,0,0,1,250.6580047607422,256.32501220703125)" opacity="1"><g opacity="1" transform="matrix(1,0,0,1,0,0)"><path fill="rgb(0,0,0)" fill-opacity="1" d=" M-9.19,0.7 C-9.16,-2.26 -27.87,-27.86 -33.17,-40.06 C-36.18,-46.97 -41.09,-47.96 -47.87,-43.42 C-60.41,-35.02 -72.98,-26.7 -85.94,-18.94 C-93.01,-14.71 -94.22,-9.01 -88.94,-3.03 C-80.22,6.83 -72.9,17.66 -65.16,28.23 C-58.79,36.93 -53.57,37.07 -45.63,28.99 C-39.66,22.92 -18.16,11.17 -14.69,9.24 C-11.4,7.41 -9.14,4.76 -9.19,0.7z M13.42,187.9 C13.36,192.12 14.11,196.06 18.76,197.49 C23.65,198.99 26.08,195.57 28.11,192.01 C42.79,166.18 67.74,140.44 98.51,136.44 C101.65,136.04 104.83,135.31 107.69,134.04 C112.55,131.88 114.4,127.69 110.3,124.57 C83.74,104.38 65.2,97.81 76.51,37.83 C77.79,31.02 68.56,27.1 64.28,32.48 C24.25,82.75 3.72,82.31 -30.6,83.27 C-36.86,83.45 -37.87,90.91 -33.72,95.63 C0.3,117.13 15.37,129.1 13.42,187.9z M-118.42,173.34 C-118.31,168.54 -121.78,166.66 -123.93,164.11 C-162.31,118.56 -177,65.94 -168.69,7.4 C-161.59,-42.65 -125.25,-78.71 -75.97,-87.47 C-49.56,-92.17 -23.61,-89.72 1.93,-82.4 C46.79,-69.55 79.1,-52.45 135.66,1.67 C138.79,4.67 142.44,6.13 146.45,3.63 C150.41,1.17 151.03,-2.64 149.57,-6.84 C146.44,-15.85 144.65,-25.52 139.59,-33.62 C134.95,-41.06 136.36,-46.41 141.32,-52.92 C149,-63.01 147.26,-67.92 135.31,-72.41 C103.82,-82.58 63.14,-108.71 42.79,-128.01 C26.86,-143.11 23.03,-132.47 18.79,-120.22 C16.21,-112.74 11.42,-110.36 4.3,-110.93 C0.34,-111.25 -3.6,-111.8 -7.54,-112.3 C-49.98,-117.72 -90.84,-113.62 -129.21,-93 C-157.75,-77.66 -178.2,-55.44 -189.23,-24.78 C-198.94,2.19 -199.7,29.89 -194.34,57.59 C-185.83,101.57 -166.1,139.34 -129.71,167.03 C-126.41,169.54 -123.33,172.78 -118.42,173.34z M12.33,250.7 C-90.4,245.03 -169.58,200.61 -216.78,106.92 C-238.07,64.68 -242.9,19.22 -228.36,-26.65 C-210.22,-83.86 -170.88,-120.86 -115.1,-141.01 C-93.24,-148.91 -70.59,-153.2 -47.22,-152.94 C-37.67,-152.83 -28.11,-152.78 -18.56,-152.52 C-3.52,-152.1 -3.48,-152.03 -3.95,-166.61 C-4.18,-173.73 -2.58,-179.7 0.69,-185.71 C8.39,-199.89 31.98,-217 59.83,-216.79 C65.41,-216.75 69.54,-213.95 71.07,-207.92 C75.65,-189.82 87.28,-176.51 100.25,-163.73 C123.09,-141.24 149.85,-125.31 179.43,-113.67 C185.77,-111.18 192.38,-109.68 199.06,-108.65 C209.33,-107.08 214.44,-100.56 215.68,-91.01 C218.33,-70.6 218.6,-35.85 190.22,-25.53 C182.92,-22.87 182.74,-22.82 186.33,-15.76 C194.52,0.3 200.48,17.12 204.19,34.75 C222.29,120.69 178.21,201.26 96.68,234.63 C69.8,245.63 41.82,250.92 12.33,250.7z"></path><g opacity="1" transform="matrix(1,0,0,1,-50.70000076293945,-5.640999794006348)"></g><g opacity="1" transform="matrix(1,0,0,1,38.16999816894531,113.90299987792969)"></g><g opacity="1" transform="matrix(1,0,0,1,-23.68199920654297,18.948999404907227)"></g><g opacity="1" transform="matrix(1,0,0,1,-9.946999549865723,16.954999923706055)"></g></g><g opacity="1" transform="matrix(1,0,0,1,163.9340057373047,-188.20799255371094)"><path fill="rgb(0,0,0)" fill-opacity="1" d=" M-23.892000198364258,-62.45199966430664 C-16.45199966430664,-62.854000091552734 -9.734000205993652,-60.46799850463867 -3.188999891281128,-57.42300033569336 C16.746000289916992,-48.150001525878906 60.03200149536133,-15.944000244140625 63.59199905395508,-12.194000244140625 C74.79499816894531,-0.39500001072883606 75.14800262451172,12.48900032043457 67.88600158691406,26.165000915527344 C62.27000045776367,36.7400016784668 54.821998596191406,46.124000549316406 47.58599853515625,55.590999603271484 C42.79199981689453,61.86199951171875 35.84299850463867,63.494998931884766 28.26799964904785,61.957000732421875 C18.09000015258789,59.89099884033203 8.270000457763672,56.715999603271484 -0.9120000004768372,51.75 C-23.548999786376953,39.507999420166016 -50.858001708984375,17.392000198364258 -65.30500030517578,-2.3269999027252197 C-76.26899719238281,-17.292999267578125 -75.05400085449219,-25.645000457763672 -62.369998931884766,-39.36600112915039 C-56.433998107910156,-45.78799819946289 -44.659000396728516,-62.01300048828125 -23.892000198364258,-62.45199966430664z"></path></g></g></g></svg>