<svg xmlns="http://www.w3.org/2000/svg" xmlns:xlink="http://www.w3.org/1999/xlink" viewBox="0 0 512 512" width="512" height="512" style="width: 100%; height: 100%; transform: translate3d(0,0,0);" preserveAspectRatio="xMidYMid meet"><defs><clipPath id="__lottie_element_51985"><rect width="512" height="512" x="0" y="0"></rect></clipPath></defs><g clip-path="url(#__lottie_element_51985)"><g style="display: block;" transform="matrix(1,0,0,1,254.54299926757812,259.81500244140625)" opacity="1"><g opacity="1" transform="matrix(1,0,0,1,0,0)"><path fill="rgb(0,0,0)" fill-opacity="1" d=" M106.47,-42.72 C72.86,-59.74 -85.81,-58.06 -113.75,-40.43 C-84.68,-23.59 82.43,-25.27 106.47,-42.72z M24.6,30.69 C52.4,47.49 91.01,40.67 123.01,42.18 C132.94,42.08 133.35,41.92 135.67,50.89 C145.58,89.13 158.71,126.35 170.9,163.87 C179.66,190.86 177.34,196.34 152.36,209.62 C126.74,223.24 99.05,230.67 70.54,235.14 C26.02,241.36 -167.55,250.52 -156.95,178.09 C-153.67,162.84 -119.8,65.88 -116.35,44.28 C-114.24,33.79 -114.91,32.42 -125.32,30.61 C-159.07,29.08 -237.19,2.15 -241.86,-11.07 C-304.09,-105.21 -35.5,-120.64 17.74,-118.28 C53.6,-123.84 60.4,-41.86 95.16,-75.14 C101.54,-82.74 107.54,-90.92 112.18,-99.65 C124.99,-124.75 174.09,-98.58 195.83,-95.03 C226.04,-86.55 271.23,-55.22 241.37,-22.25 C186.58,33.91 77.22,26.09 24.6,30.69z"></path><g opacity="1" transform="matrix(1,0,0,1,-3.6419999599456787,-41.643001556396484)"></g><g opacity="1" transform="matrix(1,0,0,1,0,60.347999572753906)"></g></g><g opacity="1" transform="matrix(1,0,0,1,76.66600036621094,-159.00399780273438)"><path fill="rgb(0,0,0)" fill-opacity="1" d=" M1.6950000524520874,-74.67400360107422 C8.51200008392334,-73.98799896240234 12.82800006866455,-70.24299621582031 14.809000015258789,-63.994998931884766 C21.964000701904297,-40.75299835205078 43.43899917602539,-23.34000015258789 60.9379997253418,-16.58099937438965 C66.86699676513672,-14.291000366210938 71.44400024414062,-10.480999946594238 71.7249984741211,-3.624000072479248 C71.99299621582031,2.9079999923706055 67.24800109863281,6.105000019073486 62.2859992980957,9.005000114440918 C44.50899887084961,19.395000457763672 31.722000122070312,34.207000732421875 23.32900047302246,52.94599914550781 C21.215999603271484,57.66400146484375 19.19700050354004,62.51100158691406 16.39699935913086,66.81900024414062 C9.42199993133545,77.552001953125 -2.009000062942505,77.21900177001953 -8.347000122070312,66.22899627685547 C-22.148000717163086,28.31800079345703 -54.26900100708008,20.128000259399414 -61.095001220703125,16.867000579833984 C-66.75399780273438,14.163000106811523 -71.375,10.413000106811523 -71.71600341796875,3.618000030517578 C-72.09600067138672,-3.943000078201294 -66.99400329589844,-7.879000186920166 -60.96799850463867,-10.67300033569336 C-37.33599853515625,-21.6299991607666 -21.503999710083008,-39.62099838256836 -12.406000137329102,-63.83300018310547 C-9.958999633789062,-70.34500122070312 -5.505000114440918,-74.41799926757812 1.6950000524520874,-74.67400360107422z"></path></g><g opacity="1" transform="matrix(1,0,0,1,-31.829999923706055,-189.63400268554688)"><path fill="rgb(0,0,0)" fill-opacity="1" d=" M52.29100036621094,-7.447000026702881 C52.2239990234375,-4.056000232696533 51.10599899291992,-1.9390000104904175 49.292999267578125,-0.3009999990463257 C46.638999938964844,2.0959999561309814 44.22999954223633,4.947000026702881 41.04399871826172,6.566999912261963 C29.503999710083008,12.4350004196167 18.673999786376953,31.042999267578125 13.649999618530273,42.047000885009766 C9.217000007629395,51.755001068115234 -0.5540000200271606,52.09199905395508 -6.285999774932861,43.255001068115234 C-14.73900032043457,30.222999572753906 -36.27399826049805,19.16699981689453 -45.78300094604492,13.59000015258789 C-54.52199935913086,8.46500015258789 -54.40399932861328,0.3700000047683716 -45.762001037597656,-5.182000160217285 C-23.93199920654297,-18.82900047302246 -14.807999610900879,-26.687000274658203 -10.586999893188477,-39.029998779296875 C-10.074000358581543,-40.529998779296875 -9.479999542236328,-42.04999923706055 -8.640999794006348,-43.38199996948242 C-3.6070001125335693,-51.375 5.75,-51.97999954223633 9.199999809265137,-43.472999572753906 C15.460000038146973,-28.035999298095703 27.7549991607666,-21.416000366210938 42.198001861572266,-16.756000518798828 C47.24399948120117,-15.128000259399414 52.04600143432617,-13.086000442504883 52.29100036621094,-7.447000026702881z"></path></g></g></g></svg>