<svg xmlns="http://www.w3.org/2000/svg" xmlns:xlink="http://www.w3.org/1999/xlink" viewBox="0 0 512 512" width="512" height="512" style="width: 100%; height: 100%; transform: translate3d(0,0,0);" preserveAspectRatio="xMidYMid meet"><defs><clipPath id="__lottie_element_51365"><rect width="512" height="512" x="0" y="0"></rect></clipPath></defs><g clip-path="url(#__lottie_element_51365)"><g style="display: block;" transform="matrix(1,0,0,1,253.82000732421875,258.6029968261719)" opacity="1"><g opacity="1" transform="matrix(1,0,0,1,0,0)"><path fill="rgb(0,0,0)" fill-opacity="1" d=" M-175.92,130.78 C-175.78,126.08 -176.68,85.95 -186.15,99.69 C-197.96,118.21 -203.06,141.88 -194.16,162.64 C-191.48,171.89 -183.54,171.3 -180.72,162.55 C-176.29,152.55 -175.76,141.53 -175.92,130.78z M-102.41,-200.48 C-128.01,-203.74 -147.75,-197.15 -163.26,-179.67 C-206.81,-126.75 -184.27,-52.69 -161.09,3.98 C-158.91,9.52 -155.29,10.08 -150.54,7.79 C-89.06,-16.74 -117.51,6.42 -83.76,-57.08 C-80.11,-64.08 -80.97,-69.86 -84.51,-76.34 C-89.85,-88.08 -116.72,-65.66 -135.82,-107.42 C-150.22,-142.79 -115.55,-143.12 -121.2,-161.82 C-126.59,-179.07 -114.94,-189.39 -102.41,-200.48z M198.67,150.72 C199.3,143.18 197.39,135.29 195.86,127.43 C189.3,95.9 186.55,38.42 140.94,46.77 C104.29,51.03 17.4,97.43 72.32,134.75 C99.61,150.27 201.34,220.69 198.67,150.72z M108.53299713134766,-160.86900329589844 C120.22000122070312,-160.86900329589844 131.91600036621094,-161.17799377441406 143.58900451660156,-160.77699279785156 C154.093994140625,-160.41600036621094 155.6840057373047,-157.81100463867188 151.6540069580078,-147.9459991455078 C133.3090057373047,-102.05599975585938 99.74600219726562,-64.86699676513672 58.165000915527344,-38.57699966430664 C55.055999755859375,-35.72200012207031 47.97600173950195,-33.83700180053711 48.54800033569336,-28.81800079345703 C49.319000244140625,-26.434999465942383 51.48699951171875,-26.165000915527344 53.51499938964844,-26.520999908447266 C110.97599792480469,-37.720001220703125 158.3769989013672,-80.03299713134766 188.0970001220703,-129.03799438476562 C194.9550018310547,-143.9929962158203 200.70599365234375,-131.7100067138672 205.71299743652344,-123.26100158691406 C212.2969970703125,-111.11299896240234 216.08999633789062,-97.93099975585938 219.2030029296875,-84.56800079345703 C236.1439971923828,-5.394999980926514 240.76300048828125,75.98600006103516 244.14100646972656,156.68499755859375 C250.74200439453125,238.21200561523438 225.7449951171875,268.2820129394531 145.88400268554688,230.5449981689453 C71.19999694824219,195.5399932861328 -1.5750000476837158,155.46200561523438 -69.04199981689453,107.86499786376953 C-131.69400024414062,66.05599975585938 -102.7699966430664,35.76499938964844 -136.05499267578125,54.7140007019043 C-144.66299438476562,59.7859992980957 -135.26400756835938,71.61100006103516 -134.97900390625,79.15799713134766 C-124.38899993896484,121.01100158691406 -121.01699829101562,172.7530059814453 -153.78199768066406,206.01300048828125 C-237.6060028076172,266.45599365234375 -278.2090148925781,112.41400146484375 -212.54299926757812,54.81800079345703 C-200.83900451660156,42.13800048828125 -200.00599670410156,32.7400016784668 -206.39100646972656,18.10300064086914 C-232.9219970703125,-42.21699905395508 -248.24099731445312,-113.5260009765625 -220.8800048828125,-176.39300537109375 C-198.10899353027344,-235.31100463867188 -123.22000122070312,-266.75799560546875 -67.697998046875,-232.50799560546875 C-50.367000579833984,-220.09800720214844 -31.7810001373291,-260.54901123046875 -2.3570001125335693,-236.13499450683594 C8.562000274658203,-226.38499450683594 22.43600082397461,-250.56500244140625 43.85900115966797,-234.3679962158203 C59.9739990234375,-222.9969940185547 71.7969970703125,-200.88800048828125 61.28200149536133,-181.88299560546875 C59.55099868774414,-178.22999572753906 53.882999420166016,-175.47000122070312 57.77299880981445,-170.33700561523438 C61.69599914550781,-165.16000366210938 65.98899841308594,-160.2989959716797 73.47200012207031,-160.53799438476562 C85.1520004272461,-160.718994140625 96.8479995727539,-160.48699951171875 108.53299713134766,-160.5659942626953 C108.53299713134766,-160.66700744628906 108.53299713134766,-160.76800537109375 108.53299713134766,-160.86900329589844z"></path><g opacity="1" transform="matrix(1,0,0,1,-187.28500366210938,133.093994140625)"></g><g opacity="1" transform="matrix(1,0,0,1,-134.70799255371094,-96.11399841308594)"></g><g opacity="1" transform="matrix(1,0,0,1,126.69400024414062,113.55799865722656)"></g><g opacity="1" transform="matrix(1,0,0,1,0,0)"></g></g></g></g></svg>