<svg xmlns="http://www.w3.org/2000/svg" xmlns:xlink="http://www.w3.org/1999/xlink" viewBox="0 0 512 512" width="512" height="512" style="width: 100%; height: 100%; transform: translate3d(0,0,0);" preserveAspectRatio="xMidYMid meet"><defs><clipPath id="__lottie_element_52856"><rect width="512" height="512" x="0" y="0"></rect></clipPath></defs><g clip-path="url(#__lottie_element_52856)"><g style="display: block;" transform="matrix(1,0,0,1,256,256)" opacity="1"><g opacity="1" transform="matrix(1,0,0,1,0,0)"><path fill="rgb(0,0,0)" fill-opacity="1" d=" M239.38900756835938,19.802000045776367 C229.7530059814453,-12.02299976348877 212.68699645996094,-44.75400161743164 190.6540069580078,-75.93699645996094 C202.06100463867188,-112.36900329589844 208.26699829101562,-148.75999450683594 207.6739959716797,-182.02099609375 C207.4290008544922,-195.78700256347656 196.38999938964844,-206.85299682617188 182.62399291992188,-207.1320037841797 C149.36599731445312,-207.80499267578125 112.96299743652344,-201.68800354003906 76.50499725341797,-190.3699951171875 C45.45000076293945,-212.427001953125 12.836000442504883,-229.54600524902344 -18.913000106811523,-239.27099609375 C-32.11399841308594,-243.31500244140625 -46.2140007019043,-236.31100463867188 -50.744998931884766,-223.27000427246094 C-57.39899826049805,-204.1179962158203 -62.012001037597656,-183.07400512695312 -64.71499633789062,-160.91700744628906 C-65.7760009765625,-152.22300720214844 -59.632999420166016,-144.34100341796875 -50.95899963378906,-143.12399291992188 C-19.26799964904785,-138.6790008544922 11.343999862670898,-128.58299255371094 39.38100051879883,-111.28900146484375 C47.31399917602539,-106.3949966430664 41.887001037597656,-94.14399719238281 32.9630012512207,-96.65899658203125 C32.9630012512207,-96.65899658203125 32.78799819946289,-96.71099853515625 32.78799819946289,-96.71099853515625 C-4.548999786376953,-107.25399780273438 -44.05799865722656,-105.99800109863281 -78.68199920654297,-96.6760025024414 C-93.19200134277344,-92.76899719238281 -106.36199951171875,-84.93000030517578 -116.7300033569336,-74.0530014038086 C-126.81900024414062,-63.46900177001953 -135.88699340820312,-52.534000396728516 -143.71200561523438,-41.35100173950195 C-151.58999633789062,-30.0939998626709 -149.11700439453125,-14.574000358581543 -138.16400146484375,-6.2779998779296875 C-121.54399871826172,6.310999870300293 -102.3499984741211,17.469999313354492 -81.43299865722656,27.069000244140625 C-222.6479949951172,135.41700744628906 -216.91700744628906,130.03599548339844 -223.6020050048828,138.74899291992188 C-272.2820129394531,202.1959991455078 -176.3040008544922,275.93798828125 -127.5739974975586,212.42599487304688 C-127.5739974975586,212.42599487304688 -27.138999938964844,81.52400207519531 -27.138999938964844,81.52400207519531 C-17.559999465942383,102.52100372314453 -6.4079999923706055,121.78900146484375 6.188000202178955,138.46800231933594 C14.444000244140625,149.39999389648438 29.863000869750977,151.74200439453125 41.10599899291992,143.9149932861328 C68.3949966430664,124.91699981689453 94.25,98.57099914550781 117.0979995727539,67.98100280761719 C155.27200317382812,67.5719985961914 191.79800415039062,62.22800064086914 223.2480010986328,51.38600158691406 C236.26499938964844,46.89899826049805 243.37899780273438,32.97999954223633 239.38900756835938,19.802000045776367z"></path></g><g opacity="1" transform="matrix(1,0,0,1,0,0)"><path fill="rgb(0,0,0)" fill-opacity="1" d=" M177.197998046875,137.21400451660156 C157.47999572753906,125.66799926757812 149.10000610351562,106.4010009765625 141.8699951171875,108.29100036621094 C134.63999938964844,110.18099975585938 136.75999450683594,131.08399963378906 125.21399688720703,150.802001953125 C113.66799926757812,170.52000427246094 94.4010009765625,178.89999389648438 96.29100036621094,186.1300048828125 C98.18099975585938,193.36000061035156 119.08399963378906,191.24000549316406 138.802001953125,202.78599548339844 C158.52000427246094,214.33200073242188 166.89999389648438,233.5989990234375 174.1300048828125,231.70899963378906 C181.36000061035156,229.81900024414062 179.24000549316406,208.91600036621094 190.78599548339844,189.197998046875 C202.33200073242188,169.47999572753906 221.5989990234375,161.10000610351562 219.70899963378906,153.8699951171875 C217.81900024414062,146.63999938964844 196.91600036621094,148.75999450683594 177.197998046875,137.21400451660156z"></path></g><g opacity="1" transform="matrix(1,0,0,1,0,0)"><path fill="rgb(0,0,0)" fill-opacity="1" d=" M-137.95799255371094,-136.98599243164062 C-137.12600708007812,-141.3560028076172 -135.85299682617188,-145.46200561523438 -133.84300231933594,-148.89500427246094 C-124,-165.70399475097656 -91.63500213623047,-175.07899475097656 -93.72000122070312,-183.0540008544922 C-95.80500030517578,-191.0290069580078 -128.61700439453125,-183.36700439453125 -145.42599487304688,-193.2100067138672 C-162.23500061035156,-203.05299377441406 -171.61099243164062,-235.41799926757812 -179.58599853515625,-233.33299255371094 C-187.56100463867188,-231.2480010986328 -179.8990020751953,-198.43600463867188 -189.74200439453125,-181.6269989013672 C-199.5850067138672,-164.8179931640625 -231.9499969482422,-155.44200134277344 -229.86500549316406,-147.4669952392578 C-227.77999877929688,-139.49200439453125 -194.9669952392578,-147.1540069580078 -178.1580047607422,-137.31100463867188 C-161.3489990234375,-127.46800231933594 -151.9739990234375,-95.10299682617188 -143.99899291992188,-97.18800354003906 C-143.86599731445312,-97.2229995727539 -143.74899291992188,-97.28800201416016 -143.625,-97.33899688720703 C-137.8090057373047,-99.7490005493164 -141.13299560546875,-120.31500244140625 -137.95799255371094,-136.98599243164062z"></path></g></g></g></svg>