<svg xmlns="http://www.w3.org/2000/svg" xmlns:xlink="http://www.w3.org/1999/xlink" viewBox="0 0 512 512" width="512" height="512" style="width: 100%; height: 100%; transform: translate3d(0,0,0);" preserveAspectRatio="xMidYMid meet"><defs><clipPath id="__lottie_element_51625"><rect width="512" height="512" x="0" y="0"></rect></clipPath></defs><g clip-path="url(#__lottie_element_51625)"><g style="display: block;" transform="matrix(1.0299999713897705,0,0,1.0299999713897705,1572.987060546875,779.0736083984375)" opacity="1"><g opacity="1" transform="matrix(1,0,0,1,-1201.512939453125,-297.2300109863281)"><path fill="rgb(0,0,0)" fill-opacity="1" d=" M19.197999954223633,-70.67400360107422 C19.197999954223633,-70.67400360107422 -21.197999954223633,-70.67400360107422 -21.197999954223633,-70.67400360107422 C-27.173999786376953,-70.67400360107422 -32.018001556396484,-65.83000183105469 -32.018001556396484,-59.854000091552734 C-32.018001556396484,-59.854000091552734 -39.268001556396484,5.104000091552734 -39.268001556396484,5.104000091552734 C-44.05699920654297,39.007999420166016 18.19300079345703,46.007999420166016 22.76799964904785,6.104000091552734 C22.76799964904785,6.104000091552734 30.01799964904785,-59.854000091552734 30.01799964904785,-59.854000091552734 C30.01799964904785,-65.83000183105469 25.173999786376953,-70.67400360107422 19.197999954223633,-70.67400360107422z"></path></g><g opacity="1" transform="matrix(0.9991661310195923,0.04082935303449631,-0.04082935303449631,0.9991661310195923,-1251.10205078125,-482.2569885253906)"><path fill="rgb(0,0,0)" fill-opacity="1" d=" M126.41200256347656,-131.0399932861328 C109.53199768066406,-135.46499633789062 -70.46800231933594,-142.46499633789062 -72.36100006103516,-126.54900360107422 C-74.55999755859375,-108.06199645996094 41.03200149536133,-137.96499633789062 14.96399974822998,89.27300262451172 C14.10200023651123,96.78700256347656 -174.21800231933594,68.53500366210938 -174.08099365234375,79.06800079345703 C-173.99000549316406,86.03500366210938 -199.83700561523438,85.53500366210938 -199.83700561523438,85.53500366210938 C-224.46800231933594,86.03500366210938 -230.99200439453125,126.41899871826172 -202.33700561523438,128.0399932861328 C-60.96799850463867,136.03500366210938 62.53200149536133,138.03500366210938 198.13400268554688,128.0399932861328 C205.4510040283203,127.5009994506836 217.53199768066406,121.53500366210938 216.697998046875,99.97699737548828 C214.97900390625,55.553001403808594 216.02999877929688,-18.660999298095703 213.697998046875,-40.75400161743164 C209.03199768066406,-84.96499633789062 166.9040069580078,-120.42500305175781 126.41200256347656,-131.0399932861328z M181.82000732421875,21.58799934387207 C173.41400146484375,28.908000946044922 157.6320037841797,21.448999404907227 148.37600708007812,6.453000068664551 C142.94500732421875,-2.3459999561309814 142.1540069580078,-17.448999404907227 135.5919952392578,-21.8700008392334 C129.86300659179688,-25.729999542236328 110.35800170898438,-27.177000045776367 106.52300262451172,-25.32200050354004 C103.96099853515625,-24.08300018310547 98.69100189208984,-6.392000198364258 75.01699829101562,-5.492000102996826 C55.948001861572266,-4.767000198364258 40.67900085449219,-21.716999053955078 42.073001861572266,-41.32899856567383 C43.255001068115234,-57.95399856567383 56.62900161743164,-72.73500061035156 73.08699798583984,-72.51499938964844 C100.11900329589844,-72.15399932861328 160.14599609375,-54.064998626708984 172.82899475097656,-45.1510009765625 C187.42999267578125,-34.88800048828125 189.53900146484375,14.866999626159668 181.82000732421875,21.58799934387207z"></path></g><g opacity="1" transform="matrix(0.9991661310195923,0.04082935303449631,-0.04082935303449631,0.9991661310195923,-1347.2239990234375,-503.53399658203125)"><path fill="rgb(0,0,0)" fill-opacity="1" d=" M-71.87200164794922,13.090999603271484 C-76.84600067138672,42.3120002746582 -79.87200164794922,129.51600646972656 -79.87200164794922,129.51600646972656 C-79.87200164794922,138.21099853515625 -71.8239974975586,134.75900268554688 -63.12900161743164,134.75900268554688 C-63.12900161743164,134.75900268554688 91.35299682617188,136.25900268554688 91.35299682617188,136.25900268554688 C115.15399932861328,136.31199645996094 115.87200164794922,113.64700317382812 115.87200164794922,113.64700317382812 C110.65399932861328,4.311999797821045 81.65399932861328,-81.18800354003906 10.965999603271484,-82.25900268554688 C-44.34000015258789,-83.09700012207031 -68.29199981689453,-7.940000057220459 -71.87200164794922,13.090999603271484z"></path></g><g opacity="1" transform="matrix(0.7565205097198486,0.37355077266693115,-0.37355077266693115,0.7565205097198486,-1459.2440185546875,-584.3660278320312)"><path fill="rgb(0,0,0)" fill-opacity="1" d=" M-14.496000289916992,-13.074000358581543 C-10.35200023651123,-17.229000091552734 -22.358999252319336,-34.37300109863281 -3.3380000591278076,-54.71200180053711 C9.012999534606934,-67.91799926757812 35.720001220703125,-68.66799926757812 54.30699920654297,-48.53099822998047 C77.00299835205078,-23.941999435424805 58.92499923706055,34.54399871826172 62.63399887084961,57.209999084472656 C65.6760025024414,75.7969970703125 -21.461999893188477,80.84500122070312 -48.29999923706055,54.459999084472656 C-69.34500122070312,33.77000045776367 -68.38600158691406,11.993000030517578 -57.39099884033203,-0.32600000500679016 C-36.992000579833984,-23.18199920654297 -18.90999984741211,-8.64799976348877 -14.496000289916992,-13.074000358581543z"></path></g><g opacity="1" transform="matrix(0.9726462960243225,0.23229116201400757,-0.23229116201400757,0.9726462960243225,-1339.1710205078125,-685.7969970703125)"><path fill="rgb(0,0,0)" fill-opacity="1" d=" M-7.749000072479248,-33.37900161743164 C-1.88100004196167,-33.44900131225586 1.5299999713897705,-54.0989990234375 29.35099983215332,-55.327999114990234 C47.415000915527344,-56.125999450683594 67.0250015258789,-37.979000091552734 66.22100067138672,-10.586999893188477 C65.23899841308594,22.861000061035156 13.39900016784668,47.77199935913086 -1.6130000352859497,68.0459976196289 C-10.182999610900879,79.61900329589844 -78.427001953125,28.86400032043457 -79.14800262451172,-8.765000343322754 C-79.71399688720703,-38.27199935913086 -63.79399871826172,-53.16299819946289 -47.31999969482422,-54.275001525878906 C-16.7549991607666,-56.3380012512207 -14,-33.30400085449219 -7.749000072479248,-33.37900161743164z"></path></g></g></g></svg>