<svg xmlns="http://www.w3.org/2000/svg" xmlns:xlink="http://www.w3.org/1999/xlink" viewBox="0 0 512 512" width="512" height="512" style="width: 100%; height: 100%; transform: translate3d(0,0,0);" preserveAspectRatio="xMidYMid meet"><defs><clipPath id="__lottie_element_51610"><rect width="512" height="512" x="0" y="0"></rect></clipPath></defs><g clip-path="url(#__lottie_element_51610)"><g style="display: block;" transform="matrix(1,0,0,1,0,0)" opacity="1"><g opacity="1" transform="matrix(1,0,0,1,203.18699645996094,237.8769989013672)"><path stroke-linecap="butt" stroke-linejoin="miter" fill-opacity="0" stroke-miterlimit="10" stroke="rgb(4,5,52)" stroke-opacity="1" stroke-width="1" d=" M44.6879997253418,3.371000051498413 C44.6879997253418,10.151000022888184 -25.332000732421875,80.1709976196289 -33.242000579833984,74.53099822998047 C-41.141998291015625,68.88099670410156 -50.512001037597656,-68.71900177001953 -40.012001037597656,-74.55899810791016 C-29.851999282836914,-80.1989974975586 44.6879997253418,-3.3989999294281006 44.6879997253418,3.371000051498413z"></path></g><g opacity="1" transform="matrix(1,0,0,1,326.2909851074219,232.2550048828125)"><path stroke-linecap="butt" stroke-linejoin="miter" fill-opacity="0" stroke-miterlimit="10" stroke="rgb(4,5,52)" stroke-opacity="1" stroke-width="1" d=" M40.17399978637695,74.50399780273438 C32.263999938964844,77.89399719238281 -47.305999755859375,12.184000015258789 -45.66600036621094,5.624000072479248 C-42.2760009765625,-7.915999889373779 33.39400100708008,-76.83599853515625 40.17399978637695,-74.57599639892578 C46.95399856567383,-72.31600189208984 48.08399963378906,71.11399841308594 40.17399978637695,74.50399780273438z"></path></g><g opacity="1" transform="matrix(1,0,0,1,278.1809997558594,253.49600219726562)"><path fill="rgb(4,5,52)" fill-opacity="1" d=" M174.11399841308594,-238.1280059814453 C169.4340057373047,-239.55799865722656 162.98399353027344,-240.73800659179688 155.10400390625,-241.68800354003906 C74.08399963378906,-238.21600341796875 26.08300018310547,-232.8280029296875 -19.010000228881836,-229.65499877929688 C-83.55599975585938,-225.11300659179688 -165.26600646972656,-224.697998046875 -189.55599975585938,-204.2480010986328 C-216.42599487304688,-181.60800170898438 -222.30599975585938,184.27200317382812 -211.00599670410156,209.1219940185547 C-199.71600341796875,233.9720001220703 97.31400299072266,249.78199768066406 133.46400451660156,237.3520050048828 C169.60400390625,224.9320068359375 210.26400756835938,144.7429962158203 213.6439971923828,117.64299774169922 C217.03399658203125,90.53299713134766 226.07400512695312,-222.3179931640625 174.11399841308594,-238.1280059814453z M109.74400329589844,184.27200317382812 C67.9540023803711,191.052001953125 81.50399780273438,100.7020034790039 81.50399780273438,100.7020034790039 C81.50399780273438,100.7020034790039 -3.196000099182129,9.211999893188477 -14.496000289916992,8.081999778747559 C-25.785999298095703,6.952000141143799 -108.23600006103516,106.34200286865234 -108.23600006103516,106.34200286865234 C-108.23600006103516,106.34200286865234 -101.45600128173828,157.1719970703125 -111.6259994506836,172.98199462890625 C-121.78600311279297,188.79200744628906 -164.26600646972656,179.802001953125 -165.83599853515625,166.20199584960938 C-167.76600646972656,149.52200317382812 -171.4759979248047,-144.38800048828125 -146.63600158691406,-147.7779998779297 C-121.78600311279297,-151.1580047607422 -16.756000518798828,-38.21799850463867 -16.756000518798828,-38.21799850463867 C-16.756000518798828,-38.21799850463867 76.99400329589844,-157.93800354003906 104.09400177001953,-154.54800415039062 C131.20399475097656,-151.1580047607422 127.81400299072266,2.441999912261963 127.81400299072266,49.87200164794922 C127.81400299072266,97.31199645996094 151.53399658203125,177.49200439453125 109.74400329589844,184.27200317382812z"></path></g><g opacity="1" transform="matrix(1,0,0,1,203.18699645996094,237.8769989013672)"><path stroke-linecap="butt" stroke-linejoin="miter" fill-opacity="0" stroke-miterlimit="10" stroke="rgb(4,5,52)" stroke-opacity="1" stroke-width="1" d=" M44.6879997253418,3.371000051498413 C44.6879997253418,10.151000022888184 -25.332000732421875,80.1709976196289 -33.242000579833984,74.53099822998047 C-41.141998291015625,68.88099670410156 -50.512001037597656,-68.71900177001953 -40.012001037597656,-74.55899810791016 C-29.851999282836914,-80.1989974975586 44.6879997253418,-3.3989999294281006 44.6879997253418,3.371000051498413z"></path></g><g opacity="1" transform="matrix(1,0,0,1,326.2909851074219,232.2550048828125)"><path stroke-linecap="butt" stroke-linejoin="miter" fill-opacity="0" stroke-miterlimit="10" stroke="rgb(4,5,52)" stroke-opacity="1" stroke-width="1" d=" M40.17399978637695,74.50399780273438 C32.263999938964844,77.89399719238281 -47.305999755859375,12.184000015258789 -45.66600036621094,5.624000072479248 C-42.2760009765625,-7.915999889373779 33.39400100708008,-76.83599853515625 40.17399978637695,-74.57599639892578 C46.95399856567383,-72.31600189208984 48.08399963378906,71.11399841308594 40.17399978637695,74.50399780273438z"></path></g><g opacity="1" transform="matrix(1,0,0,1,203.18699645996094,237.8769989013672)"><path fill="rgb(4,5,52)" fill-opacity="1" d=" M44.6879997253418,3.371000051498413 C44.6879997253418,10.151000022888184 -25.332000732421875,80.1709976196289 -33.242000579833984,74.53099822998047 C-41.141998291015625,68.88099670410156 -50.512001037597656,-68.71900177001953 -40.012001037597656,-74.55899810791016 C-29.851999282836914,-80.1989974975586 44.6879997253418,-3.3989999294281006 44.6879997253418,3.371000051498413z"></path></g><g opacity="1" transform="matrix(1,0,0,1,326.2909851074219,232.2550048828125)"><path fill="rgb(4,5,52)" fill-opacity="1" d=" M40.17399978637695,74.50399780273438 C32.263999938964844,77.89399719238281 -47.305999755859375,12.184000015258789 -45.66600036621094,5.624000072479248 C-42.2760009765625,-7.915999889373779 33.39400100708008,-76.83599853515625 40.17399978637695,-74.57599639892578 C46.95399856567383,-72.31600189208984 48.08399963378906,71.11399841308594 40.17399978637695,74.50399780273438z"></path></g></g></g></svg>