<svg xmlns="http://www.w3.org/2000/svg" xmlns:xlink="http://www.w3.org/1999/xlink" viewBox="0 0 512 512" width="512" height="512" style="width: 100%; height: 100%; transform: translate3d(0,0,0);" preserveAspectRatio="xMidYMid meet"><defs><clipPath id="__lottie_element_52090"><rect width="512" height="512" x="0" y="0"></rect></clipPath></defs><g clip-path="url(#__lottie_element_52090)"><g style="display: block;" transform="matrix(1,0,0,1,250.2469940185547,257.56500244140625)" opacity="1"><g opacity="1" transform="matrix(1,0,0,1,0,0)"><path fill="rgb(0,0,0)" fill-opacity="1" d=" M101.59200286865234,112.8010025024414 C83.70899963378906,89.61900329589844 59.70899963378906,82.04299926757812 28.297000885009766,94.47699737548828 C-9.585000038146973,109.47200012207031 -42.79999923706055,143.68899536132812 -106.90699768066406,144.2760009765625 C-183.57400512695312,144.97799682617188 -224.0189971923828,89.94100189208984 -203.093994140625,5.673999786376953 C-184.9969940185547,-67.2040023803711 -156.13999938964844,-92.01899719238281 -160.4199981689453,-121.39099884033203 C-162.28900146484375,-134.21600341796875 -176.03900146484375,-148.9149932861328 -176.13600158691406,-171.61900329589844 C-176.23300170898438,-194.322998046875 -165.8070068359375,-202.02099609375 -160.3800048828125,-199.53199768066406 C-155.04400634765625,-197.0850067138672 -121.36799621582031,-139.4080047607422 -92.97799682617188,-157.46099853515625 C-69.5719985961914,-181.62899780273438 -119.2760009765625,-226.24000549316406 -120.59700012207031,-231.9600067138672 C-121.94000244140625,-237.77699279785156 -112.29900360107422,-246.43800354003906 -90.08100128173828,-241.76600646972656 C-67.86299896240234,-237.093994140625 -56.237998962402344,-220.66200256347656 -44.053001403808594,-216.24600219726562 C-16.14699935913086,-206.1320037841797 13.97599983215332,-229.39500427246094 89.00599670410156,-232.42799377441406 C175.76199340820312,-235.93499755859375 221.51499938964844,-185.22500610351562 205.37100219726562,-110.27400207519531 C191.8719940185547,-47.60200119018555 165.07000732421875,-34.44300079345703 147.4010009765625,15.946999549865723 C147.4010009765625,15.946999549865723 117.8759994506836,-14.939000129699707 68.66699981689453,-24.8700008392334 C63.93000030517578,-25.826000213623047 61.82099914550781,-19.12299919128418 66.25599670410156,-17.202999114990234 C98.15299987792969,-3.3889999389648438 146.14999389648438,24.6299991607666 158.5260009765625,71.5719985961914 C177.50399780273438,143.55799865722656 153.00100708007812,192.7270050048828 97.01100158691406,222.08799743652344 C43.3489990234375,250.22799682617188 -18.820999145507812,244.33900451660156 -18.820999145507812,237.13999938964844 C-18.820999145507812,229.9409942626953 26.958999633789062,225.52499389648438 71.48799896240234,199.1840057373047 C117.9520034790039,171.697998046875 119.26100158691406,135.70599365234375 101.59200286865234,112.8010025024414z"></path></g></g></g></svg>