<svg xmlns="http://www.w3.org/2000/svg" xmlns:xlink="http://www.w3.org/1999/xlink" viewBox="0 0 512 512" width="512" height="512" style="width: 100%; height: 100%; transform: translate3d(0,0,0);" preserveAspectRatio="xMidYMid meet"><defs><clipPath id="__lottie_element_51700"><rect width="512" height="512" x="0" y="0"></rect></clipPath></defs><g clip-path="url(#__lottie_element_51700)"><g style="display: block;" transform="matrix(1,0,0,1,264.01300048828125,257.6709899902344)" opacity="1"><g opacity="1" transform="matrix(1,0,0,1,0,0)"><path fill="rgb(4,5,52)" fill-opacity="1" d=" M-182.72500610351562,227.8159942626953 C-185.28399658203125,239.33299255371094 -153.0780029296875,244.5229949951172 -142.91299438476562,234.8990020751953 C-132.7480010986328,225.27499389648438 -126.25399780273438,185.18099975585938 -116.65399932861328,162.0279998779297 C-107.05400085449219,138.875 -101.40699768066406,130.40499877929688 -94.06600189208984,130.40499877929688 C-86.7249984741211,130.40499877929688 -79.38400268554688,159.20399475097656 -52.27799987792969,183.7689971923828 C-25.172000885009766,208.33399963378906 1.0870000123977661,204.0989990234375 5.322000026702881,199.86399841308594 C9.557000160217285,195.62899780273438 62.257999420166016,218.80599975585938 77.83699798583984,211.87600708007812 C93.41600036621094,204.9459991455078 34.12200164794922,177.83999633789062 45.98099899291992,149.0399932861328 C57.84000015258789,120.23999786376953 123.91000366210938,157.51100158691406 140.8509979248047,149.0399932861328 C157.79200744628906,140.56900024414062 131.2259979248047,122.36499786376953 144.99200439453125,106.31099700927734 C158.75799560546875,90.25700378417969 230.41600036621094,95.50399780273438 228.94500732421875,73.93399810791016 C227.8159942626953,57.36899948120117 183.01600646972656,70.16999816894531 163.7220001220703,55.86399841308594 C149.3679962158203,45.22100067138672 154.4040069580078,28.0049991607666 137.46299743652344,24.523000717163086 C129.0019989013672,22.784000396728516 101.88700103759766,41.4630012512207 88.33399963378906,21.134000778198242 C74.78099822998047,0.8050000071525574 91.21700286865234,-15.232999801635742 113.49299621582031,-23.308000564575195 C135.7689971923828,-31.382999420166016 161.18099975585938,-35.61800003051758 162.0279998779297,-44.93600082397461 C162.875,-54.25400161743164 155.71200561523438,-70.5199966430664 154.4040069580078,-94.06500244140625 C152.64500427246094,-125.7229995727539 190.8280029296875,-165.21800231933594 183.20399475097656,-177.07699584960938 C175.5800018310547,-188.93600463867188 126.45099639892578,-148.27699279785156 96.80400085449219,-151.6649932861328 C67.15699768066406,-155.05299377441406 72.6240005493164,-177.2949981689453 45.98099899291992,-171.14700317382812 C23.95800018310547,-166.06500244140625 29.7549991607666,-123.1719970703125 11.25100040435791,-100.43199920654297 C-7.252999782562256,-77.69200134277344 -26.448999404907227,-88.58300018310547 -20.09000015258789,-111.85299682617188 C-13.730999946594238,-135.1230010986328 -5.125,-141.5 -13.878000259399414,-150.8179931640625 C-22.631000518798828,-160.13600158691406 -33.643001556396484,-147.42999267578125 -49.57500076293945,-160.63800048828125 C-62.11199951171875,-171.03199768066406 -60.74800109863281,-237.21800231933594 -74.3010025024414,-239.75900268554688 C-87.85399627685547,-242.3000030517578 -91.24199676513672,-216.04200744628906 -101.40699768066406,-190.6300048828125 C-111.5719985961914,-165.21800231933594 -142.0659942626953,-166.06500244140625 -153.0780029296875,-161.8300018310547 C-164.08999633789062,-157.59500122070312 -145.45399475097656,-127.9469985961914 -141.218994140625,-94.06500244140625 C-136.98399353027344,-60.18299865722656 -156.86199951171875,-53.88999938964844 -175.1009979248047,-61.87699890136719 C-193.33999633789062,-69.86399841308594 -203.9010009765625,-96.60600280761719 -214.0659942626953,-94.91200256347656 C-224.2310028076172,-93.21800231933594 -221.68899536132812,-40.70000076293945 -207.28900146484375,-7.664999961853027 C-192.88900756835938,25.3700008392334 -174.81900024414062,36.66299819946289 -181.031005859375,49.933998107910156 C-187.2429962158203,63.20500183105469 -221.69000244140625,60.94599914550781 -228.46600341796875,68.56999969482422 C-235.24200439453125,76.19400024414062 -171.67300415039062,109.68800354003906 -139.5050048828125,99.71700286865234 C-107.33699798583984,89.74600219726562 -104.79499816894531,70.26399993896484 -69.21900177001953,40.617000579833984 C-33.643001556396484,10.970000267028809 1.2350000143051147,-16.13599967956543 7.86299991607666,-11.053999900817871 C14.491000175476074,-5.9720001220703125 -35.07400131225586,28.070999145507812 -81.79399871826172,77.12000274658203 C-128.51400756835938,126.16899871826172 -177.64300537109375,204.94500732421875 -182.72500610351562,227.8159942626953z"></path></g></g></g></svg>