<svg xmlns="http://www.w3.org/2000/svg" xmlns:xlink="http://www.w3.org/1999/xlink" viewBox="0 0 512 512" width="512" height="512" style="width: 100%; height: 100%; transform: translate3d(0,0,0);" preserveAspectRatio="xMidYMid meet"><defs><clipPath id="__lottie_element_52015"><rect width="512" height="512" x="0" y="0"></rect></clipPath></defs><g clip-path="url(#__lottie_element_52015)"><g style="display: block;" transform="matrix(1,0,0,1,255.46099853515625,264.45098876953125)" opacity="1"><g opacity="1" transform="matrix(1,0,0,1,0,0)"><path fill="rgb(0,0,0)" fill-opacity="1" d=" M-70.4749984741211,126.13500213623047 C-70.4749984741211,126.13500213623047 -81.12200164794922,151.2989959716797 -84.99299621582031,177.42999267578125 C-88.86399841308594,203.56100463867188 -111.1240005493164,216.14300537109375 -135.32000732421875,209.3679962158203 C-161.8280029296875,201.9459991455078 -175.96800231933594,144.5240020751953 -115.96299743652344,81.61499786376953 C-115.96299743652344,81.61499786376953 -191.76199340820312,83.93499755859375 -238.26100158691406,26.34600067138672 C-245.24600219726562,17.69499969482422 -241.85800170898438,4.925000190734863 -231.57899475097656,0.6859999895095825 C-223.28900146484375,-2.7330000400543213 -215.41600036621094,-9.956000328063965 -213.71400451660156,-24.84600067138672 C-211.50799560546875,-44.1510009765625 -227.53399658203125,-71.31500244140625 -241.7270050048828,-91.11000061035156 C-250.1929931640625,-102.91699981689453 -247.2010040283203,-119.4219970703125 -235.0449981689453,-127.37799835205078 C-228.0070037841797,-131.98399353027344 -220.9290008544922,-138.5229949951172 -215.64999389648438,-147.76100158691406 C-207.72500610351562,-161.6300048828125 -203.09500122070312,-188.17599487304688 -200.46299743652344,-210.78900146484375 C-198.88900756835938,-224.31300354003906 -183.39700317382812,-231.43800354003906 -172.26199340820312,-223.60299682617188 C-162.0260009765625,-216.4010009765625 -148.5070037841797,-210.18600463867188 -131.44900512695312,-208.73399353027344 C-113.11699676513672,-207.1739959716797 -97.92900085449219,-210.6439971923828 -86.3280029296875,-215.34300231933594 C-72.3759994506836,-220.99400329589844 -56.80799865722656,-212.2050018310547 -54.53200149536133,-197.3249969482422 C-54.53200149536133,-197.3249969482422 -49.20000076293945,-162.46499633789062 -49.20000076293945,-162.46499633789062 C-48.4640007019043,-157.656005859375 -42.32600021362305,-156.06900024414062 -39.35300064086914,-159.9199981689453 C-39.35300064086914,-159.9199981689453 -8.178999900817871,-200.29400634765625 -8.178999900817871,-200.29400634765625 C1.4739999771118164,-212.7949981689453 18.492000579833984,-216.64599609375 32.78200149536133,-209.91799926757812 C42.61000061035156,-205.29100036621094 56.301998138427734,-201.5760040283203 74.6989974975586,-201.95899963378906 C93.67400360107422,-202.35400390625 113.77999877929688,-207.75599670410156 130.927001953125,-214.0070037841797 C148.1230010986328,-220.2760009765625 165.98699951171875,-206.42999267578125 164.18899536132812,-188.21600341796875 C162.5590057373047,-171.7050018310547 162.9510040283203,-152.593994140625 168.57899475097656,-134.21099853515625 C173.52699279785156,-118.0479965209961 179.71099853515625,-101.99700164794922 185.71499633789062,-87.86000061035156 C194.71400451660156,-66.66999816894531 180.38400268554688,-42.777000427246094 157.43899536132812,-40.89699935913086 C139.43800354003906,-39.422000885009766 118.12300109863281,-35.9739990234375 95.99199676513672,-28.718000411987305 C36.95399856567383,-9.361000061035156 24.371999740600586,6.124000072479248 30.179000854492188,16.770000457763672 C35.986000061035156,27.416000366210938 67.89299774169922,3.884000062942505 114.37999725341797,-0.6510000228881836 C153.8520050048828,-4.501999855041504 169.35499572753906,-2.2799999713897705 186.22999572753906,-0.777999997138977 C196.3040008544922,0.11900000274181366 204.51199340820312,7.514999866485596 206.656005859375,17.39900016784668 C212.15699768066406,42.755001068115234 224.21200561523438,57.97200012207031 237.95399475097656,68.71199798583984 C249.9199981689453,78.06400299072266 249.28199768066406,96.36299896240234 236.64599609375,104.78900146484375 C220.79299926757812,115.36000061035156 202.72500610351562,129.3419952392578 192.77499389648438,143.55599975585938 C179.26800537109375,162.8509979248047 170.78500366210938,180.093994140625 165.68600463867188,192.4810028076172 C161.71400451660156,202.1300048828125 150.5959930419922,206.6699981689453 141.05299377441406,202.4510040283203 C125.33599853515625,195.5019989013672 105.6709976196289,185.17300415039062 66.95700073242188,190.01199340820312 C66.95700073242188,190.01199340820312 62.9010009765625,200.48800659179688 63.57699966430664,211.05599975585938 C64.20500183105469,220.88400268554688 55.21699905395508,228.60000610351562 45.59299850463867,226.51100158691406 C12.937999725341797,219.4239959716797 -39.50199890136719,196.92999267578125 -70.4749984741211,126.13500213623047z"></path></g></g></g></svg>