<svg xmlns="http://www.w3.org/2000/svg" xmlns:xlink="http://www.w3.org/1999/xlink" viewBox="0 0 512 512" width="512" height="512" style="width: 100%; height: 100%; transform: translate3d(0,0,0);" preserveAspectRatio="xMidYMid meet"><defs><clipPath id="__lottie_element_15761"><rect width="512" height="512" x="0" y="0"></rect></clipPath></defs><g clip-path="url(#__lottie_element_15761)"><g style="display: block;" transform="matrix(0.9916399717330933,0,0,0.9916399717330933,-1001.5106201171875,1777.2674560546875)" opacity="1"><g opacity="1" transform="matrix(1,0,0,1,1362.7230224609375,-1579.3790283203125)"><path fill="rgb(0,0,0)" fill-opacity="1" d=" M19.375,-146.0590057373047 C-52.03499984741211,-150.2050018310547 -101.66999816894531,-104.96900177001953 -107.23600006103516,-47.073001861572266 C-111.75800323486328,-0.041999999433755875 -57.83599853515625,-0.7519999742507935 -43.8129997253418,-35.428001403808594 C-30.576000213623047,-68.16200256347656 1.694000005722046,-77.23799896240234 25.523000717163086,-71.70500183105469 C64.50700378417969,-62.65299987792969 77.0510025024414,-28.625999450683594 75.53800201416016,11.366999626159668 C73.7969970703125,57.38800048828125 26.400999069213867,89.65699768066406 -10.569000244140625,84.5459976196289 C-50.54100036621094,79.0199966430664 -63.95500183105469,119.51499938964844 -30.975000381469727,133.36000061035156 C35.47600173950195,161.25599670410156 131.27699279785156,124.9520034790039 147.3520050048828,20.111000061035156 C159.61000061035156,-59.83599853515625 119.1760025024414,-140.26400756835938 19.375,-146.0590057373047z"></path></g><g opacity="1" transform="matrix(1,0,0,1,1267.31494140625,-1643.7550048828125)"><path fill="rgb(0,0,0)" fill-opacity="1" d=" M124.55799865722656,43.56800079345703 C129.593994140625,8.559000015258789 81.97599792480469,-2.2730000019073486 68.77899932861328,27.0939998626709 C53.66699981689453,60.72100067138672 26.604000091552734,73.1729965209961 -10.368000030517578,65.40399932861328 C-47.04199981689453,57.696998596191406 -71.50399780273438,22.07900047302246 -65.53399658203125,-14.916999816894531 C-59.194000244140625,-54.207000732421875 -11.303999900817871,-96.05699920654297 36.279998779296875,-83.89299774169922 C61.87699890136719,-77.3499984741211 82.56099700927734,-110.16699981689453 57.7859992980957,-125.74400329589844 C-7.269999980926514,-166.64700317382812 -129.2899932861328,-133.36900329589844 -144,-12.835000038146973 C-153.79800415039062,67.45099639892578 -91.5199966430664,138.7949981689453 -10.949999809265137,145.875 C62.20800018310547,152.31300354003906 113.23699951171875,122.26799774169922 124.55799865722656,43.56800079345703z"></path></g><g opacity="1" transform="matrix(1.0964903831481934,-0.34671124815940857,0.34671124815940857,1.0964903831481934,1391.3370361328125,-1360.77099609375)"><path fill="rgb(0,0,0)" fill-opacity="1" d=" M56.755001068115234,-23.722999572753906 C56.755001068115234,-23.722999572753906 33.400001525878906,-28.680999755859375 33.400001525878906,-28.680999755859375 C33.400001525878906,-28.680999755859375 36.505001068115234,-58.654998779296875 50.150001525878906,-60.972999572753906 C64.07499694824219,-63.3390007019043 33.025001525878906,-79.18099975585938 19.799999237060547,-82.23899841308594 C8.154999732971191,-84.93199920654297 -22.701000213623047,-82.68399810791016 -14.524999618530273,-76.72599792480469 C-0.3050000071525574,-66.36299896240234 -16.075000762939453,-41.97100067138672 -16.075000762939453,-41.97100067138672 C-16.075000762939453,-41.97100067138672 -42.45600128173828,-50.45800018310547 -42.45600128173828,-50.45800018310547 C-77.34200286865234,-61.38600158691406 -89.94599914550781,-12.47599983215332 -52.72100067138672,-1.4880000352859497 C-52.72100067138672,-1.4880000352859497 -29.364999771118164,7.502999782562256 -29.364999771118164,7.502999782562256 C-29.364999771118164,7.502999782562256 -36.84400177001953,38.422000885009766 -36.84400177001953,38.422000885009766 C-40.513999938964844,52.08399963378906 -32.415000915527344,66.13500213623047 -18.753000259399414,69.80500030517578 C-18.753000259399414,69.80500030517578 -18.753000259399414,69.80500030517578 -18.753000259399414,69.80500030517578 C-5.091000080108643,73.4749984741211 8.960000038146973,65.375 12.630000114440918,51.7130012512207 C12.630000114440918,51.7130012512207 20.108999252319336,20.792999267578125 20.108999252319336,20.792999267578125 C20.108999252319336,20.792999267578125 43.4640007019043,25.750999450683594 43.4640007019043,25.750999450683594 C57.125999450683594,29.42099952697754 74.2020034790039,19.30500030517578 77.87200164794922,5.64300012588501 C77.87200164794922,5.64300012588501 77.87200164794922,5.64300012588501 77.87200164794922,5.64300012588501 C81.54199981689453,-8.019000053405762 70.41699981689453,-20.05299949645996 56.755001068115234,-23.722999572753906z"></path></g><g opacity="1" transform="matrix(1.149999976158142,0,0,1.149999976158142,1087.239990234375,-1495.2330322265625)"><path fill="rgb(0,0,0)" fill-opacity="1" d=" M84.93299865722656,-24.781999588012695 C90.49099731445312,-20.381000518798828 80.39700317382812,-52.78300094604492 71.26699829101562,-62.29499816894531 C56.57400131225586,-77.60199737548828 32.43899917602539,-100.64800262451172 35.92100143432617,-89.78399658203125 C41.380001068115234,-72.7509994506836 9.086000442504883,-48.948001861572266 9.086000442504883,-48.948001861572266 C4.395999908447266,-59.02799987792969 5.228000164031982,-71.94200134277344 -11.168000221252441,-74.45999908447266 C-28.881999969482422,-77.18000030517578 -69.79499816894531,22.344999313354492 -50.60599899291992,47.56800079345703 C-33.066001892089844,70.6240005493164 65.5250015258789,45.76599884033203 68.51899719238281,27.445999145507812 C72.22200012207031,4.791999816894531 58.83100128173828,4.896999835968018 46.88800048828125,-3.200000047683716 C46.88800048828125,-3.200000047683716 74.65799713134766,-32.917999267578125 84.93299865722656,-24.781999588012695z"></path></g></g></g></svg>