<svg xmlns="http://www.w3.org/2000/svg" xmlns:xlink="http://www.w3.org/1999/xlink" viewBox="0 0 512 512" width="512" height="512" style="width: 100%; height: 100%; transform: translate3d(0,0,0);" preserveAspectRatio="xMidYMid meet"><defs><clipPath id="__lottie_element_52658"><rect width="512" height="512" x="0" y="0"></rect></clipPath></defs><g clip-path="url(#__lottie_element_52658)"><g style="display: block;" transform="matrix(1,0,0,1,0,0)" opacity="1"><g opacity="1" transform="matrix(1,0,0,1,260.06500244140625,261.1549987792969)"><path fill="rgb(0,0,0)" fill-opacity="1" d=" M173.5760040283203,-196.04400634765625 C33.694000244140625,-197.13099670410156 39.784000396728516,-91.99600219726562 30.093000411987305,-94.23799896240234 C6.623000144958496,-99.66699981689453 -134.9669952392578,-124.60299682617188 -252.29400634765625,45.35200119018555 C-259.9129943847656,61.8129997253418 -171.08399963378906,205.38499450683594 -41.28099822998047,188.51699829101562 C-19.125999450683594,185.63800048828125 58.071998596191406,183.27699279785156 100.73999786376953,24.843000411987305 C102.18000030517578,19.496000289916992 173.9929962158203,57.0989990234375 220.1649932861328,9.836999893188477 C271.93499755859375,-43.154998779296875 207.9029998779297,-195.77699279785156 173.5760040283203,-196.04400634765625z M-70.86599731445312,95.6709976196289 C-138.32899475097656,103.19999694824219 -164.43699645996094,58.27000045776367 -158.19200134277344,48.220001220703125 C-116.08899688720703,-19.542999267578125 -14.02299976348877,-51.00899887084961 31.80900001525879,-0.7689999938011169 C40.58399963378906,8.850000381469727 3.7130000591278076,87.34700012207031 -70.86599731445312,95.6709976196289z M186.0279998779297,-66.97000122070312 C164.96800231933594,-23.395000457763672 98.24700164794922,-31.533000946044922 92.77899932861328,-42.25199890136719 C72.93499755859375,-81.15499877929688 94.91500091552734,-150.83599853515625 166.75799560546875,-146.947998046875 C176.7100067138672,-146.40899658203125 200.86900329589844,-97.6780014038086 186.0279998779297,-66.97000122070312z"></path></g></g></g></svg>