<svg xmlns="http://www.w3.org/2000/svg" xmlns:xlink="http://www.w3.org/1999/xlink" viewBox="0 0 512 512" width="512" height="512" style="width: 100%; height: 100%; transform: translate3d(0,0,0);" preserveAspectRatio="xMidYMid meet"><defs><clipPath id="__lottie_element_51405"><rect width="512" height="512" x="0" y="0"></rect></clipPath></defs><g clip-path="url(#__lottie_element_51405)"><g style="display: block;" transform="matrix(1,0,0,1,-7.25,16.749008178710938)" opacity="1"><g opacity="1" transform="matrix(1,0,0,1,257.25,247.75)"><path fill="rgb(0,0,0)" fill-opacity="1" d=" M-179.0500030517578,-149.03199768066406 C-180.75599670410156,-157.3560028076172 -156.91700744628906,-162.22000122070312 -146.55099487304688,-174.531005859375 C-139,-183.5 -141.51699829101562,-202.32000732421875 -113.5530014038086,-222.5290069580078 C-79,-247.5 -39.91899871826172,-227.8780059814453 -29.55699920654297,-224.0290069580078 C-24.093000411987305,-221.99899291992188 4.761000156402588,-239.08999633789062 26.19300079345703,-225.16600036621094 C51.33300018310547,-208.83299255371094 44.66699981689453,-186.16600036621094 53.93899917602539,-184.031005859375 C60.61000061035156,-182.4929962158203 69.33300018310547,-198.83299255371094 112.43599700927734,-195.02999877929688 C154.12100219726562,-191.3509979248047 162.66700744628906,-156.16600036621094 170.93299865722656,-155.53199768066406 C207.2519989013672,-152.7429962158203 226.28900146484375,-145.66400146484375 239.9290008544922,-104.53399658203125 C250,-74.16600036621094 237.44400024414062,-51.57899856567383 236.9290008544922,-38.5369987487793 C236.4040069580078,-25.21299934387207 245.44900512695312,-15.833000183105469 243.4290008544922,-12.038999557495117 C239.09500122070312,-3.8940000534057617 224.00999450683594,-7.703999996185303 215.43099975585938,-5.539999961853027 C208.66700744628906,-3.8329999446868896 203.9720001220703,14.300999641418457 197.93099975585938,15.460000038146973 C188.07000732421875,17.35099983215332 177.11900329589844,3.065000057220459 172.93299865722656,3.4600000381469727 C167.81900024414062,3.944999933242798 155.2740020751953,11.211999893188477 150.4340057373047,10.460000038146973 C145.03599548339844,9.621000289916992 150,-10.833000183105469 143.4340057373047,-22.038000106811523 C135.28700256347656,-35.93899917602539 118.97799682617188,-41.439998626708984 111.93599700927734,-75.53500366210938 C105.33300018310547,-107.5 122.43199920654297,-128.2729949951172 132.9340057373047,-136.03199768066406 C140.33299255371094,-141.5 118.66699981689453,-162.16600036621094 90.93699645996094,-158.031005859375 C60.952999114990234,-153.55999755859375 23.499000549316406,-107.0469970703125 25.940000534057617,-99.53399658203125 C28.33300018310547,-92.16600036621094 42.66699981689453,-107.5 67.43800354003906,-88.03500366210938 C89.55799865722656,-70.65399932861328 85.89600372314453,-44.96900177001953 91.93699645996094,-41.0369987487793 C101.32099914550781,-34.930999755859375 119.33300018310547,-8.5 116.43499755859375,21.458999633789062 C112.5479965209961,61.63600158691406 94.71900177001953,64.16400146484375 92.93699645996094,76.45600128173828 C91.35800170898438,87.35099792480469 92.48200225830078,99.83300018310547 87.43699645996094,103.45500183105469 C81.21900177001953,107.91999816894531 67.02100372314453,97.02899932861328 60.9379997253418,98.45500183105469 C55.48899841308594,99.73400115966797 47.0629997253418,113.9010009765625 40.43899917602539,112.95500183105469 C32.95500183105469,111.88700103759766 29.19700050354004,96.01000213623047 23.940000534057617,93.45600128173828 C17.472999572753906,90.31300354003906 6.26800012588501,98.99600219726562 0.9409999847412109,95.45500183105469 C-4.580999851226807,91.78500366210938 6,77.5 3.940999984741211,60.957000732421875 C1.7699999809265137,43.513999938964844 -8.49899959564209,29.16699981689453 -1.059000015258789,-0.5400000214576721 C8.694999694824219,-39.48400115966797 45.88399887084961,-38.231998443603516 46.93899917602539,-45.5369987487793 C48.66699981689453,-57.5 -35.33300018310547,-70.83300018310547 -45.055999755859375,48.45800018310547 C-51.79100036621094,131.08299255371094 51.88800048828125,179.1959991455078 136.4340057373047,192.4499969482422 C167.81900024414062,197.37100219726562 157.91200256347656,233.8260040283203 115.43599700927734,228.44900512695312 C85.2229995727539,224.62399291992188 55.236000061035156,216.093994140625 21.440000534057617,217.44900512695312 C-29.666000366210938,219.5 -122.0009994506836,258.84100341796875 -178.5500030517578,201.4499969482422 C-257,121.83300018310547 -215,37.83300018310547 -193.5489959716797,-13.038999557495117 C-182.27000427246094,-39.78900146484375 -198.0290069580078,-68.00900268554688 -192.0489959716797,-76.03600311279297 C-185,-85.5 -113.89800262451172,-50.3129997253418 -109.5530014038086,-39.0369987487793 C-102.66600036621094,-21.166000366210938 -120.33300018310547,-5.5 -119.052001953125,24.458999633789062 C-117.7030029296875,56.040000915527344 -102.89399719238281,88.68000030517578 -94.05400085449219,77.45600128173828 C-87,68.5 -107,27.83300018310547 -74.55500030517578,-37.0369987487793 C-54.707000732421875,-76.7229995727539 -27,-87.5 7.940999984741211,-139.03199768066406 C26.898000717163086,-166.99099731445312 19.163000106811523,-196.2169952392578 -0.5590000152587891,-190.02999877929688 C-6.499000072479248,-188.16600036621094 5.8480000495910645,-159.6179962158203 -13.557999610900879,-134.5330047607422 C-46.33300018310547,-92.16600036621094 -79.66600036621094,-106.83300018310547 -95.05400085449219,-98.03399658203125 C-105.9489974975586,-91.80500030517578 -106.14099884033203,-79.3270034790039 -112.0530014038086,-79.53500366210938 C-118.91200256347656,-79.7770004272461 -124.27899932861328,-97.79399871826172 -130.552001953125,-101.53399658203125 C-136.802001953125,-105.26100158691406 -153.6750030517578,-99.47000122070312 -159.05099487304688,-106.03399658203125 C-163.6739959716797,-111.67900085449219 -157.33299255371094,-123.83300018310547 -160.55099487304688,-129.5330047607422 C-164.0489959716797,-135.72999572753906 -177.6320037841797,-142.11500549316406 -179.0500030517578,-149.03199768066406z"></path></g></g></g></svg>