<svg xmlns="http://www.w3.org/2000/svg" xmlns:xlink="http://www.w3.org/1999/xlink" viewBox="0 0 512 512" width="512" height="512" style="width: 100%; height: 100%; transform: translate3d(0,0,0);" preserveAspectRatio="xMidYMid meet"><defs><clipPath id="__lottie_element_51460"><rect width="512" height="512" x="0" y="0"></rect></clipPath></defs><g clip-path="url(#__lottie_element_51460)"><g style="display: block;" transform="matrix(1,0,0,1,-2714.007080078125,-652.760009765625)" opacity="1"><g opacity="1" transform="matrix(1,0,0,1,0,0)"><g opacity="1" transform="matrix(1,0,0,1,2814.382080078125,831.5800170898438)"><path fill="rgb(0,0,0)" fill-opacity="1" d=" M-86.49400329589844,54.89099884033203 C-85.38300323486328,54.26900100708008 -83.58000183105469,55.194000244140625 -82.37899780273438,55.85100173950195 C-60.27299880981445,67.3219985961914 -43.417999267578125,80.91100311279297 -21.21299934387207,89.90799713134766 C-13.086999893188477,92.48200225830078 -10.23799991607666,84.83300018310547 -16.264999389648438,79.63899993896484 C-27.374000549316406,71.23699951171875 -37.987998962402344,62.33100128173828 -48.5629997253418,53.2599983215332 C-73.322998046875,31.639999389648438 -86.7249984741211,2.809000015258789 -90.6989974975586,-29.367000579833984 C-91.18199920654297,-34.83000183105469 -90.82099914550781,-40.415000915527344 -90.51000213623047,-45.9630012512207 C-90.4010009765625,-47.801998138427734 -90.11299896240234,-49.98699951171875 -88.98600006103516,-51.2859992980957 C-87.31600189208984,-53.43299865722656 -84.21099853515625,-52.44900131225586 -82.4540023803711,-50.750999450683594 C-78.36699676513672,-46.992000579833984 -74.6259994506836,-42.75 -71.51899719238281,-38.130001068115234 C-62.849998474121094,-25.326000213623047 -38.819000244140625,6.218999862670898 -23.423999786376953,8.064000129699707 C-18.655000686645508,7.388000011444092 -18.136999130249023,2.0769999027252197 -20.510000228881836,-1.5369999408721924 C-23.493999481201172,-6.77400016784668 -27.3439998626709,-11.479000091552734 -30.969999313354492,-16.341999053955078 C-35.77899932861328,-22.665000915527344 -40.6510009765625,-28.93199920654297 -45.277000427246094,-35.391998291015625 C-65.39199829101562,-64.26300048828125 -78.00299835205078,-100.3280029296875 -71.14700317382812,-135.531005859375 C-70.0469970703125,-140.83200073242188 -68.66300201416016,-146.20199584960938 -65.61900329589844,-150.843994140625 C-62.34199905395508,-155.6219940185547 -56.52899932861328,-155.96600341796875 -52.54800033569336,-151.76499938964844 C-45.98500061035156,-144.0780029296875 -41.1879997253418,-135.0489959716797 -34.85900115966797,-127.16899871826172 C-15.36299991607666,-102.11900329589844 3.6089999675750732,-76.59700012207031 24.1200008392334,-52.36199951171875 C44.16400146484375,-29.493999481201172 64.92500305175781,-7.23199987411499 84.73600006103516,15.82800006866455 C87.0790023803711,18.864999771118164 89.67500305175781,22.253000259399414 90.33200073242188,25.959999084472656 C91.18199920654297,30.21299934387207 88.65399932861328,34.481998443603516 86.38800048828125,38.00299835205078 C71.14600372314453,60.69200134277344 64.62200164794922,87.61299896240234 65.91500091552734,114.69999694824219 C66.11199951171875,119.36100006103516 66.33899688720703,125.37699890136719 65.45099639892578,129.83999633789062 C64.09700012207031,137.59100341796875 59.64099884033203,142.48699951171875 52.74599838256836,145.67599487304688 C34.67399978637695,152.85299682617188 15.237000465393066,155.96499633789062 -4.410999774932861,153.8820037841797 C-42.154998779296875,149.6790008544922 -68.7760009765625,126.10299682617188 -81.947998046875,92.34700012207031 C-86.21399688720703,81.62899780273438 -89.70700073242188,72.1780014038086 -88.21700286865234,58.900001525878906 C-88.08200073242188,57.55699920654297 -87.66100311279297,55.53799819946289 -86.60700225830078,54.95399856567383 C-86.60700225830078,54.95399856567383 -86.49400329589844,54.89099884033203 -86.49400329589844,54.89099884033203z"></path></g><g opacity="1" transform="matrix(1,0,0,1,3125.823974609375,832.0050048828125)"><path fill="rgb(0,0,0)" fill-opacity="1" d=" M86.73400115966797,55.05099868774414 C87.78800201416016,55.61600112915039 88.22899627685547,57.275001525878906 88.36699676513672,58.55099868774414 C89.85600280761719,73.00599670410156 85.84600067138672,83.14199829101562 80.53299713134766,95.0459976196289 C61.62200164794922,138.56399536132812 33.88999938964844,150.97900390625 -5.5320000648498535,154.5469970703125 C-20.009000778198242,156.0290069580078 -34.31399917602539,152.13299560546875 -48.249000549316406,147.45799255371094 C-50.4739990234375,146.6959991455078 -52.744998931884766,145.82400512695312 -54.75600051879883,144.6219940185547 C-60.731998443603516,141.2550048828125 -63.41999816894531,134.64999389648438 -63.96699905395508,128.08200073242188 C-65.4000015258789,117.15399932861328 -65.24099731445312,106.1520004272461 -66.2030029296875,95.18900299072266 C-68.25700378417969,74.16100311279297 -75.17400360107422,54.492000579833984 -86.43900299072266,36.525001525878906 C-90.3280029296875,30.517000198364258 -92.39600372314453,25.753000259399414 -87.66999816894531,19.201000213623047 C-73.06800079345703,0.7310000061988831 -57.42300033569336,-17.035999298095703 -41.250999450683594,-34.12300109863281 C-22.197999954223633,-53.67300033569336 -5.708000183105469,-75.4749984741211 11.015000343322754,-96.98699951171875 C23.28700065612793,-112.25800323486328 34.89099884033203,-128 46.263999938964844,-143.96299743652344 C49.43600082397461,-148.13400268554688 52.5359992980957,-153.4239959716797 57.895999908447266,-154.7449951171875 C62.89500045776367,-156.0290069580078 66.53700256347656,-151.45899963378906 67.98300170898438,-147.0399932861328 C81.1449966430664,-109.74400329589844 67.85900115966797,-68.83899688720703 46.382999420166016,-37.374000549316406 C41.41999816894531,-30.340999603271484 36.13800048828125,-23.55500030517578 30.93600082397461,-16.701000213623047 C27.926000595092773,-12.180000305175781 16.76799964904785,-0.04399999976158142 19.339000701904297,4.985000133514404 C27.729000091552734,19.621999740600586 66.3550033569336,-29.63599967956543 70.95500183105469,-37.768001556396484 C74.43800354003906,-42.696998596191406 76.5790023803711,-49.02799987792969 82.36100006103516,-51.70800018310547 C84.7249984741211,-52.85599899291992 87.85700225830078,-52.71799850463867 89.5790023803711,-50.63399887084961 C92.39700317382812,-47.04999923706055 92.32099914550781,-42.167999267578125 91.9540023803711,-37.854000091552734 C88.30000305175781,-6.192999839782715 78.697998046875,24.10300064086914 54.87699890136719,46.641998291015625 C42.67900085449219,57.854000091552734 29.760000228881836,68.27899932861328 17.106000900268555,78.9229965209961 C8.809000015258789,84.98999786376953 13.440999984741211,92.90899658203125 22.937000274658203,89.5989990234375 C27.332000732421875,88.25 31.2810001373291,85.8280029296875 35.22999954223633,83.5250015258789 C47.904998779296875,75.89700317382812 60.51900100708008,68.13999938964844 73.20099639892578,60.53200149536133 C75.51599884033203,59.141998291015625 77.83200073242188,57.77899932861328 80.21099853515625,56.64699935913086 C82.05899810791016,55.91299819946289 84.60399627685547,54.1349983215332 86.61000061035156,54.986000061035156 C86.61000061035156,54.986000061035156 86.73400115966797,55.05099868774414 86.73400115966797,55.05099868774414z"></path></g><g opacity="1" transform="matrix(1,0,0,1,2973.4541015625,989.8150024414062)"><path fill="rgb(0,0,0)" fill-opacity="1" d=" M-2.197999954223633,-109.29299926757812 C11.520999908447266,-108.94200134277344 25.285999298095703,-109.29399871826172 39.060001373291016,-109.13800048828125 C45.87900161743164,-109.40799713134766 52.3129997253418,-107.08300018310547 55.446998596191406,-100.51300048828125 C80.04299926757812,-45.92300033569336 71.57099914550781,10.692000389099121 32.895999908447266,55.78099822998047 C28.35300064086914,61.81999969482422 23.92799949645996,67.89399719238281 19.827999114990234,74.16799926757812 C14.741000175476074,81.9260025024414 10.187000274658203,90.05000305175781 6.479000091552734,98.69400024414062 C4.0269999504089355,105.34100341796875 -3.0209999084472656,109.6989974975586 -9.262999534606934,104.71499633789062 C-11.369999885559082,103.01399993896484 -12.480999946594238,100.46800231933594 -13.520000457763672,98.0250015258789 C-20.09000015258789,82.61699676513672 -28.509000778198242,68.25499725341797 -39.29199981689453,55.50299835205078 C-74.22000122070312,20.177000045776367 -80.04399871826172,-30.930999755859375 -69.40399932861328,-77.09200286865234 C-67.73899841308594,-83.375 -65.41500091552734,-89.45999908447266 -63.10499954223633,-95.63700103759766 C-61.611000061035156,-99.73699951171875 -59.209999084472656,-104.06300354003906 -55.61899948120117,-106.4020004272461 C-51.27000045776367,-109.4990005493164 -45.40599822998047,-109.61000061035156 -40.20399856567383,-109.4739990234375 C-27.610000610351562,-109.22599792480469 -14.939000129699707,-109.6989974975586 -2.378999948501587,-109.302001953125 C-2.378999948501587,-109.302001953125 -2.197999954223633,-109.29299926757812 -2.197999954223633,-109.29299926757812z"></path></g><g opacity="1" transform="matrix(1,0,0,1,2845.806884765625,1074.217041015625)"><path fill="rgb(0,0,0)" fill-opacity="1" d=" M-77.4729995727539,75.88800048828125 C-78.79199981689453,74.59200286865234 -77.75700378417969,71.64600372314453 -77.0979995727539,69.59300231933594 C-63.65299987792969,38.28099822998047 -47.417999267578125,8.253999710083008 -29.586999893188477,-20.66900062561035 C-22.784000396728516,-32.44900131225586 -12.376999855041504,-41.42300033569336 -2.428999900817871,-50.47600173950195 C8.71399974822998,-60.61399841308594 21.320999145507812,-68.92900085449219 35.79499816894531,-75.24099731445312 C39.07500076293945,-76.75499725341797 41.38600158691406,-74.87200164794922 42.821998596191406,-72.0479965209961 C50.46099853515625,-59.62799835205078 57.59199905395508,-47.09700012207031 66.06099700927734,-35.2599983215332 C69.06999969482422,-31.291000366210938 72.08699798583984,-27.086000442504883 73.81700134277344,-22.39299964904785 C78.79100036621094,-9.059000015258789 75.8290023803711,6.247000217437744 69.54000091552734,18.613000869750977 C63.65999984741211,29.979999542236328 53.00600051879883,36.66699981689453 41.14099884033203,40.645999908447266 C3.513000011444092,52.6510009765625 -33.91600036621094,63.65599822998047 -73.22899627685547,75.81900024414062 C-74.53299713134766,76.24700164794922 -76.64700317382812,76.75499725341797 -77.38700103759766,75.96600341796875 C-77.38700103759766,75.96600341796875 -77.4729995727539,75.88800048828125 -77.4729995727539,75.88800048828125z"></path></g><g opacity="1" transform="matrix(1,0,0,1,3093.886962890625,1074.8599853515625)"><path fill="rgb(0,0,0)" fill-opacity="1" d=" M77.94100189208984,74.55699920654297 C75.01399993896484,77.93399810791016 65.40399932861328,72.85700225830078 61.44200134277344,72.052001953125 C47.935001373291016,67.76300048828125 34.43199920654297,63.46099853515625 20.930999755859375,59.15299987792969 C5.9029998779296875,54.356998443603516 -9.121999740600586,49.551998138427734 -24.145999908447266,44.74300003051758 C-34.987998962402344,40.95100021362305 -47.06100082397461,38.645999908447266 -56.38800048828125,31.948999404907227 C-72.8759994506836,20.180999755859375 -79.1719970703125,-3.184000015258789 -73.6760025024414,-22.270000457763672 C-69.35700225830078,-31.45599937438965 -62.869998931884766,-39.49700164794922 -57.590999603271484,-48.15800094604492 C-51.92900085449219,-56.49100112915039 -46.823001861572266,-65.2760009765625 -40.823001861572266,-73.34200286865234 C-36.44499969482422,-77.93399810791016 -30.643999099731445,-73.01100158691406 -26.270999908447266,-70.73500061035156 C-8.067999839782715,-61.229000091552734 7.545000076293945,-47.93600082397461 21.694000244140625,-33.16600036621094 C24.88599967956543,-29.826000213623047 27.503000259399414,-26.027000427246094 29.801000595092773,-22.031999588012695 C47.3380012512207,7.715000152587891 64.63800048828125,37.6619987487793 78.04000091552734,69.5719985961914 C78.64399719238281,71.2490005493164 79.1709976196289,72.9520034790039 78.03299713134766,74.4469985961914 C78.03299713134766,74.4469985961914 77.94100189208984,74.55699920654297 77.94100189208984,74.55699920654297z"></path></g><g opacity="1" transform="matrix(1,0,0,1,2970.31298828125,783.4609985351562)"><path fill="rgb(0,0,0)" fill-opacity="1" d=" M19.150999069213867,-56.8849983215332 C19.391000747680664,-57.611000061035156 20.61199951171875,-58.14799880981445 21.586000442504883,-58.35100173950195 C24.676000595092773,-59.1609992980957 27.195999145507812,-58.31399917602539 29.906999588012695,-56.948001861572266 C40.19499969482422,-52.01300048828125 49.09600067138672,-45.71699905395508 55.430999755859375,-37.4640007019043 C65.16400146484375,-25.66200065612793 67.25199890136719,-7.0929999351501465 64.91999816894531,7.790999889373779 C61.37300109863281,36.40399932861328 38.18600082397461,56.395999908447266 7.673999786376953,57.500999450683594 C-21.070999145507812,59.71799850463867 -47.82500076293945,51.625999450683594 -59.95800018310547,23.974000930786133 C-64.427001953125,14.253999710083008 -67.25199890136719,0.9449999928474426 -66.12999725341797,-9.845000267028809 C-64.0270004272461,-31.674999237060547 -49.36600112915039,-46.63100051879883 -30.511999130249023,-57.02899932861328 C-27.979000091552734,-58.42100143432617 -24.280000686645508,-59.71900177001953 -21.79400062561035,-57.832000732421875 C-20,-56.39799880981445 -20.589000701904297,-54.111000061035156 -22.117000579833984,-52.30799865722656 C-43.10599899291992,-32.38199996948242 -41.819000244140625,1.996000051498413 -17.70400047302246,19.069000244140625 C-12.59000015258789,22.820999145507812 -6.209000110626221,25.434999465942383 0.041999999433755875,25.302000045776367 C5.968999862670898,25.336000442504883 12.482000350952148,22.715999603271484 17.7810001373291,18.702999114990234 C38.882999420166016,3.2019999027252197 42.869998931884766,-26.091999053955078 26.52199935913086,-46.81800079345703 C24.486000061035156,-49.43000030517578 22.392000198364258,-51.608001708984375 20.23699951171875,-54.058998107910156 C19.395000457763672,-55.04100036621094 18.858999252319336,-56.018001556396484 19.111000061035156,-56.77199935913086 C19.111000061035156,-56.77199935913086 19.150999069213867,-56.8849983215332 19.150999069213867,-56.8849983215332z"></path></g></g></g></g></svg>