<svg xmlns="http://www.w3.org/2000/svg" xmlns:xlink="http://www.w3.org/1999/xlink" viewBox="0 0 512 512" width="512" height="512" style="width: 100%; height: 100%; transform: translate3d(0,0,0);" preserveAspectRatio="xMidYMid meet"><defs><clipPath id="__lottie_element_53744"><rect width="512" height="512" x="0" y="0"></rect></clipPath></defs><g clip-path="url(#__lottie_element_53744)"><g style="display: block;" transform="matrix(2.962939977645874,0,0,2.962939977645874,2.8374481201171875,2.8374481201171875)" opacity="1"><g opacity="1" transform="matrix(1,0,0,1,92.65699768066406,75.28700256347656)"><path fill="rgb(0,0,0)" fill-opacity="1" d=" M49.23899841308594,-60.68000030517578 C31.033000946044922,-73.20800018310547 11.91100025177002,-77.83000183105469 -9.057999610900879,-68.36199951171875 C-24.233999252319336,-61.5099983215332 -37.6349983215332,-51.994998931884766 -49.49300003051758,-40.3390007019043 C-57.72600173950195,-32.24800109863281 -67.25,-22.534000396728516 -71.51699829101562,-11.666000366210938 C-78.1709976196289,5.281000137329102 -74.71099853515625,19.759000778198242 -62.26300048828125,32.25299835205078 C-60.569000244140625,33.60200119018555 -58.435001373291016,35.53499984741211 -55.5890007019043,33.28099822998047 C-52.834999084472656,31.100000381469727 -55.380001068115234,29.426000595092773 -56.85200119018555,26.180999755859375 C-58.694000244140625,22.121000289916992 -59.650001525878906,20.253999710083008 -60.46699905395508,15.614999771118164 C-61.20100021362305,11.444000244140625 -59.4739990234375,6.327000141143799 -56.319000244140625,3.447000026702881 C-50.715999603271484,-1.6670000553131104 -42.7760009765625,-0.9670000076293945 -36.67599868774414,0.5509999990463257 C-27.14299964904785,2.9240000247955322 -17.812000274658203,8.5649995803833 -9.890999794006348,14.61299991607666 C-0.2150000035762787,22.000999450683594 7.251999855041504,31.792999267578125 9.118000030517578,44.694000244140625 C9.965999603271484,50.558998107910156 8.63700008392334,55.57600021362305 4.540999889373779,59.49300003051758 C-3.4549999237060547,67.13600158691406 -17.3439998626709,59.428001403808594 -19.674999237060547,58.132999420166016 C-21.291000366210938,57.23500061035156 -23.121999740600586,57.356998443603516 -24.02400016784668,58.49300003051758 C-24.892000198364258,59.58700180053711 -26.211999893188477,60.797000885009766 -24.790000915527344,63.11899948120117 C-21.618000030517578,68.2979965209961 -11.776000022888184,74.4489974975586 -2.7269999980926514,74.8489990234375 C7.21999979019165,75.28700256347656 15.961000442504883,70.59400177001953 22.900999069213867,64.36299896240234 C36.367000579833984,52.27299880981445 49.257999420166016,39.42900085449219 61.32899856567383,25.951000213623047 C66.69499969482422,19.959999084472656 70.81800079345703,12.076000213623047 73.19300079345703,4.3420000076293945 C79.03800201416016,-14.6899995803833 70.56500244140625,-46.005001068115234 49.23899841308594,-60.68000030517578z M36.483001708984375,-22.715999603271484 C33.53099822998047,-19.674999237060547 27.805999755859375,-27.308000564575195 25.101999282836914,-29.0939998626709 C14.869999885559082,-35.85100173950195 3.878000020980835,-39.99700164794922 -8.630000114440918,-39.64500045776367 C-10.409000396728516,-39.595001220703125 -15.229000091552734,-39.4640007019043 -15.574999809265137,-42.13999938964844 C-16.459999084472656,-49.00400161743164 -3.5230000019073486,-52.542999267578125 -0.9580000042915344,-52.93899917602539 C13.706000328063965,-55.196998596191406 25.260000228881836,-48.15999984741211 32.77799987792969,-37.01100158691406 C34.56100082397461,-34.36800003051758 39.43199920654297,-25.753999710083008 36.483001708984375,-22.715999603271484z"></path></g><g opacity="1" transform="matrix(1,0,0,1,44.90599822998047,129.46499633789062)"><path fill="rgb(0,0,0)" fill-opacity="1" d=" M19.923999786376953,-0.6460000276565552 C22.770000457763672,-6.1539998054504395 27.711000442504883,-10.545999526977539 34.76599884033203,-14.015000343322754 C35.21200180053711,-14.234000205993652 35.6150016784668,-14.541000366210938 36.053001403808594,-14.779000282287598 C41.21900177001953,-17.597999572753906 43.356998443603516,-18.836999893188477 38.43600082397461,-26.9950008392334 C34.619998931884766,-33.323001861572266 21.989999771118164,-40.85100173950195 14.482000350952148,-39.41299819946289 C11.642999649047852,-38.86800003051758 10.946999549865723,-35.60900115966797 10.795999526977539,-33.96699905395508 C8.652000427246094,-23.239999771118164 0.9070000052452087,-16.634000778198242 -3.3269999027252197,-14.119000434875488 C-7.480000019073486,-12.269000053405762 -12.053000450134277,-10.83899974822998 -19.18899917602539,-13.527999877929688 C-25.951000213623047,-16.076000213623047 -33.196998596191406,-14.128999710083008 -37.650001525878906,-9.314000129699707 C-42.178001403808594,-4.420000076293945 -43.358001708984375,4.427999973297119 -39.03499984741211,10.642999649047852 C-29.981000900268555,22.55900001525879 -14.505999565124512,16.16200065612793 -13.404000282287598,15.652000427246094 C-13.75,21.523000717163086 -13.576000213623047,26.31800079345703 -11.199000358581543,31.51099967956543 C-8.126999855041504,38.220001220703125 0.9409999847412109,40.85100173950195 7.140999794006348,38.78900146484375 C14.751999855041504,36.257999420166016 18.375999450683594,30.135000228881836 19.011999130249023,24.1560001373291 C19.659000396728516,18.069000244140625 16.395000457763672,13.67199993133545 17.31599998474121,7.748000144958496 C17.628000259399414,5.738999843597412 18.170000076293945,2.747999906539917 19.923999786376953,-0.6460000276565552z"></path></g></g></g></svg>