<svg xmlns="http://www.w3.org/2000/svg" xmlns:xlink="http://www.w3.org/1999/xlink" viewBox="0 0 512 512" width="512" height="512" style="width: 100%; height: 100%; transform: translate3d(0,0,0);" preserveAspectRatio="xMidYMid meet"><defs><clipPath id="__lottie_element_51515"><rect width="512" height="512" x="0" y="0"></rect></clipPath></defs><g clip-path="url(#__lottie_element_51515)"><g style="display: block;" transform="matrix(1,0,0,1,0,0)" opacity="1"><g opacity="1" transform="matrix(1,0,0,1,259.677001953125,258.27398681640625)"><path fill="rgb(0,0,0)" fill-opacity="1" d=" M234.0330047607422,-110.7959976196289 C218.17100524902344,-183.25599670410156 171.14199829101562,-218.3719940185547 171.14199829101562,-218.3719940185547 C163.3520050048828,-214.5500030517578 155.66099548339844,-210.67999267578125 148.05099487304688,-206.77499389648438 C185.86599731445312,-168.4929962158203 181.072998046875,-100.86599731445312 181.072998046875,-100.86599731445312 C165.36599731445312,-151.12899780273438 132.44700622558594,-175.53500366210938 110.3740005493164,-186.6959991455078 C-37.8380012512207,-105.13500213623047 -147.38999938964844,-11.991999626159668 -204.52999877929688,41.65800094604492 C-188.7550048828125,75.88600158691406 -139.2209930419922,158.45799255371094 -31.40999984741211,149.51400756835938 C103.8010025024414,138.3769989013672 167.1999969482422,39.94300079345703 167.82699584960938,38.95000076293945 C170.125,35.29399871826172 174.96600341796875,34.1879997253418 178.61900329589844,36.49399948120117 C182.2779998779297,38.79499816894531 183.3780059814453,43.62799835205078 181.0760040283203,47.2859992980957 C178.35699462890625,51.61000061035156 112.80699920654297,153.34300231933594 -30.125999450683594,165.11599731445312 C-35.926998138427734,165.59300231933594 -41.5989990234375,165.82400512695312 -47.09700012207031,165.82400512695312 C-147.04299926757812,165.82400512695312 -197.43499755859375,90.19300079345703 -216.2449951171875,52.79999923706055 C-237.80299377441406,73.57499694824219 -249.22799682617188,86.14800262451172 -249.22799682617188,86.14800262451172 C-246.74600219726562,118.4209976196289 -194.2570037841797,169.84500122070312 -119.39800262451172,194.10800170898438 C-44.53799819946289,218.3719940185547 56.00299835205078,207.1999969482422 147.9720001220703,130.83399963378906 C238.66700744628906,55.52399826049805 249.22799682617188,-41.375999450683594 234.0330047607422,-110.7959976196289z M-56.40700149536133,69.1449966430664 C-79.35199737548828,67.7959976196289 -60.45600128173828,-1.0369999408721924 -51.007999420166016,-1.0369999408721924 C-41.56100082397461,-1.0369999408721924 -26.735000610351562,70.89199829101562 -56.40700149536133,69.1449966430664z M56.70800018310547,40.36899948120117 C33.763999938964844,60.61399841308594 1.371000051498413,-1.4709999561309814 10.819999694824219,-14.967000007629395 C18.55900001525879,-26.02400016784668 79.65299987792969,20.124000549316406 56.70800018310547,40.36899948120117z M47.388999938964844,-60.29399871826172 C42.0620002746582,-79.82599639892578 114.87200164794922,-76.48999786376953 114.87200164794922,-54.895999908447266 C114.87200164794922,-33.30099868774414 51.4379997253418,-45.448001861572266 47.388999938964844,-60.29399871826172z"></path></g></g></g></svg>