<svg xmlns="http://www.w3.org/2000/svg" xmlns:xlink="http://www.w3.org/1999/xlink" viewBox="0 0 512 512" width="512" height="512" style="width: 100%; height: 100%; transform: translate3d(0,0,0);" preserveAspectRatio="xMidYMid meet"><defs><clipPath id="__lottie_element_53234"><rect width="512" height="512" x="0" y="0"></rect></clipPath></defs><g clip-path="url(#__lottie_element_53234)"><g style="display: block;" transform="matrix(1.0399999618530273,0,0,1.0399999618530273,1.4600067138671875,39.640411376953125)" opacity="1"><g opacity="1" transform="matrix(1,0,0,1,244.75,202.74000549316406)"><path fill="rgb(0,0,0)" fill-opacity="1" d=" M207.5,58.5099983215332 C211.5,-55.4900016784668 188.5,-82.48999786376953 156.6999969482422,-126.75 C131.9499969482422,-161.1999969482422 79.69999694824219,-176.9199981689453 78.5,-164.49000549316406 C73.5,-112.48999786376953 53,-69.87999725341797 44.5,-76.48999786376953 C35.5,-83.48999786376953 56.20000076293945,-147.52999877929688 47.5,-183.49000549316406 C44.959999084472656,-193.99000549316406 19.5,-202.49000549316406 0.5,-202.49000549316406 C-20.5,-202.49000549316406 -44.38999938964844,-195.52999877929688 -47.5,-185.49000549316406 C-58.720001220703125,-149.30999755859375 -39.68000030517578,-85.0999984741211 -50.5,-81.48999786376953 C-68.5,-75.48999786376953 -77.87999725341797,-139.25 -78.25,-163.6300048828125 C-78.3499984741211,-170.97000122070312 -114.5,-167.49000549316406 -154.77999877929688,-127.81999969482422 C-187.3300018310547,-95.76000213623047 -216.5,-29.489999771118164 -210.92999267578125,57.459999084472656 C-210.2100067138672,68.68000030517578 -244.5,66.51000213623047 -244.5,109.51000213623047 C-244.5,164.50999450683594 -124,202.49000549316406 1,202.49000549316406 C127,202.49000549316406 244.5,165.50999450683594 244.5,109.51000213623047 C244.5,68.51000213623047 207.17999267578125,67.66000366210938 207.5,58.5099983215332z M2.5,130.50999450683594 C-118.5,130.50999450683594 -193.3800048828125,98.05999755859375 -184.8300018310547,86.0199966430664 C-179.5,78.51000213623047 -143.5,98.51000213623047 -71.5,98.51000213623047 C-62.279998779296875,98.51000213623047 -93.5,86.51000213623047 -94.5,28.510000228881836 C-95.12000274658203,-7.670000076293945 -54.56999969482422,-55 -1.5,-54.4900016784668 C53.91999816894531,-53.959999084472656 90.81999969482422,-4.650000095367432 91.5,32.5099983215332 C92.5,87.51000213623047 65.55999755859375,99.61000061035156 72.5,100.51000213623047 C103.5,104.51000213623047 183.5,83.51000213623047 183.5,92.51000213623047 C183.5,103.51000213623047 115.5,130.50999450683594 2.5,130.50999450683594z"></path></g><g opacity="1" transform="matrix(1,0,0,1,243.52499389648438,238.38499450683594)"><path fill="rgb(0,0,0)" fill-opacity="1" d=" M3.7249999046325684,67.86499786376953 C-40.275001525878906,68.13500213623047 -65.38500213623047,31.96500015258789 -62.275001525878906,-3.134999990463257 C-57.94499969482422,-52.05500030517578 -10.274999618530273,-68.13500213623047 23.725000381469727,-60.1349983215332 C34.415000915527344,-57.625 -0.8550000190734863,-40.334999084472656 17.725000381469727,-8.135000228881836 C32.724998474121094,17.864999771118164 62.80500030517578,-1.774999976158142 63.60499954223633,10.425000190734863 C65.38500213623047,37.8650016784668 49.005001068115234,67.58499908447266 3.7249999046325684,67.86499786376953z"></path></g></g></g></svg>