<svg xmlns="http://www.w3.org/2000/svg" xmlns:xlink="http://www.w3.org/1999/xlink" viewBox="0 0 512 512" width="512" height="512" style="width: 100%; height: 100%; transform: translate3d(0,0,0);" preserveAspectRatio="xMidYMid meet"><defs><clipPath id="__lottie_element_14402"><rect width="512" height="512" x="0" y="0"></rect></clipPath></defs><g clip-path="url(#__lottie_element_14402)"><g style="display: block;" transform="matrix(1,0,0,1,256,256)" opacity="1"><g opacity="1" transform="matrix(1,0,0,1,0,0)"><path fill="rgb(0,0,0)" fill-opacity="1" d=" M-56.292999267578125,164.697998046875 C-56.292999267578125,164.697998046875 -50.33399963378906,102.10900115966797 -82.9749984741211,76.05899810791016 C-117.79900360107422,53.00699996948242 -175.5240020751953,77.91999816894531 -175.5240020751953,77.91999816894531 C-163.26699829101562,139.5800018310547 -216.43499755859375,149.2270050048828 -216.43499755859375,149.2270050048828 C-190.66600036621094,188.01300048828125 -199.49200439453125,227.8489990234375 -204.25999450683594,242.70199584960938 C-191.5919952392578,233.5989990234375 -156.39999389648438,212.95399475097656 -111.56999969482422,225.5500030517578 C-111.56999969482422,225.5500030517578 -118.73500061035156,171.99099731445312 -56.292999267578125,164.697998046875z"></path><path stroke-linecap="round" stroke-linejoin="round" fill-opacity="0" stroke="rgb(0,0,0)" stroke-opacity="1" stroke-width="22" d=" M-56.292999267578125,164.697998046875 C-56.292999267578125,164.697998046875 -50.33399963378906,102.10900115966797 -82.9749984741211,76.05899810791016 C-117.79900360107422,53.00699996948242 -175.5240020751953,77.91999816894531 -175.5240020751953,77.91999816894531 C-163.26699829101562,139.5800018310547 -216.43499755859375,149.2270050048828 -216.43499755859375,149.2270050048828 C-190.66600036621094,188.01300048828125 -199.49200439453125,227.8489990234375 -204.25999450683594,242.70199584960938 C-191.5919952392578,233.5989990234375 -156.39999389648438,212.95399475097656 -111.56999969482422,225.5500030517578 C-111.56999969482422,225.5500030517578 -118.73500061035156,171.99099731445312 -56.292999267578125,164.697998046875z"></path></g><g opacity="1" transform="matrix(1,0,0,1,0,0)"><path stroke-linecap="butt" stroke-linejoin="miter" fill-opacity="0" stroke-miterlimit="10" stroke="rgb(0,0,0)" stroke-opacity="1" stroke-width="30" d=" M38.426998138427734,73.77100372314453 C35.07699966430664,100.81099700927734 10.440999984741211,120.01699829101562 -16.599000930786133,116.66699981689453 C-43.638999938964844,113.31700134277344 -62.84400177001953,88.68099975585938 -59.49399948120117,61.64099884033203 C-56.14400100708008,34.60100173950195 -31.509000778198242,15.395000457763672 -4.468999862670898,18.7450008392334 C22.570999145507812,22.094999313354492 41.777000427246094,46.73099899291992 38.426998138427734,73.77100372314453z"></path></g><g opacity="1" transform="matrix(1,0,0,1,0,0)"><path stroke-linecap="butt" stroke-linejoin="miter" fill-opacity="0" stroke-miterlimit="10" stroke="rgb(0,0,0)" stroke-opacity="1" stroke-width="30" d=" M44.917999267578125,-34.7140007019043 C41.56800079345703,-7.673999786376953 16.93199920654297,11.531999588012695 -10.107999801635742,8.182000160217285 C-37.14799880981445,4.831999778747559 -56.354000091552734,-19.804000854492188 -53.00400161743164,-46.84400177001953 C-49.65399932861328,-73.88400268554688 -25.01799964904785,-93.08999633789062 2.0220000743865967,-89.73999786376953 C29.062000274658203,-86.38999938964844 48.268001556396484,-61.75400161743164 44.917999267578125,-34.7140007019043z"></path></g><g opacity="1" transform="matrix(1,0,0,1,0,0)"><path stroke-linecap="butt" stroke-linejoin="miter" fill-opacity="0" stroke-miterlimit="10" stroke="rgb(0,0,0)" stroke-opacity="1" stroke-width="30" d=" M-45.9109992980957,13.137999534606934 C-49.26100158691406,40.178001403808594 -73.89700317382812,59.38399887084961 -100.93699645996094,56.034000396728516 C-127.97699737548828,52.683998107910156 -147.1820068359375,28.04800033569336 -143.83200073242188,1.0080000162124634 C-140.48199462890625,-26.031999588012695 -115.84700012207031,-45.23699951171875 -88.80699920654297,-41.887001037597656 C-61.766998291015625,-38.5369987487793 -42.56100082397461,-13.902000427246094 -45.9109992980957,13.137999534606934z"></path></g><g opacity="1" transform="matrix(1,0,0,1,0,0)"><path fill="rgb(0,0,0)" fill-opacity="1" d=" M-170.98899841308594,-75.13600158691406 C-170.98899841308594,-75.13600158691406 -118.48600006103516,-40.54800033569336 -80.17900085449219,-57.18199920654297 C-43.499000549316406,-77.14800262451172 -38.46500015258789,-139.81900024414062 -38.46500015258789,-139.81900024414062 C-98.68199920654297,-157.8769989013672 -82.2969970703125,-209.36900329589844 -82.2969970703125,-209.36900329589844 C-128.63600158691406,-204.7740020751953 -159.69500732421875,-231.23399353027344 -170.58299255371094,-242.4040069580078 C-168.47500610351562,-226.947998046875 -166.72300720214844,-186.1840057373047 -198.85400390625,-152.47900390625 C-198.85400390625,-152.47900390625 -148.1790008544922,-133.71800231933594 -170.98899841308594,-75.13600158691406z"></path><path stroke-linecap="round" stroke-linejoin="round" fill-opacity="0" stroke="rgb(0,0,0)" stroke-opacity="1" stroke-width="22" d=" M-170.98899841308594,-75.13600158691406 C-170.98899841308594,-75.13600158691406 -118.48600006103516,-40.54800033569336 -80.17900085449219,-57.18199920654297 C-43.499000549316406,-77.14800262451172 -38.46500015258789,-139.81900024414062 -38.46500015258789,-139.81900024414062 C-98.68199920654297,-157.8769989013672 -82.2969970703125,-209.36900329589844 -82.2969970703125,-209.36900329589844 C-128.63600158691406,-204.7740020751953 -159.69500732421875,-231.23399353027344 -170.58299255371094,-242.4040069580078 C-168.47500610351562,-226.947998046875 -166.72300720214844,-186.1840057373047 -198.85400390625,-152.47900390625 C-198.85400390625,-152.47900390625 -148.1790008544922,-133.71800231933594 -170.98899841308594,-75.13600158691406z"></path></g><g opacity="1" transform="matrix(1,0,0,1,0,0)"><path fill="rgb(0,0,0)" fill-opacity="1" d=" M100.62200164794922,-56.597999572753906 C100.62200164794922,-56.597999572753906 43.85300064086914,-29.57699966430664 38.257999420166016,11.809000015258789 C36.356998443603516,53.52799987792969 87.3740005493164,90.27200317382812 87.3740005493164,90.27200317382812 C133.99200439453125,48.095001220703125 169.57000732421875,88.76699829101562 169.57000732421875,88.76699829101562 C189.6230010986328,46.7400016784668 228.33900451660156,33.86000061035156 243.53199768066406,30.325000762939453 C229.21600341796875,24.128000259399414 193.42999267578125,4.5289998054504395 181.2220001220703,-40.40800094604492 C181.2220001220703,-40.40800094604492 138.9409942626953,-6.760000228881836 100.62200164794922,-56.597999572753906z"></path><path stroke-linecap="round" stroke-linejoin="round" fill-opacity="0" stroke="rgb(0,0,0)" stroke-opacity="1" stroke-width="22" d=" M100.62200164794922,-56.597999572753906 C100.62200164794922,-56.597999572753906 43.85300064086914,-29.57699966430664 38.257999420166016,11.809000015258789 C36.356998443603516,53.52799987792969 87.3740005493164,90.27200317382812 87.3740005493164,90.27200317382812 C133.99200439453125,48.095001220703125 169.57000732421875,88.76699829101562 169.57000732421875,88.76699829101562 C189.6230010986328,46.7400016784668 228.33900451660156,33.86000061035156 243.53199768066406,30.325000762939453 C229.21600341796875,24.128000259399414 193.42999267578125,4.5289998054504395 181.2220001220703,-40.40800094604492 C181.2220001220703,-40.40800094604492 138.9409942626953,-6.760000228881836 100.62200164794922,-56.597999572753906z"></path></g></g></g></svg>