<svg xmlns="http://www.w3.org/2000/svg" xmlns:xlink="http://www.w3.org/1999/xlink" viewBox="0 0 512 512" width="512" height="512" style="width: 100%; height: 100%; transform: translate3d(0,0,0);" preserveAspectRatio="xMidYMid meet"><defs><clipPath id="__lottie_element_14407"><rect width="512" height="512" x="0" y="0"></rect></clipPath></defs><g clip-path="url(#__lottie_element_14407)"><g style="display: block;" transform="matrix(1,0,0,1,256,256)" opacity="1"><g opacity="1" transform="matrix(1,0,0,1,0,0)"><path stroke-linecap="round" stroke-linejoin="round" fill-opacity="0" stroke="rgb(0,0,0)" stroke-opacity="1" stroke-width="40" d=" M52.01300048828125,-180.927001953125 C52.01300048828125,-180.927001953125 -51.400001525878906,-225.23399353027344 -51.400001525878906,-225.23399353027344 C-65.98200225830078,-210.2429962158203 -73.66999816894531,-192.2989959716797 -74.46399688720703,-171.4010009765625 C-74.46399688720703,-171.4010009765625 28.948999404907227,-127.09400177001953 28.948999404907227,-127.09400177001953 C43.53099822998047,-142.0850067138672 51.21900177001953,-160.0290069580078 52.01300048828125,-180.927001953125z"></path></g><g opacity="1" transform="matrix(1,0,0,1,0,0)"><path fill="rgb(0,0,0)" fill-opacity="1" d=" M193.18800354003906,-73.40399932861328 C172.5679931640625,-73.88999938964844 152.48800659179688,-88.51499938964844 134.3780059814453,-100.8499984741211 C126.05899810791016,-106.51599884033203 117.2750015258789,-111.24400329589844 109.69400024414062,-114.88999938964844 C101.0989990234375,-119.02300262451172 91.2969970703125,-112.2750015258789 92.05899810791016,-102.76899719238281 C94.82499694824219,-68.2509994506836 88.84600067138672,-31.999000549316406 75.36799621582031,14.371000289916992 C74.0479965209961,18.91200065612793 77.5719985961914,23.499000549316406 82.29299926757812,23.22100067138672 C85.33999633789062,23.04199981689453 88.47799682617188,23.583999633789062 91.45600128173828,24.94499969482422 C101.11599731445312,29.358999252319336 105.19400024414062,40.944000244140625 100.9469985961914,50.678001403808594 C100.9469985961914,50.678001403808594 88.33300018310547,79.58499908447266 88.33300018310547,79.58499908447266 C85.89800262451172,85.16600036621094 80.97699737548828,89.27300262451172 75.0510025024414,90.66999816894531 C73.58200073242188,91.01599884033203 72.09300231933594,91.18599700927734 70.61399841308594,91.18599700927734 C66.6729965209961,91.18599700927734 62.994998931884766,89.68000030517578 60.04499816894531,87.9219970703125 C56.402000427246094,85.7509994506836 51.66999816894531,87.47799682617188 50.1510009765625,91.43800354003906 C43.79399871826172,108.01399993896484 26.503000259399414,143.9029998779297 -11.50100040435791,167.51800537109375 C-2.447999954223633,182.80099487304688 9.701000213623047,195.55599975585938 24.17799949645996,204.64999389648438 C57.099998474121094,225.3300018310547 89.31500244140625,220.63400268554688 103.06999969482422,217.50999450683594 C130.9459991455078,211.17799377441406 154.35400390625,195.22300720214844 168.9810028076172,172.58299255371094 C183.93299865722656,149.4429931640625 188.97500610351562,121.40299987792969 183.56199645996094,91.49600219726562 C180.08900451660156,72.30899810791016 176.0959930419922,53.83100128173828 171.6280059814453,36.24399948120117 C179.88999938964844,37.21099853515625 210.9199981689453,43.020999908447266 232.23800659179688,20.729999542236328 C242.24200439453125,10.269000053405762 247.69700622558594,-3.6089999675750732 247.59800720214844,-18.34600067138672 C247.39599609375,-48.50600051879883 223.4969940185547,-72.69000244140625 193.18800354003906,-73.40399932861328z"></path></g><g opacity="1" transform="matrix(1,0,0,1,0,0)"><path fill="rgb(0,0,0)" fill-opacity="1" d=" M48.1870002746582,-132.56399536132812 C46.53900146484375,-138.36000061035156 42.36399841308594,-143.10499572753906 36.82500076293945,-145.47799682617188 C36.82500076293945,-145.47799682617188 -66.0250015258789,-189.54299926757812 -66.0250015258789,-189.54299926757812 C-86.94999694824219,-199.81500244140625 -108.60900115966797,-186.1790008544922 -129.56399536132812,-172.98199462890625 C-148.1179962158203,-161.2969970703125 -169.15499877929688,-148.06700134277344 -189.7969970703125,-148.65499877929688 C-220.02099609375,-149.55599975585938 -245.13400268554688,-126.68699645996094 -246.9219970703125,-96.63700103759766 C-250.43800354003906,-37.525001525878906 -188.78799438476562,-37.27399826049805 -173.89100646972656,-38.242000579833984 C-179.29600524902344,-20.874000549316406 -184.27000427246094,-2.5840001106262207 -188.75999450683594,16.444000244140625 C-195.73399353027344,45.999000549316406 -192.18099975585938,74.23799896240234 -178.48199462890625,98.11000061035156 C-165.08099365234375,121.46399688720703 -142.5679931640625,138.61199951171875 -115.08999633789062,146.39599609375 C-115.08999633789062,146.39599609375 -115.08899688720703,146.39599609375 -115.08899688720703,146.39599609375 C-105.23500061035156,149.18699645996094 -71.2509994506836,157.51499938964844 -35.70899963378906,137.71800231933594 C-12.236000061035156,124.64399719238281 6.013999938964844,102.26699829101562 15.682000160217285,74.70999908447266 C50.60599899291992,-24.841999053955078 63.58700180053711,-78.3949966430664 48.1870002746582,-132.56399536132812z M-39.444000244140625,-3.428999900817871 C-39.444000244140625,-3.428999900817871 -64.65699768066406,15.477999687194824 -64.65699768066406,15.477999687194824 C-68.15899658203125,18.104000091552734 -72.37999725341797,19.476999282836914 -76.65699768066406,19.476999282836914 C-78.53399658203125,19.476999282836914 -80.4219970703125,19.214000701904297 -82.26599884033203,18.674999237060547 C-88.31099700927734,16.908000946044922 -93.1719970703125,12.397000312805176 -95.38300323486328,6.5 C-95.38300323486328,6.5 -106.61799621582031,-23.461000442504883 -106.61799621582031,-23.461000442504883 C-110.49600219726562,-33.80400085449219 -105.25599670410156,-45.332000732421875 -94.91300201416016,-49.209999084472656 C-84.572998046875,-53.0890007019043 -73.04299926757812,-47.847999572753906 -69.16500091552734,-37.50600051879883 C-69.16500091552734,-37.50600051879883 -67.302001953125,-32.5359992980957 -67.302001953125,-32.5359992980957 C-67.302001953125,-32.5359992980957 -63.44200134277344,-35.430999755859375 -63.44200134277344,-35.430999755859375 C-54.60300064086914,-42.058998107910156 -42.069000244140625,-40.26599884033203 -35.44200134277344,-31.429000854492188 C-28.81599998474121,-22.591999053955078 -30.60700035095215,-10.055999755859375 -39.444000244140625,-3.428999900817871z"></path></g></g></g></svg>