<svg xmlns="http://www.w3.org/2000/svg" xmlns:xlink="http://www.w3.org/1999/xlink" viewBox="0 0 512 512" width="512" height="512" style="width: 100%; height: 100%; transform: translate3d(0,0,0);" preserveAspectRatio="xMidYMid meet"><defs><clipPath id="__lottie_element_53489"><rect width="512" height="512" x="0" y="0"></rect></clipPath></defs><g clip-path="url(#__lottie_element_53489)"><g style="display: block;" transform="matrix(2.962939977645874,0,0,2.962939977645874,2.8374481201171875,2.8374481201171875)" opacity="1"><g opacity="1" transform="matrix(1,0,0,1,85.62300109863281,84.93299865722656)"><path fill="rgb(0,0,0)" fill-opacity="1" d=" M-45.81100082397461,63.750999450683594 C-41.82099914550781,64.50399780273438 -38.13100051879883,65.2239990234375 -34.43000030517578,65.88899993896484 C-31.549999237060547,66.40699768066406 -28.356000900268555,66.93900299072266 -27.65399932861328,63.01499938964844 C-27.031999588012695,59.53499984741211 -29.760000228881836,58.54899978637695 -32.58000183105469,58.03499984741211 C-39.13199996948242,56.8390007019043 -45.65599822998047,55.45000076293945 -52.244998931884766,54.513999938964844 C-56.01100158691406,53.97999954223633 -58.608001708984375,51.96500015258789 -58.36399841308594,48.547000885009766 C-57.909000396728516,42.194000244140625 -56.77399826049805,34.41600036621094 -55.4640007019043,28.163000106811523 C-55.34199905395508,27.58099937438965 -52.834999084472656,27.76799964904785 -51.40399932861328,27.85300064086914 C-40.45600128173828,28.509000778198242 -29.20599937438965,30.219999313354492 -18.260000228881836,30.91900062561035 C-12.036999702453613,31.84600067138672 -10.54800033569336,29.191999435424805 -10.583000183105469,26.937000274658203 C-10.543000221252441,25.71500015258789 -12.295000076293945,23.784000396728516 -13.656999588012695,23.31399917602539 C-15.956999778747559,22.520000457763672 -43.67900085449219,18.83300018310547 -55.058998107910156,17.768999099731445 C-60.86600112915039,17.22599983215332 -64.75299835205078,15.20199966430664 -66.98300170898438,9.82800006866455 C-68.302001953125,6.64900016784668 -68.0009994506836,4.382999897003174 -65.01399993896484,2.0810000896453857 C-55.83399963378906,-4.994999885559082 -47.784000396728516,-13.237000465393066 -42.474998474121094,-23.65999984741211 C-39.93600082397461,-28.643999099731445 -38.327999114990234,-34.10200119018555 -36.53099822998047,-38.74700164794922 C-33.926998138427734,-37.6349983215332 -30.722000122070312,-35.11199951171875 -27.658000946044922,-35.27299880981445 C-24.413000106811523,-35.444000244140625 -20.09000015258789,-39.4630012512207 -16.375,-41.347999572753906 C-13.204000473022461,-39.5260009765625 -12.388999938964844,-36.90599822998047 -8.35200023651123,-34.60200119018555 C-4.493000030517578,-32.39799880981445 0.05999999865889549,-33.099998474121094 3.953000068664551,-35.06399917602539 C10.583999633789062,-38.409000396728516 13.6899995803833,-39.8489990234375 21.273000717163086,-40.14500045776367 C26.033000946044922,-40.33100128173828 30.535999298095703,-40.54399871826172 30.76300048828125,-42.970001220703125 C30.947999954223633,-44.94499969482422 29.069000244140625,-46.42599868774414 27.816999435424805,-46.67399978637695 C20.17799949645996,-48.191001892089844 11.112000465393066,-48.869998931884766 3.372999906539917,-49.672000885009766 C-4.389999866485596,-50.47600173950195 -14.77299976348877,-51.56800079345703 -20.617000579833984,-51.9010009765625 C-23.833999633789062,-52.08399963378906 -29.804000854492188,-52.645999908447266 -32.75699996948242,-56.233001708984375 C-34.763999938964844,-58.672000885009766 -34.821998596191406,-60.91699981689453 -34.632999420166016,-62.125999450683594 C-33.016998291015625,-72.43800354003906 -24.673999786376953,-79.31300354003906 -14.1850004196167,-79.81500244140625 C13.472999572753906,-81.13899993896484 47.790000915527344,-76.3479995727539 61.516998291015625,-66.24700164794922 C68.03399658203125,-61.68899917602539 68.302001953125,-51.73400115966797 65.98300170898438,-43.97800064086914 C57.02199935913086,-14.003999710083008 52.571998596191406,34.77199935913086 52.19599914550781,55.84600067138672 C51.97999954223633,67.93499755859375 46.8650016784668,77.63200378417969 34.96699905395508,80.01200103759766 C31.722999572753906,80.66100311279297 28.333999633789062,81.13899993896484 25.054000854492188,80.9520034790039 C12.444000244140625,80.23200225830078 -0.14900000393390656,79.2040023803711 -12.748000144958496,78.30500030517578 C-18.39699935913086,77.9020004272461 -24.058000564575195,77.64800262451172 -29.69499969482422,77.1240005493164 C-37.99100112915039,76.35399627685547 -44.13600158691406,71.40599822998047 -45.81100082397461,63.750999450683594z"></path></g></g></g></svg>