<svg xmlns="http://www.w3.org/2000/svg" xmlns:xlink="http://www.w3.org/1999/xlink" viewBox="0 0 512 512" width="512" height="512" style="width: 100%; height: 100%; transform: translate3d(0,0,0);" preserveAspectRatio="xMidYMid meet"><defs><clipPath id="__lottie_element_51860"><rect width="512" height="512" x="0" y="0"></rect></clipPath></defs><g clip-path="url(#__lottie_element_51860)"><g style="display: block;" transform="matrix(2.962939977645874,0,0,2.962939977645874,2.8374481201171875,2.8374481201171875)" opacity="1"><g opacity="1" transform="matrix(1,0,0,1,86.1729965209961,85.63500213623047)"><path fill="rgb(0,0,0)" fill-opacity="1" d=" M-28.990999221801758,43.65299987792969 C-31.503999710083008,46.05500030517578 -45.933998107910156,58.91299819946289 -56.8380012512207,62.5359992980957 C-72.49299621582031,67.63800048828125 -84.177001953125,58.194000244140625 -84.1719970703125,41.47200012207031 C-83.88899993896484,29.91200065612793 -81.05699920654297,18.888999938964844 -79.21800231933594,12.475000381469727 C-78.68099975585938,10.604000091552734 -76.72100067138672,9.54699993133545 -74.8550033569336,10.104000091552734 C-66.38800048828125,12.631999969482422 -58.775001525878906,16.775999069213867 -48.77299880981445,18.690000534057617 C-54.930999755859375,15.456000328063965 -62.81100082397461,10.89900016784668 -68.13700103759766,6.789000034332275 C-78.677001953125,-1.343999981880188 -84.65499877929688,-13.072999954223633 -84.14199829101562,-26.31100082397461 C-83.88500213623047,-32.94499969482422 -82.92400360107422,-37.64799880981445 -78.68000030517578,-47.46799850463867 C-78.01000213623047,-48.4640007019043 -78.552001953125,-51.54100036621094 -78.97000122070312,-53.00400161743164 C-80.6989974975586,-59.05699920654297 -82.2239990234375,-60.992000579833984 -82.95099639892578,-67.2300033569336 C-83.35600280761719,-70.71199798583984 -82.75800323486328,-73.64800262451172 -79.95800018310547,-75.51499938964844 C-77.75900268554688,-76.98200225830078 -74.22000122070312,-75.63300323486328 -72.30500030517578,-74.19300079345703 C-66.73899841308594,-70.00700378417969 -64.22000122070312,-67.64600372314453 -59.375,-62.64799880981445 C-45.196998596191406,-48.020999908447266 -32.5099983215332,-32.191001892089844 -21.60099983215332,-12.848999977111816 C-20.89299964904785,-16.73200035095215 -19.547000885009766,-18.222999572753906 -19.33799934387207,-21.011999130249023 C-18.06399917602539,-38.03900146484375 -18.632999420166016,-56.14400100708008 -21.57200050354004,-72.92900085449219 C-22.79800033569336,-79.93399810791016 -21.100000381469727,-83.92900085449219 -16.527000427246094,-84.56300354003906 C-11.987000465393066,-85.19300079345703 -8.656000137329102,-81.63500213623047 -7.75,-75.20700073242188 C-5.498000144958496,-59.21799850463867 -6.199999809265137,-43.3120002746582 -8.857000350952148,-27.426000595092773 C-9.131999969482422,-25.78700065612793 -8.220000267028809,-23.950000762939453 -7.859000205993652,-22.204999923706055 C-6.331999778747559,-23.172000885009766 -4.502999782562256,-23.86199951171875 -3.322000026702881,-25.148000717163086 C10.178999900817871,-39.847999572753906 16.777999877929688,-50.816001892089844 30.368000030517578,-65.43299865722656 C34.266998291015625,-69.62699890136719 40.858001708984375,-71.4260025024414 43.49100112915039,-68.3010025024414 C46.340999603271484,-64.91799926757812 46.159000396728516,-61.22999954223633 42.20800018310547,-57.56700134277344 C33.428001403808594,-49.42599868774414 27.024999618530273,-43.356998443603516 18.860000610351562,-34.612998962402344 C12.854000091552734,-28.18000030517578 7.815000057220459,-21.893999099731445 2.4230000972747803,-14.902999877929688 C0.8429999947547913,-12.854000091552734 0.2029999941587448,-9.03499984741211 -1.4539999961853027,-7.045000076293945 C0.2329999953508377,-8.154000282287598 2.2750000953674316,-8.543000221252441 4.072999954223633,-9.428000450134277 C22.75200080871582,-18.615999221801758 44.30500030517578,-22.566999435424805 64.80799865722656,-25.927000045776367 C68.86699676513672,-26.591999053955078 74.16999816894531,-26.854000091552734 78.20099639892578,-26.253999710083008 C84.21499633789062,-25.358999252319336 85.87799835205078,-19.305999755859375 81.33399963378906,-15.390000343322754 C76.60800170898438,-11.317000389099121 70.99700164794922,-8.223999977111816 65.59400177001953,-5.001999855041504 C62.90299987792969,-3.3980000019073486 61.729000091552734,-1.8619999885559082 61.91999816894531,1.6039999723434448 C63.03099822998047,21.73200035095215 44.04499816894531,35.229000091552734 22.316999435424805,36.18199920654297 C15.461000442504883,36.481998443603516 8.54699993133545,35.44499969482422 2,35.04199981689453 C8.28600025177002,38.82699966430664 13.737000465393066,41.1510009765625 20.43400001525879,43.06800079345703 C29.893999099731445,45.777000427246094 30.340999603271484,45.680999755859375 26.988000869750977,54.654998779296875 C22.312999725341797,67.16600036621094 15.206999778747559,77.24299621582031 1.871999979019165,82.45800018310547 C-6.5329999923706055,85.74600219726562 -14.28499984741211,82.9020004272461 -19.298999786376953,75.36599731445312 C-24.798999786376953,67.0989990234375 -27.25,58.86000061035156 -28.55500030517578,49.2140007019043 C-28.709999084472656,48.0629997253418 -28.990999221801758,43.65299987792969 -28.990999221801758,43.65299987792969z"></path></g></g></g></svg>