<svg xmlns="http://www.w3.org/2000/svg" xmlns:xlink="http://www.w3.org/1999/xlink" viewBox="0 0 512 512" width="512" height="512" style="width: 100%; height: 100%; transform: translate3d(0,0,0);" preserveAspectRatio="xMidYMid meet"><defs><clipPath id="__lottie_element_52806"><rect width="512" height="512" x="0" y="0"></rect></clipPath></defs><g clip-path="url(#__lottie_element_52806)"><g style="display: block;" transform="matrix(1,0,0,1,256,256)" opacity="1"><g opacity="1" transform="matrix(1,0,0,1,0,0)"><path fill="rgb(0,0,0)" fill-opacity="1" d=" M-232.9980010986328,226.16000366210938 C-225.29200744628906,233.13600158691406 -182.99099731445312,220.17999267578125 -146.69900512695312,205.15899658203125 C-77.38600158691406,245.9029998779297 62.20600128173828,244.91299438476562 137.46800231933594,193.2429962158203 C172.7969970703125,213.5500030517578 226.40499877929688,220.06700134277344 236.1820068359375,207.1929931640625 C250.84500122070312,187.88600158691406 213.38800048828125,130.3679962158203 192.63999938964844,101.2020034790039 C204.58299255371094,17.09000015258789 156.11900329589844,-87.21299743652344 76.91500091552734,-132.85899353027344 C122.28500366210938,-166.9550018310547 144.9600067138672,-184.20700073242188 135.56300354003906,-204.13999938964844 C126.3949966430664,-223.58700561523438 106.93800354003906,-216.9340057373047 92.54900360107422,-208.38699340820312 C77.76899719238281,-199.60800170898438 82.94599914550781,-224.45899963378906 74.11499786376953,-230.94000244140625 C49.45100021362305,-249.0399932861328 11.288000106811523,-196.9969940185547 -41.047000885009766,-215.0659942626953 C-84.4530029296875,-230.052001953125 -113.3010025024414,-239.20700073242188 -127.8499984741211,-221.91400146484375 C-157.781005859375,-186.33700561523438 -90.46900177001953,-171.7310028076172 -69.72100067138672,-144.06900024414062 C-157.63499450683594,-107.2030029296875 -195.80099487304688,7.1020002365112305 -195.55599975585938,94.06400299072266 C-220.75100708007812,130.33200073242188 -253.63800048828125,207.4759979248047 -232.9980010986328,226.16000366210938z M-72.66799926757812,75.4749984741211 C-38.76599884033203,96.36100006103516 -14.177000045776367,109.64399719238281 17.451000213623047,104.20899963378906 C56.02000045776367,97.5790023803711 66.21099853515625,44.79600143432617 -3.871999979019165,42.832000732421875 C-117.62100219726562,39.641998291015625 -85.5479965209961,-71.91799926757812 -10.14900016784668,-66.3280029296875 C-5.60699987411499,-83.32599639892578 6.586999893188477,-95.04499816894531 8.256999969482422,-96.58899688720703 C21.795000076293945,-113.38300323486328 47.00699996948242,-89.2959976196289 30.05500030517578,-73.16300201416016 C27.785999298095703,-71.00399780273438 22.54599952697754,-64.78199768066406 20.763999938964844,-58.04399871826172 C34.042999267578125,-52.04899978637695 48.77299880981445,-42.409000396728516 64.85600280761719,-27.650999069213867 C80.46099853515625,-13.331000328063965 58.79100036621094,10.21500015258789 43.22100067138672,-4.072999954223633 C-35.9739990234375,-76.74199676513672 -85.46099853515625,8.529999732971191 -2.9739999771118164,10.843999862670898 C104.7969970703125,13.86400032043457 99.00900268554688,122.66100311279297 22.871000289916992,135.7469940185547 C5.36299991607666,138.7570037841797 -10.878999710083008,137.71800231933594 -27.207000732421875,133.1490020751953 C-29.437000274658203,138.6929931640625 -31.60700035095215,145.85499572753906 -32.87099838256836,151.70599365234375 C-37.38999938964844,172.6219940185547 -68.61199951171875,165.61300659179688 -64.1500015258789,144.94900512695312 C-63.51300048828125,142.00100708007812 -61.11399841308594,131.625 -56.909000396728516,121.31600189208984 C-67.5510025024414,115.97200012207031 -78.26000213623047,109.61599731445312 -89.4530029296875,102.72000122070312 C-107.447998046875,91.63400268554688 -90.6969985961914,64.37200164794922 -72.66799926757812,75.4749984741211z"></path></g></g></g></svg>