<svg xmlns="http://www.w3.org/2000/svg" xmlns:xlink="http://www.w3.org/1999/xlink" viewBox="0 0 512 512" width="512" height="512" style="width: 100%; height: 100%; transform: translate3d(0,0,0);" preserveAspectRatio="xMidYMid meet"><defs><clipPath id="__lottie_element_53294"><rect width="512" height="512" x="0" y="0"></rect></clipPath></defs><g clip-path="url(#__lottie_element_53294)"><g style="display: block;" transform="matrix(1,0,0,1,245.25399780273438,254.92599487304688)" opacity="1"><g opacity="1" transform="matrix(1,0,0,1,0,0)"><path fill="rgb(4,5,52)" fill-opacity="1" d=" M190.67100524902344,29.812999725341797 C186.1510009765625,32.632999420166016 188.9709930419922,64.25299835205078 157.3509979248047,77.24299621582031 C125.73100280761719,90.23300170898438 136.46099853515625,67.08300018310547 156.2209930419922,49.573001861572266 C175.99099731445312,32.073001861572266 196.3209991455078,13.993000030517578 200.83099365234375,-23.836999893188477 C205.3509979248047,-61.676998138427734 162.43099975585938,-98.9469985961914 160.17100524902344,-95.55699920654297 C157.92100524902344,-92.16699981689453 164.13099670410156,-78.0469970703125 162.43099975585938,-49.24700164794922 C160.74099731445312,-20.44700050354004 147.1909942626953,0.4429999887943268 113.3010025024414,39.972999572753906 C79.4209976196289,79.50299835205078 56.270999908447266,60.303001403808594 60.22100067138672,39.972999572753906 C64.1709976196289,19.64299964904785 113.87100219726562,-3.506999969482422 135.33099365234375,-31.177000045776367 C156.79100036621094,-58.84700012207031 154.531005859375,-106.28700256347656 127.99099731445312,-141.2969970703125 C101.44100189208984,-176.3070068359375 25.211000442504883,-211.31700134277344 21.820999145507812,-202.28700256347656 C18.430999755859375,-193.2469940185547 41.020999908447266,-170.65699768066406 47.80099868774414,-136.77699279785156 C54.57099914550781,-102.89700317382812 28.60099983215332,-79.177001953125 14.230999946594238,-85.95700073242188 C-0.13899999856948853,-92.72699737548828 2.061000108718872,-114.75700378417969 10.741000175476074,-146.3769989013672 C19.430999755859375,-178.0070037841797 12.220999717712402,-211.31700134277344 -14.878999710083008,-222.61700439453125 C-41.98899841308594,-233.90699768066406 -103.43900299072266,-237.9669952392578 -105.79900360107422,-222.61700439453125 C-106.92900085449219,-215.27699279785156 -97.3290023803711,-212.44700622558594 -98.45899963378906,-204.5469970703125 C-99.58899688720703,-196.63699340820312 -132.90899658203125,-175.177001953125 -135.72900390625,-159.36700439453125 C-138.5489959716797,-143.5570068359375 -132.90899658203125,-128.3070068359375 -100.14900207519531,-107.97699737548828 C-67.39900207519531,-87.64700317382812 -36.909000396728516,-74.65699768066406 -36.3390007019043,-60.547000885009766 C-35.77899932861328,-46.426998138427734 -53.8489990234375,-41.90700149536133 -88.85900115966797,-58.2869987487793 C-123.86900329589844,-74.65699768066406 -140.24899291992188,-119.83699798583984 -146.45899963378906,-130.0070037841797 C-152.66900634765625,-140.16700744628906 -156.62899780273438,-136.77699279785156 -171.3090057373047,-116.4469985961914 C-185.98899841308594,-96.11699676513672 -208.57899475097656,-37.387001037597656 -204.62899780273438,-7.456999778747559 C-200.66900634765625,22.472999572753906 -186.5489959716797,34.893001556396484 -143.63900756835938,55.222999572753906 C-100.71900177001953,75.5530014038086 -48.76900100708008,73.85299682617188 -47.069000244140625,89.10299682617188 C-45.37900161743164,104.35299682617188 -74.17900085449219,112.822998046875 -115.39900207519531,100.39299774169922 C-156.62899780273438,87.9729995727539 -190.50900268554688,34.893001556396484 -193.8990020751953,44.49300003051758 C-197.2790069580078,54.09299850463867 -180.33900451660156,121.85299682617188 -145.32899475097656,138.23300170898438 C-110.31900024414062,154.61300659179688 -62.87900161743164,129.1929931640625 -38.5989990234375,134.84300231933594 C-14.319000244140625,140.4929962158203 -22.229000091552734,160.822998046875 -57.23899841308594,165.9029998779297 C-92.2490005493164,170.98300170898438 -127.25900268554688,159.6929931640625 -128.94900512695312,165.9029998779297 C-130.6490020751953,172.11300659179688 -74.17900085449219,230.2830047607422 -22.788999557495117,232.54299926757812 C25.570999145507812,234.66299438476562 42.930999755859375,208.7830047607422 46.680999755859375,181.71299743652344 C46.680999755859375,181.71299743652344 46.680999755859375,181.7030029296875 46.680999755859375,181.7030029296875 C39.95100021362305,161.1929931640625 0,41.667999267578125 13.887999534606934,40.54499816894531 C13.887999534606934,40.54499816894531 42.01100158691406,124.322998046875 50.06100082397461,143.0330047607422 C70.95099639892578,200.06300354003906 109.9209976196289,221.81300354003906 109.9209976196289,221.81300354003906 C135.33099365234375,221.81300354003906 132.50100708007812,207.1230010986328 132.50100708007812,207.1230010986328 C78.29100036621094,180.58299255371094 60.500999450683594,139.08299255371094 60.500999450683594,139.08299255371094 C93.82099914550781,179.17300415039062 163.56100463867188,173.2429962158203 191.80099487304688,130.322998046875 C220.031005859375,87.41300201416016 195.1909942626953,26.982999801635742 190.67100524902344,29.812999725341797z"></path></g></g></g></svg>