<svg xmlns="http://www.w3.org/2000/svg" xmlns:xlink="http://www.w3.org/1999/xlink" viewBox="0 0 512 512" width="512" height="512" style="width: 100%; height: 100%; transform: translate3d(0,0,0);" preserveAspectRatio="xMidYMid meet"><defs><clipPath id="__lottie_element_52970"><rect width="512" height="512" x="0" y="0"></rect></clipPath></defs><g clip-path="url(#__lottie_element_52970)"><g style="display: block;" transform="matrix(1,0,0,1,256,256)" opacity="1"><g opacity="1" transform="matrix(1,0,0,1,0,0)"><path fill="rgb(0,0,0)" fill-opacity="1" d=" M209.5659942626953,-82.29000091552734 C199.41200256347656,-26.268999099731445 150.21099853515625,16.312000274658203 91.06700134277344,16.097999572753906 C25.415000915527344,15.859999656677246 -28.266000747680664,-37.83399963378906 -28.488000869750977,-103.48600006103516 C-28.670000076293945,-157.281005859375 6.551000118255615,-202.86099243164062 55.198001861572266,-218.28500366210938 C62.91299819946289,-220.7310028076172 62.49800109863281,-231.81500244140625 54.62300109863281,-233.6840057373047 C-92.43699645996094,-268.58599853515625 -240.12399291992188,-157.24000549316406 -240.12399291992188,0.1120000034570694 C-240.12399291992188,132.66000366210938 -132.6719970703125,240.11199951171875 -0.12399999797344208,240.11199951171875 C170.74400329589844,240.11199951171875 282.2699890136719,68.53099822998047 224.94000244140625,-83.64099884033203 C222.06500244140625,-91.27100372314453 211.02000427246094,-90.31300354003906 209.5659942626953,-82.29000091552734z"></path></g></g></g></svg>