<svg xmlns="http://www.w3.org/2000/svg" xmlns:xlink="http://www.w3.org/1999/xlink" viewBox="0 0 512 512" width="512" height="512" style="width: 100%; height: 100%; transform: translate3d(0,0,0);" preserveAspectRatio="xMidYMid meet"><defs><clipPath id="__lottie_element_52698"><rect width="512" height="512" x="0" y="0"></rect></clipPath></defs><g clip-path="url(#__lottie_element_52698)"><g style="display: block;" transform="matrix(1.0700000524520874,0,0,1.0700000524520874,-2337.647705078125,-2666.107421875)" opacity="1"><g opacity="1" transform="matrix(1,0,0,1,0,0)"><g opacity="1" transform="matrix(1,0,0,1,2433.218994140625,2737.64697265625)"><path fill="rgb(0,0,0)" fill-opacity="1" d=" M-48.946998596191406,-216.23500061035156 C-48.86800003051758,-217.45199584960938 -45.84199905395508,-219.18299865722656 -44.279998779296875,-219.78399658203125 C-34.93199920654297,-224.00399780273438 -25.464000701904297,-225.83599853515625 -15.51200008392334,-226.98399353027344 C96.302001953125,-239.8780059814453 200.1020050048828,-158.77200317382812 215.0679931640625,-49.73500061035156 C237.4550018310547,113.36199951171875 124.26300048828125,239.8769989013672 -46.17599868774414,217.50399780273438 C-99.21199798583984,210.54200744628906 -237.45399475097656,154.84100341796875 -237.44200134277344,-2.2160000801086426 C-237.4409942626953,-21.315000534057617 -231.4709930419922,-39.709999084472656 -222.30099487304688,-56.9739990234375 C-220.66299438476562,-60.18899917602539 -217.2790069580078,-65.03399658203125 -213.77099609375,-63.72100067138672 C-209.76600646972656,-61.94900131225586 -210.15899658203125,-55.92900085449219 -210.3719940185547,-51.97600173950195 C-221.33700561523438,151.45199584960938 51.805999755859375,211.13900756835938 128.91799926757812,50.50299835205078 C170.85000610351562,-36.8489990234375 151.36900329589844,-199.79299926757812 -38.564998626708984,-212.677001953125 C-41.255001068115234,-212.85899353027344 -48.637001037597656,-213.43299865722656 -48.95500183105469,-216.156005859375 C-48.95500183105469,-216.156005859375 -48.946998596191406,-216.23500061035156 -48.946998596191406,-216.23500061035156z"></path></g></g></g><g style="display: block;" transform="matrix(0.949999988079071,0,0,0.949999988079071,-2050.421630859375,-2336.061279296875)" opacity="1"><g opacity="1" transform="matrix(1,0,0,1,0,0)"><g opacity="1" transform="matrix(1,0,0,1,2392.43408203125,2694.197021484375)"><path fill="rgb(0,0,0)" fill-opacity="1" d=" M-39.321998596191406,36.91999816894531 C-43.637001037597656,32.854000091552734 -50.27799987792969,31.95800018310547 -56.106998443603516,31.687999725341797 C-72.81999969482422,30.718000411987305 -90.40899658203125,31.81100082397461 -107.34200286865234,29.729999542236328 C-120.27899932861328,28.1560001373291 -130.04200744628906,19.170000076293945 -127.97699737548828,5.519000053405762 C-125.19499969482422,-9.006999969482422 -107.68299865722656,-9.090999603271484 -95.85700225830078,-8.913000106811523 C-83.00299835205078,-8.652999877929688 -70.01499938964844,-7.855000019073486 -57.34299850463867,-7.86899995803833 C-53.875999450683594,-7.896999835968018 -50.09299850463867,-8.074000358581543 -46.854000091552734,-9.038999557495117 C-37.30099868774414,-11.428000450134277 -36.316001892089844,-21.641000747680664 -36.96099853515625,-30.0939998626709 C-38.73099899291992,-57.71699905395508 -38.823001861572266,-85.42400360107422 -38.803001403808594,-113.3290023803711 C-38.678001403808594,-121.4749984741211 -38.07099914550781,-130.38299560546875 -32.83100128173828,-136.88299560546875 C-26.656999588012695,-144.7100067138672 -14.098999977111816,-148.593994140625 -3.5859999656677246,-148.33099365234375 C5.289000034332275,-148.05299377441406 11.50100040435791,-142.91000366210938 13.619999885559082,-134.5679931640625 C14.812000274658203,-130.26499938964844 15.15999984741211,-125.47699737548828 15.402000427246094,-120.93399810791016 C16.643999099731445,-91.0719985961914 17.201000213623047,-61.16299819946289 18.253000259399414,-31.285999298095703 C18.476999282836914,-21.69300079345703 20.46500015258789,-10.5600004196167 30.947999954223633,-7.589000225067139 C34.979000091552734,-6.28000020980835 39.59400177001953,-6.083000183105469 43.89400100708008,-6.052999973297119 C53.638999938964844,-6.077000141143799 63.39899826049805,-6.318999767303467 73.14900207519531,-6.36299991607666 C88.73699951171875,-6.099999904632568 112.18299865722656,-7.366000175476074 122.94000244140625,5.682000160217285 C130.04100036621094,14.651000022888184 127.33599853515625,28.783000946044922 115.7030029296875,31.8799991607666 C112.10700225830078,32.99100112915039 108.09300231933594,33.332000732421875 104.23200225830078,33.52799987792969 C85.40799713134766,34.02799987792969 66.58300018310547,34.347999572753906 47.750999450683594,34.83300018310547 C34.48099899291992,34.87900161743164 22.55500030517578,37.01300048828125 20.777000427246094,52.409000396728516 C19.336999893188477,71.5719985961914 21.075000762939453,90.85099792480469 21.131999969482422,110.0790023803711 C21.215999603271484,117.31800079345703 21.472999572753906,124.95899963378906 19.329999923706055,131.89100646972656 C16.30699920654297,142.75900268554688 4.683000087738037,147.76600646972656 -5.9720001220703125,147.875 C-25.43400001525879,148.59500122070312 -31.628000259399414,134.375 -32.922000885009766,117.43099975585938 C-34.04899978637695,99.16699981689453 -33.17100143432617,80.83100128173828 -33.617000579833984,62.597999572753906 C-33.99800109863281,54.058998107910156 -32.65800094604492,43.518001556396484 -39.20899963378906,37.0260009765625 C-39.20899963378906,37.0260009765625 -39.321998596191406,36.91999816894531 -39.321998596191406,36.91999816894531z"></path></g></g></g></g></svg>