<svg xmlns="http://www.w3.org/2000/svg" xmlns:xlink="http://www.w3.org/1999/xlink" viewBox="0 0 512 512" width="512" height="512" style="width: 100%; height: 100%; transform: translate3d(0,0,0);" preserveAspectRatio="xMidYMid meet"><defs><clipPath id="__lottie_element_52528"><rect width="512" height="512" x="0" y="0"></rect></clipPath></defs><g clip-path="url(#__lottie_element_52528)"><g style="display: block;" transform="matrix(1,0,0,1,-540.0069580078125,-2462.760986328125)" opacity="1"><g opacity="1" transform="matrix(1,0,0,1,0,0)"><g opacity="1" transform="matrix(1,0,0,1,789.7109985351562,2726.426025390625)"><path fill="rgb(0,0,0)" fill-opacity="1" d=" M192.26699829101562,-97.8550033569336 C204.85299682617188,-110.00700378417969 215.66600036621094,-125.74099731445312 218.0290069580078,-143.48800659179688 C218.63499450683594,-147.6909942626953 219.2220001220703,-153.53799438476562 222.88900756835938,-155.9409942626953 C226.44700622558594,-158.2969970703125 231.4219970703125,-154.23199462890625 233.94700622558594,-151.39500427246094 C249.54600524902344,-134.6909942626953 254.80999755859375,-105.76200103759766 249.1439971923828,-83.76499938964844 C240.53799438476562,-48.70600128173828 216.69900512695312,-17.091999053955078 179.88800048828125,-7.414999961853027 C177.4949951171875,-6.466000080108643 174.822998046875,-4.892000198364258 174.64199829101562,-2.811000108718872 C175.6959991455078,8.795999526977539 205.39100646972656,5.6519999504089355 213.4510040283203,3.322000026702881 C220.76300048828125,2.2179999351501465 236.33799743652344,-6.789000034332275 235.00799560546875,7.072000026702881 C229.31900024414062,24.70199966430664 218.39300537109375,40.20399856567383 200.27699279785156,47.84199905395508 C184.8249969482422,53.92499923706055 168.8249969482422,58.198001861572266 152.0970001220703,58.57400131225586 C147.02999877929688,58.6349983215332 141.98300170898438,58.84299850463867 136.9409942626953,59.367000579833984 C133.36000061035156,59.81700134277344 129.4929962158203,59.74800109863281 126.44000244140625,61.68899917602539 C123.36699676513672,63.891998291015625 128.78599548339844,68.78600311279297 131.7689971923828,70.0780029296875 C140.67999267578125,74.01799774169922 152.60499572753906,76.48999786376953 163.3699951171875,79.44200134277344 C164.5959930419922,79.76000213623047 166.281005859375,80.36699676513672 166.70799255371094,81.36199951171875 C167.13600158691406,82.21600341796875 166.7259979248047,83.35800170898438 165.90899658203125,84.55400085449219 C162.78500366210938,88.99400329589844 158.97500610351562,92.38099670410156 154.73300170898438,94.8489990234375 C140.23199462890625,102.99099731445312 122.65699768066406,100.77999877929688 106.75599670410156,99.00700378417969 C97.08999633789062,97.80500030517578 87.56400299072266,95.3479995727539 78.1510009765625,92.60199737548828 C72.76599884033203,91.05500030517578 66.51000213623047,89.0479965209961 61.65599822998047,93.0479965209961 C56.284000396728516,97.04399871826172 57.70100021362305,103.8550033569336 60.604000091552734,108.8479995727539 C69.6449966430664,126.08399963378906 79.27200317382812,143.06500244140625 90.96199798583984,158.68299865722656 C95.9739990234375,165.4949951171875 101.197998046875,172.1739959716797 106.07499694824219,179.07899475097656 C109.14199829101562,184.43800354003906 116.11000061035156,190.86500549316406 112.24299621582031,197.18699645996094 C103.53800201416016,206.98500061035156 91.75700378417969,212.85699462890625 79.23799896240234,216.17100524902344 C73.19100189208984,217.5749969482422 65.61100006103516,219.83999633789062 60.71500015258789,214.88800048828125 C56.4739990234375,212.70700073242188 40.731998443603516,180.0659942626953 38.027000427246094,186.1699981689453 C37.04399871826172,189.60899353027344 37.63100051879883,193.00900268554688 38.29399871826172,196.43299865722656 C39.608001708984375,205.46600341796875 43.6619987487793,214.9149932861328 42.40800094604492,224.0469970703125 C39.79499816894531,236.70700073242188 -17.702999114990234,232.8489990234375 -28.006999969482422,229.49099731445312 C-39.527000427246094,226.71600341796875 -31.763999938964844,208.5749969482422 -30.93000030517578,200.46299743652344 C-30.007999420166016,195.75 -29.319000244140625,191.44400024414062 -28.645999908447266,186.18600463867188 C-28.64299964904785,185.38299560546875 -28.336000442504883,184.44000244140625 -28.97100067138672,183.88900756835938 C-30.20800018310547,183.7239990234375 -31.2189998626709,185.34100341796875 -32.132999420166016,186.05599975585938 C-37.9370002746582,191.85699462890625 -41.334999084472656,198.8800048828125 -45.542999267578125,205.7729949951172 C-50.27799987792969,215.75599670410156 -56.89500045776367,219.82899475097656 -67.99400329589844,216.76400756835938 C-79.0979995727539,214.57899475097656 -101.90699768066406,204.85899353027344 -105.29900360107422,193.50799560546875 C-104.26799774169922,185.61599731445312 -97.58200073242188,179.52499389648438 -93.38500213623047,173.11599731445312 C-81.8759994506836,156.2729949951172 -70.19100189208984,139.4969940185547 -59.07500076293945,122.39900207519531 C-55.0359992980957,115.63200378417969 -45.362998962402344,99.06500244140625 -53.444000244140625,92.72599792480469 C-58.2400016784668,88.51300048828125 -65.20099639892578,91.40799713134766 -70.66500091552734,92.64199829101562 C-75.04900360107422,93.7770004272461 -79.41500091552734,94.99299621582031 -83.81099700927734,96.0739974975586 C-93.8030014038086,98.58000183105469 -104.01699829101562,99.91799926757812 -114.32599639892578,100.43299865722656 C-130.29100036621094,101.4530029296875 -146.58999633789062,99.3270034790039 -156.90699768066406,85.03700256347656 C-158.85800170898438,82.5459976196289 -159.39300537109375,80.10099792480469 -155.9029998779297,79.13700103759766 C-146.4739990234375,76.02999877929688 -135.8509979248047,76.09600067138672 -126.77400207519531,72.02100372314453 C-123.72799682617188,70.62999725341797 -111.76499938964844,64.03099822998047 -119.46700286865234,61.268001556396484 C-128.01699829101562,58.21200180053711 -136.5240020751953,58.55400085449219 -145.35400390625,58.51100158691406 C-167.0500030517578,57.736000061035156 -189.07000732421875,51.69599914550781 -206.75799560546875,38.875999450683594 C-216.38099670410156,30.934999465942383 -222.36199951171875,19.740999221801758 -226.00100708007812,7.622000217437744 C-226.99099731445312,3.2339999675750732 -225.29800415039062,-2.308000087738037 -219.78700256347656,-0.3089999854564667 C-207.6959991455078,2.6059999465942383 -196.09300231933594,6.4019999504089355 -183.64500427246094,5.408999919891357 C-178.9010009765625,5.10699987411499 -163.83399963378906,3.8519999980926514 -166.51699829101562,-3.7009999752044678 C-167.54299926757812,-5.568999767303467 -170.06500244140625,-6.375999927520752 -172.29100036621094,-7.36299991607666 C-175.35499572753906,-8.656000137329102 -178.52200317382812,-9.61299991607666 -181.6439971923828,-10.711999893188477 C-228.1790008544922,-29.01300048828125 -254.80999755859375,-88.5719985961914 -236.85800170898438,-131.61099243164062 C-234.67300415039062,-139.31100463867188 -231.85899353027344,-147.0290069580078 -225.3979949951172,-152.11599731445312 C-222.81199645996094,-154.2830047607422 -219.70199584960938,-156.8459930419922 -216.2239990234375,-156.468994140625 C-211.37100219726562,-155.7310028076172 -211.06900024414062,-149.93099975585938 -210.41099548339844,-146.00100708007812 C-207.8070068359375,-128.44000244140625 -198.7949981689453,-112.08999633789062 -187.58900451660156,-98.86100006103516 C-182.6060028076172,-96.36399841308594 -184.8179931640625,-104.46900177001953 -185.00999450683594,-106.9280014038086 C-188.26699829101562,-125.27899932861328 -188.1909942626953,-143.7480010986328 -185.6300048828125,-162.06100463867188 C-183.7429962158203,-182.57699584960938 -175.42999267578125,-201.87600708007812 -158.5229949951172,-214.093994140625 C-146.25,-223.54600524902344 -131.81300354003906,-229.4709930419922 -116.92400360107422,-233.45399475097656 C-109.62799835205078,-235.66000366210938 -100.31400299072266,-236.1820068359375 -100.4739990234375,-225.5449981689453 C-100.60299682617188,-217.88099670410156 -103.52200317382812,-211.33999633789062 -105.10099792480469,-204.05599975585938 C-114.04399871826172,-165.83799743652344 -104.95899963378906,-114.09500122070312 -80.18499755859375,-83.4800033569336 C-26.304000854492188,-8.4399995803833 43.159000396728516,-13.890999794006348 92.86100006103516,-89.88999938964844 C119.61499786376953,-129.36399841308594 121.44499969482422,-174.71299743652344 110.0999984741211,-220.88400268554688 C107.62899780273438,-231.53199768066406 112.16300201416016,-236.70700073242188 123.33599853515625,-233.8800048828125 C135.24400329589844,-230.5800018310547 146.9010009765625,-226.531005859375 157.58200073242188,-220.30299377441406 C180.89999389648438,-207.0290069580078 192.09300231933594,-186.75999450683594 194.32400512695312,-160.3730010986328 C196.93099975585938,-141.4949951171875 197.41299438476562,-122.59300231933594 192.5749969482422,-103.73799896240234 C192.31199645996094,-102.33999633789062 191.28900146484375,-98.77100372314453 192.20799255371094,-97.87699890136719 C192.20799255371094,-97.87699890136719 192.26699829101562,-97.8550033569336 192.26699829101562,-97.8550033569336z"></path></g><g opacity="1" transform="matrix(1,0,0,1,793.7130126953125,2571.97900390625)"><path fill="rgb(0,0,0)" fill-opacity="1" d=" M-38.38800048828125,-46.56800079345703 C-38.38800048828125,-38.08700180053711 -38.64799880981445,-32.8390007019043 -38.33700180053711,-27.625 C-37.53099822998047,-14.116999626159668 -30.315000534057617,-5.429999828338623 -17.600000381469727,-1.2339999675750732 C-5.1579999923706055,2.871999979019165 7.245999813079834,2.8369998931884766 19.56599998474121,-1.871000051498413 C31.322999954223633,-6.36299991607666 38.10599899291992,-14.458000183105469 38.20500183105469,-27.42300033569336 C38.244998931884766,-32.71099853515625 38.21099853515625,-37.999000549316406 38.21099853515625,-43.33300018310547 C49.49399948120117,-41.90999984741211 57.6510009765625,-35.189998626708984 59.61600112915039,-24.017000198364258 C61.58100128173828,-12.847999572753906 61.44200134277344,-1.7300000190734863 56.082000732421875,9.097999572753906 C44.6870002746582,32.12200164794922 25.89900016784668,45.25899887084961 1.0010000467300415,45.98699951171875 C-18.86199951171875,46.56800079345703 -36.42599868774414,37.82899856567383 -48.60900115966797,20.72599983215332 C-57.018001556396484,8.920999526977539 -61.58100128173828,-3.76200008392334 -60.02000045776367,-18.530000686645508 C-58.62099838256836,-31.761999130249023 -51.59199905395508,-40.09700012207031 -38.38800048828125,-46.56800079345703z"></path></g></g></g></g></svg>