<svg xmlns="http://www.w3.org/2000/svg" xmlns:xlink="http://www.w3.org/1999/xlink" viewBox="0 0 512 512" width="512" height="512" style="width: 100%; height: 100%; transform: translate3d(0,0,0);" preserveAspectRatio="xMidYMid meet"><defs><clipPath id="__lottie_element_53494"><rect width="512" height="512" x="0" y="0"></rect></clipPath></defs><g clip-path="url(#__lottie_element_53494)"><g style="display: block;" transform="matrix(1,0,0,1,0,0)" opacity="1"><g opacity="1" transform="matrix(1,0,0,1,355.87799072265625,208.59500122070312)"><path fill="rgb(0,0,0)" fill-opacity="1" d=" M107.4469985961914,-2.015000104904175 C110.86199951171875,2.257999897003174 99.47699737548828,4.329999923706055 97.25700378417969,5.10099983215332 C74.08899688720703,13.142999649047852 49.42900085449219,15.135000228881836 25.8439998626709,21.406999588012695 C25.8439998626709,21.406999588012695 1.3450000286102295,106.03800201416016 1.3450000286102295,106.03800201416016 C-6.4029998779296875,97.8010025024414 -10.041999816894531,82.08999633789062 -13.461000442504883,70.89800262451172 C-18.283000946044922,55.10900115966797 -21.982999801635742,38.986000061035156 -25.628000259399414,22.909000396728516 C-25.628000259399414,22.909000396728516 -110.86100006103516,1.0160000324249268 -110.86100006103516,1.0160000324249268 C-110.85600280761719,-6.064000129699707 -34.50199890136719,-16.929000854492188 -29.284000396728516,-21.464000701904297 C-20.256000518798828,-29.312999725341797 -11.989999771118164,-92.322998046875 -1.684999942779541,-106.03800201416016 C-1.684999942779541,-106.03800201416016 23.628999710083008,-23.277000427246094 23.628999710083008,-23.277000427246094 C23.628999710083008,-23.277000427246094 107.4469985961914,-2.015000104904175 107.4469985961914,-2.015000104904175z"></path></g><g opacity="1" transform="matrix(1,0,0,1,254.4040069580078,256)"><path fill="rgb(0,0,0)" fill-opacity="1" d=" M241.59100341796875,19.902999877929688 C228.91099548339844,69.80000305175781 192.43499755859375,116.89399719238281 150.0279998779297,145.57200622558594 C110.4229965209961,172.3560028076172 55.10200119018555,189.69200134277344 14.135000228881836,156.47999572753906 C6.03000020980835,149.90899658203125 -8.527999877929688,129.0279998779297 -15.380000114440918,126.83499908447266 C-29.094999313354492,122.44400024414062 -55.46500015258789,140.33200073242188 -70.5530014038086,128.96200561523438 C-71.50599670410156,123.94200134277344 -66.57599639892578,126.14199829101562 -63.42399978637695,125.95700073242188 C-52.07500076293945,125.28800201416016 -10.866000175476074,120.94200134277344 -20.56399917602539,101.43699645996094 C-23.698999404907227,95.13300323486328 -39.6879997253418,92.57599639892578 -46.132999420166016,78.05000305175781 C-55.332000732421875,57.31800079345703 -48.64699935913086,61.733001708984375 -36.00899887084961,53.417999267578125 C-16.589000701904297,40.638999938964844 -15.798999786376953,31.89299964904785 -34.018001556396484,16.996999740600586 C-52.78900146484375,1.6490000486373901 -75.1259994506836,-2.8959999084472656 -88.56199645996094,-26.367000579833984 C-125.072998046875,-90.14399719238281 -66.54000091552734,-186.33599853515625 -7.385000228881836,-215.70899963378906 C2.319999933242798,-220.5279998779297 24.024999618530273,-228.3820037841797 40.6150016784668,-230.94700622558594 C75.72100067138672,-236.375 102.83799743652344,-230.94700622558594 102.83799743652344,-230.94700622558594 C91.18099975585938,-241.28799438476562 69.57599639892578,-246.14500427246094 54.30400085449219,-248.7100067138672 C-89.99800109863281,-272.9440002441406 -227.32000732421875,-161.0540008544922 -235.91000366210938,-15.88700008392334 C-247.0240020751953,171.9429931640625 -70,311.1659851074219 106.85600280761719,230.8939971923828 C180.50100708007812,197.4669952392578 247.0240020751953,110.30400085449219 243.5989990234375,26.99799919128418 C243.4980010986328,24.527000427246094 245.1529998779297,19.42099952697754 241.59100341796875,19.902999877929688z M-121.91899871826172,14.345000267028809 C-127.19599914550781,32.474998474121094 -177.56900024414062,30.6560001373291 -176.68699645996094,12.939000129699707 C-176.29100036621094,4.9670000076293945 -158.2760009765625,-7.2170000076293945 -150.61399841308594,-8.262999534606934 C-139.20199584960938,-9.819999694824219 -117.81700134277344,0.25200000405311584 -121.91899871826172,14.345000267028809z"></path></g></g></g></svg>