<svg xmlns="http://www.w3.org/2000/svg" xmlns:xlink="http://www.w3.org/1999/xlink" viewBox="0 0 512 512" width="512" height="512" style="width: 100%; height: 100%; transform: translate3d(0,0,0);" preserveAspectRatio="xMidYMid meet"><defs><clipPath id="__lottie_element_53010"><rect width="512" height="512" x="0" y="0"></rect></clipPath></defs><g clip-path="url(#__lottie_element_53010)"><g style="display: block;" transform="matrix(1,0,0,1,254.92599487304688,251.37899780273438)" opacity="1"><g opacity="1" transform="matrix(1,0,0,1,0,0)"><path fill="rgb(4,5,52)" fill-opacity="1" d=" M-235.0500030517578,-219.06700134277344 C-253.49899291992188,-212.9550018310547 -242.79800415039062,-134.36199951171875 -186.89199829101562,-76.76200103759766 C-130.98599243164062,-19.16200065612793 -76.77400207519531,-8.996999740600586 -76.77400207519531,-8.996999740600586 C-76.77400207519531,-8.996999740600586 -175.0330047607422,-14.925999641418457 -177.57400512695312,2.861999988555908 C-180.11500549316406,20.649999618530273 -142.44400024414062,39.97200012207031 -120.1969985961914,39.20500183105469 C-120.1969985961914,39.20500183105469 -155.5500030517578,45.2140007019043 -195.36199951171875,68.08499908447266 C-235.1739959716797,90.95600128173828 -237.71499633789062,103.66200256347656 -237.71499633789062,107.89700317382812 C-237.71499633789062,112.13200378417969 -194.51499938964844,118.06199645996094 -194.51499938964844,118.06199645996094 C-194.51499938964844,118.06199645996094 -208.91600036621094,167.1909942626953 -200.44500732421875,180.74400329589844 C-191.9739990234375,194.2969970703125 -143.79400634765625,174.82000732421875 -143.79400634765625,174.82000732421875 C-143.79400634765625,174.82000732421875 -139.45700073242188,228.1790008544922 -125.90399932861328,233.26100158691406 C-112.35099792480469,238.34300231933594 -71.25900268554688,211.8209991455078 -71.25900268554688,211.8209991455078 C-71.25900268554688,211.8209991455078 -11.998000144958496,253.59100341796875 5.166999816894531,243.42599487304688 C22.332000732421875,233.26100158691406 6.236999988555908,189.21400451660156 7.084000110626221,172.2729949951172 C7.084000110626221,172.2729949951172 -9.88599967956543,165.61199951171875 -31.04800033569336,144.3780059814453 C-52.209999084472656,123.14399719238281 -59.83300018310547,89.26100158691406 -43.73899841308594,83.33200073242188 C-27.645000457763672,77.40299987792969 -49.20899963378906,108.4489974975586 -17.479999542236328,135.85000610351562 C14.24899959564209,163.25100708007812 13.859999656677246,171.42599487304688 66.37799835205078,166.343994140625 C118.89600372314453,161.26199340820312 129.9080047607422,145.16700744628906 143.46099853515625,144.32000732421875 C157.01400756835938,143.47300720214844 178.0679931640625,163.43099975585938 210.60000610351562,139.61900329589844 C243.1320037841797,115.80699920654297 254.42599487304688,74.01499938964844 230.70799255371094,48.60300064086914 C206.99000549316406,23.19099998474121 176.447998046875,30.732999801635742 146.8249969482422,26.959999084472656 C117.2020034790039,23.187000274658203 79.93099975585938,4.556000232696533 79.93099975585938,4.556000232696533 C79.93099975585938,4.556000232696533 139.74400329589844,0.3619999885559082 175.36599731445312,-25.37299919128418 C231.25599670410156,-65.7490005493164 243.3560028076172,-129.2790069580078 224.47999572753906,-141.13800048828125 C213.32200622558594,-148.1479949951172 198.2209930419922,-125.89099884033203 187.20899963378906,-125.89099884033203 C176.19700622558594,-125.89099884033203 191.44500732421875,-177.56199645996094 171.6959991455078,-183.49099731445312 C133.572998046875,-194.93699645996094 148.24400329589844,-63.20899963378906 77.46099853515625,-38.34600067138672 C20.163999557495117,-18.219999313354492 -29.69300079345703,-40.87099838256836 -58.4370002746582,-103.0199966430664 C-89.77799987792969,-170.78500366210938 -75.9280014038086,-241.83900451660156 -96.25700378417969,-244.85299682617188 C-116.58599853515625,-247.86700439453125 -112.43599700927734,-192.58999633789062 -124.6760025024414,-190.1580047607422 C-136.91600036621094,-187.7259979248047 -154.70399475097656,-248.61500549316406 -175.0330047607422,-244.85299682617188 C-195.36199951171875,-241.09100341796875 -169.51300048828125,-176.27000427246094 -178.20199584960938,-170.56300354003906 C-186.89100646972656,-164.8560028076172 -214.5970001220703,-225.84300231933594 -235.0500030517578,-219.06700134277344z"></path></g></g></g></svg>