<svg xmlns="http://www.w3.org/2000/svg" xmlns:xlink="http://www.w3.org/1999/xlink" viewBox="0 0 512 512" width="512" height="512" style="width: 100%; height: 100%; transform: translate3d(0,0,0);" preserveAspectRatio="xMidYMid meet"><defs><clipPath id="__lottie_element_53519"><rect width="512" height="512" x="0" y="0"></rect></clipPath></defs><g clip-path="url(#__lottie_element_53519)"><g style="display: block;" transform="matrix(2.962939977645874,0,0,2.962939977645874,2.8374481201171875,2.8374481201171875)" opacity="1"><g opacity="1" transform="matrix(1,0,0,1,49.284000396728516,57.10499954223633)"><path fill="rgb(0,0,0)" fill-opacity="1" d=" M-0.5799999833106995,24.47100067138672 C1.3329999446868896,19.760000228881836 -0.6830000281333923,14.505000114440918 -5.091000080108643,12.0600004196167 C-5.091000080108643,12.0600004196167 14.644000053405762,-31.80500030517578 14.644000053405762,-31.80500030517578 C18.257999420166016,-30.18899917602539 22.006000518798828,-27.797000885009766 25.28499984741211,-24.232999801635742 C32.35100173950195,-16.554000854492188 33.132999420166016,-7.730999946594238 33.141998291015625,-4.293000221252441 C33.150001525878906,-0.6589999794960022 36.19900131225586,2.2820000648498535 39.95500183105469,2.2820000648498535 C39.95500183105469,2.2820000648498535 39.97100067138672,2.2820000648498535 39.97100067138672,2.2820000648498535 C43.73500061035156,2.2739999294281006 46.777000427246094,-0.6850000023841858 46.76900100708008,-4.323999881744385 C46.75400161743164,-10.460000038146973 45.26599884033203,-22.343000411987305 35.465999603271484,-32.99399948120117 C29.9060001373291,-39.0369987487793 23.437999725341797,-42.69900131225586 17.513999938964844,-44.91699981689453 C16.82900047302246,-46.94300079345703 15.465999603271484,-48.55400085449219 13.53499984741211,-49.28799819946289 C13.53499984741211,-49.28799819946289 -1.8300000429153442,-55.124000549316406 -1.8300000429153442,-55.124000549316406 C-5.932000160217285,-56.68299865722656 -10.951000213623047,-53.70500183105469 -12.954000473022461,-48.525001525878906 C-12.954000473022461,-48.525001525878906 -31.371999740600586,2.132999897003174 -31.371999740600586,2.132999897003174 C-36.21099853515625,1.222000002861023 -41.18299865722656,3.739000082015991 -43.04999923706055,8.336000442504883 C-43.04999923706055,8.336000442504883 -44.792999267578125,12.626999855041504 -44.792999267578125,12.626999855041504 C-46.777000427246094,17.51099967956543 -44.54499816894531,22.985000610351562 -39.79600143432617,25.301000595092773 C-39.79600143432617,25.301000595092773 -42.38199996948242,32.415000915527344 -42.38199996948242,32.415000915527344 C-46.02899932861328,41.8489990234375 -44.68899917602539,51.00899887084961 -37.220001220703125,53.84600067138672 C-29.75,56.683998107910156 -22.322999954223633,50.85599899291992 -18.356000900268555,41.542999267578125 C-18.356000900268555,41.542999267578125 -15.253000259399414,34.64500045776367 -15.253000259399414,34.64500045776367 C-10.045999526977539,36.29399871826172 -4.3520002365112305,33.757999420166016 -2.322999954223633,28.761999130249023 C-2.322999954223633,28.761999130249023 -0.5799999833106995,24.47100067138672 -0.5799999833106995,24.47100067138672z"></path></g><g opacity="1" transform="matrix(1,0,0,1,104.13800048828125,107.75299835205078)"><path fill="rgb(0,0,0)" fill-opacity="1" d=" M57.72200012207031,20.21500015258789 C57.72200012207031,20.21500015258789 54.63600158691406,16.055999755859375 54.63600158691406,16.055999755859375 C47.319000244140625,6.195000171661377 46.733001708984375,-6.920000076293945 53.143001556396484,-17.354999542236328 C53.143001556396484,-17.354999542236328 57.34400177001953,-24.194000244140625 57.34400177001953,-24.194000244140625 C58.98400115966797,-26.863000869750977 57.30500030517578,-30.28700065612793 54.13199996948242,-30.749000549316406 C54.13199996948242,-30.749000549316406 46.54199981689453,-31.854000091552734 46.54199981689453,-31.854000091552734 C34.95500183105469,-33.540000915527344 25.118999481201172,-40.95399856567383 20.597999572753906,-51.40800094604492 C20.597999572753906,-51.40800094604492 17.874000549316406,-57.709999084472656 17.874000549316406,-57.709999084472656 C16.611000061035156,-60.63100051879883 12.654999732971191,-61.32400131225586 10.413000106811523,-59.018001556396484 C10.413000106811523,-59.018001556396484 1.9819999933242798,-50.347999572753906 1.9819999933242798,-50.347999572753906 C-4.953999996185303,-43.21500015258789 -15.25,-40.12200164794922 -25.143999099731445,-42.19900131225586 C-25.143999099731445,-42.19900131225586 -35.85499954223633,-44.44900131225586 -35.85499954223633,-44.44900131225586 C-38.99700164794922,-45.108001708984375 -41.82500076293945,-42.472999572753906 -41.262001037597656,-39.4119987487793 C-41.262001037597656,-39.4119987487793 -39.875,-31.85700035095215 -39.875,-31.85700035095215 C-37.80799865722656,-20.60300064086914 -42.202999114990234,-9.14799976348877 -51.361000061035156,-1.9229999780654907 C-51.361000061035156,-1.9229999780654907 -57.22100067138672,2.697999954223633 -57.22100067138672,2.697999954223633 C-59.757999420166016,4.698999881744385 -59.32099914550781,8.562999725341797 -56.39799880981445,9.98799991607666 C-56.39799880981445,9.98799991607666 -53.643001556396484,11.331999778747559 -53.643001556396484,11.331999778747559 C-41.53499984741211,17.236000061035156 -34.191001892089844,29.516000747680664 -34.93899917602539,42.611000061035156 C-34.93899917602539,42.611000061035156 -35.24100112915039,47.882999420166016 -35.24100112915039,47.882999420166016 C-35.428001403808594,51.15700149536133 -31.95800018310547,53.457000732421875 -28.868000030517578,52.106998443603516 C-28.868000030517578,52.106998443603516 -19.854999542236328,48.17100143432617 -19.854999542236328,48.17100143432617 C-10.220000267028809,43.9630012512207 1.0820000171661377,45.720001220703125 8.866999626159668,52.63600158691406 C8.866999626159668,52.63600158691406 16.149999618530273,59.10499954223633 16.149999618530273,59.10499954223633 C18.64699935913086,61.32400131225586 22.687000274658203,60.189998626708984 23.56999969482422,57.02399826049805 C23.56999969482422,57.02399826049805 25.52400016784668,50.00699996948242 25.52400016784668,50.00699996948242 C29.011999130249023,37.49100112915039 40.18000030517578,28.395000457763672 53.525001525878906,27.200000762939453 C53.525001525878906,27.200000762939453 54.46699905395508,27.115999221801758 54.46699905395508,27.115999221801758 C57.944000244140625,26.804000854492188 59.75699996948242,22.958999633789062 57.72200012207031,20.21500015258789z M7.993000030517578,-24.40399932861328 C2.0869998931884766,-24.79800033569336 -2.930999994277954,-26.375 -19.56999969482422,-19.20199966430664 C-19.56999969482422,-19.20199966430664 -10.619999885559082,-32.132999420166016 -0.07400000095367432,-33.02000045776367 C11.522000312805176,-33.994998931884766 23.118999481201172,-23.393999099731445 7.993000030517578,-24.40399932861328z"></path></g></g></g></svg>