<svg xmlns="http://www.w3.org/2000/svg" xmlns:xlink="http://www.w3.org/1999/xlink" viewBox="0 0 512 512" width="512" height="512" style="width: 100%; height: 100%; transform: translate3d(0,0,0);" preserveAspectRatio="xMidYMid meet"><defs><clipPath id="__lottie_element_53979"><rect width="512" height="512" x="0" y="0"></rect></clipPath></defs><g clip-path="url(#__lottie_element_53979)"><g style="display: block;" transform="matrix(1,0,0,1,261.6210021972656,257.2510070800781)" opacity="1"><g opacity="1" transform="matrix(1,0,0,1,144.32400512695312,-118.05000305175781)"><path fill="rgb(0,0,0)" fill-opacity="1" d=" M4.7729997634887695,86.23500061035156 C1.840999960899353,86.18800354003906 -0.06199999898672104,83.8290023803711 -1.5329999923706055,80.79000091552734 C-24.94499969482422,32.435001373291016 -40.845001220703125,31.273000717163086 -70.7959976196289,18.763999938964844 C-79.0780029296875,15.305000305175781 -79.43800354003906,4.936999797821045 -70.90799713134766,2.822999954223633 C-27.65999984741211,-7.89300012588501 -19.905000686645508,-37.3650016784668 -12.414999961853027,-79.01699829101562 C-11.72700023651123,-82.84400177001953 -9.833999633789062,-85.81099700927734 -5.591000080108643,-86.20099639892578 C-1.8980000019073486,-86.54100036621094 0.35600000619888306,-84.28099822998047 1.805999994277954,-81.19999694824219 C2.99399995803833,-78.677001953125 4.236999988555908,-76.1240005493164 4.974999904632568,-73.4520034790039 C12.0649995803833,-47.766998291015625 35.15999984741211,-13.322999954223633 70.15899658203125,-1.8170000314712524 C80.13300323486328,1.4620000123977661 78.89399719238281,10.857999801635742 69.93499755859375,15.88599967956543 C45.58700180053711,29.551000595092773 24.690000534057617,44.457000732421875 10.543000221252441,83.3030014038086 C9.840999603271484,85.23100280761719 7.699999809265137,86.07599639892578 4.7729997634887695,86.23500061035156z"></path></g><g opacity="1" transform="matrix(1,0,0,1,9.32800006866455,-125.97100067138672)"><path fill="rgb(0,0,0)" fill-opacity="1" d=" M50.60300064086914,-5.046000003814697 C50.470001220703125,-1.2510000467300415 48.91999816894531,1.1779999732971191 46.426998138427734,2.568000078201294 C28.238000869750977,12.704999923706055 17.84000015258789,28.674999237060547 11.847000122070312,48.05799865722656 C10.881999969482422,51.18000030517578 9.4350004196167,54.165000915527344 5.499000072479248,54.231998443603516 C1.565999984741211,54.29899978637695 0.2160000056028366,51.28200149536133 -1.1039999723434448,48.290000915527344 C-16.753000259399414,12.824000358581543 -31.10099983215332,11.27400016784668 -45.250999450683594,7.340000152587891 C-52.30699920654297,5.377999782562256 -52.47700119018555,-3.618000030517578 -45.220001220703125,-5.415999889373779 C-20.243000030517578,-11.604999542236328 -11.711999893188477,-29.83099937438965 -10.138999938964844,-49.83599853515625 C-9.9399995803833,-52.361000061035156 -7.706999778747559,-54.08300018310547 -5.0289998054504395,-54.222999572753906 C-1.687000036239624,-54.39799880981445 0.2759999930858612,-52.237998962402344 0.7770000100135803,-49.27899932861328 C4.502999782562256,-27.267000198364258 20.70800018310547,-19.02400016784668 39.6510009765625,-13.63700008392334 C44.62900161743164,-12.220999717712402 49.86199951171875,-10.85200023651123 50.60300064086914,-5.046000003814697z"></path></g><g opacity="1" transform="matrix(1,0,0,1,70.61100006103516,-210.76100158691406)"><path fill="rgb(0,0,0)" fill-opacity="1" d=" M2.7009999752044678,41.000999450683594 C-1.7680000066757202,41.13600158691406 -3.7149999141693115,39.222999572753906 -5.156000137329102,36.6870002746582 C-12.99899959564209,22.878999710083008 -23.98699951171875,12.14799976348877 -36.89099884033203,3.0250000953674316 C-44.28900146484375,-2.2060000896453857 -43.95899963378906,-7.618000030517578 -35.861000061035156,-11.217000007629395 C-22.496999740600586,-17.156999588012695 -12.704999923706055,-23.445999145507812 -3.9709999561309814,-35.00600051879883 C3.6610000133514404,-45.108001708984375 9.836999893188477,-41.21200180053711 13.564000129699707,-32.51499938964844 C16.25200080871582,-26.242000579833984 26.16900062561035,-18.06399917602539 37.194000244140625,-11.510000228881836 C43.1150016784668,-7.989999771118164 44.012001037597656,-2.63700008392334 38.645999908447266,1.6080000400543213 C32.47999954223633,6.486000061035156 18.131999969482422,15.793000221252441 10.277999877929688,33.77199935913086 C8.416999816894531,37.26499938964844 6.025000095367432,40.599998474121094 2.7009999752044678,41.000999450683594z"></path></g><g opacity="1" transform="matrix(1,0,0,1,0,0)"><path fill="rgb(0,0,0)" fill-opacity="1" d=" M175.18,49.5 C169.76,54.88 163.45,59.04 156.57,62.41 C135.56,72.71 113.12,78.5 90.26,82.22 C57.95,87.48 25.41,91.14 4.31,90.37 C-50.68,89.85 -93.57,86.61 -135.52,75.42 C-149.43,71.71 -163.09,67.23 -175.42,59.5 C-181.57,55.65 -187.21,51.22 -190.59,44.58 C-192.42,40.99 -193.91,37.25 -193.04,33.09 C-192.34,29.74 -190.62,27.15 -187,26.48 C-183.49,25.82 -180.07,26.84 -179,30.19 C-173.27,48.14 -157.21,52.46 -142.33,57.75 C-119.26,65.96 -95.04,69.19 -70.82,71.66 C-26.21,76.22 18.48,75.8 63.07,71.53 C89.29,69.01 115.38,65.26 140.46,56.53 C147.64,54.02 154.67,51.2 161.2,47.28 C167.85,43.28 173.68,38.6 175.07,30.25 C175.38,28.38 175.56,25.79 178.2,25.9 C181.25,26.02 181.62,28.78 181.97,31.13 C183.04,38.46 180.23,44.48 175.18,49.5z M183,-3.04 C168.43,-9.84 153.17,-14.34 137.53,-17.87 C107.42,-24.66 76.78,-27.53 46.1,-29.26 C18.58,-30.81 -9.03,-30.4 -36.58,-29.26 C-47.41,-28.81 -48.66,-26.48 -43.86,-16.69 C-36.99,-2.68 -31.16,11.76 -25.31,26.19 C-23.82,29.86 -22.91,33.79 -22.01,37.66 C-21.56,39.63 -22.04,41.72 -23.95,42.91 C-26.02,44.21 -27.98,43.15 -29.34,41.73 C-32.09,38.85 -34.63,35.76 -37.11,32.64 C-53,12.57 -67.21,-8.69 -81.29,-30.02 C-93.39,-48.35 -105.73,-66.52 -115.61,-86.23 C-116.54,-88.08 -117.21,-89.86 -117.63,-91.63 C-111.71,-100.4 -108.25,-110.98 -108.25,-122.36 C-108.25,-152.71 -132.86,-177.32 -163.22,-177.32 C-193.57,-177.32 -218.18,-152.71 -218.18,-122.36 C-218.18,-96.87 -200.82,-75.5 -177.3,-69.28 C-176.01,-67.2 -175.17,-64.75 -174.65,-61.82 C-172.46,-49.24 -169.35,-36.82 -166.91,-24.28 C-164.48,-11.76 -165.36,-10.41 -177.62,-6.02 C-187.81,-2.36 -197.74,1.87 -206.56,8.21 C-213.85,13.45 -219.74,19.68 -220.72,29.35 C-227.49,96.06 -187.73,150.55 -150.21,180.19 C-138.89,189.13 -126.71,196.74 -113.7,203.03 C-110.59,204.54 -105.5,206.45 -109.49,210.84 C-119.88,222.28 -118.26,232.26 -105.15,237.02 C-44.87,258.87 63.92,254.85 101.58,235.38 C112.36,229.81 113.95,221.14 106.04,211.98 C103.99,209.6 101.37,207.71 97.74,204.45 C106.15,199.48 113.19,195.75 119.78,191.36 C175.74,154.08 208.15,103.88 207.13,34.56 C206.86,16.09 199.06,4.46 183,-3.04z"></path><g opacity="1" transform="matrix(1,0,0,1,-5.551000118255615,58.18199920654297)"></g><g opacity="1" transform="matrix(1,0,0,1,-7.164999961853027,37.22200012207031)"></g></g></g></g></svg>