<svg xmlns="http://www.w3.org/2000/svg" xmlns:xlink="http://www.w3.org/1999/xlink" viewBox="0 0 512 512" width="512" height="512" style="width: 100%; height: 100%; transform: translate3d(0,0,0);" preserveAspectRatio="xMidYMid meet"><defs><clipPath id="__lottie_element_51425"><rect width="512" height="512" x="0" y="0"></rect></clipPath></defs><g clip-path="url(#__lottie_element_51425)"><g style="display: block;" transform="matrix(1.0299999713897705,0,0,1.0299999713897705,-3342.807373046875,-2554.69482421875)" opacity="1"><g opacity="1" transform="matrix(1,0,0,1,0,0)"><g opacity="1" transform="matrix(1,0,0,1,3494.800048828125,2731.467041015625)"><path fill="rgb(0,0,0)" fill-opacity="1" d=" M98.49800109863281,-162.35000610351562 C100.33200073242188,-167.84500122070312 96.29000091552734,-174.3280029296875 93.65899658203125,-179.38400268554688 C81.48899841308594,-200.97000122070312 54.630001068115234,-211.51699829101562 31.02199935913086,-203.74899291992188 C-4.896999835968018,-196.13099670410156 -27.11199951171875,-165.5229949951172 -37.62900161743164,-132.3419952392578 C-41.91400146484375,-107.18900299072266 -63.64500045776367,-110.38400268554688 -64.21900177001953,-133.9949951171875 C-64.72000122070312,-185.61500549316406 -31.884000778198242,-226.87899780273438 16.461000442504883,-242.76300048828125 C31.56999969482422,-246.875 47.340999603271484,-243.51699829101562 62.74700164794922,-244.16900634765625 C92.69999694824219,-241.66600036621094 125.08300018310547,-228.04100036621094 141.9669952392578,-202.08900451660156 C149.8470001220703,-187.8719940185547 159.83999633789062,-174.16600036621094 172.06500244140625,-163.51800537109375 C196.177001953125,-140.82699584960938 232.63900756835938,-148.94200134277344 225.76600646972656,-128.05999755859375 C222.43600463867188,-116.7239990234375 221.89199829101562,-103.54299926757812 214.72500610351562,-93.87899780273438 C198.2469940185547,-81.56900024414062 166.18099975585938,-99.1520004272461 166.15699768066406,-66.9489974975586 C162.24400329589844,-34.645999908447266 166.7530059814453,-0.0729999989271164 158.9739990234375,31.34600067138672 C150.4810028076172,47.999000549316406 133.1959991455078,58.97999954223633 118.66200256347656,70.2040023803711 C110.00299835205078,75.85299682617188 104.80400085449219,84.3290023803711 104.21299743652344,94.49099731445312 C103.48799896240234,132.95199584960938 104.30999755859375,171.50999450683594 103.75299835205078,209.9720001220703 C103.1240005493164,218.18099975585938 105.72100067138672,228.66799926757812 99.35299682617188,234.96400451660156 C92.66100311279297,239.47500610351562 82.78299713134766,239.26300048828125 74.79399871826172,239.5500030517578 C67.4469985961914,240.03399658203125 60.31399917602539,238.1179962158203 60.237998962402344,229.8730010986328 C56.38600158691406,186.82200622558594 56.60100173950195,143.30499267578125 52.34600067138672,100.34400177001953 C51.055999755859375,94.9489974975586 46.012001037597656,93.11499786376953 41.01300048828125,93.05699920654297 C28.024999618530273,92.98100280761719 14.942999839782715,90.96800231933594 2.0230000019073486,92.1719970703125 C-9.555999755859375,94.89099884033203 -14.741000175476074,107.55899810791016 -23.15399932861328,114.927001953125 C-32.67900085449219,124.89900207519531 -42.29399871826172,134.8419952392578 -53.374000549316406,142.02499389648438 C-56.222999572753906,143.8459930419922 -59.38800048828125,146.2740020751953 -60.020999908447266,149.6840057373047 C-60.91899871826172,156.97799682617188 -54.09299850463867,162.4429931640625 -50.7760009765625,168.4219970703125 C-41.417999267578125,182.56300354003906 -31.79400062561035,196.60800170898438 -22.915000915527344,211.0290069580078 C-14.359000205993652,225.62100219726562 -6.551000118255615,239.375 -31.4689998626709,239.55099487304688 C-47.30400085449219,240.96299743652344 -63.516998291015625,240.7949981689453 -69.49400329589844,224.19700622558594 C-81.42500305175781,201.19400024414062 -97.77200317382812,181.20199584960938 -114.70099639892578,161.6909942626953 C-120.09400177001953,154.50799560546875 -126.08699798583984,142.45599365234375 -119.23100280761719,134.5780029296875 C-99.58699798583984,120.48300170898438 -78.83599853515625,106.00499725341797 -67.23899841308594,84.0770034790039 C-63.154998779296875,77.37100219726562 -67.7229995727539,68.27400207519531 -75.73500061035156,73.66699981689453 C-80.72799682617188,76.91600036621094 -84.35199737548828,82.072998046875 -88.40799713134766,86.24500274658203 C-104.95999908447266,105.14900207519531 -127.21299743652344,117.74800109863281 -149.6320037841797,128.47799682617188 C-161.2969970703125,132.85899353027344 -172.1199951171875,140.63999938964844 -174.49000549316406,153.58999633789062 C-179.0989990234375,173.10400390625 -178.3249969482422,193.13699340820312 -175.3090057373047,212.73800659179688 C-175.57699584960938,221.8419952392578 -164.8350067138672,240.73300170898438 -178.39500427246094,243.0070037841797 C-196.17300415039062,245.30999755859375 -222.927001953125,246.875 -225.86399841308594,223.9199981689453 C-231.0260009765625,197.5850067138672 -232.63900756835938,131.1320037841797 -217.25399780273438,109.33499908447266 C-207.33999633789062,97.41999816894531 -186.9709930419922,95.8010025024414 -178.8719940185547,82.31400299072266 C-177.45899963378906,78.90599822998047 -178.07200622558594,74.7300033569336 -178.625,71.05500030517578 C-184.6479949951172,42.6870002746582 -178.90699768066406,14.795000076293945 -176.09800720214844,-13.277999877929688 C-176.8040008544922,-18.983999252319336 -181.18600463867188,-23.277999877929688 -184.54600524902344,-27.67099952697754 C-191.88699340820312,-37.0260009765625 -195.28500366210938,-48.18899917602539 -197.9250030517578,-59.64099884033203 C-203.51800537109375,-75.4739990234375 -184.16099548339844,-77.88800048828125 -173.26199340820312,-81.41999816894531 C-160.85400390625,-85.73799896240234 -157.76499938964844,-78.73799896240234 -156.37399291992188,-67.15699768066406 C-154.6280059814453,-52.96799850463867 -140.39700317382812,-47.513999938964844 -127.58599853515625,-48.22999954223633 C-83.58300018310547,-48.11600112915039 -39.560001373291016,-47.41899871826172 4.429999828338623,-47.96200180053711 C13.381999969482422,-48.803001403808594 23.26799964904785,-48.854000091552734 31.559999465942383,-52.6510009765625 C59.625,-72.23100280761719 63.39400100708008,-110.35099792480469 76.3030014038086,-139.66900634765625 C82.4219970703125,-155.43499755859375 91.5739974975586,-153.5240020751953 98.43699645996094,-162.2010040283203 C98.43699645996094,-162.2010040283203 98.49800109863281,-162.35000610351562 98.49800109863281,-162.35000610351562z"></path></g><g opacity="1" transform="matrix(1,0,0,1,3663.118896484375,2870.287109375)"><path fill="rgb(0,0,0)" fill-opacity="1" d=" M-17.256000518798828,-75.26100158691406 C-13.611000061035156,-75.17500305175781 -10.642999649047852,-72.23799896240234 -7.916999816894531,-70.00299835205078 C-5.24399995803833,-67.75299835205078 -2.5940001010894775,-65.37799835205078 0.03099999949336052,-63.01100158691406 C15.156999588012695,-49.40599822998047 30.158000946044922,-35.638999938964844 45.32400131225586,-22.077999114990234 C47.95800018310547,-19.684999465942383 50.62200164794922,-16.704999923706055 50.91600036621094,-13.116000175476074 C51.33300018310547,-7.994999885559082 47.944000244140625,-3.2079999446868896 45.45399856567383,1.0880000591278076 C30.753999710083008,24.599000930786133 16.768999099731445,49.025001525878906 1.1820000410079956,72.77400207519531 C-0.35600000619888306,74.4540023803711 -2.184000015258789,75.29100036621094 -4.2129998207092285,75.01300048828125 C-8.041000366210938,74.35800170898438 -11.23900032043457,71.29199981689453 -14.253000259399414,68.96199798583984 C-19.861000061035156,64.28500366210938 -25.399999618530273,60.12099838256836 -31.09600067138672,55.222999572753906 C-33.16299819946289,53.457000732421875 -35.29399871826172,51.05799865722656 -34.8120002746582,48.2239990234375 C-34.58000183105469,46.58300018310547 -33.564998626708984,44.9119987487793 -32.53499984741211,43.492000579833984 C-26.555999755859375,35.60599899291992 -20.68600082397461,28.10099983215332 -15.33899974822998,20.472000122070312 C-12.76200008392334,16.799999237060547 -10.07800006866455,13.052000045776367 -7.609000205993652,9.286999702453613 C-4.764999866485596,4.909999847412109 -3.388000011444092,1.9630000591278076 -4.10099983215332,-1.0219999551773071 C-5.765999794006348,-6.672999858856201 -12.930999755859375,-11.788000106811523 -17.60700035095215,-16.173999786376953 C-25.777999877929688,-23.261999130249023 -33.30799865722656,-31.16699981689453 -40.676998138427734,-39.23099899291992 C-42.840999603271484,-41.62799835205078 -45.20399856567383,-44.095001220703125 -46.82099914550781,-46.87200164794922 C-51.332000732421875,-53.62099838256836 -43.2859992980957,-59.0620002746582 -37.827999114990234,-62.95600128173828 C-34.66299819946289,-65.23200225830078 -31.31800079345703,-67.5989990234375 -28.054000854492188,-69.91100311279297 C-24.575000762939453,-72.25800323486328 -21.285999298095703,-75.29100036621094 -17.43000030517578,-75.26399993896484 C-17.43000030517578,-75.26399993896484 -17.256000518798828,-75.26100158691406 -17.256000518798828,-75.26100158691406z"></path></g></g></g></g></svg>