<svg xmlns="http://www.w3.org/2000/svg" xmlns:xlink="http://www.w3.org/1999/xlink" viewBox="0 0 512 512" width="512" height="512" style="width: 100%; height: 100%; transform: translate3d(0,0,0);" preserveAspectRatio="xMidYMid meet"><defs><clipPath id="__lottie_element_51355"><rect width="512" height="512" x="0" y="0"></rect></clipPath></defs><g clip-path="url(#__lottie_element_51355)"><g style="display: block;" transform="matrix(1.0399999618530273,0,0,1.0399999618530273,-1699.45703125,-698.364990234375)" opacity="1"><g opacity="1" transform="matrix(1,0,0,1,1882.1650390625,914.9660034179688)"><path fill="rgb(0,0,0)" fill-opacity="1" d=" M43.356998443603516,-175.85000610351562 C44.34700012207031,-175.74600219726562 47.08700180053711,-158.9550018310547 52.83700180053711,-160.05099487304688 C56.33700180053711,-161.4550018310547 49.83700180053711,-175.7050018310547 69.38700103759766,-171.80999755859375 C97.83699798583984,-164.2050018310547 113.83699798583984,-135.20399475097656 137.63099670410156,-115.9020004272461 C157.83700561523438,-98.2040023803711 154.83700561523438,-76.7040023803711 168.6790008544922,-56.474998474121094 C185.33700561523438,-35.20399856567383 196.33700561523438,-27.704999923706055 212.70199584960938,-7.373000144958496 C219.33700561523438,0.7950000166893005 225.39599609375,16.481000900268555 221.93800354003906,26.562999725341797 C219.8509979248047,32.97700119018555 217.75100708007812,35.194000244140625 213.7449951171875,40.57600021362305 C206.78900146484375,49.92100143432617 202.7530059814453,47.709999084472656 192.12600708007812,52.07500076293945 C186.62600708007812,54.66699981689453 183.68099975585938,65.44000244140625 181.81900024414062,71.47699737548828 C178.7169952392578,81.88600158691406 161.94900512695312,98.7229995727539 151.18299865722656,102.48100280761719 C130.83700561523438,105.79499816894531 120.59200286865234,98.802001953125 110.84500122070312,96.48300170898438 C86.2229995727539,90.68000030517578 66.33699798583984,84.79499816894531 50.492000579833984,102.48999786376953 C45.36899948120117,109.17900085449219 40.27299880981445,118.45700073242188 39.44200134277344,127.12200164794922 C37.70000076293945,148.97799682617188 25.535999298095703,139.78799438476562 13.607999801635742,130.97999572753906 C-26.520000457763672,102.50499725341797 -58.569000244140625,63.624000549316406 -77.26899719238281,18.020000457763672 C-81.44599914550781,8.279000282287598 -84.51300048828125,-2.121999979019165 -89.80699920654297,-11.289999961853027 C-96.39099884033203,-21.113000869750977 -99.13099670410156,-12.736000061035156 -98.01799774169922,-4.940000057220459 C-95.89399719238281,11.324999809265137 -90.6760025024414,27.10700035095215 -85.64399719238281,42.72600173950195 C-76.46299743652344,72.82099914550781 -57.8120002746582,98.55799865722656 -34.95199966430664,119.78299713134766 C2.7769999504089355,155.63999938964844 53.058998107910156,176.30099487304688 105.31400299072266,180.2239990234375 C113.31199645996094,180.7239990234375 121.25700378417969,179.66200256347656 129.1999969482422,179.28799438476562 C142.74899291992188,179.1179962158203 133.22500610351562,186.73899841308594 127.42400360107422,189.86099243164062 C87.13700103759766,213.02200317382812 43.12900161743164,225.9510040283203 -3.6440000534057617,225.26699829101562 C-94.68900299072266,224.21800231933594 -183.8679962158203,169.2480010986328 -217.70899963378906,84.8740005493164 C-224.052001953125,69.94000244140625 -229.4550018310547,53.525001525878906 -231.43299865722656,37.11199951171875 C-243.781005859375,-44.36000061035156 -215.1439971923828,-119.7760009765625 -148.0489959716797,-169.4219970703125 C-122.0780029296875,-188.906005859375 -91.26200103759766,-202.68800354003906 -58.529998779296875,-205.50999450683594 C-32.7400016784668,-206.6840057373047 -48.430999755859375,-187.58599853515625 -42.4010009765625,-179.4510040283203 C-39.290000915527344,-177.25100708007812 -35.198001861572266,-180.33200073242188 -32.400001525878906,-182.32200622558594 C-27.23200035095215,-186.4499969482422 -22.277000427246094,-191.1580047607422 -17.174999237060547,-195.46099853515625 C-4.933000087738037,-205.71800231933594 6.848999977111816,-217.64199829101562 22.347999572753906,-222.62600708007812 C28.246000289916992,-224.48699951171875 35.09000015258789,-225.9510040283203 41.09000015258789,-224.31100463867188 C49.470001220703125,-222.0240020751953 49.43600082397461,-212.7100067138672 46.922000885009766,-205.91900634765625 C41.0989990234375,-188.6230010986328 24.920000076293945,-177.05499267578125 16.69700050354004,-161.03399658203125 C11.031999588012695,-148.79200744628906 17.427000045776367,-149.7259979248047 24.606000900268555,-157.98899841308594 C27.989999771118164,-161.62100219726562 36.83700180053711,-176.70399475097656 43.284000396728516,-175.85699462890625 C43.284000396728516,-175.85699462890625 43.356998443603516,-175.85000610351562 43.356998443603516,-175.85000610351562z M68.13999938964844,-75.06500244140625 C56.40800094604492,-75.69300079345703 45.558998107910156,-71.2979965209961 59.10900115966797,-60.41899871826172 C69.44100189208984,-52.78799819946289 81.4260025024414,-47.73500061035156 93.7040023803711,-44.12900161743164 C99.40699768066406,-42.54199981689453 118.33699798583984,-39.70399856567383 112.84600067138672,-55.07699966430664 C112.33699798583984,-62.20399856567383 110.23600006103516,-67.3489990234375 107.45500183105469,-69.50399780273438 C97.34600067138672,-77.43299865722656 80.8290023803711,-74.70999908447266 68.35199737548828,-75.06199645996094 C68.35199737548828,-75.06199645996094 68.13999938964844,-75.06500244140625 68.13999938964844,-75.06500244140625z"></path></g></g></g></svg>