<svg xmlns="http://www.w3.org/2000/svg" xmlns:xlink="http://www.w3.org/1999/xlink" viewBox="0 0 512 512" width="512" height="512" style="width: 100%; height: 100%; transform: translate3d(0,0,0);" preserveAspectRatio="xMidYMid meet"><defs><clipPath id="__lottie_element_674"><rect width="512" height="512" x="0" y="0"></rect></clipPath></defs><g clip-path="url(#__lottie_element_674)"><g style="display: block;" transform="matrix(1,0,0,1,256,256)" opacity="1"><g opacity="1" transform="matrix(1,0,0,1,0,0)"><path stroke-linecap="butt" stroke-linejoin="miter" fill-opacity="0" stroke-miterlimit="10" stroke="rgb(0,0,0)" stroke-opacity="1" stroke-width="30" d=" M-91.52300262451172,24.684999465942383 C-146.46299743652344,-32.48400115966797 -123.31999969482422,-118.91000366210938 -121.77899932861328,-125.73600006103516 C-119.37899780273438,-136.36399841308594 -128.57200622558594,-141.32200622558594 -138.92100524902344,-133.62100219726562 C-153.66299438476562,-122.6500015258789 -187.08900451660156,-134.13499450683594 -191.54600524902344,-161.04800415039062 C-193.2220001220703,-171.16799926757812 -205.06700134277344,-174.8730010986328 -214.4199981689453,-160.49899291992188 C-223.7729949951172,-146.125 -250.1719970703125,-87.93800354003906 -229.6020050048828,-9.963000297546387"></path></g><g opacity="1" transform="matrix(1,0,0,1,0,0)"><path stroke-linecap="butt" stroke-linejoin="miter" fill-opacity="0" stroke-miterlimit="10" stroke="rgb(0,0,0)" stroke-opacity="1" stroke-width="30" d=" M91.52300262451172,24.684999465942383 C146.46299743652344,-32.48400115966797 123.31999969482422,-118.91000366210938 121.77899932861328,-125.73600006103516 C119.37899780273438,-136.36399841308594 128.57200622558594,-141.32200622558594 138.92100524902344,-133.62100219726562 C153.66299438476562,-122.6500015258789 187.08900451660156,-134.13499450683594 191.54600524902344,-161.04800415039062 C193.2220001220703,-171.16799926757812 205.06700134277344,-174.8730010986328 214.4199981689453,-160.49899291992188 C223.7729949951172,-146.125 250.1719970703125,-87.93800354003906 229.6020050048828,-9.963000297546387"></path></g><g opacity="1" transform="matrix(1,0,0,1,0,0)"><path fill="rgb(0,0,0)" fill-opacity="1" d=" M230.7310028076172,-158.49000549316406 C241.34100341796875,-103.59100341796875 226.9429931640625,-75.79499816894531 216.06700134277344,-59.444000244140625 C214.71600341796875,-57.41299819946289 211.4709930419922,-52.821998596191406 210.18800354003906,-44.28099822998047 C207.57400512695312,-28.142000198364258 202.8699951171875,-2.049999952316284 196.1750030517578,0.46000000834465027 C189.47999572753906,2.9700000286102295 187.61700439453125,-8.263999938964844 187.0229949951172,-16.468000411987305 C186.3179931640625,-26.195999145507812 174.8769989013672,-30.40399932861328 167.3209991455078,-23.865999221801758 C158.62899780273438,-16.34600067138672 136.1909942626953,-10.442999839782715 115.07599639892578,-7.449999809265137 C31.21299934387207,-0.21899999678134918 26.4689998626709,65.07099914550781 0,65.07099914550781 C-26.4689998626709,65.07099914550781 -31.21299934387207,-0.21899999678134918 -115.07599639892578,-7.449999809265137 C-136.1909942626953,-10.442999839782715 -159.0229949951172,-16.562999725341797 -167.71499633789062,-24.08300018310547 C-175.27099609375,-30.621000289916992 -186.3179931640625,-26.195999145507812 -187.0229949951172,-16.468000411987305 C-187.61700439453125,-8.263999938964844 -189.47999572753906,2.9700000286102295 -196.1750030517578,0.46000000834465027 C-202.8699951171875,-2.049999952316284 -207.57400512695312,-28.142000198364258 -210.18800354003906,-44.28099822998047 C-211.4709930419922,-52.821998596191406 -214.71600341796875,-57.41299819946289 -216.06700134277344,-59.444000244140625 C-226.9429931640625,-75.79499816894531 -241.34100341796875,-103.59100341796875 -230.7310028076172,-158.49000549316406 C-312.47601318359375,-8.954999923706055 -185.406005859375,169.9969940185547 0,169.9969940185547 C185.406005859375,169.9969940185547 312.47601318359375,-8.954999923706055 230.7310028076172,-158.49000549316406z M69.93699645996094,123.00199890136719 C62.46900177001953,125.71199798583984 54.94200134277344,128.1959991455078 47.36399841308594,130.45599365234375 C36.558998107910156,133.6009979248047 37.27299880981445,124.33999633789062 37.547000885009766,122.53299713134766 C39.882999420166016,106.27200317382812 42.21200180053711,89.9540023803711 44.52199935913086,73.57599639892578 C44.49300003051758,73.58499908447266 44.4630012512207,73.59400177001953 44.43299865722656,73.60299682617188 C50.30699920654297,71.80599975585938 56.1510009765625,69.87100219726562 61.95899963378906,67.802001953125 C59.902000427246094,82.73500061035156 57.85499954223633,97.625 55.77899932861328,112.46199798583984 C55.632999420166016,113.50299835205078 56.11600112915039,114.94200134277344 58.21099853515625,114.30599975585938 C59.125999450683594,114.02899932861328 60.03300094604492,113.7020034790039 60.941001892089844,113.4000015258789 C64.06500244140625,112.36100006103516 64.6719970703125,111.51599884033203 64.89199829101562,109.91100311279297 C66.9749984741211,94.79900360107422 69.03099822998047,79.63700103759766 71.09300231933594,64.42400360107422 C76.8290023803711,62.224998474121094 82.52799987792969,59.891998291015625 88.18599700927734,57.42599868774414 C86.03500366210938,73.95800018310547 81.39199829101562,109.08100128173828 81.12200164794922,110.83699798583984 C80.73799896240234,113.36299896240234 80.27200317382812,119.197998046875 69.93699645996094,123.00199890136719z M127.55500030517578,72.75700378417969 C121.20800018310547,76.28800201416016 114.7969970703125,79.63999938964844 108.32099914550781,82.81500244140625 C107.24700164794922,91.34700012207031 106.1729965209961,99.86299896240234 105.09100341796875,108.36599731445312 C105.12899780273438,108.3479995727539 105.16799926757812,108.33100128173828 105.20600128173828,108.31300354003906 C105.16799926757812,108.33100128173828 105.12999725341797,108.3489990234375 105.09100341796875,108.36599731445312 C105.09100341796875,108.36599731445312 105.09100341796875,108.36599731445312 105.09100341796875,108.36599731445312 C99.48699951171875,111.01000213623047 93.83999633789062,113.52100372314453 88.1520004272461,115.89700317382812 C89.86499786376953,102.94300079345703 91.55699920654297,89.96399688720703 93.24400329589844,76.93599700927734 C105.447998046875,71.50299835205078 117.45600128173828,65.45099639892578 129.2259979248047,58.7760009765625 C128.67100524902344,63.43899917602539 128.11500549316406,68.10199737548828 127.55500030517578,72.75700378417969z M94.47100067138672,67.50199890136719 C95.05999755859375,62.944000244140625 95.63800048828125,58.38399887084961 96.23400115966797,53.816001892089844 C108.37799835205078,48.209999084472656 120.3219985961914,41.983001708984375 132.02499389648438,35.13800048828125 C131.47300720214844,39.80799865722656 130.927001953125,44.47100067138672 130.3730010986328,49.130001068115234 C118.62999725341797,55.87799835205078 106.6500015258789,61.99700164794922 94.47100067138672,67.50199890136719z M171.9080047607422,21.923999786376953 C166.43699645996094,25.981000900268555 160.89999389648438,29.88599967956543 155.29800415039062,33.641998291015625 C153.2760009765625,34.99700164794922 152.2220001220703,35.92100143432617 151.96099853515625,38.26499938964844 C150.82000732421875,48.516998291015625 149.66900634765625,58.750999450683594 148.51300048828125,68.96099853515625 C148.43699645996094,69.61100006103516 148.6959991455078,71.41300201416016 151.0489959716797,69.91300201416016 C157.21200561523438,65.96800231933594 163.3040008544922,61.840999603271484 169.31199645996094,57.540000915527344 C168.80499267578125,62.31100082397461 168.29600524902344,67.0790023803711 167.78399658203125,71.84200286865234 C159.23500061035156,77.85800170898438 150.5279998779297,83.52100372314453 141.67799377441406,88.8270034790039 C135.85800170898438,92.30899810791016 131.67799377441406,90.30999755859375 132.4080047607422,84.21299743652344 C134.12899780273438,69.73100280761719 135.8350067138672,55.202999114990234 137.52699279785156,40.638999938964844 C137.82000732421875,37.97600173950195 138.177001953125,31.58099937438965 147.72500610351562,25.488000869750977 C156.43099975585938,19.871999740600586 164.98699951171875,13.901000022888184 173.37600708007812,7.578999996185303 C173.2030029296875,9.715999603271484 172.1840057373047,19.30299949645996 171.9080047607422,21.923999786376953z"></path></g></g></g></svg>