<svg xmlns="http://www.w3.org/2000/svg" xmlns:xlink="http://www.w3.org/1999/xlink" viewBox="0 0 512 512" width="512" height="512" style="width: 100%; height: 100%; transform: translate3d(0,0,0);" preserveAspectRatio="xMidYMid meet"><defs><clipPath id="__lottie_element_51575"><rect width="512" height="512" x="0" y="0"></rect></clipPath></defs><g clip-path="url(#__lottie_element_51575)"><g style="display: block;" transform="matrix(1.059999942779541,0,0,1.059999942779541,20.7586669921875,8.051742553710938)" opacity="1"><g opacity="1" transform="matrix(1,0,0,1,236.2530059814453,70.44100189208984)"><path fill="rgb(0,0,0)" fill-opacity="1" d=" M2.5260000228881836,-40.810001373291016 C11.145000457763672,-40.77299880981445 8.458000183105469,-68.73300170898438 45.46900177001953,-69.16799926757812 C77.65399932861328,-69.5459976196289 87.99099731445312,-45.77899932861328 87.99700164794922,-25.809999465942383 C88.00900268554688,13.1899995803833 33.99700164794922,70.19100189208984 4.997000217437744,70.19100189208984 C-35.00299835205078,70.19100189208984 -87.99099731445312,19.195999145507812 -88.00299835205078,-23.809999465942383 C-88.01000213623047,-48.810001373291016 -74.23200225830078,-67.18699645996094 -46.058998107910156,-68.86599731445312 C-8.673999786376953,-71.09400177001953 -3.0230000019073486,-40.83399963378906 2.5260000228881836,-40.810001373291016z"></path></g><g opacity="1" transform="matrix(1,0,0,1,233.18899536132812,276.68798828125)"><path fill="rgb(0,0,0)" fill-opacity="1" d=" M-94.93900299072266,-191.0570068359375 C-74.93900299072266,-144.0570068359375 -18.36400032043457,-113.06300354003906 5.060999870300293,-115.05699920654297 C52.06100082397461,-119.05699920654297 91.06099700927734,-180.0570068359375 104.06099700927734,-179.0570068359375 C158.8179931640625,-174.84500122070312 142.20199584960938,-114.72899627685547 152.06100463867188,-113.05699920654297 C174.02000427246094,-109.33399963378906 206.66200256347656,-68.24600219726562 183.29800415039062,-25.924999237060547 C147.68699645996094,38.57899856567383 80.24700164794922,-4.09499979019165 63.659000396728516,0.20200000703334808 C48.125999450683594,4.22599983215332 41.56700134277344,29.868000030517578 -2.881999969482422,31.62299919128418 C-44.26300048828125,33.25699996948242 -57.2239990234375,22.04400062561035 -69.46700286865234,20.490999221801758 C-81.0739974975586,19.018999099731445 -116.9229965209961,38.358001708984375 -112.61799621582031,43 C-109.20500183105469,46.68000030517578 -85.46700286865234,45.77399826049805 -68.46700286865234,49.77399826049805 C-53.0359992980957,53.404998779296875 -40.37200164794922,70.13099670410156 -1.409999966621399,71.98400115966797 C34.59000015258789,73.697998046875 54.46799850463867,54.97200012207031 65.80500030517578,55.34299850463867 C73,55.57899856567383 82.64800262451172,61.21900177001953 107.125,65.76399993896484 C127.41899871826172,69.53199768066406 140.57000732421875,61.78799819946289 144.57000732421875,69.1500015258789 C147.5050048828125,74.55000305175781 105.00800323486328,168.48300170898438 89.06099700927734,179.9429931640625 C68.09700012207031,195.00799560546875 -71.822998046875,200.3040008544922 -92.93900299072266,181.9429931640625 C-115.93900299072266,161.9429931640625 -156.81399536132812,59.558998107910156 -167.93899536132812,43.94300079345703 C-173.6490020751953,35.926998138427734 -212.72999572753906,36.428001403808594 -221.93899536132812,-33.05699920654297 C-232.93899536132812,-116.05699920654297 -150.0570068359375,-122.46600341796875 -150.93899536132812,-133.0570068359375 C-154.93899536132812,-181.0570068359375 -98.8740005493164,-200.30499267578125 -94.93900299072266,-191.0570068359375z"></path></g></g></g></svg>