<svg xmlns="http://www.w3.org/2000/svg" xmlns:xlink="http://www.w3.org/1999/xlink" viewBox="0 0 512 512" width="512" height="512" style="width: 100%; height: 100%; transform: translate3d(0,0,0);" preserveAspectRatio="xMidYMid meet"><defs><clipPath id="__lottie_element_53095"><rect width="512" height="512" x="0" y="0"></rect></clipPath></defs><g clip-path="url(#__lottie_element_53095)"><g style="display: block;" transform="matrix(1,0,0,1,257.1570129394531,258.3190002441406)" opacity="1"><g opacity="1" transform="matrix(1,0,0,1,0,0)"><path fill="rgb(0,0,0)" fill-opacity="1" d=" M173.28,-31.22 C158.92,-59.63 129.38,-73.66 107.34,-62.52 C85.3,-51.39 79.06,-19.28 93.42,9.13 C107.77,37.54 137.32,51.56 159.35,40.43 C181.39,29.29 187.63,-2.81 173.28,-31.22z M123.91,-129 C133.54,-153.69 108.69,-186.48 68.45,-202.18 C28.21,-217.88 -12.28,-210.59 -21.91,-185.9 C-31.54,-161.22 -6.69,-128.43 33.55,-112.73 C73.79,-97.03 114.28,-104.32 123.91,-129z M37.72,-24.58 C37.72,-46.58 19.86,-64.44 -2.14,-64.44 C-24.14,-64.44 -42,-46.58 -42,-24.58 C-42,-2.58 -24.14,15.28 -2.14,15.28 C19.86,15.28 37.72,-2.58 37.72,-24.58z M-115.83,-56.95 C-82.79,-61.9 -59.19,-87.42 -63.15,-113.9 C-67.12,-140.39 -97.17,-157.87 -130.2,-152.92 C-163.24,-147.97 -186.84,-122.45 -182.88,-95.97 C-178.91,-69.49 -148.87,-52 -115.83,-56.95z M82.67900085449219,-221.96400451660156 C-78.19400024414062,-280.0169982910156 -204.53399658203125,-176.8780059814453 -234.5970001220703,-125.11599731445312 C-262.7640075683594,-76.59100341796875 -215.32200622558594,-26.993000030517578 -136.07200622558594,16.826000213623047 C-120.89800262451172,25.215999603271484 -105.1520004272461,33.33700180053711 -89.08399963378906,41.04399871826172 C-91.08200073242188,47.48400115966797 -94.12300109863281,53.8849983215332 -98.7770004272461,58.88100051879883 C-116.77200317382812,78.19499969482422 -126.28800201416016,86.69400024414062 -155.62600708007812,103.71299743652344 C-241.81900024414062,153.71299743652344 -192.54100036621094,264.5159912109375 -89.36199951171875,233.92599487304688 C-34.22999954223633,217.58099365234375 5.247000217437744,142.95899963378906 11.138999938964844,81.7509994506836 C114.28500366210938,115.77999877929688 209.8419952392578,121.10800170898438 234.63600158691406,60.242000579833984 C256.0589904785156,7.665999889373779 244.66000366210938,-163.51600646972656 82.67900085449219,-221.96400451660156z"></path><g opacity="1" transform="matrix(0.4509398639202118,0.8925543427467346,-0.8925543427467346,0.4509398639202118,133.3459930419922,-11.04800033569336)"></g><g opacity="1" transform="matrix(-0.3634951412677765,0.9315961003303528,-0.9315961003303528,-0.3634951412677765,51,-157.45199584960938)"></g><g opacity="1" transform="matrix(0,1,-1,0,-2.138000011444092,-24.579999923706055)"></g><g opacity="1" transform="matrix(-0.9889668226242065,0.14813737571239471,-0.14813737571239471,-0.9889668226242065,-123.01599884033203,-104.93599700927734)"></g><g opacity="1" transform="matrix(1,0,0,1,0,0)"></g></g></g></g></svg>