<svg xmlns="http://www.w3.org/2000/svg" xmlns:xlink="http://www.w3.org/1999/xlink" viewBox="0 0 512 512" width="512" height="512" style="width: 100%; height: 100%; transform: translate3d(0,0,0);" preserveAspectRatio="xMidYMid meet"><defs><clipPath id="__lottie_element_39096"><rect width="512" height="512" x="0" y="0"></rect></clipPath></defs><g clip-path="url(#__lottie_element_39096)"><g style="display: block;" transform="matrix(1,0,0,1,0,0)" opacity="1"><g opacity="1" transform="matrix(1,0,0,1,256,255.66299438476562)"><path fill="rgb(65,63,63)" fill-opacity="1" d=" M173.60400390625,-139.10899353027344 C182.38900756835938,-125.70999908447266 189.26600646972656,-98.41100311279297 198.48899841308594,-87.22899627685547 C205.63999938964844,-78.55899810791016 219.9550018310547,-72.68399810791016 228.302001953125,-62.46500015258789 C268.6520080566406,-13.062999725341797 261.385986328125,63.08000183105469 224.03500366210938,111.91899871826172 C212.60299682617188,126.86699676513672 194.14599609375,145.43499755859375 175.56199645996094,147.7429962158203 C150.9669952392578,150.7969970703125 124.6510009765625,138.5679931640625 108.47699737548828,139.8780059814453 C105.39900207519531,140.1280059814453 56.73500061035156,167.23500061035156 54.303001403808594,169.13800048828125 C48.900001525878906,173.36500549316406 42.27399826049805,201.38699340820312 27.52899932861328,212.8070068359375 C1.7730000019073486,232.75399780273438 -89.77100372314453,229.09800720214844 -118.7490005493164,215.74400329589844 C-154.43600463867188,199.2989959716797 -149.593994140625,136.031005859375 -159.28500366210938,126.4489974975586 C-163.97799682617188,121.80799865722656 -191.5749969482422,120.60900115966797 -203.343994140625,114.69999694824219 C-235.1820068359375,98.71499633789062 -248.75599670410156,75.25299835205078 -249.22500610351562,40.5620002746582 C-249.39599609375,27.972999572753906 -241.69000244140625,12.961999893188477 -242.72300720214844,6.183000087738037 C-243.59100341796875,0.48899999260902405 -251.08099365234375,-8.906999588012695 -253.86599731445312,-16.30500030517578 C-267.0799865722656,-51.39699935913086 -228.2449951171875,-72.83200073242188 -202.2530059814453,-83.12300109863281 C-194.23399353027344,-86.2979965209961 -170.38999938964844,-89.83799743652344 -165.88099670410156,-94.3030014038086 C-159.00999450683594,-101.10800170898438 -162.64599609375,-127.98300170898438 -153.79800415039062,-142.74400329589844 C-99.84500122070312,-232.75399780273438 115.32099914550781,-228.0019989013672 173.60400390625,-139.10899353027344z M-128.21099853515625,-92.31099700927734 C-54.542999267578125,-88.2509994506836 11.432999610900879,-56.11899948120117 78.7020034790039,-29.950000762939453 C91.74099731445312,-28.62700080871582 84.62899780273438,-53.266998291015625 82.98799896240234,-60.3489990234375 C64.61799621582031,-139.60800170898438 22.339000701904297,-190.21800231933594 -65.572998046875,-164.77200317382812 C-101.90399932861328,-154.25599670410156 -119.76899719238281,-128.13499450683594 -128.21099853515625,-92.31099700927734z M172.20199584960938,-53.37900161743164 C131.60299682617188,-51.04600143432617 111.11000061035156,-8.133999824523926 109.4020004272461,27.606000900268555 C108.68399810791016,42.637001037597656 115.88899993896484,98.36399841308594 132.26600646972656,102.22599792480469 C141.5590057373047,104.41799926757812 131.406005859375,94.73899841308594 131.28500366210938,94.18800354003906 C122.81400299072266,55.70500183105469 125.36699676513672,12.23799991607666 145.87600708007812,-22.451000213623047 C153.52200317382812,-35.382999420166016 164.64300537109375,-41.51100158691406 172.20199584960938,-53.37900161743164z M29.54800033569336,2.8450000286102295 C-15.267000198364258,-21.61199951171875 -71.55799865722656,-44.95500183105469 -123.11199951171875,-48.76599884033203 C-154.5290069580078,-51.0880012512207 -176.61500549316406,-38.814998626708984 -206.01100158691406,-31.746999740600586 C-140.98899841308594,-20.666000366210938 -78.52999877929688,4.052999973297119 -12.53600025177002,9.413999557495117 C-12.53600025177002,9.413999557495117 29.54800033569336,2.8450000286102295 29.54800033569336,2.8450000286102295z M-143.343994140625,57.933998107910156 C-145.2989959716797,48.487998962402344 -141.91900634765625,33.5629997253418 -143.343994140625,23.347999572753906 C-155.39700317382812,13.685999870300293 -161.58900451660156,30.66900062561035 -162.78599548339844,40.63999938964844 C-165.0399932861328,59.404998779296875 -158.3730010986328,79.00599670410156 -146.44000244140625,93.52300262451172 C-140.28900146484375,101.00599670410156 -124.12899780273438,108.88200378417969 -120.80699920654297,115.35900115966797 C-112.73500061035156,131.0959930419922 -128.91400146484375,179.7899932861328 -100.14399719238281,183.53900146484375 C-77.43499755859375,186.49899291992188 -92.61299896240234,145.0260009765625 -75.23899841308594,145.3719940185547 C-63.560001373291016,145.6060028076172 -72.15599822998047,179.1199951171875 -63.904998779296875,184.3979949951172 C-59.59600067138672,187.15499877929688 -35.83599853515625,187.80599975585938 -33.45100021362305,184.04100036621094 C-32.2599983215332,182.16000366210938 -30.7810001373291,136.9320068359375 -14.696999549865723,151.91900634765625 C-6.181000232696533,159.85499572753906 -22.416000366210938,184.58299255371094 -4.284999847412109,183.8209991455078 C19.843000411987305,182.8070068359375 17.736000061035156,146.5800018310547 26.18600082397461,134.5330047607422 C33.875,123.56999969482422 81.26599884033203,115.88500213623047 78.28199768066406,104.35900115966797 C66.88999938964844,60.35900115966797 70.63300323486328,25.510000228881836 70.63300323486328,25.510000228881836 C70.63300323486328,25.034000396728516 73.83200073242188,23.117000579833984 72.79299926757812,22.292999267578125 C51.86600112915039,20.1200008392334 61.154998779296875,27.20800018310547 57.87900161743164,36.3380012512207 C48.14099884033203,63.46900177001953 31.555999755859375,93.87899780273438 -2.7909998893737793,81.63099670410156 C-27.88599967956543,72.68299865722656 -33.35900115966797,39.069000244140625 -36.643001556396484,37.68600082397461 C-40.064998626708984,36.24399948120117 -60.79499816894531,37.020999908447266 -64.13500213623047,39.36199951171875 C-66.05999755859375,40.71099853515625 -75.51000213623047,70.73600006103516 -86.64700317382812,78.51399993896484 C-104.83200073242188,91.21499633789062 -139.07200622558594,78.5790023803711 -143.343994140625,57.933998107910156z"></path></g><g opacity="1" transform="matrix(1,0,0,1,206.5449981689453,350.56298828125)"><path fill="rgb(65,63,63)" fill-opacity="1" d=" M-12.602999687194824,-12.928000450134277 C-7.491000175476074,-18.905000686645508 -1.0140000581741333,-30.049999237060547 8.753000259399414,-22.905000686645508 C14.621000289916992,-18.61199951171875 30.638999938964844,14.791999816894531 19.784000396728516,22.676000595092773 C10.598999977111816,29.347000122070312 3.0829999446868896,19.843000411987305 -4.0279998779296875,20.30299949645996 C-9.36400032043457,20.64900016784668 -13.831999778747559,30.049999237060547 -21.680999755859375,20.511999130249023 C-30.639999389648438,9.625 -19.14699935913086,-5.276000022888184 -12.602999687194824,-12.928000450134277z"></path></g><g opacity="1" transform="matrix(1,0,0,1,226.76800537109375,145.5749969482422)"><path fill="rgb(65,63,63)" fill-opacity="1" d=" M-64.25700378417969,7.426000118255615 C-66.59500122070312,5.50600004196167 -64.9219970703125,-1.5360000133514404 -64.36299896240234,-4.703999996185303 C-60.61899948120117,-25.941999435424805 -5.138999938964844,-32.7859992980957 12.760000228881836,-25.88599967956543 C32.40800094604492,-18.312000274658203 66.59500122070312,15.536999702453613 40.534000396728516,32.7859992980957 C29.150999069213867,26.812000274658203 -58.7140007019043,11.979000091552734 -64.25700378417969,7.426000118255615z"></path></g></g></g></svg>