<svg xmlns="http://www.w3.org/2000/svg" xmlns:xlink="http://www.w3.org/1999/xlink" viewBox="0 0 512 512" width="512" height="512" style="width: 100%; height: 100%; transform: translate3d(0,0,0);" preserveAspectRatio="xMidYMid meet"><defs><clipPath id="__lottie_element_52643"><rect width="512" height="512" x="0" y="0"></rect></clipPath></defs><g clip-path="url(#__lottie_element_52643)"><g style="display: block;" transform="matrix(1,0,0,1,255.72999572753906,254.0570068359375)" opacity="1"><g opacity="1" transform="matrix(1,0,0,1,0,0)"><path fill="rgb(0,0,0)" fill-opacity="1" d=" M214.5970001220703,-69.41999816894531 C195.91900634765625,-150.0279998779297 175.0050048828125,-221.60000610351562 174.7949981689453,-222.31399536132812 C170.69500732421875,-236.3090057373047 156.6020050048828,-244.8699951171875 142.28900146484375,-242.0500030517578 C142.28900146484375,-242.0500030517578 -111.12999725341797,-192.1540069580078 -111.12999725341797,-192.1540069580078 C-126.25900268554688,-189.1750030517578 -136.18899536132812,-174.5959930419922 -133.42100524902344,-159.42799377441406 C-112.04199981689453,-42.23899841308594 -97.13600158691406,45.36899948120117 -91.13099670410156,102.39399719238281 C-105.24099731445312,97.625 -121.1989974975586,94.95700073242188 -138.19700622558594,94.95700073242188 C-197.10800170898438,94.95700073242188 -244.86599731445312,128.00399780273438 -244.86599731445312,168.77099609375 C-244.86599731445312,209.53799438476562 -197.10800170898438,242.58599853515625 -138.19700622558594,242.58599853515625 C-80.05999755859375,242.58599853515625 -34.0369987487793,209.37100219726562 -32.83599853515625,169.3179931640625 C-28.195999145507812,127.6969985961914 -37.827999114990234,52.3120002746582 -72.9749984741211,-142.1909942626953 C-72.9749984741211,-142.1909942626953 127.69100189208984,-181.6999969482422 127.69100189208984,-181.6999969482422 C135.29400634765625,-154.33099365234375 147.91799926757812,-107.36599731445312 159.66000366210938,-56.691001892089844 C174.47900390625,7.267000198364258 182.1269989013672,51.8120002746582 185.7310028076172,82.79299926757812 C171.06500244140625,77.48999786376953 154.38600158691406,74.48699951171875 136.69200134277344,74.48699951171875 C78.125,74.48699951171875 30.645999908447266,107.34200286865234 30.645999908447266,147.8699951171875 C30.645999908447266,188.3979949951172 78.125,221.2530059814453 136.69200134277344,221.2530059814453 C191.21400451660156,221.2530059814453 236.11700439453125,192.7779998779297 242.06100463867188,156.1479949951172 C242.17999267578125,155.66700744628906 242.28900146484375,155.18099975585938 242.38400268554688,154.68899536132812 C249.77699279785156,116.49199676513672 240.68899536132812,43.185001373291016 214.5970001220703,-69.41999816894531z"></path></g></g></g></svg>