<svg xmlns="http://www.w3.org/2000/svg" xmlns:xlink="http://www.w3.org/1999/xlink" viewBox="0 0 512 512" width="512" height="512" style="width: 100%; height: 100%; transform: translate3d(0,0,0);" preserveAspectRatio="xMidYMid meet"><defs><clipPath id="__lottie_element_53799"><rect width="512" height="512" x="0" y="0"></rect></clipPath></defs><g clip-path="url(#__lottie_element_53799)"><g style="display: block;" transform="matrix(1,0,0,1,256.48199462890625,253.58599853515625)" opacity="1"><g opacity="1" transform="matrix(1,0,0,1,0,0)"><path fill="rgb(0,0,0)" fill-opacity="1" d=" M-246.01800537109375,-123.90799713134766 C-236.43699645996094,-161.4250030517578 -211.6199951171875,-185.3939971923828 -175.45599365234375,-195.72300720214844 C-140.36199951171875,-205.74600219726562 -113.3489990234375,-192.57000732421875 -98.53500366210938,-161.7519989013672 C-95.66600036621094,-155.78399658203125 -94.25499725341797,-149.71200561523438 -95.9469985961914,-143.17100524902344 C-97.48799896240234,-137.21499633789062 -101.13999938964844,-133.36900329589844 -107.2770004272461,-132.13499450683594 C-112.95700073242188,-130.9929962158203 -117.46700286865234,-133.02200317382812 -121.07599639892578,-137.37600708007812 C-121.33100128173828,-137.6840057373047 -121.56500244140625,-138.00900268554688 -121.81099700927734,-138.32400512695312 C-124.3740005493164,-141.60899353027344 -125.27400207519531,-146.10800170898438 -131.2480010986328,-145.95799255371094 C-150.74600219726562,-145.47000122070312 -150.6230010986328,-121.84400177001953 -142.27999877929688,-108.84300231933594 C-133.2779998779297,-94.81500244140625 -104.33799743652344,-103.13099670410156 -94.94300079345703,-111.87000274658203 C-87.91500091552734,-118.40699768066406 -79.78199768066406,-123.65699768066406 -72.00900268554688,-129.28700256347656 C-53.30400085449219,-142.83700561523438 -32.25400161743164,-149.1739959716797 -9.237000465393066,-150.22799682617188 C21.7810001373291,-151.6490020751953 43.915000915527344,-130.18499755859375 50.92100143432617,-107.85399627685547 C54.40399932861328,-96.75199890136719 54.8380012512207,-96.60900115966797 64.96800231933594,-97.9990005493164 C100.33599853515625,-102.85299682617188 121.18699645996094,-82.9530029296875 131.85299682617188,-57.374000549316406 C141.72999572753906,-33.68899917602539 143.10699462890625,-9.399999618530273 137.95199584960938,15.567000389099121 C135.28199768066406,28.49799919128418 133.0500030517578,41.46699905395508 137.98899841308594,54.57600021362305 C142.54100036621094,66.65699768066406 151.44900512695312,72.56500244140625 163.95599365234375,70.66300201416016 C173.08999633789062,69.27400207519531 179.18099975585938,63.92399978637695 182.49099731445312,55.472999572753906 C186.3489990234375,45.62099838256836 183.52699279785156,40.917999267578125 173.0019989013672,39.14699935913086 C164.1929931640625,37.66400146484375 159.7570037841797,33.94599914550781 158.57200622558594,27.051000595092773 C157.4530029296875,20.54400062561035 160.73300170898438,14.355999946594238 168.125,10.64900016784668 C182.50100708007812,3.438999891281128 197.2480010986328,5.6620001792907715 211.18099975585938,11.321000099182129 C232.54100036621094,19.996000289916992 244.88999938964844,37.400001525878906 248.97300720214844,59.255001068115234 C256.55499267578125,99.84100341796875 245.13099670410156,134.79200744628906 212.16099548339844,160.7050018310547 C178.77099609375,186.947998046875 141.35800170898438,200.6540069580078 98.66400146484375,198.875 C26.134000778198242,198.3520050048828 -38.37300109863281,134.00599670410156 -34.816001892089844,61.10200119018555 C-34.40800094604492,52.737998962402344 -36.895999908447266,51.52000045776367 -44.2239990234375,55.185001373291016 C-56.904998779296875,61.527000427246094 -70.23300170898438,65.63300323486328 -84.16899871826172,67.56300354003906 C-129.14300537109375,73.79100036621094 -168.90199279785156,63.00400161743164 -202.5590057373047,31.48699951171875 C-234.33999633789062,1.7269999980926514 -263.3800048828125,-55.91999816894531 -246.01800537109375,-123.90799713134766z"></path></g></g></g></svg>