<svg xmlns="http://www.w3.org/2000/svg" xmlns:xlink="http://www.w3.org/1999/xlink" viewBox="0 0 512 512" width="512" height="512" style="width: 100%; height: 100%; transform: translate3d(0,0,0);" preserveAspectRatio="xMidYMid meet"><defs><clipPath id="__lottie_element_51430"><rect width="512" height="512" x="0" y="0"></rect></clipPath></defs><g clip-path="url(#__lottie_element_51430)"><g style="display: block;" transform="matrix(1,0,0,1,0,0)" opacity="1"><g opacity="1" transform="matrix(1,0,0,1,255.07000732421875,366.68798828125)"><path fill="rgb(0,0,0)" fill-opacity="1" d=" M-42.54899978637695,-21.36199951171875 C-16.68400001525879,-7.11899995803833 23.780000686645508,-4.620999813079834 42.69599914550781,19.025999069213867 C46.39099884033203,23.645000457763672 66.87300109863281,58.152000427246094 63.965999603271484,61.03099822998047 C54.4900016784668,60.58599853515625 35.46699905395508,57.8849983215332 28.714000701904297,51.084999084472656 C22.347999572753906,44.67499923706055 18.316999435424805,23.083999633789062 8.444999694824219,17.101999282836914 C4.254000186920166,15.571999549865723 0.06300000101327896,14.041000366210938 -4.127999782562256,12.510000228881836 C-16.826000213623047,7.872000217437744 -29.523000717163086,3.2339999675750732 -42.22100067138672,-1.4040000438690186 C-47.49800109863281,-3.3320000171661377 -52.775001525878906,-5.260000228881836 -58.051998138427734,-7.188000202178955 C-61.44499969482422,-8.427000045776367 -66.87300109863281,-9.168999671936035 -65.6050033569336,-14.131999969482422 C-64.11000061035156,-19.985000610351562 -59.55400085449219,-25.905000686645508 -56.573001861572266,-31.141000747680664 C-50.90299987792969,-41.104000091552734 -45.233001708984375,-51.06700134277344 -39.5629997253418,-61.029998779296875 C-39.5629997253418,-61.029998779296875 -24.57699966430664,-52.2760009765625 -24.57699966430664,-52.2760009765625 C-24.57699966430664,-52.2760009765625 -42.54899978637695,-21.36199951171875 -42.54899978637695,-21.36199951171875z"></path></g><g opacity="1" transform="matrix(1,0,0,1,255.90899658203125,257.2049865722656)"><path fill="rgb(0,0,0)" fill-opacity="1" d=" M246.6009979248047,70.50800323486328 C240.2530059814453,51.85200119018555 228.01400756835938,37.98699951171875 215.83900451660156,22.90399932861328 C208.81399536132812,14.199999809265137 190.4980010986328,-10.62600040435791 180.60000610351562,-12.187999725341797 C170.7469940185547,-13.741999626159668 122.03199768066406,-10.142000198364258 117.66699981689453,-16.589000701904297 C117.93199920654297,-26.89900016784668 116.5739974975586,-36.72999954223633 114.76300048828125,-46.827999114990234 C110.74400329589844,-69.23400115966797 98.64900207519531,-93.10299682617188 107.37999725341797,-114.75499725341797 C107.37999725341797,-114.75499725341797 111.37100219726562,-114.74199676513672 111.37100219726562,-114.74199676513672 C105.47200012207031,-102.35299682617188 112.95600128173828,-84.80799865722656 125.43900299072266,-79.5989990234375 C140.36000061035156,-73.37300109863281 149.6540069580078,-78.98500061035156 163.7220001220703,-63.624000549316406 C171.2949981689453,-55.35499954223633 169.38499450683594,-47.20100021362305 184.70799255371094,-48.340999603271484 C195.8470001220703,-49.16999816894531 200.91400146484375,-57.733001708984375 201.3560028076172,-68.1449966430664 C201.71099853515625,-76.49800109863281 187.51600646972656,-90.69400024414062 182.46499633789062,-98.43099975585938 C177.12100219726562,-106.61799621582031 173.13499450683594,-115.27200317382812 167.2790069580078,-123.43199920654297 C163.1269989013672,-129.2169952392578 147.8260040283203,-144.19400024414062 146.57699584960938,-146.93800354003906 C143.14100646972656,-154.48800659179688 147.53199768066406,-169.9810028076172 143.50900268554688,-179.04800415039062 C138.093994140625,-178.26400756835938 129.76800537109375,-159.9459991455078 125.47699737548828,-162.98800659179688 C110.48100280761719,-189.8719940185547 74.95899963378906,-197.17100524902344 45.97200012207031,-195.2030029296875 C34.64899826049805,-194.4340057373047 22.760000228881836,-190.02099609375 11.859999656677246,-189.125 C1,-188.23300170898438 -8.675000190734863,-190.2899932861328 -19.26799964904785,-191.0850067138672 C-19.26799964904785,-191.0850067138672 -7.076000213623047,-180.18600463867188 -7.076000213623047,-180.18600463867188 C-7.076000213623047,-180.18600463867188 8.855999946594238,-173.0469970703125 8.855999946594238,-173.0469970703125 C-15.925999641418457,-164.6529998779297 -41.777000427246094,-149.36500549316406 -65.4749984741211,-169.00399780273438 C-64.28900146484375,-145.5449981689453 -18.466999053955078,-117.48500061035156 -15.553999900817871,-101.18199920654297 C-12.602999687194824,-84.66999816894531 -33.11000061035156,-86.76000213623047 -43.375999450683594,-85.63800048828125 C-24.3799991607666,-65.2300033569336 -1.2690000534057617,-63.70399856567383 24.948999404907227,-68.53299713134766 C16.535999298095703,-56.52399826049805 -5.745999813079834,-48.472999572753906 -20.055999755859375,-48.67100143432617 C-37.97600173950195,-48.91899871826172 -59.904998779296875,-60.70100021362305 -78.55400085449219,-60.6870002746582 C-103.29900360107422,-60.667999267578125 -103.06500244140625,-45.30799865722656 -132.58099365234375,-58.75 C-149.73599243164062,-66.56300354003906 -152.7570037841797,-74.12200164794922 -175.11399841308594,-72.63500213623047 C-210.9239959716797,-70.25299835205078 -219.93099975585938,-35.07899856567383 -254.41900634765625,-42.415000915527344 C-250.802001953125,-33.28200149536133 -241.67799377441406,-26.81100082397461 -232.31700134277344,-24.322999954223633 C-227.76199340820312,-18.719999313354492 -246.4040069580078,-18.732999801635742 -246.36599731445312,-14.331999778747559 C-219.04600524902344,0.052000001072883606 -191.50999450683594,-3.4010000228881836 -165.3769989013672,-18.72100067138672 C-153.92300415039062,-25.43600082397461 -143.83299255371094,-40.13100051879883 -129.81300354003906,-34.375 C-148.36000061035156,-6.698999881744385 -145.7100067138672,18.940000534057617 -124.81199645996094,43.981998443603516 C-114.89299774169922,55.867000579833984 -102.67500305175781,58.880001068115234 -103.88500213623047,76.8280029296875 C-105.03399658203125,93.86699676513672 -121.03399658203125,108.375 -102.42500305175781,118.03700256347656 C-79.95999908447266,129.70199584960938 -37.47999954223633,139.4969940185547 -24.961000442504883,161.14700317382812 C-15.484999656677246,177.53399658203125 -18.52899932861328,188.63299560546875 4.732999801635742,193.7449951171875 C7.992000102996826,194.46099853515625 21.920000076293945,197.1699981689453 20.719999313354492,191.85699462890625 C14,176.75599670410156 8.324999809265137,157.593994140625 -3.1419999599456787,145.36300659179688 C-14.38700008392334,133.36900329589844 -44.025001525878906,123.97200012207031 -59.89799880981445,115.70899963378906 C-63.066001892089844,114.05999755859375 -81.27400207519531,104.58799743652344 -81.3740005493164,103.25800323486328 C-74.45600128173828,88.3219985961914 -64.55999755859375,73.14299774169922 -58.49300003051758,57.98400115966797 C-55.93899917602539,51.604000091552734 -54.4900016784668,39.715999603271484 -52.4640007019043,35.8849983215332 C-50.551998138427734,32.26900100708008 -49.8849983215332,35.14699935913086 -48.39799880981445,35.869998931884766 C-34.611000061035156,42.57400131225586 -22.476999282836914,51.24399948120117 -7.2270002365112305,55.02199935913086 C11.935999870300293,59.76900100708008 34.15999984741211,59.74100112915039 53.073001861572266,53.974998474121094 C53.073001861572266,53.974998474121094 35.0099983215332,32.893001556396484 35.0099983215332,32.893001556396484 C34.57400131225586,31.55900001525879 36.78200149536133,31.430999755859375 37.98099899291992,31.922000885009766 C44.27199935913086,34.5 55.507999420166016,46.154998779296875 63.784000396728516,50.33700180053711 C73.63400268554688,55.314998626708984 93.47899627685547,60.97800064086914 104.33799743652344,62.0359992980957 C114.26599884033203,63.00400161743164 125.41000366210938,61.33399963378906 135.49000549316406,62.0359992980957 C136.22799682617188,65.4209976196289 134.4010009765625,66.09300231933594 132.43499755859375,68.02200317382812 C121.66500091552734,78.59500122070312 101.60700225830078,90.03900146484375 86.18199920654297,88.21399688720703 C81.10299682617188,87.61299896240234 77.83499908447266,84.5790023803711 74.00800323486328,84.12000274658203 C62.80799865722656,82.7770004272461 53.7239990234375,100.77300262451172 49.10100173950195,109.27899932861328 C48.89699935913086,109.9020004272461 53.80099868774414,112.26100158691406 54.09199905395508,112.26100158691406 C54.09199905395508,112.26100158691406 96.2979965209961,112.26100158691406 96.2979965209961,112.26100158691406 C101.85199737548828,112.26100158691406 151.21400451660156,82.41400146484375 159.4429931640625,76.93800354003906 C170.7259979248047,69.42900085449219 176.03599548339844,60.80500030517578 165.58799743652344,49.02299880981445 C165.58799743652344,49.02299880981445 117.41600036621094,25.89699935913086 117.41600036621094,25.89699935913086 C127.99199676513672,23.36400032043457 138.9530029296875,23.062000274658203 149.63299560546875,20.924999237060547 C156.85000610351562,19.481000900268555 172.6719970703125,12.50100040435791 177.6490020751953,14.79699993133545 C181.8939971923828,16.7549991607666 213.88800048828125,53.89899826049805 217.1750030517578,59.742000579833984 C225.3820037841797,74.33000183105469 218.18499755859375,76.20899963378906 220.2310028076172,86.6719970703125 C222.21200561523438,96.80500030517578 252.44400024414062,118.09100341796875 254.07699584960938,101.1709976196289 C254.41900634765625,97.62999725341797 248.25999450683594,75.38099670410156 246.6009979248047,70.50800323486328z M139.5189971923828,-126.80500030517578 C149.9980010986328,-128.875 157.61199951171875,-120.72599792480469 157.58799743652344,-110.7509994506836 C148.177001953125,-110.88899993896484 137.81100463867188,-116.0199966430664 139.5189971923828,-126.80500030517578z"></path></g></g></g></svg>