<svg xmlns="http://www.w3.org/2000/svg" xmlns:xlink="http://www.w3.org/1999/xlink" viewBox="0 0 512 512" width="512" height="512" style="width: 100%; height: 100%; transform: translate3d(0,0,0);" preserveAspectRatio="xMidYMid meet"><defs><clipPath id="__lottie_element_52781"><rect width="512" height="512" x="0" y="0"></rect></clipPath></defs><g clip-path="url(#__lottie_element_52781)"><g style="display: block;" transform="matrix(1,0,0,1,256,256)" opacity="1"><g opacity="1" transform="matrix(1,0,0,1,0,0)"><path fill="rgb(0,0,0)" fill-opacity="1" d=" M251,58.95000076293945 C251,25.41699981689453 234.23300170898438,8.649999618530273 200.6999969482422,8.649999618530273 C200.6999969482422,8.649999618530273 -198.85000610351562,8.649999618530273 -198.85000610351562,8.649999618530273 C-232.2830047607422,8.649999618530273 -249,25.41699981689453 -249,58.95000076293945 C-249,58.95000076293945 -249,177.60000610351562 -249,177.60000610351562 C-249,211.13299560546875 -232.2830047607422,227.89999389648438 -198.85000610351562,227.89999389648438 C-198.85000610351562,227.89999389648438 200.6999969482422,227.89999389648438 200.6999969482422,227.89999389648438 C234.23300170898438,227.89999389648438 251,211.13299560546875 251,177.60000610351562 C251,177.60000610351562 251,58.95000076293945 251,58.95000076293945 M-47.45000076293945,74.4000015258789 C-31.562000274658203,63.27199935913086 -6.539000034332275,67.03500366210938 4.650000095367432,82.9000015258789 C16.597999572753906,66.64900207519531 42.43000030517578,62.86600112915039 58.150001525878906,75.5999984741211 C88.50599670410156,104.76799774169922 52.25899887084961,154.55599975585938 23.60099983215332,171.99899291992188 C6.901000022888184,183.7740020751953 -4.795000076293945,178.13699340820312 -19.899999618530273,167.74899291992188 C-48.61600112915039,148.51400756835938 -78.87000274658203,101.3030014038086 -47.45000076293945,74.4000015258789 M148,-121.3499984741211 C198.02000427246094,-209.05999755859375 165.0989990234375,-249.32899475097656 76.64900207519531,-212.10299682617188 C38.849998474121094,-195.63299560546875 3.433000087738037,-197.8000030517578 -29.600000381469727,-218.60000610351562 C-99.76799774169922,-269.0610046386719 -210.5330047607422,-215.55599975585938 -154.60000610351562,-121.05000305175781 C-196.23199462890625,-121.96199798583984 -218.44700622558594,-38.60100173950195 -232.3000030517578,-10.899999618530273 C-232.3000030517578,-10.899999618530273 230.6999969482422,-10.899999618530273 230.6999969482422,-10.899999618530273 C217.1739959716797,-46.16600036621094 196.21499633789062,-126.58399963378906 148,-121.3499984741211 M143.60000610351562,-191.8000030517578 C143.60000610351562,-191.8000030517578 143.4499969482422,-191.8000030517578 143.4499969482422,-191.8000030517578 C152.4929962158203,-174.2729949951172 101.13300323486328,-96.15499877929688 81.80000305175781,-66.6500015258789 C73.4000015258789,-64.51699829101562 65.16699981689453,-62.650001525878906 57.099998474121094,-61.04999923706055 C57.099998474121094,-61.04999923706055 69.19999694824219,-113.9000015258789 69.19999694824219,-113.9000015258789 C72.16000366210938,-125.9800033569336 57.750999450683594,-136.18099975585938 47.54999923706055,-129.25 C38.435001373291016,-126.98899841308594 29.98699951171875,-63.849998474121094 26.799999237060547,-56.79999923706055 C10.333000183105469,-55.400001525878906 -5.933000087738037,-55.20000076293945 -22,-56.20000076293945 C-25.479000091552734,-63.332000732421875 -36.72200012207031,-128.2220001220703 -45.64799880981445,-130.30099487304688 C-56.05400085449219,-136.93699645996094 -70.3290023803711,-126.33699798583984 -66.8499984741211,-114.4000015258789 C-66.8499984741211,-114.4000015258789 -52.75,-60 -52.75,-60 C-63.04999923706055,-61.79999923706055 -73.25,-64.11699676513672 -83.3499984741211,-66.94999694824219 C-110.62699890136719,-100.28800201416016 -156.96800231933594,-161.66200256347656 -132.89999389648438,-193.4510040283203 C-105.33300018310547,-213.9499969482422 -76.05000305175781,-214.26699829101562 -45.04999923706055,-194.39999389648438 C-45.04999923706055,-194.39999389648438 -44.900001525878906,-194.39999389648438 -44.900001525878906,-194.39999389648438 C47.071998596191406,-134.29800415039062 98.85399627685547,-215.0800018310547 143.60000610351562,-191.8000030517578z"></path></g></g></g></svg>