<svg xmlns="http://www.w3.org/2000/svg" xmlns:xlink="http://www.w3.org/1999/xlink" viewBox="0 0 512 512" width="512" height="512" style="width: 100%; height: 100%; transform: translate3d(0,0,0);" preserveAspectRatio="xMidYMid meet"><defs><clipPath id="__lottie_element_52816"><rect width="512" height="512" x="0" y="0"></rect></clipPath></defs><g clip-path="url(#__lottie_element_52816)"><g style="display: block;" transform="matrix(1,0,0,1,262.52301025390625,256.8529968261719)" opacity="1"><g opacity="1" transform="matrix(1,0,0,1,0,0)"><path fill="rgb(4,5,52)" fill-opacity="1" d=" M199.3719940185547,113.15599822998047 C194.4320068359375,103.81600189208984 195.36199951171875,59.72600173950195 165.2519989013672,29.266000747680664 C205.11199951171875,18.785999298095703 214.6219940185547,-33.104000091552734 232.1820068359375,-73.76399993896484 C249.73199462890625,-114.42400360107422 232.1320037841797,-106.51399993896484 199.3719940185547,-118.3740005493164 C167.6219940185547,-129.87399291992188 116.76200103759766,-145.61399841308594 98.25199890136719,-137.81399536132812 C87.06199645996094,-175.01400756835938 36.34199905395508,-223.61399841308594 30.531999588012695,-234.70399475097656 C24.32200050354004,-246.56399536132812 18.101999282836914,-248.25399780273438 8.501999855041504,-235.83399963378906 C-1.0980000495910645,-223.41400146484375 -50.78799819946289,-200.25399780273438 -59.81800079345703,-155.6439971923828 C-97.93800354003906,-178.51400756835938 -150.17799377441406,-160.73399353027344 -156.947998046875,-165.24400329589844 C-163.72799682617188,-169.76400756835938 -163.16799926757812,-183.88400268554688 -172.76800537109375,-181.0540008544922 C-182.0679931640625,-178.32400512695312 -203.58799743652344,-55.84400177001953 -166.28799438476562,-27.06399917602539 C-211.70799255371094,7.565999984741211 -242.28799438476562,89.72599792480469 -238.83799743652344,95.64600372314453 C-234.8780059814453,102.4260025024414 -213.41799926757812,89.43599700927734 -198.73800659179688,94.51599884033203 C-184.05799865722656,99.59600067138672 -140.00799560546875,123.88600158691406 -105.56800079345703,119.9260025024414 C-104.61799621582031,119.81600189208984 -103.6780014038086,119.69599914550781 -102.73799896240234,119.55599975585938 C-101.20800018310547,163.66600036621094 -49.948001861572266,194.75599670410156 -41.1879997253418,204.0659942626953 C-32.14799880981445,213.66600036621094 -37.237998962402344,241.906005859375 -32.71799850463867,244.16600036621094 C-28.238000869750977,246.406005859375 28.402000427246094,234.20599365234375 62.391998291015625,148.7259979248047 C70.44200134277344,153.9459991455078 79.54199981689453,158.58599853515625 89.8219985961914,162.28599548339844 C160.41200256347656,187.6959991455078 234.39199829101562,138.5659942626953 232.1320037841797,132.91600036621094 C229.8719940185547,127.26599884033203 204.46200561523438,122.75599670410156 199.3719940185547,113.15599822998047z M67.23200225830078,29.016000747680664 C67.23200225830078,29.016000747680664 62.152000427246094,64.69599914550781 43.52199935913086,70.23600006103516 C22.66200065612793,76.43599700927734 7.1020002365112305,69.05599975585938 4.4120001792907715,67.64600372314453 C4.26200008392334,67.57599639892578 4.131999969482422,67.49600219726562 3.992000102996826,67.41600036621094 C-10.128000259399414,59.316001892089844 -19.67799949645996,62.47600173950195 -27.58799934387207,64.08599853515625 C-27.58799934387207,64.08599853515625 -51.63800048828125,69.95600128173828 -57.56800079345703,51.0359992980957 C-61.20800018310547,39.395999908447266 -55.167999267578125,27.31599998474121 -61.167999267578125,19.416000366210938 C-67.16799926757812,11.505999565124512 -79.11799621582031,-7.314000129699707 -77.3280029296875,-18.423999786376953 C-74.78800201416016,-34.23400115966797 -61.007999420166016,-37.24399948120117 -58.96799850463867,-38.58399963378906 C-58.86800003051758,-38.64400100708008 -58.78799819946289,-38.7140007019043 -58.698001861572266,-38.75400161743164 C-36.38800048828125,-48.07400131225586 -44.30799865722656,-63.31399917602539 -44.29800033569336,-63.31399917602539 C-74.58799743652344,-103.06400299072266 -60.27799987792969,-154.03399658203125 -59.827999114990234,-155.60400390625 C-68.77799987792969,-111.3239974975586 -29.878000259399414,-70.94400024414062 -29.33799934387207,-70.38400268554688 C-29.327999114990234,-70.3740005493164 -29.327999114990234,-70.3740005493164 -29.327999114990234,-70.3740005493164 C-29.327999114990234,-70.3740005493164 -12.958000183105469,-83.64399719238281 1.1619999408721924,-82.51399993896484 C15.272000312805176,-81.38400268554688 24.32200050354004,-70.3740005493164 29.402000427246094,-68.11399841308594 C32.321998596191406,-66.81400299072266 44.801998138427734,-67.94400024414062 56.03200149536133,-66.56400299072266 C56.04199981689453,-66.55400085449219 56.04199981689453,-66.55400085449219 56.051998138427734,-66.55400085449219 C72.16200256347656,-63.29399871826172 83.61199951171875,-53.433998107910156 77.12200164794922,-35.36399841308594 C72.3219985961914,-17.854000091552734 83.61199951171875,-22.65399932861328 86.72200012207031,-0.004000000189989805 C86.72200012207031,-0.004000000189989805 84.88200378417969,23.29599952697754 67.23200225830078,29.016000747680664z"></path><path stroke-linecap="butt" stroke-linejoin="miter" fill-opacity="0" stroke-miterlimit="10" stroke="rgb(4,5,52)" stroke-opacity="1" stroke-width="1" d=" M199.3719940185547,113.15599822998047 C194.4320068359375,103.81600189208984 195.36199951171875,59.72600173950195 165.2519989013672,29.266000747680664 C205.11199951171875,18.785999298095703 214.6219940185547,-33.104000091552734 232.1820068359375,-73.76399993896484 C249.73199462890625,-114.42400360107422 232.1320037841797,-106.51399993896484 199.3719940185547,-118.3740005493164 C167.6219940185547,-129.87399291992188 116.76200103759766,-145.61399841308594 98.25199890136719,-137.81399536132812 C87.06199645996094,-175.01400756835938 36.34199905395508,-223.61399841308594 30.531999588012695,-234.70399475097656 C24.32200050354004,-246.56399536132812 18.101999282836914,-248.25399780273438 8.501999855041504,-235.83399963378906 C-1.0980000495910645,-223.41400146484375 -50.78799819946289,-200.25399780273438 -59.81800079345703,-155.6439971923828 C-97.93800354003906,-178.51400756835938 -150.17799377441406,-160.73399353027344 -156.947998046875,-165.24400329589844 C-163.72799682617188,-169.76400756835938 -163.16799926757812,-183.88400268554688 -172.76800537109375,-181.0540008544922 C-182.0679931640625,-178.32400512695312 -203.58799743652344,-55.84400177001953 -166.28799438476562,-27.06399917602539 C-211.70799255371094,7.565999984741211 -242.28799438476562,89.72599792480469 -238.83799743652344,95.64600372314453 C-234.8780059814453,102.4260025024414 -213.41799926757812,89.43599700927734 -198.73800659179688,94.51599884033203 C-184.05799865722656,99.59600067138672 -140.00799560546875,123.88600158691406 -105.56800079345703,119.9260025024414 C-104.61799621582031,119.81600189208984 -103.6780014038086,119.69599914550781 -102.73799896240234,119.55599975585938 C-101.20800018310547,163.66600036621094 -49.948001861572266,194.75599670410156 -41.1879997253418,204.0659942626953 C-32.14799880981445,213.66600036621094 -37.237998962402344,241.906005859375 -32.71799850463867,244.16600036621094 C-28.238000869750977,246.406005859375 28.402000427246094,234.20599365234375 62.391998291015625,148.7259979248047 C70.44200134277344,153.9459991455078 79.54199981689453,158.58599853515625 89.8219985961914,162.28599548339844 C160.41200256347656,187.6959991455078 234.39199829101562,138.5659942626953 232.1320037841797,132.91600036621094 C229.8719940185547,127.26599884033203 204.46200561523438,122.75599670410156 199.3719940185547,113.15599822998047z M67.23200225830078,29.016000747680664 C67.23200225830078,29.016000747680664 62.152000427246094,64.69599914550781 43.52199935913086,70.23600006103516 C22.66200065612793,76.43599700927734 7.1020002365112305,69.05599975585938 4.4120001792907715,67.64600372314453 C4.26200008392334,67.57599639892578 4.131999969482422,67.49600219726562 3.992000102996826,67.41600036621094 C-10.128000259399414,59.316001892089844 -19.67799949645996,62.47600173950195 -27.58799934387207,64.08599853515625 C-27.58799934387207,64.08599853515625 -51.63800048828125,69.95600128173828 -57.56800079345703,51.0359992980957 C-61.20800018310547,39.395999908447266 -55.167999267578125,27.31599998474121 -61.167999267578125,19.416000366210938 C-67.16799926757812,11.505999565124512 -79.11799621582031,-7.314000129699707 -77.3280029296875,-18.423999786376953 C-74.78800201416016,-34.23400115966797 -61.007999420166016,-37.24399948120117 -58.96799850463867,-38.58399963378906 C-58.86800003051758,-38.64400100708008 -58.78799819946289,-38.7140007019043 -58.698001861572266,-38.75400161743164 C-36.38800048828125,-48.07400131225586 -44.30799865722656,-63.31399917602539 -44.29800033569336,-63.31399917602539 C-74.58799743652344,-103.06400299072266 -60.27799987792969,-154.03399658203125 -59.827999114990234,-155.60400390625 C-68.77799987792969,-111.3239974975586 -29.878000259399414,-70.94400024414062 -29.33799934387207,-70.38400268554688 C-29.327999114990234,-70.3740005493164 -29.327999114990234,-70.3740005493164 -29.327999114990234,-70.3740005493164 C-29.327999114990234,-70.3740005493164 -12.958000183105469,-83.64399719238281 1.1619999408721924,-82.51399993896484 C15.272000312805176,-81.38400268554688 24.32200050354004,-70.3740005493164 29.402000427246094,-68.11399841308594 C32.321998596191406,-66.81400299072266 44.801998138427734,-67.94400024414062 56.03200149536133,-66.56400299072266 C56.04199981689453,-66.55400085449219 56.04199981689453,-66.55400085449219 56.051998138427734,-66.55400085449219 C72.16200256347656,-63.29399871826172 83.61199951171875,-53.433998107910156 77.12200164794922,-35.36399841308594 C72.3219985961914,-17.854000091552734 83.61199951171875,-22.65399932861328 86.72200012207031,-0.004000000189989805 C86.72200012207031,-0.004000000189989805 84.88200378417969,23.29599952697754 67.23200225830078,29.016000747680664z"></path></g></g></g></svg>