<svg xmlns="http://www.w3.org/2000/svg" xmlns:xlink="http://www.w3.org/1999/xlink" viewBox="0 0 512 512" width="512" height="512" style="width: 100%; height: 100%; transform: translate3d(0,0,0);" preserveAspectRatio="xMidYMid meet"><defs><clipPath id="__lottie_element_9083"><rect width="512" height="512" x="0" y="0"></rect></clipPath></defs><g clip-path="url(#__lottie_element_9083)"><g style="display: block;" transform="matrix(1.0499999523162842,0,0,1.0499999523162842,-16.39599609375,10.197708129882812)" opacity="1"><g opacity="1" transform="matrix(1,0,0,1,251.35499572753906,237.8260040283203)"><path fill="rgb(0,0,0)" fill-opacity="1" d=" M240.56500244140625,41.08599853515625 C224.56500244140625,-79.91400146484375 99.56500244140625,-97.91400146484375 101.56500244140625,-103.91400146484375 C103.15499877929688,-108.68399810791016 121.81500244140625,-108.77400207519531 137.56500244140625,-105.91400146484375 C165.06500244140625,-100.91400146484375 178.9149932861328,-82.59500122070312 186.56500244140625,-86.91400146484375 C198.06500244140625,-93.41400146484375 179.06500244140625,-233.9149932861328 139.56500244140625,-235.9149932861328 C106.70500183105469,-237.5760040283203 42.564998626708984,-187.41400146484375 16.565000534057617,-132.91400146484375 C12.774999618530273,-124.96399688720703 8.005000114440918,-126.94599914550781 -7.425000190734863,-126.31500244140625 C-21.424999237060547,-125.73500061035156 -29.084999084472656,-121.11499786376953 -31.434999465942383,-123.91400146484375 C-67.93499755859375,-167.41400146484375 -142.5850067138672,-212.3260040283203 -165.43499755859375,-203.9149932861328 C-232.43499755859375,-179.24600219726562 -251.10499572753906,-42.915000915527344 -189.43499755859375,14.085000038146973 C-184.875,18.29400062561035 -196.28500366210938,46.236000061035156 -193.43499755859375,70.08599853515625 C-180.93499755859375,174.58599853515625 -81.56500244140625,237.5749969482422 -9.4350004196167,230.0850067138672 C67.56500244140625,222.0850067138672 99.56500244140625,150.08599853515625 105.56500244140625,146.08599853515625 C110.91500091552734,142.51499938964844 134.06500244140625,169.58599853515625 174.06500244140625,164.58599853515625 C229.21499633789062,157.6959991455078 247.43499755859375,93.06600189208984 240.56500244140625,41.08599853515625z M-137.9949951171875,-142.1739959716797 C-157.90499877929688,-110.31400299072266 -156.4949951171875,-83.40599822998047 -153.875,-51.59600067138672 C-152.47500610351562,-34.71500015258789 -177.93499755859375,-28.413999557495117 -183.43499755859375,-44.41400146484375 C-198.34500122070312,-87.80500030517578 -183.46499633789062,-143.88600158691406 -163.93499755859375,-163.4149932861328 C-150.93499755859375,-176.4149932861328 -127.99500274658203,-158.1739959716797 -137.9949951171875,-142.1739959716797z M53.51499938964844,123.16500091552734 C50.435001373291016,136.90499877929688 7.445000171661377,160.4459991455078 -31.434999465942383,156.58599853515625 C-96.93499755859375,150.08599853515625 -112.51499938964844,90.95600128173828 -108.93499755859375,74.08599853515625 C-105.43499755859375,57.58599853515625 -76.80500030517578,31.31599998474121 -36.435001373291016,35.08599853515625 C38.564998626708984,42.08599853515625 56.564998626708984,109.58499908447266 53.51499938964844,123.16500091552734z M83.93499755859375,-143.01600646972656 C72.56500244140625,-131.9149932861328 57.654998779296875,-147.4250030517578 65.56500244140625,-160.4149932861328 C79.56500244140625,-183.4149932861328 96.90499877929688,-193.52499389648438 115.06500244140625,-200.4149932861328 C129.56500244140625,-205.9149932861328 140.06500244140625,-185.9149932861328 130.56500244140625,-180.9149932861328 C107.90499877929688,-168.98500061035156 100.625,-159.2949981689453 83.93499755859375,-143.01600646972656z M167.56500244140625,120.81500244140625 C147.64500427246094,126.23500061035156 123.43499755859375,104.5260009765625 120.76499938964844,90.95600128173828 C118.11499786376953,77.53600311279297 122.2249984741211,9.503999710083008 160.7050018310547,-0.5260000228881836 C181.4149932861328,-5.925000190734863 198.35499572753906,19.104000091552734 201.46499633789062,35.404998779296875 C204.64500427246094,52.07500076293945 201.14500427246094,111.66500091552734 167.56500244140625,120.81500244140625z"></path></g></g></g></svg>