<svg xmlns="http://www.w3.org/2000/svg" xmlns:xlink="http://www.w3.org/1999/xlink" viewBox="0 0 512 512" width="512" height="512" style="width: 100%; height: 100%; transform: translate3d(0,0,0);" preserveAspectRatio="xMidYMid meet"><defs><clipPath id="__lottie_element_53244"><rect width="512" height="512" x="0" y="0"></rect></clipPath></defs><g clip-path="url(#__lottie_element_53244)"><g style="display: block;" transform="matrix(1,0,0,1,0,0)" opacity="1"><g opacity="1" transform="matrix(1,0,0,1,249.6840057373047,255.8820037841797)"><path fill="rgb(0,0,0)" fill-opacity="1" d=" M207.7480010986328,43.08300018310547 C206.06900024414062,16.739999771118164 192.56900024414062,-16.33099937438965 181.0030059814453,-40.1150016784668 C165.36399841308594,-72.2770004272461 144.21499633789062,-101.40699768066406 118.16500091552734,-125.91500091552734 C121.39199829101562,-127.48300170898438 128.28199768066406,-122.25399780273438 131.01499938964844,-120.43699645996094 C150.0290069580078,-107.7969970703125 163.10499572753906,-90.56199645996094 180.281005859375,-76.03900146484375 C181.93499755859375,-79.6259994506836 178.8939971923828,-86.02799987792969 177.5959930419922,-89.63999938964844 C158.4010009765625,-143.01600646972656 108.33599853515625,-190.4459991455078 52.999000549316406,-204.3070068359375 C52.53200149536133,-207.94200134277344 57.58399963378906,-206.29299926757812 59.85100173950195,-206.07200622558594 C67.27799987792969,-205.34800720214844 78.33200073242188,-203.21299743652344 85.58899688720703,-201.2480010986328 C96.74299621582031,-198.2270050048828 106.3499984741211,-190.93800354003906 115.49700164794922,-188.38400268554688 C118.19100189208984,-187.6320037841797 122.06099700927734,-187.6510009765625 120.17900085449219,-191.02699279785156 C119.6520004272461,-191.97300720214844 105.91200256347656,-203.49000549316406 103.73200225830078,-205.13299560546875 C62.387001037597656,-236.28199768066406 13.02299976348877,-236.73800659179688 -34.5880012512207,-220.58900451660156 C-34.5880012512207,-220.58900451660156 4.0970001220703125,-251.08599853515625 4.0970001220703125,-251.08599853515625 C-17.399999618530273,-253.70799255371094 -32.14500045776367,-248.20899963378906 -49.486000061035156,-236.47900390625 C-69.63500213623047,-222.85000610351562 -82.44200134277344,-204.6840057373047 -90.6050033569336,-181.8990020751953 C-100.05699920654297,-196.3159942626953 -103.32099914550781,-213.58999633789062 -101.81500244140625,-230.7480010986328 C-114.7979965209961,-220.90699768066406 -124.2490005493164,-199.98199462890625 -121.23799896240234,-183.81900024414062 C-117.41899871826172,-163.3209991455078 -101.43499755859375,-157.33399963378906 -117.19599914550781,-135.19200134277344 C-122.33999633789062,-127.96399688720703 -131.21600341796875,-123.26399993896484 -135.52000427246094,-114.8290023803711 C-140.4530029296875,-105.16000366210938 -140.2530059814453,-93.77799987792969 -143.55299377441406,-84.17900085449219 C-147.95799255371094,-71.36499786376953 -162.98599243164062,-57.834999084472656 -173.0500030517578,-48.51900100708008 C-184.53700256347656,-37.88399887084961 -201.0850067138672,-34.266998291015625 -191.79400634765625,-13.536999702453613 C-189.11599731445312,-7.561999797821045 -180.16000366210938,7.860000133514404 -176.4250030517578,13.838000297546387 C-161.8990020751953,37.08700180053711 -143.1840057373047,29.920000076293945 -120.13600158691406,25.770000457763672 C-118.78299713134766,30.409000396728516 -123.62799835205078,31.131000518798828 -126.81999969482422,32.22800064086914 C-133.8509979248047,34.64500045776367 -141.56300354003906,34.97999954223633 -148.35299682617188,38.24700164794922 C-150.7519989013672,57.96799850463867 -134,69.35800170898438 -115.14600372314453,66.34600067138672 C-90.9520034790039,62.483001708984375 -44.479000091552734,11.125 -29.66900062561035,-9.020999908447266 C-29.66900062561035,-9.020999908447266 0.014999999664723873,-53.624000549316406 0.014999999664723873,-53.624000549316406 C-16.9060001373291,-0.8899999856948853 -56.12099838256836,54.65399932861328 -108.55500030517578,77.02300262451172 C-144.20899963378906,92.23300170898438 -197.23399353027344,96.1449966430664 -207.50799560546875,141 C-209.3179931640625,148.79200744628906 -194.86099243164062,138.13699340820312 -192.82000732421875,137.33200073242188 C-145.07699584960938,118.50199890136719 -80.41999816894531,115.46099853515625 -39.72200012207031,82.72100067138672 C-27.1200008392334,72.58300018310547 -19.618000030517578,58.902000427246094 -8.131999969482422,48.154998779296875 C-17.91200065612793,88.9219970703125 -57.74700164794922,108.16000366210938 -93.67900085449219,122.43000030517578 C-124.44999694824219,134.6510009765625 -165.90699768066406,138.47000122070312 -177.03900146484375,175.50100708007812 C-183.11099243164062,195.7010040283203 -181.41000366210938,211.84500122070312 -170.6790008544922,229.9949951171875 C-168.28199768066406,234.0469970703125 -155.08999633789062,250.2270050048828 -151.66600036621094,251.71499633789062 C-147.08099365234375,253.70799255371094 -149.3419952392578,249.23199462890625 -149.51199340820312,247.54299926757812 C-151.16900634765625,231.0850067138672 -148.7550048828125,221.15199279785156 -138.40899658203125,208.00799560546875 C-101.49400329589844,161.11099243164062 -33.39099884033203,152.41400146484375 3.111999988555908,105.16899871826172 C7.521999835968018,104.48899841308594 6.3480000495910645,106.3270034790039 5.375,109.46800231933594 C0.7940000295639038,124.24099731445312 -12.743000030517578,140.93800354003906 -24.378000259399414,150.98800659179688 C-55.189998626708984,177.6020050048828 -117.69499969482422,189.7270050048828 -116.04199981689453,239.50799560546875 C-114.79299926757812,240.83799743652344 -97.72100067138672,231.13400268554688 -94.18299865722656,229.822998046875 C-76.27300262451172,223.18699645996094 -58.12900161743164,220.41200256347656 -39.96900177001953,212.76400756835938 C3.3489999771118164,194.5189971923828 53.198001861572266,157.50900268554688 68.25700378417969,111.26100158691406 C73.01799774169922,96.64099884033203 72.47899627685547,81.4209976196289 75.41200256347656,66.49099731445312 C75.41200256347656,66.49099731445312 81.25399780273438,86.05899810791016 81.25399780273438,86.05899810791016 C90.06099700927734,143.29200744628906 48.237998962402344,180.59500122070312 12.253999710083008,217.10499572753906 C54.941001892089844,206.03700256347656 91.53199768066406,193.61900329589844 114.94000244140625,153.85400390625 C143.72900390625,104.947998046875 120.03299713134766,48.93000030517578 105.95500183105469,-0.7049999833106995 C118.23300170898438,12.61400032043457 128.625,35.47700119018555 134.84100341796875,52.85100173950195 C144.37100219726562,79.49400329589844 144.6840057373047,116.80599975585938 162.38299560546875,139.218994140625 C163.66799926757812,140.8470001220703 162.30099487304688,142.98599243164062 167.0240020751953,141.7899932861328 C173.27699279785156,99.9000015258789 179.49600219726562,54.67599868774414 163.3300018310547,14.194000244140625 C150.968994140625,-16.757999420166016 128.427001953125,-42.209999084472656 107.9729995727539,-67.86699676513672 C109.46700286865234,-69.23999786376953 122.31300354003906,-58.48099899291992 124.2969970703125,-56.71900177001953 C132.16000366210938,-49.73899841308594 138.9429931640625,-41.28900146484375 145.44200134277344,-33.06999969482422 C169.1929931640625,-3.0320000648498535 186.59800720214844,31.417999267578125 201.68299865722656,66.47100067138672 C209.3179931640625,72.18299865722656 207.92300415039062,45.8380012512207 207.7480010986328,43.08300018310547z M-116.052001953125,-86.20800018310547 C-116.052001953125,-86.20800018310547 -85.50299835205078,-86.20800018310547 -85.50299835205078,-86.20800018310547 C-91.75199890136719,-59.81700134277344 -115.66300201416016,-53.724998474121094 -116.052001953125,-86.20800018310547z"></path></g></g></g></svg>