<svg xmlns="http://www.w3.org/2000/svg" xmlns:xlink="http://www.w3.org/1999/xlink" viewBox="0 0 512 512" width="512" height="512" style="width: 100%; height: 100%; transform: translate3d(0,0,0);" preserveAspectRatio="xMidYMid meet"><defs><clipPath id="__lottie_element_53384"><rect width="512" height="512" x="0" y="0"></rect></clipPath></defs><g clip-path="url(#__lottie_element_53384)"><g style="display: block;" transform="matrix(1,0,0,1,11.336990356445312,8.75)" opacity="1"><g opacity="1" transform="matrix(1,0,0,1,246.7519989013672,251.25)"><path fill="rgb(0,0,0)" fill-opacity="1" d=" M164.7530059814453,-163 C137.69700622558594,-208.66700744628906 56.53099822998047,-224 32.8120002746582,-224 C30.343000411987305,-224 24.461000442504883,-251 -1.9279999732971191,-251 C-27.98200035095215,-251 -34.922000885009766,-222.531005859375 -37.66899871826172,-222.33299255371094 C-104.08499908447266,-217.5570068359375 -156.57899475097656,-180.16799926757812 -172.9510040283203,-150 C-190.31700134277344,-118 -246.5019989013672,-3.446000099182129 -241.09300231933594,36 C-236.47799682617188,69.65799713134766 -167.99400329589844,121.552001953125 -147.36500549316406,140.65199279785156 C-129.33700561523438,157.3459930419922 -139.46299743652344,203.89999389648438 -124.75399780273438,218.57899475097656 C-108.22000122070312,235.0780029296875 -84.1709976196289,251 -63.722999572753906,241 C-51.09199905395508,234.822998046875 -36.4630012512207,146.18499755859375 -41.553001403808594,142.06500244140625 C-63.05500030517578,124.66699981689453 -120.09700012207031,138.86099243164062 -113.8280029296875,127.66699981689453 C-101.13500213623047,105 -44.957000732421875,108.93699645996094 -41.891998291015625,104.99800109863281 C-38.00299835205078,100 -39.196998596191406,68.9000015258789 -46.32400131225586,66.81300354003906 C-101.46900177001953,50.66699981689453 -175.4720001220703,64.86100006103516 -166.93800354003906,54.66699981689453 C-143.22300720214844,26.33300018310547 -62.90700149536133,35.58000183105469 -57.71099853515625,28.66699981689453 C-53.70199966430664,23.33300018310547 -69.46800231933594,-0.43700000643730164 -74.48300170898438,-2.444999933242798 C-110.82099914550781,-17 -199.67300415039062,-1.3329999446868896 -191.65699768066406,-13 C-173.99600219726562,-38.70199966430664 -84.97200012207031,-33.73699951171875 -87.43900299072266,-38.66699981689453 C-114.697998046875,-93.12999725341797 -152.08900451660156,-112 -135.9239959716797,-126.4800033569336 C-121.81500244140625,-139.11900329589844 -90.93399810791016,-86.26000213623047 -80.77300262451172,-76 C-74.73100280761719,-69.9000015258789 -47.35900115966797,-84.33000183105469 1.4129999876022339,-86 C50.79600143432617,-87.69000244140625 64.28199768066406,-69.45999908447266 77.58999633789062,-77 C89.94599914550781,-84 116.83499908447266,-146.7169952392578 135.69200134277344,-132 C154.91099548339844,-117 115.06400299072266,-96.21199798583984 87.75199890136719,-42.41699981689453 C85.85199737548828,-38.672000885009766 182.44200134277344,-47.12099838256836 199.3249969482422,-20 C206.17300415039062,-9 106.96900177001953,-26 72.84200286865234,-10.862000465393066 C66.80000305175781,-8.182000160217285 51.85200119018555,19.33300018310547 53.94599914550781,26.996999740600586 C56.24800109863281,35.415000915527344 169.8459930419922,24.56999969482422 188.8040008544922,54 C194.8159942626953,63.33300018310547 84.91999816894531,50 46.59600067138672,62.58700180053711 C38.60100173950195,65.21299743652344 39.492000579833984,98 42.7859992980957,102 C45.654998779296875,105.48300170898438 105.91200256347656,99.62799835205078 117.37999725341797,126.51000213623047 C121.99700164794922,137.33299255371094 60.87200164794922,122.66699981689453 43.14099884033203,135.3260040283203 C36.020999908447266,140.41000366210938 48.11399841308594,238.62600708007812 57.52899932861328,240 C85.67500305175781,244.10699462890625 108.51599884033203,231.6199951171875 119.98999786376953,216 C134.6909942626953,196 132.60699462890625,145.8000030517578 142.70700073242188,140.3300018310547 C151.84500122070312,135.39500427246094 234.3280029296875,73.302001953125 239.91000366210938,34 C246.5019989013672,-12.409000396728516 179.05299377441406,-138.86500549316406 164.7530059814453,-163z"></path></g></g></g></svg>