<svg xmlns="http://www.w3.org/2000/svg" xmlns:xlink="http://www.w3.org/1999/xlink" viewBox="0 0 512 512" width="512" height="512" style="width: 100%; height: 100%; transform: translate3d(0,0,0);" preserveAspectRatio="xMidYMid meet"><defs><clipPath id="__lottie_element_14412"><rect width="512" height="512" x="0" y="0"></rect></clipPath></defs><g clip-path="url(#__lottie_element_14412)"><g style="display: block;" transform="matrix(1,0,0,1,256,256)" opacity="1"><g opacity="1" transform="matrix(1,0,0,1,0,0)"><path stroke-linecap="round" stroke-linejoin="round" fill-opacity="0" stroke="rgb(0,0,0)" stroke-opacity="1" stroke-width="40" d=" M225.19700622558594,-141.91099548339844 C225.19700622558594,-141.91099548339844 225.19700622558594,216.35299682617188 225.19700622558594,216.35299682617188 C225.19700622558594,216.35299682617188 139.3070068359375,216.35299682617188 139.3070068359375,216.35299682617188"></path></g><g opacity="1" transform="matrix(1,0,0,1,0,0)"><path stroke-linecap="round" stroke-linejoin="round" fill-opacity="0" stroke="rgb(0,0,0)" stroke-opacity="1" stroke-width="40" d=" M-131.4409942626953,-112.62200164794922"></path></g><g opacity="1" transform="matrix(1,0,0,1,0,0)"><path fill="rgb(0,0,0)" fill-opacity="1" d=" M170.41600036621094,-161.91099548339844 C170.41600036621094,-161.91099548339844 26.42099952697754,-161.91099548339844 26.42099952697754,-161.91099548339844 C27.384000778198242,-148.76199340820312 31.32200050354004,-136.2899932861328 37.96900177001953,-125.50299835205078 C42.95399856567383,-117.41400146484375 42.03900146484375,-106.85900115966797 35.1609992980957,-100.302001953125 C31.111000061035156,-96.44100189208984 26.11400032043457,-94.62699890136719 21.19700050354004,-94.62699890136719 C14.517999649047852,-94.62699890136719 7.992000102996826,-97.97000122070312 4.201000213623047,-104.05699920654297 C-6.498000144958496,-121.23799896240234 -12.60200023651123,-141.12399291992188 -13.642000198364258,-161.91099548339844 C-13.642000198364258,-161.91099548339844 -141.1009979248047,-161.91099548339844 -141.1009979248047,-161.91099548339844 C-140.13800048828125,-148.76199340820312 -136.19900512695312,-136.2899932861328 -129.552001953125,-125.50299835205078 C-124.56700134277344,-117.41400146484375 -125.48200225830078,-106.85900115966797 -132.36000061035156,-100.302001953125 C-136.41000366210938,-96.44100189208984 -141.4080047607422,-94.62699890136719 -146.3249969482422,-94.62699890136719 C-153.00399780273438,-94.62699890136719 -159.52999877929688,-97.97000122070312 -163.3209991455078,-104.05699920654297 C-169.95199584960938,-114.70500183105469 -174.81700134277344,-126.39299774169922 -177.80599975585938,-138.68899536132812 C-181.11500549316406,-152.2989959716797 -193.25100708007812,-161.91099548339844 -207.25799560546875,-161.91099548339844 C-207.25799560546875,-161.91099548339844 -225.3179931640625,-161.91099548339844 -225.3179931640625,-161.91099548339844 C-236.36399841308594,-161.91099548339844 -245.3179931640625,-152.95700073242188 -245.3179931640625,-141.91099548339844 C-245.3179931640625,-141.91099548339844 -245.3179931640625,216.35299682617188 -245.3179931640625,216.35299682617188 C-245.3179931640625,227.3990020751953 -236.36399841308594,236.35299682617188 -225.3179931640625,236.35299682617188 C-225.3179931640625,236.35299682617188 -60.446998596191406,236.35299682617188 -60.446998596191406,236.35299682617188 C57.78300094604492,236.35299682617188 127.89399719238281,173.49400329589844 130.8209991455078,170.8179931640625 C132.13800048828125,169.61300659179688 133.28900146484375,168.23699951171875 134.24200439453125,166.7259979248047 C136.53500366210938,163.08900451660156 190.41600036621094,76.2040023803711 190.41600036621094,-50.196998596191406 C190.41600036621094,-50.196998596191406 190.41600036621094,-141.91099548339844 190.41600036621094,-141.91099548339844 C190.41600036621094,-152.95700073242188 181.46200561523438,-161.91099548339844 170.41600036621094,-161.91099548339844z M-48.292999267578125,31.695999145507812 C-35.48899841308594,44.880001068115234 -28.729999542236328,62.17499923706055 -29.26099967956543,80.39700317382812 C-29.281999588012695,81.16600036621094 -29.31800079345703,81.9489974975586 -29.368999481201172,82.73500061035156 C-31.472999572753906,116.61499786376953 -58.60100173950195,144.11000061035156 -92.47000122070312,146.65499877929688 C-94.25299835205078,146.7899932861328 -96.02999877929688,146.8560028076172 -97.79199981689453,146.8560028076172 C-126.25700378417969,146.85699462890625 -151.54800415039062,129.60299682617188 -161.77200317382812,102.6510009765625 C-165.68899536132812,92.3239974975586 -160.4929962158203,80.7760009765625 -150.1649932861328,76.85800170898438 C-139.83599853515625,72.93900299072266 -128.2899932861328,78.13800048828125 -124.37200164794922,88.46499633789062 C-119.8550033569336,100.37300109863281 -108.24099731445312,107.72100067138672 -95.46800231933594,106.76899719238281 C-81.41799926757812,105.71199798583984 -70.16400146484375,94.30000305175781 -69.29000091552734,80.22200012207031 C-69.26799774169922,79.87100219726562 -69.25399780273438,79.55500030517578 -69.24500274658203,79.24199676513672 C-69.03099822998047,71.90899658203125 -71.77999877929688,64.9260025024414 -76.98600006103516,59.566001892089844 C-82.43900299072266,53.952999114990234 -89.75499725341797,50.86000061035156 -97.58699798583984,50.86000061035156 C-97.58699798583984,50.86000061035156 -106.14900207519531,50.86000061035156 -106.14900207519531,50.86000061035156 C-114.2979965209961,50.86000061035156 -121.63300323486328,45.915000915527344 -124.68900299072266,38.36000061035156 C-127.74600219726562,30.80500030517578 -125.91200256347656,22.152000427246094 -120.05400085449219,16.485000610351562 C-120.05400085449219,16.485000610351562 -97.98100280761719,-4.868000030517578 -97.98100280761719,-4.868000030517578 C-97.98100280761719,-4.868000030517578 -133.00599670410156,-4.868000030517578 -133.00599670410156,-4.868000030517578 C-144.052001953125,-4.868000030517578 -153.00599670410156,-13.821999549865723 -153.00599670410156,-24.868000030517578 C-153.00599670410156,-35.91400146484375 -144.052001953125,-44.86800003051758 -133.00599670410156,-44.86800003051758 C-133.00599670410156,-44.86800003051758 -48.54199981689453,-44.86800003051758 -48.54199981689453,-44.86800003051758 C-40.393001556396484,-44.86800003051758 -33.05799865722656,-39.92300033569336 -30.00200080871582,-32.36800003051758 C-26.94499969482422,-24.812999725341797 -28.77899932861328,-16.15999984741211 -34.63600158691406,-10.493000030517578 C-34.63600158691406,-10.493000030517578 -65.1510009765625,19.027000427246094 -65.1510009765625,19.027000427246094 C-58.95000076293945,22.339000701904297 -53.24399948120117,26.599000930786133 -48.292999267578125,31.695999145507812z M87.4520034790039,57.994998931884766 C87.4520034790039,96.33999633789062 71.16799926757812,123.9800033569336 65.81600189208984,133.06199645996094 C62.08700180053711,139.38999938964844 55.41600036621094,142.91200256347656 48.566001892089844,142.91200256347656 C45.1150016784668,142.91299438476562 41.619998931884766,142.02000427246094 38.43199920654297,140.14100646972656 C28.915000915527344,134.53500366210938 25.746000289916992,122.27400207519531 31.35300064086914,112.75700378417969 C38.263999938964844,101.02799987792969 47.45199966430664,82.58799743652344 47.45199966430664,57.994998931884766 C47.45199966430664,57.994998931884766 47.45199966430664,18.89900016784668 47.45199966430664,18.89900016784668 C47.45199966430664,18.89900016784668 38.62200164794922,26.541000366210938 38.62200164794922,26.541000366210938 C30.27199935913086,33.77199935913086 17.641000747680664,32.862998962402344 10.411999702453613,24.510000228881836 C3.183000087738037,16.159000396728516 4.091000080108643,3.5280001163482666 12.442999839782715,-3.7009999752044678 C12.442999839782715,-3.7009999752044678 54.36199951171875,-39.98899841308594 54.36199951171875,-39.98899841308594 C60.28099822998047,-45.11199951171875 68.6449966430664,-46.31100082397461 75.76399993896484,-43.05799865722656 C82.88400268554688,-39.80400085449219 87.4520034790039,-32.69599914550781 87.4520034790039,-24.868000030517578 C87.4520034790039,-24.868000030517578 87.4520034790039,57.994998931884766 87.4520034790039,57.994998931884766z"></path></g><g opacity="1" transform="matrix(1,0,0,1,0,0)"><g opacity="1" transform="matrix(1,0,0,1,0,0)"><path fill="rgb(0,0,0)" fill-opacity="1" d=" M-77.37200164794922,-241.9340057373047 C-94.96199798583984,-241.9340057373047 -111.93199920654297,-233.53799438476562 -123.92900085449219,-218.89599609375 C-135.15499877929688,-205.197998046875 -141.33599853515625,-187.22300720214844 -141.33599853515625,-168.2830047607422 C-141.33599853515625,-149.34300231933594 -135.15499877929688,-131.3679962158203 -123.92900085449219,-117.66999816894531 C-111.93199920654297,-103.02799987792969 -94.96199798583984,-94.63200378417969 -77.37200164794922,-94.63200378417969 C-59.78099822998047,-94.63200378417969 -42.8120002746582,-103.02799987792969 -30.81399917602539,-117.66899871826172 C-19.58799934387207,-131.3679962158203 -13.406999588012695,-149.34300231933594 -13.406999588012695,-168.2830047607422 C-13.406999588012695,-187.22300720214844 -19.58799934387207,-205.197998046875 -30.81399917602539,-218.89700317382812 C-42.8120002746582,-233.53799438476562 -59.78099822998047,-241.9340057373047 -77.37200164794922,-241.9340057373047z M-77.37200164794922,-134.6320037841797 C-90.36199951171875,-134.6320037841797 -101.33599853515625,-150.04200744628906 -101.33599853515625,-168.2830047607422 C-101.33599853515625,-186.5240020751953 -90.36199951171875,-201.9340057373047 -77.37200164794922,-201.9340057373047 C-64.38200378417969,-201.9340057373047 -53.40700149536133,-186.5240020751953 -53.40700149536133,-168.2830047607422 C-53.40700149536133,-150.04200744628906 -64.38200378417969,-134.6320037841797 -77.37200164794922,-134.6320037841797z"></path></g><g opacity="1" transform="matrix(1,0,0,1,0,0)"><path fill="rgb(0,0,0)" fill-opacity="1" d=" M136.70700073242188,-218.89599609375 C124.70999908447266,-233.53799438476562 107.73999786376953,-241.9340057373047 90.1500015258789,-241.9340057373047 C72.55899810791016,-241.9340057373047 55.59000015258789,-233.53799438476562 43.59199905395508,-218.89700317382812 C32.36600112915039,-205.197998046875 26.184999465942383,-187.22300720214844 26.184999465942383,-168.2830047607422 C26.184999465942383,-149.34300231933594 32.36600112915039,-131.3679962158203 43.59199905395508,-117.66899871826172 C55.59000015258789,-103.02799987792969 72.55899810791016,-94.63200378417969 90.1500015258789,-94.63200378417969 C107.73999786376953,-94.63200378417969 124.70999908447266,-103.02799987792969 136.70700073242188,-117.66999816894531 C147.93299865722656,-131.3679962158203 154.11399841308594,-149.34300231933594 154.11399841308594,-168.2830047607422 C154.11399841308594,-187.22300720214844 147.93299865722656,-205.197998046875 136.70700073242188,-218.89599609375z M90.1500015258789,-134.6320037841797 C77.16000366210938,-134.6320037841797 66.18499755859375,-150.04200744628906 66.18499755859375,-168.2830047607422 C66.18499755859375,-186.5240020751953 77.16000366210938,-201.9340057373047 90.1500015258789,-201.9340057373047 C103.13999938964844,-201.9340057373047 114.11399841308594,-186.5240020751953 114.11399841308594,-168.2830047607422 C114.11399841308594,-150.04200744628906 103.13999938964844,-134.6320037841797 90.1500015258789,-134.6320037841797z"></path></g></g></g></g></svg>