<svg xmlns="http://www.w3.org/2000/svg" xmlns:xlink="http://www.w3.org/1999/xlink" viewBox="0 0 512 512" width="512" height="512" style="width: 100%; height: 100%; transform: translate3d(0,0,0);" preserveAspectRatio="xMidYMid meet"><defs><clipPath id="__lottie_element_53674"><rect width="512" height="512" x="0" y="0"></rect></clipPath></defs><g clip-path="url(#__lottie_element_53674)"><g style="display: block;" transform="matrix(1,0,0,1,256,256)" opacity="1"><g opacity="1" transform="matrix(1,0,0,1,0,0)"><path fill="rgb(0,0,0)" fill-opacity="1" d=" M231.6199951171875,-96.48100280761719 C231.6199951171875,-96.48100280761719 231.36300659179688,-96.875 231.36300659179688,-96.875 C220.33799743652344,-113.79499816894531 197.5989990234375,-118.59300231933594 180.6750030517578,-107.56800079345703 C180.6750030517578,-107.56800079345703 164.79200744628906,-97.21900177001953 164.79200744628906,-97.21900177001953 C155.18899536132812,-124.25 142.56199645996094,-148.33900451660156 127.09300231933594,-168.83799743652344 C93.71900177001953,-213.06500244140625 49.058998107910156,-237.42100524902344 1.340000033378601,-237.42100524902344 C-46.37900161743164,-237.42100524902344 -91.03800201416016,-213.06500244140625 -124.41200256347656,-168.83799743652344 C-140.1510009765625,-147.9810028076172 -152.9499969482422,-123.40899658203125 -162.61300659179688,-95.80000305175781 C-162.61300659179688,-95.80000305175781 -180.67599487304688,-107.56900024414062 -180.67599487304688,-107.56900024414062 C-197.5989990234375,-118.59300231933594 -220.33799743652344,-113.7969970703125 -231.36199951171875,-96.87699890136719 C-231.36199951171875,-96.87699890136719 -231.62100219726562,-96.47899627685547 -231.62100219726562,-96.47899627685547 C-236.9499969482422,-88.3010025024414 -238.77000427246094,-78.51599884033203 -236.7469940185547,-68.92500305175781 C-234.7239990234375,-59.334999084472656 -229.1060028076172,-51.11899948120117 -220.92799377441406,-45.790000915527344 C-220.92799377441406,-45.790000915527344 -187.53599548339844,-24.031999588012695 -187.53599548339844,-24.031999588012695 C-185.17799377441406,-22.496000289916992 -182.7050018310547,-21.273000717163086 -180.16900634765625,-20.340999603271484 C-181.60800170898438,-9.402000427246094 -182.66400146484375,1.8250000476837158 -183.3300018310547,13.312000274658203 C-186.91200256347656,75.13700103759766 -182.54200744628906,120.6500015258789 -169.9709930419922,152.45399475097656 C-154.35299682617188,191.96499633789062 -128.02499389648438,202.8509979248047 -108.68900299072266,205.02699279785156 C-88.96399688720703,207.2449951171875 -73.48699951171875,199.96600341796875 -62.45100021362305,191.3260040283203 C-61.43600082397461,193.74600219726562 -60.29600143432617,196.21299743652344 -59.01599884033203,198.68099975585938 C-46.064998626708984,223.66299438476562 -24.631000518798828,237.42100524902344 1.340000033378601,237.42100524902344 C27.31100082397461,237.42100524902344 48.74700164794922,223.66299438476562 61.698001861572266,198.6820068359375 C62.97700119018555,196.21400451660156 64.11599731445312,193.7469940185547 65.13200378417969,191.32699584960938 C74.80699920654297,198.9010009765625 87.89299774169922,205.4320068359375 104.26599884033203,205.42999267578125 C106.56700134277344,205.42999267578125 108.94000244140625,205.3000030517578 111.37000274658203,205.02699279785156 C130.70700073242188,202.8509979248047 157.03500366210938,191.96499633789062 172.65199279785156,152.45399475097656 C185.2220001220703,120.6500015258789 189.5919952392578,75.13700103759766 186.00999450683594,13.312000274658203 C185.322998046875,1.4589999914169312 184.21499633789062,-10.112000465393066 182.70599365234375,-21.381000518798828 C184.3560028076172,-22.132999420166016 185.9720001220703,-23.013999938964844 187.53599548339844,-24.033000946044922 C187.53599548339844,-24.033000946044922 220.92799377441406,-45.790000915527344 220.92799377441406,-45.790000915527344 C229.1060028076172,-51.11899948120117 234.7239990234375,-59.334999084472656 236.7469940185547,-68.92500305175781 C238.77000427246094,-78.51599884033203 236.9499969482422,-88.3010025024414 231.6199951171875,-96.48100280761719z M-29.839000701904297,-78.66600036621094 C-29.839000701904297,-78.66600036621094 -29.839000701904297,-78.66699981689453 -29.839000701904297,-78.66699981689453 C-34.715999603271484,-60.40999984741211 -44.263999938964844,-47.334999084472656 -56.03300094604492,-42.79399871826172 C-59.058998107910156,-41.62699890136719 -62.132999420166016,-41.04800033569336 -65.16500091552734,-41.04800033569336 C-69.76699829101562,-41.04800033569336 -74.26899719238281,-42.38199996948242 -78.35299682617188,-45.01900100708008 C-95.14299774169922,-55.86000061035156 -97.73699951171875,-84.69999694824219 -91.62300109863281,-107.58699798583984 C-86.74600219726562,-125.84400177001953 -77.197998046875,-138.91799926757812 -65.43000030517578,-143.45899963378906 C-57.81100082397461,-146.39700317382812 -49.88399887084961,-145.60800170898438 -43.10900115966797,-141.23399353027344 C-26.31800079345703,-130.3939971923828 -23.724000930786133,-101.55400085449219 -29.839000701904297,-78.66600036621094z M81.03500366210938,-45.01900100708008 C76.95099639892578,-42.38199996948242 72.4469985961914,-41.04800033569336 67.84600067138672,-41.04800033569336 C64.81400299072266,-41.04800033569336 61.73899841308594,-41.62699890136719 58.7130012512207,-42.79399871826172 C46.944000244140625,-47.334999084472656 37.39699935913086,-60.40999984741211 32.52000045776367,-78.66699981689453 C26.4060001373291,-101.55400085449219 29,-130.3939971923828 45.79100036621094,-141.23399353027344 C52.56700134277344,-145.60899353027344 60.49300003051758,-146.39700317382812 68.11100006103516,-143.45899963378906 C79.87999725341797,-138.91799926757812 89.4260025024414,-125.84400177001953 94.30400085449219,-107.58699798583984 C100.41799926757812,-84.69999694824219 97.8239974975586,-55.861000061035156 81.03500366210938,-45.01900100708008z"></path></g></g></g></svg>