<svg xmlns="http://www.w3.org/2000/svg" xmlns:xlink="http://www.w3.org/1999/xlink" viewBox="0 0 512 512" width="512" height="512" style="width: 100%; height: 100%; transform: translate3d(0,0,0);" preserveAspectRatio="xMidYMid meet"><defs><clipPath id="__lottie_element_53644"><rect width="512" height="512" x="0" y="0"></rect></clipPath></defs><g clip-path="url(#__lottie_element_53644)"><g style="display: block;" transform="matrix(1,0,0,1,-2345.26806640625,-0.069000244140625)" opacity="1"><g opacity="1" transform="matrix(1,0,0,1,2621.613037109375,326.614990234375)"><path fill="rgb(0,0,0)" fill-opacity="1" d=" M224.5970001220703,-159.23300170898438 C154.14500427246094,-191.01400756835938 87.46299743652344,-176.3509979248047 53.98500061035156,-164.78199768066406 C44.176998138427734,-161.39199829101562 38.029998779296875,-151.8470001220703 39.36899948120117,-142.08399963378906 C42.02399826049805,-122.70700073242188 43.013999938964844,-95.04199981689453 32.64500045776367,-73.28099822998047 C29.17799949645996,-66.00599670410156 25.32900047302246,-61.33399963378906 22.65999984741211,-58.6619987487793 C-6.033999919891357,-76.09300231933594 -11.013999938964844,-106.25700378417969 -11.217000007629395,-107.56900024414062 C-11.807000160217285,-111.56300354003906 -15.329000473022461,-114.48500061035156 -19.31599998474121,-114.39800262451172 C-23.351999282836914,-114.30400085449219 -26.687000274658203,-111.21800231933594 -27.090999603271484,-107.20099639892578 C-29.37299919128418,-84.51499938964844 -36.78799819946289,-69.21499633789062 -49.12900161743164,-61.72700119018555 C-68.01699829101562,-50.26599884033203 -93.39600372314453,-60.0989990234375 -93.85600280761719,-60.28200149536133 C-97.67500305175781,-61.819000244140625 -102.04499816894531,-60.207000732421875 -103.94400024414062,-56.54899978637695 C-105.84700012207031,-52.887001037597656 -104.65299987792969,-48.37900161743164 -101.18599700927734,-46.13999938964844 C-82.52100372314453,-34.084999084472656 -69.46700286865234,-19.756000518798828 -63.435001373291016,-4.697999954223633 C-60.891998291015625,1.6510000228881836 -60.09000015258789,6.914000034332275 -59.87200164794922,10.277000427246094 C-99.88500213623047,27.381000518798828 -131.90699768066406,14.289999961853027 -149.3979949951172,7.138999938964844 C-149.3979949951172,7.138999938964844 -149.66000366210938,7.0329999923706055 -149.66000366210938,7.0329999923706055 C-158.43099975585938,3.447000026702881 -168.3800048828125,6.044000148773193 -175.0070037841797,13.64799976348877 C-227.9219970703125,74.36900329589844 -229.27499389648438,156.03900146484375 -229.3070068359375,159.48599243164062 C-229.33599853515625,162.697998046875 -227.4409942626953,165.61599731445312 -224.4949951171875,166.89599609375 C-221.5489959716797,168.177001953125 -218.1219940185547,167.57000732421875 -215.7949981689453,165.35699462890625 C-188.80999755859375,139.7030029296875 -162.8249969482422,128.5070037841797 -138.5449981689453,132.06500244140625 C-102.44400024414062,137.36599731445312 -81.11599731445312,174.0240020751953 -80.91200256347656,174.3800048828125 C-79.47799682617188,176.91099548339844 -76.80500030517578,178.43699645996094 -73.9540023803711,178.43699645996094 C-73.57099914550781,178.43699645996094 -73.18599700927734,178.41000366210938 -72.79900360107422,178.35299682617188 C-69.53299713134766,177.8769989013672 -66.8949966430664,175.4459991455078 -66.15499877929688,172.22999572753906 C-59.354000091552734,142.65699768066406 -45.29199981689453,122.38800048828125 -24.357999801635742,111.98799896240234 C19.12700080871582,90.38300323486328 79.21099853515625,116.9219970703125 79.80799865722656,117.19000244140625 C82.552001953125,118.42900085449219 85.76300048828125,118.02200317382812 88.11100006103516,116.13500213623047 C90.45999908447266,114.24700164794922 91.54900360107422,111.20099639892578 90.93000030517578,108.25199890136719 C83.10900115966797,71.052001953125 86.68599700927734,43.63800048828125 101.56600189208984,26.77199935913086 C120.2239990234375,5.620999813079834 151.45700073242188,7.928999900817871 151.75100708007812,7.955999851226807 C154.4980010986328,8.197999954223633 157.18699645996094,7.001999855041504 158.8470001220703,4.791999816894531 C160.5070037841797,2.5829999446868896 160.90899658203125,-0.3269999921321869 159.91099548339844,-2.9040000438690186 C144.0919952392578,-43.731998443603516 143.37600708007812,-77.05500030517578 157.78399658203125,-101.9489974975586 C177.98699951171875,-136.85400390625 222.05799865722656,-143.96400451660156 222.48699951171875,-144.0290069580078 C225.9969940185547,-144.552001953125 228.74400329589844,-147.3249969482422 229.2310028076172,-150.84100341796875 C229.718994140625,-154.35699462890625 227.83099365234375,-157.7740020751953 224.5970001220703,-159.23300170898438z"></path></g><g opacity="1" transform="matrix(1,0,0,1,2477.3310546875,108.48300170898438)"><path fill="rgb(0,0,0)" fill-opacity="1" d=" M-84.00599670410156,53.66299819946289 C-82.41500091552734,55.17300033569336 -80.08399963378906,55.59400177001953 -78.06600189208984,54.73699951171875 C-65.36900329589844,49.34000015258789 -54.8390007019043,48.8129997253418 -46.768001556396484,53.17399978637695 C-33.98699951171875,60.08300018310547 -30.756999969482422,77.3239974975586 -30.729000091552734,77.48300170898438 C-30.410999298095703,79.30899810791016 -29.194000244140625,80.85299682617188 -27.492000579833984,81.58899688720703 C-25.79199981689453,82.3219985961914 -23.83300018310547,82.15399932861328 -22.284000396728516,81.13300323486328 C-11.137999534606934,73.79399871826172 -0.3540000021457672,71.34700012207031 9.770999908447266,73.86199951171875 C28.389999389648438,78.48600006103516 39.457000732421875,98.33200073242188 39.56100082397461,98.52200317382812 C40.54100036621094,100.3280029296875 42.41699981689453,101.39800262451172 44.39400100708008,101.39800262451172 C44.89400100708008,101.39800262451172 45.4010009765625,101.3290023803711 45.9010009765625,101.18699645996094 C48.37699890136719,100.48200225830078 50.03200149536133,98.15299987792969 49.8849983215332,95.58300018310547 C48.98400115966797,79.86599731445312 52.34299850463867,68.51300048828125 59.867000579833984,61.84000015258789 C70.69400024414062,52.23699951171875 87.2020034790039,55.05799865722656 87.35299682617188,55.08700180053711 C89.2490005493164,55.43600082397461 91.18900299072266,54.770999908447266 92.46800231933594,53.33100128173828 C93.74700164794922,51.88999938964844 94.18000030517578,49.8849983215332 93.60800170898438,48.04499816894531 C79.08699798583984,1.3869999647140503 114.75,-14.859000205993652 116.25700378417969,-15.519000053405762 C117.68199920654297,-16.131000518798828 118.78199768066406,-17.316999435424805 119.28700256347656,-18.784000396728516 C119.79100036621094,-20.250999450683594 119.65299987792969,-21.86199951171875 118.90599822998047,-23.22100067138672 C100.2040023803711,-57.25299835205078 124.45899963378906,-92.37000274658203 124.69999694824219,-92.71299743652344 C126.24500274658203,-94.88899993896484 126.00599670410156,-97.86000061035156 124.13200378417969,-99.76000213623047 C122.25900268554688,-101.65799713134766 119.29299926757812,-101.94200134277344 117.09300231933594,-100.4260025024414 C86.98899841308594,-79.6709976196289 54.332000732421875,-75.49299621582031 54.01100158691406,-75.4540023803711 C52.54399871826172,-75.27799987792969 51.209999084472656,-74.5199966430664 50.308998107910156,-73.3489990234375 C49.40800094604492,-72.17900085449219 49.01499938964844,-70.69599914550781 49.21900177001953,-69.23200225830078 C53.948001861572266,-35.40299987792969 40.46200180053711,-21.572999954223633 35.345001220703125,-17.634000778198242 C28.632999420166016,-20.80500030517578 27.219999313354492,-27.422000885009766 27.166000366210938,-27.68199920654297 C26.711000442504883,-30.202999114990234 24.57699966430664,-32.07500076293945 22.01799964904785,-32.198001861572266 C19.496000289916992,-32.33399963378906 17.156999588012695,-30.663000106811523 16.461000442504883,-28.198999404907227 C15.085000038146973,-23.326000213623047 13.170999526977539,-20.163999557495117 11.342000007629395,-19.73900032043457 C9.060999870300293,-19.20800018310547 4.954999923706055,-22.139999389648438 2.869999885559082,-24.46299934387207 C1.2120000123977661,-26.32699966430664 -1.49399995803833,-26.844999313354492 -3.7209999561309814,-25.715999603271484 C-5.953000068664551,-24.586999893188477 -7.144000053405762,-22.0939998626709 -6.616000175476074,-19.648000717163086 C-5.177000045776367,-12.975000381469727 -6.00600004196167,-8.437000274658203 -6.965000152587891,-5.790999889373779 C-37.367000579833984,-14.965999603271484 -40.97700119018555,-36.619998931884766 -41.11600112915039,-37.53799819946289 C-41.345001220703125,-39.236000061035156 -42.354000091552734,-40.72999954223633 -43.84299850463867,-41.577999114990234 C-45.33300018310547,-42.428001403808594 -47.13100051879883,-42.53200149536133 -48.70899963378906,-41.86600112915039 C-86.21199798583984,-25.9950008392334 -119.54199981689453,-27.841999053955078 -119.86499786376953,-27.863000869750977 C-122.48799896240234,-28.016000747680664 -124.86799621582031,-26.31399917602539 -125.53500366210938,-23.76799964904785 C-126.2020034790039,-21.222000122070312 -124.9729995727539,-18.559999465942383 -122.60199737548828,-17.417999267578125 C-71.59700012207031,7.1479997634887695 -84.80400085449219,46.159000396728516 -85.38300323486328,47.7859992980957 C-86.13600158691406,49.845001220703125 -85.59500122070312,52.15299987792969 -84.00599670410156,53.66299819946289z"></path></g></g></g></svg>