<svg xmlns="http://www.w3.org/2000/svg" xmlns:xlink="http://www.w3.org/1999/xlink" viewBox="0 0 512 512" width="512" height="512" style="width: 100%; height: 100%; transform: translate3d(0,0,0);" preserveAspectRatio="xMidYMid meet"><defs><clipPath id="__lottie_element_51450"><rect width="512" height="512" x="0" y="0"></rect></clipPath></defs><g clip-path="url(#__lottie_element_51450)"><g style="display: block;" transform="matrix(1,0,0,1,252.11399841308594,257.718994140625)" opacity="1"><g opacity="1" transform="matrix(1,0,0,1,-43.73699951171875,67.02999877929688)"><path fill="rgb(0,0,0)" fill-opacity="1" d=" M123.2490005493164,147.28399658203125 C33.297000885009766,137.07000732421875 -58.52199935913086,64.73200225830078 -133.1820068359375,15.36299991607666 C-154.58299255371094,-0.5270000100135803 -175.06399536132812,-17.485000610351562 -189.5189971923828,-40.340999603271484 C-210.57200622558594,-73.62999725341797 -206.5489959716797,-104.48400115966797 -183.03500366210938,-133.77999877929688 C-169.15899658203125,-151.0679931640625 -156.1479949951172,-151.51400756835938 -139.60899353027344,-137.01199340820312 C-43.32400131225586,-47.60300064086914 63.4900016784668,-117.09600067138672 118.54499816894531,-44.446998596191406 C146.01400756835938,-7.885000228881836 164.06100463867188,34.70000076293945 196.2779998779297,67.66899871826172 C224.22900390625,108.98200225830078 161.25599670410156,149.30799865722656 123.2490005493164,147.28399658203125z"></path></g><g opacity="1" transform="matrix(1,0,0,1,33.106998443603516,-117.33499908447266)"><path fill="rgb(0,0,0)" fill-opacity="1" d=" M-67.44000244140625,-112.37899780273438 C-46.5890007019043,-114.48999786376953 108.41899871826172,-57.60599899291992 88.00700378417969,-32.81800079345703 C59.702999114990234,7.683000087738037 108.84400177001953,62.2140007019043 72.02899932861328,97.08399963378906 C64.4530029296875,101.10900115966797 56.87699890136719,117.80899810791016 47.68199920654297,110.71499633789062 C5.7170000076293945,62.92900085449219 -42.61600112915039,89.33399963378906 -33.00899887084961,61.27000045776367 C-25.840999603271484,6.380000114440918 -91.14399719238281,-26.496000289916992 -89.83499908447266,-79.74500274658203 C-88.38500213623047,-92.38400268554688 -83.71199798583984,-113.83599853515625 -67.44000244140625,-112.37899780273438z"></path></g><g opacity="1" transform="matrix(1,0,0,1,-117.05400085449219,-139.20799255371094)"><path fill="rgb(0,0,0)" fill-opacity="1" d=" M53.77799987792969,91.80000305175781 C-116.73999786376953,95.73799896240234 -136.29100036621094,-73.06999969482422 36.89899826049805,-91.5989990234375 C61.763999938964844,-96.19300079345703 10.241999626159668,-52.56700134277344 53.34299850463867,4.23799991607666 C72.26799774169922,27.552000045776367 111.23600006103516,95.302001953125 53.77799987792969,91.80000305175781z"></path></g><g opacity="1" transform="matrix(1,0,0,1,162.29800415039062,-6.301000118255615)"><path fill="rgb(0,0,0)" fill-opacity="1" d=" M57.71799850463867,38.98899841308594 C58.22600173950195,73.0780029296875 44.46500015258789,157.1510009765625 -6.973999977111816,122.69999694824219 C-33.19300079345703,99.45700073242188 -41.034000396728516,63.14500045776367 -57.00199890136719,33.09000015258789 C-62.79100036621094,18.895000457763672 -32.44499969482422,12.343999862670898 -26.070999145507812,0.1080000028014183 C15.609999656677246,-41.42599868774414 -30.36400032043457,-109.71800231933594 -14.770999908447266,-130.8300018310547 C34.77399826049805,-95.62799835205078 55.36000061035156,-22.733999252319336 57.71799850463867,38.98899841308594z"></path></g><g opacity="1" transform="matrix(1,0,0,1,203.74200439453125,176.9600067138672)"><path fill="rgb(0,0,0)" fill-opacity="1" d=" M42.88999938964844,5.859000205993652 C46.10300064086914,26.94300079345703 24.889999389648438,47.58000183105469 7.989999771118164,27.562999725341797 C-0.2770000100135803,19.201000213623047 -2.7950000762939453,37.98400115966797 -7.679999828338623,42.237998962402344 C-15.17199993133545,55.4900016784668 -36.35200119018555,60.426998138427734 -41.7239990234375,42.737998962402344 C-46.90800094604492,19.45599937438965 -37.222999572753906,-4.453999996185303 -33.40299987792969,-27.402000427246094 C-30.30699920654297,-43.06100082397461 -17.351999282836914,-49.3129997253418 -2.812000036239624,-52.98899841308594 C32.12300109863281,-61.82099914550781 41.891998291015625,-19.45400047302246 42.88999938964844,5.859000205993652z"></path></g></g></g></svg>