<svg xmlns="http://www.w3.org/2000/svg" xmlns:xlink="http://www.w3.org/1999/xlink" viewBox="0 0 512 512" width="512" height="512" style="width: 100%; height: 100%; transform: translate3d(0,0,0);" preserveAspectRatio="xMidYMid meet"><defs><clipPath id="__lottie_element_51400"><rect width="512" height="512" x="0" y="0"></rect></clipPath></defs><g clip-path="url(#__lottie_element_51400)"><g style="display: block;" transform="matrix(1.0199999809265137,0,0,1.0199999809265137,-1663.6856689453125,-1907.419921875)" opacity="1"><g opacity="1" transform="matrix(1,0,0,1,0,0)"><g opacity="1" transform="matrix(1,0,0,1,1882.5469970703125,2127.16796875)"><path fill="rgb(0,0,0)" fill-opacity="1" d=" M237.0780029296875,68.5199966430664 C223.01300048828125,69.35700225830078 210.79100036621094,49.02000045776367 203.0189971923828,40.39400100708008 C201.406005859375,38.43899917602539 199.35000610351562,36.446998596191406 196.8520050048828,35.96900177001953 C183.89999389648438,35.86199951171875 190.927001953125,63.55400085449219 197.33799743652344,68.83200073242188 C211.44200134277344,87.0790023803711 241.3509979248047,82.86699676513672 242.4929962158203,103.98200225830078 C244.02999877929688,146.23500061035156 242.35899353027344,188.5800018310547 238.64999389648438,230.62100219726562 C237.93800354003906,239.8990020751953 228.8300018310547,240.6909942626953 221.36199951171875,240.15699768066406 C204.0959930419922,239.42999267578125 186.73899841308594,239.89199829101562 169.6439971923828,237.63400268554688 C153.49099731445312,234.53199768066406 166.0279998779297,208.93600463867188 171.56300354003906,200.35899353027344 C177.98699951171875,190.4550018310547 190.49099731445312,180.5590057373047 187.59300231933594,167.52200317382812 C184.27099609375,158.77499389648438 164.5019989013672,152.36599731445312 156.55799865722656,145.60899353027344 C129.09100341796875,123.79499816894531 102.64099884033203,100.21399688720703 79.46199798583984,73.75900268554688 C76.80999755859375,70.33799743652344 69.76100158691406,63.2869987487793 69.33399963378906,71.78199768066406 C69.62999725341797,79.25 67.35600280761719,83.697998046875 59.3650016784668,83.9000015258789 C28.874000549316406,84.66400146484375 -1.7269999980926514,83.94300079345703 -32.2400016784668,84.14299774169922 C-50.444000244140625,84.86299896240234 -51.26900100708008,80.95999908447266 -54.99700164794922,64.5 C-60.01599884033203,53.01100158691406 -63.551998138427734,65.98300170898438 -63.236000061035156,72.02400207519531 C-65.62799835205078,122.41300201416016 -63.8489990234375,172.9409942626953 -64.53700256347656,223.36399841308594 C-63.75,237.57400512695312 -69.91100311279297,241.1230010986328 -83.47899627685547,240.16000366210938 C-93.63800048828125,239.6230010986328 -104.08100128173828,239.70899963378906 -114.1780014038086,238.00999450683594 C-123.25900268554688,236.7030029296875 -123.3740005493164,226.39700317382812 -123.3499984741211,219.06500244140625 C-124.9990005493164,178.8090057373047 -120.59700012207031,138.16000366210938 -126.94300079345703,98.24500274658203 C-128.71099853515625,87.88200378417969 -134.51300048828125,87.45700073242188 -136.5760040283203,98.39299774169922 C-139.15499877929688,113.47000122070312 -141.50799560546875,119.69599914550781 -154.80799865722656,106.62300109863281 C-171.88699340820312,91.01300048828125 -189.64599609375,76.16300201416016 -203.96299743652344,58.05400085449219 C-231.90499877929688,24.08300018310547 -242.90199279785156,-5.853000164031982 -239.76400756835938,-49.821998596191406 C-239.9669952392578,-90.4800033569336 -245.20899963378906,-111.85800170898438 -221.9429931640625,-148.37399291992188 C-215.10499572753906,-161.6719970703125 -218.2550048828125,-176.65199279785156 -221.04800415039062,-190.44500732421875 C-221.718994140625,-199.50900268554688 -225.39599609375,-222.96800231933594 -218.49400329589844,-228.40199279785156 C-204.06900024414062,-232.64500427246094 -191.29100036621094,-215.65499877929688 -181.6510009765625,-206.82400512695312 C-175.89100646972656,-200.9969940185547 -172.6219940185547,-198.7570037841797 -164.2100067138672,-198.50999450683594 C-153.76300048828125,-198.3179931640625 -143.0959930419922,-197.88499450683594 -132.68099975585938,-199.177001953125 C-125.70800018310547,-200.1739959716797 -119.06700134277344,-202.93299865722656 -113.5790023803711,-207.74099731445312 C-106.81700134277344,-213.7449951171875 -80.1709976196289,-241.1230010986328 -77.97599792480469,-219.94900512695312 C-77.7750015258789,-205.83900451660156 -79.23500061035156,-191.66799926757812 -80.70099639892578,-177.63999938964844 C-82.44999694824219,-167.51800537109375 -82.76599884033203,-157.03599548339844 -76.66400146484375,-148.21600341796875 C-66.59600067138672,-131.02499389648438 -60.04399871826172,-112.47799682617188 -55.91600036621094,-93.07599639892578 C-53.266998291015625,-76.45700073242188 -45.97100067138672,-74.197998046875 -30.490999221801758,-74.84300231933594 C19.299999237060547,-74.99299621582031 69.06600189208984,-74.69400024414062 118.8550033569336,-75.72699737548828 C129.9550018310547,-75.94200134277344 141.9040069580078,-74.9729995727539 152.52499389648438,-72.31199645996094 C196.80999755859375,-60.85300064086914 243.43499755859375,-18.777000427246094 243.1020050048828,30.78499984741211 C242.69700622558594,40.34299850463867 245.20899963378906,62.573001861572266 237.2100067138672,68.46199798583984 C237.2100067138672,68.46199798583984 237.0780029296875,68.5199966430664 237.0780029296875,68.5199966430664z M-149.08399963378906,-148.25799560546875 C-153.28799438476562,-148.24000549316406 -157.28900146484375,-146.9239959716797 -161.5070037841797,-145.8520050048828 C-165.2209930419922,-144.8040008544922 -169.46200561523438,-143.9040069580078 -172.31100463867188,-141.59100341796875 C-178.33900451660156,-136.6649932861328 -173.08900451660156,-130.01199340820312 -167.5850067138672,-127.4749984741211 C-156.1929931640625,-121.62000274658203 -144.27000427246094,-122.0199966430664 -133.28700256347656,-128.4739990234375 C-128.81300354003906,-130.90699768066406 -123.54499816894531,-136.51699829101562 -127.57099914550781,-141.4949951171875 C-129.5030059814453,-143.96200561523438 -132.9340057373047,-145.29600524902344 -136.2310028076172,-146.1540069580078 C-140.2519989013672,-147.13999938964844 -144.6840057373047,-148.28500366210938 -148.88099670410156,-148.25999450683594 C-148.88099670410156,-148.25999450683594 -149.08399963378906,-148.25799560546875 -149.08399963378906,-148.25799560546875z"></path></g><g opacity="1" transform="matrix(1,0,0,1,1961.696044921875,2294.214111328125)"><path fill="rgb(0,0,0)" fill-opacity="1" d=" M18.266000747680664,66.33200073242188 C16.009000778198242,67.65799713134766 13.258000373840332,67.98999786376953 10.633000373840332,68.03800201416016 C3.9200000762939453,68.08499908447266 -2.7320001125335693,68.0770034790039 -9.260000228881836,68.0989990234375 C-18.60700035095215,68.11599731445312 -27.718000411987305,68.11299896240234 -36.9739990234375,68.02999877929688 C-42.25299835205078,67.74700164794922 -49.404998779296875,68.76799774169922 -52.7869987487793,63.805999755859375 C-55.14799880981445,59.85200119018555 -53.27000045776367,53.016998291015625 -51.95199966430664,48.143001556396484 C-50.09199905395508,40.8650016784668 -46.31800079345703,34.02799987792969 -38.9739990234375,31.07200050354004 C-33.606998443603516,28.631999969482422 -27.48200035095215,27.54199981689453 -22.780000686645508,23.795000076293945 C-13.361000061035156,16.39699935913086 -7.553999900817871,-3.6019999980926514 -12.112000465393066,-14.769000053405762 C-15.694999694824219,-23.08300018310547 -23.966999053955078,-27.854999542236328 -30.37700080871582,-33.79899978637695 C-36.99700164794922,-40.00699996948242 -52.91299819946289,-52.54899978637695 -52.00899887084961,-61.99399948120117 C-50.17300033569336,-68.76799774169922 -39.50899887084961,-66.2969970703125 -34.165000915527344,-66.48699951171875 C-26.43000030517578,-66.28399658203125 -18.57200050354004,-65.88500213623047 -10.789999961853027,-65.39800262451172 C-5.058000087738037,-65.2229995727539 0.3540000021457672,-63.12900161743164 4.5970001220703125,-59.24599838256836 C17.177000045776367,-48.599998474121094 29.260000228881836,-37.35200119018555 41.887001037597656,-26.697999954223633 C50.50299835205078,-19.871000289916992 55.14799880981445,-11.920999526977539 52.0099983215332,-0.7919999957084656 C49.867000579833984,7.039999961853027 46.97100067138672,14.60099983215332 43.529998779296875,21.802000045776367 C38.777000427246094,31.3799991607666 33.75699996948242,40.81800079345703 28.719999313354492,50.4370002746582 C25.53700065612793,55.6349983215332 23.601999282836914,62.76599884033203 18.41699981689453,66.24199676513672 C18.41699981689453,66.24199676513672 18.266000747680664,66.33200073242188 18.266000747680664,66.33200073242188z"></path></g><g opacity="1" transform="matrix(1,0,0,1,1697.4560546875,2296.154052734375)"><path fill="rgb(0,0,0)" fill-opacity="1" d=" M34.2859992980957,65.08999633789062 C27.320999145507812,72.83399963378906 -24.594999313354492,72.41500091552734 -33.500999450683594,70.7750015258789 C-36.198001861572266,70.47100067138672 -39.03499984741211,69.11900329589844 -39.25600051879883,66.22000122070312 C-39.7130012512207,61.75199890136719 -35.87099838256836,55.9010009765625 -33.2760009765625,51.86399841308594 C-27.90999984741211,43.63999938964844 -20.910999298095703,33.191001892089844 -17.559999465942383,24.024999618530273 C-13.765000343322754,14.541999816894531 -15.21399974822998,1.003999948501587 -15.019000053405762,-11.779000282287598 C-14.878999710083008,-27.110000610351562 -15.003000259399414,-42.28799819946289 -14.904000282287598,-57.60300064086914 C-14.854999542236328,-59.81800079345703 -14.765999794006348,-62.137001037597656 -14.220000267028809,-64.24199676513672 C-11.991999626159668,-72.83300018310547 -4.499000072479248,-70.94100189208984 0.7850000262260437,-66.12899780273438 C9.255999565124512,-59.12900161743164 17.67799949645996,-52.176998138427734 26.034000396728516,-45.03799819946289 C29.04199981689453,-42.42599868774414 32.069000244140625,-39.65299987792969 34.34299850463867,-36.393001556396484 C39.7130012512207,-29.06399917602539 38.97999954223633,-19.47100067138672 38.42100143432617,-10.836999893188477 C37.119998931884766,10.598999977111816 37.45100021362305,32.152000427246094 36.55699920654297,53.56800079345703 C36.32899856567383,57.2760009765625 36.64500045776367,61.95899963378906 34.38199996948242,64.96700286865234 C34.38199996948242,64.96700286865234 34.2859992980957,65.08999633789062 34.2859992980957,65.08999633789062z"></path></g></g></g></g></svg>