<svg xmlns="http://www.w3.org/2000/svg" xmlns:xlink="http://www.w3.org/1999/xlink" viewBox="0 0 512 512" width="512" height="512" style="width: 100%; height: 100%; transform: translate3d(0,0,0);" preserveAspectRatio="xMidYMid meet"><defs><clipPath id="__lottie_element_53379"><rect width="512" height="512" x="0" y="0"></rect></clipPath></defs><g clip-path="url(#__lottie_element_53379)"><g style="display: block;" transform="matrix(1,0,0,1,0,0)" opacity="1"><g opacity="1" transform="matrix(1,0,0,1,336.7239990234375,431.7770080566406)"><path fill="rgb(0,0,0)" fill-opacity="1" d=" M14.95199966430664,55.619998931884766 C14.95199966430664,55.619998931884766 -39.882999420166016,-55.60100173950195 -39.882999420166016,-55.60100173950195 C-39.882999420166016,-55.60100173950195 -20.697999954223633,-55.619998931884766 -20.697999954223633,-55.619998931884766 C-20.697999954223633,-55.619998931884766 39.88199996948242,43.652000427246094 39.88199996948242,43.652000427246094 C35.3650016784668,47.80500030517578 22.00200080871582,54.11899948120117 14.95199966430664,55.619998931884766z"></path></g><g opacity="1" transform="matrix(1,0,0,1,176.69000244140625,431.7770080566406)"><path fill="rgb(0,0,0)" fill-opacity="1" d=" M39.11800003051758,-55.590999603271484 C39.11800003051758,-55.590999603271484 -15.72700023651123,55.619998931884766 -15.72700023651123,55.619998931884766 C-21.288000106811523,54.44200134277344 -33.5880012512207,47.80500030517578 -39.11800003051758,43.66899871826172 C-39.11800003051758,43.66899871826172 19.923999786376953,-55.619998931884766 19.923999786376953,-55.619998931884766 C19.923999786376953,-55.619998931884766 39.11800003051758,-55.590999603271484 39.11800003051758,-55.590999603271484z"></path></g><g opacity="1" transform="matrix(1,0,0,1,256.322998046875,479.7250061035156)"><path fill="rgb(0,0,0)" fill-opacity="1" d=" M-0.7429999709129333,-30.524999618530273 C6.909999847412109,-25.82200050354004 24.312000274658203,-9.916000366210938 24.459999084472656,-1.347000002861023 C24.55699920654297,4.329999923706055 5.498000144958496,29.756000518798828 0.9229999780654907,30.184999465942383 C-2.7039999961853027,30.524999618530273 -3.7709999084472656,29.2450008392334 -6.140999794006348,27.086000442504883 C-10.373000144958496,23.231000900268555 -24.558000564575195,3.9260001182556152 -24.465999603271484,-1.3480000495910645 C-24.299999237060547,-10.880999565124512 -7.077000141143799,-23.844999313354492 -0.7429999709129333,-30.524999618530273z"></path></g><g opacity="1" transform="matrix(1,0,0,1,398.3479919433594,412.3110046386719)"><path fill="rgb(0,0,0)" fill-opacity="1" d=" M-37.270999908447266,-38.409000396728516 C-33.0629997253418,-38.064998626708984 -23.434999465942383,-38.685001373291016 -18.635000228881836,-38.409000396728516 C-9.116000175476074,-30.516000747680664 27.68000030517578,14.83899974822998 37.270999908447266,24.437000274658203 C32.75299835205078,29.687999725341797 15.168999671936035,38.685001373291016 15.168999671936035,38.685001373291016 C0.9150000214576721,18.90399932861328 -37.150001525878906,-36.154998779296875 -37.270999908447266,-38.409000396728516z"></path></g><g opacity="1" transform="matrix(1,0,0,1,115.09300231933594,412.4490051269531)"><path fill="rgb(0,0,0)" fill-opacity="1" d=" M36.17399978637695,-38.547000885009766 C34.518001556396484,-33.33599853515625 -1.8899999856948853,18.697999954223633 -15.970999717712402,38.547000885009766 C-15.970999717712402,38.547000885009766 -36.17399978637695,25.309999465942383 -36.17399978637695,25.309999465942383 C-36.17399978637695,25.309999465942383 16.511999130249023,-36.42399978637695 16.511999130249023,-36.42399978637695 C16.511999130249023,-36.42399978637695 36.17399978637695,-38.547000885009766 36.17399978637695,-38.547000885009766z"></path></g><g opacity="1" transform="matrix(1,0,0,1,256.6090087890625,405.6319885253906)"><path fill="rgb(0,0,0)" fill-opacity="1" d=" M9.973999977111816,28.573999404907227 C9.973999977111816,28.573999404907227 -9.973999977111816,28.290000915527344 -9.973999977111816,28.290000915527344 C-9.038000106811523,16.339000701904297 -7.568999767303467,-20.180999755859375 -6.5,-28.573999404907227 C-0.609000027179718,-28.29599952697754 3.385999917984009,-28.32900047302246 7.813000202178955,-27.989999771118164 C7.813000202178955,-27.989999771118164 9.973999977111816,28.573999404907227 9.973999977111816,28.573999404907227z"></path></g><g opacity="1" transform="matrix(1,0,0,1,256.32000732421875,183.8090057373047)"><path fill="rgb(0,0,0)" fill-opacity="1" d=" M190.79200744628906,156.53799438476562 C139.75599670410156,66.70800018310547 86.25499725341797,-25.909000396728516 37.18199920654297,-114.68399810791016 C24.98900032043457,-136.74000549316406 7.543000221252441,-164.04600524902344 1.0230000019073486,-180.19000244140625 C1.0230000019073486,-180.19000244140625 -206.60800170898438,180.19000244140625 -206.60800170898438,180.19000244140625 C-206.60800170898438,180.19000244140625 206.60800170898438,180.19000244140625 206.60800170898438,180.19000244140625 C202.08599853515625,171.83299255371094 195.48599243164062,164.80099487304688 190.79200744628906,156.53799438476562z M-138.7209930419922,143.76300048828125 C-138.7209930419922,143.76300048828125 -140.79600524902344,139.7550048828125 -140.79600524902344,139.7550048828125 C-140.79600524902344,139.7550048828125 1.996000051498413,-101.22699737548828 1.996000051498413,-101.22699737548828 C1.996000051498413,-101.22699737548828 139.7550048828125,141.72900390625 139.7550048828125,141.72900390625 C139.7550048828125,141.72900390625 -138.7209930419922,143.76300048828125 -138.7209930419922,143.76300048828125z"></path></g><g opacity="1" transform="matrix(1,0,0,1,257.3039855957031,142.9709930419922)"><path fill="rgb(0,0,0)" fill-opacity="1" d=" M-3.5369999408721924,-11.484999656677246 C13.597000122070312,-14.746000289916992 17.229000091552734,12.998000144958496 -0.2879999876022339,13.904000282287598 C-16.562000274658203,14.744999885559082 -17.229999542236328,-8.878999710083008 -3.5369999408721924,-11.484999656677246z"></path></g><g opacity="1" transform="matrix(1,0,0,1,255.17300415039062,242.072998046875)"><path fill="rgb(0,0,0)" fill-opacity="1" d=" M75.72899627685547,7.909999847412109 C67.03500366210938,-9.354999542236328 60.83399963378906,-30.766000747680664 47.03099822998047,-45.40599822998047 C12.72599983215332,-81.79199981689453 -32.20500183105469,-68.90299987792969 -55.9119987487793,-29.243000030517578 C-63.42300033569336,-16.679000854492188 -68.10600280761719,-1.9470000267028809 -74.6969985961914,10.697999954223633 C-79.67400360107422,20.24799919128418 -90.89900207519531,25.34000015258789 -83.69200134277344,37.70100021362305 C-80.5530014038086,43.08399963378906 -53.9630012512207,60.641998291015625 -47.2140007019043,63.98699951171875 C-11.295000076293945,81.79100036621094 25.83300018310547,78.5009994506836 59.72700119018555,58.00299835205078 C65.69200134277344,54.39500045776367 85.62300109863281,40.4109992980957 87.36299896240234,34.979000091552734 C90.89900207519531,23.937000274658203 80.35700225830078,17.100000381469727 75.72899627685547,7.909999847412109z M28.860000610351562,43.34600067138672 C1.4190000295639038,56.8650016784668 -49.895999908447266,47.402000427246094 -47.494998931884766,9.635000228881836 C-46.30699920654297,-9.045000076293945 -27.490999221801758,-29.81999969482422 -9.541000366210938,-33.512001037597656 C36.47100067138672,-42.9739990234375 75.53399658203125,20.351999282836914 28.860000610351562,43.34600067138672z"></path></g><g opacity="1" transform="matrix(1,0,0,1,258.48199462890625,248.62899780273438)"><path fill="rgb(0,0,0)" fill-opacity="1" d=" M-8.79800033569336,-19.802000045776367 C28.51300048828125,-27.61199951171875 31.558000564575195,27.61199951171875 -4.960000038146973,24.18400001525879 C-31.55699920654297,21.687000274658203 -31.402999877929688,-15.069999694824219 -8.79800033569336,-19.802000045776367z"></path></g></g></g></svg>