<svg xmlns="http://www.w3.org/2000/svg" xmlns:xlink="http://www.w3.org/1999/xlink" viewBox="0 0 512 512" width="512" height="512" style="width: 100%; height: 100%; transform: translate3d(0,0,0);" preserveAspectRatio="xMidYMid meet"><defs><clipPath id="__lottie_element_689"><rect width="512" height="512" x="0" y="0"></rect></clipPath></defs><g clip-path="url(#__lottie_element_689)"><g style="display: block;" transform="matrix(1,0,0,1,29.397018432617188,3.1039886474609375)" opacity="1"><g opacity="1" transform="matrix(1,0,0,1,226.9149932861328,252.63800048828125)"><path fill="rgb(0,0,0)" fill-opacity="1" d=" M224.8699951171875,29.64900016784668 C223.07400512695312,2.322999954223633 192.1179962158203,-26.43899917602539 176.1739959716797,-26.10099983215332 C174.46299743652344,-26.065000534057617 172.7429962158203,-25.8439998626709 171.0189971923828,-25.472000122070312 C171.4980010986328,-27.58099937438965 172.00799560546875,-29.767000198364258 172.54200744628906,-32.04199981689453 C173.3699951171875,-35.58100128173828 174.24600219726562,-39.349998474121094 175.10400390625,-43.29499816894531 C175.69200134277344,-43.481998443603516 176.2449951171875,-43.698001861572266 176.73199462890625,-43.95500183105469 C181.1199951171875,-46.27399826049805 192.4250030517578,-59.81999969482422 192.05999755859375,-63.66699981689453 C191.69500732421875,-67.51399993896484 183.66200256347656,-74.85800170898438 181.63699340820312,-74.17500305175781 C181.23399353027344,-74.04000091552734 180.6439971923828,-73.74700164794922 179.86099243164062,-73.36000061035156 C180.1790008544922,-77.04499816894531 180.39100646972656,-80.83300018310547 180.47300720214844,-84.7239990234375 C180.4739990234375,-84.7770004272461 180.5189971923828,-84.8239974975586 180.572998046875,-84.83399963378906 C181.3470001220703,-84.97699737548828 181.9290008544922,-85.15499877929688 182.25999450683594,-85.37699890136719 C185.0290069580078,-87.2300033569336 197.7760009765625,-102.14600372314453 195.43800354003906,-106.30899810791016 C193.0989990234375,-110.4739990234375 182.57699584960938,-115.95899963378906 179.7969970703125,-114.81700134277344 C179.3470001220703,-114.63200378417969 178.8730010986328,-114.43399810791016 178.38600158691406,-114.2300033569336 C177.9759979248047,-116.69100189208984 177.51400756835938,-119.1760025024414 176.96600341796875,-121.69499969482422 C176.75999450683594,-122.64399719238281 176.50100708007812,-123.59200286865234 176.26100158691406,-124.54000091552734 C176.24600219726562,-124.60199737548828 176.28799438476562,-124.66300201416016 176.3520050048828,-124.68000030517578 C178.28700256347656,-125.1719970703125 179.6909942626953,-125.625 180.218994140625,-125.97899627685547 C182.98800659179688,-127.83200073242188 190.41200256347656,-139.906005859375 188.072998046875,-144.07000732421875 C185.73399353027344,-148.23500061035156 171.27099609375,-155.26100158691406 168.49099731445312,-154.11900329589844 C167.25,-153.60899353027344 166.1909942626953,-153.052001953125 165.01600646972656,-152.34800720214844 C164.95899963378906,-152.31300354003906 164.8820037841797,-152.32899475097656 164.8489990234375,-152.38699340820312 C162.6929931640625,-156.1439971923828 160.31900024414062,-159.8509979248047 157.72000122070312,-163.48500061035156 C157.6840057373047,-163.53599548339844 157.69700622558594,-163.6060028076172 157.7469940185547,-163.6439971923828 C159.70799255371094,-165.11199951171875 161.09500122070312,-166.2550048828125 161.5,-166.7989959716797 C163.46099853515625,-169.4320068359375 166.23800659179688,-183.19000244140625 162.57899475097656,-186.36399841308594 C158.9199981689453,-189.53799438476562 142.8350067138672,-191.5240020751953 140.61500549316406,-189.55599975585938 C139.625,-188.6790008544922 138.61900329589844,-187.72999572753906 137.4149932861328,-186.5659942626953 C137.36900329589844,-186.52200317382812 137.29299926757812,-186.51699829101562 137.24600219726562,-186.56100463867188 C133.5659942626953,-189.95799255371094 129.6649932861328,-193.21499633789062 125.58999633789062,-196.33799743652344 C125.54199981689453,-196.375 125.53299713134766,-196.44400024414062 125.56600189208984,-196.49400329589844 C127.12300109863281,-198.83099365234375 128.1840057373047,-200.57200622558594 128.4010009765625,-201.23800659179688 C130.26100158691406,-206.99400329589844 128.4720001220703,-219.0780029296875 123.68900299072266,-222.2259979248047 C119.62000274658203,-224.9040069580078 106.2229995727539,-219.28399658203125 103.98200225830078,-217.33799743652344 C102.95700073242188,-216.4459991455078 101.85099792480469,-214.77200317382812 100.61199951171875,-212.48800659179688 C100.58100128173828,-212.43099975585938 100.50900268554688,-212.40499877929688 100.44999694824219,-212.43600463867188 C96.1449966430664,-214.71299743652344 91.5250015258789,-216.93699645996094 86.59200286865234,-219.0570068359375 C86.53399658203125,-219.08200073242188 86.50700378417969,-219.1490020751953 86.52899932861328,-219.20700073242188 C87.75599670410156,-222.34100341796875 88.51899719238281,-224.49200439453125 88.56199645996094,-225.06399536132812 C88.80400085449219,-228.29100036621094 83.69499969482422,-241.42100524902344 78.84600067138672,-242.3070068359375 C73.99600219726562,-243.1909942626953 59.02899932861328,-236.9029998779297 58.35900115966797,-234.0780029296875 C58.24100112915039,-233.5780029296875 57.80099868774414,-231.83200073242188 57.12699890136719,-229.19000244140625 C57.111000061035156,-229.1269989013672 57.04499816894531,-229.0850067138672 56.97999954223633,-229.1020050048828 C51.88100051879883,-230.40499877929688 46.55799865722656,-231.56500244140625 41,-232.54299926757812 C40.93600082397461,-232.55299377441406 40.893001556396484,-232.61599731445312 40.90299987792969,-232.67799377441406 C41.32600021362305,-235.3090057373047 41.5629997253418,-237.06399536132812 41.534000396728516,-237.52099609375 C41.327999114990234,-240.75 34.071998596191406,-251.86500549316406 29.142000198364258,-252.1280059814453 C24.21299934387207,-252.38900756835938 10.246999740600586,-244.25900268554688 9.972999572753906,-241.37399291992188 C9.925999641418457,-240.8730010986328 9.86400032043457,-238.9239959716797 9.779000282287598,-235.95399475097656 C9.777999877929688,-235.88800048828125 9.722000122070312,-235.83399963378906 9.654999732971191,-235.83700561523438 C6.492000102996826,-235.95899963378906 3.2799999713897705,-236.0290069580078 0,-236.0290069580078 C-3.25600004196167,-236.0290069580078 -6.46999979019165,-235.9550018310547 -9.654999732971191,-235.82899475097656 C-9.722000122070312,-235.82699584960938 -9.777000427246094,-235.88099670410156 -9.779000282287598,-235.94500732421875 C-9.86400032043457,-238.92100524902344 -9.925000190734863,-240.8730010986328 -9.972999572753906,-241.37399291992188 C-10.246999740600586,-244.25900268554688 -24.21299934387207,-252.38900756835938 -29.14299964904785,-252.1280059814453 C-34.071998596191406,-251.86500549316406 -41.327999114990234,-240.75 -41.534000396728516,-237.52099609375 C-41.5629997253418,-237.05799865722656 -41.32099914550781,-235.26600646972656 -40.887001037597656,-232.5780029296875 C-40.87699890136719,-232.51600646972656 -40.91899871826172,-232.45399475097656 -40.983001708984375,-232.44200134277344 C-46.44200134277344,-231.47000122070312 -51.76499938964844,-230.31100463867188 -56.94900131225586,-228.9759979248047 C-57.01300048828125,-228.95899963378906 -57.08000183105469,-229.0019989013672 -57.09600067138672,-229.0659942626953 C-57.7869987487793,-231.77999877929688 -58.23899841308594,-233.57000732421875 -58.35900115966797,-234.0780029296875 C-59.02899932861328,-236.9029998779297 -73.99600219726562,-243.1909942626953 -78.84600067138672,-242.3070068359375 C-83.69599914550781,-241.42100524902344 -88.80400085449219,-228.29100036621094 -88.56199645996094,-225.06399536132812 C-88.51799774169922,-224.48300170898438 -87.73400115966797,-222.2779998779297 -86.4729995727539,-219.06399536132812 C-86.45099639892578,-219.00599670410156 -86.47699737548828,-218.93899536132812 -86.53500366210938,-218.91400146484375 C-91.31300354003906,-216.86099243164062 -95.93000030517578,-214.65699768066406 -100.37799835205078,-212.3070068359375 C-100.43699645996094,-212.27699279785156 -100.51000213623047,-212.30099487304688 -100.54100036621094,-212.35899353027344 C-101.80899810791016,-214.71099853515625 -102.93699645996094,-216.4290008544922 -103.98300170898438,-217.33799743652344 C-106.2229995727539,-219.28399658203125 -119.62000274658203,-224.9040069580078 -123.68900299072266,-222.2259979248047 C-128.4720001220703,-219.0780029296875 -130.26100158691406,-206.99400329589844 -128.39999389648438,-201.23800659179688 C-128.18299865722656,-200.5659942626953 -127.10399627685547,-198.8000030517578 -125.52400207519531,-196.43099975585938 C-125.48999786376953,-196.38099670410156 -125.5,-196.31199645996094 -125.5479965209961,-196.2760009765625 C-130.03799438476562,-192.8489990234375 -134.26300048828125,-189.27000427246094 -138.2270050048828,-185.56399536132812 C-138.2740020751953,-185.52000427246094 -138.35000610351562,-185.5240020751953 -138.39700317382812,-185.5679931640625 C-140.093994140625,-187.21400451660156 -141.38600158691406,-188.44200134277344 -142.6439971923828,-189.55599975585938 C-144.86500549316406,-191.5240020751953 -160.94900512695312,-189.53799438476562 -164.60899353027344,-186.36399841308594 C-168.26800537109375,-183.19000244140625 -165.49099731445312,-169.4320068359375 -163.5290069580078,-166.7989959716797 C-163.03900146484375,-166.13999938964844 -161.10899353027344,-164.6060028076172 -158.44700622558594,-162.67300415039062 C-158.39599609375,-162.63600158691406 -158.3820037841797,-162.56500244140625 -158.41799926757812,-162.51499938964844 C-160.75999450683594,-159.1820068359375 -162.906005859375,-155.80499267578125 -164.86199951171875,-152.39500427246094 C-164.89500427246094,-152.33799743652344 -164.9720001220703,-152.3209991455078 -165.02999877929688,-152.35499572753906 C-166.19900512695312,-153.05599975585938 -167.2550048828125,-153.61099243164062 -168.49099731445312,-154.11900329589844 C-171.27200317382812,-155.26100158691406 -185.73399353027344,-148.23500061035156 -188.072998046875,-144.07000732421875 C-190.41200256347656,-139.906005859375 -182.98800659179688,-127.83200073242188 -180.218994140625,-125.97899627685547 C-179.6909942626953,-125.625 -178.28799438476562,-125.1729965209961 -176.35400390625,-124.68000030517578 C-176.2899932861328,-124.66400146484375 -176.2480010986328,-124.60199737548828 -176.26400756835938,-124.54100036621094 C-176.5030059814453,-123.59200286865234 -176.76100158691406,-122.64199829101562 -176.9669952392578,-121.69499969482422 C-177.51400756835938,-119.1760025024414 -177.9759979248047,-116.69200134277344 -178.38699340820312,-114.23100280761719 C-178.87399291992188,-114.43399810791016 -179.34800720214844,-114.63200378417969 -179.7969970703125,-114.81700134277344 C-182.57699584960938,-115.95899963378906 -193.0989990234375,-110.4739990234375 -195.43800354003906,-106.30899810791016 C-197.77699279785156,-102.14600372314453 -185.0290069580078,-87.2300033569336 -182.25999450683594,-85.37699890136719 C-181.9290008544922,-85.15499877929688 -181.3470001220703,-84.97699737548828 -180.57400512695312,-84.83399963378906 C-180.5189971923828,-84.8239974975586 -180.47500610351562,-84.7770004272461 -180.47300720214844,-84.7239990234375 C-180.39100646972656,-80.83300018310547 -180.1790008544922,-77.04499816894531 -179.86099243164062,-73.36000061035156 C-180.6439971923828,-73.74700164794922 -181.23500061035156,-74.04000091552734 -181.63800048828125,-74.17500305175781 C-183.66200256347656,-74.85800170898438 -191.69500732421875,-67.51399993896484 -192.05999755859375,-63.66699981689453 C-192.4250030517578,-59.81999969482422 -181.1199951171875,-46.27399826049805 -176.73199462890625,-43.95500183105469 C-176.24600219726562,-43.698001861572266 -175.69200134277344,-43.481998443603516 -175.10499572753906,-43.29499816894531 C-174.24600219726562,-39.3489990234375 -173.37100219726562,-35.57899856567383 -172.54100036621094,-32.03900146484375 C-172.00900268554688,-29.76799964904785 -171.49899291992188,-27.586000442504883 -171.02200317382812,-25.479999542236328 C-172.74400329589844,-25.850000381469727 -174.46400451660156,-26.065000534057617 -176.1750030517578,-26.10099983215332 C-192.1179962158203,-26.43899917602539 -223.0749969482422,2.322999954223633 -224.86900329589844,29.64900016784668 C-226.6649932861328,56.9739990234375 -179.65699768066406,101.30699920654297 -160.9149932861328,100.93000030517578 C-156.91099548339844,100.8489990234375 -152.6219940185547,99.45700073242188 -148.31900024414062,97.13500213623047 C-144.77499389648438,120.10199737548828 -140.0070037841797,146.58700561523438 -128.95799255371094,161.697998046875 C-117.552001953125,177.29299926757812 -98.81199645996094,188.48800659179688 -85.12999725341797,196.66099548339844 C-80.70500183105469,199.3040008544922 -75.1969985961914,202.5919952392578 -73.76699829101562,203.93800354003906 C-72.76799774169922,204.8780059814453 -71.08599853515625,208.5449981689453 -69.9739990234375,210.9709930419922 C-66.8499984741211,217.78399658203125 -62.402000427246094,227.48800659179688 -52.34600067138672,232.09800720214844 C-52.32899856567383,232.10499572753906 -52.314998626708984,232.11700439453125 -52.30400085449219,232.13099670410156 C-45.29499816894531,241.63999938964844 -34.50299835205078,246.91600036621094 -21.96500015258789,246.95399475097656 C-21.944000244140625,246.95399475097656 -21.92300033569336,246.9600067138672 -21.9060001373291,246.9709930419922 C-14.260000228881836,251.65699768066406 -6.651000022888184,252.38800048828125 0,252.38800048828125 C6.651000022888184,252.38800048828125 14.258999824523926,251.65699768066406 21.905000686645508,246.9709930419922 C21.92300033569336,246.9600067138672 21.944000244140625,246.95399475097656 21.964000701904297,246.95399475097656 C34.50199890136719,246.9149932861328 45.29600143432617,241.63800048828125 52.30400085449219,232.13099670410156 C52.314998626708984,232.11700439453125 52.33000183105469,232.10499572753906 52.34600067138672,232.09800720214844 C62.402000427246094,227.48800659179688 66.8499984741211,217.78399658203125 69.9739990234375,210.9709930419922 C71.08699798583984,208.5449981689453 72.76699829101562,204.87899780273438 73.76799774169922,203.93800354003906 C75.1969985961914,202.59300231933594 80.7040023803711,199.3040008544922 85.12899780273438,196.66099548339844 C98.81199645996094,188.48800659179688 117.552001953125,177.29299926757812 128.95700073242188,161.697998046875 C140.00799560546875,146.58599853515625 144.7760009765625,120.09400177001953 148.32000732421875,97.12699890136719 C152.6219940185547,99.447998046875 156.91099548339844,100.8489990234375 160.9149932861328,100.93000030517578 C179.65699768066406,101.30699920654297 226.6649932861328,56.9739990234375 224.8699951171875,29.64900016784668z M-82.9000015258789,-177.0659942626953 C-83.79000091552734,-178.59800720214844 -83.38500213623047,-177.3280029296875 -84.24500274658203,-178.91700744628906 C-86.0270004272461,-182.20899963378906 -84.66300201416016,-186.2969970703125 -81.23899841308594,-187.9810028076172 C-81.23899841308594,-187.9810028076172 -81.23699951171875,-187.98199462890625 -81.23699951171875,-187.98199462890625 C-77.68099975585938,-189.7310028076172 -73.33799743652344,-188.20799255371094 -71.7509994506836,-184.66799926757812 C-66.97599792480469,-174.01699829101562 -63.972999572753906,-167.88999938964844 -62.986000061035156,-167.16700744628906 C-61.564998626708984,-166.1269989013672 -55.483001708984375,-164.50399780273438 -49.90399932861328,-163.96499633789062 C-45.05099868774414,-163.4949951171875 -41.19300079345703,-167.8280029296875 -42.4010009765625,-172.3979949951172 C-44.31999969482422,-179.65899658203125 -45.527000427246094,-183.22000122070312 -47.608001708984375,-191.22900390625 C-48.566001892089844,-194.91400146484375 -46.22200012207031,-198.68699645996094 -42.38600158691406,-199.50599670410156 C-42.263999938964844,-199.53199768066406 -42.141998291015625,-199.55799865722656 -42.02000045776367,-199.58299255371094 C-38.183998107910156,-200.3939971923828 -34.41299819946289,-197.9340057373047 -33.66699981689453,-194.20599365234375 C-30.360000610351562,-177.68499755859375 -27.84000015258789,-166.5970001220703 -26.79199981689453,-165.59300231933594 C-25.441999435424805,-164.30099487304688 -19.368000030517578,-162.8000030517578 -13.965999603271484,-162.51300048828125 C-9.701000213623047,-162.28700256347656 -6.23199987411499,-165.802001953125 -6.623000144958496,-169.91600036621094 C-7.5,-179.12399291992188 -8.145000457763672,-185.6199951171875 -8.62399959564209,-196.58399963378906 C-8.791000366210938,-200.42100524902344 -5.631999969482422,-203.63299560546875 -1.6619999408721924,-203.64300537109375 C-0.5640000104904175,-203.64500427246094 0.5640000104904175,-203.64500427246094 1.6610000133514404,-203.64300537109375 C5.63100004196167,-203.63299560546875 8.791000366210938,-200.42100524902344 8.623000144958496,-196.58399963378906 C8.145000457763672,-185.6199951171875 7.5,-179.12399291992188 6.624000072479248,-169.91600036621094 C6.23199987411499,-165.802001953125 9.701000213623047,-162.28700256347656 13.965999603271484,-162.51300048828125 C19.368000030517578,-162.8000030517578 25.441999435424805,-164.30099487304688 26.79199981689453,-165.59300231933594 C27.84000015258789,-166.5970001220703 30.493000030517578,-179.23599243164062 33.79999923706055,-195.76600646972656 C34.54600143432617,-199.49000549316406 38.3120002746582,-201.94500732421875 42.143001556396484,-201.13499450683594 C42.27299880981445,-201.10699462890625 42.402000427246094,-201.07899475097656 42.53099822998047,-201.052001953125 C46.35900115966797,-200.23500061035156 48.70000076293945,-196.47500610351562 47.744998931884766,-192.79800415039062 C45.65999984741211,-184.7729949951172 44.321998596191406,-179.66700744628906 42.4010009765625,-172.3979949951172 C41.19499969482422,-167.83299255371094 45.047000885009766,-163.49600219726562 49.89500045776367,-163.96299743652344 C55.47600173950195,-164.5019989013672 61.564998626708984,-166.1269989013672 62.986000061035156,-167.16700744628906 C63.972999572753906,-167.88999938964844 66.50299835205078,-173.92999267578125 71.27899932861328,-184.58299255371094 C72.86499786376953,-188.12100219726562 77.20899963378906,-189.64199829101562 80.76399993896484,-187.8939971923828 C80.76399993896484,-187.8939971923828 80.76599884033203,-187.89300537109375 80.76599884033203,-187.89300537109375 C84.21900177001953,-186.19500732421875 85.5510025024414,-182.0959930419922 83.74600219726562,-178.781005859375 C82.9209976196289,-177.26600646972656 83.7750015258789,-178.58299255371094 82.89900207519531,-177.06399536132812 C80.16300201416016,-172.3260040283203 84,-166.56500244140625 89.59200286865234,-167.01800537109375 C96.6780014038086,-167.5919952392578 104.37000274658203,-169.16600036621094 105.75800323486328,-170.1820068359375 C105.90599822998047,-170.29200744628906 106.11599731445312,-170.49000549316406 106.37999725341797,-170.76699829101562 C108.05500030517578,-172.5279998779297 110.87899780273438,-172.68899536132812 112.74099731445312,-171.11399841308594 C113.05799865722656,-170.8470001220703 113.37200164794922,-170.57899475097656 113.68399810791016,-170.30999755859375 C115.67500305175781,-168.59500122070312 115.73400115966797,-165.73599243164062 113.81600189208984,-163.94500732421875 C113.81600189208984,-163.94500732421875 113.77899932861328,-163.91099548339844 113.77899932861328,-163.91099548339844 C113.74500274658203,-163.87899780273438 113.72899627685547,-163.8350067138672 113.74099731445312,-163.79100036621094 C115.0790023803711,-159.0800018310547 128.56500244140625,-146.94000244140625 131.63099670410156,-147.24899291992188 C132.03900146484375,-147.29100036621094 132.83900451660156,-147.62600708007812 133.9080047607422,-148.16900634765625 C133.9720001220703,-148.2010040283203 134.06399536132812,-148.1840057373047 134.10499572753906,-148.12600708007812 C135.65699768066406,-145.96099853515625 137.0919952392578,-143.7969970703125 138.4250030517578,-141.64199829101562 C143.00999450683594,-124.87000274658203 144.86700439453125,-104.15799713134766 142.43800354003906,-78.52300262451172 C140.96800231933594,-63.01300048828125 140.21299743652344,-50.60900115966797 139.92100524902344,-40.52399826049805 C139.92100524902344,-40.52399826049805 139.92100524902344,-40.52299880981445 139.92100524902344,-40.52299880981445 C138.95700073242188,-30.93400001525879 139.88900756835938,3.5230000019073486 140.625,9.333000183105469 C141.34300231933594,14.989999771118164 141.90899658203125,19.45800018310547 140.64199829101562,26.805999755859375 C140.4929962158203,27.67300033569336 140.3159942626953,28.464000701904297 140.125,29.224000930786133 C139.53700256347656,31.10099983215332 138.88600158691406,32.86800003051758 138.18299865722656,34.54399871826172 C137.3260040283203,36.316001892089844 136.3040008544922,38.04499816894531 135.0919952392578,40.07600021362305 C133.93600463867188,42.01100158691406 132.67100524902344,44.13800048828125 131.4080047607422,46.573001861572266 C123.46499633789062,57.62099838256836 113.7699966430664,64.47699737548828 109.37799835205078,76.43599700927734 C106.0009994506836,85.62999725341797 105.1709976196289,106.90599822998047 99.89800262451172,129.96400451660156 C97.88400268554688,138.77200317382812 89.9520034790039,145.18099975585938 80.62699890136719,145.3459930419922 C77.24700164794922,145.40499877929688 74.67900085449219,145.33999633789062 73.13999938964844,145.80999755859375 C68.39199829101562,147.26100158691406 46.61800003051758,187.20599365234375 30.0310001373291,183.75999450683594 C23.05299949645996,182.30999755859375 20.410999298095703,177.42999267578125 19.80900001525879,171.14500427246094 C19.17300033569336,164.5 22.843000411987305,158.18099975585938 28.97599983215332,155.12600708007812 C36.94499969482422,151.1580047607422 43.85900115966797,145.41600036621094 48.507999420166016,137.906005859375 C49.99300003051758,135.77000427246094 51.19900131225586,133.33099365234375 49.90399932861328,130.7239990234375 C48.52299880981445,127.79499816894531 44.95000076293945,126.50399780273438 41.922000885009766,127.83999633789062 C31.655000686645508,132.33299255371094 21.562000274658203,135.56500244140625 10.597999572753906,136.7480010986328 C-7.618000030517578,138.9340057373047 -25.530000686645508,135.34300231933594 -42.20199966430664,127.77899932861328 C-47.3489990234375,125.44100189208984 -52.74599838256836,131.1269989013672 -49.78499984741211,135.91000366210938 C-46.14500045776367,142.4409942626953 -37.88399887084961,151.28900146484375 -29.16900062561035,155.77499389648438 C-22.73200035095215,159.08900451660156 -18.884000778198242,165.80299377441406 -20.017000198364258,172.77000427246094 C-20.909000396728516,178.26300048828125 -23.666000366210938,182.43800354003906 -30.0310001373291,183.75999450683594 C-46.61800003051758,187.20599365234375 -68.39199829101562,147.26100158691406 -73.14099884033203,145.80999755859375 C-74.68000030517578,145.33999633789062 -77.24800109863281,145.40499877929688 -80.62699890136719,145.3459930419922 C-89.9520034790039,145.17999267578125 -97.88400268554688,138.77200317382812 -99.89800262451172,129.96400451660156 C-105.1709976196289,106.90599822998047 -106.0009994506836,85.62999725341797 -109.37799835205078,76.43599700927734 C-113.77100372314453,64.47699737548828 -123.46499633789062,57.62099838256836 -131.4080047607422,46.573001861572266 C-132.67100524902344,44.137001037597656 -133.93600463867188,42.0099983215332 -135.0919952392578,40.07600021362305 C-136.3040008544922,38.047000885009766 -137.32400512695312,36.31800079345703 -138.1820068359375,34.547000885009766 C-138.88600158691406,32.86800003051758 -139.53799438476562,31.100000381469727 -140.1269989013672,29.2189998626709 C-140.31700134277344,28.458999633789062 -140.49400329589844,27.67099952697754 -140.64300537109375,26.805999755859375 C-141.9080047607422,19.458999633789062 -141.3419952392578,14.993000030517578 -140.625,9.336000442504883 C-140.24600219726562,6.349999904632568 -139.9709930419922,-7.6570000648498535 -139.9219970703125,-21.87299919128418 C-139.69500732421875,-28.384000778198242 -139.70199584960938,-36.362998962402344 -140.13499450683594,-46.40299987792969 C-140.2259979248047,-49.56800079345703 -140.3470001220703,-52.09199905395508 -140.50100708007812,-53.63100051879883 C-140.5019989013672,-53.637001037597656 -140.5019989013672,-53.63999938964844 -140.5030059814453,-53.64500045776367 C-140.9250030517578,-60.92300033569336 -141.5500030517578,-69.1510009765625 -142.43800354003906,-78.52300262451172 C-144.86700439453125,-104.15699768066406 -143.00999450683594,-124.86799621582031 -138.42599487304688,-141.64100646972656 C-137.20899963378906,-143.60400390625 -135.9080047607422,-145.5749969482422 -134.51300048828125,-147.54800415039062 C-134.1020050048828,-147.37899780273438 -133.77099609375,-147.27099609375 -133.5570068359375,-147.24899291992188 C-130.75,-146.96600341796875 -119.21499633789062,-157.11199951171875 -116.25499725341797,-162.4459991455078 C-115.8239974975586,-163.22300720214844 -115.99400329589844,-164.18099975585938 -116.64900207519531,-164.79400634765625 C-116.65799713134766,-164.802001953125 -116.697998046875,-167.63400268554688 -115.8489990234375,-168.41099548339844 C-115.04100036621094,-169.14999389648438 -115.01300048828125,-169.15699768066406 -114.20099639892578,-169.86199951171875 C-111.9540023803711,-171.81399536132812 -108.15399932861328,-171.96099853515625 -105.75800323486328,-170.1820068359375 C-104.36799621582031,-169.1649932861328 -96.65699768066406,-167.58799743652344 -89.56300354003906,-167.01600646972656 C-83.94200134277344,-166.56199645996094 -80.13800048828125,-172.3090057373047 -82.9000015258789,-177.0659942626953z"></path></g><g opacity="1" transform="matrix(1,0,0,1,302.05499267578125,233.32400512695312)"><path fill="rgb(0,0,0)" fill-opacity="1" d=" M-20.559999465942383,-11.64799976348877 C-27.42300033569336,-6.465000152587891 -31.93600082397461,2.311000108718872 -31.93600082397461,12.263999938964844 C-31.93600082397461,28.191999435424805 -20.3799991607666,41.104000091552734 -6.125999927520752,41.104000091552734 C8.128000259399414,41.104000091552734 19.683000564575195,28.191999435424805 19.683000564575195,12.263999938964844 C19.683000564575195,1.0750000476837158 13.968999862670898,-8.604999542236328 5.633999824523926,-13.38700008392334 C23.40399932861328,-13.541999816894531 37.763999938964844,-11.97700023651123 40.48500061035156,-10.848999977111816 C43.98400115966797,-9.39799976348877 55.72999954223633,-0.21299999952316284 55.97999954223633,-1.4220000505447388 C56.22999954223633,-2.630000114440918 52.73099899291992,-30.22599983215332 51.23099899291992,-32.1609992980957 C49.731998443603516,-34.09400177001953 31.738000869750977,-41.104000091552734 10.746000289916992,-41.104000091552734 C-15.494999885559082,-41.104000091552734 -48.983001708984375,-35.303001403808594 -49.981998443603516,-33.85200119018555 C-50.981998443603516,-32.402000427246094 -56.22999954223633,-8.914999961853027 -56.22999954223633,-5.289000034332275 C-53.084999084472656,-4.072000026702881 -38.112998962402344,-9.105999946594238 -20.559999465942383,-11.64799976348877z"></path></g><g opacity="1" transform="matrix(1,0,0,1,151.60899353027344,233.32400512695312)"><path fill="rgb(0,0,0)" fill-opacity="1" d=" M-51.231998443603516,-32.1619987487793 C-52.73099899291992,-30.226999282836914 -56.22999954223633,-2.63100004196167 -55.97999954223633,-1.4229999780654907 C-55.72999954223633,-0.21400000154972076 -43.98400115966797,-9.39900016784668 -40.48500061035156,-10.850000381469727 C-37.75600051879883,-11.980999946594238 -23.315000534057617,-13.553999900817871 -5.468999862670898,-13.38700008392334 C-13.803999900817871,-8.604999542236328 -19.517000198364258,1.0740000009536743 -19.517000198364258,12.262999534606934 C-19.517000198364258,28.19099998474121 -7.960999965667725,41.104000091552734 6.293000221252441,41.104000091552734 C20.547000885009766,41.104000091552734 32.10200119018555,28.19099998474121 32.10200119018555,12.262999534606934 C32.10200119018555,2.328000068664551 27.604000091552734,-6.433000087738037 20.76099967956543,-11.619999885559082 C38.22600173950195,-9.069999694824219 53.09700012207031,-4.078000068664551 56.22999954223633,-5.289999961853027 C56.22999954223633,-8.916000366210938 50.981998443603516,-32.40399932861328 49.981998443603516,-33.85300064086914 C48.983001708984375,-35.30400085449219 15.494000434875488,-41.10499954223633 -10.746000289916992,-41.10499954223633 C-31.73900032043457,-41.10499954223633 -49.731998443603516,-34.095001220703125 -51.231998443603516,-32.1619987487793z"></path></g><g opacity="1" transform="matrix(1,0,0,1,225.84500122070312,344.9320068359375)"><path fill="rgb(0,0,0)" fill-opacity="1" d=" M-41.082000732421875,-42.930999755859375 C-42.83100128173828,-42.930999755859375 -49.22600173950195,-30.159000396728516 -47.12200164794922,-24.30699920654297 C-46.35499954223633,-22.174999237060547 -44.21099853515625,-19.937999725341797 -41.104000091552734,-17.7810001373291 C-36.018001556396484,-14.25100040435791 -36.14400100708008,-6.958000183105469 -41.38199996948242,-3.6419999599456787 C-45.16400146484375,-1.246999979019165 -48.926998138427734,0.5 -52.077999114990234,0.5789999961853027 C-61.82400131225586,0.8199999928474426 -64.0739974975586,-3.2890000343322754 -67.822998046875,-2.322000026702881 C-71.12300109863281,-1.4709999561309814 -79.52300262451172,19.996999740600586 -78.0790023803711,39.2869987487793 C-77.87699890136719,41.992000579833984 -74.25499725341797,42.930999755859375 -72.71099853515625,40.66699981689453 C-70.61100006103516,37.58700180053711 -67.90299987792969,33.93299865722656 -64.40799713134766,30.184999465942383 C-44.38100051879883,27.709999084472656 -13.939000129699707,21.014999389648438 -10.824000358581543,21.724000930786133 C-6.64300012588501,22.676000595092773 -5.156000137329102,26.677000045776367 1.0700000524520874,26.677000045776367 C7.295000076293945,26.677000045776367 8.781999588012695,22.676000595092773 12.963000297546387,21.724000930786133 C16.12700080871582,21.003000259399414 45.5,27.913999557495117 65.18299865722656,30.290000915527344 C67.32499694824219,32.92300033569336 69.08899688720703,35.51499938964844 70.5780029296875,37.90599822998047 C72.56300354003906,41.09400177001953 77.61900329589844,39.9109992980957 77.9280014038086,36.20199966430664 C79.52300262451172,17.0939998626709 73.11399841308594,-1.5089999437332153 69.96199798583984,-2.322000026702881 C66.21299743652344,-3.2890000343322754 63.9640007019043,0.8199999928474426 54.21699905395508,0.5789999961853027 C51.106998443603516,0.5009999871253967 47.39799880981445,-1.2039999961853027 43.665000915527344,-3.5510001182556152 C38.42399978637695,-6.8470001220703125 38.2859992980957,-14.133999824523926 43.349998474121094,-17.68000030517578 C46.44499969482422,-19.847000122070312 48.55799865722656,-22.11400032043457 49.26100158691406,-24.30699920654297 C51.15800094604492,-30.224000930786133 44.970001220703125,-42.930999755859375 43.22100067138672,-42.930999755859375 C41.47200012207031,-42.930999755859375 41.97200012207031,-34.47100067138672 39.22200012207031,-31.56999969482422 C36.4739990234375,-28.670000076293945 14.89799976348877,-23.815000534057617 1.0700000524520874,-23.815000534057617 C-12.758999824523926,-23.815000534057617 -34.33399963378906,-28.670000076293945 -37.08300018310547,-31.56999969482422 C-39.83300018310547,-34.47100067138672 -39.33300018310547,-42.930999755859375 -41.082000732421875,-42.930999755859375z"></path></g><g opacity="1" transform="matrix(1,0,0,1,330.1419982910156,290.2250061035156)"><path fill="rgb(0,0,0)" fill-opacity="1" d=" M15.532999992370605,-5.8480000495910645 C15.532999992370605,-5.8480000495910645 8.52299976348877,-6.334000110626221 8.52299976348877,-6.334000110626221 C7.139999866485596,-6.429999828338623 5.978000164031982,-7.375999927520752 5.644000053405762,-8.678000450134277 C5.644000053405762,-8.678000450134277 3.9560000896453857,-15.277000427246094 3.9560000896453857,-15.277000427246094 C3.2109999656677246,-18.187999725341797 -0.949999988079071,-18.47599983215332 -2.117000102996826,-15.696999549865723 C-2.117000102996826,-15.696999549865723 -4.761000156402588,-9.39900016784668 -4.761000156402588,-9.39900016784668 C-5.2820000648498535,-8.156000137329102 -6.572000026702881,-7.380000114440918 -7.954999923706055,-7.47599983215332 C-7.954999923706055,-7.47599983215332 -14.965999603271484,-7.960999965667725 -14.965999603271484,-7.960999965667725 C-18.05900001525879,-8.175999641418457 -19.628000259399414,-4.436999797821045 -17.256000518798828,-2.50600004196167 C-17.256000518798828,-2.50600004196167 -11.880000114440918,1.8739999532699585 -11.880000114440918,1.8739999532699585 C-10.819000244140625,2.736999988555908 -10.454000473022461,4.163000106811523 -10.97599983215332,5.406000137329102 C-10.97599983215332,5.406000137329102 -13.619999885559082,11.704999923706055 -13.619999885559082,11.704999923706055 C-14.78600025177002,14.482999801635742 -11.595000267028809,17.08300018310547 -8.963000297546387,15.498000144958496 C-8.963000297546387,15.498000144958496 -2.996000051498413,11.904999732971191 -2.996000051498413,11.904999732971191 C-1.819000005722046,11.196000099182129 -0.30300000309944153,11.302000045776367 0.7570000290870667,12.164999961853027 C0.7570000290870667,12.164999961853027 6.133999824523926,16.54400062561035 6.133999824523926,16.54400062561035 C8.505000114440918,18.47599983215332 12.04699993133545,16.343000411987305 11.302000045776367,13.432000160217285 C11.302000045776367,13.432000160217285 9.61400032043457,6.833000183105469 9.61400032043457,6.833000183105469 C9.279999732971191,5.531000137329102 9.85200023651123,4.170000076293945 11.029000282287598,3.4609999656677246 C11.029000282287598,3.4609999656677246 16.996000289916992,-0.13199999928474426 16.996000289916992,-0.13199999928474426 C19.628000259399414,-1.715999960899353 18.625999450683594,-5.632999897003174 15.532999992370605,-5.8480000495910645z"></path></g><g opacity="1" transform="matrix(1,0,0,1,122.89399719238281,161.2989959716797)"><path fill="rgb(0,0,0)" fill-opacity="1" d=" M-6.769999980926514,-13.156999588012695 C-6.769999980926514,-13.156999588012695 -8.477999687194824,-5.604000091552734 -8.477999687194824,-5.604000091552734 C-9.291000366210938,-2.009999990463257 -13.46399974822998,-0.7789999842643738 -15.767999649047852,-3.4560000896453857 C-15.767999649047852,-3.4560000896453857 -19.26099967956543,-7.513999938964844 -19.26099967956543,-7.513999938964844 C-22.009000778198242,-10.706000328063965 -26.992000579833984,-8.262999534606934 -26.65999984741211,-3.885999917984009 C-26.65999984741211,-3.885999917984009 -25.339000701904297,13.522000312805176 -25.339000701904297,13.522000312805176 C-25.13800048828125,16.18400001525879 -22.9060001373291,18.065000534057617 -20.461999893188477,17.6200008392334 C-5.133999824523926,14.819999694824219 14.215999603271484,13.425999641418457 22.75,12.911999702453613 C25.15399932861328,12.767000198364258 26.992000579833984,10.50100040435791 26.823999404907227,7.906000137329102 C26.823999404907227,7.906000137329102 25.624000549316406,-10.666000366210938 25.624000549316406,-10.666000366210938 C25.327999114990234,-15.230999946594238 19.722999572753906,-16.49799919128418 17.645999908447266,-12.468000411987305 C17.645999908447266,-12.468000411987305 14.015000343322754,-5.422999858856201 14.015000343322754,-5.422999858856201 C12.435999870300293,-2.3570001125335693 8.432999610900879,-2.1670000553131104 6.698999881744385,-5.073999881744385 C6.698999881744385,-5.073999881744385 0.972000002861023,-14.675999641418457 0.972000002861023,-14.675999641418457 C-1.0479999780654907,-18.06399917602539 -5.875,-17.115999221801758 -6.769999980926514,-13.156999588012695z"></path></g></g></g></svg>