<svg xmlns="http://www.w3.org/2000/svg" xmlns:xlink="http://www.w3.org/1999/xlink" viewBox="0 0 512 512" width="512" height="512" style="width: 100%; height: 100%; transform: translate3d(0,0,0);" preserveAspectRatio="xMidYMid meet"><defs><clipPath id="__lottie_element_52836"><rect width="512" height="512" x="0" y="0"></rect></clipPath></defs><g clip-path="url(#__lottie_element_52836)"><g style="display: block;" transform="matrix(1,0,0,1,265.6180114746094,244.92100524902344)" opacity="1"><g opacity="1" transform="matrix(1,0,0,1,0,0)"><path fill="rgb(4,5,52)" fill-opacity="1" d=" M-180.9409942626953,175.9080047607422 C-180.9409942626953,175.9080047607422 -142.54100036621094,80.4729995727539 -52.1879997253418,27.391000747680664 C-52.1879997253418,27.391000747680664 -126.16500091552734,53.93199920654297 -192.8000030517578,144.8489990234375 C-192.8000030517578,144.8489990234375 -239.6699981689453,73.6969985961914 -221.03500366210938,38.685001373291016 C-202.39999389648438,3.6730000972747803 -170.77699279785156,31.343000411987305 -158.35299682617188,25.695999145507812 C-145.9290008544922,20.048999786376953 -160.61099243164062,-7.056000232696533 -172.47000122070312,-35.85599899291992 C-184.32899475097656,-64.65599822998047 -183.76499938964844,-108.7030029296875 -152.70599365234375,-120.56199645996094 C-121.64700317382812,-132.42100524902344 -115.43499755859375,-54.49100112915039 -101.88200378417969,-53.36199951171875 C-88.3290023803711,-52.233001708984375 -99.05899810791016,-97.9739990234375 -85.50599670410156,-144.27999877929688 C-71.9530029296875,-190.58599853515625 -44.790000915527344,-219.2259979248047 -16.047000885009766,-208.656005859375 C13.128999710083008,-197.927001953125 -0.23600000143051147,-139.197998046875 12.187999725341797,-132.98599243164062 C24.611000061035156,-126.77400207519531 29.694000244140625,-180.98599243164062 54.54100036621094,-200.18600463867188 C79.38800048828125,-219.38600158691406 101.97599792480469,-201.87899780273438 108.18800354003906,-184.93800354003906 C114.4000015258789,-167.9969940185547 135.85800170898438,-175.9029998779297 155.05799865722656,-184.93800354003906 C174.25799560546875,-193.97300720214844 203.05799865722656,-201.31500244140625 218.30499267578125,-182.67999267578125 C233.552001953125,-164.0449981689453 223.38800048828125,-121.69100189208984 196.28199768066406,-101.36199951171875 C169.17599487304688,-81.03299713134766 157.3179931640625,-73.12699890136719 158.44700622558594,-60.138999938964844 C159.5760040283203,-47.1510009765625 217.17599487304688,-56.18600082397461 213.22300720214844,-12.704000473022461 C209.27000427246094,30.777999877929688 153.36399841308594,29.084999084472656 134.16400146484375,26.826000213623047 C114.96399688720703,24.566999435424805 77.12899780273438,33.03799819946289 92.94100189208984,57.31999969482422 C108.75299835205078,81.60199737548828 153.9290008544922,94.0260009765625 128.51699829101562,126.21399688720703 C103.1050033569336,158.40199279785156 34.7760009765625,128.4720001220703 17.834999084472656,119.43699645996094 C0.8939999938011169,110.4020004272461 -20.565000534057617,116.61399841308594 -11.529999732971191,132.42599487304688 C-2.494999885559082,148.23800659179688 5.61899995803833,156.70799255371094 -0.13199999928474426,168.0019989013672 C-5.882999897003174,179.29600524902344 -45.97600173950195,164.61300659179688 -58.400001525878906,161.7899932861328 C-70.8239974975586,158.96600341796875 -84.11000061035156,157.406005859375 -83.81199645996094,170.8260040283203 C-83.24700164794922,196.23800659179688 -104.14199829101562,225.03700256347656 -130.1179962158203,203.01400756835938 C-151.1529998779297,185.17999267578125 -167.38800048828125,173.08399963378906 -180.9409942626953,175.9080047607422z"></path></g></g></g></svg>