<svg xmlns="http://www.w3.org/2000/svg" xmlns:xlink="http://www.w3.org/1999/xlink" viewBox="0 0 512 512" width="512" height="512" style="width: 100%; height: 100%; transform: translate3d(0,0,0);" preserveAspectRatio="xMidYMid meet"><defs><clipPath id="__lottie_element_51300"><rect width="512" height="512" x="0" y="0"></rect></clipPath></defs><g clip-path="url(#__lottie_element_51300)"><g style="display: block;" transform="matrix(1,0,0,1,256.1310119628906,252.14500427246094)" opacity="1"><g opacity="1" transform="matrix(1,0,0,1,0,0)"><path fill="rgb(0,0,0)" fill-opacity="1" d=" M-123.01,-211.25 C-130.31,-211.57 -137.38,-206.49 -139.08,-199.72 C-140.2,-195.26 -138.71,-191.08 -137.47,-186.96 C-133.11,-172.46 -131.11,-171.59 -117.66,-177.97 C-114.1,-179.67 -102.21,-183.9 -103.12,-191.14 C-103.8,-201.54 -112.86,-210.8 -123.01,-211.25z M100.86499786376953,181.7740020751953 C119.5989990234375,183.68099975585938 135.16200256347656,179.625 150.16700744628906,172.80499267578125 C160.63400268554688,168.04800415039062 200.77000427246094,151.21499633789062 211.25,150.6750030517578 C220.44000244140625,150.20199584960938 227.3820037841797,153.30599975585938 232.02699279785156,161.53799438476562 C237.3040008544922,170.88900756835938 242.08599853515625,180.46299743652344 245.58399963378906,190.60299682617188 C249.36000061035156,201.54800415039062 245.63099670410156,208.52499389648438 234.14199829101562,208.51199340820312 C189.5590057373047,213.44200134277344 154.55499267578125,239.50900268554688 114.49500274658203,241.34300231933594 C79.0999984741211,244.5659942626953 49.638999938964844,234.41000366210938 27.586999893188477,205.50100708007812 C21.065000534057617,196.9510040283203 14.616000175476074,188.38699340820312 10.630000114440918,178.36300659179688 C8.345999717712402,172.61900329589844 5.172999858856201,169.45899963378906 -1.3830000162124634,168.83399963378906 C-10.187999725341797,167.9949951171875 -18.37299919128418,164.52999877929688 -25.106000900268555,158.67100524902344 C-29.759000778198242,154.6219940185547 -34.08599853515625,154.73800659179688 -39.23500061035156,157.3209991455078 C-46.691001892089844,161.06100463867188 -52.257999420166016,162.55099487304688 -62.62300109863281,165.97300720214844 C-75.02200317382812,170.0659942626953 -85.26399993896484,164.28599548339844 -91.15799713134766,151.43499755859375 C-99.00700378417969,134.3209991455078 -99.67500305175781,135.4340057373047 -118.1240005493164,136.60800170898438 C-157.14100646972656,139.09100341796875 -191.95599365234375,128.6510009765625 -219.87899780273438,100.04199981689453 C-232.8979949951172,86.7030029296875 -241.33099365234375,70.61499786376953 -245.46299743652344,52.41999816894531 C-247.5570068359375,43.20199966430664 -245.77099609375,41.108001708984375 -236.92300415039062,42.654998779296875 C-186.14700317382812,51.53200149536133 -136.55799865722656,44.659000396728516 -87.64900207519531,30.95599937438965 C-44.59400177001953,18.89299964904785 -4.045000076293945,1.0549999475479126 32.53099822998047,-25.04199981689453 C49.069000244140625,-36.84199905395508 64.57099914550781,-49.77000045776367 75.28399658203125,-67.49299621582031 C77.75900268554688,-71.58799743652344 79.94000244140625,-75.78199768066406 81.23600006103516,-80.41000366210938 C82.04399871826172,-83.29399871826172 81.97100067138672,-86.01399993896484 79.37000274658203,-87.91999816894531 C76.56600189208984,-89.9749984741211 74.11499786376953,-88.4520034790039 71.85299682617188,-86.67400360107422 C70.92400360107422,-85.94300079345703 70.0469970703125,-85.11000061035156 69.28299713134766,-84.20800018310547 C44.375,-54.810001373291016 12.770999908447266,-34.69200134277344 -21.88800048828125,-19.01799964904785 C-77.09300231933594,5.947999954223633 -134.90199279785156,20.079999923706055 -195.63900756835938,21.06800079345703 C-209.52099609375,21.29400062561035 -223.35000610351562,19.454999923706055 -236.88600158691406,16.229000091552734 C-247.04200744628906,13.809000015258789 -248.10899353027344,12.206999778747559 -246.26499938964844,2.318000078201294 C-240.7209930419922,-27.413999557495117 -226.4510040283203,-52.612998962402344 -205.90699768066406,-74.51300048828125 C-201.58900451660156,-79.11599731445312 -196.05599975585938,-80.68499755859375 -190.1719970703125,-82.14299774169922 C-159.5679931640625,-89.72599792480469 -130.60899353027344,-101.41999816894531 -103.68499755859375,-117.9010009765625 C-100.26899719238281,-119.99199676513672 -93.48400115966797,-121.70600128173828 -95.8499984741211,-126.47599792480469 C-98.17400360107422,-131.16099548339844 -103.81900024414062,-127.01899719238281 -107.47200012207031,-125.46499633789062 C-133.05299377441406,-114.58399963378906 -159.0019989013672,-104.82499694824219 -186.0500030517578,-98.20999908447266 C-204.83399963378906,-93.61599731445312 -206.41700744628906,-94.56500244140625 -211.87399291992188,-113.20700073242188 C-215.5449981689453,-125.74800109863281 -213.052001953125,-132.7740020751953 -201.46200561523438,-138.88800048828125 C-190.9530029296875,-144.43099975585938 -179.92999267578125,-148.9949951171875 -169.218994140625,-154.1649932861328 C-159.2760009765625,-158.96400451660156 -159.01400756835938,-159.63999938964844 -163.48899841308594,-169.3300018310547 C-166.50100708007812,-175.8520050048828 -168.7830047607422,-182.55499267578125 -170.22300720214844,-189.58900451660156 C-175.66200256347656,-216.14599609375 -159.9250030517578,-237.9510040283203 -132.9720001220703,-241.36900329589844 C-105.61599731445312,-244.83799743652344 -84.38999938964844,-231.65699768066406 -76.20500183105469,-207.01300048828125 C-72.90699768066406,-197.08299255371094 -72.48899841308594,-197.0570068359375 -63.02399826049805,-200.9239959716797 C-52.01499938964844,-205.4219970703125 -41.23500061035156,-210.49400329589844 -30.152999877929688,-214.7949981689453 C-15.29800033569336,-220.56100463867188 -8.710000038146973,-218.1230010986328 -0.3930000066757202,-204.58399963378906 C3.558000087738037,-198.15199279785156 7.461999893188477,-191.5780029296875 9.52400016784668,-184.33900451660156 C11.446000099182129,-177.59300231933594 15.166999816894531,-176.15199279785156 21.761999130249023,-176.48500061035156 C44.63999938964844,-177.64199829101562 155.3000030517578,-178.31199645996094 163.19400024414062,-71.93900299072266 C166.98300170898438,-40.41999816894531 156.01800537109375,-12.604000091552734 137.76199340820312,12.57699966430664 C131.2429962158203,21.56999969482422 124.02100372314453,30.094999313354492 115.19200134277344,36.95399856567383 C110.23500061035156,40.80500030517578 109.40899658203125,44.82899856567383 112.18000030517578,50.34299850463867 C124.01899719238281,71.93399810791016 118.92400360107422,82.73699951171875 109.44300079345703,89.42400360107422 C99.99600219726562,96.08699798583984 89.36100006103516,100.56300354003906 78.83899688720703,105.21700286865234 C69.29199981689453,109.44000244140625 68.26399993896484,112.37899780273438 69.28900146484375,126.52200317382812 C69.86100006103516,134.4199981689453 75.49500274658203,136.5050048828125 81.3550033569336,137.32400512695312 C104.76799774169922,140.5959930419922 125.52400207519531,134.91900634765625 141.29200744628906,116.5009994506836 C147.6999969482422,109.01599884033203 162.98399353027344,84.77100372314453 165.57200622558594,81.26599884033203 C181.01499938964844,60.3489990234375 206.2530059814453,60.645999908447266 221.41400146484375,81.86900329589844 C227.52699279785156,90.427001953125 227.47000122070312,98.8219985961914 219.36599731445312,105.10700225830078 C207.89300537109375,114.00499725341797 199.09800720214844,125.15699768066406 190.20899963378906,136.27499389648438 C169.73800659179688,161.87899780273438 142.16900634765625,174.375 110.7969970703125,180.0989990234375 C108.15599822998047,180.58099365234375 105.50299835205078,180.99400329589844 100.86499786376953,181.7740020751953z"></path><g opacity="1" transform="matrix(1,0,0,1,-121.27100372314453,-192.72300720214844)"></g><g opacity="1" transform="matrix(1,0,0,1,0,0)"></g></g></g></g></svg>