<svg xmlns="http://www.w3.org/2000/svg" xmlns:xlink="http://www.w3.org/1999/xlink" viewBox="0 0 512 512" width="512" height="512" style="width: 100%; height: 100%; transform: translate3d(0,0,0);" preserveAspectRatio="xMidYMid meet"><defs><clipPath id="__lottie_element_51415"><rect width="512" height="512" x="0" y="0"></rect></clipPath></defs><g clip-path="url(#__lottie_element_51415)"><g style="display: block;" transform="matrix(1,0,0,1,260.9159851074219,255.15699768066406)" opacity="1"><g opacity="1" transform="matrix(1,0,0,1,0,0)"><path fill="rgb(0,0,0)" fill-opacity="1" d=" M226.16299438476562,50.029998779296875 C183.6929931640625,17.513999938964844 153.83099365234375,52.685001373291016 119.98799896240234,30.785999298095703 C115.22000122070312,27.701000213623047 111.70700073242188,24.709999084472656 109.1050033569336,21.628999710083008 C91.04299926757812,-2.9719998836517334 120.7300033569336,-37.80799865722656 128.9510040283203,-51.98500061035156 C139.24000549316406,-69.72899627685547 142.0449981689453,-86.43399810791016 142.24000549316406,-101.09200286865234 C143.2790069580078,-179.33900451660156 79.35199737548828,-242.78500366210938 1.774999976158142,-242.78500366210938 C-75.802001953125,-242.78500366210938 -140.10899353027344,-179.33399963378906 -138.6909942626953,-101.09200286865234 C-137.66799926757812,-44.624000549316406 -101.37899780273438,-15.647000312805176 -101.61100006103516,5.353000164031982 C-101.80699920654297,23.09600067138672 -102.57599639892578,33.10300064086914 -119.98799896240234,44.369998931884766 C-153.83099365234375,66.26899719238281 -183.6929931640625,31.097999572753906 -226.16299438476562,63.61399841308594 C-247.19700622558594,79.71900177001953 -252.4429931640625,123.89399719238281 -224.99400329589844,145.51600646972656 C-210.53900146484375,156.9029998779297 -184.78900146484375,153.5260009765625 -183.2830047607422,138.15499877929688 C-181.70199584960938,122.01000213623047 -196.3419952392578,123.39399719238281 -202.2729949951172,118.02899932861328 C-219.19500732421875,102.72000122070312 -203.1929931640625,86.60600280761719 -185.02000427246094,89.49400329589844 C-149.1300048828125,95.1969985961914 -121.74099731445312,95.9010009765625 -97.4260025024414,84.8489990234375 C-68.22799682617188,71.5770034790039 -59.768001556396484,50.24599838256836 -59.768001556396484,50.24599838256836 C-59.768001556396484,50.24599838256836 -47.805999755859375,70.79499816894531 -101.78399658203125,106.37100219726562 C-150.37100219726562,138.3939971923828 -154.83999633789062,192.70199584960938 -132.45399475097656,220.46099853515625 C-101.78500366210938,258.4909973144531 -23.270999908447266,247.4499969482422 -14.684000015258789,191.01800537109375 C-8.312000274658203,149.14500427246094 -39.220001220703125,143.1739959716797 -52.7140007019043,162.802001953125 C-59.801998138427734,173.11099243164062 -50.2599983215332,188.56500244140625 -62.52799987792969,199.6060028076172 C-74.7959976196289,210.64700317382812 -102.76000213623047,200.41600036621094 -99.33100128173828,173.84300231933594 C-94.62799835205078,137.3990020751953 -16.707000732421875,130.23399353027344 -0.5,53.04600143432617 C13.824000358581543,117.44100189208984 91.33799743652344,125.54499816894531 90.41000366210938,159.88099670410156 C89.68599700927734,186.66400146484375 60.474998474121094,192.44500732421875 50.0629997253418,179.63900756835938 C39.6510009765625,166.83299255371094 51.46900177001953,153.04299926757812 46.0620002746582,141.76100158691406 C35.766998291015625,120.28099822998047 4.308000087738037,121.39800262451172 4.124000072479248,163.7519989013672 C3.877000093460083,220.83299255371094 79.73699951171875,243.88900756835938 115.9209976196289,211.06199645996094 C142.33299255371094,187.1009979248047 149.0449981689453,129.5330047607422 103.27300262451172,93.60099792480469 C51.5620002746582,53.00600051879883 56.1619987487793,31.844999313354492 56.1619987487793,31.844999313354492 C56.1619987487793,31.844999313354492 62.000999450683594,47.040000915527344 77.18599700927734,58.590999603271484 C82.43099975585938,63.016998291015625 89.0770034790039,67.47000122070312 97.4260025024414,71.26499938964844 C121.74099731445312,82.31700134277344 149.1300048828125,81.61299896240234 185.02000427246094,75.91000366210938 C203.1929931640625,73.02200317382812 219.19500732421875,89.13600158691406 202.2729949951172,104.44499969482422 C196.3419952392578,109.80999755859375 181.70199584960938,108.4260025024414 183.2830047607422,124.57099914550781 C184.78900146484375,139.94200134277344 210.53900146484375,143.31900024414062 224.99400329589844,131.9320068359375 C252.4429931640625,110.30999755859375 247.19700622558594,66.13400268554688 226.16299438476562,50.029998779296875z"></path></g></g></g></svg>