<svg xmlns="http://www.w3.org/2000/svg" xmlns:xlink="http://www.w3.org/1999/xlink" viewBox="0 0 512 512" width="512" height="512" style="width: 100%; height: 100%; transform: translate3d(0,0,0);" preserveAspectRatio="xMidYMid meet"><defs><clipPath id="__lottie_element_51940"><rect width="512" height="512" x="0" y="0"></rect></clipPath></defs><g clip-path="url(#__lottie_element_51940)"><g style="display: block;" transform="matrix(1,0,0,1,0,0)" opacity="1"><g opacity="1" transform="matrix(1,0,0,1,255.4409942626953,211.1820068359375)"><path fill="rgb(0,0,0)" fill-opacity="1" d=" M-27.14299964904785,10.62399959564209 C-46.87900161743164,-39.79800033569336 -50.72700119018555,-85.43000030517578 -35.736000061035156,-91.2979965209961 C-20.7450008392334,-97.16600036621094 7.4070000648498535,-61.04600143432617 27.14299964904785,-10.62399959564209 C46.87900161743164,39.79800033569336 50.72700119018555,85.43000030517578 35.736000061035156,91.2979965209961 C20.7450008392334,97.16600036621094 -7.4070000648498535,61.04600143432617 -27.14299964904785,10.62399959564209z"></path></g><g opacity="1" transform="matrix(1,0,0,1,248.0240020751953,255.94400024414062)"><path fill="rgb(0,0,0)" fill-opacity="1" d=" M202.3179931640625,-17.60099983215332 C202.0290069580078,-17.79199981689453 201.74099731445312,-17.98200035095215 201.4530029296875,-18.172000885009766 C194.7899932861328,-22.570999145507812 192.97900390625,-31.52199935913086 197.3419952392578,-38.20899963378906 C222.21499633789062,-76.33499908447266 232.43600463867188,-112.05999755859375 225.77999877929688,-129.06399536132812 C220.4199981689453,-142.7570037841797 198.78399658203125,-157.93899536132812 167.50799560546875,-169.13400268554688 C160.53599548339844,-171.6300048828125 156.63099670410156,-179.0449981689453 158.43299865722656,-186.2270050048828 C159.6840057373047,-191.21299743652344 161.0189971923828,-196.60400390625 162.39700317382812,-202.21299743652344 C169.43099975585938,-230.85299682617188 136.44500732421875,-252.343994140625 113.08999633789062,-234.33599853515625 C113.08999633789062,-234.33599853515625 56.59199905395508,-190.77099609375 56.59199905395508,-190.77099609375 C52.02000045776367,-187.24600219726562 46.54499816894531,-185.0500030517578 40.792999267578125,-184.55599975585938 C38.625999450683594,-184.3699951171875 36.45100021362305,-184.15199279785156 34.27299880981445,-183.91799926757812 C27.365999221801758,-170.94200134277344 27.996999740600586,-154.3300018310547 31.79400062561035,-136.1909942626953 C83.27100372314453,-135.87600708007812 128.41299438476562,-111.9469985961914 135.53900146484375,-93.74199676513672 C145.21400451660156,-69.0250015258789 110.5989990234375,11.017000198364258 40.05799865722656,38.62799835205078 C-30.482999801635742,66.23899841308594 -112.802001953125,24.40999984741211 -119.91100311279297,6.247000217437744 C-127.0199966430664,-11.916000366210938 -94.97100067138672,-98.51200103759766 -24.43000030517578,-126.12300109863281 C-5.84499979019165,-133.3979949951172 13.380000114440918,-136.3040008544922 31.79400062561035,-136.1909942626953 C31.79400062561035,-136.1909942626953 34.27299880981445,-183.91799926757812 34.27299880981445,-183.91799926757812 C34.053001403808594,-183.8939971923828 33.83599853515625,-183.8780059814453 33.61600112915039,-183.85400390625 C24.32200050354004,-182.83399963378906 15.081000328063965,-186.19500732421875 8.579999923706055,-192.9149932861328 C8.579999923706055,-192.9149932861328 -21.735000610351562,-224.25 -21.735000610351562,-224.25 C-46.301998138427734,-249.6439971923828 -89.33000183105469,-233.44400024414062 -91.05000305175781,-198.1529998779297 C-91.05000305175781,-198.1529998779297 -93.35399627685547,-150.8780059814453 -93.35399627685547,-150.8780059814453 C-93.77300262451172,-142.27499389648438 -97.91999816894531,-134.26499938964844 -104.74600219726562,-129.01300048828125 C-106.48200225830078,-127.6780014038086 -108.19599914550781,-126.3270034790039 -109.89099884033203,-124.96099853515625 C-114.39199829101562,-121.33499908447266 -119.88500213623047,-119.16000366210938 -125.64199829101562,-118.64399719238281 C-125.64199829101562,-118.64399719238281 -199.3419952392578,-112.04299926757812 -199.3419952392578,-112.04299926757812 C-228.71600341796875,-109.41200256347656 -238.34500122070312,-71.23799896240234 -213.73800659179688,-54.981998443603516 C-207.72000122070312,-51.00699996948242 -201.9810028076172,-47.236000061035156 -196.8280029296875,-43.88100051879883 C-190.54400634765625,-39.790000915527344 -188.46299743652344,-31.604000091552734 -191.93699645996094,-24.958999633789062 C-207.89500427246094,5.567999839782715 -214.17100524902344,31.302000045776367 -210.15199279785156,41.569000244140625 C-205.125,54.41299819946289 -171.843994140625,74.09400177001953 -125.35600280761719,86.0790023803711 C-117.68000030517578,88.05799865722656 -113.01599884033203,95.8290023803711 -114.91400146484375,103.5250015258789 C-115.18800354003906,104.63400268554688 -115.46399688720703,105.75599670410156 -115.74199676513672,106.88899993896484 C-121.69000244140625,131.11000061035156 -93.8010025024414,149.2899932861328 -74.05000305175781,134.06100463867188 C-74.05000305175781,134.06100463867188 -28.3700008392334,98.83799743652344 -28.3700008392334,98.83799743652344 C-25.9060001373291,96.93800354003906 -22.951000213623047,95.77799987792969 -19.850000381469727,95.5270004272461 C-18.084999084472656,95.38400268554688 -16.31599998474121,95.2249984741211 -14.545000076293945,95.0479965209961 C-8.498000144958496,94.44499969482422 -2.621000051498413,97.27300262451172 0.6759999990463257,102.37799835205078 C0.6759999990463257,102.37799835205078 81.34300231933594,227.26600646972656 81.34300231933594,227.26600646972656 C98.76699829101562,254.24099731445312 140.656005859375,238.16000366210938 135.55299377441406,206.4550018310547 C135.55299377441406,206.4550018310547 112.072998046875,60.584999084472656 112.072998046875,60.584999084472656 C111.0260009765625,54.082000732421875 113.71600341796875,47.52799987792969 119.05500030517578,43.67100143432617 C120.61499786376953,42.54399871826172 122.15899658203125,41.40599822998047 123.68800354003906,40.25699996948242 C127.29399871826172,37.547000885009766 131.57899475097656,35.89400100708008 136.0709991455078,35.492000579833984 C136.0709991455078,35.492000579833984 190.14300537109375,30.649999618530273 190.14300537109375,30.649999618530273 C214.98199462890625,28.424999237060547 223.12600708007812,-3.8550000190734863 202.3179931640625,-17.60099983215332z"></path></g></g></g></svg>