<svg xmlns="http://www.w3.org/2000/svg" xmlns:xlink="http://www.w3.org/1999/xlink" viewBox="0 0 512 512" width="512" height="512" style="width: 100%; height: 100%; transform: translate3d(0,0,0);" preserveAspectRatio="xMidYMid meet"><defs><clipPath id="__lottie_element_51900"><rect width="512" height="512" x="0" y="0"></rect></clipPath></defs><g clip-path="url(#__lottie_element_51900)"><g style="display: block;" transform="matrix(1.0299999713897705,0,0,1.0299999713897705,-546.1331787109375,-1306.298095703125)" opacity="1"><g opacity="1" transform="matrix(1,0,0,1,0,0)"><g opacity="1" transform="matrix(1,0,0,1,774.593017578125,1515.175048828125)"><path fill="rgb(0,0,0)" fill-opacity="1" d=" M40.696998596191406,-135.81500244140625 C30.197999954223633,-143.10000610351562 11.843000411987305,-139.70399475097656 4.041999816894531,-151.3000030517578 C-0.8989999890327454,-160.05999755859375 4.849999904632568,-171.28799438476562 14.989999771118164,-172.18899536132812 C38.71200180053711,-176.3280029296875 60.11899948120117,-188.0760040283203 83.06500244140625,-194.43899536132812 C94.4209976196289,-195.4199981689453 104.65599822998047,-200.64500427246094 110.42900085449219,-210.7530059814453 C115.77300262451172,-218.54299926757812 120.80500030517578,-226.677001953125 125.44000244140625,-234.79400634765625 C128.02499389648438,-240.4739990234375 134.78700256347656,-247.45799255371094 139.52999877929688,-239.427001953125 C148.572998046875,-223.9040069580078 140.5030059814453,-203.8769989013672 147.43099975585938,-187.9499969482422 C149.8159942626953,-184.37600708007812 154.1929931640625,-182.4219970703125 157.9550018310547,-180.4499969482422 C173.9290008544922,-172.0189971923828 187.76199340820312,-159.71299743652344 199.43299865722656,-146.02000427246094 C206.44500732421875,-137.00100708007812 230.90499877929688,-95.697998046875 212.32899475097656,-90.8270034790039 C205.86199951171875,-89.96299743652344 195.43699645996094,-101.16600036621094 190.08700561523438,-97.85900115966797 C192.05099487304688,-91.19200134277344 199.25399780273438,-85.59200286865234 202.6929931640625,-79.21199798583984 C214.4429931640625,-61.17599868774414 215.5019989013672,-38.82899856567383 216.6699981689453,-17.927000045776367 C216.18699645996094,-8.404999732971191 219.40499877929688,21.975000381469727 204.13999938964844,19.073999404907227 C199.67300415039062,17.820999145507812 194.02000427246094,10.805999755859375 190.38699340820312,16.625999450683594 C185.6959991455078,30.514999389648438 187.697998046875,46.4900016784668 181.43899536132812,60.095001220703125 C164.06700134277344,103.25299835205078 159.4980010986328,54.26900100708008 147.5959930419922,80.3550033569336 C144.43299865722656,87.46900177001953 131.07400512695312,117.4489974975586 122.87000274658203,101.51399993896484 C120.10800170898438,90.90699768066406 121.50800323486328,79.47699737548828 119.38899993896484,68.74600219726562 C118.89700317382812,65.78800201416016 116.13500213623047,62.34600067138672 113.71600341796875,65.98500061035156 C110.5469970703125,72.23799896240234 111.63200378417969,80.77300262451172 110.96399688720703,87.73300170898438 C110.90799713134766,126.78099822998047 105.68099975585938,166.38900756835938 109.03399658203125,205.218994140625 C111.23400115966797,213.5800018310547 120.1449966430664,217.38800048828125 124.6709976196289,224.18800354003906 C134.49899291992188,239.19900512695312 125.98600006103516,246.4459991455078 109.49800109863281,244.72000122070312 C100.39900207519531,244.43800354003906 90.7249984741211,245.38299560546875 82.03299713134766,242.31199645996094 C70.28800201416016,238.14100646972656 64.49500274658203,225.677001953125 64.97699737548828,213.77499389648438 C64.49199676513672,170.69200134277344 63.41899871826172,127.572998046875 63.20199966430664,84.48699951171875 C63.17399978637695,81.54299926757812 62.76900100708008,76.31400299072266 59.73899841308594,75.55000305175781 C53.025001525878906,76.7969970703125 51.93000030517578,94.25800323486328 48.70100021362305,100.21900177001953 C43.1150016784668,126.00700378417969 -8.22599983215332,110.10199737548828 -23.604999542236328,101.18199920654297 C-44.59199905395508,84.46099853515625 -41.86000061035156,55.66600036621094 -66.61299896240234,83.51000213623047 C-88.03099822998047,107.09500122070312 -119.80400085449219,119.01200103759766 -138.73500061035156,144.89300537109375 C-149.7969970703125,162.572998046875 -156.11199951171875,184.94500732421875 -154.6699981689453,205.69900512695312 C-153.7899932861328,217.56100463867188 -127.9530029296875,235.1490020751953 -143.31500244140625,244.8000030517578 C-155.375,247.45700073242188 -168.15699768066406,245.75999450683594 -180.47799682617188,246.2030029296875 C-193.56399536132812,246.98899841308594 -196.88099670410156,241.28599548339844 -196.13900756835938,228.58399963378906 C-195.95899963378906,200.5709991455078 -197.1009979248047,172.52499389648438 -195.81100463867188,144.55599975585938 C-188.68899536132812,111.77999877929688 -154.68099975585938,109.7979965209961 -150.4759979248047,50.685001373291016 C-149.5959930419922,38.63999938964844 -148.89199829101562,26.690000534057617 -148.17100524902344,14.635000228881836 C-146.3000030517578,1.74399995803833 -152.97500610351562,-2.5380001068115234 -165.01300048828125,-3.0439999103546143 C-180.47000122070312,-6.105000019073486 -196.28599548339844,-9.517000198364258 -210.70799255371094,-15.95199966430664 C-218.83399963378906,-20.277999877929688 -230.90499877929688,-32.196998596191406 -225.0489959716797,-41.9640007019043 C-222.20599365234375,-45.319000244140625 -216.6790008544922,-45.10200119018555 -213.11599731445312,-47.01599884033203 C-205.89999389648438,-52.14899826049805 -214.34800720214844,-61.95199966430664 -214.72300720214844,-68.8280029296875 C-223.6999969482422,-106.94100189208984 -201.91700744628906,-148.77999877929688 -165.53900146484375,-162.2449951171875 C-156.51100158691406,-166.46299743652344 -135.58200073242188,-173.89999389648438 -134.9550018310547,-157.77200317382812 C-138.08999633789062,-145.35299682617188 -148.36300659179688,-135.9199981689453 -153.4759979248047,-124.22200012207031 C-169.18299865722656,-92.83100128173828 -153.9949951171875,-39.95500183105469 -114.60600280761719,-38.26900100708008 C-76.09300231933594,-46.38100051879883 -36.21900177001953,-43.14799880981445 2.9030001163482666,-46.24100112915039 C10.043000221252441,-45.96500015258789 21.569000244140625,-49.48500061035156 25.683000564575195,-41.99399948120117 C29.450000762939453,-33.31800079345703 16.47800064086914,-13.217000007629395 28.905000686645508,-9.996000289916992 C36.87799835205078,-8.545000076293945 92.552001953125,-35.21500015258789 84.1760025024414,-40.39899826049805 C73.13800048828125,-37.04999923706055 63.86399841308594,-28.20400047302246 52.777000427246094,-24.509000778198242 C20.097999572753906,-12.918999671936035 62.11800003051758,-77.89700317382812 65.45500183105469,-88.08799743652344 C69.447998046875,-94.48799896240234 75.18499755859375,-105.01699829101562 63.03200149536133,-105.66400146484375 C50.619998931884766,-108.99500274658203 9.196999549865723,-100.0270004272461 18.81599998474121,-123.48600006103516 C21.465999603271484,-130.85499572753906 41.874000549316406,-129.27099609375 40.75600051879883,-135.7270050048828 C40.75600051879883,-135.7270050048828 40.696998596191406,-135.81500244140625 40.696998596191406,-135.81500244140625z M91.56400299072266,-155.56100463867188 C103.24700164794922,-155 105.23100280761719,-171.9969940185547 93.89299774169922,-174.197998046875 C88.06600189208984,-174.8800048828125 82.7699966430664,-168.51400756835938 83.51499938964844,-162.83299255371094 C84.00900268554688,-158.9669952392578 87.54100036621094,-155.89199829101562 91.36699676513672,-155.57699584960938 C91.36699676513672,-155.57699584960938 91.56400299072266,-155.56100463867188 91.56400299072266,-155.56100463867188z"></path></g><g opacity="1" transform="matrix(1,0,0,1,694.5130004882812,1680.3330078125)"><path fill="rgb(0,0,0)" fill-opacity="1" d=" M20.56800079345703,83.3010025024414 C15.321000099182129,83.25199890136719 8.706999778747559,83.41600036621094 3.4579999446868896,83.27400207519531 C-2.51200008392334,83.0719985961914 -5.193999767303467,82.21499633789062 -8.086000442504883,78.75800323486328 C-20.389999389648438,60.87099838256836 -31.07900047302246,40.24399948120117 -41.479000091552734,20.983999252319336 C-46.94300079345703,11.269000053405762 -50.994998931884766,-1.3739999532699585 -43.95000076293945,-11.345000267028809 C-40.99700164794922,-15.699999809265137 -36.97200012207031,-19.301000595092773 -33.31800079345703,-23.048999786376953 C-16.43600082397461,-40.07899856567383 1.5880000591278076,-55.957000732421875 19.000999450683594,-72.45099639892578 C24.149999618530273,-77.572998046875 31.849000930786133,-83.41500091552734 37.104000091552734,-75.10399627685547 C48.04100036621094,-57.05400085449219 34.87200164794922,-36.3650016784668 22.5939998626709,-22.871000289916992 C16.486000061035156,-16.224000930786133 7.111999988555908,-10.942999839782715 2.996999979019165,-3.063999891281128 C0.26100000739097595,2.5490000247955322 2.424999952316284,8.369000434875488 4.060999870300293,14.218999862670898 C5.340000152587891,18.541000366210938 6.814000129699707,22.97800064086914 8.394000053405762,27.19300079345703 C14.496999740600586,44.297000885009766 17.849000930786133,48.12200164794922 35.2599983215332,52.946998596191406 C44.566001892089844,56.04199981689453 50.99399948120117,67.08200073242188 49.78499984741211,76.822998046875 C48.555999755859375,83.08899688720703 41.08300018310547,83.2760009765625 35.93600082397461,83.34400177001953 C30.801000595092773,83.39700317382812 25.474000930786133,83.31700134277344 20.753000259399414,83.302001953125 C20.753000259399414,83.302001953125 20.56800079345703,83.3010025024414 20.56800079345703,83.3010025024414z"></path></g><g opacity="1" transform="matrix(1,0,0,1,932.1010131835938,1685.5379638671875)"><path fill="rgb(0,0,0)" fill-opacity="1" d=" M-5.197999954223633,72.42500305175781 C-7.2270002365112305,71.23999786376953 -8.880999565124512,69.19000244140625 -10.246000289916992,67.18099975585938 C-16.847000122070312,56.928001403808594 -23.035999298095703,49.20100021362305 -29.033000946044922,39.53200149536133 C-31.677000045776367,34.91400146484375 -32.512001037597656,29.586000442504883 -32.50899887084961,24.31599998474121 C-32.43199920654297,7.598999977111816 -32.34199905395508,-9.034000396728516 -32.367000579833984,-25.749000549316406 C-32.67100143432617,-36.24599838256836 -30.01300048828125,-43.28499984741211 -23.21500015258789,-51.26100158691406 C-18.982999801635742,-56.59299850463867 -15.156000137329102,-62.20100021362305 -11.088000297546387,-67.62200164794922 C-8.989999771118164,-70.27999877929688 -5.669000148773193,-74.36100006103516 -2.059000015258789,-73.25399780273438 C0.5550000071525574,-72.27400207519531 1.2719999551773071,-68.46600341796875 1.6059999465942383,-65.73699951171875 C3.48799991607666,-44.909000396728516 5.070000171661377,-24.062999725341797 5.577000141143799,-3.13700008392334 C5.703000068664551,1.847000002861023 5.77400016784668,6.811999797821045 5.863999843597412,11.803000450134277 C5.968999862670898,18.374000549316406 6.318999767303467,25.385000228881836 10.975000381469727,30.48900032043457 C15.175999641418457,35.025001525878906 20.42799949645996,38.8120002746582 23.400999069213867,44.387001037597656 C29.36400032043457,54.1349983215332 32.67100143432617,68.59500122070312 18.888999938964844,72.64800262451172 C14.836000442504883,73.89600372314453 10.204000473022461,74.01799774169922 6.051000118255615,74.03900146484375 C2.0880000591278076,73.99400329589844 -1.9470000267028809,74.36100006103516 -5.039999961853027,72.51699829101562 C-5.039999961853027,72.51699829101562 -5.197999954223633,72.42500305175781 -5.197999954223633,72.42500305175781z"></path></g></g></g></g></svg>