<svg xmlns="http://www.w3.org/2000/svg" xmlns:xlink="http://www.w3.org/1999/xlink" viewBox="0 0 512 512" width="512" height="512" style="width: 100%; height: 100%; transform: translate3d(0,0,0);" preserveAspectRatio="xMidYMid meet"><defs><clipPath id="__lottie_element_53369"><rect width="512" height="512" x="0" y="0"></rect></clipPath></defs><g clip-path="url(#__lottie_element_53369)"><g style="display: block;" transform="matrix(1,0,0,1,262.0400085449219,256.9389953613281)" opacity="1"><g opacity="1" transform="matrix(1,0,0,1,0,0)"><path fill="rgb(0,0,0)" fill-opacity="1" d=" M-138.49,158.35 C-149.13,159.39 -155.09,168.53 -152.52,178.72 C-150.95,184.93 -146.67,188.91 -141.09,191.47 C-127.19,197.86 -112.3,199.13 -97.29,199.66 C-89.09,200.39 -86.47,187.05 -85.95,184.34 C-84.08,174.47 -86.69,169.64 -95.82,165.66 C-108.81,159.98 -125.63,157.09 -138.49,158.35z M74.7,67.02 C74.7,87.94 74.54,108.87 74.76,129.79 C74.88,141.53 75.93,142.63 87.92,142.62 C112.38,142.59 177.11,140.55 184.97,141.05 C200.21,142.01 207.3,150.31 205.01,165.46 C200.69,193.93 165.97,225.43 147.73,233.35 C123.9,243.7 98.97,249.33 73.06,250.04 C59.24,250.43 -127.41,248.95 -174.87,227.69 C-196.95,217.79 -205.91,197.43 -205.41,174.06 C-204.9,150.38 -183.35,94.92 -97.96,109.11 C-82.75,111.6 -83.14,111.71 -81.73,96.27 C-80.35,81.23 -82.47,66.32 -82.44,51.34 C-82.42,43.07 -83.25,42.84 -91.63,45.96 C-97.27,48.06 -102.95,49.44 -108.99,48.76 C-122.96,47.18 -131.51,35.67 -128.73,21.9 C-126.31,9.9 -119.67,0.15 -111.62,-8.75 C-105.8,-15.18 -99.94,-21.6 -94.09,-28.01 C-85.26,-43.01 -87.02,-66.77 -86.81,-75.84 C-86.62,-83.72 -84.6,-90.76 -76.39,-94.18 C-68.09,-97.63 -60.19,-96.99 -52.81,-91.73 C-48.59,-88.71 -35.45,-60.64 1.1,-42.76 C7.18,-39.72 8.3,-34.97 7.28,-28.96 C5.63,-19.24 4.02,-9.5 2.43,0.23 C1.14,8.15 3.29,15.23 8.55,21.1 C17.22,30.76 31.2,28.62 36.75,16.93 C40.6,8.82 41.43,0.33 39.67,-8.49 C38.59,-13.9 37.49,-19.36 37.08,-24.84 C36.73,-29.34 39.47,-31.11 43.97,-30.36 C59.91,-27.69 74.1,-11.94 74.33,4.24 C74.63,25.16 74.4,46.09 74.4,67.02 C74.5,67.02 74.6,67.02 74.7,67.02z"></path><g opacity="1" transform="matrix(1,0,0,1,-119.2490005493164,178.8730010986328)"></g><g opacity="1" transform="matrix(1,0,0,1,0,76.88400268554688)"></g></g><g opacity="1" transform="matrix(1,0,0,1,-2.378999948501587,-151.2239990234375)"><path fill="rgb(0,0,0)" fill-opacity="1" d=" M63.14400100708008,22.929000854492188 C63.49700164794922,52.09600067138672 50.183998107910156,73.62100219726562 32.28900146484375,92.83699798583984 C26.06800079345703,99.51699829101562 16.927000045776367,101.375 10.835000038146973,94.6709976196289 C-4.7170000076293945,77.55699920654297 -29.591999053955078,57.00600051879883 -42.09400177001953,45.766998291015625 C-58.88100051879883,29.624000549316406 -66.64399719238281,10.493000030517578 -61.6619987487793,-12.972000122070312 C-57.20600128173828,-33.95800018310547 -47.257999420166016,-52.08399963378906 -33.16400146484375,-67.99800109863281 C-23.695999145507812,-78.68900299072266 -12.435999870300293,-87.44000244140625 -0.5350000262260437,-95.17900085449219 C11.626999855041504,-103.08799743652344 22.055999755859375,-97.86499786376953 21.7549991607666,-83.43699645996094 C21.39299964904785,-66.11900329589844 28.02899932861328,-52.10300064086914 38.209999084472656,-39.012001037597656 C45.00199890136719,-30.277999877929688 62.8129997253418,-4.440000057220459 63.14400100708008,22.929000854492188z"></path></g></g></g></svg>