<svg xmlns="http://www.w3.org/2000/svg" xmlns:xlink="http://www.w3.org/1999/xlink" viewBox="0 0 512 512" width="512" height="512" style="width: 100%; height: 100%; transform: translate3d(0,0,0);" preserveAspectRatio="xMidYMid meet"><defs><clipPath id="__lottie_element_53984"><rect width="512" height="512" x="0" y="0"></rect></clipPath></defs><g clip-path="url(#__lottie_element_53984)"><g style="display: block;" transform="matrix(1,0,0,1,256.1919860839844,256.91900634765625)" opacity="1"><g opacity="1" transform="matrix(1,0,0,1,0,0)"><path fill="rgb(0,0,0)" fill-opacity="1" d=" M218.4459991455078,-162.7259979248047 C186.31199645996094,-204.23899841308594 146.7100067138672,-242.6959991455078 -19.16900062561035,-246.031005859375 C-189.9810028076172,-249.43499755859375 -221.3509979248047,-163.14300537109375 -235.177001953125,-118.33000183105469 C-253.6230010986328,-69.03500366210938 -251.81700134277344,-19.42799949645996 -247.19700622558594,14.164999961853027 C-238.09500122070312,80.34300231933594 -188.7310028076172,121.05699920654297 -130.47300720214844,137.73199462890625 C-124.70600128173828,139.3990020751953 -122.34500122070312,137.17599487304688 -123.10900115966797,130.85400390625 C-124.25499725341797,121.68299865722656 -126.9990005493164,113.06800079345703 -133.94700622558594,106.36299896240234 C-135.927001953125,104.4520034790039 -138.08200073242188,102.54199981689453 -139.50599670410156,100.2490005493164 C-142.0070037841797,96.21900177001953 -139.92300415039062,92.25900268554688 -135.197998046875,91.63400268554688 C-131.4459991455078,91.11299896240234 -128.21499633789062,92.46800231933594 -125.33200073242188,94.83000183105469 C-120.33000183105469,98.8949966430664 -116.64700317382812,103.93099975585938 -113.72899627685547,109.66300201416016 C-107.33699798583984,122.34300231933594 -105.49600219726562,136.06500244140625 -104.27999877929688,149.8560028076172 C-103.02899932861328,164.02999877929688 -102.75199890136719,178.3070068359375 -101.53600311279297,192.4810028076172 C-98.68800354003906,226.07400512695312 -69.1240005493164,247.99400329589844 -37.16400146484375,240.45599365234375 C-27.784000396728516,238.23300170898438 -26.082000732421875,236.35699462890625 -25.700000762939453,226.8040008544922 C-25.422000885009766,220.0989990234375 -25.700000762939453,213.36000061035156 -25.422000885009766,206.65499877929688 C-25.214000701904297,201.68699645996094 -24.101999282836914,196.82400512695312 -17.884000778198242,196.40699768066406 C-11.87399959564209,195.99000549316406 -9.651000022888184,200.43699645996094 -8.295999526977539,205.16099548339844 C-7.427999973297119,208.1490020751953 -6.386000156402588,222.39199829101562 -6.315999984741211,226.3520050048828 C-6.211999893188477,233.02200317382812 -3.188999891281128,237.3300018310547 2.99399995803833,240.07400512695312 C17.618999481201172,249.87100219726562 47.529998779296875,245.83999633789062 58.40299987792969,241.46299743652344 C68.37300109863281,237.43299865722656 68.68599700927734,236.32200622558594 68.16500091552734,225.48300170898438 C67.85199737548828,219.16000366210938 67.6780014038086,212.8040008544922 68.23400115966797,206.51600646972656 C68.75499725341797,200.92300415039062 72.05500030517578,196.85899353027344 78.0999984741211,196.40699768066406 C84.28399658203125,195.9550018310547 87.61799621582031,199.91600036621094 89.14700317382812,205.2310028076172 C90.12000274658203,208.6009979248047 90.88400268554688,224.4759979248047 91.37000274658203,228.78399658203125 C91.75199890136719,232.11900329589844 93.55899810791016,234.4810028076172 96.85900115966797,235.87100219726562 C111.83200073242188,242.1929931640625 130.66000366210938,237.88600158691406 141.49899291992188,225.55299377441406 C147.78700256347656,218.39700317382812 150.7740020751953,209.99000549316406 150.843994140625,200.54100036621094 C150.91299438476562,184.3179931640625 151.2259979248047,168.0590057373047 150.7050018310547,151.87100219726562 C150.35699462890625,141.17100524902344 152.8939971923828,131.68699645996094 164.1840057373047,129.74200439453125 C221.26100158691406,120.01499938964844 235.36399841308594,68.63600158691406 240.9219970703125,46.15999984741211 C260.9320068359375,-34.50400161743164 246.75799560546875,-126.14600372314453 218.4459991455078,-162.7259979248047z M-66.91999816894531,-105.89299774169922 C-32.97100067138672,-105.89299774169922 -5.448999881744385,-78.37100219726562 -5.448999881744385,-44.422000885009766 C-5.448999881744385,-10.472999572753906 -32.97100067138672,17.048999786376953 -66.91999816894531,17.048999786376953 C-100.86900329589844,17.048999786376953 -128.39100646972656,-10.472999572753906 -128.39100646972656,-44.422000885009766 C-128.39100646972656,-78.37100219726562 -100.86900329589844,-105.89299774169922 -66.91999816894531,-105.89299774169922z M60.59199905395508,73.60399627685547 C54.9640007019043,77.00900268554688 46.452999114990234,75.8270034790039 38.67100143432617,67.31600189208984 C30.81999969482422,59.11800003051758 30.750999450683594,59.08300018310547 23.038999557495117,68.08100128173828 C20.1560001373291,71.41600036621094 17.27199935913086,74.57599639892578 12.895000457763672,75.93099975585938 C2.3340001106262207,79.23100280761719 -5.413000106811523,73.70800018310547 -5.552000045776367,61.82699966430664 C-3.884000062942505,48.55699920654297 10.880000114440918,32.68199920654297 18.209999084472656,25.45599937438965 C27.59000015258789,16.145999908447266 35.5099983215332,16.145999908447266 45.097999572753906,25.038999557495117 C51.176998138427734,30.701000213623047 65.072998046875,50.95399856567383 66.21900177001953,54.67100143432617 C68.79000091552734,63.112998962402344 66.53199768066406,69.99099731445312 60.59199905395508,73.60399627685547z M131.54600524902344,-109.54100036621094 C165.4949951171875,-109.54100036621094 193.01699829101562,-82.01899719238281 193.01699829101562,-48.06999969482422 C193.01699829101562,-14.121000289916992 165.4949951171875,13.401000022888184 131.54600524902344,13.401000022888184 C97.59700012207031,13.401000022888184 70.07499694824219,-14.121000289916992 70.07499694824219,-48.06999969482422 C70.07499694824219,-82.01899719238281 97.59700012207031,-109.54100036621094 131.54600524902344,-109.54100036621094z"></path></g></g></g></svg>