<svg xmlns="http://www.w3.org/2000/svg" xmlns:xlink="http://www.w3.org/1999/xlink" viewBox="0 0 512 512" width="512" height="512" style="width: 100%; height: 100%; transform: translate3d(0,0,0);" preserveAspectRatio="xMidYMid meet"><defs><clipPath id="__lottie_element_734"><rect width="512" height="512" x="0" y="0"></rect></clipPath></defs><g clip-path="url(#__lottie_element_734)"><g style="display: block;" transform="matrix(1,0,0,1,18.498992919921875,4.6179962158203125)" opacity="1"><g opacity="1" transform="matrix(1,0,0,1,321.3330078125,216.10000610351562)"><path fill="rgb(0,0,0)" fill-opacity="1" d=" M22.43000030517578,10.039999961853027 C22.48699951171875,9.25 22.534000396728516,8.456000328063965 22.534000396728516,7.64900016784668 C22.534000396728516,-9.244000434875488 10.680000305175781,-22.937999725341797 -3.943000078201294,-22.937999725341797 C-18.565000534057617,-22.937999725341797 -30.417999267578125,-9.244000434875488 -30.417999267578125,7.64900016784668 C-30.417999267578125,10.072999954223633 -30.139999389648438,12.414999961853027 -29.67099952697754,14.670000076293945 C-32.65700149536133,17.46500015258789 -33.82500076293945,20.041000366210938 -33.24300003051758,20.972999572753906 C-32.4739990234375,22.20400047302246 -14.16100025177002,21.29599952697754 -1.9049999713897705,21.29599952697754 C16.53499984741211,21.29599952697754 32.685001373291016,22.93899917602539 33.4109992980957,19.606000900268555 C33.82500076293945,17.709999084472656 30.020999908447266,13.418000221252441 22.43000030517578,10.039999961853027z"></path></g><g opacity="1" transform="matrix(1,0,0,1,153.5989990234375,216.1009979248047)"><path fill="rgb(0,0,0)" fill-opacity="1" d=" M33.31100082397461,20.972000122070312 C33.7869987487793,20.209999084472656 33.0989990234375,18.35099983215332 31.207000732421875,16.172000885009766 C31.886999130249023,13.46500015258789 32.27000045776367,10.611000061035156 32.27000045776367,7.650000095367432 C32.27000045776367,-9.243000030517578 20.41699981689453,-22.937999725341797 5.795000076293945,-22.937999725341797 C-8.82800006866455,-22.937999725341797 -20.68199920654297,-9.243000030517578 -20.68199920654297,7.650000095367432 C-20.68199920654297,8.21399974822998 -20.62700080871582,8.76099967956543 -20.599000930786133,9.317000389099121 C-29.34600067138672,12.779000282287598 -33.78799819946289,17.56999969482422 -33.34400177001953,19.604999542236328 C-32.617000579833984,22.937999725341797 -16.465999603271484,21.297000885009766 1.9739999771118164,21.297000885009766 C14.229999542236328,21.297000885009766 32.54199981689453,22.202999114990234 33.31100082397461,20.972000122070312z"></path></g><g opacity="1" transform="matrix(1,0,0,1,237.50100708007812,251.3820037841797)"><path fill="rgb(0,0,0)" fill-opacity="1" d=" M235.40899658203125,23.701000213623047 C233.5679931640625,-5.28000020980835 201.81100463867188,-35.78499984741211 185.45599365234375,-35.426998138427734 C181.7310028076172,-35.34600067138672 177.96400451660156,-34.41299819946289 174.21800231933594,-32.81999969482422 C174.99899291992188,-38.7130012512207 176.9029998779297,-46.444000244140625 178.89100646972656,-54.5099983215332 C184.26499938964844,-76.3010025024414 191.6219940185547,-106.1449966430664 187.03500366210938,-137.70199584960938 C183.03599548339844,-165.20799255371094 161.60499572753906,-193.4199981689453 128.23599243164062,-215.10499572753906 C92.48600006103516,-238.33599853515625 46.944000244140625,-251.1320037841797 0.0010000000474974513,-251.1320037841797 C-46.94300079345703,-251.1320037841797 -92.48600006103516,-238.33599853515625 -128.23599243164062,-215.10499572753906 C-161.60499572753906,-193.4199981689453 -183.03700256347656,-165.20799255371094 -187.03599548339844,-137.70199584960938 C-191.62399291992188,-106.1449966430664 -184.26499938964844,-76.3010025024414 -178.89199829101562,-54.5099983215332 C-176.9040069580078,-46.448001861572266 -175.0019989013672,-38.72100067138672 -174.22000122070312,-32.82699966430664 C-177.96600341796875,-34.42300033569336 -181.73300170898438,-35.34600067138672 -185.45700073242188,-35.426998138427734 C-201.81199645996094,-35.78499984741211 -233.5679931640625,-5.28000020980835 -235.41000366210938,23.701000213623047 C-237.25100708007812,52.68199920654297 -189.02999877929688,99.70099639892578 -169.80299377441406,99.3010025024414 C-169.77099609375,99.30000305175781 -169.73800659179688,99.29399871826172 -169.7050018310547,99.29299926757812 C-169.1719970703125,113.64299774169922 -167.0679931640625,127.7249984741211 -159.8699951171875,140.1840057373047 C-150.29100036621094,156.76300048828125 -139.94700622558594,164.67300415039062 -128.99600219726562,173.04800415039062 C-122.89700317382812,177.71200561523438 -116.59200286865234,182.53500366210938 -109.65599822998047,189.47300720214844 C-104.71199798583984,194.4149932861328 -99.99600219726562,201.10800170898438 -95.00199890136719,208.19700622558594 C-87.0530014038086,219.47999572753906 -78.83399963378906,231.14700317382812 -67.89099884033203,237.93899536132812 C-49.16400146484375,249.56399536132812 -23.062000274658203,251.1320037841797 0.0010000000474974513,251.1320037841797 C23.062999725341797,251.1320037841797 49.16299819946289,249.56399536132812 67.88800048828125,237.93899536132812 C78.83300018310547,231.14700317382812 87.0530014038086,219.47999572753906 95.00199890136719,208.19700622558594 C99.99500274658203,201.10800170898438 104.71099853515625,194.4149932861328 109.65499877929688,189.47300720214844 C116.59100341796875,182.53500366210938 122.89600372314453,177.71200561523438 128.99400329589844,173.04800415039062 C139.9459991455078,164.67300415039062 150.2899932861328,156.76300048828125 159.8679962158203,140.1840057373047 C167.0659942626953,127.72599792480469 169.1719970703125,113.6449966430664 169.7050018310547,99.29499816894531 C169.73800659179688,99.29499816894531 169.77099609375,99.30000305175781 169.80299377441406,99.3010025024414 C189.0290069580078,99.70099639892578 237.25100708007812,52.68199920654297 235.40899658203125,23.701000213623047z M-127.08999633789062,-185.31500244140625 C-92.78800201416016,-211.06900024414062 -40.189998626708984,-225.70799255371094 0.0010000000474974513,-225.70799255371094 C51.5629997253418,-225.70799255371094 94.39700317382812,-208.95199584960938 123.08300018310547,-187.48399353027344 C153.5290069580078,-162.6179962158203 144.72799682617188,-153.64599609375 137.07000732421875,-154.58799743652344 C133.0070037841797,-155.08799743652344 121.95600128173828,-160.26100158691406 102.7040023803711,-185.08999633789062 C100.83599853515625,-187.5 96.9990005493164,-186.02099609375 97.19499969482422,-182.97799682617188 C97.43399810791016,-179.2779998779297 96.9000015258789,-176.16400146484375 94.51399993896484,-175.86599731445312 C89.21600341796875,-175.20399475097656 76.69300079345703,-182.71499633789062 59.40299987792969,-199.5469970703125 C57.20899963378906,-201.68299865722656 53.62200164794922,-199.7030029296875 54.224998474121094,-196.7010040283203 C55.20000076293945,-191.8459930419922 55.27199935913086,-187.19400024414062 52.2130012512207,-186.58200073242188 C46.7400016784668,-185.48800659179688 39.71099853515625,-188.6439971923828 27.1200008392334,-201.44500732421875 C24.93600082397461,-203.66700744628906 21.218000411987305,-201.5780029296875 21.94099998474121,-198.5469970703125 C23.315000534057617,-192.781005859375 23.940000534057617,-187.12399291992188 21.28700065612793,-186.63299560546875 C16.70800018310547,-185.78700256347656 7.742000102996826,-195.60000610351562 2.6389999389648438,-204.2429962158203 C1.4570000171661377,-206.24400329589844 -1.4570000171661377,-206.24400329589844 -2.6389999389648438,-204.2429962158203 C-7.743000030517578,-195.60000610351562 -16.708999633789062,-185.78700256347656 -21.288000106811523,-186.63299560546875 C-23.94099998474121,-187.12399291992188 -23.315000534057617,-192.781005859375 -21.94099998474121,-198.5469970703125 C-21.218000411987305,-201.5780029296875 -24.937000274658203,-203.66700744628906 -27.121999740600586,-201.44500732421875 C-39.7130012512207,-188.6439971923828 -46.74100112915039,-185.48800659179688 -52.2140007019043,-186.58200073242188 C-55.27399826049805,-187.19400024414062 -55.20000076293945,-191.8459930419922 -54.224998474121094,-196.7010040283203 C-53.62300109863281,-199.70199584960938 -57.21099853515625,-201.6820068359375 -59.40399932861328,-199.5469970703125 C-76.69400024414062,-182.71499633789062 -89.21600341796875,-175.20399475097656 -94.51399993896484,-175.86599731445312 C-96.9000015258789,-176.16400146484375 -97.43499755859375,-179.27699279785156 -97.1969985961914,-182.97799682617188 C-97,-186.02099609375 -100.83699798583984,-187.5 -102.70600128173828,-185.08999633789062 C-121.95700073242188,-160.26100158691406 -132.99400329589844,-154.96099853515625 -137.0709991455078,-154.58799743652344 C-147.35899353027344,-153.64599609375 -146.0330047607422,-170.05299377441406 -127.08999633789062,-185.31500244140625z M132,41.55799865722656 C129.0330047607422,43.834999084472656 126.03199768066406,46.10100173950195 123.08300018310547,48.345001220703125 C118.55899810791016,51.78799819946289 115.7699966430664,57.020999908447266 115.4489974975586,62.696998596191406 C114.68900299072266,76.12999725341797 116.40699768066406,99.13300323486328 116.00599670410156,118.51699829101562 C115.87999725341797,124.59500122070312 124.39900207519531,126.03199768066406 126.31800079345703,120.26200103759766 C129.20599365234375,111.58000183105469 130.72500610351562,102.58000183105469 131.68299865722656,95.00700378417969 C132.0500030517578,92.10700225830078 136.29100036621094,92.34200286865234 136.3679962158203,95.26399993896484 C136.78399658203125,111.0009994506836 141.02099609375,121.13500213623047 129.46600341796875,139.10000610351562 C124.81099700927734,144.23599243164062 119.70600128173828,148.14700317382812 113.55000305175781,152.85299682617188 C107.10800170898438,157.78199768066406 99.80699920654297,163.36599731445312 91.6780014038086,171.4929962158203 C85.18800354003906,177.98399353027344 79.61000061035156,185.89999389648438 74.21700286865234,193.5540008544922 C67.73400115966797,202.75799560546875 61.029998779296875,212.27499389648438 54.48099899291992,216.33999633789062 C40.95399856567383,224.73699951171875 16.90999984741211,225.7100067138672 0.0010000000474974513,225.7100067138672 C-16.909000396728516,225.7100067138672 -40.95500183105469,224.73699951171875 -54.48400115966797,216.33999633789062 C-61.03099822998047,212.27499389648438 -67.73500061035156,202.75999450683594 -74.21900177001953,193.5570068359375 C-79.61199951171875,185.9010009765625 -85.18699645996094,177.98399353027344 -91.6780014038086,171.4929962158203 C-99.80699920654297,163.36599731445312 -107.10800170898438,157.78199768066406 -113.5510025024414,152.85299682617188 C-119.70500183105469,148.14700317382812 -124.80999755859375,144.23800659179688 -129.46499633789062,139.10299682617188 C-141.02099609375,121.13700103759766 -136.78500366210938,111.0009994506836 -136.36900329589844,95.26399993896484 C-136.29200744628906,92.34200286865234 -132.0500030517578,92.10700225830078 -131.68299865722656,95.00700378417969 C-130.72500610351562,102.58000183105469 -129.2050018310547,111.58000183105469 -126.31700134277344,120.26200103759766 C-124.39800262451172,126.03199768066406 -115.87999725341797,124.59500122070312 -116.00599670410156,118.51699829101562 C-116.40799713134766,99.13300323486328 -114.68900299072266,76.12999725341797 -115.4489974975586,62.696998596191406 C-115.77100372314453,57.020999908447266 -118.55899810791016,51.78799819946289 -123.08300018310547,48.345001220703125 C-126.03199768066406,46.10100173950195 -129.03399658203125,43.834999084472656 -132.00100708007812,41.55799865722656 C-145.38900756835938,33.23699951171875 -160.51300048828125,22.29599952697754 -161.9770050048828,8.404999732971191 C-164.15499877929688,-12.258000373840332 -154.906005859375,-27.40999984741211 -148.2239990234375,-50.042999267578125 C-140.2259979248047,-53.42900085449219 -127.06400299072266,-59.229000091552734 -123.58999633789062,-60.02299880981445 C-118.47100067138672,-61.194000244140625 -51.4640007019043,-62.0359992980957 -45.736000061035156,-61.472999572753906 C-40.00699996948242,-60.90999984741211 -23.316999435424805,-48.832000732421875 -21.7189998626709,-52.68000030517578 C-19.48200035095215,-58.06700134277344 -29.74799919128418,-88.64600372314453 -32.69599914550781,-91.15399932861328 C-35.58599853515625,-93.61199951171875 -121.93599700927734,-94.5770034790039 -135.74600219726562,-88.89199829101562 C-135.46299743652344,-90.7490005493164 -135.44700622558594,-92.51699829101562 -135.8249969482422,-94.21900177001953 C-140.68800354003906,-116.0999984741211 -138.59500122070312,-123.20700073242188 -136.4980010986328,-133.89300537109375 C-135.98699951171875,-133.78399658203125 -135.468994140625,-133.6999969482422 -134.94200134277344,-133.64199829101562 C-131.0019989013672,-133.20199584960938 -124.25900268554688,-132.05099487304688 -102.18599700927734,-156.93699645996094 C-100.36299896240234,-155.8939971923828 -98.33499908447266,-155.20799255371094 -96.19999694824219,-154.9409942626953 C-87.98200225830078,-153.91600036621094 -76.95600128173828,-159.0709991455078 -63.257999420166016,-170.3070068359375 C-60.9900016784668,-168.0330047607422 -58.09299850463867,-166.4600067138672 -54.8849983215332,-165.8179931640625 C-47.465999603271484,-164.33299255371094 -40.32099914550781,-166.3979949951172 -32.8849983215332,-171.2449951171875 C-30.579999923706055,-168.4250030517578 -27.367000579833984,-166.49899291992188 -23.761999130249023,-165.83200073242188 C-16.093000411987305,-164.41099548339844 -8.3149995803833,-168.23399353027344 0.0010000000474974513,-177.50799560546875 C8.315999984741211,-168.23199462890625 16.093000411987305,-164.4199981689453 23.763999938964844,-165.83200073242188 C27.368000030517578,-166.49899291992188 30.579999923706055,-168.4250030517578 32.8849983215332,-171.2449951171875 C40.32099914550781,-166.3979949951172 47.46699905395508,-164.33200073242188 54.8849983215332,-165.8179931640625 C58.09299850463867,-166.4600067138672 60.9900016784668,-168.0330047607422 63.257999420166016,-170.3070068359375 C76.95500183105469,-159.07200622558594 87.97200012207031,-153.9029998779297 96.20500183105469,-154.9409942626953 C98.33699798583984,-155.20799255371094 100.36299896240234,-155.8939971923828 102.18599700927734,-156.93499755859375 C124.25800323486328,-132.0540008544922 131.00799560546875,-133.1999969482422 134.9459991455078,-133.64199829101562 C135.4709930419922,-133.6999969482422 135.98800659179688,-133.78399658203125 136.4969940185547,-133.89300537109375 C138.593994140625,-123.20700073242188 140.68699645996094,-116.0999984741211 135.82400512695312,-94.21900177001953 C135.4459991455078,-92.51699829101562 135.46299743652344,-90.7490005493164 135.7449951171875,-88.89199829101562 C121.93399810791016,-94.5770034790039 35.584999084472656,-93.61199951171875 32.69499969482422,-91.15399932861328 C29.746999740600586,-88.64600372314453 19.48200035095215,-58.06700134277344 21.718000411987305,-52.68000030517578 C23.316999435424805,-48.832000732421875 40.00600051879883,-60.90999984741211 45.73500061035156,-61.472999572753906 C51.4630012512207,-62.0359992980957 118.47100067138672,-61.194000244140625 123.58999633789062,-60.02299880981445 C127.06400299072266,-59.229000091552734 140.2259979248047,-53.42900085449219 148.2239990234375,-50.042999267578125 C154.906005859375,-27.410999298095703 164.15499877929688,-12.258000373840332 161.9770050048828,8.404999732971191 C160.51300048828125,22.29599952697754 145.38800048828125,33.23699951171875 132,41.55799865722656z"></path></g><g opacity="1" transform="matrix(1,0,0,1,237.5489959716797,367.1679992675781)"><path fill="rgb(0,0,0)" fill-opacity="1" d=" M39.60200119018555,-89.63600158691406 C25.375,-88.26399993896484 14.348999977111816,-72.54499816894531 -0.04899999871850014,-72.54499816894531 C-14.446999549865723,-72.54499816894531 -25.472999572753906,-88.26399993896484 -39.70000076293945,-89.63600158691406 C-53.926998138427734,-91.00900268554688 -99.0479965209961,-49.95000076293945 -101.61100006103516,-14.336000442504883 C-103.29900360107422,9.121999740600586 -92.0510025024414,41.92100143432617 -62.058998107910156,61.5099983215332 C-61.69499969482422,62.047000885009766 -60.992000579833984,62.74599838256836 -59.85599899291992,63.66400146484375 C-46.691001892089844,74.3030014038086 -37.257999420166016,90.66799926757812 -32.7869987487793,90.83899688720703 C-28.31599998474121,91.00900268554688 -15.394000053405762,88.2750015258789 -0.9070000052452087,88.2750015258789 C13.579000473022461,88.2750015258789 26.50200080871582,91.00900268554688 30.972999572753906,90.83899688720703 C35.444000244140625,90.66799926757812 40.770999908447266,78.74700164794922 53.9370002746582,68.10800170898438 C55.95399856567383,66.47799682617188 56.77199935913086,65.39600372314453 56.62099838256836,64.72200012207031 C90.61299896240234,45.6879997253418 103.29900360107422,10.461000442504883 101.51399993896484,-14.336000442504883 C98.94999694824219,-49.95000076293945 53.83000183105469,-91.00900268554688 39.60200119018555,-89.63600158691406z M-36.154998779296875,-57.53200149536133 C-36.154998779296875,-57.53200149536133 -32.2599983215332,-57.60300064086914 -32.2599983215332,-57.60300064086914 C-12.75,-51.512001037597656 0.8939999938011169,-47.93600082397461 22.320999145507812,-54.680999755859375 C25.586000442504883,-55.5620002746582 28.753999710083008,-56.6510009765625 31.922000885009766,-57.617000579833984 C31.922000885009766,-57.617000579833984 36.65299987792969,-57.53200149536133 36.65299987792969,-57.53200149536133 C45.582000732421875,-56.85200119018555 61.32400131225586,-33.62799835205078 53.112998962402344,-27.388999938964844 C44.902000427246094,-21.150999069213867 27.423999786376953,-16.27899932861328 -0.04899999871850014,-16.27899932861328 C-27.52199935913086,-16.27899932861328 -45,-21.150999069213867 -53.21099853515625,-27.388999938964844 C-61.42100143432617,-33.62799835205078 -45.08399963378906,-56.85200119018555 -36.154998779296875,-57.53200149536133z M71.05599975585938,8.805999755859375 C61.606998443603516,26.07699966430664 46.95800018310547,40.93299865722656 28.59000015258789,48.18299865722656 C1.2339999675750732,58.97600173950195 -31.992000579833984,53.207000732421875 -53.137001037597656,32.37799835205078 C-63.83100128173828,22.233999252319336 -72.22000122070312,9.14900016784668 -77.31700134277344,-4.738999843597412 C-77.56999969482422,-5.454999923706055 -77.81900024414062,-6.190999984741211 -78.06400299072266,-6.934999942779541 C-76.92400360107422,-10.77299976348877 -73.66899871826172,-13.869999885559082 -69.3550033569336,-14.267000198364258 C-64.2770004272461,-14.734999656677246 -59.77299880981445,-12.741000175476074 -61.67499923706055,-10.333999633789062 C-62.047000885009766,16.27899932861328 -39.32400131225586,36.15399932861328 -0.04899999871850014,36.15399932861328 C39.22600173950195,36.15399932861328 64.08399963378906,9.61400032043457 61.57699966430664,-10.333999633789062 C59.770999908447266,-12.619000434875488 63.73899841308594,-14.531000137329102 68.48899841308594,-14.319999694824219 C73.14199829101562,-14.112000465393066 76.76799774169922,-10.885000228881836 77.97100067138672,-6.814000129699707 C76.2030029296875,-1.3969999551773071 73.6500015258789,3.864000082015991 71.05599975585938,8.805999755859375z"></path></g><g opacity="1" transform="matrix(1,0,0,1,237.23399353027344,237.69200134277344)"><path fill="rgb(0,0,0)" fill-opacity="1" d=" M-18.433000564575195,6.960999965667725 C-7.315000057220459,2.6519999504089355 5.761000156402588,3.127000093460083 17.025999069213867,7.005000114440918 C21.226999282836914,8.508000373840332 24.47800064086914,2.927000045776367 21.018999099731445,0.019999999552965164 C16.481000900268555,-4.2170000076293945 10.6850004196167,-6.443999767303467 4.689000129699707,-7.376999855041504 C-4.317999839782715,-8.508000373840332 -14.152999877929688,-7.078999996185303 -21.368999481201172,-1.1139999628067017 C-21.368999481201172,-1.1139999628067017 -22.66900062561035,0.0020000000949949026 -22.66900062561035,0.0020000000949949026 C-23.9689998626709,1.1230000257492065 -24.47800064086914,2.986999988555908 -23.80299949645996,4.668000221252441 C-22.952999114990234,6.783999919891357 -20.548999786376953,7.809999942779541 -18.433000564575195,6.960999965667725z"></path></g><g opacity="1" transform="matrix(1,0,0,1,237.54200744628906,267.1059875488281)"><path fill="rgb(0,0,0)" fill-opacity="1" d=" M-0.04100000113248825,18.28700065612793 C15.340999603271484,18.28700065612793 38.28499984741211,8.838000297546387 43.819000244140625,-0.8970000147819519 C45.35200119018555,-3.5950000286102295 46.659000396728516,-13.892999649047852 39.268001556396484,-17.604000091552734 C35.849998474121094,-18.28700065612793 38.584999084472656,-9.741999626159668 34.483001708984375,-7.006999969482422 C31.257999420166016,-4.85699987411499 18.013999938964844,-1.534999966621399 -0.04100000113248825,-1.534999966621399 C-18.09600067138672,-1.534999966621399 -31.34000015258789,-4.85699987411499 -34.564998626708984,-7.006999969482422 C-38.66699981689453,-9.741999626159668 -35.93199920654297,-18.28700065612793 -39.349998474121094,-17.604000091552734 C-46.65800094604492,-13.722000122070312 -44.981998443603516,-3.805999994277954 -43.9010009765625,-0.8970000147819519 C-39.69300079345703,10.425999641418457 -15.42300033569336,18.28700065612793 -0.04100000113248825,18.28700065612793z"></path></g></g></g></svg>