<svg xmlns="http://www.w3.org/2000/svg" xmlns:xlink="http://www.w3.org/1999/xlink" viewBox="0 0 512 512" width="512" height="512" style="width: 100%; height: 100%; transform: translate3d(0,0,0);" preserveAspectRatio="xMidYMid meet"><defs><clipPath id="__lottie_element_53714"><rect width="512" height="512" x="0" y="0"></rect></clipPath></defs><g clip-path="url(#__lottie_element_53714)"><g style="display: block;" transform="matrix(1,0,0,1,254.98899841308594,256.40301513671875)" opacity="1"><g opacity="1" transform="matrix(1,0,0,1,0,0)"><path fill="rgb(0,0,0)" fill-opacity="1" d=" M105.74,50.26 C108.76,26.98 -13.42,6.6 -41.4,-0.09 C-66.38,-6.55 -67.93,21.62 -74.3,38.75 C-81.91,62.55 -87.66,86.85 -93.7,111.07 C-96.24,121.26 -95.1,123.28 -86.29,126.5 C-37.36,141.26 11.7,155.64 60.35,171.34 C75.21,178.14 78.43,161.28 82,150.52 C89.61,122.2 100.56,78.16 105.74,50.26z M249.64500427246094,137.1529998779297 C258.6610107421875,211.04100036621094 175.69200134277344,244.26699829101562 113.72200012207031,226.41099548339844 C22.523000717163086,202.13499450683594 -67.5270004272461,173.98800659179688 -157.322998046875,144.9409942626953 C-235.83900451660156,125.77799987792969 -286.1109924316406,35.65299987792969 -219.0780029296875,-24.60099983215332 C-137.06199645996094,-98.3219985961914 -10.668999671936035,-194.21299743652344 58.814998626708984,-221.21099853515625 C116.72000122070312,-243.7100067138672 169.72900390625,-231.0659942626953 191.80599975585938,-151.50999450683594 C209.81300354003906,-86.61900329589844 233.61199951171875,5.76200008392334 249.64500427246094,137.1529998779297z"></path><g opacity="1" transform="matrix(1,0,0,1,5.454999923706055,85.93599700927734)"></g><g opacity="1" transform="matrix(1,0,0,1,0,0)"></g></g></g></g></svg>