<svg xmlns="http://www.w3.org/2000/svg" xmlns:xlink="http://www.w3.org/1999/xlink" viewBox="0 0 512 512" width="512" height="512" style="width: 100%; height: 100%; transform: translate3d(0,0,0);" preserveAspectRatio="xMidYMid meet"><defs><clipPath id="__lottie_element_53449"><rect width="512" height="512" x="0" y="0"></rect></clipPath></defs><g clip-path="url(#__lottie_element_53449)"><g style="display: block;" transform="matrix(1,0,0,1,255.89300537109375,260.32501220703125)" opacity="1"><g opacity="1" transform="matrix(1,0,0,1,0,0)"><path fill="rgb(0,0,0)" fill-opacity="1" d=" M37.93,11.65 C30.62,-18.09 -45.79,-42.28 -73.36,-56.62 C-90.78,-63.45 -96.42,-61.18 -105.2,-45.37 C-109.77,-31.29 -153.48,29.4 -135.92,35.57 C-94.4,56.38 -53.06,77.54 -11.61,98.5 C-3.07,102.82 -2.58,102.83 1.41,94.8 C13.65,67.37 31.85,41.21 37.93,11.65z M177.56700134277344,108.64199829101562 C206.29200744628906,7.025000095367432 189.80999755859375,-104.89399719238281 140.80999755859375,-197.3000030517578 C243.95799255371094,-200.43499755859375 250.33299255371094,-15.385000228881836 247.7570037841797,67.4800033569336 C239.1929931640625,342.9670104980469 30.802000045776367,170.77099609375 -104.21900177001953,106.04900360107422 C-156.75100708007812,73.06500244140625 -231.73399353027344,54.6510009765625 -246.36300659179688,-14.083000183105469 C-269.052001953125,-99.2249984741211 -72.1449966430664,-176.28700256347656 -8.527000427246094,-203.83900451660156 C39.09400177001953,-221.61199951171875 114.31199645996094,-235.45700073242188 133.0050048828125,-172.76400756835938 C167.38900756835938,-84.36100006103516 177.16200256347656,13.836000442504883 171.33099365234375,107.5719985961914 C171.0959930419922,111.34600067138672 176.53799438476562,112.28099822998047 177.56700134277344,108.64199829101562z"></path><g opacity="1" transform="matrix(1,0,0,1,-51.0620002746582,20.56399917602539)"></g><g opacity="1" transform="matrix(1,0,0,1,0,0)"></g></g></g></g></svg>