<svg xmlns="http://www.w3.org/2000/svg" xmlns:xlink="http://www.w3.org/1999/xlink" viewBox="0 0 512 512" width="512" height="512" style="width: 100%; height: 100%; transform: translate3d(0,0,0);" preserveAspectRatio="xMidYMid meet"><defs><clipPath id="__lottie_element_15796"><rect width="512" height="512" x="0" y="0"></rect></clipPath></defs><g clip-path="url(#__lottie_element_15796)"><g style="display: block;" transform="matrix(1,0,0,1,8.12298583984375,26.774993896484375)" opacity="1"><g opacity="1" transform="matrix(1,0,0,1,252.06399536132812,225.9530029296875)"><path fill="rgb(0,0,0)" fill-opacity="1" d=" M-113.31500244140625,-121.44599914550781 C-66.31800079345703,-111.44599914550781 -37.1870002746582,-45.72800064086914 -51.319000244140625,-42.95000076293945 C-63.67900085449219,-40.520999908447266 -96.18699645996094,-103.72799682617188 -123.31500244140625,-98.9469985961914 C-151.7989959716797,-93.9280014038086 -251.81399536132812,-17.72800064086914 -250.3090057373047,42.54499816894531 C-248.83599853515625,101.54199981689453 -178.6020050048828,157.01699829101562 -133.81500244140625,152.0399932861328 C-109.78500366210938,149.3699951171875 -100.18699645996094,130.27200317382812 -89.81700134277344,135.04100036621094 C-82.10199737548828,138.58900451660156 -105.18699645996094,176.27200317382812 -125.31500244140625,179.53900146484375 C-140.4550018310547,181.99600219726562 -147.18699645996094,173.27200317382812 -155.81399536132812,176.53900146484375 C-173.6269989013672,183.28500366210938 -150.8679962158203,223.56300354003906 -122.81500244140625,224.53700256347656 C-89.18699645996094,225.7030029296875 -39.750999450683594,181.2550048828125 -30.31999969482422,167.03900146484375 C-21.187000274658203,153.27200317382812 -50.1870002746582,94.27200317382812 -24.31999969482422,44.04600143432617 C-22.239999771118164,40.007999420166016 -37.1870002746582,37.27199935913086 -38.88100051879883,21.761999130249023 C-40.58100128173828,6.216000080108643 -40.5629997253418,-12.640000343322754 -6.321000099182129,-17.951000213623047 C18.746000289916992,-21.84000015258789 26.099000930786133,-9.225000381469727 30.538000106811523,2.996999979019165 C36.8129997253418,20.27199935913086 26.54400062561035,31.93000030517578 30.67799949645996,35.54600143432617 C73.81300354003906,73.27200317382812 55.8129997253418,128.27200317382812 74.17500305175781,148.04100036621094 C80.89099884033203,155.27000427246094 137.1269989013672,180.41299438476562 172.6699981689453,176.53900146484375 C211.81300354003906,172.27200317382812 213.7449951171875,116.05500030517578 208.16799926757812,112.04199981689453 C204.02200317382812,109.05899810791016 192.00100708007812,126.42900085449219 172.1699981689453,125.54199981689453 C153.22500610351562,124.69300079345703 129.23800659179688,107.58699798583984 139.1719970703125,99.54299926757812 C146.35299682617188,93.72599792480469 153.23800659179688,107.58699798583984 176.1699981689453,101.54299926757812 C214.6060028076172,91.41200256347656 252.23800659179688,6.586999893188477 238.66700744628906,-45.95000076293945 C225.9459991455078,-95.19300079345703 104.44100189208984,-140.85899353027344 86.67500305175781,-140.4459991455078 C40.303001403808594,-139.36500549316406 32.237998962402344,-52.41299819946289 19.17799949645996,-54.94900131225586 C9.135000228881836,-56.900001525878906 17.349000930786133,-124.00399780273438 55.67599868774414,-155.94400024414062 C68.23799896240234,-166.41299438476562 21.774999618530273,-225.7030029296875 -39.319000244140625,-216.94200134277344 C-105.76200103759766,-207.41299438476562 -136.81399536132812,-126.44599914550781 -113.31500244140625,-121.44599914550781z"></path></g><g opacity="1" transform="matrix(1,0,0,1,268.8800048828125,340.364013671875)"><path fill="rgb(0,0,0)" fill-opacity="1" d=" M-13.001999855041504,-60.138999938964844 C1.2120000123977661,-62.86199951171875 19.145000457763672,-35.14799880981445 23.996999740600586,-8.138999938964844 C29.045000076293945,19.96299934387207 33.33300018310547,53.49300003051758 7.997000217437744,57.861000061035156 C-21.003000259399414,62.861000061035156 -27.952999114990234,27.229000091552734 -31.00200080871582,-3.1389999389648438 C-33.33300018310547,-26.351999282836914 -26.62700080871582,-57.529998779296875 -13.001999855041504,-60.138999938964844z"></path></g></g></g></svg>