<svg xmlns="http://www.w3.org/2000/svg" xmlns:xlink="http://www.w3.org/1999/xlink" viewBox="0 0 512 512" width="512" height="512" style="width: 100%; height: 100%; transform: translate3d(0,0,0);" preserveAspectRatio="xMidYMid meet"><defs><clipPath id="__lottie_element_53734"><rect width="512" height="512" x="0" y="0"></rect></clipPath></defs><g clip-path="url(#__lottie_element_53734)"><g style="display: block;" transform="matrix(1,0,0,1,256.0090026855469,267.8689880371094)" opacity="1"><g opacity="1" transform="matrix(1,0,0,1,60.70600128173828,-52.09700012207031)"><path fill="rgb(0,0,0)" fill-opacity="1" d=" M-16.582000732421875,174.72900390625 C-20.72800064086914,173.70599365234375 -174.75999450683594,124.98200225830078 -186.29800415039062,117.01499938964844 C-194.81399536132812,111.79499816894531 -191.54200744628906,99.68399810791016 -188.91600036621094,95.44599914550781 C-184.4010009765625,88.16000366210938 -88.92500305175781,-86.57599639892578 -77.8949966430664,-107.62999725341797 C-74.50499725341797,-114.0999984741211 -69.78900146484375,-117.22599792480469 -62.69499969482422,-118.77799987792969 C2.3949999809265137,-133.0189971923828 183.27699279785156,-174.06300354003906 184.80799865722656,-174.34500122070312 C187.11399841308594,-174.77000427246094 189.71800231933594,-175.3470001220703 191.17999267578125,-172.98300170898438 C192.5500030517578,-170.76699829101562 191.3419952392578,-168.46099853515625 190.17599487304688,-166.3979949951172 C188.64199829101562,-163.6840057373047 99.50599670410156,-17.177000045776367 50.266998291015625,49.32099914550781 C43.32500076293945,58.696998596191406 35.85900115966797,67.87300109863281 36.902000427246094,80.78099822998047 C37.31999969482422,85.33200073242188 8.994000434875488,139.86099243164062 -3.7209999561309814,166.177001953125 C-6.38700008392334,171.69500732421875 -10.16100025177002,174.84800720214844 -16.582000732421875,174.72900390625z"></path></g><g opacity="1" transform="matrix(1,0,0,1,121.8030014038086,134.79400634765625)"><path fill="rgb(0,0,0)" fill-opacity="1" d=" M61.09400177001953,81.65599822998047 C61.242000579833984,90.36699676513672 56.297000885009766,94.04299926757812 48.722999572753906,90.95600128173828 C40.06700134277344,87.42900085449219 -27.393999099731445,51.43600082397461 -51.33100128173828,35.236000061035156 C-62.9119987487793,27.398000717163086 -63.24800109863281,26.01300048828125 -57.2599983215332,13.369000434875488 C-42.23699951171875,-18.35300064086914 -11.211999893188477,-83.93800354003906 -10.593000411987305,-84.9219970703125 C-8.843999862670898,-87.70099639892578 -8.569999694824219,-92.56500244140625 -4.150000095367432,-91.98699951171875 C-0.7049999833106995,-91.53600311279297 -0.531000018119812,-87.32099914550781 0.4169999957084656,-84.46299743652344 C13.442999839782715,-45.20500183105469 54.11000061035156,59.45600128173828 58.91899871826172,73.47200012207031 C59.92599868774414,76.40899658203125 60.5260009765625,79.48500061035156 61.09400177001953,81.65599822998047z"></path></g><g opacity="1" transform="matrix(1,0,0,1,-175.28599548339844,-17.947999954223633)"><path fill="rgb(0,0,0)" fill-opacity="1" d=" M77.16699981689453,-52.222999572753906 C75.49800109863281,-49.35100173950195 73.45500183105469,-45.60100173950195 71.19599914550781,-41.98699951171875 C53.62699890136719,-13.881999969482422 14.59000015258789,49.082000732421875 12.529000282287598,52.38999938964844 C7.855000019073486,59.89099884033203 5.659999847412109,59.97200012207031 1.4769999980926514,52.47600173950195 C-3.6519999504089355,43.28499984741211 -8.779000282287598,34.07099914550781 -13.35099983215332,24.597999572753906 C-16.434999465942383,18.20800018310547 -20.69499969482422,15.17199993133545 -27.930999755859375,15.427000045776367 C-37.2760009765625,15.756999969482422 -63.064998626708984,15.369999885559082 -66.51599884033203,14.871999740600586 C-77.56999969482422,13.276000022888184 -80.53299713134766,6.357999801635742 -73.14099884033203,-2.2269999980926514 C-65.02899932861328,-11.642999649047852 -47.2869987487793,-28.94499969482422 -38.21699905395508,-38.31999969482422 C-20.808000564575195,-56.31399917602539 -9.206000328063965,-56.731998443603516 8.88700008392334,-57.29800033569336 C24.073999404907227,-57.77299880981445 66.85099792480469,-58.448001861572266 73.04499816894531,-57.770999908447266 C75.54499816894531,-57.49800109863281 77.52300262451172,-56.332000732421875 77.16699981689453,-52.222999572753906z"></path></g></g></g></svg>