<svg xmlns="http://www.w3.org/2000/svg" xmlns:xlink="http://www.w3.org/1999/xlink" viewBox="0 0 512 512" width="512" height="512" style="width: 100%; height: 100%; transform: translate3d(0,0,0);" preserveAspectRatio="xMidYMid meet"><defs><clipPath id="__lottie_element_14417"><rect width="512" height="512" x="0" y="0"></rect></clipPath></defs><g clip-path="url(#__lottie_element_14417)"><g style="display: block;" transform="matrix(1,0,0,1,256,256)" opacity="1"><g opacity="1" transform="matrix(1,0,0,1,0,0)"></g><g opacity="1" transform="matrix(1,0,0,1,0,0)"><path fill="rgb(0,0,0)" fill-opacity="1" d=" M121.24700164794922,160.73800659179688 C115.3499984741211,153.13800048828125 113.16699981689453,150.72300720214844 106.51499938964844,150.51300048828125 C101.16799926757812,150.343994140625 99.29199981689453,152.072998046875 92.87000274658203,160.2030029296875 C85.88800048828125,169.04100036621094 75.33599853515625,182.3990020751953 53.518001556396484,182.9029998779297 C53.28499984741211,182.90899658203125 53.05099868774414,182.90899658203125 52.81800079345703,182.9029998779297 C30.993000030517578,182.3990020751953 20.440000534057617,169.07400512695312 13.456000328063965,160.25799560546875 C7.388999938964844,152.59800720214844 5.267000198364258,150.5590057373047 0.4090000092983246,150.50999450683594 C0.22200000286102295,150.51699829101562 0.032999999821186066,150.52099609375 -0.15600000321865082,150.52099609375 C-0.15600000321865082,150.52099609375 -0.6589999794960022,150.52099609375 -0.6589999794960022,150.52099609375 C-0.8460000157356262,150.52099609375 -1.031000018119812,150.51699829101562 -1.215999960899353,150.50999450683594 C-6.014999866485596,150.56199645996094 -8.12600040435791,152.60899353027344 -14.178999900817871,160.30299377441406 C-21.201000213623047,169.22900390625 -31.812999725341797,182.72000122070312 -53.85499954223633,182.906005859375 C-53.992000579833984,182.9080047607422 -54.12900161743164,182.9080047607422 -54.26599884033203,182.9080047607422 C-74.6449966430664,182.9080047607422 -84.76899719238281,170.0709991455078 -91.48300170898438,161.5570068359375 C-97.9280014038086,153.38499450683594 -100.57599639892578,150.72500610351562 -107.28399658203125,150.51300048828125 C-112.63200378417969,150.343994140625 -114.50700378417969,152.072998046875 -120.92900085449219,160.20199584960938 C-126.25199890136719,166.9409942626953 -133.65699768066406,176.30099487304688 -146.54100036621094,180.593994140625 C-111.70700073242188,224.75999450683594 -57.43600082397461,252.90199279785156 2.9170000553131104,251.97799682617188 C61.22600173950195,251.0850067138672 113.03800201416016,223.43499755859375 146.63999938964844,180.77099609375 C133.593994140625,176.63600158691406 126.4020004272461,167.38099670410156 121.24700164794922,160.73800659179688z"></path></g><g opacity="1" transform="matrix(1,0,0,1,0,0)"><path fill="rgb(0,0,0)" fill-opacity="1" d=" M-165.25999450683594,151.80599975585938 C-163.90499877929688,152.26800537109375 -162.4029998779297,152.52000427246094 -160.6320037841797,152.58599853515625 C-153.61300659179688,152.32400512695312 -150.80299377441406,149.11599731445312 -144.7169952392578,141.41200256347656 C-137.83900451660156,132.70399475097656 -127.44200134277344,119.54900360107422 -106.32499694824219,120.21299743652344 C-84.9469985961914,120.89099884033203 -74.55599975585938,134.0659942626953 -67.68000030517578,142.78500366210938 C-61.45199966430664,150.6820068359375 -59.417999267578125,152.59300231933594 -54.290000915527344,152.59300231933594 C-54.22999954223633,152.59300231933594 -54.17100143432617,152.59300231933594 -54.111000061035156,152.59300231933594 C-47.2140007019043,152.53399658203125 -44.5260009765625,149.85000610351562 -38.005001068115234,141.55999755859375 C-31.285999298095703,133.02000427246094 -21.19700050354004,120.19499969482422 -0.9860000014305115,120.19499969482422 C-0.7929999828338623,120.19499969482422 -0.6019999980926514,120.1969985961914 -0.40799999237060547,120.1989974975586 C20.174999237060547,119.98400115966797 30.429000854492188,132.86199951171875 37.220001220703125,141.43600463867188 C43.30799865722656,149.1230010986328 46.12099838256836,152.32400512695312 53.167999267578125,152.58599853515625 C60.18600082397461,152.32400512695312 62.994998931884766,149.11599731445312 69.08200073242188,141.41200256347656 C75.95899963378906,132.70399475097656 86.34300231933594,119.5469970703125 107.4749984741211,120.21299743652344 C128.69400024414062,120.88600158691406 138.625,133.6840057373047 145.19700622558594,142.1529998779297 C151.11900329589844,149.78399658203125 153.52999877929688,152.43099975585938 160.66900634765625,152.5959930419922 C162.05299377441406,152.6280059814453 163.38299560546875,152.86099243164062 164.6490020751953,153.23800659179688 C176.14300537109375,131.72799682617188 183.53599548339844,107.70099639892578 185.8070068359375,82.1989974975586 C185.8070068359375,82.1989974975586 -185.8000030517578,82.1989974975586 -185.8000030517578,82.1989974975586 C-183.56199645996094,107.12999725341797 -176.38600158691406,130.65899658203125 -165.25999450683594,151.80599975585938z"></path></g><g opacity="1" transform="matrix(1,0,0,1,0,0)"><path fill="rgb(0,0,0)" fill-opacity="1" d=" M146.24899291992188,-10.611000061035156 C139.26600646972656,-1.7719999551773071 128.71499633789062,11.585000038146973 106.89700317382812,12.08899974822998 C106.66400146484375,12.095000267028809 106.43000030517578,12.095000267028809 106.1969985961914,12.08899974822998 C84.37300109863281,11.585000038146973 73.81999969482422,-1.7389999628067017 66.83599853515625,-10.555000305175781 C60.768001556396484,-18.215999603271484 58.645999908447266,-20.2549991607666 53.7869987487793,-20.30299949645996 C53.599998474121094,-20.29599952697754 53.4119987487793,-20.29199981689453 53.222999572753906,-20.29199981689453 C53.222999572753906,-20.29199981689453 52.720001220703125,-20.29199981689453 52.720001220703125,-20.29199981689453 C52.53300094604492,-20.29199981689453 52.3489990234375,-20.29599952697754 52.16400146484375,-20.30299949645996 C47.36399841308594,-20.25200080871582 45.25400161743164,-18.204999923706055 39.20100021362305,-10.51099967956543 C32.17900085449219,-1.5839999914169312 21.566999435424805,11.906000137329102 -0.4749999940395355,12.092000007629395 C-0.6129999756813049,12.093999862670898 -0.75,12.093999862670898 -0.8870000243186951,12.093999862670898 C-21.264999389648438,12.093999862670898 -31.38800048828125,-0.7429999709129333 -38.10300064086914,-9.256999969482422 C-44.54800033569336,-17.429000854492188 -47.19599914550781,-20.08799934387207 -53.90399932861328,-20.299999237060547 C-59.24700164794922,-20.468000411987305 -61.12799835205078,-18.740999221801758 -67.55000305175781,-10.611000061035156 C-74.53199768066406,-1.7719999551773071 -85.08300018310547,11.585000038146973 -106.9010009765625,12.08899974822998 C-107.13500213623047,12.095000267028809 -107.36799621582031,12.095000267028809 -107.60199737548828,12.08899974822998 C-129.42599487304688,11.585000038146973 -139.97999572753906,-1.7389999628067017 -146.96299743652344,-10.555000305175781 C-153.031005859375,-18.215999603271484 -155.1529998779297,-20.2549991607666 -160.01199340820312,-20.30299949645996 C-160.19900512695312,-20.29599952697754 -160.38699340820312,-20.29199981689453 -160.5760040283203,-20.29199981689453 C-160.5760040283203,-20.29199981689453 -161.07899475097656,-20.29199981689453 -161.07899475097656,-20.29199981689453 C-161.26800537109375,-20.29199981689453 -161.45599365234375,-20.29599952697754 -161.64300537109375,-20.30299949645996 C-163.447998046875,-20.28499984741211 -164.87399291992188,-19.990999221801758 -166.26600646972656,-19.238000869750977 C-177.29600524902344,2.375 -184.24200439453125,26.420000076293945 -186.0709991455078,51.88399887084961 C-186.0709991455078,51.88399887084961 186.0709991455078,51.88399887084961 186.0709991455078,51.88399887084961 C184.25999450683594,26.673999786376953 177.4409942626953,2.8540000915527344 166.6009979248047,-18.59000015258789 C164.7550048828125,-19.71299934387207 162.73199462890625,-20.209999084472656 159.8939971923828,-20.299999237060547 C154.56399536132812,-20.461999893188477 152.67100524902344,-18.739999771118164 146.24899291992188,-10.611000061035156z"></path></g><g opacity="1" transform="matrix(1,0,0,1,0,0)"><path fill="rgb(0,0,0)" fill-opacity="1" d=" M-123.1989974975586,-29.378000259399414 C-117.11000061035156,-21.69099998474121 -114.29900360107422,-18.489999771118164 -107.25199890136719,-18.22800064086914 C-100.23300170898438,-18.489999771118164 -97.42400360107422,-21.69700050354004 -91.33799743652344,-29.402000427246094 C-84.45999908447266,-38.10900115966797 -74.0260009765625,-51.249000549316406 -52.94499969482422,-50.599998474121094 C-31.566999435424805,-49.92399978637695 -21.176000595092773,-36.74800109863281 -14.300000190734863,-28.02899932861328 C-8,-20.040000915527344 -6.02400016784668,-18.173999786376953 -0.7310000061988831,-18.22100067138672 C6.165999889373779,-18.27899932861328 8.852999687194824,-20.964000701904297 15.37399959564209,-29.253999710083008 C22.155000686645508,-37.875999450683594 32.38399887084961,-50.834999084472656 52.97100067138672,-50.61399841308594 C73.55400085449219,-50.86199951171875 83.80899810791016,-37.95199966430664 90.5999984741211,-29.37700080871582 C96.68800354003906,-21.690000534057617 99.5,-18.489999771118164 106.5469970703125,-18.22800064086914 C113.56600189208984,-18.489999771118164 116.375,-21.69700050354004 122.46099853515625,-29.402000427246094 C127.68499755859375,-36.016998291015625 134.94000244140625,-45.194000244140625 147.38600158691406,-48.93299865722656 C126.58599853515625,-75.69100189208984 98.66500091552734,-96.63899993896484 66.46099853515625,-108.9209976196289 C66.46099853515625,-108.9209976196289 66.46099853515625,-143.00599670410156 66.46099853515625,-143.00599670410156 C66.46099853515625,-152.14500427246094 59.051998138427734,-159.55299377441406 49.91299819946289,-159.55299377441406 C49.91299819946289,-159.55299377441406 43.03499984741211,-159.55299377441406 43.03499984741211,-159.55299377441406 C54.72700119018555,-177.50900268554688 56.87099838256836,-197.552001953125 52.41299819946289,-213.40699768066406 C45.75899887084961,-237.07000732421875 25.784000396728516,-251.85699462890625 0.28299999237060547,-251.99899291992188 C-25.266000747680664,-252.16099548339844 -46.20000076293945,-236.4409942626953 -52.965999603271484,-212.00100708007812 C-56.72600173950195,-198.4199981689453 -55.516998291015625,-183.468994140625 -49.5629997253418,-169.90199279785156 C-47.99300003051758,-166.32400512695312 -46.106998443603516,-162.8679962158203 -43.92900085449219,-159.55299377441406 C-43.92900085449219,-159.55299377441406 -48.30500030517578,-159.55299377441406 -48.30500030517578,-159.55299377441406 C-57.444000244140625,-159.55299377441406 -64.85199737548828,-152.14500427246094 -64.85199737548828,-143.00599670410156 C-64.85199737548828,-143.00599670410156 -64.85199737548828,-109.52999877929688 -64.85199737548828,-109.52999877929688 C-97.82599639892578,-97.3030014038086 -126.39800262451172,-76.01699829101562 -147.55999755859375,-48.70199966430664 C-135.4459991455078,-44.82899856567383 -128.34300231933594,-35.87300109863281 -123.1989974975586,-29.378000259399414z M-23.75,-203.91200256347656 C-20.666000366210938,-215.05099487304688 -11.817999839782715,-221.6840057373047 -0.05900000035762787,-221.6840057373047 C-0.0020000000949949026,-221.6840057373047 0.057999998331069946,-221.68499755859375 0.11599999666213989,-221.6840057373047 C16.2189998626709,-221.59500122070312 21.509000778198242,-211.3179931640625 23.229000091552734,-205.2010040283203 C26.966999053955078,-191.91099548339844 21.444000244140625,-172.27499389648438 -0.4300000071525574,-159.55299377441406 C-22.683000564575195,-172.54200744628906 -27.10099983215332,-191.80499267578125 -23.75,-203.91200256347656z"></path></g></g></g></svg>