<svg xmlns="http://www.w3.org/2000/svg" xmlns:xlink="http://www.w3.org/1999/xlink" viewBox="0 0 512 512" width="512" height="512" style="width: 100%; height: 100%; transform: translate3d(0,0,0);" preserveAspectRatio="xMidYMid meet"><defs><clipPath id="__lottie_element_53050"><rect width="512" height="512" x="0" y="0"></rect></clipPath></defs><g clip-path="url(#__lottie_element_53050)"><g style="display: block;" transform="matrix(1,0,0,1,249.5019989013672,256)" opacity="1"><g opacity="1" transform="matrix(1,0,0,1,0,0)"><path fill="rgb(4,5,52)" fill-opacity="1" d=" M68.39800262451172,-140.08999633789062 C63.316001892089844,-142.91400146484375 41.856998443603516,-155.33700561523438 6.281000137329102,-163.80799865722656 C-29.295000076293945,-172.2790069580078 -82.37799835205078,-162.11300659179688 -88.0250015258789,-155.33700561523438 C-93.6719970703125,-148.56100463867188 -36.637001037597656,-156.4669952392578 -12.354999542236328,-150.2550048828125 C11.927000045776367,-144.04299926757812 29.99799919128418,-135.00799560546875 29.99799919128418,-135.00799560546875 C29.99799919128418,-135.00799560546875 -30.33300018310547,-141.1820068359375 -76.73100280761719,-103.38400268554688 C-123.12899780273438,-65.58599853515625 -126.0770034790039,33.27399826049805 -88.41600036621094,85.79199981689453 C-50.755001068115234,138.30999755859375 30.90399932861328,144.2010040283203 85.33899688720703,126.45099639892578 C137.29200744628906,109.51000213623047 158.76800537109375,84.46700286865234 167.78599548339844,37.22700119018555 C179.64500427246094,-24.891000747680664 164.6020050048828,-49.49599838256836 173.63699340820312,-57.96699905395508 C182.6719970703125,-66.43800354003906 228.29200744628906,-26.945999145507812 220.8679962158203,66.59200286865234 C212.39700317382812,173.3209991455078 136.7270050048828,238.26199340820312 4.585999965667725,233.17999267578125 C-117.91100311279297,228.468994140625 -197.5780029296875,159.20399475097656 -217.34300231933594,51.90999984741211 C-237.10800170898438,-55.38399887084961 -188.38299560546875,-161.10800170898438 -90.8489990234375,-205.031005859375 C-5.578999996185303,-243.43099975585938 70.65699768066406,-236.08999633789062 120.91600036621094,-222.53700256347656 C171.1750030517578,-208.98399353027344 198.10800170898438,-198.6580047607422 205.8470001220703,-168.6269989013672 C214.656005859375,-134.4429931640625 227.0800018310547,-97.73699951171875 208.44500732421875,-92.65499877929688 C189.80999755859375,-87.572998046875 165.52699279785156,-83.62000274658203 162.70399475097656,-88.7020034790039 C159.8800048828125,-93.78399658203125 183.5970001220703,-105.64299774169922 182.46800231933594,-111.8550033569336 C181.33900451660156,-118.06700134277344 144.0679931640625,-142.91400146484375 136.7270050048828,-140.65499877929688 C129.38600158691406,-138.39599609375 115.83300018310547,-109.03199768066406 116.39800262451172,-102.81999969482422 C116.96299743652344,-96.60800170898438 138.4219970703125,-88.7020034790039 139.55099487304688,-81.9260025024414 C140.67999267578125,-75.1500015258789 90.4209976196289,-71.19599914550781 83.08000183105469,-84.18399810791016 C75.73899841308594,-97.1719970703125 68.39800262451172,-140.08999633789062 68.39800262451172,-140.08999633789062z"></path></g></g></g></svg>