<svg xmlns="http://www.w3.org/2000/svg" xmlns:xlink="http://www.w3.org/1999/xlink" viewBox="0 0 512 512" width="512" height="512" style="width: 100%; height: 100%; transform: translate3d(0,0,0);" preserveAspectRatio="xMidYMid meet"><defs><clipPath id="__lottie_element_51560"><rect width="512" height="512" x="0" y="0"></rect></clipPath></defs><g clip-path="url(#__lottie_element_51560)"><g style="display: block;" transform="matrix(1,0,0,1,256,256.78399658203125)" opacity="1"><g opacity="1" transform="matrix(1,0,0,1,0,0)"><path fill="rgb(4,5,52)" fill-opacity="1" d=" M228.35499572753906,-129.03500366210938 C245.86500549316406,-164.61500549316406 234.5749969482422,-215.43499755859375 230.05499267578125,-215.43499755859375 C225.53500366210938,-215.43499755859375 210.85499572753906,-182.68499755859375 188.26499938964844,-169.69500732421875 C165.6750030517578,-156.7050018310547 15.085000038146973,-160.2030029296875 -4.684999942779541,-122.93299865722656 C-4.684999942779541,-122.93299865722656 -4.684999942779541,-122.93299865722656 -4.684999942779541,-122.93299865722656 C-24.454999923706055,-160.2030029296875 -165.6750030517578,-156.7050018310547 -188.26499938964844,-169.69500732421875 C-210.85499572753906,-182.68499755859375 -225.53500366210938,-215.43499755859375 -230.05499267578125,-215.43499755859375 C-234.5749969482422,-215.43499755859375 -245.86500549316406,-164.61500549316406 -228.35499572753906,-129.03500366210938 C-210.85499572753906,-93.46499633789062 -167.93499755859375,-62.404998779296875 -130.6649932861328,-52.23500061035156 C-130.6649932861328,-52.23500061035156 -159.3780059814453,-53.85100173950195 -189.97999572753906,-70 C-197.5570068359375,-73.99800109863281 -205.25,-64.85199737548828 -199.9409942626953,-58.12699890136719 C-190.08200073242188,-45.638999938964844 -176.21299743652344,-32.38399887084961 -157.77499389648438,-24.0049991607666 C-157.77499389648438,-24.0049991607666 -182.44500732421875,-5.375 -183.18499755859375,43.76499938964844 C-184.31500244140625,118.86499786376953 -78.2750015258789,215.43499755859375 -0.004999999888241291,215.43499755859375 C78.2750015258789,215.43499755859375 184.31500244140625,118.86499786376953 183.18499755859375,43.76499938964844 C182.44500732421875,-5.375 157.77499389648438,-24.0049991607666 157.77499389648438,-24.0049991607666 C176.21299743652344,-32.38399887084961 190.08200073242188,-45.638999938964844 199.9409942626953,-58.12699890136719 C205.25,-64.85199737548828 197.5570068359375,-73.99800109863281 189.97999572753906,-70 C159.3780059814453,-53.85100173950195 130.6649932861328,-52.23500061035156 130.6649932861328,-52.23500061035156 C167.93499755859375,-62.404998779296875 210.85499572753906,-93.46499633789062 228.35499572753906,-129.03500366210938z M-69.67500305175781,136.93499755859375 C-110.8949966430664,117.17500305175781 -153.05499267578125,97.91500091552734 -156.64500427246094,55.625 C-159.46499633789062,22.30500030517578 -138.5749969482422,2.5350000858306885 -138.5749969482422,2.5350000858306885 C-138.5749969482422,2.5350000858306885 -141.9550018310547,-13.835000038146973 -141.9550018310547,-13.835000038146973 C-141.9550018310547,-13.835000038146973 -125.20600128173828,1.034000039100647 -125.20600128173828,1.034000039100647 C-128.26600646972656,12.253999710083008 -137.6300048828125,54.86899948120117 -94.71199798583984,71.43399810791016 C-65.55899810791016,82.68599700927734 -52.24300003051758,59.573001861572266 -48.10300064086914,49.94300079345703 C-37.58300018310547,61.792999267578125 -25.934999465942383,77.23500061035156 -24.4950008392334,84.98500061035156 C-24.4950008392334,84.98500061035156 -31.274999618530273,136.36500549316406 -9.265000343322754,173.63499450683594 C-9.864999771118164,173.11500549316406 -29.094999313354492,156.39500427246094 -69.67500305175781,136.93499755859375z M93.947998046875,64.8010025024414 C63.11199951171875,80.01599884033203 47.46500015258789,53.72600173950195 41.88100051879883,40.736000061035156 C52.80699920654297,31.077999114990234 65.48699951171875,22.013999938964844 79.4749984741211,14.784000396728516 C90.34700012207031,9.159000396728516 100.66500091552734,3.3589999675750732 110.04000091552734,-2.1989998817443848 C114.14099884033203,12.800999641418457 121.47899627685547,51.20399856567383 93.947998046875,64.8010025024414z"></path></g></g></g></svg>