<svg xmlns="http://www.w3.org/2000/svg" xmlns:xlink="http://www.w3.org/1999/xlink" viewBox="0 0 512 512" width="512" height="512" style="width: 100%; height: 100%; transform: translate3d(0,0,0);" preserveAspectRatio="xMidYMid meet"><defs><clipPath id="__lottie_element_52831"><rect width="512" height="512" x="0" y="0"></rect></clipPath></defs><g clip-path="url(#__lottie_element_52831)"><g style="display: block;" transform="matrix(1.159999966621399,0,0,1.159999966621399,-664.0361328125,-129.349609375)" opacity="1"><g opacity="1" transform="matrix(1,0,0,1,0,0)"><g opacity="1" transform="matrix(1,0,0,1,820.093017578125,216.0229949951172)"><path fill="rgb(0,0,0)" fill-opacity="1" d=" M-20.906999588012695,-108.65399932861328 C-17.06399917602539,-105.08899688720703 -19.305999755859375,-101.6780014038086 -19.538000106811523,-98.63300323486328 C-20.371999740600586,-87.66000366210938 -18.275999069213867,-77.42900085449219 -12.994999885559082,-67.7959976196289 C-5.270999908447266,-53.70600128173828 5.078999996185303,-40.845001220703125 5.289000034332275,-23.709999084472656 C12.920999526977539,-25.08099937438965 13.77400016784668,-29.865999221801758 15.701000213623047,-33.763999938964844 C17.638999938964844,-37.685001373291016 19.683000564575195,-41.551998138427734 21.43899917602539,-44.97100067138672 C26,-45.59000015258789 27.39299964904785,-42.90299987792969 28.593000411987305,-40.54999923706055 C42.125999450683594,-14.017999649047852 48.80400085449219,14.199000358581543 47.52000045776367,43.9379997253418 C46.305999755859375,72.03500366210938 26.17300033569336,97.9990005493164 0.7409999966621399,106.11699676513672 C-4.183000087738037,107.68900299072266 -8.972000122070312,108.65399932861328 -15.182999610900879,106.79299926757812 C-14.406000137329102,104.81199645996094 -13.968999862670898,102.89199829101562 -12.96399974822998,101.34100341796875 C-11.755000114440918,99.47599792480469 -10.031000137329102,97.95099639892578 -8.583999633789062,96.23300170898438 C7.75600004196167,76.8290023803711 10.625,55.46099853515625 -2.825000047683716,34.21500015258789 C-12.366000175476074,19.14299964904785 -23.649999618530273,4.875999927520752 -35.95199966430664,-8.041999816894531 C-43.92300033569336,-16.413999557495117 -48.80400085449219,-24.805999755859375 -48.74599838256836,-36.03900146484375 C-48.70000076293945,-45.012001037597656 -48.779998779296875,-54.0620002746582 -47.67499923706055,-62.9370002746582 C-45.59600067138672,-79.63300323486328 -38.137001037597656,-93.91600036621094 -25.979999542236328,-105.61299896240234 C-24.53700065612793,-107.00199890136719 -22.468000411987305,-107.74099731445312 -20.906999588012695,-108.65399932861328z"></path></g><g opacity="1" transform="matrix(1,0,0,1,753.5869750976562,248.45700073242188)"><path fill="rgb(0,0,0)" fill-opacity="1" d=" M-12.918000221252441,-75.41600036621094 C-11.979000091552734,-74.11699676513672 -10.541000366210938,-72.93699645996094 -10.166000366210938,-71.48400115966797 C-5.193999767303467,-52.236000061035156 7.179999828338623,-37.77299880981445 20.41699981689453,-23.864999771118164 C23.510000228881836,-20.614999771118164 26.94700050354004,-17.683000564575195 29.94700050354004,-14.354000091552734 C34.04899978637695,-9.802000045776367 34.32699966430664,-5.7820000648498535 30.743999481201172,-0.6349999904632568 C28.18899917602539,3.0360000133514404 25.177000045776367,6.4019999504089355 22.2450008392334,9.795999526977539 C9.946999549865723,24.031999588012695 5.88100004196167,41.263999938964844 19.32900047302246,60.619998931884766 C21.55500030517578,63.82500076293945 23.37700080871582,67.3290023803711 25.198999404907227,70.79199981689453 C26.208999633789062,72.71099853515625 24.041000366210938,75.41500091552734 21.743000030517578,75.2229995727539 C10.652000427246094,74.2969970703125 1.3630000352859497,69.23200225830078 -6.660999774932861,61.96099853515625 C-23.694000244140625,46.527000427246094 -33.1349983215332,27.343000411987305 -33.680999755859375,4.182000160217285 C-34.32699966430664,-23.256000518798828 -28.704999923706055,-49.301998138427734 -15.644000053405762,-73.5780029296875 C-15.234000205993652,-74.33999633789062 -14.043999671936035,-74.68299865722656 -12.918000221252441,-75.41600036621094z"></path></g><g opacity="1" transform="matrix(1,0,0,1,672.7449951171875,223.49200439453125)"><path fill="rgb(0,0,0)" fill-opacity="1" d=" M6.1539998054504395,-92.61699676513672 C-9.784000396728516,-67.15599822998047 -14.956000328063965,-46.0359992980957 -14.78499984741211,-17.961000442504883 C-14.649999618530273,4.247000217437744 -6.3429999351501465,26.05500030517578 5.010000228881836,45.60300064086914 C16.642000198364258,65.63300323486328 33.064998626708984,80.43900299072266 53.65299987792969,90.85199737548828 C59.130001068115234,93.62300109863281 56.582000732421875,100.26899719238281 56.263999938964844,100.88700103759766 C55.584999084472656,102.20899963378906 51.209999084472656,103.86199951171875 50.0620002746582,103.91100311279297 C36.61399841308594,104.48500061035156 23.155000686645508,104.98100280761719 9.697999954223633,105.0250015258789 C3.2039999961853027,105.0469970703125 -2.0899999141693115,101.29199981689453 -6.714000225067139,97.18000030517578 C-29.66699981689453,76.76699829101562 -45.4109992980957,52.29899978637695 -49.58100128173828,21.165000915527344 C-53.564998626708984,-8.585000038146973 -49.810001373291016,-37.07099914550781 -36.71900177001953,-64.15499877929688 C-28.801000595092773,-80.53800201416016 -16.1200008392334,-96.5999984741211 -3.1459999084472656,-105.0459976196289 C9.82800006866455,-113.49199676513672 13.276000022888184,-99.6989974975586 6.1539998054504395,-92.61699676513672z"></path></g><g opacity="1" transform="matrix(-1,0,0,1,909.8140258789062,223.49200439453125)"><path fill="rgb(0,0,0)" fill-opacity="1" d=" M6.1539998054504395,-92.61699676513672 C-9.784000396728516,-67.15599822998047 -14.956000328063965,-46.0359992980957 -14.78499984741211,-17.961000442504883 C-14.649999618530273,4.247000217437744 -6.3429999351501465,26.05500030517578 5.010000228881836,45.60300064086914 C16.642000198364258,65.63300323486328 33.064998626708984,80.43900299072266 53.65299987792969,90.85199737548828 C59.130001068115234,93.62300109863281 56.582000732421875,100.26899719238281 56.263999938964844,100.88700103759766 C55.584999084472656,102.20899963378906 51.209999084472656,103.86199951171875 50.0620002746582,103.91100311279297 C36.61399841308594,104.48500061035156 23.155000686645508,104.98100280761719 9.697999954223633,105.0250015258789 C3.2039999961853027,105.0469970703125 -2.0899999141693115,101.29199981689453 -6.714000225067139,97.18000030517578 C-29.66699981689453,76.76699829101562 -45.4109992980957,52.29899978637695 -49.58100128173828,21.165000915527344 C-53.564998626708984,-8.585000038146973 -49.810001373291016,-37.07099914550781 -36.71900177001953,-64.15499877929688 C-28.801000595092773,-80.53800201416016 -16.1200008392334,-96.5999984741211 -3.1459999084472656,-105.0459976196289 C9.82800006866455,-113.49199676513672 13.276000022888184,-99.6989974975586 6.1539998054504395,-92.61699676513672z"></path></g><g opacity="1" transform="matrix(1,0,0,1,794.8519897460938,439.156005859375)"><path fill="rgb(0,0,0)" fill-opacity="1" d=" M187.23399353027344,-101.43299865722656 C185.2449951171875,-103.58100128173828 179.92799377441406,-103.46199798583984 176.23699951171875,-103.09500122070312 C141.6199951171875,-99.65599822998047 89.93499755859375,-100.15599822998047 55.54800033569336,-105.91799926757812 C14.401000022888184,-112.81300354003906 -26.798999786376953,-110.48899841308594 -67.72100067138672,-104.28800201416016 C-92.12699890136719,-100.59100341796875 -133.6199951171875,-97.25599670410156 -158.36000061035156,-98.88500213623047 C-166.3209991455078,-99.40799713134766 -174.3260040283203,-99.37899780273438 -182.3090057373047,-99.3290023803711 C-184.76600646972656,-99.31400299072266 -187.2169952392578,-98.38999938964844 -190.7570037841797,-97.65799713134766 C-189.61199951171875,-93.6989974975586 -189.38099670410156,-90.2030029296875 -187.7169952392578,-87.63800048828125 C-181.9340057373047,-78.72599792480469 -175.94400024414062,-69.91500091552734 -169.47999572753906,-61.4900016784668 C-163.15499877929688,-53.24700164794922 -154.4219970703125,-48.45100021362305 -144.1020050048828,-47.020999908447266 C-134.24200439453125,-45.65399932861328 -124.33899688720703,-44.57600021362305 -114.43699645996094,-43.53499984741211 C-105.61000061035156,-42.608001708984375 -102.11000061035156,-40.40999984741211 -101.99800109863281,-31.30500030517578 C-101.76499938964844,-12.4399995803833 -93.40799713134766,3.322000026702881 -84.91999816894531,19.177000045776367 C-81.78199768066406,25.03700065612793 -78.49299621582031,30.844999313354492 -74.86000061035156,36.40800094604492 C-66.68499755859375,48.92300033569336 -60.909000396728516,62.06100082397461 -61.887001037597656,77.48200225830078 C-62.733001708984375,90.83100128173828 -52.479000091552734,103.4010009765625 -37.744998931884766,108.2490005493164 C-23.87299919128418,112.81400299072266 24.299999237060547,110.98300170898438 37.56800079345703,105.47899627685547 C50.24100112915039,100.22000122070312 58.70199966430664,91.36299896240234 58.98899841308594,77.02100372314453 C59.33599853515625,59.68600082397461 66.71099853515625,44.91999816894531 74.61699676513672,30.20800018310547 C80.59700012207031,19.08099937438965 87.01399993896484,8.128999710083008 92.08300018310547,-3.4070000648498535 C95.5,-11.185999870300293 98.2979965209961,-19.746000289916992 98.90799713134766,-28.135000228881836 C99.95500183105469,-42.54600143432617 101.74199676513672,-43.74599838256836 115.66699981689453,-43.665000915527344 C118.32499694824219,-43.64899826049805 121.02999877929688,-43.60300064086914 123.63400268554688,-44.04199981689453 C140.23199462890625,-46.840999603271484 156.5260009765625,-50.777000427246094 167.98699951171875,-64.36000061035156 C174.38999938964844,-71.9489974975586 179.79100036621094,-80.40699768066406 185.3780059814453,-88.65299987792969 C188.00999450683594,-92.53900146484375 190.7570037841797,-97.62699890136719 187.23399353027344,-101.43299865722656z M-34.202999114990234,-21.35300064086914 C-53.82899856567383,-16.878999710083008 -66.64800262451172,-19.89299964904785 -66.39099884033203,-44.220001220703125 C-35.987998962402344,-53.71699905395508 -31.020999908447266,-37.691001892089844 -34.202999114990234,-21.35300064086914z M59.612998962402344,-25.989999771118164 C59.37900161743164,-25.549999237060547 59.152000427246094,-25.10700035095215 58.89400100708008,-24.676000595092773 C58.229000091552734,-23.565000534057617 56.849998474121094,-22.68000030517578 55.44499969482422,-22.094999313354492 C49.81100082397461,-18.711000442504883 41.62200164794922,-19.03700065612793 31.67099952697754,-21.30500030517578 C28.48900032043457,-37.64400100708008 33.45600128173828,-53.67100143432617 63.85900115966797,-44.17499923706055 C63.94900131225586,-35.71200180053711 62.42399978637695,-29.875999450683594 59.612998962402344,-25.989999771118164z"></path></g></g></g></g></svg>