<svg xmlns="http://www.w3.org/2000/svg" xmlns:xlink="http://www.w3.org/1999/xlink" viewBox="0 0 512 512" width="512" height="512" style="width: 100%; height: 100%; transform: translate3d(0,0,0);" preserveAspectRatio="xMidYMid meet"><defs><clipPath id="__lottie_element_51275"><rect width="512" height="512" x="0" y="0"></rect></clipPath></defs><g clip-path="url(#__lottie_element_51275)"><g style="display: block;" transform="matrix(1,0,0,1,256,256)" opacity="1"><g opacity="1" transform="matrix(1,0,0,1,0,0)"><path fill="rgb(0,0,0)" fill-opacity="1" d=" M92.94499969482422,-209.36199951171875 C-1.406999945640564,-302.3659973144531 -148.88099670410156,-225.93299865722656 -138.968994140625,-96.44100189208984 C-183.10899353027344,-85.49400329589844 -205.1790008544922,-52.50699996948242 -205.1790008544922,2.5209999084472656 C-205.1790008544922,2.5209999084472656 -205.1790008544922,147.11700439453125 -205.1790008544922,147.11700439453125 C-205.1790008544922,215.7169952392578 -170.88099670410156,250.01600646972656 -102.28500366210938,250.01600646972656 C-102.28500366210938,250.01600646972656 97.95500183105469,250.01600646972656 97.95500183105469,250.01600646972656 C166.4320068359375,250.01600646972656 200.6699981689453,215.7169952392578 200.6699981689453,147.11700439453125 C200.6699981689453,147.11700439453125 200.6699981689453,2.5209999084472656 200.6699981689453,2.5209999084472656 C200.6699981689453,-53.292999267578125 178.00399780273438,-86.4000015258789 132.67100524902344,-96.79900360107422 C134.0659942626953,-139.2050018310547 124.36900329589844,-178.70399475097656 92.94499969482422,-209.36199951171875 M28.344999313354492,-143.68499755859375 C41.55500030517578,-131.0749969482422 41.25,-117.41799926757812 41.58700180053711,-100.37799835205078 C41.58700180053711,-100.37799835205078 -47.88600158691406,-100.37799835205078 -47.88600158691406,-100.37799835205078 C-47.76300048828125,-108.40399932861328 -47.28499984741211,-116.15899658203125 -46.45399856567383,-123.64199829101562 C-37.948001861572266,-156.38999938964844 4.745999813079834,-168.97300720214844 28.344999313354492,-143.68499755859375 M19.040000915527344,5.383999824523926 C37.659000396728516,-14.01200008392334 65.81700134277344,-15.60099983215332 86.86100006103516,-1.9529999494552612 C120.9530029296875,21.121999740600586 110.11000061035156,70.13600158691406 86.68199920654297,100.76699829101562 C71.08300018310547,122.20800018310547 17.81100082397461,170.21299743652344 -12.454000473022461,156.9600067138672 C-59.606998443603516,138.04299926757812 -107.322998046875,91.8010025024414 -107.2959976196289,40.81800079345703 C-107.29499816894531,21.729000091552734 -100.1969985961914,7.4720001220703125 -86.0009994506836,-1.9529999494552612 C-64.8219985961914,-15.571999549865723 -36.665000915527344,-14.031999588012695 -18.180999755859375,5.385000228881836 C-7.921000003814697,15.406000137329102 -1.7170000076293945,25.308000564575195 0.4300000071525574,35.090999603271484 C2.697000026702881,25.308000564575195 8.899999618530273,15.404999732971191 19.040000915527344,5.383999824523926z"></path></g></g></g></svg>