<svg xmlns="http://www.w3.org/2000/svg" xmlns:xlink="http://www.w3.org/1999/xlink" viewBox="0 0 512 512" width="512" height="512" style="width: 100%; height: 100%; transform: translate3d(0,0,0);" preserveAspectRatio="xMidYMid meet"><defs><clipPath id="__lottie_element_27239"><rect width="512" height="512" x="0" y="0"></rect></clipPath></defs><g clip-path="url(#__lottie_element_27239)"><g style="display: block;" transform="matrix(1,0,0,1,0,0)" opacity="1"><g opacity="1" transform="matrix(1,0,0,1,256,256)"><path fill="rgb(0,0,0)" fill-opacity="1" d=" M255.72000122070312,-93.90899658203125 C255.1439971923828,-103.77999877929688 250.13999938964844,-115.65499877929688 242.77099609375,-127.34600067138672 C271.8160095214844,-159.781005859375 237.17799377441406,-199.3179931640625 203.9929962158203,-169.1790008544922 C200.73599243164062,-171.6020050048828 197.34100341796875,-173.96400451660156 193.78900146484375,-176.24600219726562 C210.9759979248047,-219.6929931640625 160.62399291992188,-244.3560028076172 142.0709991455078,-200.78799438476562 C141.5919952392578,-200.95199584960938 141.1199951171875,-201.12399291992188 140.63800048828125,-201.28599548339844 C137.89500427246094,-202.21099853515625 135.1320037841797,-203.08900451660156 132.35499572753906,-203.9320068359375 C137.24400329589844,-250.0959930419922 83.16000366210938,-260.5459899902344 76.15299987792969,-215.2169952392578 C72.35600280761719,-215.61199951171875 68.55500030517578,-215.94500732421875 64.7490005493164,-216.197998046875 C59.51300048828125,-262.5950012207031 3.9760000705718994,-260.85400390625 7.4679999351501465,-214.54400634765625 C4.203999996185303,-214.1280059814453 0.9549999833106995,-213.65699768066406 -2.2769999504089355,-213.12899780273438 C-17.429000854492188,-256.3630065917969 -70.9520034790039,-242.85400390625 -57.42499923706055,-197.96600341796875 C-60.645999908447266,-196.68899536132812 -63.8380012512207,-195.3520050048828 -66.99400329589844,-193.94900512695312 C-94.24800109863281,-232.36399841308594 -142.1529998779297,-203.60899353027344 -116.43000030517578,-164.875 C-118.80500030517578,-163.08599853515625 -121.14900207519531,-161.25100708007812 -123.46399688720703,-159.37600708007812 C-158.96800231933594,-189.58799743652344 -198.41000366210938,-150.18499755859375 -163.7100067138672,-118.64099884033203 C-165.95599365234375,-115.83699798583984 -168.13400268554688,-113.00599670410156 -170.25900268554688,-110.15499877929688 C-211.47500610351562,-130.90899658203125 -240.5290069580078,-83.83999633789062 -199.7689971923828,-61.117000579833984 C-201.0540008544922,-58.369998931884766 -202.28500366210938,-55.61199951171875 -203.46499633789062,-52.84400177001953 C-248.61500549316406,-62.645999908447266 -264.96600341796875,-9.637999534606934 -219.55599975585938,2.072000026702881 C-219.80999755859375,3.6389999389648438 -220.05299377441406,5.205999851226807 -220.2729949951172,6.77400016784668 C-220.64700317382812,9.442999839782715 -220.97000122070312,12.107000350952148 -221.2449951171875,14.765000343322754 C-221.2449951171875,14.765000343322754 -221.28900146484375,13.72599983215332 -221.28900146484375,13.72599983215332 C-268.9339904785156,18.711999893188477 -266.7430114746094,75.56700134277344 -219.55999755859375,71.06999969482422 C-218.95899963378906,74.61599731445312 -218.26499938964844,78.13600158691406 -217.47500610351562,81.6259994506836 C-259.010009765625,102.09300231933594 -238.93299865722656,153.5279998779297 -196.5540008544922,134.9429931640625 C-195.10800170898438,137.42599487304688 -193.60499572753906,139.85299682617188 -192.05999755859375,142.23800659179688 C-222.79200744628906,176.37600708007812 -185.75399780273438,216.43800354003906 -153.36500549316406,184.49400329589844 C-151.16400146484375,186.1959991455078 -148.93099975585938,187.85000610351562 -146.6540069580078,189.4340057373047 C-160.36199951171875,232.8509979248047 -111.29299926757812,253.9409942626953 -94.53299713134766,213.41299438476562 C-91.98799896240234,214.07899475097656 -89.4229965209961,214.6929931640625 -86.83599853515625,215.24099731445312 C-84.50599670410156,259.885009765625 -31.051000595092773,262.79400634765625 -29.72800064086914,217.6699981689453 C-26.173999786376953,217.24600219726562 -22.68899917602539,216.7169952392578 -19.266000747680664,216.0850067138672 C2.513000011444092,256.9490051269531 52.861000061035156,235.56900024414062 33.86600112915039,194.46099853515625 C36.867000579833984,192.3939971923828 39.797000885009766,190.19500732421875 42.65599822998047,187.86199951171875 C80.75800323486328,213.51499938964844 115.09300231933594,171.5469970703125 79.64600372314453,144.04200744628906 C81.23899841308594,141.41000366210938 82.78299713134766,138.73899841308594 84.28099822998047,136.0330047607422 C127.38400268554688,151.2550048828125 150.30499267578125,101.53299713134766 107.69200134277344,83.81900024414062 C108.85600280761719,80.74700164794922 110.00299835205078,77.66899871826172 111.13500213623047,74.58899688720703 C152.83700561523438,85.5780029296875 172.39300537109375,37.22999954223633 130.81399536132812,21.097999572753906 C131.0590057373047,20.47800064086914 131.30099487304688,19.854999542236328 131.54800415039062,19.23699951171875 C132.59800720214844,16.60700035095215 133.7030029296875,14.074000358581543 134.8470001220703,11.616000175476074 C166.3780059814453,28.29400062561035 195.80599975585938,-4.494999885559082 168.5590057373047,-32.8489990234375 C171.67799377441406,-35.45399856567383 174.8249969482422,-37.816001892089844 177.96099853515625,-39.965999603271484 C200.0679931640625,-1.5540000200271606 248.35400390625,-22.447999954223633 230.49000549316406,-62.542999267578125 C230.75100708007812,-62.638999938964844 231,-62.73400115966797 231.21800231933594,-62.82699966430664 C256.5050048828125,-73.5009994506836 256.6929931640625,-77.36799621582031 255.72000122070312,-93.90899658203125z M185.13600158691406,-84.05599975585938 C158.43899536132812,-73.177001953125 118.09300231933594,-56.74800109863281 93.7040023803711,4.059000015258789 C88.66300201416016,16.624000549316406 83.94599914550781,29.79199981689453 79.38700103759766,42.51499938964844 C67.73899841308594,74.98500061035156 55.70199966430664,108.56600189208984 37.79899978637695,133.57699584960938 C28.42099952697754,146.67999267578125 17.958999633789062,156.69700622558594 5.968999862670898,163.88699340820312 C-6.004000186920166,171.0780029296875 -19.5049991607666,175.4429931640625 -34.94300079345703,177.2310028076172 C-62.50199890136719,180.43699645996094 -89.1240005493164,175.5449981689453 -111.92900085449219,163.08999633789062 C-133.71400451660156,151.19200134277344 -151.718994140625,132.71499633789062 -163.98800659179688,109.66000366210938 C-179.28700256347656,80.91500091552734 -184.78199768066406,47.29600143432617 -179.88900756835938,12.444999694824219 C-174.43099975585938,-26.51099967956543 -155.81500244140625,-65.45800018310547 -126.0790023803711,-100.16999816894531 C-93.33999633789062,-138.37600708007812 -51.345001220703125,-162.51499938964844 -1.25,-171.92999267578125 C13.687999725341797,-174.73800659179688 29.10700035095215,-176.1280059814453 44.62799835205078,-176.1280059814453 C72.70600128173828,-176.1280059814453 101.11699676513672,-171.5780029296875 127.61900329589844,-162.6540069580078 C177.87100219726562,-145.71499633789062 213.8470001220703,-114.37899780273438 214.9040069580078,-96.26300048828125 C215.2740020751953,-89.86900329589844 206.7449951171875,-92.8499984741211 185.13600158691406,-84.05599975585938z"></path></g><g opacity="1" transform="matrix(1,0,0,1,236.98300170898438,254.4409942626953)"><path fill="rgb(0,0,0)" fill-opacity="1" d=" M48.154998779296875,-79.66300201416016 C45.06700134277344,-79.66300201416016 42.345001220703125,-81.2300033569336 40.7400016784668,-83.61199951171875 C36.617000579833984,-82.75399780273438 32.590999603271484,-81.73400115966797 28.650999069213867,-80.572998046875 C28.555999755859375,-75.72000122070312 24.599000930786133,-71.81400299072266 19.724000930786133,-71.81400299072266 C17.013999938964844,-71.81400299072266 14.592000007629395,-73.02400207519531 12.95300006866455,-74.9280014038086 C9.338000297546387,-73.37999725341797 5.824999809265137,-71.6709976196289 2.3919999599456787,-69.83399963378906 C2.4539999961853027,-69.41100311279297 2.496000051498413,-68.98100280761719 2.496000051498413,-68.54100036621094 C2.496000051498413,-63.60499954223633 -1.5049999952316284,-59.604000091552734 -6.440999984741211,-59.604000091552734 C-8.340999603271484,-59.604000091552734 -10.100000381469727,-60.20199966430664 -11.548999786376953,-61.2140007019043 C-14.973999977111816,-58.78900146484375 -18.302000045776367,-56.21500015258789 -21.503999710083008,-53.45100021362305 C-21.937000274658203,-53.07699966430664 -22.35300064086914,-52.68299865722656 -22.7810001373291,-52.30400085449219 C-22.45800018310547,-51.37900161743164 -22.27199935913086,-50.388999938964844 -22.27199935913086,-49.354000091552734 C-22.27199935913086,-44.417999267578125 -26.27400016784668,-40.41699981689453 -31.208999633789062,-40.41699981689453 C-32.233001708984375,-40.41699981689453 -33.21200180053711,-40.59700012207031 -34.12799835205078,-40.91400146484375 C-37.16999816894531,-37.465999603271484 -40.034000396728516,-33.84400177001953 -42.729000091552734,-30.086999893188477 C-41.874000549316406,-28.716999053955078 -41.37200164794922,-27.104000091552734 -41.37200164794922,-25.3700008392334 C-41.37200164794922,-20.43400001525879 -45.37300109863281,-16.433000564575195 -50.308998107910156,-16.433000564575195 C-50.65800094604492,-16.433000564575195 -51.000999450683594,-16.45800018310547 -51.3390007019043,-16.496999740600586 C-53.569000244140625,-12.486000061035156 -55.599998474121094,-8.355999946594238 -57.43600082397461,-4.135000228881836 C-55.76100158691406,-2.510999917984009 -54.715999603271484,-0.2409999966621399 -54.715999603271484,2.2769999504089355 C-54.715999603271484,7.015999794006348 -58.40700149536133,10.881999969482422 -63.06999969482422,11.184000015258789 C-63.48699951171875,12.569999694824219 -63.882999420166016,13.961999893188477 -64.25599670410156,15.361000061035156 C-65.0270004272461,18.25 -65.69000244140625,21.13800048828125 -66.25,24.007999420166016 C-63.72600173950195,25.586999893188477 -62.04199981689453,28.384000778198242 -62.04199981689453,31.58099937438965 C-62.04199981689453,35.57899856567383 -64.66799926757812,38.9630012512207 -68.29000091552734,40.104000091552734 C-68.5469970703125,44.803001403808594 -68.46299743652344,49.310001373291016 -68.05799865722656,53.54399871826172 C-64.02300262451172,54.404998779296875 -60.994998931884766,57.987998962402344 -60.994998931884766,62.279998779296875 C-60.994998931884766,65.11900329589844 -62.323001861572266,67.64299774169922 -64.38700103759766,69.27999877929688 C-63.04499816894531,72.40799713134766 -61.40399932861328,74.97000122070312 -59.49800109863281,76.86900329589844 C-58.141998291015625,76.03900146484375 -56.553001403808594,75.552001953125 -54.84600067138672,75.552001953125 C-49.933998107910156,75.552001953125 -45.95000076293945,79.51599884033203 -45.91299819946289,84.41999816894531 C-45.23400115966797,84.67900085449219 -44.58700180053711,84.91200256347656 -44.012001037597656,85.08499908447266 C-40.83000183105469,86.04499816894531 -37.861000061035156,86.68900299072266 -35.0880012512207,87.0250015258789 C-33.856998443603516,83.56199645996094 -30.559999465942383,81.0770034790039 -26.673999786376953,81.0770034790039 C-23.733999252319336,81.0770034790039 -21.132999420166016,82.50399780273438 -19.503999710083008,84.69599914550781 C-19.395000457763672,84.63800048828125 -19.281999588012695,84.58699798583984 -19.173999786376953,84.52799987792969 C-16.16200065612793,82.86799621582031 -13.545000076293945,80.46900177001953 -11.206999778747559,77.44999694824219 C-12.654999732971191,75.86199951171875 -13.545999526977539,73.75599670410156 -13.545999526977539,71.43800354003906 C-13.545999526977539,66.50199890136719 -9.545000076293945,62.500999450683594 -4.609000205993652,62.500999450683594 C-4.139999866485596,62.500999450683594 -3.683000087738037,62.54800033569336 -3.2330000400543213,62.61800003051758 C-1.7239999771118164,58.83300018310547 -0.3109999895095825,54.694000244140625 1.069000005722046,50.26300048828125 C-1.3270000219345093,48.65999984741211 -2.9059998989105225,45.930999755859375 -2.9059998989105225,42.83100128173828 C-2.9059998989105225,37.96900177001953 0.9789999723434448,34.02199935913086 5.813000202178955,33.90599822998047 C6.09499979019165,32.89400100708008 6.376999855041504,31.87700080871582 6.6620001792907715,30.847999572753906 C7.517000198364258,27.767000198364258 8.392000198364258,24.62299919128418 9.295000076293945,21.430999755859375 C6.788000106811523,19.847999572753906 5.118000030517578,17.06100082397461 5.118000030517578,13.87600040435791 C5.118000030517578,8.940999984741211 9.119000434875488,4.940000057220459 14.055000305175781,4.940000057220459 C14.102999687194824,4.940000057220459 14.149999618530273,4.946000099182129 14.199000358581543,4.947000026702881 C15.369000434875488,1.2339999675750732 16.600000381469727,-2.515000104904175 17.927000045776367,-6.293000221252441 C15.565999984741211,-7.901000022888184 14.013999938964844,-10.609999656677246 14.013999938964844,-13.682999610900879 C14.013999938964844,-18.618999481201172 18.014999389648438,-22.6200008392334 22.951000213623047,-22.6200008392334 C23.371000289916992,-22.6200008392334 23.781999588012695,-22.58099937438965 24.187000274658203,-22.52400016784668 C25.76099967956543,-26.23699951171875 27.434999465942383,-29.95199966430664 29.246999740600586,-33.659000396728516 C27.54800033569336,-35.2859992980957 26.485000610351562,-37.57099914550781 26.485000610351562,-40.10900115966797 C26.485000610351562,-45.04499816894531 30.48699951171875,-49.04600143432617 35.422000885009766,-49.04600143432617 C36.12699890136719,-49.04600143432617 36.810001373291016,-48.95600128173828 37.46799850463867,-48.80099868774414 C39.672000885009766,-52.4640007019043 42.0359992980957,-56.09700012207031 44.566001892089844,-59.689998626708984 C43.09199905395508,-61.284000396728516 42.183998107910156,-63.40800094604492 42.183998107910156,-65.75 C42.183998107910156,-70.68499755859375 46.185001373291016,-74.68599700927734 51.12099838256836,-74.68599700927734 C52.6879997253418,-74.68599700927734 54.159000396728516,-74.27999877929688 55.439998626708984,-73.5719985961914 C59.446998596191406,-78.1719970703125 63.79899978637695,-82.66799926757812 68.5469970703125,-87.0250015258789 C64.54000091552734,-86.8479995727539 60.60499954223633,-86.54199981689453 56.736000061035156,-86.12200164794922 C55.6609992980957,-82.39299774169922 52.22999954223633,-79.66300201416016 48.154998779296875,-79.66300201416016z M-38.88399887084961,60.1870002746582 C-60.25400161743164,54.59000015258789 -39.930999755859375,-28.072999954223633 21.468000411987305,-53.540000915527344 C-22.138999938964844,-2.6070001125335693 -9.579999923706055,67.86199951171875 -38.88399887084961,60.1870002746582z"></path></g><g opacity="1" transform="matrix(1,0,0,1,259.9119873046875,255.1909942626953)"><path fill="rgb(0,0,0)" fill-opacity="1" d=" M28.625,-149.197998046875 C-49.39899826049805,-139.9499969482422 -108.84500122070312,-105.33899688720703 -140.9530029296875,-28.167999267578125 C-174.69200134277344,52.89500045776367 -138.0659942626953,142.01699829101562 -69.2249984741211,150.2270050048828 C-0.2919999957084656,158.4459991455078 26.649999618530273,107.18900299072266 44.590999603271484,48.00299835205078 C64.99700164794922,-19.316999435424805 86.60399627685547,-50.46699905395508 119.15599822998047,-77.4020004272461 C146.36900329589844,-99.91999816894531 173.3159942626953,-97.80899810791016 174.10000610351562,-107.22799682617188 C174.6909942626953,-114.31099700927734 106.65799713134766,-158.4459991455078 28.625,-149.197998046875z M57.67100143432617,-82.15799713134766 C55.02000045776367,-82.15799713134766 52.64500045776367,-83.31800079345703 51.00899887084961,-85.1510009765625 C45.62699890136719,-80.34100341796875 40.75699996948242,-75.34100341796875 36.319000244140625,-70.2020034790039 C36.83399963378906,-69.072998046875 37.12900161743164,-67.8219985961914 37.12900161743164,-66.5 C37.12900161743164,-61.564998626708984 33.12799835205078,-57.56399917602539 28.19300079345703,-57.56399917602539 C27.6299991607666,-57.56399917602539 27.082000732421875,-57.62099838256836 26.54800033569336,-57.720001220703125 C23.959999084472656,-54.069000244140625 21.54599952697754,-50.37099838256836 19.302000045776367,-46.638999938964844 C20.62700080871582,-45.08000183105469 21.430999755859375,-43.064998626708984 21.430999755859375,-40.85900115966797 C21.430999755859375,-35.92300033569336 17.429000854492188,-31.92300033569336 12.493000030517578,-31.92300033569336 C12.107000350952148,-31.92300033569336 11.730999946594238,-31.95599937438965 11.357999801635742,-32.00299835205078 C9.53600025177002,-28.280000686645508 7.853000164031982,-24.54599952697754 6.275000095367432,-20.81399917602539 C7.929999828338623,-19.191999435424805 8.958000183105469,-16.93400001525879 8.958000183105469,-14.434000015258789 C8.958000183105469,-9.61400032043457 5.140999794006348,-5.696000099182129 0.3659999966621399,-5.513999938964844 C-1.0019999742507935,-1.6380000114440918 -2.2690000534057617,2.2100000381469727 -3.4700000286102295,6.020999908447266 C-1.3270000219345093,7.6529998779296875 0.06400000303983688,10.223999977111816 0.06400000303983688,13.12600040435791 C0.06400000303983688,17.84600067138672 -3.5999999046325684,21.70199966430664 -8.236000061035156,22.030000686645508 C-9.154999732971191,25.268999099731445 -10.041999816894531,28.461000442504883 -10.909000396728516,31.584999084472656 C-11.204999923706055,32.6510009765625 -11.496999740600586,33.70500183105469 -11.788000106811523,34.75400161743164 C-9.47599983215332,36.36899948120117 -7.960000038146973,39.047000885009766 -7.960000038146973,42.082000732421875 C-7.960000038146973,46.882999420166016 -11.74899959564209,50.7869987487793 -16.496999740600586,50.99700164794922 C-17.989999771118164,55.792999267578125 -19.527999877929688,60.277000427246094 -21.19300079345703,64.39700317382812 C-19.591999053955078,66.01200103759766 -18.600000381469727,68.23400115966797 -18.600000381469727,70.68800354003906 C-18.600000381469727,75.6240005493164 -22.601999282836914,79.6240005493164 -27.538000106811523,79.6240005493164 C-28.12299919128418,79.6240005493164 -28.69300079345703,79.56400299072266 -29.246000289916992,79.45700073242188 C-32.14099884033203,83.35299682617188 -35.4640007019043,86.46700286865234 -39.41899871826172,88.64700317382812 C-39.827999114990234,88.87200164794922 -40.24800109863281,89.0770034790039 -40.66699981689453,89.28099822998047 C-40.676998138427734,94.20800018310547 -44.67300033569336,98.20099639892578 -49.60300064086914,98.20099639892578 C-53.638999938964844,98.20099639892578 -57.04499816894531,95.52400207519531 -58.154998779296875,91.8499984741211 C-61.404998779296875,91.49299621582031 -64.86000061035156,90.7699966430664 -68.5459976196289,89.65799713134766 C-69.19400024414062,89.46299743652344 -69.86499786376953,89.23200225830078 -70.5459976196289,88.97799682617188 C-72.16999816894531,91.21499633789062 -74.79900360107422,92.6760025024414 -77.7750015258789,92.6760025024414 C-82.71099853515625,92.6760025024414 -86.71199798583984,88.67400360107422 -86.71199798583984,83.73799896240234 C-86.71199798583984,82.53800201416016 -86.47100067138672,81.39600372314453 -86.04199981689453,80.3499984741211 C-88.65799713134766,77.83100128173828 -90.81400299072266,74.46700286865234 -92.50700378417969,70.4489974975586 C-92.625,70.4540023803711 -92.74199676513672,70.46600341796875 -92.86100006103516,70.46600341796875 C-97.7969970703125,70.46600341796875 -101.7979965209961,66.46600341796875 -101.7979965209961,61.529998779296875 C-101.7979965209961,57.900001525878906 -99.62799835205078,54.779998779296875 -96.51799774169922,53.38199996948242 C-96.9469985961914,48.96500015258789 -97.0510025024414,44.24300003051758 -96.79199981689453,39.28300094604492 C-100.30999755859375,38.082000732421875 -102.84400177001953,34.75600051879883 -102.84400177001953,30.83099937438965 C-102.84400177001953,26.125 -99.2040023803711,22.275999069213867 -94.58699798583984,21.92799949645996 C-94.01499938964844,19.04199981689453 -93.34200286865234,16.121999740600586 -92.55699920654297,13.177000045776367 C-92.19000244140625,11.803999900817871 -91.8010025024414,10.428999900817871 -91.38899993896484,9.052000045776367 C-93.87000274658203,7.464000225067139 -95.51799774169922,4.690000057220459 -95.51799774169922,1.5260000228881836 C-95.51799774169922,-3.4089999198913574 -91.51599884033203,-7.409999847412109 -86.58100128173828,-7.409999847412109 C-86.1719970703125,-7.409999847412109 -85.77300262451172,-7.372000217437744 -85.37799835205078,-7.318999767303467 C-83.5770034790039,-11.446000099182129 -81.56099700927734,-15.54699993133545 -79.32599639892578,-19.590999603271484 C-81.0739974975586,-21.222999572753906 -82.17400360107422,-23.541000366210938 -82.17400360107422,-26.1200008392334 C-82.17400360107422,-31.055999755859375 -78.17400360107422,-35.055999755859375 -73.23799896240234,-35.055999755859375 C-72.06600189208984,-35.055999755859375 -70.9489974975586,-34.82400131225586 -69.9229965209961,-34.41400146484375 C-67.302001953125,-38.03300094604492 -64.48899841308594,-41.571998596191406 -61.465999603271484,-44.999000549316406 C-62.47700119018555,-46.446998596191406 -63.07400131225586,-48.20399856567383 -63.07400131225586,-50.10300064086914 C-63.07400131225586,-55.03900146484375 -59.073001861572266,-59.040000915527344 -54.137001037597656,-59.040000915527344 C-52.231998443603516,-59.040000915527344 -50.47100067138672,-58.43899917602539 -49.020999908447266,-57.42300033569336 C-45.481998443603516,-60.53200149536133 -41.74300003051758,-63.50699996948242 -37.78499984741211,-66.31099700927734 C-38.11600112915039,-67.24400329589844 -38.30500030517578,-68.24299621582031 -38.30500030517578,-69.29000091552734 C-38.30500030517578,-74.22599792480469 -34.30400085449219,-78.22799682617188 -29.368000030517578,-78.22799682617188 C-26.836000442504883,-78.22799682617188 -24.55500030517578,-77.16999816894531 -22.92799949645996,-75.47799682617188 C-19.44700050354004,-77.33399963378906 -15.847000122070312,-79.08300018310547 -12.100000381469727,-80.69000244140625 C-12.12399959564209,-80.95800018310547 -12.140999794006348,-81.22699737548828 -12.140999794006348,-81.5 C-12.140999794006348,-86.43599700927734 -8.140000343322754,-90.43800354003906 -3.2039999961853027,-90.43800354003906 C-0.15000000596046448,-90.43800354003906 2.5429999828338623,-88.90299987792969 4.15500020980835,-86.56500244140625 C8.083000183105469,-87.73400115966797 12.126999855041504,-88.77799987792969 16.305999755859375,-89.66799926757812 C16.474000930786133,-94.45500183105469 20.39900016784668,-98.28600311279297 25.226999282836914,-98.28600311279297 C29.079999923706055,-98.28600311279297 32.35300064086914,-95.84400177001953 33.608001708984375,-92.4260025024414 C38.60200119018555,-92.96700286865234 43.750999450683594,-93.31700134277344 49.060001373291016,-93.45700073242188 C50.097999572753906,-97.24400329589844 53.55500030517578,-100.02999877929688 57.67100143432617,-100.02999877929688 C62.606998443603516,-100.02999877929688 66.60800170898438,-96.02999877929688 66.60800170898438,-91.09500122070312 C66.60800170898438,-86.15899658203125 62.606998443603516,-82.15799713134766 57.67100143432617,-82.15799713134766z"></path></g></g></g></svg>