<svg xmlns="http://www.w3.org/2000/svg" xmlns:xlink="http://www.w3.org/1999/xlink" viewBox="0 0 512 512" width="512" height="512" style="width: 100%; height: 100%; transform: translate3d(0,0,0);" preserveAspectRatio="xMidYMid meet"><defs><clipPath id="__lottie_element_52716"><rect width="512" height="512" x="0" y="0"></rect></clipPath></defs><g clip-path="url(#__lottie_element_52716)"><g style="display: block;" transform="matrix(1,0,0,1,0,0)" opacity="1"><g opacity="1" transform="matrix(1,0,0,1,252.30999755859375,248.5)"><path fill="rgb(0,0,0)" fill-opacity="1" d=" M131.35899353027344,-59.5 C187.68899536132812,-95.5 234.38999938964844,-59.720001220703125 233.35899353027344,-71.5 C223.68899536132812,-181.5 59.68899917602539,-265.5 -105.64099884033203,-147.5 C-291.6700134277344,-14.729999542236328 -231.6009979248047,205.24099731445312 -105.64099884033203,226.5 C24.68899917602539,248.5 54.569000244140625,147.16099548339844 82.35900115966797,132.5 C112.68900299072266,116.5 230.68899536132812,147.5 240.35899353027344,48.5 C252.30999755859375,-73.91999816894531 123.14900207519531,-54.25899887084961 131.35899353027344,-59.5z M-139.00100708007812,56.720001220703125 C-156.8800048828125,61.27000045776367 -155.06100463867188,78.62000274658203 -173.00100708007812,71.62000274658203 C-186.50100708007812,66.3499984741211 -193.18099975585938,51.130001068115234 -187.89999389648438,37.619998931884766 C-182.6300048828125,24.1200008392334 -167.41099548339844,17.44099998474121 -153.89999389648438,22.719999313354492 C-140.39999389648438,27.990999221801758 -124.95099639892578,53.130001068115234 -139.00100708007812,56.720001220703125z M-103.81099700927734,186 C-120.6500015258789,186 -134.31100463867188,174.25 -134.31100463867188,159.75 C-134.31100463867188,145.25 -120.6500015258789,133.5 -103.81099700927734,133.5 C-86.97100067138672,133.5 -73.31099700927734,145.25 -73.31099700927734,159.75 C-73.31099700927734,174.25 -86.97100067138672,186 -103.81099700927734,186z M-105.31999969482422,-38.060001373291016 C-116.73100280761719,-49.959999084472656 -134.31100463867188,-33.099998474121094 -134.31100463867188,-68.77999877929688 C-134.31100463867188,-85.75 -121.33100128173828,-99.5 -105.31999969482422,-99.5 C-89.31099700927734,-99.5 -78.27999877929688,-86.33000183105469 -74.12100219726562,-69.94999694824219 C-69.1500015258789,-50.3390007019043 -87.93099975585938,-19.90999984741211 -105.31999969482422,-38.060001373291016z M14.439000129699707,-109.58899688720703 C1.7690000534057617,-102.2699966430664 -15.340999603271484,-108.16000366210938 -23.76099967956543,-122.75 C-32.180999755859375,-137.33900451660156 -28.731000900268555,-155.10000610351562 -16.06100082397461,-162.41000366210938 C-3.3910000324249268,-169.72999572753906 13.720000267028809,-163.83900451660156 22.139999389648438,-149.25 C30.559999465942383,-134.66000366210938 27.108999252319336,-116.9000015258789 14.439000129699707,-109.58899688720703z M132.93899536132812,-150 C147.43899536132812,-150 159.18899536132812,-138.25 159.18899536132812,-123.75 C159.18899536132812,-109.25 147.43899536132812,-97.5 132.93899536132812,-97.5 C118.43900299072266,-97.5 106.68900299072266,-109.25 106.68900299072266,-123.75 C106.68900299072266,-138.25 118.43900299072266,-150 132.93899536132812,-150z M119.28900146484375,78.88999938964844 C87.58999633789062,93.37999725341797 55.84000015258789,95.5199966430664 45.91999816894531,73.80999755859375 C35.999000549316406,52.099998474121094 51.659000396728516,14.75 83.35900115966797,0.25999999046325684 C115.05999755859375,-14.229999542236328 150.80999755859375,-0.3700000047683716 160.72900390625,21.34000015258789 C170.6490020751953,43.04999923706055 150.98899841308594,64.4010009765625 119.28900146484375,78.88999938964844z"></path></g></g></g></svg>