<svg xmlns="http://www.w3.org/2000/svg" xmlns:xlink="http://www.w3.org/1999/xlink" viewBox="0 0 512 512" width="512" height="512" style="width: 100%; height: 100%; transform: translate3d(0,0,0);" preserveAspectRatio="xMidYMid meet"><defs><clipPath id="__lottie_element_27244"><rect width="512" height="512" x="0" y="0"></rect></clipPath></defs><g clip-path="url(#__lottie_element_27244)"><g style="display: block;" transform="matrix(1,0,0,1,256,254.68299865722656)" opacity="1"><g opacity="1" transform="matrix(1,0,0,1,0,0)"><path fill="rgb(0,0,0)" fill-opacity="1" d=" M177.53799438476562,-161.36599731445312 C150.28700256347656,-164.072998046875 120.0530014038086,-143.9530029296875 101.33200073242188,-126.41600036621094 C106.59700012207031,-151.9340057373047 107.78800201416016,-185.4499969482422 92.81900024414062,-206.96499633789062 C62.28499984741211,-250.8509979248047 1.2100000381469727,-250.13099670410156 -2.490000009536743,-242.15199279785156 C-6.190000057220459,-234.17300415039062 43.93000030517578,-213.78700256347656 43.93000030517578,-213.78700256347656 C43.93000030517578,-213.78700256347656 24.03499984741211,-217.34800720214844 25.604000091552734,-205.95700073242188 C27.17300033569336,-194.5659942626953 71.05599975585938,-180.85400390625 71.05599975585938,-180.85400390625 C71.05599975585938,-180.85400390625 52.849998474121094,-186.44000244140625 53.284000396728516,-172.80299377441406 C53.630001068115234,-161.9219970703125 71.94200134277344,-153.44000244140625 80.80000305175781,-123.00299835205078 C62.39500045776367,-147.593994140625 23.81599998474121,-184.11599731445312 -13.942000389099121,-184.43099975585938 C-75.60399627685547,-184.94500732421875 -115.63700103759766,-126.97799682617188 -110.59300231933594,-118.177001953125 C-105.54900360107422,-109.3759994506836 -52.95100021362305,-142.96200561523438 -52.95100021362305,-142.96200561523438 C-52.95100021362305,-142.96200561523438 -69.56400299072266,-126.61000061035156 -57.797000885009766,-120.49400329589844 C-46.029998779296875,-114.37799835205078 -3.871000051498413,-146.54100036621094 -3.871000051498413,-146.54100036621094 C-3.871000051498413,-146.54100036621094 -21.266000747680664,-133.12899780273438 -8.140999794006348,-124.447998046875 C3.1459999084472656,-116.98300170898438 25.718000411987305,-131.01300048828125 65.39299774169922,-113.91799926757812 C37.167999267578125,-118.35900115966797 -4.169000148773193,-117.96800231933594 -27.756999969482422,-97.94300079345703 C-70.95600128173828,-61.26900100708008 -63.9900016784668,3.0940001010894775 -55.19599914550781,6.186999797821045 C-46.402000427246094,9.279999732971191 -29.98699951171875,-45.67100143432617 -29.98699951171875,-45.67100143432617 C-29.98699951171875,-45.67100143432617 -31.722000122070312,-24.31999969482422 -19.86400032043457,-27.131999969482422 C-8.005999565124512,-29.944000244140625 2.002000093460083,-77.63600158691406 2.002000093460083,-77.63600158691406 C2.002000093460083,-77.63600158691406 -2.0420000553131104,-57.86000061035156 12.300999641418457,-59.70399856567383 C24.062000274658203,-61.215999603271484 31.229000091552734,-82.48400115966797 64.6989974975586,-94.80599975585938 C-14.416999816894531,-11.559000015258789 -40.448001861572266,144.2760009765625 -45.43299865722656,179.406005859375 C-50.29199981689453,180.63499450683594 -55.29100036621094,182.08900451660156 -60.43600082397461,183.79600524902344 C-62.03200149536133,184.3260040283203 -63.573001861572266,184.86399841308594 -65.07599639892578,185.40699768066406 C-86.0530014038086,115.69499969482422 -118.21499633789062,75.15399932861328 -134.95700073242188,57.62699890136719 C-132.58700561523438,57.801998138427734 -129.95799255371094,58.13600158691406 -127.11100006103516,58.7130012512207 C-106.10199737548828,62.96900177001953 -89.72000122070312,76.83399963378906 -79.677001953125,87.71600341796875 C-79.13700103759766,88.3010025024414 -78.30400085449219,88.51100158691406 -77.55000305175781,88.24800109863281 C-76.7979965209961,87.98600006103516 -76.27200317382812,87.30400085449219 -76.21299743652344,86.51000213623047 C-76.11799621582031,85.24700164794922 -74.08899688720703,55.41400146484375 -91.71800231933594,40.79399871826172 C-99.50599670410156,34.334999084472656 -109.84200286865234,31.934999465942383 -122.53199768066406,33.62300109863281 C-112.23999786376953,27.892000198364258 -91.76300048828125,20.152000427246094 -60.375999450683594,24.233999252319336 C-59.5620002746582,24.332000732421875 -58.763999938964844,23.937000274658203 -58.367000579833984,23.218000411987305 C-57.970001220703125,22.49799919128418 -58.053001403808594,21.608999252319336 -58.57699966430664,20.97599983215332 C-58.8129997253418,20.690000534057617 -64.46800231933594,13.902999877929688 -73.3740005493164,7.429999828338623 C-85.31300354003906,-1.246999979019165 -97.38700103759766,-5.09499979019165 -108.28900146484375,-3.700000047683716 C-122.3550033569336,-1.8990000486373901 -134.5780029296875,8.295999526977539 -144.69700622558594,26.639999389648438 C-143.8489990234375,15.418999671936035 -139.74600219726562,-4.682000160217285 -122.16500091552734,-18.398000717163086 C-121.52200317382812,-18.900999069213867 -121.24800109863281,-19.743999481201172 -121.4739990234375,-20.52899932861328 C-121.69999694824219,-21.312999725341797 -122.37999725341797,-21.881000518798828 -123.19200134277344,-21.964000701904297 C-123.45099639892578,-21.989999771118164 -129.63600158691406,-22.600000381469727 -137.22799682617188,-21.39699935913086 C-147.468994140625,-19.774999618530273 -155.33999633789062,-15.57699966430664 -159.98800659179688,-9.258999824523926 C-165.89599609375,-1.2289999723434448 -166.76600646972656,10.043000221252441 -162.60899353027344,24.341999053955078 C-170.20399475097656,15.98799991607666 -182.84800720214844,5.230999946594238 -198.4219970703125,3.9240000247955322 C-211.96299743652344,2.7890000343322754 -225.01699829101562,9.0600004196167 -237.24000549316406,22.56599998474121 C-237.77099609375,23.152000427246094 -237.906005859375,23.996000289916992 -237.5850067138672,24.7189998626709 C-237.26400756835938,25.44300079345703 -236.54800415039062,25.908000946044922 -235.75799560546875,25.908000946044922 C-235.35000610351562,25.908000946044922 -199.6909942626953,26.065000534057617 -180.67100524902344,37.44200134277344 C-191.177001953125,35.698001861572266 -209.19900512695312,34.97100067138672 -224.67300415039062,45.62900161743164 C-241.35899353027344,57.124000549316406 -250.4709930419922,78.73899841308594 -251.7530059814453,109.8759994506836 C-251.78900146484375,110.75800323486328 -251.24400329589844,111.55799865722656 -250.41000366210938,111.84700012207031 C-249.5760040283203,112.13500213623047 -248.6510009765625,111.84500122070312 -248.13400268554688,111.12999725341797 C-247.8699951171875,110.76499938964844 -222.86399841308594,76.7300033569336 -183.2310028076172,65.55699920654297 C-188.89999389648438,71.27799987792969 -196.30099487304688,81.1449966430664 -196.1479949951172,93.56900024414062 C-195.97799682617188,107.375 -186.5070037841797,120.58599853515625 -167.99899291992188,132.83599853515625 C-167.6649932861328,133.0570068359375 -167.281005859375,133.16799926757812 -166.89500427246094,133.16799926757812 C-166.55499267578125,133.16799926757812 -166.21400451660156,133.08099365234375 -165.90699768066406,132.906005859375 C-165.2519989013672,132.53399658203125 -164.86099243164062,131.8260040283203 -164.89700317382812,131.072998046875 C-164.9199981689453,130.58200073242188 -166.71400451660156,89.00299835205078 -154.9550018310547,67.26799774169922 C-121.77999877929688,121.23699951171875 -115.54299926757812,175.5749969482422 -115.10399627685547,205.98899841308594 C-127.11299896240234,209.36700439453125 -141.59300231933594,211.16099548339844 -162.5959930419922,209.8679962158203 C-165.49899291992188,209.6909942626953 -166.8979949951172,211.18299865722656 -167.4739990234375,212.08799743652344 C-168.05299377441406,212.9980010986328 -168.81500244140625,214.90899658203125 -167.4080047607422,217.4929962158203 C-163.14599609375,225.31900024414062 -131.21499633789062,246.0489959716797 -84.55500030517578,246.36099243164062 C-83.99299621582031,246.36500549316406 -83.43900299072266,246.36700439453125 -82.88899993896484,246.36700439453125 C-59.2760009765625,246.36700439453125 -46.3489990234375,242.93099975585938 -32.68199920654297,239.2969970703125 C-17.110000610351562,235.15699768066406 -1.0089999437332153,230.87600708007812 33.632999420166016,231.76100158691406 C57.18199920654297,232.36199951171875 76.40599822998047,238.63999938964844 87.89199829101562,242.39300537109375 C96.89600372314453,245.33399963378906 100.62300109863281,246.55299377441406 103.28399658203125,243.88999938964844 C103.91600036621094,243.25799560546875 105.28500366210938,241.47900390625 104.34700012207031,238.60699462890625 C99.177001953125,222.76800537109375 81.87300109863281,200.68499755859375 54.869998931884766,187.05499267578125 C47.34199905395508,183.2550048828125 38.0629997253418,179.63800048828125 27.04800033569336,177.15499877929688 C27.886999130249023,24.145999908447266 66.24299621582031,-54.935001373291016 88.13899993896484,-87.65899658203125 C101.99800109863281,-39.62699890136719 82.03099822998047,-16.75200080871582 88.40599822998047,-2.990999937057495 C95.64099884033203,12.628000259399414 113,-3.9839999675750732 113,-3.9839999675750732 C113,-3.9839999675750732 71.2979965209961,36.33300018310547 75.98200225830078,50.0620002746582 C80.66600036621094,63.79100036621094 101.07599639892578,48.507999420166016 101.07599639892578,48.507999420166016 C101.07599639892578,48.507999420166016 56.12300109863281,99.87999725341797 64.81400299072266,106.77899932861328 C73.50399780273438,113.677001953125 142.76300048828125,79.89399719238281 152.32400512695312,13.12399959564209 C157.86199951171875,-25.551000595092773 128.48199462890625,-70.33999633789062 105.33499908447266,-95.33300018310547 C146.29600524902344,-70.28399658203125 146.0800018310547,-41.4630012512207 159.02200317382812,-35.7239990234375 C173.40699768066406,-29.344999313354492 175.33399963378906,-51.22600173950195 175.33399963378906,-51.22600173950195 C175.33399963378906,-51.22600173950195 170.95399475097656,1.621000051498413 182.44700622558594,8.23799991607666 C193.94000244140625,14.854999542236328 198.76499938964844,-7.951000213623047 198.76499938964844,-7.951000213623047 C198.76499938964844,-7.951000213623047 198.81199645996094,54.45600128173828 208.94400024414062,53.9630012512207 C219.0760040283203,53.470001220703125 246.33700561523438,-11.489999771118164 212.6790008544922,-63.15800094604492 C190.99000549316406,-96.4520034790039 135.03500366210938,-108.90699768066406 105.25399780273438,-110.13899993896484 C139.91200256347656,-121.12100219726562 157.42599487304688,-107.34300231933594 167.44700622558594,-112.52300262451172 C179.01600646972656,-118.50299835205078 165.89300537109375,-131.08099365234375 165.89300537109375,-131.08099365234375 C165.89300537109375,-131.08099365234375 197.7310028076172,-100.87699890136719 207.95599365234375,-104.86699676513672 C218.18099975585938,-108.85600280761719 205.96099853515625,-123.78500366210938 205.96099853515625,-123.78500366210938 C205.96099853515625,-123.78500366210938 246.26400756835938,-91.48500061035156 251.19400024414062,-98.27999877929688 C256.1239929199219,-105.07499694824219 228.3209991455078,-156.32200622558594 177.53799438476562,-161.36599731445312z"></path></g></g></g></svg>