<svg xmlns="http://www.w3.org/2000/svg" xmlns:xlink="http://www.w3.org/1999/xlink" viewBox="0 0 512 512" width="512" height="512" style="width: 100%; height: 100%; transform: translate3d(0,0,0);" preserveAspectRatio="xMidYMid meet"><defs><clipPath id="__lottie_element_15906"><rect width="512" height="512" x="0" y="0"></rect></clipPath></defs><g clip-path="url(#__lottie_element_15906)"><g style="display: block;" transform="matrix(1.0199999809265137,0,0,1.0199999809265137,-2.856292724609375,-5.9514923095703125)" opacity="1"><g opacity="1" transform="matrix(1,0,0,1,245.31500244140625,250.4250030517578)"><path fill="rgb(0,0,0)" fill-opacity="1" d=" M200.77499389648438,-37.20500183105469 C196.27499389648438,-55.20500183105469 240.31500244140625,-98.09500122070312 191.06500244140625,-150.00599670410156 C135.56500244140625,-208.50599670410156 90.74600219726562,-166.3249969482422 77.07599639892578,-172.50599670410156 C66.13500213623047,-177.44500732421875 51.57600021362305,-214.50599670410156 6.574999809265137,-229.50599670410156 C-55.44499969482422,-250.1750030517578 -125.91500091552734,-204.00599670410156 -124.41500091552734,-184.50599670410156 C-123.90499877929688,-177.88499450683594 -63.96500015258789,-188.52499389648438 -35.42499923706055,-181.50599670410156 C7.235000133514404,-171.00599670410156 30.20599937438965,-121.9749984741211 21.576000213623047,-111.00599670410156 C8.045000076293945,-93.79499816894531 -50.42499923706055,-196.50599670410156 -159.9149932861328,-151.50599670410156 C-210.7550048828125,-130.61500549316406 -245.06500244140625,-34.03499984741211 -195.38499450683594,8.0649995803833 C-185.84500122070312,16.135000228881836 -65.42500305175781,-24.014999389648438 -71.42500305175781,8.984999656677246 C-73.8949966430664,22.604999542236328 -161.4149932861328,14.984999656677246 -181.30499267578125,39.60499954223633 C-202.73500061035156,66.13500213623047 -214.55499267578125,117.73500061035156 -194.9149932861328,154.97500610351562 C-165.9149932861328,209.97500610351562 -105.1050033569336,188.3249969482422 -78.91500091552734,199.47500610351562 C-54.14500045776367,210.03500366210938 -43.92499923706055,249.47500610351562 2.575000047683716,249.47500610351562 C54.57600021362305,249.47500610351562 89.06500244140625,229.80499267578125 96.57599639892578,194.97500610351562 C113.7750015258789,115.09500122070312 31.576000213623047,54.98500061035156 45.07600021362305,38.48500061035156 C49.86600112915039,32.624000549316406 78.11599731445312,46.78499984741211 99.57599639892578,82.48500061035156 C120.33499908447266,117.03500366210938 120.07599639892578,148.34500122070312 134.7550048828125,155.21499633789062 C162.55499267578125,168.22500610351562 245.06500244140625,133.7550048828125 245.06500244140625,67.48500061035156 C245.06500244140625,-1.5149999856948853 205.88499450683594,-16.78499984741211 200.77499389648438,-37.20500183105469z M12.654999732971191,-32.55500030517578 C25.95599937438965,-32.55500030517578 36.73500061035156,-21.764999389648438 36.73500061035156,-8.46500015258789 C36.73500061035156,4.824999809265137 25.95599937438965,15.614999771118164 12.654999732971191,15.614999771118164 C-0.6449999809265137,15.614999771118164 -11.425000190734863,4.824999809265137 -11.425000190734863,-8.46500015258789 C-11.425000190734863,-21.764999389648438 -0.6449999809265137,-32.55500030517578 12.654999732971191,-32.55500030517578z M-126.91500091552734,-53.51499938964844 C-126.91500091552734,-98.50599670410156 -82.90499877929688,-133.00599670410156 -39.92499923706055,-113.50599670410156 C-28.075000762939453,-108.13500213623047 -15.975000381469727,-82.42500305175781 -24.924999237060547,-77.01499938964844 C-34.67499923706055,-71.1050033569336 -54.64500045776367,-83.3949966430664 -60.92499923706055,-78.01499938964844 C-67.91500091552734,-72.01499938964844 -42.92499923706055,-52.01499938964844 -54.42499923706055,-42.01499938964844 C-66.13500213623047,-31.825000762939453 -126.91500091552734,-42.01499938964844 -126.91500091552734,-53.51499938964844z M33.07600021362305,146.97500610351562 C-1.2450000047683716,173.18499755859375 -29.0049991607666,128.97500610351562 -45.92499923706055,122.9749984741211 C-74.28500366210938,112.92500305175781 -122.5250015258789,110.98500061035156 -122.41500091552734,77.98500061035156 C-122.28500366210938,38.525001525878906 -52.73500061035156,30.583999633789062 -44.42499923706055,41.98500061035156 C-39.494998931884766,48.724998474121094 -56.435001373291016,67.07499694824219 -50.42499923706055,73.48500061035156 C-45.17499923706055,79.07499694824219 -30.655000686645508,66.83399963378906 -18.924999237060547,73.48500061035156 C-7.84499979019165,79.75499725341797 -9.274999618530273,97.18499755859375 -3.924999952316284,97.48500061035156 C2.634999990463257,97.84500122070312 4.525000095367432,71.61499786376953 12.576000213623047,70.48500061035156 C25.125999450683594,68.71499633789062 60.57600021362305,125.9749984741211 33.07600021362305,146.97500610351562z M185.35499572753906,-10.484999656677246 C181.44500732421875,34.345001220703125 178.47500610351562,73.81500244140625 132.91600036621094,61.48500061035156 C120.3550033569336,58.08399963378906 77.1259994506836,17.124000549316406 85.08499908447266,10.345000267028809 C93.76499938964844,2.944999933242798 132.97500610351562,13.005000114440918 139.03599548339844,7.375 C155.06500244140625,-7.514999866485596 96.83499908447266,-15.225000381469727 106.57599639892578,-26.94499969482422 C116.49600219726562,-38.875 187.14500427246094,-31.006000518798828 185.35499572753906,-10.484999656677246z"></path></g></g></g></svg>