<svg xmlns="http://www.w3.org/2000/svg" xmlns:xlink="http://www.w3.org/1999/xlink" viewBox="0 0 512 512" width="512" height="512" style="width: 100%; height: 100%; transform: translate3d(0,0,0);" preserveAspectRatio="xMidYMid meet"><defs><clipPath id="__lottie_element_669"><rect width="512" height="512" x="0" y="0"></rect></clipPath></defs><g clip-path="url(#__lottie_element_669)"><g style="display: block;" transform="matrix(1,0,0,1,19.414993286132812,5.621002197265625)" opacity="1"><g opacity="1" transform="matrix(1,0,0,1,236.5850067138672,250.8800048828125)"><path fill="rgb(0,0,0)" fill-opacity="1" d=" M234.52999877929688,30.006999969482422 C232.72500610351562,1.6080000400543213 201.6060028076172,-28.284000396728516 185.57899475097656,-27.93400001525879 C182.0800018310547,-27.85700035095215 178.54299926757812,-27.01300048828125 175.0229949951172,-25.56800079345703 C175.697998046875,-30.836000442504883 177.2689971923828,-37.8380012512207 178.91299438476562,-45.15399932861328 C185.61900329589844,-74.99099731445312 195.7530059814453,-120.0790023803711 172.86500549316406,-160.9510040283203 C143.29600524902344,-213.7530059814453 72.21099853515625,-250.6300048828125 0.0010000000474974513,-250.6300048828125 C-72.21099853515625,-250.6300048828125 -143.29600524902344,-213.7530059814453 -172.86300659179688,-160.9510040283203 C-195.75100708007812,-120.0790023803711 -185.61900329589844,-74.99099731445312 -178.91299438476562,-45.15399932861328 C-177.26499938964844,-37.823001861572266 -175.6909942626953,-30.80500030517578 -175.01800537109375,-25.53499984741211 C-178.54100036621094,-26.983999252319336 -182.07899475097656,-27.85700035095215 -185.57899475097656,-27.93400001525879 C-201.6060028076172,-28.284000396728516 -232.72500610351562,1.6080000400543213 -234.5290069580078,30.006999969482422 C-236.33399963378906,58.40700149536133 -189.0800018310547,104.48100280761719 -170.24000549316406,104.08899688720703 C-168.34500122070312,104.04900360107422 -166.38299560546875,103.677001953125 -164.38900756835938,103.0739974975586 C-163.1719970703125,119.23899841308594 -161.49600219726562,135.5279998779297 -156.09800720214844,149.18099975585938 C-146.1219940185547,174.41299438476562 -115.56800079345703,197.04600524902344 -100.88400268554688,207.92100524902344 C-100.88400268554688,207.92100524902344 -100.58599853515625,208.14300537109375 -100.58599853515625,208.14300537109375 C-97.13400268554688,210.69900512695312 -93.2229995727539,213.64999389648438 -89.14700317382812,216.7259979248047 C-76.45800018310547,226.2989959716797 -63.3380012512207,236.19700622558594 -55.222999572753906,241.06500244140625 C-44.347999572753906,247.5919952392578 -26.799999237060547,250.6300048828125 0.0010000000474974513,250.6300048828125 C26.799999237060547,250.6300048828125 44.34700012207031,247.5919952392578 55.22100067138672,241.06700134277344 C63.3380012512207,236.19700622558594 76.45899963378906,226.2989959716797 89.14600372314453,216.7259979248047 C93.2229995727539,213.64999389648438 97.13500213623047,210.69900512695312 100.58699798583984,208.14300537109375 C100.58699798583984,208.14300537109375 100.88500213623047,207.92100524902344 100.88500213623047,207.92100524902344 C115.56800079345703,197.04600524902344 146.1230010986328,174.41299438476562 156.09800720214844,149.18099975585938 C161.49600219726562,135.52699279785156 163.17300415039062,119.23699951171875 164.38900756835938,103.07099914550781 C166.3820037841797,103.67400360107422 168.3459930419922,104.04900360107422 170.24099731445312,104.08899688720703 C189.08099365234375,104.48100280761719 236.3350067138672,58.40700149536133 234.52999877929688,30.006999969482422z M47.28200149536133,186.822998046875 C37.7400016784668,186.822998046875 25.457000732421875,182.13299560546875 0.0010000000474974513,182.13299560546875 C-25.45599937438965,182.13299560546875 -37.7400016784668,186.822998046875 -47.279998779296875,186.822998046875 C-63.09199905395508,186.822998046875 -63.80500030517578,166.5019989013672 -70.73400115966797,152.0850067138672 C-70.50700378417969,140.5780029296875 -71.18299865722656,128.54400634765625 -68.33100128173828,126.53099822998047 C-66.4010009765625,125.16799926757812 -62.79899978637695,122.68199920654297 -58.40299987792969,119.81900024414062 C-58.03300094604492,123.28299713134766 -55.73400115966797,127.33499908447266 -53.31800079345703,126.88899993896484 C-35.7400016784668,123.63600158691406 -18.868000030517578,121.88700103759766 -16.04800033569336,122.23400115966797 C-12.315999984741211,122.69400024414062 -4.85099983215332,128.20399475097656 0.0010000000474974513,128.20399475097656 C4.853000164031982,128.20399475097656 12.3149995803833,122.69400024414062 16.04800033569336,122.23400115966797 C18.867000579833984,121.88700103759766 35.74100112915039,123.63600158691406 53.31800079345703,126.88899993896484 C55.69599914550781,127.3280029296875 57.95800018310547,123.30599975585938 58.38399887084961,119.80699920654297 C62.78799819946289,122.67500305175781 66.39900207519531,125.16699981689453 68.33200073242188,126.53099822998047 C70.77999877929688,128.25900268554688 71.4020004272461,138.1009979248047 72.00499725341797,148.4219970703125 C62.97200012207031,162.1580047607422 64.27100372314453,186.822998046875 47.28200149536133,186.822998046875z M156.30099487304688,18.288000106811523 C155.35899353027344,23.9689998626709 152.0240020751953,30.579999923706055 147.1540069580078,36.595001220703125 C139.1739959716797,46.404998779296875 127.40899658203125,56.52299880981445 117.46600341796875,66.0530014038086 C117.08699798583984,66.43499755859375 116.78099822998047,66.7300033569336 116.53900146484375,66.9469985961914 C109.927001953125,73.33599853515625 104.21299743652344,79.4469985961914 101.14199829101562,84.99600219726562 C97.3030014038086,91.93399810791016 96.87899780273438,107.06400299072266 95.71900177001953,125.18099975585938 C93.33699798583984,129.15499877929688 89.89600372314453,133.36099243164062 84.5770034790039,137.6300048828125 C83.05899810791016,122.07599639892578 79.17400360107422,106.72599792480469 75.28199768066406,103 C73.19000244140625,100.99700164794922 63.3120002746582,99.83399963378906 58.41999816894531,97.27300262451172 C48.98099899291992,92.33200073242188 41.60200119018555,87.71199798583984 32.39899826049805,83.65399932861328 C42.28900146484375,79.03800201416016 50.27000045776367,72.69200134277344 50.78799819946289,65.23300170898438 C51.672000885009766,52.518001556396484 45.13100051879883,47.86899948120117 41.53499984741211,49.82600021362305 C39.16299819946289,51.117000579833984 41.53499984741211,62.21900177001953 33.83100128173828,64.22899627685547 C26.12700080871582,66.23899841308594 18.08799934387207,70.927001953125 0.0010000000474974513,70.927001953125 C-18.086999893188477,70.927001953125 -26.125999450683594,66.23899841308594 -33.83000183105469,64.22899627685547 C-41.534000396728516,62.21900177001953 -39.13800048828125,51.069000244140625 -41.53499984741211,49.82600021362305 C-45.30799865722656,47.86899948120117 -50.03300094604492,52.50899887084961 -50.7869987487793,65.23300170898438 C-51.24599838256836,72.97699737548828 -43.2140007019043,79.36599731445312 -33.02000045776367,83.93399810791016 C-41.93299865722656,87.92400360107422 -49.19499969482422,92.44499969482422 -58.41899871826172,97.27300262451172 C-63.31100082397461,99.83399963378906 -73.18900299072266,100.99700164794922 -75.28099822998047,103 C-78.78900146484375,106.35700225830078 -83.12999725341797,120.39600372314453 -85.47899627685547,135.156005859375 C-90.60199737548828,129.22999572753906 -93.55699920654297,123.1969985961914 -96.17400360107422,117.76300048828125 C-97.06500244140625,102.98899841308594 -97.83999633789062,90.96199798583984 -101.14099884033203,84.99600219726562 C-104.21199798583984,79.4469985961914 -109.9260025024414,73.33599853515625 -116.53600311279297,66.947998046875 C-116.77899932861328,66.73100280761719 -117.08799743652344,66.43599700927734 -117.46900177001953,66.052001953125 C-127.41300201416016,56.52199935913086 -142.86199951171875,41.73099899291992 -147.1540069580078,36.595001220703125 C-151.44700622558594,31.458999633789062 -155.35800170898438,23.9689998626709 -156.30099487304688,18.288000106811523 C-159.1959991455078,0.8299999833106995 -154.4530029296875,-4.951000213623047 -150.4340057373047,-20.347999572753906 C-147.19000244140625,-32.77199935913086 -151.47799682617188,-53.499000549316406 -144.19700622558594,-77.8030014038086 C-144.197998046875,-77.81199645996094 -144.197998046875,-77.822998046875 -144.19900512695312,-77.83200073242188 C-142.77099609375,-82.75599670410156 -141.20199584960938,-86.59500122070312 -139.72500610351562,-89.75399780273438 C-139.62899780273438,-89.96499633789062 -139.52499389648438,-90.17900085449219 -139.427001953125,-90.39099884033203 C-139.31500244140625,-90.625 -139.20399475097656,-90.86499786376953 -139.093994140625,-91.09200286865234 C-138.3560028076172,-92.65399932861328 -137.5780029296875,-94.2239990234375 -136.72300720214844,-95.80699920654297 C-136.72300720214844,-95.80699920654297 -136.72000122070312,-95.78199768066406 -136.7169952392578,-95.73799896240234 C-134.47500610351562,-100.02899932861328 -133.16099548339844,-102.79299926757812 -134.3179931640625,-106.26300048828125 C-141.80599975585938,-128.7270050048828 -133.15899658203125,-160.93499755859375 -114.22000122070312,-171.03500366210938 C-84.072998046875,-187.11300659179688 -40.36199951171875,-164.5050048828125 0.0010000000474974513,-164.5050048828125 C40.362998962402344,-164.5050048828125 84.072998046875,-187.11300659179688 114.22000122070312,-171.03500366210938 C133.1580047607422,-160.93499755859375 141.80599975585938,-128.7270050048828 134.3179931640625,-106.26300048828125 C133.1540069580078,-102.77400207519531 134.51300048828125,-99.16899871826172 136.7209930419922,-93.62000274658203 C136.7209930419922,-93.62200164794922 136.7239990234375,-93.63400268554688 136.7239990234375,-93.63400268554688 C153.97500610351562,-61.72600173950195 146.41299438476562,-35.74599838256836 150.4340057373047,-20.347999572753906 C154.4530029296875,-4.951000213623047 159.19700622558594,0.8299999833106995 156.30099487304688,18.288000106811523z"></path></g><g opacity="1" transform="matrix(1,0,0,1,316.9219970703125,232.67999267578125)"><path fill="rgb(0,0,0)" fill-opacity="1" d=" M-45.689998626708984,-0.6370000243186951 C-45.83599853515625,1.9589999914169312 -41.88100051879883,3.0199999809265137 -35.827999114990234,3.6730000972747803 C-36.22100067138672,5.732999801635742 -36.4370002746582,7.86899995803833 -36.4370002746582,10.067000389099121 C-36.4370002746582,26.6200008392334 -24.820999145507812,40.040000915527344 -10.493000030517578,40.040000915527344 C3.8359999656677246,40.040000915527344 15.451000213623047,26.6200008392334 15.451000213623047,10.067000389099121 C15.451000213623047,9.982000350952148 15.444000244140625,9.901000022888184 15.442999839782715,9.815999984741211 C23.312999725341797,10.87600040435791 28.145000457763672,11.107000350952148 28.815000534057617,9.550000190734863 C31.016000747680664,4.434999942779541 16.812000274658203,-5.889999866485596 -4.038000106811523,-9.619000434875488 C4.340000152587891,-10.590999603271484 12.550999641418457,-11.303000450134277 18.138999938964844,-11.02400016784668 C31.53700065612793,-10.354000091552734 42.92599868774414,-8.678999900817871 59.00400161743164,-2.1470000743865967 C57.32899856567383,-12.36299991607666 39.492000579833984,-36.689998626708984 31.452999114990234,-38.36399841308594 C23.413999557495117,-40.040000915527344 17.93000030517578,-34.57500076293945 4.196000099182129,-34.9109992980957 C-9.536999702453613,-35.244998931884766 -38.742000579833984,-37.04499816894531 -45.775001525878906,-35.70600128173828 C-52.810001373291016,-34.36600112915039 -56.32600021362305,-18.058000564575195 -59.005001068115234,-4.659999847412109 C-53.145999908447266,-5.63700008392334 -47.400001525878906,-5.546999931335449 -40.95800018310547,-5.684999942779541 C-43.900001525878906,-4.0320000648498535 -45.599998474121094,-2.2190001010894775 -45.689998626708984,-0.6370000243186951z"></path></g><g opacity="1" transform="matrix(1,0,0,1,155.57699584960938,232.67999267578125)"><path fill="rgb(0,0,0)" fill-opacity="1" d=" M4.052999973297119,-9.616999626159668 C-16.785999298095703,-5.834000110626221 -30.78499984741211,5.15500020980835 -28.81599998474121,9.550000190734863 C-27.878000259399414,11.642000198364258 -22.875,11.305000305175781 -14.73799991607666,10.027999877929688 C-14.73799991607666,10.041000366210938 -14.73900032043457,10.053000450134277 -14.73900032043457,10.065999984741211 C-14.73900032043457,26.6200008392334 -3.122999906539917,40.040000915527344 11.206000328063965,40.040000915527344 C25.534000396728516,40.040000915527344 37.150001525878906,26.6200008392334 37.150001525878906,10.065999984741211 C37.150001525878906,7.798999786376953 36.91699981689453,5.598999977111816 36.5,3.4790000915527344 C42.07099914550781,2.796999931335449 45.68899917602539,1.7309999465942383 45.68899917602539,-0.6370000243186951 C45.68899917602539,-2.2200000286102295 44.02899932861328,-4.031000137329102 41.09700012207031,-5.683000087738037 C47.481998443603516,-5.548999786376953 53.1879997253418,-5.629000186920166 59.005001068115234,-4.659999847412109 C56.32500076293945,-18.058000564575195 52.808998107910156,-34.36600112915039 45.775001525878906,-35.70600128173828 C38.74100112915039,-37.04600143432617 7.75600004196167,-35.244998931884766 -5.97599983215332,-34.9109992980957 C-19.709999084472656,-34.57500076293945 -25.194000244140625,-40.040000915527344 -33.233001708984375,-38.3650016784668 C-41.27299880981445,-36.689998626708984 -57.33000183105469,-12.36400032043457 -59.005001068115234,-2.1470000743865967 C-42.92599868774414,-8.680000305175781 -31.538000106811523,-10.354000091552734 -18.139999389648438,-11.02400016784668 C-12.54800033569336,-11.303000450134277 -4.330999851226807,-10.59000015258789 4.052999973297119,-9.616999626159668z"></path></g><g opacity="1" transform="matrix(1,0,0,1,235.93099975585938,277.1440124511719)"><path fill="rgb(0,0,0)" fill-opacity="1" d=" M-15.63700008392334,7.302999973297119 C-7.568999767303467,5.843999862670898 0.6399999856948853,5.5980000495910645 8.809000015258789,6.315999984741211 C11.541999816894531,6.585000038146973 14.279000282287598,6.928999900817871 17.024999618530273,7.322000026702881 C18.45400047302246,7.52400016784668 19.951000213623047,6.955999851226807 20.864999771118164,5.710000038146973 C22.190000534057617,3.9079999923706055 21.799999237060547,1.3700000047683716 19.996000289916992,0.04600000008940697 C9.539999961853027,-8.050999641418457 -6.4629998207092285,-8.065999984741211 -17.43199920654297,-0.9490000009536743 C-17.43199920654297,-0.9490000009536743 -18.7189998626709,-0.028999999165534973 -18.7189998626709,-0.028999999165534973 C-22.190000534057617,2.4130001068115234 -19.868999481201172,8.065999984741211 -15.63700008392334,7.302999973297119z"></path></g><g opacity="1" transform="matrix(1,0,0,1,235.29600524902344,404.39300537109375)"><path fill="rgb(0,0,0)" fill-opacity="1" d=" M-38.78200149536133,2.2260000705718994 C-35.60499954223633,8.84000015258789 -33.88800048828125,15.291999816894531 -31.53700065612793,18.069000244140625 C-27.851999282836914,22.423999786376953 -12.779999732971191,20.07900047302246 1.2890000343322754,20.07900047302246 C15.357000350952148,20.07900047302246 30.43000030517578,22.423999786376953 34.1150016784668,18.069000244140625 C36.52299880981445,15.223999977111816 38.26900100708008,8.52299976348877 41.597999572753906,1.7430000305175781 C46.465999603271484,-2.1110000610351562 50.624000549316406,-6.875 53.7239990234375,-12.640999794006348 C54.625999450683594,-14.201000213623047 55.48099899291992,-16.091999053955078 54.40800094604492,-17.851999282836914 C53.34199905395508,-19.746999740600586 50.94200134277344,-20.420000076293945 49.04600143432617,-19.354999542236328 C45.21900177001953,-17.207000732421875 41.48699951171875,-15.062999725341797 37.4640007019043,-13.4350004196167 C25.672000885009766,-8.244000434875488 12.930000305175781,-6.557000160217285 -0.0430000014603138,-6.735000133514404 C-17.650999069213867,-6.421999931335449 -33.88100051879883,-11.029999732971191 -48.97200012207031,-20.62700080871582 C-51.85300064086914,-22.423999786376953 -55.48099899291992,-19.15999984741211 -53.946998596191406,-16.086999893188477 C-50.60599899291992,-8.748000144958496 -45.24300003051758,-2.5510001182556152 -38.78200149536133,2.2260000705718994z"></path></g></g></g></svg>