<svg xmlns="http://www.w3.org/2000/svg" xmlns:xlink="http://www.w3.org/1999/xlink" viewBox="0 0 512 512" width="512" height="512" style="width: 100%; height: 100%; transform: translate3d(0,0,0);" preserveAspectRatio="xMidYMid meet"><defs><clipPath id="__lottie_element_51780"><rect width="512" height="512" x="0" y="0"></rect></clipPath></defs><g clip-path="url(#__lottie_element_51780)"><g style="display: block;" transform="matrix(1,0,0,1,257.1369934082031,262.11199951171875)" opacity="1"><g opacity="1" transform="matrix(1,0,0,1,6.179999828338623,40.422000885009766)"><path fill="rgb(0,0,0)" fill-opacity="1" d=" M0.014999999664723873,155.0659942626953 C-7.329999923706055,157.49899291992188 -15.300999641418457,157.16099548339844 -22.40399932861328,154.09300231933594 C-44.28300094604492,144.64300537109375 -91.59300231933594,122.67900085449219 -115.05999755859375,109.38899993896484 C-129.9929962158203,100.93199920654297 -139.32400512695312,88.56900024414062 -145.09800720214844,72.91000366210938 C-153.88900756835938,49.069000244140625 -213.51300048828125,-129.9810028076172 -217.82699584960938,-141.25100708007812 C-221.88800048828125,-151.85899353027344 -211.65699768066406,-159.8769989013672 -202.01199340820312,-155.41000366210938 C-189.93600463867188,-149.8179931640625 164.45599365234375,12.147000312805176 199.4720001220703,28.68199920654297 C202.38800048828125,30.05900001525879 205.26800537109375,31.534000396728516 208.0709991455078,33.12799835205078 C220.36500549316406,40.11899948120117 221.20799255371094,43.36000061035156 214.7989959716797,56.32099914550781 C210.6750030517578,64.66000366210938 205.58099365234375,72.36299896240234 200.625,80.20700073242188 C196.66000366210938,86.48300170898438 191.73199462890625,90.04000091552734 184.927001953125,92.37799835205078 C137.20799255371094,108.77300262451172 34.520999908447266,143.63400268554688 0.014999999664723873,155.0659942626953z"></path></g><g opacity="1" transform="matrix(1,0,0,1,182.30099487304688,-82.49199676513672)"><path fill="rgb(0,0,0)" fill-opacity="1" d=" M-69.24099731445312,-137.0240020751953 C-66.91600036621094,-147.0030059814453 -61.39500045776367,-150.5989990234375 -51.44200134277344,-147.65699768066406 C-43.35499954223633,-145.26699829101562 59.48699951171875,-102.47599792480469 64.80000305175781,-99.60900115966797 C68.1500015258789,-97.8010025024414 70.42400360107422,-94.81900024414062 69.36599731445312,-90.63600158691406 C68.46900177001953,-87.09200286865234 65.5989990234375,-85.35299682617188 62.28099822998047,-84.86100006103516 C55.50400161743164,-83.85600280761719 -1.5889999866485596,-79.37699890136719 -2.7750000953674316,-79.15899658203125 C-10.86400032043457,-77.66899871826172 -12.317000389099121,-75.77999877929688 -10.27400016784668,-67.66699981689453 C-5.3480000495910645,-48.10900115966797 40.82699966430664,125.31099700927734 44.349998474121094,134.33099365234375 C45.994998931884766,138.54299926757812 47.38600158691406,143.0540008544922 43.26599884033203,146.63400268554688 C39.25199890136719,150.12100219726562 34.90399932861328,148.42799377441406 30.80900001525879,146.47500610351562 C-0.2070000022649765,131.6790008544922 -29.746999740600586,114.31800079345703 -58.37099838256836,95.33599853515625 C-64.7239990234375,91.12300109863281 -67.14900207519531,84.93000030517578 -68.15699768066406,78.0199966430664 C-69.31999969482422,70.0459976196289 -70.1500015258789,-133.12100219726562 -69.24099731445312,-137.0240020751953z"></path></g><g opacity="1" transform="matrix(1,0,0,1,-0.621999979019165,-120.11299896240234)"><path fill="rgb(0,0,0)" fill-opacity="1" d=" M98.20700073242188,89.36699676513672 C98.95899963378906,116.84400177001953 95.30999755859375,119.97000122070312 73.87100219726562,112.0790023803711 C45.513999938964844,101.64199829101562 17.584999084472656,90.03800201416016 -10.538999557495117,78.96499633789062 C-16.86199951171875,76.47599792480469 -21.344999313354492,71.98899841308594 -24.43899917602539,66.11499786376953 C-28.944000244140625,57.56100082397461 -97.12300109863281,-99.9489974975586 -97.71900177001953,-102.27799987792969 C-100.26599884033203,-112.23300170898438 -94.14099884033203,-118.1510009765625 -84.25900268554688,-114.99400329589844 C-80.48300170898438,-113.78800201416016 46.25199890136719,-20.809999465942383 59.62799835205078,-11.130000114440918 C80.21099853515625,3.7639999389648438 88.71299743652344,20.83099937438965 93.41699981689453,48.82099914550781 C95.95099639892578,63.89500045776367 97.79299926757812,79.12000274658203 98.20700073242188,89.36699676513672z"></path></g><g opacity="1" transform="matrix(1,0,0,1,-145.09100341796875,190.73699951171875)"><path fill="rgb(0,0,0)" fill-opacity="1" d=" M-95.19200134277344,-45.11800003051758 C-70.7959976196289,-42.01300048828125 -31.042999267578125,-39.6619987487793 -6.64900016784668,-36.54800033569336 C-5.449999809265137,-36.39500045776367 87.11599731445312,-0.4729999899864197 98.70999908447266,6.025000095367432 C109.62999725341797,12.145000457763672 109.58399963378906,18.51099967956543 98.35199737548828,24.117000579833984 C80.65599822998047,32.94900131225586 62.150001525878906,39.900001525878906 42.86800003051758,44.641998291015625 C35.59400177001953,46.430999755859375 29.209999084472656,43.784000396728516 23.11199951171875,40.7760009765625 C3.5799999237060547,31.141000747680664 -99.50199890136719,-26.621999740600586 -101.71499633789062,-28.347999572753906 C-105.40499877929688,-31.22599983215332 -108.11100006103516,-34.83100128173828 -106.21900177001953,-39.80500030517578 C-104.2979965209961,-44.85599899291992 -99.95500183105469,-45.53900146484375 -95.19200134277344,-45.11800003051758z"></path></g></g></g></svg>