<svg xmlns="http://www.w3.org/2000/svg" xmlns:xlink="http://www.w3.org/1999/xlink" viewBox="0 0 512 512" width="512" height="512" style="width: 100%; height: 100%; transform: translate3d(0,0,0);" preserveAspectRatio="xMidYMid meet"><defs><clipPath id="__lottie_element_51255"><rect width="512" height="512" x="0" y="0"></rect></clipPath></defs><g clip-path="url(#__lottie_element_51255)"><g style="display: block;" transform="matrix(1,0,0,1,244.2010040283203,255.2550048828125)" opacity="1"><g opacity="1" transform="matrix(1,0,0,1,0,0)"><path fill="rgb(0,0,0)" fill-opacity="1" d=" M121.26,-204.67 C115.44,-198.54 82.3,-175.11 91.07,-168.1 C102.99,-163.98 136.51,-128.86 144.58,-142.98 C156.43,-159.51 182.25,-200.55 155.7,-209.9 C136.63,-216.12 128.06,-209.73 121.26,-204.67z M-9.59,77.52 C-3.22,77 0.27,79.99 4.31,81.17 C14.18,85.54 20.82,72.03 12.52,66.09 C4.61,58.96 -10.54,57.79 -6.46,43.17 C-4.42,35.68 -11.63,31.09 -17.27,36.22 C-32.69,48.24 -47.71,27.5 -63.09,23.98 C-65.98,22.62 -69.06,22.64 -71.03,25.74 C-73.16,40.57 -48.79,44.61 -42.11,56.1 C-40.93,62.57 -128.45,74.21 -99.12,84.89 C-92.57,89.69 -58.49,76.68 -57.18,84.11 C-55.42,92.25 -64.73,100.56 -72.44,98.1 C-87.35,97.3 -73.79,110.59 -76.33,118.43 C-78.75,141.38 -60.01,124.28 -48.7,127.83 C-45.41,129.11 -41.86,128.99 -39.53,125.55 C-35.29,116.77 -49.56,114.53 -40.15,103.75 C-27.45,74.63 -21.63,115.4 -14.69,127.09 C11.31,145.09 -6.56,94.36 -9.59,77.52z M79.89,-40.73 C80.28,-63.88 35.66,-70.59 18.37,-79.14 C6.36,-83.06 0.29,-80.39 -6.25,-69.5 C-15.14,-50.4 -48.02,-24.82 -40.25,-11.03 C-37.44,-6.95 -32.74,-5.88 -28.86,-7.81 C-12.75,-14.73 0.41,-0.14 14.64,5.07 C32.2,8.85 25.64,34.46 41.58,22.22 C53.28,6.64 74.86,-25.4 79.89,-40.73z M65.7229995727539,-104.12000274658203 C88.7509994506836,-72.97000122070312 137.968994140625,-48.34400177001953 171.031005859375,-32.948001861572266 C197.38699340820312,-24.225000381469727 194.53500366210938,3.9070000648498535 199.8000030517578,26.035999298095703 C204.60000610351562,77.9219970703125 124.28199768066406,165.31900024414062 99.37799835205078,211.03599548339844 C91.06300354003906,222.7469940185547 79.11900329589844,234.45700073242188 64.04900360107422,233.01100158691406 C53.893001556396484,232.03599548339844 45.5989990234375,228.1719970703125 35.540000915527344,225.57899475097656 C9.855999946594238,220.81199645996094 13.979000091552734,271.5459899902344 -22.915000915527344,245.7469940185547 C-84.77999877929688,210.46200561523438 -146.28900146484375,173.43699645996094 -195.66600036621094,121.00700378417969 C-208.43099975585938,106.9469985961914 -193.48199462890625,89.10700225830078 -187.14599609375,75.40799713134766 C-171.09800720214844,56.54100036621094 -227.95199584960938,28.742000579833984 -211.42999267578125,-0.33399999141693115 C-186.4219970703125,-54.70199966430664 -111.0979995727539,-153.99000549316406 -109.33100128173828,-156.39100646972656 C-74.9800033569336,-202.4510040283203 -26.834999084472656,-136.58900451660156 -0.9580000042915344,-202.1699981689453 C9.657999992370605,-217.2209930419922 15.222000122070312,-218.38400268554688 31.016000747680664,-209.33999633789062 C39.520999908447266,-206.38800048828125 50.27000045776367,-190.6060028076172 58.042999267578125,-202.01199340820312 C79.65399932861328,-232.02499389648438 110.0530014038086,-254.99600219726562 148.89700317382812,-252.97799682617188 C201.08700561523438,-250.65699768066406 228.5590057373047,-195.54299926757812 207.1840057373047,-156.05499267578125 C189.43699645996094,-114.6449966430664 164.10000610351562,-118.12300109863281 202.59100341796875,-92.85299682617188 C213.1909942626953,-83.55000305175781 214.4219970703125,-75.81800079345703 207.96499633789062,-63.37699890136719 C198.031005859375,-44.237998962402344 196.28700256347656,-43.5099983215332 176.14100646972656,-49.678001403808594 C134.9669952392578,-60.4640007019043 103.3759994506836,-84.62799835205078 68.96399688720703,-107.56300354003906 C66.72200012207031,-109.05799865722656 64.12100219726562,-106.28700256347656 65.7229995727539,-104.12000274658203z"></path><g opacity="1" transform="matrix(1,0,0,1,128.43899536132812,-176.06199645996094)"></g><g opacity="1" transform="matrix(1,0,0,1,-44.42499923706055,77.00900268554688)"></g><g opacity="1" transform="matrix(1,0,0,1,19.229999542236328,-27.66900062561035)"></g><g opacity="1" transform="matrix(1,0,0,1,0,0)"></g></g><g opacity="1" transform="matrix(1,0,0,1,30.493000030517578,-41.73899841308594)"><path fill="rgb(0,0,0)" fill-opacity="1" d=" M-13.708000183105469,-13.161999702453613 C-9.345999717712402,-11.486000061035156 -4.955999851226807,-9.86400032043457 -0.6169999837875366,-8.116999626159668 C5.317999839782715,-5.728000164031982 11.262999534606934,-3.3529999256134033 17.110000610351562,-0.7599999904632568 C20.714000701904297,0.8389999866485596 24.393999099731445,2.75 21.808000564575195,7.813000202178955 C19.62299919128418,12.09000015258789 16.49799919128418,14.484999656677246 11.449000358581543,12.394000053405762 C7.510000228881836,10.76200008392334 3.6559998989105225,8.873000144958496 -0.38199999928474426,7.541999816894531 C-5.638000011444092,5.809000015258789 -11.017000198364258,4.426000118255615 -16.38599967956543,3.065000057220459 C-19.847999572753906,2.187000036239624 -23.582000732421875,1.3919999599456787 -22.47800064086914,-3.2850000858306885 C-21.405000686645508,-7.829999923706055 -19.615999221801758,-12.265999794006348 -13.708000183105469,-13.161999702453613z"></path></g><g opacity="1" transform="matrix(1,0,0,1,15.579999923706055,-16.93000030517578)"><path fill="rgb(0,0,0)" fill-opacity="1" d=" M21.180999755859375,6.001999855041504 C20.49799919128418,9.706999778747559 18.684999465942383,13.227999687194824 14.538000106811523,11.694999694824219 C3.3570001125335693,7.560999870300293 -7.578000068664551,2.753999948501587 -18.558000564575195,-1.9110000133514404 C-20.702999114990234,-2.822000026702881 -21.756000518798828,-4.715000152587891 -20.861000061035156,-7.135000228881836 C-19.924999237060547,-9.666999816894531 -18.222999572753906,-11.807999610900879 -15.498000144958496,-12.036999702453613 C-13.494000434875488,-12.204999923706055 -11.277000427246094,-11.552000045776367 -9.36299991607666,-10.76099967956543 C-1.0839999914169312,-7.336999893188477 7.1539998054504395,-3.808000087738037 15.32800006866455,-0.14100000262260437 C17.989999771118164,1.0529999732971191 20.888999938964844,2.3329999446868896 21.180999755859375,6.001999855041504z"></path></g></g></g></svg>