<svg xmlns="http://www.w3.org/2000/svg" xmlns:xlink="http://www.w3.org/1999/xlink" viewBox="0 0 512 512" width="512" height="512" style="width: 100%; height: 100%; transform: translate3d(0,0,0);" preserveAspectRatio="xMidYMid meet"><defs><clipPath id="__lottie_element_52190"><rect width="512" height="512" x="0" y="0"></rect></clipPath></defs><g clip-path="url(#__lottie_element_52190)"><g style="display: block;" transform="matrix(1,0,0,1,39.75,9.874008178710938)" opacity="1"><g opacity="1" transform="matrix(1,0,0,1,220.83099365234375,248.18800354003906)"><path fill="rgb(0,0,0)" fill-opacity="1" d=" M-19.18899917602539,-140.93099975585938 C-19.79199981689453,-141.47500610351562 -24.41699981689453,-135.48599243164062 -36.58100128173828,-132.06199645996094 C-46.58399963378906,-129.2469940185547 -49.66899871826172,-133.76400756835938 -52.58100128173828,-135.06199645996094 C-59.316001892089844,-138.06500244140625 -55.266998291015625,-148.54299926757812 -63.58100128173828,-160.06199645996094 C-71.77799987792969,-171.41900634765625 -76.63400268554688,-169.89100646972656 -77.58100128173828,-177.06199645996094 C-78.59500122070312,-184.73899841308594 -70.06099700927734,-186.89999389648438 -64.58100128173828,-202.06199645996094 C-60.87799835205078,-212.3070068359375 -65.2030029296875,-216.45199584960938 -60.58100128173828,-222.06199645996094 C-54.915000915527344,-228.9409942626953 -49.459999084472656,-223.8719940185547 -35.58100128173828,-230.06199645996094 C-22.058000564575195,-236.093994140625 -22.02199935913086,-244.07699584960938 -11.581000328063965,-245.06199645996094 C-3.249000072479248,-245.84800720214844 -1.6380000114440918,-240.91700744628906 7.419000148773193,-242.06199645996094 C18.07900047302246,-243.41000366210938 19.36199951171875,-247.93800354003906 24.41900062561035,-246.06199645996094 C30.95400047302246,-243.63900756835938 29.226999282836914,-235.41600036621094 36.41899871826172,-231.06199645996094 C45.43000030517578,-225.60699462890625 56.316001892089844,-233.28700256347656 60.41899871826172,-229.06199645996094 C64.0780029296875,-225.29400634765625 57.525001525878906,-217.4969940185547 62.41899871826172,-210.06199645996094 C66.00599670410156,-204.61300659179688 69.0989990234375,-201.10299682617188 70.41899871826172,-197.06199645996094 C72.12899780273438,-191.82699584960938 65.22899627685547,-189.54100036621094 62.41899871826172,-178.06199645996094 C59.82899856567383,-167.48399353027344 67.29000091552734,-161.88299560546875 64.41899871826172,-158.06199645996094 C61.564998626708984,-154.26499938964844 53.249000549316406,-160.3699951171875 47.41899871826172,-155.06199645996094 C43.303001403808594,-151.31500244140625 46.643001556396484,-146.72500610351562 42.41899871826172,-143.06199645996094 C37.2859992980957,-138.61099243164062 25.89900016784668,-145.13900756835938 26.41900062561035,-143.06199645996094 C31.41900062561035,-123.06199645996094 220.58099365234375,113.93800354003906 220.41900634765625,160.93800354003906 C220.21099853515625,221.01499938964844 73.41200256347656,236.9530029296875 4.419000148773193,237.93800354003906 C-65.58100128173828,238.93800354003906 -172.58099365234375,219.93800354003906 -179.58099365234375,207.93800354003906 C-188.0279998779297,193.45799255371094 -134.58099365234375,229.93800354003906 23.41900062561035,143.93800354003906 C82.3239974975586,111.8759994506836 123.60399627685547,68.2020034790039 116.41899871826172,57.9379997253418 C109.41899871826172,47.9379997253418 70.95600128173828,83.77799987792969 -19.58099937438965,118.93800354003906 C-122.58100128173828,158.93800354003906 -200.49000549316406,161.85499572753906 -209.58099365234375,151.93800354003906 C-220.58099365234375,139.93800354003906 -139.29299926757812,58.16299819946289 -127.58100128173828,42.9379997253418 C-117.58100128173828,29.937999725341797 -79.49199676513672,27.62299919128418 -44.58100128173828,12.937999725341797 C8.609000205993652,-9.437999725341797 41.525001525878906,-52.777000427246094 32.41899871826172,-60.0620002746582 C22.41900062561035,-68.06199645996094 3.430999994277954,-47.0620002746582 -48.58100128173828,-31.062000274658203 C-86.05599975585938,-19.534000396728516 -93.23100280761719,-20.343000411987305 -92.58100128173828,-24.062000274658203 C-89.52799987792969,-41.54600143432617 -12.472000122070312,-134.86900329589844 -19.18899917602539,-140.93099975585938z"></path></g></g></g></svg>