<svg xmlns="http://www.w3.org/2000/svg" xmlns:xlink="http://www.w3.org/1999/xlink" viewBox="0 0 512 512" width="512" height="512" style="width: 100%; height: 100%; transform: translate3d(0,0,0);" preserveAspectRatio="xMidYMid meet"><defs><clipPath id="__lottie_element_51585"><rect width="512" height="512" x="0" y="0"></rect></clipPath></defs><g clip-path="url(#__lottie_element_51585)"><g style="display: block;" transform="matrix(1,0,0,1,510.1619873046875,1283.93798828125)" opacity="1"><g opacity="1" transform="matrix(1,0,0,1,-350.35699462890625,-931.9110107421875)"><path fill="rgb(0,0,0)" fill-opacity="1" d=" M87.98799896240234,-92.56800079345703 C13.32800006866455,-167.23800659179688 -21.7189998626709,-159.1009979248047 -38.25,-144.80299377441406 C-57.79100036621094,-127.9020004272461 -37.34600067138672,-66.5719985961914 9.324000358581543,-23.45199966430664 C33.597999572753906,-1.024999976158142 61.12200164794922,15.265999794006348 81.94499969482422,25.736000061035156 C84.9729995727539,27.259000778198242 84.00800323486328,31.790000915527344 80.6240005493164,31.98900032043457 C46.18199920654297,34.012001037597656 -34.970001220703125,5.729000091552734 -66.37699890136719,-75.8010025024414 C-67.58999633789062,-78.94999694824219 -72.45700073242188,-79.1240005493164 -73.33499908447266,-75.86599731445312 C-90.80500030517578,-11.027000427246094 -155.80499267578125,112.9729995727539 -150.78599548339844,132.98800659179688 C-145.7760009765625,152.96600341796875 73.19499969482422,110.9729995727539 142.4320068359375,52.76499938964844 C163.60699462890625,34.9630012512207 162.6580047607422,-17.898000717163086 87.98799896240234,-92.56800079345703z"></path></g><g opacity="1" transform="matrix(1,0,0,1,-338.8320007324219,-1181.344970703125)"><path fill="rgb(0,0,0)" fill-opacity="1" d=" M17.01099967956543,-80.71800231933594 C11.175000190734863,-75.3280029296875 54.672000885009766,-61.00400161743164 41.06999969482422,-39.65399932861328 C30.663999557495117,-23.320999145507812 7.9039998054504395,-35.36800003051758 5.998000144958496,-26.320999145507812 C4.0920000076293945,-17.27400016784668 55.9370002746582,1.093999981880188 34.83100128173828,30.84600067138672 C20.99799919128418,50.34600067138672 -10.128000259399414,32.8650016784668 -8.168999671936035,52.512001037597656 C-6.110000133514404,73.15699768066406 38.768001556396484,65.20500183105469 33.20500183105469,87.83799743652344 C27.93000030517578,109.30000305175781 -12.73799991607666,87.322998046875 -27.07900047302246,76.1709976196289 C-53.08399963378906,55.94900131225586 -48.415000915527344,22.19300079345703 -14.430999755859375,16.503999710083008 C29.08799934387207,11.644000053405762 -0.8190000057220459,-2.686000108718872 -9.467000007629395,-9.607000350952148 C-18.111000061035156,-16.524999618530273 -27.32699966430664,-27.743000030517578 -17.599000930786133,-40.0359992980957 C-7.870999813079834,-52.32899856567383 14.326000213623047,-47.97200012207031 16.83300018310547,-53.27299880981445 C19.34000015258789,-58.57400131225586 10.0600004196167,-62.07400131225586 2.7669999599456787,-68.71800231933594 C-4.915999889373779,-75.71800231933594 -6.2769999504089355,-88.16000366210938 2.3540000915527344,-93.71800231933594 C16.243000030517578,-102.66200256347656 28.041000366210938,-90.90499877929688 17.01099967956543,-80.71800231933594z"></path></g><g opacity="1" transform="matrix(1,0,0,1,-247.8000030517578,-1168.0860595703125)"><path fill="rgb(0,0,0)" fill-opacity="1" d=" M6.6519999504089355,-104.9489974975586 C27.76300048828125,-112.28199768066406 57.840999603271484,-82.04199981689453 41.319000244140625,10.829000473022461 C26.652000427246094,93.27300262451172 -37.56999969482422,111.71700286865234 -44.23699951171875,104.60600280761719 C-57.70100021362305,90.24400329589844 6.829999923706055,71.12300109863281 6.409999847412109,3.9760000705718994 C5.966000080108643,-67.13500213623047 -23.437000274658203,-94.49700164794922 6.6519999504089355,-104.9489974975586z"></path></g><g opacity="1" transform="matrix(1,0,0,1,-130.13400268554688,-1074.6949462890625)"><path fill="rgb(0,0,0)" fill-opacity="1" d=" M-106.34700012207031,61.4379997253418 C-95.06099700927734,67.20600128173828 -80.9229965209961,23.69700050354004 -29.367000579833984,23.030000686645508 C35.861000061035156,22.187000274658203 31.8799991607666,39.652000427246094 60.79999923706055,38.862998962402344 C85.24400329589844,38.19599914550781 109.58000183105469,16.54199981689453 111.13300323486328,-8.970000267028809 C112.68900299072266,-34.5260009765625 99.20800018310547,-60.3390007019043 86.31900024414062,-61.89500045776367 C78.08200073242188,-62.888999938964844 68.54100036621094,-53.22800064086914 60.319000244140625,-33.89500045776367 C52.09700012207031,-14.562000274658203 33.65599822998047,-8.097999572753906 1.4299999475479126,-14.116999626159668 C-33.45899963378906,-20.634000778198242 -68.56900024414062,-11.60099983215332 -89.23600006103516,9.215999603271484 C-111.27400207519531,31.413999557495117 -116.34700012207031,56.32699966430664 -106.34700012207031,61.4379997253418z"></path></g><g opacity="1" transform="matrix(1,0,0,1,-147.04800415039062,-1181.3370361328125)"><path fill="rgb(0,0,0)" fill-opacity="1" d=" M-35.321998596191406,71.66300201416016 C-28.405000686645508,76.33000183105469 -8.70300006866455,64.50499725341797 -7.619999885559082,49.505001068115234 C-6.465000152587891,33.51499938964844 -17.80900001525879,31.139999389648438 -11.78600025177002,20.83799934387207 C-6.507999897003174,11.8100004196167 13.366000175476074,22.298999786376953 20.714000701904297,8.670999526977539 C29.881000518798828,-8.329000473022461 -3.128000020980835,-23.57699966430664 3.2139999866485596,-38.82899856567383 C10.21399974822998,-55.6619987487793 32.01100158691406,-43.83700180053711 40.34400177001953,-54.58700180053711 C46.95199966430664,-63.111000061035156 27.517000198364258,-75.45999908447266 4.343999862670898,-72.14199829101562 C-19.9060001373291,-68.66999816894531 -29.784000396728516,-52.18600082397461 -28.100000381469727,-39.03099822998047 C-25.73900032043457,-20.586999893188477 -3.1559998989105225,-11.336000442504883 -6.488999843597412,-5.502999782562256 C-9.918999671936035,0.5 -34.323001861572266,-8.420000076293945 -40.766998291015625,8.746999740600586 C-45.979000091552734,22.6299991607666 -26.322999954223633,32.41299819946289 -29.6560001373291,47.191001892089844 C-32.26499938964844,58.7599983215332 -43.81399917602539,65.93399810791016 -35.321998596191406,71.66300201416016z"></path></g><g opacity="1" transform="matrix(1,0,0,1,-101.19100189208984,-955.3250122070312)"><path fill="rgb(0,0,0)" fill-opacity="1" d=" M-87.50800323486328,24.291000366210938 C-80.0979995727539,24.19099998474121 -75.4020004272461,21.579999923706055 -74.34600067138672,2.568000078201294 C-73.69300079345703,-9.199999809265137 -64.58200073242188,-11.569000244140625 -57.143001556396484,-10.006999969482422 C-32.810001373291016,-4.895999908447266 -47.23699951171875,32.4640007019043 -12.345999717712402,40.902000427246094 C13.154000282287598,47.069000244140625 26.176000595092773,31.739999771118164 33.987998962402344,21.746999740600586 C42.987998962402344,10.234999656677246 46.540000915527344,1.2070000171661377 58.32099914550781,-1.0980000495910645 C73.65399932861328,-4.0980000495910645 77.05500030517578,16.35700035095215 91.5989990234375,12.734999656677246 C106.32099914550781,9.067999839782715 93.30699920654297,-27.562999725341797 65.35700225830078,-32.50699996948242 C40.856998443603516,-36.84000015258789 27.35700035095215,-22.78499984741211 14.857000350952148,-1.6740000247955322 C6.5269999504089355,12.394000053405762 -8.866000175476074,17.33300018310547 -17.309999465942383,0 C-25.753999710083008,-17.33300018310547 -30.47599983215332,-39.67399978637695 -57.143001556396484,-42.17399978637695 C-97.53099822998047,-45.959999084472656 -108.01200103759766,24.569000244140625 -87.50800323486328,24.291000366210938z"></path></g></g></g></svg>