<svg xmlns="http://www.w3.org/2000/svg" xmlns:xlink="http://www.w3.org/1999/xlink" viewBox="0 0 512 512" width="512" height="512" style="width: 100%; height: 100%; transform: translate3d(0,0,0);" preserveAspectRatio="xMidYMid meet"><defs><clipPath id="__lottie_element_53909"><rect width="512" height="512" x="0" y="0"></rect></clipPath></defs><g clip-path="url(#__lottie_element_53909)"><g style="display: block;" transform="matrix(1,0,0,1,-5.468994140625,21.793014526367188)" opacity="1"><g opacity="1" transform="matrix(1,0,0,1,261.4679870605469,242.7169952392578)"><path fill="rgb(65,63,63)" fill-opacity="1" d=" M229.6199951171875,-185.94200134277344 C211.26300048828125,-195.87899780273438 198.08700561523438,-193.0260009765625 181.69000244140625,-198.14700317382812 C179.11000061035156,-198.9530029296875 158.14700317382812,-219.14199829101562 150.62899780273438,-223.5760040283203 C118.59300231933594,-242.46800231933594 83.55799865722656,-240.4459991455078 54.632999420166016,-216.91000366210938 C48.249000549316406,-211.71600341796875 39.11899948120117,-198.14599609375 34.525001525878906,-195.10699462890625 C27.452999114990234,-190.42799377441406 12.503999710083008,-186.97999572753906 1.9620000123977661,-180.29100036621094 C-48.801998138427734,-148.0800018310547 -27.035999298095703,-112.25399780273438 27.31100082397461,-126.68000030517578 C24.253999710083008,-93.73200225830078 9.199999809265137,-94.31600189208984 -19.222999572753906,-95.63500213623047 C-86.79399871826172,-98.77100372314453 -181.94400024414062,-119.7760009765625 -230.36900329589844,-57.2859992980957 C-248.51600646972656,-33.867000579833984 -261.2179870605469,19.893999099731445 -244.53900146484375,45.86000061035156 C-236.7469940185547,57.99100112915039 -222.66900634765625,57.36199951171875 -219.11099243164062,61.441001892089844 C-210.78900146484375,70.97899627685547 -226.5919952392578,116.9280014038086 -227.76499938964844,131.18800354003906 C-229.54299926757812,152.78799438476562 -224.3260040283203,210.93099975585938 -212.18600463867188,228.52999877929688 C-210.6959991455078,230.68899536132812 -206.13099670410156,235.5760040283203 -203.96499633789062,236.70799255371094 C-196.10400390625,240.8159942626953 -165.39199829101562,241.7519989013672 -159.05999755859375,235.4250030517578 C-145.73300170898438,222.10899353027344 -167.7530059814453,166.2100067138672 -153.68499755859375,157.44200134277344 C-150.54200744628906,155.48300170898438 -141.74099731445312,153.85299682617188 -139.7949981689453,158.0019989013672 C-130.27499389648438,178.30799865722656 -131.28700256347656,230.1320037841797 -106.72000122070312,237.86599731445312 C-96.73999786376953,241.0070037841797 -62.89500045776367,242.46800231933594 -61.053001403808594,230.42799377441406 C-57.4109992980957,206.6219940185547 -79.95700073242188,166.0260009765625 -72.93000030517578,134.82899475097656 C-42.6870002746582,140.0500030517578 -8.803999900817871,140.0489959716797 10.130999565124512,139.23599243164062 C14.086999893188477,154.50999450683594 17.424999237060547,226.31500244140625 26.39299964904785,234.1320037841797 C27.704999923706055,235.2760009765625 28.27899932861328,235.61500549316406 30.045000076293945,235.94700622558594 C36.64500045776367,237.18899536132812 62.823001861572266,236.80599975585938 70.17500305175781,235.97000122070312 C72.98500061035156,235.6510009765625 77.16500091552734,234.3520050048828 79.2750015258789,232.31399536132812 C89.83100128173828,222.1199951171875 72.79900360107422,174.22900390625 77.40699768066406,158.11900329589844 C79.91999816894531,149.33399963378906 89.61100006103516,150.8780059814453 91.33699798583984,157.7429962158203 C94.83200073242188,171.6529998779297 98.86599731445312,235.2969970703125 112.05400085449219,235.93899536132812 C112.05400085449219,235.93899536132812 159.43299865722656,235.93899536132812 159.43299865722656,235.93899536132812 C161.45799255371094,234.08399963378906 162.9409942626953,231.87600708007812 163.58200073242188,229.16900634765625 C167.26800537109375,213.5749969482422 156.31700134277344,175.46800231933594 154.58299255371094,157.36599731445312 C150.33299255371094,112.99099731445312 166.5279998779297,70.28500366210938 169.43600463867188,25.448999404907227 C170.468994140625,9.538000106811523 168.72300720214844,-6.883999824523926 169.4459991455078,-22.829999923706055 C184.81500244140625,-21.670000076293945 199.93800354003906,-24.132999420166016 212.2760009765625,-33.75600051879883 C247.0749969482422,-60.89799880981445 219.64300537109375,-109.13800048828125 207.74000549316406,-141.26600646972656 C249.27699279785156,-120.89199829101562 272.14300537109375,-162.9239959716797 229.6199951171875,-185.94200134277344z M120.34700012207031,-114.74700164794922 C99.94999694824219,-108.26300048828125 88.92500305175781,-138.22500610351562 108.7979965209961,-142.71099853515625 C131.11599731445312,-147.7480010986328 138.38699340820312,-120.48200225830078 120.34700012207031,-114.74700164794922z"></path></g></g></g></svg>