<svg xmlns="http://www.w3.org/2000/svg" xmlns:xlink="http://www.w3.org/1999/xlink" viewBox="0 0 512 512" width="512" height="512" style="width: 100%; height: 100%; transform: translate3d(0,0,0);" preserveAspectRatio="xMidYMid meet"><defs><clipPath id="__lottie_element_53030"><rect width="512" height="512" x="0" y="0"></rect></clipPath></defs><g clip-path="url(#__lottie_element_53030)"><g style="display: block;" transform="matrix(1,0,0,1,256,256)" opacity="1"><g opacity="1" transform="matrix(1,0,0,1,0,0)"><path fill="rgb(0,0,0)" fill-opacity="1" d=" M179,-63.400001525878906 C167.24600219726562,-247.38999938964844 -235.38600158691406,-247.85699462890625 -249.00100708007812,-64.60299682617188 C-249.41799926757812,-1.1360000371932983 -230.968994140625,96.70899963378906 -181.04400634765625,145.2469940185547 C-101.94000244140625,240.11099243164062 54.21500015258789,231.12100219726562 123.44999694824219,129.35000610351562 C186.43099975585938,135.30499267578125 252.89100646972656,70.16899871826172 250.9499969482422,8.199999809265137 C251.27699279785156,-33.51900100708008 218.63400268554688,-63.22800064086914 179,-63.400001525878906 M75.94999694824219,-131.6999969482422 C137.875,-100.03700256347656 138.13900756835938,-43.055999755859375 75.9489974975586,-11.550000190734863 C17.26300048828125,21.93199920654297 -89.45800018310547,21.910999298095703 -148.25,-11.550999641418457 C-210.5070037841797,-43.055999755859375 -210.24000549316406,-100.03700256347656 -148.24899291992188,-131.6999969482422 C-89.46099853515625,-164.6959991455078 17.266000747680664,-164.71299743652344 75.94999694824219,-131.6999969482422 M174,-4.349999904632568 C211.38699340820312,-12.019000053405762 210.50999450683594,31.06100082397461 191.25,53.04899978637695 C179.37100219726562,68.0770034790039 166.17799377441406,77.66000366210938 151.60000610351562,81.9000015258789 C163.5,55.400001525878906 170.9669952392578,26.649999618530273 174,-4.349999904632568 M19.200000762939453,-18.200000762939453 C21.77899932861328,-18.694000244140625 23.190000534057617,-18.827999114990234 24.899999618530273,-19.549999237060547 C24.899999618530273,-19.549999237060547 19.200000762939453,-18.200000762939453 19.200000762939453,-18.200000762939453 M-39,-91.3499984741211 C-54.731998443603516,-102.66200256347656 -92.86100006103516,-109.87100219726562 -113.30000305175781,-104.04900360107422 C-136.73699951171875,-99.48300170898438 -155.2050018310547,-74.88700103759766 -137.69900512695312,-53.04999923706055 C-112.73100280761719,-20.83300018310547 -20.358999252319336,-6.885000228881836 18.200000762939453,-19.047000885009766 C56.76100158691406,-32.87099838256836 92.04299926757812,-111.68000030517578 33.29800033569336,-126.6500015258789 C6.441999912261963,-134.1490020751953 -21.82200050354004,-135.03399658203125 -36.1510009765625,-113.3010025024414 C-40.849998474121094,-104.80000305175781 -41.79999923706055,-97.48300170898438 -39,-91.3499984741211z"></path></g></g></g></svg>