<svg xmlns="http://www.w3.org/2000/svg" xmlns:xlink="http://www.w3.org/1999/xlink" viewBox="0 0 512 512" width="512" height="512" style="width: 100%; height: 100%; transform: translate3d(0,0,0);" preserveAspectRatio="xMidYMid meet"><defs><clipPath id="__lottie_element_51580"><rect width="512" height="512" x="0" y="0"></rect></clipPath></defs><g clip-path="url(#__lottie_element_51580)"><g style="display: block;" transform="matrix(1,0,0,1,256,256)" opacity="1"><g opacity="1" transform="matrix(1,0,0,1,0,0)"><path fill="rgb(0,0,0)" fill-opacity="1" d=" M220.6999969482422,-160.75 C164.0540008544922,-224.87899780273438 50.70199966430664,-213.88900756835938 1,-145.89999389648438 C-26.621999740600586,-185.0780029296875 -70.2040023803711,-203.3260040283203 -119.1500015258789,-203.14999389648438 C-267.5799865722656,-201.5489959716797 -276.7040100097656,-35.332000732421875 -205.4459991455078,66.5009994506836 C-165.92999267578125,125.36199951171875 -98.11499786376953,189.7209930419922 -25.900999069213867,217.302001953125 C35.62300109863281,243.44000244140625 110.63500213623047,174.18299865722656 155.8509979248047,128.60299682617188 C226.38600158691406,54.361000061035156 291.77398681640625,-73.802001953125 220.6999969482422,-160.75 M105.19999694824219,-165.3000030517578 C128.375,-184.02000427246094 165.38800048828125,-178.37899780273438 182.25,-153.9499969482422 C196.3249969482422,-131.11700439453125 236.4029998779297,-94.51200103759766 228.0500030517578,-64.25 C228.0500030517578,-64.25 228.0500030517578,-64.30000305175781 228.0500030517578,-64.30000305175781 C215.781005859375,-8.529999732971191 33.597999572753906,105.64700317382812 -26.945999145507812,142.45399475097656 C-39.016998291015625,151.14999389648438 -52.483001708984375,154.35000610351562 -67.3499984741211,152.0500030517578 C-67.3499984741211,152.0500030517578 -67.30000305175781,152.0500030517578 -67.30000305175781,152.0500030517578 C-82.16699981689453,149.7830047607422 -94.06700134277344,142.5500030517578 -103,130.35000610351562 C-117.1500015258789,107.33200073242188 -157.03399658203125,71.07099914550781 -148.94900512695312,40.70100021362305 C-146.68600463867188,25.780000686645508 -139.32899475097656,13.789999961853027 -127.1500015258789,4.800000190734863 C-49.01100158691406,-44.558998107910156 28.416000366210938,-101.11100006103516 105.19999694824219,-165.3000030517578 M142.89999389648438,-153.25 C134.43299865722656,-154.58299255371094 126.75,-152.7830047607422 119.8499984741211,-147.85000610351562 C42.560001373291016,-83.36499786376953 -35.362998962402344,-26.22599983215332 -113.94999694824219,23.350000381469727 C-120.94999694824219,28.58300018310547 -125.13300323486328,35.516998291015625 -126.5,44.150001525878906 C-126.5,44.150001525878906 -126.44999694824219,44 -126.44999694824219,44 C-127.78299713134766,52.766998291015625 -125.81700134277344,60.733001708984375 -120.55000305175781,67.9000015258789 C-120.55000305175781,67.9000015258789 -120.6500015258789,67.9000015258789 -120.6500015258789,67.9000015258789 C-120.6500015258789,67.9000015258789 -84.69999694824219,116.9000015258789 -84.69999694824219,116.9000015258789 C-84.69999694824219,116.9000015258789 -84.6500015258789,116.9000015258789 -84.6500015258789,116.9000015258789 C-74.86399841308594,131.10000610351562 -53.555999755859375,134.27999877929688 -40.04999923706055,123.80000305175781 C46.94200134277344,73.08799743652344 124.63200378417969,16.312000274658203 192.89999389648438,-46.75 C207.0330047607422,-56.630001068115234 210.27000427246094,-77.81099700927734 199.8000030517578,-91.55000305175781 C199.8000030517578,-91.55000305175781 163.89999389648438,-140.5 163.89999389648438,-140.5 C158.66700744628906,-147.63299560546875 151.66700744628906,-151.88299560546875 142.89999389648438,-153.25 M107.25,-3.049999952316284 C105.6500015258789,3.5829999446868896 101.9000015258789,9.067000389099121 96,13.399999618530273 C83.16699981689453,20.198999404907227 44.45199966430664,58.11600112915039 28.500999450683594,54.6510009765625 C21.700000762939453,54.183998107910156 16.466999053955078,51.45000076293945 12.800000190734863,46.45000076293945 C12.800000190734863,46.45000076293945 -17.200000762939453,5.449999809265137 -17.200000762939453,5.449999809265137 C-20.867000579833984,0.44999998807907104 -21.899999618530273,-5.349999904632568 -20.299999237060547,-11.949999809265137 C-18.700000762939453,-18.617000579833984 -14.949999809265137,-24.100000381469727 -9.050000190734863,-28.399999618530273 C3.7839999198913574,-35.176998138427734 42.51100158691406,-73.16699981689453 58.44900131225586,-69.6510009765625 C65.25,-69.18399810791016 70.48300170898438,-66.44999694824219 74.1500015258789,-61.45000076293945 C74.1500015258789,-61.45000076293945 104.1500015258789,-20.450000762939453 104.1500015258789,-20.450000762939453 C107.81700134277344,-15.449999809265137 108.8499984741211,-9.649999618530273 107.25,-3.049999952316284z"></path></g></g></g></svg>