<svg xmlns="http://www.w3.org/2000/svg" xmlns:xlink="http://www.w3.org/1999/xlink" viewBox="0 0 512 512" width="512" height="512" style="width: 100%; height: 100%; transform: translate3d(0,0,0);" preserveAspectRatio="xMidYMid meet"><defs><clipPath id="__lottie_element_51755"><rect width="512" height="512" x="0" y="0"></rect></clipPath></defs><g clip-path="url(#__lottie_element_51755)"><g style="display: block;" transform="matrix(1,0,0,1,253.15199279785156,258.0369873046875)" opacity="1"><g opacity="1" transform="matrix(1,0,0,1,37.222999572753906,89.44000244140625)"><path fill="rgb(0,0,0)" fill-opacity="1" d=" M139.46600341796875,-35.96699905395508 C59.29999923706055,-181.63999938964844 -151.91600036621094,-115.89900207519531 -150.24000549316406,32.98400115966797 C-149.7550048828125,76.03099822998047 -128.18600463867188,106.7020034790039 -93.69100189208984,115.33799743652344 C-33.82699966430664,130.3249969482422 4.492000102996826,64.09400177001953 4.492000102996826,64.09400177001953 C4.492000102996826,64.09400177001953 69.47100067138672,105.2509994506836 124.05899810791016,63.04399871826172 C150.5019989013672,42.597999572753906 159.23199462890625,-0.05000000074505806 139.46600341796875,-35.96699905395508z"></path></g><g opacity="1" transform="matrix(0.9455526471138,-0.32546913623809814,0.32546913623809814,0.9455526471138,-91.83000183105469,-111.95899963378906)"><path fill="rgb(0,0,0)" fill-opacity="1" d=" M0,-71.33650207519531 C32.03696823120117,-71.33650207519531 58.048500061035156,-39.3706169128418 58.048500061035156,0 C58.048500061035156,39.3706169128418 32.03696823120117,71.33650207519531 0,71.33650207519531 C-32.03696823120117,71.33650207519531 -58.048500061035156,39.3706169128418 -58.048500061035156,0 C-58.048500061035156,-39.3706169128418 -32.03696823120117,-71.33650207519531 0,-71.33650207519531z"></path></g><g opacity="1" transform="matrix(0.9157046675682068,-0.4018518924713135,0.4018518924713135,0.9157046675682068,-175.6280059814453,20.900999069213867)"><path fill="rgb(0,0,0)" fill-opacity="1" d=" M0,-69.7864990234375 C31.341020584106445,-69.7864990234375 56.787498474121094,-38.515167236328125 56.787498474121094,0 C56.787498474121094,38.515167236328125 31.341020584106445,69.7864990234375 0,69.7864990234375 C-31.341020584106445,69.7864990234375 -56.787498474121094,38.515167236328125 -56.787498474121094,0 C-56.787498474121094,-38.515167236328125 -31.341020584106445,-69.7864990234375 0,-69.7864990234375z"></path></g><g opacity="1" transform="matrix(0.9455526471138,-0.32546913623809814,0.32546913623809814,0.9455526471138,50.680999755859375,-136.9199981689453)"><path fill="rgb(0,0,0)" fill-opacity="1" d=" M0,-71.33650207519531 C32.03696823120117,-71.33650207519531 58.048500061035156,-39.3706169128418 58.048500061035156,0 C58.048500061035156,39.3706169128418 32.03696823120117,71.33650207519531 0,71.33650207519531 C-32.03696823120117,71.33650207519531 -58.048500061035156,39.3706169128418 -58.048500061035156,0 C-58.048500061035156,-39.3706169128418 -32.03696823120117,-71.33650207519531 0,-71.33650207519531z"></path></g><g opacity="1" transform="matrix(0.9455526471138,-0.32546913623809814,0.32546913623809814,0.9455526471138,181.822998046875,-48.224998474121094)"><path fill="rgb(0,0,0)" fill-opacity="1" d=" M0,-63.300498962402344 C28.42809295654297,-63.300498962402344 51.509498596191406,-34.935546875 51.509498596191406,0 C51.509498596191406,34.935546875 28.42809295654297,63.300498962402344 0,63.300498962402344 C-28.42809295654297,63.300498962402344 -51.509498596191406,34.935546875 -51.509498596191406,0 C-51.509498596191406,-34.935546875 -28.42809295654297,-63.300498962402344 0,-63.300498962402344z"></path></g></g></g></svg>