<svg xmlns="http://www.w3.org/2000/svg" xmlns:xlink="http://www.w3.org/1999/xlink" viewBox="0 0 512 512" width="512" height="512" style="width: 100%; height: 100%; transform: translate3d(0,0,0);" preserveAspectRatio="xMidYMid meet"><defs><clipPath id="__lottie_element_53229"><rect width="512" height="512" x="0" y="0"></rect></clipPath></defs><g clip-path="url(#__lottie_element_53229)"><g style="display: block;" transform="matrix(2.962939977645874,0,0,2.962939977645874,2.8374481201171875,2.8374481201171875)" opacity="1"><g opacity="1" transform="matrix(1,0,0,1,59.19300079345703,114.75599670410156)"><path fill="rgb(0,0,0)" fill-opacity="1" d=" M55.257999420166016,6.26800012588501 C53.32699966430664,0.5180000066757202 55.611000061035156,-10.152000427246094 55.38399887084961,-15.414999961853027 C54.78300094604492,-29.367000579833984 48.12200164794922,-39.73899841308594 35.768001556396484,-46.2859992980957 C20.142000198364258,-54.56700134277344 6.051000118255615,-51.025001525878906 -6.578000068664551,-39.95800018310547 C-13.09000015258789,-34.25199890136719 -22.6560001373291,-29.889999389648438 -28.32200050354004,-27.100000381469727 C-38.75299835205078,-21.964000701904297 -61.48899841308594,-9.996999740600586 -48.709999084472656,14.70199966430664 C-41.60599899291992,26.393999099731445 -27.04599952697754,31.523000717163086 -10.711999893188477,27.89299964904785 C-8.824000358581543,18.138999938964844 -9.088000297546387,7.5929999351501465 -1.4819999933242798,-2.006999969482422 C-1.0260000228881836,0.2840000092983246 -3.6470000743865967,22.118999481201172 1.9900000095367432,36.104000091552734 C9.060999870300293,53.64899826049805 30.499000549316406,54.56800079345703 39.69300079345703,50.428001403808594 C51.95000076293945,44.90999984741211 59.19300079345703,24.34600067138672 55.624000549316406,7.50600004196167 C55.534000396728516,7.083000183105469 55.39500045776367,6.677000045776367 55.257999420166016,6.26800012588501z"></path></g><g opacity="1" transform="matrix(1,0,0,1,95.6729965209961,31.326000213623047)"><path fill="rgb(0,0,0)" fill-opacity="1" d=" M4.697000026702881,20.676000595092773 C13.437000274658203,14.008999824523926 29.788999557495117,-3.312000036239624 31.517000198364258,-14.168999671936035 C32.909000396728516,-22.913000106811523 26.634000778198242,-29.749000549316406 11.26200008392334,-27.184999465942383 C-9.32699966430664,-23.649999618530273 -22.886999130249023,-12.710000038146973 -29.06399917602539,-0.902999997138977 C-32.38399887084961,5.442999839782715 -32.909000396728516,15.140000343322754 -28.388999938964844,21.097999572753906 C-21.826000213623047,29.749000549316406 -3.3499999046325684,26.81399917602539 4.697000026702881,20.676000595092773z"></path></g><g opacity="1" transform="matrix(1,0,0,1,134.41799926757812,52.143001556396484)"><path fill="rgb(0,0,0)" fill-opacity="1" d=" M-21.783000946044922,22.45800018310547 C-17.118999481201172,28.360000610351562 -9.666999816894531,31.81599998474121 -1.7120000123977661,30.006000518798828 C13.008000373840332,26.655000686645508 23.28700065612793,9.342000007629395 24.551000595092773,-4.630000114440918 C26.104999542236328,-21.802000045776367 18.507999420166016,-31.81599998474121 5.185999870300293,-27.26099967956543 C-4.177000045776367,-24.059999465942383 -18.913999557495117,-5.234000205993652 -23.27899932861328,4.493000030517578 C-25.124000549316406,8.604999542236328 -26.104999542236328,16.98900032043457 -21.783000946044922,22.45800018310547z"></path></g><g opacity="1" transform="matrix(1,0,0,1,145.84500122070312,112.72000122070312)"><path fill="rgb(0,0,0)" fill-opacity="1" d=" M16.38800048828125,-17.408000946044922 C13.524999618530273,-25.17799949645996 5.067999839782715,-31.538999557495117 -4.4079999923706055,-25.56800079345703 C-16.145000457763672,-18.172000885009766 -22.099000930786133,-7.0970001220703125 -22.788999557495117,5.939000129699707 C-23.16200065612793,12.982999801635742 -19.8700008392334,31.538000106811523 -4.314000129699707,27.261999130249023 C10.86299991607666,23.089000701904297 23.16200065612793,0.9760000109672546 16.38800048828125,-17.408000946044922z"></path></g><g opacity="1" transform="matrix(1,0,0,1,36.76499938964844,50.76300048828125)"><path fill="rgb(0,0,0)" fill-opacity="1" d=" M-15.973999977111816,23.992000579833984 C-7.670000076293945,27.607999801635742 2.4609999656677246,22.040000915527344 6.578999996185303,17.89699935913086 C13.994000434875488,10.435999870300293 27.240999221801758,-12.824000358581543 18.952999114990234,-22.320999145507812 C15.369000434875488,-27.607999801635742 5.745999813079834,-26.33300018310547 2.234999895095825,-24.990999221801758 C-7.263000011444092,-21.357999801635742 -24.79800033569336,-9.873000144958496 -26.365999221801758,3.933000087738037 C-27.240999221801758,11.633000373840332 -22.2549991607666,21.256999969482422 -15.973999977111816,23.992000579833984z"></path></g></g></g></svg>