<svg xmlns="http://www.w3.org/2000/svg" xmlns:xlink="http://www.w3.org/1999/xlink" viewBox="0 0 512 512" width="512" height="512" style="width: 100%; height: 100%; transform: translate3d(0,0,0);" preserveAspectRatio="xMidYMid meet"><defs><clipPath id="__lottie_element_52916"><rect width="512" height="512" x="0" y="0"></rect></clipPath></defs><g clip-path="url(#__lottie_element_52916)"><g style="display: block;" transform="matrix(1,0,0,1,259.68499755859375,126.07599639892578)" opacity="1"><g opacity="1" transform="matrix(1,0,0,1,0,0)"><path fill="rgb(0,0,0)" fill-opacity="1" d=" M0,-110.73300170898438 C61.11354446411133,-110.73300170898438 110.73300170898438,-61.11354446411133 110.73300170898438,0 C110.73300170898438,61.11354446411133 61.11354446411133,110.73300170898438 0,110.73300170898438 C-61.11354446411133,110.73300170898438 -110.73300170898438,61.11354446411133 -110.73300170898438,0 C-110.73300170898438,-61.11354446411133 -61.11354446411133,-110.73300170898438 0,-110.73300170898438z"></path></g></g><g style="display: block;" transform="matrix(1,0,0,1,259.68499755859375,466.51800537109375)" opacity="1"><g opacity="1" transform="matrix(1,0,0,1,0,0)"><path fill="rgb(0,0,0)" fill-opacity="1" d=" M139.58999633789062,22.829999923706055 C139.58999633789062,22.829999923706055 -139.58999633789062,22.829999923706055 -139.58999633789062,22.829999923706055 C-143.62399291992188,22.829999923706055 -146.89500427246094,19.559999465942383 -146.89500427246094,15.526000022888184 C-146.89500427246094,15.526000022888184 -146.89500427246094,-15.526000022888184 -146.89500427246094,-15.526000022888184 C-146.89500427246094,-19.559999465942383 -143.62399291992188,-22.829999923706055 -139.58999633789062,-22.829999923706055 C-139.58999633789062,-22.829999923706055 139.58999633789062,-22.829999923706055 139.58999633789062,-22.829999923706055 C143.62399291992188,-22.829999923706055 146.89500427246094,-19.559999465942383 146.89500427246094,-15.526000022888184 C146.89500427246094,-15.526000022888184 146.89500427246094,15.526000022888184 146.89500427246094,15.526000022888184 C146.89500427246094,19.559999465942383 143.62399291992188,22.829999923706055 139.58999633789062,22.829999923706055z"></path></g></g><g style="display: block;" transform="matrix(1,0,0,1,259.68499755859375,323.8630065917969)" opacity="1"><g opacity="1" transform="matrix(1,0,0,1,0,0)"><path fill="rgb(0,0,0)" fill-opacity="1" d=" M-49.76900100708008,-121.88400268554688 C-49.76900100708008,-121.88400268554688 -53.643001556396484,3.0399999618530273 -102.04000091552734,61.053001403808594 C-122.34600067138672,85.39399719238281 -133.3820037841797,79.91000366210938 -133.3820037841797,111.60900115966797 C-133.3820037841797,111.60900115966797 -133.3820037841797,121.88400268554688 -133.3820037841797,121.88400268554688 C-133.3820037841797,121.88400268554688 133.3820037841797,121.88400268554688 133.3820037841797,121.88400268554688 C133.3820037841797,121.88400268554688 133.3820037841797,110.96499633789062 133.3820037841797,110.96499633789062 C133.3820037841797,79.3550033569336 122.5270004272461,84.82099914550781 102.21199798583984,60.604000091552734 C80.03399658203125,34.16600036621094 53.715999603271484,-48.54899978637695 51.09700012207031,-121.88400268554688 C51.09700012207031,-121.88400268554688 -49.76900100708008,-121.88400268554688 -49.76900100708008,-121.88400268554688z"></path></g></g><g style="display: block;" transform="matrix(1,0,0,1,259.68499755859375,237.1699981689453)" opacity="1"><g opacity="1" transform="matrix(1,0,0,1,0,0)"><path fill="rgb(0,0,0)" fill-opacity="1" d=" M83.84200286865234,18.672000885009766 C83.84200286865234,18.672000885009766 -83.84200286865234,18.672000885009766 -83.84200286865234,18.672000885009766 C-87.01599884033203,18.672000885009766 -89.58899688720703,16.099000930786133 -89.58899688720703,12.925000190734863 C-89.58899688720703,12.925000190734863 -89.58899688720703,-12.925000190734863 -89.58899688720703,-12.925000190734863 C-89.58899688720703,-16.099000930786133 -87.01599884033203,-18.672000885009766 -83.84200286865234,-18.672000885009766 C-83.84200286865234,-18.672000885009766 83.84200286865234,-18.672000885009766 83.84200286865234,-18.672000885009766 C87.01599884033203,-18.672000885009766 89.58899688720703,-16.099000930786133 89.58899688720703,-12.925000190734863 C89.58899688720703,-12.925000190734863 89.58899688720703,12.925000190734863 89.58899688720703,12.925000190734863 C89.58899688720703,16.099000930786133 87.01599884033203,18.672000885009766 83.84200286865234,18.672000885009766z"></path></g></g></g></svg>