<svg xmlns="http://www.w3.org/2000/svg" xmlns:xlink="http://www.w3.org/1999/xlink" viewBox="0 0 512 512" width="512" height="512" style="width: 100%; height: 100%; transform: translate3d(0,0,0);" preserveAspectRatio="xMidYMid meet"><defs><clipPath id="__lottie_element_51555"><rect width="512" height="512" x="0" y="0"></rect></clipPath></defs><g clip-path="url(#__lottie_element_51555)"><g style="display: block;" transform="matrix(1,0,0,1,0,0)" opacity="1"><g opacity="1" transform="matrix(1,0,0,1,254.2729949951172,285)"><path fill="rgb(0,0,0)" fill-opacity="1" d=" M120.51499938964844,-159 C-61.48500061035156,-209 -218.89100646972656,-29.969999313354492 -213.48500061035156,74 C-209.2729949951172,155 -136.21499633789062,209 -32.48500061035156,209 C100.51499938964844,209 188.98500061035156,132.38999938964844 205.48500061035156,-26 C210.48500061035156,-74 182.76499938964844,-141.89999389648438 120.51499938964844,-159z M30.624000549316406,-119.80999755859375 C54.73500061035156,-143.9199981689453 78.51499938964844,-156 92.48500061035156,-140.25999450683594 C106.81500244140625,-124.12000274658203 91.1449966430664,-107.51000213623047 67.03500366210938,-83.4000015258789 C42.92399978637695,-59.290000915527344 23.895000457763672,-44.25 8.173999786376953,-57.959999084472656 C-11.37600040435791,-75 6.514999866485596,-95.70999908447266 30.624000549316406,-119.80999755859375z M111.51499938964844,116 C83.51499938964844,36.220001220703125 18.80500030517578,-20 -83.48500061035156,-24 C-99.75599670410156,-24.639999389648438 -102.90499877929688,-52.88999938964844 -83.48500061035156,-53 C27.243999481201172,-53.599998474121094 117.51499938964844,12 134.51499938964844,96 C138.48500061035156,115.62000274658203 116.8550033569336,131.2100067138672 111.51499938964844,116z"></path></g><g opacity="1" transform="matrix(1,0,0,1,248.60000610351562,72.0530014038086)"><path fill="rgb(0,0,0)" fill-opacity="1" d=" M134.18800354003906,21.94700050354004 C140.67100524902344,4.947000026702881 140.67100524902344,-20.05299949645996 113.18800354003906,-21.05299949645996 C70.20500183105469,-22.617000579833984 42.1879997253418,25.94700050354004 -43.8120002746582,40.946998596191406 C-107.47899627685547,52.051998138427734 -163.81199645996094,45.65700149536133 -176.81199645996094,2.947000026702881 C-182.18800354003906,-14.715999603271484 -154.99600219726562,-28.965999603271484 -146.81199645996094,-12.053000450134277 C-131.81199645996094,18.94700050354004 -84.72100067138672,20.038000106811523 -47.8120002746582,11.946999549865723 C24.72599983215332,-3.9549999237060547 54.57400131225586,-52.053001403808594 116.18800354003906,-52.053001403808594 C174.07899475097656,-52.053001403808594 182.18800354003906,-2.052999973297119 168.18800354003906,28.94700050354004 C160.375,46.244998931884766 128.93800354003906,35.71099853515625 134.18800354003906,21.94700050354004z"></path></g></g></g></svg>