<svg xmlns="http://www.w3.org/2000/svg" xmlns:xlink="http://www.w3.org/1999/xlink" viewBox="0 0 512 512" width="512" height="512" style="width: 100%; height: 100%; transform: translate3d(0,0,0);" preserveAspectRatio="xMidYMid meet"><defs><clipPath id="__lottie_element_53549"><rect width="512" height="512" x="0" y="0"></rect></clipPath></defs><g clip-path="url(#__lottie_element_53549)"><g style="display: block;" transform="matrix(1,0,0,1,2.3390045166015625,19.340011596679688)" opacity="1"><g opacity="1" transform="matrix(1,0,0,1,253.36099243164062,242.10499572753906)"><path fill="rgb(65,63,63)" fill-opacity="1" d=" M217.96499633789062,90.53600311279297 C234.22900390625,82.36299896240234 253.11099243164062,67.23699951171875 249.73599243164062,46.58599853515625 C246.60499572753906,27.42099952697754 220.28799438476562,37.834999084472656 207.51199340820312,38.819000244140625 C177.98500061035156,41.09400177001953 144.3520050048828,34.69300079345703 117.86000061035156,21.434999465942383 C117.86000061035156,21.434999465942383 143.23800659179688,2.0420000553131104 168.51199340820312,-35.814998626708984 C209.2830047607422,-96.88400268554688 224.94000244140625,-140.98300170898438 225.03399658203125,-182.85299682617188 C225.09500122070312,-209.8249969482422 206.26499938964844,-212.2209930419922 184.5919952392578,-212.30799865722656 C121.75599670410156,-212.55799865722656 57.51499938964844,-186.1820068359375 15.51200008392334,-139.7480010986328 C9.927000045776367,-133.572998046875 -15.041000366210938,-98.5979995727539 -18.514999389648438,-97.77799987792969 C-22.01799964904785,-96.9520034790039 -20.54199981689453,-100.26000213623047 -20.87299919128418,-101.9739990234375 C-25.89699935913086,-128.0540008544922 -26.089000701904297,-157.9530029296875 -39.82600021362305,-181.13299560546875 C-69.56199645996094,-231.31199645996094 -148.71099853515625,-241.85499572753906 -186.70199584960938,-193.74000549316406 C-196.74000549316406,-181.02499389648438 -202.80799865722656,-161.1510009765625 -208.99899291992188,-156.26300048828125 C-214.07200622558594,-152.25799560546875 -227.28900146484375,-149.79299926757812 -236.47500610351562,-146.64599609375 C-249.3090057373047,-142.24899291992188 -253.11099243164062,-132.32699584960938 -247.63900756835938,-122.90399932861328 C-243.83599853515625,-116.35299682617188 -216.18099975585938,-102.39299774169922 -207.9530029296875,-95.48200225830078 C-184.26800537109375,-75.59300231933594 -197.40199279785156,-59.22999954223633 -199.8699951171875,-33.9640007019043 C-213.80099487304688,108.63600158691406 -74.27400207519531,199.41400146484375 56.20600128173828,156.65899658203125 C67.06900024414062,153.10000610351562 81.98100280761719,142.8070068359375 93.3270034790039,146.11199951171875 C108.01899719238281,150.3939971923828 125.34600067138672,203.89100646972656 134.9980010986328,217.8820037841797 C151.53399658203125,241.85499572753906 180.92599487304688,219.8679962158203 191.77999877929688,201.30299377441406 C201.2239990234375,185.14999389648438 204.5989990234375,165.79400634765625 200.10800170898438,147.61000061035156 C231.2740020751953,152.9530029296875 250.76100158691406,102.7969970703125 217.96499633789062,90.53600311279297z M-135.968994140625,-102.79299926757812 C-161.3560028076172,-103.21900177001953 -161.83599853515625,-130.3820037841797 -145.60299682617188,-136.93499755859375 C-138.5,-139.802001953125 -123.3280029296875,-139.23699951171875 -120.17500305175781,-124.53600311279297 C-118.18499755859375,-115.25900268554688 -125.82099914550781,-102.62300109863281 -135.968994140625,-102.79299926757812z"></path></g></g></g></svg>