<svg xmlns="http://www.w3.org/2000/svg" xmlns:xlink="http://www.w3.org/1999/xlink" viewBox="0 0 512 512" width="512" height="512" style="width: 100%; height: 100%; transform: translate3d(0,0,0);" preserveAspectRatio="xMidYMid meet"><defs><clipPath id="__lottie_element_53269"><rect width="512" height="512" x="0" y="0"></rect></clipPath></defs><g clip-path="url(#__lottie_element_53269)"><g style="display: block;" transform="matrix(1,0,0,1,8.579986572265625,60.75)" opacity="1"><g opacity="1" transform="matrix(1,0,0,1,246.8350067138672,194.75)"><path fill="rgb(0,0,0)" fill-opacity="1" d=" M250.5850067138672,-40.88600158691406 C250.5749969482422,-103.15499877929688 79.5770034790039,-226.5 0.18000000715255737,-226.5 C-77.18099975585938,-226.5 -251.2519989013672,-110.44599914550781 -251.33399963378906,-45.1619987487793 C-251.4149932861328,19.86199951171875 -185.4149932861328,38.5 -186.0959930419922,61.970001220703125 C-186.47300720214844,74.96900177001953 -202.70700073242188,76.26300048828125 -200.3470001220703,97.43699645996094 C-194.6999969482422,148.10400390625 -117.89700317382812,221.27999877929688 3.2339999675750732,221.27999877929688 C123.34700012207031,221.27999877929688 195.2239990234375,139.78700256347656 201.7259979248047,96.94499969482422 C205.1479949951172,74.3949966430664 182.53799438476562,71.25 182.38499450683594,58.42300033569336 C182.23199462890625,45.606998443603516 250.593994140625,15.862000465393066 250.5850067138672,-40.88600158691406z M22.579999923706055,-113.65499877929688 C22.847000122070312,-95.18800354003906 18.23200035095215,-67.83399963378906 0.503000020980835,-67.88999938964844 C-17.476999282836914,-67.94599914550781 -25.233999252319336,-88.6520004272461 -25.961000442504883,-112.30799865722656 C-26.601999282836914,-133.1699981689453 -20.062999725341797,-157.74899291992188 -1.565999984741211,-157.7169952392578 C17.319000244140625,-157.6840057373047 22.325000762939453,-131.302001953125 22.579999923706055,-113.65499877929688z M141.7429962158203,64.65399932861328 C119.22699737548828,73.40299987792969 69.41400146484375,90.4000015258789 4.26800012588501,90.12000274658203 C-78.2030029296875,89.76499938964844 -117.54399871826172,72.73899841308594 -142.99099731445312,64.46199798583984 C-154.0050048828125,60.880001068115234 -149.60699462890625,32.54100036621094 -139.93699645996094,30.176000595092773 C-120.59700012207031,25.44700050354004 -64.96900177001953,25.360000610351562 3.250999927520752,25.09600067138672 C64.32499694824219,24.860000610351562 120.36499786376953,25.645999908447266 142.76100158691406,31.551000595092773 C153.16400146484375,34.29399871826172 150.43699645996094,61.2760009765625 141.7429962158203,64.65399932861328z"></path></g></g></g></svg>