<svg xmlns="http://www.w3.org/2000/svg" xmlns:xlink="http://www.w3.org/1999/xlink" viewBox="0 0 512 512" width="512" height="512" style="width: 100%; height: 100%; transform: translate3d(0,0,0);" preserveAspectRatio="xMidYMid meet"><defs><clipPath id="__lottie_element_52210"><rect width="512" height="512" x="0" y="0"></rect></clipPath></defs><g clip-path="url(#__lottie_element_52210)"><g style="display: block;" transform="matrix(1,0,0,1,259.5329895019531,252.8419952392578)" opacity="1"><g opacity="1" transform="matrix(1,0,0,1,0,0)"><path fill="rgb(0,0,0)" fill-opacity="1" d=" M58.369998931884766,50.14699935913086 C66.23799896240234,53.00299835205078 69.65699768066406,63.46900177001953 66.00700378417969,73.52300262451172 C62.356998443603516,83.5770034790039 53.02000045776367,89.41100311279297 45.152000427246094,86.55500030517578 C37.284000396728516,83.6989974975586 33.8650016784668,73.23300170898438 37.51499938964844,63.17900085449219 C41.165000915527344,53.125 50.50199890136719,47.29100036621094 58.369998931884766,50.14699935913086z M11.928999900817871,2.687999963760376 C16.73699951171875,-9.008000373840332 28.05299949645996,-15.439000129699707 37.20500183105469,-11.677000045776367 C46.356998443603516,-7.914999961853027 49.87900161743164,4.616000175476074 45.07099914550781,16.312000274658203 C40.26300048828125,28.007999420166016 28.94700050354004,34.43899917602539 19.795000076293945,30.677000045776367 C10.642999649047852,26.915000915527344 7.120999813079834,14.383999824523926 11.928999900817871,2.687999963760376z M164.41600036621094,-162.6790008544922 C134.55599975585938,-157.69900512695312 114.64600372314453,-137.78900146484375 114.64600372314453,-137.78900146484375 C114.64600372314453,-137.78900146484375 108.6760025024414,-180.5989990234375 65.8759994506836,-220.40899658203125 C23.076000213623047,-260.22900390625 -12.763999938964844,-242.3090057373047 1.1759999990463257,-180.5989990234375 C15.105999946594238,-118.87899780273438 71.84600067138672,-98.96900177001953 71.84600067138672,-98.96900177001953 C65.8759994506836,-94.98899841308594 60.895999908447266,-85.03900146484375 60.895999908447266,-85.03900146484375 C-27.694000244140625,-127.83899688720703 -89.40399932861328,-49.20899963378906 -114.29399871826172,-22.32900047302246 C-139.1739959716797,4.551000118255615 -203.87600708007812,33.41299819946289 -188.94500732421875,108.06700134277344 C-173.3459930419922,186.06399536132812 -101.35399627685547,193.67100524902344 -101.35399627685547,193.67100524902344 C-101.35399627685547,193.67100524902344 -81.36699676513672,237.9550018310547 -8.784000396728516,241.4510040283203 C73.83699798583984,245.43099975585938 100.71600341796875,176.75100708007812 107.6760025024414,129.96099853515625 C114.64600372314453,83.18099975585938 131.5659942626953,42.37099838256836 125.59600067138672,-2.4189999103546143 C119.6259994506836,-47.20899963378906 87.7760009765625,-68.11900329589844 87.7760009765625,-68.11900329589844 C118.6259994506836,-114.89900207519531 172.37600708007812,-119.87899780273438 184.3260040283203,-128.83900451660156 C196.26600646972656,-137.78900146484375 194.2760009765625,-167.65899658203125 164.41600036621094,-162.6790008544922z"></path></g></g></g></svg>