<svg xmlns="http://www.w3.org/2000/svg" xmlns:xlink="http://www.w3.org/1999/xlink" viewBox="0 0 512 512" width="512" height="512" style="width: 100%; height: 100%; transform: translate3d(0,0,0);" preserveAspectRatio="xMidYMid meet"><defs><clipPath id="__lottie_element_51320"><rect width="512" height="512" x="0" y="0"></rect></clipPath></defs><g clip-path="url(#__lottie_element_51320)"><g style="display: block;" transform="matrix(1,0,0,1,256,255.99998474121094)" opacity="1"><g opacity="1" transform="matrix(1,0,0,1,0,0)"><path fill="rgb(0,0,0)" fill-opacity="1" d=" M-121.87000274658203,101.11599731445312 C-136.2760009765625,23.51799964904785 -76.6709976196289,-47.43299865722656 1.5099999904632568,-47.43299865722656 C79.71499633789062,-47.43299865722656 139.23599243164062,23.510000228881836 124.90799713134766,101.02100372314453 C284.34100341796875,55.9739990234375 257.7099914550781,-73.85199737548828 178.593994140625,-82.03099822998047 C228.66799926757812,-152.54200744628906 130.41200256347656,-233.13900756835938 70.80799865722656,-171.33900451660156 C65.52400207519531,-258.5299987792969 -64.02300262451172,-258.6340026855469 -69.31300354003906,-171.33900451660156 C-109.3219985961914,-212.82200622558594 -177.9759979248047,-190.38999938964844 -188.61900329589844,-136.9969940185547 C-190.07200622558594,-129.70700073242188 -186.1280059814453,-122.39700317382812 -179.3159942626953,-119.41999816894531 C-150.1060028076172,-106.65599822998047 -127.2490005493164,-86.6780014038086 -113.14900207519531,-56.808998107910156 C-109.4010009765625,-48.86899948120117 -119.45899963378906,-40.98500061035156 -126.52300262451172,-48.025001525878906 C-136.88999938964844,-58.27899932861328 -148.53799438476562,-66.28700256347656 -162.76400756835938,-71.22699737548828 C-189.8489990234375,-80.63200378417969 -220.10299682617188,-69.04000091552734 -232.73599243164062,-43.301998138427734 C-254.49400329589844,1.0269999504089355 -230.78700256347656,70.64700317382812 -121.87000274658203,101.11599731445312z"></path></g><g opacity="1" transform="matrix(1,0,0,1,0,0)"><path fill="rgb(0,0,0)" fill-opacity="1" d=" M73.24199676513672,162.2239990234375 C40.07699966430664,109.20700073242188 -37.04800033569336,109.19499969482422 -70.22100067138672,162.2239990234375 C-99.43399810791016,115.5260009765625 -164.65499877929688,108.71099853515625 -202.8260040283203,148.32400512695312 C-209.07000732421875,154.8040008544922 -208.49899291992188,165.2030029296875 -201.81300354003906,171.22500610351562 C-86.6989974975586,274.9129943847656 88.51399993896484,273.0639953613281 201.468994140625,167.3679962158203 C208.25,161.0229949951172 208.24400329589844,150.13299560546875 201.3209991455078,143.94200134277344 C162.31300354003906,109.05799865722656 101.13500213623047,117.63600158691406 73.24199676513672,162.2239990234375z"></path></g><g opacity="1" transform="matrix(1,0,0,1,0,0)"><path fill="rgb(0,0,0)" fill-opacity="1" d=" M-75.26000213623047,60.98500061035156 C-39.82699966430664,78.23500061035156 6.795000076293945,-10.347000122070312 -20.246000289916992,-26.198999404907227 C-58.91899871826172,-48.86899948120117 -110.69300079345703,43.73500061035156 -75.26000213623047,60.98500061035156z"></path></g></g></g></svg>