<svg xmlns="http://www.w3.org/2000/svg" xmlns:xlink="http://www.w3.org/1999/xlink" viewBox="0 0 512 512" width="512" height="512" style="width: 100%; height: 100%; transform: translate3d(0,0,0);" preserveAspectRatio="xMidYMid meet"><defs><clipPath id="__lottie_element_52323"><rect width="512" height="512" x="0" y="0"></rect></clipPath></defs><g clip-path="url(#__lottie_element_52323)"><g style="display: block;" transform="matrix(1.0399999618530273,0,0,1.0399999618530273,-1132.1898193359375,-1325.63818359375)" opacity="1"><g opacity="1" transform="matrix(1,0,0,1,0,0)"><g opacity="1" transform="matrix(1,0,0,1,1301.6700439453125,1682.39697265625)"><path fill="rgb(0,0,0)" fill-opacity="1" d=" M23.73200035095215,81.6729965209961 C9.730999946594238,82.2020034790039 3.247999906539917,79.1500015258789 -4.916999816894531,67.78700256347656 C-13.782999992370605,55.60100173950195 -47.09700012207031,11.595000267028809 -44.71699905395508,-1.1109999418258667 C-43.1150016784668,-9.538000106811523 -34.38399887084961,-14.99899959564209 -28.448999404907227,-20.618000030517578 C-13.35099983215332,-33.75899887084961 0.08900000154972076,-48.374000549316406 12.206000328063965,-64.20600128173828 C15.569999694824219,-68.33799743652344 19.2549991607666,-72.1259994506836 24.18600082397461,-74.55000305175781 C40.327999114990234,-82.2030029296875 42.632999420166016,-70.41000366210938 39.27399826049805,-57.59400177001953 C36.104000091552734,-45.45000076293945 29.232999801635742,-34.68000030517578 20.246999740600586,-25.61199951171875 C15.196999549865723,-20.273000717163086 9.017999649047852,-15.737000465393066 4.340000152587891,-10.093000411987305 C0.013000000268220901,-5.1539998054504395 0.7760000228881836,1.1679999828338623 3.9830000400543213,6.480999946594238 C13.211999893188477,22.04199981689453 23.302000045776367,37.11199951171875 33.051998138427734,52.3489990234375 C35.99800109863281,57.00899887084961 39.625999450683594,61.417999267578125 41.847999572753906,66.46499633789062 C47.09700012207031,79.33100128173828 33.95500183105469,82.00900268554688 23.93199920654297,81.6719970703125 C23.93199920654297,81.6719970703125 23.73200035095215,81.6729965209961 23.73200035095215,81.6729965209961z"></path></g><g opacity="1" transform="matrix(1,0,0,1,1336.782958984375,1520.52294921875)"><path fill="rgb(0,0,0)" fill-opacity="1" d=" M-91.32499694824219,242.1580047607422 C-94.68699645996094,240.47000122070312 -97.48600006103516,237.4459991455078 -99.72100067138672,234.2989959716797 C-114.83699798583984,213.04100036621094 -124.38800048828125,189.9810028076172 -135.04299926757812,167.656005859375 C-137.7270050048828,161.87399291992188 -141.13099670410156,155.45700073242188 -140.447998046875,148.98300170898438 C-139.71299743652344,142.63299560546875 -134.74000549316406,137.61000061035156 -130.75799560546875,132.81700134277344 C-116.21900177001953,116.19400024414062 -110.11599731445312,96 -110.677001953125,73.87999725341797 C-110.63999938964844,64.44000244140625 -113.94599914550781,56.14500045776367 -124.99800109863281,60.35900115966797 C-140.43299865722656,66.2760009765625 -152.9429931640625,77.7249984741211 -157.58900451660156,93.77100372314453 C-161.01499938964844,105.96099853515625 -160.86300659179688,118.78299713134766 -162.44200134277344,131.2550048828125 C-165.79200744628906,171.99400329589844 -177.22799682617188,196.49200439453125 -214.56500244140625,216.08700561523438 C-226.14300537109375,221.0240020751953 -224.8780059814453,209.81900024414062 -222.94900512695312,202.27200317382812 C-217.7209930419922,178.25 -222.60800170898438,153.72000122070312 -220.69200134277344,129.4510040283203 C-212.68699645996094,36.979000091552734 -161.76600646972656,33.83599853515625 -87.41200256347656,8.479999542236328 C-63.44900131225586,0.20800000429153442 -39.96200180053711,-9.336999893188477 -17.256000518798828,-20.652000427246094 C-10.390999794006348,-24.007999420166016 -3.4489998817443848,-27.086999893188477 3.5850000381469727,-30.12700080871582 C7.5960001945495605,-31.93199920654297 11.824000358581543,-33.810001373291016 14.994999885559082,-36.89500045776367 C20.051000595092773,-41.53499984741211 19.97800064086914,-49.16699981689453 19.61199951171875,-55.638999938964844 C18.80500030517578,-69.23200225830078 19.759000778198242,-82.69300079345703 20.704999923706055,-96.20999908447266 C21.804000854492188,-140.33900451660156 39.40999984741211,-187.16099548339844 79.97100067138672,-209.01199340820312 C85.7979965209961,-212.3509979248047 92.09500122070312,-215.52699279785156 97.25,-219.62100219726562 C102.86499786376953,-223.9219970703125 107.02999877929688,-229.63999938964844 111.31300354003906,-235.3719940185547 C113.8270034790039,-239.07400512695312 119.97799682617188,-244.88499450683594 123.27300262451172,-239.16900634765625 C125.21199798583984,-235.75399780273438 125.02899932861328,-229.79299926757812 127.00700378417969,-225.80099487304688 C130.552001953125,-218.34100341796875 139.95399475097656,-217.44200134277344 147.18099975585938,-215.25100708007812 C151.8990020751953,-213.9530029296875 156.5260009765625,-212.3280029296875 160.8159942626953,-210.04600524902344 C173.95899963378906,-203.8509979248047 175.93600463867188,-192.08099365234375 184.74000549316406,-182.72900390625 C194.19200134277344,-172.2989959716797 217.01499938964844,-175.89500427246094 214.156005859375,-157.51800537109375 C209.4739990234375,-131.0959930419922 204.2030029296875,-133.1959991455078 180.8800048828125,-139.98800659179688 C170.218994140625,-142.63900756835938 159.58700561523438,-142.50399780273438 148.78900146484375,-142.0959930419922 C139.10400390625,-142.10800170898438 132.3070068359375,-138.6649932861328 133.66000366210938,-128.59800720214844 C134.5240020751953,-121.35199737548828 136.61500549316406,-114.12899780273438 139.01699829101562,-107.21800231933594 C143.468994140625,-94.41100311279297 150.13299560546875,-82.18199920654297 152.56399536132812,-68.73999786376953 C153.85000610351562,-61.83100128173828 154.16400146484375,-54.816001892089844 153.57899475097656,-47.80400085449219 C152.8159942626953,-37.76599884033203 147.72799682617188,-25.257999420166016 162.51199340820312,-24.110000610351562 C172.64199829101562,-23.246000289916992 182.906005859375,-23.979000091552734 193.09100341796875,-23.985000610351562 C201.75999450683594,-23.945999145507812 213.1820068359375,-25.013999938964844 219.1790008544922,-19.10700035095215 C226.14300537109375,-11.678000450134277 224.78199768066406,0.25999999046325684 224.14500427246094,9.753999710083008 C223.0489959716797,22.500999450683594 221.9250030517578,35.22600173950195 220.69200134277344,47.979000091552734 C220.10499572753906,53.599998474121094 219.23599243164062,59.36199951171875 216.74400329589844,64.45999908447266 C210.5709991455078,76.1719970703125 198.11500549316406,83.58399963378906 186.25100708007812,88.625 C176.56900024414062,92.63600158691406 165.91700744628906,91.7750015258789 162.96400451660156,80.12100219726562 C161.36399841308594,74.01599884033203 161.00100708007812,66.3949966430664 165.58200073242188,61.47600173950195 C170.0240020751953,56.736000061035156 178.4759979248047,55.30400085449219 183.41600036621094,50.270999908447266 C194.5240020751953,39.50299835205078 195.0489959716797,16.40399932861328 174.26800537109375,20.07699966430664 C151.14599609375,23.367000579833984 127.8239974975586,26.298999786376953 105.51899719238281,33.48099899291992 C70.87300109863281,45.97600173950195 38.04999923706055,63.2599983215332 2.434000015258789,73.10800170898438 C-8.508000373840332,76.26799774169922 -20.110000610351562,79.43599700927734 -27.41200065612793,88.802001953125 C-31.003999710083008,93.0770034790039 -33.957000732421875,98 -37.08300018310547,102.63099670410156 C-67.50399780273438,150.99099731445312 -105.33699798583984,140.80499267578125 -85.41600036621094,175.375 C-79.77300262451172,187.9530029296875 -53.268001556396484,227.6439971923828 -57.3849983215332,237.8159942626953 C-59.792999267578125,243.9409942626953 -67.56600189208984,244.156005859375 -73.90699768066406,244.34500122070312 C-79.68599700927734,244.32899475097656 -85.8550033569336,244.88400268554688 -91.16100311279297,242.24099731445312 C-91.16100311279297,242.24099731445312 -91.32499694824219,242.1580047607422 -91.32499694824219,242.1580047607422z M151.34300231933594,-185.0399932861328 C151.39300537109375,-190.19000244140625 146.86199951171875,-195.40199279785156 141.5240020751953,-194.96099853515625 C136.31399536132812,-194.5570068359375 132.5540008544922,-189.01600646972656 133.08799743652344,-183.91000366210938 C134.39100646972656,-172.53199768066406 151.0919952392578,-173.427001953125 151.3419952392578,-184.83999633789062 C151.3419952392578,-184.83999633789062 151.34300231933594,-185.0399932861328 151.34300231933594,-185.0399932861328z"></path></g><g opacity="1" transform="matrix(1,0,0,1,1222.364990234375,1405.427978515625)"><path fill="rgb(0,0,0)" fill-opacity="1" d=" M-123.89800262451172,-98.15499877929688 C-121.68900299072266,-100.69100189208984 -115.67500305175781,-98.33399963378906 -112.49500274658203,-97.10900115966797 C-104.88600158691406,-94.07499694824219 -97.03399658203125,-91.88400268554688 -89.10299682617188,-90.48600006103516 C-82.86900329589844,-89.37200164794922 -76.56400299072266,-88.6969985961914 -70.21800231933594,-88.33200073242188 C-25.452999114990234,-87.24199676513672 19.26799964904785,-91.81199645996094 63.97700119018555,-93.94300079345703 C79.36100006103516,-95.0250015258789 97.46800231933594,-95.81300354003906 107.88700103759766,-82.29199981689453 C118.41600036621094,-68.41200256347656 123.66500091552734,-50.15800094604492 123.9229965209961,-32.847999572753906 C123.927001953125,-25.8799991607666 123.1520004272461,-18.923999786376953 122.78600311279297,-11.973999977111816 C121.75499725341797,6.495999813079834 122.52100372314453,24.92300033569336 123.6760025024414,43.3489990234375 C125.56800079345703,70.9739990234375 125.97000122070312,73.56500244140625 99.4749984741211,84.24600219726562 C82.90699768066406,91.04199981689453 66.13700103759766,100.69000244140625 47.83300018310547,100.35600280761719 C26.44700050354004,100.2969970703125 10.024999618530273,85.41600036621094 -4.264999866485596,71.18800354003906 C-10.637999534606934,64.43800354003906 -7.214000225067139,61.090999603271484 0.3190000057220459,60.29100036621094 C24.959999084472656,57.823001861572266 49.26599884033203,57.06399917602539 72.26599884033203,50.819000244140625 C86.84100341796875,46.37799835205078 80.5999984741211,42.49800109863281 69.03900146484375,44.2140007019043 C44.446998596191406,47.53200149536133 19.78499984741211,49.970001220703125 -5.104000091552734,49.37900161743164 C-16.187000274658203,49.06700134277344 -27.492000579833984,48.92499923706055 -38.27299880981445,46.12699890136719 C-48.880001068115234,43.30500030517578 -57.42100143432617,36.40700149536133 -63.10300064086914,26.881999969482422 C-64.90499877929688,23.9689998626709 -66.55599975585938,19.4060001373291 -65.43299865722656,16.900999069213867 C-64.11599731445312,13.239999771118164 -58.64899826049805,12.942000389099121 -54.89899826049805,13.08899974822998 C-14.628999710083008,15.592000007629395 26.125,16.867000579833984 66.16699981689453,8.789999961853027 C68.68099975585938,8.156000137329102 71.0270004272461,7.401000022888184 72.76100158691406,5.9120001792907715 C73.36599731445312,5.361999988555908 73.822998046875,4.673999786376953 73.43399810791016,3.9010000228881836 C71.08999633789062,1.159000039100647 63.979000091552734,2.187000036239624 60.05699920654297,2.4739999771118164 C49.698001861572266,3.424999952316284 39.297000885009766,4.526000022888184 28.89900016784668,5.084000110626221 C11.663000106811523,6.063000202178955 -5.630000114440918,5.090000152587891 -22.888999938964844,4.35699987411499 C-40.38199996948242,3.2660000324249268 -58.08300018310547,3.4700000286102295 -75.51799774169922,1.5010000467300415 C-87.62699890136719,-0.32899999618530273 -96.08000183105469,-10.118000030517578 -102.01699829101562,-20.2189998626709 C-108.92500305175781,-31.974000930786133 -104.98400115966797,-37.75299835205078 -91.18399810791016,-36.43600082397461 C-44.07400131225586,-32.316001892089844 3.4590001106262207,-30.18600082397461 50.53099822998047,-36.16699981689453 C57.27199935913086,-37.0880012512207 64.66699981689453,-38.0629997253418 70.6729965209961,-40.827999114990234 C75.63899993896484,-43.21699905395508 73.2959976196289,-44.808998107910156 69.14800262451172,-44.87200164794922 C66.26000213623047,-44.983001708984375 62.678001403808594,-44.70800018310547 59.59600067138672,-44.4379997253418 C13.534000396728516,-39.36399841308594 -33.481998443603516,-39.862998962402344 -78.9010009765625,-49.58700180053711 C-98.73799896240234,-54.9900016784668 -112.56300354003906,-68.74099731445312 -121.93399810791016,-86.50299835205078 C-123.71099853515625,-89.66699981689453 -125.97100067138672,-95.83200073242188 -123.96600341796875,-98.072998046875 C-123.96600341796875,-98.072998046875 -123.89800262451172,-98.15499877929688 -123.89800262451172,-98.15499877929688z"></path></g></g></g></g></svg>