<svg xmlns="http://www.w3.org/2000/svg" xmlns:xlink="http://www.w3.org/1999/xlink" viewBox="0 0 512 512" width="512" height="512" style="width: 100%; height: 100%; transform: translate3d(0,0,0);" preserveAspectRatio="xMidYMid meet"><defs><clipPath id="__lottie_element_52673"><rect width="512" height="512" x="0" y="0"></rect></clipPath></defs><g clip-path="url(#__lottie_element_52673)"><g style="display: block;" transform="matrix(1,0,0,1,256,255.99998474121094)" opacity="1"><g opacity="1" transform="matrix(1,0,0,1,0,0)"><path fill="rgb(0,0,0)" fill-opacity="1" d=" M-13.21399974822998,144.3730010986328 C3.99399995803833,140.16799926757812 20.215999603271484,131.61399841308594 25.45400047302246,117.24500274658203 C27.54599952697754,111.50700378417969 25.94700050354004,105.06500244140625 21.628000259399414,100.74600219726562 C21.628000259399414,100.74600219726562 -79.56300354003906,-0.44600000977516174 -79.56300354003906,-0.44600000977516174 C-85.65499877929688,-6.538000106811523 -86.21499633789062,-16.461999893188477 -80.41500091552734,-22.83300018310547 C-74.2229995727539,-29.635000228881836 -63.68299865722656,-29.82200050354004 -57.25400161743164,-23.392000198364258 C-57.25400161743164,-23.392000198364258 52.82400131225586,86.68699645996094 52.82400131225586,86.68699645996094 C74.34200286865234,101.16300201416016 102.65299987792969,74.51499938964844 87.31900024414062,44.67300033569336 C87.31900024414062,44.67300033569336 -46.14899826049805,-88.79499816894531 -46.14899826049805,-88.79499816894531 C-52.24100112915039,-94.88700103759766 -52.79999923706055,-104.80999755859375 -47.000999450683594,-111.18099975585938 C-40.808998107910156,-117.98300170898438 -30.268999099731445,-118.16999816894531 -23.84000015258789,-111.74099731445312 C-23.84000015258789,-111.74099731445312 103.81700134277344,15.916000366210938 103.81700134277344,15.916000366210938 C106.79100036621094,18.889999389648438 110.81700134277344,20.618999481201172 115.02200317382812,20.607999801635742 C129.302001953125,20.570999145507812 142.1529998779297,14.369999885559082 151.2989959716797,4.433000087738037 C157.05999755859375,-1.8259999752044678 156.7310028076172,-11.5600004196167 150.71600341796875,-17.575000762939453 C112.51300048828125,-55.77799987792969 -29.198999404907227,-197.49000549316406 -44.13399887084961,-212.4250030517578 C-44.13399887084961,-212.4250030517578 -44.13399887084961,-212.42599487304688 -44.13399887084961,-212.42599487304688 C-77.40299987792969,-245.69500732421875 -131.843994140625,-245.69400024414062 -165.11300659179688,-212.4250030517578 C-165.11300659179688,-212.4250030517578 -212.4250030517578,-165.11300659179688 -212.4250030517578,-165.11300659179688 C-245.69400024414062,-131.843994140625 -245.69400024414062,-77.40299987792969 -212.4250030517578,-44.13399887084961 C-212.4250030517578,-44.13399887084961 -212.4250030517578,-44.13399887084961 -212.4250030517578,-44.13399887084961 C-212.4250030517578,-44.13399887084961 -186.8040008544922,-18.511999130249023 -186.8040008544922,-18.511999130249023 C-186.8040008544922,-18.511999130249023 -104.21399688720703,-95.11599731445312 -104.21399688720703,-95.11599731445312 C-97.3550033569336,-101.47799682617188 -86.9489974975586,-92.90399932861328 -91.8550033569336,-84.9540023803711 C-91.8550033569336,-84.9540023803711 -153.4759979248047,14.8149995803833 -153.4759979248047,14.8149995803833 C-153.4759979248047,14.8149995803833 -28.183000564575195,140.10800170898438 -28.183000564575195,140.10800170898438 C-24.267000198364258,144.0240020751953 -18.593000411987305,145.68699645996094 -13.21399974822998,144.3730010986328z"></path></g><g opacity="1" transform="matrix(1,0,0,1,0,0)"><path fill="rgb(0,0,0)" fill-opacity="1" d=" M231.15199279785156,201.09100341796875 C231.15199279785156,201.09100341796875 194.85000610351562,145.35899353027344 194.85000610351562,145.35899353027344 C194.85000610351562,145.35899353027344 177.74000549316406,53.44499969482422 177.74000549316406,53.44499969482422 C175.7469940185547,42.73899841308594 163.8209991455078,37.01599884033203 154.32400512695312,42.345001220703125 C144.90899658203125,47.62799835205078 134.35800170898438,51.111000061035156 123.08899688720703,52.24399948120117 C129.13600158691406,92.69200134277344 95.38200378417969,128.28599548339844 57.31700134277344,122.14600372314453 C54.53200149536133,133.13299560546875 49.01599884033203,142.52499389648438 41.58300018310547,150.31500244140625 C32.79199981689453,159.5290069580078 37.65999984741211,174.80099487304688 50.18000030517578,177.1320037841797 C50.18000030517578,177.1320037841797 145.35899353027344,194.85000610351562 145.35899353027344,194.85000610351562 C145.35899353027344,194.85000610351562 201.09100341796875,231.15199279785156 201.09100341796875,231.15199279785156 C220.95199584960938,251.01300048828125 251.0330047607422,220.97300720214844 231.15199279785156,201.09100341796875z"></path></g></g></g></svg>