<svg xmlns="http://www.w3.org/2000/svg" xmlns:xlink="http://www.w3.org/1999/xlink" viewBox="0 0 512 512" width="512" height="512" style="width: 100%; height: 100%; transform: translate3d(0,0,0);" preserveAspectRatio="xMidYMid meet"><defs><clipPath id="__lottie_element_679"><rect width="512" height="512" x="0" y="0"></rect></clipPath></defs><g clip-path="url(#__lottie_element_679)"><g style="display: block;" transform="matrix(1,0,0,1,20.22100830078125,4.6179962158203125)" opacity="1"><g opacity="1" transform="matrix(1,0,0,1,236.08299255371094,251.3820037841797)"><path fill="rgb(0,0,0)" fill-opacity="1" d=" M234.822998046875,30.66200065612793 C233.81900024414062,2.681999921798706 205.39700317382812,-27.39900016784668 187.80999755859375,-31.059999465942383 C187.89100646972656,-31.30699920654297 187.96800231933594,-31.548999786376953 188.0489959716797,-31.797000885009766 C193.13099670410156,-47.25600051879883 198.89199829101562,-64.77899932861328 195.54800415039062,-99.33300018310547 C192.24099731445312,-133.51699829101562 169.52200317382812,-171.406005859375 134.7740020751953,-200.68899536132812 C96.177001953125,-233.21600341796875 47.97600173950195,-251.1320037841797 -0.9470000267028809,-251.1320037841797 C-49.87099838256836,-251.1320037841797 -98.07099914550781,-233.21600341796875 -136.66799926757812,-200.68899536132812 C-171.41600036621094,-171.406005859375 -194.13499450683594,-133.51699829101562 -197.44200134277344,-99.33300018310547 C-200.78599548339844,-64.77899932861328 -195.02499389648438,-47.25600051879883 -189.9429931640625,-31.797000885009766 C-189.84500122070312,-31.49799919128418 -189.7530059814453,-31.207000732421875 -189.65499877929688,-30.90999984741211 C-206.9080047607422,-26.570999145507812 -233.91900634765625,3.0169999599456787 -234.86900329589844,30.594999313354492 C-235.83299255371094,58.551998138427734 -191.42999267578125,101.61100006103516 -169.74600219726562,106.08499908447266 C-167.552001953125,124.13700103759766 -163.2209930419922,144.78500366210938 -153.5679931640625,159.66700744628906 C-141.1439971923828,178.81900024414062 -124.50199890136719,191.48800659179688 -111.13099670410156,201.66700744628906 C-105.95999908447266,205.6020050048828 -101.07599639892578,209.31900024414062 -97.47100067138672,212.66900634765625 C-96.4800033569336,213.58999633789062 -95.46499633789062,214.56100463867188 -94.41000366210938,215.5659942626953 C-80.47599792480469,228.8679962158203 -57.152000427246094,251.1320037841797 -0.9470000267028809,251.1320037841797 C55.257999420166016,251.1320037841797 78.58200073242188,228.8679962158203 92.51599884033203,215.5659942626953 C93.57099914550781,214.56100463867188 94.58599853515625,213.58999633789062 95.57599639892578,212.66900634765625 C99.18199920654297,209.31900024414062 104.06600189208984,205.6020050048828 109.23600006103516,201.66700744628906 C122.60800170898438,191.48800659179688 139.25,178.81900024414062 151.6739959716797,159.66700744628906 C161.3090057373047,144.81399536132812 165.64100646972656,124.21499633789062 167.83999633789062,106.18699645996094 C189.8090057373047,102.2760009765625 235.83299255371094,58.82899856567383 234.822998046875,30.66200065612793z M-167.68299865722656,-96.66000366210938 C-165.10800170898438,-123.2760009765625 -145.6840057373047,-154.83299255371094 -116.99099731445312,-179.01400756835938 C-83.84300231933594,-206.947998046875 -42.63100051879883,-222.33299255371094 -0.9470000267028809,-222.33299255371094 C40.73699951171875,-222.33299255371094 81.947998046875,-206.947998046875 115.09700012207031,-179.01400756835938 C143.78900146484375,-154.83299255371094 163.21400451660156,-123.2760009765625 165.78900146484375,-96.66000366210938 C168.57000732421875,-67.91300201416016 164.19200134277344,-54.59400177001953 159.55499267578125,-40.49399948120117 C157.22500610351562,-33.40299987792969 154.81399536132812,-26.06999969482422 153.26400756835938,-16.98699951171875 C151.64599609375,-7.514999866485596 153.3040008544922,0.6179999709129333 154.76499938964844,7.793000221252441 C156.11900329589844,14.437999725341797 157.28900146484375,20.179000854492188 155.96600341796875,26.867000579833984 C155.77999877929688,27.81100082397461 155.54800415039062,28.729000091552734 155.2969970703125,29.638999938964844 C153.99200439453125,32.27799987792969 152.53900146484375,34.94300079345703 150.88400268554688,37.62900161743164 C139.97500610351562,55.323001861572266 107.35399627685547,71.74099731445312 105.24400329589844,77.16200256347656 C103.94200134277344,80.50900268554688 103.24099731445312,105.84100341796875 102.63800048828125,122.81900024414062 C102.41600036621094,129.0659942626953 111.37999725341797,130.91400146484375 113.8270034790039,125.1259994506836 C120.08799743652344,110.32099914550781 125.6780014038086,88.3759994506836 130.91299438476562,87.32499694824219 C139.3520050048828,85.63200378417969 135.48399353027344,133.06300354003906 119.30999755859375,146.9530029296875 C103.13500213623047,160.843994140625 90.47599792480469,154.66000366210938 80.63099670410156,171.26199340820312 C70.78500366210938,187.86199951171875 54.23699951171875,207.36300659179688 -0.9470000267028809,207.36300659179688 C-56.13100051879883,207.36300659179688 -72.67900085449219,187.86199951171875 -82.5250015258789,171.26199340820312 C-92.37000274658203,154.66000366210938 -105.02899932861328,160.843994140625 -121.2040023803711,146.9530029296875 C-137.37899780273438,133.06300354003906 -141.2469940185547,85.63200378417969 -132.80799865722656,87.32499694824219 C-127.62899780273438,88.36499786376953 -121.58999633789062,108.64900207519531 -115.01499938964844,122.24299621582031 C-112.32099914550781,127.81300354003906 -103.625,125.73200225830078 -103.94599914550781,119.59500122070312 C-104.75299835205078,104.15899658203125 -105.56300354003906,80.30699920654297 -106.78700256347656,77.16200256347656 C-108.89700317382812,71.74099731445312 -137.7969970703125,52.89099884033203 -152.12600708007812,37.62900161743164 C-153.61500549316406,36.042999267578125 -154.9459991455078,34.4630012512207 -156.16200256347656,32.88800048828125 C-156.86000061035156,30.94499969482422 -157.44900512695312,28.954999923706055 -157.86099243164062,26.867000579833984 C-159.1840057373047,20.179000854492188 -158.01499938964844,14.4399995803833 -156.66000366210938,7.794000148773193 C-155.197998046875,0.6200000047683716 -153.54100036621094,-7.513000011444092 -155.1580047607422,-16.98699951171875 C-156.70799255371094,-26.06999969482422 -159.11900329589844,-33.40299987792969 -161.4499969482422,-40.49399948120117 C-166.08599853515625,-54.59400177001953 -170.46400451660156,-67.91300201416016 -167.68299865722656,-96.66000366210938z"></path></g><g opacity="1" transform="matrix(1,0,0,1,317.5559997558594,244.05499267578125)"><path fill="rgb(0,0,0)" fill-opacity="1" d=" M0,-28.79800033569336 C-15.041999816894531,-28.79800033569336 -27.236000061035156,-15.904999732971191 -27.236000061035156,0 C-27.236000061035156,15.904999732971191 -15.041999816894531,28.79800033569336 0,28.79800033569336 C15.041999816894531,28.79800033569336 27.236000061035156,15.904999732971191 27.236000061035156,0 C27.236000061035156,-15.904999732971191 15.041999816894531,-28.79800033569336 0,-28.79800033569336z"></path></g><g opacity="1" transform="matrix(1,0,0,1,235.13600158691406,342.5140075683594)"><path fill="rgb(0,0,0)" fill-opacity="1" d=" M59.777000427246094,5.974999904632568 C44.34000015258789,-3.003000020980835 24.790000915527344,-18.891000747680664 17.4060001373291,-18.884000778198242 C12.279999732971191,-18.878000259399414 4.395999908447266,-10.076000213623047 0,-10.076000213623047 C-4.394999980926514,-10.076000213623047 -12.279999732971191,-18.878000259399414 -17.405000686645508,-18.884000778198242 C-24.788999557495117,-18.891000747680664 -44.34000015258789,-3.003000020980835 -59.777000427246094,5.974999904632568 C-66.8759994506836,10.104000091552734 -78.23699951171875,8.729000091552734 -78.23699951171875,14.14799976348877 C-78.23699951171875,18.761999130249023 -69.9739990234375,18.891000747680664 -53.79899978637695,18.722000122070312 C-37.624000549316406,18.55299949645996 -18.57200050354004,10.355999946594238 0,10.355999946594238 C18.572999954223633,10.355999946594238 37.624000549316406,18.55299949645996 53.79899978637695,18.722000122070312 C69.9739990234375,18.891000747680664 78.23699951171875,18.729999542236328 78.23699951171875,14.14799976348877 C78.23699951171875,8.729000091552734 66.87699890136719,10.104000091552734 59.777000427246094,5.974999904632568z"></path></g><g opacity="1" transform="matrix(1,0,0,1,152.7169952392578,244.0540008544922)"><path fill="rgb(0,0,0)" fill-opacity="1" d=" M27.235000610351562,0 C27.235000610351562,-15.904000282287598 15.041000366210938,-28.79800033569336 -0.0010000000474974513,-28.79800033569336 C-15.043000221252441,-28.79800033569336 -27.236000061035156,-15.904000282287598 -27.236000061035156,0 C-27.236000061035156,15.904999732971191 -15.043000221252441,28.79800033569336 -0.0010000000474974513,28.79800033569336 C15.041000366210938,28.79800033569336 27.235000610351562,15.904999732971191 27.235000610351562,0z"></path></g><g opacity="1" transform="matrix(1,0,0,1,323.69500732421875,196.11500549316406)"><path fill="rgb(0,0,0)" fill-opacity="1" d=" M-49.0890007019043,18.628999710083008 C-43.814998626708984,15.388999938964844 -40.37099838256836,15.196000099182129 -27.72800064086914,14.173999786376953 C-7.684999942779541,12.555000305175781 41.895999908447266,15.793999671936035 47.433998107910156,17.009000778198242 C50.000999450683594,17.57200050354004 53.13399887084961,18.482999801635742 56.676998138427734,19.90399932861328 C61.04999923706055,21.656999588012695 64.9990005493164,16.45800018310547 62.487998962402344,12.246000289916992 C54.542999267578125,-1.0870000123977661 42.68199920654297,-18.642000198364258 36.88399887084961,-20.888999938964844 C27.91699981689453,-24.36400032043457 1.5449999570846558,-26.72800064086914 -36.43000030517578,-20.65399932861328 C-45.9640007019043,-19.128999710083008 -48.82400131225586,-21.733999252319336 -50.58300018310547,-20.65399932861328 C-52.340999603271484,-19.573999404907227 -64.9990005493164,13.904000282287598 -64.64700317382812,21.46299934387207 C-62.80099868774414,26.72800064086914 -54.362998962402344,21.868000030517578 -49.0890007019043,18.628999710083008z"></path></g><g opacity="1" transform="matrix(1,0,0,1,146.57699584960938,196.11500549316406)"><path fill="rgb(0,0,0)" fill-opacity="1" d=" M-56.678001403808594,19.90399932861328 C-53.1349983215332,18.482999801635742 -50.000999450683594,17.572999954223633 -47.433998107910156,17.010000228881836 C-41.895999908447266,15.795000076293945 7.684000015258789,12.553999900817871 27.726999282836914,14.173999786376953 C40.369998931884766,15.196000099182129 43.8129997253418,15.390000343322754 49.0880012512207,18.6299991607666 C54.36199951171875,21.868999481201172 62.803001403808594,26.72800064086914 64.64800262451172,21.46299934387207 C65,13.904000282287598 52.340999603271484,-19.573999404907227 50.58300018310547,-20.65399932861328 C48.82500076293945,-21.733999252319336 45.9630012512207,-19.128999710083008 36.42900085449219,-20.65399932861328 C-1.5460000038146973,-26.729000091552734 -27.91900062561035,-24.364999771118164 -36.8849983215332,-20.889999389648438 C-42.68299865722656,-18.642000198364258 -54.54399871826172,-1.0859999656677246 -62.48899841308594,12.246999740600586 C-65,16.458999633789062 -61.05099868774414,21.656999588012695 -56.678001403808594,19.90399932861328z"></path></g><g opacity="1" transform="matrix(1,0,0,1,234.7220001220703,268.4549865722656)"><path fill="rgb(0,0,0)" fill-opacity="1" d=" M-19.783000946044922,8.097000122070312 C-13.960000038146973,5.7729997634887695 -6.452000141143799,5.255000114440918 0.07400000095367432,5.210000038146973 C6.519000053405762,5.2870001792907715 14.244000434875488,5.764999866485596 19.975000381469727,7.9770002365112305 C24.225000381469727,9.76200008392334 28.101999282836914,4.51800012588501 24.882999420166016,1.225000023841858 C21.400999069213867,-2.809999942779541 16.56599998474121,-5.257999897003174 12.208000183105469,-6.5320000648498535 C-0.35600000619888306,-9.967000007629395 -15.489999771118164,-8.76200008392334 -24.81399917602539,1.2089999914169312 C-28.10300064086914,4.517000198364258 -24.18600082397461,9.967000007629395 -19.783000946044922,8.097000122070312z"></path></g><g opacity="1" transform="matrix(1,0,0,1,235.13600158691406,305.0710144042969)"><path fill="rgb(0,0,0)" fill-opacity="1" d=" M0,15.425999641418457 C13.362000465393066,15.425999641418457 19.514999389648438,9.89900016784668 27.250999450683594,8.206000328063965 C34.98699951171875,6.511000156402588 45.007999420166016,-9.32800006866455 44.30500030517578,-12.376999855041504 C43.60200119018555,-15.425999641418457 26.724000930786133,-7.585999965667725 0,-7.585999965667725 C-26.724000930786133,-7.585999965667725 -43.60200119018555,-15.425999641418457 -44.30500030517578,-12.376999855041504 C-45.007999420166016,-9.32800006866455 -34.98699951171875,6.511000156402588 -27.250999450683594,8.206000328063965 C-19.514999389648438,9.89900016784668 -13.362000465393066,15.425999641418457 0,15.425999641418457z"></path></g><g opacity="1" transform="matrix(1,0,0,1,234.04600524902344,393.35699462890625)"><path fill="rgb(0,0,0)" fill-opacity="1" d=" M58.7239990234375,-23.33300018310547 C54.05799865722656,-21.28499984741211 49.57099914550781,-19.038999557495117 44.762001037597656,-17.388999938964844 C11.541000366210938,-4.076000213623047 -25.15399932861328,-7.6479997634887695 -56.569000244140625,-23.785999298095703 C-61.80500030517578,-26.152999877929688 -67.25199890136719,-20.36400032043457 -64.2030029296875,-15.553999900817871 C-58.86800003051758,-6.445000171661377 -51.047000885009766,0.8980000019073486 -41.92100143432617,6.375999927520752 C-34.58000183105469,15.883999824523926 -29.68400001525879,25.861000061035156 -26.51300048828125,25.983999252319336 C-22.118000030517578,26.152999877929688 -13.151000022888184,23.441999435424805 1.090000033378601,23.441999435424805 C15.331000328063965,23.441999435424805 24.297000885009766,26.152999877929688 28.69300079345703,25.983999252319336 C32.290000915527344,25.844999313354492 37.06399917602539,14.843000411987305 45.770999908447266,5.072000026702881 C53.48099899291992,0.05900000035762787 60.125999450683594,-6.383999824523926 64.9749984741211,-14.199999809265137 C66.22599792480469,-16.097999572753906 67.25199890136719,-18.361000061035156 66.11100006103516,-20.625999450683594 C64.84700012207031,-23.339000701904297 61.540000915527344,-24.551000595092773 58.7239990234375,-23.33300018310547z"></path></g></g></g></svg>