<svg xmlns="http://www.w3.org/2000/svg" xmlns:xlink="http://www.w3.org/1999/xlink" viewBox="0 0 512 512" width="512" height="512" style="width: 100%; height: 100%; transform: translate3d(0,0,0);" preserveAspectRatio="xMidYMid meet"><defs><clipPath id="__lottie_element_51525"><rect width="512" height="512" x="0" y="0"></rect></clipPath></defs><g clip-path="url(#__lottie_element_51525)"><g style="display: block;" transform="matrix(1.059999942779541,0,0,1.059999942779541,2.42315673828125,11.914306640625)" opacity="1"><g opacity="1" transform="matrix(1,0,0,1,240.92999267578125,231.59500122070312)"><path fill="rgb(0,0,0)" fill-opacity="1" d=" M229.11900329589844,-50.44499969482422 C217.89999389648438,-59.224998474121094 211.35899353027344,-70.19499969482422 203.11900329589844,-86.94499969482422 C194.20899963378906,-105.04499816894531 196.11900329589844,-116.43499755859375 172.11900329589844,-123.93499755859375 C147.94000244140625,-131.4949951171875 128.33999633789062,-104.29499816894531 119.61900329589844,-113.93499755859375 C112.51000213623047,-121.81500244140625 125.61900329589844,-137.43499755859375 116.61900329589844,-162.93499755859375 C106.5199966430664,-191.5749969482422 92.72100067138672,-184.36500549316406 76.63099670410156,-194.93499755859375 C62.180999755859375,-204.4149932861328 45.430999755859375,-229.68499755859375 31.131000518798828,-230.43499755859375 C13.770999908447266,-231.34500122070312 4.53000020980835,-220.23500061035156 -23.368999481201172,-210.93499755859375 C-50.36899948120117,-201.93499755859375 -58.86899948120117,-218.43499755859375 -81.36900329589844,-191.43499755859375 C-105.13999938964844,-162.90499877929688 -77.3489990234375,-128.5449981689453 -87.36900329589844,-123.93499755859375 C-97.05899810791016,-119.4749984741211 -108.35900115966797,-167.43499755859375 -139.85899353027344,-159.93499755859375 C-167.74000549316406,-153.2949981689453 -175.5189971923828,-135.3249969482422 -190.35899353027344,-117.93499755859375 C-206.92999267578125,-98.5250015258789 -232.24899291992188,-93.09500122070312 -236.85899353027344,-72.94499969482422 C-240.67999267578125,-56.20500183105469 -228.35899353027344,-33.55500030517578 -222.35899353027344,-12.444999694824219 C-216.49899291992188,8.175000190734863 -234.35899353027344,30.55500030517578 -208.85899353027344,53.05500030517578 C-186.00999450683594,73.21499633789062 -138.35899353027344,48.55500030517578 -133.85899353027344,63.55500030517578 C-131.42999267578125,71.66500091552734 -195.35899353027344,77.05500030517578 -195.35899353027344,113.04499816894531 C-195.35899353027344,141.90499877929688 -176.22900390625,149.9250030517578 -165.85899353027344,169.5449981689453 C-154.31900024414062,191.39500427246094 -155.17999267578125,215.76499938964844 -139.85899353027344,224.0449981689453 C-126.3489990234375,231.34500122070312 -109.60900115966797,219.53500366210938 -87.36900329589844,221.0449981689453 C-68.93900299072266,222.2949981689453 -64.56900024414062,230.68499755859375 -36.36899948120117,223.5449981689453 C-2.809000015258789,215.0449981689453 -14.098999977111816,169.4550018310547 -4.86899995803833,170.0449981689453 C3.940999984741211,170.61500549316406 -0.9900000095367432,207.80499267578125 18.131000518798828,216.0449981689453 C41.63100051879883,226.1750030517578 45.48099899291992,214.76499938964844 74.69100189208984,209.7550048828125 C102.13099670410156,205.0449981689453 121.02899932861328,221.0449981689453 135.61900329589844,211.0449981689453 C146.35000610351562,203.69500732421875 142.70899963378906,178.625 155.61900329589844,164.0449981689453 C166.25999450683594,152.02499389648438 174.61900329589844,143.5449981689453 177.61900329589844,118.04499816894531 C182.02000427246094,80.68499755859375 149.53900146484375,78.71499633789062 155.61900329589844,66.55500030517578 C161.60000610351562,54.60499954223633 179.40899658203125,79.26499938964844 200.61900329589844,58.05500030517578 C220.11900329589844,38.55500030517578 212.0290069580078,18.864999771118164 217.11900329589844,-2.444999933242798 C221.69900512695312,-21.625 240.67999267578125,-41.404998779296875 229.11900329589844,-50.44499969482422z M13.380999565124512,32.55500030517578 C-14.369000434875488,32.55500030517578 -36.86899948120117,12.404999732971191 -36.86899948120117,-12.444999694824219 C-36.86899948120117,-37.29499816894531 -14.369000434875488,-57.44499969482422 13.380999565124512,-57.44499969482422 C41.13100051879883,-57.44499969482422 63.63100051879883,-37.29499816894531 63.63100051879883,-12.444999694824219 C63.63100051879883,12.404999732971191 41.13100051879883,32.55500030517578 13.380999565124512,32.55500030517578z"></path></g></g></g></svg>