<svg xmlns="http://www.w3.org/2000/svg" xmlns:xlink="http://www.w3.org/1999/xlink" viewBox="0 0 512 512" width="512" height="512" style="width: 100%; height: 100%; transform: translate3d(0,0,0);" preserveAspectRatio="xMidYMid meet"><defs><clipPath id="__lottie_element_53574"><rect width="512" height="512" x="0" y="0"></rect></clipPath></defs><g clip-path="url(#__lottie_element_53574)"><g style="display: block;" transform="matrix(1,0,0,1,256,256)" opacity="1"><g opacity="1" transform="matrix(1,0,0,1,0,0)"><path fill="rgb(0,0,0)" fill-opacity="1" d=" M178.84800720214844,-59.23899841308594 C184.73699951171875,-65.12799835205078 195.6699981689453,-69.9990005493164 175.83099365234375,-102.55400085449219 C201.0709991455078,-116.69000244140625 218.343994140625,-125.46399688720703 218.10400390625,-138.177001953125 C217.6439971923828,-162.5659942626953 180.3699951171875,-217.3280029296875 133.4320068359375,-222.85000610351562 C120.71900177001953,-223.08999633789062 111.94400024414062,-205.8159942626953 97.80799865722656,-180.5760040283203 C63.145999908447266,-201.69900512695312 61.887001037597656,-190.98599243164062 40.05799865722656,-169.15699768066406 C-0.7919999957084656,-200.42999267578125 -34.07500076293945,-219.29800415039062 -49.316001892089844,-227.3209991455078 C-54.797000885009766,-230.20599365234375 -61.38600158691406,-230.01699829101562 -66.70500183105469,-226.8419952392578 C-66.70500183105469,-226.8419952392578 -139.24600219726562,-183.5449981689453 -139.24600219726562,-183.5449981689453 C-152.40499877929688,-175.6909942626953 -150.1540069580078,-155.98500061035156 -135.55799865722656,-151.31399536132812 C-105.05500030517578,-141.552001953125 -60.37099838256836,-126.83200073242188 -17.827999114990234,-111.27100372314453 C-50,-86 -12.220999717712402,-41.18899917602539 7.355000019073486,-25.26300048828125 C7.355000019073486,-25.26300048828125 7.734000205993652,-24.95400047302246 7.734000205993652,-24.95400047302246 C14.444999694824219,-19.493999481201172 9.052000045776367,-8.675999641418457 0.6449999809265137,-10.737000465393066 C-10.954000473022461,-13.602999687194824 -21.586999893188477,-18.402000427246094 -31.69099998474121,-24.43000030517578 C-37.45500183105469,-27.868999481201172 -44.729000091552734,-27.423999786376953 -49.96699905395508,-23.22599983215332 C-131.00100708007812,41.71099853515625 -229.96600341796875,117.5009994506836 -233.7689971923828,139.4250030517578 C-239.2790069580078,171.18699645996094 -175.9320068359375,234.53399658203125 -144.1699981689453,229.0240020751953 C-118.99199676513672,224.656005859375 -22.76799964904785,94.7760009765625 46.47100067138672,10.689000129699707 C68.35299682617188,26.114999771118164 86.9729995727539,32.6349983215332 93.91000366210938,25.697999954223633 C93.91000366210938,25.697999954223633 102.56600189208984,17.04199981689453 102.56600189208984,17.04199981689453 C159.5989990234375,61.21900177001953 196.3769989013672,104.64099884033203 196.74899291992188,216.86900329589844 C197.00999450683594,230.39100646972656 216.13400268554688,233.13499450683594 220.18099975585938,220.22000122070312 C256.9440002441406,102.89900207519531 240.16900634765625,31.42099952697754 178.84800720214844,-59.23899841308594z"></path></g></g></g></svg>