<svg xmlns="http://www.w3.org/2000/svg" xmlns:xlink="http://www.w3.org/1999/xlink" viewBox="0 0 512 512" width="512" height="512" style="width: 100%; height: 100%; transform: translate3d(0,0,0);" preserveAspectRatio="xMidYMid meet"><defs><clipPath id="__lottie_element_15661"><rect width="512" height="512" x="0" y="0"></rect></clipPath></defs><g clip-path="url(#__lottie_element_15661)"><g style="display: block;" transform="matrix(1.0399999618530273,0,0,1.0399999618530273,7.2468109130859375,8.026596069335938)" opacity="1"><g opacity="1" transform="matrix(1,0,0,1,237.5800018310547,243.0850067138672)"><path fill="rgb(0,0,0)" fill-opacity="1" d=" M208.6699981689453,-238.8350067138672 C165.33999633789062,-235.8350067138672 131.1699981689453,-242.8350067138672 113.58000183105469,-235.5749969482422 C93.48999786376953,-227.28500366210938 95.16999816894531,-196.8350067138672 116.66999816894531,-190.1649932861328 C126.38999938964844,-187.15499877929688 141.1300048828125,-183.3249969482422 138,-179.5050048828125 C135.89999389648438,-176.93499755859375 130.1699981689453,-170.69500732421875 121.7699966430664,-161.77499389648438 C104.06999969482422,-184.80499267578125 80.1500015258789,-199.55499267578125 52,-199.5050048828125 C-24.399999618530273,-199.36500549316406 -20.329999923706055,-139.86500549316406 -28.65999984741211,-135.8350067138672 C-36.470001220703125,-132.05499267578125 -105.05999755859375,-169.9550018310547 -151.3300018310547,-113.16500091552734 C-192.7100067138672,-62.3849983215332 -175.27000427246094,22.875 -109.70999908447266,73.88500213623047 C-117.5199966430664,81.32499694824219 -122.48999786376953,85.75499725341797 -123.66000366210938,86.16500091552734 C-133,89.49500274658203 -166,79.35600280761719 -200.3300018310547,84.83499908447266 C-227.49000549316406,89.16500091552734 -228.49000549316406,124.83499908447266 -209,126.16500091552734 C-199.69000244140625,126.80500030517578 -218.41000366210938,134.53500366210938 -224,138.1649932861328 C-237.3300018310547,146.8350067138672 -225.75,178.9250030517578 -196,178.1649932861328 C-170,177.4949951171875 -150.66000366210938,163.4949951171875 -144.66000366210938,168.8350067138672 C-139.22000122070312,173.6750030517578 -136.02000427246094,195.94500732421875 -135.3300018310547,217.4949951171875 C-134.63999938964844,238.86500549316406 -96,242.8350067138672 -93.33000183105469,222.8350067138672 C-92.5,216.61500549316406 -88.20999908447266,200.8350067138672 -87.33000183105469,208.1649932861328 C-85.33000183105469,224.8350067138672 -53.41999816894531,225.11500549316406 -54,196.8350067138672 C-54.65999984741211,164.1649932861328 -81.33000183105469,128.1649932861328 -78.66000366210938,116.83499908447266 C-78.2699966430664,115.15499877929688 -73.12000274658203,108.58499908447266 -64.56999969482422,98.55500030517578 C-12.210000038146973,117.81500244140625 61.59000015258789,124.74500274658203 82.66999816894531,117.49500274658203 C104,110.16500091552734 146.55999755859375,13.204999923706055 152.6699981689453,-23.165000915527344 C158.47900390625,-57.744998931884766 154.3000030517578,-94.01499938964844 142.3699951171875,-124.6050033569336 C155.4600067138672,-137.9250030517578 163.7899932861328,-145.94500732421875 164.6699981689453,-145.8350067138672 C169.2100067138672,-145.2550048828125 170.4600067138672,-138.01499938964844 171.33999633789062,-128.8350067138672 C172.6699981689453,-114.83499908447266 202.18899536132812,-110.875 211.1699981689453,-128.8350067138672 C219.1699981689453,-144.8350067138672 224.55999755859375,-180.4949951171875 233.33999633789062,-212.5050048828125 C237.3300018310547,-227.06500244140625 226.1300048828125,-240.0449981689453 208.6699981689453,-238.8350067138672z M102,-49.165000915527344 C98,-39.834999084472656 79.08999633789062,-39.834999084472656 77.33999633789062,-51.165000915527344 C74.20999908447266,-71.32499694824219 67.66999816894531,-92.50499725341797 49.66999816894531,-111.16500091552734 C39.43899917602539,-121.7750015258789 52.849998474121094,-150.4550018310547 84,-135.8350067138672 C116.66999816894531,-120.50499725341797 110.93000030517578,-70.00499725341797 102,-49.165000915527344z"></path></g></g></g></svg>