<svg xmlns="http://www.w3.org/2000/svg" xmlns:xlink="http://www.w3.org/1999/xlink" viewBox="0 0 512 512" width="512" height="512" style="width: 100%; height: 100%; transform: translate3d(0,0,0);" preserveAspectRatio="xMidYMid meet"><defs><clipPath id="__lottie_element_15706"><rect width="512" height="512" x="0" y="0"></rect></clipPath></defs><g clip-path="url(#__lottie_element_15706)"><g style="display: block;" transform="matrix(1.0499999523162842,0,0,1.0499999523162842,9.04901123046875,-5.4344940185546875)" opacity="1"><g opacity="1" transform="matrix(1,0,0,1,237.82000732421875,243.69000244140625)"><path fill="rgb(0,0,0)" fill-opacity="1" d=" M173.24000549316406,-111.44000244140625 C164.74000549316406,-115.44000244140625 237.57000732421875,-152.00999450683594 227.82000732421875,-198.94000244140625 C220.24000549316406,-235.44000244140625 97.23999786376953,-243.44000244140625 31.239999771118164,-176.44000244140625 C-19.079999923706055,-125.36000061035156 -28.260000228881836,-48.939998626708984 -40.7599983215332,-60.439998626708984 C-44.95000076293945,-64.29000091552734 -16.760000228881836,-191.94000244140625 -122.76000213623047,-187.44000244140625 C-205.83999633789062,-183.91000366210938 -195.00999450683594,-124.79000091552734 -198.75999450683594,-116.44000244140625 C-202.52000427246094,-108.05000305175781 -237.57000732421875,-94.87999725341797 -230.75999450683594,-74.44000244140625 C-226.25999450683594,-60.939998626708984 -206.75999450683594,-71.44000244140625 -196.75999450683594,-63.439998626708984 C-184.3000030517578,-53.470001220703125 -150.3800048828125,-51.70000076293945 -155.75999450683594,-47.439998626708984 C-199.25999450683594,-12.9399995803833 -219.25999450683594,77.05999755859375 -156.75999450683594,141.55999755859375 C-77.77999877929688,223.07000732421875 38.89099884033203,193.10000610351562 75.23999786376953,206.55999755859375 C88.73999786376953,211.55999755859375 89.73999786376953,239.05999755859375 113.73999786376953,241.05999755859375 C142.25,243.44000244140625 129.57000732421875,211.49000549316406 137.24000549316406,210.55999755859375 C153.74000549316406,208.55999755859375 146.0800018310547,185.0500030517578 157.24000549316406,174.55999755859375 C182.24000549316406,151.05999755859375 180.80999755859375,121.2699966430664 172.24000549316406,115.55999755859375 C155.74000549316406,104.55999755859375 128.5399932861328,124.40899658203125 80.23999786376953,112.55999755859375 C53.7400016784668,106.05999755859375 24.700000762939453,70.48999786376953 40.2400016784668,69.55999755859375 C65.23999786376953,68.05999755859375 123.23999786376953,59.060001373291016 138.24000549316406,21.559999465942383 C146.4600067138672,1.0099999904632568 116.5,-0.5600000023841858 127.33999633789062,-7.260000228881836 C150.83999633789062,-21.75 202.74000549316406,-32.939998626708984 206.24000549316406,-69.44000244140625 C207.6699981689453,-84.36000061035156 194.5399932861328,-101.41999816894531 173.24000549316406,-111.44000244140625z"></path></g></g></g></svg>