<svg xmlns="http://www.w3.org/2000/svg" xmlns:xlink="http://www.w3.org/1999/xlink" viewBox="0 0 512 512" width="512" height="512" style="width: 100%; height: 100%; transform: translate3d(0,0,0);" preserveAspectRatio="xMidYMid meet"><defs><clipPath id="__lottie_element_52065"><rect width="512" height="512" x="0" y="0"></rect></clipPath></defs><g clip-path="url(#__lottie_element_52065)"><g style="display: block;" transform="matrix(1,0,0,1,255.90699768066406,257.52801513671875)" opacity="1"><g opacity="1" transform="matrix(1,0,0,1,92.73699951171875,-82.59700012207031)"><path fill="rgb(0,0,0)" fill-opacity="1" d=" M-206.6510009765625,-18.089000701904297 C-198.6300048828125,-16.19099998474121 -195.46800231933594,-0.5389999747276306 -199.58700561523438,16.871999740600586 C-203.70599365234375,34.28300094604492 -213.54800415039062,46.85900115966797 -221.56900024414062,44.96099853515625 C-229.58999633789062,43.0629997253418 -232.7530059814453,27.410999298095703 -228.63400268554688,10 C-224.51499938964844,-7.410999774932861 -214.6719970703125,-19.98699951171875 -206.6510009765625,-18.089000701904297z M152.52699279785156,113.91699981689453 C150.89700317382812,106.46700286865234 143.57699584960938,101.69599914550781 136.08700561523438,103.21700286865234 C136.08700561523438,103.21700286865234 122.56700134277344,105.96700286865234 122.56700134277344,105.96700286865234 C116.65699768066406,36.97700119018555 61.81700134277344,-32.08300018310547 -21.312999725341797,-65.35299682617188 C-43.393001556396484,-74.19300079345703 -65.77300262451172,-79.822998046875 -87.71299743652344,-82.46299743652344 C-95.74299621582031,-99.65299987792969 -110.49299621582031,-123.15299987792969 -131.1230010986328,-123.15299987792969 C-155.11300659179688,-123.15299987792969 -176.93299865722656,-90.29299926757812 -186.72300720214844,-73.0530014038086 C-209.36300659179688,-65.29299926757812 -229.56300354003906,-53.632999420166016 -245.98300170898438,-38.4630012512207 C-245.98300170898438,-38.4630012512207 -282.4020080566406,-47.053001403808594 -282.4020080566406,-47.053001403808594 C-299.31201171875,-51.042999267578125 -316.25299072265625,-40.5629997253418 -320.2430114746094,-23.663000106811523 C-320.2430114746094,-23.663000106811523 -337.4830017089844,49.40700149536133 -337.4830017089844,49.40700149536133 C-341.4729919433594,66.31700134277344 -331.00299072265625,83.25700378417969 -314.0929870605469,87.24700164794922 C-314.0929870605469,87.24700164794922 -286.3529968261719,93.7969970703125 -286.3529968261719,93.7969970703125 C-283.4129943847656,107.06700134277344 -278.7330017089844,120.20700073242188 -272.4330139160156,132.9669952392578 C-288.4230041503906,145.57699584960938 -309.2430114746094,168.927001953125 -289.0929870605469,194.95700073242188 C-270.322998046875,219.18699645996094 -243.0330047607422,207.56700134277344 -225.11300659179688,195.3470001220703 C-203.1529998779297,215.6269989013672 -176.29299926757812,232.81700134277344 -145.55299377441406,245.1269989013672 C-101.62300109863281,262.6969909667969 -56.52299880981445,267.5870056152344 -16.093000411987305,261.5270080566406 C-9.732999801635742,277.3970031738281 2.5269999504089355,291.8169860839844 26.14699935913086,287.60699462890625 C54.356998443603516,282.5870056152344 58.266998291015625,256.4070129394531 56.606998443603516,235.41700744628906 C82.23699951171875,219.31700134277344 102.23699951171875,196.7570037841797 113.47699737548828,168.677001953125 C117.927001953125,157.5570068359375 120.7770004272461,146.10699462890625 122.13700103759766,134.51699829101562 C122.927001953125,134.48699951171875 123.72699737548828,134.40699768066406 124.5270004272461,134.23699951171875 C124.5270004272461,134.23699951171875 141.76699829101562,130.5970001220703 141.76699829101562,130.5970001220703 C149.35699462890625,128.9969940185547 154.19700622558594,121.50700378417969 152.52699279785156,113.91699981689453z M44.72700119018555,32.12699890136719 C35.97700119018555,41.97700119018555 8.237000465393066,14.206999778747559 -11.67300033569336,6.9070000648498535 C-31.58300018310547,-0.3930000066757202 -54.143001556396484,-12.993000030517578 -46.84299850463867,-27.593000411987305 C-39.542999267578125,-42.19300079345703 -7.0329999923706055,-30.253000259399414 16.85700035095215,-14.982999801635742 C40.74700164794922,0.2770000100135803 55.34700012207031,20.187000274658203 44.72700119018555,32.12699890136719z"></path></g></g></g></svg>