<svg xmlns="http://www.w3.org/2000/svg" xmlns:xlink="http://www.w3.org/1999/xlink" viewBox="0 0 512 512" width="512" height="512" style="width: 100%; height: 100%; transform: translate3d(0,0,0);" preserveAspectRatio="xMidYMid meet"><defs><clipPath id="__lottie_element_52155"><rect width="512" height="512" x="0" y="0"></rect></clipPath></defs><g clip-path="url(#__lottie_element_52155)"><g style="display: block;" transform="matrix(1,0,0,1,28.526016235351562,25.750015258789062)" opacity="1"><g opacity="1" transform="matrix(1,0,0,1,231.2949981689453,236.0019989013672)"><path fill="rgb(0,0,0)" fill-opacity="1" d=" M227.3509979248047,18.284000396728516 C230.69200134277344,-7.498000144958496 237.42999267578125,-9.98900032043457 240.80499267578125,-36.1349983215332 C243.29200744628906,-55.4010009765625 236.14300537109375,-105.30400085449219 230.68099975585938,-113.62300109863281 C222.42599487304688,-126.197998046875 217.8000030517578,-126.05400085449219 214.93299865722656,-128.88600158691406 C208.82000732421875,-134.9239959716797 202.64100646972656,-144.13999938964844 195.42100524902344,-154.89700317382812 C193.3300018310547,-158.01300048828125 100.15599822998047,-203.72999572753906 8.699999809265137,-171.9149932861328 C-8.17300033569336,-166.0449981689453 -67.53399658203125,-185.09300231933594 -47.91600036621094,-191.91900634765625 C53.319000244140625,-227.14100646972656 140.875,-187.77200317382812 147.9010009765625,-195.0019989013672 C164.1790008544922,-211.7519989013672 95.31199645996094,-251.7519989013672 9.826000213623047,-251.7519989013672 C-138.65199279785156,-251.7519989013672 -172.8209991455078,-191.7519989013672 -200.39199829101562,-137.8979949951172 C-201.72999572753906,-135.28500366210938 -213.98199462890625,-125.79399871826172 -223.38900756835938,-117.33200073242188 C-241.8209991455078,-100.75199890136719 -246.73199462890625,-41.04100036621094 -242.63099670410156,-23.43199920654297 C-240.23500061035156,-13.147000312805176 -230.29800415039062,-1.253000020980835 -226.50100708007812,18.284000396728516 C-216.26600646972656,70.9530029296875 -239.14300537109375,59.91699981689453 -217.76199340820312,169.10299682617188 C-209.281005859375,212.4149932861328 -188.52699279785156,239.50100708007812 -170.14700317382812,235.48599243164062 C-121.77899932861328,224.9199981689453 -150.24200439453125,164.1959991455078 -140.2760009765625,118.0790023803711 C-123.7750015258789,41.71699905395508 -126.77999877929688,41.76100158691406 -112.15499877929688,32.37300109863281 C-100.32099914550781,24.775999069213867 -88.82099914550781,39.24800109863281 -0.17399999499320984,37.45800018310547 C96.80999755859375,35.499000549316406 116.31199645996094,24.15399932861328 119.68199920654297,35.89500045776367 C123.5739974975586,49.45500183105469 135.99600219726562,70.85099792480469 147.11700439453125,117.94999694824219 C156.51300048828125,157.74099731445312 127.93099975585938,215.5279998779297 166.17599487304688,239.00799560546875 C181.2259979248047,248.2480010986328 217.96499633789062,206.43899536132812 224.66700744628906,149.7790069580078 C235.9149932861328,54.68000030517578 220.5570068359375,70.70600128173828 227.3509979248047,18.284000396728516z M-35.07600021362305,-59.0620002746582 C-64.18000030517578,-23.367000579833984 -130.47900390625,-14.39799976348877 -147.6490020751953,-29.75 C-167.93899536132812,-47.891998291015625 -163.5260009765625,-106.1709976196289 -132.1719970703125,-121.73799896240234 C-101.75499725341797,-136.83999633789062 -26.96299934387207,-135.47999572753906 -17.753999710083008,-105.54100036621094 C-12.119999885559082,-87.2249984741211 -28.93600082397461,-66.59200286865234 -35.07600021362305,-59.0620002746582z M154.58700561523438,-28.788999557495117 C137.16000366210938,-13.727999687194824 71.00900268554688,-23.805999755859375 42.525001525878906,-59.99800109863281 C36.51599884033203,-67.63300323486328 20.040000915527344,-88.54399871826172 25.989999771118164,-106.76399993896484 C35.7130012512207,-136.53500366210938 110.51300048828125,-136.6490020751953 140.6649932861328,-121.0250015258789 C171.73899841308594,-104.9229965209961 175.17999267578125,-46.58599853515625 154.58700561523438,-28.788999557495117z"></path></g></g></g></svg>