<svg xmlns="http://www.w3.org/2000/svg" xmlns:xlink="http://www.w3.org/1999/xlink" viewBox="0 0 512 512" width="512" height="512" style="width: 100%; height: 100%; transform: translate3d(0,0,0);" preserveAspectRatio="xMidYMid meet"><defs><clipPath id="__lottie_element_53569"><rect width="512" height="512" x="0" y="0"></rect></clipPath></defs><g clip-path="url(#__lottie_element_53569)"><g style="display: block;" transform="matrix(1.9126900434494019,0,0,1.9126900434494019,-231.64865112304688,-293.6486511230469)" opacity="1"><g opacity="1" transform="matrix(1,0,0,1,328.5580139160156,211.38299560546875)"><path fill="rgb(61,48,59)" fill-opacity="1" d=" M-29.558000564575195,21.617000579833984 C-33.08300018310547,15.548999786376953 -37.82400131225586,-1.1820000410079956 -27.558000564575195,-14.383000373840332 C-19.11199951171875,-25.243999481201172 -4.642000198364258,-28.39900016784668 6.441999912261963,-25.382999420166016 C29.43600082397461,-19.125999450683594 37.82400131225586,13.677000045776367 31.441999435424805,19.617000579833984 C26.509000778198242,24.20800018310547 10.145000457763672,15.177000045776367 8.442000389099121,18.617000579833984 C7.619999885559082,20.277000427246094 11.309000015258789,22.621999740600586 10.442000389099121,24.617000579833984 C9.107999801635742,27.687000274658203 0.0820000022649765,22.805999755859375 -12.557999610900879,25.617000579833984 C-17.302000045776367,26.672000885009766 -20.704999923706055,28.39900016784668 -24.558000564575195,26.617000579833984 C-27.365999221801758,25.319000244140625 -28.815000534057617,22.895999908447266 -29.558000564575195,21.617000579833984z"></path></g><g opacity="1" transform="matrix(1,0,0,1,256.27301025390625,284.1029968261719)"><path fill="rgb(61,48,59)" fill-opacity="1" d=" M113.72699737548828,55.89699935913086 C112.23699951171875,46.066001892089844 103.38200378417969,46.034000396728516 98.72699737548828,34.89699935913086 C98.72699737548828,34.89699935913086 103.66899871826172,13.718000411987305 100.72699737548828,-2.1029999256134033 C97.65299987792969,-18.635000228881836 81.4260025024414,-37.9630012512207 65.72699737548828,-41.10300064086914 C43.3390007019043,-45.58100128173828 28.190000534057617,-37.262001037597656 21.944000244140625,-35.28900146484375 C18.81100082397461,-34.29899978637695 15.380999565124512,-35.11000061035156 13.015999794006348,-37.391998291015625 C-4.497000217437744,-54.28099822998047 -15.826000213623047,-127.7249984741211 -40.27299880981445,-124.10299682617188 C-55.14400100708008,-121.9000015258789 -48.27299880981445,-91.10299682617188 -48.27299880981445,-91.10299682617188 C-60.27299880981445,-92.10299682617188 -66.27300262451172,-88.10299682617188 -66.27300262451172,-88.10299682617188 C-66.27300262451172,-88.10299682617188 -76.72699737548828,-115.63300323486328 -91.27300262451172,-113.10299682617188 C-114.27300262451172,-109.10299682617188 -88.27300262451172,-49.10300064086914 -88.27300262451172,-49.10300064086914 C-88.27300262451172,-49.10300064086914 -115.27300262451172,-30.10300064086914 -115.27300262451172,-19.10300064086914 C-115.27300262451172,-12.777999877929688 -114.6510009765625,-8.574999809265137 -110.27300262451172,-3.1029999256134033 C-102.27300262451172,6.896999835968018 -84.27300262451172,-0.10300000011920929 -84.27300262451172,-0.10300000011920929 C-84.27300262451172,-0.10300000011920929 -82.76000213623047,20.461999893188477 -74.27300262451172,35.89699935913086 C-63.83100128173828,54.887001037597656 -36.027000427246094,61.222999572753906 -18.273000717163086,60.89699935913086 C0.5059999823570251,60.551998138427734 12.642999649047852,52.66899871826172 13.72700023651123,54.89699935913086 C14.991000175476074,57.49599838256836 -5.431000232696533,68.50700378417969 -24.273000717163086,70.89700317382812 C-50.933998107910156,74.27799987792969 -73.27300262451172,59.89699935913086 -73.27300262451172,59.89699935913086 C-79.27300262451172,60.89699935913086 -97.19000244140625,98.65399932861328 -85.27300262451172,113.89700317382812 C-84.5790023803711,114.78399658203125 -75.98600006103516,122.24199676513672 -67.27300262451172,120.89700317382812 C-53.01599884033203,118.69599914550781 -38.27299880981445,90.89700317382812 -38.27299880981445,90.89700317382812 C-36.83399963378906,91.20600128173828 -36.367000579833984,92.3219985961914 -32.27299880981445,93.89700317382812 C-28.19300079345703,95.46700286865234 -23.878999710083008,96.4280014038086 -22.273000717163086,96.89700317382812 C-22.273000717163086,96.89700317382812 -19.405000686645508,115.63899993896484 -10.27299976348877,122.89700317382812 C-4.197999954223633,127.7249984741211 9.142000198364258,126.90499877929688 14.72700023651123,121.89700317382812 C24.16200065612793,113.43699645996094 22.726999282836914,88.89700317382812 22.726999282836914,88.89700317382812 C26.4689998626709,86.22899627685547 26.98900032043457,87.91300201416016 33.72700119018555,86.89700317382812 C54.428001403808594,83.7750015258789 63.875,58.57899856567383 71.72699737548828,60.89699935913086 C75.28600311279297,61.946998596191406 72.3949966430664,63.104000091552734 78.72699737548828,70.89700317382812 C80.12000274658203,72.61100006103516 88.2959976196289,82.26200103759766 97.72699737548828,80.89700317382812 C107.75700378417969,79.44499969482422 115.27400207519531,66.10399627685547 113.72699737548828,55.89699935913086z M-35.27299880981445,-35.10300064086914 C-39.691001892089844,-35.10300064086914 -43.27299880981445,-38.685001373291016 -43.27299880981445,-43.10300064086914 C-43.27299880981445,-47.520999908447266 -39.691001892089844,-51.10300064086914 -35.27299880981445,-51.10300064086914 C-30.854999542236328,-51.10300064086914 -27.273000717163086,-47.520999908447266 -27.273000717163086,-43.10300064086914 C-27.273000717163086,-38.685001373291016 -30.854999542236328,-35.10300064086914 -35.27299880981445,-35.10300064086914z"></path></g></g></g></svg>