<svg xmlns="http://www.w3.org/2000/svg" xmlns:xlink="http://www.w3.org/1999/xlink" viewBox="0 0 512 512" width="512" height="512" style="width: 100%; height: 100%; transform: translate3d(0,0,0);" preserveAspectRatio="xMidYMid meet"><defs><clipPath id="__lottie_element_52005"><rect width="512" height="512" x="0" y="0"></rect></clipPath></defs><g clip-path="url(#__lottie_element_52005)"><g style="display: block;" transform="matrix(1,0,0,1,240.8780059814453,253.29400634765625)" opacity="1"><g opacity="1" transform="matrix(1,0,0,1,0,0)"><path fill="rgb(0,0,0)" fill-opacity="1" d=" M170.5,46.8129997253418 C177.3280029296875,55.020999908447266 179.04200744628906,64.8550033569336 174.3280029296875,68.7760009765625 C169.61399841308594,72.6969985961914 160.25599670410156,69.22200012207031 153.42799377441406,61.013999938964844 C146.60000610351562,52.805999755859375 144.88699340820312,42.97200012207031 149.6009979248047,39.05099868774414 C154.31500244140625,35.130001068115234 163.6719970703125,38.60499954223633 170.5,46.8129997253418z M120.58999633789062,-18.60700035095215 C127.22699737548828,-10.074000358581543 129.08900451660156,-0.42100000381469727 124.75,2.9539999961853027 C120.41100311279297,6.328999996185303 111.51399993896484,2.1470000743865967 104.87699890136719,-6.386000156402588 C98.23999786376953,-14.918999671936035 96.37699890136719,-24.57200050354004 100.71600341796875,-27.94700050354004 C105.05500030517578,-31.32200050354004 113.9530029296875,-27.139999389648438 120.58999633789062,-18.60700035095215z M120.26799774169922,36.720001220703125 C126.9749984741211,45.84299850463867 128.1649932861328,56.362998962402344 122.92500305175781,60.21500015258789 C117.68499755859375,64.06700134277344 107.9990005493164,59.792999267578125 101.29199981689453,50.66999816894531 C94.58499908447266,41.547000885009766 93.39600372314453,31.027999877929688 98.63600158691406,27.176000595092773 C103.8759994506836,23.323999404907227 113.56099700927734,27.597000122070312 120.26799774169922,36.720001220703125z M56.012001037597656,-36.69200134277344 C62.4739990234375,-28.023000717163086 64.13899993896484,-18.332000732421875 59.73099899291992,-15.04699993133545 C55.323001861572266,-11.76200008392334 46.51300048828125,-16.12700080871582 40.05099868774414,-24.79599952697754 C33.5890007019043,-33.46500015258789 31.92300033569336,-43.15700149536133 36.33100128173828,-46.44200134277344 C40.73899841308594,-49.72700119018555 49.54999923706055,-45.361000061035156 56.012001037597656,-36.69200134277344z M166.15499877929688,-25.437000274658203 C80.54499816894531,-126.2969970703125 2.9049999713897705,-120.3270034790039 2.9049999713897705,-120.3270034790039 C11.654999732971191,-144.56700134277344 31.584999084472656,-165.7169952392578 46.165000915527344,-178.78700256347656 C52.51499938964844,-184.4770050048828 48.744998931884766,-195.0570068359375 40.23500061035156,-195.41700744628906 C-5.855000019073486,-197.39700317382812 -42.21500015258789,-178.7270050048828 -42.21500015258789,-178.7270050048828 C-43.275001525878906,-196.02699279785156 -39.07500076293945,-217.08700561523438 -34.915000915527344,-233.0070037841797 C-32.82500076293945,-240.98699951171875 -42.724998474121094,-246.40699768066406 -48.404998779296875,-240.427001953125 C-76.82499694824219,-210.5570068359375 -90.65499877929688,-164.1269989013672 -90.65499877929688,-164.1269989013672 C-106.69499969482422,-176.4969940185547 -140.7550048828125,-209.10699462890625 -160.31500244140625,-228.11700439453125 C-165.5850067138672,-233.2469940185547 -174.44500732421875,-229.677001953125 -174.71499633789062,-222.32699584960938 C-176.59500122070312,-171.20700073242188 -140.4250030517578,-122.31700134277344 -140.4250030517578,-122.31700134277344 C-182.36500549316406,-121.16699981689453 -208.81500244140625,-104.37699890136719 -219.7050018310547,-85.98699951171875 C-224.02499389648438,-78.68699645996094 -217.375,-69.84700012207031 -209.2050018310547,-72.10700225830078 C-186.9250030517578,-78.26699829101562 -164.31500244140625,-82.50700378417969 -164.31500244140625,-82.50700378417969 C-174.93499755859375,-72.5469970703125 -190.19500732421875,-42.027000427246094 -188.2050018310547,-18.797000885009766 C-186.21499633789062,4.422999858856201 -176.9250030517578,3.1029999256134033 -159.0050048828125,-16.14699935913086 C-141.09500122070312,-35.387001037597656 -119.8550033569336,-35.387001037597656 -119.8550033569336,-35.387001037597656 C-131.13499450683594,-13.487000465393066 -124.50499725341797,33.62300109863281 -124.50499725341797,33.62300109863281 C-102.17500305175781,64.43299865722656 -33.8650016784668,84.43299865722656 8.425000190734863,94.21299743652344 C16.19499969482422,96.01300048828125 15.5649995803833,107.322998046875 7.635000228881836,108.21299743652344 C-64.1449966430664,116.27300262451172 -109.24500274658203,86.0530014038086 -109.24500274658203,86.0530014038086 C-76.06500244140625,226.06300354003906 38.744998931884766,275.1730041503906 136.28500366210938,222.08299255371094 C233.8350067138672,168.9929962158203 251.7550048828125,75.43299865722656 166.15499877929688,-25.437000274658203z"></path></g></g></g></svg>