<svg xmlns="http://www.w3.org/2000/svg" xmlns:xlink="http://www.w3.org/1999/xlink" viewBox="0 0 512 512" width="512" height="512" style="width: 100%; height: 100%; transform: translate3d(0,0,0);" preserveAspectRatio="xMidYMid meet"><defs><clipPath id="__lottie_element_51790"><rect width="512" height="512" x="0" y="0"></rect></clipPath></defs><g clip-path="url(#__lottie_element_51790)"><g style="display: block;" transform="matrix(2.962939977645874,0,0,2.962939977645874,2.8374481201171875,2.8374481201171875)" opacity="1"><g opacity="1" transform="matrix(1,0,0,1,86.00800323486328,86.20500183105469)"><path fill="rgb(0,0,0)" fill-opacity="1" d=" M-24.01300048828125,28.729999542236328 C-21.964000701904297,28.954999923706055 -20.871999740600586,27.906999588012695 -22.097000122070312,25.000999450683594 C-23.878999710083008,20.773000717163086 -28.836000442504883,15.41100025177002 -35.027000427246094,15.810999870300293 C-35.15700149536133,15.819000244140625 -35.32699966430664,15.949999809265137 -35.45100021362305,16.05699920654297 C-35.45100021362305,16.05699920654297 -42.16600036621094,19.597000122070312 -44.763999938964844,19.812000274658203 C-48.77299880981445,20.145000457763672 -59.099998474121094,9.20300006866455 -61.68199920654297,8.982000350952148 C-62.28799819946289,8.930000305175781 -65.64900207519531,12.319999694824219 -72.34500122070312,18.77899932861328 C-75.04499816894531,21.384000778198242 -78.25499725341797,23.815000534057617 -81.47599792480469,21.22100067138672 C-83.47799682617188,19.608999252319336 -83.87200164794922,12.906999588012695 -83.87200164794922,8.805000305175781 C-83.87300109863281,-9.842000007629395 -70.8280029296875,-37.66899871826172 -43.54100036621094,-48.45199966430664 C-40.808998107910156,-49.53200149536133 -35.902000427246094,-51.292999267578125 -34.40399932861328,-53.87099838256836 C-26.5049991607666,-67.46800231933594 -17.520000457763672,-74.42900085449219 -3.634000062942505,-78.43199920654297 C0.5600000023841858,-79.64099884033203 1.0149999856948853,-78.09600067138672 1.00600004196167,-76.69200134277344 C0.9700000286102295,-71.0270004272461 0.8519999980926514,-65.63300323486328 1.062999963760376,-60.250999450683594 C1.4110000133514404,-51.36600112915039 1.6779999732971191,-51.37900161743164 10.020999908447266,-48.4630012512207 C21.891000747680664,-44.31399917602539 33.31999969482422,-39.39500045776367 41.16699981689453,-29.48699951171875 C41.90999984741211,-28.548999786376953 43.632999420166016,-28.045000076293945 44.231998443603516,-29.08099937438965 C50.027000427246094,-39.108001708984375 71.50700378417969,-48.51900100708008 77.9530029296875,-45.83000183105469 C80.71800231933594,-44.676998138427734 79.18599700927734,-39.86899948120117 78.53199768066406,-38.02399826049805 C74.79399871826172,-27.474000930786133 68.54499816894531,-11.78499984741211 67.0459976196289,5.250999927520752 C66.83499908447266,7.644000053405762 67.13500213623047,11.85099983215332 68.26300048828125,14.78499984741211 C72.31600189208984,25.332000732421875 76.72899627685547,35.74399948120117 81.17900085449219,46.13199996948242 C82.62200164794922,49.50199890136719 83.87300109863281,52.01499938964844 80.71800231933594,52.316001892089844 C75.85299682617188,52.779998779296875 59.43899917602539,52.02000045776367 50.15700149536133,46.87699890136719 C40.57400131225586,41.56800079345703 43.02399826049805,40.768001556396484 46.69599914550781,27.226999282836914 C47.435001373291016,24.5 48.32899856567383,21.76099967956543 48.569000244140625,18.96500015258789 C48.99100112915039,14.050000190734863 46.89500045776367,10.842000007629395 46.790000915527344,11.265999794006348 C43.198001861572266,25.719999313354492 33.89400100708008,41.625999450683594 24.041000366210938,52.479000091552734 C21.68199920654297,55.07600021362305 21.097000122070312,57.630001068115234 22.71500015258789,60.617000579833984 C24.783000946044922,64.43399810791016 26.945999145507812,68.20099639892578 29.388999938964844,72.51300048828125 C30.05500030517578,73.68800354003906 29.54800033569336,75.18800354003906 28.29599952697754,75.6969985961914 C23.95800018310547,77.45700073242188 13.185999870300293,79.64099884033203 -3.065999984741211,70.70600128173828 C-3.065999984741211,70.70600128173828 -7.455999851226807,71.41500091552734 -10.5,72.11799621582031 C-34.79800033569336,77.73300170898438 -66.64900207519531,68.24400329589844 -76.49099731445312,42.604000091552734 C-77.38099670410156,40.284000396728516 -66.90799713134766,30.302000045776367 -64.64199829101562,29.847999572753906 C-62.92100143432617,29.503999710083008 -50.590999603271484,36.518001556396484 -46.525001525878906,36.202999114990234 C-43.388999938964844,35.959999084472656 -38.119998931884766,28.986000061035156 -36.47600173950195,27.97100067138672 C-35.97100067138672,27.658000946044922 -32.85100173950195,27.423999786376953 -28.42300033569336,28.145000457763672 C-25.590999603271484,28.604999542236328 -25.149999618530273,28.604999542236328 -24.01300048828125,28.729999542236328z M-40.957000732421875,-3.6630001068115234 C-41.4900016784668,-2.3480000495910645 -41.24599838256836,-0.8230000138282776 -39.9119987487793,-0.3400000035762787 C-36.82099914550781,0.7789999842643738 -32.15599822998047,-0.972000002861023 -29.937000274658203,-2.2019999027252197 C-26.5939998626709,-4.054999828338623 -21.62299919128418,-7.934999942779541 -20.246999740600586,-14.02400016784668 C-19.86400032043457,-15.718000411987305 -19.642000198364258,-17.547000885009766 -23.143999099731445,-16.639999389648438 C-30.707000732421875,-14.682000160217285 -39.84299850463867,-6.410999774932861 -40.957000732421875,-3.6630001068115234z"></path></g></g></g></svg>