<svg xmlns="http://www.w3.org/2000/svg" xmlns:xlink="http://www.w3.org/1999/xlink" viewBox="0 0 512 512" width="512" height="512" style="width: 100%; height: 100%; transform: translate3d(0,0,0);" preserveAspectRatio="xMidYMid meet"><defs><clipPath id="__lottie_element_53869"><rect width="512" height="512" x="0" y="0"></rect></clipPath></defs><g clip-path="url(#__lottie_element_53869)"><g style="display: block;" transform="matrix(1,0,0,1,-4.1999969482421875,108.33999633789062)" opacity="1"><g opacity="1" transform="matrix(1,0,0,1,260.20001220703125,176.5050048828125)"><path fill="rgb(0,0,0)" fill-opacity="1" d=" M223.4199981689453,-88.51799774169922 C197.02000427246094,-97.41300201416016 174.68899536132812,-73.54000091552734 163.36000061035156,-57.71200180053711 C155.25999450683594,-46.39500045776367 137.4600067138672,-48.5369987487793 138.36000061035156,-62.57899856567383 C144.6999969482422,-161.5469970703125 110.61000061035156,-251.84500122070312 -4.260000228881836,-245.4320068359375 C-116.30000305175781,-239.177001953125 -175.3820037841797,-144.29600524902344 -151.63999938964844,-32.76499938964844 C-149.4199981689453,-22.336000442504883 -163.1529998779297,-23.389999389648438 -166.63999938964844,-25.464000701904297 C-185.44000244140625,-36.64699935913086 -203.13999938964844,-51.25400161743164 -230.63999938964844,-38.47800064086914 C-259.95001220703125,-24.861000061035156 -245.91900634765625,188.36300659179688 -187.63999938964844,194.6959991455078 C-119,202.15499877929688 -103.52799987792969,153.0279998779297 -0.9190000295639038,149.5679931640625 C99.5989990234375,146.1790008544922 129.7729949951172,190.88299560546875 195.36000061035156,179.85499572753906 C259,169.15499877929688 264,-74.84500122070312 223.4199981689453,-88.51799774169922z M-7,-135.7969970703125 C34.5,-138.45899963378906 68,-120.36000061035156 68,-93.21099853515625 C68,-53.819000244140625 34.50299835205078,-56.479000091552734 30,-49.560001373291016 C27.18000030517578,-45.22700119018555 32.23400115966797,-30.893999099731445 28,-21.878000259399414 C24.5,-14.425000190734863 -23.00200080871582,-5.395999908447266 -29,-15.489999771118164 C-34.439998626708984,-24.645999908447266 -31.35099983215332,-41.65700149536133 -37,-44.236000061035156 C-41.43000030517578,-46.25899887084961 -83,-43.70399856567383 -83,-81.4990005493164 C-83,-111.30999755859375 -49.939998626708984,-133.04299926757812 -7,-135.7969970703125z M31,45.72800064086914 C31.65999984741211,55.362998962402344 64.22200012207031,57.92599868774414 80.5,69.1500015258789 C86.62999725341797,73.37699890136719 86.5009994506836,95.77400207519531 68,91.51899719238281 C48.93000030517578,87.13300323486328 6,61.16600036621094 -0.5,63.82699966430664 C-11.369999885559082,68.2770004272461 -40.119998931884766,90.98799896240234 -59,102.15499877929688 C-72.5,110.13999938964844 -83,96.83100128173828 -75,84.05500030517578 C-64.58000183105469,67.41400146484375 -30.5,57.97100067138672 -32,49.45399856567383 C-33.31999969482422,41.95899963378906 -75.30000305175781,28.20400047302246 -91.45999908447266,19.930999755859375 C-104.5,13.255999565124512 -98.4800033569336,-10.211999893188477 -84.5,-7.50600004196167 C-57,-2.183000087738037 -12.619999885559082,33.48400115966797 -2.5,33.48400115966797 C6,33.48400115966797 53.5,-5.375 70.5,-9.635000228881836 C85.87999725341797,-13.48900032043457 88,5.270999908447266 80,13.788000106811523 C69.08000183105469,25.413999557495117 30.325000762939453,35.869998931884766 31,45.72800064086914z"></path></g><g opacity="1" transform="matrix(1,0,0,1,215.9499969482422,137.91000366210938)"><path fill="rgb(0,0,0)" fill-opacity="1" d=" M24.75,-38.380001068115234 C24.75,-26.179000854492188 16.360000610351562,-16.288000106811523 6,-16.288000106811523 C-4.360000133514404,-16.288000106811523 -12.75,-26.179000854492188 -12.75,-38.380001068115234 C-12.75,-50.58100128173828 -4.360000133514404,-60.47100067138672 6,-60.47100067138672 C16.360000610351562,-60.47100067138672 24.75,-50.58100128173828 24.75,-38.380001068115234z"></path></g><g opacity="1" transform="matrix(1,0,0,1,272.2950134277344,132.22500610351562)"><path fill="rgb(0,0,0)" fill-opacity="1" d=" M25.594999313354492,-38.75299835205078 C25.594999313354492,-25.99799919128418 16.823999404907227,-15.65999984741211 6.004000186920166,-15.65999984741211 C-4.826000213623047,-15.65999984741211 -13.595000267028809,-25.99799919128418 -13.595000267028809,-38.75299835205078 C-13.595000267028809,-51.507999420166016 -4.826000213623047,-61.83399963378906 6.004000186920166,-61.83399963378906 C16.823999404907227,-61.83399963378906 25.594999313354492,-51.507999420166016 25.594999313354492,-38.75299835205078z"></path></g></g></g></svg>