<svg xmlns="http://www.w3.org/2000/svg" xmlns:xlink="http://www.w3.org/1999/xlink" viewBox="0 0 512 512" width="512" height="512" style="width: 100%; height: 100%; transform: translate3d(0,0,0);" preserveAspectRatio="xMidYMid meet"><defs><clipPath id="__lottie_element_53504"><rect width="512" height="512" x="0" y="0"></rect></clipPath></defs><g clip-path="url(#__lottie_element_53504)"><g style="display: block;" transform="matrix(1,0,0,1,0,0)" opacity="1"><g opacity="1" transform="matrix(1,0,0,1,255,257.9880065917969)"><path fill="rgb(0,0,0)" fill-opacity="1" d=" M255,-8.161999702453613 C250.06300354003906,-17.68199920654297 246.71600341796875,-28.959999084472656 240.51199340820312,-37.62099838256836 C226.8070068359375,-56.75400161743164 196.31399536132812,-68.25199890136719 176.57000732421875,-81.11000061035156 C143.6179962158203,-102.5719985961914 118.34600067138672,-129.45199584960938 95.91600036621094,-161.5970001220703 C80.58399963378906,-183.57200622558594 69.88899993896484,-209.2729949951172 50.3380012512207,-227.9510040283203 C50.3380012512207,-227.9510040283203 46.82699966430664,-229.36900329589844 46.82699966430664,-229.36900329589844 C46.82699966430664,-229.36900329589844 -5.770999908447266,-173.12399291992188 -5.770999908447266,-173.12399291992188 C-15.541000366210938,-164.0469970703125 -21.326000213623047,-178.34500122070312 -25.426000595092773,-185.5050048828125 C-30.031999588012695,-193.5489959716797 -50.882999420166016,-241.8509979248047 -53.88800048828125,-243.56199645996094 C-55.742000579833984,-244.6179962158203 -59.428001403808594,-244.17599487304688 -60.56999969482422,-241.80099487304688 C-69.72200012207031,-189.23899841308594 -113.00299835205078,-156.16000366210938 -146.19500732421875,-118.5510025024414 C-164.78399658203125,-97.48799896240234 -183.0070037841797,-73.15399932861328 -201.86199951171875,-52.8650016784668 C-214.86700439453125,-38.869998931884766 -242.572998046875,-19.28499984741211 -250.35800170898438,-3.8519999980926514 C-257.7380065917969,10.776000022888184 -229.75100708007812,33.79399871826172 -218.13999938964844,40.92499923706055 C-204.46099853515625,49.32600021362305 -141.4340057373047,70.11499786376953 -138.21400451660156,74.40299987792969 C-121.47899627685547,96.68699645996094 -168.552001953125,149.6179962158203 -143.9199981689453,165.6320037841797 C-133.0780029296875,172.68099975585938 -110.61499786376953,172.28700256347656 -101.34600067138672,184.73500061035156 C-88.22100067138672,202.36099243164062 -103.69300079345703,237.36599731445312 -74.2959976196289,239.40199279785156 C-53.42900085449219,240.8470001220703 -64.58100128173828,227.1300048828125 -57.452999114990234,216.781005859375 C-47.02299880981445,201.63800048828125 -43.06700134277344,228.19900512695312 -41.24700164794922,232.0659942626953 C-35.856998443603516,243.51800537109375 -17.739999771118164,242.76600646972656 -14.329999923706055,230.0399932861328 C-13.366999626159668,226.44200134277344 -15.345999717712402,214.343994140625 -8.895999908447266,215.6230010986328 C-2.638000011444092,216.86399841308594 -11.423999786376953,235.44900512695312 3.993000030517578,238.69900512695312 C19.05500030517578,241.87399291992188 29.582000732421875,230.20199584960938 24.812000274658203,215.49000549316406 C24.812000274658203,215.49000549316406 34.88199996948242,211.60299682617188 34.88199996948242,211.60299682617188 C39.06800079345703,220.34800720214844 33.689998626708984,227.8249969482422 39.25,235.0709991455078 C46.57500076293945,244.6179962158203 57.16299819946289,239.49899291992188 62.305999755859375,234.50900268554688 C74.13999938964844,223.02699279785156 71.43599700927734,196.09500122070312 81.68099975585938,182.80299377441406 C90.41500091552734,171.47000122070312 98.18299865722656,175.34500122070312 108.5250015258789,167.86599731445312 C113.23899841308594,164.45899963378906 122.23600006103516,154.14199829101562 123.1259994506836,148.47300720214844 C126.97100067138672,123.98400115966797 117.18299865722656,114.9489974975586 115.6989974975586,83.13700103759766 C114.75599670410156,62.93199920654297 123.86199951171875,37.292999267578125 117.21900177001953,17.989999771118164 C112.3550033569336,3.8540000915527344 110.4800033569336,3.1040000915527344 100.2040023803711,-0.8050000071525574 C43.92900085449219,-19.2189998626709 -24.854000091552734,-34.59400177001953 -83.13700103759766,-15.744999885559082 C-90.05000305175781,-13.510000228881836 -117.2760009765625,-1.218999981880188 -122.00299835205078,3.0859999656677246 C-132.75999450683594,12.880999565124512 -130.5189971923828,27.844999313354492 -132.2259979248047,40.57600021362305 C-147.3179931640625,33.27899932861328 -139.13400268554688,15.52400016784668 -139.21600341796875,3.803999900817871 C-139.37100219726562,-18.187999725341797 -151.87600708007812,-17.392000198364258 -129.08700561523438,-35.81700134277344 C-70.85600280761719,-82.89700317382812 60.54399871826172,-82.19200134277344 119.30599975585938,-35.80799865722656 C146.5330047607422,-14.315999984741211 129.8820037841797,-1.8420000076293945 128.16799926757812,23.99799919128418 C121.78700256347656,120.19999694824219 145.24600219726562,116.99500274658203 147.677001953125,178.947998046875 C148.13499450683594,190.61099243164062 142.68499755859375,227.7729949951172 157.27499389648438,231.52099609375 C158.0709991455078,222.78399658203125 174.25599670410156,181.6490020751953 180.54400634765625,180.10400390625 C197.50900268554688,182.1719970703125 209.41799926757812,185.5760040283203 219.97000122070312,199.66200256347656 C223.7899932861328,197.18899536132812 222.1580047607422,196.52099609375 222.0330047607422,193.7239990234375 C220.53900146484375,160.41200256347656 194.32699584960938,149.88900756835938 182.08599853515625,126.18900299072266 C178.68800354003906,119.60900115966797 161.61000061035156,86.70600128173828 163.11199951171875,81.69400024414062 C200.66700744628906,64.2979965209961 243.04200744628906,33.207000732421875 255,-8.161999702453613z M18.316999435424805,85.66600036621094 C19.577999114990234,82.02899932861328 40.35900115966797,76.14600372314453 46.52199935913086,72.08300018310547 C54.95600128173828,66.52100372314453 60.0099983215332,55.180999755859375 73.197998046875,59.88100051879883 C99.10399627685547,78.51699829101562 72.427001953125,160.8699951171875 38.47100067138672,133.4720001220703 C30.42099952697754,126.9749984741211 14.72599983215332,96.0270004272461 18.316999435424805,85.66600036621094z M-7.881999969482422,110.20999908447266 C-11.277000427246094,123.09100341796875 24.858999252319336,167.02499389648438 -2.8959999084472656,166.99200439453125 C-10.463000297546387,166.98300170898438 -12.220999717712402,158.6909942626953 -22.84000015258789,159.74400329589844 C-29.937000274658203,160.44900512695312 -31.73900032043457,167.7689971923828 -39.69900131225586,165.8800048828125 C-42.9379997253418,162.74200439453125 -29.118000030517578,133.71600341796875 -26.172000885009766,128.7030029296875 C-24.66699981689453,126.14199829101562 -11.76200008392334,106.03700256347656 -7.881999969482422,110.20999908447266z M-94.8759994506836,49.106998443603516 C-79.11299896240234,33.435001373291016 -52.93000030517578,68.31300354003906 -36.599998474121094,70.29000091552734 C-26.875999450683594,97.66699981689453 -82.69999694824219,137.9199981689453 -95.58200073242188,107.37200164794922 C-99.4990005493164,98.08399963378906 -101.95999908447266,56.150001525878906 -94.8759994506836,49.106998443603516z"></path></g></g></g></svg>