<svg xmlns="http://www.w3.org/2000/svg" xmlns:xlink="http://www.w3.org/1999/xlink" viewBox="0 0 512 512" width="512" height="512" style="width: 100%; height: 100%; transform: translate3d(0,0,0);" preserveAspectRatio="xMidYMid meet"><defs><clipPath id="__lottie_element_51600"><rect width="512" height="512" x="0" y="0"></rect></clipPath></defs><g clip-path="url(#__lottie_element_51600)"><g style="display: block;" transform="matrix(0.9961947202682495,-0.08715574443340302,0.08715574443340302,0.9961947202682495,-34.232177734375,63.3641357421875)" opacity="1"><g opacity="1" transform="matrix(1,0,0,1,204.2969970703125,343.70098876953125)"><path fill="rgb(0,0,0)" fill-opacity="1" d=" M-168.57200622558594,19.7549991607666 C-89.09500122070312,-22.802000045776367 44.07600021362305,-13.708999633789062 42.4010009765625,-22.80299949645996 C40.702999114990234,-32.025001525878906 46.77399826049805,-44.04100036621094 57.8380012512207,-44.36399841308594 C93.52200317382812,-45.404998779296875 102.08999633789062,-42.06399917602539 100.3280029296875,-22.072999954223633 C98.1969985961914,2.115999937057495 89.40299987792969,9.444999694824219 97.4209976196289,15.333999633789062 C102.48699951171875,19.05500030517578 113.74299621582031,7.993000030517578 120.28500366210938,-4.125 C121.75700378417969,-6.853000164031982 173.58799743652344,-2.7209999561309814 192.3459930419922,20.312999725341797 C207.89599609375,39.40800094604492 49.888999938964844,126.87999725341797 -88.35800170898438,94.44000244140625 C-128.9759979248047,84.90899658203125 -188.98399353027344,30.684999465942383 -168.57200622558594,19.7549991607666z"></path></g><g opacity="1" transform="matrix(1,0,0,1,299.4389953613281,167.02999877929688)"><path fill="rgb(0,0,0)" fill-opacity="1" d=" M-166.6490020751953,-117.89099884033203 C-158.36099243164062,-124.45899963378906 -174.5449981689453,-145.7689971923828 -155.5449981689453,-165.7689971923828 C-143.2989959716797,-178.66000366210938 -108.61000061035156,-174.68899536132812 -107.54499816894531,-164.7689971923828 C-102.63899993896484,-119.05899810791016 -135.2270050048828,-122.03600311279297 -129.93499755859375,-110.82499694824219 C-126.0780029296875,-102.65499877929688 -105.93699645996094,-104.11799621582031 -89.74600219726562,-123.16600036621094 C-72.74600219726562,-143.16600036621094 -81.77400207519531,-160.80099487304688 -75.40899658203125,-166.88999938964844 C-52.356998443603516,-188.9429931640625 46.21699905395508,-168.2729949951172 74.3479995727539,-137.41200256347656 C75.05599975585938,-136.63600158691406 100.49800109863281,-100.28299713134766 83.71399688720703,-46.54899978637695 C69.43800354003906,-0.8420000076293945 29.30900001525879,24.988000869750977 37.42100143432617,34.12799835205078 C43.86800003051758,41.39099884033203 99.44000244140625,15.064000129699707 114.77300262451172,-40.13999938964844 C130.31500244140625,-96.09600067138672 117.88999938964844,-134.03500366210938 119.45999908447266,-134.14500427246094 C144.6929931640625,-135.906005859375 167.96800231933594,-139.34500122070312 196.5,-114.88899993896484 C265.15899658203125,-56.03900146484375 183.73800659179688,137.56199645996094 129.73800659179688,169.56199645996094 C123.34400177001953,173.35000610351562 110.60600280761719,157.07699584960938 75.96199798583984,144.8990020751953 C46.42399978637695,134.51499938964844 30.448999404907227,135.1009979248047 31.469999313354492,130.75 C37.27899932861328,105.99199676513672 -65.24099731445312,96.01799774169922 -64.86000061035156,123.41500091552734 C-64.75800323486328,130.75799560546875 -132.5469970703125,125.26300048828125 -206.33299255371094,142.802001953125 C-233.0330047607422,149.1479949951172 -275.6960144042969,170.7689971923828 -274.9410095214844,156.54600524902344 C-269.71099853515625,58.053001403808594 -216.0489959716797,51.09600067138672 -218.22500610351562,38.57500076293945 C-227.9429931640625,-17.336000442504883 -209.9510040283203,-83.57599639892578 -166.6490020751953,-117.89099884033203z"></path></g></g></g></svg>