<svg xmlns="http://www.w3.org/2000/svg" xmlns:xlink="http://www.w3.org/1999/xlink" viewBox="0 0 512 512" width="512" height="512" style="width: 100%; height: 100%; transform: translate3d(0,0,0);" preserveAspectRatio="xMidYMid meet"><defs><clipPath id="__lottie_element_9123"><rect width="512" height="512" x="0" y="0"></rect></clipPath></defs><g clip-path="url(#__lottie_element_9123)"><g style="display: block;" transform="matrix(1,0,0,1,30.733016967773438,56.08399963378906)" opacity="1"><g opacity="1" transform="matrix(1,0,0,1,233.5919952392578,211.08299255371094)"><path fill="rgb(0,0,0)" fill-opacity="1" d=" M-178.3249969482422,-197.16600036621094 C-179.7830047607422,-192.3730010986328 -181.5500030517578,-150.83700561523438 -178.8249969482422,-146.16600036621094 C-175.3249969482422,-140.16600036621094 -80.5989990234375,-151.71299743652344 -75.32499694824219,-141.16600036621094 C-71.32499694824219,-133.16600036621094 -72.32499694824219,-102.16600036621094 -76.32499694824219,-97.16600036621094 C-81.51799774169922,-90.67400360107422 -113.5770034790039,-97.28199768066406 -119.32499694824219,-93.16600036621094 C-124.55999755859375,-89.41699981689453 -118.32499694824219,-49.16600036621094 -124.32499694824219,-46.16600036621094 C-128.78799438476562,-43.935001373291016 -159.9600067138672,-43.36000061035156 -172.3249969482422,-47.16600036621094 C-180.44900512695312,-49.66600036621094 -175.10800170898438,-132.84300231933594 -176.62100219726562,-144.8459930419922 C-177.50999450683594,-151.89199829101562 -222.2550048828125,-151.6009979248047 -228.3249969482422,-145.16600036621094 C-232.5709991455078,-140.66600036621094 -233.3419952392578,-0.7910000085830688 -227.3249969482422,2.8340001106262207 C-222.88400268554688,5.510000228881836 -182.3249969482422,0.8330000042915344 -178.3249969482422,4.833000183105469 C-174.99000549316406,8.168000221252441 -179.2469940185547,49.525001525878906 -176.3249969482422,52.83399963378906 C-172.2989959716797,57.393001556396484 -131.23399353027344,52.63600158691406 -127.32499694824219,55.83399963378906 C-119.99199676513672,61.83399963378906 -129.8249969482422,100.33399963378906 -125.32499694824219,102.83399963378906 C-122.15299987792969,104.59700012207031 -82.45500183105469,101.29299926757812 -77.32499694824219,104.83399963378906 C-73.7300033569336,107.31500244140625 -78.80000305175781,151.27499389648438 -75.32499694824219,154.83399963378906 C-71.58399963378906,158.6649932861328 -27.825000762939453,153.33399963378906 -27.325000762939453,156.83399963378906 C-26.839000701904297,160.23399353027344 -28.465999603271484,203.87100219726562 -25.325000762939453,205.83399963378906 C-17.325000762939453,210.83399963378906 19.409000396728516,207.58900451660156 24.674999237060547,205.83399963378906 C27.674999237060547,204.83399963378906 23.54800033569336,161.77499389648438 26.674999237060547,157.83399963378906 C29.940000534057617,153.718994140625 71.17500305175781,158.33399963378906 73.67500305175781,153.83399963378906 C76.02200317382812,149.60899353027344 72.58799743652344,109.8740005493164 75.67500305175781,106.83399963378906 C78.88400268554688,103.67500305175781 121.99099731445312,107.84400177001953 124.67500305175781,104.83399963378906 C128.322998046875,100.74099731445312 123.06099700927734,65.33499908447266 129.6750030517578,59.83399963378906 C133.22999572753906,56.87799835205078 168.6750030517578,60.83399963378906 172.6750030517578,53.83399963378906 C177.06399536132812,46.15299987792969 174.1020050048828,8.678999900817871 176.6750030517578,3.8340001106262207 C179.6790008544922,-1.8209999799728394 215.1750030517578,8.678999900817871 221.6750030517578,0.8339999914169312 C225.83599853515625,-4.186999797821045 233.3419952392578,-132.83299255371094 225.6750030517578,-146.16600036621094 C222.28500366210938,-152.06199645996094 180.1269989013672,-143.05999755859375 176.6750030517578,-146.16600036621094 C172.94500732421875,-149.52200317382812 182.8419952392578,-195.2530059814453 176.6750030517578,-198.16600036621094 C172.83200073242188,-199.9810028076172 53.34199905395508,-210.83299255371094 26.674999237060547,-197.16600036621094 C19.725000381469727,-193.60400390625 29.892000198364258,-153.77699279785156 27.027000427246094,-149.5330047607422 C23.476999282836914,-144.2729949951172 -24.365999221801758,-143.125 -27.325000762939453,-147.16600036621094 C-31.33300018310547,-152.63999938964844 -22.7189998626709,-195.80599975585938 -28.325000762939453,-198.16600036621094 C-47.32500076293945,-206.16600036621094 -176.67300415039062,-202.5959930419922 -178.3249969482422,-197.16600036621094z"></path></g></g></g></svg>