<svg xmlns="http://www.w3.org/2000/svg" xmlns:xlink="http://www.w3.org/1999/xlink" viewBox="0 0 512 512" width="512" height="512" style="width: 100%; height: 100%; transform: translate3d(0,0,0);" preserveAspectRatio="xMidYMid meet"><defs><clipPath id="__lottie_element_51225"><rect width="512" height="512" x="0" y="0"></rect></clipPath></defs><g clip-path="url(#__lottie_element_51225)"><g style="display: block;" transform="matrix(1,0,0,1,255.63900756835938,256.4200134277344)" opacity="1"><g opacity="1" transform="matrix(1,0,0,1,0,0)"><g opacity="1" transform="matrix(1,0,0,1,0,51.165000915527344)"><path fill="rgb(0,0,0)" fill-opacity="1" d=" M45.441001892089844,-46.98400115966797 C64.12999725341797,-46.98400115966797 79.28199768066406,-31.832000732421875 79.28199768066406,-13.142999649047852 C79.28199768066406,5.546000003814697 64.12999725341797,20.69700050354004 45.441001892089844,20.69700050354004 C26.75200080871582,20.69700050354004 11.60099983215332,5.546000003814697 11.60099983215332,-13.142999649047852 C11.60099983215332,-31.832000732421875 26.75200080871582,-46.98400115966797 45.441001892089844,-46.98400115966797z M-44.141998291015625,8.336999893188477 C-31.69499969482422,27.128999710083008 -41.970001220703125,55.85100173950195 -67.09100341796875,72.49099731445312 C-92.21199798583984,89.13099670410156 -122.66799926757812,87.38600158691406 -135.11500549316406,68.59400177001953 C-147.56199645996094,49.801998138427734 -137.28700256347656,21.079999923706055 -112.16600036621094,4.440000057220459 C-87.04499816894531,-12.199999809265137 -56.5890007019043,-10.454999923706055 -44.141998291015625,8.336999893188477z M236.552001953125,59.51599884033203 C235.79200744628906,29.6560001373291 215.6510009765625,1.7860000133514404 177.83099365234375,1.7860000133514404 C156.26600646972656,1.7860000133514404 141.81900024414062,6.638000011444092 133.38099670410156,10.8100004196167 C128.65499877929688,13.147000312805176 123.03600311279297,10.272000312805176 122.0469970703125,5.0929999351501465 C95.08699798583984,-136.0749969482422 1.0069999694824219,-163.43600463867188 -29.697999954223633,-155.69400024414062 C-35.14799880981445,-154.32400512695312 -36.999000549316406,-147.60299682617188 -33.10900115966797,-143.5330047607422 C-23.2189998626709,-133.21299743652344 -15.277999877929688,-107.7040023803711 -37.178001403808594,-83.81400299072266 C-68.38800048828125,-49.763999938964844 -108.8489990234375,-68.88300323486328 -108.8489990234375,-68.88300323486328 C-108.8489990234375,-68.88300323486328 -231.6179962158203,112.59700012207031 -231.6179962158203,112.59700012207031 C-245.6479949951172,133.3470001220703 -227.8679962158203,160.76699829101562 -203.20799255371094,156.427001953125 C-203.20799255371094,156.427001953125 -69.42900085449219,141.23699951171875 60.37099838256836,120.23699951171875 C195.74099731445312,98.33699798583984 237.552001953125,98.33599853515625 236.552001953125,59.51599884033203z"></path></g></g><g opacity="1" transform="matrix(1,0,0,1,102.99299621582031,-88.16999816894531)"><path fill="rgb(0,0,0)" fill-opacity="1" d=" M36.720001220703125,110.63999938964844 C28.577999114990234,76.0979995727539 -9.609999656677246,-16.718000411987305 -108.17500305175781,-51.672000885009766 C-116.13500213623047,-54.494998931884766 -121.55000305175781,-61.99300003051758 -121.69200134277344,-70.43800354003906 C-121.87799835205078,-81.48500061035156 -114.29100036621094,-100.75599670410156 -97.36900329589844,-109.71499633789062 C-58.571998596191406,-130.2550048828125 -12.791000366210938,-116.44499969482422 12.12399959564209,-96.7750015258789 C49.94900131225586,-66.91300201416016 115.6449966430664,-2.2130000591278076 121.6719970703125,104.7979965209961 C122.17400360107422,113.70500183105469 114.61100006103516,120.85600280761719 105.92400360107422,118.8290023803711 C92.51799774169922,115.70099639892578 80.60900115966797,109.47599792480469 52.270999908447266,119.2249984741211 C45.56999969482422,121.52999877929688 38.34600067138672,117.53700256347656 36.720001220703125,110.63999938964844z"></path></g></g></g></svg>