<svg xmlns="http://www.w3.org/2000/svg" xmlns:xlink="http://www.w3.org/1999/xlink" viewBox="0 0 512 512" width="512" height="512" style="width: 100%; height: 100%; transform: translate3d(0,0,0);" preserveAspectRatio="xMidYMid meet"><defs><clipPath id="__lottie_element_51545"><rect width="512" height="512" x="0" y="0"></rect></clipPath></defs><g clip-path="url(#__lottie_element_51545)"><g style="display: block;" transform="matrix(1,0,0,1,256,256)" opacity="1"><g opacity="1" transform="matrix(1,0,0,1,0,0)"><path fill="rgb(0,0,0)" fill-opacity="1" d=" M-87.35099792480469,200.82000732421875 C95.19400024414062,282.50799560546875 284.16400146484375,95.10600280761719 201.99200439453125,-88.52300262451172 C294.9639892578125,-237.67100524902344 240.68800354003906,-292.23699951171875 91.36499786376953,-199.1580047607422 C-57.30099868774414,-265.68701171875 -223.11900329589844,-151.62600708007812 -216.85800170898438,8.810999870300293 C-216.5959930419922,15.517999649047852 -208.75799560546875,18.986000061035156 -203.6540069580078,14.62600040435791 C-163.89999389648438,-19.32900047302246 -117.08000183105469,-55.95199966430664 -77.60800170898438,-84.18199920654297 C-69.80400085449219,-89.76300048828125 -60.54100036621094,-79.30699920654297 -66.98100280761719,-72.23500061035156 C-66.98100280761719,-72.23500061035156 -67.05699920654297,-72.15299987792969 -67.05699920654297,-72.15299987792969 C-366.81201171875,257.31298828125 -235.99000549316406,293.4739990234375 -87.35099792480469,200.82000732421875z M-42.99700164794922,-44.16999816894531 C94.89299774169922,-182.05999755859375 214.10400390625,-225.29299926757812 177.48899841308594,-129.95399475097656 C110.97699737548828,-205.3939971923828 -203.83200073242188,114.95600128173828 -128.88999938964844,176.35699462890625 C-225.125,213.23399353027344 -179.1699981689453,92.00199890136719 -42.99700164794922,-44.16999816894531z"></path></g></g></g></svg>