<svg xmlns="http://www.w3.org/2000/svg" xmlns:xlink="http://www.w3.org/1999/xlink" viewBox="0 0 512 512" width="512" height="512" style="width: 100%; height: 100%; transform: translate3d(0,0,0);" preserveAspectRatio="xMidYMid meet"><defs><clipPath id="__lottie_element_52548"><rect width="512" height="512" x="0" y="0"></rect></clipPath></defs><g clip-path="url(#__lottie_element_52548)"><g style="display: block;" transform="matrix(1,0,0,1,269.7980041503906,253.8090057373047)" opacity="1"><g opacity="1" transform="matrix(1,0,0,1,-141.93499755859375,59.57400131225586)"><path fill="rgb(0,0,0)" fill-opacity="1" d=" M53.665000915527344,155.4969940185547 C62.624000549316406,167.07400512695312 49.25400161743164,182.5570068359375 36.500999450683594,175.37100219726562 C-14.61400032043457,146.56700134277344 -80.1259994506836,88.23999786376953 -69.22000122070312,-18.83300018310547 C-60.027000427246094,-109.09500122070312 8.638999938964844,-154.88499450683594 58.229000091552734,-176.41900634765625 C67.29000091552734,-180.35400390625 74.81099700927734,-168.5330047607422 67.43900299072266,-161.95700073242188 C32.72700119018555,-130.99099731445312 -10.557999610900879,-77.73100280761719 -10.15999984741211,-4.896999835968018 C-9.805999755859375,59.875999450683594 24.61400032043457,117.95600128173828 53.665000915527344,155.4969940185547z"></path></g><g opacity="1" transform="matrix(1,0,0,1,0,0)"><path fill="rgb(0,0,0)" fill-opacity="1" d=" M-29.99,-70.95 C-43.42,-76.32 -63.1,-58.73 -73.91,-31.7 C-84.72,-4.66 -82.58,21.65 -69.15,27.02 C-55.72,32.39 -36.04,14.8 -25.23,-12.24 C-14.42,-39.27 -16.55,-65.58 -29.99,-70.95z M40.92,-132.37 C19.65,-132.37 -0.71,-128.11 -19.5,-120.36 C-24.38,-155.56 -4.55,-177.73 -1.46,-198.15 C0.93,-213.91 -23.36,-226.69 -37.96,-184.22 C-48.47,-153.63 -43.89,-123.54 -40.72,-109.75 C-94.21,-77.98 -130.53,-15.94 -130.53,55.38 C-130.53,159.07 -53.77,243.13 40.92,243.13 C135.6,243.13 212.36,159.07 212.36,55.38 C212.36,-48.31 135.6,-132.37 40.92,-132.37z"></path><g opacity="1" transform="matrix(0.9285570979118347,0.37118956446647644,-0.37118956446647644,0.9285570979118347,-49.56800079345703,-21.968000411987305)"></g><g opacity="1" transform="matrix(1,0,0,1,40.91299819946289,15.055999755859375)"></g></g><g opacity="1" transform="matrix(1,0,0,1,-115.94599914550781,-183.06700134277344)"><path fill="rgb(0,0,0)" fill-opacity="1" d=" M60.73500061035156,47.95600128173828 C50.11800003051758,66.53700256347656 -21.549999237060547,66.53700256347656 -46.766998291015625,28.048999786376953 C-79.13500213623047,-21.354999542236328 -63.35599899291992,-68.1719970703125 -27.52199935913086,-58.88199996948242 C8.312000274658203,-49.59199905395508 81.4010009765625,11.791000366210938 60.73500061035156,47.95600128173828z"></path></g></g></g></svg>