<svg xmlns="http://www.w3.org/2000/svg" xmlns:xlink="http://www.w3.org/1999/xlink" viewBox="0 0 512 512" width="512" height="512" style="width: 100%; height: 100%; transform: translate3d(0,0,0);" preserveAspectRatio="xMidYMid meet"><defs><clipPath id="__lottie_element_53060"><rect width="512" height="512" x="0" y="0"></rect></clipPath></defs><g clip-path="url(#__lottie_element_53060)"><g style="display: block;" transform="matrix(1,0,0,1,0,0)" opacity="1"><g opacity="1" transform="matrix(1,0,0,1,249.42100524902344,257.94500732421875)"><path fill="rgb(0,0,0)" fill-opacity="1" d=" M238.26199340820312,-245.2969970703125 C238.26199340820312,-245.2969970703125 73.62799835205078,-233.74200439453125 -33.606998443603516,-121.43800354003906 C-33.606998443603516,-121.43800354003906 -26.92099952697754,-82.15899658203125 -44.5620002746582,-36.82600021362305 C-44.5620002746582,-36.82600021362305 -54.77000045776367,-107.23699951171875 -54.77000045776367,-107.23699951171875 C-54.77000045776367,-107.23699951171875 -213.19000244140625,23.97599983215332 -152.22999572753906,154.7100067138672 C-152.22999572753906,154.7100067138672 -152.822998046875,171.91700744628906 -199.57899475097656,195.572998046875 C-246.33399963378906,219.22900390625 -223.11399841308594,245.2969970703125 -189.33200073242188,231.5290069580078 C-155.552001953125,217.76300048828125 -125.64700317382812,183.19000244140625 -125.64700317382812,183.19000244140625 C-125.64700317382812,183.19000244140625 44.84299850463867,235.0050048828125 180.0800018310547,-23.3439998626709 C180.0800018310547,-23.3439998626709 150.0570068359375,-18.635000228881836 115.00900268554688,-34.77299880981445 C115.00900268554688,-34.77299880981445 193.60800170898438,-49.292999267578125 193.60800170898438,-49.292999267578125 C193.60800170898438,-49.292999267578125 246.33399963378906,-146.2469940185547 238.26199340820312,-245.2969970703125z M-74.93399810791016,97.02799987792969 C-74.93399810791016,97.02799987792969 107.64600372314453,-106.76000213623047 107.64600372314453,-106.76000213623047 C107.64600372314453,-106.76000213623047 43.321998596191406,25.059999465942383 -74.93399810791016,97.02799987792969z"></path></g></g></g></svg>