<svg xmlns="http://www.w3.org/2000/svg" xmlns:xlink="http://www.w3.org/1999/xlink" viewBox="0 0 512 512" width="512" height="512" style="width: 100%; height: 100%; transform: translate3d(0,0,0);" preserveAspectRatio="xMidYMid meet"><defs><clipPath id="__lottie_element_52308"><rect width="512" height="512" x="0" y="0"></rect></clipPath></defs><g clip-path="url(#__lottie_element_52308)"><g style="display: block;" transform="matrix(1.0199999809265137,0,0,1.0199999809265137,18.793411254882812,3.70648193359375)" opacity="1"><g opacity="1" transform="matrix(1,0,0,1,229.8300018310547,252.1750030517578)"><path fill="rgb(0,0,0)" fill-opacity="1" d=" M217.77999877929688,39.07500076293945 C188.77999877929688,-29.924999237060547 -13.460000038146973,-74.67500305175781 -18.219999313354492,-84.92500305175781 C-22.649999618530273,-94.46499633789062 27.780000686645508,-85.92500305175781 40.779998779296875,-138.9250030517578 C61.58000183105469,-223.73500061035156 97.77999877929688,-251.9250030517578 72.77999877929688,-251.9250030517578 C2.7799999713897705,-251.9250030517578 -70.22000122070312,-236.9250030517578 -93.22000122070312,-164.9250030517578 C-106.58999633789062,-123.07499694824219 -79.22000122070312,-109.92500305175781 -88.22000122070312,-103.92500305175781 C-95.06999969482422,-99.3550033569336 -135.22000122070312,-120.92500305175781 -150.22000122070312,-91.92500305175781 C-160.5399932861328,-71.96499633789062 -137.00999450683594,-48.084999084472656 -138.22000122070312,-41.92499923706055 C-143.0399932861328,-17.395000457763672 -171.9600067138672,51.46500015258789 -155.22000122070312,59.07500076293945 C-144.22000122070312,64.07499694824219 -138.3350067138672,32.01900100708008 -122.27899932861328,26.23200035095215 C-79.62799835205078,10.857999801635742 46.68199920654297,56.33000183105469 81.68199920654297,83.33000183105469 C108.5719985961914,104.06999969482422 131.79200744628906,135.27999877929688 134.6820068359375,147.3300018310547 C140.6820068359375,172.3300018310547 122.68199920654297,201.3300018310547 100.68199920654297,189.3300018310547 C78.02200317382812,176.97000122070312 69.71499633789062,161.68499755859375 40.68199920654297,142.3300018310547 C-28.31800079345703,96.33000183105469 -132.56900024414062,95.1719970703125 -156.22000122070312,97.07499694824219 C-161.59500122070312,97.50800323486328 -220.7899932861328,113.86499786376953 -225.22000122070312,145.0749969482422 C-229.5800018310547,175.8249969482422 -189.22000122070312,210.0749969482422 -143.22000122070312,221.0749969482422 C-14.199999809265137,251.9250030517578 56.8390007019043,217.95700073242188 77.83899688720703,224.95700073242188 C96.18900299072266,231.07699584960938 128.85000610351562,250.38499450683594 141.77999877929688,239.0749969482422 C173.77999877929688,211.0749969482422 188.3800048828125,69.67500305175781 198.77999877929688,72.07499694824219 C211.77999877929688,75.07499694824219 229.5800018310547,67.15499877929688 217.77999877929688,39.07500076293945z M-52.220001220703125,-139.9250030517578 C-42.220001220703125,-162.9250030517578 -32.220001220703125,-174.9250030517578 -8.220000267028809,-196.9250030517578 C-1.0980000495910645,-203.45399475097656 8.333999633789062,-201.04299926757812 2.7799999713897705,-192.9250030517578 C-10.220000267028809,-173.9250030517578 -28.219999313354492,-151.9250030517578 -34.220001220703125,-135.9250030517578 C-38.67499923706055,-124.04399871826172 -57.402000427246094,-128.00599670410156 -52.220001220703125,-139.9250030517578z"></path></g><g opacity="1" transform="matrix(1,0,0,1,333.8420104980469,423.95098876953125)"><path fill="rgb(0,0,0)" fill-opacity="1" d=" M16.982999801635742,-10.824999809265137 C15.449000358581543,-1.1699999570846558 8.795000076293945,5.796999931335449 2.124000072479248,4.736999988555908 C-4.547999858856201,3.6760001182556152 -8.713000297546387,-5.011000156402588 -7.178999900817871,-14.664999961853027 C-5.644000053405762,-24.31999969482422 1.0080000162124634,-31.28700065612793 7.679999828338623,-30.22599983215332 C14.352999687194824,-29.166000366210938 18.517000198364258,-20.479000091552734 16.982999801635742,-10.824999809265137z"></path></g></g></g></svg>