<svg xmlns="http://www.w3.org/2000/svg" xmlns:xlink="http://www.w3.org/1999/xlink" viewBox="0 0 512 512" width="512" height="512" style="width: 100%; height: 100%; transform: translate3d(0,0,0);" preserveAspectRatio="xMidYMid meet"><defs><clipPath id="__lottie_element_15916"><rect width="512" height="512" x="0" y="0"></rect></clipPath></defs><g clip-path="url(#__lottie_element_15916)"><g style="display: block;" transform="matrix(1.0299999713897705,0,0,1.0299999713897705,14.05328369140625,-7.6867523193359375)" opacity="1"><g opacity="1" transform="matrix(1,0,0,1,240.49099731445312,252.24000549316406)"><path fill="rgb(0,0,0)" fill-opacity="1" d=" M-34.81800079345703,-9.630999565124512 C-45.07899856567383,1.1440000534057617 -107.76000213623047,-46.09199905395508 -72.62699890136719,-138.43899536132812 C-47.98899841308594,-203.1999969482422 43.91400146484375,-218.76400756835938 37.68000030517578,-234.6199951171875 C30.850000381469727,-251.99000549316406 -39.70100021362305,-226.94700622558594 -69.25700378417969,-197.9770050048828 C-95.26000213623047,-172.48899841308594 -103.31300354003906,-139.93800354003906 -109.81500244140625,-140.625 C-140.10000610351562,-143.8260040283203 -179.4739990234375,-146.1320037841797 -191.39700317382812,-140.56700134277344 C-200.96200561523438,-136.1020050048828 -191.0290069580078,-39.92300033569336 -157.31199645996094,-8.130999565124512 C-110.14399719238281,36.345001220703125 -46.7599983215332,5.9079999923706055 -43.81800079345703,21.868000030517578 C-40.81800079345703,38.138999938964844 -125.76000213623047,59.90800094604492 -173.31100463867188,11.868000030517578 C-222.7899932861328,-38.11899948120117 -204.76499938964844,-128.05299377441406 -221.51199340820312,-130.0919952392578 C-237.93899536132812,-132.0919952392578 -245.09500122070312,-78.05799865722656 -228.66200256347656,-29.30500030517578 C-216.66200256347656,6.297999858856201 -197.9010009765625,23.86199951171875 -195.5760040283203,35.19200134277344 C-192.6580047607422,49.409000396728516 -230.51199340820312,80.90799713134766 -223.80799865722656,137.36199951171875 C-221.73599243164062,154.8159942626953 -141.13699340820312,163.75799560546875 -87.31500244140625,140.36199951171875 C-28.760000228881836,114.90799713134766 -36.7599983215332,61.90800094604492 -19.259000778198242,57.35599899291992 C-5.988999843597412,53.904998779296875 -5.760000228881836,122.90799713134766 -60.94499969482422,153.74899291992188 C-120.84500122070312,187.2270050048828 -204.75999450683594,164.9080047607422 -210.3090057373047,177.86000061035156 C-216.10499572753906,191.38699340820312 -158.2830047607422,206.4669952392578 -123.81300354003906,202.74200439453125 C-79.37899780273438,197.94000244140625 -50.50199890136719,186.13600158691406 -40.375,186.71400451660156 C-33.34700012207031,187.11500549316406 -5.758999824523926,228.9080047607422 30.68000030517578,239.85699462890625 C49.79199981689453,245.5989990234375 91.23999786376953,146.9080047607422 77.677001953125,95.36399841308594 C64.71099853515625,46.09199905395508 16.240999221801758,50.90800094604492 18.086000442504883,35.111000061035156 C19.913000106811523,19.45599937438965 89.08699798583984,37.762001037597656 101.23999786376953,96.90799713134766 C116.23999786376953,169.9080047607422 56.2400016784668,227.9080047607422 75.177001953125,241.35699462890625 C87.47799682617188,250.09300231933594 117.15299987792969,212.8489990234375 129.08700561523438,163.802001953125 C137.42300415039062,129.5449981689453 125.23999786376953,98.90799713134766 132.1739959716797,92.86399841308594 C141.6750030517578,84.58200073242188 201.24099731445312,81.90799713134766 220.54100036621094,18.69300079345703 C226.0030059814453,0.8029999732971191 163.24099731445312,-54.09199905395508 104.33100128173828,-54.599998474121094 C25.860000610351562,-55.277000427246094 11.241000175476074,-10.092000007629395 1.1820000410079956,-18.631000518798828 C-7.764999866485596,-26.224000930786133 29.240999221801758,-95.09200286865234 115.177001953125,-80.62699890136719 C191.63699340820312,-67.75700378417969 216.33700561523438,-4.9019999504089355 230.06500244140625,-21.091999053955078 C240.24099731445312,-33.09199905395508 213.26300048828125,-77.80699920654297 171.11399841308594,-96.51100158691406 C139.1269989013672,-110.70500183105469 107.01200103759766,-116.06600189208984 100.177001953125,-121.4219970703125 C91.75,-128.02499389648438 104.23999786376953,-193.0919952392578 74.23999786376953,-212.0919952392578 C60.266998291015625,-220.94200134277344 -8.104000091552734,-186.4550018310547 -38.9630012512207,-140.6009979248047 C-87.76000213623047,-68.09200286865234 -26.760000228881836,-18.091999053955078 -34.81800079345703,-9.630999565124512z"></path></g></g></g></svg>