<svg xmlns="http://www.w3.org/2000/svg" xmlns:xlink="http://www.w3.org/1999/xlink" viewBox="0 0 512 512" width="512" height="512" style="width: 100%; height: 100%; transform: translate3d(0,0,0);" preserveAspectRatio="xMidYMid meet"><defs><clipPath id="__lottie_element_53609"><rect width="512" height="512" x="0" y="0"></rect></clipPath></defs><g clip-path="url(#__lottie_element_53609)"><g style="display: block;" transform="matrix(1,0,0,1,589.1380004882812,-591.5780029296875)" opacity="1"><g opacity="1" transform="matrix(1,0,0,1,-333.13800048828125,847.5780029296875)"><path fill="rgb(0,0,0)" fill-opacity="1" d=" M192.4250030517578,43.18000030517578 C192.4250030517578,43.18000030517578 192.4250030517578,43.18000030517578 192.4250030517578,43.17900085449219 C187.95199584960938,-10.621999740600586 162.36700439453125,-67.32499694824219 116.38200378417969,-125.3550033569336 C90.06600189208984,-158.56399536132812 57.67599868774414,-191.39700317382812 20.111000061035156,-222.9429931640625 C14.550000190734863,-227.61199951171875 7.493000030517578,-230.24600219726562 0.23800000548362732,-230.36000061035156 C0.07999999821186066,-230.36199951171875 -0.07999999821186066,-230.36199951171875 -0.23800000548362732,-230.36000061035156 C-7.49399995803833,-230.24600219726562 -14.550999641418457,-227.61199951171875 -20.113000869750977,-222.94200134277344 C-57.678001403808594,-191.39500427246094 -90.06800079345703,-158.56199645996094 -116.38200378417969,-125.3550033569336 C-162.3679962158203,-67.32499694824219 -187.95199584960938,-10.621999740600586 -192.4250030517578,43.17900085449219 C-196.3419952392578,90.28800201416016 -181.79299926757812,133.2949981689453 -150.3520050048828,167.5489959716797 C-132.4709930419922,187.0290069580078 -109.26100158691406,203.0489959716797 -83.23300170898438,213.8730010986328 C-57.61899948120117,224.52499389648438 -29.10300064086914,230.2209930419922 -0.7390000224113464,230.35299682617188 C-0.5799999833106995,230.35800170898438 -0.4189999997615814,230.36099243164062 -0.2590000033378601,230.36099243164062 C-0.2590000033378601,230.36099243164062 -0.003000000026077032,230.35800170898438 -0.003000000026077032,230.35800170898438 C-0.003000000026077032,230.35800170898438 0.2590000033378601,230.36099243164062 0.2590000033378601,230.36099243164062 C0.4189999997615814,230.36099243164062 0.5799999833106995,230.35800170898438 0.7390000224113464,230.35299682617188 C29.10300064086914,230.2209930419922 57.61800003051758,224.52499389648438 83.23200225830078,213.8730010986328 C109.26000213623047,203.0489959716797 132.468994140625,187.02999877929688 150.3509979248047,167.5489959716797 C181.79200744628906,133.2949981689453 196.34100341796875,90.28800201416016 192.4250030517578,43.18000030517578z M84.1969985961914,99.54499816894531 C77.64800262451172,102.96199798583984 70.31700134277344,105.6989974975586 62.040000915527344,107.7969970703125 C62.040000915527344,107.7969970703125 62.040000915527344,118.16500091552734 62.040000915527344,118.16500091552734 C62.040000915527344,131.1790008544922 51.452999114990234,141.76499938964844 38.43899917602539,141.76499938964844 C30.599000930786133,141.76499938964844 23.64299964904785,137.91900634765625 19.349000930786133,132.01800537109375 C15.055000305175781,137.91900634765625 8.098999977111816,141.76499938964844 0.2590000033378601,141.76499938964844 C-7.565000057220459,141.76499938964844 -14.508000373840332,137.93600463867188 -18.804000854492188,132.05599975585938 C-23.100000381469727,137.93600463867188 -30.042999267578125,141.76499938964844 -37.867000579833984,141.76499938964844 C-50.88100051879883,141.76499938964844 -61.46699905395508,131.1790008544922 -61.46699905395508,118.16500091552734 C-61.46699905395508,118.16500091552734 -61.46699905395508,107.81199645996094 -61.46699905395508,107.81199645996094 C-69.76699829101562,105.71299743652344 -77.11599731445312,102.97000122070312 -83.67900085449219,99.54499816894531 C-107.25900268554688,87.24099731445312 -119.7229995727539,65.83499908447266 -119.7229995727539,37.64400100708008 C-119.7229995727539,7.014999866485596 -105.45500183105469,-22.368000030517578 -79.55000305175781,-45.09299850463867 C-56.41299819946289,-65.38800048828125 -26.676000595092773,-77.50399780273438 0,-77.50399780273438 C26.69099998474121,-77.50399780273438 56.512001037597656,-65.39900207519531 79.77300262451172,-45.124000549316406 C105.86900329589844,-22.37700080871582 120.24099731445312,7.017000198364258 120.24099731445312,37.64400100708008 C120.24099731445312,65.83499908447266 107.7770004272461,87.24099731445312 84.1969985961914,99.54499816894531z"></path></g><g opacity="1" transform="matrix(1,0,0,1,-332.87799072265625,919.8800048828125)"><path fill="rgb(0,0,0)" fill-opacity="1" d=" M0,-20.18000030517578 C-4.53000020980835,-20.18000030517578 -8.8100004196167,-18.1299991607666 -11.65999984741211,-14.619999885559082 C-14.65999984741211,-10.90999984741211 -19.68000030517578,-3.549999952316284 -19.68000030517578,4.199999809265137 C-19.68000030517578,11.550000190734863 -15.109999656677246,17.739999771118164 -8.300000190734863,19.600000381469727 C-5.190000057220459,20.440000534057617 -2.430000066757202,20.309999465942383 0,19.579999923706055 C1.2699999809265137,19.959999084472656 2.630000114440918,20.18000030517578 4.090000152587891,20.18000030517578 C5.409999847412109,20.18000030517578 6.820000171661377,20 8.289999961853027,19.600000381469727 C15.109999656677246,17.739999771118164 19.68000030517578,11.550000190734863 19.68000030517578,4.199999809265137 C19.68000030517578,-3.549999952316284 14.649999618530273,-10.90999984741211 11.65999984741211,-14.619999885559082 C8.8100004196167,-18.1299991607666 4.519999980926514,-20.18000030517578 0,-20.18000030517578z"></path></g><g opacity="1" transform="matrix(1,0,0,1,-393.593994140625,878.9639892578125)"><path fill="rgb(0,0,0)" fill-opacity="1" d=" M16.795000076293945,-40.49399948120117 C7.243000030517578,-44.46200180053711 -3.8429999351501465,-43.263999938964844 -13.621999740600586,-37.20800018310547 C-21.972000122070312,-32.03799819946289 -28.854000091552734,-23.68899917602539 -33.00299835205078,-13.699000358581543 C-37.15299987792969,-3.7079999446868896 -38.209999084472656,7.061999797821045 -35.98099899291992,16.625999450683594 C-33.36899948120117,27.82699966430664 -26.392000198364258,36.527000427246094 -16.840999603271484,40.49399948120117 C-13.128000259399414,42.0359992980957 -9.1850004196167,42.797000885009766 -5.175000190734863,42.797000885009766 C1.13100004196167,42.797000885009766 7.598999977111816,40.9109992980957 13.57800006866455,37.20899963378906 C21.92799949645996,32.03900146484375 28.81100082397461,23.68899917602539 32.95899963378906,13.697999954223633 C32.95899963378906,13.697999954223633 32.95899963378906,13.699000358581543 32.95899963378906,13.699000358581543 C42.39099884033203,-9.006999969482422 35.29100036621094,-32.81100082397461 16.795000076293945,-40.49399948120117z"></path></g><g opacity="1" transform="matrix(1,0,0,1,-272.1419982910156,878.9439697265625)"><path fill="rgb(0,0,0)" fill-opacity="1" d=" M-16.819000244140625,-40.472999572753906 C-35.3129997253418,-32.790000915527344 -42.41299819946289,-8.984999656677246 -32.981998443603516,13.718999862670898 C-28.833999633789062,23.709999084472656 -21.950000762939453,32.060001373291016 -13.600000381469727,37.22999954223633 C-7.620999813079834,40.93199920654297 -1.1540000438690186,42.819000244140625 5.1539998054504395,42.81800079345703 C9.161999702453613,42.81800079345703 13.107000350952148,42.055999755859375 16.81800079345703,40.513999938964844 C35.3120002746582,32.83300018310547 42.4119987487793,9.029999732971191 32.981998443603516,-13.678000450134277 C23.549999237060547,-36.38399887084961 1.6790000200271606,-48.154998779296875 -16.819000244140625,-40.472999572753906z"></path></g></g></g></svg>