<svg xmlns="http://www.w3.org/2000/svg" xmlns:xlink="http://www.w3.org/1999/xlink" viewBox="0 0 512 512" width="512" height="512" style="width: 100%; height: 100%; transform: translate3d(0,0,0);" preserveAspectRatio="xMidYMid meet"><defs><clipPath id="__lottie_element_53499"><rect width="512" height="512" x="0" y="0"></rect></clipPath></defs><g clip-path="url(#__lottie_element_53499)"><g style="display: block;" transform="matrix(1,0,0,1,0,0)" opacity="1"><g opacity="1" transform="matrix(1,0,0,1,255.2220001220703,270.3599853515625)"><path fill="rgb(4,5,52)" fill-opacity="1" d=" M-189.18099975585938,-116.63700103759766 C-183.3090057373047,-124.70999908447266 -187.7689971923828,-136.96600341796875 -179.29800415039062,-142.33099365234375 C-170.82699584960938,-147.6959991455078 -154.4510040283203,-127.36599731445312 -166.30999755859375,-103.93099975585938 C-166.30999755859375,-103.93099975585938 -153.60400390625,-115.2239990234375 -155.01600646972656,-133.2949981689453 C-155.01600646972656,-133.2949981689453 -125.08699798583984,-138.3780059814453 -110.12200164794922,-144.58999633789062 C-95.15699768066406,-150.802001953125 -79.91000366210938,-168.8719940185547 -44.33399963378906,-164.63699340820312 C-8.758000373840332,-160.40199279785156 -0.28600001335144043,-146.84800720214844 24.843000411987305,-146.84800720214844 C49.97200012207031,-146.84800720214844 89.21900177001953,-167.4600067138672 128.7480010986328,-161.2480010986328 C168.27699279785156,-155.03599548339844 208.3719940185547,-118.33000183105469 221.36000061035156,-86.70700073242188 C234.34800720214844,-55.08399963378906 226.4429931640625,9.293000221252441 227.57200622558594,43.7400016784668 C228.7010040283203,78.18699645996094 238.30099487304688,87.78600311279297 244.51300048828125,97.38600158691406 C250.72500610351562,106.98600006103516 247.33599853515625,160.63299560546875 228.7010040283203,162.89199829101562 C210.0659942626953,165.1510009765625 183.52499389648438,169.10400390625 182.9600067138672,156.11599731445312 C182.39500427246094,143.1280059814453 202.16000366210938,138.61000061035156 204.41900634765625,136.3509979248047 C206.67799377441406,134.0919952392578 183.52499389648438,117.1510009765625 168.2779998779297,84.96299743652344 C153.031005859375,52.775001525878906 150.77200317382812,39.7869987487793 150.77200317382812,39.7869987487793 C150.77200317382812,39.7869987487793 118.01899719238281,9.857999801635742 111.80699920654297,-19.506999969482422 C111.80699920654297,-19.506999969482422 112.37200164794922,10.987000465393066 139.47799682617188,42.61000061035156 C139.47799682617188,42.61000061035156 99.38300323486328,73.10399627685547 38.959999084472656,44.30400085449219 C38.959999084472656,44.30400085449219 37.83100128173828,-2.002000093460083 2.819000005722046,-27.97800064086914 C2.819000005722046,-27.97800064086914 35.571998596191406,18.892000198364258 31.054000854492188,76.49199676513672 C26.535999298095703,134.0919952392578 27.384000778198242,154.70399475097656 18.913000106811523,160.63299560546875 C10.442000389099121,166.56199645996094 -31.34600067138672,167.69200134277344 -35.58100128173828,158.65699768066406 C-39.816001892089844,149.6219940185547 -18.922000885009766,141.9980010986328 -5.086999893188477,140.58599853515625 C-5.086999893188477,140.58599853515625 -3.3929998874664307,119.9749984741211 -25.981000900268555,75.36299896240234 C-48.569000244140625,30.750999450683594 -79.06300354003906,0.9520000219345093 -115.2040023803711,-14.359999656677246 C-151.34500122070312,-29.672000885009766 -180.14500427246094,-21.20199966430664 -187.48599243164062,-18.09600067138672 C-194.82699584960938,-14.989999771118164 -217.13299560546875,-5.541999816894531 -230.4040069580078,-14.359999656677246 C-243.6750030517578,-23.17799949645996 -247.6269989013672,-29.10700035095215 -247.34500122070312,-32.77799987792969 C-247.06300354003906,-36.44900131225586 -223.06300354003906,-57.34299850463867 -219.6750030517578,-67.2249984741211 C-216.28700256347656,-77.10700225830078 -220.23899841308594,-82.47200012207031 -212.05099487304688,-91.50700378417969 C-203.86300659179688,-100.54199981689453 -191.44000244140625,-113.53099822998047 -189.18099975585938,-116.63700103759766z"></path></g><g opacity="1" transform="matrix(1,0,0,1,133.97300720214844,350.52398681640625)"><path fill="rgb(4,5,52)" fill-opacity="1" d=" M17.149999618530273,-73.50599670410156 C17.149999618530273,-73.50599670410156 56.303001403808594,-61.082000732421875 67.9739990234375,-35.85900115966797 C67.9739990234375,-35.85900115966797 66.46800231933594,-9.883000373840332 49.150001525878906,14.588000297546387 C31.832000732421875,39.058998107910156 -2.802000045776367,56.75199890136719 -5.060999870300293,60.13999938964844 C-7.320000171661377,63.52799987792969 -4.308000087738037,70.68199920654297 -25.767000198364258,72.56400299072266 C-47.22600173950195,74.44599914550781 -69.06099700927734,74.4469985961914 -67.93199920654297,63.52899932861328 C-66.8030014038086,52.611000061035156 -40.82600021362305,50.35200119018555 -30.660999298095703,40.56399917602539 C-20.496000289916992,30.775999069213867 13.008999824523926,-29.08300018310547 17.149999618530273,-73.50599670410156z"></path></g><g opacity="1" transform="matrix(1,0,0,1,393.85198974609375,373.0989990234375)"><path fill="rgb(4,5,52)" fill-opacity="1" d=" M6.211999893188477,-52.78799819946289 C6.211999893188477,-52.78799819946289 20.613000869750977,-10.152999877929688 36.98899841308594,6.50600004196167 C36.98899841308594,6.50600004196167 25.1299991607666,42.08300018310547 15.529999732971191,48.29499816894531 C5.929999828338623,54.50699996948242 -37.26900100708008,55.07099914550781 -36.98699951171875,44.90599822998047 C-36.70500183105469,34.74100112915039 -10.446000099182129,24.57699966430664 -9.598999977111816,23.447999954223633 C-8.751999855041504,22.319000244140625 -8.187999725341797,-10.152999877929688 6.211999893188477,-52.78799819946289z"></path></g></g></g></svg>