<svg xmlns="http://www.w3.org/2000/svg" xmlns:xlink="http://www.w3.org/1999/xlink" viewBox="0 0 512 512" width="512" height="512" style="width: 100%; height: 100%; transform: translate3d(0,0,0);" preserveAspectRatio="xMidYMid meet"><defs><clipPath id="__lottie_element_52348"><rect width="512" height="512" x="0" y="0"></rect></clipPath></defs><g clip-path="url(#__lottie_element_52348)"><g style="display: block;" transform="matrix(1,0,0,1,4.75,43.75)" opacity="1"><g opacity="1" transform="matrix(1,0,0,1,250.25,155.75)"><path fill="rgb(0,0,0)" fill-opacity="1" d=" M247,31.5 C242.60000610351562,16.829999923706055 222,9.5 209,-20.5 C192.10000610351562,-59.4900016784668 202,-94.5 189,-104.5 C177.5800018310547,-113.29000091552734 142,-92.5 88,-103.5 C30.360000610351562,-115.23999786376953 20,-155.5 2,-155.5 C-20,-155.5 -34,-109.5 -82,-104.5 C-130.47999572753906,-99.44999694824219 -170,-111.5 -180,-101.5 C-188.16000366210938,-93.33999633789062 -173,-57.5 -198,-21.5 C-224.80999755859375,17.110000610351562 -233.6300048828125,25.450000762939453 -243,37.5 C-250,46.5 -216.52999877929688,141.33999633789062 -198,146.5 C-167,155.13999938964844 -126,111.5 7,114.5 C140.27000427246094,117.51000213623047 174,155.5 192,144.5 C226.61000061035156,123.3499984741211 250,41.5 247,31.5z M4,71.5 C-52.0099983215332,70.18000030517578 -68.94999694824219,-1.5 -64,-35.5 C-62.54999923706055,-45.439998626708984 -50.02000045776367,-39.349998474121094 -29,-49.5 C-6.21999979019165,-60.5 -10.130000114440918,-80.27999877929688 3,-80.5 C16,-80.72000122070312 14.550000190734863,-60.279998779296875 35,-50.5 C58,-39.5 73.8499984741211,-46.119998931884766 75,-35.5 C79,1.5099999904632568 58.20000076293945,72.77999877929688 4,71.5z"></path></g><g opacity="1" transform="matrix(1,0,0,1,245.23800659179688,346.89300537109375)"><path fill="rgb(0,0,0)" fill-opacity="1" d=" M-159.98800659179688,-19.64299964904785 C-155.98800659179688,-32.643001556396484 -62.09199905395508,-45.875 3.01200008392334,-46.643001556396484 C64.01200103759766,-47.36199951171875 158.01199340820312,-27.64299964904785 162.01199340820312,-13.642999649047852 C173.00799560546875,24.841999053955078 93.01200103759766,47.362998962402344 -1.9880000352859497,47.356998443603516 C-96.98899841308594,47.35100173950195 -173.00799560546875,22.67099952697754 -159.98800659179688,-19.64299964904785z"></path></g></g></g></svg>