<svg xmlns="http://www.w3.org/2000/svg" xmlns:xlink="http://www.w3.org/1999/xlink" viewBox="0 0 512 512" width="512" height="512" style="width: 100%; height: 100%; transform: translate3d(0,0,0);" preserveAspectRatio="xMidYMid meet"><defs><clipPath id="__lottie_element_15671"><rect width="512" height="512" x="0" y="0"></rect></clipPath></defs><g clip-path="url(#__lottie_element_15671)"><g style="display: block;" transform="matrix(1,0,0,1,14.798980712890625,26.810012817382812)" opacity="1"><g opacity="1" transform="matrix(1,0,0,1,244.0050048828125,236.0749969482422)"><path fill="rgb(0,0,0)" fill-opacity="1" d=" M242.625,-21.924999237060547 C241.4459991455078,-58.48500061035156 200.0959930419922,-94.75499725341797 178.125,-88.42500305175781 C166.5260009765625,-85.07499694824219 163.21499633789062,-72.08499908447266 158.625,-73.42500305175781 C145.9459991455078,-77.125 187.625,-155.9149932861328 148.625,-194.9149932861328 C126.78500366210938,-216.7550048828125 104.31600189208984,-199.40499877929688 87.13600158691406,-204.9149932861328 C67.47599792480469,-211.2050018310547 65.63600158691406,-235.8249969482422 29.63599967956543,-235.4149932861328 C-28.604000091552734,-234.73500061035156 -17.18400001525879,-181.7550048828125 -28.86400032043457,-173.9149932861328 C-45.05400085449219,-163.05499267578125 -66.86399841308594,-204.9149932861328 -102.85399627685547,-198.9149932861328 C-136.66400146484375,-193.28500366210938 -135.2550048828125,-168.05499267578125 -148.85400390625,-154.9149932861328 C-162.81399536132812,-141.43499755859375 -186.35400390625,-155.9149932861328 -198.35400390625,-106.41500091552734 C-209.56399536132812,-60.185001373291016 -115.17500305175781,11.475000381469727 -118.85399627685547,16.575000762939453 C-138.35400390625,43.57500076293945 -186.7949981689453,-20.905000686645508 -198.35400390625,-19.424999237060547 C-223.90499877929688,-16.155000686645508 -205.98500061035156,8.9350004196167 -210.35400390625,21.075000762939453 C-216.0240020751953,36.814998626708984 -243.7550048828125,28.575000762939453 -243.35400390625,72.07499694824219 C-242.96499633789062,113.55500030517578 -217.78399658203125,108.01499938964844 -202.85400390625,127.56500244140625 C-186.3350067138672,149.2050018310547 -176.90499877929688,186.52499389648438 -154.85400390625,196.06500244140625 C-130.9340057373047,206.4149932861328 -105.35399627685547,205.56500244140625 -96.35399627685547,190.56500244140625 C-82.17500305175781,166.9149932861328 -71.86399841308594,129.56500244140625 -23.86400032043457,102.57499694824219 C21.34600067138672,77.1449966430664 79.13600158691406,72.57499694824219 77.63600158691406,90.57499694824219 C76.13600158691406,108.50499725341797 39.375,101.06500244140625 -5.863999843597412,128.56500244140625 C-46.23500061035156,153.10499572753906 -69.36399841308594,205.56500244140625 -45.36399841308594,218.06500244140625 C-11.263999938964844,235.8249969482422 -5.823999881744385,182.5959930419922 20.63599967956543,171.56500244140625 C50.63600158691406,159.06500244140625 69.23600006103516,176.7550048828125 107.63600158691406,171.06500244140625 C148.125,165.06500244140625 176.5659942626953,136.40499877929688 176.625,109.56500244140625 C176.7050018310547,78.59600067138672 128.8249969482422,58.26499938964844 134.625,46.57500076293945 C138.2259979248047,39.334999084472656 155.8350067138672,41.67499923706055 179.625,45.07500076293945 C211.125,49.57500076293945 243.7550048828125,12.984999656677246 242.625,-21.924999237060547z M71.63600158691406,6.074999809265137 C58.13600158691406,0.5149999856948853 69.29499816894531,-25.235000610351562 52.13600158691406,-34.42499923706055 C27.56599998474121,-47.584999084472656 -34.84400177001953,-3.8450000286102295 -33.86399841308594,28.575000762939453 C-33.263999938964844,48.1150016784668 -4.695000171661377,52.01499938964844 -8.86400032043457,60.07500076293945 C-14.02400016784668,70.04499816894531 -49.86399841308594,80.57499694824219 -72.36399841308594,54.07500076293945 C-93.52400207519531,29.145000457763672 -80.76399993896484,-20.924999237060547 -39.36399841308594,-58.42499923706055 C-3.74399995803833,-90.67500305175781 59.45500183105469,-96.875 82.13600158691406,-70.42500305175781 C118.125,-28.424999237060547 85.7760009765625,11.895000457763672 71.63600158691406,6.074999809265137z"></path></g></g></g></svg>