<svg xmlns="http://www.w3.org/2000/svg" xmlns:xlink="http://www.w3.org/1999/xlink" viewBox="0 0 512 512" width="512" height="512" style="width: 100%; height: 100%; transform: translate3d(0,0,0);" preserveAspectRatio="xMidYMid meet"><defs><clipPath id="__lottie_element_52140"><rect width="512" height="512" x="0" y="0"></rect></clipPath></defs><g clip-path="url(#__lottie_element_52140)"><g style="display: block;" transform="matrix(2.962939977645874,0,0,2.962939977645874,2.8374481201171875,2.8374481201171875)" opacity="1"><g opacity="1" transform="matrix(1,0,0,1,84.67400360107422,94.88400268554688)"><path fill="rgb(0,0,0)" fill-opacity="1" d=" M-80.36599731445312,-1.909000039100647 C-55.09600067138672,24.0049991607666 -12.604999542236328,31.198999404907227 18.042999267578125,13.156000137329102 C5.767000198364258,14.786999702453613 -4.236999988555908,14.375 -15.253000259399414,13.831000328063965 C-36.981998443603516,12.758999824523926 -55.92100143432617,5.124000072479248 -72.51100158691406,-8.520000457763672 C-84.66799926757812,-18.51799964904785 -85.4000015258789,-33.332000732421875 -75.12000274658203,-45.244998931884766 C-65.32099914550781,-56.599998474121094 -51.20600128173828,-61.590999603271484 -37.06100082397461,-64.0530014038086 C-10.836000442504883,-68.61799621582031 13.666999816894531,-65.74500274658203 38.55799865722656,-57.071998596191406 C41.869998931884766,-55.91699981689453 44.097999572753906,-54.987998962402344 44.097999572753906,-54.987998962402344 C53.16299819946289,-60.685001373291016 67.23699951171875,-74.76899719238281 73.56900024414062,-73.74099731445312 C76.98999786376953,-73.2030029296875 80.88700103759766,-70.89800262451172 82.95700073242188,-66.63600158691406 C84.67400360107422,-63.10300064086914 83.59100341796875,-57.540000915527344 79.99800109863281,-54.21500015258789 C77.09400177001953,-51.527000427246094 66.00700378417969,-44.62699890136719 65.4219970703125,-44.28300094604492 C68.78900146484375,-41.8650016784668 75.19599914550781,-34.84299850463867 78.1500015258789,-29.323999404907227 C83.67500305175781,-18.99799919128418 82.73500061035156,-8.49899959564209 76.53900146484375,1.5210000276565552 C75.53299713134766,3.1470000743865967 74.49099731445312,5.111000061035156 74.46900177001953,6.929999828338623 C74.22100067138672,27.676000595092773 62.957000732421875,46.13999938964844 46.20600128173828,56.95600128173828 C18.198999404907227,74.76899719238281 -28.253000259399414,72.18499755859375 -51.21099853515625,55.861000061035156 C-70.35600280761719,42.249000549316406 -77.88600158691406,23.325000762939453 -80.36599731445312,-1.909000039100647z M26.263999938964844,-40.82899856567383 C5.372000217437744,-47.90800094604492 -34.375999450683594,-49.290000915527344 -51.48699951171875,-36.9370002746582 C-58.097999572753906,-32.16400146484375 -59.48899841308594,-22.822999954223633 -53.49399948120117,-16.8439998626709 C-38.77899932861328,-2.1670000553131104 -0.30000001192092896,-0.5849999785423279 17.82200050354004,-2.249000072479248 C46.861000061035156,-4.915999889373779 55.053001403808594,-12.512999534606934 56.082000732421875,-19.67099952697754 C56.81999969482422,-24.80500030517578 50.571998596191406,-31.187999725341797 45.61600112915039,-33.319000244140625 C45.61600112915039,-33.319000244140625 34.242000579833984,-26.917999267578125 30.507999420166016,-24.684999465942383 C25.711000442504883,-21.816999435424805 15.178000450134277,-21.490999221801758 7.15500020980835,-24.184999465942383 C6.861000061035156,-28.933000564575195 9.387999534606934,-30.73900032043457 12.52400016784668,-32.39400100708008 C16.57900047302246,-34.534000396728516 26.423999786376953,-40.29600143432617 26.263999938964844,-40.82899856567383z M55.053001403808594,31.8439998626709 C55.05099868774414,29.535999298095703 53.13999938964844,27.67300033569336 51.816001892089844,27.163000106811523 C50.30699920654297,26.58099937438965 47.83300018310547,26.98200035095215 46.430999755859375,27.926000595092773 C41.762001037597656,31.06800079345703 37.266998291015625,34.50600051879883 32.97600173950195,38.150001525878906 C31.86400032043457,39.09400177001953 30.910999298095703,41.55799865722656 31.392000198364258,42.67599868774414 C31.895999908447266,43.84700012207031 33.457000732421875,44.95100021362305 35.680999755859375,44.80500030517578 C40.81800079345703,44.465999603271484 45.92900085449219,41.07699966430664 50.61199951171875,38.40599822998047 C52.60300064086914,37.270999908447266 55.05500030517578,34.68899917602539 55.053001403808594,31.8439998626709z"></path></g></g></g></svg>