<svg xmlns="http://www.w3.org/2000/svg" xmlns:xlink="http://www.w3.org/1999/xlink" viewBox="0 0 512 512" width="512" height="512" style="width: 100%; height: 100%; transform: translate3d(0,0,0);" preserveAspectRatio="xMidYMid meet"><defs><clipPath id="__lottie_element_52000"><rect width="512" height="512" x="0" y="0"></rect></clipPath></defs><g clip-path="url(#__lottie_element_52000)"><g style="display: block;" transform="matrix(1,0,0,1,253.4459991455078,254.39599609375)" opacity="1"><g opacity="1" transform="matrix(1,0,0,1,0,0)"><path fill="rgb(0,0,0)" fill-opacity="1" d=" M108.09100341796875,-53.17300033569336 C120.36100006103516,-54.08300018310547 134.4810028076172,-60.59299850463867 134.9810028076172,-75.84300231933594 C135.52099609375,-92.322998046875 119.34100341796875,-97.33300018310547 116.18099975585938,-97.94300079345703 C115.08100128173828,-98.15299987792969 113.6510009765625,-98.40299987792969 112.2509994506836,-98.64299774169922 C111.81099700927734,-98.79299926757812 115.8010025024414,-109.27300262451172 121.2509994506836,-122.43299865722656 C126.7699966430664,-135.76199340820312 132.30299377441406,-149.3509979248047 136.68499755859375,-163.10299682617188 C140.16099548339844,-174.00999450683594 132.56300354003906,-182.47500610351562 123.17900085449219,-186.89700317382812 C110.98899841308594,-192.64199829101562 97.47799682617188,-196.27200317382812 84.45600128173828,-199.552001953125 C76.57499694824219,-201.53700256347656 68.62899780273438,-203.26600646972656 60.64099884033203,-204.76300048828125 C46.38100051879883,-207.43299865722656 31.961000442504883,-209.42300415039062 17.481000900268555,-210.35299682617188 C5.951000213623047,-211.10299682617188 -6.468999862670898,-211.7830047607422 -17.858999252319336,-209.43299865722656 C-23.448999404907227,-208.2830047607422 -25.02899932861328,-200.5229949951172 -25.339000701904297,-195.63299560546875 C-25.888999938964844,-187.16299438476562 -25.64900016784668,-178.48300170898438 -24.499000549316406,-170.09300231933594 C-23.57900047302246,-163.41299438476562 -22.768999099731445,-155.572998046875 -17.548999786376953,-150.73300170898438 C-14.74899959564209,-148.13299560546875 -11.39900016784668,-146.22300720214844 -7.988999843597412,-144.55299377441406 C-4.698999881744385,-142.9429931640625 -1.5889999866485596,-141.1529998779297 1.7009999752044678,-139.54299926757812 C10.461000442504883,-135.2429962158203 19.490999221801758,-131.5030059814453 28.60099983215332,-128.0330047607422 C31.69099998474121,-126.86299896240234 34.80099868774414,-125.71299743652344 37.9109992980957,-124.58300018310547 C39.81100082397461,-123.90299987792969 41.71099853515625,-123.2229995727539 43.62099838256836,-122.56300354003906 C43.62099838256836,-122.56300354003906 43.770999908447266,-122.51300048828125 43.770999908447266,-122.51300048828125 C48.35100173950195,-120.9229965209961 50.78099822998047,-115.91300201416016 49.180999755859375,-111.31300354003906 C47.78099822998047,-107.25299835205078 43.691001892089844,-104.89299774169922 39.590999603271484,-105.51300048828125 C26.641000747680664,-107.44300079345703 13.741000175476074,-110.23300170898438 1.031000018119812,-113.9229965209961 C-6.309000015258789,-116.06300354003906 -13.548999786376953,-118.5530014038086 -20.679000854492188,-121.34300231933594 C-23.89900016784668,-122.60299682617188 -27.14900016784668,-124.54299926757812 -30.599000930786133,-124.89299774169922 C-38.48899841308594,-125.7030029296875 -46.8390007019043,-121.33300018310547 -51.23899841308594,-114.86299896240234 C-52.66899871826172,-112.76300048828125 -53.60900115966797,-110.43299865722656 -54.058998107910156,-108.00299835205078 C-55.82899856567383,-98.56300354003906 -50.388999938964844,-87.5530014038086 -39.26900100708008,-81.88300323486328 C-38.249000549316406,-81.35299682617188 -37.21900177001953,-80.85299682617188 -36.18899917602539,-80.34300231933594 C-55.999000549316406,-51.45199966430664 -86.24800109863281,-24.44499969482422 -113.9229965209961,0.9660000205039978 C-113.9229965209961,0.9660000205039978 -112.25199890136719,8.116000175476074 -104.19999694824219,15.29699993133545 C-96.14800262451172,22.47800064086914 -89.03199768066406,23.163999557495117 -89.03199768066406,23.163999557495117 C-74.1989974975586,6.3979997634887695 -58.637001037597656,-9.701000213623047 -42.08300018310547,-24.677000045776367 C-36.775001525878906,-29.464000701904297 -28.597000122070312,-29.04800033569336 -23.801000595092773,-23.738000869750977 C-19.854999542236328,-19.3700008392334 -19.437999725341797,-13.031999588012695 -22.41900062561035,-8.239999771118164 C-45.31800079345703,28.641000747680664 -63.255001068115234,68.16500091552734 -79.2770004272461,108.43699645996094 C-79.2770004272461,108.43699645996094 -79.41000366210938,108.78299713134766 -79.41000366210938,108.78299713134766 C-85.83899688720703,124.98999786376953 -104.18699645996094,132.9199981689453 -120.39399719238281,126.49099731445312 C-136.6009979248047,120.06199645996094 -144.531005859375,101.71399688720703 -138.11099243164062,85.50499725341797 C-137.0240020751953,82.78399658203125 -135.50999450683594,80.18199920654297 -133.83099365234375,77.9530029296875 C-119.52300262451172,59.28900146484375 -104.68399810791016,40.85499954223633 -89.03199768066406,23.163999557495117 C-89.03199768066406,23.163999557495117 -113.9229965209961,0.9660000205039978 -113.9229965209961,0.9660000205039978 C-146.68299865722656,31.04599952697754 -175.83700561523438,58.88800048828125 -179.78900146484375,84.96700286865234 C-188.7790069580078,144.27699279785156 -142.90899658203125,175.10699462890625 -14.189000129699707,199.20700073242188 C114.54100036621094,223.31700134277344 168.031005859375,212.5570068359375 179.91099548339844,149.10699462890625 C189.43099975585938,98.25700378417969 125.98100280761719,17.69700050354004 108.09100341796875,-53.17300033569336z"></path></g></g></g></svg>