<svg xmlns="http://www.w3.org/2000/svg" xmlns:xlink="http://www.w3.org/1999/xlink" viewBox="0 0 512 512" width="512" height="512" style="width: 100%; height: 100%; transform: translate3d(0,0,0);" preserveAspectRatio="xMidYMid meet"><defs><clipPath id="__lottie_element_53914"><rect width="512" height="512" x="0" y="0"></rect></clipPath></defs><g clip-path="url(#__lottie_element_53914)"><g style="display: block;" transform="matrix(1,0,0,1,-1.156005859375,28.330001831054688)" opacity="1"><g opacity="1" transform="matrix(1,0,0,1,257.156005859375,232.9600067138672)"><path fill="rgb(0,0,0)" fill-opacity="1" d=" M-175,-138.29100036621094 C-180.0540008544922,-116.05500030517578 -178.2550048828125,72.82599639892578 -159,101.70899963378906 C-117,164.70899963378906 -28.65999984741211,139.68299865722656 -30,150.70899963378906 C-31.010000228881836,159.0189971923828 -83.66999816894531,170.46299743652344 -119,163.70899963378906 C-141.5540008544922,159.39700317382812 -163.5989990234375,149.41900634765625 -179,126.70899963378906 C-193.01600646972656,106.04199981689453 -199.63400268554688,90.39099884033203 -206,90.70899963378906 C-226,91.70899963378906 -256.906005859375,143.88699340820312 -245,184.70899963378906 C-231,232.70899963378906 -89.43199920654297,222.36900329589844 -15,200.70899963378906 C174,145.70899963378906 261.9679870605469,30.834999084472656 246,1.7089999914169312 C239.00100708007812,-11.057000160217285 191.93800354003906,-3.8499999046325684 177,-7.290999889373779 C154.5019989013672,-12.472999572753906 86,-204.29100036621094 43,-222.29100036621094 C18.110000610351562,-232.7100067138672 -13.963000297546387,-230.15499877929688 -19,-219.29100036621094 C-26.018999099731445,-204.1540069580078 27.1560001373291,-167.39599609375 15,-166.29100036621094 C-18,-163.29100036621094 -33,-206.29100036621094 -74,-208.29100036621094 C-102.03800201416016,-209.65899658203125 -170,-160.29100036621094 -175,-138.29100036621094z M37.611000061035156,73.70899963378906 C-4,86.70899963378906 -72,92.70999908447266 -98.5530014038086,79.39099884033203 C-112.66699981689453,72.31199645996094 -151.7449951171875,9.454000473022461 -143.7949981689453,1.4539999961853027 C-137.6320037841797,-4.748000144958496 -36.4119987487793,-42.07500076293945 -26,-34.29100036621094 C-20.124000549316406,-29.898000717163086 49.141998291015625,70.10700225830078 37.611000061035156,73.70899963378906z"></path></g></g></g></svg>