<svg xmlns="http://www.w3.org/2000/svg" xmlns:xlink="http://www.w3.org/1999/xlink" viewBox="0 0 512 512" width="512" height="512" style="width: 100%; height: 100%; transform: translate3d(0,0,0);" preserveAspectRatio="xMidYMid meet"><defs><clipPath id="__lottie_element_51885"><rect width="512" height="512" x="0" y="0"></rect></clipPath></defs><g clip-path="url(#__lottie_element_51885)"><g style="display: block;" transform="matrix(1,0,0,1,-2.25,28.75)" opacity="1"><g opacity="1" transform="matrix(1,0,0,1,254.52200317382812,229.75)"><path fill="rgb(0,0,0)" fill-opacity="1" d=" M-213.27200317382812,-148.5 C-259.2720031738281,-157.5 -255.27200317382812,-244.5 -198.27200317382812,-244.5 C-126.27200317382812,-244.5 -69.84200286865234,-207.73300170898438 -44.27199935913086,-200.5 C-40.733001708984375,-199.49899291992188 -34.27199935913086,-209.5 -18.27199935913086,-207.5 C-1.7020000219345093,-205.4290008544922 2.674999952316284,-194.73800659179688 11.727999687194824,-194.5 C49.72800064086914,-193.5 137.58999633789062,-200.03700256347656 174.72799682617188,-182.5 C210.72799682617188,-165.5 182.93800354003906,-94.5530014038086 153.72799682617188,-96.5 C78.72799682617188,-101.5 10.085000038146973,-148.68499755859375 3.7279999256134033,-144.5 C-4.4029998779296875,-139.1479949951172 -10.934000015258789,-79.6760025024414 -1.2719999551773071,-79.5 C163.72799682617188,-76.5 175.8159942626953,77.31300354003906 167.25100708007812,82.91000366210938 C160.22799682617188,87.5 140.22799682617188,75.5 90.62899780273438,81.59100341796875 C58.78799819946289,85.5009994506836 -4.769000053405762,103.53299713134766 -6.159999847412109,120.74400329589844 C-7.271999835968018,134.5 43.564998626708984,115.77899932861328 95.6500015258789,112.12200164794922 C147.22799682617188,108.5 167.97799682617188,117.25 180.4459991455078,122.2030029296875 C186.22799682617188,124.5 237.27499389648438,156.50999450683594 254.45899963378906,193.57400512695312 C263.9070129394531,213.9510040283203 246.05999755859375,238.63600158691406 229.94200134277344,235.36199951171875 C195.4759979248047,228.36000061035156 185.72799682617188,215.5 148.72799682617188,216.5 C94.75399780273438,217.95899963378906 66.34500122070312,253.99000549316406 12.727999687194824,243.5 C-33.27199935913086,234.5 -53.354000091552734,184.47500610351562 -66.27200317382812,180.5 C-92.27200317382812,172.5 -224.66400146484375,182.33299255371094 -237.27200317382812,167.5 C-254.27200317382812,147.5 -240.27200317382812,-66.5 -60.05500030517578,-82.75299835205078 C-52.80400085449219,-83.40699768066406 -44.27199935913086,-150.5 -54.27199935913086,-151.5 C-76.36499786376953,-153.70899963378906 -166.36000061035156,-139.3209991455078 -213.27200317382812,-148.5z"></path></g></g></g></svg>