<svg xmlns="http://www.w3.org/2000/svg" xmlns:xlink="http://www.w3.org/1999/xlink" viewBox="0 0 512 512" width="512" height="512" style="width: 100%; height: 100%; transform: translate3d(0,0,0);" preserveAspectRatio="xMidYMid meet"><defs><clipPath id="__lottie_element_15871"><rect width="512" height="512" x="0" y="0"></rect></clipPath></defs><g clip-path="url(#__lottie_element_15871)"><g style="display: block;" transform="matrix(1.0499999523162842,0,0,1.0499999523162842,23.521621704101562,7.42449951171875)" opacity="1"><g opacity="1" transform="matrix(1,0,0,1,227.20599365234375,241.56100463867188)"><path fill="rgb(0,0,0)" fill-opacity="1" d=" M216.44000244140625,-13.020000457763672 C216.4499969482422,-38.52000045776367 202.49099731445312,-31.010000228881836 201.44000244140625,-50.52000045776367 C200.88999938964844,-60.83000183105469 223.0399932861328,-69.69999694824219 211.94000244140625,-103.01000213623047 C201.44000244140625,-134.50999450683594 175.1699981689453,-135.58999633789062 165.44000244140625,-146.50999450683594 C156.14999389648438,-156.9499969482422 163.19000244140625,-176.7100067138672 133.94000244140625,-194.50999450683594 C99.44999694824219,-215.50999450683594 88.51000213623047,-193.61000061035156 78.44999694824219,-197.50999450683594 C64.47000122070312,-202.92999267578125 80.94999694824219,-219.50999450683594 56.95000076293945,-222.50999450683594 C43.77000045776367,-224.16000366210938 29.559999465942383,-212.63999938964844 21.450000762939453,-214.00999450683594 C13.550000190734863,-215.33999633789062 9.449999809265137,-238.00999450683594 -16.049999237060547,-238.00999450683594 C-31.780000686645508,-238.00999450683594 -58.88999938964844,-213.3300018310547 -52.04999923706055,-194.50999450683594 C-40.04999923706055,-161.50999450683594 -38.650001525878906,-94.36000061035156 -13.050000190734863,-92.51000213623047 C18.490999221801758,-90.23999786376953 18.43000030517578,-181.6199951171875 57.45000076293945,-166.00999450683594 C87.44999694824219,-154.00999450683594 49.95000076293945,-95.51000213623047 63.45000076293945,-85.0199966430664 C76.68000030517578,-74.72000122070312 99.79000091552734,-92.6500015258789 109.94999694824219,-83.5199966430664 C124.94000244140625,-70.0199966430664 105.58999633789062,-57.16999816894531 108.44999694824219,-40.02000045776367 C111.44000244140625,-22.020000457763672 160.75999450683594,-41.95000076293945 163.94000244140625,-16.520000457763672 C168.44000244140625,19.479999542236328 124.94000244140625,1.0199999809265137 115.94000244140625,13.979999542236328 C104.62999725341797,30.280000686645508 135.30999755859375,45.65999984741211 123.44000244140625,61.97999954223633 C111.44000244140625,78.4800033569336 95.52999877929688,52.70000076293945 85.94999694824219,63.47999954223633 C73.94999694824219,76.9800033569336 97.99099731445312,114.62999725341797 76.94999694824219,120.47000122070312 C49.95000076293945,127.97000122070312 48.45000076293945,70.9800033569336 31.950000762939453,73.9800033569336 C20.40999984741211,76.08000183105469 19.639999389648438,154.58999633789062 -23.049999237060547,134.97000122070312 C-41.54999923706055,126.47000122070312 -2.75,33.13999938964844 13.949999809265137,36.47999954223633 C36.45000076293945,40.97999954223633 62.630001068115234,26.959999084472656 69.44999694824219,1.9800000190734863 C78.44999694824219,-31.020000457763672 52.95000076293945,-68.5199966430664 18.450000762939453,-64.0199966430664 C0.20999999344348907,-61.63999938964844 -11.739999771118164,-55.77000045776367 -25.549999237060547,-43.02000045776367 C-38.54999923706055,-31.020000457763672 -103.04000091552734,-62.52000045776367 -181.0399932861328,-49.02000045776367 C-204.5500030517578,-44.95000076293945 -216.39999389648438,-7.949999809265137 -211.5399932861328,12.479999542236328 C-204.0399932861328,43.97999954223633 -185.10000610351562,43.81999969482422 -181.0399932861328,58.97999954223633 C-177,74.08000183105469 -185.0399932861328,82.4800033569336 -173.0399932861328,106.4800033569336 C-160.27999877929688,131.99000549316406 -121.77999877929688,124.0009994506836 -125.54000091552734,136.97000122070312 C-129.91000366210938,152.05999755859375 -164.85000610351562,186.57000732421875 -200.5399932861328,198.47000122070312 C-223.0399932861328,205.97000122070312 -200.82000732421875,238.00999450683594 -176.5399932861328,231.47000122070312 C-98.54000091552734,210.47000122070312 -76.95999908447266,160.8800048828125 -65.05000305175781,160.47000122070312 C-44.38999938964844,159.77000427246094 -55.41999816894531,178.13999938964844 -14.550000190734863,180.47000122070312 C37.95000076293945,183.47000122070312 30.559999465942383,163.88999938964844 52.95000076293945,159.47000122070312 C67.99099731445312,156.50100708007812 69.55000305175781,179.22999572753906 111.44000244140625,162.47000122070312 C141.44000244140625,150.47000122070312 142.55999755859375,125.11000061035156 154.94000244140625,111.4800033569336 C164.9199981689453,100.48999786376953 182.47999572753906,102.08999633789062 195.44000244140625,70.9800033569336 C210.44000244140625,34.97999954223633 183.44000244140625,28.979999542236328 192.44000244140625,15.479999542236328 C201.60000610351562,1.7400000095367432 216.42999267578125,10.989999771118164 216.44000244140625,-13.020000457763672z M-50.04999923706055,23.479999542236328 C-52.7400016784668,42.41999816894531 -98.70999908447266,99.33999633789062 -110.54000091552734,79.9800033569336 C-127.04000091552734,52.97999954223633 -106.63999938964844,50.0099983215332 -113.54000091552734,40.97999954223633 C-120.19000244140625,32.290000915527344 -136.60000610351562,36.529998779296875 -140.5399932861328,22.979999542236328 C-148.0399932861328,-2.8299999237060547 -93.51000213623047,-2.8299999237060547 -62.54999923706055,-4.019999980926514 C-61.22999954223633,-4.070000171661377 -47.790000915527344,7.619999885559082 -50.04999923706055,23.479999542236328z"></path></g><g opacity="1" transform="matrix(1,0,0,1,72.68499755859375,72.64800262451172)"><path fill="rgb(0,0,0)" fill-opacity="1" d=" M-7.519999980926514,14.901000022888184 C11.279000282287598,25.440000534057617 19.242000579833984,56.67300033569336 43.97700119018555,66.39900207519531 C59.23699951171875,72.39800262451172 72.43599700927734,53.79100036621094 68.97599792480469,46.400001525878906 C59.00299835205078,25.0939998626709 31.14900016784668,-2.6760001182556152 29.47800064086914,-14.597999572753906 C27.45599937438965,-29.016000747680664 36.560001373291016,-28.03700065612793 40.47800064086914,-41.09600067138672 C44.97800064086914,-56.095001220703125 24.88800048828125,-72.39800262451172 8.979000091552734,-67.09500122070312 C-22.520000457763672,-56.595001220703125 -47.69499969482422,-38.85900115966797 -63.518001556396484,-14.597000122070312 C-72.43499755859375,-0.9229999780654907 -55.09600067138672,25.900999069213867 -35.52000045776367,21.400999069213867 C-22.452999114990234,18.398000717163086 -20.34600067138672,7.710999965667725 -7.519999980926514,14.901000022888184z"></path></g></g></g></svg>