<svg xmlns="http://www.w3.org/2000/svg" xmlns:xlink="http://www.w3.org/1999/xlink" viewBox="0 0 512 512" width="512" height="512" style="width: 100%; height: 100%; transform: translate3d(0,0,0);" preserveAspectRatio="xMidYMid meet"><defs><clipPath id="__lottie_element_52318"><rect width="512" height="512" x="0" y="0"></rect></clipPath></defs><g clip-path="url(#__lottie_element_52318)"><g style="display: block;" transform="matrix(1,0,0,1,256.7229919433594,253.67100524902344)" opacity="1"><g opacity="1" transform="matrix(1,0,0,1,0,0)"><path fill="rgb(0,0,0)" fill-opacity="1" d=" M-173.98,198.96 C-164.99,199.31 -157.71,201.03 -150.53,196.15 C-163.85,185.86 -165.1,185.94 -173.98,198.96z M115.27,150.62 C112.72,154.94 115.37,169.04 120.67,169.32 C123.7,169.65 125.2,166.83 127.15,165.06 C131.05,161.53 130.46,158.54 126.04,156.04 C122.77,154.19 120.18,151.04 115.27,150.62z M-185.03,129.98 C-180.46,134.96 -174.69,137.99 -169.03,141.07 C-165.71,142.88 -163.16,140.77 -160.98,138.37 C-159.52,136.77 -159.19,135.14 -160.59,133.23 C-166.24,125.55 -175.81,124.08 -185.03,129.98z M205.75,141.07 C201.69,141.83 188.28,150.81 191.84,155.36 C195.09,159.27 198.92,164.18 203.94,163.55 C209.35,162.86 207.52,156.61 207.86,152.66 C208.18,148.96 209.15,144.86 205.75,141.07z M-125.05,175.22 C-120.71,169.18 -119.08,143.52 -131.3,152.36 C-140.8,159.96 -140.89,162.63 -131.86,171.32 C-130.23,172.88 -128.91,174.96 -125.05,175.22z M-208.59,162.01 C-208.64,168.92 -206.5,185.53 -197.46,179.49 C-187.78,171.9 -187.66,167.21 -197.24,159.55 C-203.23,153.98 -208.69,151.34 -208.59,162.01z M144.13,191.44 C155.98,197.71 167.12,197.1 179.85,191.2 C170,187.06 161.84,174.5 152.16,182.74 C149.56,185.02 146.15,186.45 144.13,191.44z M156.38,133.58 C164.8,130.93 171.42,121.71 178.58,116.42 C187.83,110.99 184.38,106.21 175.28,104.49 C167.44,101.5 159.04,117.64 151.69,121.46 C142.55,126.14 149.46,132.44 156.38,133.58z M-112.37,14.66 C-110.84,-6.29 -114.78,-26.68 -130.99,-41.14 C-172.29,-79.29 -204.71,-16.51 -194.83,21.24 C-189.56,49.32 -175.85,61.7 -147.46,61.77 C-117.14,63.83 -109.99,40.19 -112.37,14.66z M85.35,16.38 C84.65,37.57 90.62,66.8 118.24,60.98 C143.96,56.08 171.33,38.11 169.47,9.07 C170.79,-25.34 144.53,-80.79 105.71,-47.05 C90.44,-30.01 85.68,-5.94 85.35,16.38z M0.41,65.22 C20.41,65.48 48.01,65.04 47.83,38.67 C52.91,-26.54 46.15,-56.1 -27.58,-45.25 C-64.09,-39.23 -68.99,3.37 -67.11,33.81 C-65.87,67.36 -24.02,63.71 0.41,65.22z M134.92999267578125,-133.7239990234375 C175.71200561523438,-88.96199798583984 200.79100036621094,-31.94499969482422 197.2830047607422,29.63800048828125 C194.9759979248047,41.94200134277344 215.7760009765625,29.339000701904297 227.58399963378906,42.1619987487793 C235.04200744628906,49.7599983215332 233.53799438476562,58.32500076293945 223.9499969482422,62.96500015258789 C207.2729949951172,71.03500366210938 207.27200317382812,71.03500366210938 221.54299926757812,83.04499816894531 C278.0929870605469,141.0709991455078 253.13400268554688,209.38600158691406 203.34300231933594,230.1320037841797 C155.56399536132812,250.0399932861328 97.76499938964844,240.43499755859375 73.7239990234375,172.60400390625 C70.7760009765625,162.08299255371094 70.48600006103516,162.06399536132812 59.92100143432617,164.38299560546875 C18.413000106811523,173.51600646972656 -23.354999542236328,173.50900268554688 -64.96299743652344,165.0780029296875 C-80.34300231933594,162.4530029296875 -77.53700256347656,163.2429962158203 -80.1969985961914,174.93099975585938 C-109.4520034790039,295.1719970703125 -300.0379943847656,233.4550018310547 -239.98399353027344,122.73899841308594 C-237.6739959716797,118.08999633789062 -230.0749969482422,112.36900329589844 -236.82400512695312,107.9260025024414 C-249.0030059814453,99.66100311279297 -257.7130126953125,85.697998046875 -252.23599243164062,70.7490005493164 C-249.10499572753906,59.56999969482422 -233.4759979248047,56.20600128173828 -227.74200439453125,67.11599731445312 C-225.0260009765625,71.10700225830078 -222.9040069580078,77.99400329589844 -216.7030029296875,74.43800354003906 C-211.95199584960938,71.71399688720703 -216.52099609375,66.59300231933594 -217.75100708007812,62.8390007019043 C-231.01499938964844,22.361000061035156 -226.14199829101562,-16.884000778198242 -209.71600341796875,-55.249000549316406 C-201.97900390625,-73.32099914550781 -192.11300659179688,-90.23699951171875 -180.14500427246094,-105.91400146484375 C-172.76499938964844,-115.58100128173828 -172.90199279785156,-115.77999877929688 -183.8000030517578,-120.25800323486328 C-222.96499633789062,-131.99400329589844 -232.6009979248047,-202.07899475097656 -181.24400329589844,-180.42799377441406 C-143.62899780273438,-163.08200073242188 -114.56999969482422,-203.9340057373047 -73.18599700927734,-178.78500366210938 C-56.347999572753906,-166.6269989013672 -65.072998046875,-198.13699340820312 -36.762001037597656,-223.42599487304688 C8.267999649047852,-268.8210144042969 62.641998291015625,-210.75599670410156 26.961999893188477,-197.2729949951172 C21.047000885009766,-196.50999450683594 3.138000011444092,-191.53700256347656 13.862000465393066,-184.04100036621094 C24.64299964904785,-177.26300048828125 33.53099822998047,-171.13900756835938 46.540000915527344,-179.56199645996094 C75.63899993896484,-194.2030029296875 113.41600036621094,-177.4739990234375 140.25100708007812,-199.87100219726562 C172.4510040283203,-222.74899291992188 193.54800415039062,-158.96400451660156 134.92999267578125,-133.7239990234375z"></path><g opacity="1" transform="matrix(1,0,0,1,-162.25799560546875,194.16099548339844)"></g><g opacity="1" transform="matrix(1,0,0,1,122.0199966430664,159.98399353027344)"></g><g opacity="1" transform="matrix(1,0,0,1,-172.36000061035156,134.05299377441406)"></g><g opacity="1" transform="matrix(1,0,0,1,199.74000549316406,152.33799743652344)"></g><g opacity="1" transform="matrix(1,0,0,1,-130.1840057373047,162.8699951171875)"></g><g opacity="1" transform="matrix(1,0,0,1,-199.3560028076172,167.73899841308594)"></g><g opacity="1" transform="matrix(1,0,0,1,161.99099731445312,187.94200134277344)"></g><g opacity="1" transform="matrix(1,0,0,1,165.67100524902344,118.85199737548828)"></g><g opacity="1" transform="matrix(1,0,0,1,-154.281005859375,4.446000099182129)"></g><g opacity="1" transform="matrix(1,0,0,1,127.427001953125,2.0929999351501465)"></g><g opacity="1" transform="matrix(1,0,0,1,-9.156000137329102,8.904000282287598)"></g><g opacity="1" transform="matrix(1,0,0,1,0,0)"></g></g><g opacity="1" transform="matrix(1,0,0,1,-7.997000217437744,10.902000427246094)"><path fill="rgb(0,0,0)" fill-opacity="1" d=" M-0.06599999964237213,22.450000762939453 C-32.90299987792969,21.85300064086914 -25.882999420166016,19.961000442504883 -22.476999282836914,-10.994999885559082 C-19.429000854492188,-24.93199920654297 -0.6729999780654907,-23.54199981689453 10.54800033569336,-23.215999603271484 C27.641000747680664,-21.291000366210938 25.077999114990234,1.1970000267028809 25.53700065612793,13.942000389099121 C25.865999221801758,28.292999267578125 8.937999725341797,22.01799964904785 -0.05000000074505806,22.19300079345703 C-0.054999999701976776,22.27899932861328 -0.061000000685453415,22.36400032043457 -0.06599999964237213,22.450000762939453z"></path></g><g opacity="1" transform="matrix(1,0,0,1,126.27899932861328,1.6230000257492065)"><path fill="rgb(0,0,0)" fill-opacity="1" d=" M-13.963000297546387,10.180000305175781 C-14.020000457763672,1.5399999618530273 -9.168999671936035,-27.951000213623047 1.4950000047683716,-29.6560001373291 C11.699000358581543,-27.48200035095215 14.788999557495117,0.6949999928474426 13.78499984741211,9.694999694824219 C13.111000061035156,18.231000900268555 1.7910000085830688,28.70800018310547 -6.901000022888184,29.645000457763672 C-15.847999572753906,30.09600067138672 -12.244999885559082,16.702999114990234 -13.963000297546387,10.180000305175781z"></path></g><g opacity="1" transform="matrix(1,0,0,1,-152.93800354003906,5.355000019073486)"><path fill="rgb(0,0,0)" fill-opacity="1" d=" M-14.815999984741211,1.4270000457763672 C-14.322999954223633,-7.7210001945495605 -10.986000061035156,-37.9370002746582 2.377000093460083,-25.732999801635742 C8.065999984741211,-19.665000915527344 12.763999938964844,-13.022000312805176 13.006999969482422,-4.10099983215332 C13.166999816894531,1.7610000371932983 14.053999900817871,7.599999904632568 14.425000190734863,13.461000442504883 C18.200000762939453,34.540000915527344 -6.452000141143799,30.87299919128418 -11.64799976348877,18.985000610351562 C-14.217000007629395,13.140000343322754 -14.59000015258789,6.855000019073486 -14.815999984741211,1.4270000457763672z"></path></g></g></g></svg>