<svg xmlns="http://www.w3.org/2000/svg" xmlns:xlink="http://www.w3.org/1999/xlink" viewBox="0 0 512 512" width="512" height="512" style="width: 100%; height: 100%; transform: translate3d(0,0,0);" preserveAspectRatio="xMidYMid meet"><defs><clipPath id="__lottie_element_754"><rect width="512" height="512" x="0" y="0"></rect></clipPath></defs><g clip-path="url(#__lottie_element_754)"><g style="display: block;" transform="matrix(1,0,0,1,256,256)" opacity="1"><g opacity="1" transform="matrix(1,0,0,1,0,0)"><path fill="rgb(0,0,0)" fill-opacity="1" d=" M84.58300018310547,-214.31900024414062 C58.10100173950195,-223.8419952392578 32.71799850463867,-228.18699645996094 6.079999923706055,-231.5709991455078 C3.421999931335449,-231.90899658203125 3.690000057220459,-235.84100341796875 6.368000030517578,-235.79400634765625 C32.612998962402344,-235.3350067138672 61.303001403808594,-233.9499969482422 83.79299926757812,-230.72999572753906 C87.36599731445312,-230.21800231933594 90.55500030517578,-233.01400756835938 90.55500030517578,-236.62399291992188 C90.55500030517578,-243.41600036621094 85.802001953125,-249.29200744628906 79.14800262451172,-250.6580047607422 C46.090999603271484,-257.4460144042969 -46.17499923706055,-258.02301025390625 -79.23100280761719,-250.9010009765625 C-85.83999633789062,-249.4770050048828 -90.55500030517578,-243.64500427246094 -90.55500030517578,-236.88400268554688 C-90.55500030517578,-236.88400268554688 -90.55500030517578,47.19499969482422 -90.55500030517578,47.19499969482422 C-90.55500030517578,49.71200180053711 -89.04100036621094,51.95800018310547 -86.73699951171875,52.97200012207031 C-58.41600036621094,65.43800354003906 -26.888999938964844,68.69300079345703 3.187000036239624,72.58000183105469 C6.317999839782715,72.98500061035156 6.0229997634887695,77.61799621582031 2.865999937057495,77.62100219726562 C-26.792999267578125,77.64600372314453 -59.58700180053711,76.3290023803711 -83.08499908447266,71.83300018310547 C-86.96399688720703,71.09100341796875 -90.55500030517578,74.04199981689453 -90.55500030517578,77.99099731445312 C-90.55500030517578,77.99099731445312 -90.55500030517578,84.63899993896484 -90.55500030517578,84.63899993896484 C-90.55500030517578,91.24700164794922 -86.0479965209961,96.99600219726562 -79.62899780273438,98.56500244140625 C-46.93199920654297,106.55500030517578 46.46500015258789,106.83399963378906 79.76200103759766,98.35600280761719 C86.11599731445312,96.73799896240234 90.55500030517578,91.0199966430664 90.55500030517578,84.46299743652344 C90.55500030517578,84.46299743652344 90.55500030517578,-205.83700561523438 90.55500030517578,-205.83700561523438 C90.55500030517578,-209.63900756835938 88.16000366210938,-213.0330047607422 84.58300018310547,-214.31900024414062z M-33.88800048828125,-107.07599639892578 C-19.687999725341797,-103.12699890136719 -5.484000205993652,-99.19499969482422 8.718000411987305,-95.25299835205078 C8.720000267028809,-78.61799621582031 8.718999862670898,-61.981998443603516 8.718000411987305,-45.34700012207031 C3.742000102996826,-46.72700119018555 -1.2309999465942383,-48.108001708984375 -6.205999851226807,-49.48899841308594 C-6.209000110626221,-58.428001403808594 -6.205999851226807,-67.36699676513672 -6.208000183105469,-76.30599975585938 C-15.434000015258789,-78.86699676513672 -24.660999298095703,-81.42400360107422 -33.887001037597656,-83.98500061035156 C-33.887001037597656,-83.98500061035156 -33.88800048828125,-83.8270034790039 -33.88800048828125,-83.8270034790039 C-33.88800048828125,-83.8270034790039 -33.88800048828125,-107.07599639892578 -33.88800048828125,-107.07599639892578z M33.88800048828125,22.02199935913086 C31.63599967956543,21.47599983215332 21.724000930786133,18.68000030517578 18.99799919128418,17.923999786376953 C18.996000289916992,9.734999656677246 18.99799919128418,1.5440000295639038 18.996999740600586,-6.644999980926514 C18.996999740600586,-9.595999717712402 18.731000900268555,-11.163999557495117 16.266000747680664,-11.847000122070312 C5.491000175476074,-14.835000038146973 -5.285999774932861,-17.826000213623047 -16.062000274658203,-20.812000274658203 C-16.753000259399414,-21.003000259399414 -18.975000381469727,-20.90399932861328 -18.97599983215332,-17.503999710083008 C-18.97800064086914,-8.585000038146973 -18.97599983215332,0.335999995470047 -18.97800064086914,9.255000114440918 C-23.947999954223633,7.877999782562256 -28.917999267578125,6.498000144958496 -33.88800048828125,5.11899995803833 C-33.88800048828125,5.11899995803833 -33.88800048828125,-32.79100036621094 -33.88800048828125,-32.79100036621094 C-33.88800048828125,-41.0989990234375 -28.945999145507812,-46.388999938964844 -22.437000274658203,-44.58300018310547 C-6.995999813079834,-40.29800033569336 8.444999694824219,-36.01100158691406 23.88599967956543,-31.724000930786133 C26.674999237060547,-30.950000762939453 33.88800048828125,-29.632999420166016 33.88800048828125,-15.82800006866455 C33.88800048828125,-15.82800006866455 33.88800048828125,22.02199935913086 33.88800048828125,22.02199935913086z M33.88800048828125,-38.356998443603516 C28.927000045776367,-39.74300003051758 23.961000442504883,-41.111000061035156 18.99799919128418,-42.49100112915039 C18.9950008392334,-59.124000549316406 18.996000289916992,-75.75599670410156 18.996999740600586,-92.38899993896484 C23.961000442504883,-91.01100158691406 28.927000045776367,-89.64199829101562 33.88800048828125,-88.2509994506836 C33.88800048828125,-88.2509994506836 33.88800048828125,-38.356998443603516 33.88800048828125,-38.356998443603516z M33.88800048828125,-134.52699279785156 C17.305999755859375,-139.13900756835938 0.7179999947547913,-143.7259979248047 -15.866000175476074,-148.33399963378906 C-17.03499984741211,-148.65899658203125 -18.891000747680664,-148.22799682617188 -18.96299934387207,-145.4600067138672 C-18.993999481201172,-144.25399780273438 -18.968000411987305,-143.04800415039062 -18.976999282836914,-141.84100341796875 C-19.009000778198242,-137.69700622558594 -18.288999557495117,-136.80799865722656 -16.499000549316406,-136.30999755859375 C0.29600000381469727,-131.63999938964844 17.09600067138672,-126.99299621582031 33.88800048828125,-122.31600189208984 C33.88800048828125,-122.31600189208984 33.88800048828125,-99.23500061035156 33.88800048828125,-99.23500061035156 C15.86400032043457,-104.24800109863281 -22.73200035095215,-114.93800354003906 -24.677000045776367,-115.51000213623047 C-27.481000900268555,-116.33499908447266 -33.88800048828125,-117.73899841308594 -33.88800048828125,-131.5500030517578 C-33.88800048828125,-131.5500030517578 -33.88800048828125,-161.4499969482422 -33.88800048828125,-161.4499969482422 C-33.88800048828125,-175.64100646972656 -23.35700035095215,-173.50399780273438 -21.27199935913086,-172.92599487304688 C-2.885999917984009,-167.8280029296875 15.5,-162.7239990234375 33.887001037597656,-157.6280059814453 C33.887001037597656,-157.6280059814453 33.88800048828125,-157.7449951171875 33.88800048828125,-157.7449951171875 C33.88800048828125,-157.7449951171875 33.88800048828125,-134.52699279785156 33.88800048828125,-134.52699279785156z"></path></g><g opacity="1" transform="matrix(1,0,0,1,0,0)"><path fill="rgb(0,0,0)" fill-opacity="1" d=" M91.52100372314453,228.36599731445312 C87.5459976196289,219.3459930419922 69.1780014038086,210.03500366210938 37.152000427246094,206.27099609375 C37.152000427246094,206.27099609375 37.152000427246094,191.00799560546875 37.152000427246094,191.00799560546875 C37.152000427246094,184.0469970703125 31.510000228881836,178.4040069580078 24.548999786376953,178.4040069580078 C24.548999786376953,178.4040069580078 -21.417999267578125,178.4040069580078 -21.417999267578125,178.4040069580078 C-28.378999710083008,178.4040069580078 -34.02199935913086,184.0469970703125 -34.02199935913086,191.00799560546875 C-34.02199935913086,191.00799560546875 -34.02199935913086,205.9219970703125 -34.02199935913086,205.9219970703125 C-67.71399688720703,209.49000549316406 -87.2040023803711,219.1510009765625 -91.52100372314453,228.36599731445312 C-92.67400360107422,230.82699584960938 -96.38099670410156,237.74899291992188 -96.38099670410156,239.9739990234375 C-96.38099670410156,249.18299865722656 -53.22999954223633,256.64801025390625 0,256.64801025390625 C53.22999954223633,256.64801025390625 96.38099670410156,249.18299865722656 96.38099670410156,239.9739990234375 C96.38099670410156,237.74899291992188 92.59200286865234,230.79600524902344 91.52100372314453,228.36599731445312z"></path></g><g opacity="1" transform="matrix(1,0,0,1,0,0)"><path fill="rgb(0,0,0)" fill-opacity="1" d=" M19.523000717163086,157.19700622558594 C19.523000717163086,164.9949951171875 -19.523000717163086,164.9949951171875 -19.523000717163086,157.19700622558594 C-19.523000717163086,157.19700622558594 -19.523000717163086,102.78199768066406 -19.523000717163086,102.78199768066406 C-19.523000717163086,102.78199768066406 19.523000717163086,102.78199768066406 19.523000717163086,102.78199768066406 C19.523000717163086,102.78199768066406 19.523000717163086,157.19700622558594 19.523000717163086,157.19700622558594z"></path></g></g></g></svg>