<svg xmlns="http://www.w3.org/2000/svg" xmlns:xlink="http://www.w3.org/1999/xlink" viewBox="0 0 512 512" width="512" height="512" style="width: 100%; height: 100%; transform: translate3d(0,0,0);" preserveAspectRatio="xMidYMid meet"><defs><clipPath id="__lottie_element_15691"><rect width="512" height="512" x="0" y="0"></rect></clipPath></defs><g clip-path="url(#__lottie_element_15691)"><g style="display: block;" transform="matrix(1.0399999618530273,0,0,1.0399999618530273,19.860824584960938,-3.1199951171875)" opacity="1"><g opacity="1" transform="matrix(1,0,0,1,233.97999572753906,245.5)"><path fill="rgb(0,0,0)" fill-opacity="1" d=" M211.22999572753906,-200.72999572753906 C194.94000244140625,-245.25 50.74100112915039,-211.22999572753906 26.740999221801758,-175.22999572753906 C16.5310001373291,-159.9199981689453 10.241000175476074,-137.72999572753906 16.240999221801758,-109.2300033569336 C18.34000015258789,-99.26000213623047 2.430000066757202,-80.87000274658203 -9.260000228881836,-80.73999786376953 C-9.260000228881836,-80.73999786376953 -19.260000228881836,-189.22999572753906 -71.76000213623047,-186.22999572753906 C-137.70899963378906,-182.45899963378906 -176.38999938964844,-91.05999755859375 -158.75,-33.7400016784668 C-140.75,24.760000228881836 -86.16000366210938,7.860000133514404 -97.75,21.260000228881836 C-105.30000305175781,29.979999542236328 -139.75,27.260000228881836 -163.75,67.76000213623047 C-173.57000732421875,84.33100128173828 -170.42999267578125,103.62100219726562 -175.75,115.75 C-191.17999267578125,150.9600067138672 -219.25,172.75 -228.75,214.75 C-233.72999572753906,236.75 -201.75,245.25 -188.25,234.75 C-167.50999450683594,218.62100219726562 -160.75,178.75 -139.75,178.75 C-129.41900634765625,178.75 -142.25,214.75 -66.76000213623047,212.75 C-16.200000762939453,211.41099548339844 17.740999221801758,189.25 34.24100112915039,166.75 C55.459999084472656,137.82000732421875 98.74099731445312,107.51000213623047 89.74099731445312,82.76000213623047 C62.74100112915039,8.5 -46.2599983215332,39.2599983215332 -38.7599983215332,24.260000228881836 C-30.639999389648438,8.031000137329102 28.740999221801758,-60.7400016784668 44.06999969482422,-52.7599983215332 C57.77000045776367,-45.630001068115234 81.74099731445312,-37.2400016784668 117.7300033569336,-47.7400016784668 C156.16099548339844,-58.939998626708984 160.72000122070312,-83.83999633789062 173.22999572753906,-100.7300033569336 C187.99099731445312,-120.66000366210938 233.72999572753906,-139.22999572753906 211.22999572753906,-200.72999572753906z M-50.56999969482422,167.72999572753906 C-63.59000015258789,186.50999450683594 -92.04000091552734,178.67999267578125 -87.76000213623047,159.72999572753906 C-84.19000244140625,143.94000244140625 -87.93000030517578,137.64999389648438 -108.33999633789062,122.76000213623047 C-123.43000030517578,111.75 -107.83999633789062,77.45099639892578 -82.66000366210938,87.33999633789062 C-49.97999954223633,100.16999816894531 -27.969999313354492,135.16099548339844 -50.56999969482422,167.72999572753906z M-59.91899871826172,-36.2400016784668 C-69.9000015258789,-44.150001525878906 -75.69999694824219,-43.7400016784668 -93.52999877929688,-34.7400016784668 C-106.72000122070312,-28.079999923706055 -125.61000061035156,-50.70899963378906 -109.6500015258789,-64.73999786376953 C-88.93000030517578,-82.94999694824219 -56.220001220703125,-86.12000274658203 -41.040000915527344,-59.2400016784668 C-32.290000915527344,-43.7400016784668 -47.95000076293945,-26.739999771118164 -59.91899871826172,-36.2400016784668z M114.5199966430664,-80.7300033569336 C104.0999984741211,-61.720001220703125 76.53099822998047,-65.69999694824219 78.70099639892578,-83.8499984741211 C80.5,-98.97000122070312 76.37100219726562,-104.4000015258789 55.68000030517578,-115.88999938964844 C40.380001068115234,-124.37999725341797 51.68000030517578,-158.14999389648438 76.37100219726562,-151.8699951171875 C108.41999816894531,-143.72999572753906 132.60000610351562,-113.69999694824219 114.5199966430664,-80.7300033569336z"></path></g></g></g></svg>