<svg xmlns="http://www.w3.org/2000/svg" xmlns:xlink="http://www.w3.org/1999/xlink" viewBox="0 0 512 512" width="512" height="512" style="width: 100%; height: 100%; transform: translate3d(0,0,0);" preserveAspectRatio="xMidYMid meet"><defs><clipPath id="__lottie_element_53464"><rect width="512" height="512" x="0" y="0"></rect></clipPath></defs><g clip-path="url(#__lottie_element_53464)"><g style="display: block;" transform="matrix(1,0,0,1,254.61300659179688,254.0030059814453)" opacity="1"><g opacity="1" transform="matrix(1,0,0,1,0,0)"><path fill="rgb(0,0,0)" fill-opacity="1" d=" M211.81399536132812,-210.843994140625 C178.3780059814453,-248.9969940185547 137.08599853515625,-233.63699340820312 130.38699340820312,-200.44700622558594 C123.68800354003906,-167.2570037841797 92.0510025024414,-157.4709930419922 70.43800354003906,-185.80299377441406 C70.43800354003906,-185.80299377441406 55.854000091552734,-204.92100524902344 55.85200119018555,-204.92300415039062 C46.57699966430664,-217.08099365234375 31.381999969482422,-223.7449951171875 16.15399932861328,-222.36199951171875 C7.693999767303467,-221.593994140625 -1.0089999437332153,-217.91000366210938 -7.710000038146973,-212.68600463867188 C-15.234000205993652,-206.8209991455078 -23.20199966430664,-201.427001953125 -30.77899932861328,-195.5780029296875 C-35.983001708984375,-191.56100463867188 -41.08000183105469,-187.39999389648438 -45.974998474121094,-183.00999450683594 C-50.79499816894531,-178.68699645996094 -55.959999084472656,-174.19700622558594 -59.4370002746582,-168.67100524902344 C-61.90299987792969,-164.7519989013672 -63.433998107910156,-160.1529998779297 -62.47200012207031,-155.51100158691406 C-60.48099899291992,-145.90899658203125 -50.172000885009766,-139.72500610351562 -42.32400131225586,-135.28900146484375 C-31.875999450683594,-129.38299560546875 -20.718000411987305,-124.875 -10.173999786376953,-119.15499877929688 C-9.555000305175781,-118.81900024414062 -8.937999725341797,-118.47899627685547 -8.324999809265137,-118.13200378417969 C20.0939998626709,-102.072998046875 24.273000717163086,-74.2020034790039 -31.32200050354004,-35.082000732421875 C-86.91699981689453,4.038000106811523 -121.6500015258789,-26.700000762939453 -118.02300262451172,-66.0469970703125 C-114.39600372314453,-105.39399719238281 -130.76100158691406,-119.21199798583984 -175.02000427246094,-85.56400299072266 C-175.02000427246094,-85.56400299072266 -219.2760009765625,-51.91899871826172 -219.2760009765625,-51.91899871826172 C-238.32699584960938,-37.435001373291016 -242.62399291992188,-10.531999588012695 -229.03199768066406,9.164999961853027 C-229.03199768066406,9.164999961853027 -87.75800323486328,213.89500427246094 -87.75800323486328,213.89500427246094 C-72.99199676513672,235.29299926757812 -43.16899871826172,239.66200256347656 -22.88599967956543,223.3990020751953 C-22.88599967956543,223.3990020751953 28.565000534057617,182.14500427246094 28.565000534057617,182.14500427246094 C51.74399948120117,163.5590057373047 36.00699996948242,136.8560028076172 2.7939999103546143,131.875 C-30.41900062561035,126.89399719238281 -46.819000244140625,74.7239990234375 3.0739998817443848,42.821998596191406 C52.96699905395508,10.920000076293945 88.00399780273438,27.170000076293945 88.9530029296875,54.74100112915039 C89.29100036621094,64.56600189208984 89.05799865722656,74.45800018310547 90.42400360107422,84.21700286865234 C91.49400329589844,91.86399841308594 93.60700225830078,101.58899688720703 101.05599975585938,105.5780029296875 C107.59300231933594,109.0780029296875 115.65299987792969,106.64399719238281 121.97899627685547,103.89600372314453 C138.4290008544922,96.75 151.74600219726562,83.37699890136719 165.5800018310547,72.28500366210938 C175.19500732421875,64.57599639892578 184.8090057373047,56.867000579833984 194.4239959716797,49.15800094604492 C194.48399353027344,49.11000061035156 194.5449981689453,49.06100082397461 194.60499572753906,49.01300048828125 C213.57200622558594,33.80500030517578 216.9409942626953,6.242000102996826 202.1959991455078,-13.086999893188477 C202.1959991455078,-13.086999893188477 176.61300659179688,-46.62200164794922 176.6009979248047,-46.63800048828125 C135.70899963378906,-99.64099884033203 163.69900512695312,-113.63200378417969 205.57699584960938,-121.63400268554688 C247.4550018310547,-129.63600158691406 245.25,-172.6909942626953 211.81399536132812,-210.843994140625z"></path></g></g></g></svg>