<svg xmlns="http://www.w3.org/2000/svg" xmlns:xlink="http://www.w3.org/1999/xlink" viewBox="0 0 512 512" width="512" height="512" style="width: 100%; height: 100%; transform: translate3d(0,0,0);" preserveAspectRatio="xMidYMid meet"><defs><clipPath id="__lottie_element_51665"><rect width="512" height="512" x="0" y="0"></rect></clipPath></defs><g clip-path="url(#__lottie_element_51665)"><g style="display: block;" transform="matrix(1,0,0,1,0,0)" opacity="1"><g opacity="1" transform="matrix(1,0,0,1,201.98500061035156,260.4750061035156)"><path fill="rgb(0,0,0)" fill-opacity="1" d=" M44.01499938964844,-204.4739990234375 C31.014999389648438,-199.4739990234375 -195.85499572753906,142.3159942626953 -177.98500061035156,149.5260009765625 C-58.98500061035156,197.5260009765625 159.01499938964844,199.5260009765625 189.01499938964844,206.5260009765625 C195.85499572753906,208.125 53.494998931884766,-208.12399291992188 44.01499938964844,-204.4739990234375z M38.01499938964844,-138.4739990234375 C39.80500030517578,-150.12399291992188 56.025001525878906,-149.8040008544922 56.01499938964844,-138.4739990234375 C55.994998931884766,-116.44499969482422 55.01499938964844,-68.4739990234375 55.01499938964844,-46.4739990234375 C55.01499938964844,-34.14400100708008 35.98500061035156,-34.05400085449219 35.01499938964844,-45.4739990234375 C32.54499816894531,-74.56400299072266 34.505001068115234,-115.56400299072266 38.01499938964844,-138.4739990234375z M-34.80500030517578,-22.974000930786133 C2.2249999046325684,-23.81399917602539 54.19499969482422,-19.56399917602539 83.125,-14.763999938964844 C97.83499908447266,-12.333999633789062 96.71499633789062,3.8559999465942383 82.33499908447266,3.2160000801086426 C63.96500015258789,2.3959999084472656 31.405000686645508,0.5249999761581421 3.315000057220459,-0.9950000047683716 C2.6050000190734863,13.244000434875488 1.1050000190734863,27.635000228881836 0.6850000023841858,38.755001068115234 C0.29499998688697815,48.91400146484375 -17.895000457763672,49.0260009765625 -18.315000534057617,39.57500076293945 C-18.915000915527344,26.256000518798828 -18.28499984741211,12.395999908447266 -16.30500030517578,-2.0450000762939453 C-23.165000915527344,-2.4040000438690186 -29.334999084472656,-2.7060000896453857 -34.415000915527344,-2.934999942779541 C-50.07500076293945,-3.634999990463257 -49.345001220703125,-22.643999099731445 -34.80500030517578,-22.974000930786133z M65.18499755859375,149.8459930419922 C65.26499938964844,165.1959991455078 49.345001220703125,163.85499572753906 47.23500061035156,149.45399475097656 C45.04499816894531,134.48500061035156 45.28499984741211,123.45500183105469 48.025001525878906,106.55599975585938 C49.404998779296875,97.96600341796875 65.625,97.44599914550781 66.00499725341797,105.72599792480469 C66.73500061035156,121.80599975585938 65.125,136.875 65.18499755859375,149.8459930419922z M79.71499633789062,86.59600067138672 C41.994998931884766,85.69599914550781 -40.125,82.7750015258789 -77.79499816894531,81.88500213623047 C-98.91500091552734,81.3949966430664 -98.625,62.36600112915039 -79.03500366210938,61.85599899291992 C-29.174999237060547,60.555999755859375 40.98500061035156,64.16500091552734 80.13500213623047,68.59600067138672 C100.04499816894531,70.85600280761719 99.125,87.05599975585938 79.71499633789062,86.59600067138672z"></path></g><g opacity="1" transform="matrix(1,0,0,1,375.89801025390625,237.7480010986328)"><path fill="rgb(0,0,0)" fill-opacity="1" d=" M-109.89800262451172,-183.6739959716797 C-76.89800262451172,-112.74800109863281 2.8580000400543213,127.01200103759766 33.10200119018555,219.3260040283203 C35.64799880981445,227.09800720214844 99.10199737548828,101.25199890136719 116.10199737548828,78.25199890136719 C130.61300659179688,58.619998931884766 -130.1020050048828,-227.09800720214844 -109.89800262451172,-183.6739959716797z"></path></g></g></g></svg>