<svg xmlns="http://www.w3.org/2000/svg" xmlns:xlink="http://www.w3.org/1999/xlink" viewBox="0 0 512 512" width="512" height="512" style="width: 100%; height: 100%; transform: translate3d(0,0,0);" preserveAspectRatio="xMidYMid meet"><defs><clipPath id="__lottie_element_52940"><rect width="512" height="512" x="0" y="0"></rect></clipPath></defs><g clip-path="url(#__lottie_element_52940)"><g style="display: block;" transform="matrix(1,0,0,1,256,256)" opacity="1"><g opacity="1" transform="matrix(1,0,0,1,0,0)"><path fill="rgb(0,0,0)" fill-opacity="1" d=" M211.2689971923828,127.96900177001953 C211.2689971923828,127.96900177001953 187.2209930419922,126.65699768066406 187.2209930419922,126.65699768066406 C188.43299865722656,120.06700134277344 189.1929931640625,113.2030029296875 189.46600341796875,106.13600158691406 C190.73500061035156,73.2750015258789 181.052001953125,41.43299865722656 162.9029998779297,18.774999618530273 C158.73699951171875,13.574999809265137 154.36900329589844,8.765000343322754 149.84800720214844,4.302999973297119 C151.4219970703125,-131.80599975585938 141.71800231933594,-192.24200439453125 114.68000030517578,-217.1280059814453 C103.23999786376953,-227.6580047607422 88.77999877929688,-231.9080047607422 70.4800033569336,-230.09800720214844 C36.95000076293945,-226.79800415039062 27.110000610351562,-196.10800170898438 22.280000686645508,-169.73800659179688 C17.270999908447266,-142.36000061035156 15.404999732971191,-102.81900024414062 14.835000038146973,-49.926998138427734 C9.51099967956543,-50.21699905395508 4.533999919891357,-50.332000732421875 0,-50.332000732421875 C-4.715000152587891,-50.332000732421875 -9.907999992370605,-50.20600128173828 -15.472999572753906,-49.88999938964844 C-16.040000915527344,-102.80000305175781 -17.902000427246094,-142.35400390625 -22.920000076293945,-169.73800659179688 C-27.75,-196.10800170898438 -37.59000015258789,-226.79800415039062 -71.12000274658203,-230.09800720214844 C-89.41999816894531,-231.9080047607422 -103.87999725341797,-227.6580047607422 -115.31999969482422,-217.1280059814453 C-142.38999938964844,-192.20399475097656 -152.09100341796875,-131.6199951171875 -150.47999572753906,4.928999900817871 C-154.7760009765625,9.21500015258789 -158.93099975585938,13.817000389099121 -162.90199279785156,18.774999618530273 C-181.052001953125,41.43299865722656 -190.73399353027344,73.2750015258789 -189.46600341796875,106.13600158691406 C-189.1929931640625,113.2030029296875 -188.4340057373047,120.06700134277344 -187.2209930419922,126.65699768066406 C-187.2209930419922,126.65699768066406 -211.2689971923828,127.96900177001953 -211.2689971923828,127.96900177001953 C-216.78399658203125,128.27000427246094 -221.00999450683594,132.98500061035156 -220.70899963378906,138.5 C-220.41799926757812,143.82899475097656 -216.00599670410156,147.9550018310547 -210.73300170898438,147.9550018310547 C-210.5489959716797,147.9550018310547 -210.36500549316406,147.9499969482422 -210.1790008544922,147.94000244140625 C-210.1790008544922,147.94000244140625 -181.93800354003906,146.3990020751953 -181.93800354003906,146.3990020751953 C-178.97300720214844,154.64199829101562 -175.18899536132812,162.20199584960938 -170.66900634765625,168.88900756835938 C-170.66900634765625,168.88900756835938 -199.63400268554688,189.0469970703125 -199.63400268554688,189.0469970703125 C-204.16700744628906,192.2010040283203 -205.28500366210938,198.43299865722656 -202.1300048828125,202.96600341796875 C-200.18699645996094,205.75900268554688 -197.0760040283203,207.25599670410156 -193.91299438476562,207.25599670410156 C-191.94200134277344,207.25599670410156 -189.9510040283203,206.6739959716797 -188.2100067138672,205.46299743652344 C-188.2100067138672,205.46299743652344 -157.4530029296875,184.05799865722656 -157.4530029296875,184.05799865722656 C-157.4250030517578,184.08200073242188 -157.3990020751953,184.10800170898438 -157.37100219726562,184.1320037841797 C-114.06800079345703,222.1230010986328 -50.78200149536133,228.86599731445312 -0.48500001430511475,230.4949951171875 C-0.3230000138282776,230.5 -0.16200000047683716,230.5030059814453 0,230.5030059814453 C0.16200000047683716,230.5030059814453 0.3240000009536743,230.5 0.4860000014305115,230.4949951171875 C50.78300094604492,228.86599731445312 114.06800079345703,222.1230010986328 157.37100219726562,184.1320037841797 C157.3990020751953,184.10800170898438 157.4250030517578,184.08200073242188 157.4530029296875,184.05799865722656 C157.4530029296875,184.05799865722656 188.21099853515625,205.46299743652344 188.21099853515625,205.46299743652344 C189.95199584960938,206.6750030517578 191.94200134277344,207.25599670410156 193.91400146484375,207.25599670410156 C197.0760040283203,207.25599670410156 200.18800354003906,205.75799560546875 202.13099670410156,202.96600341796875 C205.28500366210938,198.43299865722656 204.16799926757812,192.2010040283203 199.63499450683594,189.0469970703125 C199.63499450683594,189.0469970703125 170.66900634765625,168.88900756835938 170.66900634765625,168.88900756835938 C175.18800354003906,162.20199584960938 178.97300720214844,154.64199829101562 181.93800354003906,146.3990020751953 C181.93800354003906,146.3990020751953 210.1790008544922,147.94000244140625 210.1790008544922,147.94000244140625 C210.36500549316406,147.9499969482422 210.5489959716797,147.9550018310547 210.73300170898438,147.9550018310547 C216.0050048828125,147.9550018310547 220.41799926757812,143.82899475097656 220.70899963378906,138.5 C221.00999450683594,132.98500061035156 216.78399658203125,128.27000427246094 211.2689971923828,127.96900177001953z M77.5999984741211,-155.38800048828125 C79.83999633789062,-155.85800170898438 81.94000244140625,-155.34800720214844 83.69000244140625,-153.92799377441406 C90.6500015258789,-148.2899932861328 94.41100311279297,-127.33000183105469 95.58999633789062,-31.84000015258789 C85.73500061035156,-36.08700180053711 75.83200073242188,-39.39899826049805 66.1520004272461,-41.97100067138672 C66.18699645996094,-134.88299560546875 68.73500061035156,-153.53700256347656 77.5999984741211,-155.38800048828125z M-84.33000183105469,-153.92799377441406 C-82.58000183105469,-155.34800720214844 -80.47000122070312,-155.85800170898438 -78.23999786376953,-155.38800048828125 C-69.37000274658203,-153.53599548339844 -66.8239974975586,-134.86000061035156 -66.79199981689453,-41.80099868774414 C-76.47799682617188,-39.198001861572266 -86.37999725341797,-35.84600067138672 -96.22899627685547,-31.559999465942383 C-95.0510025024414,-127.28900146484375 -91.2959976196289,-148.28500366210938 -84.33000183105469,-153.92799377441406z M-58.571998596191406,113.38700103759766 C-58.571998596191406,125.81400299072266 -68.64600372314453,135.88699340820312 -81.0719985961914,135.88699340820312 C-93.49800109863281,135.88699340820312 -103.5719985961914,125.81400299072266 -103.5719985961914,113.38700103759766 C-103.5719985961914,113.38700103759766 -103.5719985961914,95.39399719238281 -103.5719985961914,95.39399719238281 C-103.5719985961914,82.96700286865234 -93.49800109863281,72.89399719238281 -81.0719985961914,72.89399719238281 C-68.64600372314453,72.89399719238281 -58.571998596191406,82.96700286865234 -58.571998596191406,95.39399719238281 C-58.571998596191406,95.39399719238281 -58.571998596191406,113.38700103759766 -58.571998596191406,113.38700103759766z M15.817999839782715,168.96600341796875 C11.093000411987305,172.38099670410156 8.166999816894531,174.4949951171875 6.166999816894531,175.8040008544922 C5.513999938964844,176.31700134277344 4.796999931335449,176.75 4.0269999504089355,177.08900451660156 C2.3980000019073486,177.93299865722656 1.5520000457763672,177.9320068359375 0,177.9320068359375 C-1.5520000457763672,177.9320068359375 -2.3970000743865967,177.93299865722656 -4.026000022888184,177.08900451660156 C-4.795000076293945,176.75 -5.513999938964844,176.31700134277344 -6.166999816894531,175.8040008544922 C-8.166999816894531,174.4949951171875 -11.093000411987305,172.38099670410156 -15.817999839782715,168.96600341796875 C-26.93199920654297,160.93299865722656 -29.91900062561035,158.7740020751953 -29.91900062561035,153.0279998779297 C-29.91900062561035,143.49200439453125 -19.753999710083008,142.08799743652344 -15.413000106811523,141.48800659179688 C-6.386000156402588,140.24200439453125 6.388999938964844,140.24200439453125 15.413000106811523,141.48800659179688 C19.753999710083008,142.08799743652344 29.920000076293945,143.49200439453125 29.920000076293945,153.0279998779297 C29.920000076293945,158.7740020751953 26.933000564575195,160.93299865722656 15.817999839782715,168.96600341796875z M103.5719985961914,113.38700103759766 C103.5719985961914,125.81400299072266 93.4990005493164,135.88699340820312 81.0719985961914,135.88699340820312 C68.6449966430664,135.88699340820312 58.571998596191406,125.81400299072266 58.571998596191406,113.38700103759766 C58.571998596191406,113.38700103759766 58.571998596191406,95.39399719238281 58.571998596191406,95.39399719238281 C58.571998596191406,82.96700286865234 68.6449966430664,72.89399719238281 81.0719985961914,72.89399719238281 C93.4990005493164,72.89399719238281 103.5719985961914,82.96700286865234 103.5719985961914,95.39399719238281 C103.5719985961914,95.39399719238281 103.5719985961914,113.38700103759766 103.5719985961914,113.38700103759766z"></path></g></g></g></svg>