<svg xmlns="http://www.w3.org/2000/svg" xmlns:xlink="http://www.w3.org/1999/xlink" viewBox="0 0 512 512" width="512" height="512" style="width: 100%; height: 100%; transform: translate3d(0,0,0);" preserveAspectRatio="xMidYMid meet"><defs><clipPath id="__lottie_element_51990"><rect width="512" height="512" x="0" y="0"></rect></clipPath></defs><g clip-path="url(#__lottie_element_51990)"><g style="display: block;" transform="matrix(1.0299999713897705,0,0,1.0299999713897705,13.947509765625,3.974639892578125)" opacity="1"><g opacity="1" transform="matrix(1,0,0,1,226.75,251.34500122070312)"><path fill="rgb(0,0,0)" fill-opacity="1" d=" M162.5,-20.905000686645508 C187.52999877929688,-52.57500076293945 226.5,-99.90499877929688 221.5,-157.90499877929688 C217.57000732421875,-203.52499389648438 169.4010009765625,-251.09500122070312 117.5,-249.90499877929688 C67.56999969482422,-248.7550048828125 12.289999961853027,-219.4949951171875 27.5,-176.90499877929688 C37.5,-148.90499877929688 65.16999816894531,-161.4550018310547 84.5,-126.90499877929688 C98.94100189208984,-101.09500122070312 91.6510009765625,-49.415000915527344 85.5,-50.904998779296875 C62.16999816894531,-56.57500076293945 47.66999816894531,-52.26499938964844 45.5,-57.904998779296875 C19.5,-125.57499694824219 -16.5,-174.5749969482422 -79.5,-178.90499877929688 C-123.38999938964844,-181.9250030517578 -191.75,-152.55499267578125 -206.80999755859375,-104.90499877929688 C-226.5,-42.57500076293945 -171.11000061035156,-19.264999389648438 -139.5,-31.905000686645508 C-107.83000183105469,-44.57500076293945 -115.16999816894531,-59.23500061035156 -85.5,-66.90499877929688 C-65.5,-72.07499694824219 -31.829999923706055,-41.23500061035156 -41.5,-36.904998779296875 C-90.47000122070312,-14.954999923706055 -141.5,25.094999313354492 -148.5,101.09500122070312 C-151.58999633789062,134.64500427246094 -133.72000122070312,173.89500427246094 -108.5,182.09500122070312 C-68.5,195.09500122070312 -55.95000076293945,168.27499389648438 -41.5,173.09500122070312 C-23.5,179.09500122070312 -24.040000915527344,217.35499572753906 31.780000686645508,232.94500732421875 C107.5,254.09500122070312 190.63999938964844,205.27499389648438 203.5,122.09500122070312 C218.5,25.094999313354492 156.27000427246094,-13.024999618530273 162.5,-20.905000686645508z M-57.16999816894531,140.76499938964844 C-65.16999816894531,148.09500122070312 -95.16999816894531,150.76499938964844 -106.5,130.76499938964844 C-117.8499984741211,110.74500274658203 -108.83000183105469,55.76499938964844 -92.16999816894531,49.76499938964844 C-82.25,46.19499969482422 -51.97999954223633,55.03499984741211 -44.16999816894531,85.42500305175781 C-38.16999816894531,108.76499938964844 -50.220001220703125,134.39500427246094 -57.16999816894531,140.76499938964844z M-38.16999816894531,-105.57499694824219 C-57.5,-131.7949981689453 -83.5,-139.90499877929688 -115.5,-139.90499877929688 C-123.08999633789062,-139.90499877929688 -126.94000244140625,-154.05499267578125 -117.83000183105469,-156.90499877929688 C-85.83000183105469,-166.90499877929688 -31.170000076293945,-154.5749969482422 -20.5,-114.90499877929688 C-17.3700008392334,-103.25499725341797 -33.52000045776367,-99.26499938964844 -38.16999816894531,-105.57499694824219z M95.83000183105469,174.76499938964844 C62.40999984741211,188.73500061035156 7.079999923706055,168.7949981689453 6.5,158.76499938964844 C5.5,141.4250030517578 11.029999732971191,92.88500213623047 65.5,82.42500305175781 C98.5,76.09500122070312 133.67999267578125,95.65499877929688 136.1699981689453,103.09500122070312 C140.16000366210938,115.04499816894531 132.5,159.4250030517578 95.83000183105469,174.76499938964844z M101.37999725341797,-209.71499633789062 C93.87000274658203,-210.78500366210938 93.16000366210938,-225.4149932861328 102.5999984741211,-226.8350067138672 C140.8300018310547,-232.5749969482422 194.6999969482422,-207.23500061035156 194.6699981689453,-160.39500427246094 C194.6699981689453,-148.3350067138672 180.0500030517578,-147.51499938964844 177.4600067138672,-154.90499877929688 C166.8300018310547,-185.23500061035156 137.5,-204.5749969482422 101.37999725341797,-209.71499633789062z"></path></g></g></g></svg>