<svg xmlns="http://www.w3.org/2000/svg" xmlns:xlink="http://www.w3.org/1999/xlink" viewBox="0 0 512 512" width="512" height="512" style="width: 100%; height: 100%; transform: translate3d(0,0,0);" preserveAspectRatio="xMidYMid meet"><defs><clipPath id="__lottie_element_53819"><rect width="512" height="512" x="0" y="0"></rect></clipPath></defs><g clip-path="url(#__lottie_element_53819)"><g style="display: block;" transform="matrix(1,0,0,1,0,0)" opacity="1"><g opacity="1" transform="matrix(1,0,0,1,311.8160095214844,431.00201416015625)"><path fill="rgb(0,0,0)" fill-opacity="1" d=" M57.80400085449219,-78.11100006103516 C52.51900100708008,-80.99800109863281 46.00299835205078,-79.76499938964844 41.88800048828125,-75.36799621582031 C41.45899963378906,-74.91000366210938 41.02399826049805,-74.46099853515625 40.58700180053711,-74.02300262451172 C27.929000854492188,-61.36399841308594 9.12600040435791,-53.577999114990234 -8.770999908447266,-53.577999114990234 C-32.487998962402344,-53.577999114990234 -46.81999969482422,-62.70399856567383 -54.24800109863281,-69.4469985961914 C-58.66299819946289,-73.45500183105469 -65.30000305175781,-73.83499908447266 -70.1520004272461,-70.36699676513672 C-100.79299926757812,-48.4640007019043 -120.76799774169922,-12.597000122070312 -120.76799774169922,27.940000534057617 C-120.76799774169922,94.63800048828125 120.76699829101562,94.63800048828125 120.76699829101562,27.940000534057617 C120.76699829101562,-17.815000534057617 95.31700134277344,-57.62200164794922 57.80400085449219,-78.11100006103516z M-62.33399963378906,-20.37299919128418 C-72.8219985961914,-3.8469998836517334 -76.83999633789062,17.79400062561035 -84.58100128173828,16.493999481201172 C-90.09700012207031,15.567000389099121 -92.5260009765625,-14.017000198364258 -77.90699768066406,-31.81399917602539 C-69.2040023803711,-42.40800094604492 -52.74599838256836,-35.48099899291992 -62.33399963378906,-20.37299919128418z"></path></g><g opacity="1" transform="matrix(1,0,0,1,222.4980010986328,190.13099670410156)"><path fill="rgb(0,0,0)" fill-opacity="1" d=" M129.10800170898438,103.77999877929688 C118.97899627685547,110.16699981689453 101.90699768066406,119.98400115966797 74.38400268554688,123.00700378417969 C85.78900146484375,114.5989990234375 96.71399688720703,105.19300079345703 106.91899871826172,94.71800231933594 C198.427001953125,0.7860000133514404 195.822998046875,-144.60800170898438 159.65199279785156,-179.8459930419922 C159.65199279785156,-179.8459930419922 159.64300537109375,-179.83700561523438 159.64300537109375,-179.83700561523438 C159.5749969482422,-179.90499877929688 159.51400756835938,-179.97999572753906 159.44500732421875,-180.04800415039062 C133.1510009765625,-205.66299438476562 47.97200012207031,-161.61000061035156 -37.09199905395508,-80.49400329589844 C-29.385000228881836,-74.20600128173828 -12.333999633789062,-63.72800064086914 22.280000686645508,-55.11000061035156 C22.280000686645508,-55.11000061035156 -4.684999942779541,-51.834999084472656 -34.5359992980957,-66.02300262451172 C-44.729000091552734,-72.00499725341797 -55.95800018310547,-79.56999969482422 -66.14900207519531,-88.60199737548828 C-62.987998962402344,-94.48600006103516 -61.191001892089844,-101.21299743652344 -61.191001892089844,-108.36100006103516 C-61.191001892089844,-131.4600067138672 -79.91600036621094,-150.18499755859375 -103.01499938964844,-150.18499755859375 C-126.11399841308594,-150.18499755859375 -144.83900451660156,-131.4600067138672 -144.83900451660156,-108.36100006103516 C-144.83900451660156,-85.26200103759766 -126.11399841308594,-66.53700256347656 -103.01499938964844,-66.53700256347656 C-96.89099884033203,-66.53700256347656 -91.08000183105469,-67.86399841308594 -85.83799743652344,-70.22899627685547 C-79.85900115966797,-64.29199981689453 -69.51399993896484,-52.904998779296875 -57.05500030517578,-34.59299850463867 C-41.88199996948242,-6.7729997634887695 -40.51100158691406,18.738000869750977 -40.51100158691406,18.738000869750977 C-55.30699920654297,-21.81399917602539 -70.09700012207031,-36.512001037597656 -75.7490005493164,-40.94599914550781 C-155.77699279785156,46.880001068115234 -198.427001953125,134.30099487304688 -171.93499755859375,160.11099243164062 C-171.86500549316406,160.17799377441406 -171.78900146484375,160.23699951171875 -171.718994140625,160.3040008544922 C-171.718994140625,160.3040008544922 -171.7270050048828,160.31199645996094 -171.7270050048828,160.31199645996094 C-142.99000549316406,188.30799865722656 -50.3129997253418,190.13099670410156 32.715999603271484,148.4810028076172 C38.93299865722656,162.197998046875 52.95800018310547,176.04200744628906 84.26399993896484,176.04200744628906 C128.6750030517578,176.04200744628906 139.10000610351562,126.08599853515625 137.7469940185547,108.92500305175781 C137.26699829101562,102.8479995727539 134.26499938964844,100.52799987792969 129.10800170898438,103.77999877929688z M-112.28600311279297,-125.60900115966797 C-120.02100372314453,-116.2249984741211 -122.98500061035156,-103.93699645996094 -128.69400024414062,-104.67500305175781 C-132.76100158691406,-105.20099639892578 -134.55299377441406,-122 -123.77200317382812,-132.10499572753906 C-117.35299682617188,-138.12100219726562 -105.21499633789062,-134.18699645996094 -112.28600311279297,-125.60900115966797z M-150.06900024414062,130.27099609375 C-150.65899658203125,130.2030029296875 -150.64599609375,129.3419952392578 -150.0540008544922,129.29400634765625 C-129.04100036621094,127.5739974975586 -38.73699951171875,117.12200164794922 37.792999267578125,29.658000946044922 C121.6709976196289,-66.2020034790039 132.74400329589844,-142.25999450683594 135.31500244140625,-162.9720001220703 C135.36300659179688,-163.35800170898438 135.8520050048828,-163.31199645996094 135.9290008544922,-162.92999267578125 C139.68099975585938,-144.0279998779297 128.53900146484375,-51.9379997253418 44.18199920654297,41.391998291015625 C-41.48699951171875,136.1750030517578 -129.00999450683594,132.72000122070312 -150.06900024414062,130.27099609375z"></path></g></g></g></svg>