<svg xmlns="http://www.w3.org/2000/svg" xmlns:xlink="http://www.w3.org/1999/xlink" viewBox="0 0 512 512" width="512" height="512" style="width: 100%; height: 100%; transform: translate3d(0,0,0);" preserveAspectRatio="xMidYMid meet"><defs><clipPath id="__lottie_element_51235"><rect width="512" height="512" x="0" y="0"></rect></clipPath></defs><g clip-path="url(#__lottie_element_51235)"><g style="display: block;" transform="matrix(1,0,0,1,270.1929931640625,252.55499267578125)" opacity="1"><g opacity="1" transform="matrix(1,0,0,1,0,0)"><path fill="rgb(4,5,52)" fill-opacity="1" d=" M168.5540008544922,49.96799850463867 C149.35400390625,-16.66200065612793 119.42400360107422,-27.961000442504883 81.59200286865234,-60.43600082397461 C81.59200286865234,-60.43600082397461 -7.197999954223633,-106.1760025024414 3.6619999408721924,-236.05599975585938 C3.6619999408721924,-236.05599975585938 -78.78800201416016,-188.61599731445312 -140.9080047607422,-59.86600112915039 C-203.01800537109375,68.88400268554688 -184.51800537109375,238.29400634765625 -14.197999954223633,236.03399658203125 C156.1320037841797,233.78399658203125 187.75399780273438,116.5979995727539 168.5540008544922,49.96799850463867z M129.8679962158203,87.23899841308594 C97.4010009765625,99.94499969482422 86.83399963378906,74.9729995727539 66.9219970703125,51.20399856567383 C51.85599899291992,33.220001220703125 0.09200000017881393,-26.950000762939453 13.541999816894531,-39.81999969482422 C26.992000579833984,-52.70000076293945 77.91899871826172,-28.808000564575195 115.63200378417969,4.584000110626221 C133.18600463867188,20.12700080871582 160.09500122070312,75.41000366210938 129.8679962158203,87.23899841308594z"></path></g></g></g></svg>