<svg xmlns="http://www.w3.org/2000/svg" xmlns:xlink="http://www.w3.org/1999/xlink" viewBox="0 0 512 512" width="512" height="512" style="width: 100%; height: 100%; transform: translate3d(0,0,0);" preserveAspectRatio="xMidYMid meet"><defs><clipPath id="__lottie_element_9088"><rect width="512" height="512" x="0" y="0"></rect></clipPath></defs><g clip-path="url(#__lottie_element_9088)"><g style="display: block;" transform="matrix(1,0,0,1,1.5500030517578125,2.7339935302734375)" opacity="1"><g opacity="1" transform="matrix(1,0,0,1,132.01499938964844,383.2659912109375)"><path fill="rgb(0,0,0)" fill-opacity="1" d=" M122.43499755859375,-38.66999816894531 C117.29499816894531,-73.18000030517578 83.43499755859375,-105.33000183105469 47.435001373291016,-101 C3.3550000190734863,-95.69000244140625 0.7149999737739563,-66.5199966430664 -8.5649995803833,-64 C-16.5049991607666,-61.84000015258789 -32.564998626708984,-80 -66.8949966430664,-73.33000183105469 C-102.19499969482422,-66.4800033569336 -131.76499938964844,-14.899999618530273 -110.49500274658203,29.239999771118164 C-85.23500061035156,81.66999816894531 21.434999465942383,105.33000183105469 34.10499954223633,104.33000183105469 C45.685001373291016,103.41999816894531 131.76499938964844,24 122.43499755859375,-38.66999816894531z M-55.23500061035156,-27.670000076293945 C-57.30500030517578,-13.539999961853027 -61.64500045776367,3.0899999141693115 -73.8949966430664,3.6700000762939453 C-79.43499755859375,3.930000066757202 -87.8949966430664,1.6299999952316284 -87.8949966430664,-3.6700000762939453 C-87.8949966430664,-15.670000076293945 -85.41500091552734,-35.689998626708984 -73.23500061035156,-40.33000183105469 C-59.23500061035156,-45.66999816894531 -53.95500183105469,-36.33000183105469 -55.23500061035156,-27.670000076293945z"></path></g><g opacity="1" transform="matrix(1,0,0,1,384.8900146484375,284.59600830078125)"><path fill="rgb(0,0,0)" fill-opacity="1" d=" M56.380001068115234,-95.25 C16.6299991607666,-96.12000274658203 10.199999809265137,-69.12999725341797 1.6299999952316284,-68 C-5.699999809265137,-67.02999877929688 -17.360000610351562,-86.18000030517578 -48.68000030517578,-84.4800033569336 C-80.87000274658203,-82.73999786376953 -114.29000091552734,-38.31999969482422 -101.66999816894531,5.869999885559082 C-86.68000030517578,58.36000061035156 4.380000114440918,94.69000244140625 15.729999542236328,95.44000244140625 C26.110000610351562,96.12000274658203 113.44000244140625,33.099998474121094 113.98999786376953,-26.8799991607666 C114.29000091552734,-59.90999984741211 88.83999633789062,-94.54000091552734 56.380001068115234,-95.25z M-38.22999954223633,-39.029998779296875 C-42.5099983215332,-22.989999771118164 -49.2400016784668,-4.349999904632568 -60.18000030517578,-5.309999942779541 C-65.12000274658203,-5.739999771118164 -72.20999908447266,-9.520000457763672 -71.30000305175781,-15.640000343322754 C-69.22000122070312,-29.5 -63.54999923706055,-52.310001373291016 -51.970001220703125,-56.04999923706055 C-38.65999984741211,-60.36000061035156 -35.61000061035156,-48.869998931884766 -38.22999954223633,-39.029998779296875z"></path></g><g opacity="1" transform="matrix(1,0,0,1,232.38800048828125,145.56100463867188)"><path fill="rgb(0,0,0)" fill-opacity="1" d=" M-166.60499572753906,120.03800201416016 C-159.60499572753906,58.03799819946289 -129.0229949951172,-17.844999313354492 -60.27199935913086,-53.29499816894531 C23.76799964904785,-96.62899780273438 109.30799865722656,-57.172000885009766 108.72799682617188,-51.96200180053711 C108.20999908447266,-47.308998107910156 32.0620002746582,-88.29499816894531 -55.9379997253418,-31.961999893188477 C-119.37200164794922,8.645000457763672 -136.39199829101562,86.40799713134766 -135.60499572753906,122.03800201416016 C-135.27200317382812,137.1219940185547 -124.29199981689453,140.51800537109375 -115.6050033569336,138.03799438476562 C-100.62999725341797,133.76300048828125 -98.62999725341797,122.88899993896484 -94.27200317382812,120.70500183105469 C-88.59700012207031,117.86000061035156 -90.93800354003906,133.76300048828125 -75.29399871826172,130.7449951171875 C-57.180999755859375,127.25199890136719 -58.19499969482422,114.8219985961914 -57.9379997253418,107.03800201416016 C-56.9379997253418,76.70500183105469 -21.430999755859375,28.378999710083008 16.062000274658203,21.371000289916992 C51.72800064086914,14.704999923706055 70.2229995727539,23.559999465942383 90.72799682617188,42.03799819946289 C98.1259994506836,48.70500183105469 114.77400207519531,38.861000061035156 111.3949966430664,30.704999923706055 C101.72799682617188,7.370999813079834 60.37699890136719,-15.236000061035156 8.062000274658203,-5.961999893188477 C-36.073001861572266,1.8619999885559082 -60.38999938964844,41.590999603271484 -61.9379997253418,40.03900146484375 C-63.720001220703125,38.25400161743164 -32.83300018310547,-7.872000217437744 15.395000457763672,-17.628999710083008 C73.06199645996094,-29.295000076293945 120.3949966430664,-5.629000186920166 135.39500427246094,33.70500183105469 C138.26800537109375,41.237998962402344 140.38800048828125,46.83399963378906 153.72799682617188,45.37200164794922 C168.39500427246094,43.76499938964844 167.7100067138672,27.759000778198242 171.06199645996094,25.704999923706055 C173.8679962158203,23.985000610351562 181.6199951171875,32.779998779296875 194.06199645996094,27.704999923706055 C208.77099609375,21.704999923706055 205.2899932861328,3.4240000247955322 204.72799682617188,-1.2949999570846558 C199.72799682617188,-43.29499816894531 131.05799865722656,-145.31100463867188 -31.604999542236328,-111.96199798583984 C-190.93800354003906,-79.29499816894531 -208.77099609375,57.37099838256836 -208.29200744628906,117.3740005493164 C-208.0959930419922,142.03700256347656 -169.45799255371094,145.30999755859375 -166.60499572753906,120.03800201416016z"></path></g></g></g></svg>