<svg xmlns="http://www.w3.org/2000/svg" xmlns:xlink="http://www.w3.org/1999/xlink" viewBox="0 0 512 512" width="512" height="512" style="width: 100%; height: 100%; transform: translate3d(0,0,0);" preserveAspectRatio="xMidYMid meet"><defs><clipPath id="__lottie_element_52230"><rect width="512" height="512" x="0" y="0"></rect></clipPath></defs><g clip-path="url(#__lottie_element_52230)"><g style="display: block;" transform="matrix(1,0,0,1,10.024993896484375,67.90200805664062)" opacity="1"><g opacity="1" transform="matrix(1,0,0,1,78.88500213623047,285.7690124511719)"><path fill="rgb(65,63,63)" fill-opacity="1" d=" M37.84199905395508,-45.823001861572266 C-8.907999992370605,-89.44300079345703 -32.30799865722656,-61.83100128173828 -59.74399948120117,-86.56900024414062 C-63.65700149536133,-90.0979995727539 -67.93099975585938,-93.77200317382812 -71.62999725341797,-100.28099822998047 C-73.06700134277344,-102.80899810791016 -76.80699920654297,-101.73799896240234 -76.78299713134766,-98.80400085449219 C-76.677001953125,-85.7490005493164 -76.25399780273438,-69.6780014038086 -76.37200164794922,-66.68499755859375 C-77.18499755859375,-46.2130012512207 -77.40499877929688,-22.2450008392334 -63.051998138427734,-6.197999954223633 C-55.268001556396484,2.503999948501587 -40.82400131225586,8.89799976348877 -29.81800079345703,11.791999816894531 C-16.940000534057617,15.178000450134277 -36.10100173950195,-10.706999778747559 -31.965999603271484,-15.211999893188477 C-30.187999725341797,-18.492000579833984 -16.131999969482422,-1.3669999837875366 -12.39900016784668,13.82699966430664 C1.246999979019165,69.37699890136719 -21.69700050354004,102.80899810791016 29.82200050354004,69.59300231933594 C73.21299743652344,41.61600112915039 77.40599822998047,-8.907999992370605 37.84199905395508,-45.823001861572266z"></path></g><g opacity="1" transform="matrix(1,0,0,1,121.45600128173828,63.393001556396484)"><path fill="rgb(65,63,63)" fill-opacity="1" d=" M-42.21900177001953,48.61899948120117 C-24.99799919128418,37.23699951171875 -10.59000015258789,-9.727999687194824 18.1200008392334,-22.388999938964844 C45.321998596191406,-34.38600158691406 81.4990005493164,-37.297000885009766 110.71499633789062,-37.00299835205078 C107.97599792480469,-45.577999114990234 94.0199966430664,-52.680999755859375 84.5719985961914,-53.6870002746582 C-4.263000011444092,-63.141998291015625 -92.08999633789062,-37.71099853515625 -110.71499633789062,63.141998291015625 C-110.71499633789062,63.141998291015625 -97.37000274658203,43.54999923706055 -42.21900177001953,48.61899948120117z"></path></g><g opacity="1" transform="matrix(1,0,0,1,245.97500610351562,252.57200622558594)"><path fill="rgb(65,63,63)" fill-opacity="1" d=" M0,26.961000442504883 C2.1530001163482666,27.208999633789062 4.0980000495910645,27.12299919128418 5.742000102996826,26.635000228881836 C14.463000297546387,24.048999786376953 46.172000885009766,3.2660000324249268 46.14500045776367,-7.098999977111816 C46.108001708984375,-21.760000228881836 22.777999877929688,-26.893999099731445 0,-27.209999084472656 C-22.777999877929688,-26.893999099731445 -46.108001708984375,-21.760000228881836 -46.14500045776367,-7.098999977111816 C-46.17100143432617,3.2660000324249268 -14.463000297546387,24.048999786376953 -5.742000102996826,26.635000228881836 C-4.0980000495910645,27.12299919128418 -2.1530001163482666,27.208999633789062 0,26.961000442504883z"></path></g><g opacity="1" transform="matrix(1,0,0,1,413.0639953613281,285.7690124511719)"><path fill="rgb(65,63,63)" fill-opacity="1" d=" M76.78399658203125,-98.80400085449219 C76.80799865722656,-101.73699951171875 73.06600189208984,-102.80899810791016 71.62999725341797,-100.28099822998047 C67.93099975585938,-93.77100372314453 63.65800094604492,-90.09700012207031 59.744998931884766,-86.56900024414062 C32.308998107910156,-61.83000183105469 8.909000396728516,-89.44300079345703 -37.840999603271484,-45.823001861572266 C-77.40499877929688,-8.906999588012695 -73.21299743652344,41.61600112915039 -29.82200050354004,69.59300231933594 C21.69700050354004,102.80899810791016 -1.246000051498413,69.37699890136719 12.399999618530273,13.82800006866455 C16.132999420166016,-1.3669999837875366 30.187000274658203,-18.492000579833984 31.965999603271484,-15.211000442504883 C36.10100173950195,-10.706000328063965 16.94099998474121,15.178000450134277 29.819000244140625,11.791999816894531 C40.82500076293945,8.89799976348877 55.268001556396484,2.503999948501587 63.051998138427734,-6.197999954223633 C77.40599822998047,-22.2450008392334 77.18499755859375,-46.2130012512207 76.37200164794922,-66.68499755859375 C76.25399780273438,-69.6780014038086 76.6780014038086,-85.74800109863281 76.78399658203125,-98.80400085449219z"></path></g><g opacity="1" transform="matrix(1,0,0,1,370.4930114746094,63.391998291015625)"><path fill="rgb(65,63,63)" fill-opacity="1" d=" M-18.121000289916992,-22.388999938964844 C10.59000015258789,-9.72700023651123 24.999000549316406,37.237998962402344 42.220001220703125,48.61899948120117 C97.37000274658203,43.54999923706055 110.71600341796875,63.141998291015625 110.71600341796875,63.141998291015625 C92.09100341796875,-37.71099853515625 4.263999938964844,-63.141998291015625 -84.5719985961914,-53.68600082397461 C-94.01899719238281,-52.680999755859375 -107.97599792480469,-45.57699966430664 -110.71600341796875,-37.00199890136719 C-81.4990005493164,-37.297000885009766 -45.323001861572266,-34.38600158691406 -18.121000289916992,-22.388999938964844z"></path></g><g opacity="1" transform="matrix(1,0,0,1,245.9739990234375,365.6719970703125)"><path fill="rgb(65,63,63)" fill-opacity="1" d=" M73.00299835205078,-19.615999221801758 C69.87300109863281,-20.263999938964844 48.402000427246094,-14.529000282287598 39.9370002746582,-13.814000129699707 C26.86400032043457,-12.710000038146973 13.461999893188477,-12.395000457763672 0,-12.776000022888184 C-13.461999893188477,-12.395000457763672 -26.86400032043457,-12.710000038146973 -39.9370002746582,-13.814000129699707 C-48.402000427246094,-14.529000282287598 -69.87300109863281,-20.263999938964844 -73.00299835205078,-19.615999221801758 C-82.75,-17.59600067138672 -68.875,-1.1100000143051147 -60.92599868774414,3.765000104904175 C-43.57699966430664,14.404999732971191 -21.569000244140625,20.263999938964844 0,20.023000717163086 C21.569000244140625,20.263999938964844 43.57699966430664,14.404999732971191 60.92599868774414,3.765000104904175 C68.875,-1.1100000143051147 82.75,-17.59600067138672 73.00299835205078,-19.615999221801758z"></path></g><g opacity="1" transform="matrix(1,0,0,1,245.97500610351562,150.48199462890625)"><path fill="rgb(65,63,63)" fill-opacity="1" d=" M116.47100067138672,80.37899780273438 C139.32000732421875,59.39400100708008 158.20199584960938,56.04800033569336 173.75799560546875,52.132999420166016 C196.8769989013672,46.316001892089844 217.98399353027344,55.09199905395508 230.77999877929688,23.617000579833984 C245.72500610351562,-13.144000053405762 221.03700256347656,-26.367000579833984 189.7989959716797,-27.465999603271484 C170.7169952392578,-28.13800048828125 166.24000549316406,-22.049999237060547 158.87100219726562,-25.819000244140625 C144.66600036621094,-33.084999084472656 130.04800415039062,-76.94400024414062 105.22699737548828,-91.56400299072266 C81.51000213623047,-105.53399658203125 34.47800064086914,-108.88200378417969 0,-108.26599884033203 C-34.47700119018555,-108.88200378417969 -81.50900268554688,-105.53399658203125 -105.22599792480469,-91.56400299072266 C-130.0469970703125,-76.94400024414062 -144.6649932861328,-33.084999084472656 -158.87100219726562,-25.819000244140625 C-166.23899841308594,-22.049999237060547 -170.71600341796875,-28.13800048828125 -189.7989959716797,-27.465999603271484 C-221.03599548339844,-26.367000579833984 -245.72500610351562,-13.144000053405762 -230.781005859375,23.617000579833984 C-217.98500061035156,55.09199905395508 -196.8780059814453,46.316001892089844 -173.75799560546875,52.132999420166016 C-158.20199584960938,56.04800033569336 -137.1719970703125,61.750999450683594 -116.47100067138672,80.37899780273438 C-107.80699920654297,88.1760025024414 -97.74400329589844,108.88200378417969 -87.46199798583984,102.03299713134766 C-83.96800231933594,99.70600128173828 -74.62699890136719,81.78199768066406 -57.70199966430664,72.24500274658203 C-43.242000579833984,64.09700012207031 -25.496000289916992,58.50699996948242 0,58.77000045776367 C25.496999740600586,58.50699996948242 42.65399932861328,64.88700103759766 57.14099884033203,72.98400115966797 C74.98899841308594,82.95999908447266 83.84100341796875,99.70600128173828 87.33499908447266,102.03299713134766 C97.61699676513672,108.88200378417969 107.88300323486328,88.26599884033203 116.47100067138672,80.37899780273438z M178.8419952392578,3.234999895095825 C186.95399475097656,-3.388000011444092 228.66400146484375,-5.96999979019165 227.49400329589844,4.939000129699707 C224.6439971923828,31.51099967956543 211.14199829101562,43.297000885009766 183.24600219726562,38.28300094604492 C184.5709991455078,27.878000259399414 170.052001953125,10.208999633789062 178.8419952392578,3.234999895095825z M-183.24600219726562,38.28300094604492 C-211.14300537109375,43.297000885009766 -224.64300537109375,31.51099967956543 -227.4929962158203,4.939000129699707 C-228.66299438476562,-5.96999979019165 -186.95399475097656,-3.388000011444092 -178.84100341796875,3.234999895095825 C-170.052001953125,10.208999633789062 -184.5709991455078,27.878000259399414 -183.24600219726562,38.28300094604492z M-124.38700103759766,0.9480000138282776 C-133.67100524902344,-11.27299976348877 -128.21400451660156,-27.566999435424805 -129.04800415039062,-41.941001892089844 C-106.87899780273438,-47.05699920654297 -89.19300079345703,-22.349000930786133 -82.58699798583984,-3.2009999752044678 C-77.5260009765625,11.470000267028809 -107.92900085449219,22.61400032043457 -124.38700103759766,0.9480000138282776z M82.58799743652344,-3.2009999752044678 C89.19400024414062,-22.349000930786133 106.87999725341797,-47.05699920654297 129.0489959716797,-41.941001892089844 C128.21499633789062,-27.566999435424805 133.67100524902344,-11.27299976348877 124.38700103759766,0.9480000138282776 C107.92900085449219,22.61400032043457 77.5270004272461,11.470000267028809 82.58799743652344,-3.2009999752044678z"></path></g><g opacity="1" transform="matrix(1,0,0,1,245.97500610351562,291.5050048828125)"><path fill="rgb(65,63,63)" fill-opacity="1" d=" M60.07400131225586,-52.26900100708008 C63.74399948120117,-45.689998626708984 62.058998107910156,-42.05500030517578 60.487998962402344,-35.4900016784668 C57.54600143432617,-23.19099998474121 15.295000076293945,1.7549999952316284 3.6489999294281006,2.2699999809265137 C2.5209999084472656,2.319999933242798 1.2970000505447388,2.2690000534057617 -0.0010000000474974513,2.130000114440918 C-1.2990000247955322,2.2690000534057617 -2.5209999084472656,2.319999933242798 -3.6489999294281006,2.2699999809265137 C-15.295000076293945,1.7549999952316284 -57.54499816894531,-23.19099998474121 -60.487998962402344,-35.4900016784668 C-62.058998107910156,-42.05500030517578 -63.74399948120117,-45.689998626708984 -60.07500076293945,-52.26900100708008 C-80.3270034790039,-35.340999603271484 -99.06099700927734,16.510000228881836 -84.33300018310547,39.60499954223633 C-78.23899841308594,49.1619987487793 -39.042999267578125,52.26900100708008 -0.0010000000474974513,51.17100143432617 C39.04199981689453,52.26900100708008 78.23799896240234,49.1619987487793 84.33300018310547,39.60499954223633 C99.06099700927734,16.510000228881836 80.3270034790039,-35.340999603271484 60.07400131225586,-52.26900100708008z"></path></g></g></g></svg>