<svg xmlns="http://www.w3.org/2000/svg" xmlns:xlink="http://www.w3.org/1999/xlink" viewBox="0 0 512 512" width="512" height="512" style="width: 100%; height: 100%; transform: translate3d(0,0,0);" preserveAspectRatio="xMidYMid meet"><defs><clipPath id="__lottie_element_53949"><rect width="512" height="512" x="0" y="0"></rect></clipPath></defs><g clip-path="url(#__lottie_element_53949)"><g style="display: block;" transform="matrix(1,0,0,1,261.25799560546875,253.6750030517578)" opacity="1"><g opacity="1" transform="matrix(1,0,0,1,0,0)"><path fill="rgb(0,0,0)" fill-opacity="1" d=" M20.39,-50.87 C34.78,-50.89 34.86,-51.04 36.96,-64.63 C37.92,-70.86 38.85,-77.15 40.51,-83.22 C44.81,-98.82 42.13,-112.54 32.06,-125.47 C19.34,-141.8 19.72,-142.1 -0.17,-136.22 C-9.55,-133.45 -10.1,-132.51 -4.78,-124.28 C3.86,-110.94 8.66,-96.64 7.15,-80.62 C6.74,-76.31 5.51,-72.07 5.16,-67.76 C3.99,-53.6 6.55,-50.86 20.39,-50.87z M-22.1,49.23 C128.03,48.67 189.88,18.33 195.39,12.36 C203.4,3.69 202.7,-4.77 193.4,-12.09 C188.98,-15.57 183.81,-17.57 178.48,-19.26 C174.26,-20.6 170.37,-20.5 168.17,-16.22 C165.89,-11.76 168.64,-8.8 172.15,-6.31 C174.89,-4.36 180.08,-3.88 179.24,0.52 C174.95,9.57 117.59,18.74 93.97,21.45 C41.92,27.42 -10.34,29.97 -62.71,28.43 C-134.51,26.88 -163.53,17.96 -172.94,13.54 C-178.22,11.06 -178.45,9.15 -174.55,4.66 C-172.53,2.34 -168.68,0.61 -170.7,-3.05 C-173.13,-7.45 -177.07,-4.71 -180.19,-3.64 C-183.16,-2.63 -186.07,-1.12 -188.59,0.73 C-196.56,6.61 -197.23,16.23 -190.33,23.44 C-186.97,26.94 -160.2,52.02 -22.1,49.23z M80.59600067138672,-186.90699768066406 C99.4520034790039,-191.1909942626953 165.58299255371094,-205.21400451660156 167.55599975585938,-205.31500244140625 C177.13299560546875,-205.8070068359375 183.3730010986328,-202.2830047607422 184.50799560546875,-195.83200073242188 C185.57200622558594,-189.78900146484375 181.8260040283203,-184.47000122070312 173.12399291992188,-181.23699951171875 C164.96200561523438,-178.2050018310547 68.83699798583984,-153.9409942626953 67.11000061035156,-151.14700317382812 C66.94200134277344,-147.61900329589844 69.47799682617188,-145.31399536132812 71.45700073242188,-143.0290069580078 C88.48899841308594,-123.36199951171875 90.91100311279297,-100.3489990234375 87.1240005493164,-75.88899993896484 C86.2699966430664,-70.37699890136719 85.85299682617188,-64.88099670410156 86.08899688720703,-59.30799865722656 C86.32599639892578,-53.70899963378906 89.18199920654297,-50.382999420166016 94.62100219726562,-49.58399963378906 C98.91899871826172,-48.952999114990234 153.3489990234375,-48.89799880981445 194.552001953125,-35.987998962402344 C219.5540008544922,-29.138999938964844 230.7760009765625,-15.987000465393066 231.00999450683594,10.043000221252441 C231.5500030517578,70.26699829101562 204.73800659179688,114.20899963378906 179.79100036621094,139.8459930419922 C157.6750030517578,162.572998046875 131.34300231933594,176.41900634765625 101.9229965209961,185.66799926757812 C76.98899841308594,193.50599670410156 51.499000549316406,195.51400756835938 25.52899932861328,191.27699279785156 C21.04599952697754,190.54600524902344 13.394000053405762,187.20599365234375 12.279000282287598,193.54600524902344 C11.39900016784668,198.552001953125 19.458999633789062,199.71800231933594 24.200000762939453,201.16600036621094 C47.95399856567383,208.4199981689453 71.9489974975586,207.1649932861328 95.9800033569336,202.6699981689453 C99.48600006103516,202.01400756835938 102.94999694824219,201.12100219726562 106.46499633789062,200.53199768066406 C114.23899841308594,199.22999572753906 116.41500091552734,200.97900390625 116.51100158691406,209.07200622558594 C116.6259994506836,218.7480010986328 115.50599670410156,224.2270050048828 109.59300231933594,231.88400268554688 C102.0770034790039,241.61700439453125 66.02300262451172,250.87600708007812 -14.036999702453613,248.73399353027344 C-50.72100067138672,248.08299255371094 -70.83000183105469,243.61399841308594 -83.5250015258789,240.61099243164062 C-98.58000183105469,235.1179962158203 -105.69300079345703,223.4320068359375 -104.73699951171875,207.34300231933594 C-104.2040023803711,198.37600708007812 -103.22799682617188,191.10800170898438 -112.4219970703125,187.31399536132812 C-122.0989990234375,182.74899291992188 -131.94000244140625,178.41900634765625 -141.197998046875,173.0959930419922 C-192.16400146484375,143.79400634765625 -220.0709991455078,98.9000015258789 -229.2570037841797,41.564998626708984 C-230.51300048828125,33.72700119018555 -231.15899658203125,25.840999603271484 -230.9929962158203,17.875999450683594 C-230.5240020751953,-4.610000133514404 -222.4499969482422,-16.395000457763672 -201.281005859375,-24.465999603271484 C-186.7989959716797,-29.98699951171875 -171.80299377441406,-33.75600051879883 -156.5489959716797,-36.46699905395508 C-144.56700134277344,-38.59600067138672 -144.28399658203125,-38.50899887084961 -142.07899475097656,-49.959999084472656 C-140.4010009765625,-58.678001403808594 -135.94900512695312,-66.25499725341797 -133.1280059814453,-74.48300170898438 C-130.9409942626953,-80.86199951171875 -128.58099365234375,-87.1969985961914 -130.42300415039062,-94.17500305175781 C-132.29200744628906,-101.25800323486328 -134.0989990234375,-102.69499969482422 -141.302001953125,-101.78199768066406 C-144.0399932861328,-101.43499755859375 -157.9149932861328,-97.88099670410156 -162.2270050048828,-97.37100219726562 C-173.06300354003906,-96.08999633789062 -180.23300170898438,-100.0459976196289 -182.14300537109375,-107.97699737548828 C-183.99200439453125,-115.65499877929688 -179.2010040283203,-122.33499908447266 -168.95199584960938,-126.36399841308594 C-66.7490005493164,-166.53900146484375 149.71499633789062,-248.802001953125 155.75799560546875,-249.02999877929688 C163.09100341796875,-249.3070068359375 168.79600524902344,-245.88099670410156 171.11700439453125,-240.05499267578125 C173.6219940185547,-233.76600646972656 171.54600524902344,-226.7310028076172 165.552001953125,-222.10000610351562 C160.447998046875,-218.15699768066406 103.09500122070312,-197.197998046875 80.46700286865234,-188.73699951171875 C80.51000213623047,-188.1269989013672 80.5530014038086,-187.51699829101562 80.59600067138672,-186.90699768066406z"></path><g opacity="1" transform="matrix(1,0,0,1,17.163000106811523,-95.29299926757812)"></g><g opacity="1" transform="matrix(1,0,0,1,2.927000045776367,14.711999893188477)"></g><g opacity="1" transform="matrix(1,0,0,1,0,0)"></g></g></g></g></svg>