<svg xmlns="http://www.w3.org/2000/svg" xmlns:xlink="http://www.w3.org/1999/xlink" viewBox="0 0 512 512" width="512" height="512" style="width: 100%; height: 100%; transform: translate3d(0,0,0);" preserveAspectRatio="xMidYMid meet"><defs><clipPath id="__lottie_element_163"><rect width="512" height="512" x="0" y="0"></rect></clipPath></defs><g clip-path="url(#__lottie_element_163)"><g style="display: block;" transform="matrix(1,0,0,1,0,0)" opacity="1"><g opacity="1" transform="matrix(1,0,0,1,185.53399658203125,331.90399169921875)"><path fill="rgb(65,63,63)" fill-opacity="1" d=" M158.04600524902344,-64.35700225830078 C122.28500366210938,-136.85000610351562 41.10200119018555,-176.8350067138672 29.395999908447266,-180.0959930419922 C-25.343000411987305,-90.94599914550781 -92.11499786376953,-7.940999984741211 -140.96499633789062,84.14700317382812 C-143.02699279785156,99.05500030517578 -128.6649932861328,108.7760009765625 -129.52200317382812,114.39299774169922 C-131.91099548339844,130.0590057373047 -158.0659942626953,144.49000549316406 -155.2259979248047,162.86199951171875 C-153.875,171.60499572753906 -134.29299926757812,183.04200744628906 -126.91899871826172,179.4010009765625 C-119.09600067138672,175.53799438476562 -103.99199676513672,145.90699768066406 -92.12100219726562,142.6020050048828 C-88.30799865722656,141.5399932861328 -71.63800048828125,152.26499938964844 -63.19599914550781,149.7469940185547 C10.847000122070312,78.76100158691406 81.53700256347656,3.9549999237060547 158.0659942626953,-64.2750015258789 C158.06100463867188,-64.3030014038086 158.0590057373047,-64.33100128173828 158.04600524902344,-64.35700225830078z"></path></g><g opacity="1" transform="matrix(1,0,0,1,353.5260009765625,127.85099792480469)"><path fill="rgb(65,63,63)" fill-opacity="1" d=" M108.41400146484375,-53.59000015258789 C81.14399719238281,-98.41000366210938 11.822999954223633,-134.406005859375 -40.689998626708984,-126.84300231933594 C-69.23300170898438,-122.73200225830078 -126.36799621582031,-71.68599700927734 -133.3459930419922,-45.775001525878906 C-136.16700744628906,-35.29600143432617 -130.68499755859375,-15.944000244140625 -131.14999389648438,0.7820000052452087 C-98.61900329589844,11.46500015258789 -18.645999908447266,59.93299865722656 12.35200023651123,127.85099792480469 C35.597999572753906,123.29399871826172 61.15800094604492,119.21600341796875 72.63300323486328,113.75199890136719 C91.71700286865234,104.66400146484375 100.91699981689453,89.03700256347656 107.98799896240234,78.45700073242188 C136.16600036621094,36.29399871826172 134.03599548339844,-11.480999946594238 108.41400146484375,-53.59000015258789z M-54.51300048828125,-57.4379997253418 C-54.99100112915039,-56.13800048828125 -56.42399978637695,-55.39099884033203 -57.805999755859375,-55.29899978637695 C-59.1879997253418,-55.20800018310547 -60.542999267578125,-55.64400100708008 -61.86199951171875,-56.06700134277344 C-65.41000366210938,-57.20600128173828 -73.28299713134766,-57.542999267578125 -72.36799621582031,-62.20600128173828 C-71.70899963378906,-65.56600189208984 -68.01200103759766,-69.72200012207031 -65.50800323486328,-71.92400360107422 C-63.56999969482422,-73.62799835205078 -60.54399871826172,-75.8479995727539 -57.78200149536133,-74.9469985961914 C-54.242000579833984,-73.79299926757812 -54.694000244140625,-69.64600372314453 -54.58399963378906,-66.6719970703125 C-54.49599838256836,-64.28700256347656 -54.40700149536133,-61.9010009765625 -54.319000244140625,-59.51499938964844 C-54.292999267578125,-58.816001892089844 -54.270999908447266,-58.095001220703125 -54.51300048828125,-57.4379997253418z M-38.474998474121094,-61.83399963378906 C-41.83599853515625,-67.25599670410156 -44.19300079345703,-74.75 -44.08599853515625,-81.14600372314453 C-36.89400100708008,-89.70099639892578 -27.775999069213867,-89.2770004272461 -24.604999542236328,-87.69100189208984 C-23.999000549316406,-87.38800048828125 -20.09000015258789,-70.48400115966797 -19.857999801635742,-67.49600219726562 M-10.366999626159668,-19.534000396728516 C-10.281000137329102,-18.83799934387207 -22.584999084472656,-30.742000579833984 -35.611000061035156,-38.61800003051758 C-29.95599937438965,-41.44499969482422 -23.69499969482422,-43.4640007019043 -15.414999961853027,-45.28200149536133 C-12.38599967956543,-37.20399856567383 -11.579000473022461,-29.327999114990234 -10.366999626159668,-19.534000396728516z M-4.611999988555908,-89.81099700927734 C1.7280000448226929,-88.4489974975586 6.631999969482422,-85.83000183105469 12.74899959564209,-83.64099884033203 C15.61400032043457,-82.61599731445312 23.593000411987305,-78.00199890136719 26.184999465942383,-76.38200378417969 C12.654999732971191,-74.36199951171875 4.932000160217285,-72.03299713134766 -0.6729999780654907,-71.53500366210938 C-1.527999997138977,-77.2020034790039 -3.500999927520752,-83.85399627685547 -4.611999988555908,-89.81099700927734z M5.586999893188477,-48.31100082397461 C15.88599967956543,-52.249000549316406 27.63599967956543,-53.62699890136719 37.191001892089844,-53.763999938964844 C41.599998474121094,-44.099998474121094 42.83700180053711,-33.4379997253418 43.856998443603516,-22.865999221801758 C41.867000579833984,-22.45800018310547 23.559999465942383,-21.04800033569336 11.746000289916992,-18.32200050354004 C10.119000434875488,-25.940000534057617 6.853000164031982,-40.62799835205078 5.586999893188477,-48.31100082397461z M47.79399871826172,21.361000061035156 C46.98899841308594,22.302000045776367 35.98099899291992,22.572999954223633 32.374000549316406,23.69700050354004 C26.28700065612793,16.211000442504883 19.160999298095703,9.758999824523926 14.472999572753906,3.489000082015991 C20.174999237060547,2.0350000858306885 42.132999420166016,-1.3639999628067017 47.49100112915039,0.15600000321865082 C47.58599853515625,3.180000066757202 49.7859992980957,19.030000686645508 47.79399871826172,21.361000061035156z M59.611000061035156,-53.25600051879883 C65.84700012207031,-52.676998138427734 83.0780029296875,-25.746000289916992 79.5,-23.67300033569336 C77.04399871826172,-22.250999450683594 72.63300323486328,-22.461999893188477 66.97899627685547,-23.472000122070312 C65.36299896240234,-35.38600158691406 61.80500030517578,-48.722999572753906 59.611000061035156,-53.25600051879883z M69.90799713134766,62.55799865722656 C69.34100341796875,54.15800094604492 68.4209976196289,39.90399932861328 71.01799774169922,38.93000030517578 C73.44100189208984,38.02199935913086 79.60199737548828,36.50699996948242 86.47699737548828,37.94900131225586 C86.56900024414062,49.83599853515625 69.90799713134766,62.55799865722656 69.90799713134766,62.55799865722656z M85.58699798583984,13.663999557495117 C85.58699798583984,13.663999557495117 70.63300323486328,13.256999969482422 70.63300323486328,13.256999969482422 C70.63300323486328,13.256999969482422 71.12000274658203,-3.7820000648498535 71.12000274658203,-3.7820000648498535 C74.4280014038086,-2.2149999141693115 83.27200317382812,-3.319999933242798 85.7229995727539,-1.0740000009536743 C86.87100219726562,-0.020999999716877937 87.81900024414062,12.069999694824219 85.58699798583984,13.663999557495117z"></path></g></g></g></svg>