<svg xmlns="http://www.w3.org/2000/svg" xmlns:xlink="http://www.w3.org/1999/xlink" viewBox="0 0 512 512" width="512" height="512" style="width: 100%; height: 100%; transform: translate3d(0,0,0);" preserveAspectRatio="xMidYMid meet"><defs><clipPath id="__lottie_element_27249"><rect width="512" height="512" x="0" y="0"></rect></clipPath></defs><g clip-path="url(#__lottie_element_27249)"><g style="display: block;" transform="matrix(1,0,0,1,0,0)" opacity="1"><g opacity="1" transform="matrix(1,0,0,1,256,254.96499633789062)"><path fill="rgb(65,63,63)" fill-opacity="1" d=" M244.86500549316406,-76.59500122070312 C231.08200073242188,-100.22799682617188 204.01600646972656,-119.08699798583984 170.60699462890625,-128.3350067138672 C138.80799865722656,-137.13900756835938 104.9469985961914,-136.072998046875 80.02999877929688,-125.48699951171875 C73.89099884033203,-122.87899780273438 56.82899856567383,-111.4010009765625 54.775001525878906,-101.00399780273438 C54.04899978637695,-97.3290023803711 54.047000885009766,-88.65299987792969 54.77000045776367,-80.822998046875 C56.152000427246094,-65.86000061035156 59.154998779296875,-62.55799865722656 61.617000579833984,-61.35499954223633 C66.93800354003906,-58.75199890136719 72.38600158691406,-61.9640007019043 76.76000213623047,-64.5469970703125 C79.20899963378906,-65.99299621582031 81.55799865722656,-67.37999725341797 83.5530014038086,-67.74500274658203 C83.5530014038086,-67.74500274658203 95.38099670410156,-7.644000053405762 95.38099670410156,-7.644000053405762 C94.74099731445312,-7.546000003814697 94.08399963378906,-7.4770002365112305 93.68499755859375,-7.434000015258789 C93.16200256347656,-7.380000114440918 92.69200134277344,-7.328000068664551 92.30899810791016,-7.269000053405762 C87.93599700927734,-6.598999977111816 82.63300323486328,-6.431000232696533 77.50499725341797,-6.269000053405762 C73.06400299072266,-6.127999782562256 68.4739990234375,-5.982999801635742 64.3239974975586,-5.513999938964844 C62.24700164794922,-5.2789998054504395 60.34299850463867,-4.691999912261963 58.50199890136719,-4.123000144958496 C56.507999420166016,-3.507999897003174 54.7599983215332,-2.9609999656677246 53.117000579833984,-2.992000102996826 C19.319000244140625,-65.06600189208984 13.96399974822998,-74.9020004272461 12.9399995803833,-76.65799713134766 C12.9399995803833,-76.65799713134766 12.972000122070312,-76.68299865722656 12.972000122070312,-76.68299865722656 C0.5649999976158142,-95.11100006103516 -16.797000885009766,-88.61100006103516 -22.8700008392334,-86.23400115966797 C-22.8700008392334,-86.23400115966797 -27.010000228881836,-84.62999725341797 -27.010000228881836,-84.62999725341797 C-27.010000228881836,-84.62999725341797 -26.045000076293945,-81.16699981689453 -26.045000076293945,-81.16699981689453 C-33.54999923706055,-64.07599639892578 -39.07699966430664,-45.84299850463867 -44.426998138427734,-28.19499969482422 C-47.17599868774414,-19.125 -50.02000045776367,-9.746000289916992 -53.08100128173828,-0.7020000219345093 C-57.292999267578125,11.743000030517578 -61.810001373291016,24.849000930786133 -66.9489974975586,37.44200134277344 C-66.9489974975586,37.44200134277344 -111.75299835205078,6.453999996185303 -111.75299835205078,6.453999996185303 C-92.80500030517578,-7.478000164031982 -71.33200073242188,-23.27199935913086 -59.78200149536133,-47.04100036621094 C-52.4370002746582,-62.15599822998047 -50.95800018310547,-74.97100067138672 -55.38399887084961,-85.13200378417969 C-60.73400115966797,-97.41500091552734 -74.48899841308594,-105.49500274658203 -97.43299865722656,-109.83599853515625 C-110.90499877929688,-112.38500213623047 -125.79299926757812,-113.63200378417969 -140.19000244140625,-114.83799743652344 C-164.5399932861328,-116.87699890136719 -189.718994140625,-118.98600006103516 -210.36700439453125,-127.3280029296875 C-219.4080047607422,-130.97999572753906 -228.48599243164062,-129.5229949951172 -236.61900329589844,-123.11399841308594 C-248.77200317382812,-113.53700256347656 -256.1610107421875,-94.53500366210938 -255.9969940185547,-90.10299682617188 C-255.6280059814453,-80.13099670410156 -247.5279998779297,-76.99500274658203 -241.61399841308594,-74.70600128173828 C-238.9759979248047,-73.68499755859375 -235.6929931640625,-72.41300201416016 -235.18800354003906,-71.14600372314453 C-231.9459991455078,-63.00199890136719 -228.43899536132812,-49.76900100708008 -225.6219940185547,-39.13600158691406 C-224.88600158691406,-36.356998443603516 -224.18899536132812,-33.72700119018555 -223.54299926757812,-31.36199951171875 C-212.33799743652344,9.72599983215332 -203.9949951171875,50.77399826049805 -198.7449951171875,90.64299774169922 C-198.56399536132812,92.01699829101562 -198.57899475097656,93.9729995727539 -198.59300231933594,96.04499816894531 C-198.6439971923828,102.95700073242188 -198.71400451660156,112.4229965209961 -191.2239990234375,115.59600067138672 C-183.0019989013672,119.0780029296875 -170.8280029296875,116.31800079345703 -160.20599365234375,108.55999755859375 C-150.50100708007812,101.47200012207031 -144.8300018310547,92.15499877929688 -144.64500427246094,82.99800109863281 C-144.60499572753906,81.00399780273438 -145.3000030517578,79.44400024414062 -145.85899353027344,78.19000244140625 C-146.10400390625,77.63999938964844 -146.3820037841797,77.01599884033203 -146.427001953125,76.67500305175781 C-146.73899841308594,74.3290023803711 -147.19000244140625,71.6780014038086 -147.66900634765625,68.87100219726562 C-148.56199645996094,63.630001068115234 -149.6199951171875,57.42300033569336 -149.8159942626953,52.42499923706055 C-146.67599487304688,54.7869987487793 -143.5290069580078,57.13199996948242 -140.4499969482422,59.42599868774414 C-126.47100067138672,69.84300231933594 -112.01599884033203,80.61399841308594 -98.8489990234375,92.56900024414062 C-96.02400207519531,95.13400268554688 -92.677001953125,99.29900360107422 -89.13400268554688,103.70899963378906 C-77.7959976196289,117.81700134277344 -62.266998291015625,137.13900756835938 -45.20600128173828,124.61799621582031 C-33.2599983215332,115.85199737548828 -29.96299934387207,99.50199890136719 -27.05500030517578,85.0780029296875 C-26.180999755859375,80.74099731445312 -25.34600067138672,76.60299682617188 -24.33099937438965,72.86100006103516 C-18.05500030517578,70.79000091552734 -11.803000450134277,68.33100128173828 -5.734000205993652,65.94599914550781 C1.0720000267028809,63.26900100708008 8.109999656677246,60.50199890136719 15.00100040435791,58.362998962402344 C15.765999794006348,58.125 16.469999313354492,57.895999908447266 17.118000030517578,57.685001373291016 C18.80900001525879,57.1349983215332 20.55500030517578,56.56399917602539 21.083999633789062,56.70199966430664 C21.329999923706055,56.76599884033203 22.111000061035156,57.220001220703125 24.051000595092773,60.04899978637695 C29.716999053955078,68.31400299072266 40.81700134277344,93.7959976196289 44.67399978637695,104.4530029296875 C45.66699981689453,107.1969985961914 46.138999938964844,109.6050033569336 46.55500030517578,111.72799682617188 C48.06800079345703,119.447998046875 49.94200134277344,124.21199798583984 63.17300033569336,125.2969970703125 C70.91100311279297,125.92500305175781 85.36499786376953,119.73500061035156 94.12899780273438,112.03600311279297 C99.2490005493164,107.53900146484375 102.1240005493164,102.91899871826172 102.67500305175781,98.3030014038086 C103.47000122070312,91.65499877929688 99.82599639892578,83.10600280761719 96.0250015258789,74.9209976196289 C96.0250015258789,74.9209976196289 95.69000244140625,74.197998046875 95.69000244140625,74.197998046875 C93.46600341796875,69.3949966430664 90.4990005493164,64.3550033569336 87.63099670410156,59.47999954223633 C84.6050033569336,54.3390007019043 81.47899627685547,49.027000427246094 79.33100128173828,44.15999984741211 C83.25599670410156,43.20600128173828 91.13300323486328,42.439998626708984 95.7699966430664,41.9900016784668 C100.81700134277344,41.499000549316406 104.41899871826172,41.13399887084961 106.98300170898438,40.67300033569336 C107.02899932861328,40.9379997253418 107.072998046875,41.18199920654297 107.11900329589844,41.39400100708008 C110.0979995727539,55.125 111.44000244140625,69.51699829101562 112.73799896240234,83.43499755859375 C113.64900207519531,93.20999908447266 114.59100341796875,103.31700134277344 116.09400177001953,113.22699737548828 C116.50499725341797,115.94300079345703 116.74500274658203,118.3030014038086 116.95600128173828,120.38500213623047 C118.11399841308594,131.78500366210938 119.92400360107422,136.11300659179688 134.4739990234375,136.3260040283203 C134.55999755859375,136.32699584960938 134.64599609375,136.32699584960938 134.73300170898438,136.32699584960938 C144.94200134277344,136.32699584960938 157.46499633789062,127.58100128173828 163.2949981689453,122.37000274658203 C172.92999267578125,113.75599670410156 171.48899841308594,101.93099975585938 170.2169952392578,91.4990005493164 C170.07699584960938,90.35099792480469 169.93800354003906,89.20800018310547 169.81399536132812,88.0719985961914 C168.71800231933594,78.04000091552734 166.8070068359375,67.99199676513672 164.9600067138672,58.27299880981445 C163.56700134277344,50.95000076293945 162.13299560546875,43.409000396728516 161.07000732421875,35.957000732421875 C163.6580047607422,35.46799850463867 167.92799377441406,35.19900131225586 170.0399932861328,35.066001892089844 C172.30099487304688,34.92300033569336 173.93499755859375,34.81999969482422 175.0399932861328,34.61000061035156 C190.93600463867188,31.591999053955078 206.7779998779297,25.523000717163086 219.6510009765625,17.52199935913086 C234.4290008544922,8.336000442504883 245.28799438476562,-3.303999900817871 251.05499267578125,-16.138999938964844 C259.3290100097656,-34.555999755859375 257.1889953613281,-55.46099853515625 244.86500549316406,-76.59500122070312z M209.33299255371094,-28.152000427246094 C207.09300231933594,-21.201000213623047 189.82699584960938,-17.408000946044922 181.52999877929688,-15.585000038146973 C177.1490020751953,-14.623000144958496 158.72000122070312,-11.708000183105469 152.43299865722656,-11.501999855041504 C152.43299865722656,-11.501999855041504 134.9029998779297,-72.99600219726562 134.9029998779297,-72.99600219726562 C157.19500732421875,-70.43299865722656 184.88400268554688,-61.4900016784668 202.0780029296875,-43.05099868774414 C207.85699462890625,-36.85499954223633 210.43299865722656,-31.56399917602539 209.33299255371094,-28.152000427246094z M-8.036999702453613,-9.279000282287598 C-5.373000144958496,-3.056999921798706 -1.9119999408721924,5.5960001945495605 -0.04899999871850014,10.255999565124512 C0.3179999887943268,11.17300033569336 0.6570000052452087,12.020999908447266 0.9660000205039978,12.791999816894531 C0.9660000205039978,12.791999816894531 -12.59000015258789,18.148000717163086 -12.59000015258789,18.148000717163086 C-11.682999610900879,10.871000289916992 -9.416000366210938,-2.1489999294281006 -8.036999702453613,-9.279000282287598z M-146.5709991455078,-19.155000686645508 C-154.92599487304688,-15.123000144958496 -158.4739990234375,-14.092000007629395 -159.97999572753906,-13.937000274658203 C-162.8350067138672,-20.097000122070312 -169.88299560546875,-48.5890007019043 -172.23199462890625,-60.81800079345703 C-160.1479949951172,-60.98500061035156 -123.8479995727539,-57.79600143432617 -118.0979995727539,-56.481998443603516 C-106.63500213623047,-53.86199951171875 -105.875,-50.869998931884766 -105.82599639892578,-50.53799819946289 C-105.28299713134766,-46.845001220703125 -117.447998046875,-37.65299987792969 -121.44599914550781,-34.63199996948242 C-129.13499450683594,-28.820999145507812 -138.44900512695312,-23.04199981689453 -145.7530059814453,-19.54800033569336 C-145.7530059814453,-19.54800033569336 -146.5709991455078,-19.155000686645508 -146.5709991455078,-19.155000686645508z"></path></g></g></g></svg>