<svg xmlns="http://www.w3.org/2000/svg" xmlns:xlink="http://www.w3.org/1999/xlink" viewBox="0 0 512 512" width="512" height="512" style="width: 100%; height: 100%; transform: translate3d(0,0,0);" preserveAspectRatio="xMidYMid meet"><defs><clipPath id="__lottie_element_52120"><rect width="512" height="512" x="0" y="0"></rect></clipPath></defs><g clip-path="url(#__lottie_element_52120)"><g style="display: block;" transform="matrix(1,0,0,1,256.03900146484375,255.77000427246094)" opacity="1"><g opacity="1" transform="matrix(1,0,0,1,0,0)"><path fill="rgb(4,5,52)" fill-opacity="1" d=" M-229.5260009765625,-228.5399932861328 C-236.28799438476562,-220.92999267578125 -211.45599365234375,-194.6580047607422 -172.97999572753906,-180.26699829101562 C-172.97999572753906,-180.26699829101562 -157.80799865722656,-133.10499572753906 -121.38500213623047,-103.1760025024414 C-70.34600067138672,-61.23699951171875 -34.138999938964844,-57.435001373291016 -22.280000686645508,-46.42300033569336 C-10.420999526977539,-35.4109992980957 -5.296000003814697,-12.937000274658203 -8.647000312805176,-10 C-11.998000144958496,-7.063000202178955 -12.383000373840332,-26.28499984741211 -62.93899917602539,-40.49399948120117 C-113.49500274658203,-54.702999114990234 -142.56199645996094,-54.893001556396484 -145.9499969482422,-50.65800094604492 C-149.33799743652344,-46.42300033569336 -128.61300659179688,1.4830000400543213 -109.5270004272461,15.411999702453613 C-90.44000244140625,29.340999603271484 -73.10299682617188,30.659000396728516 -73.10299682617188,30.659000396728516 C-73.10299682617188,30.659000396728516 -86.3740005493164,57.37799835205078 -80.16200256347656,99.92400360107422 C-73.94999694824219,142.47000122070312 -104.44400024414062,174.65899658203125 -105.29100036621094,180.58799743652344 C-106.13800048828125,186.51699829101562 -75.927001953125,184.25900268554688 -73.10299682617188,185.67100524902344 C-70.27899932861328,187.08299255371094 -62.93899917602539,226.3300018310547 -49.38600158691406,231.41200256347656 C-35.83300018310547,236.49400329589844 -25.667999267578125,204.30599975585938 -22.280000686645508,204.30599975585938 C-18.892000198364258,204.30599975585938 -10.984999656677246,240.1649932861328 5.390999794006348,241.29400634765625 C21.767000198364258,242.42300415039062 26.003000259399414,213.906005859375 30.238000869750977,210.8000030517578 C34.472999572753906,207.69400024414062 85.2959976196289,239.03599548339844 92.91999816894531,229.71800231933594 C100.54399871826172,220.39999389648438 79.36699676513672,198.37600708007812 76.82599639892578,181.43499755859375 C74.28500366210938,164.49400329589844 72.0260009765625,158.28199768066406 72.0260009765625,158.28199768066406 C72.0260009765625,158.28199768066406 56.47999954223633,153.31100463867188 44.83700180053711,142.99899291992188 C33.194000244140625,132.68699645996094 23.836999893188477,102.94100189208984 29.861000061035156,100.30599975585938 C35.8849983215332,97.6709976196289 33.62799835205078,131.72799682617188 69.76699829101562,145.29400634765625 C105.90599822998047,158.86000061035156 139.03900146484375,124.9540023803711 153.57000732421875,121.28900146484375 C168.1009979248047,117.6240005493164 188.66400146484375,126.79100036621094 207.99200439453125,110.06600189208984 C227.32000732421875,93.34100341796875 238.61300659179688,68.49400329589844 223.93099975585938,52.11800003051758 C209.24899291992188,35.742000579833984 194.0850067138672,45.637001037597656 157.6199951171875,34.7599983215332 C121.15499877929688,23.882999420166016 92.33999633789062,-16.469999313354492 36.48500061035156,-10.41100025177002 C36.48500061035156,-10.41100025177002 34.191001892089844,-21.292999267578125 40.96699905395508,-25.81100082397461 C47.74300003051758,-30.32900047302246 74.73100280761719,-14.517999649047852 138.66099548339844,-38.79999923706055 C202.59100341796875,-63.082000732421875 205.38999938964844,-145.5469970703125 191.7429962158203,-146.09300231933594 C177.625,-146.6580047607422 183.27200317382812,-104.30500030517578 147.6959991455078,-79.45800018310547 C110.13800048828125,-53.22700119018555 71.8270034790039,-47.7599983215332 54.88600158691406,-55.66600036621094 C37.94499969482422,-63.571998596191406 59.1609992980957,-59.44599914550781 84.4489974975586,-90.18800354003906 C113.2490005493164,-125.19999694824219 103.15299987792969,-185.32899475097656 87.27300262451172,-184.4929962158203 C65.81400299072266,-183.36399841308594 79.36699676513672,-135.9290008544922 55.64899826049805,-111.08200073242188 C31.930999755859375,-86.23500061035156 3.0290000438690186,-74.23899841308594 -13.911999702453613,-87.16300201416016 C-24.538000106811523,-95.2699966430664 -5.9039998054504395,-112.21099853515625 -0.039000000804662704,-160.7760009765625 C2.6089999675750732,-182.7050018310547 -10.984999656677246,-214.42300415039062 -21.149999618530273,-211.5989990234375 C-35.09600067138672,-207.72500610351562 -24.538999557495117,-176.0229949951172 -30.18600082397461,-157.95199584960938 C-35.83300018310547,-139.88099670410156 -47.69200134277344,-107.12899780273438 -73.66799926757812,-117.29399871826172 C-99.64399719238281,-127.45899963378906 -117.75399780273438,-146.87100219726562 -131.8719940185547,-184.70599365234375 C-131.8719940185547,-184.70599365234375 -98.51499938964844,-224.02200317382812 -105.29100036621094,-238.13999938964844 C-112.06700134277344,-252.25799560546875 -138.04400634765625,-214.98699951171875 -160.6320037841797,-213.29299926757812 C-183.22000122070312,-211.5989990234375 -213.71400451660156,-246.33599853515625 -229.5260009765625,-228.5399932861328z"></path></g></g></g></svg>