<svg xmlns="http://www.w3.org/2000/svg" xmlns:xlink="http://www.w3.org/1999/xlink" viewBox="0 0 512 512" width="512" height="512" style="width: 100%; height: 100%; transform: translate3d(0,0,0);" preserveAspectRatio="xMidYMid meet"><defs><clipPath id="__lottie_element_27254"><rect width="512" height="512" x="0" y="0"></rect></clipPath></defs><g clip-path="url(#__lottie_element_27254)"><g style="display: block;" transform="matrix(1,0,0,1,0,0)" opacity="1"><g opacity="1" transform="matrix(1,0,0,1,237.52699279785156,256.0379943847656)"><path fill="rgb(65,63,63)" fill-opacity="1" d=" M-208.1999969482422,-237.7949981689453 C-207.19000244140625,-243.7570037841797 -205.9340057373047,-255.96200561523438 -198.26400756835938,-255.0399932861328 C-190.2550048828125,-254.0780029296875 -160.66400146484375,-229.98500061035156 -153.6719970703125,-223.13299560546875 C-128.42999267578125,-214.4219970703125 -24.131000518798828,-181.9149932861328 -7.4710001945495605,-180.50999450683594 C-3.437999963760376,-180.9429931640625 0.1289999932050705,-183.73699951171875 5.011000156402588,-184.1790008544922 C15.230999946594238,-185.1060028076172 33,-181.33399963378906 43.25400161743164,-178.8350067138672 C64.25900268554688,-173.71499633789062 108.0719985961914,-155.0760040283203 127.31500244140625,-160.9219970703125 C136.20700073242188,-163.6230010986328 149.89599609375,-176.8679962158203 159.33700561523438,-167.11500549316406 C169.96499633789062,-156.13800048828125 145.1750030517578,-133.8209991455078 167.74899291992188,-123.7300033569336 C184.96600341796875,-116.03399658203125 193.46299743652344,-129.01800537109375 205.625,-125.50599670410156 C213.67999267578125,-123.17900085449219 235.6999969482422,-103.31999969482422 220.27099609375,-98.62300109863281 C211.21800231933594,-95.86599731445312 196.81700134277344,-109.0260009765625 188.54200744628906,-99.16500091552734 C168.49099731445312,-75.27200317382812 204.56900024414062,-53.11800003051758 216.26199340820312,-36.16600036621094 C225.99899291992188,-22.048999786376953 217.83700561523438,-18.885000228881836 213.21400451660156,-5.604000091552734 C205.81900024414062,15.640000343322754 211.02000427246094,44.25699996948242 217.20599365234375,65.6510009765625 C237.52699279785156,135.927001953125 225.0760040283203,219.5489959716797 195.46800231933594,250.25399780273438 C179.79299926757812,266.510986328125 108.46499633789062,238.875 77.06099700927734,227.51400756835938 C48.34000015258789,217.12399291992188 71.5719985961914,185.2220001220703 86.48500061035156,161.64500427246094 C96.7229995727539,145.46099853515625 128.2989959716797,113.47699737548828 97.90899658203125,86.55799865722656 C83.66799926757812,73.94499969482422 74.36799621582031,87.0250015258789 62.17599868774414,90.74299621582031 C23.295000076293945,102.5989990234375 -47.47200012207031,87.4229965209961 -59.31100082397461,33.12900161743164 C-62.89799880981445,16.683000564575195 -55.19599914550781,-3.319000005722046 -59.76300048828125,-14.619999885559082 C-63.9010009765625,-24.861000061035156 -77.22000122070312,-25.530000686645508 -79.12799835205078,-39.20100021362305 C-81.94400024414062,-59.37300109863281 -78.65899658203125,-68.33699798583984 -84.59100341796875,-81.98400115966797 C-95.25499725341797,-90.52300262451172 -218.19900512695312,-122.56900024414062 -233.46800231933594,-131.34800720214844 C-241.66000366210938,-146.3179931640625 -231.4029998779297,-167.7989959716797 -226.21600341796875,-174.2209930419922 C-233.60400390625,-178.36900329589844 -223.67599487304688,-230.38400268554688 -208.1999969482422,-237.7949981689453z M30.290000915527344,-141.781005859375 C37.84400177001953,-133.91799926757812 80.31099700927734,-117.69000244140625 90.84300231933594,-118.34700012207031 C98.98699951171875,-118.8550033569336 100.5739974975586,-127.2229995727539 95.5,-131.27999877929688 C94.0479965209961,-132.44000244140625 84.18399810791016,-136.2530059814453 81.50399780273438,-137.2050018310547 C64.60099792480469,-143.21200561523438 45.45500183105469,-148.0850067138672 27.570999145507812,-147.07200622558594 C26.954999923706055,-146.62600708007812 29.614999771118164,-142.48300170898438 30.290000915527344,-141.781005859375z M123.9990005493164,-87.53800201416016 C116.8010025024414,-77.10199737548828 105.50499725341797,-38.55400085449219 106.59500122070312,-25.961999893188477 C107.64700317382812,-13.815999984741211 116.65899658203125,-16.5939998626709 120.71399688720703,-25.69700050354004 C126.01000213623047,-37.58700180053711 135.93099975585938,-77.25800323486328 133.78900146484375,-89.74199676513672 C133.60800170898438,-90.79299926757812 133.86900329589844,-92.13600158691406 132.7480010986328,-92.8280029296875 C131.5,-93.12300109863281 130.1479949951172,-92.9800033569336 128.99600219726562,-92.447998046875 C127.76399993896484,-91.87799835205078 124.86799621582031,-88.7979965209961 123.9990005493164,-87.53800201416016z M-132.52499389648438,-143.2469940185547 C-119.81999969482422,-133.42799377441406 -73.6719970703125,-121.1520004272461 -56.584999084472656,-118.00900268554688 C-49.68199920654297,-116.73899841308594 -40.59000015258789,-115.80999755859375 -41.01100158691406,-125.40799713134766 C-41.150001525878906,-128.5679931640625 -50.06100082397461,-132.1510009765625 -53.09700012207031,-133.27999877929688 C-72.3479995727539,-140.43299865722656 -103.50599670410156,-148.4029998779297 -123.86199951171875,-151.58700561523438 C-126.05599975585938,-151.92999267578125 -133.04200744628906,-152.8699951171875 -134.55599975585938,-152.11000061035156 C-139.1009979248047,-149.8280029296875 -135.1230010986328,-145.25399780273438 -132.52499389648438,-143.2469940185547z M14.49899959564209,-102.33200073242188 C13.201000213623047,-98.28500366210938 33.2140007019043,-89.52300262451172 36.70199966430664,-88.23699951171875 C43.79800033569336,-85.62100219726562 71.322998046875,-76.74299621582031 77.1510009765625,-80.47100067138672 C87.552001953125,-87.1259994506836 69.65499877929688,-95.25900268554688 64.7249984741211,-97.23300170898438 C49.33300018310547,-103.39600372314453 30.424999237060547,-108.53199768066406 14.49899959564209,-102.33200073242188z M-1.2020000219345093,-56.51900100708008 C-7.355999946594238,-54.0359992980957 -1.1180000305175781,-49.44200134277344 2.7100000381469727,-46.99599838256836 C14.288000106811523,-39.59700012207031 40.88800048828125,-32.47800064086914 54.73899841308594,-30.41699981689453 C77.9540023803711,-26.96299934387207 78.87300109863281,-38.04600143432617 59.159000396728516,-46.18899917602539 C47.00299835205078,-51.21099853515625 10.774999618530273,-61.349998474121094 -1.2020000219345093,-56.51900100708008z M-1.4179999828338623,54.04600143432617 C-4.940999984741211,52.84199905395508 -9.734999656677246,46.858001708984375 -8.286999702453613,43.242000579833984 C-7.7789998054504395,41.972999572753906 5.625999927520752,34.27899932861328 9.708999633789062,27.96299934387207 C14.09000015258789,21.187000274658203 24.905000686645508,0.3919999897480011 14.458999633789062,-4.521999835968018 C-15.98900032043457,-18.8439998626709 -43.0099983215332,-0.28200000524520874 -39.858001708984375,33.49800109863281 C-36.90299987792969,65.16200256347656 16.22599983215332,84.95500183105469 45.45800018310547,74.34600067138672 C72.06300354003906,64.69000244140625 76.02799987792969,20.76099967956543 54.40999984741211,15.27299976348877 C53.29600143432617,14.989999771118164 53.7859992980957,13.458999633789062 52.025001525878906,13.423999786376953 C43.17100143432617,27.048999786376953 17.756000518798828,60.599998474121094 -1.4179999828338623,54.04600143432617z"></path></g></g></g></svg>