<svg xmlns="http://www.w3.org/2000/svg" xmlns:xlink="http://www.w3.org/1999/xlink" viewBox="0 0 512 512" width="512" height="512" style="width: 100%; height: 100%; transform: translate3d(0,0,0);" preserveAspectRatio="xMidYMid meet"><defs><clipPath id="__lottie_element_52756"><rect width="512" height="512" x="0" y="0"></rect></clipPath></defs><g clip-path="url(#__lottie_element_52756)"><g style="display: block;" transform="matrix(-1,0,0,1,2625.988037109375,-648.760009765625)" opacity="1"><g opacity="1" transform="matrix(1.4700000286102295,0,0,1.4700000286102295,2540.368896484375,1048.9859619140625)"><path fill="rgb(0,0,0)" fill-opacity="1" d=" M-100.84400177001953,-52.573001861572266 C-108.84400177001953,-48.573001861572266 -120.50700378417969,-51.13399887084961 -134.5989990234375,-43.49100112915039 C-141.75599670410156,-39.60900115966797 -146.51800537109375,-30.766000747680664 -132.85400390625,-25.49799919128418 C-112.14700317382812,-17.514999389648438 -92.84400177001953,-56.573001861572266 -100.84400177001953,-52.573001861572266z M25.83799934387207,55.45600128173828 C24.381999969482422,63.29800033569336 1.781999945640564,48.82600021362305 -19.93000030517578,22.391000747680664 C-36.99399948120117,30.458999633789062 -64.03399658203125,22.805999755859375 -70.85700225830078,16.38800048828125 C-80.77200317382812,7.060999870300293 -91.87300109863281,18.827999114990234 -102.4000015258789,28.05500030517578 C-109.39900207519531,34.189998626708984 -150.61900329589844,46.71900177001953 -157.6529998779297,52.81100082397461 C-170.58399963378906,64.00900268554688 -190.05499267578125,60.39099884033203 -206.0290069580078,63.66999816894531 C-217.2989959716797,65.98400115966797 -226.58700561523438,53.85200119018555 -230.9600067138672,42.77199935913086 C-238.5229949951172,23.611000061035156 -232.88699340820312,9.329999923706055 -239.21800231933594,-10.258999824523926 C-242.656005859375,-20.899999618530273 -254.947998046875,-37.731998443603516 -259.6809997558594,-47.87300109863281 C-283.4519958496094,-98.80000305175781 -285.94500732421875,-109.52400207519531 -278.7919921875,-117.625 C-277.2229919433594,-119.40299987792969 -259.45098876953125,-96.80000305175781 -237.75100708007812,-76.98600006103516 C-230.43899536132812,-70.30899810791016 -215.9510040283203,-62.79999923706055 -201.04600524902344,-60.86600112915039 C-195.58799743652344,-60.15800094604492 -192.8159942626953,-59.797000885009766 -189.2010040283203,-64.09500122070312 C-186.64500427246094,-67.13400268554688 -214.9510040283203,-88.30000305175781 -208.8000030517578,-101.8479995727539 C-200.4510040283203,-105.30000305175781 -177.8820037841797,-93.25399780273438 -169.97900390625,-94.4010009765625 C-139.71499633789062,-98.79299926757812 -141.23699951171875,-167.86300659179688 -103.28800201416016,-174.01499938964844 C-98.90899658203125,-174.72500610351562 -144.17599487304688,-236.36300659179688 -134.51300048828125,-239.9929962158203 C-81.21099853515625,-260.0169982910156 -56.5099983215332,-189.802001953125 -52.59299850463867,-191.7429962158203 C-36.99300003051758,-199.47300720214844 -45.83700180053711,-198.11300659179688 3.9560000896453857,-211.07200622558594 C128.9929962158203,-238.24899291992188 -20.66699981689453,2.568000078201294 25.83799934387207,55.45600128173828z"></path></g><g opacity="1" transform="matrix(1,0,0,1,0,0)"><path fill="rgb(0,0,0)" fill-opacity="1" d="M0 0"></path></g></g></g></svg>