<svg xmlns="http://www.w3.org/2000/svg" xmlns:xlink="http://www.w3.org/1999/xlink" viewBox="0 0 512 512" width="512" height="512" style="width: 100%; height: 100%; transform: translate3d(0,0,0);" preserveAspectRatio="xMidYMid meet"><defs><clipPath id="__lottie_element_51435"><rect width="512" height="512" x="0" y="0"></rect></clipPath></defs><g clip-path="url(#__lottie_element_51435)"><g style="display: block;" transform="matrix(1,0,0,1,0,0)" opacity="1"><g opacity="1" transform="matrix(1,0,0,1,261.59100341796875,266.6400146484375)"><path fill="rgb(0,0,0)" fill-opacity="1" d=" M99.34200286865234,-184.82400512695312 C21.099000930786133,-194.13499450683594 -48.85300064086914,-171.2899932861328 -100.15499877929688,-137.75999450683594 C-155.70399475097656,-101.4520034790039 -201.81199645996094,-54.03499984741211 -229.0760040283203,8.845999717712402 C-245.31199645996094,46.290000915527344 -250.41000366210938,81.02400207519531 -241.70399475097656,117.61000061035156 C-228.65499877929688,172.447998046875 -186.9459991455078,194.13499450683594 -129.82000732421875,175.16900634765625 C-105.69200134277344,167.15899658203125 -81.76799774169922,157.20199584960938 -59.29999923706055,145.20899963378906 C-28.02899932861328,128.5189971923828 2.4769999980926514,128.31300354003906 32.49300003051758,139.48599243164062 C76.37000274658203,155.81900024414062 116.86599731445312,148.23199462890625 159.41799926757812,124.76699829101562 C179.60299682617188,113.63600158691406 193.16400146484375,101.58899688720703 203.50799560546875,86.1989974975586 C246.2830047607422,22.55900001525879 255.39700317382812,-43.21500015258789 223.3800048828125,-110.08000183105469 C209.43099975585938,-139.21200561523438 184.19500732421875,-174.7270050048828 99.34200286865234,-184.82400512695312z M202.36099243164062,-54.4379997253418 C198.06100463867188,-13.32800006866455 177.00599670410156,10.996999740600586 148.58200073242188,40.74399948120117 C124.16200256347656,66.3010025024414 85.43900299072266,74.69499969482422 54.935001373291016,73.96199798583984 C26.62700080871582,73.27999877929688 -1.4759999513626099,68.89900207519531 -29.246999740600586,64.38999938964844 C-58.17599868774414,59.69300079345703 -86.78600311279297,51.137001037597656 -116.78199768066406,59.5890007019043 C-135.67100524902344,64.91200256347656 -154.38900756835938,72.72699737548828 -171.78199768066406,82.05400085449219 C-206.66400146484375,100.75700378417969 -220.0590057373047,78.43599700927734 -215.0050048828125,55.27199935913086 C-192.88099670410156,-46.12200164794922 -98.62300109863281,-126.66200256347656 3.183000087738037,-152.52099609375 C44.41400146484375,-159.98699951171875 85.49800109863281,-160.82000732421875 126.1500015258789,-153.46299743652344 C154.85000610351562,-148.2689971923828 180.3990020751953,-136.16299438476562 193.572998046875,-112.76200103759766 C202.66299438476562,-96.61699676513672 204.40199279785156,-73.947998046875 202.36099243164062,-54.4379997253418z"></path></g><g opacity="1" transform="matrix(1,0,0,1,255.81500244140625,229.72500610351562)"><path fill="rgb(0,0,0)" fill-opacity="1" d=" M-0.5009999871253967,-91.10399627685547 C-14.819999694824219,-88.5790023803711 -61.691001892089844,-68.88500213623047 -73.51200103759766,-61.35599899291992 C-114.7020034790039,-35.12300109863281 -121.98600006103516,-23.520000457763672 -152.33799743652344,14.470999717712402 C-173.3769989013672,42.76599884033203 -191.4949951171875,84.85399627685547 -185.89500427246094,104.16999816894531 C-170.44400024414062,95.58200073242188 -136.06100463867188,76.76899719238281 -117.79499816894531,72.35900115966797 C-93.71199798583984,66.54499816894531 -51.827999114990234,68.50399780273438 -18.718000411987305,74.51100158691406 C13.244999885559082,80.30899810791016 56.323001861572266,87.46399688720703 81.36199951171875,85.01799774169922 C91.87799835205078,83.99099731445312 112.68800354003906,77.00499725341797 121.09400177001953,70.60199737548828 C152.54100036621094,46.64699935913086 169.83999633789062,18.115999221801758 183.34100341796875,-23.834999084472656 C191.49400329589844,-49.16899871826172 173.4149932861328,-78.80400085449219 148.05599975585938,-87.56400299072266 C99.98899841308594,-104.16999816894531 49.862998962402344,-99.98600006103516 -0.5009999871253967,-91.10399627685547z M107.9990005493164,-18.558000564575195 C98.46600341796875,-1.5729999542236328 69.10800170898438,4.377999782562256 57.404998779296875,5.0980000495910645 C43.02000045776367,5.980999946594238 37.39699935913086,-3.7239999771118164 42.20600128173828,-17.143999099731445 C48.6870002746582,-35.23500061035156 88.1449966430664,-50.34400177001953 104.32599639892578,-40.869998931884766 C113.88999938964844,-35.27000045776367 113.08499908447266,-27.6200008392334 107.9990005493164,-18.558000564575195z"></path></g></g></g></svg>