<svg xmlns="http://www.w3.org/2000/svg" xmlns:xlink="http://www.w3.org/1999/xlink" viewBox="0 0 512 512" width="512" height="512" style="width: 100%; height: 100%; transform: translate3d(0,0,0);" preserveAspectRatio="xMidYMid meet"><defs><clipPath id="__lottie_element_51835"><rect width="512" height="512" x="0" y="0"></rect></clipPath></defs><g clip-path="url(#__lottie_element_51835)"><g style="display: block;" transform="matrix(1,0,0,1,256,256)" opacity="1"><g opacity="1" transform="matrix(1,0,0,1,0,0)"><path fill="rgb(0,0,0)" fill-opacity="1" d=" M235.48399353027344,-71.43299865722656 C235.48699951171875,-71.43000030517578 235.49000549316406,-71.4260025024414 235.4929962158203,-71.4219970703125 C224.02699279785156,-107.98500061035156 136.38900756835938,-199.86300659179688 143.81399536132812,-190.6929931640625 C100.19300079345703,-235.46200561523438 41.49700164794922,-228.01199340820312 -14.6850004196167,-201.40899658203125 C-19.31100082397461,-199.218994140625 -20.735000610351562,-193.2760009765625 -17.56100082397461,-189.26100158691406 C-8.163000106811523,-177.3730010986328 -2.9159998893737793,-164.00100708007812 -7.566999912261963,-146.3179931640625 C-7.566999912261963,-146.3179931640625 -31.906999588012695,-53.770999908447266 -31.906999588012695,-53.770999908447266 C-36.196998596191406,-37.45800018310547 -48.9379997253418,-24.448999404907227 -65.15699768066406,-19.820999145507812 C-65.15699768066406,-19.820999145507812 -151.46499633789062,4.808000087738037 -151.46499633789062,4.808000087738037 C-171.80099487304688,10.612000465393066 -185.947998046875,3.4119999408721924 -198.0709991455078,-7.390999794006348 C-202.06700134277344,-10.95199966430664 -208.36900329589844,-9.60099983215332 -210.62399291992188,-4.747000217437744 C-268.6629943847656,120.18599700927734 -192.65699768066406,161.4810028076172 -111.6719970703125,220.66400146484375 C15.118000030517578,320.0830078125 279.4590148925781,57.81999969482422 235.48399353027344,-71.43299865722656z M172.29800415039062,-92.72599792480469 C165.90699768066406,-89.42900085449219 160.73800659179688,-86.99099731445312 152.66000366210938,-81.08599853515625 C151.29400634765625,-80.08699798583984 150.2969970703125,-78.66899871826172 149.7830047607422,-77.05599975585938 C115.73899841308594,29.856000900268555 11.147000312805176,129.8159942626953 -94.25599670410156,158.29200744628906 C-96.03800201416016,158.7729949951172 -97.5999984741211,159.84500122070312 -98.68399810791016,161.33799743652344 C-104.28099822998047,169.04800415039062 -106.64199829101562,174.01199340820312 -110.0250015258789,180.56500244140625 C-113.96700286865234,188.20199584960938 -125.55799865722656,185.16900634765625 -125.30000305175781,176.5959930419922 C-121.19200134277344,47.91400146484375 42.220001220703125,-103.9729995727539 168.32000732421875,-107.9990005493164 C176.91700744628906,-108.27400207519531 179.9029998779297,-96.6500015258789 172.29800415039062,-92.72599792480469z"></path></g><g opacity="1" transform="matrix(1,0,0,1,0,0)"><path fill="rgb(0,0,0)" fill-opacity="1" d=" M-160.2469940185547,-25.964000701904297 C-160.2469940185547,-25.964000701904297 -73.93800354003906,-50.59299850463867 -73.93800354003906,-50.59299850463867 C-68.53099822998047,-52.13600158691406 -64.28399658203125,-56.47100067138672 -62.854000091552734,-61.909000396728516 C-62.854000091552734,-61.909000396728516 -38.51499938964844,-154.45700073242188 -38.51499938964844,-154.45700073242188 C-37.108001708984375,-159.80799865722656 -38.61199951171875,-165.61099243164062 -42.44200134277344,-169.60299682617188 C-42.44200134277344,-169.60299682617188 -105.51599884033203,-235.35499572753906 -105.51599884033203,-235.35499572753906 C-108.58200073242188,-238.55099487304688 -112.75399780273438,-240.2830047607422 -117.0459976196289,-240.2830047607422 C-118.51399993896484,-240.2830047607422 -119.99600219726562,-240.08099365234375 -121.4530029296875,-239.6649932861328 C-121.4530029296875,-239.6649932861328 -207.76199340820312,-215.03599548339844 -207.76199340820312,-215.03599548339844 C-213.16900634765625,-213.4929962158203 -217.4149932861328,-209.1580047607422 -218.84500122070312,-203.72000122070312 C-218.84500122070312,-203.72000122070312 -243.18499755859375,-111.1719970703125 -243.18499755859375,-111.1719970703125 C-244.5919952392578,-105.82099914550781 -243.08700561523438,-100.01799774169922 -239.25799560546875,-96.0260009765625 C-239.25799560546875,-96.0260009765625 -176.1840057373047,-30.273000717163086 -176.1840057373047,-30.273000717163086 C-172.07000732421875,-25.983999252319336 -165.96299743652344,-24.33300018310547 -160.2469940185547,-25.964000701904297z"></path></g></g></g></svg>