<svg xmlns="http://www.w3.org/2000/svg" xmlns:xlink="http://www.w3.org/1999/xlink" viewBox="0 0 512 512" width="512" height="512" style="width: 100%; height: 100%; transform: translate3d(0,0,0);" preserveAspectRatio="xMidYMid meet"><defs><clipPath id="__lottie_element_53529"><rect width="512" height="512" x="0" y="0"></rect></clipPath></defs><g clip-path="url(#__lottie_element_53529)"><g style="display: block;" transform="matrix(1,0,0,1,7.3920135498046875,8.635986328125)" opacity="1"><g opacity="1" transform="matrix(1,0,0,1,239.01800537109375,247.8070068359375)"><path fill="rgb(0,0,0)" fill-opacity="1" d=" M-193.41000366210938,240.5570068359375 C-147.41000366210938,247.5570068359375 -118.06500244140625,200.43899536132812 9.140000343322754,149.5570068359375 C134.13999938964844,99.55699920654297 170.58999633789062,113.55699920654297 209.58999633789062,78.55699920654297 C238.76800537109375,52.37099838256836 204.427001953125,-63.44300079345703 190.58999633789062,-69.44300079345703 C174.8459930419922,-76.27100372314453 161.58999633789062,-27.44300079345703 94.58999633789062,2.556999921798706 C44.46799850463867,24.999000549316406 20.014999389648438,19.0310001373291 -28.40999984741211,43.55699920654297 C-105.41000366210938,82.55699920654297 -133.79200744628906,147.1750030517578 -143.41000366210938,137.5570068359375 C-151.41000366210938,129.5570068359375 -125.05699920654297,84.31999969482422 -78.41000366210938,46.55699920654297 C-36.40999984741211,12.557000160217285 -15.383000373840332,19.55699920654297 -8.40999984741211,3.556999921798706 C-0.5609999895095825,-14.45199966430664 -2.993000030517578,-58.28799819946289 23.59000015258789,-100.44300079345703 C50.691001892089844,-143.4199981689453 100.6520004272461,-164.5679931640625 106.58999633789062,-176.4429931640625 C116.58999633789062,-196.4429931640625 51.20800018310547,-247.55799865722656 12.59000015258789,-241.4429931640625 C-52.40299987792969,-231.15199279785156 -93.4219970703125,-136.44900512695312 -126.34400177001953,-59.762001037597656 C-155.7100067138672,8.640999794006348 -156.41000366210938,75.55699920654297 -165.41000366210938,75.55699920654297 C-170.89999389648438,75.55699920654297 -175.08900451660156,60.37900161743164 -166.41000366210938,28.55699920654297 C-163.41000366210938,17.55699920654297 -196.41000366210938,36.55699920654297 -213.41000366210938,69.55699920654297 C-230.86399841308594,103.43699645996094 -238.76800537109375,233.65499877929688 -193.41000366210938,240.5570068359375z"></path></g><g opacity="1" transform="matrix(1,0,0,1,379.21099853515625,145.19500732421875)"><path fill="rgb(0,0,0)" fill-opacity="1" d=" M-113.60299682617188,70.16999816894531 C-108.60299682617188,86.52300262451172 -77.60299682617188,10.170000076293945 -33.60300064086914,-0.8299999833106995 C-19.180999755859375,-4.434999942779541 -92.60299682617188,74.16999816894531 -86.60299682617188,84.16999816894531 C-82.00700378417969,91.8290023803711 -36.46900177001953,80.85900115966797 -5.603000164031982,50.16999816894531 C22.20199966430664,22.524999618530273 13.571000099182129,2.630000114440918 40.39699935913086,-19.829999923706055 C79.81199645996094,-52.83000183105469 120.39700317382812,-48.83000183105469 116.36399841308594,-67.3030014038086 C113.26499938964844,-81.49600219726562 -7.603000164031982,-91.83000183105469 -81.60299682617188,-13.829999923706055 C-108.2770004272461,14.28600025177002 -120.39800262451172,47.948001861572266 -113.60299682617188,70.16999816894531z"></path></g></g></g></svg>