<svg xmlns="http://www.w3.org/2000/svg" xmlns:xlink="http://www.w3.org/1999/xlink" viewBox="0 0 512 512" width="512" height="512" style="width: 100%; height: 100%; transform: translate3d(0,0,0);" preserveAspectRatio="xMidYMid meet"><defs><clipPath id="__lottie_element_52388"><rect width="512" height="512" x="0" y="0"></rect></clipPath></defs><g clip-path="url(#__lottie_element_52388)"><g style="display: block;" transform="matrix(1,0,0,1,255.99998474121094,256)" opacity="1"><g opacity="1" transform="matrix(1,0,0,1,0,0)"><path fill="rgb(0,0,0)" fill-opacity="1" d=" M225.19000244140625,-239.71499633789062 C109.63200378417969,-240.66000366210938 8.835000038146973,-201.69900512695312 -65.26000213623047,-149.51300048828125 C-73.8949966430664,-143.43099975585938 -74.25700378417969,-130.76499938964844 -66.08200073242188,-124.0770034790039 C-58.13999938964844,-117.58000183105469 -50.73400115966797,-111.1729965209961 -43.888999938964844,-104.9219970703125 C-37.10200119018555,-98.7239990234375 -44.400001525878906,-87.78399658203125 -52.72100067138672,-91.63200378417969 C-52.72100067138672,-91.63200378417969 -52.97600173950195,-91.75299835205078 -52.97600173950195,-91.75299835205078 C-112.01100158691406,-119.13999938964844 -157.2100067138672,-128.0590057373047 -177.12100219726562,-131.11000061035156 C-183.66900634765625,-132.11399841308594 -190.15199279785156,-128.98300170898438 -193.43800354003906,-123.23100280761719 C-193.43800354003906,-123.23100280761719 -229.28399658203125,-60.4900016784668 -229.28399658203125,-60.4900016784668 C-234.4929962158203,-51.37200164794922 -229.65499877929688,-39.792999267578125 -219.50799560546875,-37.090999603271484 C-219.50799560546875,-37.090999603271484 -175.69400024414062,-25.423999786376953 -175.69400024414062,-25.423999786376953 C-172.11099243164062,-11.656000137329102 -160.24600219726562,27.316999435424805 -132.197998046875,68.06300354003906 C-132.197998046875,68.06300354003906 -186.87600708007812,81.65399932861328 -186.87600708007812,81.65399932861328 C-192.62600708007812,83.08300018310547 -197.11399841308594,87.5719985961914 -198.54299926757812,93.3219985961914 C-198.54299926757812,93.3219985961914 -226.7169952392578,206.66600036621094 -226.7169952392578,206.66600036621094 C-229.62600708007812,218.3699951171875 -219.03399658203125,228.96200561523438 -207.3300018310547,226.05299377441406 C-207.3300018310547,226.05299377441406 -93.98500061035156,197.8800048828125 -93.98500061035156,197.8800048828125 C-88.23500061035156,196.4510040283203 -83.74600219726562,191.96200561523438 -82.31700134277344,186.21200561523438 C-82.31700134277344,186.21200561523438 -69.21700286865234,133.50900268554688 -69.21700286865234,133.50900268554688 C-43.79100036621094,152.13800048828125 -12.694999694824219,167.6699981689453 25.209999084472656,176.718994140625 C25.209999084472656,176.718994140625 36.426998138427734,218.84500122070312 36.426998138427734,218.84500122070312 C39.12900161743164,228.99200439453125 50.70800018310547,233.82899475097656 59.82600021362305,228.6199951171875 C59.82600021362305,228.6199951171875 125.16999816894531,191.28799438476562 125.16999816894531,191.28799438476562 C131.53700256347656,187.6510009765625 134.61599731445312,180.1510009765625 132.64199829101562,173.08900451660156 C132.64199829101562,173.08900451660156 114.3290023803711,107.56099700927734 114.3290023803711,107.56099700927734 C182.66299438476562,31.638999938964844 242.01800537109375,-83.94000244140625 241.0050048828125,-223.88400268554688 C240.94200134277344,-232.57899475097656 233.88499450683594,-239.6439971923828 225.19000244140625,-239.71499633789062z M33.11800003051758,-129.03500366210938 C98.12699890136719,-194.04400634765625 192.58599853515625,-95.71800231933594 127.51000213623047,-30.642000198364258 C62.500999450683594,34.367000579833984 -31.95800018310547,-63.95899963378906 33.11800003051758,-129.03500366210938z"></path></g></g></g></svg>