<svg xmlns="http://www.w3.org/2000/svg" xmlns:xlink="http://www.w3.org/1999/xlink" viewBox="0 0 512 512" width="512" height="512" style="width: 100%; height: 100%; transform: translate3d(0,0,0);" preserveAspectRatio="xMidYMid meet"><defs><clipPath id="__lottie_element_53080"><rect width="512" height="512" x="0" y="0"></rect></clipPath></defs><g clip-path="url(#__lottie_element_53080)"><g style="display: block;" transform="matrix(1,0,0,1,256,256)" opacity="1"><g opacity="1" transform="matrix(1,0,0,1,0,0)"><path fill="rgb(0,0,0)" fill-opacity="1" d=" M124,-121.80000305175781 C106.75800323486328,-128.27499389648438 92.30999755859375,-121.3949966430664 82.8499984741211,-105.8489990234375 C71.80500030517578,-88.99500274658203 100.697998046875,-91.74400329589844 109.05000305175781,-87.39900207519531 C122.1449966430664,-84.85700225830078 132.04400634765625,-78.8479995727539 140.35000610351562,-73.8499984741211 C148.9770050048828,-68.23400115966797 146.75100708007812,-53.43899917602539 137.8000030517578,-48.400001525878906 C105.35399627685547,-32.87300109863281 103.36000061035156,-63.83599853515625 55.500999450683594,-23.898000717163086 C-12.310999870300293,35.72200012207031 -41.09000015258789,-43.34700012207031 -99.79900360107422,-49.95399856567383 C-112.14600372314453,-51.66699981689453 -126.60800170898438,-34.000999450683594 -137.85000610351562,-34.5989990234375 C-154.32200622558594,-34.6609992980957 -147.74400329589844,-68.74099731445312 -138.4499969482422,-75.19999694824219 C-138.58299255371094,-75.33300018310547 -138.7169952392578,-75.4000015258789 -138.85000610351562,-75.4000015258789 C-125.63400268554688,-85.55699920654297 -107.56400299072266,-88.0009994506836 -90.0999984741211,-92.0999984741211 C-82.46700286865234,-93.76599884033203 -80.91699981689453,-98.23300170898438 -85.44999694824219,-105.5 C-102.5719985961914,-134.4810028076172 -128.91600036621094,-122.03800201416016 -152.05099487304688,-112.44999694824219 C-171.08399963378906,-103.51699829101562 -180.5330047607422,-92.6500015258789 -180.39999389648438,-79.8499984741211 C-180.2480010986328,-79.05500030517578 -180.197998046875,-9.359999656677246 -180,-5.849999904632568 C-249.27000427246094,17.18899917602539 -238.00799560546875,43.5629997253418 -238.2480010986328,94.7509994506836 C-238.38400268554688,141.71600341796875 -238.4499969482422,166.68299865722656 -238.4499969482422,169.64999389648438 C-227.7989959716797,271.0679931640625 82.33399963378906,255.8679962158203 158.1999969482422,231.39999389648438 C158.1999969482422,231.39999389648438 158,231.39999389648438 158,231.39999389648438 C213.39999389648438,216.26699829101562 239.5330047607422,195.68299865722656 236.39999389648438,169.64999389648438 C236.37899780273438,168.35699462890625 236.4149932861328,51.084999084472656 236.39999389648438,49.85200119018555 C239.13299560546875,27.450000762939453 220.18299865722656,9 179.5500030517578,-5.5 C179.5500030517578,-5.5 180.10000610351562,-68.5999984741211 180.10000610351562,-68.5999984741211 C180.10000610351562,-69.76699829101562 180.10000610351562,-70.98300170898438 180.10000610351562,-72.25 C180.10000610351562,-72.25 180.10000610351562,-74.80000305175781 180.10000610351562,-74.80000305175781 C183.3040008544922,-95.3499984741211 164.96200561523438,-110.74199676513672 124,-122.19999694824219 C124,-122.19999694824219 124,-121.80000305175781 124,-121.80000305175781 M143.25,91.4000015258789 C124.98999786376953,87.26499938964844 115.79199981689453,123.26200103759766 92.54900360107422,124.2490005493164 C82.08300018310547,125.91699981689453 73.48300170898438,123.9000015258789 66.75,118.19999694824219 C31.69499969482422,93.31099700927734 -7.579999923706055,161.7570037841797 -60.20000076293945,150.2469940185547 C-116.34200286865234,145.26300048828125 -120.20500183105469,92.5009994506836 -150.2989959716797,90.447998046875 C-165.93899536132812,88.46499633789062 -176.552001953125,122.41500091552734 -190.10000610351562,121.70099639892578 C-206.54400634765625,124.59100341796875 -208.78199768066406,64.48400115966797 -198.25,49.849998474121094 C-192.3520050048828,40.72700119018555 -182.2429962158203,38.08300018310547 -169.5,32.75 C-159.39999389648438,41.45000076293945 -142.38299560546875,48.766998291015625 -118.44999694824219,54.70000076293945 C-118.44999694824219,54.70000076293945 -118.6500015258789,54.70000076293945 -118.6500015258789,54.70000076293945 C-38.637001037597656,73.07099914550781 98.5530014038086,78.01699829101562 168.64999389648438,32.95000076293945 C185.88299560546875,37.349998474121094 196.31700134277344,42.016998291015625 199.9499969482422,46.95000076293945 C207.49000549316406,59.654998779296875 203.50900268554688,81.27200317382812 203.80099487304688,99.55000305175781 C203.67999267578125,125.88500213623047 176.54400634765625,117.7300033569336 164.60000610351562,105 C157.33299255371094,97.63300323486328 150.2169952392578,93.0999984741211 143.25,91.4000015258789 M101.9000015258789,-196.75 C104.15699768066406,-253.13099670410156 29.316999435424805,-267.82598876953125 -0.6000000238418579,-226.85000610351562 C-12.201000213623047,-242.72500610351562 -29.802000045776367,-250.36900329589844 -49.95000076293945,-250.35000610351562 C-106.92400360107422,-250.0260009765625 -114.51100158691406,-187.91900634765625 -89.3479995727539,-146.44900512695312 C-77.68199920654297,-126.16200256347656 -60.959999084472656,-108.95099639892578 -42.150001525878906,-94.80000305175781 C-42.150001525878906,-94.80000305175781 -41.79999923706055,-94.80000305175781 -41.79999923706055,-94.80000305175781 C-29.319000244140625,-85.22899627685547 -13.878000259399414,-76.63700103759766 -0.25,-75.19999694824219 C47.45100021362305,-81.77200317382812 102.0510025024414,-148.8520050048828 101.9000015258789,-196.75z"></path></g></g></g></svg>