<svg xmlns="http://www.w3.org/2000/svg" xmlns:xlink="http://www.w3.org/1999/xlink" viewBox="0 0 512 512" width="512" height="512" style="width: 100%; height: 100%; transform: translate3d(0,0,0);" preserveAspectRatio="xMidYMid meet"><defs><clipPath id="__lottie_element_53115"><rect width="512" height="512" x="0" y="0"></rect></clipPath></defs><g clip-path="url(#__lottie_element_53115)"><g style="display: block;" transform="matrix(1,0,0,1,12,0)" opacity="1"><g opacity="1" transform="matrix(1,0,0,1,248.9010009765625,251.6999969482422)"><g opacity="1" transform="matrix(1,0,0,1,0,0)"><path fill="rgb(4,5,52)" fill-opacity="1" d=" M0,-211.76300048828125 C-10.059000015258789,-211.55099487304688 -20.43400001525879,-211.34100341796875 -22.124000549316406,-210.0709991455078 C-25.513999938964844,-207.531005859375 -25.513999938964844,-180.42100524902344 -25.513999938964844,-180.42100524902344 C-25.513999938964844,-180.42100524902344 -48.38399887084961,-175.34100341796875 -51.77399826049805,-178.7310028076172 C-55.16400146484375,-182.12100219726562 -56.013999938964844,-207.531005859375 -57.70399856567383,-210.0709991455078 C-59.39400100708008,-212.61099243164062 -93.28399658203125,-211.76100158691406 -97.51399993896484,-204.14100646972656 C-101.75399780273438,-196.52099609375 -106.83399963378906,-150.781005859375 -102.59400177001953,-142.30099487304688 C-98.36399841308594,-133.83099365234375 -66.17400360107422,-123.6709976196289 -65.3239974975586,-109.27100372314453 C-64.48400115966797,-94.87100219726562 -86.50399780273438,101.64900207519531 -125.4739990234375,124.51899719238281 C-134.50399780273438,129.81900024414062 -169.51400756835938,138.06900024414062 -172.0540008544922,145.68899536132812 C-174.593994140625,153.31900024414062 -177.1439971923828,204.98899841308594 -167.82400512695312,209.218994140625 C-163.302001953125,211.2760009765625 -78.8949966430664,211.93800354003906 0,211.78199768066406 C78.8949966430664,211.93800354003906 163.302001953125,211.2760009765625 167.82400512695312,209.218994140625 C177.1439971923828,204.98899841308594 174.593994140625,153.31900024414062 172.0540008544922,145.68899536132812 C169.51400756835938,138.06900024414062 134.50399780273438,129.81900024414062 125.4739990234375,124.51899719238281 C86.50399780273438,101.64900207519531 64.48400115966797,-94.87100219726562 65.3239974975586,-109.27100372314453 C66.17400360107422,-123.6709976196289 98.36399841308594,-133.83099365234375 102.59400177001953,-142.30099487304688 C106.83399963378906,-150.781005859375 101.75399780273438,-196.52099609375 97.51399993896484,-204.14100646972656 C93.28399658203125,-211.76100158691406 59.39400100708008,-212.61099243164062 57.70399856567383,-210.0709991455078 C56.013999938964844,-207.531005859375 55.16400146484375,-182.12100219726562 51.77399826049805,-178.7310028076172 C48.38399887084961,-175.34100341796875 25.513999938964844,-180.42100524902344 25.513999938964844,-180.42100524902344 C25.513999938964844,-180.42100524902344 25.513999938964844,-207.531005859375 22.124000549316406,-210.0709991455078 C20.43400001525879,-211.34100341796875 10.059000015258789,-211.97500610351562 0,-211.76300048828125z"></path></g></g></g></g></svg>