<svg xmlns="http://www.w3.org/2000/svg" xmlns:xlink="http://www.w3.org/1999/xlink" viewBox="0 0 512 512" width="512" height="512" style="width: 100%; height: 100%; transform: translate3d(0,0,0);" preserveAspectRatio="xMidYMid meet"><defs><clipPath id="__lottie_element_53354"><rect width="512" height="512" x="0" y="0"></rect></clipPath></defs><g clip-path="url(#__lottie_element_53354)"><g style="display: block;" transform="matrix(2.962939977645874,0,0,2.962939977645874,2.8374481201171875,2.8374481201171875)" opacity="1"><g opacity="1" transform="matrix(1,0,0,1,87.50399780273438,85.41400146484375)"><path fill="rgb(0,0,0)" fill-opacity="1" d=" M-56.25699996948242,44.9640007019043 C-46.66400146484375,54.053001403808594 -29.875,50.770999908447266 -26.214000701904297,39.03099822998047 C-24.22100067138672,32.64099884033203 -24.19499969482422,21.989999771118164 -28.246999740600586,13.133999824523926 C-28.857999801635742,16.715999603271484 -29.382999420166016,20.31399917602539 -30.10700035095215,23.871999740600586 C-30.621999740600586,26.4060001373291 -31.243000030517578,28.940000534057617 -32.09199905395508,31.378999710083008 C-35.99300003051758,42.58000183105469 -46.06999969482422,41.025001525878906 -51.96500015258789,37.641998291015625 C-61.9379997253418,31.920000076293945 -66.81999969482422,6.8420000076293945 -66.81999969482422,6.8420000076293945 C-69.38300323486328,6.144999980926514 -81.56900024414062,4.980999946594238 -81.50499725341797,4.696000099182129 C-79.61100006103516,-3.756999969482422 -70.8759994506836,-9.11400032043457 -70.85800170898438,-9.14799976348877 C-70.85800170898438,-9.14799976348877 -74.2249984741211,-33.38399887084961 -62.625999450683594,-44.01100158691406 C-58.63100051879883,-47.672000885009766 -69.89600372314453,-50.143001556396484 -74.53600311279297,-54.347999572753906 C-82.97599792480469,-61.99700164794922 -81.23899841308594,-76.40599822998047 -67.74600219726562,-80.65799713134766 C-49.21500015258789,-86.4990005493164 -33.400001525878906,-77.43199920654297 -28.95800018310547,-58.53799819946289 C-28.634000778198242,-57.15999984741211 -27.64699935913086,-55.334999084472656 -26.492000579833984,-54.847999572753906 C-15.182999610900879,-50.08599853515625 -8.88599967956543,-40.90599822998047 -4.177999973297119,-30.226999282836914 C-3.802000045776367,-29.374000549316406 -3.305000066757202,-28.575000762939453 -2.8940000534057617,-27.805999755859375 C2.1659998893737793,-32.21200180053711 7.104000091552734,-36.369998931884766 11.831000328063965,-40.755001068115234 C12.67300033569336,-41.5359992980957 13.126999855041504,-43.224998474121094 12.991999626159668,-44.542999267578125 C10.645000457763672,-67.50900268554688 29.8700008392334,-78.55000305175781 49.45199966430664,-74.47100067138672 C63.284000396728516,-71.59100341796875 65.5009994506836,-59.8650016784668 65.5009994506836,-59.8650016784668 C65.5009994506836,-59.8650016784668 53.96900177001953,-52.58300018310547 50.40800094604492,-47.3120002746582 C47.58399963378906,-43.13199996948242 47.5629997253418,-39.875 47.67100143432617,-38.23400115966797 C49.388999938964844,-38.78799819946289 52.999000549316406,-41.808998107910156 54.44900131225586,-42.768001556396484 C62.23400115966797,-47.917999267578125 70.85900115966797,-51.47800064086914 70.85900115966797,-51.47800064086914 C70.85900115966797,-51.47800064086914 82.97699737548828,-31.195999145507812 67.43199920654297,-19.48699951171875 C67.43199920654297,-19.48699951171875 82.64099884033203,29.899999618530273 61.26499938964844,53.96799850463867 C51.266998291015625,65.22699737548828 32.56800079345703,79.29900360107422 14.168000221252441,81.89800262451172 C-22.579999923706055,87.08999633789062 -46.61399841308594,68.27100372314453 -56.25699996948242,44.9640007019043z M-28.312999725341797,-28.184999465942383 C-32.512001037597656,-28.176000595092773 -36.60900115966797,-23.714000701904297 -36.57600021362305,-18.92099952697754 C-36.54999923706055,-15.045000076293945 -34.40700149536133,-12.901000022888184 -30.523000717163086,-12.777000427246094 C-25.743999481201172,-12.62600040435791 -22.08799934387207,-16.5049991607666 -22.091999053955078,-21.55299949645996 C-22.09600067138672,-25.44700050354004 -24.672000885009766,-28.19300079345703 -28.312999725341797,-28.184999465942383z"></path></g></g></g></svg>