<svg xmlns="http://www.w3.org/2000/svg" xmlns:xlink="http://www.w3.org/1999/xlink" viewBox="0 0 512 512" width="512" height="512" style="width: 100%; height: 100%; transform: translate3d(0,0,0);" preserveAspectRatio="xMidYMid meet"><defs><clipPath id="__lottie_element_53839"><rect width="512" height="512" x="0" y="0"></rect></clipPath></defs><g clip-path="url(#__lottie_element_53839)"><g style="display: block;" transform="matrix(2.962939977645874,0,0,2.962939977645874,2.8374481201171875,2.8374481201171875)" opacity="1"><g opacity="1" transform="matrix(1,0,0,1,84.68900299072266,86.9530029296875)"><path fill="rgb(0,0,0)" fill-opacity="1" d=" M59.395999908447266,38.5369987487793 C59.395999908447266,38.5369987487793 58.22800064086914,23.01300048828125 58.22800064086914,23.01300048828125 C68.56900024414062,10.803999900817871 72.08000183105469,-5.314000129699707 65.19999694824219,-20.094999313354492 C63.766998291015625,-23.172000885009766 61.97700119018555,-26.148000717163086 61.04499816894531,-29.371000289916992 C60.31800079345703,-31.881000518798828 59.904998779296875,-34.94900131225586 60.67900085449219,-37.34000015258789 C63.20899963378906,-45.165000915527344 64.19499969482422,-52.9640007019043 62.73099899291992,-61.10100173950195 C60.3390007019043,-74.4010009765625 47.16999816894531,-83.875 35.90999984741211,-82.88899993896484 C34.428001403808594,-82.75900268554688 28.968000411987305,-81.51300048828125 30.19499969482422,-81.22599792480469 C39.81700134277344,-69.84300231933594 35.08100128173828,-57.196998596191406 28.788000106811523,-39.97999954223633 C26.2189998626709,-32.95100021362305 25.785999298095703,-27.198999404907227 28.854000091552734,-20.538000106811523 C32.880001068115234,-11.798999786376953 23.96500015258789,11.024999618530273 10.62600040435791,6.301000118255615 C2.111999988555908,3.2860000133514404 -2.8889999389648438,4.603000164031982 -9.616999626159668,5.60699987411499 C-17.724000930786133,6.815999984741211 -23.808000564575195,9.10200023651123 -31.94300079345703,10.086000442504883 C-36.83599853515625,10.678999900817871 -39.305999755859375,7.9079999923706055 -39.334999084472656,3.127000093460083 C-39.361000061035156,-1.1549999713897705 -39.4640007019043,-5.485000133514404 -38.900001525878906,-9.710000038146973 C-37.82500076293945,-17.753999710083008 -39.35200119018555,-24.600000381469727 -44.86800003051758,-31.003999710083008 C-47.930999755859375,-34.560001373291016 -50.2760009765625,-39.513999938964844 -50.981998443603516,-44.137001037597656 C-52.00199890136719,-50.82600021362305 -51.24300003051758,-57.7859992980957 -51.24300003051758,-66.12300109863281 C-53.28499984741211,-64.80899810791016 -63.81700134277344,-55.92300033569336 -67.0459976196289,-52.61199951171875 C-73.15299987792969,-46.349998474121094 -72.51799774169922,-38.262001037597656 -69.33499908447266,-30.65399932861328 C-65.697998046875,-21.961000442504883 -64.06400299072266,-11.446999549865723 -64.7020034790039,-2.003999948501587 C-66.36499786376953,22.615999221801758 -51.12799835205078,37.457000732421875 -26.476999282836914,35.13100051879883 C-21.857999801635742,34.69499969482422 -17.28700065612793,33.75699996948242 -12.668000221252441,33.345001220703125 C-11.123000144958496,33.20800018310547 -8.897000312805176,33.441001892089844 -7.999000072479248,34.42900085449219 C2.740000009536743,46.236000061035156 15.600000381469727,46.50600051879883 29.37700080871582,41.47100067138672 C33.676998138427734,39.900001525878906 39.617000579833984,36.67100143432617 44.52899932861328,34.36899948120117 C44.87200164794922,38.888999938964844 44.667999267578125,43.95600128173828 43.582000732421875,47.827999114990234 C37.064998626708984,48.86600112915039 31.392000198364258,49.76900100708008 24.6200008392334,50.84700012207031 C26.836000442504883,53.55699920654297 36.51100158691406,60.277000427246094 37.999000549316406,61.74100112915039 C37.999000549316406,61.74100112915039 36.52000045776367,66.7979965209961 32.19900131225586,73.37999725341797 C29.959999084472656,76.79100036621094 31.55699920654297,80.15499877929688 34.89799880981445,82.03099822998047 C38.198001861572266,83.88500213623047 43.74300003051758,84.40699768066406 46.19599914550781,80.7770004272461 C49.68299865722656,75.61699676513672 58.979000091552734,52.709999084472656 58.979000091552734,52.709999084472656 C59.5880012512207,52.34600067138672 73.1520004272461,43.678001403808594 73.1520004272461,43.678001403808594 C73.1520004272461,43.678001403808594 61.553001403808594,39.395999908447266 59.395999908447266,38.5369987487793z"></path></g><g opacity="1" transform="matrix(1,0,0,1,76.05799865722656,45.573001861572266)"><path fill="rgb(0,0,0)" fill-opacity="1" d=" M-27.687999725341797,5.104000091552734 C-22.83799934387207,9.434000015258789 -20.42799949645996,13.0649995803833 -23.086999893188477,19.85300064086914 C-25.826000213623047,26.84600067138672 -24.95400047302246,34.15800094604492 -18.743000030517578,39.483001708984375 C-12.411999702453613,44.9109992980957 -4.848999977111816,42.678001403808594 1.8609999418258667,38.94900131225586 C9.744999885559082,34.56700134277344 17.176000595092773,37.722999572753906 24.398000717163086,32.25899887084961 C29.67799949645996,27.117000579833984 27.913999557495117,22.575000762939453 27.589000701904297,19.239999771118164 C27.025999069213867,13.458999633789062 29.374000549316406,3.98799991607666 31.899999618530273,-3.5880000591278076 C34.54100036621094,-11.510000228881836 39.40399932861328,-31.934999465942383 27.902999877929688,-37.29600143432617 C23.52899932861328,-40.03799819946289 18.1560001373291,-42.08100128173828 13.003999710083008,-42.9119987487793 C0.609000027179718,-44.9109992980957 -15.579999923706055,-34.89799880981445 -27.41699981689453,-24.867000579833984 C-39.40399932861328,-14.708000183105469 -37.755001068115234,-3.885999917984009 -27.687999725341797,5.104000091552734z M-7.38700008392334,-5.091000080108643 C-2.1429998874664307,-8.050999641418457 3.1449999809265137,-11.170999526977539 8.803999900817871,-13.083000183105469 C12.930999755859375,-14.47700023651123 15.934000015258789,-12.479999542236328 16.63800048828125,-8.246000289916992 C16.833999633789062,-7.068999767303467 16.70800018310547,-5.861999988555908 16.33300018310547,-4.729000091552734 C15.819000244140625,-3.181999921798706 15.156999588012695,-1.1469999551773071 14.229999542236328,0.7590000033378601 C10.954999923706055,7.498000144958496 7.572999954223633,14.190999984741211 4.001999855041504,20.777000427246094 C3.2960000038146973,22.079999923706055 1.8070000410079956,24.37299919128418 0.2919999957084656,23.82200050354004 C-1.3079999685287476,23.239999771118164 -0.7639999985694885,20.46500015258789 -0.6700000166893005,18.82200050354004 C-0.38600000739097595,13.871999740600586 0.3529999852180481,8.949000358581543 0.6449999809265137,3.999000072479248 C0.8939999938011169,-0.23600000143051147 -1.25,-1.1829999685287476 -5.188000202178955,-0.0949999988079071 C-6.8979997634887695,0.37700000405311584 -10.083000183105469,1.1490000486373901 -10.848999977111816,-0.6000000238418579 C-11.61299991607666,-2.3459999561309814 -8.902999877929688,-4.235000133514404 -7.38700008392334,-5.091000080108643z"></path></g></g></g></svg>