<svg xmlns="http://www.w3.org/2000/svg" xmlns:xlink="http://www.w3.org/1999/xlink" viewBox="0 0 512 512" width="512" height="512" style="width: 100%; height: 100%; transform: translate3d(0,0,0);" preserveAspectRatio="xMidYMid meet"><defs><clipPath id="__lottie_element_15731"><rect width="512" height="512" x="0" y="0"></rect></clipPath></defs><g clip-path="url(#__lottie_element_15731)"><g style="display: block;" transform="matrix(1,0,0,1,-0.733001708984375,9.486007690429688)" opacity="1"><g opacity="1" transform="matrix(1,0,0,1,197.46200561523438,148.88299560546875)"><path fill="rgb(0,0,0)" fill-opacity="1" d=" M-151.6739959716797,87.98500061035156 C-130.98500061035156,70.68499755859375 -147.39700317382812,28.628999710083008 -136.33799743652344,23.85300064086914 C-127.49800109863281,20.03499984741211 -119.71900177001953,44.417999267578125 -93.81600189208984,56.268001556396484 C-61.051998138427734,71.25499725341797 -2.2809998989105225,55.15299987792969 27.476999282836914,27.339000701904297 C53.611000061035156,2.9119999408721924 76.68399810791016,-39.000999450683594 64.4229965209961,-54.22100067138672 C53.659000396728516,-67.58200073242188 17.579999923706055,-57.99700164794922 -4.589000225067139,-44.46200180053711 C-30.844999313354492,-28.43000030517578 -48.349998474121094,-0.2840000092983246 -43.625999450683594,5.031000137329102 C-35.7140007019043,13.932000160217285 31.832000732421875,-44.196998596191406 40.72200012207031,-34.702999114990234 C46.840999603271484,-28.16699981689453 26.586000442504883,11.907999992370605 -9.468000411987305,28.732999801635742 C-49.8849983215332,47.59299850463867 -111.125,37.6879997253418 -121.6989974975586,6.426000118255615 C-133.3979949951172,-28.158000946044922 -80.71900177001953,-81.86900329589844 -51.292999267578125,-75.83000183105469 C-35.96699905395508,-72.68499755859375 -30.159000396728516,-53.9900016784668 -19.226999282836914,-56.3120002746582 C-6.956999778747559,-58.91899871826172 -9.961000442504883,-83.39299774169922 3.0789999961853027,-102.31999969482422 C26.32900047302246,-136.06500244140625 98.13800048828125,-148.63299560546875 142.49600219726562,-114.86799621582031 C145.19000244140625,-112.81800079345703 182.23500061035156,-83.86399841308594 178.04800415039062,-50.03799819946289 C174.70199584960938,-23 148.031005859375,-17.233999252319336 139.70799255371094,21.065000534057617 C134.6820068359375,44.196998596191406 140.7050018310547,59.15299987792969 135.5260009765625,60.79800033569336 C128.24899291992188,63.11000061035156 106.9260025024414,39.016998291015625 108.68800354003906,12.003000259399414 C109.98999786376953,-7.953000068664551 122.44599914550781,-15.619999885559082 120.19000244140625,-32.611000061035156 C117.44000244140625,-53.32600021362305 94.33300018310547,-67.91600036621094 90.91200256347656,-65.3740005493164 C88.02300262451172,-63.22700119018555 100.31999969482422,-49.70100021362305 102.76300048828125,-27.03499984741211 C104.96800231933594,-6.576000213623047 97.00700378417969,2.742000102996826 94.39800262451172,17.57900047302246 C86.02999877929688,65.16999816894531 144.7429962158203,95.01699829101562 134.1320037841797,119.35399627685547 C123.26300048828125,144.281005859375 51.44599914550781,136.40199279785156 35.84299850463867,134.69000244140625 C-21.23699951171875,128.42799377441406 -24.934999465942383,109.88999938964844 -62.446998596191406,113.7770004272461 C-108.32599639892578,118.53199768066406 -125.6719970703125,148.63299560546875 -153.0679931640625,136.781005859375 C-169.75100708007812,129.56399536132812 -182.23500061035156,110.21800231933594 -178.16299438476562,100.53199768066406 C-174.7729949951172,92.46700286865234 -162.3419952392578,96.90599822998047 -151.6739959716797,87.98500061035156z"></path></g><g opacity="1" transform="matrix(1,0,0,1,182.7259979248047,377.9679870605469)"><path fill="rgb(0,0,0)" fill-opacity="1" d=" M17.118000030517578,-68.60199737548828 C22.166000366210938,-60.5 -42.83100128173828,-24.68600082397461 -26.10099983215332,-21.201000213623047 C-8.187999725341797,-17.468000411987305 6.951000213623047,-44.0620002746582 50.577999114990234,-60.933998107910156 C74.79199981689453,-70.2979965209961 132.13800048828125,-74.8759994506836 161.4149932861328,-67.90599822998047 C181.9929962158203,-63.00600051879883 174.16799926757812,-26.464000701904297 170.4770050048828,-14.927000045776367 C160.29100036621094,16.917999267578125 103.05699920654297,86.01599884033203 51.97200012207031,98.697998046875 C36.297000885009766,102.58799743652344 7.921000003814697,109.63400268554688 -19.131000518798828,96.60700225830078 C-42.20899963378906,85.49400329589844 -37.75699996948242,69.48799896240234 -59.56100082397461,66.25700378417969 C-78.38300323486328,63.46900177001953 -160.63900756835938,104.125 -169.7010040283203,69.41899871826172 C-182.4759979248047,20.499000549316406 -146.02999877929688,7.776000022888184 -145.30299377441406,-4.46999979019165 C-143.60499572753906,-33.066001892089844 -174.1699981689453,-40.08000183105469 -149.50399780273438,-58.441001892089844 C-102.08399963378906,-93.74099731445312 -8.447999954223633,-109.63300323486328 17.118000030517578,-68.60199737548828z"></path></g><g opacity="1" transform="matrix(1,0,0,1,415.2659912109375,261.8330078125)"><path fill="rgb(0,0,0)" fill-opacity="1" d=" M-89.9469985961914,181.3719940185547 C-94.1719970703125,174.5070037841797 -38.790000915527344,147.92599487304688 -32.4370002746582,90.7509994506836 C-26.860000610351562,40.560001373291016 -60.125999450683594,24.195999145507812 -61.36600112915039,-27.05699920654297 C-63.45800018310547,-113.49600219726562 -20.989999771118164,-119.0790023803711 -15.357999801635742,-144.86399841308594 C-10.088000297546387,-168.99400329589844 -25.466999053955078,-184.94700622558594 -10.130999565124512,-194.70599365234375 C11.637999534606934,-208.5590057373047 94.1719970703125,-136.08900451660156 86.35399627685547,-92.43800354003906 C77.98999786376953,-45.731998443603516 34.50199890136719,-61.61800003051758 22.98200035095215,-27.05699920654297 C14.616000175476074,-1.9620000123977661 60.95199966430664,17.80500030517578 59.926998138427734,52.4109992980957 C57.138999938964844,146.51800537109375 -73.21700286865234,208.5590057373047 -89.9469985961914,181.3719940185547z"></path></g></g></g></svg>