<svg xmlns="http://www.w3.org/2000/svg" xmlns:xlink="http://www.w3.org/1999/xlink" viewBox="0 0 512 512" width="512" height="512" style="width: 100%; height: 100%; transform: translate3d(0,0,0);" preserveAspectRatio="xMidYMid meet"><defs><clipPath id="__lottie_element_9093"><rect width="512" height="512" x="0" y="0"></rect></clipPath></defs><g clip-path="url(#__lottie_element_9093)"><g style="display: block;" transform="matrix(1,0,0,1,8.115997314453125,16.102996826171875)" opacity="1"><g opacity="1" transform="matrix(1,0,0,1,240.47799682617188,236.4739990234375)"><path fill="rgb(0,0,0)" fill-opacity="1" d=" M-33.6510009765625,85.37899780273438 C-29.29800033569336,78.52999877929688 -92.74400329589844,54.36600112915039 -93.64800262451172,11.883000373840332 C-95.14800262451172,-58.612998962402344 -22.41900062561035,-87.70700073242188 -20.152000427246094,-108.11100006103516 C-17.152000427246094,-135.11000061035156 -50.917999267578125,-151.927001953125 -45.1510009765625,-179.60699462890625 C-37.6510009765625,-215.60499572753906 10.430999755859375,-236.2239990234375 44.84600067138672,-229.60499572753906 C83.84300231933594,-222.10499572753906 85.0780029296875,-206.9510040283203 106.84200286865234,-200.1060028076172 C120.52100372314453,-195.80499267578125 169.39100646972656,-203.1269989013672 183.33799743652344,-188.10699462890625 C202.83700561523438,-167.10800170898438 191.86099243164062,-149.58299255371094 197.83799743652344,-131.11000061035156 C203.33700561523438,-114.11100006103516 222.83599853515625,-120.11000061035156 234.83599853515625,-82.61199951171875 C240.22799682617188,-65.75900268554688 224.13699340820312,-43.895999908447266 209.33700561523438,-40.61399841308594 C192.00100708007812,-36.77000045776367 182.83799743652344,-84.61199951171875 145.33999633789062,-100.61100006103516 C130.1009979248047,-107.11299896240234 72.84400177001953,-112.61100006103516 74.84400177001953,-152.60899353027344 C75.33499908447266,-162.43899536132812 100.44100189208984,-155.86900329589844 117.94000244140625,-146.21099853515625 C135.43800354003906,-136.55299377441406 141.73699951171875,-119.13899993896484 153.83999633789062,-127.61000061035156 C168.83900451660156,-138.10899353027344 139.5570068359375,-162.5070037841797 111.34200286865234,-173.60800170898438 C79.79499816894531,-186.0189971923828 36.45899963378906,-176.9980010986328 30.84600067138672,-159.10800170898438 C26.239999771118164,-144.42799377441406 41.345001220703125,-109.61100006103516 87.84300231933594,-90.11199951171875 C117.2509994506836,-77.77999877929688 169.4709930419922,-90.2030029296875 167.83900451660156,-27.114999771118164 C167.33900451660156,-7.7779998779296875 139.34100341796875,-29.114999771118164 126.34200286865234,-12.616000175476074 C114.02999877929688,3.010999917984009 131.34100341796875,19.382999420166016 114.84200286865234,59.88100051879883 C99.59500122070312,97.30500030517578 79.54900360107422,90.8030014038086 83.34300231933594,107.87799835205078 C86.34300231933594,121.37799835205078 115.75,91.7750015258789 144.83999633789062,96.87899780273438 C173.33900451660156,101.87899780273438 182.02200317382812,124.32599639892578 177.83900451660156,135.3769989013672 C174.2030029296875,144.9810028076172 154.12100219726562,131.47300720214844 128.34100341796875,145.37600708007812 C103.4280014038086,158.81199645996094 104.41500091552734,176.49600219726562 66.84400177001953,178.375 C36.84600067138672,179.875 31.325000762939453,160.81399536132812 24.84600067138672,166.375 C9.119999885559082,179.875 64.447998046875,234.2570037841797 42.845001220703125,235.3719940185547 C26.34600067138672,236.2239990234375 -8.524999618530273,221.13499450683594 -37.6510009765625,185.375 C-59.53799819946289,158.5019989013672 -49.310001373291016,147.6790008544922 -63.650001525878906,139.3769989013672 C-92.14800262451172,122.87799835205078 -132.3679962158203,142.44400024414062 -189.1439971923828,138.3769989013672 C-214.69900512695312,136.54600524902344 -240.22799682617188,112.85199737548828 -230.14100646972656,104.37799835205078 C-217.64199829101562,93.87899780273438 -216.51499938964844,104.4000015258789 -197.64300537109375,102.37799835205078 C-181.88999938964844,100.69200134277344 -173.4530029296875,84.81099700927734 -149.64599609375,80.87999725341797 C-133.48599243164062,78.21099853515625 -162.17999267578125,60.944000244140625 -165.64500427246094,31.881999969482422 C-169.0989990234375,2.9110000133514404 -155.54400634765625,-19.81399917602539 -153.64599609375,-40.61399841308594 C-151.62600708007812,-62.73899841308594 -170.64500427246094,-72.61299896240234 -152.64500427246094,-81.61199951171875 C-137.1699981689453,-89.3499984741211 -121.37999725341797,-59.70100021362305 -115.14700317382812,-24.614999771118164 C-111.80000305175781,-5.7779998779296875 -123.64700317382812,11.883000373840332 -107.14800262451172,41.88199996948242 C-87.45800018310547,77.68099975585938 -37.474998474121094,91.39700317382812 -33.6510009765625,85.37899780273438z"></path></g></g></g></svg>