<svg xmlns="http://www.w3.org/2000/svg" xmlns:xlink="http://www.w3.org/1999/xlink" viewBox="0 0 512 512" width="512" height="512" style="width: 100%; height: 100%; transform: translate3d(0,0,0);" preserveAspectRatio="xMidYMid meet"><defs><clipPath id="__lottie_element_739"><rect width="512" height="512" x="0" y="0"></rect></clipPath></defs><g clip-path="url(#__lottie_element_739)"><g style="display: block;" transform="matrix(1,0,0,1,256,256)" opacity="1"><g opacity="1" transform="matrix(1,0,0,1,0,0)"><path fill="rgb(0,0,0)" fill-opacity="1" d=" M245.5679931640625,-116.47100067138672 C245.5679931640625,-116.47100067138672 116.47100067138672,-245.5679931640625 116.47100067138672,-245.5679931640625 C109.79199981689453,-252.2469940185547 100.73200225830078,-256 91.28600311279297,-256 C91.28600311279297,-256 -91.28600311279297,-256 -91.28600311279297,-256 C-100.73200225830078,-256 -109.79199981689453,-252.2469940185547 -116.47100067138672,-245.5679931640625 C-116.47100067138672,-245.5679931640625 -245.5679931640625,-116.47100067138672 -245.5679931640625,-116.47100067138672 C-252.2469940185547,-109.79199981689453 -256,-100.73200225830078 -256,-91.28600311279297 C-256,-91.28600311279297 -256,91.28600311279297 -256,91.28600311279297 C-256,100.73200225830078 -252.2469940185547,109.79199981689453 -245.5679931640625,116.47100067138672 C-245.5679931640625,116.47100067138672 -116.47100067138672,245.5679931640625 -116.47100067138672,245.5679931640625 C-109.79199981689453,252.2469940185547 -100.73200225830078,256 -91.28600311279297,256 C-91.28600311279297,256 91.28600311279297,256 91.28600311279297,256 C100.73200225830078,256 109.79199981689453,252.2469940185547 116.47100067138672,245.5679931640625 C116.47100067138672,245.5679931640625 245.5679931640625,116.47100067138672 245.5679931640625,116.47100067138672 C252.2469940185547,109.79199981689453 256,100.73200225830078 256,91.28600311279297 C256,91.28600311279297 256,-91.28600311279297 256,-91.28600311279297 C256,-100.73200225830078 252.2469940185547,-109.79199981689453 245.5679931640625,-116.47100067138672z M53.52199935913086,-240.2030029296875 C53.52199935913086,-240.2030029296875 87.36900329589844,-240.2030029296875 87.36900329589844,-240.2030029296875 C86.88099670410156,-238.18899536132812 84.37999725341797,-229.3260040283203 83.7040023803711,-226.88800048828125 C76.38099670410156,-226.88600158691406 69.05699920654297,-226.88800048828125 61.73400115966797,-226.88699340820312 C59.095001220703125,-226.88699340820312 57.69300079345703,-226.6490020751953 57.082000732421875,-224.44500732421875 C54.40999984741211,-214.80999755859375 51.736000061035156,-205.17300415039062 49.066001892089844,-195.53700256347656 C48.89500045776367,-194.91900634765625 48.98400115966797,-192.9320068359375 52.02399826049805,-192.93099975585938 C60,-192.9290008544922 67.97599792480469,-192.93099975585938 75.9520034790039,-192.9290008544922 C74.72100067138672,-188.48500061035156 73.48699951171875,-184.0399932861328 72.25399780273438,-179.5959930419922 C72.25399780273438,-179.5959930419922 38.354000091552734,-179.5959930419922 38.354000091552734,-179.5959930419922 C30.924999237060547,-179.5959930419922 26.194000244140625,-184.01499938964844 27.80900001525879,-189.8350067138672 C31.641000747680664,-203.64300537109375 35.4739990234375,-217.4510040283203 39.30799865722656,-231.25900268554688 C40.000999450683594,-233.7530059814453 41.176998138427734,-240.2030029296875 53.52199935913086,-240.2030029296875z M-11.239999771118164,-240.2030029296875 C-11.239999771118164,-240.2030029296875 33.37699890136719,-240.2030029296875 33.37699890136719,-240.2030029296875 C32.13800048828125,-235.76699829101562 30.913999557495117,-231.3260040283203 29.68000030517578,-226.88800048828125 C14.805999755859375,-226.88499450683594 -0.06599999964237213,-226.88600158691406 -14.9399995803833,-226.88699340820312 C-13.708000183105469,-231.3260040283203 -12.482999801635742,-235.76699829101562 -11.239999771118164,-240.2030029296875z M27.125999450683594,-217.6959991455078 C25.892000198364258,-213.2469940185547 24.656999588012695,-208.79800415039062 23.422000885009766,-204.35000610351562 C15.428000450134277,-204.3470001220703 7.434999942779541,-204.35000610351562 -0.5590000152587891,-204.34800720214844 C-2.8489999771118164,-196.09800720214844 -5.135000228881836,-187.8470001220703 -7.425000190734863,-179.5970001220703 C-7.425000190734863,-179.5970001220703 -7.283999919891357,-179.5959930419922 -7.283999919891357,-179.5959930419922 C-7.283999919891357,-179.5959930419922 -28.072999954223633,-179.5959930419922 -28.072999954223633,-179.5959930419922 C-24.54199981689453,-192.29400634765625 -21.025999069213867,-204.99600219726562 -17.500999450683594,-217.6959991455078 C-2.625,-217.697998046875 12.25,-217.69700622558594 27.125999450683594,-217.6959991455078z M-86.95700073242188,-190.8769989013672 C-82.39800262451172,-207.3179931640625 -77.83499908447266,-223.75999450683594 -73.27799987792969,-240.20199584960938 C-73.27799987792969,-240.20199584960938 -73.38200378417969,-240.2030029296875 -73.38200378417969,-240.2030029296875 C-73.38200378417969,-240.2030029296875 -52.619998931884766,-240.2030029296875 -52.619998931884766,-240.2030029296875 C-56.74399948120117,-225.375 -60.84600067138672,-210.54100036621094 -64.96600341796875,-195.71099853515625 C-65.25599670410156,-194.66600036621094 -64.87300109863281,-193.0070037841797 -62.39699935913086,-192.94200134277344 C-61.319000244140625,-192.91400146484375 -60.2400016784668,-192.93800354003906 -59.1609992980957,-192.92999267578125 C-55.45500183105469,-192.9010009765625 -54.65999984741211,-193.5449981689453 -54.21500015258789,-195.14599609375 C-50.03900146484375,-210.16400146484375 -45.882999420166016,-225.18699645996094 -41.70100021362305,-240.2030029296875 C-41.70100021362305,-240.2030029296875 -21.06100082397461,-240.2030029296875 -21.06100082397461,-240.2030029296875 C-25.54400062561035,-224.08599853515625 -35.104000091552734,-189.5709991455078 -35.6150016784668,-187.83200073242188 C-36.35200119018555,-185.3249969482422 -37.608001708984375,-179.5959930419922 -49.95800018310547,-179.5959930419922 C-49.95800018310547,-179.5959930419922 -76.69599914550781,-179.5959930419922 -76.69599914550781,-179.5959930419922 C-89.38600158691406,-179.5959930419922 -87.4739990234375,-189.01199340820312 -86.95700073242188,-190.8769989013672z M159.968994140625,54.23400115966797 C159.968994140625,61.9900016784668 156.947998046875,69.28199768066406 151.46299743652344,74.76599884033203 C151.46299743652344,74.76599884033203 74.76599884033203,151.46400451660156 74.76599884033203,151.46400451660156 C69.28099822998047,156.947998046875 61.98899841308594,159.96800231933594 54.23400115966797,159.96800231933594 C54.23400115966797,159.96800231933594 -54.23400115966797,159.96800231933594 -54.23400115966797,159.96800231933594 C-61.9900016784668,159.96800231933594 -69.28199768066406,156.94700622558594 -74.76499938964844,151.46299743652344 C-74.76499938964844,151.46299743652344 -151.46400451660156,74.76499938964844 -151.46400451660156,74.76499938964844 C-156.947998046875,69.28199768066406 -159.96800231933594,61.9900016784668 -159.96800231933594,54.23400115966797 C-159.96800231933594,54.23400115966797 -159.96800231933594,-54.23400115966797 -159.96800231933594,-54.23400115966797 C-159.96800231933594,-61.9900016784668 -156.94700622558594,-69.28199768066406 -151.46299743652344,-74.76499938964844 C-151.46299743652344,-74.76499938964844 -74.76499938964844,-151.46400451660156 -74.76499938964844,-151.46400451660156 C-69.28199768066406,-156.947998046875 -61.9900016784668,-159.96800231933594 -54.23400115966797,-159.96800231933594 C-54.23400115966797,-159.96800231933594 54.23400115966797,-159.96800231933594 54.23400115966797,-159.96800231933594 C61.98899841308594,-159.96800231933594 69.28099822998047,-156.947998046875 74.76499938964844,-151.46400451660156 C74.76499938964844,-151.46400451660156 151.46400451660156,-74.76499938964844 151.46400451660156,-74.76499938964844 C156.947998046875,-69.28199768066406 159.968994140625,-61.9900016784668 159.968994140625,-54.23400115966797 C159.968994140625,-54.23400115966797 159.968994140625,54.23400115966797 159.968994140625,54.23400115966797z"></path></g><g opacity="1" transform="matrix(1,0,0,1,0,0)"><path fill="rgb(0,0,0)" fill-opacity="1" d=" M137.83999633789062,-61.13999938964844 C137.83999633789062,-61.13999938964844 61.14099884033203,-137.83999633789062 61.14099884033203,-137.83999633789062 C59.29600143432617,-139.6840057373047 56.84299850463867,-140.7010040283203 54.23400115966797,-140.7010040283203 C54.23400115966797,-140.7010040283203 -54.23500061035156,-140.7010040283203 -54.23500061035156,-140.7010040283203 C-56.84400177001953,-140.7010040283203 -59.29600143432617,-139.68499755859375 -61.14099884033203,-137.84100341796875 C-61.14099884033203,-137.84100341796875 -137.84100341796875,-61.14099884033203 -137.84100341796875,-61.14099884033203 C-139.68499755859375,-59.29600143432617 -140.7010040283203,-56.84299850463867 -140.7010040283203,-54.23400115966797 C-140.7010040283203,-54.23400115966797 -140.7010040283203,54.23500061035156 -140.7010040283203,54.23500061035156 C-140.7010040283203,56.84400177001953 -139.68499755859375,59.29600143432617 -137.84100341796875,61.13999938964844 C-137.84100341796875,61.13999938964844 -61.14099884033203,137.83999633789062 -61.14099884033203,137.83999633789062 C-59.29600143432617,139.6840057373047 -56.84400177001953,140.7010040283203 -54.23500061035156,140.7010040283203 C-54.23500061035156,140.7010040283203 54.23400115966797,140.7010040283203 54.23400115966797,140.7010040283203 C56.84299850463867,140.7010040283203 59.29600143432617,139.68499755859375 61.141998291015625,137.83999633789062 C61.141998291015625,137.83999633789062 137.83900451660156,61.14099884033203 137.83900451660156,61.14099884033203 C139.68499755859375,59.29600143432617 140.7010040283203,56.84400177001953 140.7010040283203,54.23500061035156 C140.7010040283203,54.23500061035156 140.7010040283203,-54.23400115966797 140.7010040283203,-54.23400115966797 C140.7010040283203,-56.84299850463867 139.68499755859375,-59.29600143432617 137.83999633789062,-61.13999938964844z M-6.645999908447266,94.37799835205078 C-28.445999145507812,94.37799835205078 -47.05699920654297,90.9209976196289 -69.12200164794922,82.14900207519531 C-69.12200164794922,82.14900207519531 -69.12200164794922,36.95399856567383 -69.12200164794922,36.95399856567383 C-47.321998596191406,49.44900131225586 -29.510000228881836,52.106998443603516 -10.633999824523926,51.840999603271484 C6.9120001792907715,51.57500076293945 22.332000732421875,46.257999420166016 22.332000732421875,32.96500015258789 C22.332000732421875,22.33099937438965 12.494000434875488,18.077999114990234 -2.3929998874664307,18.077999114990234 C-2.3929998874664307,18.077999114990234 -33.23099899291992,18.077999114990234 -33.23099899291992,18.077999114990234 C-33.23099899291992,18.077999114990234 -32.965999603271484,-23.128999710083008 -32.965999603271484,-23.128999710083008 C-32.965999603271484,-23.128999710083008 -7.97599983215332,-22.86400032043457 -7.97599983215332,-22.86400032043457 C5.051000118255615,-22.597999572753906 15.154000282287598,-26.054000854492188 15.154000282287598,-36.422000885009766 C15.154000282287598,-46.525001525878906 5.581999778747559,-51.840999603271484 -12.76099967956543,-51.840999603271484 C-27.64900016784668,-51.840999603271484 -48.119998931884766,-46.257999420166016 -65.93199920654297,-34.29499816894531 C-65.93199920654297,-34.29499816894531 -65.93199920654297,-79.49099731445312 -65.93199920654297,-79.49099731445312 C-49.71500015258789,-88.7959976196289 -27.913999557495117,-94.37799835205078 -6.113999843597412,-94.37799835205078 C31.902999877929688,-94.37799835205078 61.678001403808594,-78.95800018310547 61.678001403808594,-44.13199996948242 C61.678001403808594,-25.256000518798828 51.57600021362305,-11.963000297546387 33.76300048828125,-5.848999977111816 C53.70199966430664,0.26600000262260437 69.12200164794922,14.88700008392334 69.12200164794922,40.941001892089844 C69.12200164794922,80.5530014038086 31.371000289916992,94.37799835205078 -6.645999908447266,94.37799835205078z"></path></g></g></g></svg>