<svg xmlns="http://www.w3.org/2000/svg" xmlns:xlink="http://www.w3.org/1999/xlink" viewBox="0 0 512 512" width="512" height="512" style="width: 100%; height: 100%; transform: translate3d(0,0,0);" preserveAspectRatio="xMidYMid meet"><defs><clipPath id="__lottie_element_51930"><rect width="512" height="512" x="0" y="0"></rect></clipPath></defs><g clip-path="url(#__lottie_element_51930)"><g style="display: block;" transform="matrix(1,0,0,1,258.71600341796875,251.09500122070312)" opacity="1"><g opacity="1" transform="matrix(1,0,0,1,0,94.13500213623047)"><path fill="rgb(0,0,0)" fill-opacity="1" d=" M198.5570068359375,-114.69599914550781 C115.88999938964844,-195.39999389648438 20.12700080871582,-119.19300079345703 20.12700080871582,-119.19300079345703 C20.12700080871582,-119.19300079345703 2.9719998836517334,39.65800094604492 2.9719998836517334,39.65800094604492 C2.4800000190734863,42.93000030517578 -2.2660000324249268,42.84199905395508 -2.63700008392334,39.55400085449219 C-2.63700008392334,39.55400085449219 -15.498000144958496,-119.19300079345703 -15.498000144958496,-119.19300079345703 C-15.498000144958496,-119.19300079345703 -111.26100158691406,-196.69900512695312 -193.9290008544922,-115.99500274658203 C-224.51100158691406,-86.13999938964844 -232.531005859375,-41.64099884033203 -163.7989959716797,85.59100341796875 C-167.28199768066406,89.22200012207031 -169.4340057373047,94.13999938964844 -169.4340057373047,99.56800079345703 C-169.4340057373047,99.56800079345703 -169.4340057373047,132.5030059814453 -169.4340057373047,132.5030059814453 C-169.4340057373047,143.66400146484375 -160.38600158691406,152.71200561523438 -149.22500610351562,152.71200561523438 C-149.22500610351562,152.71200561523438 151.54200744628906,152.71200561523438 151.54200744628906,152.71200561523438 C162.7030029296875,152.71200561523438 171.7519989013672,143.66400146484375 171.7519989013672,132.5030059814453 C171.7519989013672,132.5030059814453 171.7519989013672,99.56800079345703 171.7519989013672,99.56800079345703 C171.7519989013672,94.90699768066406 170.1580047607422,90.62699890136719 167.5070037841797,87.20800018310547 C221.92300415039062,-18.236000061035156 229.23699951171875,-84.74500274658203 198.5570068359375,-114.69599914550781z"></path></g><g opacity="1" transform="matrix(1,0,0,1,1.9550000429153442,-143.00399780273438)"><path fill="rgb(0,0,0)" fill-opacity="1" d=" M65.25700378417969,-57.915000915527344 C63.323001861572266,-66.13300323486328 20.301000595092773,-67.0989990234375 20.301000595092773,-67.0989990234375 C20.301000595092773,-67.0989990234375 9.666000366210938,-104.32099914550781 0.48100000619888306,-103.83799743652344 C-10.663999557495117,-103.2509994506836 -21.7549991607666,-67.0989990234375 -21.7549991607666,-67.0989990234375 C-21.7549991607666,-67.0989990234375 -62.2869987487793,-64.45700073242188 -65.26100158691406,-57.915000915527344 C-67.6780014038086,-52.597999572753906 -42.5620002746582,-31.542999267578125 -38.67399978637695,-31.81100082397461 C-24.655000686645508,-32.77799987792969 -5.815000057220459,-33.108001708984375 -5.815000057220459,-33.108001708984375 C-4.794000148773193,-33.14799880981445 -4.394999980926514,-31.799999237060547 -5.2729997634887695,-31.277999877929688 C-5.2729997634887695,-31.277999877929688 -35.290000915527344,-13.442000389099121 -35.290000915527344,-13.442000389099121 C-35.290000915527344,-13.442000389099121 -44.4739990234375,18.461999893188477 -36.7400016784668,21.36199951171875 C-31.09000015258789,23.481000900268555 -16.108999252319336,15.567000389099121 -8.701000213623047,10.298999786376953 C-8.701000213623047,10.298999786376953 -8.701000213623047,35.41600036621094 -8.701000213623047,35.41600036621094 C-23.81800079345703,39.17499923706055 -35.02399826049805,52.83300018310547 -35.02399826049805,69.11399841308594 C-35.02399826049805,88.29399871826172 -19.47599983215332,103.84200286865234 -0.29600000381469727,103.84200286865234 C18.884000778198242,103.84200286865234 34.43199920654297,88.29399871826172 34.43199920654297,69.11399841308594 C34.43199920654297,53.89699935913086 24.641000747680664,40.97600173950195 11.019000053405762,36.28200149536133 C11.019000053405762,36.28200149536133 11.019000053405762,11.657999992370605 11.019000053405762,11.657999992370605 C16.799999237060547,17.187000274658203 27.77899932861328,24.795000076293945 37.21900177001953,21.36199951171875 C47.854000091552734,17.4950008392334 37.21900177001953,-22.14299964904785 37.21900177001953,-22.14299964904785 C37.21900177001953,-22.14299964904785 67.95099639892578,-46.465999603271484 65.25700378417969,-57.915000915527344z"></path></g></g></g></svg>