<svg xmlns="http://www.w3.org/2000/svg" xmlns:xlink="http://www.w3.org/1999/xlink" viewBox="0 0 512 512" width="512" height="512" style="width: 100%; height: 100%; transform: translate3d(0,0,0);" preserveAspectRatio="xMidYMid meet"><defs><clipPath id="__lottie_element_53389"><rect width="512" height="512" x="0" y="0"></rect></clipPath></defs><g clip-path="url(#__lottie_element_53389)"><g style="display: block;" transform="matrix(1,0,0,1,-3.5839996337890625,28.080001831054688)" opacity="1"><g opacity="1" transform="matrix(1,0,0,1,259.5830078125,307.1080017089844)"><path fill="rgb(0,0,0)" fill-opacity="1" d=" M-215,-35.51300048828125 C-211.66700744628906,-43.749000549316406 -224.5399932861328,-52.284000396728516 -208.66700744628906,-80.80999755859375 C-189,-116.15499877929688 -123.83300018310547,-152.53199768066406 -83.83300018310547,-140.86199951171875 C-75.47000122070312,-138.4219970703125 -71.00199890136719,-106.2020034790039 -44.895999908447266,-81.8949966430664 C-36.12799835205078,-73.73100280761719 -54,-60.5629997253418 -53,-32.08100128173828 C-51.915000915527344,-1.1699999570846558 -19.695999145507812,24.684999465942383 10.666999816894531,20.2450008392334 C40,15.954999923706055 56.78300094604492,-9.807999610900879 56,-34.51300048828125 C55.5,-50.29800033569336 43.571998596191406,-62.58599853515625 36.5,-47.69499969482422 C25.5,-24.531999588012695 -4.104000091552734,-132.4429931640625 60.66699981689453,-147.8979949951172 C111,-159.9080047607422 206.33399963378906,-103.8010025024414 216,-53.356998443603516 C220.94500732421875,-27.549999237060547 213.58700561523438,-23.51300048828125 219.33299255371094,-20.070999145507812 C256,1.8919999599456787 252.33299255371094,53.3650016784668 245,81.50399780273438 C236.04800415039062,115.85399627685547 188.33299255371094,156.65699768066406 123.66699981689453,160.7740020751953 C86.68800354003906,163.1280059814453 53.236000061035156,151.11599731445312 52.33300018310547,132.63499450683594 C51.61399841308594,117.91799926757812 96,103.81300354003906 116,45.698001861572266 C133.04100036621094,-3.818000078201294 114.64700317382812,-23.73699951171875 108.66699981689453,-22.472999572753906 C103.97100067138672,-21.481000900268555 109.51300048828125,-14.729999542236328 94.33300018310547,26.941999435424805 C72.33300018310547,87.33799743652344 -19.719999313354492,166.81199645996094 -127,163.1750030517578 C-238.33299255371094,159.4010009765625 -260,55.768001556396484 -243.33299255371094,10.128000259399414 C-235.04200744628906,-12.576000213623047 -218.97999572753906,-25.67799949645996 -215,-35.51300048828125z"></path></g><g opacity="1" transform="matrix(1,0,0,1,268.4830017089844,143.9199981689453)"><path fill="rgb(0,0,0)" fill-opacity="1" d=" M6.769999980926514,-163.6699981689453 C-15.899999618530273,-163.6699981689453 -68.10800170898438,-59.21900177001953 -59.900001525878906,2.424999952316284 C-53.22999954223633,52.51900100708008 -22.275999069213867,77.8949966430664 -23.56999969482422,85.46299743652344 C-24.920000076293945,93.35900115966797 -35.7400016784668,98.5790023803711 -35.06999969482422,121.22699737548828 C-34.459999084472656,141.8470001220703 -19.899999618530273,154.00100708007812 1.7699999809265137,154.78799438476562 C26.083999633789062,155.6719970703125 33.893001556396484,134.65199279785156 34.099998474121094,118.75599670410156 C34.43000030517578,93.35900115966797 24.427000045776367,93.35800170898438 26.43000030517578,86.49199676513672 C28.639999389648438,78.91500091552734 46.255001068115234,57.77899932861328 57.43000030517578,2.424999952316284 C68.0999984741211,-50.428001403808594 25.43000030517578,-163.6699981689453 6.769999980926514,-163.6699981689453z M13.789999961853027,11.70199966430664 C13.17300033569336,24.160999298095703 -5.340000152587891,22.954999923706055 -6.209000110626221,11.92300033569336 C-8.70300006866455,-19.73200035095215 -9.053000450134277,-46.49599838256836 -5.340000152587891,-78.46399688720703 C-3.8320000171661377,-91.447998046875 13.503000259399414,-94.2030029296875 14.338000297546387,-78.00499725341797 C15.946000099182129,-46.79999923706055 15.309000015258789,-18.979000091552734 13.789999961853027,11.70199966430664z"></path></g></g></g></svg>