<svg xmlns="http://www.w3.org/2000/svg" xmlns:xlink="http://www.w3.org/1999/xlink" viewBox="0 0 512 512" width="512" height="512" style="width: 100%; height: 100%; transform: translate3d(0,0,0);" preserveAspectRatio="xMidYMid meet"><defs><clipPath id="__lottie_element_14422"><rect width="512" height="512" x="0" y="0"></rect></clipPath></defs><g clip-path="url(#__lottie_element_14422)"><g style="display: block;" transform="matrix(1,0,0,1,256,256)" opacity="1"><g opacity="1" transform="matrix(1,0,0,1,0,0)"><path stroke-linecap="round" stroke-linejoin="round" fill-opacity="0" stroke="rgb(0,0,0)" stroke-opacity="1" stroke-width="40" d=" M-225.39500427246094,-71.66200256347656 C-219.51300048828125,-49.922000885009766 -206.18499755859375,-32.619998931884766 -183.78599548339844,-22.402999877929688 C-161.38699340820312,-12.185999870300293 -139.58399963378906,-13.463000297546387 -119.31099700927734,-23.27400016784668 C-125.19200134277344,-45.01499938964844 -138.52200317382812,-62.316001892089844 -160.92100524902344,-72.53299713134766 C-183.32000732421875,-82.75 -205.1219940185547,-81.4729995727539 -225.39500427246094,-71.66200256347656z"></path></g><g opacity="1" transform="matrix(1,0,0,1,0,0)"><path stroke-linecap="round" stroke-linejoin="round" fill-opacity="0" stroke="rgb(0,0,0)" stroke-opacity="1" stroke-width="40" d=" M225.39500427246094,-71.66200256347656 C219.51300048828125,-49.922000885009766 206.18499755859375,-32.619998931884766 183.78599548339844,-22.402999877929688 C161.38699340820312,-12.185999870300293 139.58399963378906,-13.463000297546387 119.31099700927734,-23.27400016784668 C125.19200134277344,-45.01499938964844 138.52200317382812,-62.316001892089844 160.92100524902344,-72.53299713134766 C183.32000732421875,-82.75 205.1219940185547,-81.4729995727539 225.39500427246094,-71.66200256347656z"></path></g><g opacity="1" transform="matrix(1,0,0,1,0,0)"><path fill="rgb(0,0,0)" fill-opacity="1" d=" M0,-59.064998626708984 C-127.87799835205078,-59.064998626708984 -182.63999938964844,11.043000221252441 -182.63999938964844,89.31099700927734 C-182.63999938964844,198.16400146484375 -88.85800170898438,237.68699645996094 0,237.68699645996094 C127.87799835205078,237.68699645996094 182.63999938964844,167.57899475097656 182.63999938964844,89.31099700927734 C182.63999938964844,6.320000171661377 122.39099884033203,-59.064998626708984 0,-59.064998626708984z M-90.6259994506836,44.8849983215332 C-90.6259994506836,31.077999114990234 -79.43299865722656,19.885000228881836 -65.6259994506836,19.885000228881836 C-51.819000244140625,19.885000228881836 -40.625999450683594,31.077999114990234 -40.625999450683594,44.8849983215332 C-40.625999450683594,58.69200134277344 -51.819000244140625,69.88500213623047 -65.6259994506836,69.88500213623047 C-79.43299865722656,69.88500213623047 -90.6259994506836,58.69200134277344 -90.6259994506836,44.8849983215332z M0,166.2760009765625 C-29.882999420166016,166.2760009765625 -48.8380012512207,148.6219940185547 -48.8380012512207,126.84500122070312 C-48.8380012512207,105.06800079345703 -29.882999420166016,87.41500091552734 0,87.41500091552734 C29.882999420166016,87.41500091552734 48.8380012512207,105.06800079345703 48.8380012512207,126.84500122070312 C48.8380012512207,148.6219940185547 29.882999420166016,166.2760009765625 0,166.2760009765625z M65.6259994506836,69.88500213623047 C51.819000244140625,69.88500213623047 40.625999450683594,58.69200134277344 40.625999450683594,44.8849983215332 C40.625999450683594,31.077999114990234 51.819000244140625,19.885000228881836 65.6259994506836,19.885000228881836 C79.43299865722656,19.885000228881836 90.6259994506836,31.077999114990234 90.6259994506836,44.8849983215332 C90.6259994506836,58.69200134277344 79.43299865722656,69.88500213623047 65.6259994506836,69.88500213623047z"></path></g><g opacity="1" transform="matrix(1,0,0,1,0,0)"><path stroke-linecap="round" stroke-linejoin="round" fill-opacity="0" stroke="rgb(0,0,0)" stroke-opacity="1" stroke-width="40" d=" M-69.6259994506836,-26.871000289916992 C-141.73500061035156,-105.11199951171875 -96.10099792480469,-221.4770050048828 -96.10099792480469,-221.4770050048828"></path></g><g opacity="1" transform="matrix(1,0,0,1,0,0)"><path stroke-linecap="round" stroke-linejoin="round" fill-opacity="0" stroke="rgb(0,0,0)" stroke-opacity="1" stroke-width="40" d=" M-108.61299896240234,-112.73300170898438 C-68.322998046875,-112.73300170898438 -43.750999450683594,-129.49400329589844 -30.988000869750977,-142.06500244140625"></path></g><g opacity="1" transform="matrix(1,0,0,1,0,0)"><path stroke-linecap="round" stroke-linejoin="round" fill-opacity="0" stroke="rgb(0,0,0)" stroke-opacity="1" stroke-width="40" d=" M-109.39700317382812,-160.1999969482422 C-138.79800415039062,-164.97300720214844 -146.20599365234375,-182.4040069580078 -146.20599365234375,-182.4040069580078"></path></g><g opacity="1" transform="matrix(1,0,0,1,0,0)"><path stroke-linecap="round" stroke-linejoin="round" fill-opacity="0" stroke="rgb(0,0,0)" stroke-opacity="1" stroke-width="40" d=" M69.6259994506836,-26.871000289916992 C141.73500061035156,-105.11199951171875 96.10099792480469,-221.4770050048828 96.10099792480469,-221.4770050048828"></path></g><g opacity="1" transform="matrix(1,0,0,1,0,0)"><path stroke-linecap="round" stroke-linejoin="round" fill-opacity="0" stroke="rgb(0,0,0)" stroke-opacity="1" stroke-width="40" d=" M108.61299896240234,-112.73300170898438 C68.322998046875,-112.73300170898438 43.750999450683594,-129.49400329589844 30.988000869750977,-142.06500244140625"></path></g><g opacity="1" transform="matrix(1,0,0,1,0,0)"><path stroke-linecap="round" stroke-linejoin="round" fill-opacity="0" stroke="rgb(0,0,0)" stroke-opacity="1" stroke-width="40" d=" M109.39700317382812,-160.1999969482422 C138.79800415039062,-164.97300720214844 146.20599365234375,-182.4040069580078 146.20599365234375,-182.4040069580078"></path></g></g></g></svg>