<svg xmlns="http://www.w3.org/2000/svg" xmlns:xlink="http://www.w3.org/1999/xlink" viewBox="0 0 512 512" width="512" height="512" style="width: 100%; height: 100%; transform: translate3d(0,0,0);" preserveAspectRatio="xMidYMid meet"><defs><clipPath id="__lottie_element_52453"><rect width="512" height="512" x="0" y="0"></rect></clipPath></defs><g clip-path="url(#__lottie_element_52453)"><g style="display: block;" transform="matrix(1,0,0,1,258.6099853515625,259.29400634765625)" opacity="1"><g opacity="1" transform="matrix(1,0,0,1,0,0)"><path fill="rgb(4,5,52)" fill-opacity="1" d=" M156.81500244140625,46.42499923706055 C201.78500366210938,36.29499816894531 238.06500244140625,1.5850000381469727 241.47500610351562,-19.485000610351562 C233.26499938964844,-44.73500061035156 205.69500732421875,-58.334999084472656 205.69500732421875,-58.334999084472656 C205.69500732421875,-58.334999084472656 220.0050048828125,-85.54499816894531 211.80499267578125,-110.79499816894531 C195.14500427246094,-127.34500122070312 136.61500549316406,-133.86500549316406 92.13500213623047,-108.125 C89.65499877929688,-106.69499969482422 87.13500213623047,-105.125 84.58499908447266,-103.43499755859375 C84.56500244140625,-103.42500305175781 84.54499816894531,-103.40499877929688 84.5250015258789,-103.3949966430664 C22.165000915527344,-58.42499923706055 8.6850004196167,-23.78499984741211 8.274999618530273,-22.71500015258789 C18.295000076293945,-76.79499816894531 84.5250015258789,-128.9250030517578 84.5250015258789,-128.9250030517578 C88.78500366210938,-174.8249969482422 66.98500061035156,-220.05499267578125 47.994998931884766,-229.80499267578125 C21.454999923706055,-229.80499267578125 -0.004999999888241291,-207.78500366210938 -0.004999999888241291,-207.78500366210938 C-0.004999999888241291,-207.78500366210938 -21.46500015258789,-229.80499267578125 -48.005001068115234,-229.80499267578125 C-68.8949966430664,-219.0749969482422 -93.18499755859375,-165.4250030517578 -82.45500183105469,-115.17500305175781 C-81.8550033569336,-112.375 -81.13500213623047,-109.48500061035156 -80.32499694824219,-106.53500366210938 C-80.31500244140625,-106.49500274658203 -80.30500030517578,-106.46499633789062 -80.28500366210938,-106.42500305175781 C-56.42499923706055,-32.095001220703125 -27.104999542236328,-9.005000114440918 -27.104999542236328,-9.005000114440918 C-75.07499694824219,-35.03499984741211 -104.125,-113.13500213623047 -104.57499694824219,-114.3550033569336 C-104.58499908447266,-114.36499786376953 -104.58499908447266,-114.36499786376953 -104.58499908447266,-114.36499786376953 C-146.9250030517578,-132.59500122070312 -196.6750030517578,-125.83499908447266 -211.81500244140625,-110.79499816894531 C-220.01499938964844,-85.54499816894531 -205.7050018310547,-58.334999084472656 -205.7050018310547,-58.334999084472656 C-205.7050018310547,-58.334999084472656 -233.27499389648438,-44.73500061035156 -241.47500610351562,-19.485000610351562 C-237.73500061035156,3.694999933242798 -194.21499633789062,43.3650016784668 -143.09500122070312,48.69499969482422 C-140.2550048828125,48.994998931884766 -137.2949981689453,49.20500183105469 -134.23500061035156,49.334999084472656 C-134.23500061035156,49.334999084472656 -134.19500732421875,49.334999084472656 -134.19500732421875,49.334999084472656 C-57.275001525878906,49.625 -25.9950008392334,29.5049991607666 -25.045000076293945,28.875 C-64.94499969482422,66.74500274658203 -149.1649932861328,69.99500274658203 -149.1649932861328,69.99500274658203 C-179.59500122070312,104.625 -188.5449981689453,154.02499389648438 -178.90499877929688,173.0749969482422 C-157.43499755859375,188.68499755859375 -127.13500213623047,183.47500610351562 -127.13500213623047,183.47500610351562 C-127.13500213623047,183.47500610351562 -122.71499633789062,213.90499877929688 -101.24500274658203,229.5050048828125 C-78.03500366210938,233.10499572753906 -26.854999542236328,203.97500610351562 -5.994999885559082,157.01499938964844 C-4.835000038146973,154.39500427246094 -3.7149999141693115,151.64500427246094 -2.6449999809265137,148.77499389648438 C-2.634999990463257,148.73500061035156 -2.615000009536743,148.69500732421875 -2.6050000190734863,148.65499877929688 C21.424999237060547,75.54499816894531 11.914999961853027,39.625 11.645000457763672,38.6150016784668 C35.32500076293945,88.25499725341797 12.385000228881836,169.36500549316406 12.385000228881836,169.36500549316406 C35.915000915527344,209.0050048828125 80.13500213623047,232.77499389648438 101.23500061035156,229.5050048828125 C122.70500183105469,213.90499877929688 127.125,183.47500610351562 127.125,183.47500610351562 C127.125,183.47500610351562 157.4250030517578,188.68499755859375 178.90499877929688,173.0749969482422 C189.4949951171875,152.11500549316406 177.61500549316406,94.44499969482422 139.38499450683594,60.095001220703125 C137.21499633789062,58.14500045776367 134.89500427246094,56.19499969482422 132.4550018310547,54.255001068115234 C132.44500732421875,54.244998931884766 132.44500732421875,54.244998931884766 132.43499755859375,54.23500061035156 C69.4749984741211,8.1850004196167 32.21500015258789,6.735000133514404 32.21500015258789,6.735000133514404 C86.74500274658203,-0.4650000035762787 156.81500244140625,46.42499923706055 156.81500244140625,46.42499923706055z M-58.345001220703125,-2.7049999237060547 C-58.35499954223633,-2.7049999237060547 -58.35499954223633,-2.7049999237060547 -58.35499954223633,-2.7049999237060547 C-61.44499969482422,-0.02500000037252903 -65.56500244140625,1.065000057220459 -69.42500305175781,-0.1850000023841858 C-75.6050033569336,-2.194999933242798 -78.79499816894531,-9.4350004196167 -76.54499816894531,-16.364999771118164 C-74.28500366210938,-23.30500030517578 -67.45500183105469,-27.28499984741211 -61.275001525878906,-25.274999618530273 C-57.404998779296875,-24.014999389648438 -54.71500015258789,-20.71500015258789 -53.79499816894531,-16.725000381469727 C-53.79499816894531,-16.725000381469727 -53.78499984741211,-16.725000381469727 -53.78499984741211,-16.725000381469727 C-41.23500061035156,-7.994999885559082 -12.154999732971191,4.454999923706055 -11.244999885559082,4.84499979019165 C-35.6150016784668,-1.9049999713897705 -57.724998474121094,-2.684999942779541 -58.345001220703125,-2.7049999237060547z M-29.71500015258789,71.83499908447266 C-33.53499984741211,77.09500122070312 -41.404998779296875,77.8949966430664 -47.30500030517578,73.6050033569336 C-53.20500183105469,69.32499694824219 -54.875,61.595001220703125 -51.05500030517578,56.334999084472656 C-48.67499923706055,53.04499816894531 -44.69499969482422,51.505001068115234 -40.6150016784668,51.8650016784668 C-40.6150016784668,51.8650016784668 -40.6150016784668,51.85499954223633 -40.6150016784668,51.85499954223633 C-28.625,42.755001068115234 -8.244999885559082,19.545000076293945 -6.994999885559082,18.114999771118164 C-20.905000686645508,39.185001373291016 -28.475000381469727,59.94499969482422 -28.684999465942383,60.525001525878906 C-28.69499969482422,60.525001525878906 -28.69499969482422,60.525001525878906 -28.69499969482422,60.525001525878906 C-27.094999313354492,64.29499816894531 -27.325000762939453,68.55500030517578 -29.71500015258789,71.83499908447266z M-7.375,-50.44499969482422 C-7.375,-50.45500183105469 -7.375,-50.45500183105469 -7.375,-50.45500183105469 C-10.885000228881836,-52.564998626708984 -13.194999694824219,-56.14500045776367 -13.194999694824219,-60.20500183105469 C-13.194999694824219,-66.70500183105469 -7.295000076293945,-71.9749984741211 -0.004999999888241291,-71.9749984741211 C7.284999847412109,-71.9749984741211 13.1850004196167,-66.70500183105469 13.1850004196167,-60.20500183105469 C13.1850004196167,-56.14500045776367 10.875,-52.564998626708984 7.364999771118164,-50.45500183105469 C7.364999771118164,-50.45500183105469 7.364999771118164,-50.44499969482422 7.364999771118164,-50.44499969482422 C2.875,-35.57500076293945 -0.004999999888241291,-3.2950000762939453 -0.004999999888241291,-3.2950000762939453 C-1.1150000095367432,-28.575000762939453 -7.204999923706055,-49.85499954223633 -7.375,-50.44499969482422z M40.60499954223633,51.85499954223633 C40.6150016784668,51.8650016784668 40.6150016784668,51.8650016784668 40.6150016784668,51.8650016784668 C44.69499969482422,51.505001068115234 48.665000915527344,53.04499816894531 51.05500030517578,56.334999084472656 C54.875,61.584999084472656 53.19499969482422,69.32499694824219 47.29499816894531,73.6050033569336 C41.404998779296875,77.8949966430664 33.53499984741211,77.09500122070312 29.704999923706055,71.83499908447266 C27.325000762939453,68.55500030517578 27.084999084472656,64.29499816894531 28.684999465942383,60.525001525878906 C28.684999465942383,60.525001525878906 28.684999465942383,60.51499938964844 28.684999465942383,60.51499938964844 C23.735000610351562,46.314998626708984 7.945000171661377,19.764999389648438 6.974999904632568,18.125 C22.735000610351562,37.8849983215332 40.125,51.474998474121094 40.60499954223633,51.85499954223633z M11.3149995803833,4.824999809265137 C34.974998474121094,-4.045000076293945 53.26499938964844,-16.385000228881836 53.775001525878906,-16.725000381469727 C53.78499984741211,-16.725000381469727 53.78499984741211,-16.725000381469727 53.78499984741211,-16.725000381469727 C54.71500015258789,-20.71500015258789 57.404998779296875,-24.024999618530273 61.26499938964844,-25.274999618530273 C67.44499969482422,-27.28499984741211 74.2750015258789,-23.30500030517578 76.53500366210938,-16.364999771118164 C78.78500366210938,-9.4350004196167 75.59500122070312,-2.194999933242798 69.41500091552734,-0.1850000023841858 C65.55500030517578,1.065000057220459 61.435001373291016,-0.02500000037252903 58.345001220703125,-2.7049999237060547 C58.345001220703125,-2.7049999237060547 58.334999084472656,-2.7049999237060547 58.334999084472656,-2.7049999237060547 C43.32500076293945,-2.3949999809265137 13.295000076293945,4.375 11.3149995803833,4.824999809265137z"></path></g></g></g></svg>