<svg xmlns="http://www.w3.org/2000/svg" xmlns:xlink="http://www.w3.org/1999/xlink" viewBox="0 0 512 512" width="512" height="512" style="width: 100%; height: 100%; transform: translate3d(0,0,0);" preserveAspectRatio="xMidYMid meet"><defs><clipPath id="__lottie_element_53419"><rect width="512" height="512" x="0" y="0"></rect></clipPath></defs><g clip-path="url(#__lottie_element_53419)"><g style="display: block;" transform="matrix(1,0,0,1,256.2330017089844,259.82000732421875)" opacity="1"><g opacity="1" transform="matrix(1,0,0,1,0,0)"><path fill="rgb(0,0,0)" fill-opacity="1" d=" M28.63,-38.29 C17.75,-32.79 7.84,-29.36 -3.1,-29.56 C-14.1,-29.76 -22.65,-36.79 -33.16,-40.89 C-34.67,-30.28 -33.03,-21.11 -35.23,-12.19 C-37.56,-2.75 -43.33,4.74 -49.48,12.63 C-41.08,18.3 -31.81,20.01 -25.07,26.45 C-18.36,32.86 -14.67,41.09 -9.78,50.81 C-4.35,40.11 -0.25,30.76 8.28,24.4 C16.73,18.11 27.07,16.75 37.87,12.39 C26.34,-2.8 26.4,-19.68 28.63,-38.29z M-147.64700317382812,37.569000244140625 C-159.95700073242188,35.24800109863281 -193.65499877929688,30.160999298095703 -216.0189971923828,17.847999572753906 C-245.3699951171875,1.687999963760376 -265.47900390625,-29.591999053955078 -239.8560028076172,-62.99399948120117 C-229.68600463867188,-73.56300354003906 -217.36000061035156,-80.28199768066406 -203.4530029296875,-84.61100006103516 C-192.39599609375,-88.052001953125 -192.2449951171875,-88.36000061035156 -194.61199951171875,-99.64800262451172 C-198.08299255371094,-116.20500183105469 -196.50900268554688,-131.96099853515625 -188.31300354003906,-146.91099548339844 C-179.32699584960938,-163.30099487304688 -155.99600219726562,-187.48599243164062 -92.77400207519531,-145.45199584960938 C-93.43800354003906,-152.29200744628906 -98.83000183105469,-182.77200317382812 -88.94599914550781,-206.21099853515625 C-78.22000122070312,-231.64500427246094 -57.65700149536133,-241.88800048828125 -31.32699966430664,-233.54600524902344 C-20.493999481201172,-230.11399841308594 -11.604000091552734,-223.6179962158203 -3.446000099182129,-215.86700439453125 C3.6600000858306885,-209.11500549316406 3.8989999294281006,-209.1280059814453 11.230999946594238,-215.13400268554688 C18.29599952697754,-220.92100524902344 34.66699981689453,-237.38600158691406 56.05699920654297,-238.01699829101562 C73.61699676513672,-239.39199829101562 86.13300323486328,-230.72999572753906 93.69200134277344,-215.88900756835938 C107.91100311279297,-187.97300720214844 100.1240005493164,-144.38800048828125 100.1240005493164,-144.38800048828125 C100.1240005493164,-144.38800048828125 116.01399993896484,-154.33200073242188 133.62399291992188,-157.50100708007812 C166.5760040283203,-163.43099975585938 205.96600341796875,-149.5019989013672 193.3470001220703,-85.99600219726562 C191.7310028076172,-77.08399963378906 192.3699951171875,-75.95600128173828 201.11399841308594,-72.91799926757812 C212.83700561523438,-68.84600067138672 223.78500366210938,-63.516998291015625 233.50900268554688,-55.715999603271484 C253.83299255371094,-39.4109992980957 257.14801025390625,-16.131000518798828 242.8769989013672,5.538000106811523 C214.15899658203125,49.354000091552734 160.51199340820312,46.82099914550781 143.375,48.84000015258789 C182.13299560546875,70.9520034790039 196.875,105.93399810791016 197.1479949951172,130.75999450683594 C196.28399658203125,176.71099853515625 149.4810028076172,175.21400451660156 135.8820037841797,173.17999267578125 C122.22599792480469,171.13800048828125 119.80999755859375,173.1909942626953 118.09600067138672,186.25399780273438 C116.19999694824219,200.7030029296875 110.50900268554688,213.68899536132812 99.94400024414062,224.21099853515625 C84.84500122070312,239.24899291992188 69.22899627685547,242.0290069580078 50.02399826049805,233.0279998779297 C-1.8279999494552612,205.7570037841797 -8.194000244140625,146.45399475097656 -8.956999778747559,144.35000610351562 C-23.426000595092773,193.0959930419922 -50.3489990234375,221.38099670410156 -65.04900360107422,229.23800659179688 C-86.78600311279297,240.8560028076172 -108.14900207519531,235.93099975585938 -122.89099884033203,216.15199279785156 C-130.65199279785156,205.73899841308594 -135.06300354003906,194.0229949951172 -137.01600646972656,181.2310028076172 C-139.10899353027344,167.52200317382812 -139.22999572753906,167.74200439453125 -152.52499389648438,168.14599609375 C-166.18499755859375,168.56199645996094 -179.3679962158203,166.29400634765625 -191.67300415039062,159.927001953125 C-209.0449981689453,150.93800354003906 -217.50999450683594,133.5399932861328 -214.13400268554688,114.30799865722656 C-206.90699768066406,73.13899993896484 -158.95799255371094,45.07699966430664 -147.64700317382812,37.569000244140625z"></path><g opacity="1" transform="matrix(1,0,0,1,-5.806000232696533,4.9629998207092285)"></g><g opacity="1" transform="matrix(1,0,0,1,0,0)"></g></g></g></g></svg>