<svg xmlns="http://www.w3.org/2000/svg" xmlns:xlink="http://www.w3.org/1999/xlink" viewBox="0 0 512 512" width="512" height="512" style="width: 100%; height: 100%; transform: translate3d(0,0,0);" preserveAspectRatio="xMidYMid meet"><defs><clipPath id="__lottie_element_14427"><rect width="512" height="512" x="0" y="0"></rect></clipPath></defs><g clip-path="url(#__lottie_element_14427)"><g style="display: block;" transform="matrix(1,0,0,1,256,256)" opacity="1"><g opacity="1" transform="matrix(1,0,0,1,0,0)"><path stroke-linecap="butt" stroke-linejoin="miter" fill-opacity="0" stroke-miterlimit="10" stroke="rgb(0,0,0)" stroke-opacity="1" stroke-width="30" d=" M-135.74899291992188,-16.959999084472656 C-135.74899291992188,11.369999885559082 -158.71499633789062,34.33599853515625 -187.0449981689453,34.33599853515625 C-215.375,34.33599853515625 -238.33999633789062,11.369999885559082 -238.33999633789062,-16.959999084472656 C-238.33999633789062,-45.290000915527344 -215.375,-68.25499725341797 -187.0449981689453,-68.25499725341797 C-158.71499633789062,-68.25499725341797 -135.74899291992188,-45.290000915527344 -135.74899291992188,-16.959999084472656z"></path></g><g opacity="1" transform="matrix(1,0,0,1,0,0)"><path fill="rgb(0,0,0)" fill-opacity="1" d=" M-116.94100189208984,67.57499694824219 C-104.02200317382812,53.76599884033203 -93.63600158691406,0.5040000081062317 -100.98200225830078,-31.559999465942383 C-105.947998046875,-53.236000061035156 -131.88600158691406,-60.582000732421875 -146.5780029296875,-44.19900131225586 C-146.5780029296875,-44.19900131225586 -173.97799682617188,-64.7020034790039 -192.9340057373047,-62.45399856567383 C-146.4040069580078,-146.48800659179688 -74.11499786376953,-202.86700439453125 15.288000106811523,-195.85899353027344 C86.0719985961914,-190.30999755859375 131.8719940185547,-134.375 151.5,-104.44000244140625 C205.27200317382812,-22.43199920654297 205.27200317382812,68.03800201416016 205.27200317382812,68.03800201416016 C205.27200317382812,68.03800201416016 -2.8329999446868896,78.6729965209961 -116.94100189208984,67.57499694824219z"></path></g><g opacity="1" transform="matrix(1,0,0,1,0,0)"><path stroke-linecap="butt" stroke-linejoin="miter" fill-opacity="0" stroke-miterlimit="10" stroke="rgb(0,0,0)" stroke-opacity="1" stroke-width="30" d=" M-91.18299865722656,69.93699645996094 C-122.0790023803711,62.784000396728516 -151.04600524902344,86.92900085449219 -155.2790069580078,123.65599822998047 C-155.33799743652344,124.16500091552734 -155.39599609375,124.6729965209961 -155.4530029296875,125.17900085449219 C-158.6820068359375,153.73800659179688 -143.3489990234375,178.63600158691406 -120.93399810791016,189.97500610351562 C-89.1259994506836,206.0659942626953 -34.270999908447266,214.7570037841797 46.2859992980957,216.3719940185547 C131.94500732421875,218.08999633789062 192.63800048828125,195.99899291992188 204.71099853515625,189.97500610351562 C227.17799377441406,178.76499938964844 242.45799255371094,153.73800659179688 239.22900390625,125.17900085449219 C239.1719970703125,124.6729965209961 239.11399841308594,124.16500091552734 239.05499267578125,123.65599822998047 C234.82200622558594,86.92900085449219 205.85499572753906,62.784000396728516 174.95899963378906,69.93699645996094 C154.0970001220703,74.76699829101562 97.54299926757812,87.34200286865234 39.61800003051758,86.97899627685547 C-17.66900062561035,86.62000274658203 -76.36399841308594,73.36799621582031 -91.18299865722656,69.93699645996094z"></path></g></g></g></svg>