<svg xmlns="http://www.w3.org/2000/svg" xmlns:xlink="http://www.w3.org/1999/xlink" viewBox="0 0 512 512" width="512" height="512" style="width: 100%; height: 100%; transform: translate3d(0,0,0);" preserveAspectRatio="xMidYMid meet"><defs><clipPath id="__lottie_element_51740"><rect width="512" height="512" x="0" y="0"></rect></clipPath></defs><g clip-path="url(#__lottie_element_51740)"><g style="display: block;" transform="matrix(1,0,0,1,0,0)" opacity="1"><g opacity="1" transform="matrix(1,0,0,1,255.98599243164062,262.33099365234375)"><path fill="rgb(0,0,0)" fill-opacity="1" d=" M39.70800018310547,0.1550000011920929 C33.10300064086914,-4.742000102996826 25.082000732421875,-13.173999786376953 21.457000732421875,-26.64699935913086 C17.388999938964844,-44.75699996948242 9.309000015258789,-57.10499954223633 0,-57.10499954223633 C-9.309000015258789,-57.10499954223633 -17.388999938964844,-44.757999420166016 -21.457000732421875,-26.648000717163086 C-25.082000732421875,-13.173999786376953 -33.104000091552734,-4.742000102996826 -39.70899963378906,0.1550000011920929 C-43.165000915527344,2.7170000076293945 -43.07600021362305,7.968999862670898 -39.45800018310547,10.295999526977539 C-33.41699981689453,14.180999755859375 -25.731000900268555,21.464000701904297 -19.14699935913086,35.05699920654297 C-19.14699935913086,35.05699920654297 -19.145000457763672,35.05400085449219 -19.145000457763672,35.05400085449219 C-14.706000328063965,48.46799850463867 -7.7829999923706055,57.10499954223633 0,57.10499954223633 C7.7829999923706055,57.10499954223633 14.706000328063965,48.46699905395508 19.145000457763672,35.05400085449219 C19.145000457763672,35.05400085449219 19.145999908447266,35.05699920654297 19.145999908447266,35.05699920654297 C25.729999542236328,21.464000701904297 33.41699981689453,14.180999755859375 39.45800018310547,10.295999526977539 C43.07699966430664,7.968999862670898 43.16400146484375,2.7170000076293945 39.70800018310547,0.1550000011920929z"></path></g><g opacity="1" transform="matrix(1,0,0,1,256,256)"><path fill="rgb(0,0,0)" fill-opacity="1" d=" M215.2740020751953,5.13100004196167 C204.76300048828125,-2.6619999408721924 193.9040069580078,-16.82900047302246 189.20599365234375,-39.45399856567383 C189.20599365234375,-39.45399856567383 189.20399475097656,-39.45000076293945 189.20399475097656,-39.45000076293945 C170.99099731445312,-127.25599670410156 93.20500183105469,-193.2469940185547 0,-193.25399780273438 C0,-193.25399780273438 -6.013000011444092,-184.96099853515625 -6.013000011444092,-174.5279998779297 C-6.013000011444092,-164.09500122070312 0,-152.16700744628906 0,-152.16700744628906 C24.82699966430664,-152.14100646972656 76.5,-81.18900299072266 76.5,6.330999851226807 C76.5,93.86699676513672 22.062000274658203,164.8300018310547 -0.014000000432133675,164.8300018310547 C-22.09000015258789,164.8300018310547 -76.52799987792969,93.86699676513672 -76.52799987792969,6.330999851226807 C-76.52799987792969,-81.20500183105469 -24.834999084472656,-152.16700744628906 -0.014000000432133675,-152.16700744628906 C-0.008999999612569809,-152.16700744628906 -0.004999999888241291,-152.16700744628906 0,-152.16700744628906 C0,-152.16700744628906 0,-193.25399780273438 0,-193.25399780273438 C-0.004999999888241291,-193.25399780273438 -0.008999999612569809,-193.25399780273438 -0.014000000432133675,-193.25399780273438 C-93.57599639892578,-193.25399780273438 -171.60400390625,-126.76200103759766 -189.43499755859375,-38.45600128173828 C-194.2429962158203,-16.42099952697754 -204.92100524902344,-2.5450000762939453 -215.2740020751953,5.13100004196167 C-220.39999389648438,8.932000160217285 -220.2689971923828,16.72100067138672 -214.90199279785156,20.17300033569336 C-205.94200134277344,25.934999465942383 -193.46499633789062,34.09299850463867 -184.77499389648438,56.9010009765625 C-184.74400329589844,56.981998443603516 -184.71099853515625,57.04899978637695 -184.67999267578125,57.12799835205078 C-160.31700134277344,135.97000122070312 -86.85700225830078,193.25399780273438 -0.014000000432133675,193.25399780273438 C86.74400329589844,193.25399780273438 160.1490020751953,136.08399963378906 184.58399963378906,57.361000061035156 C184.6479949951172,57.207000732421875 184.71200561523438,57.064998626708984 184.77499389648438,56.9010009765625 C193.46499633789062,34.09299850463867 205.94200134277344,25.934999465942383 214.90199279785156,20.17300033569336 C220.2689971923828,16.72100067138672 220.39999389648438,8.932000160217285 215.2740020751953,5.13100004196167z"></path></g></g></g></svg>