<svg xmlns="http://www.w3.org/2000/svg" xmlns:xlink="http://www.w3.org/1999/xlink" viewBox="0 0 512 512" width="512" height="512" style="width: 100%; height: 100%; transform: translate3d(0,0,0);" preserveAspectRatio="xMidYMid meet"><defs><clipPath id="__lottie_element_52668"><rect width="512" height="512" x="0" y="0"></rect></clipPath></defs><g clip-path="url(#__lottie_element_52668)"><g style="display: block;" transform="matrix(1,0,0,1,0,0)" opacity="1"><g opacity="1" transform="matrix(1,0,0,1,251.38999938964844,189.031005859375)"><path fill="rgb(0,0,0)" fill-opacity="1" d=" M-79.38999938964844,26.9689998626709 C-93.41699981689453,17.26099967956543 -51.38999938964844,-41.03099822998047 -35.38999938964844,-47.03099822998047 C-27.334999084472656,-50.051998138427734 -47.38999938964844,-30.0310001373291 -39.38999938964844,3.9690001010894775 C-37.645999908447266,11.381999969482422 -15.390000343322754,-52.03099822998047 11.609999656677246,-52.03099822998047 C47.61000061035156,-52.03099822998047 93.41699981689453,29.010000228881836 81.61000061035156,33.96900177001953 C38.61000061035156,52.03099822998047 -43.38999938964844,51.88399887084961 -79.38999938964844,26.9689998626709z"></path></g><g opacity="1" transform="matrix(1,0,0,1,172.5,116.74099731445312)"><path fill="rgb(0,0,0)" fill-opacity="1" d=" M14.5,76.25900268554688 C-7.321000099182129,69.25900268554688 -11.10099983215332,50.935001373291016 -14.5,33.25899887084961 C-19.5,7.258999824523926 25.020000457763672,-37.020999908447266 49.5,-73.74099731445312 C59.5,-88.74099731445312 37.5,-106.74099731445312 23.5,-92.74099731445312 C-5.916999816894531,-63.32400131225586 -59.5,1.7369999885559082 -51.5,42.25899887084961 C-43.58399963378906,82.35600280761719 -2.434999942779541,106.74099731445312 11.5,100.25900268554688 C18.738000869750977,96.89199829101562 15.538999557495117,90.5510025024414 14.5,76.25900268554688z"></path></g><g opacity="1" transform="matrix(1,0,0,1,357.2030029296875,128.89300537109375)"><path fill="rgb(0,0,0)" fill-opacity="1" d=" M-37.040000915527344,69.47100067138672 C-14.50100040435791,65.3280029296875 -0.6069999933242798,54.2869987487793 5.0320000648498535,37.19300079345703 C13.326000213623047,12.050000190734863 -26.143999099731445,-29.576000213623047 -45.71099853515625,-69.13400268554688 C-53.70399856567383,-85.29299926757812 -29.576000213623047,-100.32099914550781 -17.488000869750977,-84.64099884033203 C7.910999774932861,-51.694000244140625 53.70399856567383,11.704999923706055 40.57099914550781,50.86600112915039 C27.576000213623047,89.61599731445312 -21.21500015258789,100.32099914550781 -34.202999114990234,92.10399627685547 C-40.94900131225586,87.83599853515625 -39.90299987792969,83.51200103759766 -37.040000915527344,69.47100067138672z"></path></g><g opacity="1" transform="matrix(1,0,0,1,375.1260070800781,416.16400146484375)"><path fill="rgb(0,0,0)" fill-opacity="1" d=" M-15.656000137329102,-58.65399932861328 C-1.0579999685287476,-49.37099838256836 11.618000030517578,-38.608001708984375 11.729999542236328,-20.607999801635742 C11.87399959564209,2.8350000381469727 -20.128000259399414,34.50199890136719 -40.23099899291992,51.95100021362305 C-48.09400177001953,58.7760009765625 -52.2599983215332,53.44599914550781 -52.792999267578125,66.83499908447266 C-53.308998107910156,79.84200286865234 -33.965999603271484,83.2979965209961 -21.128000259399414,75.83499908447266 C7.540999889373779,59.167999267578125 53.308998107910156,6.578999996185303 49.03799819946289,-28.229000091552734 C44.874000549316406,-62.165000915527344 3.434000015258789,-81.04900360107422 -11.767000198364258,-82.5260009765625 C-19.714000701904297,-83.29900360107422 -16.163999557495117,-72.9749984741211 -15.656000137329102,-58.65399932861328z"></path></g><g opacity="1" transform="matrix(1,0,0,1,115.86900329589844,421.56500244140625)"><path fill="rgb(0,0,0)" fill-opacity="1" d=" M26.959999084472656,-55.564998626708984 C10.23900032043457,-51.12799835205078 1.0880000591278076,-49.59299850463867 -4.459000110626221,-32.46900177001953 C-11.684000015258789,-10.166999816894531 9.46500015258789,30.434999465942383 33.73400115966797,51.40299987792969 C40.99599838256836,57.676998138427734 52.31100082397461,49.768001556396484 52.31100082397461,63.10200119018555 C52.31100082397461,74.197998046875 25.131000518798828,82.10199737548828 6.451000213623047,67.0459976196289 C-24.086999893188477,42.43299865722656 -52.31100082397461,-19.12299919128418 -37.71799850463867,-51.012001037597656 C-23.489999771118164,-82.10099792480469 15.532999992370605,-79.68199920654297 30.47100067138672,-76.49600219726562 C38.27799987792969,-74.83100128173828 31.773000717163086,-69.06300354003906 26.959999084472656,-55.564998626708984z"></path></g><g opacity="1" transform="matrix(1,0,0,1,105.99600219726562,241.5590057373047)"><path fill="rgb(0,0,0)" fill-opacity="1" d=" M-22.663000106811523,-52.893001556396484 C-4.4120001792907715,-23.559999465942383 -18.917999267578125,-9.428999900817871 -9.994999885559082,0.10700000077486038 C-1.1950000524520874,9.513999938964844 19.670000076293945,20.107999801635742 40.33700180053711,25.44099998474121 C51.722999572753906,28.3799991607666 36.87300109863281,64.98500061035156 27.0049991607666,58.106998443603516 C5.005000114440918,42.77399826049805 -35.32899856567383,36.106998443603516 -43.994998931884766,14.107000350952148 C-51.722999572753906,-5.510000228881836 -31.80500030517578,-20.559999465942383 -40.994998931884766,-44.893001556396484 C-45.013999938964844,-55.529998779296875 -30.187999725341797,-64.98600006103516 -22.663000106811523,-52.893001556396484z"></path></g><g opacity="1" transform="matrix(1,0,0,1,409.1789855957031,246.4530029296875)"><path fill="rgb(0,0,0)" fill-opacity="1" d=" M22.820999145507812,-40.452999114990234 C26.15399932861328,-19.865999221801758 19.981000900268555,-6.3420000076293945 9.673999786376953,1.6770000457763672 C-0.49399998784065247,9.586000442504883 -19.76300048828125,16.773000717163086 -41.0099983215332,18.79800033569336 C-52.71699905395508,19.913000106811523 -45.500999450683594,56.569000244140625 -33.96799850463867,53.1510009765625 C-7.178999900817871,45.2140007019043 36.82099914550781,27.8799991607666 45.50600051879883,10.54699993133545 C52.71799850463867,-3.8499999046325684 50.15399932861328,-25.864999771118164 43.487998962402344,-45.78499984741211 C39.87900161743164,-56.569000244140625 20.545000076293945,-54.51300048828125 22.820999145507812,-40.452999114990234z"></path></g><g opacity="1" transform="matrix(1,0,0,1,171.37399291992188,337.62701416015625)"><path fill="rgb(0,0,0)" fill-opacity="1" d=" M62.959999084472656,-71.95999908447266 C51.40700149536133,-20.37700080871582 44.959999084472656,31.37299919128418 68.29299926757812,94.70600128173828 C71.37300109863281,103.06500244140625 55.86899948120117,105.33699798583984 48.62699890136719,104.04000091552734 C-56.61399841308594,85.19499969482422 -71.37300109863281,-32.62699890136719 -18.707000732421875,-98.62699890136719 C-13.35200023651123,-105.33699798583984 1.9859999418258667,-92.40399932861328 25.292999267578125,-85.29299926757812 C48.32699966430664,-78.26699829101562 65.38800048828125,-82.80000305175781 62.959999084472656,-71.95999908447266z"></path></g><g opacity="1" transform="matrix(1,0,0,1,317.8800048828125,339.8280029296875)"><path fill="rgb(0,0,0)" fill-opacity="1" d=" M-62.2140007019043,-72.16100311279297 C-68.02400207519531,-51.069000244140625 -82.21399688720703,17.172000885009766 -58.2140007019043,93.83899688720703 C-56.3489990234375,99.79399871826172 -48.33100128173828,104.4530029296875 -41.547000885009766,103.1719970703125 C55.50199890136719,84.83899688720703 82.21299743652344,-35.494998931884766 46.11899948120117,-96.49400329589844 C41.4109992980957,-104.4520034790039 31.45199966430664,-91.64399719238281 -7.88100004196167,-83.49400329589844 C-44.555999755859375,-75.8949966430664 -59.35900115966797,-82.5250015258789 -62.2140007019043,-72.16100311279297z"></path></g></g></g></svg>