<svg xmlns="http://www.w3.org/2000/svg" xmlns:xlink="http://www.w3.org/1999/xlink" viewBox="0 0 512 512" width="512" height="512" style="width: 100%; height: 100%; transform: translate3d(0,0,0);" preserveAspectRatio="xMidYMid meet"><defs><clipPath id="__lottie_element_53634"><rect width="512" height="512" x="0" y="0"></rect></clipPath></defs><g clip-path="url(#__lottie_element_53634)"><g style="display: block;" transform="matrix(1,0,0,1,2347.797119140625,-599.530029296875)" opacity="1"><g opacity="1" transform="matrix(1,0,0,1,-2091.797119140625,952.9940185546875)"><path fill="rgb(0,0,0)" fill-opacity="1" d=" M226.5780029296875,-62.483001708984375 C226.5780029296875,-62.483001708984375 215.9290008544922,-66.73200225830078 215.9290008544922,-66.73200225830078 C218.6739959716797,-76.5250015258789 220.0050048828125,-85.51000213623047 220.0050048828125,-93.16100311279297 C220.0050048828125,-101.44499969482422 213.28900146484375,-108.16100311279297 205.0050048828125,-108.16100311279297 C196.7209930419922,-108.16100311279297 190.0050048828125,-101.44499969482422 190.0050048828125,-93.16100311279297 C190.0050048828125,-88.74199676513672 189.3280029296875,-83.58100128173828 187.9530029296875,-77.89399719238281 C187.9530029296875,-77.89399719238281 177.25399780273438,-82.16300201416016 177.25399780273438,-82.16300201416016 C169.55999755859375,-85.23300170898438 160.83200073242188,-81.48500061035156 157.76400756835938,-73.79000091552734 C154.69400024414062,-66.09600067138672 158.4429931640625,-57.36800003051758 166.13699340820312,-54.29899978637695 C166.13699340820312,-54.29899978637695 177.1649932861328,-49.89899826049805 177.1649932861328,-49.89899826049805 C170.86300659179688,-37.709999084472656 162.156005859375,-24.816999435424805 150.8979949951172,-12.42300033569336 C150.8979949951172,-12.42300033569336 142.64100646972656,-20.684999465942383 142.64100646972656,-20.684999465942383 C136.78700256347656,-26.542999267578125 127.28800201416016,-26.547000885009766 121.4280014038086,-20.69099998474121 C115.56900024414062,-14.836000442504883 115.56600189208984,-5.336999893188477 121.4219970703125,0.5220000147819519 C121.4219970703125,0.5220000147819519 129.02200317382812,8.12600040435791 129.02200317382812,8.12600040435791 C116.6760025024414,18.007999420166016 101.33999633789062,27.770999908447266 82.6449966430664,35.67399978637695 C82.6449966430664,35.67399978637695 75.61799621582031,17.812000274658203 75.61799621582031,17.812000274658203 C72.58499908447266,10.102999687194824 63.87699890136719,6.313000202178955 56.16600036621094,9.345000267028809 C48.457000732421875,12.378000259399414 44.667999267578125,21.086000442504883 47.70000076293945,28.79599952697754 C47.70000076293945,28.79599952697754 54.209999084472656,45.34400177001953 54.209999084472656,45.34400177001953 C35.72800064086914,50.21500015258789 14.746000289916992,53.1870002746582 -8.987000465393066,53.1870002746582 C-11.057000160217285,53.1870002746582 -13.095000267028809,53.15399932861328 -15.121999740600586,53.108001708984375 C-15.121999740600586,53.108001708984375 -13.454999923706055,36.62300109863281 -13.454999923706055,36.62300109863281 C-12.621000289916992,28.381000518798828 -18.62700080871582,21.023000717163086 -26.868999481201172,20.18899917602539 C-35.11199951171875,19.36400032043457 -42.46799850463867,25.36199951171875 -43.301998138427734,33.60300064086914 C-43.301998138427734,33.60300064086914 -45.029998779296875,50.676998138427734 -45.029998779296875,50.676998138427734 C-74.3489990234375,46.47999954223633 -98.23100280761719,37.39699935913086 -117.41400146484375,26.481000900268555 C-117.41400146484375,26.481000900268555 -107.2699966430664,12.17300033569336 -107.2699966430664,12.17300033569336 C-102.47799682617188,5.414999961853027 -104.072998046875,-3.947999954223633 -110.83100128173828,-8.73900032043457 C-117.58999633789062,-13.531000137329102 -126.9530029296875,-11.935999870300293 -131.7429962158203,-5.177999973297119 C-131.7429962158203,-5.177999973297119 -142.2100067138672,9.586000442504883 -142.2100067138672,9.586000442504883 C-148.4510040283203,4.5370001792907715 -153.9250030517578,-0.5690000057220459 -158.677001953125,-5.5 C-167.78199768066406,-14.949000358581543 -175.37100219726562,-24.867000579833984 -181.53599548339844,-34.67100143432617 C-181.53599548339844,-34.67100143432617 -167.18299865722656,-45.56999969482422 -167.18299865722656,-45.56999969482422 C-160.5850067138672,-50.58000183105469 -159.29800415039062,-59.98899841308594 -164.30799865722656,-66.58699798583984 C-169.31900024414062,-73.18499755859375 -178.72799682617188,-74.47000122070312 -185.3260040283203,-69.46199798583984 C-185.3260040283203,-69.46199798583984 -195.3260040283203,-61.86899948120117 -195.3260040283203,-61.86899948120117 C-200.00599670410156,-73.96299743652344 -202.25599670410156,-84.85800170898438 -202.25599670410156,-93.16100311279297 C-202.25599670410156,-101.44499969482422 -208.9720001220703,-108.16100311279297 -217.25599670410156,-108.16100311279297 C-225.5399932861328,-108.16100311279297 -232.25599670410156,-101.44499969482422 -232.25599670410156,-93.16100311279297 C-232.25599670410156,-79.6989974975586 -228.29800415039062,-62.073001861572266 -219.93499755859375,-43.18199920654297 C-219.93499755859375,-43.18199920654297 -230.09300231933594,-35.46799850463867 -230.09300231933594,-35.46799850463867 C-236.6909942626953,-30.45800018310547 -237.97799682617188,-21.048999786376953 -232.96800231933594,-14.451000213623047 C-230.01699829101562,-10.5649995803833 -225.5399932861328,-8.520999908447266 -221.01100158691406,-8.520999908447266 C-217.85000610351562,-8.520999908447266 -214.66299438476562,-9.517000198364258 -211.9510040283203,-11.576000213623047 C-211.9510040283203,-11.576000213623047 -205.47999572753906,-16.48900032043457 -205.47999572753906,-16.48900032043457 C-198.5260009765625,-5.701000213623047 -190.1580047607422,5.065999984741211 -180.27999877929688,15.317000389099121 C-174.36300659179688,21.45800018310547 -167.4810028076172,27.829999923706055 -159.593994140625,34.104000091552734 C-159.593994140625,34.104000091552734 -168.43299865722656,46.571998596191406 -168.43299865722656,46.571998596191406 C-173.22500610351562,53.33000183105469 -171.63099670410156,62.69300079345703 -164.8730010986328,67.48400115966797 C-162.23899841308594,69.35099792480469 -159.2100067138672,70.2490005493164 -156.2100067138672,70.2490005493164 C-151.51199340820312,70.2490005493164 -146.88400268554688,68.0469970703125 -143.9600067138672,63.92300033569336 C-143.9600067138672,63.92300033569336 -134.85899353027344,51.08700180053711 -134.85899353027344,51.08700180053711 C-112.06400299072266,64.4990005493164 -83.44100189208984,75.70999908447266 -48.05400085449219,80.5780029296875 C-48.05400085449219,80.5780029296875 -49.17399978637695,91.6500015258789 -49.17399978637695,91.6500015258789 C-50.007999420166016,99.89199829101562 -44.00199890136719,107.2490005493164 -35.7599983215332,108.08300018310547 C-35.24599838256836,108.13500213623047 -34.737998962402344,108.16100311279297 -34.233001708984375,108.16100311279297 C-26.628000259399414,108.16100311279297 -20.108999252319336,102.39800262451172 -19.32699966430664,94.66899871826172 C-19.32699966430664,94.66899871826172 -18.149999618530273,83.03800201416016 -18.149999618530273,83.03800201416016 C-15.133999824523926,83.12899780273438 -12.086999893188477,83.18699645996094 -8.987000465393066,83.18699645996094 C18.988000869750977,83.18699645996094 43.643001556396484,79.48300170898438 65.27200317382812,73.46199798583984 C65.27200317382812,73.46199798583984 69.01200103759766,82.96700286865234 69.01200103759766,82.96700286865234 C71.33599853515625,88.87300109863281 76.99099731445312,92.47899627685547 82.9749984741211,92.47899627685547 C84.8010025024414,92.47899627685547 86.66000366210938,92.14299774169922 88.46299743652344,91.43399810791016 C96.1719970703125,88.4010009765625 99.96199798583984,79.69300079345703 96.93000030517578,71.98300170898438 C96.93000030517578,71.98300170898438 93.64900207519531,63.641998291015625 93.64900207519531,63.641998291015625 C116.78199768066406,53.946998596191406 135.5050048828125,41.71099853515625 150.33900451660156,29.457000732421875 C150.33900451660156,29.457000732421875 159.78500366210938,38.90800094604492 159.78500366210938,38.90800094604492 C162.71400451660156,41.8390007019043 166.55299377441406,43.30400085449219 170.3939971923828,43.30400085449219 C174.2310028076172,43.30400085449219 178.06900024414062,41.840999603271484 180.9980010986328,38.91400146484375 C186.85699462890625,33.058998107910156 186.85899353027344,23.559999465942383 181.0030059814453,17.701000213623047 C181.0030059814453,17.701000213623047 172.12899780273438,8.821000099182129 172.12899780273438,8.821000099182129 C186.4080047607422,-6.705999851226807 197.29600524902344,-23.097000122070312 205.05099487304688,-38.77299880981445 C205.05099487304688,-38.77299880981445 215.4600067138672,-34.619998931884766 215.4600067138672,-34.619998931884766 C217.2830047607422,-33.891998291015625 219.16299438476562,-33.547000885009766 221.01400756835938,-33.547000885009766 C226.9720001220703,-33.547000885009766 232.60899353027344,-37.12200164794922 234.9510040283203,-42.99300003051758 C238.02099609375,-50.6870002746582 234.27200317382812,-59.41400146484375 226.5780029296875,-62.483001708984375z"></path></g><g opacity="1" transform="matrix(1,0,0,1,-2122.97412109375,853.6069946289062)"><path fill="rgb(0,0,0)" fill-opacity="1" d=" M-9.680000305175781,-14.357999801635742 C-9.680000305175781,-14.357999801635742 -17.274999618530273,1.187999963760376 -17.274999618530273,1.187999963760376 C-20.91200065612793,8.630999565124512 -17.826000213623047,17.61400032043457 -10.383000373840332,21.250999450683594 C-8.262999534606934,22.285999298095703 -6.019999980926514,22.775999069213867 -3.809000015258789,22.775999069213867 C1.7419999837875366,22.775999069213867 7.078999996185303,19.680999755859375 9.680000305175781,14.357999801635742 C9.680000305175781,14.357999801635742 17.274999618530273,-1.1890000104904175 17.274999618530273,-1.1890000104904175 C20.91200065612793,-8.631999969482422 17.826000213623047,-17.61400032043457 10.383000373840332,-21.250999450683594 C2.940000057220459,-24.88599967956543 -6.044000148773193,-21.802000045776367 -9.680000305175781,-14.357999801635742z"></path></g><g opacity="1" transform="matrix(1,0,0,1,-2073.382080078125,853.6069946289062)"><path fill="rgb(0,0,0)" fill-opacity="1" d=" M-9.680000305175781,14.359000205993652 C-7.078000068664551,19.683000564575195 -1.7419999837875366,22.777000427246094 3.809000015258789,22.777000427246094 C6.019000053405762,22.777000427246094 8.262999534606934,22.285999298095703 10.383000373840332,21.250999450683594 C17.826000213623047,17.61400032043457 20.91200065612793,8.631999969482422 17.274999618530273,1.1890000104904175 C17.274999618530273,1.1890000104904175 9.680000305175781,-14.357999801635742 9.680000305175781,-14.357999801635742 C6.043000221252441,-21.802000045776367 -2.938999891281128,-24.886999130249023 -10.383000373840332,-21.250999450683594 C-17.826000213623047,-17.61400032043457 -20.91200065612793,-8.630999565124512 -17.274999618530273,-1.187999963760376 C-17.274999618530273,-1.187999963760376 -9.680000305175781,14.359000205993652 -9.680000305175781,14.359000205993652z"></path></g><g opacity="1" transform="matrix(1,0,0,1,-1974.39697265625,749.7479858398438)"><path fill="rgb(0,0,0)" fill-opacity="1" d=" M-17.915000915527344,99.84300231933594 C-12.909000396728516,99.84300231933594 -7.802000045776367,99.54100036621094 -2.624000072479248,98.93000030517578 C27.68000030517578,95.35199737548828 54.20600128173828,81.66100311279297 74.08999633789062,59.3380012512207 C91.64399719238281,39.63199996948242 102.60099792480469,14.710000038146973 104.9469985961914,-10.836000442504883 C106.69100189208984,-29.839000701904297 103.4489974975586,-47.645999908447266 95.56999969482422,-62.33399963378906 C86.7030029296875,-78.86399841308594 72.4280014038086,-90.5739974975586 54.2869987487793,-96.197998046875 C30.452999114990234,-103.58799743652344 9.684000015258789,-99.7300033569336 -7.445000171661377,-84.72899627685547 C-21.03499984741211,-72.8270034790039 -30.224000930786133,-55.6619987487793 -38.33000183105469,-40.516998291015625 C-43.939998626708984,-30.035999298095703 -49.2400016784668,-20.134000778198242 -54.79100036621094,-14.107999801635742 C-66.2509994506836,-1.6660000085830688 -74.87899780273438,1.9199999570846558 -81.81199645996094,4.802000045776367 C-90.33200073242188,8.343000411987305 -101.99800109863281,13.192000389099121 -104.98899841308594,31.11400032043457 C-104.98899841308594,31.11400032043457 -104.98899841308594,31.114999771118164 -104.98899841308594,31.114999771118164 C-107.11900329589844,43.874000549316406 -101.00599670410156,59.23500061035156 -88.63899993896484,72.20999908447266 C-71.56500244140625,90.12000274658203 -46.34400177001953,99.84300231933594 -17.915000915527344,99.84300231933594z"></path></g><g opacity="1" transform="matrix(1,0,0,1,-2222.131103515625,749.7479858398438)"><path fill="rgb(0,0,0)" fill-opacity="1" d=" M-74.08999633789062,59.3380012512207 C-54.20600128173828,81.66100311279297 -27.679000854492188,95.35199737548828 2.625,98.93000030517578 C7.804999828338623,99.54100036621094 12.906999588012695,99.84300231933594 17.915000915527344,99.84300231933594 C46.34199905395508,99.84300231933594 71.56600189208984,90.11900329589844 88.63899993896484,72.20999908447266 C101.00599670410156,59.236000061035156 107.11900329589844,43.874000549316406 104.98999786376953,31.114999771118164 C104.98899841308594,31.114999771118164 104.98899841308594,31.11400032043457 104.98899841308594,31.11400032043457 C101.99800109863281,13.192000389099121 90.33100128173828,8.343000411987305 81.81099700927734,4.802000045776367 C74.87799835205078,1.9199999570846558 66.2509994506836,-1.6660000085830688 54.79100036621094,-14.107999801635742 C49.2400016784668,-20.134000778198242 43.941001892089844,-30.03499984741211 38.33100128173828,-40.51599884033203 C30.225000381469727,-55.6609992980957 21.035999298095703,-72.82599639892578 7.446000099182129,-84.72799682617188 C-9.682000160217285,-99.72899627685547 -30.45199966430664,-103.58899688720703 -54.2859992980957,-96.197998046875 C-72.427001953125,-90.5739974975586 -86.7030029296875,-78.86399841308594 -95.56999969482422,-62.33399963378906 C-103.4489974975586,-47.645999908447266 -106.69100189208984,-29.839000701904297 -104.9469985961914,-10.836000442504883 C-102.60099792480469,14.710000038146973 -91.64299774169922,39.63199996948242 -74.08999633789062,59.3380012512207z"></path></g></g></g></svg>