<svg xmlns="http://www.w3.org/2000/svg" xmlns:xlink="http://www.w3.org/1999/xlink" viewBox="0 0 512 512" width="512" height="512" style="width: 100%; height: 100%; transform: translate3d(0,0,0);" preserveAspectRatio="xMidYMid meet"><defs><clipPath id="__lottie_element_53145"><rect width="512" height="512" x="0" y="0"></rect></clipPath></defs><g clip-path="url(#__lottie_element_53145)"><g style="display: block;" transform="matrix(1.9813200235366821,0,0,1.9813200235366821,-243.21792602539062,-307.2179260253906)" opacity="1"><g opacity="1" transform="matrix(1,0,0,1,265.95098876953125,244.4530029296875)"><path fill="rgb(0,0,0)" fill-opacity="1" d=" M-59.54800033569336,69.4800033569336 C-59.54800033569336,69.4800033569336 37.18600082397461,-83.0780029296875 37.18600082397461,-83.0780029296875 C38.266998291015625,-84.76000213623047 40.512001037597656,-85.20600128173828 42.172000885009766,-84.09200286865234 C47.018001556396484,-80.84100341796875 55.95800018310547,-72.8489990234375 58.28099822998047,-57.10900115966797 C60.696998596191406,-40.7400016784668 52.04899978637695,1.5470000505447388 36.04899978637695,16.547000885009766 C20.893999099731445,30.753999710083008 4.84499979019165,33.85900115966797 -0.5410000085830688,33.79199981689453 C-1.777999997138977,33.777000427246094 -2.927000045776367,34.40700149536133 -3.5840001106262207,35.45600128173828 C-3.5840001106262207,35.45600128173828 -33.36800003051758,83.10600280761719 -33.36800003051758,83.10600280761719 C-34.33100128173828,84.64299774169922 -36.297000885009766,85.20600128173828 -37.928001403808594,84.41300201416016 C-37.928001403808594,84.41300201416016 -58.1150016784668,74.58999633789062 -58.1150016784668,74.58999633789062 C-60.027000427246094,73.66000366210938 -60.698001861572266,71.26899719238281 -59.54800033569336,69.4800033569336z"></path></g><g opacity="1" transform="matrix(1,0,0,1,196.81300354003906,359.2640075683594)"><path fill="rgb(0,0,0)" fill-opacity="1" d=" M8.802000045776367,-49.72700119018555 C-18.660999298095703,-54.5890007019043 -44.86600112915039,-36.266998291015625 -49.72700119018555,-8.803000450134277 C-54.5890007019043,18.65999984741211 -36.26599884033203,44.8650016784668 -8.803000450134277,49.72600173950195 C18.660999298095703,54.5880012512207 44.8650016784668,36.26599884033203 49.72700119018555,8.803000450134277 C54.5890007019043,-18.660999298095703 36.26599884033203,-44.86600112915039 8.802000045776367,-49.72700119018555z M-5.460000038146973,27.97599983215332 C-19.055999755859375,25.569000244140625 -27.93199920654297,11.494000434875488 -25.28499984741211,-3.4609999656677246 C-22.636999130249023,-18.416000366210938 -9.468999862670898,-28.589000701904297 4.125999927520752,-26.18199920654297 C17.722000122070312,-23.774999618530273 26.597999572753906,-9.699999809265137 23.951000213623047,5.255000114440918 C21.30299949645996,20.209999084472656 8.13599967956543,30.382999420166016 -5.460000038146973,27.97599983215332z"></path></g><g opacity="1" transform="matrix(1,0,0,1,317.3609924316406,347.52398681640625)"><path fill="rgb(0,0,0)" fill-opacity="1" d=" M43.34400177001953,-20.621999740600586 C31.22800064086914,-46.0880012512207 1.9989999532699585,-57.5 -21.93899917602539,-46.111000061035156 C-45.87799835205078,-34.72100067138672 -55.459999084472656,-4.843999862670898 -43.34400177001953,20.62299919128418 C-31.22800064086914,46.0890007019043 -2,57.500999450683594 21.93899917602539,46.11199951171875 C45.87699890136719,34.72200012207031 55.46099853515625,4.84499979019165 43.34400177001953,-20.621999740600586z M18.358999252319336,21.285999298095703 C8.67300033569336,29.503999710083008 -7.434000015258789,26.434999465942383 -17.617000579833984,14.432999610900879 C-27.799999237060547,2.430000066757202 -28.20199966430664,-13.961999893188477 -18.516000747680664,-22.179000854492188 C-8.829999923706055,-30.39699935913086 7.2769999504089355,-27.32900047302246 17.459999084472656,-15.326000213623047 C27.64299964904785,-3.322999954223633 28.045000076293945,13.067999839782715 18.358999252319336,21.285999298095703z"></path></g><g opacity="1" transform="matrix(1,0,0,1,226.37399291992188,251.531005859375)"><path fill="rgb(0,0,0)" fill-opacity="1" d=" M75.95700073242188,59.97600173950195 C75.95700073242188,59.97600173950195 -62.85900115966797,-80.54199981689453 -62.85900115966797,-80.54199981689453 C-64.39800262451172,-82.06900024414062 -66.7959976196289,-82.01599884033203 -68.19000244140625,-80.447998046875 C-72.25900268554688,-75.87100219726562 -77.59500122070312,-58.314998626708984 -75.822998046875,-41.11000061035156 C-73.9800033569336,-23.215999603271484 -61.374000549316406,5.468999862670898 -41.374000549316406,19.4689998626709 C-23.010000228881836,32.323001861572266 -4.263000011444092,29.485000610351562 1.1920000314712524,28.152999877929688 C2.444000005722046,27.847000122070312 3.7760000228881836,28.2450008392334 4.718999862670898,29.201000213623047 C4.718999862670898,29.201000213623047 52.93899917602539,80.53299713134766 52.93899917602539,80.53299713134766 C54.32099914550781,81.93399810791016 56.46500015258789,82.06900024414062 57.91400146484375,80.8479995727539 C57.91400146484375,80.8479995727539 75.84400177001953,65.72100067138672 75.84400177001953,65.72100067138672 C77.54199981689453,64.28900146484375 77.59500122070312,61.599998474121094 75.95700073242188,59.97600173950195z"></path></g></g></g></svg>