<svg xmlns="http://www.w3.org/2000/svg" xmlns:xlink="http://www.w3.org/1999/xlink" viewBox="0 0 512 512" width="512" height="512" style="width: 100%; height: 100%; transform: translate3d(0,0,0);" preserveAspectRatio="xMidYMid meet"><defs><clipPath id="__lottie_element_52628"><rect width="512" height="512" x="0" y="0"></rect></clipPath></defs><g clip-path="url(#__lottie_element_52628)"><g style="display: block;" transform="matrix(1,0,0,1,0,0)" opacity="1"><g opacity="1" transform="matrix(1,0,0,1,308.1449890136719,200.69900512695312)"><path fill="rgb(4,5,52)" fill-opacity="1" d=" M-94.71600341796875,-129.4219970703125 C-102.69400024414062,-96.62300109863281 -73.53900146484375,-76.05699920654297 -70.99800109863281,-64.197998046875 C-68.45700073242188,-52.3390007019043 -70.1510009765625,-26.92799949645996 -56.597999572753906,-24.386999130249023 C-43.04499816894531,-21.84600067138672 -15.092000007629395,-70.9749984741211 -17.632999420166016,-92.99800109863281 C-20.173999786376953,-115.02100372314453 -24.40999984741211,-120.9520034790039 -15.092000007629395,-126.03399658203125 C-5.77400016784668,-131.11599731445312 39.992000579833984,-134.47000122070312 67.0719985961914,-95.54000091552734 C94.1520004272461,-56.61000061035156 83.16600036621094,10.342000007629395 48.4370002746582,34.060001373291016 C48.4370002746582,34.060001373291016 20.485000610351562,9.878000259399414 -18.479999542236328,23.04800033569336 C-57.44499969482422,36.21799850463867 -70.8219985961914,76.49199676513672 -70.8219985961914,76.49199676513672 C-70.8219985961914,76.49199676513672 -100.9280014038086,57.49599838256836 -140.45700073242188,83.47200012207031 C-161.98699951171875,97.62000274658203 -170.0570068359375,142.906005859375 -164.1510009765625,149.4709930419922 C-158.2449951171875,156.03599548339844 -147.98599243164062,144.83599853515625 -138.197998046875,143.70700073242188 C-128.41000366210938,142.5780029296875 -127.75299835205078,154.34800720214844 -132.927001953125,158.7969970703125 C-141.20899963378906,165.91900634765625 -155.61000061035156,154.7989959716797 -158.52699279785156,161.4010009765625 C-161.44400024414062,168.0030059814453 -129.91600036621094,204.8990020751953 -61.9630012512207,174.38900756835938 C-61.9630012512207,174.38900756835938 -14.527999877929688,196.41200256347656 75.26000213623047,160.83599853515625 C165.04800415039062,125.26000213623047 176.9080047607422,23.613000869750977 158.83700561523438,-66.73999786376953 C140.76600646972656,-157.09300231933594 79.77799987792969,-187.7570037841797 10.883999824523926,-186.25999450683594 C-58.0099983215332,-184.76300048828125 -89.63400268554688,-150.3159942626953 -94.71600341796875,-129.4219970703125z"></path></g><g opacity="1" transform="matrix(1,0,0,1,110.69100189208984,296.1629943847656)"><path fill="rgb(4,5,52)" fill-opacity="1" d=" M-85.30899810791016,12.477999687194824 C-91.80899810791016,10.041000366210938 -83.04900360107422,-20.27400016784668 -57.073001861572266,-33.82699966430664 C-31.097000122070312,-47.380001068115234 9.637999534606934,-43.14500045776367 26.878999710083008,-22.533000946044922 C26.878999710083008,-22.533000946044922 80.33799743652344,-21.40399932861328 86.73799896240234,-3.3329999446868896 C93.13800048828125,14.73799991607666 48.71500015258789,32.80799865722656 41.5620002746582,28.290000915527344 C34.409000396728516,23.77199935913086 21.985000610351562,13.230999946594238 21.985000610351562,13.230999946594238 C21.985000610351562,13.230999946594238 20.10300064086914,25.65399932861328 -2.861999988555908,37.32500076293945 C-25.82699966430664,48.99599838256836 -66.48500061035156,33.9379997253418 -67.23799896240234,28.66699981689453 C-67.99099731445312,23.395999908447266 -56.696998596191406,15.11299991607666 -45.77899932861328,14.737000465393066 C-34.861000061035156,14.361000061035156 -14.907999992370605,19.631000518798828 -13.026000022888184,17.749000549316406 C-11.144000053405762,15.866999626159668 -25.448999404907227,0.054999999701976776 -49.16699981689453,1.5609999895095825 C-72.88500213623047,3.066999912261963 -79.28500366210938,14.737000465393066 -85.30899810791016,12.477999687194824z"></path></g><g opacity="1" transform="matrix(1,0,0,1,138.71299743652344,418.2909851074219)"><path fill="rgb(4,5,52)" fill-opacity="1" d=" M-88.36799621582031,33.12200164794922 C-95.21700286865234,31.993000030517578 -92.51399993896484,0.5540000200271606 -69.66400146484375,-17.785999298095703 C-46.81399917602539,-36.125999450683594 -6.0320000648498535,-39.882999420166016 14.883999824523926,-23.011999130249023 C14.883999824523926,-23.011999130249023 52.696998596191406,-63.944000244140625 62.48500061035156,-47.46099853515625 C62.48500061035156,-47.46099853515625 92.31600189208984,-42.89899826049805 91.65799713134766,-40.380001068115234 C78.38700103759766,10.442999839782715 26.152000427246094,13.831999778747559 26.152000427246094,13.831999778747559 C26.152000427246094,13.831999778747559 17.59600067138672,25.573999404907227 -2.6649999618530273,41.483001708984375 C-22.926000595092773,57.391998291015625 -65.73500061035156,50.51599884033203 -67.49700164794922,45.492000579833984 C-69.25900268554688,40.46799850463867 -59.790000915527344,30.150999069213867 -49.15299987792969,27.660999298095703 C-38.51599884033203,25.17099952697754 -17.91900062561035,26.465999603271484 -16.437999725341797,24.253999710083008 C-14.956999778747559,22.04199981689453 -32.0620002746582,9.309000015258789 -55.03499984741211,15.392999649047852 C-78.00800323486328,21.476999282836914 -82.0199966430664,34.167999267578125 -88.36799621582031,33.12200164794922z"></path></g><g opacity="1" transform="matrix(1,0,0,1,254.0469970703125,404.364013671875)"><path fill="rgb(4,5,52)" fill-opacity="1" d=" M-29.511999130249023,35.665000915527344 C-22.333999633789062,48.13100051879883 17.547000885009766,23.9950008392334 22.065000534057617,5.923999786376953 C26.58300018310547,-12.147000312805176 40.1349983215332,-27.733999252319336 20.18199920654297,-37.44599914550781 C0.2290000021457672,-47.15800094604492 -2.7829999923706055,-11.394000053405762 -6.923999786376953,-0.47600001096725464 C-11.0649995803833,10.442000389099121 -36.665000915527344,23.240999221801758 -29.511999130249023,35.665000915527344z"></path></g><g opacity="1" transform="matrix(1,0,0,1,319.0379943847656,405.5979919433594)"><path fill="rgb(4,5,52)" fill-opacity="1" d=" M-21.090999603271484,42.33700180053711 C-9.531000137329102,57.26900100708008 19.191999435424805,24.266000747680664 21.073999404907227,5.065999984741211 C22.95599937438965,-14.133999824523926 30.486000061035156,-41.23899841308594 6.014999866485596,-45.75699996948242 C-18.45599937438965,-50.275001525878906 -8.720000267028809,-9.239999771118164 -10.576000213623047,4.313000202178955 C-12.432000160217285,17.865999221801758 -30.125999450683594,30.666000366210938 -21.090999603271484,42.33700180053711z"></path></g><g opacity="1" transform="matrix(1,0,0,1,384.0820007324219,396.6919860839844)"><path fill="rgb(4,5,52)" fill-opacity="1" d=" M-8.581999778747559,-45.5099983215332 C-28.04400062561035,-42.395999908447266 -15.73900032043457,-12.92199993133545 -11.970000267028809,-2.2160000801086426 C-8.201000213623047,8.489999771118164 -21.68600082397461,37.63999938964844 -7.228000164031982,45.00600051879883 C7.230000019073486,52.37200164794922 23.79400062561035,18.113000869750977 18.14699935913086,-10.121999740600586 C12.5,-38.356998443603516 10.241000175476074,-48.52199935913086 -8.581999778747559,-45.5099983215332z"></path></g><g opacity="1" transform="matrix(1,0,0,1,453.56201171875,372.44500732421875)"><path fill="rgb(4,5,52)" fill-opacity="1" d=" M-30.62700080871582,-52.13399887084961 C-46.7239990234375,-36.0369987487793 -13.119999885559082,-8.086999893188477 -6.343999862670898,2.078000068664551 C0.4320000112056732,12.243000030517578 7.209000110626221,55.15999984741211 22.45599937438965,57.98400115966797 C37.702999114990234,60.80799865722656 39.39699935913086,7.159999847412109 25.27899932861328,-25.027999877929688 C11.16100025177002,-57.215999603271484 -17.638999938964844,-65.12200164794922 -30.62700080871582,-52.13399887084961z"></path></g></g></g></svg>