<svg xmlns="http://www.w3.org/2000/svg" xmlns:xlink="http://www.w3.org/1999/xlink" viewBox="0 0 512 512" width="512" height="512" style="width: 100%; height: 100%; transform: translate3d(0,0,0);" preserveAspectRatio="xMidYMid meet"><defs><clipPath id="__lottie_element_51570"><rect width="512" height="512" x="0" y="0"></rect></clipPath></defs><g clip-path="url(#__lottie_element_51570)"><g style="display: block;" transform="matrix(1,0,0,1,276.26800537109375,254.947998046875)" opacity="1"><g opacity="1" transform="matrix(1,0,0,1,0,0)"><path fill="rgb(0,0,0)" fill-opacity="1" d=" M202.33399963378906,-230.77999877929688 C192.3979949951172,-228.18800354003906 156.54200744628906,-178.0760040283203 86.98899841308594,-159.3280029296875 C17.43600082397461,-140.5800018310547 -26.996999740600586,-80.97100067138672 -29.142000198364258,-52.27799987792969 C-29.503000259399414,-47.448001861572266 -31.958999633789062,-42.7239990234375 -37.143001556396484,-41.875 C-42.79800033569336,-40.94900131225586 -47.27199935913086,-45.176998138427734 -48.172000885009766,-50.55699920654297 C-48.65800094604492,-53.46099853515625 -48.49599838256836,-56.61600112915039 -48.358001708984375,-59.54399871826172 C-47.590999603271484,-75.81700134277344 -40.61600112915039,-90.3270034790039 -30.833999633789062,-103.08200073242188 C-17.57900047302246,-120.36499786376953 -5.050000190734863,-136.69000244140625 -9.0649995803833,-159.80999755859375 C-13.42300033569336,-184.9080047607422 -32.74700164794922,-205.13400268554688 -54.52000045776367,-216.90199279785156 C-72.32099914550781,-226.5229949951172 -92.91500091552734,-229.15499877929688 -112.6719970703125,-232.2449951171875 C-131.64999389648438,-235.21299743652344 -150.81900024414062,-237.71600341796875 -170.0240020751953,-238.54299926757812 C-174.85299682617188,-238.75100708007812 -198.343994140625,-241.41200256347656 -200.01499938964844,-233.86300659179688 C-203.0229949951172,-220.2760009765625 -177.71299743652344,-213.13499450683594 -174.75399780273438,-190.2899932861328 C-173.25100708007812,-178.68600463867188 -176.19000244140625,-167.6280059814453 -179.37399291992188,-156.70700073242188 C-172.6929931640625,-149.1230010986328 -164.33599853515625,-146.1230010986328 -154.8560028076172,-146.19900512695312 C-153.0500030517578,-150.86500549316406 -152.17300415039062,-153.25100708007812 -149.29400634765625,-160.375 C-145.5919952392578,-169.53599548339844 -133.0290069580078,-167.0240020751953 -129.09100341796875,-157.05599975585938 C-125.95099639892578,-149.10800170898438 -125.0739974975586,-139.781005859375 -127.01699829101562,-131.43299865722656 C-129.36000061035156,-121.36799621582031 -145.26100158691406,-113.18599700927734 -154.5189971923828,-118.94400024414062 C-154.9429931640625,-119.20700073242188 -155.33599853515625,-119.48899841308594 -155.6999969482422,-119.78700256347656 C-162.20899963378906,-125.12100219726562 -160.01800537109375,-133.05499267578125 -156.69900512695312,-141.4810028076172 C-155.96099853515625,-143.35499572753906 -155.3719940185547,-144.86500549316406 -154.8560028076172,-146.19900512695312 C-154.8560028076172,-146.19900512695312 -179.37399291992188,-156.70700073242188 -179.37399291992188,-156.70700073242188 C-181.4320068359375,-149.64999389648438 -183.59100341796875,-142.64999389648438 -184.7220001220703,-135.59800720214844 C-193.2100067138672,-105.53399658203125 -210.4429931640625,-82.1729965209961 -214.2729949951172,-60.34299850463867 C-218.10299682617188,-38.51300048828125 -187.46400451660156,-25.492000579833984 -176.74099731445312,-18.981000900268555 C-166.01699829101562,-12.470999717712402 -178.18600463867188,-47.89500045776367 -130.74000549316406,-77.28900146484375 C-123.82099914550781,-79.83000183105469 -117.66799926757812,-79.85099792480469 -113.5479965209961,-75.13099670410156 C-98.86000061035156,-58.30099868774414 -140.0570068359375,-31.10099983215332 -143.2779998779297,-5.859000205993652 C-147.34500122070312,26.016000747680664 -131.7220001220703,55.053001403808594 -108.56099700927734,75.94100189208984 C-96.97699737548828,86.38800048828125 -83.73799896240234,94.97899627685547 -69.74500274658203,101.83200073242188 C-56.54899978637695,108.29399871826172 -42.0890007019043,118.54499816894531 -43.15399932861328,135.12100219726562 C-44.41699981689453,154.77499389648438 -61.130001068115234,167.8350067138672 -79.23100280761719,171.9320068359375 C-99.94200134277344,176.6199951171875 -120.83699798583984,169.8159942626953 -134.80999755859375,153.75599670410156 C-141.97799682617188,145.51699829101562 -147.1580047607422,135.4810028076172 -149.80499267578125,124.89099884033203 C-150.89199829101562,120.54100036621094 -153.49600219726562,117.57099914550781 -156.58799743652344,116.19300079345703 C-163.6580047607422,113.04100036621094 -173.29400634765625,118.2509994506836 -173.29400634765625,134.593994140625 C-173.29400634765625,158.08299255371094 -157.43499755859375,244.20399475097656 -52.775001525878906,238.93299865722656 C-17.66699981689453,235.9929962158203 16.04800033569336,219.67799377441406 40.04199981689453,193.50999450683594 C62.79100036621094,168.6999969482422 76.9260025024414,133.8280029296875 73.7750015258789,99.9219970703125 C71.31700134277344,73.47000122070312 56.53900146484375,48.597999572753906 34.599998474121094,33.83700180053711 C23.375,26.28499984741211 11.666000366210938,19.27400016784668 1.6109999418258667,10.144000053405762 C-6.328999996185303,2.934999942779541 -2.1530001163482666,-16.687000274658203 10.468000411987305,-9.480999946594238 C23.089000701904297,-2.2750000953674316 67.72699737548828,23.58300018310547 81.51399993896484,29.83799934387207 C95.3010025024414,36.09299850463867 108.83300018310547,26.964000701904297 98.36499786376953,14.008000373840332 C87.89700317382812,1.0520000457763672 93.64099884033203,-24.16200065612793 115.08799743652344,-8.07699966430664 C136.53500366210938,8.008000373840332 151.3560028076172,21.631000518798828 164.7480010986328,35.45500183105469 C178.13999938964844,49.27899932861328 196.56300354003906,40.87300109863281 186.19500732421875,25.753000259399414 C175.82699584960938,10.633000373840332 159.4250030517578,-53.6510009765625 193.5989990234375,-110.33200073242188 C227.7729949951172,-167.01300048828125 212.27000427246094,-233.3719940185547 202.33399963378906,-230.77999877929688z"></path></g></g></g></svg>