<svg xmlns="http://www.w3.org/2000/svg" xmlns:xlink="http://www.w3.org/1999/xlink" viewBox="0 0 512 512" width="512" height="512" style="width: 100%; height: 100%; transform: translate3d(0,0,0);" preserveAspectRatio="xMidYMid meet"><defs><clipPath id="__lottie_element_52990"><rect width="512" height="512" x="0" y="0"></rect></clipPath></defs><g clip-path="url(#__lottie_element_52990)"><g style="display: block;" transform="matrix(1,0,0,1,234.5399932861328,252.9290008544922)" opacity="1"><g opacity="1" transform="matrix(1,0,0,1,0,0)"><path fill="rgb(0,0,0)" fill-opacity="1" d=" M6.35,-155.81 C1.51,-167.42 -10.28,-173.57 -19.97,-169.53 C-29.67,-165.5 -33.61,-152.79 -28.77,-141.18 C-23.94,-129.58 -12.15,-123.43 -2.45,-127.46 C7.24,-131.5 11.18,-144.2 6.35,-155.81z M166.18699645996094,61.19499969482422 C159.98699951171875,53.89500045776367 157.33700561523438,53.45500183105469 151.58700561523438,41.95500183105469 C144.23699951171875,27.264999389648438 148.23699951171875,13.354999542236328 156.0070037841797,6.565000057220459 C166.6269989013672,-2.7249999046325684 166.8470001220703,-5.824999809265137 164.85699462890625,-13.125 C162.86700439453125,-20.424999237060547 147.16700744628906,-30.155000686645508 148.26699829101562,-51.6150016784668 C149.0570068359375,-66.8550033569336 163.52699279785156,-78.375 165.51699829101562,-88.7750015258789 C168.08700561523438,-102.17500305175781 159.98699951171875,-104.03500366210938 153.57699584960938,-120.625 C150.35699462890625,-128.9550018310547 146.8470001220703,-139.9949951171875 153.35699462890625,-157.56500244140625 C162.20700073242188,-181.4550018310547 146.48699951171875,-187.21499633789062 134.33700561523438,-194.28500366210938 C115.30699920654297,-205.34500122070312 111.10700225830078,-212.86500549316406 101.15699768066406,-230.125 C91.1969985961914,-247.375 82.5770034790039,-247.375 61.33700180053711,-242.72500610351562 C40.106998443603516,-238.0850067138672 20.466999053955078,-238.6750030517578 9.13700008392334,-239.4149932861328 C-4.583000183105469,-240.2949981689453 -26.402999877929688,-240.59500122070312 -54.12300109863281,-219.5050048828125 C-85.53299713134766,-195.61500549316406 -78.68299865722656,-150.48500061035156 -78.68299865722656,-150.48500061035156 C-92.86299896240234,-131.15499877929688 -138.9530029296875,-103.48500061035156 -141.60299682617188,-101.8949966430664 C-144.39300537109375,-103.83499908447266 -147.7729949951172,-104.9749984741211 -151.43299865722656,-104.9749984741211 C-160.97300720214844,-104.9749984741211 -168.71299743652344,-97.23500061035156 -168.71299743652344,-87.69499969482422 C-168.71299743652344,-78.625 -161.72300720214844,-71.20500183105469 -152.84300231933594,-70.48500061035156 C-112.2229995727539,-43.96500015258789 -55.3129997253418,-47.70500183105469 0.7269999980926514,-76.16500091552734 C46.266998291015625,-99.29499816894531 60.797000885009766,-130.05499267578125 63.32699966430664,-124.6050033569336 C71.95700073242188,-106.0250015258789 32.73699951171875,-70.90499877929688 -1.0429999828338623,-54.935001373291016 C-33.77299880981445,-39.44499969482422 -43.382999420166016,-32.654998779296875 -55.01300048828125,-14.234999656677246 C-70.94300079345703,10.984999656677246 -66.9530029296875,50.35499954223633 -35.542999267578125,74.68499755859375 C-8.053000450134277,95.98500061035156 23.517000198364258,114.94499969482422 26.16699981689453,136.84500122070312 C28.816999435424805,158.7449951171875 20.636999130249023,178.21499633789062 -7.672999858856201,187.5050048828125 C-47.362998962402344,200.52499389648438 -65.41300201416016,183.2949981689453 -68.7229995727539,171.35499572753906 C-72.04299926757812,159.40499877929688 -59.2130012512207,155.86500549316406 -54.573001861572266,161.84500122070312 C-49.92300033569336,167.81500244140625 -42.40299987792969,173.34500122070312 -33.77299880981445,168.03500366210938 C-25.152999877929688,162.72500610351562 -25.37299919128418,146.13499450683594 -41.303001403808594,136.18499755859375 C-57.222999572753906,126.2249984741211 -85.09300231933594,125.125 -97.48300170898438,156.53500366210938 C-108.01300048828125,183.2449951171875 -84.65299987792969,250.76499938964844 19.527000427246094,245.01499938964844 C142.28700256347656,238.23500061035156 140.9669952392578,138.1750030517578 142.2969970703125,120.25499725341797 C150.69700622558594,109.19499969482422 154.93699645996094,87.53500366210938 161.53700256347656,81.1050033569336 C169.63699340820312,73.2249984741211 170.41700744628906,66.18499755859375 166.18699645996094,61.19499969482422z"></path><g opacity="1" transform="matrix(0.3844403326511383,0.923149824142456,-0.923149824142456,0.3844403326511383,-11.21399974822998,-148.4980010986328)"></g><g opacity="1" transform="matrix(1,0,0,1,0,0)"></g></g></g></g></svg>