<svg xmlns="http://www.w3.org/2000/svg" xmlns:xlink="http://www.w3.org/1999/xlink" viewBox="0 0 512 512" width="512" height="512" style="width: 100%; height: 100%; transform: translate3d(0,0,0);" preserveAspectRatio="xMidYMid meet"><defs><clipPath id="__lottie_element_52180"><rect width="512" height="512" x="0" y="0"></rect></clipPath></defs><g clip-path="url(#__lottie_element_52180)"><g style="display: block;" transform="matrix(1,0,0,1,0,0)" opacity="1"><g opacity="1" transform="matrix(1,0,0,1,254.95599365234375,255.44700622558594)"><path fill="rgb(0,0,0)" fill-opacity="1" d=" M245.13999938964844,106.41300201416016 C235.32400512695312,95.63899993896484 231.7550048828125,110.00399780273438 213.90699768066406,110.9020004272461 C196.05999755859375,111.80000305175781 183.56700134277344,101.0270004272461 193.38299560546875,48.055999755859375 C203.19900512695312,-4.914000034332275 169.28900146484375,-39.029998779296875 169.28900146484375,-39.029998779296875 C210.33799743652344,-48.90599822998047 235.32400512695312,-74.94200134277344 231.7550048828125,-110.85299682617188 C228.18499755859375,-146.76499938964844 172.85899353027344,-158.43600463867188 130.91799926757812,-133.2989959716797 C88.97699737548828,-108.16000366210938 46.14400100708008,-111.7509994506836 46.14400100708008,-111.7509994506836 C103.25499725341797,-137.78700256347656 118.42500305175781,-172.802001953125 118.42500305175781,-172.802001953125 C95.2239990234375,-213.20199584960938 -7.396999835968018,-285.92401123046875 -117.15699768066406,-212.30499267578125 C-226.91700744628906,-138.68499755859375 -184.9759979248047,-59.67900085449219 -200.14599609375,-23.767000198364258 C-215.31700134277344,12.145000457763672 -255.4720001220703,14.838000297546387 -246.54800415039062,58.82899856567383 C-237.625,102.82099914550781 -170.69900512695312,88.45700073242188 -170.69900512695312,88.45700073242188 C-168.02200317382812,127.95999908447266 -153.74400329589844,142.32400512695312 -131.43499755859375,154.8939971923828 C-109.1259994506836,167.46299743652344 -101.98699951171875,174.64599609375 -103.77200317382812,196.1929931640625 C-105.55599975585938,217.73899841308594 -136.78900146484375,213.25100708007812 -139.46600341796875,225.81900024414062 C-142.14300537109375,238.38900756835938 -121.61900329589844,255.44700622558594 -81.46299743652344,237.49099731445312 C-41.30699920654297,219.53500366210938 -39.52199935913086,162.9739990234375 -61.83100128173828,133.3470001220703 C-84.13999938964844,103.72000122070312 -80.56999969482422,78.58100128173828 -80.56999969482422,78.58100128173828 C-45.76900100708008,92.0479965209961 -30.599000930786133,83.96800231933594 -30.599000930786133,83.96800231933594 C-29.70599937438965,100.12799835205078 -15.428000450134277,132.44900512695312 13.126999855041504,142.32400512695312 C41.68299865722656,152.1999969482422 53.28300094604492,156.69000244140625 58.637001037597656,177.33900451660156 C63.99100112915039,197.98800659179688 41.68299865722656,201.57899475097656 44.35900115966797,216.8419952392578 C47.0369987487793,232.10499572753906 80.05400085449219,237.49099731445312 97.00900268554688,200.6820068359375 C126.7249984741211,136.1649932861328 83.62300109863281,96.53700256347656 61.31399917602539,78.58100128173828 C39.00600051879883,60.625 55.959999084472656,22.917999267578125 55.959999084472656,22.917999267578125 C82.7300033569336,35.48699951171875 110.39299774169922,23.81599998474121 110.39299774169922,23.81599998474121 C110.39299774169922,23.81599998474121 123.77899932861328,50.749000549316406 126.45600128173828,76.78500366210938 C129.13400268554688,102.82099914550781 138.0570068359375,128.85800170898438 181.78199768066406,145.91600036621094 C225.50799560546875,162.9739990234375 254.95599365234375,117.18699645996094 245.13999938964844,106.41300201416016z M-142.14300537109375,-89.30599975585938 C-173.37600708007812,-99.18199920654297 -122.51100158691406,-160.23199462890625 -104.66400146484375,-142.2760009765625 C-89.9469985961914,-127.47000122070312 -110.91100311279297,-79.43099975585938 -142.14300537109375,-89.30599975585938z M-81.46299743652344,-60.57699966430664 C-95.73999786376953,-67.75900268554688 -82.3550033569336,-99.18199920654297 -67.18499755859375,-92.89800262451172 C-52.01499938964844,-86.61299896240234 -67.18499755859375,-53.39500045776367 -81.46299743652344,-60.57699966430664z"></path></g></g></g></svg>