<svg xmlns="http://www.w3.org/2000/svg" xmlns:xlink="http://www.w3.org/1999/xlink" viewBox="0 0 512 512" width="512" height="512" style="width: 100%; height: 100%; transform: translate3d(0,0,0);" preserveAspectRatio="xMidYMid meet"><defs><clipPath id="__lottie_element_52786"><rect width="512" height="512" x="0" y="0"></rect></clipPath></defs><g clip-path="url(#__lottie_element_52786)"><g style="display: block;" transform="matrix(1,0,0,1,244.4459991455078,258.52099609375)" opacity="1"><g opacity="1" transform="matrix(1,0,0,1,0,0)"><path fill="rgb(4,5,52)" fill-opacity="1" d=" M-152.9929962158203,-135.8560028076172 C-159.26100158691406,-130.1580047607422 -129.27499389648438,-100.27899932861328 -118.5459976196289,-99.1500015258789 C-107.81700134277344,-98.02100372314453 -75.06300354003906,-108.7509994506836 -53.040000915527344,-113.83300018310547 C-31.017000198364258,-118.91500091552734 -14.076000213623047,-116.09100341796875 3.994999885559082,-114.96199798583984 C22.06599998474121,-113.83300018310547 50.30099868774414,-116.65599822998047 61.029998779296875,-145.45599365234375 C61.029998779296875,-145.45599365234375 65.5479965209961,-109.87999725341797 7.947999954223633,-105.927001953125 C7.947999954223633,-105.927001953125 -3.9110000133514404,-88.98600006103516 -10.123000144958496,-88.4209976196289 C-16.334999084472656,-87.85600280761719 -29.886999130249023,-85.5979995727539 -35.534000396728516,-81.08000183105469 C-41.180999755859375,-76.56199645996094 -42.875,-68.65599822998047 -47.393001556396484,-63.57400131225586 C-51.9109992980957,-58.492000579833984 -69.41699981689453,-39.856998443603516 -76.19300079345703,-20.091999053955078 C-82.96900177001953,-0.3269999921321869 -95.95700073242188,29.038000106811523 -79.58100128173828,53.31999969482422 C-63.20500183105469,77.60199737548828 -57.55799865722656,80.98999786376953 -53.040000915527344,91.15499877929688 C-48.52199935913086,101.31999969482422 -53.040000915527344,105.27300262451172 -23.674999237060547,110.91999816894531 C5.690000057220459,116.56700134277344 35.61800003051758,126.16699981689453 38.44200134277344,155.53199768066406 C41.26599884033203,184.89700317382812 24.323999404907227,208.0489959716797 -11.251999855041504,208.61399841308594 C-46.827999114990234,209.1790008544922 -62.63999938964844,194.49600219726562 -63.20500183105469,179.24899291992188 C-63.77000045776367,164.0019989013672 -48.52299880981445,152.70799255371094 -28.757999420166016,153.83700561523438 C-8.993000030517578,154.96600341796875 -6.735000133514404,167.9550018310547 -7.863999843597412,171.9080047607422 C-8.993000030517578,175.86099243164062 -21.981000900268555,179.81399536132812 -28.19300079345703,178.1199951171875 C-34.404998779296875,176.42599487304688 -44.56999969482422,183.20199584960938 -19.722999572753906,187.72000122070312 C5.124000072479248,192.23800659179688 19.80699920654297,179.25 15.288999557495117,159.48500061035156 C10.770999908447266,139.72000122070312 -15.204999923706055,126.73100280761719 -51.34600067138672,132.9429931640625 C-87.48699951171875,139.15499877929688 -107.81600189208984,181.50799560546875 -87.48699951171875,212.0019989013672 C-67.15799713134766,242.49600219726562 7.947999954223633,253.2259979248047 58.770999908447266,225.55499267578125 C109.59400177001953,197.88400268554688 111.28900146484375,140.28399658203125 106.20700073242188,131.24899291992188 C101.125,122.21399688720703 95.47799682617188,118.26100158691406 92.65399932861328,110.91999816894531 C89.83000183105469,103.5790023803711 81.92500305175781,87.2020034790039 87.00700378417969,77.60199737548828 C92.08899688720703,68.00199890136719 138.39500427246094,31.861000061035156 134.44200134277344,10.967000007629395 C130.48899841308594,-9.927000045776367 80.2300033569336,11.531999588012695 72.88899993896484,9.838000297546387 C65.5479965209961,8.144000053405762 66.677001953125,1.496999979019165 78.53600311279297,-2.5209999084472656 C90.3949966430664,-6.539000034332275 95.47699737548828,-4.84499979019165 99.99500274658203,-9.927000045776367 C104.51300048828125,-15.008999824523926 99.43000030517578,-21.22100067138672 102.25399780273438,-27.433000564575195 C105.0780029296875,-33.64500045776367 114.677001953125,-34.20899963378906 119.19499969482422,-41.54999923706055 C123.71299743652344,-48.89099884033203 123.14800262451172,-52.84400177001953 124.2770004272461,-57.36199951171875 C125.40599822998047,-61.880001068115234 135.57200622558594,-67.5270004272461 138.9600067138672,-73.17400360107422 C142.34800720214844,-78.82099914550781 138.9600067138672,-94.06800079345703 140.6540069580078,-99.71499633789062 C142.34800720214844,-105.36199951171875 153.07699584960938,-111.572998046875 153.64199829101562,-120.04399871826172 C154.20700073242188,-128.51499938964844 153.64199829101562,-134.16200256347656 151.38299560546875,-138.67999267578125 C149.12399291992188,-143.197998046875 150.81900024414062,-158.44400024414062 146.30099487304688,-166.35000610351562 C141.7830047607422,-174.25599670410156 135.00599670410156,-175.38499450683594 128.22999572753906,-181.03199768066406 C121.4540023803711,-186.6790008544922 122.01899719238281,-189.5030059814453 117.5009994506836,-195.71499633789062 C112.98300170898438,-201.927001953125 98.3010025024414,-210.39700317382812 92.65399932861328,-210.96200561523438 C92.65399932861328,-210.96200561523438 68.37200164794922,-243.14999389648438 59.9010009765625,-241.45599365234375 C51.43000030517578,-239.76199340820312 50.30099868774414,-219.4320068359375 42.39500045776367,-216.04400634765625 C34.48899841308594,-212.656005859375 7.382999897003174,-218.8679962158203 -7.298999786376953,-214.9149932861328 C-21.981000900268555,-210.96200561523438 -27.628999710083008,-194.58599853515625 -36.66400146484375,-184.42100524902344 C-45.69900131225586,-174.25599670410156 -75.62799835205078,-152.7969970703125 -99.34600067138672,-146.02099609375 C-123.06400299072266,-139.2449951171875 -146.781005859375,-141.5030059814453 -152.9929962158203,-135.8560028076172z"></path></g></g></g></svg>