<svg xmlns="http://www.w3.org/2000/svg" xmlns:xlink="http://www.w3.org/1999/xlink" viewBox="0 0 512 512" width="512" height="512" style="width: 100%; height: 100%; transform: translate3d(0,0,0);" preserveAspectRatio="xMidYMid meet"><defs><clipPath id="__lottie_element_53619"><rect width="512" height="512" x="0" y="0"></rect></clipPath></defs><g clip-path="url(#__lottie_element_53619)"><g style="display: block;" transform="matrix(1,0,0,1,256,256)" opacity="1"><g opacity="1" transform="matrix(1,0,0,1,0,0)"><path fill="rgb(0,0,0)" fill-opacity="1" d=" M190.22000122070312,-55.54800033569336 C188.4739990234375,-63.233001708984375 180.93099975585938,-69.98100280761719 170.04100036621094,-73.5989990234375 C158.35299682617188,-77.48500061035156 141.21499633789062,-77.67400360107422 128.1719970703125,-66.55999755859375 C113.2490005493164,-53.845001220703125 107.52200317382812,-33.43600082397461 103.73300170898438,-19.930999755859375 C102.53399658203125,-15.65999984741211 101.4010009765625,-11.625 100.41699981689453,-9.522000312805176 C99.0530014038086,-6.609000205993652 93.77100372314453,-1.4509999752044678 87.36100006103516,3.871000051498413 C89.20899963378906,-15.427000045776367 92.68399810791016,-45.60900115966797 97.52300262451172,-61.577999114990234 C105.64099884033203,-88.36900329589844 111.86299896240234,-118.94100189208984 112.65399932861328,-135.9219970703125 C112.80000305175781,-139.07400512695312 113.3030014038086,-144.6649932861328 113.88500213623047,-151.13900756835938 C119.23699951171875,-210.6820068359375 118.07099914550781,-232.26600646972656 109.08999633789062,-239.96400451660156 C101.28199768066406,-246.656005859375 87.03399658203125,-246.61700439453125 74.43900299072266,-239.86700439453125 C57.43000030517578,-230.75 48.83399963378906,-212.5970001220703 51.44200134277344,-191.3090057373047 C54.196998596191406,-168.81500244140625 52.91899871826172,-163.2760009765625 50.80400085449219,-154.10000610351562 C50.334999084472656,-152.07000732421875 49.80500030517578,-149.7689971923828 49.2760009765625,-147.1320037841797 C44.62300109863281,-123.94400024414062 37.20100021362305,-99.91600036621094 29.60700035095215,-82.37899780273438 C28.947999954223633,-86.3949966430664 28.277000427246094,-90.56900024414062 27.652000427246094,-94.45999908447266 C22.891000747680664,-124.09100341796875 19.80500030517578,-142.48800659179688 17.11400032043457,-148.11500549316406 C15.175999641418457,-152.16700744628906 10.9350004196167,-157.68699645996094 5.063000202178955,-165.3280029296875 C-4.068999767303467,-177.2100067138672 -16.576000213623047,-193.48500061035156 -20.687000274658203,-205.8209991455078 C-24.827999114990234,-218.24200439453125 -32.391998291015625,-226.49099731445312 -41.98500061035156,-229.0489959716797 C-50.606998443603516,-231.34800720214844 -59.87699890136719,-228.81300354003906 -67.4209976196289,-222.09100341796875 C-74.4739990234375,-215.8070068359375 -79.09300231933594,-204.51800537109375 -79.77799987792969,-191.89300537109375 C-80.68099975585938,-175.23599243164062 -74.73500061035156,-158.92799377441406 -63.03499984741211,-145.97500610351562 C-55.04399871826172,-137.12600708007812 -49.275001525878906,-131.60899353027344 -45.06399917602539,-127.58100128173828 C-38.29100036621094,-121.10199737548828 -38.29199981689453,-121.04900360107422 -38.43299865722656,-118.25199890136719 C-38.61399841308594,-114.64199829101562 -38.0880012512207,-110.32499694824219 -37.36000061035156,-104.3499984741211 C-36.46200180053711,-96.9739990234375 -35.22100067138672,-86.7760009765625 -34.91400146484375,-73.29100036621094 C-42.51599884033203,-91.2300033569336 -51.518001556396484,-110.74800109863281 -57.472999572753906,-117.9990005493164 C-66.75199890136719,-129.2969970703125 -81.36699676513672,-129.88999938964844 -94.26100158691406,-130.41200256347656 C-100.7699966430664,-130.67599487304688 -106.91699981689453,-130.9250030517578 -112.16799926757812,-132.35699462890625 C-115.11799621582031,-133.16200256347656 -118.06300354003906,-134.02699279785156 -120.91200256347656,-134.86300659179688 C-136.4080047607422,-139.41099548339844 -149.78799438476562,-143.33799743652344 -159.35400390625,-136.6439971923828 C-164.82000732421875,-132.8179931640625 -167.1060028076172,-125.15299987792969 -165.62600708007812,-115.61499786376953 C-163.6490020751953,-102.87200164794922 -154.32899475097656,-85.80000305175781 -134.57000732421875,-79.625 C-122.03900146484375,-75.70899963378906 -115.97699737548828,-74.78099822998047 -111.96399688720703,-74.16799926757812 C-108.31700134277344,-73.61000061035156 -107.55699920654297,-73.49500274658203 -103.6709976196289,-71.10299682617188 C-99.22200012207031,-68.36499786376953 -90.83200073242188,-52.8120002746582 -85.23300170898438,-37.917999267578125 C-96.92400360107422,-45.55500030517578 -111.84500122070312,-53.61899948120117 -123.28500366210938,-54.09600067138672 C-138.18099975585938,-54.72200012207031 -174.79400634765625,-51.61800003051758 -186.60499572753906,-38.36600112915039 C-190.93299865722656,-33.5099983215332 -191.22300720214844,-28.56599998474121 -190.7030029296875,-25.273000717163086 C-187.67799377441406,-6.113999843597412 -168.18499755859375,4.769999980926514 -142.18099975585938,1.819000005722046 C-111.8280029296875,-1.6360000371932983 -104.52899932861328,3.26200008392334 -103.26699829101562,4.414999961853027 C-101.63600158691406,7.203000068664551 -97.84600067138672,18.968000411987305 -94.49199676513672,29.37700080871582 C-82.00700378417969,68.125 -70.50299835205078,101.052001953125 -56.145999908447266,111.54299926757812 C-46.505001068115234,118.58799743652344 -31.344999313354492,123.09200286865234 -14.437000274658203,125.38200378417969 C-14.437000274658203,125.38200378417969 -14.437000274658203,176.66000366210938 -14.437000274658203,176.66000366210938 C-27.740999221801758,182.5290069580078 -40.395999908447266,193.19200134277344 -44.255001068115234,206.46299743652344 C-47.30500030517578,216.94900512695312 -44.356998443603516,227.68299865722656 -36.16899871826172,235.91200256347656 C-30.270000457763672,241.83999633789062 -22.597000122070312,244.95799255371094 -14.145000457763672,244.95700073242188 C-12.258000373840332,244.95700073242188 -10.331999778747559,244.80099487304688 -8.376999855041504,244.48699951171875 C-1.9819999933242798,243.45899963378906 4.410999774932861,240.69700622558594 9.930999755859375,236.8260040283203 C15.451000213623047,240.69700622558594 21.844999313354492,243.45899963378906 28.239999771118164,244.48699951171875 C38.944000244140625,246.20899963378906 48.81399917602539,243.16400146484375 56.029998779296875,235.91200256347656 C64.21900177001953,227.68299865722656 67.16699981689453,216.9499969482422 64.11699676513672,206.46299743652344 C60.257999420166016,193.19200134277344 47.604000091552734,182.5290069580078 34.29999923706055,176.66000366210938 C34.29999923706055,176.66000366210938 34.29999923706055,126.2699966430664 34.29999923706055,126.2699966430664 C40.426998138427734,125.70500183105469 46.32899856567383,124.89600372314453 51.81399917602539,123.84200286865234 C79.27300262451172,118.56900024414062 93.47000122070312,97.53800201416016 103.83599853515625,82.18399810791016 C106.99099731445312,77.51000213623047 109.71600341796875,73.4729995727539 112.13500213623047,70.927001953125 C116.35099792480469,66.48899841308594 120.50599670410156,62.374000549316406 124.52400207519531,58.39400100708008 C139.15699768066406,43.900001525878906 151.79400634765625,31.382999420166016 157.47999572753906,13.187999725341797 C165.33099365234375,-11.932000160217285 174.47999572753906,-22.52199935913086 181.16099548339844,-30.253999710083008 C187.19000244140625,-37.233001708984375 192.88499450683594,-43.823001861572266 190.22000122070312,-55.54800033569336z"></path></g></g></g></svg>