<svg xmlns="http://www.w3.org/2000/svg" xmlns:xlink="http://www.w3.org/1999/xlink" viewBox="0 0 512 512" width="512" height="512" style="width: 100%; height: 100%; transform: translate3d(0,0,0);" preserveAspectRatio="xMidYMid meet"><defs><clipPath id="__lottie_element_53784"><rect width="512" height="512" x="0" y="0"></rect></clipPath></defs><g clip-path="url(#__lottie_element_53784)"><g style="display: block;" transform="matrix(1,0,0,1,3.332000732421875,19.75)" opacity="1"><g opacity="1" transform="matrix(1,0,0,1,254.45899963378906,246.25)"><path fill="rgb(0,0,0)" fill-opacity="1" d=" M-232.79100036621094,-185 C-236.22300720214844,-172.07400512695312 -237.43800354003906,-124.11399841308594 -226.79100036621094,-128 C-219.2209930419922,-130.76300048828125 -184.79100036621094,-193 -167.79100036621094,-190 C-153.86399841308594,-187.54200744628906 -75.79100036621094,-72 148.20899963378906,-6 C166.63499450683594,-0.5709999799728394 157.20899963378906,33 138.20899963378906,28 C-84.62200164794922,-30.639999389648438 -149.79100036621094,-134 -162.79100036621094,-135 C-176,-136.01600646972656 -210.9669952392578,-90.61499786376953 -217.79100036621094,-80 C-226.79100036621094,-66 -208.10499572753906,6.451000213623047 -211.79100036621094,16 C-216.8419952392578,29.086000442504883 -225.572998046875,25.788000106811523 -226.79100036621094,40 C-229.79100036621094,75 -170.7449951171875,96.26200103759766 -115.79100036621094,110 C-11.791000366210938,136 74.20899963378906,114 76.20899963378906,128 C77.95800018310547,140.2449951171875 -1.7910000085830688,159 -122.79100036621094,134 C-209.60299682617188,116.06300354003906 -208.78399658203125,92.052001953125 -218.79100036621094,94 C-240.8489990234375,98.29499816894531 -254.20899963378906,152.94200134277344 -244.9980010986328,172.50399780273438 C-195.79100036621094,277 96.20899963378906,214 149.20899963378906,120 C151.43800354003906,116.0479965209961 160.69000244140625,132.66000366210938 173.20899963378906,133 C191.69000244140625,133.5019989013672 204.20899963378906,121 210.20899963378906,102 C218.2729949951172,76.46199798583984 212.3350067138672,50.279998779296875 221.20899963378906,16 C231.7550048828125,-24.73900032043457 262.4079895019531,-63.268001556396484 244.20899963378906,-88 C205.20899963378906,-141 -48.79100036621094,-246 -140.79100036621094,-246 C-175.79100036621094,-246 -221.41799926757812,-227.83599853515625 -232.79100036621094,-185z"></path></g></g></g></svg>