<svg xmlns="http://www.w3.org/2000/svg" xmlns:xlink="http://www.w3.org/1999/xlink" viewBox="0 0 512 512" width="512" height="512" style="width: 100%; height: 100%; transform: translate3d(0,0,0);" preserveAspectRatio="xMidYMid meet"><defs><clipPath id="__lottie_element_53040"><rect width="512" height="512" x="0" y="0"></rect></clipPath></defs><g clip-path="url(#__lottie_element_53040)"><g style="display: block;" transform="matrix(1.9126900434494019,0,0,1.9126900434494019,-231.64865112304688,-293.6486511230469)" opacity="1"><g opacity="1" transform="matrix(1,0,0,1,247.906005859375,281.2900085449219)"><path fill="rgb(61,48,59)" fill-opacity="1" d=" M122.93599700927734,-88.26399993896484 C122.2490005493164,-100.0479965209961 111.94999694824219,-132.58999633789062 84.19999694824219,-115.36000061035156 C-0.31299999356269836,-62.888999938964844 -106.10199737548828,43.68899917602539 -111.97899627685547,52.48899841308594 C-125.70099639892578,73.03500366210938 -97.28600311279297,126.80000305175781 -61.042999267578125,130.71099853515625 C-43.63399887084961,132.58999633789062 5.745999813079834,93.177001953125 -6.190000057220459,82.80000305175781 C-36.55500030517578,56.400001525878906 -39.49399948120117,27.066999435424805 -39.49399948120117,27.066999435424805 C-39.49399948120117,27.066999435424805 31.031999588012695,102.35600280761719 64.33699798583984,92.5780029296875 C91.7020034790039,84.54399871826172 125.70099639892578,-40.82699966430664 122.93599700927734,-88.26399993896484z M0.6669999957084656,17.288999557495117 C-6.366000175476074,17.288999557495117 -12.067000389099121,11.597999572753906 -12.067000389099121,4.578000068664551 C-12.067000389099121,-2.441999912261963 -6.366000175476074,-8.133000373840332 0.6669999957084656,-8.133000373840332 C7.699999809265137,-8.133000373840332 13.401000022888184,-2.441999912261963 13.401000022888184,4.578000068664551 C13.401000022888184,11.597999572753906 7.699999809265137,17.288999557495117 0.6669999957084656,17.288999557495117z"></path></g></g></g></svg>