<svg xmlns="http://www.w3.org/2000/svg" xmlns:xlink="http://www.w3.org/1999/xlink" viewBox="0 0 512 512" width="512" height="512" style="width: 100%; height: 100%; transform: translate3d(0,0,0);" preserveAspectRatio="xMidYMid meet"><defs><clipPath id="__lottie_element_53289"><rect width="512" height="512" x="0" y="0"></rect></clipPath></defs><g clip-path="url(#__lottie_element_53289)"><g style="display: block;" transform="matrix(1,0,0,1,0,0)" opacity="1"><g opacity="1" transform="matrix(1,0,0,1,262.7200012207031,254.21600341796875)"><path fill="rgb(0,0,0)" fill-opacity="1" d=" M165.572998046875,74.41699981689453 C165.572998046875,74.41699981689453 234.70199584960938,1.9550000429153442 234.70199584960938,1.9550000429153442 C234.70199584960938,1.9550000429153442 163.4040069580078,-12.850000381469727 129.5229949951172,-69.44100189208984 C129.5229949951172,-69.44100189208984 167.50399780273438,-119.40599822998047 237.22999572753906,-129.36599731445312 C237.22999572753906,-129.36599731445312 235.968994140625,-229.718994140625 235.968994140625,-229.718994140625 C235.968994140625,-229.718994140625 136.06900024414062,-235.00100708007812 136.06900024414062,-235.00100708007812 C136.06900024414062,-235.00100708007812 129.21600341796875,-159.86500549316406 79.16799926757812,-125.52899932861328 C79.16799926757812,-125.52899932861328 32.24700164794922,-160.01199340820312 17.60700035095215,-233.35000610351562 C17.60700035095215,-233.35000610351562 -71.71700286865234,-154.06900024414062 -71.71700286865234,-154.06900024414062 C-71.71700286865234,-154.06900024414062 -14.916999816894531,-143.5570068359375 18.350000381469727,-101.802001953125 C18.350000381469727,-101.802001953125 -62.85900115966797,2.694999933242798 -237.22999572753906,28.41200065612793 C-237.22999572753906,28.41200065612793 -191.73599243164062,107.1780014038086 -233.41099548339844,234.14100646972656 C-233.41099548339844,234.14100646972656 -132.1999969482422,196.77699279785156 -31.29599952697754,235.00100708007812 C-31.29599952697754,235.00100708007812 5.3480000495910645,85.77400207519531 100.14700317382812,-1.3450000286102295 C100.14700317382812,-1.3450000286102295 57.319000244140625,-71.15899658203125 57.319000244140625,-71.15899658203125 C57.319000244140625,-71.15899658203125 107.12200164794922,-54.555999755859375 165.572998046875,74.41699981689453z M194.38800048828125,-187.80499267578125 C213.781005859375,-171.9980010986328 166.01400756835938,-137.3509979248047 156.9429931640625,-151.83299255371094 C148.26199340820312,-165.69200134277344 174.9949951171875,-203.61199951171875 194.38800048828125,-187.80499267578125z M-167.7830047607422,164.7239990234375 C-167.7830047607422,164.7239990234375 -107.20600128173828,25.92099952697754 10.704000473022461,-15.215999603271484 C10.704000473022461,-15.215999603271484 -167.7830047607422,164.7239990234375 -167.7830047607422,164.7239990234375z"></path></g></g></g></svg>