<svg xmlns="http://www.w3.org/2000/svg" xmlns:xlink="http://www.w3.org/1999/xlink" viewBox="0 0 512 512" width="512" height="512" style="width: 100%; height: 100%; transform: translate3d(0,0,0);" preserveAspectRatio="xMidYMid meet"><defs><clipPath id="__lottie_element_52055"><rect width="512" height="512" x="0" y="0"></rect></clipPath></defs><g clip-path="url(#__lottie_element_52055)"><g style="display: block;" transform="matrix(1,0,0,1,0,0)" opacity="1"><g opacity="1" transform="matrix(1,0,0,1,266.8299865722656,258.7250061035156)"><path fill="rgb(0,0,0)" fill-opacity="1" d=" M11.34000015258789,59.44499969482422 C18.170000076293945,48.275001525878906 109.16999816894531,-4.724999904632568 198.54100036621094,-3.1640000343322754 C203.1699981689453,-14.725000381469727 221.1699981689453,-65.7249984741211 185.83999633789062,-112.7249984741211 C156.0279998779297,-152.38499450683594 110.05400085449219,-147.16799926757812 97.04499816894531,-147.97300720214844 C21.170000076293945,-104.7239990234375 -31.829999923706055,23.274999618530273 -31.079999923706055,17.19499969482422 C-22.829999923706055,-55.724998474121094 33.16999816894531,-127.7249984741211 62.7239990234375,-162.75599670410156 C58.16999816894531,-173.10000610351562 49.66999816894531,-194.72500610351562 9.84000015258789,-203.05499267578125 C-32.5,-211.91000366210938 -83.9000015258789,-184.5240020751953 -93.83000183105469,-164.05499267578125 C-131.8300018310547,-85.7249984741211 -100.23799896240234,9.906999588012695 -101.83000183105469,8.274999618530273 C-140.8300018310547,-31.725000381469727 -135.33999633789062,-134.48500061035156 -137.16000366210938,-149.05499267578125 C-137.72999572753906,-153.60499572753906 -238.5,-121.05500030517578 -238.5,-39.724998474121094 C-238.5,103.6050033569336 -60.869998931884766,95.46600341796875 -54.5,99.6050033569336 C-48.150001525878906,103.73500061035156 17.5,210.94500732421875 123.5,190.27499389648438 C175.7899932861328,180.0850067138672 208.1699981689453,144.94500732421875 215.5,98.94499969482422 C221.72300720214844,59.9119987487793 206.96400451660156,31.572999954223633 198.81700134277344,21.684999465942383 C94.16999816894531,12.274999618530273 5.170000076293945,68.2750015258789 11.34000015258789,59.44499969482422z"></path></g><g opacity="1" transform="matrix(1,0,0,1,174.35800170898438,411.72900390625)"><path fill="rgb(0,0,0)" fill-opacity="1" d=" M26.381000518798828,-36.6510009765625 C32.941001892089844,-31.923999786376953 79.45899963378906,20.83099937438965 73.61599731445312,34.7140007019043 C66.81199645996094,50.880001068115234 7.610000133514404,35.729000091552734 -16.575000762939453,21.579999923706055 C-35.93299865722656,10.255000114440918 -79.45899963378906,-21.952999114990234 -68.03399658203125,-38.22200012207031 C-59.14500045776367,-50.880001068115234 20.94499969482422,-40.56800079345703 26.381000518798828,-36.6510009765625z"></path></g></g></g></svg>