<svg xmlns="http://www.w3.org/2000/svg" xmlns:xlink="http://www.w3.org/1999/xlink" viewBox="0 0 512 512" width="512" height="512" style="width: 100%; height: 100%; transform: translate3d(0,0,0);" preserveAspectRatio="xMidYMid meet"><defs><clipPath id="__lottie_element_52268"><rect width="512" height="512" x="0" y="0"></rect></clipPath></defs><g clip-path="url(#__lottie_element_52268)"><g style="display: block;" transform="matrix(1,0,0,1,260.864990234375,273.01800537109375)" opacity="1"><g opacity="1" transform="matrix(1,0,0,1,0,0)"><path fill="rgb(4,5,52)" fill-opacity="1" d=" M0,210.77099609375 C13.550000190734863,210.77099609375 32.117000579833984,184.09100341796875 52.516998291015625,166.7310028076172 C92.3270034790039,132.8509979248047 162.63999938964844,132.00100708007812 179.57000732421875,68.47100067138672 C201.1300048828125,-12.359000205993652 164.3300018310547,-56.89899826049805 165.17999267578125,-106.86900329589844 C166.02000427246094,-156.8489990234375 212.9199981689453,-191.20899963378906 185.50999450683594,-208.5189971923828 C169.41000366210938,-218.6790008544922 155.02999877929688,-191.2989959716797 109.2699966430664,-189.03900146484375 C40.65999984741211,-185.6490020751953 18.639999389648438,-207.66900634765625 0,-207.66900634765625 C-18.639999389648438,-207.66900634765625 -40.65999984741211,-185.6490020751953 -109.2699966430664,-189.03900146484375 C-155.02999877929688,-191.2989959716797 -169.41000366210938,-218.6790008544922 -185.50999450683594,-208.5189971923828 C-212.9199981689453,-191.20899963378906 -166.02000427246094,-156.8489990234375 -165.17999267578125,-106.86900329589844 C-164.3300018310547,-56.89899826049805 -201.1300048828125,-12.359000205993652 -179.57000732421875,68.47100067138672 C-162.63999938964844,132.00100708007812 -93.17500305175781,132.8509979248047 -53.3650016784668,166.7310028076172 C-32.96500015258789,184.09100341796875 -13.550000190734863,210.77099609375 0,210.77099609375z"></path></g></g></g></svg>