<svg xmlns="http://www.w3.org/2000/svg" xmlns:xlink="http://www.w3.org/1999/xlink" viewBox="0 0 512 512" width="512" height="512" style="width: 100%; height: 100%; transform: translate3d(0,0,0);" preserveAspectRatio="xMidYMid meet"><defs><clipPath id="__lottie_element_52010"><rect width="512" height="512" x="0" y="0"></rect></clipPath></defs><g clip-path="url(#__lottie_element_52010)"><g style="display: block;" transform="matrix(1,0,0,1,259.4580078125,257.1210021972656)" opacity="1"><g opacity="1" transform="matrix(1,0,0,1,0,0)"><path fill="rgb(0,0,0)" fill-opacity="1" d=" M-46.64,-72.34 C-20.17,-72.45 -24.92,-70.35 -22.57,-95.91 C-20.81,-115.07 -50.89,-110.2 -59.23,-110.16 C-72.37,-110.09 -67.97,-89.1 -69.47,-79.82 C-68.97,-68.18 -54.25,-73.43 -46.64,-72.34z M56.85,-72.73 C67.9,-73.13 84.26,-68.62 83.5,-80.82 C82.97,-89.46 86.51,-106.95 75,-107.8 C63.25,-108.65 31.84,-115.04 30.77,-100.78 C28.71,-73.51 29.18,-71.71 56.85,-72.73z M237.3280029296875,-237.677001953125 C265.9360046386719,-231.7519989013672 241.43800354003906,-185.125 237.67300415039062,-161.1490020751953 C230.75900268554688,-137.77200317382812 210.70399475097656,-156.1300048828125 212.8800048828125,-124.98200225830078 C210.91799926757812,-87.79399871826172 147.7100067138672,-125.95600128173828 146.9709930419922,-95.72100067138672 C145.84800720214844,-49.74700164794922 195.59800720214844,-83.02400207519531 203.5500030517578,-53.60499954223633 C232.26100158691406,35.08399963378906 153.6999969482422,-16.868000030517578 156.5449981689453,15.076000213623047 C157.0489959716797,27.341999053955078 166.89700317382812,144.20700073242188 170.41400146484375,190.4239959716797 C170.90899658203125,196.9219970703125 172.82899475097656,200.8939971923828 179.34100341796875,202.3249969482422 C201.9550018310547,208.78599548339844 198.66200256347656,237.4810028076172 168.09300231933594,238.6269989013672 C115.00599670410156,240.6179962158203 81.16200256347656,243.93600463867188 81.50199890136719,217.86099243164062 C81.58699798583984,211.31100463867188 83.73300170898438,206.0590057373047 90.02100372314453,203.5399932861328 C106.40499877929688,198.4510040283203 87.7979965209961,30.92300033569336 88.37899780273438,18.753000259399414 C89.02200317382812,5.2769999504089355 86.05500030517578,3.8550000190734863 72.68099975585938,3.805999994277954 C26.684999465942383,3.6419999599456787 -19.320999145507812,4.267000198364258 -65.2760009765625,2.2920000553131104 C-75.69499969482422,2.1640000343322754 -75.86699676513672,2.5980000495910645 -77.12200164794922,12.609000205993652 C-82.74500274658203,57.465999603271484 -103.97200012207031,194.85499572753906 -87.11599731445312,203.8719940185547 C-71.73899841308594,210.968994140625 -77.48400115966797,237.88400268554688 -95.1989974975586,237.24099731445312 C-122.54499816894531,237.73199462890625 -149.93699645996094,238.781005859375 -177.24000549316406,236.59800720214844 C-197.27699279785156,237.1510009765625 -200.76600646972656,205.47300720214844 -182.38900756835938,202.00999450683594 C-173.29600524902344,200.5290069580078 -172.14100646972656,194.66799926757812 -171.25399780273438,187.85000610351562 C-169.41299438476562,173.70399475097656 -149.49400329589844,14.062999725341797 -149.40499877929688,12.088000297546387 C-147.53199768066406,-12.258000373840332 -199.42799377441406,13.317999839782715 -198.84800720214844,-17.110000610351562 C-200.04400634765625,-109.96399688720703 -141.6230010986328,-44.07500076293945 -137.02699279785156,-86.2040023803711 C-135.83299255371094,-97.1510009765625 -128.64300537109375,-113.20500183105469 -143.6320037841797,-112.09200286865234 C-156.3179931640625,-112.32499694824219 -184.99200439453125,-111.25 -194.77000427246094,-112.4739990234375 C-213.8800048828125,-114.10299682617188 -201.9810028076172,-150.58900451660156 -222.41799926757812,-146.9980010986328 C-241.45399475097656,-148.0570068359375 -246.76600646972656,-199.40699768066406 -250.00100708007812,-213.69900512695312 C-253.6739959716797,-229.92999267578125 -247.44500732421875,-237.75599670410156 -231.21200561523438,-239.46099853515625 C-218.17300415039062,-240.8300018310547 231.8769989013672,-239.01100158691406 237.3280029296875,-237.677001953125z"></path><g opacity="1" transform="matrix(1,0,0,1,-45.98099899291992,-91.40899658203125)"></g><g opacity="1" transform="matrix(1,0,0,1,56.82500076293945,-91.0979995727539)"></g><g opacity="1" transform="matrix(1,0,0,1,0,0)"></g></g></g></g></svg>