<svg xmlns="http://www.w3.org/2000/svg" xmlns:xlink="http://www.w3.org/1999/xlink" viewBox="0 0 512 512" width="512" height="512" style="width: 100%; height: 100%; transform: translate3d(0,0,0);" preserveAspectRatio="xMidYMid meet"><defs><clipPath id="__lottie_element_52523"><rect width="512" height="512" x="0" y="0"></rect></clipPath></defs><g clip-path="url(#__lottie_element_52523)"><g style="display: block;" transform="matrix(1,0,0,1,256,256)" opacity="1"><g opacity="1" transform="matrix(1,0,0,1,0,0)"><path fill="rgb(0,0,0)" fill-opacity="1" d=" M251,-88 C251.49099731445312,-103.66400146484375 237.75399780273438,-117.32099914550781 222.1999969482422,-116.94999694824219 C218.26699829101562,-116.94999694824219 214.4669952392578,-117.33300018310547 210.8000030517578,-118.0999984741211 C202.7989959716797,-135.01300048828125 190.13400268554688,-149.14599609375 174.64999389648438,-159.60000610351562 C177.74200439453125,-191.8560028076172 137.25599670410156,-206.9949951171875 120.30000305175781,-178.89999389648438 C71.28399658203125,-183.3990020751953 29.086000442504883,-166.86399841308594 -1.149999976158142,-128.5 C-25.8799991607666,-163.46200561523438 -64.79000091552734,-179.81199645996094 -108.5,-179.64999389648438 C-211.85299682617188,-179.447998046875 -245.88299560546875,-81.06400299072266 -212.39999389648438,7.550000190734863 C-256.1000061035156,3.4089999198913574 -263.25799560546875,62.39699935913086 -220.14999389648438,65.9020004272461 C-173.31199645996094,66.41600036621094 -142.13800048828125,115.43199920654297 -143.5,161.14999389648438 C-143.04600524902344,198.06300354003906 -88.375,199.77000427246094 -85.75,162.89999389648438 C-61.78799819946289,180.41900634765625 -27.7810001373291,199.41799926757812 -0.44999998807907104,201.9510040283203 C102.37100219726562,187.99600219726562 219.99600219726562,44.23400115966797 222.1999969482422,-59.150001525878906 C237.8090057373047,-58.72999954223633 251.4239959716797,-72.38700103759766 251,-88 M145.39999389648438,-164.35000610351562 C145.39999389648438,-164.35000610351562 145.5500030517578,-164.35000610351562 145.5500030517578,-164.35000610351562 C144.53900146484375,-122.92500305175781 180.697998046875,-86.66000366210938 222.1999969482422,-87.69999694824219 C222.1999969482422,-87.69999694824219 222.1999969482422,-87.55000305175781 222.1999969482422,-87.55000305175781 C180.78399658203125,-88.55000305175781 144.5500030517578,-52.316001892089844 145.5500030517578,-10.899999618530273 C145.5500030517578,-10.899999618530273 145.39999389648438,-10.899999618530273 145.39999389648438,-10.899999618530273 C146.46099853515625,-52.316001892089844 110.1989974975586,-88.552001953125 68.9000015258789,-87.55000305175781 C68.9000015258789,-87.55000305175781 68.9000015258789,-87.69999694824219 68.9000015258789,-87.69999694824219 C110.28399658203125,-86.65799713134766 146.4720001220703,-122.92500305175781 145.39999389648438,-164.35000610351562 M-114.69999694824219,-87.4000015258789 C-114.69999694824219,-87.4000015258789 -114.55000305175781,-87.4000015258789 -114.55000305175781,-87.4000015258789 C-116.19000244140625,-26.093000411987305 -71.56700134277344,37.604000091552734 -9.050000190734863,36.79999923706055 C-9.050000190734863,36.79999923706055 -9.050000190734863,37.099998474121094 -9.050000190734863,37.099998474121094 C-71.50199890136719,36.367000579833984 -116.17400360107422,99.73999786376953 -114.55000305175781,161.14999389648438 C-114.55000305175781,161.14999389648438 -114.69999694824219,161.14999389648438 -114.69999694824219,161.14999389648438 C-113.05799865722656,99.78700256347656 -157.7550048828125,36.358001708984375 -220.14999389648438,37.099998474121094 C-220.14999389648438,37.099998474121094 -220.14999389648438,36.79999923706055 -220.14999389648438,36.79999923706055 C-157.66400146484375,37.58100128173828 -113.06700134277344,-26.10300064086914 -114.69999694824219,-87.4000015258789z"></path></g></g></g></svg>