<svg xmlns="http://www.w3.org/2000/svg" xmlns:xlink="http://www.w3.org/1999/xlink" viewBox="0 0 512 512" width="512" height="512" style="width: 100%; height: 100%; transform: translate3d(0,0,0);" preserveAspectRatio="xMidYMid meet"><defs><clipPath id="__lottie_element_52896"><rect width="512" height="512" x="0" y="0"></rect></clipPath></defs><g clip-path="url(#__lottie_element_52896)"><g style="display: block;" transform="matrix(1,0,0,1,258.6910095214844,259.9169921875)" opacity="1"><g opacity="1" transform="matrix(1,0,0,1,-104.42900085449219,89.58300018310547)"><path fill="rgb(0,0,0)" fill-opacity="1" d=" M-4.209000110626221,138.2239990234375 C-21.827999114990234,140.5800018310547 -36.819000244140625,70.7249984741211 -36.819000244140625,70.7249984741211 C-36.819000244140625,70.7249984741211 0.7929999828338623,11.678999900817871 0.7929999828338623,11.678999900817871 C4.715000152587891,5.521999835968018 -2.7239999771118164,-1.531999945640564 -8.661999702453613,2.7130000591278076 C-26.36199951171875,15.368000030517578 -48.3489990234375,30.80900001525879 -61.9010009765625,39.316001892089844 C-69.00399780273438,43.775001525878906 -138.0399932861328,29.351999282836914 -138.85699462890625,16.80900001525879 C-139.86199951171875,1.3769999742507935 -65.65699768066406,-44.816001892089844 -65.65699768066406,-44.816001892089844 C-65.65699768066406,-44.816001892089844 -81.34500122070312,-124.66500091552734 -60.79899978637695,-137.1009979248047 C-43.867000579833984,-147.3489990234375 14.12399959564209,-87.54299926757812 14.12399959564209,-87.54299926757812 C14.12399959564209,-87.54299926757812 96.72100067138672,-129.41900634765625 108.73799896240234,-115.79399871826172 C125.4800033569336,-96.81199645996094 91.89399719238281,-19.450000762939453 91.89399719238281,-19.450000762939453 C91.89399719238281,-19.450000762939453 152.33999633789062,44.941001892089844 136.09500122070312,63.082000732421875 C119.8499984741211,81.2229995727539 51.808998107910156,71.37999725341797 51.808998107910156,71.37999725341797 C51.808998107910156,71.37999725341797 10.553999900817871,136.25 -4.209000110626221,138.2239990234375z"></path></g><g opacity="1" transform="matrix(1,0,0,1,11.437000274658203,-134.4459991455078)"><path fill="rgb(0,0,0)" fill-opacity="1" d=" M-97.67900085449219,89.77999877929688 C-122.18800354003906,70.927001953125 -88.72000122070312,-7.76800012588501 -28.996999740600586,-52.56100082397461 C30.72599983215332,-97.35399627685547 84.47699737548828,-105.31600189208984 101.39900207519531,-76.44999694824219 C118.32099914550781,-47.58399963378906 84.47699737548828,-24.690000534057617 29.731000900268555,9.152999877929688 C-25.014999389648438,42.99599838256836 -71.79900360107422,109.68800354003906 -97.67900085449219,89.77999877929688z"></path></g><g opacity="1" transform="matrix(1,0,0,1,121.42500305175781,-92.97599792480469)"><path fill="rgb(0,0,0)" fill-opacity="1" d=" M-89.21600341796875,48.310001373291016 C-111.08699798583984,17.69099998474121 -55.37300109863281,-32.31700134277344 5.3460001945495605,-51.229000091552734 C66.06500244140625,-70.14099884033203 100.90399932861328,-41.275001525878906 92.94100189208984,-8.427000045776367 C84.97799682617188,24.42099952697754 59.09700012207031,26.41200065612793 9.32800006866455,37.361000061035156 C-40.441001892089844,48.310001373291016 -74.28500366210938,69.21299743652344 -89.21600341796875,48.310001373291016z"></path></g><g opacity="1" transform="matrix(1,0,0,1,130.33999633789062,22.139999389648438)"><path fill="rgb(0,0,0)" fill-opacity="1" d=" M-112.06600189208984,26.76099967956543 C-120.4000015258789,0.09099999815225601 -69.26399993896484,-39.93000030517578 0.4129999876022339,-48.888999938964844 C70.08999633789062,-57.847999572753906 114.88300323486328,-34.952999114990234 112.89199829101562,6.853000164031982 C110.9010009765625,48.659000396728516 70.09100341796875,49.654998779296875 16.34000015258789,49.654998779296875 C-37.4109992980957,49.654998779296875 -102.11199951171875,58.612998962402344 -112.06600189208984,26.76099967956543z"></path></g></g></g></svg>