<svg xmlns="http://www.w3.org/2000/svg" xmlns:xlink="http://www.w3.org/1999/xlink" viewBox="0 0 512 512" width="512" height="512" style="width: 100%; height: 100%; transform: translate3d(0,0,0);" preserveAspectRatio="xMidYMid meet"><defs><clipPath id="__lottie_element_52283"><rect width="512" height="512" x="0" y="0"></rect></clipPath></defs><g clip-path="url(#__lottie_element_52283)"><g style="display: block;" transform="matrix(1,0,0,1,243.14199829101562,254.30499267578125)" opacity="1"><g opacity="1" transform="matrix(1,0,0,1,-82.93000030517578,-89.73699951171875)"><path fill="rgb(0,0,0)" fill-opacity="1" d=" M-38.47200012207031,-137.88299560546875 C-1.687999963760376,-100.76200103759766 35.012001037597656,-63.56399917602539 70.58799743652344,-25.299999237060547 C95.68800354003906,1.6970000267028809 119.6719970703125,29.731000900268555 144.1300048828125,57.323001861572266 C145.65499877929688,59.04399871826172 146.96099853515625,60.95800018310547 148.38400268554688,62.770999908447266 C150.9600067138672,66.052001953125 150.75900268554688,69.26100158691406 147.677001953125,71.9489974975586 C136.38800048828125,81.79499816894531 125.0479965209961,91.58300018310547 113.63300323486328,101.28199768066406 C109.05899810791016,105.16899871826172 105.83100128173828,101.86199951171875 102.88500213623047,98.68599700927734 C91.39299774169922,86.29399871826172 -8.434000015258789,-16.863000869750977 -17.108999252319336,-21.900999069213867 C-19.375999450683594,-23.218000411987305 -22.076000213623047,-24.836999893188477 -24.415000915527344,-22.16200065612793 C-26.18600082397461,-20.136999130249023 -25.072999954223633,-17.788000106811523 -24.128000259399414,-15.684000015258789 C-19.364999771118164,-5.078000068664551 67.91400146484375,92.9990005493164 83.74099731445312,109.75299835205078 C92.197998046875,118.70600128173828 92.27899932861328,119.4489974975586 82.70099639892578,127.81099700927734 C72.28500366210938,136.90499877929688 61.73099899291992,145.8470001220703 51.104000091552734,154.69400024414062 C43.917999267578125,160.67599487304688 41.87099838256836,160.53599548339844 35.85100173950195,153.6320037841797 C5.813000202178955,119.18099975585938 -24.68000030517578,85.11199951171875 -53.375999450683594,49.516998291015625 C-82.06400299072266,13.932000160217285 -110.46099853515625,-21.88800048828125 -138.9969940185547,-57.59700012207031 C-143.3699951171875,-63.069000244140625 -153.03599548339844,-118.74700164794922 -149.3419952392578,-140.30999755859375 C-147.27099609375,-152.3990020751953 -144.30999755859375,-156.21499633789062 -132.21800231933594,-158.55499267578125 C-120.48200225830078,-160.82699584960938 -55.04100036621094,-154.60299682617188 -38.47200012207031,-137.88299560546875z"></path></g><g opacity="1" transform="matrix(1,0,0,1,77.57099914550781,99.46099853515625)"><path fill="rgb(0,0,0)" fill-opacity="1" d=" M90.2699966430664,18.77199935913086 C88.51200103759766,18.77199935913086 86.78700256347656,18.89900016784668 85.06400299072266,19.03499984741211 C71.2979965209961,0.04800000041723251 57.46500015258789,-18.891000747680664 43.470001220703125,-37.709999084472656 C40.27199935913086,-42.0099983215332 40.415000915527344,-44.821998596191406 44.63800048828125,-48.27399826049805 C58.64099884033203,-59.72100067138672 70.73799896240234,-73.18000030517578 83.48100280761719,-85.947998046875 C94.947998046875,-97.43699645996094 95.7490005493164,-108.82499694824219 85.93099975585938,-121.73500061035156 C78.40899658203125,-131.625 68.85900115966797,-139.45399475097656 58.029998779296875,-145.45399475097656 C47.599998474121094,-151.23199462890625 44.71900177001953,-150.58999633789062 35.4630012512207,-142.68800354003906 C-5.116000175476074,-108.04499816894531 -45.70199966430664,-73.41100311279297 -86.27300262451172,-38.757999420166016 C-107.87200164794922,-20.309999465942383 -129.53500366210938,-1.934999942779541 -150.98599243164062,16.683000564575195 C-160.3040008544922,24.770000457763672 -153.5749969482422,35.904998779296875 -146.00599670410156,45.698001861572266 C-138.30499267578125,55.6619987487793 -131.23300170898438,64.91500091552734 -120.78099822998047,71.3489990234375 C-111.11000061035156,77.302001953125 -98.21399688720703,69.40699768066406 -87.96700286865234,63.14500045776367 C-74.54299926757812,54.94200134277344 -62.319000244140625,44.02399826049805 -49.03499984741211,32.89400100708008 C-41.35900115966797,26.461999893188477 -41.308998107910156,26.51799964904785 -33.672000885009766,32.84299850463867 C-15.03499984741211,48.27799987792969 4.202000141143799,62.941001892089844 23.993000030517578,76.8479995727539 C24.4689998626709,77.18299865722656 24.898000717163086,77.5270004272461 25.32699966430664,77.87100219726562 C25.136999130249023,79.9000015258789 25.016000747680664,81.9489974975586 25.016000747680664,84.0270004272461 C25.016000747680664,120.06600189208984 54.23099899291992,149.281005859375 90.2699966430664,149.281005859375 C126.30899810791016,149.281005859375 155.52499389648438,120.06600189208984 155.52499389648438,84.0270004272461 C155.52499389648438,47.987998962402344 126.30899810791016,18.77199935913086 90.2699966430664,18.77199935913086z"></path></g></g></g></svg>