<svg xmlns="http://www.w3.org/2000/svg" xmlns:xlink="http://www.w3.org/1999/xlink" viewBox="0 0 512 512" width="512" height="512" style="width: 100%; height: 100%; transform: translate3d(0,0,0);" preserveAspectRatio="xMidYMid meet"><defs><clipPath id="__lottie_element_53749"><rect width="512" height="512" x="0" y="0"></rect></clipPath></defs><g clip-path="url(#__lottie_element_53749)"><g style="display: block;" transform="matrix(1,0,0,1,255.4409942626953,253.94400024414062)" opacity="1"><g opacity="1" transform="matrix(1,0,0,1,0,0)"><path fill="rgb(0,0,0)" fill-opacity="1" d=" M4.45,-66.16 C-74.36,-64.58 -72.4,50.12 4.1,51.83 C81.01,51.39 81.39,-66.2 4.45,-66.16z M110.36399841308594,-101.3239974975586 C109.09200286865234,-103.34300231933594 110.6719970703125,-106.01100158691406 113.04499816894531,-105.76100158691406 C153.2689971923828,-101.51799774169922 197.3260040283203,-87.47899627685547 233.0240020751953,-77.74600219726562 C279.2040100097656,-65.15499877929688 222.46200561523438,-35.15800094604492 203.00399780273438,-19.39299964904785 C173.8260040283203,4.247000217437744 138.22900390625,25.738000869750977 117.70500183105469,56.71200180053711 C103.71499633789062,108.36399841308594 87.18199920654297,159.26100158691406 72.05400085449219,210.57400512695312 C69.00199890136719,224.1009979248047 57.72700119018555,245.47900390625 42.70800018310547,230.5240020751953 C-10.668999671936035,179.48300170898438 -50.308998107910156,119.51599884033203 -95.37200164794922,61.47700119018555 C-98.66600036621094,58.70500183105469 -102.88500213623047,49.479000091552734 -107.89900207519531,52.95000076293945 C-113.27400207519531,57.9370002746582 -99.60199737548828,73.0719985961914 -93.4280014038086,83.9020004272461 C-91.05400085449219,88.06600189208984 -94.4729995727539,93.09100341796875 -99.22899627685547,92.49099731445312 C-141.19900512695312,87.1989974975586 -185.49000549316406,75.62699890136719 -227.11599731445312,62.79600143432617 C-237.95199584960938,59.45600128173828 -259.9639892578125,54.15700149536133 -246.40499877929688,40.05099868774414 C-219.75,12.321000099182129 -171.468994140625,-24.798999786376953 -132.53599548339844,-55.36000061035156 C-126.7969970703125,-59.736000061035156 -123.8239974975586,-65.36499786376953 -121.4209976196289,-71.73300170898438 C-101.39299774169922,-123.01499938964844 -83.7959976196289,-175.35800170898438 -62.01100158691406,-225.91000366210938 C-56.33599853515625,-237.49400329589844 -51.21200180053711,-238.5709991455078 -42.17900085449219,-229.92599487304688 C-10.402999877929688,-199.51499938964844 21.993000030517578,-169.7530059814453 51.93899917602539,-137.44400024414062 C66.72100067138672,-120.2770004272461 155.08700561523438,-30.33099937438965 110.36399841308594,-101.3239974975586z"></path><g opacity="1" transform="matrix(1,0,0,1,4.001999855041504,-7.164999961853027)"></g><g opacity="1" transform="matrix(1,0,0,1,0,0)"></g></g></g></g></svg>