<svg xmlns="http://www.w3.org/2000/svg" xmlns:xlink="http://www.w3.org/1999/xlink" viewBox="0 0 512 512" width="512" height="512" style="width: 100%; height: 100%; transform: translate3d(0,0,0);" preserveAspectRatio="xMidYMid meet"><defs><clipPath id="__lottie_element_51295"><rect width="512" height="512" x="0" y="0"></rect></clipPath></defs><g clip-path="url(#__lottie_element_51295)"><g style="display: block;" transform="matrix(1,0,0,1,0,0)" opacity="1"><g opacity="1" transform="matrix(1,0,0,1,97.85800170898438,158.81100463867188)"><path fill="rgb(0,0,0)" fill-opacity="1" d=" M78.04399871826172,-114.98200225830078 C78.04399871826172,-114.98200225830078 90.90899658203125,-85.23500061035156 90.90899658203125,-85.23500061035156 C8.918000221252441,-70.7490005493164 -76.75900268554688,-8.439000129699707 -66.85199737548828,84.2020034790039 C-65.77100372314453,94.30999755859375 -58.47999954223633,103.15499877929688 -60.83100128173828,113.57599639892578 C-62.99800109863281,120.83300018310547 -74.79900360107422,120.86699676513672 -80.33599853515625,117.37100219726562 C-90.90899658203125,110.6969985961914 -87.58999633789062,62.584999084472656 -85.77200317382812,50.34199905395508 C-77.1240005493164,-7.89900016784668 -42.6870002746582,-47.066001892089844 4.105999946594238,-79.3010025024414 C13.385000228881836,-85.69400024414062 71.2750015258789,-120.86699676513672 78.04399871826172,-114.98200225830078z"></path></g><g opacity="1" transform="matrix(1,0,0,1,327.32598876953125,439.0379943847656)"><path fill="rgb(0,0,0)" fill-opacity="1" d=" M12.793000221252441,-71.38400268554688 C12.793000221252441,-71.38400268554688 10.657999992370605,71.38400268554688 10.657999992370605,71.38400268554688 C10.657999992370605,71.38400268554688 -12.793999671936035,71.38400268554688 -12.793999671936035,71.38400268554688 C-12.793999671936035,71.38400268554688 -12.479000091552734,-68.21199798583984 -12.479000091552734,-68.21199798583984 C-12.479000091552734,-68.21199798583984 12.793000221252441,-71.38400268554688 12.793000221252441,-71.38400268554688z"></path></g><g opacity="1" transform="matrix(1,0,0,1,280.4309997558594,439.0480041503906)"><path fill="rgb(0,0,0)" fill-opacity="1" d=" M-12.781999588012695,-71.39099884033203 C-12.781999588012695,-71.39099884033203 12.781999588012695,-68.927001953125 12.781999588012695,-68.927001953125 C12.02299976348877,-22.7810001373291 9.5,25.066999435424805 10.678000450134277,71.39099884033203 C10.678000450134277,71.39099884033203 -12.781999588012695,71.38099670410156 -12.781999588012695,71.38099670410156 C-12.781999588012695,71.38099670410156 -12.781999588012695,-71.39099884033203 -12.781999588012695,-71.39099884033203z"></path></g><g opacity="1" transform="matrix(1,0,0,1,315.1549987792969,187.64700317382812)"><path fill="rgb(0,0,0)" fill-opacity="1" d=" M187.6179962158203,131.42999267578125 C184.06500244140625,115.96099853515625 170.9340057373047,87.3550033569336 163.91299438476562,72.0260009765625 C139.70799255371094,19.180999755859375 103.7959976196289,-32.21699905395508 51.98899841308594,-61.1510009765625 C-43.62200164794922,-114.5510025024414 -95.36100006103516,-36.137001037597656 -46.270999908447266,49.85499954223633 C-17.488000869750977,100.27300262451172 12.142999649047852,115.28399658203125 62.86600112915039,136.80599975585938 C65.5,137.9239959716797 69.15499877929688,137.95399475097656 69.74199676513672,141.63299560546875 C-0.36800000071525574,138.572998046875 -64.32499694824219,75.13600158691406 -80.12000274658203,9.109000205993652 C-97.9020004272461,-65.22599792480469 -26.857999801635742,-86.97100067138672 -35.2760009765625,-146.5399932861328 C-42.9379997253418,-200.74600219726562 -123.3550033569336,-193.90899658203125 -131.87899780273438,-152.50599670410156 C-135.14199829101562,-136.6529998779297 -119.55999755859375,-111.42500305175781 -102.18299865722656,-109.78399658203125 C-99.91699981689453,-110.33000183105469 -100.52799987792969,-105.91200256347656 -100.81500244140625,-105.5719985961914 C-101.84500122070312,-104.35199737548828 -123.3479995727539,-93.31700134277344 -128.33599853515625,-89.375 C-185.55999755859375,-44.152000427246094 -189.97000122070312,40.43600082397461 -150.70799255371094,98.84700012207031 C-91.02100372314453,187.64700317382812 8.680000305175781,183.46800231933594 98.56700134277344,145.84800720214844 C128.76800537109375,149.0019989013672 158.9600067138672,150.63600158691406 189.02099609375,145.8260040283203 C189.9709930419922,140.82400512695312 188.7239990234375,136.2449951171875 187.6179962158203,131.42999267578125z M-92.89099884033203,-162.6959991455078 C-74.82599639892578,-165.53599548339844 -73.41600036621094,-138.83900451660156 -83.01799774169922,-135.7220001220703 C-107.51599884033203,-127.76799774169922 -112.39600372314453,-159.62899780273438 -92.89099884033203,-162.6959991455078z M30.266000747680664,13.810999870300293 C32.60599899291992,10.380999565124512 35.95800018310547,8.114999771118164 39.86000061035156,10.534000396728516 C46.83599853515625,17.277999877929688 54.67599868774414,24.93600082397461 62.33399963378906,30.79199981689453 C76.43299865722656,41.573001861572266 91.9729995727539,49.862998962402344 105.98200225830078,60.65800094604492 C88.80899810791016,59.821998596191406 68.66100311279297,52.44300079345703 54.12799835205078,43.25699996948242 C46.61899948120117,38.5099983215332 25.514999389648438,23.076000213623047 30.266000747680664,13.810999870300293z M124.14800262451172,111.81600189208984 C92.10900115966797,116.11199951171875 46.27299880981445,92.96199798583984 21.836999893188477,73.40499877929688 C13.517000198364258,66.74600219726562 -15.663999557495117,39.18000030517578 -18.691999435424805,30.740999221801758 C-19.785999298095703,27.69099998474121 -20.729999542236328,25.38800048828125 -18.784000396728516,22.326000213623047 C-8.159000396728516,11.23900032043457 -5.625999927520752,22.42300033569336 0.42399999499320984,28.75 C36.369998931884766,66.34600067138672 74.26599884033203,97.8270034790039 127.29499816894531,107.58799743652344 C130.05099487304688,110.88800048828125 127.21099853515625,111.40499877929688 124.14800262451172,111.81600189208984z"></path></g></g></g></svg>