<svg xmlns="http://www.w3.org/2000/svg" xmlns:xlink="http://www.w3.org/1999/xlink" viewBox="0 0 512 512" width="512" height="512" style="width: 100%; height: 100%; transform: translate3d(0,0,0);" preserveAspectRatio="xMidYMid meet"><defs><clipPath id="__lottie_element_52871"><rect width="512" height="512" x="0" y="0"></rect></clipPath></defs><g clip-path="url(#__lottie_element_52871)"><g style="display: block;" transform="matrix(1,0,0,1,256,256)" opacity="1"><g opacity="1" transform="matrix(1,0,0,1,0,0)"><path fill="rgb(0,0,0)" fill-opacity="1" d=" M59.597999572753906,-234.42100524902344 C-58.297000885009766,-258.40399169921875 -152.20199584960938,-201.7969970703125 -202.83099365234375,-127.05000305175781 C-211.8179931640625,-113.78199768066406 -198.06900024414062,-96.98200225830078 -183.33900451660156,-103.29399871826172 C-165.83799743652344,-110.79299926757812 -147.4340057373047,-116.42900085449219 -128.9219970703125,-120.63500213623047 C-119.47699737548828,-122.78099822998047 -115.06099700927734,-109.3489990234375 -123.88800048828125,-105.4520034790039 C-123.88800048828125,-105.4520034790039 -123.94000244140625,-105.43000030517578 -123.94000244140625,-105.43000030517578 C-272.0660095214844,-39.917999267578125 -263.5369873046875,81.16500091552734 -160.72999572753906,113.85700225830078 C-169.27000427246094,115.69000244140625 -188.91200256347656,149.6020050048828 -188.91200256347656,164.26600646972656 C-188.91200256347656,178.93099975585938 -145.56300354003906,215.0189971923828 -134.2570037841797,213.75900268554688 C-109.50499725341797,211 -103.51300048828125,167.9320068359375 -101.80500030517578,158.76699829101562 C-100.09700012207031,149.6020050048828 -73.6240005493164,153.26800537109375 -70.20800018310547,160.60000610351562 C-66.79199981689453,167.9320068359375 -96.68099975585938,190.84500122070312 -94.9729995727539,202.75999450683594 C-93.26499938964844,214.6750030517578 -51.94200134277344,235.20799255371094 -32.63199996948242,227.50599670410156 C-22.180999755859375,223.33700561523438 -22.384000778198242,188.0959930419922 -22.384000778198242,177.09800720214844 C-22.384000778198242,166.10000610351562 8.494999885559082,162 10.067000389099121,176.18099975585938 C10.779999732971191,182.61399841308594 -1.034000039100647,205.50999450683594 0.49799999594688416,217.4250030517578 C2.0299999713897705,229.33999633789062 51.05799865722656,244.92100524902344 63.013999938964844,238.5050048828125 C74.97000122070312,232.08900451660156 83.80599975585938,180.1929931640625 70.99600219726562,146.28199768066406 C287.9079895019531,280.093994140625 320.9179992675781,-181.26300048828125 59.597999572753906,-234.42100524902344z M-43.112998962402344,93.27400207519531 C-148.4199981689453,58.417999267578125 -134.64199829101562,-55.65700149536133 -28.35099983215332,-72.55699920654297 C118.00599670410156,-95.8270034790039 62.194000244140625,128.1300048828125 -43.112998962402344,93.27400207519531z M112.58300018310547,124.56999969482422 C42.87900161743164,94.64600372314453 100.28299713134766,35.67900085449219 152.76600646972656,40.08000183105469 C203.59300231933594,44.34199905395508 182.28700256347656,154.4929962158203 112.58300018310547,124.56999969482422z"></path></g></g></g></svg>