<svg xmlns="http://www.w3.org/2000/svg" xmlns:xlink="http://www.w3.org/1999/xlink" viewBox="0 0 512 512" width="512" height="512" style="width: 100%; height: 100%; transform: translate3d(0,0,0);" preserveAspectRatio="xMidYMid meet"><defs><clipPath id="__lottie_element_52245"><rect width="512" height="512" x="0" y="0"></rect></clipPath></defs><g clip-path="url(#__lottie_element_52245)"><g style="display: block;" transform="matrix(1,0,0,1,259.8630065917969,256.1960144042969)" opacity="1"><g opacity="1" transform="matrix(1,0,0,1,0,0)"><path fill="rgb(0,0,0)" fill-opacity="1" d=" M-204.12,94.41 C-204.2,104.44 -192.05,109.86 -187.6,99.04 C-185.19,92.36 -180.67,81.02 -188.94,76.78 C-192.76,75.08 -195.69,77.13 -198.37,79.59 C-202.3,83.21 -204.43,87.65 -204.12,94.41z M-119.88,20.45 C-96.78,20.28 -79.55,5.88 -74.52,-16.46 C-69.26,-36.48 -89.5,-43.97 -95.43,-22.29 C-103.87,4.93 -121.02,-1.23 -143.15,-6.7 C-150.3,-7.19 -153.86,-1.62 -151.15,5.03 C-145.59,15.41 -130.39,21 -119.88,20.45z M-19.490999221801758,39.72800064086914 C-25.854000091552734,42.527000427246094 -27.351999282836914,47.757999420166016 -29.996000289916992,51.972999572753906 C-50.858001708984375,84.8010025024414 -82.04499816894531,113.96399688720703 -121.31500244140625,121.4520034790039 C-129.58399963378906,122.41600036621094 -135.74899291992188,125.74800109863281 -141.56900024414062,131.80099487304688 C-165.6179962158203,156.75 -213.61500549316406,162.0749969482422 -233.23699951171875,129.1909942626953 C-270.6579895019531,75.03500366210938 -231.89199829101562,15.13700008392334 -201.93499755859375,-32.395999908447266 C-198.0959930419922,-39.44599914550781 -198.13499450683594,-40.05799865722656 -205.9250030517578,-43.611000061035156 C-226.1929931640625,-52.85599899291992 -235.17799377441406,-69.24299621582031 -235.25399780273438,-90.68399810791016 C-235.31700134277344,-108.40599822998047 -226.3209991455078,-115.78299713134766 -208.8939971923828,-113.4209976196289 C-203.4320068359375,-112.68099975585938 -198.02099609375,-111.73699951171875 -192.47999572753906,-111.88300323486328 C-180.81199645996094,-111.55899810791016 -165.5399932861328,-121.36000061035156 -175.96800231933594,-131.9969940185547 C-191.91700744628906,-151.9720001220703 -207.6699981689453,-172.10499572753906 -223.33799743652344,-192.30299377441406 C-230.91299438476562,-202.75999450683594 -239.48399353027344,-212.76400756835938 -245.3470001220703,-224.31900024414062 C-250.9669952392578,-234.7310028076172 -239.69200134277344,-246.927001953125 -228.73599243164062,-243.14500427246094 C-222.156005859375,-241.41200256347656 -216.53399658203125,-237.69500732421875 -211.06199645996094,-233.86199951171875 C-181.427001953125,-213.1009979248047 -151.76100158691406,-192.37899780273438 -122.33999633789062,-171.3179931640625 C-115.9530029296875,-166.74600219726562 -110.01699829101562,-163.5240020751953 -101.76699829101562,-165.54100036621094 C-91.72100067138672,-169.13699340820312 -79.322998046875,-159.03799438476562 -76.6449966430664,-170.22900390625 C-67.39700317382812,-202.61000061035156 -43.13399887084961,-222.76100158691406 -17.44700050354004,-241.30599975585938 C-2.6449999809265137,-251.9929962158203 8.597000122070312,-248.16799926757812 14.793999671936035,-231.26800537109375 C19.694000244140625,-217.906005859375 26.05699920654297,-205.31199645996094 32.55799865722656,-192.73699951171875 C42.86199951171875,-177.85800170898438 33.584999084472656,-170.62899780273438 50.34600067138672,-165.05299377441406 C80.7490005493164,-154.0330047607422 104.3740005493164,-135.06700134277344 118.63899993896484,-105.32599639892578 C127.66000366210938,-86.51699829101562 146.57400512695312,-79.91999816894531 165.80499267578125,-88.3010025024414 C175.57000732421875,-95.44400024414062 187.77999877929688,-92.48300170898438 193.32200622558594,-80.79000091552734 C204.67599487304688,-58.69200134277344 198.61599731445312,-33.28499984741211 183.1719970703125,-14.84000015258789 C178.54400634765625,-8.595000267028809 179.1909942626953,-6.749000072479248 186.26400756835938,-3.5139999389648438 C194.14599609375,0.09200000017881393 202.38999938964844,-0.34700000286102295 210.60000610351562,-1.7359999418258667 C232.03900146484375,-5.36299991607666 238.79800415039062,-1.1979999542236328 244.88699340820312,19.7450008392334 C257.2449951171875,62.24800109863281 238.43600463867188,105.1719970703125 198.7259979248047,124.85299682617188 C194.10000610351562,127.14600372314453 189.6510009765625,128.9720001220703 188.0850067138672,134.83700561523438 C178.2259979248047,171.76800537109375 152.1820068359375,192.1179962158203 116.9000015258789,201.4669952392578 C52.231998443603516,222.10899353027344 -17.8439998626709,218.31100463867188 -80.81999969482422,244.843994140625 C-90.68499755859375,249.17999267578125 -92.677001953125,248.0279998779297 -97.88400268554688,239 C-116.4209976196289,206.86099243164062 -118.58599853515625,174.49899291992188 -99.99099731445312,141.44400024414062 C-96.1719970703125,134.65499877929688 -91.7490005493164,129.54200744628906 -84.64299774169922,125.99700164794922 C-61.59000015258789,114.49800109863281 -43.231998443603516,97.64399719238281 -29.711999893188477,75.63500213623047 C-24.14299964904785,65.30000305175781 -15.258000373840332,52.095001220703125 -19.490999221801758,39.72800064086914z"></path><g opacity="1" transform="matrix(1,0,0,1,-194.16700744628906,90.56800079345703)"></g><g opacity="1" transform="matrix(1,0,0,1,-112.8550033569336,-7.460000038146973)"></g><g opacity="1" transform="matrix(1,0,0,1,0,0)"></g></g></g></g></svg>