<svg xmlns="http://www.w3.org/2000/svg" xmlns:xlink="http://www.w3.org/1999/xlink" viewBox="0 0 512 512" width="512" height="512" style="width: 100%; height: 100%; transform: translate3d(0,0,0);" preserveAspectRatio="xMidYMid meet"><defs><clipPath id="__lottie_element_52603"><rect width="512" height="512" x="0" y="0"></rect></clipPath></defs><g clip-path="url(#__lottie_element_52603)"><g style="display: block;" transform="matrix(1,0,0,1,0,0)" opacity="1"><g opacity="1" transform="matrix(1,0,0,1,260.31500244140625,250.76499938964844)"><path fill="rgb(0,0,0)" fill-opacity="1" d=" M-126.51399993896484,-216.02999877929688 C-142.31500244140625,-146.76499938964844 -178.31500244140625,187.23399353027344 -158.81900024414062,222.38800048828125 C-150.73699951171875,236.9600067138672 71.68499755859375,247.23500061035156 109.8949966430664,233.7760009765625 C127.2959976196289,227.64700317382812 162.1820068359375,-112.99299621582031 167.34300231933594,-198.0030059814453 C169.24400329589844,-229.3179931640625 -118.96399688720703,-249.1269989013672 -126.51399993896484,-216.02999877929688z M-19.71299934387207,206.74899291992188 C-39.29999923706055,203.8179931640625 -42.92599868774414,186.3560028076172 -40.058998107910156,167.19500732421875 C-37.19200134277344,148.03399658203125 -27.75,133.5709991455078 -8.163000106811523,136.5019989013672 C10.895000457763672,139.35400390625 10.677000045776367,158.3260040283203 7.809999942779541,177.48699951171875 C4.942999839782715,196.6479949951172 -1.6720000505447388,209.447998046875 -19.71299934387207,206.74899291992188z M-52.12900161743164,-149.01100158691406 C-84.35800170898438,-118.6500015258789 -103.41300201416016,50.09600067138672 -114.83799743652344,49.689998626708984 C-128.2969970703125,49.21099853515625 -99.31500244140625,-172.76499938964844 -88.88700103759766,-187.822998046875 C-81.02999877929688,-199.16900634765625 34.604000091552734,-203.45700073242188 36.869998931884766,-188.8249969482422 C38.612998962402344,-177.5679931640625 -18.06800079345703,-181.0970001220703 -52.12900161743164,-149.01100158691406z"></path></g></g></g></svg>