<svg xmlns="http://www.w3.org/2000/svg" xmlns:xlink="http://www.w3.org/1999/xlink" viewBox="0 0 512 512" width="512" height="512" style="width: 100%; height: 100%; transform: translate3d(0,0,0);" preserveAspectRatio="xMidYMid meet"><defs><clipPath id="__lottie_element_53374"><rect width="512" height="512" x="0" y="0"></rect></clipPath></defs><g clip-path="url(#__lottie_element_53374)"><g style="display: block;" transform="matrix(2.962939977645874,0,0,2.962939977645874,2.8374481201171875,2.8374481201171875)" opacity="1"><g opacity="1" transform="matrix(1,0,0,1,100.04399871826172,85.59400177001953)"><path fill="rgb(0,0,0)" fill-opacity="1" d=" M67.95600128173828,-61.34400177001953 C65.68299865722656,-68.13600158691406 57.13600158691406,-70.3740005493164 51.53799819946289,-66.04199981689453 C42.744998931884766,-59.237998962402344 35.928001403808594,-50.577999114990234 30.43899917602539,-40.768001556396484 C29.93000030517578,-39.85900115966797 28.812999725341797,-39.55099868774414 27.954999923706055,-40.0989990234375 C20.389999389648438,-44.928001403808594 20.167999267578125,-46.9739990234375 25.17300033569336,-55.861000061035156 C27.923999786376953,-60.74800109863281 31.29400062561035,-65.29900360107422 34.736000061035156,-69.6989974975586 C38.83100128173828,-74.93499755859375 30.93400001525879,-82.7030029296875 21.135000228881836,-77.81999969482422 C21.04400062561035,-77.77400207519531 20.95199966430664,-77.72000122070312 20.867000579833984,-77.66300201416016 C15.074999809265137,-73.73300170898438 11.956999778747559,-67.77799987792969 9.60200023651123,-61.354000091552734 C4.400000095367432,-47.167999267578125 3.0350000858306885,-32.37200164794922 3.7360000610351562,-17.2810001373291 C4.823999881744385,6.131999969482422 -1.934000015258789,26.04800033569336 -20.06599998474121,40.7869987487793 C-31.364999771118164,49.972999572753906 -44.09299850463867,56.029998779296875 -57.87200164794922,59.862998962402344 C-60.404998779296875,60.56800079345703 -62.9739990234375,61.79800033569336 -65.06900024414062,63.43199920654297 C-69.36499786376953,66.78399658203125 -68.79100036621094,72.3740005493164 -63.965999603271484,74.83499908447266 C-61.698001861572266,75.99199676513672 -59.15800094604492,76.76399993896484 -56.65999984741211,77.18800354003906 C-24.14699935913086,82.7020034790039 7.9770002365112305,81.01499938964844 39.83300018310547,71.95999908447266 C48.54100036621094,69.48400115966797 54.29600143432617,64.04399871826172 57.71200180053711,55.9630012512207 C66.75,34.582000732421875 65.74600219726562,13.498000144958496 54.38399887084961,-6.7210001945495605 C51.06399917602539,-12.628000259399414 46.71099853515625,-17.888999938964844 43.24700164794922,-23.7189998626709 C42.17399978637695,-25.523000717163086 40.61199951171875,-30.187999725341797 41.558998107910156,-31.67099952697754 C52.50899887084961,-48.821998596191406 69.36599731445312,-53.24700164794922 67.95600128173828,-61.34400177001953z"></path></g><g opacity="1" transform="matrix(1,0,0,1,50.64699935913086,79.68699645996094)"><path fill="rgb(0,0,0)" fill-opacity="1" d=" M-4.703000068664551,7.567999839782715 C-4.09499979019165,5.270999908447266 -3.2019999027252197,0.09399999678134918 -5.835999965667725,-1.2120000123977661 C-13.517999649047852,-5.020999908447266 -20.33799934387207,2.3480000495910645 -24.94099998474121,10.145000457763672 C-25.823999404907227,11.640000343322754 -27.96500015258789,11.342000007629395 -28.45599937438965,9.66100025177002 C-28.993999481201172,7.822000026702881 -29.3439998626709,5.803999900817871 -28.93899917602539,4.830999851226807 C-23.339000701904297,-8.612000465393066 -7.960999965667725,-12.468000411987305 -1.86899995803833,-8.309000015258789 C2.128000020980835,-5.579999923706055 5.2870001792907715,2.884000062942505 4.039000034332275,8.378000259399414 C0.9240000247955322,22.09000015258789 -8.01200008392334,37.513999938964844 -17.159000396728516,47.388999938964844 C-17.899999618530273,48.18899917602539 -17.874000549316406,49.492000579833984 -17.10099983215332,50.257999420166016 C-13.425999641418457,53.900001525878906 -5.077000141143799,52.770999908447266 -1.8170000314712524,52.56100082397461 C13.512999534606934,51.57699966430664 29.89299964904785,37.327999114990234 36.15999984741211,26.29800033569336 C43.00600051879883,14.24899959564209 50.64699935913086,-13.852999687194824 30.674999237060547,-29.520000457763672 C-0.40299999713897705,-53.9010009765625 -40.35300064086914,-39.0359992980957 -47.95500183105469,-0.28999999165534973 C-51.53799819946289,17.966999053955078 -41.20000076293945,35.97200012207031 -25.04400062561035,39.07699966430664 C-22.972999572753906,39.474998474121094 -19.71299934387207,38.606998443603516 -18.43000030517578,37.040000915527344 C-11.458000183105469,28.52199935913086 -6.793000221252441,15.470000267028809 -4.703000068664551,7.567999839782715z"></path></g></g></g></svg>