<svg xmlns="http://www.w3.org/2000/svg" xmlns:xlink="http://www.w3.org/1999/xlink" viewBox="0 0 512 512" width="512" height="512" style="width: 100%; height: 100%; transform: translate3d(0,0,0);" preserveAspectRatio="xMidYMid meet"><defs><clipPath id="__lottie_element_27259"><rect width="512" height="512" x="0" y="0"></rect></clipPath></defs><g clip-path="url(#__lottie_element_27259)"><g style="display: block;" transform="matrix(1,0,0,1,0,0)" opacity="1"><g opacity="1" transform="matrix(1,0,0,1,256,261.0880126953125)"><path fill="rgb(65,63,63)" fill-opacity="1" d=" M-131.98300170898438,-146.79600524902344 C-124.48400115966797,-140.9010009765625 -117.71299743652344,-127.42400360107422 -109.56800079345703,-120.51699829101562 C-88.14600372314453,-102.35299682617188 -52.88199996948242,-118.54900360107422 -27.709999084472656,-120.59400177001953 C-8.972000122070312,-122.11699676513672 16.20599937438965,-121.5250015258789 34.9739990234375,-119.63099670410156 C71.7959976196289,-115.91400146484375 90.91200256347656,-97.3479995727539 119.23999786376953,-133.1750030517578 C121.86100006103516,-136.48899841308594 129.94200134277344,-152.00799560546875 143.9080047607422,-158.72900390625 C180.46600341796875,-176.322998046875 225.1479949951172,-164.27099609375 244.91000366210938,-129.38499450683594 C258.08599853515625,-106.125 258.7619934082031,-83.03299713134766 250.92599487304688,-57.685001373291016 C244.6020050048828,-37.22600173950195 230.90499877929688,-27.722999572753906 233.59100341796875,-2.986999988555908 C234.75999450683594,7.788000106811523 239.38600158691406,11.944000244140625 242.76199340820312,20.849000930786133 C254.5500030517578,51.941001892089844 262.68701171875,78.37300109863281 247.9669952392578,111.41500091552734 C226.40899658203125,159.80799865722656 172.87100219726562,170.18800354003906 133.28900146484375,136.8719940185547 C111.3489990234375,118.40599822998047 108.02899932861328,98.8239974975586 73.61799621582031,103.0459976196289 C68.19300079345703,103.71199798583984 62.50699996948242,106.63099670410156 57.12200164794922,107.52100372314453 C25.05500030517578,112.8219985961914 -14.338000297546387,113.93900299072266 -46.558998107910156,109.5979995727539 C-68.66300201416016,106.62100219726562 -94.89299774169922,93.9729995727539 -111.90799713134766,115.9020004272461 C-122.43800354003906,129.4720001220703 -125.63500213623047,135.08999633789062 -141.2729949951172,145.13400268554688 C-191.60400390625,177.46499633789062 -259.802001953125,137.1999969482422 -255.8350067138672,75.1780014038086 C-254.5229949951172,54.6609992980957 -247.92599487304688,41.05799865722656 -241.27699279785156,22.902999877929688 C-223.17599487304688,-26.524999618530273 -268.4339904785156,-57.654998779296875 -252.52999877929688,-113.38800048828125 C-237.58299255371094,-165.76100158691406 -170.99200439453125,-177.46400451660156 -131.98300170898438,-146.79600524902344z M-111.27200317382812,-81.94300079345703 C-137.8939971923828,-74.51200103759766 -163.9219970703125,-108.44400024414062 -190.28900146484375,-89.82099914550781 C-203.58200073242188,-80.43199920654297 -209.71800231933594,-57.827999114990234 -198.66000366210938,-43.9379997253418 C-187.81100463867188,-30.31100082397461 -154.7519989013672,-13.78600025177002 -139.4199981689453,0.8999999761581421 C-95.98999786376953,42.500999450683594 -148.7469940185547,90.99700164794922 -186.9409942626953,70.48600006103516 C-203.79400634765625,61.43600082397461 -203.88400268554688,41.86899948120117 -203.4219970703125,29.975000381469727 C-201.92799377441406,-8.409000396728516 -153.57899475097656,3.312999963760376 -165.5570068359375,37.43000030517578 C-168.88999938964844,46.926998138427734 -175.0590057373047,53.207000732421875 -183.43099975585938,57.1609992980957 C-167.26499938964844,67.81500244140625 -138.2790069580078,46.854000091552734 -139.55299377441406,26.229999542236328 C-141.73399353027344,-9.086000442504883 -188.4029998779297,-11.64799976348877 -205.98199462890625,7.882999897003174 C-231.2100067138672,35.9119987487793 -217.468994140625,65.6500015258789 -186.5189971923828,77.81999969482422 C-136.04400634765625,97.66500091552734 -81.552001953125,38.492000579833984 -119.27300262451172,-8.307999610900879 C-135.18600463867188,-28.049999237060547 -152.16000366210938,-36.14099884033203 -168.3679962158203,-48.92599868774414 C-192.38699340820312,-67.8740005493164 -162.59800720214844,-91.09500122070312 -149.3249969482422,-77.6520004272461 C-142.8520050048828,-71.09600067138672 -140.44200134277344,-56.69499969482422 -137.75100708007812,-47.928001403808594 C-137.75100708007812,-47.928001403808594 -111.27200317382812,-81.94300079345703 -111.27200317382812,-81.94300079345703z M159.7030029296875,21.891000747680664 C183.46600341796875,22.947999954223633 213.00999450683594,11.576000213623047 215.43499755859375,-17.30900001525879 C217.92999267578125,-47.018001556396484 202.0850067138672,-63.92599868774414 175.39100646972656,-67.23999786376953 C175.39100646972656,-67.23999786376953 124.01699829101562,-67.68399810791016 124.01699829101562,-67.68399810791016 C124.01699829101562,-67.68399810791016 122.59600067138672,-60.10599899291992 122.59600067138672,-60.10599899291992 C127.71099853515625,-61.641998291015625 134.66799926757812,-57.37699890136719 135.82899475097656,-51.74399948120117 C137.90499877929688,-41.66899871826172 139.21099853515625,52.347999572753906 134.79400634765625,54.994998931884766 C132.70799255371094,56.244998931884766 129.4759979248047,55.37699890136719 127.2040023803711,55.01599884033203 C127.2040023803711,55.01599884033203 127.46399688720703,64.36599731445312 127.46399688720703,64.36599731445312 C142.5330047607422,65.7030029296875 157.21800231933594,71.10299682617188 171.44500732421875,76.5199966430664 C171.44500732421875,76.5199966430664 171.11199951171875,67.21099853515625 171.11199951171875,67.21099853515625 C166.9219970703125,67.47599792480469 159.4969940185547,64.83799743652344 159.3179931640625,60.202999114990234 C158.68600463867188,43.763999938964844 159.4739990234375,39.49700164794922 159.7030029296875,21.891000747680664z M-79.23200225830078,-59.58300018310547 C-79.23200225830078,-59.58300018310547 -108.02300262451172,-62.178001403808594 -108.02300262451172,-62.178001403808594 C-108.02300262451172,-62.178001403808594 -107.697998046875,-54.70600128173828 -107.697998046875,-54.70600128173828 C-90.66699981689453,-52.42300033569336 -93.77100372314453,-45.99300003051758 -92.7770004272461,-32.41400146484375 C-91.5260009765625,-15.33899974822998 -91.07599639892578,14.45300006866455 -91.79199981689453,31.801000595092773 C-92.12899780273438,39.952999114990234 -91.83100128173828,52.020999908447266 -100.96399688720703,52.78099822998047 C-100.96399688720703,52.78099822998047 -101.07599639892578,58.68199920654297 -101.07599639892578,58.68199920654297 C-101.07599639892578,58.68199920654297 -72.90399932861328,59.95800018310547 -72.90399932861328,59.95800018310547 C-71.55699920654297,54.10300064086914 -76.96600341796875,54.314998626708984 -78.83300018310547,51.680999755859375 C-83.61399841308594,44.9370002746582 -79.81400299072266,-6.118000030517578 -80.78500366210938,-16.82900047302246 C-74.23300170898438,-2.9030001163482666 -59.53900146484375,26.80900001525879 -56.696998596191406,42.486000061035156 C-56.196998596191406,45.24700164794922 -55.69200134277344,48.007999420166016 -56.784000396728516,50.69499969482422 C-56.784000396728516,50.69499969482422 -63.12900161743164,52.27899932861328 -63.12900161743164,52.27899932861328 C-63.12900161743164,52.27899932861328 -63.066001892089844,58.33000183105469 -63.066001892089844,58.33000183105469 C-63.066001892089844,58.33000183105469 -17.69700050354004,59.45500183105469 -17.69700050354004,59.45500183105469 C-16.066999435424805,49.654998779296875 -27.95800018310547,52.986000061035156 -29.56399917602539,41.91400146484375 C-31.663999557495117,27.44700050354004 -31.60099983215332,-48.090999603271484 -27.70199966430664,-53.790000915527344 C-25.691999435424805,-56.72700119018555 -20.770999908447266,-54.31800079345703 -22.0310001373291,-59.09600067138672 C-22.0310001373291,-59.09600067138672 -54.60200119018555,-61.5890007019043 -54.60200119018555,-61.5890007019043 C-54.75699996948242,-56.55500030517578 -49.321998596191406,-57.606998443603516 -46.667999267578125,-54.06399917602539 C-39.972999572753906,-45.130001068115234 -46.915000915527344,-5.539000034332275 -44.500999450683594,7.3480000495910645 C-44.500999450683594,7.3480000495910645 -72.33699798583984,-53.22200012207031 -72.33699798583984,-53.22200012207031 C-72.76300048828125,-54.6510009765625 -76.69599914550781,-59.62099838256836 -79.23200225830078,-59.58300018310547z M74.07599639892578,48.74599838256836 C83.51799774169922,58.36899948120117 98.25199890136719,62.428001403808594 109.04199981689453,53.62099838256836 C128.50100708007812,37.73699951171875 132.38699340820312,-13.071999549865723 125.1240005493164,-36.52299880981445 C111.04499816894531,-81.98699951171875 67.71800231933594,-69.98600006103516 59.569000244140625,-27.80900001525879 C55.31999969482422,-5.811999797821045 57.79899978637695,32.15700149536133 74.07599639892578,48.74599838256836z M3.121999979019165,-60.71099853515625 C-21.274999618530273,-55.766998291015625 -23.8439998626709,-3.9619998931884766 -21.631000518798828,17.132999420166016 C-18.65999984741211,45.457000732421875 2.0920000076293945,71.29000091552734 28.75,53.13800048828125 C59.63800048828125,32.106998443603516 56.685001373291016,-71.56500244140625 3.121999979019165,-60.71099853515625z"></path></g><g opacity="1" transform="matrix(1,0,0,1,433.37701416015625,238.5399932861328)"><path fill="rgb(65,63,63)" fill-opacity="1" d=" M-21.183000564575195,-28.799999237060547 C22.332000732421875,-32.86600112915039 22.308000564575195,31.608999252319336 -18.083999633789062,32.86600112915039 C-22.332000732421875,29.68899917602539 -18.45800018310547,-19.753000259399414 -21.183000564575195,-28.799999237060547z"></path></g><g opacity="1" transform="matrix(1,0,0,1,356.42999267578125,258.3599853515625)"><path fill="rgb(65,63,63)" fill-opacity="1" d=" M-6.473999977111816,-48.13399887084961 C6.1539998054504395,-52.32400131225586 13.505000114440918,-38.93899917602539 16.368000030517578,-30.854000091552734 C21.809999465942383,-15.482000350952148 20.39699935913086,33.81800079345703 7.651000022888184,44.75899887084961 C-1.1610000133514404,52.323001861572266 -11.980999946594238,48.757999420166016 -16.048999786376953,37.52000045776367 C-21.00200080871582,23.833999633789062 -21.809999465942383,-2.0810000896453857 -21.336000442504883,-16.398000717163086 C-20.660999298095703,-36.750999450683594 -12.994999885559082,-45.970001220703125 -6.473999977111816,-48.13399887084961z"></path></g><g opacity="1" transform="matrix(1,0,0,1,277.54998779296875,262.5400085449219)"><path fill="rgb(65,63,63)" fill-opacity="1" d=" M-11.569999694824219,-46.78499984741211 C-10.291000366210938,-47.95199966430664 -6.788000106811523,-49.39899826049805 -5.138000011444092,-49.58700180053711 C24.530000686645508,-52.95399856567383 20.28499984741211,10.979999542236328 13.5,29.62299919128418 C9.130000114440918,41.63100051879883 -4.184999942779541,52.952999114990234 -13.331000328063965,39.154998779296875 C-24.5310001373291,22.257999420166016 -23.238000869750977,-8.092000007629395 -19.608999252319336,-27.39900016784668 C-18.611000061035156,-32.70899963378906 -15.298999786376953,-43.38199996948242 -11.569999694824219,-46.78499984741211z"></path></g></g></g></svg>