<svg xmlns="http://www.w3.org/2000/svg" xmlns:xlink="http://www.w3.org/1999/xlink" viewBox="0 0 512 512" width="512" height="512" style="width: 100%; height: 100%; transform: translate3d(0,0,0);" preserveAspectRatio="xMidYMid meet"><defs><clipPath id="__lottie_element_27264"><rect width="512" height="512" x="0" y="0"></rect></clipPath></defs><g clip-path="url(#__lottie_element_27264)"><g style="display: block;" transform="matrix(1.0099999904632568,0,0,1.0099999904632568,-5.55999755859375,-2.05999755859375)" opacity="1"><g opacity="1" transform="matrix(1,0,0,1,259.02398681640625,248.27499389648438)"><path fill="rgb(53,52,52)" fill-opacity="1" d=" M252.86300659179688,30.733999252319336 C183.3699951171875,17.933000564575195 116.16999816894531,39.95500183105469 46.77299880981445,76.4530029296875 C99.79399871826172,36.00199890136719 165.86399841308594,-13.126999855041504 180.5469970703125,-188.18499755859375 C24.687999725341797,-60.5620002746582 30.695999145507812,52.742000579833984 29.832000732421875,53.86600112915039 C30.961999893188477,-111.02799987792969 -27.76799964904785,-172.01600646972656 -100.05000305175781,-239.781005859375 C-109.08499908447266,-147.16900634765625 -101.1780014038086,-45.52199935913086 -5.177999973297119,74.19499969482422 C-6.47599983215332,73.67400360107422 -68.71700286865234,-37.07899856567383 -252.86300659179688,-45.59600067138672 C-173.7519989013672,92.8030014038086 -20.202999114990234,90.21199798583984 -5.177999973297119,91.13500213623047 C-9.640999794006348,94.10099792480469 -146.35499572753906,74.19499969482422 -218.32899475097656,160.24600219726562 C-103.43699645996094,181.48899841308594 -24.159000396728516,138.21499633789062 0.4059999883174896,112.8030014038086 C-9.758999824523926,131.43899536132812 -38.558998107910156,131.43899536132812 -43.64099884033203,236.4739990234375 C13.958999633789062,190.73300170898438 22.672000885009766,137.29200744628906 21.299999237060547,115.81500244140625 C22.93600082397461,115.85800170898438 51.417999267578125,202.59100341796875 48.78300094604492,236.4739990234375 C48.5260009765625,239.78199768066406 73.05899810791016,233.7209930419922 72.5,230.4499969482422 C64.97000122070312,186.4029998779297 29.20599937438965,120.70800018310547 29.582000732421875,113.74299621582031 C47.369998931884766,146.7790069580078 90.19400024414062,171.24899291992188 150.63400268554688,179.76800537109375 C122.38200378417969,136.52000427246094 92.73500061035156,117.03900146484375 47.840999603271484,103.48600006103516 C162.19400024414062,118.73300170898438 202.0050048828125,73.83899688720703 252.86300659179688,30.733999252319336z"></path></g></g></g></svg>