<svg xmlns="http://www.w3.org/2000/svg" xmlns:xlink="http://www.w3.org/1999/xlink" viewBox="0 0 512 512" width="512" height="512" style="width: 100%; height: 100%; transform: translate3d(0,0,0);" preserveAspectRatio="xMidYMid meet"><defs><clipPath id="__lottie_element_27269"><rect width="512" height="512" x="0" y="0"></rect></clipPath></defs><g clip-path="url(#__lottie_element_27269)"><g style="display: block;" transform="matrix(1,0,0,1,0,0)" opacity="1"><g opacity="1" transform="matrix(1,0,0,1,257.1650085449219,256)"><path fill="rgb(53,52,52)" fill-opacity="1" d=" M137.95199584960938,-6.938000202178955 C134.0229949951172,-11.793999671936035 129.91000366210938,-16.04199981689453 125.52799987792969,-19.871000289916992 C131.03900146484375,-27.48900032043457 134.36399841308594,-34.143001556396484 135.35000610351562,-36.117000579833984 C138.3090057373047,-42.042999267578125 143.54299926757812,-52.84199905395508 143.156005859375,-67.62999725341797 C142.75,-83.18599700927734 137.4669952392578,-100.4000015258789 132.7480010986328,-100.31099700927734 C130.7779998779297,-100.27400207519531 130.36099243164062,-97.24700164794922 126.24199676513672,-89.80599975585938 C121.91500091552734,-81.98899841308594 115.9000015258789,-71.12200164794922 105.42500305175781,-65.2959976196289 C102.58200073242188,-63.7140007019043 94.98699951171875,-59.45199966430664 85.90899658203125,-60.62699890136719 C79.82099914550781,-61.41600036621094 75.64199829101562,-64.3030014038086 74.1989974975586,-65.2959976196289 C56.23899841308594,-77.66100311279297 -25.167999267578125,-120.70700073242188 -44.20000076293945,-142.32899475097656 C-50.525001525878906,-149.51400756835938 -73.41699981689453,-175.52000427246094 -63.715999603271484,-201.85400390625 C-63.042999267578125,-203.67999267578125 -56.78099822998047,-219.8520050048828 -38.99599838256836,-227.531005859375 C-13.048999786376953,-238.73399353027344 14.887999534606934,-222.13299560546875 19.55299949645996,-219.36099243164062 C28.9060001373291,-213.80299377441406 36.2869987487793,-208.1929931640625 36.46699905395508,-205.35499572753906 C39.06999969482422,-164.5050048828125 50.89899826049805,-131.69400024414062 57.28499984741211,-130.65699768066406 C57.28499984741211,-130.65699768066406 64.01100158691406,-153.7480010986328 78.10199737548828,-175.00900268554688 C103.8280029296875,-213.8249969482422 149.61199951171875,-229.74000549316406 139.2530059814453,-232.1999969482422 C95.01599884033203,-242.70399475097656 50.77899932861328,-227.531005859375 50.77899932861328,-227.531005859375 C50.77899932861328,-227.531005859375 32.53200149536133,-251.70700073242188 -15.576000213623047,-255.54299926757812 C-74.125,-260.2120056152344 -127.46900177001953,-228.697998046875 -136.57699584960938,-179.67799377441406 C-141.90499877929688,-150.99899291992188 -135.6060028076172,-114.4209976196289 -127.55599975585938,-102.04199981689453 C-112.84200286865234,-79.41500091552734 -99.90699768066406,-66.2770004272461 -93.35700225830078,-60.55099868774414 C-112.02899932861328,-53.88399887084961 -131.9669952392578,-40.619998931884766 -141.8679962158203,-23.843000411987305 C-143.86500549316406,-20.458999633789062 -148.79400634765625,-11.333999633789062 -145.77200317382812,-8.670000076293945 C-145.77200317382812,-8.670000076293945 -120.7229995727539,-21.756999969482422 -93.72799682617188,-27.3439998626709 C-62.52299880981445,-33.803001403808594 29.8799991607666,-40.2859992980957 82.00499725341797,53.75400161743164 C86.97799682617188,62.72600173950195 102.1969985961914,93.79499816894531 93.71499633789062,133.12100219726562 C92.6240005493164,138.18099975585938 76.11900329589844,195.5709991455078 14.223999977111816,215.44000244140625 C-58.082000732421875,238.65199279785156 -105.12799835205078,201.4029998779297 -113.63899993896484,193.69500732421875 C-159.74000549316406,151.94400024414062 -149.61199951171875,89.52999877929688 -148.28700256347656,84.0999984741211 C-144.13600158691406,67.0999984741211 -139.86300659179688,49.59299850463867 -122.26499938964844,37.41400146484375 C-118.2959976196289,34.66699981689453 -99.28199768066406,22.24799919128418 -75.4260025024414,26.90999984741211 C-53.981998443603516,31.100000381469727 -42.749000549316406,46.33100128173828 -38.99599838256836,51.41999816894531 C-17.531999588012695,80.52300262451172 -31.371000289916992,115.53800201416016 -35.09199905395508,124.95099639892578 C-39.137001037597656,135.1820068359375 -46.70100021362305,154.3209991455078 -66.31800079345703,163.4669952392578 C-83.0479965209961,171.26699829101562 -98.64399719238281,167.1840057373047 -98.84600067138672,169.30299377441406 C-99.16100311279297,172.61700439453125 -61.11199951171875,183.33700561523438 -40.297000885009766,171.63699340820312 C-37.47100067138672,170.0489959716797 -31,165.82000732421875 -24.68400001525879,161.13299560546875 C-18.089000701904297,156.24000549316406 -14.236000061035156,152.7550048828125 -11.67300033569336,150.6280059814453 C1.6410000324249268,139.5800018310547 12.958999633789062,137.91400146484375 20.854000091552734,133.12100219726562 C40.900001525878906,120.95099639892578 41.3380012512207,87.12799835205078 37.768001556396484,68.927001953125 C31.41200065612793,36.51100158691406 3.703000068664551,10.345000267028809 -28.586999893188477,-1.1019999980926514 C-73.88999938964844,-17.163000106811523 -121.10399627685547,-0.7170000076293945 -148.28700256347656,23.408000946044922 C-185.57699584960938,56.50400161743164 -182.33299255371094,101.53700256347656 -180.81399536132812,122.61699676513672 C-179.91600036621094,135.0749969482422 -176.1540069580078,187.28700256347656 -128.77000427246094,222.99200439453125 C-98.68399810791016,245.66299438476562 -66.02400207519531,249.9239959716797 -52.00600051879883,252.17100524902344 C28.141000747680664,265.0199890136719 140.62899780273438,250.68299865722656 176.00900268554688,128.45899963378906 C185.57699584960938,95.40599822998047 174.61700439453125,38.375999450683594 137.95199584960938,-6.938000202178955z"></path></g></g></g></svg>