<svg xmlns="http://www.w3.org/2000/svg" xmlns:xlink="http://www.w3.org/1999/xlink" viewBox="0 0 512 512" width="512" height="512" style="width: 100%; height: 100%; transform: translate3d(0,0,0);" preserveAspectRatio="xMidYMid meet"><defs><clipPath id="__lottie_element_14432"><rect width="512" height="512" x="0" y="0"></rect></clipPath></defs><g clip-path="url(#__lottie_element_14432)"><g style="display: block;" transform="matrix(1,0,0,1,2219,-338)" opacity="1"><g opacity="1" transform="matrix(1,0,0,1,0,0)"><path fill="rgb(0,0,0)" fill-opacity="1" d=" M-1963.43798828125,612.7440185546875 C-2005.2900390625,633.781005859375 -2033.93505859375,735.14501953125 -2033.93505859375,784.4600219726562 C-2033.93505859375,823.7750244140625 -1892.9420166015625,823.7750244140625 -1892.9420166015625,784.4600219726562 C-1892.9420166015625,735.14501953125 -1921.5860595703125,633.781005859375 -1963.43798828125,612.7440185546875z"></path><path stroke-linecap="round" stroke-linejoin="round" fill-opacity="0" stroke="rgb(0,0,0)" stroke-opacity="1" stroke-width="40" d=" M-1963.43798828125,612.7440185546875 C-2005.2900390625,633.781005859375 -2033.93505859375,735.14501953125 -2033.93505859375,784.4600219726562 C-2033.93505859375,823.7750244140625 -1892.9420166015625,823.7750244140625 -1892.9420166015625,784.4600219726562 C-1892.9420166015625,735.14501953125 -1921.5860595703125,633.781005859375 -1963.43798828125,612.7440185546875z"></path></g><g opacity="1" transform="matrix(1,0,0,1,0,0)"><path fill="rgb(0,0,0)" fill-opacity="1" d=" M-1900.6739501953125,526.9099731445312 C-1900.6739501953125,561.573974609375 -1928.7740478515625,589.6740112304688 -1963.43798828125,589.6740112304688 C-1998.10205078125,589.6740112304688 -2026.2030029296875,561.573974609375 -2026.2030029296875,526.9099731445312 C-2026.2030029296875,492.2460021972656 -1998.10205078125,464.14599609375 -1963.43798828125,464.14599609375 C-1928.7740478515625,464.14599609375 -1900.6739501953125,492.2460021972656 -1900.6739501953125,526.9099731445312z"></path><path stroke-linecap="round" stroke-linejoin="round" fill-opacity="0" stroke="rgb(0,0,0)" stroke-opacity="1" stroke-width="40" d=" M-1900.6739501953125,526.9099731445312 C-1900.6739501953125,561.573974609375 -1928.7740478515625,589.6740112304688 -1963.43798828125,589.6740112304688 C-1998.10205078125,589.6740112304688 -2026.2030029296875,561.573974609375 -2026.2030029296875,526.9099731445312 C-2026.2030029296875,492.2460021972656 -1998.10205078125,464.14599609375 -1963.43798828125,464.14599609375 C-1928.7740478515625,464.14599609375 -1900.6739501953125,492.2460021972656 -1900.6739501953125,526.9099731445312z"></path></g><g opacity="1" transform="matrix(1,0,0,1,0,0)"><path stroke-linecap="round" stroke-linejoin="round" fill-opacity="0" stroke="rgb(0,0,0)" stroke-opacity="1" stroke-width="40" d=" M-2068.593994140625,456.66900634765625 C-2070.1669921875,451.93499755859375 -2070.993896484375,447.02099609375 -2070.993896484375,441.9830017089844 C-2070.993896484375,403.5559997558594 -2022.8389892578125,372.40399169921875 -1963.43798828125,372.40399169921875 C-1904.0369873046875,372.40399169921875 -1855.883056640625,403.5559997558594 -1855.883056640625,441.9830017089844 C-1855.883056640625,446.7860107421875 -1856.635009765625,451.47601318359375 -1858.0679931640625,456.0050048828125"></path></g><g opacity="1" transform="matrix(1,0,0,1,0,0)"><path fill="rgb(0,0,0)" fill-opacity="1" d=" M-2108.2919921875,780.4739990234375 C-2105.987060546875,749.8930053710938 -2099.462890625,715.6320190429688 -2089.553955078125,683.3980102539062 C-2082.2099609375,659.5079956054688 -2073.54296875,638.4959716796875 -2063.595947265625,620.4229736328125 C-2063.595947265625,620.4229736328125 -2063.51611328125,620.4669799804688 -2063.51611328125,620.4669799804688 C-2148.39599609375,620.4669799804688 -2207.1689453125,691.9340209960938 -2182.27392578125,748.93798828125 C-2182.27392578125,748.93798828125 -2145.1240234375,733.3989868164062 -2145.1240234375,733.3989868164062 C-2139.43896484375,774.3809814453125 -2108.294921875,780.4730224609375 -2108.2919921875,780.4739990234375z"></path><path stroke-linecap="round" stroke-linejoin="round" fill-opacity="0" stroke="rgb(0,0,0)" stroke-opacity="1" stroke-width="40" d=" M-2108.2919921875,780.4739990234375 C-2105.987060546875,749.8930053710938 -2099.462890625,715.6320190429688 -2089.553955078125,683.3980102539062 C-2082.2099609375,659.5079956054688 -2073.54296875,638.4959716796875 -2063.595947265625,620.4229736328125 C-2063.595947265625,620.4229736328125 -2063.51611328125,620.4669799804688 -2063.51611328125,620.4669799804688 C-2148.39599609375,620.4669799804688 -2207.1689453125,691.9340209960938 -2182.27392578125,748.93798828125 C-2182.27392578125,748.93798828125 -2145.1240234375,733.3989868164062 -2145.1240234375,733.3989868164062 C-2139.43896484375,774.3809814453125 -2108.294921875,780.4730224609375 -2108.2919921875,780.4739990234375z"></path></g><g opacity="1" transform="matrix(1,0,0,1,0,0)"><path fill="rgb(0,0,0)" fill-opacity="1" d=" M-1818.5849609375,780.4739990234375 C-1820.8900146484375,749.8930053710938 -1827.4139404296875,715.6320190429688 -1837.322998046875,683.3980102539062 C-1844.66796875,659.5079956054688 -1853.3330078125,638.4959716796875 -1863.280029296875,620.4229736328125 C-1863.280029296875,620.4229736328125 -1863.3609619140625,620.4669799804688 -1863.3609619140625,620.4669799804688 C-1778.48095703125,620.4669799804688 -1719.7080078125,691.9340209960938 -1744.60302734375,748.93798828125 C-1744.60302734375,748.93798828125 -1781.7530517578125,733.3989868164062 -1781.7530517578125,733.3989868164062 C-1787.43798828125,774.3809814453125 -1818.58203125,780.4730224609375 -1818.5849609375,780.4739990234375z"></path><path stroke-linecap="round" stroke-linejoin="round" fill-opacity="0" stroke="rgb(0,0,0)" stroke-opacity="1" stroke-width="40" d=" M-1818.5849609375,780.4739990234375 C-1820.8900146484375,749.8930053710938 -1827.4139404296875,715.6320190429688 -1837.322998046875,683.3980102539062 C-1844.66796875,659.5079956054688 -1853.3330078125,638.4959716796875 -1863.280029296875,620.4229736328125 C-1863.280029296875,620.4229736328125 -1863.3609619140625,620.4669799804688 -1863.3609619140625,620.4669799804688 C-1778.48095703125,620.4669799804688 -1719.7080078125,691.9340209960938 -1744.60302734375,748.93798828125 C-1744.60302734375,748.93798828125 -1781.7530517578125,733.3989868164062 -1781.7530517578125,733.3989868164062 C-1787.43798828125,774.3809814453125 -1818.58203125,780.4730224609375 -1818.5849609375,780.4739990234375z"></path></g></g></g></svg>