<svg xmlns="http://www.w3.org/2000/svg" xmlns:xlink="http://www.w3.org/1999/xlink" viewBox="0 0 512 512" width="512" height="512" style="width: 100%; height: 100%; transform: translate3d(0,0,0);" preserveAspectRatio="xMidYMid meet"><defs><clipPath id="__lottie_element_15876"><rect width="512" height="512" x="0" y="0"></rect></clipPath></defs><g clip-path="url(#__lottie_element_15876)"><g style="display: block;" transform="matrix(1,0,0,1,16.258010864257812,17.750015258789062)" opacity="1"><g opacity="1" transform="matrix(1,0,0,1,239.82899475097656,240.58299255371094)"><path fill="rgb(0,0,0)" fill-opacity="1" d=" M48.91299819946289,-93.33300018310547 C55.25899887084961,-96.69200134277344 40.24599838256836,-143.33299255371094 55.91299819946289,-166.33299255371094 C58.32400131225586,-169.8730010986328 46.8489990234375,-201.52999877929688 24.19700050354004,-197.53199768066406 C-72.13600158691406,-180.53199768066406 -110.41999816894531,95.33399963378906 -103.08699798583984,99.66699981689453 C-97.67400360107422,102.86499786376953 -84.41999816894531,57.33399963378906 -67.08699798583984,66.66699981689453 C-46.84700012207031,77.56500244140625 -72.41999816894531,118 -63.08700180053711,121.66699981689453 C-57.292999267578125,123.94300079345703 -25.150999069213867,109.18299865722656 -17.086999893188477,119.66699981689453 C-7.086999893188477,132.66700744628906 -59.33399963378906,221.58599853515625 -79.08699798583984,232.66700744628906 C-92.75399780273438,240.33399963378906 -96.822998046875,230.5290069580078 -120.08699798583984,230.66700744628906 C-136.3070068359375,230.76300048828125 -135.75399780273438,233.66799926757812 -153.08700561523438,230.66700744628906 C-181.36399841308594,225.77099609375 -206.75399780273438,45.66699981689453 -231.08700561523438,-8.333000183105469 C-239.57899475097656,-27.177000045776367 -219.02999877929688,-41.74399948120117 -200.08700561523438,-31.33300018310547 C-156.4199981689453,-7.333000183105469 -150.90899658203125,86.1500015258789 -145.08700561523438,63.66699981689453 C-138.8350067138672,39.52000045776367 -110.49099731445312,-231.07400512695312 27.913000106811523,-237.33299255371094 C94.24600219726562,-240.33299255371094 94.88999938964844,-176.0260009765625 102.91300201416016,-171.33299255371094 C138.24600219726562,-150.66600036621094 120.0469970703125,-95.05400085449219 129.91299438476562,-87.33300018310547 C183.5800018310547,-45.33300018310547 175.5760040283203,-11.711000442504883 195.91299438476562,11.666999816894531 C231.5800018310547,52.66699981689453 239.5800018310547,103.33399963378906 214.91299438476562,112.66699981689453 C158.8820037841797,133.8679962158203 130.0189971923828,38.2859992980957 121.91300201416016,38.66699981689453 C108.65699768066406,39.28900146484375 94.24600219726562,100 59.91299819946289,101.66699981689453 C20.945999145507812,103.55899810791016 35.551998138427734,64.21299743652344 29.913000106811523,63.66699981689453 C19.579999923706055,62.66699981689453 14.923999786376953,95.41300201416016 -3.0869998931884766,95.66699981689453 C-26.753999710083008,96 -27.753999710083008,27.333999633789062 -6.086999893188477,-23.33300018310547 C8.12399959564209,-56.566001892089844 26.246000289916992,-81.33300018310547 48.91299819946289,-93.33300018310547z"></path></g></g></g></svg>