<svg xmlns="http://www.w3.org/2000/svg" xmlns:xlink="http://www.w3.org/1999/xlink" viewBox="0 0 512 512" width="512" height="512" style="width: 100%; height: 100%; transform: translate3d(0,0,0);" preserveAspectRatio="xMidYMid meet"><defs><clipPath id="__lottie_element_14437"><rect width="512" height="512" x="0" y="0"></rect></clipPath></defs><g clip-path="url(#__lottie_element_14437)"><g style="display: block;" transform="matrix(1,0,0,1,256,256)" opacity="1"><g opacity="1" transform="matrix(1,0,0,1,0,0)"><path fill="rgb(0,0,0)" fill-opacity="1" d=" M208.91799926757812,82.58999633789062 C208.5540008544922,80.85600280761719 207.10400390625,79.56199645996094 205.33999633789062,79.39600372314453 C205.33999633789062,79.39600372314453 163.0330047607422,75.41600036621094 163.0330047607422,75.41600036621094 C163.0330047607422,75.41600036621094 212.86500549316406,39.97700119018555 212.86500549316406,39.97700119018555 C215.47000122070312,38.124000549316406 214.9949951171875,34.12300109863281 212.0279998779297,32.930999755859375 C212.0279998779297,32.930999755859375 193.28399658203125,21.99799919128418 181.21600341796875,18.82200050354004 C177.72999572753906,17.905000686645508 174.0229949951172,18.524999618530273 170.9739990234375,20.44700050354004 C155.36399841308594,30.28499984741211 125.4280014038086,49.64699935913086 125.4280014038086,49.64699935913086 C125.4280014038086,49.64699935913086 57.06399917602539,10.29800033569336 57.06399917602539,10.29800033569336 C57.06399917602539,10.29800033569336 61.744998931884766,2.190999984741211 61.744998931884766,2.190999984741211 C61.744998931884766,2.190999984741211 56.54600143432617,-6.813000202178955 56.54600143432617,-6.813000202178955 C56.54600143432617,-6.813000202178955 125.4280014038086,-46.459999084472656 125.4280014038086,-46.459999084472656 C125.4280014038086,-46.459999084472656 155.36399841308594,-27.097999572753906 170.9739990234375,-17.260000228881836 C174.0229949951172,-15.338000297546387 177.72999572753906,-14.718000411987305 181.21600341796875,-15.635000228881836 C193.28399658203125,-18.81100082397461 212.0279998779297,-29.743999481201172 212.0279998779297,-29.743999481201172 C214.9949951171875,-30.93600082397461 215.47000122070312,-34.93600082397461 212.86500549316406,-36.78900146484375 C212.86500549316406,-36.78900146484375 163.0330047607422,-72.22899627685547 163.0330047607422,-72.22899627685547 C163.0330047607422,-72.22899627685547 205.33999633789062,-76.20800018310547 205.33999633789062,-76.20800018310547 C207.10400390625,-76.3740005493164 208.5540008544922,-77.66899871826172 208.91799926757812,-79.40299987792969 C208.91799926757812,-79.40299987792969 219.93499755859375,-122.24800109863281 219.93499755859375,-122.24800109863281 C220.39599609375,-124.04199981689453 219.34100341796875,-125.875 217.55799865722656,-126.37699890136719 C217.55799865722656,-126.37699890136719 174.9770050048828,-138.3719940185547 174.9770050048828,-138.3719940185547 C173.2949981689453,-138.92799377441406 171.4459991455078,-138.3249969482422 170.41700744628906,-136.88299560546875 C170.41700744628906,-136.88299560546875 145.7259979248047,-102.29900360107422 145.7259979248047,-102.29900360107422 C145.7259979248047,-102.29900360107422 140.11099243164062,-163.18899536132812 140.11099243164062,-163.18899536132812 C139.81700134277344,-166.3730010986328 136.1199951171875,-167.9720001220703 133.5989990234375,-166.0050048828125 C133.5989990234375,-166.0050048828125 114.7300033569336,-155.28900146484375 105.9219970703125,-146.44900512695312 C103.37799835205078,-143.89599609375 102.052001953125,-140.3780059814453 102.18199920654297,-136.7760009765625 C102.8479995727539,-118.33699798583984 104.55400085449219,-82.72599792480469 104.55400085449219,-82.72599792480469 C104.55400085449219,-82.72599792480469 35.624000549316406,-43.05099868774414 35.624000549316406,-43.05099868774414 C35.624000549316406,-43.05099868774414 30.784000396728516,-51.435001373291016 30.784000396728516,-51.435001373291016 C30.784000396728516,-51.435001373291016 20.922000885009766,-51.435001373291016 20.922000885009766,-51.435001373291016 C20.922000885009766,-51.435001373291016 20.922000885009766,-131.0850067138672 20.922000885009766,-131.0850067138672 C20.922000885009766,-131.0850067138672 52.63600158691406,-147.37100219726562 68.94999694824219,-155.99200439453125 C72.13700103759766,-157.67599487304688 74.52400207519531,-160.58099365234375 75.46800231933594,-164.0590057373047 C78.73600006103516,-176.10299682617188 78.61000061035156,-197.80099487304688 78.61000061035156,-197.80099487304688 C79.05699920654297,-200.9669952392578 75.8270034790039,-203.375 72.9209976196289,-202.04100036621094 C72.9209976196289,-202.04100036621094 17.347999572753906,-176.53199768066406 17.347999572753906,-176.53199768066406 C17.347999572753906,-176.53199768066406 35.00400161743164,-215.1840057373047 35.00400161743164,-215.1840057373047 C35.7400016784668,-216.7949981689453 35.340999603271484,-218.697998046875 34.02000045776367,-219.8780059814453 C34.02000045776367,-219.8780059814453 2.381999969482422,-250.7989959716797 2.381999969482422,-250.7989959716797 C1.0579999685287476,-252.09300231933594 -1.0570000410079956,-252.09300231933594 -2.381999969482422,-250.7989959716797 C-2.381999969482422,-250.7989959716797 -34.02000045776367,-219.8780059814453 -34.02000045776367,-219.8780059814453 C-35.340999603271484,-218.697998046875 -35.7400016784668,-216.7949981689453 -35.00400161743164,-215.1840057373047 C-35.00400161743164,-215.1840057373047 -17.347999572753906,-176.53199768066406 -17.347999572753906,-176.53199768066406 C-17.347999572753906,-176.53199768066406 -72.9209976196289,-202.04100036621094 -72.9209976196289,-202.04100036621094 C-75.8270034790039,-203.375 -79.05699920654297,-200.9669952392578 -78.61000061035156,-197.80099487304688 C-78.61000061035156,-197.80099487304688 -78.73500061035156,-176.10299682617188 -75.46800231933594,-164.0590057373047 C-74.52400207519531,-160.5800018310547 -72.13700103759766,-157.67599487304688 -68.94999694824219,-155.99200439453125 C-52.637001037597656,-147.37100219726562 -20.922000885009766,-131.0850067138672 -20.922000885009766,-131.0850067138672 C-20.922000885009766,-131.0850067138672 -20.922000885009766,-51.435001373291016 -20.922000885009766,-51.435001373291016 C-20.922000885009766,-51.435001373291016 -31.138999938964844,-51.435001373291016 -31.138999938964844,-51.435001373291016 C-31.138999938964844,-51.435001373291016 -35.88999938964844,-43.20500183105469 -35.88999938964844,-43.20500183105469 C-35.88999938964844,-43.20500183105469 -104.55400085449219,-82.72599792480469 -104.55400085449219,-82.72599792480469 C-104.55400085449219,-82.72599792480469 -102.8479995727539,-118.33699798583984 -102.18199920654297,-136.7760009765625 C-102.052001953125,-140.3780059814453 -103.37799835205078,-143.89599609375 -105.9219970703125,-146.44900512695312 C-114.73100280761719,-155.28900146484375 -133.5989990234375,-166.0050048828125 -133.5989990234375,-166.0050048828125 C-136.1199951171875,-167.9720001220703 -139.81700134277344,-166.3730010986328 -140.11099243164062,-163.18899536132812 C-140.11099243164062,-163.18899536132812 -145.72500610351562,-102.29900360107422 -145.72500610351562,-102.29900360107422 C-145.72500610351562,-102.29900360107422 -170.41700744628906,-136.88299560546875 -170.41700744628906,-136.88299560546875 C-171.4459991455078,-138.3249969482422 -173.2949981689453,-138.92799377441406 -174.9770050048828,-138.3719940185547 C-174.9770050048828,-138.3719940185547 -217.55799865722656,-126.37699890136719 -217.55799865722656,-126.37699890136719 C-219.34100341796875,-125.875 -220.39599609375,-124.04199981689453 -219.93499755859375,-122.24800109863281 C-219.93499755859375,-122.24800109863281 -208.91799926757812,-79.40299987792969 -208.91799926757812,-79.40299987792969 C-208.5540008544922,-77.66899871826172 -207.10400390625,-76.3740005493164 -205.33999633789062,-76.20800018310547 C-205.33999633789062,-76.20800018310547 -163.0330047607422,-72.22899627685547 -163.0330047607422,-72.22899627685547 C-163.0330047607422,-72.22899627685547 -212.86500549316406,-36.78900146484375 -212.86500549316406,-36.78900146484375 C-215.47000122070312,-34.93600082397461 -214.9949951171875,-30.93600082397461 -212.0279998779297,-29.743999481201172 C-212.0279998779297,-29.743999481201172 -193.28500366210938,-18.81100082397461 -181.21600341796875,-15.635000228881836 C-177.72999572753906,-14.718000411987305 -174.0229949951172,-15.336999893188477 -170.9739990234375,-17.259000778198242 C-155.36399841308594,-27.097000122070312 -125.4280014038086,-46.459999084472656 -125.4280014038086,-46.459999084472656 C-125.4280014038086,-46.459999084472656 -56.8129997253418,-6.966000080108643 -56.8129997253418,-6.966000080108643 C-56.8129997253418,-6.966000080108643 -62.099998474121094,2.190999984741211 -62.099998474121094,2.190999984741211 C-62.099998474121094,2.190999984741211 -57.33100128173828,10.45199966430664 -57.33100128173828,10.45199966430664 C-57.33100128173828,10.45199966430664 -125.4280014038086,49.64699935913086 -125.4280014038086,49.64699935913086 C-125.4280014038086,49.64699935913086 -155.36399841308594,30.28499984741211 -170.9739990234375,20.44700050354004 C-174.0229949951172,18.524999618530273 -177.72999572753906,17.905000686645508 -181.21600341796875,18.82200050354004 C-193.28500366210938,21.99799919128418 -212.0279998779297,32.930999755859375 -212.0279998779297,32.930999755859375 C-214.9949951171875,34.12300109863281 -215.47000122070312,38.124000549316406 -212.86500549316406,39.97700119018555 C-212.86500549316406,39.97700119018555 -163.0330047607422,75.41600036621094 -163.0330047607422,75.41600036621094 C-163.0330047607422,75.41600036621094 -205.33999633789062,79.39600372314453 -205.33999633789062,79.39600372314453 C-207.10400390625,79.56199645996094 -208.5540008544922,80.85600280761719 -208.91799926757812,82.58999633789062 C-208.91799926757812,82.58999633789062 -219.93499755859375,125.43499755859375 -219.93499755859375,125.43499755859375 C-220.39599609375,127.22899627685547 -219.34100341796875,129.06199645996094 -217.55799865722656,129.56399536132812 C-217.55799865722656,129.56399536132812 -174.9770050048828,141.5590057373047 -174.9770050048828,141.5590057373047 C-173.2949981689453,142.11500549316406 -171.4459991455078,141.51199340820312 -170.41700744628906,140.07000732421875 C-170.41700744628906,140.07000732421875 -145.72500610351562,105.48699951171875 -145.72500610351562,105.48699951171875 C-145.72500610351562,105.48699951171875 -140.11099243164062,166.3769989013672 -140.11099243164062,166.3769989013672 C-139.81700134277344,169.56100463867188 -136.1199951171875,171.16000366210938 -133.5989990234375,169.1929931640625 C-133.5989990234375,169.1929931640625 -114.73100280761719,158.4759979248047 -105.9219970703125,149.63600158691406 C-103.37799835205078,147.08299255371094 -102.052001953125,143.5659942626953 -102.18199920654297,139.96400451660156 C-102.8479995727539,121.5250015258789 -104.55400085449219,85.91400146484375 -104.55400085449219,85.91400146484375 C-104.55400085449219,85.91400146484375 -36.40800094604492,46.689998626708984 -36.40800094604492,46.689998626708984 C-36.40800094604492,46.689998626708984 -31.138999938964844,55.81800079345703 -31.138999938964844,55.81800079345703 C-31.138999938964844,55.81800079345703 -20.922000885009766,55.81800079345703 -20.922000885009766,55.81800079345703 C-20.922000885009766,55.81800079345703 -20.922000885009766,134.27200317382812 -20.922000885009766,134.27200317382812 C-20.922000885009766,134.27200317382812 -52.637001037597656,150.5590057373047 -68.94999694824219,159.17999267578125 C-72.13700103759766,160.86399841308594 -74.52400207519531,163.76699829101562 -75.46800231933594,167.24600219726562 C-78.73500061035156,179.2899932861328 -78.61000061035156,200.98899841308594 -78.61000061035156,200.98899841308594 C-79.05699920654297,204.15499877929688 -75.8270034790039,206.56199645996094 -72.9209976196289,205.22799682617188 C-72.9209976196289,205.22799682617188 -17.347999572753906,179.718994140625 -17.347999572753906,179.718994140625 C-17.347999572753906,179.718994140625 -35.00400161743164,218.37100219726562 -35.00400161743164,218.37100219726562 C-35.7400016784668,219.98199462890625 -35.340999603271484,221.88600158691406 -34.02000045776367,223.0659942626953 C-34.02000045776367,223.0659942626953 -2.381999969482422,253.98699951171875 -2.381999969482422,253.98699951171875 C-1.0570000410079956,255.281005859375 1.0579999685287476,255.281005859375 2.381999969482422,253.98699951171875 C2.381999969482422,253.98699951171875 34.02000045776367,223.0659942626953 34.02000045776367,223.0659942626953 C35.340999603271484,221.88600158691406 35.7400016784668,219.98199462890625 35.00400161743164,218.37100219726562 C35.00400161743164,218.37100219726562 17.347999572753906,179.718994140625 17.347999572753906,179.718994140625 C17.347999572753906,179.718994140625 72.9209976196289,205.22799682617188 72.9209976196289,205.22799682617188 C75.8270034790039,206.56199645996094 79.05699920654297,204.15499877929688 78.61000061035156,200.98899841308594 C78.61000061035156,200.98899841308594 78.73600006103516,179.2899932861328 75.46800231933594,167.24600219726562 C74.52400207519531,163.76699829101562 72.13700103759766,160.86399841308594 68.94999694824219,159.17999267578125 C52.63600158691406,150.5590057373047 20.922000885009766,134.27200317382812 20.922000885009766,134.27200317382812 C20.922000885009766,134.27200317382812 20.922000885009766,55.81800079345703 20.922000885009766,55.81800079345703 C20.922000885009766,55.81800079345703 30.784000396728516,55.81800079345703 30.784000396728516,55.81800079345703 C30.784000396728516,55.81800079345703 36.141998291015625,46.5369987487793 36.141998291015625,46.5369987487793 C36.141998291015625,46.5369987487793 104.55400085449219,85.91400146484375 104.55400085449219,85.91400146484375 C104.55400085449219,85.91400146484375 102.8479995727539,121.5250015258789 102.18199920654297,139.96400451660156 C102.052001953125,143.5659942626953 103.37799835205078,147.08299255371094 105.9219970703125,149.63600158691406 C114.7300033569336,158.4759979248047 133.5989990234375,169.1929931640625 133.5989990234375,169.1929931640625 C136.1199951171875,171.16000366210938 139.81700134277344,169.56100463867188 140.11099243164062,166.3769989013672 C140.11099243164062,166.3769989013672 145.7259979248047,105.48699951171875 145.7259979248047,105.48699951171875 C145.7259979248047,105.48699951171875 170.41700744628906,140.07000732421875 170.41700744628906,140.07000732421875 C171.4459991455078,141.51199340820312 173.2949981689453,142.11500549316406 174.9770050048828,141.5590057373047 C174.9770050048828,141.5590057373047 217.55799865722656,129.56500244140625 217.55799865722656,129.56500244140625 C219.34100341796875,129.06300354003906 220.39599609375,127.22899627685547 219.93499755859375,125.43499755859375 C219.93499755859375,125.43499755859375 208.91799926757812,82.58999633789062 208.91799926757812,82.58999633789062z"></path></g></g></g></svg>