<svg xmlns="http://www.w3.org/2000/svg" xmlns:xlink="http://www.w3.org/1999/xlink" viewBox="0 0 512 512" width="512" height="512" style="width: 100%; height: 100%; transform: translate3d(0,0,0);" preserveAspectRatio="xMidYMid meet"><defs><clipPath id="__lottie_element_14442"><rect width="512" height="512" x="0" y="0"></rect></clipPath></defs><g clip-path="url(#__lottie_element_14442)"><g style="display: block;" transform="matrix(1,0,0,1,256,256)" opacity="1"><g opacity="1" transform="matrix(1,0,0,1,0,0)"><path fill="rgb(0,0,0)" fill-opacity="1" d=" M121.5719985961914,-14.293999671936035 C118.94400024414062,-12.354000091552734 116.21099853515625,-10.5 113.35299682617188,-8.74899959564209 C113.35299682617188,-8.74899959564209 113.18000030517578,-8.642999649047852 113.18000030517578,-8.642999649047852 C103.69000244140625,-2.8399999141693115 100.14900207519531,9.131999969482422 104.78299713134766,19.243999481201172 C123.65299987792969,60.42300033569336 120.80500030517578,103.74700164794922 120.62100219726562,106.23799896240234 C119.94499969482422,115.39700317382812 113.11699676513672,122.91799926757812 104.06600189208984,124.47599792480469 C104.06600189208984,124.47599792480469 72.95099639892578,129.82899475097656 72.95099639892578,129.82899475097656 C71.8219985961914,130.02200317382812 70.68599700927734,130.1179962158203 69.55899810791016,130.1179962158203 C64.62899780273438,130.1179962158203 59.82699966430664,128.29400634765625 56.11800003051758,124.927001953125 C51.560001373291016,120.79000091552734 49.1609992980957,114.78399658203125 49.61399841308594,108.6449966430664 C49.64699935913086,108.15799713134766 52.297000885009766,64.85600280761719 32.053001403808594,31.266000747680664 C26.256000518798828,21.64699935913086 15.687000274658203,15.925999641418457 4.456999778747559,15.993000030517578 C3.688999891281128,15.996999740600586 2.9179999828338623,16 2.1449999809265137,16 C-44.840999603271484,16 -82.25700378417969,7.672999858856201 -109.06300354003906,-8.74899959564209 C-111.9209976196289,-10.5 -114.65399932861328,-12.354000091552734 -117.28199768066406,-14.293999671936035 C-148.15199279785156,16.410999298095703 -167.30299377441406,58.8849983215332 -167.30299377441406,105.76200103759766 C-167.30299377441406,151.0749969482422 -149.302001953125,188.03500366210938 -115.24500274658203,212.64599609375 C-85.76799774169922,233.94900512695312 -45.17499923706055,245.20899963378906 2.1449999809265137,245.20899963378906 C49.46500015258789,245.20899963378906 90.05799865722656,233.94900512695312 119.53500366210938,212.64599609375 C153.5919952392578,188.03500366210938 171.59300231933594,151.0749969482422 171.59300231933594,105.76200103759766 C171.59300231933594,58.8849983215332 152.44200134277344,16.410999298095703 121.5719985961914,-14.293999671936035z M-27.854999542236328,193.08799743652344 C-44.42399978637695,193.08799743652344 -57.85499954223633,179.65699768066406 -57.85499954223633,163.08799743652344 C-57.85499954223633,146.52000427246094 -44.42399978637695,133.08799743652344 -27.854999542236328,133.08799743652344 C-11.28600025177002,133.08799743652344 2.1449999809265137,146.52000427246094 2.1449999809265137,163.08799743652344 C2.1449999809265137,179.65699768066406 -11.28600025177002,193.08799743652344 -27.854999542236328,193.08799743652344z M-27.854999542236328,99 C-44.42399978637695,99 -57.85499954223633,85.56900024414062 -57.85499954223633,69 C-57.85499954223633,52.43199920654297 -44.42399978637695,39 -27.854999542236328,39 C-11.28600025177002,39 2.1449999809265137,52.43199920654297 2.1449999809265137,69 C2.1449999809265137,85.56900024414062 -11.28600025177002,99 -27.854999542236328,99z"></path></g><g opacity="1" transform="matrix(1,0,0,1,0,0)"><path fill="rgb(0,0,0)" fill-opacity="1" d=" M0,-247.1269989013672 C-67.58200073242188,-247.1269989013672 -122.56300354003906,-192.14500427246094 -122.56300354003906,-124.56300354003906 C-122.56300354003906,-96.11699676513672 -112.81900024414062,-69.90699768066406 -96.49700164794922,-49.08700180053711 C-94.95099639892578,-47.1150016784668 -70.80599975585938,-26 0,-26 C70.37999725341797,-26 94.79900360107422,-46.92100143432617 96.49700164794922,-49.08700180053711 C112.81900024414062,-69.90699768066406 122.56300354003906,-96.11699676513672 122.56300354003906,-124.56300354003906 C122.56300354003906,-192.14500427246094 67.58200073242188,-247.1269989013672 0,-247.1269989013672z M-74.0999984741211,-119.56300354003906 C-85.14600372314453,-119.56300354003906 -94.0999984741211,-128.51699829101562 -94.0999984741211,-139.56300354003906 C-94.0999984741211,-150.60899353027344 -85.14600372314453,-159.56300354003906 -74.0999984741211,-159.56300354003906 C-63.05400085449219,-159.56300354003906 -54.099998474121094,-150.60899353027344 -54.099998474121094,-139.56300354003906 C-54.099998474121094,-128.51699829101562 -63.05400085449219,-119.56300354003906 -74.0999984741211,-119.56300354003906z M-15.854999542236328,-96.56300354003906 C-26.900999069213867,-96.56300354003906 -44.85499954223633,-105.51699829101562 -44.85499954223633,-116.56300354003906 C-44.85499954223633,-127.60900115966797 -26.900999069213867,-136.56300354003906 -15.854999542236328,-136.56300354003906 C-4.809000015258789,-136.56300354003906 4.144999980926514,-127.60900115966797 4.144999980926514,-116.56300354003906 C4.144999980926514,-105.51699829101562 -4.809000015258789,-96.56300354003906 -15.854999542236328,-96.56300354003906z M34.388999938964844,-119.56300354003906 C23.343000411987305,-119.56300354003906 14.388999938964844,-128.51699829101562 14.388999938964844,-139.56300354003906 C14.388999938964844,-150.60899353027344 23.343000411987305,-159.56300354003906 34.388999938964844,-159.56300354003906 C45.435001373291016,-159.56300354003906 54.388999938964844,-150.60899353027344 54.388999938964844,-139.56300354003906 C54.388999938964844,-128.51699829101562 45.435001373291016,-119.56300354003906 34.388999938964844,-119.56300354003906z"></path></g><g opacity="1" transform="matrix(1,0,0,1,0,0)"><path fill="rgb(0,0,0)" fill-opacity="1" d=" M-108.59200286865234,17.381000518798828 C-108.59200286865234,17.381000518798828 -181.5659942626953,-40.6870002746582 -181.5659942626953,-40.6870002746582 C-181.5659942626953,-40.6870002746582 -200.94200134277344,-81.36499786376953 -200.94200134277344,-81.36499786376953"></path><path stroke-linecap="round" stroke-linejoin="round" fill-opacity="0" stroke="rgb(0,0,0)" stroke-opacity="1" stroke-width="40" d=" M-108.59200286865234,17.381000518798828 C-108.59200286865234,17.381000518798828 -181.5659942626953,-40.6870002746582 -181.5659942626953,-40.6870002746582 C-181.5659942626953,-40.6870002746582 -200.94200134277344,-81.36499786376953 -200.94200134277344,-81.36499786376953"></path></g><g opacity="1" transform="matrix(1,0,0,1,0,0)"><path fill="rgb(0,0,0)" fill-opacity="1" d=" M-161.7030029296875,-67.78600311279297 C-161.7030029296875,-67.78600311279297 -181.5659942626953,-40.6870002746582 -181.5659942626953,-40.6870002746582 C-181.5659942626953,-40.6870002746582 -211.67999267578125,-40.6870002746582 -211.67999267578125,-40.6870002746582"></path><path stroke-linecap="round" stroke-linejoin="round" fill-opacity="0" stroke="rgb(0,0,0)" stroke-opacity="1" stroke-width="40" d=" M-161.7030029296875,-67.78600311279297 C-161.7030029296875,-67.78600311279297 -181.5659942626953,-40.6870002746582 -181.5659942626953,-40.6870002746582 C-181.5659942626953,-40.6870002746582 -211.67999267578125,-40.6870002746582 -211.67999267578125,-40.6870002746582"></path></g><g opacity="1" transform="matrix(1,0,0,1,0,0)"><path fill="rgb(0,0,0)" fill-opacity="1" d=" M124.70800018310547,7.9710001945495605 C124.70800018310547,7.9710001945495605 185.8560028076172,-40.6870002746582 185.8560028076172,-40.6870002746582 C185.8560028076172,-40.6870002746582 205.23199462890625,-81.36499786376953 205.23199462890625,-81.36499786376953"></path><path stroke-linecap="round" stroke-linejoin="round" fill-opacity="0" stroke="rgb(0,0,0)" stroke-opacity="1" stroke-width="40" d=" M124.70800018310547,7.9710001945495605 C124.70800018310547,7.9710001945495605 185.8560028076172,-40.6870002746582 185.8560028076172,-40.6870002746582 C185.8560028076172,-40.6870002746582 205.23199462890625,-81.36499786376953 205.23199462890625,-81.36499786376953"></path></g><g opacity="1" transform="matrix(1,0,0,1,0,0)"><path fill="rgb(0,0,0)" fill-opacity="1" d=" M165.9929962158203,-67.78600311279297 C165.9929962158203,-67.78600311279297 185.8560028076172,-40.6870002746582 185.8560028076172,-40.6870002746582 C185.8560028076172,-40.6870002746582 215.968994140625,-40.6870002746582 215.968994140625,-40.6870002746582"></path><path stroke-linecap="round" stroke-linejoin="round" fill-opacity="0" stroke="rgb(0,0,0)" stroke-opacity="1" stroke-width="40" d=" M165.9929962158203,-67.78600311279297 C165.9929962158203,-67.78600311279297 185.8560028076172,-40.6870002746582 185.8560028076172,-40.6870002746582 C185.8560028076172,-40.6870002746582 215.968994140625,-40.6870002746582 215.968994140625,-40.6870002746582"></path></g></g></g></svg>