<svg xmlns="http://www.w3.org/2000/svg" xmlns:xlink="http://www.w3.org/1999/xlink" viewBox="0 0 512 512" width="512" height="512" style="width: 100%; height: 100%; transform: translate3d(0,0,0);" preserveAspectRatio="xMidYMid meet"><defs><clipPath id="__lottie_element_53919"><rect width="512" height="512" x="0" y="0"></rect></clipPath></defs><g clip-path="url(#__lottie_element_53919)"><g style="display: block;" transform="matrix(1,0,0,1,-0.5900115966796875,19.639999389648438)" opacity="1"><g opacity="1" transform="matrix(1,0,0,1,254.53500366210938,232.98500061035156)"><path fill="rgb(0,0,0)" fill-opacity="1" d=" M183.05499267578125,-222.625 C163.05499267578125,-232.73500061035156 55.05500030517578,-185.625 37.05500030517578,-142.625 C29.094999313354492,-123.6050033569336 90.5250015258789,-75.04499816894531 97.05500030517578,-83.625 C132.05499267578125,-129.625 157.06500244140625,-194.02499389648438 161.05499267578125,-182.625 C168.05499267578125,-162.625 125.45500183105469,-32.46500015258789 12.055000305175781,48.375 C-88.94499969482422,120.375 -192.94500732421875,141.375 -206.94500732421875,117.375 C-211.2550048828125,109.99500274658203 -150.94500732421875,117.375 -115.94499969482422,89.375 C-110.0250015258789,84.63500213623047 -135.94500732421875,67.375 -144.94500732421875,24.375 C-152.21499633789062,-10.385000228881836 -254.28500366210938,83.65499877929688 -241.94500732421875,145.375 C-235.94500732421875,175.375 -150.94500732421875,232.73500061035156 -136.94500732421875,232.375 C59.05500030517578,227.375 221.05499267578125,32.375 250.76499938964844,-103.36499786376953 C253.94500732421875,-117.88500213623047 218.51499938964844,-204.7050018310547 183.05499267578125,-222.625z M-111.94499969482422,199.375 C-114.6449966430664,194.375 -104.17500305175781,140.875 -95.94499969482422,131.375 C-90.98500061035156,125.6449966430664 19.434999465942383,134.375 19.05500030517578,142.375 C18.53499984741211,153.38499450683594 -106.1050033569336,210.19500732421875 -111.94499969482422,199.375z M47.05500030517578,125.375 C44.35499954223633,120.375 67.91500091552734,33.32500076293945 74.05500030517578,19.375 C77.1050033569336,12.444999694824219 159.10499572753906,-4.65500020980835 167.05499267578125,-5.625 C175.05499267578125,-6.59499979019165 52.89500045776367,136.19500732421875 47.05500030517578,125.375z M176.05499267578125,-25.625 C171.69500732421875,-29.264999389648438 153.15499877929688,-96.875 163.05499267578125,-104.625 C172.375,-111.92500305175781 226.43499755859375,-127.625 226.05499267578125,-119.625 C225.53500366210938,-108.61499786376953 182.05499267578125,-20.625 176.05499267578125,-25.625z"></path></g><g opacity="1" transform="matrix(1,0,0,1,222.03900146484375,216.79600524902344)"><path fill="rgb(0,0,0)" fill-opacity="1" d=" M-95.4489974975586,7.564000129699707 C-110.6760025024414,9.015999794006348 -66.8949966430664,86.4010009765625 -55.44900131225586,92.56400299072266 C-42.44900131225586,99.56400299072266 110.08300018310547,-0.8849999904632568 110.5510025024414,-38.43600082397461 C110.6760025024414,-48.43600082397461 44.82500076293945,-99.56400299072266 40.55099868774414,-86.43599700927734 C26.551000595092773,-43.43600082397461 -39.44900131225586,2.2239999771118164 -95.4489974975586,7.564000129699707z"></path></g><g opacity="1" transform="matrix(1,0,0,1,161.64500427246094,125.03099822998047)"><path fill="rgb(0,0,0)" fill-opacity="1" d=" M-48.05500030517578,74.3290023803711 C-15.359000205993652,83.6709976196289 81.94499969482422,29.32900047302246 81.94499969482422,-14.670999526977539 C81.94499969482422,-24.67099952697754 -10.055000305175781,-83.6709976196289 -46.05500030517578,-61.67100143432617 C-81.94400024414062,-39.73899841308594 -62.05500030517578,70.3290023803711 -48.05500030517578,74.3290023803711z"></path></g></g></g></svg>