<svg xmlns="http://www.w3.org/2000/svg" xmlns:xlink="http://www.w3.org/1999/xlink" viewBox="0 0 512 512" width="512" height="512" style="width: 100%; height: 100%; transform: translate3d(0,0,0);" preserveAspectRatio="xMidYMid meet"><defs><clipPath id="__lottie_element_52891"><rect width="512" height="512" x="0" y="0"></rect></clipPath></defs><g clip-path="url(#__lottie_element_52891)"><g style="display: block;" transform="matrix(1,0,0,1,2,6)" opacity="1"><g opacity="1" transform="matrix(-1,0,0,1,252.68099975585938,252.4969940185547)"><path fill="rgb(0,0,0)" fill-opacity="1" d=" M-9.680999755859375,86.7979965209961 C-10.680999755859375,123.06300354003906 -48.819000244140625,165.5449981689453 -112.68000030517578,162.43699645996094 C-159.80999755859375,160.14300537109375 -219.32000732421875,128.76199340820312 -221.18099975585938,42.76100158691406 C-222.95199584960938,-39.082000732421875 -134.78700256347656,-103.97100067138672 -95.9260025024414,-142.38900756835938 C-64.68099975585938,-173.2779998779297 -6.565999984741211,-236.63699340820312 -1.8489999771118164,-236.7779998779297 C1.4119999408721924,-236.87600708007812 59.465999603271484,-174.5919952392578 92.53299713134766,-142.42799377441406 C134.31900024414062,-101.78299713134766 220.2550048828125,-34.98099899291992 218.31900024414062,43.797000885009766 C216.17999267578125,130.83399963378906 148.64199829101562,166.5030059814453 102.81900024414062,164.50999450683594 C55.18000030517578,162.43800354003906 30.18000030517578,142.23199462890625 18.319000244140625,130.3159942626953 C14.782999992370605,126.76399993896484 27.68000030517578,168.5030059814453 75.81900024414062,190.0030059814453 C92.66100311279297,197.52499389648438 88.447998046875,220.53900146484375 78.31900024414062,224.5030059814453 C66.81900024414062,229.0030059814453 -62.180999755859375,228.5030059814453 -77.68099975585938,226.0030059814453 C-102.98600006103516,221.9219970703125 -94.93399810791016,191.47500610351562 -80.32099914550781,189.15499877929688 C-57.319000244140625,185.5030059814453 -16.062000274658203,164.00599670410156 -8.180999755859375,132.9429931640625 C-0.8199999928474426,103.93099975585938 -9.446999549865723,78.29900360107422 -9.680999755859375,86.7979965209961z"></path></g></g></g></svg>