<svg xmlns="http://www.w3.org/2000/svg" xmlns:xlink="http://www.w3.org/1999/xlink" viewBox="0 0 512 512" width="512" height="512" style="width: 100%; height: 100%; transform: translate3d(0,0,0);" preserveAspectRatio="xMidYMid meet"><defs><clipPath id="__lottie_element_51305"><rect width="512" height="512" x="0" y="0"></rect></clipPath></defs><g clip-path="url(#__lottie_element_51305)"><g style="display: block;" transform="matrix(2.103410005569458,0,0,2.103410005569458,-288.47296142578125,-332.47296142578125)" opacity="1"><g opacity="1" transform="matrix(1,0,0,1,247.65199279785156,285.9779968261719)"><path fill="rgb(61,48,59)" fill-opacity="1" d=" M-63.652000427246094,-73.97799682617188 C-77.73400115966797,-75.58899688720703 -89.14900207519531,-58.65399932861328 -94.6520004272461,-43.97800064086914 C-108.3479995727539,-7.452000141143799 -81.81400299072266,44.61399841308594 -49.652000427246094,53.02199935913086 C-11.53600025177002,62.98699951171875 34.106998443603516,13.6899995803833 34.347999572753906,18.02199935913086 C35.347999572753906,36.02199935913086 4.3480000495910645,52.02199935913086 4.3480000495910645,52.02199935913086 C4.3480000495910645,52.02199935913086 30.687000274658203,102.4260025024414 43.347999572753906,110.02200317382812 C63.347999572753906,122.02200317382812 108.3479995727539,87.7300033569336 108.3479995727539,66.02200317382812 C108.3479995727539,53.02199935913086 71.3479995727539,21.302000045776367 71.3479995727539,14.022000312805176 C71.3479995727539,4.021999835968018 100.3479995727539,-15.977999687194824 97.3479995727539,-50.97800064086914 C94.48799896240234,-84.34300231933594 57.94300079345703,-121.83699798583984 21.347999572753906,-121.97799682617188 C9.574999809265137,-122.02300262451172 -10.138999938964844,-118.13999938964844 -13.652000427246094,-106.97799682617188 C-13.652000427246094,-106.97799682617188 19.81800079345703,-75.10800170898438 24.031999588012695,-48.76599884033203 C24.743999481201172,-44.316001892089844 22.799999237060547,-39.85599899291992 19.152000427246094,-37.21099853515625 C19.152000427246094,-37.21099853515625 -10.517000198364258,-15.701000213623047 -10.517000198364258,-15.701000213623047 C-14.376999855041504,-12.902000427246094 -19.552000045776367,-12.569000244140625 -23.6560001373291,-14.996000289916992 C-45.17900085449219,-27.722000122070312 -63.652000427246094,-73.97799682617188 -63.652000427246094,-73.97799682617188z"></path></g></g></g></svg>