<svg xmlns="http://www.w3.org/2000/svg" xmlns:xlink="http://www.w3.org/1999/xlink" viewBox="0 0 512 512" width="512" height="512" style="width: 100%; height: 100%; transform: translate3d(0,0,0);" preserveAspectRatio="xMidYMid meet"><defs><clipPath id="__lottie_element_52653"><rect width="512" height="512" x="0" y="0"></rect></clipPath></defs><g clip-path="url(#__lottie_element_52653)"><g style="display: block;" transform="matrix(1,0,0,1,256,256)" opacity="1"><g opacity="1" transform="matrix(1,0,0,1,0,0)"><path fill="rgb(0,0,0)" fill-opacity="1" d=" M106.99299621582031,-46.54399871826172 C93.00900268554688,-45.07600021362305 97.50399780273438,12.22700023651123 76.58899688720703,38.04600143432617 C55.67399978637695,63.8650016784668 -1.3140000104904175,71.36399841308594 0.15399999916553497,85.3489990234375 C1.621999979019165,99.33399963378906 58.92499923706055,94.83899688720703 84.74400329589844,115.75399780273438 C110.56300354003906,136.66900634765625 118.06300354003906,193.656005859375 132.0469970703125,192.18800354003906 C146.031005859375,190.72000122070312 141.53700256347656,133.41799926757812 162.45199584960938,107.5989990234375 C183.36700439453125,81.77999877929688 240.35400390625,74.27999877929688 238.88600158691406,60.29499816894531 C237.41799926757812,46.310001373291016 180.11599731445312,50.805999755859375 154.2969970703125,29.891000747680664 C128.47799682617188,8.97599983215332 120.97799682617188,-48.012001037597656 106.99299621582031,-46.54399871826172z"></path></g><g opacity="1" transform="matrix(1,0,0,1,0,0)"><path fill="rgb(0,0,0)" fill-opacity="1" d=" M-41.01900100708008,-149.99899291992188 C-31.82900047302246,-149.25900268554688 -30.920000076293945,-136.11900329589844 -39.845001220703125,-134.0570068359375 C-39.845001220703125,-134.0570068359375 -39.952999114990234,-134.03399658203125 -39.952999114990234,-134.03399658203125 C-117.47200012207031,-116.21600341796875 -183.47500610351562,-97.81600189208984 -181.38099670410156,-77.86799621582031 C-179.53199768066406,-60.244998931884766 -129.77000427246094,-57.75199890136719 -87.66600036621094,-23.645999908447266 C-45.5620002746582,10.460000038146973 -32.792999267578125,58.61899948120117 -15.170000076293945,56.77000045776367 C2.453000068664551,54.92100143432617 4.947000026702881,5.159999847412109 39.053001403808594,-36.944000244140625 C73.15899658203125,-79.0479965209961 121.31800079345703,-91.81800079345703 119.46900177001953,-109.44100189208984 C117.62000274658203,-127.06400299072266 67.85800170898438,-129.5570068359375 25.753999710083008,-163.66299438476562 C-16.350000381469727,-197.7689971923828 -29.1200008392334,-245.92799377441406 -46.74300003051758,-244.07899475097656 C-60.89899826049805,-242.59300231933594 -65.2959976196289,-210.1929931640625 -84.15599822998047,-175.67999267578125 C-89.80000305175781,-165.3509979248047 -82.75599670410156,-152.6790008544922 -71.00399780273438,-152.0240020751953 C-60.80799865722656,-151.45599365234375 -50.6510009765625,-150.77499389648438 -41.01900100708008,-149.99899291992188z"></path></g><g opacity="1" transform="matrix(1,0,0,1,0,0)"><path fill="rgb(0,0,0)" fill-opacity="1" d=" M-168.73199462890625,178.16700744628906 C-136.65499877929688,204.14999389648438 -126.927001953125,240.84100341796875 -113.5009994506836,239.4320068359375 C-100.07499694824219,238.0229949951172 -98.17500305175781,200.11300659179688 -72.19200134277344,168.03599548339844 C-46.20800018310547,135.95899963378906 -9.519000053405762,126.23100280761719 -10.928000450134277,112.80500030517578 C-12.336999893188477,99.37899780273438 -50.24700164794922,97.47899627685547 -82.3239974975586,71.49600219726562 C-114.4000015258789,45.51300048828125 -124.12899780273438,8.821999549865723 -137.55499267578125,10.230999946594238 C-150.9810028076172,11.640000343322754 -152.88099670410156,49.54999923706055 -178.86399841308594,81.62699890136719 C-204.8470001220703,113.7040023803711 -241.53700256347656,123.43199920654297 -240.1280059814453,136.85800170898438 C-238.718994140625,150.28399658203125 -200.80799865722656,152.1840057373047 -168.73199462890625,178.16700744628906z"></path></g></g></g></svg>