<svg xmlns="http://www.w3.org/2000/svg" xmlns:xlink="http://www.w3.org/1999/xlink" viewBox="0 0 512 512" width="512" height="512" style="width: 100%; height: 100%; transform: translate3d(0,0,0);" preserveAspectRatio="xMidYMid meet"><defs><clipPath id="__lottie_element_51795"><rect width="512" height="512" x="0" y="0"></rect></clipPath></defs><g clip-path="url(#__lottie_element_51795)"><g style="display: block;" transform="matrix(1,0,0,1,255.81100463867188,253.43699645996094)" opacity="1"><g opacity="1" transform="matrix(1,0,0,1,0,0)"><path fill="rgb(0,0,0)" fill-opacity="1" d=" M-129.51,17.88 C-129.73,23.81 -128.1,27.76 -124.1,30.5 C-119.82,33.42 -115.5,32.5 -111.64,29.8 C-105.03,25.18 -98.5,20.41 -92.19,15.39 C-80.86,6.38 -80.95,6.3 -68.43,14.59 C-62.72,18.38 -57.15,22.51 -50.42,24.38 C-43.28,26.37 -37.03,23.94 -34.5,17.09 C-32.02,10.38 -32.8,-2.56 -34.33,-16.44 C-35.79,-29.76 -32.41,-36.28 -22.78,-48.77 C-18.82,-53.89 -14.1,-58.32 -11.98,-64.62 C-8.4,-75.32 -13.36,-83.02 -24.7,-84.09 C-27.1,-84.32 -29.54,-84.09 -31.96,-84.03 C-42.23,-83.79 -43.78,-89.22 -46.56,-106.2 C-47.67,-112.97 -51.56,-118.51 -58.88,-119.59 C-65.99,-120.64 -69.83,-115.48 -73,-110.13 C-78.55,-100.75 -81.03,-93.53 -87.3,-82.94 C-90.66,-77.28 -97.49,-74.33 -103.13,-71.12 C-112.01,-66.08 -118.28,-65.3 -124.16,-62.55 C-143.56,-53.5 -146.32,-44.89 -131.04,-30.42 C-127.3,-26.87 -120.94,-19.26 -122.95,-12.95 C-124.78,-7.19 -128.62,14.27 -129.51,17.88z M-187.73199462890625,188.68499755859375 C-173.16600036621094,187.16299438476562 -156.8470001220703,184.23599243164062 -140.927001953125,179.64700317382812 C-89.6969985961914,164.88099670410156 -37.757999420166016,152.54800415039062 12.663000106811523,135.0019989013672 C15.71500015258789,133.94000244140625 18.801000595092773,132.9739990234375 21.834999084472656,131.86300659179688 C29.881999969482422,128.9149932861328 34.854000091552734,123.53900146484375 38.090999603271484,115.26399993896484 C53.263999938964844,76.47699737548828 146.6280059814453,-199.4010009765625 147.78199768066406,-201.96800231933594 C150.44000244140625,-207.8820037841797 153.6750030517578,-209.66400146484375 159.26600646972656,-206.51600646972656 C172.218994140625,-199.2220001220703 183.64100646972656,-190.1529998779297 184.42100524902344,-173.58999633789062 C184.65899658203125,-168.5279998779297 186.54299926757812,-166.72999572753906 191.22500610351562,-165.50599670410156 C211.55799865722656,-160.18800354003906 211.66200256347656,-159.98300170898438 205.19400024414062,-140.70199584960938 C188.23500061035156,-90.14600372314453 171.10800170898438,-39.64699935913086 154.12100219726562,10.899999618530273 C150.7760009765625,20.854000091552734 147.8070068359375,29.540000915527344 143.83700561523438,40.27399826049805 C141.7050018310547,46.03799819946289 137.8090057373047,56.30099868774414 145.31399536132812,58.867000579833984 C151.77699279785156,60.71200180053711 154.3159942626953,51.4109992980957 156.60800170898438,45.88800048828125 C167.2899932861328,20.143999099731445 177.76699829101562,-5.689000129699707 187.89700317382812,-31.655000686645508 C198.0260009765625,-57.619998931884766 207.50900268554688,-83.83599853515625 217.57400512695312,-109.82599639892578 C221.8300018310547,-120.81700134277344 226.14700317382812,-122.89600372314453 237.0469970703125,-120.74500274658203 C247.66000366210938,-118.6510009765625 253.27099609375,-111.58200073242188 251.8040008544922,-100.7699966430664 C250.88699340820312,-94.01499938964844 152.07200622558594,181.8280029296875 145.44500732421875,190.9980010986328 C142.25399780273438,195.41299438476562 137.74099731445312,196.552001953125 132.89500427246094,197.33799743652344 C109.37300109863281,201.1529998779297 -172.47799682617188,244.1439971923828 -205.0749969482422,247.03500366210938 C-209.37899780273438,247.41700744628906 -213.22300720214844,246.53199768066406 -216.4969940185547,244.04400634765625 C-224.8509979248047,237.6959991455078 -233.0850067138672,231.2310028076172 -240.0449981689453,223.22799682617188 C-251.3070068359375,210.2779998779297 -254.41600036621094,195.7729949951172 -250.29100036621094,179.19400024414062 C-240.83299255371094,141.177001953125 -173.2239990234375,-124.12300109863281 -164.66400146484375,-152.75900268554688 C-159.54200744628906,-169.89300537109375 -148.9969940185547,-179.0489959716797 -131.22799682617188,-183.63499450683594 C-62.01100158691406,-201.4980010986328 97.05400085449219,-244.61300659179688 107.75499725341797,-246.67999267578125 C118.66300201416016,-248.78700256347656 124.08399963378906,-243.21499633789062 122.08699798583984,-232.45899963378906 C121.6500015258789,-230.1060028076172 49.03200149536133,-20.96500015258789 20.075000762939453,83.42400360107422 C11.956999778747559,112.68800354003906 17.961000442504883,107.24199676513672 -11.126999855041504,117.41200256347656 C-68.3280029296875,137.41099548339844 -125.76399993896484,156.72799682617188 -184.16799926757812,173.01100158691406 C-188.42999267578125,174.19900512695312 -192.6320037841797,175.73300170898438 -196.6719970703125,177.53399658203125 C-199.66799926757812,178.86900329589844 -202.53900146484375,181.03500366210938 -201.46499633789062,184.93600463867188 C-200.56500244140625,188.20399475097656 -197.41600036621094,188.49200439453125 -194.54299926757812,188.66700744628906 C-192.93299865722656,188.76499938964844 -191.31300354003906,188.68499755859375 -187.73199462890625,188.68499755859375z"></path><g opacity="1" transform="matrix(1,0,0,1,-75.84400177001953,-43.7130012512207)"></g><g opacity="1" transform="matrix(1,0,0,1,0,0)"></g></g></g></g></svg>