<svg xmlns="http://www.w3.org/2000/svg" xmlns:xlink="http://www.w3.org/1999/xlink" viewBox="0 0 512 512" width="512" height="512" style="width: 100%; height: 100%; transform: translate3d(0,0,0);" preserveAspectRatio="xMidYMid meet"><defs><clipPath id="__lottie_element_15656"><rect width="512" height="512" x="0" y="0"></rect></clipPath></defs><g clip-path="url(#__lottie_element_15656)"><g style="display: block;" transform="matrix(1,0,0,1,13.039993286132812,9.430007934570312)" opacity="1"><g opacity="1" transform="matrix(1,0,0,1,242.77000427246094,235.92999267578125)"><path fill="rgb(0,0,0)" fill-opacity="1" d=" M222.19000244140625,-22.360000610351562 C221.33999633789062,-47.650001525878906 214.85000610351562,-68.79000091552734 205.19000244140625,-86.36000061035156 C193.3300018310547,-107.93000030517578 180.3800048828125,-107.4000015258789 181.19000244140625,-123.36000061035156 C182.19000244140625,-143.02999877929688 242.52000427246094,-205.69000244140625 185.19000244140625,-222.36000061035156 C139.36000061035156,-235.67999267578125 161.19000244140625,-176.36000061035156 146.52000427246094,-145.69000244140625 C141.36000061035156,-134.89999389648438 95.2300033569336,-159.4499969482422 50.189998626708984,-147.36000061035156 C22.959999084472656,-140.0500030517578 -1.6699999570846558,-109.02999877929688 4.190000057220459,-106.69000244140625 C14.859999656677246,-102.44000244140625 18.780000686645508,-96.41999816894531 17.190000534057617,-91.36000061035156 C15.569999694824219,-86.22000122070312 -1.2000000476837158,-86.55000305175781 -5.809999942779541,-85.36000061035156 C-35.47999954223633,-77.69000244140625 -71.87000274658203,103.81999969482422 -155.80999755859375,135.63999938964844 C-191.0399932861328,149 -214.80999755859375,126.30999755859375 -225.80999755859375,139.63999938964844 C-242.52000427246094,159.88999938964844 -183.47999572753906,235.67999267578125 -90.80999755859375,235.63999938964844 C10.5600004196167,235.60000610351562 160.3699951171875,74.75 164.19000244140625,53.63999938964844 C167.05999755859375,37.790000915527344 160.52000427246094,-30.360000610351562 152.52000427246094,-33.689998626708984 C141.8300018310547,-38.150001525878906 116.19000244140625,-12.359999656677246 98.19000244140625,-22.360000610351562 C84.11000061035156,-30.18000030517578 91.19000244140625,-66.36000061035156 85.86000061035156,-83.02999877929688 C81.12000274658203,-97.81999969482422 61.099998474121094,-112.36000061035156 65.19000244140625,-112.36000061035156 C119.86000061035156,-112.36000061035156 105.13999938964844,-46.43000030517578 112.19000244140625,-43.36000061035156 C125.5,-37.560001373291016 150.22999572753906,-77.73999786376953 163.85000610351562,-70 C187.86000061035156,-56.36000061035156 175.19000244140625,14.3100004196167 186.52000427246094,18.969999313354492 C196.6999969482422,23.159000396728516 223.1699981689453,6.739999771118164 222.19000244140625,-22.360000610351562z M36.189998626708984,6.96999979019165 C17.59000015258789,40.9900016784668 -11.229999542236328,85.8499984741211 -36.04999923706055,108.40899658203125 C-58.04999923706055,128.40899658203125 -79.02999877929688,110.16999816894531 -65.69000244140625,88.16999816894531 C-45.689998626708984,55.16999816894531 -23.09000015258789,27.448999404907227 2.859999895095825,-12.029999732971191 C13.59000015258789,-28.360000610351562 47.86000061035156,-14.359999656677246 36.189998626708984,6.96999979019165z"></path></g></g></g></svg>