<svg xmlns="http://www.w3.org/2000/svg" xmlns:xlink="http://www.w3.org/1999/xlink" viewBox="0 0 512 512" width="512" height="512" style="width: 100%; height: 100%; transform: translate3d(0,0,0);" preserveAspectRatio="xMidYMid meet"><defs><clipPath id="__lottie_element_51935"><rect width="512" height="512" x="0" y="0"></rect></clipPath></defs><g clip-path="url(#__lottie_element_51935)"><g style="display: block;" transform="matrix(2.962939977645874,0,0,2.962939977645874,2.8374481201171875,2.8374481201171875)" opacity="1"><g opacity="1" transform="matrix(1,0,0,1,85.41400146484375,85.36100006103516)"><path fill="rgb(0,0,0)" fill-opacity="1" d=" M80.5780029296875,-18.270999908447266 C81.79900360107422,-21.033000946044922 85.52300262451172,-30.531999588012695 82.29199981689453,-40.856998443603516 C81.48200225830078,-43.44599914550781 79.36199951171875,-50.22100067138672 76.42400360107422,-50.25 C70.73200225830078,-50.305999755859375 73.29499816894531,-24.933000564575195 57.9739990234375,-11.40999984741211 C51.617000579833984,-5.798999786376953 41.88100051879883,-1.9639999866485596 35.96099853515625,0.36800000071525574 C35.845001220703125,0.4129999876022339 35.736000061035156,0.45399999618530273 35.62099838256836,0.49900001287460327 C41.11399841308594,-2.8519999980926514 49.505001068115234,-8.847999572753906 56.17100143432617,-20.010000228881836 C59.819000244140625,-26.1200008392334 68.58000183105469,-40.792999267578125 64.76499938964844,-57.999000549316406 C61.875,-71.03500366210938 52.512001037597656,-82.15899658203125 48.965999603271484,-80.5770034790039 C44.180999755859375,-78.44200134277344 55.18299865722656,-55.49599838256836 45.257999420166016,-31.75200080871582 C43.02000045776367,-26.39699935913086 39.33100128173828,-17.57200050354004 31.36199951171875,-10.758999824523926 C30.80699920654297,-10.28499984741211 30.22800064086914,-9.817000389099121 29.607999801635742,-9.329000473022461 C29.957000732421875,-20.62299919128418 20.05299949645996,-27.753000259399414 18.393999099731445,-28.89699935913086 C7.874000072479248,-36.1510009765625 -7.252999782562256,-34.59700012207031 -16.457000732421875,-25.77199935913086 C-17.533000946044922,-24.739999771118164 -24.25200080871582,-18.291000366210938 -24.768999099731445,-9.996999740600586 C-25.01300048828125,-10.178000450134277 -25.253000259399414,-10.357999801635742 -25.48900032043457,-10.538999557495117 C-34.354000091552734,-17.351999282836914 -38.45800018310547,-26.177000045776367 -40.948001861572266,-31.531999588012695 C-51.98899841308594,-55.275001525878906 -39.75,-78.22100067138672 -45.073001861572266,-80.35600280761719 C-49.016998291015625,-81.93800354003906 -59.433998107910156,-70.81500244140625 -62.64899826049805,-57.77899932861328 C-66.89299774169922,-40.573001861572266 -57.145999908447266,-25.899999618530273 -53.0880012512207,-19.790000915527344 C-45.67300033569336,-8.628000259399414 -36.33700180053711,-2.63100004196167 -30.22599983215332,0.718999981880188 C-30.354000091552734,0.6740000247955322 -30.47599983215332,0.6340000033378601 -30.604999542236328,0.5879999995231628 C-37.191001892089844,-1.74399995803833 -48.02199935913086,-5.578999996185303 -55.09400177001953,-11.1899995803833 C-72.13899993896484,-24.71299934387207 -69.28700256347656,-50.084999084472656 -75.62000274658203,-50.02899932861328 C-78.88800048828125,-50 -81.24700164794922,-43.22600173950195 -82.14800262451172,-40.637001037597656 C-85.74199676513672,-30.312000274658203 -81.5989990234375,-20.812999725341797 -80.23999786376953,-18.049999237060547 C-73.9530029296875,-5.269000053405762 -60.25,2.049999952316284 -50.111000061035156,5.438000202178955 C-51.53900146484375,5.764999866485596 -52.957000732421875,6.1620001792907715 -54.3380012512207,6.63700008392334 C-70.60299682617188,12.230999946594238 -79.1989974975586,29.423999786376953 -76.86499786376953,44.479000091552734 C-75.40499877929688,53.89500045776367 -69.45500183105469,63.07099914550781 -66.1729965209961,62.4010009765625 C-62.400001525878906,61.630001068115234 -66.39399719238281,48.70899963378906 -59.76100158691406,35.61199951171875 C-54.30500030517578,24.839000701904297 -44.47800064086914,19.511999130249023 -37.15700149536133,15.833000183105469 C-37.332000732421875,16.292999267578125 -37.4900016784668,16.763999938964844 -37.638999938964844,17.242000579833984 C-39.63999938964844,19.06599998474121 -41.611000061035156,21.124000549316406 -43.38199996948242,23.378999710083008 C-50.89400100708008,32.94200134277344 -52.52000045776367,42.875 -53.775001525878906,50.53900146484375 C-55.38100051879883,60.35100173950195 -55.66899871826172,69.22000122070312 -50.87900161743164,75.1719970703125 C-46.470001220703125,80.6520004272461 -38.99700164794922,82.15899658203125 -36.47600173950195,79.66699981689453 C-34.27000045776367,77.48699951171875 -38.04199981689453,72.88899993896484 -39.57400131225586,64.05899810791016 C-41.27799987792969,54.23500061035156 -39.082000732421875,45.667999267578125 -36.50600051879883,38.24100112915039 C-30.88599967956543,54.268001556396484 -15.75,69.3030014038086 1.4919999837875366,70.12999725341797 C19.111000061035156,70.9749984741211 35.356998443603516,56.814998626708984 42.159000396728516,41.040000915527344 C44.040000915527344,47.74599838256836 45.35200119018555,55.31700134277344 44.02299880981445,63.8390007019043 C42.645999908447266,72.66799926757812 39.25600051879883,77.26699829101562 41.237998962402344,79.4469985961914 C43.50400161743164,81.93900299072266 50.22200012207031,80.43099975585938 54.185001373291016,74.9520034790039 C58.4900016784668,68.9990005493164 58.23099899291992,60.130001068115234 56.78799819946289,50.319000244140625 C55.65999984741211,42.65399932861328 54.198001861572266,32.72200012207031 47.44599914550781,23.159000396728516 C46.61199951171875,21.97800064086914 45.729000091552734,20.85099983215332 44.819000244140625,19.7810001373291 C44.81399917602539,19.757999420166016 44.81100082397461,19.735000610351562 44.805999755859375,19.71299934387207 C44.56100082397461,18.697999954223633 44.24800109863281,17.7189998626709 43.88399887084961,16.770000457763672 C50.15800094604492,20.41200065612793 57.75400161743164,25.694000244140625 62.16899871826172,35.39099884033203 C68.13099670410156,48.487998962402344 64.54100036621094,61.40999984741211 67.93299865722656,62.180999755859375 C70.88300323486328,62.85100173950195 76.23100280761719,53.67399978637695 77.54299926757812,44.25899887084961 C79.64199829101562,29.20400047302246 71.91500091552734,12.010000228881836 57.29399871826172,6.416999816894531 C56.053001403808594,5.941999912261963 54.77799987792969,5.545000076293945 53.494998931884766,5.2179999351501465 C62.608001708984375,1.8300000429153442 74.9260025024414,-5.488999843597412 80.5780029296875,-18.270999908447266z M-22.649999618530273,29.06599998474121 C-21.6560001373291,24.110000610351562 -15.204000473022461,17.965999603271484 -11.762999534606934,21.14900016784668 C-9.508999824523926,23.233999252319336 -11.053000450134277,26.43899917602539 -10.451000213623047,32.89099884033203 C-9.359999656677246,44.577999114990234 -5.77400016784668,50.231998443603516 -5.77400016784668,50.231998443603516 C-5.77400016784668,50.231998443603516 -25.43199920654297,42.944000244140625 -22.649999618530273,29.06599998474121z"></path></g></g></g></svg>