<svg xmlns="http://www.w3.org/2000/svg" xmlns:xlink="http://www.w3.org/1999/xlink" viewBox="0 0 512 512" width="512" height="512" style="width: 100%; height: 100%; transform: translate3d(0,0,0);" preserveAspectRatio="xMidYMid meet"><defs><clipPath id="__lottie_element_52035"><rect width="512" height="512" x="0" y="0"></rect></clipPath></defs><g clip-path="url(#__lottie_element_52035)"><g style="display: block;" transform="matrix(1,0,0,1,9.710006713867188,37.22999572753906)" opacity="1"><g opacity="1" transform="matrix(1,0,0,1,245.83999633789062,232.98500061035156)"><path fill="rgb(0,0,0)" fill-opacity="1" d=" M250.4499969482422,34.07400131225586 C250.4499969482422,52.99300003051758 235.625,68.32099914550781 217.3260040283203,68.32099914550781 C208.3990020751953,68.32099914550781 200.3000030517578,64.67900085449219 194.3509979248047,58.74700164794922 C179.00100708007812,65.32599639892578 158.14700317382812,68.48799896240234 139.29200744628906,67.95600128173828 C144.45199584960938,119.18000030517578 121.3270034790039,131.03199768066406 106.84400177001953,138.68299865722656 C99.86599731445312,142.3699951171875 84.46499633789062,128.57699584960938 85.63600158691406,116.75700378417969 C87.75599670410156,95.36299896240234 98.33200073242188,85.88200378417969 94.7249984741211,65.08399963378906 C91.29000091552734,45.277000427246094 68.48600006103516,27.951000213623047 64.42900085449219,33.76100158691406 C50.79499816894531,53.2859992980957 83.10299682617188,85.90599822998047 64.42900085449219,107.36000061035156 C57.07699966430664,115.80699920654297 43.40399932861328,119.25900268554688 34.13199996948242,115.19100189208984 C21.375999450683594,109.59500122070312 23.7189998626709,102.06700134277344 23.527999877929688,102.1500015258789 C23.11400032043457,102.30799865722656 23.538000106811523,148.0749969482422 47.76499938964844,198.19700622558594 C56.98500061035156,217.2729949951172 25.042999267578125,235.78399658203125 8.378999710083008,221.69000244140625 C-10.053000450134277,206.1009979248047 -17.41200065612793,155.90699768066406 -12.829000473022461,115.19100189208984 C-12.0600004196167,108.36299896240234 -24.13599967956543,119.13200378417969 -34.0369987487793,115.19100189208984 C-46.680999755859375,110.15799713134766 -41.612998962402344,97.95800018310547 -53.72999954223633,99.52899932861328 C-59.375,100.26100158691406 -55.3390007019043,119.71700286865234 -61.30400085449219,137.11700439453125 C-65.08000183105469,148.1320037841797 -91.75900268554688,139.5290069580078 -102.19400024414062,126.15399932861328 C-109.09300231933594,117.31099700927734 -109.68699645996094,103.74800109863281 -107.94100189208984,88.83799743652344 C-135.16799926757812,97.29499816894531 -166.4239959716797,99.63400268554688 -181.3300018310547,91.8550033569336 C-187.36900329589844,98.4540023803711 -195.91299438476562,102.56900024414062 -205.39599609375,102.56900024414062 C-223.68499755859375,102.56900024414062 -238.52099609375,87.23999786376953 -238.52099609375,68.32099914550781 C-238.52099609375,49.4119987487793 -223.68499755859375,34.07400131225586 -205.39599609375,34.07400131225586 C-191.06500244140625,34.07400131225586 -178.8459930419922,43.49300003051758 -174.24099731445312,56.66999816894531 C-148.48899841308594,56.345001220703125 -127.4219970703125,52.54499816894531 -108.5979995727539,45.20500183105469 C-144.9739990234375,41.90599822998047 -203.75,3.1059999465942383 -204.66900634765625,-21.347000122070312 C-206.06300354003906,-21.16900062561035 -207.48699951171875,-21.086000442504883 -208.93099975585938,-21.086000442504883 C-229.1790008544922,-21.086000442504883 -245.58999633789062,-38.053001403808594 -245.58999633789062,-58.98699951171875 C-245.58999633789062,-79.9209976196289 -229.1790008544922,-96.88800048828125 -208.93099975585938,-96.88800048828125 C-188.68299865722656,-96.88800048828125 -172.27200317382812,-79.9209976196289 -172.27200317382812,-58.98699951171875 C-172.27200317382812,-51.52199935913086 -174.36099243164062,-44.55699920654297 -177.9669952392578,-38.68899917602539 C-168.46400451660156,-29.93899917602539 -159.28399658203125,-22.57900047302246 -150.21499633789062,-16.417999267578125 C-166.20199584960938,-51.69900131225586 -172.7760009765625,-92.40899658203125 -166.12100219726562,-111.25499725341797 C-174.2100067138672,-117.4990005493164 -179.4510040283203,-127.47000122070312 -179.4510040283203,-138.71499633789062 C-179.4510040283203,-157.62399291992188 -164.61599731445312,-172.96099853515625 -146.32699584960938,-172.96099853515625 C-128.0279998779297,-172.96099853515625 -113.2030029296875,-157.62399291992188 -113.2030029296875,-138.71499633789062 C-113.2030029296875,-125.24600219726562 -120.71700286865234,-113.59400177001953 -131.6529998779297,-108.00800323486328 C-129.51300048828125,-76.23600006103516 -125.53299713134766,-45.87300109863281 -109.58699798583984,-20.740999221801758 C-114.7979965209961,-39.50400161743164 -118.31300354003906,-58.56999969482422 -111.28299713134766,-68.03900146484375 C-107.74800109863281,-72.80000305175781 -101.2760009765625,-76.14199829101562 -94.14600372314453,-78.91899871826172 C-104.75,-106.81800079345703 -102.94200134277344,-156.9040069580078 -91.61000061035156,-182.5050048828125 C-95.4280014038086,-188.4459991455078 -97.64900207519531,-195.5760040283203 -97.64900207519531,-203.24000549316406 C-97.64900207519531,-223.9969940185547 -81.38099670410156,-240.8280029296875 -61.30400085449219,-240.8280029296875 C-41.21699905395508,-240.8280029296875 -24.947999954223633,-223.9969940185547 -24.947999954223633,-203.24000549316406 C-24.947999954223633,-184.08099365234375 -38.80400085449219,-168.2729949951172 -56.7400016784668,-165.94500732421875 C-61.43600082397461,-141.9720001220703 -62.082000732421875,-121.23600006103516 -59.15299987792969,-101.53399658203125 C-56.69900131225586,-108.00700378417969 -53,-114.5719985961914 -35.551998138427734,-116.58000183105469 C-18.40399932861328,-118.5530014038086 -10.206000328063965,-64.63899993896484 -2.2249999046325684,-69.6050033569336 C9.470000267028809,-76.88200378417969 8.734000205993652,-94.30799865722656 14.439000129699707,-113.96900177001953 C18.983999252319336,-129.63099670410156 45.007999420166016,-111.37000274658203 45.74599838256836,-101.45099639892578 C50.29100036621094,-40.37099838256836 38.66600036621094,-33.58700180053711 28.07200050354004,-6.959000110626221 C25.214000701904297,0.2240000069141388 40.19300079345703,11.836000442504883 53.82500076293945,-8.524999618530273 C69.35700225830078,-31.725000381469727 70.48799896240234,-50.81100082397461 72.00299835205078,-80.56800079345703 C72.02200317382812,-80.88099670410156 72.05400085449219,-81.19499969482422 72.10299682617188,-81.49800109863281 C73.55799865722656,-119.9000015258789 67.20500183105469,-148.62399291992188 53.27899932861328,-175.59300231933594 C33.513999938964844,-178.61000061035156 18.47800064086914,-194.04100036621094 18.47800064086914,-212.63699340820312 C18.47800064086914,-233.3939971923828 37.24100112915039,-250.21499633789062 60.388999938964844,-250.21499633789062 C83.53600311279297,-250.21499633789062 102.30000305175781,-233.3939971923828 102.30000305175781,-212.63699340820312 C102.30000305175781,-202.38400268554688 97.73400115966797,-193.0919952392578 90.31199645996094,-186.3260040283203 C105.47000122070312,-165.86199951171875 113.99400329589844,-122.47899627685547 111.48899841308594,-92.40899658203125 C116.0739974975586,-91.0199966430664 119.49500274658203,-88.66500091552734 120.46700286865234,-85.26699829101562 C120.80999755859375,-84.06600189208984 121.15499877929688,-82.88600158691406 121.46700286865234,-81.72699737548828 C126.60700225830078,-90.76899719238281 130.70799255371094,-99.927001953125 133.9290008544922,-109.40699768066406 C124.35600280761719,-115.41100311279297 117.9530029296875,-126.29000091552734 117.9530029296875,-138.71499633789062 C117.9530029296875,-157.62399291992188 132.78799438476562,-172.96099853515625 151.0780029296875,-172.96099853515625 C169.3769989013672,-172.96099853515625 184.2010040283203,-157.62399291992188 184.2010040283203,-138.71499633789062 C184.2010040283203,-128.50399780273438 179.88900756835938,-119.34700012207031 173.04299926757812,-113.08200073242188 C174.23399353027344,-88.47200012207031 152.3300018310547,-47.90800094604492 130.11199951171875,-25.219999313354492 C130.1009979248047,-21.56599998474121 129.9600067138672,-18.160999298095703 129.76800537109375,-14.956999778747559 C148.09800720214844,-21.586999893188477 163.29600524902344,-30.347000122070312 176.94000244140625,-41.60200119018555 C175.05299377441406,-46.03900146484375 174.0019989013672,-50.957000732421875 174.0019989013672,-56.1150016784668 C174.0019989013672,-76.03700256347656 189.625,-92.18900299072266 208.8939971923828,-92.18900299072266 C228.16299438476562,-92.18900299072266 243.78500366210938,-76.03700256347656 243.78500366210938,-56.1150016784668 C243.78500366210938,-36.19300079345703 228.16299438476562,-20.04199981689453 208.8939971923828,-20.04199981689453 C208.49899291992188,-20.04199981689453 208.11599731445312,-20.05299949645996 207.73199462890625,-20.062999725341797 C198.0070037841797,-1.2170000076293945 165.26499938964844,17.827999114990234 136.14999389648438,26.441999435424805 C134.41400146484375,26.391000747680664 132.656005859375,26.31599998474121 130.8699951171875,26.21299934387207 C130.92999267578125,26.46299934387207 131.00100708007812,26.722999572753906 131.0709991455078,26.974000930786133 C131.15199279785156,27.2450008392334 131.2220001220703,27.518999099731445 131.29400634765625,27.788999557495117 C132.89999389648438,27.371000289916992 134.51400756835938,26.922000885009766 136.14999389648438,26.441999435424805 C155.36900329589844,26.94300079345703 172.10299682617188,24.06100082397461 188.0489959716797,18.038000106811523 C193.61399841308594,7.210999965667725 204.64300537109375,-0.1720000058412552 217.3260040283203,-0.1720000058412552 C235.625,-0.1720000058412552 250.4499969482422,15.166000366210938 250.4499969482422,34.07400131225586z"></path></g></g></g></svg>