<svg xmlns="http://www.w3.org/2000/svg" xmlns:xlink="http://www.w3.org/1999/xlink" viewBox="0 0 512 512" width="512" height="512" style="width: 100%; height: 100%; transform: translate3d(0,0,0);" preserveAspectRatio="xMidYMid meet"><defs><clipPath id="__lottie_element_53090"><rect width="512" height="512" x="0" y="0"></rect></clipPath></defs><g clip-path="url(#__lottie_element_53090)"><g style="display: block;" transform="matrix(1,0,0,1,0,0)" opacity="1"><g opacity="1" transform="matrix(1,0,0,1,252.30999755859375,248.5)"><g opacity="1" transform="matrix(1,0,0,1,252.30999755859375,248.5)"><path fill="rgb(0,0,0)" fill-opacity="1" d=" M-285.33099365234375,-199.86599731445312 C-296.2929992675781,-196.24400329589844 -311.98199462890625,-163.90699768066406 -299.5660095214844,-166.19000244140625 C-276.1210021972656,-170.5 -247.62100219726562,-168.99899291992188 -222.906005859375,-153.08200073242188 C-213.0330047607422,-146.7239990234375 -200.94900512695312,-182.7050018310547 -215.85400390625,-190.13999938964844 C-236.6199951171875,-200.49899291992188 -250.1199951171875,-211.5 -285.33099365234375,-199.86599731445312z"></path></g><path fill="rgb(0,0,0)" fill-opacity="1" d=" M-59.88999938964844,-25.549999237060547 C-66.36399841308594,-35.10900115966797 -97.22699737548828,-32.76900100708008 -92.59300231933594,-21.025999069213867 C-83.30999755859375,2.5 -80.30999755859375,38.5 -81.08499908447266,55.08000183105469 C-81.63300323486328,66.80999755859375 -48.59000015258789,64.56300354003906 -47,47.983001708984375 C-43.31100082397461,9.5 -46.310001373291016,-5.499000072479248 -59.88999938964844,-25.549999237060547z"></path></g><g opacity="1" transform="matrix(1,0,0,1,252.30999755859375,248.5)"><path fill="rgb(0,0,0)" fill-opacity="1" d=" M235.6510009765625,14.180000305175781 C170.69000244140625,-4.499000072479248 106.69000244140625,-70.5 203.01699829101562,-176.5679931640625 C215.9499969482422,-190.8090057373047 191.2239990234375,-211.52499389648438 175.46099853515625,-197.29400634765625 C103.69000244140625,-132.5 -12.310999870300293,-112.5 -89.65699768066406,-225.69400024414062 C-96.28900146484375,-235.3990020751953 -125.51300048828125,-226.05599975585938 -118.85299682617188,-214.6510009765625 C-84.30999755859375,-155.5 -115.30999755859375,-56.5 -216.95199584960938,-70.86499786376953 C-229.9149932861328,-72.6969985961914 -239.13999938964844,-44.54100036621094 -229.9199981689453,-41.2760009765625 C-154.30999755859375,-14.5 -121.31099700927734,80.5009994506836 -190.81399536132812,152.19200134277344 C-204.53399658203125,166.343994140625 -191.89100646972656,198.6199951171875 -168.5989990234375,182.26800537109375 C-39.31100082397461,91.5 48.689998626708984,169.5 67.5270004272461,250.00900268554688 C69.86599731445312,260.0060119628906 94.28199768066406,255.06300354003906 93.74500274658203,242.48699951171875 C89.69000244140625,147.50100708007812 135.69000244140625,47.5 234.0800018310547,47.16899871826172 C250.36099243164062,47.11399841308594 250.80599975585938,18.538000106811523 235.6510009765625,14.180000305175781z M-113.9280014038086,72.48699951171875 C-111.31099700927734,42.5 -114.30999755859375,4.5 -134.38699340820312,-18.187000274658203 C-137.91099548339844,-22.16900062561035 -13.989999771118164,-19.358999252319336 -13.885000228881836,-6.289999961853027 C-13.8100004196167,3 -114.41000366210938,78.01000213623047 -113.9280014038086,72.48699951171875z M29.743000030517578,136.50900268554688 C-2.309999942779541,103.5 -32.77199935913086,103.6719970703125 -62.19300079345703,104.83200073242188 C-67.52100372314453,105.04199981689453 5.190000057220459,18.5 12.321999549865723,18.398000717163086 C29.673999786376953,18.149999618530273 33.96500015258789,140.85699462890625 29.743000030517578,136.50900268554688z M-124.14099884033203,-57.75299835205078 C-95.46600341796875,-77.9800033569336 -80.85299682617188,-95.06800079345703 -79.63999938964844,-120.61699676513672 C-79.36799621582031,-126.35399627685547 -24.34600067138672,-62.845001220703125 -37.27199935913086,-51.73500061035156 C-47.165000915527344,-43.23099899291992 -128.8509979248047,-54.430999755859375 -124.14099884033203,-57.75299835205078z M-15.496999740600586,-118.89900207519531 C7.816999912261963,-101.4540023803711 45.624000549316406,-99.73500061035156 67.78099822998047,-107.88500213623047 C72.82499694824219,-109.73999786376953 49.16699981689453,-68.5 30.42799949645996,-71.68000030517578 C-2.6510000228881836,-77.29399871826172 -20.309999465942383,-122.5 -15.496999740600586,-118.89900207519531z M119.27899932861328,-80.81600189208984 C117.6510009765625,-50.270999908447266 128.17100524902344,-23.52199935913086 146.47999572753906,-5.061999797821045 C150.78199768066406,-0.7239999771118164 67.30999755859375,10.317000389099121 46.84299850463867,-19.527999877929688 C40.689998626708984,-28.5 119.60700225830078,-86.97100067138672 119.27899932861328,-80.81600189208984z M138.72799682617188,38.04499816894531 C118.41400146484375,51.54399871826172 84.46900177001953,92.05599975585938 77.70500183105469,113.37799835205078 C75.91300201416016,119.02799987792969 61.1510009765625,69.43800354003906 70.71299743652344,55.86199951171875 C90.69000244140625,27.5 144.53599548339844,34.18600082397461 138.72799682617188,38.04499816894531z"></path></g></g></g></svg>