<svg xmlns="http://www.w3.org/2000/svg" xmlns:xlink="http://www.w3.org/1999/xlink" viewBox="0 0 512 512" width="512" height="512" style="width: 100%; height: 100%; transform: translate3d(0,0,0);" preserveAspectRatio="xMidYMid meet"><defs><clipPath id="__lottie_element_51350"><rect width="512" height="512" x="0" y="0"></rect></clipPath></defs><g clip-path="url(#__lottie_element_51350)"><g style="display: block;" transform="matrix(1,0,0,1,-8.00701904296875,-47.759979248046875)" opacity="1"><g opacity="1" transform="matrix(1,0,0,1,0,0)"><g opacity="1" transform="matrix(1,0,0,1,123.60399627685547,164.90899658203125)"><path fill="rgb(0,0,0)" fill-opacity="1" d=" M84.70600128173828,60.12699890136719 C66.07099914550781,69.8239974975586 54.762001037597656,84.36599731445312 47.624000549316406,94.08000183105469 C32.08399963378906,95.81099700927734 13.404999732971191,93.28199768066406 -2.0399999618530273,89.51300048828125 C-71.15299987792969,72.64800262451172 -84.70600128173828,10.906999588012695 -81.90899658203125,-21.937999725341797 C-79.3030014038086,-52.534000396728516 -66.58899688720703,-76.46600341796875 -41.69499969482422,-94.12799835205078 C-40.525001525878906,-94.95899963378906 -37.94200134277344,-95.81099700927734 -36.354000091552734,-94.36399841308594 C-35.28799819946289,-93.39199829101562 -34.64699935913086,-91.80400085449219 -35.5359992980957,-90.322998046875 C-42.805999755859375,-78.21499633789062 -48.00199890136719,-65.22599792480469 -51.02399826049805,-51.518001556396484 C-56.66299819946289,-25.94099998474121 -55.00600051879883,-1.2289999723434448 -40.25400161743164,21.402999877929688 C-26.40999984741211,42.64099884033203 -6.566999912261963,54.78499984741211 18.07200050354004,59.65399932861328 C46.68299865722656,65.30599975585938 60.61199951171875,56.926998138427734 84.70600128173828,60.12699890136719z"></path></g><g opacity="1" transform="matrix(1,0,0,1,112.20999908447266,308.0260009765625)"><path fill="rgb(0,0,0)" fill-opacity="1" d=" M-49.46500015258789,-8.053999900817871 C-33.34400177001953,-18.50200080871582 -18.333999633789062,-24.15999984741211 -0.8270000219345093,-23.788000106811523 C17.4689998626709,-23.398000717163086 28.570999145507812,-23.222999572753906 49.46500015258789,-23.410999298095703 C42.68899917602539,-7.2230000495910645 40.525001525878906,4.800000190734863 36.604000091552734,17.875 C35.87799835205078,20.29599952697754 31.788999557495117,23.152999877929688 29.117000579833984,23.297000885009766 C17.187000274658203,23.94099998474121 5.178999900817871,24.15999984741211 -6.739999771118164,23.482999801635742 C-11.083000183105469,23.236000061035156 -15.6899995803833,20.698999404907227 -19.430999755859375,18.124000549316406 C-29.805999755859375,10.984000205993652 -39.63800048828125,3.1080000400543213 -49.46500015258789,-8.053999900817871z"></path></g><g opacity="1" transform="matrix(1,0,0,1,400.0639953613281,164.90899658203125)"><path fill="rgb(0,0,0)" fill-opacity="1" d=" M-84.70500183105469,60.12699890136719 C-66.06999969482422,69.8239974975586 -54.76100158691406,84.36599731445312 -47.62300109863281,94.08000183105469 C-32.08300018310547,95.81099700927734 -13.404000282287598,93.28199768066406 2.0409998893737793,89.51300048828125 C71.15399932861328,72.64800262451172 84.70600128173828,10.906999588012695 81.90899658203125,-21.937999725341797 C79.3030014038086,-52.534000396728516 66.58899688720703,-76.46600341796875 41.69499969482422,-94.12799835205078 C40.525001525878906,-94.95899963378906 37.94200134277344,-95.81099700927734 36.354000091552734,-94.36399841308594 C35.28799819946289,-93.39199829101562 34.64799880981445,-91.80400085449219 35.5369987487793,-90.322998046875 C42.80699920654297,-78.21499633789062 48.00199890136719,-65.22599792480469 51.02399826049805,-51.518001556396484 C56.66299819946289,-25.94099998474121 55.00600051879883,-1.2289999723434448 40.25400161743164,21.402999877929688 C26.40999984741211,42.64099884033203 6.567999839782715,54.78499984741211 -18.070999145507812,59.65399932861328 C-46.68199920654297,65.30599975585938 -60.611000061035156,56.926998138427734 -84.70500183105469,60.12699890136719z"></path></g><g opacity="1" transform="matrix(1,0,0,1,262.04901123046875,133.7790069580078)"><path stroke-linecap="butt" stroke-linejoin="miter" fill-opacity="0" stroke-miterlimit="10" stroke="rgb(0,0,0)" stroke-opacity="1" stroke-width="34" d=" M48.77899932861328,0 C48.77899932861328,26.940000534057617 26.940000534057617,48.77899932861328 0,48.77899932861328 C-26.940000534057617,48.77899932861328 -48.77899932861328,26.940000534057617 -48.77899932861328,0 C-48.77899932861328,-26.940000534057617 -26.940000534057617,-48.77899932861328 0,-48.77899932861328 C26.940000534057617,-48.77899932861328 48.77899932861328,-26.940000534057617 48.77899932861328,0z"></path></g><g opacity="1" transform="matrix(1,0,0,1,261.8399963378906,361.0799865722656)"><path fill="rgb(0,0,0)" fill-opacity="1" d=" M88.67400360107422,-57.7239990234375 C82.2249984741211,-92.4219970703125 55.680999755859375,-122.19499969482422 22.5,-132.88600158691406 C20.235000610351562,-133.6529998779297 9.17199993133545,-136.0540008544922 0,-136.04400634765625 C-9.836000442504883,-136.03399658203125 -19.81800079345703,-133.8350067138672 -22.5,-132.88600158691406 C-55.68000030517578,-122.19499969482422 -82.677001953125,-92.50299835205078 -88.67400360107422,-57.7239990234375 C-90.41999816894531,-47.59700012207031 -91.83200073242188,-30.319000244140625 -81.33200073242188,-18.319000244140625 C-65.79100036621094,-0.5580000281333923 -46.426998138427734,-5.144000053405762 -43.89799880981445,11.027000427246094 C-41.2140007019043,28.18600082397461 -40.89500045776367,28.03700065612793 -40.9010009765625,45.44300079345703 C-40.90800094604492,64.06700134277344 -39.625,82.68900299072266 -39.189998626708984,101.31800079345703 C-39.03900146484375,107.79199981689453 -36.57099914550781,112.8759994506836 -31.988000869750977,117.13999938964844 C-28.08799934387207,120.76799774169922 -24.2450008392334,124.47100067138672 -20.163000106811523,127.88600158691406 C-16.700000762939453,130.781005859375 -11.579000473022461,133.58299255371094 -6.285999774932861,135.01800537109375 C-4.340000152587891,135.75100708007812 -2.2119998931884766,136.0540008544922 0,135.9969940185547 C2.2119998931884766,136.0540008544922 4.340000152587891,135.75100708007812 6.285999774932861,135.0189971923828 C11.579000473022461,133.58399963378906 16.701000213623047,130.781005859375 20.163000106811523,127.88600158691406 C24.2450008392334,124.47100067138672 28.08799934387207,120.76799774169922 31.988000869750977,117.13999938964844 C36.57099914550781,112.8759994506836 39.03900146484375,107.79199981689453 39.189998626708984,101.31800079345703 C39.625999450683594,82.68900299072266 40.90800094604492,64.06700134277344 40.9010009765625,45.44300079345703 C40.89500045776367,28.03700065612793 41.72999954223633,18.003000259399414 45.39799880981445,1.0269999504089355 C47.417999267578125,-8.319000244140625 61.167999267578125,-4.318999767303467 75.83300018310547,-13.319000244140625 C78.10099792480469,-14.711000442504883 94.41799926757812,-26.819000244140625 88.67400360107422,-57.7239990234375z"></path></g><g opacity="1" transform="matrix(1,0,0,1,262.04901123046875,449.9549865722656)"><path fill="rgb(0,0,0)" fill-opacity="1" d=" M102.86900329589844,-97.93800354003906 C100.89199829101562,-93.71600341796875 98.35099792480469,-88.8949966430664 95.71600341796875,-85.71600341796875 C87.5999984741211,-75.927001953125 80.93599700927734,-69.7300033569336 69.31199645996094,-63.814998626708984 C64.03099822998047,-61.12699890136719 62.770999908447266,-56.00199890136719 62.784000396728516,-50.22800064086914 C62.821998596191406,-34.25299835205078 62.70399856567383,-18.270999908447266 62.268001556396484,-2.302999973297119 C62.08599853515625,4.326000213623047 61.301998138427734,10.991000175476074 60.172000885009766,17.533000946044922 C55.51300048828125,44.50899887084961 15.345999717712402,69.86699676513672 2.069000005722046,70.23699951171875 C1.4160000085830688,70.25499725341797 0.7160000205039978,70.31600189208984 0,70.39099884033203 C-0.7170000076293945,70.31600189208984 -1.4170000553131104,70.25499725341797 -2.069000005722046,70.23699951171875 C-15.347000122070312,69.86699676513672 -55.51300048828125,44.50899887084961 -60.172000885009766,17.533000946044922 C-61.301998138427734,10.991000175476074 -62.08700180053711,4.326000213623047 -62.268001556396484,-2.302999973297119 C-62.70399856567383,-18.270999908447266 -62.821998596191406,-34.25299835205078 -62.78499984741211,-50.22800064086914 C-62.770999908447266,-56.00199890136719 -64.03099822998047,-61.12699890136719 -69.31199645996094,-63.814998626708984 C-80.93599700927734,-69.7300033569336 -87.60099792480469,-75.927001953125 -95.71600341796875,-85.71600341796875 C-98.35099792480469,-88.8949966430664 -100.89299774169922,-93.71600341796875 -102.86900329589844,-97.93800354003906 C-149.54200744628906,69.30599975585938 -146.04200744628906,104.80599975585938 1,105.77400207519531 C149.45799255371094,104.30599975585938 141.45799255371094,51.305999755859375 102.86900329589844,-97.93800354003906z"></path></g><g opacity="1" transform="matrix(1,0,0,1,412.2099914550781,308.0260009765625)"><path fill="rgb(0,0,0)" fill-opacity="1" d=" M49.46500015258789,-8.053999900817871 C33.34400177001953,-18.50200080871582 18.334999084472656,-24.15999984741211 0.828000009059906,-23.788000106811523 C-17.468000411987305,-23.398000717163086 -28.56999969482422,-23.222999572753906 -49.4640007019043,-23.410999298095703 C-42.6879997253418,-7.2230000495910645 -40.52399826049805,4.800000190734863 -36.60300064086914,17.875 C-35.87699890136719,20.29599952697754 -31.788000106811523,23.152999877929688 -29.115999221801758,23.297000885009766 C-17.18600082397461,23.94099998474121 -5.178999900817871,24.15999984741211 6.739999771118164,23.482999801635742 C11.083000183105469,23.236000061035156 15.6899995803833,20.698999404907227 19.430999755859375,18.124000549316406 C29.805999755859375,10.984000205993652 39.63800048828125,3.1080000400543213 49.46500015258789,-8.053999900817871z"></path></g></g></g></g></svg>