<svg xmlns="http://www.w3.org/2000/svg" xmlns:xlink="http://www.w3.org/1999/xlink" viewBox="0 0 512 512" width="512" height="512" style="width: 100%; height: 100%; transform: translate3d(0,0,0);" preserveAspectRatio="xMidYMid meet"><defs><clipPath id="__lottie_element_53584"><rect width="512" height="512" x="0" y="0"></rect></clipPath></defs><g clip-path="url(#__lottie_element_53584)"><g style="display: block;" transform="matrix(1,0,0,1,-577.5239868164062,-5.4530029296875)" opacity="1"><g opacity="1" transform="matrix(1,0,0,1,752.22802734375,463.2460021972656)"><path fill="rgb(0,0,0)" fill-opacity="1" d=" M-12.354999542236328,-30.64699935913086 C-17.39699935913086,-30.365999221801758 -22.458999633789062,-30.222999572753906 -27.402999877929688,-30.222999572753906 C-28.500999450683594,-30.222999572753906 -29.586000442504883,-30.256000518798828 -30.679000854492188,-30.270000457763672 C-30.243999481201172,-25.55500030517578 -29.759000778198242,-20.972000122070312 -29.222000122070312,-16.577999114990234 C-25.527000427246094,13.631999969482422 -20.80900001525879,31.976999282836914 -7.625999927520752,36.354000091552734 C-2.2049999237060547,38.154998779296875 3.38100004196167,37.597999572753906 8.102999687194824,34.7859992980957 C18.820999145507812,28.40399932861328 21.025999069213867,16.003999710083008 29.229000091552734,-30.13599967956543 C29.658000946044922,-32.55099868774414 30.148000717163086,-34.97200012207031 30.679000854492188,-37.391998291015625 C20.187000274658203,-34.70000076293945 9.432000160217285,-32.724998474121094 -1.3350000381469727,-31.555999755859375 C-5.0370001792907715,-31.15399932861328 -8.744999885559082,-30.847999572753906 -12.354999542236328,-30.64699935913086z"></path></g><g opacity="1" transform="matrix(1,0,0,1,906.0070190429688,261.4530029296875)"><path fill="rgb(0,0,0)" fill-opacity="1" d=" M176.38999938964844,-99.96299743652344 C162.44500732421875,-143.99200439453125 155.5749969482422,-168.15499877929688 164.33900451660156,-193.63999938964844 C172.85800170898438,-218.41099548339844 163.61300659179688,-234.6929931640625 150.6739959716797,-239.83999633789062 C137.98800659179688,-244.88600158691406 120.29000091552734,-239.2969970703125 111.00800323486328,-218.84500122070312 C96.5510025024414,-186.99000549316406 98.25800323486328,-151.86300659179688 116.54299926757812,-104.9489974975586 C124.91799926757812,-83.45899963378906 127.5,-67.98899841308594 124.66699981689453,-56.26100158691406 C123.08599853515625,-49.720001220703125 119.70899963378906,-43.59000015258789 114.02100372314453,-37.16699981689453 C109.45700073242188,-60.98699951171875 102.572998046875,-84.197998046875 93.5999984741211,-105.75199890136719 C78.27200317382812,-142.5679931640625 57.50899887084961,-172.5540008544922 33.555999755859375,-192.46600341796875 C6.941999912261963,-214.59100341796875 -23.91900062561035,-224.41799926757812 -55.6879997253418,-220.88900756835938 C-127.60900115966797,-212.8979949951172 -165.3730010986328,-140.53900146484375 -181.6179962158203,-97.58799743652344 C-182.29200744628906,-95.80599975585938 -182.00900268554688,-93.81099700927734 -180.86399841308594,-92.28900146484375 C-180.72000122070312,-92.0979995727539 -180.5749969482422,-91.90499877929688 -180.43099975585938,-91.71299743652344 C-180.41700744628906,-91.69499969482422 -180.4040069580078,-91.6760025024414 -180.38999938964844,-91.65799713134766 C-178.35400390625,-88.94999694824219 -174.3780059814453,-88.697998046875 -172.0019989013672,-91.11299896240234 C-170.281005859375,-92.86299896240234 -168.81300354003906,-94.36900329589844 -167.7899932861328,-95.41799926757812 C-144.9149932861328,-118.88899993896484 -126.8479995727539,-137.427001953125 -102.24099731445312,-137.427001953125 C-100.52400207519531,-137.427001953125 -98.78299713134766,-137.33200073242188 -97.06800079345703,-137.1439971923828 C-85.25599670410156,-135.8509979248047 -74.71900177001953,-130.13900756835938 -62.90299987792969,-118.62100219726562 C-55.612998962402344,-111.51599884033203 -48.09400177001953,-102.36399841308594 -41.15599822998047,-92.15399932861328 C-28.783000946044922,-73.94200134277344 -12.13599967956543,-43.38999938964844 -3.0910000801086426,-1.2610000371932983 C1.184999942779541,18.655000686645508 1.2400000095367432,38.084999084472656 -2.930000066757202,56.49100112915039 C-7.1519999504089355,75.1259994506836 -15.602999687194824,92.31400299072266 -28.047000885009766,107.5780029296875 C-43.29999923706055,126.28700256347656 -63.78499984741211,141.43699645996094 -88.93299865722656,152.60499572753906 C-91.11699676513672,153.5749969482422 -93.33399963378906,154.5030059814453 -95.572998046875,155.4040069580078 C-95.18199920654297,157.41299438476562 -94.79299926757812,159.45899963378906 -94.40499877929688,161.57400512695312 C-89.76300048828125,186.88699340820312 -84.86900329589844,206.08700561523438 -79.85800170898438,218.63800048828125 C-77.33000183105469,224.97000122070312 -70.697998046875,241.5850067138672 -56.150001525878906,241.58299255371094 C-55.861000061035156,241.58299255371094 -55.566001892089844,241.5780029296875 -55.27000045776367,241.56399536132812 C-47.07400131225586,241.19200134277344 -38.25600051879883,234.77999877929688 -37.02799987792969,221.29299926757812 C-36.98699951171875,220.83700561523438 -36.930999755859375,220.16600036621094 -36.85900115966797,219.29800415039062 C-31.399999618530273,153.1269989013672 -16.69099998474121,103.20700073242188 1.5260000228881836,89.01899719238281 C5.751999855041504,85.72799682617188 9.79699993133545,84.61699676513672 14.644000053405762,85.427001953125 C20.570999145507812,86.41400146484375 29.135000228881836,93.02799987792969 36.275001525878906,118.927001953125 C42.29499816894531,140.76300048828125 44.80500030517578,167.63499450683594 46.823001861572266,189.22799682617188 C47.83300018310547,200.04400634765625 48.70600128173828,209.38600158691406 49.86899948120117,216.47799682617188 C51.00299835205078,223.38900756835938 53.362998962402344,237.77099609375 66.72599792480469,239.76499938964844 C69.66300201416016,240.2010040283203 75.40899658203125,240.18099975585938 80.88800048828125,235.09800720214844 C91.99700164794922,224.79299926757812 103.1989974975586,186.1529998779297 109.41799926757812,156.1929931640625 C115.60399627685547,126.38800048828125 122.09300231933594,81.84500122070312 120.80400085449219,29.974000930786133 C133.07400512695312,23.41699981689453 155.11000061035156,8.869999885559082 169.36199951171875,-16.632999420166016 C183.3179931640625,-41.60499954223633 185.7469940185547,-70.41999816894531 176.38999938964844,-99.96299743652344z"></path></g><g opacity="1" transform="matrix(1,0,0,1,730.1110229492188,278.4779968261719)"><path fill="rgb(0,0,0)" fill-opacity="1" d=" M130.3939971923828,72.83100128173828 C148.9980010986328,48.446998596191406 155.1999969482422,18.63800048828125 148.32699584960938,-13.375 C140.08099365234375,-51.78099822998047 125.02200317382812,-79.45999908447266 113.84100341796875,-95.91600036621094 C107.19599914550781,-105.69599914550781 90.20999908447266,-128.60899353027344 76.01499938964844,-130.16400146484375 C76.01399993896484,-130.16400146484375 76.01399993896484,-130.16400146484375 76.01399993896484,-130.16400146484375 C61.95100021362305,-131.7030029296875 49.29600143432617,-119.46600341796875 26.30699920654297,-95.87699890136719 C17.68899917602539,-87.03399658203125 3.765000104904175,-72.74700164794922 -2.8910000324249268,-68.91699981689453 C-8.45199966430664,-72.83499908447266 -18.915000915527344,-86.75599670410156 -24.77400016784668,-94.5530014038086 C-40.5260009765625,-115.51000213623047 -52.96799850463867,-132.06199645996094 -69.65799713134766,-130.24899291992188 C-86.86799621582031,-128.3800048828125 -106.80599975585938,-104.79199981689453 -112.50599670410156,-97.60600280761719 C-126.20099639892578,-80.34400177001953 -157.26400756835938,-33.71200180053711 -149.94900512695312,26.316999435424805 C-145.6840057373047,61.32099914550781 -126.9209976196289,89.5999984741211 -95.68699645996094,108.09700012207031 C-70.91600036621094,122.76699829101562 -39.87900161743164,130.38499450683594 -5.2729997634887695,130.38499450683594 C-0.800000011920929,130.38499450683594 3.7339999675750732,130.25799560546875 8.319999694824219,130.0019989013672 C31.416000366210938,128.71400451660156 54.54899978637695,123.26399993896484 75.21600341796875,114.24099731445312 C98.3499984741211,104.14199829101562 117.42900085449219,89.8219985961914 130.3939971923828,72.83100128173828z M-83.34500122070312,57.07899856567383 C-97.86900329589844,52.41400146484375 -109.40899658203125,43.5099983215332 -115.12000274658203,32.479000091552734 C-119.13999938964844,24.71299934387207 -119.93599700927734,16.224000930786133 -117.36399841308594,8.574999809265137 C-112.96900177001953,-4.497000217437744 -99.64800262451172,-12.74899959564209 -83.34500122070312,-14.104999542236328 C-83.34500122070312,-14.104999542236328 -83.34500122070312,57.07899856567383 -83.34500122070312,57.07899856567383z M-24.538000106811523,37.426998138427734 C-28.45400047302246,49.07500076293945 -39.459999084472656,56.895999908447266 -53.345001220703125,59.422000885009766 C-53.345001220703125,59.422000885009766 -53.345001220703125,-9.168000221252441 -53.345001220703125,-9.168000221252441 C-41.28900146484375,-4.189000129699707 -31.79199981689453,3.8489999771118164 -26.784000396728516,13.52299976348877 C-22.76300048828125,21.288999557495117 -21.965999603271484,29.777999877929688 -24.538000106811523,37.426998138427734z M50.85599899291992,59.58599853515625 C48.6349983215332,59.356998443603516 46.45899963378906,59.00600051879883 44.35499954223633,58.507999420166016 C32.0880012512207,55.60499954223633 22.906999588012695,48.20100021362305 19.163000106811523,38.19300079345703 C16.327999114990234,30.615999221801758 16.844999313354492,22.090999603271484 20.618000030517578,14.1899995803833 C25.878000259399414,3.1740000247955322 36.83700180053711,-5.958000183105469 50.85599899291992,-11.111000061035156 C50.85599899291992,-11.111000061035156 50.85599899291992,59.58599853515625 50.85599899291992,59.58599853515625z M109.50700378417969,30.45199966430664 C104.4469985961914,41.04800033569336 94.11199951171875,49.89799880981445 80.85600280761719,55.14400100708008 C80.85600280761719,55.14400100708008 80.85600280761719,-14.76099967956543 80.85600280761719,-14.76099967956543 C82.5270004272461,-14.538000106811523 84.16899871826172,-14.248000144958496 85.76899719238281,-13.869000434875488 C98.03600311279297,-10.965999603271484 107.21800231933594,-3.561000108718872 110.96199798583984,6.447000026702881 C113.7969970703125,14.024999618530273 113.27999877929688,22.551000595092773 109.50700378417969,30.45199966430664z"></path></g></g></g></svg>