<svg xmlns="http://www.w3.org/2000/svg" xmlns:xlink="http://www.w3.org/1999/xlink" viewBox="0 0 512 512" width="512" height="512" style="width: 100%; height: 100%; transform: translate3d(0,0,0);" preserveAspectRatio="xMidYMid meet"><defs><clipPath id="__lottie_element_704"><rect width="512" height="512" x="0" y="0"></rect></clipPath></defs><g clip-path="url(#__lottie_element_704)"><g style="display: block;" transform="matrix(1,0,0,1,256,256)" opacity="1"><g opacity="1" transform="matrix(1,0,0,1,0,0)"><path fill="rgb(0,0,0)" fill-opacity="1" d=" M-80.90899658203125,-16.643999099731445 C-80.90899658203125,-16.643999099731445 78.78500366210938,-16.643999099731445 78.78500366210938,-16.643999099731445 C82.59100341796875,-16.643999099731445 85.47799682617188,-20.06999969482422 84.8239974975586,-23.81999969482422 C83.76000213623047,-29.923999786376953 82.10900115966797,-39.005001068115234 80.33200073242188,-47.356998443603516 C79.72899627685547,-50.19300079345703 77.23300170898438,-52.2239990234375 74.33399963378906,-52.2239990234375 C74.33399963378906,-52.2239990234375 -76.45800018310547,-52.2239990234375 -76.45800018310547,-52.2239990234375 C-79.35700225830078,-52.2239990234375 -81.85299682617188,-50.19300079345703 -82.45600128173828,-47.356998443603516 C-84.23300170898438,-39.005001068115234 -85.88400268554688,-29.923999786376953 -86.947998046875,-23.81999969482422 C-87.60199737548828,-20.06999969482422 -84.71499633789062,-16.643999099731445 -80.90899658203125,-16.643999099731445z"></path></g><g opacity="1" transform="matrix(1,0,0,1,0,0)"><path fill="rgb(0,0,0)" fill-opacity="1" d=" M190.45599365234375,-52.2239990234375 C190.45599365234375,-52.2239990234375 173.7050018310547,-52.2239990234375 173.7050018310547,-52.2239990234375 C169.10400390625,-52.2239990234375 165.5679931640625,-48.145999908447266 166.2270050048828,-43.59299850463867 C169.677001953125,-19.757999420166016 178.33900451660156,48.54399871826172 172.55499267578125,98.97799682617188 C172.24099731445312,101.71700286865234 168.20899963378906,101.58699798583984 168.05799865722656,98.83399963378906 C165.85299682617188,58.737998962402344 160.3719940185547,23.667999267578125 155.08200073242188,-2.566999912261963 C141.54400634765625,-73.43199920654297 115.0510025024414,-154.69000244140625 70.10099792480469,-186.07699584960938 C69.89800262451172,-196.06100463867188 61.75699996948242,-204.0959930419922 51.7239990234375,-204.0959930419922 C51.7239990234375,-204.0959930419922 -49.61899948120117,-204.0959930419922 -49.61899948120117,-204.0959930419922 C-59.00400161743164,-204.0959930419922 -66.73300170898438,-197.06300354003906 -67.85900115966797,-187.98199462890625 C-121.29100036621094,-154.3260040283203 -149.7729949951172,-53.10300064086914 -161.80499267578125,24.135000228881836 C-165.14100646972656,42.80500030517578 -168.5570068359375,64.36599731445312 -171.6020050048828,88.21299743652344 C-172.11900329589844,92.26399993896484 -178.0989990234375,91.8740005493164 -178.1020050048828,87.79000091552734 C-178.1479949951172,28.62700080871582 -172.0399932861328,-23.756999969482422 -169.38999938964844,-43.68299865722656 C-168.78799438476562,-48.21099853515625 -172.31199645996094,-52.2239990234375 -176.87899780273438,-52.2239990234375 C-176.87899780273438,-52.2239990234375 -190.45599365234375,-52.2239990234375 -190.45599365234375,-52.2239990234375 C-257.6990051269531,-52.2239990234375 -255.99600219726562,113.89800262451172 -255.99600219726562,150.23699951171875 C-255.99600219726562,186.5760040283203 -231.8820037841797,204.0959930419922 -202.13600158691406,204.0959930419922 C-202.13600158691406,204.0959930419922 202.13600158691406,204.0959930419922 202.13600158691406,204.0959930419922 C231.8820037841797,204.0959930419922 255.99600219726562,186.5760040283203 255.99600219726562,150.23699951171875 C255.99600219726562,113.89800262451172 257.6990051269531,-52.2239990234375 190.45599365234375,-52.2239990234375z M-112.05899810791016,-12.427000045776367 C-109.09400177001953,-49.04800033569336 -90.2760009765625,-130.22900390625 -67.66600036621094,-169.6999969482422 C-67.66600036621094,-157.48399353027344 -56.5989990234375,-152.67999267578125 -49.61899948120117,-152.67999267578125 C-49.61899948120117,-152.67999267578125 51.7239990234375,-152.67999267578125 51.7239990234375,-152.67999267578125 C57.757999420166016,-152.67999267578125 69.18599700927734,-159.87399291992188 69.18599700927734,-169.6999969482422 C94.98300170898438,-122.45999908447266 111.08300018310547,-47.80799865722656 110.86699676513672,-11.847000122070312 C110.80500030517578,-1.496000051498413 104.61499786376953,7.629000186920166 94.26399993896484,7.629000186920166 C94.26399993896484,7.629000186920166 -95.55999755859375,7.629000186920166 -95.55999755859375,7.629000186920166 C-106.1510009765625,7.629000186920166 -112.91400146484375,-1.871000051498413 -112.05899810791016,-12.427000045776367z M46.66299819946289,54.935001373291016 C44.93000030517578,61.13600158691406 43.21900177001953,67.34500122070312 41.49399948120117,73.54900360107422 C20.700000762939453,73.5530014038086 -0.09300000220537186,73.552001953125 -20.886999130249023,73.5510025024414 C-19.165000915527344,67.34500122070312 -17.45199966430664,61.13600158691406 -15.71399974822998,54.935001373291016 C-15.71399974822998,54.935001373291016 46.66299819946289,54.935001373291016 46.66299819946289,54.935001373291016z M-69.84400177001953,139.6649932861328 C-69.84400177001953,139.6649932861328 -107.2239990234375,139.6649932861328 -107.2239990234375,139.6649932861328 C-124.96499633789062,139.6649932861328 -122.29299926757812,126.5009994506836 -121.56999969482422,123.89399719238281 C-115.19599914550781,100.90899658203125 -108.81700134277344,77.9229965209961 -102.44599914550781,54.93600082397461 C-102.44599914550781,54.93600082397461 -102.59200286865234,54.935001373291016 -102.59200286865234,54.935001373291016 C-102.59200286865234,54.935001373291016 -73.56600189208984,54.935001373291016 -73.56600189208984,54.935001373291016 C-79.33200073242188,75.66500091552734 -85.06600189208984,96.40299987792969 -90.82599639892578,117.13600158691406 C-91.23200225830078,118.59700012207031 -90.69499969482422,120.91600036621094 -87.23400115966797,121.00700378417969 C-85.72599792480469,121.0459976196289 -84.21900177001953,121.01300048828125 -82.70999908447266,121.0250015258789 C-77.52899932861328,121.06500244140625 -76.41699981689453,120.16400146484375 -75.79499816894531,117.9260025024414 C-69.95700073242188,96.93000030517578 -64.14600372314453,75.9280014038086 -58.29999923706055,54.935001373291016 C-58.29999923706055,54.935001373291016 -29.44499969482422,54.935001373291016 -29.44499969482422,54.935001373291016 C-35.71200180053711,77.46800231933594 -49.07699966430664,125.72000122070312 -49.79199981689453,128.1510009765625 C-50.823001861572266,131.656005859375 -52.577999114990234,139.6649932861328 -69.84400177001953,139.6649932861328z M32.744998931884766,105.05899810791016 C21.569000244140625,105.06300354003906 10.395000457763672,105.05899810791016 -0.781000018119812,105.06199645996094 C-3.9830000400543213,116.59600067138672 -7.177999973297119,128.1300048828125 -10.380000114440918,139.66400146484375 C-10.380000114440918,139.66400146484375 -10.182999610900879,139.6649932861328 -10.182999610900879,139.6649932861328 C-10.182999610900879,139.6649932861328 -39.24700164794922,139.6649932861328 -39.24700164794922,139.6649932861328 C-34.31100082397461,121.91300201416016 -29.395999908447266,104.15499877929688 -24.468000411987305,86.4000015258789 C-3.6710000038146973,86.39700317382812 17.125999450683594,86.4000015258789 37.92300033569336,86.4010009765625 C36.198001861572266,92.62100219726562 34.47200012207031,98.83999633789062 32.744998931884766,105.05899810791016z M117.02200317382812,73.54900360107422 C106.78399658203125,73.552001953125 96.54499816894531,73.55000305175781 86.30699920654297,73.5510025024414 C82.61799621582031,73.552001953125 80.65799713134766,73.88400268554688 79.80400085449219,76.96499633789062 C76.06900024414062,90.43599700927734 72.3290023803711,103.90799713134766 68.59600067138672,117.37999725341797 C68.35700225830078,118.24299621582031 68.48200225830078,121.02200317382812 72.73200225830078,121.02300262451172 C83.88300323486328,121.0260009765625 95.03299713134766,121.02300262451172 106.18399810791016,121.0260009765625 C104.46299743652344,127.23899841308594 102.73799896240234,133.45199584960938 101.01399993896484,139.6649932861328 C101.01399993896484,139.6649932861328 53.619998931884766,139.6649932861328 53.619998931884766,139.6649932861328 C43.23400115966797,139.6649932861328 36.62099838256836,133.48599243164062 38.87900161743164,125.3499984741211 C44.236000061035156,106.0459976196289 49.59400177001953,86.74199676513672 54.95399856567383,67.43800354003906 C55.922000885009766,63.95100021362305 57.569000244140625,54.935001373291016 74.8270034790039,54.935001373291016 C74.8270034790039,54.935001373291016 122.14600372314453,54.935001373291016 122.14600372314453,54.935001373291016 C121.46399688720703,57.75 117.96700286865234,70.14099884033203 117.02200317382812,73.54900360107422z"></path></g></g></g></svg>