<svg xmlns="http://www.w3.org/2000/svg" xmlns:xlink="http://www.w3.org/1999/xlink" viewBox="0 0 512 512" width="512" height="512" style="width: 100%; height: 100%; transform: translate3d(0,0,0);" preserveAspectRatio="xMidYMid meet"><defs><clipPath id="__lottie_element_39106"><rect width="512" height="512" x="0" y="0"></rect></clipPath></defs><g clip-path="url(#__lottie_element_39106)"><g style="display: block;" transform="matrix(1,0,0,1,0,0)" opacity="1"><g opacity="1" transform="matrix(1,0,0,1,314.4909973144531,258.4010009765625)"><path fill="rgb(65,63,63)" fill-opacity="1" d=" M56.7130012512207,-248.14700317382812 C68.14299774169922,-238.5290069580078 56.840999603271484,-189.8719940185547 60.345001220703125,-182.9149932861328 C61.60900115966797,-180.40499877929688 82.19599914550781,-174.9530029296875 89.27300262451172,-169.5959930419922 C105.24199676513672,-157.51100158691406 106.447998046875,-136.07000732421875 112.28099822998047,-128.66400146484375 C116.11799621582031,-123.79199981689453 133.08099365234375,-126.76100158691406 135.0989990234375,-104.927001953125 C136.52999877929688,-89.45099639892578 125.02300262451172,-86.0719985961914 122.98100280761719,-75.19999694824219 C119.37699890136719,-56.013999938964844 123.18900299072266,128.71299743652344 121.8949966430664,191.7010040283203 C144.84500122070312,213.18499755859375 141.41600036621094,230.30599975585938 111.00700378417969,241.46499633789062 C75.40299987792969,254.531005859375 -62.180999755859375,253.9219970703125 -100.58499908447266,245.23399353027344 C-121.94400024414062,240.40199279785156 -144.84500122070312,228.2570037841797 -130.00399780273438,204.28900146484375 C-127.5270004272461,200.28700256347656 -122.35399627685547,199.40499877929688 -121.0510025024414,196.33200073242188 C-114.84400177001953,181.69200134277344 -115.61100006103516,-44.97100067138672 -120.53099822998047,-76.4489974975586 C-122.7229995727539,-90.4749984741211 -137.25999450683594,-92.6259994506836 -130.67599487304688,-110.77999877929688 C-125.0250015258789,-126.36199951171875 -111.33999633789062,-125.13700103759766 -106.8030014038086,-130.96400451660156 C-104.52899932861328,-133.88400268554688 -101.83200073242188,-152.58799743652344 -98.74800109863281,-157.60800170898438 C-86.1520004272461,-178.11300659179688 -55.25199890136719,-176.76199340820312 -52.40700149536133,-180.75100708007812 C-45.823001861572266,-189.98300170898438 -59.922000885009766,-236.32699584960938 -42.8849983215332,-247.6230010986328 C-36.400001525878906,-251.92300415039062 50.23400115966797,-253.5989990234375 56.7130012512207,-248.14700317382812z M31.677000045776367,-219.91099548339844 C31.677000045776367,-219.91099548339844 -15.21500015258789,-219.91099548339844 -15.21500015258789,-219.91099548339844 C-15.21500015258789,-219.91099548339844 -15.21500015258789,-181.88400268554688 -15.21500015258789,-181.88400268554688 C-11.890999794006348,-177.427001953125 29.940000534057617,-177.24600219726562 31.381000518798828,-179.06500244140625 C31.381000518798828,-179.06500244140625 31.677000045776367,-219.91099548339844 31.677000045776367,-219.91099548339844z M67.34700012207031,-146.10400390625 C54.72200012207031,-150.99099731445312 -51.64899826049805,-156.8159942626953 -62.16600036621094,-146.51100158691406 C-64.1240005493164,-144.5919952392578 -69.01399993896484,-128.36500549316406 -67.29499816894531,-126.78199768066406 C-63.22200012207031,-123.02799987792969 74.28700256347656,-120.56199645996094 75.79900360107422,-125.85600280761719 C77.4280014038086,-131.5570068359375 73.04900360107422,-142.031005859375 67.34700012207031,-146.10400390625z"></path></g><g opacity="1" transform="matrix(1,0,0,1,108.84500122070312,37.257999420166016)"><path fill="rgb(65,63,63)" fill-opacity="1" d=" M47.81700134277344,33.20800018310547 C37.41600036621094,37.257999420166016 -51.176998138427734,6.51800012588501 -56.56999969482422,-4.211999893188477 C-62.48500061035156,-15.982999801635742 -53.981998443603516,-40.90399932861328 -33.22600173950195,-33.638999938964844 C-16.284000396728516,-27.709999084472656 62.48500061035156,27.496999740600586 47.81700134277344,33.20800018310547z"></path></g><g opacity="1" transform="matrix(1,0,0,1,106.28900146484375,189.53599548339844)"><path fill="rgb(65,63,63)" fill-opacity="1" d=" M51.3120002746582,-35.60200119018555 C56.082000732421875,-30.7810001373291 -10.125,35.000999450683594 -22.200000762939453,38.553001403808594 C-39.57400131225586,43.66299819946289 -56.082000732421875,30.082000732421875 -51.84700012207031,12.293999671936035 C-48.04499816894531,-3.6740000247955322 43.32600021362305,-43.66400146484375 51.3120002746582,-35.60200119018555z"></path></g><g opacity="1" transform="matrix(1,0,0,1,79.19999694824219,120.947998046875)"><path fill="rgb(65,63,63)" fill-opacity="1" d=" M-57.89899826049805,18.08099937438965 C-81.93299865722656,8.638999938964844 -78.17500305175781,-24.31399917602539 -50.5260009765625,-27.07900047302246 C-39.12699890136719,-28.2189998626709 79.19999694824219,-14.413999557495117 74.72799682617188,-9.128999710083008 C66.52100372314453,0.5699999928474426 -32.09299850463867,28.2189998626709 -57.89899826049805,18.08099937438965z"></path></g><g opacity="1" transform="matrix(1,0,0,1,305.4809875488281,63.707000732421875)"><path fill="rgb(65,63,63)" fill-opacity="1" d=" M3.9170000553131104,-19.711999893188477 C16.759000778198242,-19.208999633789062 22.386999130249023,-4.604000091552734 12.442000389099121,3.9719998836517334 C-7.00600004196167,20.740999221801758 -22.386999130249023,-20.742000579833984 3.9170000553131104,-19.711999893188477z"></path></g></g></g></svg>