<svg xmlns="http://www.w3.org/2000/svg" xmlns:xlink="http://www.w3.org/1999/xlink" viewBox="0 0 512 512" width="512" height="512" style="width: 100%; height: 100%; transform: translate3d(0,0,0);" preserveAspectRatio="xMidYMid meet"><defs><clipPath id="__lottie_element_51395"><rect width="512" height="512" x="0" y="0"></rect></clipPath></defs><g clip-path="url(#__lottie_element_51395)"><g style="display: block;" transform="matrix(1,0,0,1,53.95500183105469,-13.5989990234375)" opacity="1"><g opacity="1" transform="matrix(1,0,0,1,204.4040069580078,396.2799987792969)"><path fill="rgb(65,63,63)" fill-opacity="1" d=" M-203.91900634765625,-90.9209976196289 C-204.1540069580078,-102.85800170898438 -202.27999877929688,-125.30699920654297 -187.85499572753906,-125.30799865722656 C-176.68600463867188,-125.30899810791016 -84.9489974975586,-65.93199920654297 -84.9489974975586,-65.93199920654297 C-42.12799835205078,-95.60299682617188 -11.432999610900879,-121.91100311279297 -4.436999797821045,-121.9010009765625 C10.994999885559082,-121.87899780273438 75.93000030517578,-61.06100082397461 84.88800048828125,-58.51499938964844 C91.75599670410156,-56.5620002746582 165.5050048828125,-119.74700164794922 173.7779998779297,-123.71600341796875 C185.45399475097656,-129.31900024414062 191.77099609375,-123.18499755859375 193.45399475097656,-113.322998046875 C204.1540069580078,-50.612998962402344 185.322998046875,30.104999542236328 137.60699462890625,73.29399871826172 C82.19300079345703,123.4489974975586 10.309000015258789,138.01199340820312 -64.7300033569336,117.80000305175781 C-156.031005859375,93.20800018310547 -201.98399353027344,7.408999919891357 -203.91900634765625,-90.9209976196289z"></path></g><g opacity="1" transform="matrix(1,0,0,1,190.2469940185547,159.33099365234375)"><path fill="rgb(65,63,63)" fill-opacity="1" d=" M-13.130999565124512,-141.09800720214844 C-63.667999267578125,-133.48199462890625 -95.36499786376953,-96.97599792480469 -111.54399871826172,-50.4640007019043 C-123.12100219726562,-45.79999923706055 -151.85299682617188,-46.44200134277344 -161.302001953125,-40.97200012207031 C-165.72999572753906,-38.409000396728516 -166.99200439453125,-33.861000061035156 -167.23800659179688,-32.07400131225586 C-170.67300415039062,-7.059999942779541 -122.42500305175781,10.217000007629395 -117.58399963378906,32.01300048828125 C-113.07099914550781,52.33000183105469 -129.1739959716797,81.85600280761719 -132.21499633789062,102.23500061035156 C-117.50299835205078,110.20899963378906 -97.54299926757812,125.73899841308594 -71.36399841308594,139.322998046875 C-42.43000030517578,119.7040023803711 3.742000102996826,80.35900115966797 13.5649995803833,84.25299835205078 C32.55699920654297,91.78299713134766 79.28199768066406,129.73599243164062 97.22699737548828,143.9810028076172 C99.43099975585938,145.7310028076172 102.56999969482422,145.5590057373047 104.51200103759766,143.59300231933594 C104.51200103759766,143.59300231933594 169.38400268554688,90.77200317382812 169.38400268554688,90.77200317382812 C158.74200439453125,67.78700256347656 164.1529998779297,43.46099853515625 165.3489990234375,20.30500030517578 C170.67300415039062,-82.76599884033203 106.18000030517578,-159.08099365234375 -13.130999565124512,-141.09800720214844z M7.710999965667725,3.7839999198913574 C-19.145000457763672,9.20199966430664 -28.45800018310547,-38.6870002746582 -7.872000217437744,-44.00899887084961 C23.74799919128418,-52.185001373291016 31.108999252319336,-0.9359999895095825 7.710999965667725,3.7839999198913574z"></path></g></g></g></svg>