<svg xmlns="http://www.w3.org/2000/svg" xmlns:xlink="http://www.w3.org/1999/xlink" viewBox="0 0 512 512" width="512" height="512" style="width: 100%; height: 100%; transform: translate3d(0,0,0);" preserveAspectRatio="xMidYMid meet"><defs><clipPath id="__lottie_element_52593"><rect width="512" height="512" x="0" y="0"></rect></clipPath></defs><g clip-path="url(#__lottie_element_52593)"><g style="display: block;" transform="matrix(1,0,0,1,254.02000427246094,266.2650146484375)" opacity="1"><g opacity="1" transform="matrix(1,0,0,1,0,0)"><path fill="rgb(0,0,0)" fill-opacity="1" d=" M31.239999771118164,48.856998443603516 C31.239999771118164,48.856998443603516 2.371000051498413,130.60400390625 -98.16100311279297,128.48800659179688 C-192.72300720214844,126.49700164794922 -233.2949981689453,24.797000885009766 -241.8820037841797,-20.416000366210938 C-243.12399291992188,-26.95800018310547 -240.83399963378906,-33.65700149536133 -235.89100646972656,-38.11899948120117 C-217.802001953125,-54.448001861572266 -163.85699462890625,-89.50199890136719 -103.13800048828125,-91.49299621582031 C-19.56399917602539,-94.23300170898438 9.340999603271484,-49.6870002746582 9.340999603271484,-49.6870002746582 C9.340999603271484,-49.6870002746582 7.349999904632568,-124.34100341796875 63.09199905395508,-158.1840057373047 C105.01499938964844,-183.63699340820312 152.56700134277344,-193.88800048828125 173.56900024414062,-197.40699768066406 C179.28199768066406,-198.36399841308594 184.36700439453125,-193.66000366210938 183.822998046875,-187.89300537109375 C181.78799438476562,-166.33200073242188 172.08399963378906,-121.072998046875 143.718994140625,-95.4749984741211 C102.90799713134766,-58.645999908447266 84.80000305175781,-66.64800262451172 82.00499725341797,-52.67300033569336 C80.01399993896484,-42.71900177001953 100.91799926757812,-34.75699996948242 137.7469940185547,-53.66899871826172 C173.11000061035156,-71.8280029296875 212.1439971923828,-132.2010040283203 214.31500244140625,-181.91900634765625 C214.39300537109375,-183.70199584960938 216.73899841308594,-184.2830047607422 217.6269989013672,-182.73500061035156 C228.3470001220703,-164.0399932861328 260.3900146484375,-98.62100219726562 228.32699584960938,-29.77899932861328 C194.48399353027344,42.88399887084961 105.89399719238281,49.85200119018555 65.08300018310547,33.92599868774414 C65.08300018310547,33.92599868774414 73.68299865722656,66.8759994506836 103.90299987792969,94.6449966430664 C140.73199462890625,128.48800659179688 180.54800415039062,123.51100158691406 177.56199645996094,157.35400390625 C174.31399536132812,194.16099548339844 139.73699951171875,207.12399291992188 110.87100219726562,190.20199584960938 C82.00499725341797,173.27999877929688 34.22600173950195,88.6729965209961 31.239999771118164,48.856998443603516z"></path></g></g></g></svg>