<svg xmlns="http://www.w3.org/2000/svg" xmlns:xlink="http://www.w3.org/1999/xlink" viewBox="0 0 512 512" width="512" height="512" style="width: 100%; height: 100%; transform: translate3d(0,0,0);" preserveAspectRatio="xMidYMid meet"><defs><clipPath id="__lottie_element_644"><rect width="512" height="512" x="0" y="0"></rect></clipPath></defs><g clip-path="url(#__lottie_element_644)"><g style="display: block;" transform="matrix(1,0,0,1,256,256)" opacity="1"><g opacity="1" transform="matrix(1,0,0,1,0,0)"><path fill="rgb(0,0,0)" fill-opacity="1" d=" M-191.50999450683594,-90.0459976196289 C-191.50999450683594,-90.0459976196289 -90.10900115966797,-191.4459991455078 -90.10900115966797,-191.4459991455078 C-85.33000183105469,-196.22500610351562 -85.33000183105469,-203.9720001220703 -90.10900115966797,-208.75100708007812 C-90.10900115966797,-208.75100708007812 -111.13300323486328,-229.77499389648438 -111.13300323486328,-229.77499389648438 C-118.67500305175781,-237.31700134277344 -139.0330047607422,-227.29800415039062 -157.9290008544922,-213.9980010986328 C-165.62100219726562,-208.32400512695312 -179.17799377441406,-222.177001953125 -171.6699981689453,-229.68499755859375 C-159.30999755859375,-242.0449981689453 -182.4340057373047,-264.8340148925781 -196.3489990234375,-250.91900634765625 C-196.3489990234375,-250.91900634765625 -250.98300170898438,-196.28599548339844 -250.98300170898438,-196.28599548339844 C-266.4169921875,-180.8520050048828 -242.48199462890625,-158.8730010986328 -229.74899291992188,-171.6060028076172 C-224.27699279785156,-177.0780029296875 -208.38999938964844,-165.5540008544922 -214.06199645996094,-157.86599731445312 C-227.36199951171875,-138.97000122070312 -237.38099670410156,-118.61100006103516 -229.83900451660156,-111.06900024414062 C-229.83900451660156,-111.06900024414062 -208.81500244140625,-90.0459976196289 -208.81500244140625,-90.0459976196289 C-204.03599548339844,-85.26699829101562 -196.28900146484375,-85.26699829101562 -191.50999450683594,-90.0459976196289z"></path></g><g opacity="1" transform="matrix(1,0,0,1,0,0)"><path fill="rgb(0,0,0)" fill-opacity="1" d=" M10.881999969482422,-134.33700561523438 C10.881999969482422,-134.33700561523438 -21.597999572753906,-135.7740020751953 -21.597999572753906,-135.7740020751953 C-30.35099983215332,-136.85000610351562 -38.492000579833984,-140.82200622558594 -44.72800064086914,-147.05799865722656 C-44.72800064086914,-147.05799865722656 -65.95500183105469,-168.28500366210938 -65.95500183105469,-168.28500366210938 C-70.73400115966797,-173.06399536132812 -78.48100280761719,-173.06399536132812 -83.26000213623047,-168.28500366210938 C-83.26000213623047,-168.28500366210938 -168.3489990234375,-83.19599914550781 -168.3489990234375,-83.19599914550781 C-173.1280059814453,-78.41699981689453 -173.1280059814453,-70.66999816894531 -168.3489990234375,-65.89099884033203 C-168.3489990234375,-65.89099884033203 -146.83999633789062,-44.38199996948242 -146.83999633789062,-44.38199996948242 C-140.77699279785156,-38.319000244140625 -136.8489990234375,-30.450000762939453 -135.6490020751953,-21.961000442504883 C-135.6490020751953,-21.961000442504883 -133.6580047607422,10.503999710083008 -133.6580047607422,10.503999710083008 C-132.37600708007812,19.575000762939453 -126.0260009765625,32.29800033569336 -119.5479965209961,38.7760009765625 C-119.5479965209961,38.7760009765625 90.43699645996094,248.76100158691406 90.43699645996094,248.76100158691406 C96.96299743652344,255.28700256347656 106.89600372314453,257.15899658203125 115.25299835205078,253.24200439453125 C155.58599853515625,234.33999633789062 234.9499969482422,155.7270050048828 254.02999877929688,114.04000091552734 C257.8529968261719,105.68900299072266 255.99099731445312,95.83300018310547 249.49600219726562,89.33899688720703 C249.49600219726562,89.33899688720703 40.04899978637695,-120.10800170898438 40.04899978637695,-120.10800170898438 C32.18600082397461,-127.97100067138672 21.91900062561035,-132.97999572753906 10.881999969482422,-134.33700561523438z M-10.005999565124512,54.63399887084961 C7.547999858856201,44.71799850463867 25.090999603271484,34.78300094604492 42.64099884033203,24.857999801635742 C58.73400115966797,40.946998596191406 74.822998046875,57.03799819946289 90.91300201416016,73.12999725341797 C84.76499938964844,76.60800170898438 78.61799621582031,80.08300018310547 72.47000122070312,83.55899810791016 C63.81999969482422,74.91600036621094 55.178001403808594,66.26699829101562 46.52899932861328,57.62300109863281 C35.12799835205078,64.06900024414062 23.731000900268555,70.52100372314453 12.329999923706055,76.96700286865234 C12.329999923706055,76.96700286865234 12.480999946594238,77.12100219726562 12.480999946594238,77.12100219726562 C12.480999946594238,77.12100219726562 -10.005999565124512,54.63399887084961 -10.005999565124512,54.63399887084961z M180.42100524902344,113.947998046875 C177.71499633789062,115.5979995727539 165.42300415039062,122.4800033569336 162.05499267578125,124.38600158691406 C154.1320037841797,116.46700286865234 146.21200561523438,108.54299926757812 138.2899932861328,100.62300109863281 C135.43600463867188,97.76899719238281 133.66000366210938,96.51000213623047 130.61599731445312,98.23300170898438 C117.30400085449219,105.76499938964844 103.98600006103516,113.29399871826172 90.67500305175781,120.83000183105469 C89.8219985961914,121.31300354003906 87.76799774169922,123.55999755859375 91.05599975585938,126.8489990234375 C99.68099975585938,135.47900390625 108.31099700927734,144.10400390625 116.93599700927734,152.73399353027344 C110.7969970703125,156.2100067138672 104.65599822998047,159.6820068359375 98.51499938964844,163.15499877929688 C98.51499938964844,163.15499877929688 61.84700012207031,126.48600006103516 61.84700012207031,126.48600006103516 C53.81100082397461,118.44999694824219 53.4739990234375,108.5530014038086 61.51599884033203,104.00499725341797 C80.59600067138672,93.21399688720703 99.6780014038086,82.42500305175781 118.76100158691406,71.63600158691406 C122.20800018310547,69.68699645996094 130.45700073242188,63.98400115966797 143.80999755859375,77.33699798583984 C143.80999755859375,77.33699798583984 180.42100524902344,113.947998046875 180.42100524902344,113.947998046875z M122.01899719238281,55.54600143432617 C115.87999725341797,59.00400161743164 109.75299835205078,62.48400115966797 103.61799621582031,65.9489974975586 C87.5260009765625,49.86399841308594 71.44000244140625,33.7760009765625 55.35300064086914,17.68600082397461 C61.48699951171875,14.217000007629395 67.61599731445312,10.73799991607666 73.75900268554688,7.284999847412109 C73.75900268554688,7.284999847412109 122.01899719238281,55.54600143432617 122.01899719238281,55.54600143432617z M28.99799919128418,-37.474998474121094 C8.498000144958496,-25.89699935913086 -11.982999801635742,-14.288000106811523 -32.48099899291992,-2.7039999961853027 C-33.92499923706055,-1.8880000114440918 -35.30500030517578,0.3230000138282776 -32.696998596191406,3.071000099182129 C-31.56100082397461,4.26800012588501 -30.368000030517578,5.4079999923706055 -29.209999084472656,6.585000038146973 C-25.232999801635742,10.625 -23.676000595092773,10.786999702453613 -21.46299934387207,9.536999702453613 C-0.7020000219345093,-2.190999984741211 20.04400062561035,-13.944000244140625 40.810001373291016,-25.663000106811523 C40.810001373291016,-25.663000106811523 63.1349983215332,-3.3380000591278076 63.1349983215332,-3.3380000591278076 C40.85200119018555,9.246999740600586 -6.821000099182129,36.23899841308594 -9.255000114440918,37.56700134277344 C-12.765000343322754,39.48099899291992 -20.319000244140625,44.31999969482422 -33.678001403808594,30.961000442504883 C-33.678001403808594,30.961000442504883 -62.599998474121094,2.0399999618530273 -62.599998474121094,2.0399999618530273 C-76.32599639892578,-11.685999870300293 -64.072998046875,-19.804000854492188 -61.49700164794922,-21.261999130249023 C-38.78200149536133,-34.11399841308594 -16.06100082397461,-46.96200180053711 6.6529998779296875,-59.81800079345703 C6.6529998779296875,-59.81800079345703 6.540999889373779,-59.93199920654297 6.540999889373779,-59.93199920654297 C6.540999889373779,-59.93199920654297 28.99799919128418,-37.474998474121094 28.99799919128418,-37.474998474121094z"></path></g></g></g></svg>