<svg xmlns="http://www.w3.org/2000/svg" xmlns:xlink="http://www.w3.org/1999/xlink" viewBox="0 0 512 512" width="512" height="512" style="width: 100%; height: 100%; transform: translate3d(0,0,0);" preserveAspectRatio="xMidYMid meet"><defs><clipPath id="__lottie_element_51420"><rect width="512" height="512" x="0" y="0"></rect></clipPath></defs><g clip-path="url(#__lottie_element_51420)"><g style="display: block;" transform="matrix(1,0,0,1,256,256)" opacity="1"><g opacity="1" transform="matrix(1,0,0,1,0,0)"><path fill="rgb(0,0,0)" fill-opacity="1" d=" M229.04400634765625,-57.44200134277344 C194.96600341796875,-80.78700256347656 152.98300170898438,-99.23300170898438 107.39199829101562,-112.31800079345703 C90.12000274658203,-156.48699951171875 67.84200286865234,-196.57200622558594 41.409000396728516,-228.33900451660156 C30.517000198364258,-241.4290008544922 11.104999542236328,-243.58099365234375 -2.390000104904175,-233.19500732421875 C-35.13800048828125,-207.99099731445312 -65.65399932861328,-173.76199340820312 -92.18000030517578,-134.45199584960938 C-139.52099609375,-131.6739959716797 -184.5260009765625,-122.87300109863281 -222.90499877929688,-107.5510025024414 C-238.8209991455078,-101.1969985961914 -246.7220001220703,-83.27200317382812 -240.96299743652344,-67.13200378417969 C-230.56100463867188,-37.97800064086914 -214.96099853515625,-8.456000328063965 -195.51600646972656,20.224000930786133 C-193.0659942626953,23.83799934387207 -188.16000366210938,24.812999725341797 -184.50999450683594,22.416000366210938 C-143.55999755859375,-4.484000205993652 -92.4280014038086,-12.960000038146973 -43.0629997253418,-14.300999641418457 C-33.41299819946289,-14.562999725341797 -31.65999984741211,-0.5849999785423279 -41.04199981689453,1.5640000104904175 C-41.04199981689453,1.5640000104904175 -41.12699890136719,1.5820000171661377 -41.12699890136719,1.5820000171661377 C-104.58100128173828,16.158000946044922 -174.42599487304688,43.611000061035156 -186.64100646972656,107.32499694824219 C-191.49000549316406,132.6179962158203 -191.2449951171875,157.69700622558594 -189.70399475097656,181.1529998779297 C-188.58200073242188,198.22999572753906 -174.17999267578125,211.29800415039062 -157.072998046875,210.8209991455078 C-115.79399871826172,209.66900634765625 -71.00299835205078,199.91700744628906 -26.444000244140625,183.7100067138672 C13.49899959564209,209.29400634765625 55.08300018310547,228.6269989013672 95.12300109863281,238.78900146484375 C111.62899780273438,242.97799682617188 128.6020050048828,233.30799865722656 133.41299438476562,216.97300720214844 C145.08399963378906,177.3489990234375 149.6540069580078,131.7220001220703 148.00999450683594,84.31900024414062 C184.67999267578125,54.24399948120117 215.91700744628906,20.670000076293945 237.96099853515625,-14.28600025177002 C247.0449981689453,-28.690000534057617 243.09300231933594,-47.81800079345703 229.04400634765625,-57.44200134277344z"></path></g></g></g></svg>