<svg xmlns="http://www.w3.org/2000/svg" xmlns:xlink="http://www.w3.org/1999/xlink" viewBox="0 0 512 512" width="512" height="512" style="width: 100%; height: 100%; transform: translate3d(0,0,0);" preserveAspectRatio="xMidYMid meet"><defs><clipPath id="__lottie_element_52841"><rect width="512" height="512" x="0" y="0"></rect></clipPath></defs><g clip-path="url(#__lottie_element_52841)"><g style="display: block;" transform="matrix(1,0,0,1,255.91200256347656,266.1910095214844)" opacity="1"><g opacity="1" transform="matrix(1,0,0,1,0,0)"><path fill="rgb(0,0,0)" fill-opacity="1" d=" M50.57,95.1 C50.57,95.1 65.01,148.95 50.57,154.2 C36.12,159.46 1.18,133.7 1.18,133.7 C1.18,133.7 -41.1,157.5 -49.91,154.2 C-60.41,150.27 -47.94,106.92 -47.94,106.92 C-47.94,106.92 -9.41,85.27 -9.41,85.27 C-5.39,83.02 -7.43,76.88 -12,77.47 C-25.62,79.24 -42.46,81.27 -52.54,81.97 C-57.81,82.34 -91.94,53.74 -88.65,46.51 C-84.61,37.62 -29.56,34.03 -29.56,34.03 C-29.56,34.03 -14.49,-15.07 0.65,-15.88 C13.13,-16.53 27.58,34.03 27.58,34.03 C27.58,34.03 86.02,35.34 88.65,46.51 C92.31,62.06 50.57,95.1 50.57,95.1z M208.05599975585938,-130.2830047607422 C187.83700561523438,-130.2830047607422 171.43800354003906,-113.88300323486328 171.43800354003906,-93.65499877929688 C171.43800354003906,-83.7020034790039 175.42300415039062,-74.677001953125 181.8699951171875,-68.0739974975586 C170.70599365234375,-55.874000549316406 146.4530029296875,-37.56100082397461 102.73400115966797,-40.1879997253418 C44.61800003051758,-43.67499923706055 28.472999572753906,-83.00900268554688 23.999000549316406,-108.91200256347656 C38.85499954223633,-117.38999938964844 48.88600158691406,-133.36900329589844 48.88600158691406,-151.6929931640625 C48.88600158691406,-178.88600158691406 26.840999603271484,-200.93099975585938 -0.35199999809265137,-200.93099975585938 C-27.545000076293945,-200.93099975585938 -49.57899856567383,-178.88600158691406 -49.57899856567383,-151.6929931640625 C-49.57899856567383,-134.2969970703125 -40.54399871826172,-119.01100158691406 -26.909000396728516,-110.25 C-35.68000030517578,-81.23100280761719 -65.88099670410156,-42.92300033569336 -108.56500244140625,-40.1879997253418 C-155.55599975585938,-37.16999816894531 -172.38499450683594,-62.76100158691406 -177.38600158691406,-73.66100311279297 C-173.62600708007812,-79.41400146484375 -171.43800354003906,-86.28099822998047 -171.43800354003906,-93.65499877929688 C-171.43800354003906,-113.88300323486328 -187.83700561523438,-130.2830047607422 -208.05599975585938,-130.2830047607422 C-228.28399658203125,-130.2830047607422 -244.6840057373047,-113.88300323486328 -244.6840057373047,-93.65499877929688 C-244.6840057373047,-74.54000091552734 -230.0330047607422,-58.854000091552734 -211.34800720214844,-57.19300079345703 C-211.34800720214844,-57.19300079345703 -157.177001953125,160.09300231933594 -157.177001953125,160.09300231933594 C-157.177001953125,160.09300231933594 -112.4520034790039,200.93099975585938 -4.863999843597412,200.93099975585938 C107.91999816894531,200.93099975585938 147.45899963378906,160.09300231933594 147.45899963378906,160.09300231933594 C147.45899963378906,160.09300231933594 213.38900756835938,-57.426998138427734 213.38900756835938,-57.426998138427734 C231.08700561523438,-60.00600051879883 244.6840057373047,-75.24299621582031 244.6840057373047,-93.65499877929688 C244.6840057373047,-113.88300323486328 228.28399658203125,-130.2830047607422 208.05599975585938,-130.2830047607422z"></path><g opacity="1" transform="matrix(1,0,0,1,0.0020000000949949026,69.51399993896484)"></g><g opacity="1" transform="matrix(1,0,0,1,0,0)"></g></g></g></g></svg>