<svg xmlns="http://www.w3.org/2000/svg" xmlns:xlink="http://www.w3.org/1999/xlink" viewBox="0 0 512 512" width="512" height="512" style="width: 100%; height: 100%; transform: translate3d(0,0,0);" preserveAspectRatio="xMidYMid meet"><defs><clipPath id="__lottie_element_51179"><rect width="512" height="512" x="0" y="0"></rect></clipPath></defs><g clip-path="url(#__lottie_element_51179)"><g style="display: block;" transform="matrix(1.059999942779541,0,0,1.059999942779541,-4.0514678955078125,5.2362060546875)" opacity="1"><g opacity="1" transform="matrix(1,0,0,1,237.5240020751953,241.72999572753906)"><path fill="rgb(0,0,0)" fill-opacity="1" d=" M148.7050018310547,-36.0099983215332 C132.51600646972656,-44.70000076293945 210.2050018310547,-106.5 178.7050018310547,-162 C168.02499389648438,-180.8300018310547 78.21499633789062,-120 64.71499633789062,-127.5 C49.76499938964844,-135.80999755859375 58.77399826049805,-174.00999450683594 24.21500015258789,-202.5 C-9.13599967956543,-229.97999572753906 -40.28499984741211,-241.47999572753906 -56.78499984741211,-238.5 C-92.15499877929688,-232.11000061035156 -83.6449966430664,-126.16000366210938 -94.27400207519531,-114 C-104.77400207519531,-102 -209.14500427246094,-117.02999877929688 -220.7740020751953,-98.01000213623047 C-237.2740020751953,-71.01000213623047 -163.69400024414062,-14.479999542236328 -161.09500122070312,2.9800000190734863 C-158.47500610351562,20.6299991607666 -217.2740020751953,59.9900016784668 -202.2740020751953,130.97999572753906 C-198.05499267578125,150.94000244140625 -150.2949981689453,121.13999938964844 -122.77400207519531,127.9800033569336 C-72.2249984741211,140.5500030517578 -58.654998779296875,109.12999725341797 -47.78499984741211,125.9800033569336 C-33.8849983215332,147.52999877929688 -32.32600021362305,218.69000244140625 18.21500015258789,232.47999572753906 C51.21500015258789,241.47999572753906 72.21499633789062,121.4800033569336 87.21499633789062,116.9800033569336 C101.02400207519531,112.83999633789062 95.90499877929688,112.16999816894531 142.7050018310547,112.4800033569336 C158.3350067138672,112.58999633789062 237.27499389648438,107.48999786376953 237.2050018310547,92.48999786376953 C237.125,75.9000015258789 210.2050018310547,-3 148.7050018310547,-36.0099983215332z M153.2050018310547,40.4900016784668 C130.7050018310547,89.98999786376953 57.305999755859375,40.189998626708984 42.215999603271484,38.9900016784668 C26.28499984741211,37.720001220703125 37.715999603271484,113.9800033569336 12.274999618530273,113.9800033569336 C-11.78499984741211,113.9800033569336 0.36500000953674316,53.970001220703125 -14.78499984741211,43.4900016784668 C-29.135000228881836,33.560001373291016 -94.27400207519531,91.48999786376953 -106.27400207519531,55.4900016784668 C-116.93499755859375,23.51099967956543 -40.125,16.059999465942383 -38.78499984741211,4.989999771118164 C-37.55500030517578,-5.139999866485596 -100.77400207519531,-0.10000000149011612 -100.77400207519531,-28.010000228881836 C-100.77400207519531,-56.5099983215332 -37.52399826049805,-32.599998474121094 -31.28499984741211,-41.0099983215332 C-24.225000381469727,-50.5099983215332 -49.05500030517578,-111.87000274658203 -18.78499984741211,-112 C19.215999603271484,-112.16999816894531 7.275000095367432,-50.0099983215332 26.934999465942383,-39.5099983215332 C37.625,-33.79999923706055 79.71600341796875,-107 115.71600341796875,-71.51000213623047 C143.00599670410156,-44.59000015258789 57.215999603271484,-33.689998626708984 57.215999603271484,-3.009999990463257 C57.215999603271484,23.989999771118164 165.625,13.180000305175781 153.2050018310547,40.4900016784668z"></path></g><g opacity="1" transform="matrix(1,0,0,1,249.99899291992188,243.72500610351562)"><path fill="rgb(0,0,0)" fill-opacity="1" d=" M6.139999866485596,14.574999809265137 C-5.090000152587891,20.19499969482422 -14.729999542236328,23.684999465942383 -20.350000381469727,12.444999694824219 C-25.959999084472656,1.215000033378601 -21.40999984741211,-12.454999923706055 -10.170000076293945,-18.065000534057617 C1.0700000524520874,-23.684999465942383 14.729999542236328,-19.125 20.350000381469727,-7.885000228881836 C25.959999084472656,3.3550000190734863 17.3799991607666,8.96500015258789 6.139999866485596,14.574999809265137z"></path></g></g></g></svg>