<svg xmlns="http://www.w3.org/2000/svg" xmlns:xlink="http://www.w3.org/1999/xlink" viewBox="0 0 512 512" width="512" height="512" style="width: 100%; height: 100%; transform: translate3d(0,0,0);" preserveAspectRatio="xMidYMid meet"><defs><clipPath id="__lottie_element_17563"><rect width="512" height="512" x="0" y="0"></rect></clipPath></defs><g clip-path="url(#__lottie_element_17563)"><g style="display: block;" transform="matrix(1.0099999904632568,0,0,1.0099999904632568,-15.923904418945312,38.209503173828125)" opacity="1"><g opacity="1" transform="matrix(1,0,0,1,269.25,221.0500030517578)"><path fill="rgb(0,0,0)" fill-opacity="1" d=" M240,87.52999877929688 C227,68.52999877929688 150,93.52999877929688 148,81.52999877929688 C146.82000732421875,74.44000244140625 163,74.52999877929688 164,52.529998779296875 C164.63999938964844,38.5099983215332 158.0500030517578,37.380001068115234 155,27.530000686645508 C150.69000244140625,13.640000343322754 156.0800018310547,-35.45000076293945 164,-78.47000122070312 C171.52999877929688,-119.37999725341797 192.3300018310547,-165.25999450683594 189,-170.47000122070312 C184.25999450683594,-177.8800048828125 148,-153.47000122070312 45,-152.47000122070312 C-33.29999923706055,-151.7100067138672 -99,-162.47000122070312 -96.47000122070312,-175.5399932861328 C-94.87999725341797,-183.69000244140625 -43.20000076293945,-174.64999389648438 40,-179.47000122070312 C87.83000183105469,-182.24000549316406 170.02000427246094,-190.77000427246094 170,-200.47000122070312 C169.97999572753906,-211.75999450683594 58.630001068115234,-220.19000244140625 -6,-220.47000122070312 C-82,-220.8000030517578 -180.00999450683594,-213.05999755859375 -192,-191.47000122070312 C-202,-173.47000122070312 -177,-142.47000122070312 -167,-81.47000122070312 C-161.6999969482422,-49.119998931884766 -152.38999938964844,5.71999979019165 -158,25.530000686645508 C-159.75,31.719999313354492 -172.02000427246094,35.38999938964844 -170,53.529998779296875 C-167,80.52999877929688 -159.32000732421875,75.31999969482422 -161,84.52999877929688 C-163,95.52999877929688 -218.85000610351562,69.58999633789062 -241,92.52999877929688 C-269,121.52999877929688 -155,220.8000030517578 -2,220.52999877929688 C155.16000366210938,220.25 265.2799987792969,124.4800033569336 240,87.52999877929688z M70,153.52999877929688 C43.459999084472656,153.52999877929688 21,134.66000366210938 13.59000015258789,108.70999908447266 C2.009999990463257,108 -9.470000267028809,108.36000061035156 -22.200000762939453,109.62000274658203 C-30.90999984741211,133.00999450683594 -52.15999984741211,149.52999877929688 -77,149.52999877929688 C-109.58000183105469,149.52999877929688 -136,121.0999984741211 -136,86.02999877929688 C-136,50.959999084472656 -109.58000183105469,22.530000686645508 -77,22.530000686645508 C-47.939998626708984,22.530000686645508 -23.790000915527344,45.13999938964844 -18.899999618530273,74.91000366210938 C-8.279999732971191,73.94999694824219 2.609999895095825,73.94999694824219 12.729999542236328,74.70999908447266 C19.100000381469727,47.040000915527344 42.33000183105469,26.530000686645508 70,26.530000686645508 C102.58000183105469,26.530000686645508 129,54.959999084472656 129,90.02999877929688 C129,125.0999984741211 102.58000183105469,153.52999877929688 70,153.52999877929688z"></path></g><g opacity="1" transform="matrix(1,0,0,1,189.72999572753906,311.3299865722656)"><path fill="rgb(0,0,0)" fill-opacity="1" d=" M32.75,22.3799991607666 C25.899999618530273,33.45000076293945 14.140000343322754,40.75 0.7699999809265137,40.75 C-20.350000381469727,40.75 -37.47999954223633,22.510000228881836 -37.47999954223633,0 C-37.47999954223633,-22.510000228881836 -20.350000381469727,-40.75 0.7699999809265137,-40.75 C18.139999389648438,-40.75 32.81999969482422,-28.40999984741211 37.47999954223633,-11.489999771118164 C35.439998626708984,-10.960000038146973 33.45000076293945,-10.380000114440918 31.520000457763672,-9.75 C20.829999923706055,-6.260000228881836 19.229999542236328,22.15999984741211 32.75,22.3799991607666z"></path></g><g opacity="1" transform="matrix(1,0,0,1,340.6050109863281,313.9800109863281)"><path fill="rgb(0,0,0)" fill-opacity="1" d=" M36.89500045776367,0 C36.89500045776367,22.510000228881836 19.764999389648438,40.75 -1.3550000190734863,40.75 C-16.2549991607666,40.75 -29.174999237060547,31.670000076293945 -35.48500061035156,18.409000396728516 C-31.864999771118164,19.040000915527344 -28.165000915527344,19.760000228881836 -24.354999542236328,20.600000381469727 C-12.204999923706055,23.260000228881836 -10.354999542236328,-6.400000095367432 -27.354999542236328,-12.399999618530273 C-30.19499969482422,-13.399999618530273 -33.404998779296875,-14.300999641418457 -36.89500045776367,-15.10099983215332 C-31.2549991607666,-30.131000518798828 -17.46500015258789,-40.75 -1.3550000190734863,-40.75 C19.764999389648438,-40.75 36.89500045776367,-22.5 36.89500045776367,0z"></path></g></g></g></svg>