<svg xmlns="http://www.w3.org/2000/svg" xmlns:xlink="http://www.w3.org/1999/xlink" viewBox="0 0 512 512" width="512" height="512" style="width: 100%; height: 100%; transform: translate3d(0,0,0);" preserveAspectRatio="xMidYMid meet"><defs><clipPath id="__lottie_element_53035"><rect width="512" height="512" x="0" y="0"></rect></clipPath></defs><g clip-path="url(#__lottie_element_53035)"><g style="display: block;" transform="matrix(1,0,0,1,256,256)" opacity="1"><g opacity="1" transform="matrix(1,0,0,1,0,0)"><path fill="rgb(0,0,0)" fill-opacity="1" d=" M138,103.69999694824219 C-0.4729999899864197,59.891998291015625 5.103000164031982,21.968000411987305 -83.6050033569336,-166.69700622558594 C-164.88999938964844,-292.1679992675781 -290.52398681640625,-121.1719970703125 -220.9429931640625,-13.303999900817871 C-198.14500427246094,39.88800048828125 -199.95899963378906,119.947998046875 -196.25799560546875,204.9510040283203 C-180.10699462890625,218.83099365234375 -158.22300720214844,217.62100219726562 -149.99899291992188,197.5 C-148.16600036621094,189.9600067138672 -150.6820068359375,0.8730000257492065 -142.40199279785156,0.14800000190734863 C-107.1709976196289,8.54800033569336 -87.0739974975586,76.0739974975586 -79.64700317382812,129.5959930419922 C-90.73699951171875,252.87399291992188 173.0260009765625,220.9199981689453 220.14999389648438,193.5500030517578 C259.9540100097656,168.38099670410156 247.57699584960938,143.6020050048828 207.1009979248047,125.05000305175781 C205.8459930419922,124.53199768066406 139.21200561523438,104.14399719238281 138,103.69999694824219 M-156.35000610351562,-187.3000030517578 C-79.0530014038086,-212.89700317382812 -57.611000061035156,60.29100036621094 74.94999694824219,104.75 C39.78300094604492,107.88300323486328 14.416999816894531,99.80000305175781 -1.149999976158142,80.5 C-94.01699829101562,-61.367000579833984 -145.75,-150.63299560546875 -156.35000610351562,-187.3000030517578 M197.60000610351562,143.39999389648438 C204.86700439453125,148.26699829101562 206.73300170898438,153.16700744628906 203.1999969482422,158.10000610351562 C194.80499267578125,170.1060028076172 144.79400634765625,158.91400146484375 140.4499969482422,143.1999969482422 C145.88099670410156,126.4520034790039 187.96499633789062,135.88800048828125 197.60000610351562,143.39999389648438z"></path></g></g></g></svg>