<svg xmlns="http://www.w3.org/2000/svg" xmlns:xlink="http://www.w3.org/1999/xlink" viewBox="0 0 512 512" width="512" height="512" style="width: 100%; height: 100%; transform: translate3d(0,0,0);" preserveAspectRatio="xMidYMid meet"><defs><clipPath id="__lottie_element_14447"><rect width="512" height="512" x="0" y="0"></rect></clipPath></defs><g clip-path="url(#__lottie_element_14447)"><g style="display: block;" transform="matrix(1,0,0,1,256,256)" opacity="1"><g opacity="1" transform="matrix(1,0,0,1,0,0)"><path fill="rgb(0,0,0)" fill-opacity="1" d=" M178.63699340820312,-151.97000122070312 C178.63699340820312,-151.97000122070312 -55.36800003051758,-151.97000122070312 -55.36800003051758,-151.97000122070312 C-66.41400146484375,-151.97000122070312 -75.36799621582031,-143.01600646972656 -75.36799621582031,-131.97000122070312 C-75.36799621582031,-131.97000122070312 -75.36799621582031,-18.993999481201172 -75.36799621582031,-18.993999481201172 C-95.48200225830078,-15.531999588012695 -129.25799560546875,-7.3420000076293945 -164.37399291992188,11.604000091552734 C-214.11700439453125,38.44599914550781 -234.63499450683594,96.59500122070312 -215.41600036621094,156.29600524902344 C-205.2220001220703,187.96600341796875 -185.64500427246094,213.9290008544922 -160.29200744628906,229.406005859375 C-143.27999877929688,239.79100036621094 -124.26200103759766,245.06500244140625 -104.69999694824219,245.06399536132812 C-93.0479965209961,245.06399536132812 -81.20099639892578,243.19200134277344 -69.47200012207031,239.41700744628906 C-5.574999809265137,218.8489990234375 31.256999969482422,211.23399353027344 66.8759994506836,203.8719940185547 C78.0510025024414,201.56100463867188 89.60700225830078,199.17300415039062 101.66899871826172,196.44400024414062 C129.0970001220703,190.23599243164062 153.8679962158203,174.7169952392578 171.4199981689453,152.74600219726562 C188.9709930419922,130.7760009765625 198.63699340820312,103.19100189208984 198.63699340820312,75.06900024414062 C198.63699340820312,75.06900024414062 198.63699340820312,-131.97000122070312 198.63699340820312,-131.97000122070312 C198.63699340820312,-143.01600646972656 189.68299865722656,-151.97000122070312 178.63699340820312,-151.97000122070312z M-139.4499969482422,195.26499938964844 C-156.625,184.781005859375 -170.0800018310547,166.58799743652344 -177.33900451660156,144.0399932861328 C-177.33900451660156,144.03900146484375 -177.33900451660156,144.03900146484375 -177.33900451660156,144.03900146484375 C-187.83299255371094,111.44100189208984 -182.28599548339844,80.8479995727539 -163.47300720214844,60.689998626708984 C-163.47300720214844,60.689998626708984 -103.59200286865234,205.08900451660156 -103.59200286865234,205.08900451660156 C-116.24800109863281,205.31199645996094 -128.3939971923828,202.01400756835938 -139.4499969482422,195.26499938964844z M158.63699340820312,75.06900024414062 C158.63699340820312,94.15299987792969 152.0780029296875,112.87200164794922 140.16799926757812,127.77999877929688 C128.25900268554688,142.68699645996094 111.44999694824219,153.21800231933594 92.83999633789062,157.42999267578125 C92.83999633789062,157.42999267578125 76.73600006103516,161.07400512695312 76.73600006103516,161.07400512695312 C72.8030014038086,150.9199981689453 70.75900268554688,140.0570068359375 70.75900268554688,129.052001953125 C70.75900268554688,80.4469985961914 110.11799621582031,40.861000061035156 158.63699340820312,40.48500061035156 C158.63699340820312,40.48500061035156 158.63699340820312,75.06900024414062 158.63699340820312,75.06900024414062z"></path></g><g opacity="1" transform="matrix(1,0,0,1,0,0)"><path stroke-linecap="round" stroke-linejoin="round" fill-opacity="0" stroke="rgb(0,0,0)" stroke-opacity="1" stroke-width="40" d=" M181.11199951171875,-226.70899963378906 C181.11199951171875,-226.70899963378906 -57.84299850463867,-226.70899963378906 -57.84299850463867,-226.70899963378906 C-73.42900085449219,-226.70899963378906 -86.06400299072266,-214.07400512695312 -86.06400299072266,-198.48800659179688 C-86.06400299072266,-198.48800659179688 -86.06400299072266,-160.1909942626953 -86.06400299072266,-160.1909942626953 C-86.06400299072266,-144.60499572753906 -73.42900085449219,-131.97000122070312 -57.84299850463867,-131.97000122070312 C-57.84299850463867,-131.97000122070312 181.11199951171875,-131.97000122070312 181.11199951171875,-131.97000122070312 C196.697998046875,-131.97000122070312 209.33299255371094,-144.60499572753906 209.33299255371094,-160.1909942626953 C209.33299255371094,-160.1909942626953 209.33299255371094,-198.48800659179688 209.33299255371094,-198.48800659179688 C209.33299255371094,-214.07400512695312 196.697998046875,-226.70899963378906 181.11199951171875,-226.70899963378906z"></path></g></g></g></svg>