<svg xmlns="http://www.w3.org/2000/svg" xmlns:xlink="http://www.w3.org/1999/xlink" viewBox="0 0 512 512" width="512" height="512" style="width: 100%; height: 100%; transform: translate3d(0,0,0);" preserveAspectRatio="xMidYMid meet"><defs><clipPath id="__lottie_element_52298"><rect width="512" height="512" x="0" y="0"></rect></clipPath></defs><g clip-path="url(#__lottie_element_52298)"><g style="display: block;" transform="matrix(1,0,0,1,5.94000244140625,21.419998168945312)" opacity="1"><g opacity="1" transform="matrix(1,0,0,1,253.15499877929688,233.7050018310547)"><path fill="rgb(0,0,0)" fill-opacity="1" d=" M219.90499877929688,55.775001525878906 C259.9049987792969,-0.125 244.5749969482422,-91.45500183105469 218.94500732421875,-132.96499633789062 C215.98500061035156,-137.76499938964844 227.1649932861328,-143.7050018310547 233.90499877929688,-146.22500610351562 C242.5749969482422,-149.4550018310547 238.9149932861328,-168.7949981689453 225.90499877929688,-166.22500610351562 C213.625,-163.7949981689453 201.86500549316406,-155.7050018310547 197.90499877929688,-156.22500610351562 C191.27499389648438,-157.0850067138672 182.03500366210938,-180.0749969482422 166.90499877929688,-186.22500610351562 C149.46400451660156,-193.30499267578125 94.26499938964844,-177.61500549316406 108.90499877929688,-160.22500610351562 C151.90499877929688,-109.125 166.85499572753906,-35.185001373291016 108.90499877929688,24.774999618530273 C48.57500076293945,87.20500183105469 -78.76499938964844,115.20500183105469 -129.38499450683594,64.1449966430664 C-136.19500732421875,57.26499938964844 -130.84500122070312,41.6349983215332 -117.09500122070312,45.875 C-51.095001220703125,66.20500183105469 -0.6850000023841858,55.29499816894531 33.78499984741211,42.55500030517578 C88.96399688720703,22.165000915527344 109.59500122070312,-19.125 114.90499877929688,-41.224998474121094 C128.5749969482422,-98.125 94.57499694824219,-166.125 13.904999732971191,-199.22500610351562 C9.005000114440918,-201.23500061035156 9.015000343322754,-209.18499755859375 11.135000228881836,-214.125 C15.135000228881836,-223.4550018310547 -3.7149999141693115,-226.88499450683594 -6.375,-220.7949981689453 C-9.425000190734863,-213.8249969482422 -8.375,-209.4550018310547 -14.095000267028809,-210.22500610351562 C-17.045000076293945,-210.61500549316406 -24.5049991607666,-208.65499877929688 -31.094999313354492,-208.22500610351562 C-37.39500045776367,-207.80499267578125 -36.1150016784668,-216.43499755859375 -36.76499938964844,-223.125 C-37.76499938964844,-233.4550018310547 -56.76499938964844,-229.31500244140625 -55.51499938964844,-220.7050018310547 C-54.904998779296875,-216.4550018310547 -51.334999084472656,-206.0449981689453 -54.095001220703125,-203.22500610351562 C-57.30500030517578,-199.93499755859375 -155.4250030517578,-165.4550018310547 -143.09500122070312,-59.224998474121094 C-142.65499877929688,-55.415000915527344 -172.22500610351562,-37.69499969482422 -192.09500122070312,-13.225000381469727 C-214.09500122070312,13.875 -221.4250030517578,38.20500183105469 -226.09500122070312,60.775001525878906 C-227.0449981689453,65.36499786376953 -233.14500427246094,64.92500305175781 -240.09500122070312,64.7750015258789 C-251.6649932861328,64.54499816894531 -252.90499877929688,82.95500183105469 -248.09500122070312,84.7750015258789 C-241.78500366210938,87.16500091552734 -233.09500122070312,84.54499816894531 -233.09500122070312,90.7750015258789 C-233.09500122070312,95.25499725341797 -231.76499938964844,100.875 -231.09500122070312,108.7750015258789 C-230.52499389648438,115.53500366210938 -238.11500549316406,115.25499725341797 -245.09500122070312,117.7750015258789 C-251.125,119.95500183105469 -250.28500366210938,135.51499938964844 -244.09500122070312,136.77499389648438 C-236.73500061035156,138.27499389648438 -223.2449951171875,133.9949951171875 -221.09500122070312,138.77499389648438 C-212.72500610351562,157.40499877929688 -182.76499938964844,191.2050018310547 -154.09500122070312,196.77499389648438 C-148.6750030517578,197.8350067138672 -158.44500732421875,211.39500427246094 -159.09500122070312,217.77499389648438 C-159.8350067138672,225.10499572753906 -145.78500366210938,233.4550018310547 -139.09500122070312,228.77499389648438 C-130.93499755859375,223.0749969482422 -126.63500213623047,212.14500427246094 -122.09500122070312,212.77499389648438 C-104.76499938964844,215.2050018310547 -44.095001220703125,224.5449981689453 28.905000686645508,202.77499389648438 C99.08499908447266,181.85499572753906 143.48500061035156,141.18499755859375 156.90499877929688,129.77499389648438 C160.4239959716797,126.78500366210938 165.78500366210938,139.0749969482422 170.90499877929688,147.77499389648438 C177.23500061035156,158.5449981689453 194.61500549316406,149.19500732421875 190.90499877929688,134.77499389648438 C188.4949951171875,125.40499877929688 175.65499877929688,113.6449966430664 178.90499877929688,110.7750015258789 C185.5850067138672,104.8949966430664 202.77499389648438,85.8949966430664 205.90499877929688,79.7750015258789 C207.89500427246094,75.8949966430664 216.73500061035156,84.6050033569336 221.90499877929688,87.7750015258789 C229.76499938964844,92.6050033569336 241.4239959716797,79.01499938964844 236.90499877929688,72.7750015258789 C231.61500549316406,65.46499633789062 216.61500549316406,60.3849983215332 219.90499877929688,55.775001525878906z M-33.76499938964844,-88.125 C-27.46500015258789,-89.44499969482422 -16.19499969482422,-90.99500274658203 -2.7149999141693115,-92.24500274658203 C0.8650000095367432,-111.57499694824219 3.4549999237060547,-127.9749984741211 3.1549999713897705,-136.88499450683594 C2.694999933242798,-150.38499450683594 22.354999542236328,-147.84500122070312 22.964000701904297,-130.9250030517578 C23.225000381469727,-123.82499694824219 21.415000915527344,-110.15499877929688 18.655000686645508,-93.81500244140625 C24.0049991607666,-94.11499786376953 29.475000381469727,-94.32499694824219 34.915000915527344,-94.44499969482422 C35.9640007019043,-105.74500274658203 36.525001525878906,-115.68499755859375 36.19499969482422,-125.49500274658203 C35.73500061035156,-138.9949951171875 55.39500045776367,-137.44500732421875 56.005001068115234,-120.5250015258789 C56.275001525878906,-113.07499694824219 55.73500061035156,-104.15499877929688 54.70500183105469,-94.38500213623047 C69.1449966430664,-93.92500305175781 82.23500061035156,-92.46499633789062 91.23500061035156,-89.45500183105469 C101.23500061035156,-86.125 98.44499969482422,-69.03500366210938 87.90499877929688,-70.79499816894531 C76.7249984741211,-72.65499877929688 64.5250015258789,-73.76499938964844 52.10499954223633,-74.21499633789062 C50.10499954223633,-60.53499984741211 47.595001220703125,-46.07500076293945 45.255001068115234,-32.125 C43.44499969482422,-21.315000534057617 27.225000381469727,-22.454999923706055 28.295000076293945,-33.45500183105469 C29.844999313354492,-49.314998626708984 31.423999786376953,-62.67499923706055 32.775001525878906,-74.42500305175781 C26.80500030517578,-74.33499908447266 20.885000228881836,-74.11499786376953 15.095000267028809,-73.76499938964844 C9.46399974822998,-43.42499923706055 2.3949999809265137,-9.78499984741211 -0.5550000071525574,7.795000076293945 C-2.375,18.604999542236328 -21.415000915527344,19.545000076293945 -20.334999084472656,8.545000076293945 C-18.204999923706055,-13.21500015258789 -12.085000038146973,-43.755001068115234 -6.625,-71.80500030517578 C-17.114999771118164,-70.5250015258789 -26.614999771118164,-68.82499694824219 -34.42499923706055,-66.79499816894531 C-47.05500030517578,-63.51499938964844 -49.76499938964844,-84.79499816894531 -33.76499938964844,-88.125z"></path></g></g></g></svg>