<svg xmlns="http://www.w3.org/2000/svg" xmlns:xlink="http://www.w3.org/1999/xlink" viewBox="0 0 512 512" width="512" height="512" style="width: 100%; height: 100%; transform: translate3d(0,0,0);" preserveAspectRatio="xMidYMid meet"><defs><clipPath id="__lottie_element_52075"><rect width="512" height="512" x="0" y="0"></rect></clipPath></defs><g clip-path="url(#__lottie_element_52075)"><g style="display: block;" transform="matrix(1,0,0,1,256,255.99998474121094)" opacity="1"><g opacity="1" transform="matrix(1,0,0,1,0,0)"><path fill="rgb(0,0,0)" fill-opacity="1" d=" M119.77100372314453,-178.0240020751953 C80.80000305175781,-196.41400146484375 25.8700008392334,-179.17999267578125 -27.2549991607666,-144.28599548339844 C-28.114999771118164,-180.4669952392578 -49.73899841308594,-211.91000366210938 -76.91699981689453,-235.57699584960938 C-84.53199768066406,-242.20899963378906 -96.30400085449219,-240.21800231933594 -101.31400299072266,-231.4499969482422 C-108.56500244140625,-218.76100158691406 -117.71900177001953,-199.33200073242188 -121.31500244140625,-177.35299682617188 C-143.01300048828125,-189.55299377441406 -167.0570068359375,-193.9969940185547 -183.08599853515625,-195.58299255371094 C-193.13699340820312,-196.5780029296875 -201.57400512695312,-188.16000366210938 -200.5800018310547,-178.10899353027344 C-199.13699340820312,-163.51100158691406 -195.322998046875,-142.2570037841797 -185.43600463867188,-122.18099975585938 C-204.83200073242188,-119.0530014038086 -222.04100036621094,-111.94599914550781 -233.75599670410156,-106.0780029296875 C-242.79400634765625,-101.55000305175781 -245.41700744628906,-89.9280014038086 -239.20599365234375,-81.9520034790039 C-229.5070037841797,-69.49800109863281 -213.38400268554688,-51.99700164794922 -192.13299560546875,-40.1609992980957 C-186.80499267578125,-37.194000244140625 -180.26600646972656,-37.60599899291992 -175.24000549316406,-41.060001373291016 C-160.18800354003906,-51.40299987792969 -142.36099243164062,-60.637001037597656 -124.96600341796875,-64.1780014038086 C-116.77100372314453,-65.84600067138672 -112.06500244140625,-55.15700149536133 -118.76399993896484,-50.2130012512207 C-193.26400756835938,4.486000061035156 -207,92.33399963378906 -186.02499389648438,127.77100372314453 C-164.7570037841797,163.70199584960938 -110.30699920654297,208.94700622558594 -27.219999313354492,231.59500122070312 C34.027000427246094,248.2899932861328 110.83499908447266,252.70599365234375 201.38299560546875,232.06300354003906 C211.61300659179688,229.7310028076172 221.7310028076172,219.61199951171875 224.06300354003906,209.3820037841797 C272.7099914550781,-4.005000114440918 185.66000366210938,-146.9320068359375 119.77100372314453,-178.0240020751953z M35.305999755859375,65.13300323486328 C-2.5959999561309814,65.84500122070312 -37.16400146484375,22.386999130249023 -0.9110000133514404,3.7860000133514404 C51.66999816894531,-23.19300079345703 82.81900024414062,64.23999786376953 35.305999755859375,65.13300323486328z M106.5459976196289,-45.665000915527344 C73.6719970703125,-64.54299926757812 66.37000274658203,-119.58999633789062 107.0270004272461,-116.90399932861328 C165.9969940185547,-113.00800323486328 147.75599670410156,-22.000999450683594 106.5459976196289,-45.665000915527344z M162.0500030517578,164.76400756835938 C144.36000061035156,168.23800659179688 119.822998046875,150.58099365234375 141.68499755859375,102.29499816894531 C168.16099548339844,43.819000244140625 230.78700256347656,151.26600646972656 162.0500030517578,164.76400756835938z"></path></g></g></g></svg>