<svg xmlns="http://www.w3.org/2000/svg" xmlns:xlink="http://www.w3.org/1999/xlink" viewBox="0 0 512 512" width="512" height="512" style="width: 100%; height: 100%; transform: translate3d(0,0,0);" preserveAspectRatio="xMidYMid meet"><defs><clipPath id="__lottie_element_15741"><rect width="512" height="512" x="0" y="0"></rect></clipPath></defs><g clip-path="url(#__lottie_element_15741)"><g style="display: block;" transform="matrix(1,0,0,1,-6.10198974609375,6.406005859375)" opacity="1"><g opacity="1" transform="matrix(1,0,0,1,262.10101318359375,247.9219970703125)"><path fill="rgb(0,0,0)" fill-opacity="1" d=" M-40.05799865722656,235.12100219726562 C-55.45500183105469,212.7469940185547 -62.21900177001953,181.072998046875 -50.55699920654297,141.62600708007812 C-33.55799865722656,84.12799835205078 0,64.62899780273438 -3.559000015258789,46.630001068115234 C-6.482999801635742,31.840999603271484 -30.979000091552734,39.92100143432617 -43.05699920654297,53.630001068115234 C-66,79.6719970703125 -88,101.6719970703125 -150.052001953125,89.62799835205078 C-188.447998046875,82.1760025024414 -261.85101318359375,7.321000099182129 -240.5469970703125,-4.368000030517578 C-229.43800354003906,-10.463000297546387 -138,10.67199993133545 -114.55400085449219,-5.867000102996826 C-104.54399871826172,-12.928000450134277 -203.552001953125,-64.5009994506836 -198.5489959716797,-148.36000061035156 C-197,-174.3280029296875 -74.58799743652344,-68.68499755859375 -66.55599975585938,-77.86399841308594 C-56.05699920654297,-89.86299896240234 -119.0530014038086,-161.86000061035156 -63.555999755859375,-239.8560028076172 C-57.994998931884766,-247.6719970703125 -2.5230000019073486,-121.9540023803711 2.440999984741211,-134.86099243164062 C17.440000534057617,-173.85899353027344 32,-221.3280029296875 57.9379997253418,-217.35699462890625 C71.67500305175781,-215.25399780273438 47.45800018310547,-194.27699279785156 68.45700073242188,-116.28099822998047 C84.60700225830078,-56.297000885009766 38.34600067138672,-34.512001037597656 50.43899917602539,-11.368000030517578 C63,12.67199993133545 71.49700164794922,-30.822999954223633 146.93299865722656,-55.3650016784668 C196,-71.3280029296875 210.92999267578125,-146.86099243164062 231.5050048828125,-148.08700561523438 C244.5760040283203,-148.86500549316406 264,-13.32800006866455 158.43299865722656,68.62899780273438 C99.33599853515625,114.50900268554688 18.440000534057617,126.1259994506836 -1.059000015258789,167.12399291992188 C-13.614999771118164,193.52200317382812 -10.78600025177002,204.26100158691406 -1.3650000095367432,223.95700073242188 C7.175000190734863,241.8090057373047 -24.968000411987305,257.04901123046875 -40.05799865722656,235.12100219726562z"></path></g></g></g></svg>