<svg xmlns="http://www.w3.org/2000/svg" xmlns:xlink="http://www.w3.org/1999/xlink" viewBox="0 0 512 512" width="512" height="512" style="width: 100%; height: 100%; transform: translate3d(0,0,0);" preserveAspectRatio="xMidYMid meet"><defs><clipPath id="__lottie_element_774"><rect width="512" height="512" x="0" y="0"></rect></clipPath></defs><g clip-path="url(#__lottie_element_774)"><g style="display: block;" transform="matrix(1,0,0,1,256,256)" opacity="1"><g opacity="1" transform="matrix(1,0,0,1,0,0)"><path fill="rgb(0,0,0)" fill-opacity="1" d=" M-83.55400085449219,-58.38999938964844 C-83.55400085449219,-58.38999938964844 -65.03700256347656,-108.8010025024414 -65.03700256347656,-108.8010025024414 C-30.267000198364258,-104.80400085449219 5.881999969482422,-109.0459976196289 29.577999114990234,-117.66400146484375 C43.762001037597656,-122.822998046875 37.03200149536133,-150.31300354003906 37.03099822998047,-150.3159942626953 C10.255999565124512,-144.46099853515625 -36.479000091552734,-147.6529998779297 -49.70199966430664,-149.81199645996094 C-59.24800109863281,-151.37100219726562 -66.77799987792969,-158.6219940185547 -68.52200317382812,-167.9720001220703 C-69.59300231933594,-173.71499633789062 -69.65799713134766,-185.7899932861328 -69.09500122070312,-198.16099548339844 C-68.96800231933594,-200.9409942626953 -64.8290023803711,-201.12399291992188 -64.47599792480469,-198.36300659179688 C-62.492000579833984,-183.156005859375 -59.737998962402344,-168.3560028076172 -42.89799880981445,-165.14700317382812 C-20.211000442504883,-161.2830047607422 16.33300018310547,-157.7449951171875 54.242000579833984,-168.0989990234375 C61.45100021362305,-170.0679931640625 64.08999633789062,-177.20199584960938 63.979000091552734,-180.88299560546875 C63.97100067138672,-181.14500427246094 63.30500030517578,-186.78500366210938 61.821998596191406,-200.5260009765625 C58.54600143432617,-230.87899780273438 43.15700149536133,-254.27499389648438 12.119999885559082,-255.79100036621094 C-42.117000579833984,-258.44000244140625 -112.95800018310547,-246.48800659179688 -122.78099822998047,-240.94700622558594 C-136.30099487304688,-233.3209991455078 -167.9499969482422,-197.2729949951172 -163.4239959716797,-174.9759979248047 C-163.4239959716797,-174.9759979248047 -200.4250030517578,-109.95600128173828 -200.71600341796875,-109.25900268554688 C-203.79200744628906,-74.7229995727539 -97.69300079345703,-36.986000061035156 -83.55400085449219,-58.38999938964844z"></path></g><g opacity="1" transform="matrix(1,0,0,1,0,0)"><path fill="rgb(0,0,0)" fill-opacity="1" d=" M222.01100158691406,-6.9670000076293945 C172.7899932861328,-43.48500061035156 65.47100067138672,-49.18299865722656 25.128000259399414,38.097999572753906 C-20.225000381469727,18.1560001373291 -89.0459976196289,36.025001525878906 -109.3479995727539,106.41500091552734 C-110.91999816894531,110.5719985961914 -117.08000183105469,109.177001953125 -115.67400360107422,102.44599914550781 C-104.06099700927734,46.8380012512207 -123.66799926757812,33.402000427246094 -116.65899658203125,-16.010000228881836 C-116.2509994506836,-18.88800048828125 -113.10399627685547,-28.260000228881836 -112.2020034790039,-31.90999984741211 C-157.86500549316406,-38.4640007019043 -190.01199340820312,-56.03099822998047 -207.58799743652344,-73.48600006103516 C-233.71499633789062,-5.452000141143799 -262.11199951171875,94.43000030517578 -254.8459930419922,201.28500366210938 C-253.9510040283203,214.4409942626953 -245.2790069580078,225.93099975585938 -232.6719970703125,230.46200561523438 C-69.68099975585938,289.0369873046875 81.51599884033203,229.27499389648438 83.447998046875,228.63699340820312 C108.24700164794922,220.44500732421875 168.72300720214844,232.7519989013672 195.625,216.46499633789062 C196.38699340820312,216.11099243164062 197.15199279785156,215.7449951171875 197.91799926757812,215.36599731445312 C281.0769958496094,174.25999450683594 261.5710144042969,22.382999420166016 222.01100158691406,-6.9670000076293945z M-79.96399688720703,178.21400451660156 C-79.96399688720703,167.2989959716797 2.134999990463257,180.60800170898438 56.542999267578125,155.6909942626953 C9.312000274658203,208.31199645996094 -79.96399688720703,194.3280029296875 -79.96399688720703,178.21400451660156z"></path></g></g></g></svg>