<svg xmlns="http://www.w3.org/2000/svg" xmlns:xlink="http://www.w3.org/1999/xlink" viewBox="0 0 512 512" width="512" height="512" style="width: 100%; height: 100%; transform: translate3d(0,0,0);" preserveAspectRatio="xMidYMid meet"><defs><clipPath id="__lottie_element_9098"><rect width="512" height="512" x="0" y="0"></rect></clipPath></defs><g clip-path="url(#__lottie_element_9098)"><g style="display: block;" transform="matrix(1.0499999523162842,0,0,1.0499999523162842,1.7892608642578125,-3.3385009765625)" opacity="1"><g opacity="1" transform="matrix(1,0,0,1,239.21499633789062,249.97000122070312)"><path fill="rgb(0,0,0)" fill-opacity="1" d=" M201.03500366210938,-128.27999877929688 C211.03500366210938,-223.27999877929688 144.1649932861328,-249.72000122070312 131.03500366210938,-241.27999877929688 C124.26499938964844,-236.92999267578125 130.14500427246094,-218.9600067138672 129.03500366210938,-201.27999877929688 C127.84500122070312,-182.38999938964844 119.76499938964844,-163.85000610351562 115.03500366210938,-163.27999877929688 C16.03499984741211,-151.27999877929688 21.344999313354492,-99.9800033569336 5.695000171661377,-101.27999877929688 C-7.864999771118164,-102.41000366210938 5.695000171661377,-156.27999877929688 -101.96499633789062,-161.27999877929688 C-106.63500213623047,-161.5 -115.88500213623047,-178.9499969482422 -115.96499633789062,-198.27999877929688 C-116.03500366210938,-216.35000610351562 -107.78500366210938,-234.7899932861328 -111.96499633789062,-238.27999877929688 C-123.96499633789062,-248.27999877929688 -199.96499633789062,-217.27999877929688 -185.96499633789062,-130.27999877929688 C-183.73500061035156,-116.41999816894531 -221.0449981689453,-108.05000305175781 -209.96499633789062,-18.280000686645508 C-199.96499633789062,62.720001220703125 -60.084999084472656,178.42999267578125 7.034999847412109,178.72000122070312 C46.654998779296875,178.88999938964844 99.50499725341797,146.86000061035156 143.52499389648438,104.54000091552734 C160.1649932861328,130.52999877929688 164.9250030517578,147.32000732421875 132.03500366210938,178.72000122070312 C66.03500366210938,241.72000122070312 -57.26499938964844,161.83999633789062 -141.96499633789062,147.72000122070312 C-153.96499633789062,145.72000122070312 -146.06500244140625,113.30000305175781 -155.96499633789062,109.72000122070312 C-178.9550018310547,101.41999816894531 -238.96499633789062,187.72000122070312 -226.96499633789062,209.72000122070312 C-220.4149932861328,221.74000549316406 -126.69499969482422,235.7899932861328 -118.96499633789062,214.72000122070312 C-115.05500030517578,204.07000732421875 -132.19500732421875,194.11000061035156 -128.96499633789062,186.72000122070312 C-117.96499633789062,161.52000427246094 52.03499984741211,295.7200012207031 158.03500366210938,207.72000122070312 C225.03500366210938,152.10000610351562 197.09500122070312,84.56999969482422 178.09500122070312,66.87000274658203 C202.81500244140625,36.16999816894531 220.9250030517578,3.6600000858306885 226.03500366210938,-24.280000686645508 C238.96499633789062,-94.94999694824219 200.02499389648438,-118.63999938964844 201.03500366210938,-128.27999877929688z M-92.96499633789062,-75.31999969482422 C-125.55500030517578,-25.959999084472656 -98.65499877929688,9.460000038146973 -126.96499633789062,10.710000038146973 C-138.7449951171875,11.220000267028809 -147.61500549316406,-1.9700000286102295 -150.96499633789062,-6.940000057220459 C-170.05499267578125,-35.31999969482422 -165.09500122070312,-88.13999938964844 -135.96499633789062,-103.98999786376953 C-121.67500305175781,-111.7699966430664 -72.96499633789062,-105.61000061035156 -92.96499633789062,-75.31999969482422z"></path></g></g></g></svg>