<svg xmlns="http://www.w3.org/2000/svg" xmlns:xlink="http://www.w3.org/1999/xlink" viewBox="0 0 512 512" width="512" height="512" style="width: 100%; height: 100%; transform: translate3d(0,0,0);" preserveAspectRatio="xMidYMid meet"><defs><clipPath id="__lottie_element_51685"><rect width="512" height="512" x="0" y="0"></rect></clipPath></defs><g clip-path="url(#__lottie_element_51685)"><g style="display: block;" transform="matrix(1,0,0,1,-1078.0069580078125,-44.760986328125)" opacity="1"><g opacity="1" transform="matrix(1,0,0,1,0,0)"><g opacity="1" transform="matrix(1,0,0,1,1208.77001953125,345.5849914550781)"><path fill="rgb(0,0,0)" fill-opacity="1" d=" M-34.64400100708008,98.2750015258789 C-46.319000244140625,99.96099853515625 -68.43000030517578,70.6510009765625 -74.88200378417969,59.6609992980957 C-77.23600006103516,55.77899932861328 -79.50399780273438,50.90700149536133 -78.43800354003906,46.47999954223633 C-77.8550033569336,43.88399887084961 -76.22200012207031,41.534000396728516 -73.96199798583984,39.3380012512207 C-32.0260009765625,5.4629998207092285 2.5490000247955322,-35.542999267578125 26.5049991607666,-84.802001953125 C33.345001220703125,-99.95999908447266 40.702999114990234,-97.05000305175781 54.9640007019043,-94.52799987792969 C68.51899719238281,-92.43299865722656 79.10600280761719,-93.9229965209961 79.32599639892578,-76.22000122070312 C79.50299835205078,-67.51899719238281 79.00700378417969,-60.07500076293945 77.1969985961914,-52.104000091552734 C74.19200134277344,-37.86199951171875 65.77300262451172,-26.19099998474121 56.970001220703125,-15.015999794006348 C29.322999954223633,20.41900062561035 2.2780001163482666,56.45100021362305 -25.559999465942383,91.76499938964844 C-28.413999557495117,95.15399932861328 -31.37700080871582,97.7040023803711 -34.50199890136719,98.25 C-34.50199890136719,98.25 -34.64400100708008,98.2750015258789 -34.64400100708008,98.2750015258789z"></path></g><g opacity="1" transform="matrix(1,0,0,1,1161.7330322265625,304.1419982910156)"><path fill="rgb(0,0,0)" fill-opacity="1" d=" M34.0369987487793,-81.69499969482422 C38.356998443603516,-82.29100036621094 42.12900161743164,-79.25199890136719 45.808998107910156,-76.66000366210938 C50.645999908447266,-73.01399993896484 56.22800064086914,-69.26399993896484 60.137001037597656,-66.73200225830078 C61.74300003051758,-65.66100311279297 63.36399841308594,-64.46299743652344 64.28800201416016,-62.83300018310547 C65.44100189208984,-60.80099868774414 65.1050033569336,-58.2869987487793 63.81700134277344,-54.974998474121094 C42.20000076293945,-9.383999824523926 8.619000434875488,28.965999603271484 -28.642000198364258,62.012001037597656 C-50.577999114990234,82.29100036621094 -55.41600036621094,49.8380012512207 -58.98899841308594,33.63800048828125 C-60.48699951171875,24.371999740600586 -65.44100189208984,1.3459999561309814 -56.2400016784668,-3.325000047683716 C-50.27299880981445,-7.02400016784668 -36.37900161743164,-15.508999824523926 -19.011999130249023,-30.257999420166016 C-13.894000053405762,-34.60300064086914 -8.39799976348877,-39.54100036621094 -3.690000057220459,-44.02399826049805 C6.306000232696533,-53.5369987487793 13.628000259399414,-61.678001403808594 22.53700065612793,-72.31500244140625 C25.76099967956543,-76.27899932861328 30.090999603271484,-81.1449966430664 33.904998779296875,-81.6729965209961 C33.904998779296875,-81.6729965209961 34.0369987487793,-81.69499969482422 34.0369987487793,-81.69499969482422z"></path></g><g opacity="1" transform="matrix(1,0,0,1,1295.510986328125,145.52699279785156)"><path fill="rgb(0,0,0)" fill-opacity="1" d=" M128.37399291992188,2.368000030517578 C127.99800109863281,-0.5609999895095825 125.66699981689453,-3.365000009536743 123.78900146484375,-5.723999977111816 C116.4540023803711,-14.663000106811523 108.9000015258789,-23.48900032043457 101.05899810791016,-31.996999740600586 C70.48999786376953,-65.61599731445312 37.38199996948242,-93.19599914550781 -11.008000373840332,-89.48799896240234 C-45.13100051879883,-87.11799621582031 -77.30400085449219,-74.7229995727539 -105.4540023803711,-55.555999755859375 C-115.20500183105469,-49.053001403808594 -126.23600006103516,-40.361000061035156 -127.7760009765625,-28.183000564575195 C-128.54600524902344,-1.5989999771118164 -115.56500244140625,32.790000915527344 -95.58899688720703,53.672000885009766 C-62.88199996948242,86.07099914550781 -22.941999435424805,93.19599914550781 36.483001708984375,88.61100006103516 C42.659000396728516,88.01100158691406 49.917999267578125,86.8280029296875 52.49300003051758,80.76799774169922 C53.95100021362305,77.43000030517578 54.05500030517578,73.58399963378906 54.60300064086914,69.95999908447266 C55.09700012207031,66.26200103759766 55.722999572753906,62.59299850463867 56.487998962402344,58.93899917602539 C60.36800003051758,37.702999114990234 70.43699645996094,22.89900016784668 91.5719985961914,16.26099967956543 C100.67500305175781,13.265999794006348 109.9000015258789,11.86299991607666 118.97799682617188,9.562000274658203 C122.71499633789062,8.494000434875488 128.54600524902344,7.211999893188477 128.38499450683594,2.497999906539917 C128.38499450683594,2.497999906539917 128.37399291992188,2.368000030517578 128.37399291992188,2.368000030517578z M14.170000076293945,9.61299991607666 C0.3580000102519989,10.717000007629395 -11.427000045776367,-3.6710000038146973 -8.803999900817871,-17.13599967956543 C-4.988999843597412,-39.60300064086914 25.106000900268555,-45.875 36.71699905395508,-25.75200080871582 C46.099998474121094,-10.39799976348877 30.31999969482422,8.526000022888184 14.366000175476074,9.600000381469727 C14.366000175476074,9.600000381469727 14.170000076293945,9.61299991607666 14.170000076293945,9.61299991607666z"></path></g><g opacity="1" transform="matrix(1,0,0,1,1133.010986328125,157.76100158691406)"><path fill="rgb(0,0,0)" fill-opacity="1" d=" M15.312999725341797,-31.43899917602539 C-1.1799999475479126,-39.07899856567383 -17.889999389648438,10.359999656677246 -22.586000442504883,24.042999267578125 C-24.275999069213867,29.304000854492188 -27.187000274658203,39.077999114990234 -17.881999969482422,34.047000885009766 C-7.692999839782715,28.014999389648438 4.186999797821045,19.520000457763672 13.79699993133545,14.151000022888184 C23.542999267578125,8.958999633789062 27.187000274658203,5.090000152587891 24.18000030517578,-7.004000186920166 C22.996000289916992,-11.873000144958496 21.82699966430664,-17.090999603271484 20.823999404907227,-21.950000762939453 C19.85099983215332,-26.336999893188477 18.163000106811523,-29.878999710083008 15.442999839782715,-31.367000579833984 C15.442999839782715,-31.367000579833984 15.312999725341797,-31.43899917602539 15.312999725341797,-31.43899917602539z"></path></g><g opacity="1" transform="matrix(1,0,0,1,1137.654052734375,234.1540069580078)"><path fill="rgb(0,0,0)" fill-opacity="1" d=" M25.839000701904297,-53.21799850463867 C20.851999282836914,-54.529998779296875 14.961000442504883,-50.99800109863281 10.380000114440918,-48.08000183105469 C4.494999885559082,-44.319000244140625 -1.3240000009536743,-40.24399948120117 -6.892000198364258,-36.124000549316406 C-27.090999603271484,-21.17300033569336 -36.29100036621094,-13.656000137329102 -39.51499938964844,12.258999824523926 C-40.23699951171875,19.020000457763672 -45.45800018310547,54.52899932861328 -31.172000885009766,46.14799880981445 C-28.496999740600586,45.334999084472656 41.77299880981445,-4.414000034332275 44.95100021362305,-25.135000228881836 C45.45899963378906,-31.659000396728516 40.85900115966797,-35.91600036621094 37.00199890136719,-42.04899978637695 C34.10300064086914,-46.29800033569336 31.166000366210938,-51.65800094604492 25.99799919128418,-53.17599868774414 C25.99799919128418,-53.17599868774414 25.839000701904297,-53.21799850463867 25.839000701904297,-53.21799850463867z"></path></g><g opacity="1" transform="matrix(1,0,0,1,1326.2559814453125,274.20001220703125)"><path fill="rgb(0,0,0)" fill-opacity="1" d=" M-13.91100025177002,-22.260000228881836 C-18.700000762939453,-21.889999389648438 -24.809999465942383,-22.527000427246094 -25.700000762939453,-17.010000228881836 C-26.309999465942383,-11.324000358581543 -25.197999954223633,-6.241000175476074 -25.238000869750977,0.289000004529953 C-25.118000030517578,5.25600004196167 -25.18400001525879,10.354999542236328 -25.246999740600586,15.204999923706055 C-25.0939998626709,17.611000061035156 -25.891000747680664,24.615999221801758 -22.118000030517578,22.642000198364258 C-18.55699920654297,20.45800018310547 -14.831000328063965,15.515000343322754 -10.010000228881836,11.484999656677246 C-4.188000202178955,6.4720001220703125 2.492000102996826,2.440000057220459 9.642999649047852,-0.2590000033378601 C15.121999740600586,-2.427999973297119 22.357999801635742,-3.5869998931884766 24.072999954223633,-8.447999954223633 C26.309999465942383,-13.895999908447266 22.541000366210938,-21.6560001373291 16.591999053955078,-23.30299949645996 C12.72599983215332,-24.614999771118164 7.784999847412109,-23.770999908447266 2.940999984741211,-23.36400032043457 C-2.5409998893737793,-22.860000610351562 -8.182000160217285,-22.514999389648438 -13.704999923706055,-22.270000457763672 C-13.704999923706055,-22.270000457763672 -13.91100025177002,-22.260000228881836 -13.91100025177002,-22.260000228881836z"></path></g><g opacity="1" transform="matrix(1,0,0,1,1385.7330322265625,412.79998779296875)"><path fill="rgb(0,0,0)" fill-opacity="1" d=" M-122.08899688720703,78.67500305175781 C-115.47899627685547,80.83699798583984 -109.08599853515625,83.89800262451172 -103.94100189208984,88.64099884033203 C-97.78399658203125,94.1780014038086 -93.41500091552734,102.02899932861328 -88.71900177001953,109.06400299072266 C-84.48899841308594,115.322998046875 -80.177001953125,122.06800079345703 -75.60900115966797,127.95800018310547 C-72.2020034790039,132.00799560546875 -69.14399719238281,131.3979949951172 -63.691001892089844,131.45799255371094 C-53.95600128173828,131.4409942626953 -39.60100173950195,131.4709930419922 -29.54800033569336,131.45799255371094 C-25.85300064086914,131.36099243164062 -18.91699981689453,131.75 -16.954999923706055,131.08099365234375 C-15.880000114440918,130.70799255371094 -15.565999984741211,129.9530029296875 -15.86400032043457,128.74200439453125 C-20.812000274658203,117.73400115966797 -29.309999465942383,107.91699981689453 -35.51599884033203,97.45800018310547 C-37.65599822998047,93.56800079345703 -41.13999938964844,88.97799682617188 -39.70399856567383,84.39800262451172 C-38.11800003051758,80.43499755859375 -33.55699920654297,78.89399719238281 -29.695999145507812,77.80400085449219 C-16.57200050354004,73.62899780273438 -9.918999671936035,81.24700164794922 -2.5510001182556152,90.38500213623047 C8.020000457763672,103.23500061035156 18.07699966430664,116.71499633789062 29.641000747680664,128.63699340820312 C32.507999420166016,131.14500427246094 35.03499984741211,131.4709930419922 38.81800079345703,131.45599365234375 C41.47700119018555,131.46200561523438 45.01499938964844,131.45700073242188 49.013999938964844,131.45799255371094 C49.013999938964844,131.45799255371094 75.5,131.45799255371094 75.5,131.45799255371094 C91.947998046875,130.9720001220703 96.33599853515625,134.5800018310547 83.46499633789062,118.54000091552734 C76.88899993896484,109.98799896240234 70.45600128173828,101.49099731445312 64.10900115966797,92.875 C61.64500045776367,89.38200378417969 58.67599868774414,85.68699645996094 57.81999969482422,81.45099639892578 C56.06100082397461,71.90299987792969 69.13099670410156,69.36900329589844 76.27200317382812,71.26200103759766 C82.62699890136719,72.62699890136719 87.8759994506836,76.91400146484375 92.36000061035156,81.46399688720703 C107.85099792480469,97.05999755859375 121.93800354003906,114.41200256347656 139.06500244140625,128.2480010986328 C144.2740020751953,132.06100463867188 148.13900756835938,131.38099670410156 154.94000244140625,131.45799255371094 C154.94000244140625,131.45799255371094 180.14700317382812,131.45799255371094 180.14700317382812,131.45799255371094 C184.531005859375,131.4429931640625 187.94900512695312,131.593994140625 189.02099609375,130.8040008544922 C190.10400390625,130.0019989013672 189.30599975585938,128.91799926757812 188.17100524902344,127.27400207519531 C184.08399963378906,122.28199768066406 179.4239959716797,117.43399810791016 175.0679931640625,112.58699798583984 C162.53700256347656,98.875 149.9219970703125,85.15899658203125 137.51100158691406,71.35900115966797 C133.8209991455078,66.91300201416016 127.27200317382812,60.983001708984375 130.73399353027344,54.827999114990234 C135.60299682617188,47.58000183105469 152.58099365234375,44.88800048828125 160.6909942626953,43.9109992980957 C166.20799255371094,42.941001892089844 176.92100524902344,44.1510009765625 178.5260009765625,37.51599884033203 C179.18899536132812,33.83700180053711 174.6020050048828,29.167999267578125 171.41600036621094,26.49799919128418 C144.0469970703125,3.6419999599456787 121.57499694824219,-23.836999893188477 102.3479995727539,-53.94499969482422 C98.94599914550781,-59.15999984741211 95.44400024414062,-64.31999969482422 91.65699768066406,-69.25399780273438 C71.03700256347656,-94.96600341796875 45.53499984741211,-120.74400329589844 12.54699993133545,-128.96800231933594 C-9.59000015258789,-134.5800018310547 -49.89699935913086,-132.51800537109375 -64.9530029296875,-113.28199768066406 C-76.41999816894531,-98.29000091552734 -70.8239974975586,-77.6729965209961 -65.81900024414062,-62.42300033569336 C-51.70100021362305,-16.666000366210938 -8.887999534606934,13.779999732971191 40.3380012512207,9.503000259399414 C47.143001556396484,8.998000144958496 53.94300079345703,7.896999835968018 60.624000549316406,7.051000118255615 C65.05000305175781,6.547999858856201 69.46800231933594,5.750999927520752 73.62000274658203,6.730000019073486 C82.37300109863281,9.09000015258789 78.95600128173828,17.656999588012695 72.38700103759766,20.701000213623047 C68.09400177001953,22.95199966430664 63.321998596191406,24.13599967956543 58.62200164794922,25.233999252319336 C36.74300003051758,30.187000274658203 12.836999893188477,26.628999710083008 -8.315999984741211,20.60700035095215 C-45.51900100708008,9.496000289916992 -80.5479965209961,-21.829999923706055 -87.55599975585938,-85.78600311279297 C-88.44000244140625,-92.13200378417969 -90.73100280761719,-95.30999755859375 -96.00499725341797,-90.35600280761719 C-130.2570037841797,-56.130001068115234 -156.88999938964844,-15.265999794006348 -183.5240020751953,24.881000518798828 C-186.6739959716797,29.85700035095215 -190.10499572753906,36.0620002746582 -189.6649932861328,41.86800003051758 C-189.21499633789062,47.75400161743164 -184.5760040283203,52.44300079345703 -180.14100646972656,56.029998779296875 C-170.82000732421875,63.72200012207031 -159.7480010986328,67.85700225830078 -148.25100708007812,70.86399841308594 C-139.55999755859375,73.41300201416016 -130.8679962158203,75.88300323486328 -122.2770004272461,78.61199951171875 C-122.2770004272461,78.61199951171875 -122.08899688720703,78.67500305175781 -122.08899688720703,78.67500305175781z"></path></g></g></g></g></svg>