<svg xmlns="http://www.w3.org/2000/svg" xmlns:xlink="http://www.w3.org/1999/xlink" viewBox="0 0 512 512" width="512" height="512" style="width: 100%; height: 100%; transform: translate3d(0,0,0);" preserveAspectRatio="xMidYMid meet"><defs><clipPath id="__lottie_element_52881"><rect width="512" height="512" x="0" y="0"></rect></clipPath></defs><g clip-path="url(#__lottie_element_52881)"><g style="display: block;" transform="matrix(1,0,0,1,256,256)" opacity="1"><g opacity="1" transform="matrix(1,0,0,1,0,0)"><path fill="rgb(0,0,0)" fill-opacity="1" d=" M239.8820037841797,-28.940000534057617 C239.8820037841797,-28.940000534057617 140.24600219726562,-67.06400299072266 140.24600219726562,-67.06400299072266 C136.30499267578125,-68.5719985961914 134.1060028076172,-72.77899932861328 135.11700439453125,-76.8759994506836 C135.11700439453125,-76.8759994506836 160.68499755859375,-180.447998046875 160.68499755859375,-180.447998046875 C162.35299682617188,-187.20599365234375 155.51499938964844,-192.9239959716797 149.15899658203125,-190.08599853515625 C149.15899658203125,-190.08599853515625 51.74800109863281,-146.58999633789062 51.74800109863281,-146.58999633789062 C47.89500045776367,-144.8699951171875 43.36399841308594,-146.2899932861328 41.18199920654297,-149.90199279785156 C41.18199920654297,-149.90199279785156 -13.975000381469727,-241.2169952392578 -13.975000381469727,-241.2169952392578 C-17.573999404907227,-247.1750030517578 -26.45199966430664,-246.38299560546875 -28.940000534057617,-239.8820037841797 C-28.940000534057617,-239.8820037841797 -67.06400299072266,-140.24600219726562 -67.06400299072266,-140.24600219726562 C-68.5719985961914,-136.30499267578125 -72.77899932861328,-134.1060028076172 -76.8759994506836,-135.11700439453125 C-76.8759994506836,-135.11700439453125 -180.447998046875,-160.68499755859375 -180.447998046875,-160.68499755859375 C-187.20599365234375,-162.35299682617188 -192.9239959716797,-155.51499938964844 -190.08599853515625,-149.15899658203125 C-190.08599853515625,-149.15899658203125 -146.58999633789062,-51.74800109863281 -146.58999633789062,-51.74800109863281 C-144.8699951171875,-47.89500045776367 -146.2899932861328,-43.36399841308594 -149.90199279785156,-41.18199920654297 C-149.90199279785156,-41.18199920654297 -241.2169952392578,13.975000381469727 -241.2169952392578,13.975000381469727 C-247.1750030517578,17.573999404907227 -246.38299560546875,26.45199966430664 -239.8820037841797,28.940000534057617 C-239.8820037841797,28.940000534057617 -140.24600219726562,67.06400299072266 -140.24600219726562,67.06400299072266 C-136.30499267578125,68.5719985961914 -134.1060028076172,72.77899932861328 -135.11700439453125,76.8759994506836 C-135.11700439453125,76.8759994506836 -160.68499755859375,180.447998046875 -160.68499755859375,180.447998046875 C-162.35299682617188,187.20599365234375 -155.51499938964844,192.9239959716797 -149.15899658203125,190.08599853515625 C-149.15899658203125,190.08599853515625 -51.74800109863281,146.58999633789062 -51.74800109863281,146.58999633789062 C-47.89500045776367,144.8699951171875 -43.36399841308594,146.2899932861328 -41.18199920654297,149.90199279785156 C-41.18199920654297,149.90199279785156 13.975000381469727,241.2169952392578 13.975000381469727,241.2169952392578 C17.573999404907227,247.1750030517578 26.45199966430664,246.38299560546875 28.940000534057617,239.8820037841797 C28.940000534057617,239.8820037841797 67.06400299072266,140.24600219726562 67.06400299072266,140.24600219726562 C68.5719985961914,136.30499267578125 72.77899932861328,134.1060028076172 76.8759994506836,135.11700439453125 C76.8759994506836,135.11700439453125 180.447998046875,160.68499755859375 180.447998046875,160.68499755859375 C187.20599365234375,162.35299682617188 192.9239959716797,155.51499938964844 190.08599853515625,149.15899658203125 C190.08599853515625,149.15899658203125 146.58999633789062,51.74800109863281 146.58999633789062,51.74800109863281 C144.8699951171875,47.89500045776367 146.2899932861328,43.36399841308594 149.90199279785156,41.18199920654297 C149.90199279785156,41.18199920654297 241.2169952392578,-13.975000381469727 241.2169952392578,-13.975000381469727 C247.1750030517578,-17.573999404907227 246.38299560546875,-26.45199966430664 239.8820037841797,-28.940000534057617z M11.354000091552734,127.2770004272461 C7.511000156402588,127.62000274658203 3.691999912261963,127.78900146484375 -0.0949999988079071,127.78900146484375 C-65.47000122070312,127.78900146484375 -121.36000061035156,77.69200134277344 -127.2770004272461,11.354000091552734 C-127.2770004272461,11.354000091552734 -127.2770004272461,11.352999687194824 -127.2770004272461,11.352999687194824 C-133.53700256347656,-58.827999114990234 -81.53500366210938,-121.01699829101562 -11.354000091552734,-127.2770004272461 C58.84000015258789,-133.53399658203125 121.01699829101562,-81.53500366210938 127.2770004272461,-11.354000091552734 C133.53700256347656,58.82699966430664 81.53500366210938,121.01699829101562 11.354000091552734,127.2770004272461z"></path></g><g opacity="1" transform="matrix(1,0,0,1,0,0)"><path fill="rgb(0,0,0)" fill-opacity="1" d=" M95.40399932861328,-8.510000228881836 C90.71199798583984,-61.1150016784668 44.097999572753906,-100.08899688720703 -8.510000228881836,-95.40399932861328 C-61.1150016784668,-90.71099853515625 -100.09600067138672,-44.09600067138672 -95.40399932861328,8.510000228881836 C-95.40399932861328,8.510000228881836 -95.40399932861328,8.510000228881836 -95.40399932861328,8.510000228881836 C-90.71099853515625,61.11600112915039 -44.09199905395508,100.09500122070312 8.510000228881836,95.40399932861328 C61.1150016784668,90.71099853515625 100.09600067138672,44.09600067138672 95.40399932861328,-8.510000228881836z"></path></g></g></g></svg>