<svg xmlns="http://www.w3.org/2000/svg" xmlns:xlink="http://www.w3.org/1999/xlink" viewBox="0 0 512 512" width="512" height="512" style="width: 100%; height: 100%; transform: translate3d(0,0,0);" preserveAspectRatio="xMidYMid meet"><defs><clipPath id="__lottie_element_52960"><rect width="512" height="512" x="0" y="0"></rect></clipPath></defs><g clip-path="url(#__lottie_element_52960)"><g style="display: block;" transform="matrix(1,0,0,1,-10.007003784179688,-654.760009765625)" opacity="1"><g opacity="1" transform="matrix(1,0,0,1,266.8030090332031,912.5750122070312)"><path fill="rgb(0,0,0)" fill-opacity="1" d=" M-123.33899688720703,152.09800720214844 C-123.33899688720703,147.44000244140625 -123.21099853515625,142.7760009765625 -123.38200378417969,138.12399291992188 C-123.50700378417969,134.71800231933594 -124.35900115966797,130.60000610351562 -128.24099731445312,130.71200561523438 C-130.92999267578125,130.7899932861328 -134.43800354003906,133.26800537109375 -135.9949951171875,135.69200134277344 C-139.93899536132812,141.82899475097656 -142.54400634765625,148.8249969482422 -146.48399353027344,154.96400451660156 C-156.13900756835938,170.00399780273438 -175.4810028076172,172.1909942626953 -186.9429931640625,158.7480010986328 C-208.4949951171875,133.47000122070312 -212.2899932861328,94.88899993896484 -191.8489990234375,68.15299987792969 C-187.41600036621094,62.35499954223633 -182.656005859375,56.805999755859375 -178.2449951171875,50.99300003051758 C-177.65199279785156,50.21200180053711 -177.7239990234375,48.03099822998047 -178.37100219726562,47.39400100708008 C-179.67999267578125,46.10499954223633 -181.91000366210938,44.33100128173828 -183.2030029296875,44.70100021362305 C-187.60899353027344,45.9630012512207 -191.92300415039062,47.78499984741211 -196.0030059814453,49.90800094604492 C-208.68800354003906,56.5099983215332 -220.50799560546875,55.23400115966797 -231.25799560546875,46.047000885009766 C-242.43299865722656,36.49700164794922 -246.3470001220703,24.448999404907227 -242.17799377441406,10.130000114440918 C-235.61399841308594,-12.418000221252441 -222.5709991455078,-30.43600082397461 -203.87600708007812,-44.51300048828125 C-199.1020050048828,-48.106998443603516 -194.05299377441406,-51.52399826049805 -190.05499267578125,-55.87200164794922 C-188.23399353027344,-57.85200119018555 -187.40499877929688,-62.422000885009766 -188.42100524902344,-64.86199951171875 C-189.4429931640625,-67.31600189208984 -193.40899658203125,-70.2020034790039 -195.91900634765625,-70.05500030517578 C-202.4290008544922,-69.67400360107422 -209.00100708007812,-68.21499633789062 -215.2570037841797,-66.25599670410156 C-220.27999877929688,-64.68399810791016 -224.79100036621094,-61.54600143432617 -229.6840057373047,-59.46799850463867 C-235.8249969482422,-56.861000061035156 -240.0260009765625,-60.007999420166016 -239.822998046875,-66.9469985961914 C-239.72500610351562,-70.26300048828125 -239.6739959716797,-73.6989974975586 -238.78799438476562,-76.85099792480469 C-235.72999572753906,-87.73100280761719 -232.86000061035156,-98.71399688720703 -228.91700744628906,-109.28399658203125 C-221.57200622558594,-128.9759979248047 -207.1699981689453,-140.66700744628906 -186.37899780273438,-144.32400512695312 C-181.1300048828125,-145.2480010986328 -175.7790069580078,-145.81100463867188 -170.68499755859375,-147.27499389648438 C-168.53500366210938,-147.89199829101562 -165.79800415039062,-150.17599487304688 -165.39100646972656,-152.13099670410156 C-164.96400451660156,-154.18699645996094 -166.50999450683594,-157.18499755859375 -168.08599853515625,-158.99600219726562 C-170.22999572753906,-161.46099853515625 -173.4459991455078,-162.95899963378906 -175.80099487304688,-165.27999877929688 C-180.9810028076172,-170.38400268554688 -181.8350067138672,-177.10800170898438 -178.23300170898438,-183.51199340820312 C-174.5489959716797,-190.05799865722656 -169.39700317382812,-195.3350067138672 -162.59100341796875,-198.49600219726562 C-145.8699951171875,-206.25999450683594 -129.11599731445312,-207.4340057373047 -113.18800354003906,-196.59100341796875 C-106.62300109863281,-192.1219940185547 -100.64700317382812,-186.7530059814453 -94.61299896240234,-181.5489959716797 C-90.59100341796875,-178.0800018310547 -87.06400299072266,-174.04200744628906 -83.08499908447266,-170.5189971923828 C-80.00399780273438,-167.79100036621094 -74.58799743652344,-170.17300415039062 -74.10199737548828,-174.55499267578125 C-73.74500274658203,-177.77499389648438 -74.03299713134766,-181.0989990234375 -74.3219985961914,-184.35000610351562 C-75.02400207519531,-192.2740020751953 -76.2770004272461,-200.16700744628906 -76.60700225830078,-208.1020050048828 C-77.09600067138672,-219.8939971923828 -71.06099700927734,-228.3300018310547 -61.486000061035156,-234.52000427246094 C-50.60599899291992,-241.55599975585938 -38.28499984741211,-245.0240020751953 -25.722999572753906,-246.19200134277344 C-15.868000030517578,-247.10899353027344 -5.146999835968018,-243.30599975585938 -4.894999980926514,-227.73699951171875 C-4.744999885559082,-218.41900634765625 -4.389999866485596,-209.10000610351562 -3.9130001068115234,-199.79299926757812 C-3.746000051498413,-196.531005859375 -3.2170000076293945,-193.2270050048828 -2.3580000400543213,-190.0760040283203 C-1.2649999856948853,-186.06700134277344 4.817999839782715,-184.93699645996094 7.336999893188477,-188.4149932861328 C10.029999732971191,-192.13299560546875 12.083999633789062,-196.32000732421875 14.350000381469727,-200.33900451660156 C18.26300048828125,-207.2790069580078 21.85300064086914,-214.41799926757812 26.084999084472656,-221.156005859375 C30.236000061035156,-227.76499938964844 36.66299819946289,-230.8419952392578 44.457000732421875,-231.6479949951172 C58.404998779296875,-233.09100341796875 80.53900146484375,-234.83799743652344 81.81099700927734,-220.97799682617188 C84.4540023803711,-192.1959991455078 96.20899963378906,-213.1269989013672 105.5780029296875,-214.31399536132812 C124.08300018310547,-216.66099548339844 141.40899658203125,-211.8249969482422 156.54299926757812,-201.00399780273438 C161.75100708007812,-197.27999877929688 166.4499969482422,-191.91099548339844 169.46099853515625,-186.27000427246094 C173.91700744628906,-177.9219970703125 170.9600067138672,-172.4759979248047 163.98699951171875,-170.1179962158203 C158.9929962158203,-168.4290008544922 152.42799377441406,-166.6739959716797 153.05299377441406,-160.31900024414062 C153.78599548339844,-152.86900329589844 161.09800720214844,-152.781005859375 166.98199462890625,-151.98300170898438 C170.27999877929688,-151.53500366210938 173.66299438476562,-151.50399780273438 176.88800048828125,-150.76300048828125 C193.9709930419922,-146.84300231933594 207.53500366210938,-138.05999755859375 215.5590057373047,-121.96399688720703 C222.7760009765625,-107.48899841308594 228.1479949951172,-92.5459976196289 226.27999877929688,-75.95800018310547 C225.41099548339844,-68.24400329589844 222.1060028076172,-66.09700012207031 214.01499938964844,-67.77899932861328 C208.1580047607422,-68.99800109863281 202.343994140625,-70.86799621582031 196.44000244140625,-71.20500183105469 C193.78500366210938,-71.35800170898438 190.2519989013672,-69.03299713134766 188.4739990234375,-66.76799774169922 C187.43099975585938,-65.43800354003906 188.24600219726562,-61.35900115966797 189.6300048828125,-59.65800094604492 C193.81100463867188,-54.516998291015625 198.67300415039062,-49.926998138427734 203.27999877929688,-45.13399887084961 C210.19500732421875,-37.93899917602539 217.52000427246094,-31.091999053955078 223.94000244140625,-23.481000900268555 C232.65699768066406,-13.145999908447266 238.22999572753906,-1.0449999570846558 241.0290069580078,12.222999572753906 C246.34800720214844,37.4379997253418 232.4429931640625,51.499000549316406 207.57400512695312,45.909000396728516 C201.093994140625,44.45199966430664 194.8820037841797,41.750999450683594 188.37899780273438,40.486000061035156 C185.53599548339844,39.93299865722656 181.04600524902344,40.57400131225586 179.5330047607422,42.459999084472656 C177.93699645996094,44.45000076293945 178.06500244140625,48.917999267578125 179.093994140625,51.68899917602539 C181.15699768066406,57.250999450683594 183.68299865722656,62.88800048828125 187.2030029296875,67.61199951171875 C195.89500427246094,79.27999877929688 199.04400634765625,92.68499755859375 201.4980010986328,106.5770034790039 C205.40899658203125,128.71400451660156 196.88499450683594,145.7480010986328 180.00799560546875,159.02200317382812 C174.35899353027344,163.46499633789062 167.38400268554688,166.31500244140625 160.8090057373047,169.46200561523438 C155.22000122070312,172.13699340820312 150.5709991455078,169.65699768066406 146.37600708007812,165.7760009765625 C140.6529998779297,160.47900390625 139.03900146484375,153.21200561523438 136.97500610351562,146.23500061035156 C134.45700073242188,137.7239990234375 130.55299377441406,130.21600341796875 123.59600067138672,124.48500061035156 C119.3759994506836,121.01000213623047 113.58399963378906,122.677001953125 113.00800323486328,128.01699829101562 C112.44599914550781,133.22799682617188 112.75199890136719,138.5659942626953 113.03500366210938,143.8280029296875 C113.53500366210938,153.12600708007812 114.51100158691406,162.39999389648438 114.91699981689453,171.7010040283203 C115.52899932861328,185.7220001220703 110.13700103759766,197.7449951171875 101.56600189208984,208.43600463867188 C91.98600006103516,220.38299560546875 79.01200103759766,224.30999755859375 64.22799682617188,223.29400634765625 C58.2400016784668,222.88299560546875 54.367000579833984,219.2790069580078 52.65999984741211,213.77000427246094 C50.49599838256836,206.78900146484375 49.034000396728516,199.58900451660156 46.821998596191406,192.625 C46.33100128173828,191.0780029296875 44.04800033569336,189.28399658203125 42.45600128173828,189.14599609375 C41.00199890136719,189.02000427246094 38.54999923706055,190.64599609375 37.95399856567383,192.08599853515625 C35.417999267578125,198.21400451660156 33.41999816894531,204.56399536132812 31.20400047302246,210.8260040283203 C28.98699951171875,217.08999633789062 27.389999389648438,223.6750030517578 24.384000778198242,229.53700256347656 C17.003999710083008,243.9290008544922 1.8029999732971191,247.10899353027344 -10.803000450134277,237.4739990234375 C-17.875999450683594,232.06900024414062 -22.952999114990234,225.08700561523438 -26.243000030517578,216.94900512695312 C-29.482999801635742,208.93299865722656 -32.10300064086914,200.66799926757812 -35.029998779296875,192.5240020751953 C-36.14699935913086,189.41700744628906 -37.125999450683594,186.22900390625 -38.58700180053711,183.28599548339844 C-40.47999954223633,179.4739990234375 -46.069000244140625,178.89100646972656 -48.70500183105469,182.24099731445312 C-50.736000061035156,184.8209991455078 -52.53900146484375,187.656005859375 -53.9900016784668,190.6009979248047 C-56.340999603271484,195.37399291992188 -58.1609992980957,200.40699768066406 -60.487998962402344,205.1929931640625 C-65.1709976196289,214.8209991455078 -73.4020004272461,218.11599731445312 -83.55899810791016,217.35800170898438 C-97.0989990234375,216.34800720214844 -107.6729965209961,210.2969970703125 -114.59600067138672,198.3979949951172 C-120.04900360107422,189.0240020751953 -123.18800354003906,178.91400146484375 -123.68399810791016,168.07699584960938 C-123.9280014038086,162.76100158691406 -123.7249984741211,157.4250030517578 -123.7249984741211,152.09800720214844 C-123.7249984741211,152.09800720214844 -123.33899688720703,152.09800720214844 -123.33899688720703,152.09800720214844z M-2.384000062942505,15.336000442504883 C-8.133000373840332,15.770999908447266 -12.164999961853027,15.73799991607666 -16.06800079345703,16.43400001525879 C-28.30299949645996,18.615999221801758 -31.885000228881836,25.638999938964844 -26.336999893188477,36.404998779296875 C-24.823999404907227,39.34000015258789 -22.854000091552734,42.05400085449219 -20.957000732421875,44.77299880981445 C-18.676000595092773,48.040000915527344 -15.949000358581543,51.02899932861328 -13.944999694824219,54.44900131225586 C-8.789999961853027,63.24599838256836 -11.968999862670898,71.53800201416016 -21.861000061035156,74.8759994506836 C-27.511999130249023,76.78399658203125 -33.428001403808594,77.88999938964844 -39.150001525878906,79.60600280761719 C-43.59199905395508,80.93800354003906 -48.112998962402344,82.25800323486328 -52.25299835205078,84.29000091552734 C-59.73500061035156,87.96399688720703 -62.11000061035156,95.19200134277344 -58.62799835205078,102.73300170898438 C-57.52899932861328,105.11199951171875 -56.04399871826172,107.39099884033203 -54.36800003051758,109.41100311279297 C-49.23699951171875,115.59700012207031 -43.606998443603516,117.3030014038086 -36.766998291015625,113.35900115966797 C-31.135000228881836,110.11100006103516 -26.101999282836914,105.63999938964844 -21.31999969482422,101.15799713134766 C-16.48699951171875,96.62799835205078 -12.449999809265137,91.26100158691406 -7.758999824523926,86.56500244140625 C-4.630000114440918,83.43199920654297 -0.3610000014305115,83.70800018310547 2.9179999828338623,86.83799743652344 C4.835000038146973,88.66899871826172 6.381999969482422,90.88500213623047 8.281000137329102,92.73799896240234 C14.463000297546387,98.7699966430664 20.45400047302246,105.04900360107422 27.094999313354492,110.53600311279297 C29.952999114990234,112.89600372314453 34.220001220703125,114.69200134277344 37.862998962402344,114.72200012207031 C45.124000549316406,114.78199768066406 53.308998107910156,106.80699920654297 54.63199996948242,99.79900360107422 C55.9109992980957,93.02300262451172 52.12799835205078,86.96299743652344 43.801998138427734,82.78900146484375 C40.84000015258789,81.30400085449219 37.7130012512207,80.14099884033203 34.64699935913086,78.86699676513672 C30.351999282836914,77.08399963378906 25.945999145507812,75.53399658203125 21.7549991607666,73.53399658203125 C6.896999835968018,66.44499969482422 5.144000053405762,61.15700149536133 12.86299991607666,47.20199966430664 C15.432999610900879,42.55500030517578 18.465999603271484,38.13800048828125 20.726999282836914,33.35200119018555 C24.3799991607666,25.618000030517578 22.118999481201172,20.90999984741211 13.482999801635742,18.51300048828125 C7.763999938964844,16.924999237060547 1.819000005722046,16.15399932861328 -2.384000062942505,15.336000442504883z M-70.38400268554688,-69.1510009765625 C-78.33399963378906,-69.78299713134766 -86.28199768066406,-70.88500213623047 -94.23500061035156,-70.93299865722656 C-105.61599731445312,-71.00199890136719 -111.06600189208984,-63.9370002746582 -109.177001953125,-52.62200164794922 C-107.62899780273438,-43.34700012207031 -102.03199768066406,-37.073001861572266 -94.1259994506836,-32.683998107910156 C-86.9990005493164,-28.726999282836914 -79.21199798583984,-27.292999267578125 -71.08699798583984,-27.233999252319336 C-51.8489990234375,-27.0939998626709 -38.94599914550781,-40.444000244140625 -39.45199966430664,-60.11199951171875 C-39.56999969482422,-64.697998046875 -41.974998474121094,-67.8239974975586 -46.48099899291992,-68.1780014038086 C-54.428001403808594,-68.78099822998047 -62.40399932861328,-69.01399993896484 -70.37000274658203,-69.38099670410156 C-70.375,-69.30500030517578 -70.37999725341797,-69.22799682617188 -70.38400268554688,-69.1510009765625z M100.18000030517578,-67.63099670410156 C91.43800354003906,-70.69999694824219 81.48200225830078,-69.33399963378906 71.75399780273438,-69.12300109863281 C61.191001892089844,-68.89399719238281 50.61399841308594,-68.17900085449219 40.117000579833984,-67.00900268554688 C38.305999755859375,-66.80799865722656 36.03499984741211,-63.50400161743164 35.45399856567383,-61.25199890136719 C34.6609992980957,-58.18000030517578 34.650001525878906,-54.584999084472656 35.41400146484375,-51.487998962402344 C39.06800079345703,-36.6609992980957 51.625,-27.222000122070312 67.5739974975586,-26.860000610351562 C83.3290023803711,-26.500999450683594 94.48300170898438,-33.9739990234375 99.42400360107422,-48.691001892089844 C101.30000305175781,-54.27899932861328 103.0459976196289,-60.099998474121094 100.18000030517578,-67.63099670410156z"></path></g></g></g></svg>