<svg xmlns="http://www.w3.org/2000/svg" xmlns:xlink="http://www.w3.org/1999/xlink" viewBox="0 0 512 512" width="512" height="512" style="width: 100%; height: 100%; transform: translate3d(0,0,0);" preserveAspectRatio="xMidYMid meet"><defs><clipPath id="__lottie_element_53065"><rect width="512" height="512" x="0" y="0"></rect></clipPath></defs><g clip-path="url(#__lottie_element_53065)"><g style="display: block;" transform="matrix(1,0,0,1,-3803.007080078125,-651.760986328125)" opacity="1"><g opacity="1" transform="matrix(1,0,0,1,0,0)"><g opacity="1" transform="matrix(1,0,0,1,3968.031982421875,1030.1829833984375)"><path fill="rgb(0,0,0)" fill-opacity="1" d=" M-148.57000732421875,124.4219970703125 C-150.1009979248047,121.7300033569336 -148.218994140625,118.60399627685547 -144.92100524902344,114.45700073242188 C-142.63600158691406,111.69400024414062 -139.62899780273438,108.66899871826172 -136.7480010986328,105.73600006103516 C-100.74400329589844,69.58100128173828 -64.75,33.374000549316406 -28.42300033569336,-2.4790000915527344 C7.708000183105469,-37.970001220703125 42.24800109863281,-74.99199676513672 77.22899627685547,-111.55999755859375 C80.11299896240234,-114.49600219726562 83.08399963378906,-117.26300048828125 86.10900115966797,-119.25499725341797 C100.19200134277344,-129.1790008544922 111.66799926757812,-115.75900268554688 120.79000091552734,-106.01699829101562 C124.48799896240234,-102.11000061035156 128.1790008544922,-98.1969985961914 131.86399841308594,-94.27899932861328 C136.93800354003906,-88.88600158691406 142.2989959716797,-83.29199981689453 144.72900390625,-77.58000183105469 C150.1009979248047,-66.3219985961914 140.86099243164062,-56.35599899291992 132.43299865722656,-49.005001068115234 C81.28199768066406,-3.506999969482422 30.097999572753906,41.88600158691406 -17.836999893188477,90.76899719238281 C-24.73699951171875,97.56900024414062 -31.6200008392334,104.33899688720703 -38.5989990234375,111.05799865722656 C-44.185001373291016,116.39399719238281 -50.36199951171875,122.19200134277344 -57.016998291015625,124.81199645996094 C-67.94599914550781,129.17999267578125 -81.65299987792969,127.96499633789062 -93.5530014038086,128.42799377441406 C-105.39900207519531,128.5780029296875 -117.47000122070312,128.5570068359375 -130.11300659179688,128.48899841308594 C-135.77499389648438,128.21499633789062 -144.97900390625,128.85800170898438 -148.5240020751953,124.49600219726562 C-148.5240020751953,124.49600219726562 -148.57000732421875,124.4219970703125 -148.57000732421875,124.4219970703125z"></path></g><g opacity="1" transform="matrix(1,0,0,1,4191.5390625,1092.7989501953125)"><path fill="rgb(0,0,0)" fill-opacity="1" d=" M15.289999961853027,-42.9900016784668 C21.756000518798828,-35.816001892089844 28.261999130249023,-28.680999755859375 34.869998931884766,-21.642000198364258 C53.09000015258789,-1.8259999752044678 73.20500183105469,16.343000411987305 92.29199981689453,35.097999572753906 C106.78099822998047,49.237998962402344 123.31700134277344,64.26000213623047 89.7699966430664,64.2959976196289 C75.03800201416016,64.47100067138672 60.23400115966797,64.50800323486328 45.49100112915039,64.67400360107422 C30.025999069213867,64.48400115966797 13.012999534606934,66.48799896240234 -1.3680000305175781,61.78099822998047 C-18.12299919128418,56.10300064086914 -29.163999557495117,40.9109992980957 -41.834999084472656,29.488000869750977 C-56.91699981689453,14.960000038146973 -64.6969985961914,13.682000160217285 -49.70399856567383,33.90299987792969 C-33.356998443603516,55.016998291015625 -33.88600158691406,65.66400146484375 -63.941001892089844,65.18099975585938 C-223.031005859375,63.96200180053711 -225.03199768066406,70.96199798583984 -234.343994140625,58.2400016784668 C-244.31700134277344,48.354000091552734 -137.7740020751953,-43.7760009765625 -127.5270004272461,-53.48500061035156 C-101.33899688720703,-76.77200317382812 -80.03199768066406,-105.53800201416016 -63.266998291015625,-112.4219970703125 C-52.53200149536133,-115.03800201416016 -39.03200149536133,-105.03800201416016 -27.974000930786133,-92.65799713134766 C-27.974000930786133,-92.65799713134766 6.9629998207092285,-51.43899917602539 15.289999961853027,-42.9900016784668z"></path></g><g opacity="1" transform="matrix(1,0,0,1,4062.714111328125,872.5230102539062)"><path fill="rgb(0,0,0)" fill-opacity="1" d=" M-77.17900085449219,79.97100067138672 C-90.20800018310547,78.49099731445312 -94.66200256347656,57.18000030517578 -97.12899780273438,45.94599914550781 C-105.18599700927734,5.8979997634887695 -94.44200134277344,-32.46200180053711 -61.43000030517578,-57.80799865722656 C-49.29199981689453,-67.49400329589844 -35.25400161743164,-75.51000213623047 -19.863000869750977,-78.35399627685547 C-3.4749999046325684,-81.302001953125 13.654999732971191,-79.28500366210938 29.55900001525879,-74.56400299072266 C79.04000091552734,-60.79800033569336 105.18699645996094,-4.452000141143799 95.03600311279297,44.20500183105469 C92.56500244140625,55.8129997253418 88.197998046875,71.25900268554688 78.72799682617188,77.33699798583984 C72.42500305175781,81.302001953125 63.957000732421875,77.91300201416016 60.1870002746582,71.81999969482422 C50.97800064086914,57.933998107910156 61.459999084472656,40.96200180053711 61.04199981689453,25.304000854492188 C62.05500030517578,-11.32800006866455 31.51300048828125,-46.77899932861328 -6.354000091552734,-43.40299987792969 C-33.972999572753906,-41.90800094604492 -58.17399978637695,-19.437999725341797 -64.69000244140625,6.940000057220459 C-67.30899810791016,16.9060001373291 -67.44499969482422,27.04599952697754 -65.56199645996094,37.165000915527344 C-63.483001708984375,48.481998443603516 -59.875,60.042999267578125 -64.63800048828125,70.88600158691406 C-66.78600311279297,76.16300201416016 -72.18699645996094,80.41899871826172 -77.04199981689453,79.97799682617188 C-77.04199981689453,79.97799682617188 -77.17900085449219,79.97100067138672 -77.17900085449219,79.97100067138672z"></path></g><g opacity="1" transform="matrix(1,0,0,1,4206.84521484375,763.0250244140625)"><path fill="rgb(0,0,0)" fill-opacity="1" d=" M47.88600158691406,-46.05099868774414 C51.77399826049805,-41.77899932861328 46.895999908447266,-32.63399887084961 44.70500183105469,-26.902999877929688 C41.645999908447266,-19.792999267578125 38.41899871826172,-12.57699966430664 35.27399826049805,-5.453000068664551 C31.687000274658203,2.628000020980835 28.13599967956543,10.710000038146973 24.509000778198242,18.77899932861328 C20.048999786376953,28.434999465942383 15.789999961853027,38.5 7.53000020980835,43.72999954223633 C-2.7990000247955322,50.43600082397461 -19.666000366210938,48.54199981689453 -31.445999145507812,47.13100051879883 C-51.61000061035156,44.02000045776367 -51.775001525878906,29.632999420166016 -49.05400085449219,12.696000099182129 C-45.09700012207031,-22.229999542236328 -26.13800048828125,-23.73200035095215 2.490999937057495,-34.487998962402344 C8.071999549865723,-36.48899841308594 13.630000114440918,-38.483001708984375 19.249000549316406,-40.49700164794922 C26.209999084472656,-42.54899978637695 42.04800033569336,-50.4370002746582 47.81700134277344,-46.112998962402344 C47.81700134277344,-46.112998962402344 47.88600158691406,-46.05099868774414 47.88600158691406,-46.05099868774414z"></path></g><g opacity="1" transform="matrix(1,0,0,1,3914.544921875,764.8410034179688)"><path fill="rgb(0,0,0)" fill-opacity="1" d=" M-46.38999938964844,-48.28099822998047 C-45.066001892089844,-49.566001892089844 -42.48899841308594,-49.76499938964844 -39,-49.12300109863281 C-36.10499954223633,-48.60100173950195 -32.582000732421875,-47.481998443603516 -28.868000030517578,-46.1349983215332 C-21.30900001525879,-43.356998443603516 -13.800000190734863,-40.55400085449219 -6.298999786376953,-37.779998779296875 C1.815999984741211,-34.76900100708008 9.892000198364258,-31.7810001373291 17.992000579833984,-28.764999389648438 C26.22800064086914,-25.67799949645996 34.7869987487793,-22.459999084472656 40.45899963378906,-16.85700035095215 C48.70600128173828,-9.086000442504883 49.808998107910156,2.7950000762939453 49.749000549316406,13.586000442504883 C49.762001037597656,23.016000747680664 49.194000244140625,34.654998779296875 41.99800109863281,40.814998626708984 C31.33799934387207,49.763999938964844 9.345999717712402,48.75299835205078 -1.2130000591278076,39.69599914550781 C-7.9710001945495605,34.266998291015625 -12.586999893188477,25.43199920654297 -17.108999252319336,16.98699951171875 C-21.46500015258789,8.803999900817871 -25.79199981689453,0.6039999723434448 -30.128999710083008,-7.590000152587891 C-33.979000091552734,-14.890999794006348 -37.9370002746582,-22.302000045776367 -41.68600082397461,-29.590999603271484 C-44.21500015258789,-35.03799819946289 -49.808998107910156,-44.05699920654297 -46.45000076293945,-48.22200012207031 C-46.45000076293945,-48.22200012207031 -46.38999938964844,-48.28099822998047 -46.38999938964844,-48.28099822998047z"></path></g><g opacity="1" transform="matrix(1,0,0,1,4237.8330078125,902.375)"><path fill="rgb(0,0,0)" fill-opacity="1" d=" M62.27899932861328,-0.5910000205039978 C62.31399917602539,9.26099967956543 40.46500015258789,18.232999801635742 32.625999450683594,22.957000732421875 C10.706999778747559,34.91699981689453 -4.960000038146973,42.87099838256836 -27.149999618530273,26.461000442504883 C-48.36800003051758,12.300999641418457 -62.314998626708984,-13.583000183105469 -34.069000244140625,-28.933000564575195 C-8.538999557495117,-42.87099838256836 6.395999908447266,-35.9010009765625 30.385000228881836,-23.195999145507812 C35.672000885009766,-20.507999420166016 40.95199966430664,-17.82699966430664 46.20800018310547,-15.10099983215332 C52.21900177001953,-11.713000297546387 61.44300079345703,-7.9629998207092285 62.2760009765625,-0.7099999785423279 C62.2760009765625,-0.7099999785423279 62.27899932861328,-0.5910000205039978 62.27899932861328,-0.5910000205039978z"></path></g><g opacity="1" transform="matrix(1,0,0,1,3879.10791015625,902.1420288085938)"><path fill="rgb(0,0,0)" fill-opacity="1" d=" M-60.361000061035156,-1.3960000276565552 C-59.194000244140625,-9.829999923706055 -36.02399826049805,-17.606000900268555 -28.381999969482422,-21.85700035095215 C-2.438999891281128,-34.52000045776367 15.64900016784668,-41.99100112915039 41.500999450683594,-24.138999938964844 C60.880001068115234,-10.777000427246094 59.58100128173828,2.681999921798706 41.891998291015625,16.638999938964844 C16.874000549316406,37.01499938964844 4.315999984741211,41.99100112915039 -24.707000732421875,24.937999725341797 C-30.364999771118164,21.836000442504883 -36.04800033569336,18.707000732421875 -41.685001373291016,15.585000038146973 C-47.52199935913086,11.930999755859375 -60.880001068115234,6.413000106811523 -60.375999450683594,-1.2860000133514404 C-60.375999450683594,-1.2860000133514404 -60.361000061035156,-1.3960000276565552 -60.361000061035156,-1.3960000276565552z"></path></g><g opacity="1" transform="matrix(1,0,0,1,4063.35595703125,715.9169921875)"><path fill="rgb(0,0,0)" fill-opacity="1" d=" M-3.5139999389648438,-57.606998443603516 C5.688000202178955,-59.15299987792969 13.493000030517578,-36.36899948120117 17.43600082397461,-29.410999298095703 C29.614999771118164,-5.059999942779541 33.229000091552734,11.130999565124512 17.58099937438965,34.78799819946289 C2.825000047683716,59.152000427246094 -12.347999572753906,54.84400177001953 -27.834999084472656,31.90999984741211 C-38.229000091552734,10.234000205993652 -32.875,-9.52400016784668 -23.57699966430664,-30.702999114990234 C-20.30699920654297,-37.74599838256836 -11.442999839782715,-55.347999572753906 -3.625999927520752,-57.58599853515625 C-3.625999927520752,-57.58599853515625 -3.5139999389648438,-57.606998443603516 -3.5139999389648438,-57.606998443603516z"></path></g></g></g></g></svg>