<svg xmlns="http://www.w3.org/2000/svg" xmlns:xlink="http://www.w3.org/1999/xlink" viewBox="0 0 512 512" width="512" height="512" style="width: 100%; height: 100%; transform: translate3d(0,0,0);" preserveAspectRatio="xMidYMid meet"><defs><clipPath id="__lottie_element_15896"><rect width="512" height="512" x="0" y="0"></rect></clipPath></defs><g clip-path="url(#__lottie_element_15896)"><g style="display: block;" transform="matrix(1,0,0,1,-19.300003051757812,8.360000610351562)" opacity="1"><g opacity="1" transform="matrix(1,0,0,1,270.4049987792969,248.1699981689453)"><path fill="rgb(0,0,0)" fill-opacity="1" d=" M247.82400512695312,-23.56999969482422 C251.10499572753906,-43.779998779296875 191.32400512695312,-49.56999969482422 189.82400512695312,-64.56999969482422 C188.61399841308594,-76.7300033569336 208.03399658203125,-142.38999938964844 188.82400512695312,-161.55999755859375 C174.16400146484375,-176.1999969482422 130.32400512695312,-151.05999755859375 118.3239974975586,-166.05999755859375 C107.73500061035156,-179.30999755859375 87.8239974975586,-240.27999877929688 64.33499908447266,-244.05999755859375 C40.314998626708984,-247.9199981689453 4.894999980926514,-188.24000549316406 -9.164999961853027,-185.55999755859375 C-20.625,-183.3800048828125 -46.665000915527344,-233.55999755859375 -96.15499877929688,-226.05999755859375 C-115.29499816894531,-223.16000366210938 -114.15499877929688,-169.47000122070312 -123.15499877929688,-160.05999755859375 C-133.52499389648438,-149.22000122070312 -199.03500366210938,-154.22999572753906 -211.65499877929688,-131.55999755859375 C-222.3459930419922,-112.33999633789062 -192.88600158691406,-73.97000122070312 -193.65499877929688,-56.56999969482422 C-194.26499938964844,-42.77000045776367 -245.69500732421875,-1.3200000524520874 -240.15499877929688,25.93000030517578 C-236.1649932861328,45.52000045776367 -191.38600158691406,55.650001525878906 -190.65499877929688,66.43000030517578 C-189.31500244140625,86.11000061035156 -198.15499877929688,153.4199981689453 -164.15499877929688,179.9199981689453 C-148.97500610351562,191.75 -111.07499694824219,161.44000244140625 -100.65499877929688,163.9199981689453 C-90.68499755859375,166.3000030517578 -79.8550033569336,229.50999450683594 -52.665000915527344,229.9199981689453 C0.8949999809265137,230.72999572753906 4.894999980926514,199.27000427246094 19.334999084472656,196.9199981689453 C30.895000457763672,195.0399932861328 44.834999084472656,229.92999267578125 116.83499908447266,221.9199981689453 C126.3550033569336,220.86000061035156 135.94500732421875,170.0399932861328 145.32400512695312,159.4199981689453 C154.76499938964844,148.75 203.32400512695312,152.9199981689453 216.82400512695312,124.41999816894531 C226.21499633789062,104.5999984741211 190.32400512695312,73.93000030517578 199.32400512695312,57.43000030517578 C205.74400329589844,45.65999984741211 238.82400512695312,31.93000030517578 247.82400512695312,-23.56999969482422z M171.4250030517578,15.430000305175781 C169.73500061035156,36.36000061035156 143.82400512695312,45.43000030517578 143.19500732421875,22.239999771118164 C142.11399841308594,-17 124.3239974975586,-92.05999755859375 90.71499633789062,-103.08999633789062 C67.78399658203125,-110.61000061035156 14.835000038146973,-73.06999969482422 26.834999084472656,-64.06999969482422 C52.79499816894531,-44.599998474121094 85.40399932861328,23.18000030517578 61.334999084472656,27.43000030517578 C35.834999084472656,31.93000030517578 21.475000381469727,-32.56999969482422 -0.16500000655651093,-41.56999969482422 C-18.665000915527344,-49.2599983215332 -49.14500045776367,2.119999885559082 -43.665000915527344,6.429999828338623 C-22.665000915527344,22.93000030517578 3.5450000762939453,59.90999984741211 -18.165000915527344,66.43000030517578 C-33.165000915527344,70.93000030517578 -52.79499816894531,30.09000015258789 -64.66500091552734,30.43000030517578 C-73.3550033569336,30.68000030517578 -76.66500091552734,66.93000030517578 -93.15499877929688,56.43000030517578 C-107.9749984741211,47 -86.23500061035156,32.61000061035156 -93.15499877929688,10.930000305175781 C-100.29499816894531,-11.390000343322754 -131.8249969482422,-25.3700008392334 -137.15499877929688,-15.069999694824219 C-143.31500244140625,-3.1700000762939453 -146.0449981689453,55.15999984741211 -108.15499877929688,84.43000030517578 C-47.19499969482422,131.52999877929688 28.334999084472656,136.4199981689453 94.33499908447266,101.93000030517578 C105.69499969482422,95.98999786376953 101.78399658203125,121.4000015258789 95.83499908447266,126.41999816894531 C-48.165000915527344,247.9199981689453 -270.1549987792969,61.93000030517578 -134.73500061035156,-111.41999816894531 C-80.54499816894531,-180.8000030517578 26.834999084472656,-174.2100067138672 83.83499908447266,-146.55999755859375 C146.73500061035156,-116.04000091552734 178.32400512695312,-70.06999969482422 171.4250030517578,15.430000305175781z"></path></g><g opacity="1" transform="matrix(1,0,0,1,189.4550018310547,183.88999938964844)"><path fill="rgb(0,0,0)" fill-opacity="1" d=" M50.28499984741211,-3.2899999618530273 C37.28499984741211,9.210000038146973 21.125,38.29999923706055 10.28499984741211,42.209999084472656 C-2.4049999713897705,46.79999923706055 -28.844999313354492,15.170000076293945 -47.345001220703125,16.709999084472656 C-59.345001220703125,17.709999084472656 -19.645000457763672,-26.110000610351562 3.2850000858306885,-38.779998779296875 C17.78499984741211,-46.79999923706055 59.345001220703125,-12 50.28499984741211,-3.2899999618530273z"></path></g><g opacity="1" transform="matrix(1,0,0,1,279.385009765625,136.60499572753906)"><path fill="rgb(0,0,0)" fill-opacity="1" d=" M-12.145000457763672,18.0049991607666 C-22.725000381469727,5.65500020980835 -49.275001525878906,-6.525000095367432 -40.64500045776367,-12.494999885559082 C-21.145000457763672,-25.9950008392334 25.575000762939453,-21.354999542236328 38.85499954223633,-13.994999885559082 C49.275001525878906,-8.223999977111816 -5.284999847412109,25.9950008392334 -12.145000457763672,18.0049991607666z"></path></g></g></g></svg>