<svg xmlns="http://www.w3.org/2000/svg" xmlns:xlink="http://www.w3.org/1999/xlink" viewBox="0 0 512 512" width="512" height="512" style="width: 100%; height: 100%; transform: translate3d(0,0,0);" preserveAspectRatio="xMidYMid meet"><defs><clipPath id="__lottie_element_51870"><rect width="512" height="512" x="0" y="0"></rect></clipPath></defs><g clip-path="url(#__lottie_element_51870)"><g style="display: block;" transform="matrix(1,0,0,1,0,0)" opacity="1"><g opacity="1" transform="matrix(1,0,0,1,254.90199279785156,260.1929931640625)"><path fill="rgb(4,5,52)" fill-opacity="1" d=" M163.572998046875,0.2460000067949295 C163.572998046875,0.2460000067949295 251.42300415039062,-22.04400062561035 241.85299682617188,-63.30400085449219 C236.63299560546875,-85.86399841308594 172.13299560546875,-87.85399627685547 144.64300537109375,-78.9739990234375 C144.64300537109375,-78.9739990234375 194.4429931640625,-142.6739959716797 181.04299926757812,-169.593994140625 C167.64300537109375,-196.51400756835938 90.19300079345703,-151.31399536132812 80.322998046875,-136.75399780273438 C80.322998046875,-136.75399780273438 86.3030014038086,-226.03399658203125 62.40299987792969,-238.5240020751953 C38.49300003051758,-251.01400756835938 4.833000183105469,-195.9340057373047 -2.246999979019165,-169.2740020751953 C-2.246999979019165,-169.2740020751953 -29.746999740600586,-246.38400268554688 -60.12699890136719,-239.99400329589844 C-90.48699951171875,-233.593994140625 -85.7969970703125,-166.1540069580078 -77.37699890136719,-145.5240020751953 C-77.37699890136719,-145.5240020751953 -136.9669952392578,-199.16400146484375 -166.32699584960938,-180.5540008544922 C-195.51699829101562,-162.06399536132812 -126.2969970703125,-78.10399627685547 -125.49700164794922,-77.1240005493164 C-126.73699951171875,-77.41400146484375 -230.60699462890625,-101.74400329589844 -241.5970001220703,-68.59400177001953 C-253.73699951171875,-31.95400047302246 -149.60699462890625,-5.564000129699707 -149.60699462890625,-5.564000129699707 C-149.60699462890625,-5.564000129699707 -246.61700439453125,22.076000213623047 -240.13699340820312,57.10599899291992 C-233.69700622558594,91.99600219726562 -138.06700134277344,70.70600128173828 -137.2469940185547,70.5260009765625 C-138.15699768066406,71.49600219726562 -204.83700561523438,142.28599548339844 -185.81700134277344,165.99600219726562 C-160.73699951171875,197.28599548339844 -73.88700103759766,117.3759994506836 -72.84700012207031,116.4260025024414 C-73.10700225830078,117.78600311279297 -95.20700073242188,229.8560028076172 -64.26699829101562,239.7760009765625 C-34.47700119018555,249.3260040283203 0.9330000281333923,140.75599670410156 0.9330000281333923,140.75599670410156 C0.9330000281333923,140.75599670410156 17.493000030517578,246.58599853515625 56.69300079345703,237.21600341796875 C95.572998046875,227.92599487304688 73.71299743652344,139.26600646972656 73.35299682617188,137.78599548339844 C74.3030014038086,138.76600646972656 138.4530029296875,205.156005859375 163.55299377441406,183.5959930419922 C186.2530059814453,164.08599853515625 128.86300659179688,82.14600372314453 128.86300659179688,82.14600372314453 C128.86300659179688,82.14600372314453 234.072998046875,96.07599639892578 239.56300354003906,64.33599853515625 C245.0330047607422,32.60599899291992 163.572998046875,0.2460000067949295 163.572998046875,0.2460000067949295z M21.382999420166016,96.53600311279297 C-33.14699935913086,109.56600189208984 -87.91699981689453,75.9260025024414 -100.9469985961914,21.38599967956543 C-108.08699798583984,-8.503999710083008 -101.20700073242188,-38.4640007019043 -84.55699920654297,-61.58399963378906 C-84.55699920654297,-61.58399963378906 -84.55699920654297,-61.58399963378906 -84.5469970703125,-61.58399963378906 C-82.11699676513672,-64.9540023803711 -79.49700164794922,-68.17400360107422 -76.66699981689453,-71.23400115966797 C-75.2969970703125,-73.42400360107422 -74.55699920654297,-75.39399719238281 -75.37699890136719,-76.38400268554688 C-77.81700134277344,-79.33399963378906 -81.37699890136719,-77.92400360107422 -101.73699951171875,-95.1240005493164 C-122.10700225830078,-112.3239974975586 -141.1269989013672,-144.11399841308594 -135.4969940185547,-144.87399291992188 C-129.8769989013672,-145.63400268554688 -127.83699798583984,-140.4239959716797 -112.80699920654297,-125.43399810791016 C-97.7770004272461,-110.4540023803711 -62.65700149536133,-86.33399963378906 -53.16699981689453,-90.03399658203125 C-44.83700180053711,-94.8740005493164 -35.66699981689453,-98.58399963378906 -25.816999435424805,-100.93399810791016 C28.722999572753906,-113.9739990234375 83.49299621582031,-80.3239974975586 96.52300262451172,-25.804000854492188 C109.5530014038086,28.736000061035156 75.91300201416016,83.49600219726562 21.382999420166016,96.53600311279297z"></path></g><g opacity="1" transform="matrix(1,0,0,1,216.68099975585938,264.3909912109375)"><path fill="rgb(4,5,52)" fill-opacity="1" d=" M12.843000411987305,-75.3740005493164 C3.446000099182129,-76.54900360107422 -14.262999534606934,-41.612998962402344 -15.109999656677246,-1.3170000314712524 C-15.956999778747559,38.979000091552734 4.372000217437744,75.4020004272461 12.843000411987305,75.4020004272461 C21.31399917602539,75.4020004272461 3.371000051498413,35.77899932861328 6.348999977111816,-3.186000108718872 C9.32699966430664,-42.1510009765625 19.618999481201172,-74.5270004272461 12.843000411987305,-75.3740005493164z"></path></g><g opacity="1" transform="matrix(1,0,0,1,291.07000732421875,264.3909912109375)"><path fill="rgb(4,5,52)" fill-opacity="1" d=" M-11.20300006866455,-72.04900360107422 C-19.31800079345703,-71.06099700927734 -12.196999549865723,-33.77399826049805 -9.21500015258789,-5.47599983215332 C-6.232999801635742,22.82200050354004 -17.16699981689453,68.56300354003906 -9.21500015258789,71.95099639892578 C-1.2630000114440918,75.33899688720703 17.624000549316406,39.762001037597656 14.642000198364258,-9.366999626159668 C11.65999984741211,-58.49599838256836 2.7139999866485596,-73.74299621582031 -11.20300006866455,-72.04900360107422z"></path></g><g opacity="1" transform="matrix(1,0,0,1,254.10899353027344,226.27499389648438)"><path fill="rgb(4,5,52)" fill-opacity="1" d=" M-81.33899688720703,14.960000038146973 C-84.03199768066406,5.23199987411499 -42.374000549316406,-18.312999725341797 -3.4089999198913574,-19.459999084472656 C35.555999755859375,-20.60700035095215 84.68399810791016,6.928999900817871 81.2959976196289,17.2549991607666 C77.90799713134766,27.58099937438965 27.250999450683594,-1.1369999647140503 0.06199999898672104,-1.1200000047683716 C-27.12700080871582,-1.1030000448226929 -78.7979965209961,24.138999938964844 -81.33899688720703,14.960000038146973z"></path></g><g opacity="1" transform="matrix(1,0,0,1,253.19700622558594,304.114990234375)"><path fill="rgb(4,5,52)" fill-opacity="1" d=" M-71.10900115966797,-10.378000259399414 C-74.0979995727539,-0.9549999833106995 -22.135000228881836,13.645000457763672 0.9120000004768372,13.656000137329102 C23.958999633789062,13.666999816894531 69.50299835205078,-0.36399999260902405 71.1969985961914,-7.374000072479248 C72.89099884033203,-14.383999824523926 13.807999610900879,-8.4350004196167 0,-8.708999633789062 C-28.06800079345703,-9.265000343322754 -68.56800079345703,-18.388999938964844 -71.10900115966797,-10.378000259399414z"></path></g></g></g></svg>