<svg xmlns="http://www.w3.org/2000/svg" xmlns:xlink="http://www.w3.org/1999/xlink" viewBox="0 0 512 512" width="512" height="512" style="width: 100%; height: 100%; transform: translate3d(0,0,0);" preserveAspectRatio="xMidYMid meet"><defs><clipPath id="__lottie_element_53424"><rect width="512" height="512" x="0" y="0"></rect></clipPath></defs><g clip-path="url(#__lottie_element_53424)"><g style="display: block;" transform="matrix(1,0,0,1,262.5559997558594,257.37799072265625)" opacity="1"><g opacity="1" transform="matrix(1,0,0,1,0,0)"><g opacity="1" transform="matrix(1,0,0,1,85.49500274658203,89.72799682617188)"><path fill="rgb(0,0,0)" fill-opacity="1" d=" M116.322998046875,-74.00199890136719 C116.322998046875,-46.0620002746582 64.29199981689453,-23.41200065612793 0.10899999737739563,-23.41200065612793 C-64.0739974975586,-23.41200065612793 -116.10399627685547,-46.0620002746582 -116.10399627685547,-74.00199890136719 C-116.10399627685547,-101.94200134277344 -64.0739974975586,-124.59200286865234 0.10899999737739563,-124.59200286865234 C64.29199981689453,-124.59200286865234 116.322998046875,-101.94200134277344 116.322998046875,-74.00199890136719z M152.95599365234375,-87.28500366210938 C150.90199279785156,-96.67900085449219 145.91900634765625,-104.79399871826172 139.55499267578125,-112.13400268554688 C126.18800354003906,-127.52100372314453 109.1510009765625,-137.45399475097656 90.46399688720703,-144.5919952392578 C45.95199966430664,-161.56199645996094 0.05900000035762787,-163.31199645996094 -46.472999572753906,-155.7030029296875 C-73.34200286865234,-151.29200744628906 -98.89700317382812,-143.11000061035156 -121.3219985961914,-127.08300018310547 C-140.1439971923828,-113.64900207519531 -154.45399475097656,-96.67900085449219 -154.38699340820312,-72.302001953125 C-154.28599548339844,-35.0629997253418 -158.25900268554688,2.0759999752044678 -156.7100067138672,31.26799964904785 C-156.7100067138672,56.38600158691406 -156.44000244140625,73.42400360107422 -156.77699279785156,90.46099853515625 C-157.01300048828125,102.9530029296875 -152.23199462890625,112.31199645996094 -142.39999389648438,120.08999633789062 C-120.78399658203125,137.22799682617188 -61.792999267578125,165.1750030517578 28.139999389648438,159.1820068359375 C58.779998779296875,157.1280059814453 95.71700286865234,149.38400268554688 123.46099853515625,136.08399963378906 C138.91600036621094,128.7100067138672 149.69000244140625,113.66000366210938 150.43099975585938,95.14099884033203 C151.33999633789062,71.40299987792969 152.21499633789062,47.66600036621094 153.3260040283203,23.92799949645996 C154.33599853515625,2.2109999656677246 155.64999389648438,-19.541000366210938 156.8280029296875,-41.257999420166016 C157.6699981689453,-56.779998779296875 156.28900146484375,-72.16699981689453 152.95599365234375,-87.28500366210938z"></path></g></g><g opacity="1" transform="matrix(1,0,0,1,0,0)"><g opacity="1" transform="matrix(1,0,0,1,-79.26699829101562,-83.08300018310547)"><path fill="rgb(0,0,0)" fill-opacity="1" d=" M123.67500305175781,-78.11199951171875 C123.67500305175781,-48.35900115966797 68.26000213623047,-24.239999771118164 -0.09700000286102295,-24.239999771118164 C-68.4540023803711,-24.239999771118164 -123.86900329589844,-48.35900115966797 -123.86900329589844,-78.11199951171875 C-123.86900329589844,-107.86499786376953 -68.4540023803711,-131.98399353027344 -0.09700000286102295,-131.98399353027344 C68.26000213623047,-131.98399353027344 123.67500305175781,-107.86499786376953 123.67500305175781,-78.11199951171875z M162.32899475097656,-75.08200073242188 C160.41000366210938,-98.75199890136719 149.06199645996094,-117.16899871826172 130.1060028076172,-130.90699768066406 C85.89700317382812,-162.8939971923828 34.54999923706055,-167.6739959716797 0.375,-166.49600219726562 C-93.83499908447266,-163.2969970703125 -127.70700073242188,-134.07200622558594 -143.16200256347656,-117.33799743652344 C-154.34100341796875,-105.21700286865234 -161.3769989013672,-91.1760025024414 -161.10800170898438,-74.54299926757812 C-160.53599548339844,-35.6870002746582 -163.33099365234375,78.35399627685547 -163.2969970703125,96.60299682617188 C-163.2969970703125,107.91600036621094 -159.5260009765625,117.04100036621094 -150.19900512695312,124.41500091552734 C-135.38400268554688,136.06500244140625 -85.65299987792969,163.6739959716797 -26.326000213623047,166.63699340820312 C-17.235000610351562,166.83900451660156 -16.023000717163086,165.39199829101562 -15.552000045776367,156.468994140625 C-15.282999992370605,151.7209930419922 -13.059000015258789,95.55899810791016 -9.119999885559082,72.4280014038086 C-5.01200008392334,48.45500183105469 12.562999725341797,26.60300064086914 34.24700164794922,16.198999404907227 C71.822998046875,-1.781000018119812 106.6719970703125,-6.830999851226807 147.91799926757812,-11.781000137329102 C159.80299377441406,-13.194999694824219 161.31900024414062,-14.475000381469727 162.2949981689453,-26.393999099731445 C163.60800170898438,-42.62300109863281 163.64199829101562,-58.887001037597656 162.32899475097656,-75.08200073242188z"></path></g></g><g opacity="1" transform="matrix(1,0,0,1,-78.14900207519531,-160.3419952392578)"><path fill="rgb(0,0,0)" fill-opacity="1" d=" M0,-29.41900062561035 C34.34600067138672,-29.41900062561035 62.18899917602539,-16.24799919128418 62.18899917602539,0 C62.18899917602539,16.24799919128418 34.34600067138672,29.41900062561035 0,29.41900062561035 C-34.34600067138672,29.41900062561035 -62.18899917602539,16.24799919128418 -62.18899917602539,0 C-62.18899917602539,-16.24799919128418 -34.34600067138672,-29.41900062561035 0,-29.41900062561035z"></path></g><g opacity="1" transform="matrix(1,0,0,1,88.68099975585938,13.190999984741211)"><path fill="rgb(0,0,0)" fill-opacity="1" d=" M0,-29.41900062561035 C34.34600067138672,-29.41900062561035 62.18899917602539,-16.24799919128418 62.18899917602539,0 C62.18899917602539,16.24799919128418 34.34600067138672,29.41900062561035 0,29.41900062561035 C-34.34600067138672,29.41900062561035 -62.18899917602539,16.24799919128418 -62.18899917602539,0 C-62.18899917602539,-16.24799919128418 -34.34600067138672,-29.41900062561035 0,-29.41900062561035z"></path></g></g></g></svg>