<svg xmlns="http://www.w3.org/2000/svg" xmlns:xlink="http://www.w3.org/1999/xlink" viewBox="0 0 512 512" width="512" height="512" style="width: 100%; height: 100%; transform: translate3d(0,0,0);" preserveAspectRatio="xMidYMid meet"><defs><clipPath id="__lottie_element_27274"><rect width="512" height="512" x="0" y="0"></rect></clipPath></defs><g clip-path="url(#__lottie_element_27274)"><g style="display: block;" transform="matrix(1,0,0,1,0,0)" opacity="1"><g opacity="1" transform="matrix(1,0,0,1,256,329.9440002441406)"><path fill="rgb(65,63,63)" fill-opacity="1" d=" M165.50999450683594,139.9149932861328 C108.54100036621094,105.24199676513672 -10.418000221252441,57.86399841308594 -75.03299713134766,38.051998138427734 C-94.68099975585938,32.027000427246094 -119.802001953125,28.839000701904297 -140.28599548339844,31.701000213623047 C-171.1199951171875,36.007999420166016 -206.21800231933594,95.23699951171875 -206.74200439453125,125.4209976196289 C-239.2949981689453,141.66799926757812 -255.99099731445312,88.46700286865234 -256,64.47000122070312 C-256.0220031738281,8.675999641418457 -232.78399658203125,-70.09400177001953 -191.197998046875,-109.3010025024414 C-143.31100463867188,-154.4499969482422 -134.7239990234375,-72.64800262451172 -108.93599700927734,-49.736000061035156 C-90.9800033569336,-33.78200149536133 -56.551998138427734,-33.457000732421875 -35.641998291015625,-43 C-19.91699981689453,-50.176998138427734 5.388000011444092,-82.7750015258789 18.19300079345703,-86.65899658203125 C31.849000930786133,-90.8010025024414 63.189998626708984,-81.86000061035156 86.36000061035156,-88.04299926757812 C124.75700378417969,-98.28900146484375 151.21299743652344,-145.01199340820312 193.91000366210938,-114.76200103759766 C220.96800231933594,-95.59200286865234 253.1580047607422,-11.824000358581543 255.83099365234375,20.961000442504883 C257.5880126953125,42.51499938964844 245.4320068359375,128.51100158691406 230.9219970703125,142.46099853515625 C218.4499969482422,154.4510040283203 179.08399963378906,148.17599487304688 165.50999450683594,139.9149932861328z"></path></g><g opacity="1" transform="matrix(1,0,0,1,351.42498779296875,136.13400268554688)"><path fill="rgb(65,63,63)" fill-opacity="1" d=" M-92.07099914550781,40.84199905395508 C-94.51599884033203,-15.984000205993652 -41.880001068115234,-61.257999420166016 9.838000297546387,-75.6259994506836 C25.547000885009766,-79.98999786376953 62.42599868774414,-89.01599884033203 77.47200012207031,-90.23799896240234 C102.69499969482422,-92.28399658203125 108.27100372314453,-67.42400360107422 101.81400299072266,-47.178001403808594 C98.8290023803711,-37.819000244140625 87.8479995727539,-29.07900047302246 82.34300231933594,-19.552000045776367 C63.55699920654297,12.958999633789062 46.854000091552734,50.43299865722656 10.104000091552734,68.44999694824219 C-7.165999889373779,76.91600036621094 -59.66999816894531,92.28399658203125 -77.21499633789062,87.0989990234375 C-108.2699966430664,77.9209976196289 -42.75699996948242,42.612998962402344 -44.845001220703125,30.305999755859375 C-49.00600051879883,5.78000020980835 -86.77899932861328,46.268001556396484 -92.07099914550781,40.84199905395508z"></path></g><g opacity="1" transform="matrix(1,0,0,1,187.48899841308594,184.4290008544922)"><path fill="rgb(65,63,63)" fill-opacity="1" d=" M-40.9739990234375,57.255001068115234 C-58.32699966430664,38.45899963378906 -43.40599822998047,-29.340999603271484 -29.329999923706055,-49.65700149536133 C-17.191999435424805,-67.17400360107422 -12.595999717712402,-56.28900146484375 0.5740000009536743,-57.316001892089844 C19.774999618530273,-58.81399917602539 47.33599853515625,-72.73200225830078 54.68199920654297,-42.04499816894531 C58.32699966430664,-26.819000244140625 52.992000579833984,23.915000915527344 49.49300003051758,40.79600143432617 C46.65800094604492,54.474998474121094 23.298999786376953,69.18000030517578 10.281999588012695,70.77799987792969 C-5.636000156402588,72.73200225830078 -29.684999465942383,69.48300170898438 -40.9739990234375,57.255001068115234z"></path></g><g opacity="1" transform="matrix(1,0,0,1,97.08000183105469,108.90399932861328)"><path fill="rgb(65,63,63)" fill-opacity="1" d=" M56.893001556396484,-30.90999984741211 C59.779998779296875,-27.7189998626709 68.52999877929688,-10.090999603271484 67.62000274658203,-5.875 C37.310001373291016,11.043000221252441 30.554000854492188,45.92399978637695 26.006000518798828,77.1240005493164 C10.944999694824219,81.19200134277344 -2.443000078201294,70.9489974975586 -11.605999946594238,60.28200149536133 C-28.29800033569336,40.849998474121094 -68.52999877929688,-44.30400085449219 -61.571998596191406,-67.26899719238281 C-57.35300064086914,-81.19200134277344 -31.469999313354492,-75.22699737548828 -21.082000732421875,-71.052001953125 C-14.756999969482422,-68.50900268554688 -11.371999740600586,-63.12200164794922 -6.058000087738037,-60.89699935913086 C9.994999885559082,-54.17399978637695 45.887001037597656,-43.073001861572266 56.893001556396484,-30.90999984741211z"></path></g></g></g></svg>