<svg xmlns="http://www.w3.org/2000/svg" xmlns:xlink="http://www.w3.org/1999/xlink" viewBox="0 0 512 512" width="512" height="512" style="width: 100%; height: 100%; transform: translate3d(0,0,0);" preserveAspectRatio="xMidYMid meet"><defs><clipPath id="__lottie_element_53169"><rect width="512" height="512" x="0" y="0"></rect></clipPath></defs><g clip-path="url(#__lottie_element_53169)"><g style="display: block;" transform="matrix(1,0,0,1,256,256)" opacity="1"><g opacity="1" transform="matrix(1,0,0,1,0,0)"><path fill="rgb(0,0,0)" fill-opacity="1" d=" M235.1999969482422,56.599998474121094 C235.10400390625,52.58300018310547 235.0469970703125,37.54600143432617 235.0500030517578,10.050000190734863 C211.57899475097656,57.564998626708984 170.88099670410156,117.26200103759766 113.00199890136719,171.65199279785156 C-63.58100128173828,166.06900024414062 -187.08900451660156,129.718994140625 -231.89999389648438,78.19999694824219 C-232.69500732421875,134.7519989013672 -234.13499450683594,153.28500366210938 -187.75,188.75 C-187.75,188.75 -187.89999389648438,188.60000610351562 -187.89999389648438,188.60000610351562 C-181.5030059814453,193.14599609375 -174.6269989013672,197.54299926757812 -167.14999389648438,200.89999389648438 C-140.5709991455078,218.718994140625 -37.35599899291992,239.3459930419922 111.29900360107422,248.45199584960938 C183.5850067138672,180.56900024414062 227.24600219726562,114.51000213623047 233.10000610351562,78.4000015258789 C233.10000610351562,78.4000015258789 233.10000610351562,78.55000305175781 233.10000610351562,78.55000305175781 C234.5,71.18299865722656 235.1999969482422,63.867000579833984 235.1999969482422,56.599998474121094 M234,-101.69999694824219 C228.83700561523438,-137.71600341796875 196.5590057373047,-163.80999755859375 163.0500030517578,-175.60000610351562 C98.0199966430664,-285.87200927734375 -2.6649999618530273,-274.3659973144531 -3.5999999046325684,-141.35000610351562 C-5,-141.11700439453125 -6.449999809265137,-140.6999969482422 -7.949999809265137,-140.10000610351562 C-7.949999809265137,-140.10000610351562 -7.75,-140.3000030517578 -7.75,-140.3000030517578 C-17.246000289916992,-137.6580047607422 -32.012001037597656,-128.99000549316406 -42.900001525878906,-121.0999984741211 C-84.58100128173828,-154.2469940185547 -149.2689971923828,-199.86099243164062 -187.75,-146.15199279785156 C-197.28399658203125,-134.33700561523438 -201.60800170898438,-112.98699951171875 -200.1999969482422,-94.25 C-219.93299865722656,-76.94999694824219 -230.43299865722656,-57.516998291015625 -231.6999969482422,-35.95000076293945 C-231.6999969482422,-35.95000076293945 -231.5500030517578,-36.29999923706055 -231.5500030517578,-36.29999923706055 C-246.6540069580078,104.68000030517578 -143.75599670410156,124.56600189208984 103.69999694824219,147.9499969482422 C197.32200622558594,48.64899826049805 239.88299560546875,-28.972999572753906 234,-101.69999694824219 M129.3000030517578,-181.4499969482422 C160.05999755859375,-141.5989990234375 184.46299743652344,-84.88899993896484 156.3000030517578,-50.5 C156.3000030517578,-50.5 156.4499969482422,-50.5 156.4499969482422,-50.5 C122.36000061035156,-32.75400161743164 101.05799865722656,-48.20800018310547 56.45000076293945,-63.650001525878906 C65.1449966430664,-91.63899993896484 46.86000061035156,-128.0850067138672 20.450000762939453,-139.9499969482422 C19.947999954223633,-226.8470001220703 71.31500244140625,-260.4880065917969 129.3000030517578,-181.4499969482422 M-89.30000305175781,-125.4000015258789 C-89.30000305175781,-125.4000015258789 -89.44999694824219,-125.5999984741211 -89.44999694824219,-125.5999984741211 C-66.55500030517578,-108.41300201416016 -26.44499969482422,-82.99600219726562 -12.949999809265137,-53.79999923706055 C-12.949999809265137,-53.79999923706055 -13.149999618530273,-54.150001525878906 -13.149999618530273,-54.150001525878906 C-12.217000007629395,-51.95000076293945 -11.282999992370605,-49.70000076293945 -10.350000381469727,-47.400001525878906 C-35.520999908447266,36.992000579833984 -85.78299713134766,58.20399856567383 -136.6999969482422,-4.300000190734863 C-136.6999969482422,-4.300000190734863 -136.6999969482422,-4.5 -136.6999969482422,-4.5 C-193.52200317382812,-67.75900268554688 -197.35499572753906,-195.6999969482422 -89.30000305175781,-125.4000015258789 M-0.5,-117.0999984741211 C19.795000076293945,-123.8030014038086 33.62200164794922,-95.36299896240234 34.45100021362305,-78.70099639892578 C35.89099884033203,-65.21399688720703 18.368000030517578,-64.1520004272461 10.050000190734863,-61.400001525878906 C8.262999534606934,-65.86100006103516 5.888000011444092,-70.2249984741211 3.6500000953674316,-74.3499984741211 C3.6500000953674316,-74.3499984741211 3.8499999046325684,-74.3499984741211 3.8499999046325684,-74.3499984741211 C-2.8499999046325684,-86.3499984741211 -11.166999816894531,-97.1500015258789 -21.100000381469727,-106.75 C-13.133000373840332,-111.81700134277344 -6.267000198364258,-115.26699829101562 -0.5,-117.0999984741211z"></path></g></g></g></svg>