<svg xmlns="http://www.w3.org/2000/svg" xmlns:xlink="http://www.w3.org/1999/xlink" viewBox="0 0 512 512" width="512" height="512" style="width: 100%; height: 100%; transform: translate3d(0,0,0);" preserveAspectRatio="xMidYMid meet"><defs><clipPath id="__lottie_element_51730"><rect width="512" height="512" x="0" y="0"></rect></clipPath></defs><g clip-path="url(#__lottie_element_51730)"><g style="display: block;" transform="matrix(1,0,0,1,256,256)" opacity="1"><g opacity="1" transform="matrix(1,0,0,1,0,0)"><path fill="rgb(0,0,0)" fill-opacity="1" d=" M225.19700622558594,-232.90199279785156 C-22.360000610351562,-208.89999389648438 -90.10800170898438,-80.3219985961914 -107.9739990234375,-24.562999725341797 C-125.677001953125,-59.590999603271484 -150.64100646972656,-83.35099792480469 -163.17100524902344,-85.85700225830078 C-179.77999877929688,-89.17900085449219 -236.91299438476562,-0.15700000524520874 -223.62600708007812,21.101999282836914 C-214.25,36.104000091552734 -165.41799926757812,49.28900146484375 -137.48500061035156,55.750999450683594 C-137.91099548339844,70.15499877929688 -134.63900756835938,83.59700012207031 -128.4029998779297,95.47699737548828 C-128.4029998779297,95.47699737548828 -166.04800415039062,133.1219940185547 -166.04800415039062,133.1219940185547 C-217.16900634765625,115.66000366210938 -257.2869873046875,179.56300354003906 -218.93299865722656,217.91700744628906 C-181.83999633789062,255.00999450683594 -119.45899963378906,218.6510009765625 -133.1909942626953,168.14700317382812 C-133.1909942626953,168.14700317382812 -94.44499969482422,129.40199279785156 -94.44499969482422,129.40199279785156 C-82.41999816894531,135.68600463867188 -68.86399841308594,138.88999938964844 -54.74399948120117,138.46499633789062 C-48.28499984741211,166.39199829101562 -35.09600067138672,215.26100158691406 -20.086999893188477,224.64100646972656 C1.1720000505447388,237.92799377441406 90.19400024414062,180.7949981689453 86.87200164794922,164.18600463867188 C84.36599731445312,151.656005859375 60.606998443603516,126.69100189208984 25.57900047302246,108.98899841308594 C81.33799743652344,91.12300109863281 209.9149932861328,23.375 233.91700744628906,-224.1820068359375 C234.4010009765625,-229.177001953125 230.19200134277344,-233.38600158691406 225.19700622558594,-232.90199279785156z M-80.06400299072266,81.08000183105469 C-110.31400299072266,50.83399963378906 -64.4489974975586,5.140999794006348 -34.28900146484375,35.30500030517578 C-4.039999961853027,65.55400085449219 -49.819000244140625,111.3270034790039 -80.06400299072266,81.08000183105469z"></path></g></g></g></svg>