<svg xmlns="http://www.w3.org/2000/svg" xmlns:xlink="http://www.w3.org/1999/xlink" viewBox="0 0 512 512" width="512" height="512" style="width: 100%; height: 100%; transform: translate3d(0,0,0);" preserveAspectRatio="xMidYMid meet"><defs><clipPath id="__lottie_element_51970"><rect width="512" height="512" x="0" y="0"></rect></clipPath></defs><g clip-path="url(#__lottie_element_51970)"><g style="display: block;" transform="matrix(2.962939977645874,0,0,2.962939977645874,2.8374481201171875,2.8374481201171875)" opacity="1"><g opacity="1" transform="matrix(1,0,0,1,20.733999252319336,87.9209976196289)"><path fill="rgb(0,0,0)" fill-opacity="1" d=" M18.06800079345703,-7.921999931335449 C18.06800079345703,-7.921999931335449 0.6700000166893005,-12.248000144958496 -10.904000282287598,-7.145999908447266 C-17.292999267578125,-4.328999996185303 -18.06800079345703,4.708000183105469 -14.508000373840332,7.4120001792907715 C-8.142000198364258,12.246999740600586 18.06800079345703,-7.921999931335449 18.06800079345703,-7.921999931335449z"></path></g><g opacity="1" transform="matrix(1,0,0,1,25.33099937438965,58.80799865722656)"><path fill="rgb(0,0,0)" fill-opacity="1" d=" M-10.71500015258789,3.318000078201294 C6.250999927520752,8.998000144958496 15.77299976348877,10.02299976348877 15.77299976348877,10.02299976348877 C15.77299976348877,10.02299976348877 4.357999801635742,-10.022000312805176 -6.551000118255615,-7.692999839782715 C-10.918999671936035,-6.760000228881836 -15.77299976348877,-2.6530001163482666 -15.204000473022461,0.125 C-14.84000015258789,1.9040000438690186 -12.324999809265137,2.7790000438690186 -10.71500015258789,3.318000078201294z"></path></g><g opacity="1" transform="matrix(1,0,0,1,101.32499694824219,80.69100189208984)"><path fill="rgb(0,0,0)" fill-opacity="1" d=" M52.49599838256836,39.36800003051758 C51.88399887084961,39.268001556396484 51.3380012512207,38.9370002746582 50.946998596191406,38.45600128173828 C50.946998596191406,38.45600128173828 44.060001373291016,29.989999771118164 44.060001373291016,29.989999771118164 C43.236000061035156,28.976999282836914 43.29199981689453,27.514999389648438 44.19300079345703,26.570999145507812 C46.715999603271484,23.929000854492188 49.93899917602539,20.218000411987305 51.52199935913086,16.034000396728516 C55.571998596191406,5.334000110626221 40.95100021362305,-5.85099983215332 38.93899917602539,-6.460000038146973 C38.17399978637695,-6.691999912261963 37.332000732421875,-6.177000045776367 37.15999984741211,-5.375999927520752 C37.15999984741211,-5.375999927520752 37.42300033569336,-1.4919999837875366 36.16999816894531,3.059999942779541 C35.6879997253418,4.811999797821045 33.676998138427734,8.24899959564209 32.733001708984375,9.572999954223633 C31.319000244140625,11.845999717712402 29.072999954223633,10.432999610900879 27.035999298095703,8.062000274658203 C26.93199920654297,7.941999912261963 26.841999053955078,7.810999870300293 26.761999130249023,7.673999786376953 C26.440000534057617,7.122000217437744 26.08099937438965,6.546000003814697 25.68000030517578,5.938000202178955 C25.68000030517578,5.938000202178955 -22.29800033569336,-65.875 -22.29800033569336,-65.875 C-22.42099952697754,-66.03600311279297 -22.54199981689453,-66.19200134277344 -22.663999557495117,-66.35299682617188 C-29.364999771118164,-73.7020034790039 -57.520999908447266,-77.3270034790039 -66.63200378417969,-78.322998046875 C-68.16699981689453,-78.49099731445312 -69.50299835205078,-77.28700256347656 -69.49700164794922,-75.74299621582031 C-69.46299743652344,-66.60099792480469 -68.88300323486328,-38.3380012512207 -63.12900161743164,-31.023000717163086 C-62.98699951171875,-30.871999740600586 -62.847999572753906,-30.724000930786133 -62.70500183105469,-30.572999954223633 C-62.70500183105469,-30.572999954223633 0.3619999885559082,27.81999969482422 0.3619999885559082,27.81999969482422 C1.0579999685287476,28.454999923706055 1.7139999866485596,29.007999420166016 2.3399999141693115,29.496999740600586 C2.436000108718872,29.57200050354004 2.5299999713897705,29.655000686645508 2.614000082015991,29.743000030517578 C6.156000137329102,33.41400146484375 3.3550000190734863,34.32699966430664 -0.3190000057220459,36.29800033569336 C-1.406999945640564,36.882999420166016 -3.8410000801086426,37.691001892089844 -5.065000057220459,37.85499954223633 C-7.122000217437744,38.130001068115234 -13.26099967956543,37.5260009765625 -13.26099967956543,37.5260009765625 C-14.111000061035156,37.59400177001953 -14.800000190734863,38.382999420166016 -14.71500015258789,39.19300079345703 C-14.489999771118164,41.323001861572266 -8.734999656677246,57.867000579833984 5.388999938964844,54.22100067138672 C9.873000144958496,53.0629997253418 14.361000061035156,50.74700164794922 17.634000778198242,48.82500076293945 C18.69099998474121,48.20500183105469 20.031999588012695,48.41699981689453 20.854999542236328,49.32500076293945 C20.854999542236328,49.32500076293945 29.15999984741211,58.49100112915039 29.15999984741211,58.49100112915039 C29.57200050354004,58.946998596191406 29.79800033569336,59.534000396728516 29.827999114990234,60.14899826049805 C30.21299934387207,67.9540023803711 34.25199890136719,78.49099731445312 41.231998443603516,73.48600006103516 C41.231998443603516,73.48600006103516 65.44300079345703,52.91299819946289 65.44300079345703,52.91299819946289 C71.79100036621094,47.00199890136719 59.76900100708008,40.56100082397461 52.49599838256836,39.36800003051758z M10.47700023651123,14.454000473022461 C9.392000198364258,15.380000114440918 8.3149995803833,15.89900016784668 7.258999824523926,14.663000106811523 C7.258999824523926,14.663000106811523 5.605999946594238,12.72599983215332 5.605999946594238,12.72599983215332 C4.550000190734863,11.48900032043457 -42.345001220703125,-45.2130012512207 -41.2599983215332,-46.138999938964844 C-40.17499923706055,-47.064998626708984 8.477999687194824,8.13599967956543 9.534000396728516,9.371999740600586 C9.534000396728516,9.371999740600586 11.187000274658203,11.309000015258789 11.187000274658203,11.309000015258789 C12.243000030517578,12.545999526977539 11.562000274658203,13.527999877929688 10.47700023651123,14.454000473022461z"></path></g><g opacity="1" transform="matrix(1,0,0,1,37.483001708984375,129.0399932861328)"><path fill="rgb(0,0,0)" fill-opacity="1" d=" M35.35100173950195,-39.62300109863281 C35.487998962402344,-40.89400100708008 34.42900085449219,-41.78799819946289 33.19300079345703,-41.44300079345703 C33.150001525878906,-41.430999755859375 33.104000091552734,-41.42300033569336 33.055999755859375,-41.42100143432617 C31.72100067138672,-41.374000549316406 10.92199993133545,-38.82400131225586 7.436999797821045,-34.92900085449219 C7.414000034332275,-34.90299987792969 7.394000053405762,-34.875 7.375,-34.845001220703125 C7.375,-34.845001220703125 -14.281000137329102,0.22300000488758087 -14.281000137329102,0.22300000488758087 C-14.407999992370605,0.4339999854564667 -14.508999824523926,0.6299999952316284 -14.616000175476074,0.8299999833106995 C-15.857000350952148,1.819000005722046 -17.215999603271484,1.6649999618530273 -18.499000549316406,-0.1080000028014183 C-18.916000366210938,-0.6840000152587891 -19.552000045776367,-2.0269999504089355 -19.72800064086914,-2.7300000190734863 C-20.025999069213867,-3.9130001068115234 -20.06999969482422,-7.605999946594238 -20.06999969482422,-7.605999946594238 C-20.166000366210938,-8.100000381469727 -20.677000045776367,-8.416000366210938 -21.149999618530273,-8.272000312805176 C-22.393999099731445,-7.89300012588501 -31.788999557495117,-2.5880000591278076 -28.711999893188477,5.328000068664551 C-27.33300018310547,8.87399959564209 -23.849000930786133,12.361000061035156 -22.45400047302246,13.887999534606934 C-22.45400047302246,13.887999534606934 -28.327999114990234,20.948999404907227 -28.327999114990234,20.948999404907227 C-32.33399963378906,21.315000534057617 -37.78499984741211,23.902000427246094 -34.16699981689453,27.417999267578125 C-34.16699981689453,27.417999267578125 -20.507999420166016,38.96699905395508 -20.507999420166016,38.96699905395508 C-16.655000686645508,41.979000091552734 -14.932000160217285,35.51100158691406 -15.277999877929688,31.733999252319336 C-15.277999877929688,31.733999252319336 -8.468999862670898,24.097000122070312 -8.468999862670898,24.097000122070312 C-6.414000034332275,25.805999755859375 -3.4179999828338623,28.19700050354004 -0.7710000276565552,28.66200065612793 C5.814000129699707,29.819000244140625 11.442999839782715,20.464000701904297 11.670999526977539,19.20599937438965 C11.758000373840332,18.72800064086914 11.39900016784668,18.290000915527344 10.913999557495117,18.2810001373291 C10.913999557495117,18.2810001373291 8.63700008392334,18.885000228881836 5.866000175476074,18.670000076293945 C5.381999969482422,18.631999969482422 4.671000003814697,18.448999404907227 3.9600000381469727,18.22100067138672 C2.196000099182129,17.656999588012695 1.4420000314712524,15.581999778747559 2.428999900817871,14.02299976348877 C2.428999900817871,14.02299976348877 33.79499816894531,-12.395000457763672 33.79499816894531,-12.395000457763672 C33.82099914550781,-12.416999816894531 33.845001220703125,-12.4399995803833 33.867000579833984,-12.467000007629395 C37.483001708984375,-16.756000518798828 35.54399871826172,-38.09600067138672 35.35300064086914,-39.47200012207031 C35.34600067138672,-39.52299880981445 35.34600067138672,-39.57500076293945 35.35100173950195,-39.62300109863281z M-3.197999954223633,8.140000343322754 C-3.197999954223633,8.140000343322754 -3.9790000915527344,9.088000297546387 -3.9790000915527344,9.088000297546387 C-4.478000164031982,9.694000244140625 -5.2170000076293945,9.274999618530273 -6.013999938964844,8.619000434875488 C-6.810999870300293,7.961999893188477 -7.363999843597412,7.316999912261963 -6.864999771118164,6.710999965667725 C-6.864999771118164,6.710999965667725 -6.084000110626221,5.763000011444092 -6.084000110626221,5.763000011444092 C-5.585999965667725,5.1570000648498535 17.62299919128418,-21.709999084472656 18.420000076293945,-21.054000854492188 C19.216999053955078,-20.39699935913086 -2.6989998817443848,7.533999919891357 -3.197999954223633,8.140000343322754z"></path></g></g></g></svg>