<svg xmlns="http://www.w3.org/2000/svg" xmlns:xlink="http://www.w3.org/1999/xlink" viewBox="0 0 512 512" width="512" height="512" style="width: 100%; height: 100%; transform: translate3d(0,0,0);" preserveAspectRatio="xMidYMid meet"><defs><clipPath id="__lottie_element_53864"><rect width="512" height="512" x="0" y="0"></rect></clipPath></defs><g clip-path="url(#__lottie_element_53864)"><g style="display: block;" transform="matrix(1,0,0,1,243.30599975585938,257.4389953613281)" opacity="1"><g opacity="1" transform="matrix(1,0,0,1,0,0)"><path fill="rgb(0,0,0)" fill-opacity="1" d=" M198.87,-131.59 C199.07,-135.53 198.32,-139.19 196.65,-142.69 C191.16,-154.15 177.43,-155.74 171.93,-144.36 C164.46,-128.93 159.41,-112.33 153.37,-96.22 C153.08,-95.46 153.17,-94.55 153.18,-93.71 C153.33,-85.23 160.04,-79.82 168.45,-81.42 C173.16,-82.31 177.15,-84.55 180.3,-88.16 C191.17,-100.65 196.21,-115.63 198.87,-131.59z M109.14099884033203,-249.51499938964844 C134.49000549316406,-248.84500122070312 156.0050048828125,-241.9550018310547 175.61199951171875,-229.5240020751953 C182.24099731445312,-225.3209991455078 187.38099670410156,-224.66200256347656 193.64599609375,-229.9550018310547 C199.42300415039062,-234.83599853515625 206.0659942626953,-238.70899963378906 213.3280029296875,-241.21200561523438 C222.5330047607422,-244.38499450683594 230.0800018310547,-242.93299865722656 234.1439971923828,-237.343994140625 C238.27000427246094,-231.66900634765625 237.41700744628906,-224.06700134277344 231.35299682617188,-216.44200134277344 C227.947998046875,-212.16099548339844 223.91099548339844,-208.38900756835938 220.3800048828125,-204.2010040283203 C213.98800659179688,-196.61900329589844 213.78199768066406,-195.98800659179688 219.29400634765625,-187.7429962158203 C228.3459930419922,-174.2010040283203 233.97000122070312,-159.39100646972656 237.3470001220703,-143.5330047607422 C248.5050048828125,-91.12899780273438 215.19400024414062,-39.41400146484375 155.31199645996094,-31.364999771118164 C150.2969970703125,-30.69099998474121 145.26199340820312,-30.132999420166016 140.2220001220703,-29.687000274658203 C135.08900451660156,-29.232999801635742 132.73399353027344,-26.451000213623047 132.69000244140625,-21.423999786376953 C132.66799926757812,-18.893999099731445 132.4530029296875,-16.365999221801758 132.4709930419922,-13.836999893188477 C132.78700256347656,30.982999801635742 99.76399993896484,69.13500213623047 50.73699951171875,75.99400329589844 C16.663999557495117,80.76100158691406 -11.51099967956543,69.8479995727539 -32.595001220703125,42.09700012207031 C-33.36000061035156,41.09000015258789 -34.073001861572266,40.03300094604492 -34.928001403808594,39.106998443603516 C-36.64500045776367,37.24700164794922 -38.47100067138672,35.012001037597656 -41.32500076293945,36.47200012207031 C-44.14799880981445,37.91600036621094 -43.66400146484375,40.611000061035156 -42.882999420166016,43.11600112915039 C-40.724998474121094,50.04399871826172 -37.3120002746582,56.28300094604492 -32.69499969482422,61.89799880981445 C-22.02199935913086,74.87799835205078 -8.946999549865723,84.49400329589844 6.710999965667725,90.68399810791016 C21.940000534057617,96.7040023803711 24.257999420166016,100.75499725341797 22.510000228881836,117.28600311279297 C16.514999389648438,173.96099853515625 -26.58099937438965,201.63999938964844 -71.9469985961914,203.47799682617188 C-93.87899780273438,204.36700439453125 -114.63600158691406,199.49899291992188 -134.47300720214844,190.22900390625 C-144.9149932861328,185.3489990234375 -145.1280059814453,185.37399291992188 -152.4550018310547,193.6060028076172 C-165.91299438476562,208.72500610351562 -179.26600646972656,223.94000244140625 -192.4969940185547,239.25799560546875 C-198.2729949951172,245.94500732421875 -204.5709991455078,251.93499755859375 -214.0780029296875,249.04200744628906 C-225.4250030517578,245.58900451660156 -234.1719970703125,238.2989959716797 -238.64700317382812,227.0449981689453 C-240.85499572753906,221.49200439453125 -238.35800170898438,216.08200073242188 -235.0679931640625,211.60699462890625 C-230.3350067138672,205.1699981689453 -199.27000427246094,171.91400146484375 -188.927001953125,161.38800048828125 C-181.77499389648438,154.11000061035156 -181.6540069580078,154.0290069580078 -187.46299743652344,145.55299377441406 C-200.08900451660156,127.12899780273438 -207.85499572753906,107.20999908447266 -210.19500732421875,84.68499755859375 C-213.45399475097656,53.3129997253418 -196.47799682617188,12.57800006866455 -158.87399291992188,-5.171000003814697 C-143.30599975585938,-12.519000053405762 -126.9010009765625,-16.21299934387207 -109.88300323486328,-16.08099937438965 C-95.65799713134766,-15.970000267028809 -95.2239990234375,-16.110000610351562 -98.11499786376953,-30.950000762939453 C-103.76200103759766,-59.93600082397461 -97.1449966430664,-86.2030029296875 -77.83499908447266,-108.90599822998047 C-61.404998779296875,-128.22300720214844 -39.83399963378906,-137.80299377441406 -15.24899959564209,-141.29100036621094 C-6.919000148773193,-142.47300720214844 -5.809999942779541,-141.44000244140625 -1.6440000534057617,-131.67999267578125 C7.508999824523926,-110.23600006103516 21.20800018310547,-92.39299774169922 40.22999954223633,-78.81500244140625 C43.63199996948242,-76.38700103759766 47.483001708984375,-74.552001953125 51.249000549316406,-72.68800354003906 C52.766998291015625,-71.93699645996094 54.678001403808594,-72.05799865722656 55.84700012207031,-73.58999633789062 C56.99599838256836,-75.09600067138672 56.70399856567383,-76.93699645996094 55.54899978637695,-78.22799682617188 C53.310001373291016,-80.72899627685547 50.8650016784668,-83.05500030517578 48.40700149536133,-85.3489990234375 C39.13600158691406,-94.00299835205078 30.54199981689453,-103.2020034790039 23.26099967956543,-113.66899871826172 C-12.071999549865723,-164.4669952392578 16.857999801635742,-219.1790008544922 56.0099983215332,-238.2469940185547 C73.4729995727539,-246.7519989013672 91.69400024414062,-250.93600463867188 109.14099884033203,-249.51499938964844z"></path><g opacity="1" transform="matrix(1,0,0,1,176.031005859375,-116.63500213623047)"></g><g opacity="1" transform="matrix(1,0,0,1,0,0)"></g></g></g></g></svg>