<svg xmlns="http://www.w3.org/2000/svg" xmlns:xlink="http://www.w3.org/1999/xlink" viewBox="0 0 512 512" width="512" height="512" style="width: 100%; height: 100%; transform: translate3d(0,0,0);" preserveAspectRatio="xMidYMid meet"><defs><clipPath id="__lottie_element_53344"><rect width="512" height="512" x="0" y="0"></rect></clipPath></defs><g clip-path="url(#__lottie_element_53344)"><g style="display: block;" transform="matrix(1,0,0,1,0,0)" opacity="1"><g opacity="1" transform="matrix(1,0,0,1,246.36199951171875,245.21299743652344)"><path fill="rgb(0,0,0)" fill-opacity="1" d=" M94.86499786376953,-90.86299896240234 C90.96399688720703,-100.43800354003906 80.8219985961914,-105.72000122070312 70.7509994506836,-103.42500305175781 C35.428001403808594,-95.37300109863281 1.3890000581741333,-86.3030014038086 -31.118999481201172,-76.29299926757812 C-62.85100173950195,-66.52100372314453 -93.125,-55.854000091552734 -121.73699951171875,-44.35100173950195 C-130.9510040283203,-40.64799880981445 -136.33599853515625,-30.878999710083008 -134.54100036621094,-21.12299919128418 C-128.89100646972656,9.588000297546387 -120.50199890136719,49.994998931884766 -105.65499877929688,90.2020034790039 C-102.02100372314453,100.04499816894531 -91.55699920654297,105.72000122070312 -81.31400299072266,103.40399932861328 C-14.204000473022461,88.23600006103516 57.62200164794922,66.13800048828125 120.93299865722656,41.185001373291016 C130.91299438476562,37.250999450683594 136.33599853515625,26.535999298095703 133.5469970703125,16.259000778198242 C123.63999938964844,-20.24799919128418 108.35199737548828,-57.76300048828125 94.86499786376953,-90.86299896240234z"></path></g><g opacity="1" transform="matrix(1,0,0,1,251.3990020751953,258.3810119628906)"><path fill="rgb(0,0,0)" fill-opacity="1" d=" M162.43899536132812,130.83399963378906 C162.43899536132812,130.83399963378906 215.1909942626953,86.51200103759766 221.9040069580078,11.086999893188477 C219.76499938964844,-2.4159998893737793 216.50599670410156,-16.465999603271484 212.00599670410156,-31.079999923706055 C180.4219970703125,-133.6439971923828 65.35299682617188,-238.64999389648438 -40.08100128173828,-230.85499572753906 C-42.52299880981445,-243.81399536132812 -53.89400100708008,-253.61900329589844 -67.56300354003906,-253.61900329589844 C-83.01200103759766,-253.61900329589844 -95.53600311279297,-241.09500122070312 -95.53600311279297,-225.64599609375 C-95.53600311279297,-222.2209930419922 -94.91799926757812,-218.94000244140625 -93.79100036621094,-215.90699768066406 C-190.36599731445312,-166.7899932861328 -229.02000427246094,-10.312000274658203 -196.66299438476562,94.76300048828125 C-150.61399841308594,244.3040008544922 -42.257999420166016,270.927001953125 70.59300231933594,236.17599487304688 C149.82400512695312,211.7779998779297 220.3459930419922,156.3179931640625 229.02000427246094,66.78800201416016 C218.88999938964844,82.9219970703125 194.09100341796875,117.92400360107422 162.43899536132812,130.83399963378906z M-77.33699798583984,-224.29100036621094 C-79.08799743652344,-229.78799438476562 -76.0510025024414,-235.66299438476562 -70.55400085449219,-237.41400146484375 C-65.05799865722656,-239.1649932861328 -59.18299865722656,-236.12899780273438 -57.43199920654297,-230.6320037841797 C-57.20000076293945,-229.9029998779297 -57.356998443603516,-229.15899658203125 -57.79399871826172,-228.42999267578125 C-59.582000732421875,-224.2740020751953 -72.88200378417969,-221.49899291992188 -76.66200256347656,-223.2740020751953 C-76.97100067138672,-223.55499267578125 -77.20800018310547,-223.88800048828125 -77.33699798583984,-224.29100036621094z M-129.22999572753906,-153.61099243164062 C-115.23200225830078,-171.61199951171875 -97.32099914550781,-179.2550048828125 -86.66100311279297,-182.38299560546875 C-84.66699981689453,-182.96800231933594 -83.33899688720703,-180.34500122070312 -84.99500274658203,-179.09100341796875 C-110.83200073242188,-159.54400634765625 -124.26699829101562,-136.19700622558594 -130.69000244140625,-121.52200317382812 C-132.9669952392578,-116.32099914550781 -140.66600036621094,-117.89099884033203 -140.7830047607422,-123.56800079345703 C-140.94400024414062,-131.42999267578125 -138.468994140625,-141.7310028076172 -129.22999572753906,-153.61099243164062z M-33.005001068115234,150.59800720214844 C-41.946998596191406,153.3520050048828 -50.77000045776367,150.47300720214844 -52.71099853515625,144.1699981689453 C-54.65299987792969,137.86500549316406 -48.97700119018555,130.52200317382812 -40.03499984741211,127.76799774169922 C-31.093000411987305,125.01399993896484 -22.270000457763672,127.89299774169922 -20.32900047302246,134.197998046875 C-18.38800048828125,140.5019989013672 -24.062999725341797,147.84500122070312 -33.005001068115234,150.59800720214844z M36.1510009765625,129.30299377441406 C27.20800018310547,132.0570068359375 18.385000228881836,129.17799377441406 16.444000244140625,122.8740005493164 C14.501999855041504,116.56900024414062 20.17799949645996,109.22599792480469 29.118999481201172,106.47200012207031 C38.0620002746582,103.71900177001953 46.8849983215332,106.59700012207031 48.82600021362305,112.9020004272461 C50.768001556396484,119.20700073242188 45.09199905395508,126.54900360107422 36.1510009765625,129.30299377441406z M105.30500030517578,108.00800323486328 C96.36199951171875,110.76100158691406 87.54000091552734,107.88300323486328 85.5989990234375,101.5790023803711 C83.65699768066406,95.27400207519531 89.33200073242188,87.93099975585938 98.2750015258789,85.177001953125 C107.21700286865234,82.42400360107422 116.03900146484375,85.302001953125 117.98100280761719,91.60700225830078 C119.9219970703125,97.91200256347656 114.24700164794922,105.25499725341797 105.30500030517578,108.00800323486328z M120.38300323486328,39.40299987792969 C88.56400299072266,51.94499969482422 54.611000061035156,63.770999908447266 20.179000854492188,74.375 C-14.506999969482422,85.05500030517578 -49.67900085449219,94.49400329589844 -83.65299987792969,102.17400360107422 C-99.86199951171875,105.83899688720703 -116.4219970703125,96.85299682617188 -122.17400360107422,81.27400207519531 C-137.34500122070312,40.189998626708984 -145.8769989013672,-0.8830000162124634 -151.61599731445312,-32.07600021362305 C-154.45899963378906,-47.53300094604492 -145.9320068359375,-63.00899887084961 -131.33999633789062,-68.875 C-72.81900024414062,-92.4010009765625 -7.435999870300293,-112.47000122070312 62.99300003051758,-128.5260009765625 C78.93499755859375,-132.15899658203125 94.98699951171875,-123.8010025024414 101.16100311279297,-108.64900207519531 C114.78099822998047,-75.2249984741211 130.218994140625,-37.34199905395508 140.32000732421875,-0.11400000005960464 C144.7449951171875,16.19099998474121 136.1739959716797,33.17900085449219 120.38300323486328,39.40299987792969z"></path></g></g></g></svg>