<svg xmlns="http://www.w3.org/2000/svg" xmlns:xlink="http://www.w3.org/1999/xlink" viewBox="0 0 512 512" width="512" height="512" style="width: 100%; height: 100%; transform: translate3d(0,0,0);" preserveAspectRatio="xMidYMid meet"><defs><clipPath id="__lottie_element_53929"><rect width="512" height="512" x="0" y="0"></rect></clipPath></defs><g clip-path="url(#__lottie_element_53929)"><g style="display: block;" transform="matrix(1,0,0,1,257.3999938964844,259.93499755859375)" opacity="1"><g opacity="1" transform="matrix(1,0,0,1,0,0)"><path fill="rgb(0,0,0)" fill-opacity="1" d=" M-58.47,61.46 C-59.21,67.44 -55.82,70.67 -51.43,73.77 C-38.78,82.69 -28.85,93.96 -26.43,109.71 C-25.12,118.24 -20.8,121.28 -13.01,122.56 C19.24,127.86 51.42,133.58 83.64,138.99 C92.11,140.41 98.1,137.72 101.7,129.98 C111.04,109.95 126.37,98.01 148.04,94.25 C152.98,93.39 155.39,90.95 156,86.01 C156.85,79.14 176.14,-30.67 184.81,-78.72 C186.43,-87.74 185.66,-93.98 176.63,-99.98 C158.53,-112 149.9,-129.22 155.79,-151.71 C157.93,-159.9 157.45,-160.39 148.52,-161.88 C136.01,-163.98 60.04,-175.79 34.58,-179.68 C25.21,-181.12 24.46,-180.65 21.09,-171.66 C13.94,-150.59 -7.2,-138.17 -17.52,-134.55 C-22.35,-132.85 -25.08,-130.22 -25.8,-124.81 C-31.42,-82.09 -40.85,-40.03 -48.54,2.33 C-52.11,21.99 -55.18,41.75 -58.47,61.46z M-39.54,-239.1 C-25.84,-236.85 234.15,-192.7 236,-192.23 C244.3,-190.13 246.72,-186.87 245.87,-178.11 C245.35,-172.76 187.62,185.89 186.79,188.44 C183.8,197.59 179.13,200.55 169.35,198.97 C145.44,195.11 -97.58,154.16 -99.08,153.84 C-113.16,150.83 -118.02,144.16 -115.96,130.08 C-113.84,115.63 -59.79,-221.05 -58.92,-225.19 C-56.61,-236.2 -52.4,-239.51 -39.54,-239.1z"></path><g opacity="1" transform="matrix(1,0,0,1,63.45600128173828,-20.475000381469727)"></g><g opacity="1" transform="matrix(1,0,0,1,64.80899810791016,-19.878000259399414)"></g></g><g opacity="1" transform="matrix(1,0,0,1,-122.7030029296875,43.40399932861328)"><path fill="rgb(0,0,0)" fill-opacity="1" d=" M-123.25700378417969,-143.4250030517578 C-123.83599853515625,-162.2429962158203 -120.8499984741211,-166.40499877929688 -108.10900115966797,-169.1020050048828 C-67.8550033569336,-177.62399291992188 16.48900032043457,-195.1300048828125 18.39299964904785,-195.39599609375 C31.798999786376953,-197.27099609375 37.41699981689453,-191.19000244140625 35.53200149536133,-177.55099487304688 C22.73900032043457,-84.99500274658203 -9.753999710083008,105.24099731445312 -10.13599967956543,108.29299926757812 C-11.11400032043457,116.10600280761719 -10.081000328063965,117.76499938964844 -2.0869998931884766,118.81500244140625 C12.013999938964844,120.66799926757812 26.16200065612793,122.16899871826172 40.29499816894531,123.7770004272461 C62.446998596191406,126.2979965209961 84.61199951171875,128.7050018310547 106.75199890136719,131.32200622558594 C117.46099853515625,132.58799743652344 122.43800354003906,136.26400756835938 123.2239990234375,142.85400390625 C124.06800079345703,149.9340057373047 119.58200073242188,155.1820068359375 108.7020034790039,157.822998046875 C57.50899887084961,170.2469940185547 -56.301998138427734,196.7270050048828 -62.06999969482422,195.69900512695312 C-68.06500244140625,194.6300048828125 -71.49700164794922,191.2050018310547 -72.45600128173828,185.031005859375 C-80.06400299072266,136.0260009765625 -121.0739974975586,-127.58699798583984 -123.25700378417969,-143.4250030517578z"></path></g><g opacity="1" transform="matrix(1,0,0,1,62.935001373291016,-19.70400047302246)"><path fill="rgb(0,0,0)" fill-opacity="1" d=" M-82.6500015258789,4.372000217437744 C-82.55500030517578,-46.13999938964844 -55.564998626708984,-83.802001953125 -15.508999824523926,-96.25599670410156 C17.756999969482422,-106.5979995727539 65.87799835205078,-101.85099792480469 82.10600280761719,-64.18499755859375 C84.02400207519531,-59.733001708984375 80.80699920654297,-55.05400085449219 77.54000091552734,-54.71200180053711 C72.447998046875,-54.178001403808594 67.60800170898438,-54.698001861572266 62.66999816894531,-55.4900016784668 C45.36000061035156,-58.26599884033203 28.92099952697754,-55.45399856567383 13.550999641418457,-47.14400100708008 C-18.0049991607666,-30.083999633789062 -24.881999969482422,9.42300033569336 -1.0140000581741333,36.340999603271484 C13.432000160217285,52.632999420166016 32.393001556396484,58.92300033569336 53.45800018310547,60.20899963378906 C58.808998107910156,60.5359992980957 64.13400268554688,60.19499969482422 69.33699798583984,62.29899978637695 C75.78399658203125,64.90599822998047 77.18299865722656,69.94499969482422 74.12699890136719,76.96800231933594 C70.6709976196289,82.6719970703125 65.90699768066406,87.02799987792969 59.99599838256836,90.21700286865234 C24.92300033569336,113.24700164794922 -84.8270034790039,105.78099822998047 -82.6500015258789,4.372000217437744z"></path></g></g></g></svg>