<svg xmlns="http://www.w3.org/2000/svg" xmlns:xlink="http://www.w3.org/1999/xlink" viewBox="0 0 512 512" width="512" height="512" style="width: 100%; height: 100%; transform: translate3d(0,0,0);" preserveAspectRatio="xMidYMid meet"><defs><clipPath id="__lottie_element_15811"><rect width="512" height="512" x="0" y="0"></rect></clipPath></defs><g clip-path="url(#__lottie_element_15811)"><g style="display: block;" transform="matrix(1.0199999809265137,0,0,1.0199999809265137,14.106201171875,-13.30889892578125)" opacity="1"><g opacity="1" transform="matrix(1,0,0,1,241.69000244140625,260.1400146484375)"><path fill="rgb(0,0,0)" fill-opacity="1" d=" M202.3699951171875,-23 C172.97000122070312,-30.959999084472656 123.35099792480469,-35.59000015258789 109.37000274658203,-26 C75.37000274658203,-2.6700000762939453 39.70000076293945,0 44.369998931884766,-8 C47.16999816894531,-12.789999961853027 122.43000030517578,-30.020000457763672 135.3699951171875,-89 C145.22999572753906,-133.92999267578125 119.69999694824219,-150.3300018310547 129.3699951171875,-147 C138.08999633789062,-143.99000549316406 181.6999969482422,-169 147.27000427246094,-213.17999267578125 C110.87999725341797,-259.8900146484375 78.37000274658203,-218.3300018310547 74.37000274658203,-214 C70.37000274658203,-209.6699981689453 61.040000915527344,-235 1.0399999618530273,-237 C-47.0099983215332,-238.60000610351562 -56.34000015258789,-220.41000366210938 -58.630001068115234,-225 C-60.959999084472656,-229.6699981689453 -89.62999725341797,-256 -120.30000305175781,-233 C-155.47000122070312,-206.6199951171875 -125.62999725341797,-173 -114.62999725341797,-171 C-107.87000274658203,-169.77000427246094 -139.6300048828125,-152.3300018310547 -142.9600067138672,-109 C-146.60000610351562,-61.7599983215332 -113.62999725341797,-48.20000076293945 -113.62999725341797,-42 C-113.62999725341797,-34.33000183105469 -175,-42.630001068115234 -201.6300048828125,-28 C-238.64999389648438,-7.670000076293945 -221.6300048828125,45.66999816894531 -185.6300048828125,49 C-144.60000610351562,52.79999923706055 -95.62999725341797,20.329999923706055 -99.62999725341797,29 C-104.13999938964844,38.779998779296875 -111.4000015258789,79.52999877929688 -122.62999725341797,86 C-133.6300048828125,92.33000183105469 -155.08999633789062,83.0999984741211 -157.6300048828125,88 C-160.32000732421875,93.19999694824219 -144.33999633789062,103.62999725341797 -140.6300048828125,125 C-134.9600067138672,157.6699981689453 -154.4600067138672,182.22000122070312 -152.6300048828125,173 C-146.3000030517578,141 -160.6300048828125,89 -188.6300048828125,88 C-207.97000122070312,87.30999755859375 -239.92999267578125,115.83999633789062 -240.6300048828125,149 C-241.44000244140625,187.02000427246094 -211.6300048828125,222.3300018310547 -163.6300048828125,225 C-127.48999786376953,227.00999450683594 -94.0199966430664,212.02999877929688 -51.630001068115234,191 C-46.27000045776367,188.33999633789062 -14.300000190734863,198.3300018310547 55.369998931884766,191 C64.05000305175781,190.08999633789062 47.040000915527344,235 99.37000274658203,248 C133.5800018310547,256.5 166.72000122070312,230.8800048828125 181.3699951171875,193 C195.0399932861328,157.6699981689453 177.13999938964844,115.55000305175781 152.3699951171875,110 C94.37000274658203,97 72.37000274658203,157 68.37000274658203,147 C66.83000183105469,143.14999389648438 73.52999877929688,120.16999816894531 93.37000274658203,106 C114.37000274658203,91 134.3699951171875,97.66999816894531 138.3699951171875,88 C141.36000061035156,80.7699966430664 135.6999969482422,55.33000183105469 134.3699951171875,44 C133.56100463867188,37.09000015258789 188.3699951171875,69 219.3699951171875,53 C241.44000244140625,41.61000061035156 234.3699951171875,-14.329999923706055 202.3699951171875,-23z M-8.960000038146973,-50.33000183105469 C-17.65999984741211,-56.2599983215332 -26.84000015258789,-76.55999755859375 -22.959999084472656,-78.33000183105469 C-11.329999923706055,-83.66999816894531 1.649999976158142,-92.68000030517578 1.7000000476837158,-101 C1.7599999904632568,-109.41000366210938 -19.360000610351562,-118.6500015258789 -38.959999084472656,-118.33000183105469 C-57.650001525878906,-118.02999877929688 -74.83000183105469,-106.98999786376953 -74.62999725341797,-99 C-74.41999816894531,-90.9800033569336 -57.849998474121094,-84.12999725341797 -46.959999084472656,-76.33000183105469 C-43.06999969482422,-73.54000091552734 -41.869998931884766,-55.349998474121094 -46.959999084472656,-52 C-56.65999984741211,-45.619998931884766 -94.52999877929688,-64.08999633789062 -94.62999725341797,-92.66999816894531 C-94.7300033569336,-122.33000183105469 -56.65999984741211,-135.7899932861328 -32.959999084472656,-137 C4.420000076293945,-138.91000366210938 46.36000061035156,-113.55000305175781 46.369998931884766,-88.33000183105469 C46.38999938964844,-59 5.699999809265137,-40.33000183105469 -8.960000038146973,-50.33000183105469z"></path></g></g></g></svg>