<svg xmlns="http://www.w3.org/2000/svg" xmlns:xlink="http://www.w3.org/1999/xlink" viewBox="0 0 512 512" width="512" height="512" style="width: 100%; height: 100%; transform: translate3d(0,0,0);" preserveAspectRatio="xMidYMid meet"><defs><clipPath id="__lottie_element_53759"><rect width="512" height="512" x="0" y="0"></rect></clipPath></defs><g clip-path="url(#__lottie_element_53759)"><g style="display: block;" transform="matrix(1,0,0,1,0,0)" opacity="1"><g opacity="1" transform="matrix(1,0,0,1,234.04600524902344,412.1369934082031)"><path fill="rgb(0,0,0)" fill-opacity="1" d=" M73.51599884033203,79.70099639892578 C73.51599884033203,79.70099639892578 32.85499954223633,-35.125 32.85499954223633,-35.125 C30.246000289916992,-33.244998931884766 26.67099952697754,-32.13800048828125 21.839000701904297,-32.297000885009766 C21.05699920654297,-32.321998596191406 20.84600067138672,-33.387001037597656 21.555999755859375,-33.7140007019043 C24.273000717163086,-34.9640007019043 28.290000915527344,-37.3120002746582 30.996999740600586,-41.119998931884766 C32.52399826049805,-43.608001708984375 33.42100143432617,-46.52199935913086 33.42100143432617,-49.65299987792969 C33.42100143432617,-49.65299987792969 33.42100143432617,-87.4729995727539 33.42100143432617,-87.4729995727539 C33.42100143432617,-89.9469985961914 32.637001037597656,-92.23600006103516 31.30500030517578,-94.10900115966797 C29.79599952697754,-96.2300033569336 26.80299949645996,-96.67500305175781 24.663999557495117,-95.19200134277344 C17.649999618530273,-90.32599639892578 8.954999923706055,-87.47100067138672 0.5839999914169312,-87.47100067138672 C-8.503000259399414,-87.47100067138672 -16.667999267578125,-90.36100006103516 -23.32200050354004,-95.21499633789062 C-25.448999404907227,-96.76699829101562 -28.482999801635742,-96.37799835205078 -30.038999557495117,-94.25399780273438 C-31.430999755859375,-92.35399627685547 -32.25400161743164,-90.00900268554688 -32.25400161743164,-87.4729995727539 C-32.25400161743164,-87.4729995727539 -32.25400161743164,-49.65299987792969 -32.25400161743164,-49.65299987792969 C-32.25400161743164,-47.005001068115234 -31.611000061035156,-44.512001037597656 -30.4950008392334,-42.29899978637695 C-27.615999221801758,-38.577999114990234 -23.108999252319336,-35.974998474121094 -20.336000442504883,-34.62099838256836 C-19.753000259399414,-34.33700180053711 -19.969999313354492,-33.46900177001953 -20.618000030517578,-33.47700119018555 C-25.843000411987305,-33.540000915527344 -29.628999710083008,-34.71799850463867 -32.32099914550781,-36.63199996948242 C-32.32099914550781,-36.63199996948242 -73.51599884033203,79.70099639892578 -73.51599884033203,79.70099639892578 C-76.4219970703125,87.94999694824219 -70.8550033569336,94.94400024414062 -62.143001556396484,95.71700286865234 C-50.29199981689453,96.76699829101562 -44.237998962402344,92.5510025024414 -41.94499969482422,86.04299926757812 C-41.94499969482422,86.04299926757812 -5.232999801635742,-33.28499984741211 -5.232999801635742,-33.28499984741211 C-5.232999801635742,-33.28499984741211 5.232999801635742,-33.28499984741211 5.232999801635742,-33.28499984741211 C5.232999801635742,-33.28499984741211 41.94599914550781,86.04299926757812 41.94599914550781,86.04299926757812 C44.23899841308594,92.5510025024414 50.29199981689453,96.76699829101562 62.143001556396484,95.71700286865234 C70.8550033569336,94.94400024414062 76.4219970703125,87.94999694824219 73.51599884033203,79.70099639892578z"></path></g><g opacity="1" transform="matrix(1,0,0,1,252.78500366210938,204.93600463867188)"><path fill="rgb(0,0,0)" fill-opacity="1" d=" M234.9239959716797,114.86699676513672 C223.60400390625,106.97200012207031 208.77699279785156,107.01399993896484 195.6280059814453,113.55400085449219 C195.6280059814453,113.55400085449219 114.77300262451172,50.83300018310547 114.77300262451172,50.83300018310547 C122.05400085449219,32.362998962402344 116.83999633789062,10.71500015258789 100.78900146484375,-2.296999931335449 C100.78900146484375,-2.296999931335449 -73.43800354003906,-143.5240020751953 -73.43800354003906,-143.5240020751953 C-79.31999969482422,-122.30799865722656 -91.70800018310547,-106.44400024414062 -98.22100067138672,-99.19400024414062 C-98.94599914550781,-98.38700103759766 -100.2239990234375,-99.25399780273438 -99.76000213623047,-100.23500061035156 C-90.88200378417969,-119.01399993896484 -86.11399841308594,-137.5019989013672 -85.7020034790039,-153.46400451660156 C-85.7020034790039,-153.46400451660156 -85.70999908447266,-153.4709930419922 -85.70999908447266,-153.4709930419922 C-85.60399627685547,-157.5760040283203 -85.78700256347656,-161.51400756835938 -86.26000213623047,-165.2469940185547 C-86.27100372314453,-165.33799743652344 -86.28299713134766,-165.42799377441406 -86.29399871826172,-165.51699829101562 C-86.52799987792969,-167.3040008544922 -86.8290023803711,-169.04299926757812 -87.197998046875,-170.72999572753906 C-87.23300170898438,-170.88900756835938 -87.27100372314453,-171.0449981689453 -87.30699920654297,-171.2030029296875 C-87.45500183105469,-171.85400390625 -87.61399841308594,-172.49600219726562 -87.78299713134766,-173.13099670410156 C-87.83799743652344,-173.33900451660156 -87.89299774169922,-173.54800415039062 -87.94999694824219,-173.7550048828125 C-88.16500091552734,-174.5260009765625 -88.38999938964844,-175.28900146484375 -88.63600158691406,-176.03500366210938 C-91.34100341796875,-184.2449951171875 -95.91300201416016,-190.91900634765625 -102.41799926757812,-195.4550018310547 C-129.28199768066406,-214.19000244140625 -178.94400024414062,-189.39199829101562 -213.3419952392578,-140.06900024414062 C-247.74000549316406,-90.74500274658203 -253.8470001220703,-35.573001861572266 -226.98300170898438,-16.83799934387207 C-219.70700073242188,-11.763999938964844 -210.7570037841797,-9.883000373840332 -200.88999938964844,-10.819000244140625 C-194.9530029296875,-11.381999969482422 -188.67999267578125,-12.984999656677246 -182.2429962158203,-15.506999969482422 C-171.39700317382812,-20.41200065612793 -159.77999877929688,-27.823999404907227 -147.36300659179688,-38.858001708984375 C-146.552001953125,-39.577999114990234 -145.3470001220703,-38.733001708984375 -145.85400390625,-37.77299880981445 C-149.41600036621094,-31.031999588012695 -158.99099731445312,-20.270000457763672 -172.0070037841797,-9.979000091552734 C-172.0070037841797,-9.979000091552734 -47.82500076293945,63.17499923706055 -47.82500076293945,63.17499923706055 C-50.12300109863281,67.76599884033203 -51.42300033569336,72.94400024414062 -51.42300033569336,78.427001953125 C-51.42300033569336,97.27899932861328 -36.141998291015625,112.56099700927734 -17.290000915527344,112.56099700927734 C-5.609000205993652,112.56099700927734 4.697999954223633,106.69000244140625 10.85099983215332,97.74099731445312 C10.85099983215332,97.74099731445312 24.06100082397461,105.52200317382812 24.06100082397461,105.52200317382812 C40.29999923706055,115.08999633789062 60.00600051879883,114.05000305175781 74.90599822998047,104.23600006103516 C82.48999786376953,98.49500274658203 88.25399780273438,92.11499786376953 93.31199645996094,84.65599822998047 C94.30400085449219,83.19300079345703 96.427001953125,84.12000274658203 95.9469985961914,85.7770004272461 C93.52300262451172,94.13200378417969 89.65399932861328,100.74400329589844 85.75299835205078,105.75700378417969 C85.75299835205078,105.75700378417969 166.0469970703125,155.5469970703125 166.0469970703125,155.5469970703125 C164.27699279785156,170.33099365234375 169.34500122070312,184.4929962158203 180.7969970703125,192.47999572753906 C198.6580047607422,204.93600463867188 215.5070037841797,190.86199951171875 230.45399475097656,169.4290008544922 C245.4010009765625,147.9969940185547 252.78500366210938,127.322998046875 234.9239959716797,114.86699676513672z M-113.99800109863281,-166.24200439453125 C-115.94100189208984,-167.9010009765625 -118.72200012207031,-169.69200134277344 -122.59600067138672,-171.0540008544922 C-133.2220001220703,-174.78900146484375 -154.42100524902344,-165.8780059814453 -175.16900634765625,-144.05499267578125 C-176.64500427246094,-142.5030059814453 -175.16400146484375,-140.01499938964844 -173.08599853515625,-140.53799438476562 C-171.572998046875,-140.91900634765625 -170.0760040283203,-141.14300537109375 -168.61300659179688,-141.1999969482422 C-165.1490020751953,-141.33399963378906 -163.875,-138.48899841308594 -163.8040008544922,-135.38800048828125 C-163.6280059814453,-127.74299621582031 -166.81399536132812,-120.51399993896484 -173.94900512695312,-109.70600128173828 C-180.68099975585938,-99.50900268554688 -185.6280059814453,-95.89700317382812 -192.13099670410156,-91.9469985961914 C-194.97999572753906,-90.21700286865234 -200.63999938964844,-89.45500183105469 -201.6280059814453,-92.99299621582031 C-202.07200622558594,-94.58200073242188 -202.3560028076172,-96.2770004272461 -202.4810028076172,-98.05000305175781 C-202.60899353027344,-99.86299896240234 -205.11199951171875,-100.26399993896484 -205.86199951171875,-98.60900115966797 C-217.25599670410156,-73.45800018310547 -217.04299926757812,-53.821998596191406 -210.99099731445312,-45.43600082397461 C-208.01699829101562,-41.314998626708984 -204.7169952392578,-38.9900016784668 -201.93899536132812,-37.67900085449219 C-200.88099670410156,-37.18000030517578 -201.28599548339844,-35.57500076293945 -202.45399475097656,-35.64799880981445 C-206.72000122070312,-35.91699981689453 -210.5749969482422,-37.152000427246094 -213.86000061035156,-39.44300079345703 C-232.18299865722656,-52.22100067138672 -225.82200622558594,-92.9990005493164 -199.6529998779297,-130.52200317382812 C-173.48500061035156,-168.04600524902344 -137.41700744628906,-188.1060028076172 -119.09500122070312,-175.3280029296875 C-116.28099822998047,-173.36599731445312 -114.04900360107422,-170.7429962158203 -112.38200378417969,-167.57400512695312 C-111.83300018310547,-166.52999877929688 -113.10099792480469,-165.4759979248047 -113.99800109863281,-166.24200439453125z M41.367000579833984,-15.562999725341797 C39.45800018310547,-12.845999717712402 -31.615999221801758,-67.13600158691406 -40.8380012512207,-74.30899810791016 C-46.67100143432617,-78.84600067138672 -42.78200149536133,-84.89399719238281 -36.28499984741211,-79.61699676513672 C-27.39299964904785,-72.39299774169922 43.63100051879883,-18.788000106811523 41.367000579833984,-15.562999725341797z M184.75100708007812,181.75399780273438 C178.28500366210938,175.37100219726562 179.64500427246094,165.06399536132812 182.15199279785156,164.80299377441406 C185.66799926757812,164.43699645996094 187.29800415039062,172.04299926757812 191.9040069580078,177.9340057373047 C196.11399841308594,183.3209991455078 188.5989990234375,185.55299377441406 184.75100708007812,181.75399780273438z M188.31399536132812,139.4029998779297 C184.14599609375,145.38099670410156 180.0290069580078,147.8090057373047 177.25599670410156,148.79200744628906 C176.0850067138672,149.20700073242188 175.52200317382812,147.79100036621094 176.4600067138672,146.7760009765625 C179.8730010986328,143.08700561523438 186.0229949951172,135.7010040283203 191.36599731445312,125.35800170898438 C192.0070037841797,124.11499786376953 193.5540008544922,124.19000244140625 193.52699279785156,125.45999908447266 C193.4600067138672,128.5489959716797 192.48399353027344,133.4239959716797 188.31399536132812,139.4029998779297z"></path></g></g></g></svg>