<svg xmlns="http://www.w3.org/2000/svg" xmlns:xlink="http://www.w3.org/1999/xlink" viewBox="0 0 512 512" width="512" height="512" style="width: 100%; height: 100%; transform: translate3d(0,0,0);" preserveAspectRatio="xMidYMid meet"><defs><clipPath id="__lottie_element_52333"><rect width="512" height="512" x="0" y="0"></rect></clipPath></defs><g clip-path="url(#__lottie_element_52333)"><g style="display: block;" transform="matrix(1,0,0,1,258.22601318359375,254.98599243164062)" opacity="1"><g opacity="1" transform="matrix(1,0,0,1,0,0)"><path fill="rgb(0,0,0)" fill-opacity="1" d=" M153.73,-210.54 C171.92,-205.25 190.26,-197.46 209.19,-199.1 C213.9,-199.92 214.94,-203.16 211.75,-206.8 C197.25,-222.31 171.81,-217.92 153.73,-210.54z M-25.61,-116.99 C21.13,-117.36 10.93,-205.09 -33.27,-172.45 C-48.87,-157.02 -55.73,-118.14 -25.61,-116.99z M112.92,-131.02 C69.79,-131.9 72.61,-48.09 118.89,-71.46 C142.12,-84.47 143.68,-129.98 112.92,-131.02z M168.71400451660156,-172.36099243164062 C216.61099243164062,-99.54000091552734 198.40499877929688,17.56100082397461 104.16899871826172,40.236000061035156 C64.89600372314453,50.323001861572266 26.361000061035156,47.9119987487793 -10.710000038146973,30.35700035095215 C-15.355999946594238,28.447999954223633 -22.840999603271484,23.1560001373291 -26.923999786376953,28.388999938964844 C-27.381999969482422,38.354000091552734 -12.317000389099121,43.06399917602539 -5.059999942779541,47.67599868774414 C18.14299964904785,58.617000579833984 42.52899932861328,65.6050033569336 68.28500366210938,65.5780029296875 C79.03199768066406,65.56700134277344 84.60600280761719,69.18199920654297 88.697998046875,79.177001953125 C104.06300354003906,117.45999908447266 143.0570068359375,135.73800659179688 169.49200439453125,164.93899536132812 C188.51199340820312,186.0489959716797 182.5709991455078,206.4239959716797 155.2449951171875,213.8820037841797 C130.78900146484375,218.4949951171875 104.60099792480469,215.156005859375 82.93599700927734,230.0749969482422 C8.994000434875488,277.6700134277344 -37.025001525878906,215.2469940185547 -108.91899871826172,214.10400390625 C-160.5290069580078,212.76100158691406 -207.4949951171875,180.66799926757812 -230.35499572753906,134.7550048828125 C-237.6060028076172,119.1520004272461 -256.04901123046875,103.26899719238281 -239.06500244140625,87.43499755859375 C-206.6269989013672,50.6879997253418 -159.906005859375,32.49100112915039 -118.86900329589844,7.459000110626221 C-110.78299713134766,0.21299999952316284 -76.61699676513672,-10.536999702453613 -89.80799865722656,-22.729000091552734 C-148.16000366210938,-102.47799682617188 -109.05400085449219,-224.68299865722656 -8.66100025177002,-243.4709930419922 C64.64099884033203,-262.99798583984375 107.35099792480469,-211.25799560546875 127.48699951171875,-227.531005859375 C230.16600036621094,-293.6719970703125 312.64599609375,-148.20700073242188 168.71400451660156,-172.36099243164062z"></path><g opacity="1" transform="matrix(1,0,0,1,183.65899658203125,-208.0679931640625)"></g><g opacity="1" transform="matrix(1,0,0,1,-20.79800033569336,-148.35699462890625)"></g><g opacity="1" transform="matrix(1,0,0,1,109.24099731445312,-99.18800354003906)"></g><g opacity="1" transform="matrix(1,0,0,1,0,0)"></g></g></g></g></svg>