<svg xmlns="http://www.w3.org/2000/svg" xmlns:xlink="http://www.w3.org/1999/xlink" viewBox="0 0 512 512" width="512" height="512" style="width: 100%; height: 100%; transform: translate3d(0,0,0);" preserveAspectRatio="xMidYMid meet"><defs><clipPath id="__lottie_element_51500"><rect width="512" height="512" x="0" y="0"></rect></clipPath></defs><g clip-path="url(#__lottie_element_51500)"><g style="display: block;" transform="matrix(1,0,0,1,255.0850067138672,256.0679931640625)" opacity="1"><g opacity="1" transform="matrix(1,0,0,1,0,0)"><path fill="rgb(0,0,0)" fill-opacity="1" d=" M215.99,86.61 C220.48,47.99 167.66,30.83 166.41,73.18 C169.86,92.75 145.96,114.86 169.68,128.75 C194.65,144.16 216.26,107.89 215.99,86.61z M-78.84,-50.42 C-60.97,-70.62 -15.38,-83.49 -15.38,-83.49 C-9.17,-130.53 49.7,-157.3 77.79,-113.79 C84.65,-103.18 85.09,-97.2 87.2,-84.93 C87.2,-84.93 101.46,-77.52 117.55,-65.79 C159.06,-35.56 98.45,-12.86 74.12,-8.81 C45.03,-1.74 15.77,-0.39 -13.6,-7.35 C-32.09,-11.76 -22.92,0.17 -11.3,1.57 C37.19,12.87 115.98,11.54 148.31,-36.49 C153.22,-58.43 206.44,-160.98 168.25,-181.11 C149.02,-192.62 106.51,-211.86 18.6,-207.68 C-11.24,-206.27 -97.94,-193.3 -94.34,-153.69 C-91.84,-127.43 -83.35,-59.54 -78.84,-50.42z M59.082000732421875,-239.64300537109375 C245.21800231933594,-231.697998046875 230.8979949951172,-174.781005859375 189.89500427246094,-35.41299819946289 C182.55099487304688,-13.170000076293945 182.68499755859375,-13.031999588012695 200.2790069580078,1.409000039100647 C285.4219970703125,63.5260009765625 257.4859924316406,161.83200073242188 163.59100341796875,194.2469940185547 C139.61500549316406,199.76199340820312 156.95399475097656,223.00799560546875 128.33200073242188,230.43699645996094 C87.23200225830078,240.40199279785156 -29.597999572753906,248.38900756835938 -80.10099792480469,223.9239959716797 C-100.02899932861328,217.10400390625 -89.16699981689453,199.71600341796875 -102.94200134277344,192.5959930419922 C-130.10299682617188,179.906005859375 -152.10000610351562,161.50900268554688 -166.0850067138672,134.48699951171875 C-177.28399658203125,120.30899810791016 -198.64300537109375,117.5 -203.2570037841797,97.00700378417969 C-210.37899780273438,73.11100006103516 -223.92300415039062,53.96099853515625 -243.3000030517578,38.59299850463867 C-269.5249938964844,19.863000869750977 -224.01499938964844,-20.14299964904785 -203.3509979248047,-5.202000141143799 C-190.2790069580078,2.8529999256134033 -176.89300537109375,10.409000396728516 -164.781005859375,19.961999893188477 C-157.16000366210938,25.972999572753906 -156.91200256347656,25.868999481201172 -150.71299743652344,18.809999465942383 C-141.28599548339844,8.074999809265137 -130.88299560546875,-1.3519999980926514 -118.19200134277344,-8.232000350952148 C-110.22000122070312,-12.553000450134277 -110.23600006103516,-12.970000267028809 -112.4000015258789,-22.35700035095215 C-119.04000091552734,-51.16400146484375 -129.7469940185547,-142.58900451660156 -130.60499572753906,-159.0959930419922 C-131.5760040283203,-177.7779998779297 -123.06800079345703,-191.67799377441406 -107.93800354003906,-201.84800720214844 C-94.80500030517578,-210.67599487304688 -52.03300094604492,-244.38600158691406 59.082000732421875,-239.64300537109375z"></path><g opacity="1" transform="matrix(1,0,0,1,187.6540069580078,90.46700286865234)"></g><g opacity="1" transform="matrix(1,0,0,1,43.750999450683594,-100.4219970703125)"></g><g opacity="1" transform="matrix(1,0,0,1,0,0)"></g></g></g></g></svg>