<svg xmlns="http://www.w3.org/2000/svg" xmlns:xlink="http://www.w3.org/1999/xlink" viewBox="0 0 512 512" width="512" height="512" style="width: 100%; height: 100%; transform: translate3d(0,0,0);" preserveAspectRatio="xMidYMid meet"><defs><clipPath id="__lottie_element_52303"><rect width="512" height="512" x="0" y="0"></rect></clipPath></defs><g clip-path="url(#__lottie_element_52303)"><g style="display: block;" transform="matrix(1,0,0,1,0,0)" opacity="1"><g opacity="1" transform="matrix(1,0,0,1,260.43499755859375,294.89898681640625)"><path stroke-linecap="butt" stroke-linejoin="miter" fill-opacity="0" stroke-miterlimit="10" stroke="rgb(4,5,52)" stroke-opacity="1" stroke-width="1" d=" M-40.09000015258789,0 C-40.09000015258789,-8.09000015258789 -37.689998626708984,-15.619999885559082 -33.560001373291016,-21.920000076293945 C-31.760000228881836,-14.449999809265137 -25.030000686645508,-8.899999618530273 -17.010000228881836,-8.899999618530273 C-7.619999885559082,-8.899999618530273 0,-16.510000228881836 0,-25.90999984741211 C0,-31.469999313354492 -2.6700000762939453,-36.40999984741211 -6.789999961853027,-39.5099983215332 C-4.579999923706055,-39.88999938964844 -2.309999942779541,-40.09000015258789 0,-40.09000015258789 C22.139999389648438,-40.09000015258789 40.09000015258789,-22.139999389648438 40.09000015258789,0 C40.09000015258789,22.139999389648438 22.139999389648438,40.09000015258789 0,40.09000015258789 C-22.139999389648438,40.09000015258789 -40.09000015258789,22.139999389648438 -40.09000015258789,0z"></path></g><g opacity="1" transform="matrix(1,0,0,1,258.739990234375,245.83200073242188)"><path fill="rgb(4,5,52)" fill-opacity="1" d=" M180.9949951171875,72.46700286865234 C164.9550018310547,88.21700286865234 102.61499786376953,142.7469940185547 10.545000076293945,140.3769989013672 C-91.38500213623047,137.7469940185547 -133.86500549316406,63.23699951171875 -134.52499389648438,62.06700134277344 C-133.7050018310547,63.05699920654297 -79.3949966430664,127.63700103759766 10.545000076293945,124.2770004272461 C74.07499694824219,121.90699768066406 136.38499450683594,76.03700256347656 167.96499633789062,48.82699966430664 C167.96499633789062,48.82699966430664 167.96499633789062,48.81700134277344 167.96499633789062,48.81700134277344 C99.7249984741211,-74.13300323486328 10.96500015258789,-221.9929962158203 -2.744999885559082,-221.9929962158203 C-18.135000228881836,-221.9929962158203 -88.57499694824219,-104.63300323486328 -150.1649932861328,7.936999797821045 C-125.08499908447266,-11.982999801635742 -76.29499816894531,-40.94300079345703 -5.494999885559082,-39.87300109863281 C85.23500061035156,-38.49300003051758 124.78500366210938,28.066999435424805 126.57499694824219,31.16699981689453 C124.53500366210938,28.37700080871582 82.86499786376953,-27.072999954223633 -5.494999885559082,-23.783000946044922 C-96.13500213623047,-20.39299964904785 -184.27499389648438,71.50700378417969 -184.27499389648438,71.50700378417969 C-222.90499877929688,144.9969940185547 -251.40499877929688,204.94700622558594 -248.60499572753906,210.85699462890625 C-240.98500061035156,226.94700622558594 240.9949951171875,224.40699768066406 248.61500549316406,210.85699462890625 C251.4149932861328,205.8769989013672 221.3350067138672,146.0970001220703 180.9949951171875,72.46700286865234z M1.6950000524520874,-14.182999610900879 C36.625,-14.182999610900879 64.94499969482422,14.13700008392334 64.94499969482422,49.06700134277344 C64.94499969482422,83.99700164794922 36.625,112.31700134277344 1.6950000524520874,112.31700134277344 C-33.23500061035156,112.31700134277344 -61.55500030517578,83.99700164794922 -61.55500030517578,49.06700134277344 C-61.55500030517578,14.13700008392334 -33.23500061035156,-14.182999610900879 1.6950000524520874,-14.182999610900879z"></path></g><g opacity="1" transform="matrix(1,0,0,1,260.43499755859375,294.89898681640625)"><path stroke-linecap="butt" stroke-linejoin="miter" fill-opacity="0" stroke-miterlimit="10" stroke="rgb(4,5,52)" stroke-opacity="1" stroke-width="1" d=" M40.09000015258789,0 C40.09000015258789,22.139999389648438 22.139999389648438,40.09000015258789 0,40.09000015258789 C-22.139999389648438,40.09000015258789 -40.09000015258789,22.139999389648438 -40.09000015258789,0 C-40.09000015258789,-8.09000015258789 -37.689998626708984,-15.619999885559082 -33.560001373291016,-21.920000076293945 C-31.760000228881836,-14.449999809265137 -25.030000686645508,-8.899999618530273 -17.010000228881836,-8.899999618530273 C-7.619999885559082,-8.899999618530273 0,-16.510000228881836 0,-25.90999984741211 C0,-31.469999313354492 -2.6700000762939453,-36.40999984741211 -6.789999961853027,-39.5099983215332 C-4.579999923706055,-39.88999938964844 -2.309999942779541,-40.09000015258789 0,-40.09000015258789 C22.139999389648438,-40.09000015258789 40.09000015258789,-22.139999389648438 40.09000015258789,0z"></path></g><g opacity="1" transform="matrix(1,0,0,1,260.43499755859375,294.89898681640625)"><path fill="rgb(4,5,52)" fill-opacity="1" d=" M40.09000015258789,0 C40.09000015258789,22.139999389648438 22.139999389648438,40.09000015258789 0,40.09000015258789 C-22.139999389648438,40.09000015258789 -40.09000015258789,22.139999389648438 -40.09000015258789,0 C-40.09000015258789,-8.09000015258789 -37.689998626708984,-15.619999885559082 -33.560001373291016,-21.920000076293945 C-31.760000228881836,-14.449999809265137 -25.030000686645508,-8.899999618530273 -17.010000228881836,-8.899999618530273 C-7.619999885559082,-8.899999618530273 0,-16.510000228881836 0,-25.90999984741211 C0,-31.469999313354492 -2.6700000762939453,-36.40999984741211 -6.789999961853027,-39.5099983215332 C-4.579999923706055,-39.88999938964844 -2.309999942779541,-40.09000015258789 0,-40.09000015258789 C22.139999389648438,-40.09000015258789 40.09000015258789,-22.139999389648438 40.09000015258789,0z"></path></g></g></g></svg>