<svg xmlns="http://www.w3.org/2000/svg" xmlns:xlink="http://www.w3.org/1999/xlink" viewBox="0 0 512 512" width="512" height="512" style="width: 100%; height: 100%; transform: translate3d(0,0,0);" preserveAspectRatio="xMidYMid meet"><defs><clipPath id="__lottie_element_664"><rect width="512" height="512" x="0" y="0"></rect></clipPath></defs><g clip-path="url(#__lottie_element_664)"><g style="display: block;" transform="matrix(1,0,0,1,256,256)" opacity="1"><g id="d20a0aff" opacity="1" transform="matrix(1,0,0,1,0,0)"><g opacity="1" transform="matrix(1,0,0,1,0,0)"><path fill="rgb(0,0,0)" fill-opacity="1" d=" M-95.38899993896484,-70.86199951171875 C-95.38899993896484,-70.86199951171875 -67.75800323486328,-70.86199951171875 -67.75800323486328,-70.86199951171875 C-73.24700164794922,-55.4640007019043 -78.70500183105469,-40.060001373291016 -84.18900299072266,-24.65999984741211 C-84.57499694824219,-23.575000762939453 -84.06400299072266,-21.85099983215332 -80.76899719238281,-21.784000396728516 C-79.33399963378906,-21.7549991607666 -77.89900207519531,-21.780000686645508 -76.46199798583984,-21.770999908447266 C-71.52999877929688,-21.740999221801758 -70.47200012207031,-22.40999984741211 -69.87999725341797,-24.07200050354004 C-64.322998046875,-39.66699981689453 -58.79100036621094,-55.26900100708008 -53.224998474121094,-70.86199951171875 C-53.224998474121094,-70.86199951171875 -25.756000518798828,-70.86199951171875 -25.756000518798828,-70.86199951171875 C-31.722000122070312,-54.125 -44.44499969482422,-18.284000396728516 -45.125999450683594,-16.47800064086914 C-46.106998443603516,-13.87399959564209 -47.77799987792969,-7.925000190734863 -64.21399688720703,-7.925000190734863 C-64.21399688720703,-7.925000190734863 -99.79900360107422,-7.925000190734863 -99.79900360107422,-7.925000190734863 C-116.68800354003906,-7.925000190734863 -114.14399719238281,-17.70400047302246 -113.45600128173828,-19.639999389648438 C-107.38800048828125,-36.7130012512207 -101.31500244140625,-53.7869987487793 -95.25,-70.86100006103516 C-95.25,-70.86100006103516 -95.38899993896484,-70.86199951171875 -95.38899993896484,-70.86199951171875z"></path></g><g opacity="1" transform="matrix(1,0,0,1,0,0)"><path fill="rgb(0,0,0)" fill-opacity="1" d=" M-12.6850004196167,-70.86199951171875 C-12.6850004196167,-70.86199951171875 46.69499969482422,-70.86199951171875 46.69499969482422,-70.86199951171875 C45.04600143432617,-66.25599670410156 43.41699981689453,-61.64400100708008 41.775001525878906,-57.03499984741211 C21.979999542236328,-57.03200149536133 2.186000108718872,-57.03300094604492 -17.608999252319336,-57.034000396728516 C-15.968999862670898,-61.64400100708008 -14.34000015258789,-66.25599670410156 -12.6850004196167,-70.86199951171875z"></path></g><g opacity="1" transform="matrix(1,0,0,1,0,0)"><path fill="rgb(0,0,0)" fill-opacity="1" d=" M73.50599670410156,-70.86199951171875 C73.50599670410156,-70.86199951171875 118.552001953125,-70.86199951171875 118.552001953125,-70.86199951171875 C117.90299987792969,-68.77100372314453 114.57499694824219,-59.56700134277344 113.67500305175781,-57.03499984741211 C103.92900085449219,-57.03300094604492 94.18099975585938,-57.03499984741211 84.43499755859375,-57.034000396728516 C80.9229965209961,-57.034000396728516 79.05699920654297,-56.7859992980957 78.24400329589844,-54.49800109863281 C74.68800354003906,-44.492000579833984 71.12799835205078,-34.48500061035156 67.57499694824219,-24.47800064086914 C67.34700012207031,-23.836999893188477 67.46600341796875,-21.773000717163086 71.51200103759766,-21.77199935913086 C82.12699890136719,-21.770000457763672 92.74199676513672,-21.77199935913086 103.35700225830078,-21.770000457763672 C101.71900177001953,-17.155000686645508 100.0770034790039,-12.539999961853027 98.43599700927734,-7.925000190734863 C98.43599700927734,-7.925000190734863 53.319000244140625,-7.925000190734863 53.319000244140625,-7.925000190734863 C43.43199920654297,-7.925000190734863 37.13600158691406,-12.513999938964844 39.28499984741211,-18.558000564575195 C44.3849983215332,-32.89699935913086 49.486000061035156,-47.23500061035156 54.5880012512207,-61.57400131225586 C55.5099983215332,-64.16400146484375 57.07699966430664,-70.86199951171875 73.50599670410156,-70.86199951171875z"></path></g><g opacity="1" transform="matrix(1,0,0,1,0,0)"><path fill="rgb(0,0,0)" fill-opacity="1" d=" M-21.01799964904785,-47.48899841308594 C-1.2200000286102295,-47.49100112915039 18.577999114990234,-47.4900016784668 38.375999450683594,-47.48899841308594 C36.73400115966797,-42.86899948120117 35.09000015258789,-38.249000549316406 33.44599914550781,-33.630001068115234 C22.80699920654297,-33.62699890136719 12.170000076293945,-33.630001068115234 1.531000018119812,-33.62799835205078 C-1.5169999599456787,-25.06100082397461 -4.559999942779541,-16.493000030517578 -7.607999801635742,-7.926000118255615 C-7.607999801635742,-7.926000118255615 -7.420000076293945,-7.925000190734863 -7.420000076293945,-7.925000190734863 C-7.420000076293945,-7.925000190734863 -35.0880012512207,-7.925000190734863 -35.0880012512207,-7.925000190734863 C-30.388999938964844,-21.111000061035156 -25.708999633789062,-34.29999923706055 -21.01799964904785,-47.48899841308594z"></path></g></g><g opacity="1" transform="matrix(1,0,0,1,0,0)"><g opacity="1" transform="matrix(1,0,0,1,0,0)"><path fill="rgb(0,0,0)" fill-opacity="1" d=" M102.90799713134766,182.34300231933594 C102.90799713134766,182.34300231933594 -102.90799713134766,182.34300231933594 -102.90799713134766,182.34300231933594 C-107.2020034790039,182.34300231933594 -111.39099884033203,181.02499389648438 -114.91100311279297,178.5659942626953 C-114.91100311279297,178.5659942626953 -256,80.01699829101562 -256,80.01699829101562 C-256,80.01699829101562 -256,132.32200622558594 -256,132.32200622558594 C-256,137.20899963378906 -253.61300659179688,141.78799438476562 -249.6060028076172,144.58700561523438 C-249.6060028076172,144.58700561523438 -111.21199798583984,241.2530059814453 -111.21199798583984,241.2530059814453 C-107.84400177001953,243.60499572753906 -103.83599853515625,244.86700439453125 -99.72799682617188,244.86700439453125 C-99.72799682617188,244.86700439453125 99.72799682617188,244.86700439453125 99.72799682617188,244.86700439453125 C103.83599853515625,244.86700439453125 107.84400177001953,243.60499572753906 111.21199798583984,241.2530059814453 C111.21199798583984,241.2530059814453 249.6060028076172,144.58700561523438 249.6060028076172,144.58700561523438 C253.61300659179688,141.78799438476562 256,137.20899963378906 256,132.32200622558594 C256,132.32200622558594 256,80.01699829101562 256,80.01699829101562 C256,80.01699829101562 114.91100311279297,178.5659942626953 114.91100311279297,178.5659942626953 C111.39099884033203,181.02499389648438 107.2020034790039,182.34300231933594 102.90799713134766,182.34300231933594z"></path></g></g><g opacity="1" transform="matrix(1,0,0,1,0,0)"><path fill="rgb(0,0,0)" fill-opacity="1" d=" M-197.79100036621094,-133.9709930419922 C-197.79100036621094,-133.9709930419922 -197.79100036621094,-148.20799255371094 -197.79100036621094,-148.20799255371094 C-197.79100036621094,-148.20799255371094 -99.94000244140625,-216.55499267578125 -99.94000244140625,-216.55499267578125 C-99.94000244140625,-216.55499267578125 -99.94000244140625,-198.4040069580078 -99.94000244140625,-198.4040069580078 C-99.68399810791016,-198.41400146484375 -99.43000030517578,-198.4340057373047 -99.1729965209961,-198.4340057373047 C-99.1729965209961,-198.4340057373047 -80.53700256347656,-198.4340057373047 -80.53700256347656,-198.4340057373047 C-80.53700256347656,-198.4340057373047 -80.53700256347656,-225.46400451660156 -80.53700256347656,-225.46400451660156 C-80.53700256347656,-225.46400451660156 80.53700256347656,-225.46400451660156 80.53700256347656,-225.46400451660156 C80.53700256347656,-225.46400451660156 80.53700256347656,-198.4340057373047 80.53700256347656,-198.4340057373047 C80.53700256347656,-198.4340057373047 99.1729965209961,-198.4340057373047 99.1729965209961,-198.4340057373047 C99.43000030517578,-198.4340057373047 99.68399810791016,-198.41400146484375 99.94000244140625,-198.4040069580078 C99.94000244140625,-198.4040069580078 99.94000244140625,-216.55499267578125 99.94000244140625,-216.55499267578125 C99.94000244140625,-216.55499267578125 197.79100036621094,-148.20799255371094 197.79100036621094,-148.20799255371094 C197.79100036621094,-148.20799255371094 197.79100036621094,-133.9709930419922 197.79100036621094,-133.9709930419922 C197.79100036621094,-133.9709930419922 217.19400024414062,-120.41799926757812 217.19400024414062,-120.41799926757812 C217.19400024414062,-120.41799926757812 217.19400024414062,-153.26499938964844 217.19400024414062,-153.26499938964844 C217.19400024414062,-156.4340057373047 215.64700317382812,-159.4040069580078 213.04800415039062,-161.218994140625 C213.04800415039062,-161.218994140625 95.79299926757812,-243.11900329589844 95.79299926757812,-243.11900329589844 C95.77799987792969,-243.12899780273438 95.76300048828125,-243.13600158691406 95.7490005493164,-243.14599609375 C95.41699981689453,-243.37600708007812 95.06900024414062,-243.58200073242188 94.70800018310547,-243.77000427246094 C94.64099884033203,-243.80499267578125 94.57099914550781,-243.83599853515625 94.50299835205078,-243.86900329589844 C94.1989974975586,-244.01800537109375 93.88700103759766,-244.15199279785156 93.56600189208984,-244.2689971923828 C93.48799896240234,-244.2969970703125 93.41200256347656,-244.3280029296875 93.33399963378906,-244.35400390625 C92.59200286865234,-244.60400390625 91.81099700927734,-244.76499938964844 91.0009994506836,-244.8280029296875 C90.88600158691406,-244.83700561523438 90.77100372314453,-244.84100341796875 90.65599822998047,-244.8459930419922 C90.51699829101562,-244.8520050048828 90.37899780273438,-244.86700439453125 90.23799896240234,-244.86700439453125 C90.23799896240234,-244.86700439453125 -90.23799896240234,-244.86700439453125 -90.23799896240234,-244.86700439453125 C-90.3740005493164,-244.86700439453125 -90.50700378417969,-244.8520050048828 -90.64199829101562,-244.8459930419922 C-90.76499938964844,-244.84100341796875 -90.88700103759766,-244.83799743652344 -91.01000213623047,-244.8280029296875 C-91.39399719238281,-244.79800415039062 -91.77200317382812,-244.75100708007812 -92.14299774169922,-244.677001953125 C-92.14900207519531,-244.67599487304688 -92.15699768066406,-244.6750030517578 -92.16300201416016,-244.6739959716797 C-92.56199645996094,-244.59300231933594 -92.9489974975586,-244.48300170898438 -93.3290023803711,-244.35499572753906 C-93.41100311279297,-244.32699584960938 -93.49099731445312,-244.29600524902344 -93.572998046875,-244.26600646972656 C-93.88999938964844,-244.14999389648438 -94.1989974975586,-244.01800537109375 -94.4990005493164,-243.87100219726562 C-94.56999969482422,-243.83700561523438 -94.64099884033203,-243.80599975585938 -94.70999908447266,-243.77000427246094 C-95.06999969482422,-243.58299255371094 -95.41600036621094,-243.375 -95.74800109863281,-243.14599609375 C-95.76300048828125,-243.13600158691406 -95.77799987792969,-243.12899780273438 -95.79299926757812,-243.11900329589844 C-95.79299926757812,-243.11900329589844 -213.04800415039062,-161.218994140625 -213.04800415039062,-161.218994140625 C-215.64700317382812,-159.4040069580078 -217.19400024414062,-156.4340057373047 -217.19400024414062,-153.26499938964844 C-217.19400024414062,-153.26499938964844 -217.19400024414062,-120.41799926757812 -217.19400024414062,-120.41799926757812 C-217.19400024414062,-120.41799926757812 -197.79100036621094,-133.9709930419922 -197.79100036621094,-133.9709930419922z"></path></g><g opacity="1" transform="matrix(1,0,0,1,0,0)"><g opacity="1" transform="matrix(1,0,0,1,0,0)"><path fill="rgb(0,0,0)" fill-opacity="1" d=" M99.94000244140625,-154.98399353027344 C99.94000244140625,-154.98399353027344 197.79100036621094,-86.63700103759766 197.79100036621094,-86.63700103759766 C197.79100036621094,-86.63700103759766 197.79100036621094,-133.9709930419922 197.79100036621094,-133.9709930419922 C197.79100036621094,-133.9709930419922 110.69100189208984,-194.8090057373047 110.69100189208984,-194.8090057373047 C107.52400207519531,-197.02099609375 103.79000091552734,-198.2570037841797 99.94000244140625,-198.4040069580078 C99.94000244140625,-198.4040069580078 99.94000244140625,-154.98399353027344 99.94000244140625,-154.98399353027344z"></path></g><g opacity="1" transform="matrix(1,0,0,1,0,0)"><path fill="rgb(0,0,0)" fill-opacity="1" d=" M-80.53700256347656,-198.4340057373047 C-80.53700256347656,-198.4340057373047 -80.53700256347656,-159.6280059814453 -80.53700256347656,-159.6280059814453 C-80.53700256347656,-159.6280059814453 80.53700256347656,-159.6280059814453 80.53700256347656,-159.6280059814453 C80.53700256347656,-159.6280059814453 80.53700256347656,-198.4340057373047 80.53700256347656,-198.4340057373047 C80.53700256347656,-198.4340057373047 -80.53700256347656,-198.4340057373047 -80.53700256347656,-198.4340057373047z"></path></g><g opacity="1" transform="matrix(1,0,0,1,0,0)"><path fill="rgb(0,0,0)" fill-opacity="1" d=" M247.4029998779297,-99.31800079345703 C247.4029998779297,-99.31800079345703 217.19400024414062,-120.41799926757812 217.19400024414062,-120.41799926757812 C217.19400024414062,-120.41799926757812 216.32400512695312,-70.26599884033203 216.32400512695312,-70.26599884033203 C216.32400512695312,-70.26599884033203 215.18299865722656,-61.095001220703125 211.9770050048828,-59.42399978637695 C210.5659942626953,-58.6879997253418 209.0279998779297,-58.32500076293945 207.49400329589844,-58.32500076293945 C207.49400329589844,-58.32500076293945 207.4929962158203,-58.32500076293945 207.4929962158203,-58.32500076293945 C207.4929962158203,-58.32500076293945 207.4929962158203,32.034000396728516 207.4929962158203,32.034000396728516 C207.4929962158203,32.034000396728516 90.23799896240234,113.93399810791016 90.23799896240234,113.93399810791016 C90.23799896240234,113.93399810791016 -90.23799896240234,113.93399810791016 -90.23799896240234,113.93399810791016 C-90.23799896240234,113.93399810791016 -207.4929962158203,32.034000396728516 -207.4929962158203,32.034000396728516 C-207.4929962158203,32.034000396728516 -207.4929962158203,-58.32500076293945 -207.4929962158203,-58.32500076293945 C-207.4929962158203,-58.32500076293945 -207.49400329589844,-58.32500076293945 -207.49400329589844,-58.32500076293945 C-209.0279998779297,-58.32500076293945 -210.5659942626953,-58.6879997253418 -211.9770050048828,-59.42399978637695 C-215.18299865722656,-61.095001220703125 -216.302001953125,-70.30899810791016 -216.302001953125,-70.30899810791016 C-216.302001953125,-70.30899810791016 -217.19400024414062,-120.41799926757812 -217.19400024414062,-120.41799926757812 C-217.19400024414062,-120.41799926757812 -247.4029998779297,-99.31800079345703 -247.4029998779297,-99.31800079345703 C-252.79100036621094,-95.55500030517578 -256,-89.39700317382812 -256,-82.82599639892578 C-256,-82.82599639892578 -256,46.83399963378906 -256,46.83399963378906 C-256,53.404998779296875 -252.79100036621094,59.5629997253418 -247.4029998779297,63.32600021362305 C-247.4029998779297,63.32600021362305 -110.69100189208984,158.81700134277344 -110.69100189208984,158.81700134277344 C-107.31300354003906,161.17599487304688 -103.29199981689453,162.44200134277344 -99.1719970703125,162.44200134277344 C-99.1719970703125,162.44200134277344 99.1729965209961,162.44200134277344 99.1729965209961,162.44200134277344 C103.29299926757812,162.44200134277344 107.31300354003906,161.17599487304688 110.69100189208984,158.81700134277344 C110.69100189208984,158.81700134277344 247.4029998779297,63.32600021362305 247.4029998779297,63.32600021362305 C252.79100036621094,59.5629997253418 256,53.404998779296875 256,46.83399963378906 C256,46.83399963378906 256,-82.82599639892578 256,-82.82599639892578 C256,-89.39700317382812 252.79100036621094,-95.55500030517578 247.4029998779297,-99.31800079345703z"></path></g><g opacity="1" transform="matrix(1,0,0,1,0,0)"><path fill="rgb(0,0,0)" fill-opacity="1" d=" M-197.79100036621094,-86.63700103759766 C-197.79100036621094,-86.63700103759766 -99.94000244140625,-154.98399353027344 -99.94000244140625,-154.98399353027344 C-99.94000244140625,-154.98399353027344 -99.94000244140625,-198.4040069580078 -99.94000244140625,-198.4040069580078 C-103.79000091552734,-198.2570037841797 -107.52400207519531,-197.02099609375 -110.69100189208984,-194.8090057373047 C-110.69100189208984,-194.8090057373047 -197.79100036621094,-133.9709930419922 -197.79100036621094,-133.9709930419922 C-197.79100036621094,-133.9709930419922 -197.79100036621094,-86.63700103759766 -197.79100036621094,-86.63700103759766z"></path></g></g><g opacity="1" transform="matrix(1,0,0,1,0,0)"><path stroke-linecap="round" stroke-linejoin="miter" fill-opacity="0" stroke-miterlimit="10" stroke="rgb(0,0,0)" stroke-opacity="1" stroke-width="18" d=" M90.23799896240234,28.69499969482422 C90.23799896240234,28.69499969482422 -90.23799896240234,28.69499969482422 -90.23799896240234,28.69499969482422 C-90.23799896240234,28.69499969482422 -90.23799896240234,113.93399810791016 -90.23799896240234,113.93399810791016 C-90.23799896240234,113.93399810791016 90.23799896240234,113.93399810791016 90.23799896240234,113.93399810791016 C90.23799896240234,113.93399810791016 90.23799896240234,28.69499969482422 90.23799896240234,28.69499969482422z"></path></g><g opacity="1" transform="matrix(1,0,0,1,0,0)"><path stroke-linecap="round" stroke-linejoin="miter" fill-opacity="0" stroke-miterlimit="10" stroke="rgb(0,0,0)" stroke-opacity="1" stroke-width="18" d=" M207.4929962158203,-53.20500183105469 C207.4929962158203,-53.20500183105469 90.23799896240234,28.69499969482422 90.23799896240234,28.69499969482422 C90.23799896240234,28.69499969482422 90.23799896240234,113.93399810791016 90.23799896240234,113.93399810791016 C90.23799896240234,113.93399810791016 207.4929962158203,32.034000396728516 207.4929962158203,32.034000396728516 C207.4929962158203,32.034000396728516 207.4929962158203,-53.20500183105469 207.4929962158203,-53.20500183105469z"></path></g><g opacity="1" transform="matrix(1,0,0,1,0,0)"><path stroke-linecap="round" stroke-linejoin="miter" fill-opacity="0" stroke-miterlimit="10" stroke="rgb(0,0,0)" stroke-opacity="1" stroke-width="18" d=" M-207.4929962158203,-53.20500183105469 C-207.4929962158203,-53.20500183105469 -90.23799896240234,28.69499969482422 -90.23799896240234,28.69499969482422 C-90.23799896240234,28.69499969482422 -90.23799896240234,107.46600341796875 -90.23799896240234,107.46600341796875 C-90.23799896240234,107.46600341796875 -207.4929962158203,25.56599998474121 -207.4929962158203,25.56599998474121 C-207.4929962158203,25.56599998474121 -207.4929962158203,-53.20500183105469 -207.4929962158203,-53.20500183105469z"></path></g></g></g></svg>