<svg xmlns="http://www.w3.org/2000/svg" xmlns:xlink="http://www.w3.org/1999/xlink" viewBox="0 0 512 512" width="512" height="512" style="width: 100%; height: 100%; transform: translate3d(0,0,0);" preserveAspectRatio="xMidYMid meet"><defs><clipPath id="__lottie_element_52313"><rect width="512" height="512" x="0" y="0"></rect></clipPath></defs><g clip-path="url(#__lottie_element_52313)"><g style="display: block;" transform="matrix(1,0,0,1,256,256)" opacity="1"><g opacity="1" transform="matrix(1,0,0,1,0,0)"><path fill="rgb(0,0,0)" fill-opacity="1" d=" M204.24600219726562,-40.22100067138672 C238.38800048828125,-25.482999801635742 265.2279968261719,-70.16000366210938 234.13999938964844,-106.73400115966797 C228.44900512695312,-113.43000030517578 208.39100646972656,-123.3759994506836 177.73300170898438,-131.99400329589844 C81.85199737548828,-266.239990234375 -32.07899856567383,-244.47000122070312 -108.2300033569336,-186.55999755859375 C-120.06400299072266,-177.55999755859375 -114.17900085449219,-158.6510009765625 -99.33100128173828,-157.88800048828125 C-93.18399810791016,-157.57200622558594 -86.96299743652344,-157.0449981689453 -80.50800323486328,-156.25999450683594 C-71.43000030517578,-155.156005859375 -71.05799865722656,-142.0959930419922 -79.98699951171875,-140.41200256347656 C-123.34200286865234,-132.4010009765625 -211.1929931640625,-91.91000366210938 -230.04600524902344,-81.91100311279297 C-249.9040069580078,-68.25800323486328 -247.51699829101562,1.784999966621399 -213.91200256347656,-11.166000366210938 C-69.75199890136719,-68.13200378417969 58.073001861572266,-103.31900024414062 204.24600219726562,-40.22100067138672z"></path></g><g opacity="1" transform="matrix(1,0,0,1,0,0)"><path fill="rgb(0,0,0)" fill-opacity="1" d=" M131.23599243164062,-14.78600025177002 C97.49600219726562,-14.78600025177002 67.43699645996094,-0.5009999871253967 47.99599838256836,21.76300048828125 C24.547000885009766,12.156999588012695 -0.3050000071525574,14.64799976348877 -20.632999420166016,29.400999069213867 C-41.823001861572266,2.6440000534057617 -76.4209976196289,-14.78600025177002 -115.50900268554688,-14.78600025177002 C-179.99000549316406,-14.78600025177002 -232.26100158691406,32.63600158691406 -232.26100158691406,91.13400268554688 C-232.26100158691406,149.6320037841797 -179.99000549316406,197.0540008544922 -115.50900268554688,197.0540008544922 C-51.02899932861328,197.0540008544922 1.2430000305175781,149.6320037841797 1.2430000305175781,91.13400268554688 C1.2430000305175781,79.4280014038086 -0.8550000190734863,68.16799926757812 -4.71999979019165,57.63999938964844 C5.570000171661377,48.74399948120117 17.788999557495117,45.900001525878906 31.007999420166016,49.7599983215332 C27.183000564575195,59.70100021362305 25.097000122070312,70.38099670410156 25.097000122070312,81.50499725341797 C25.097000122070312,134.68499755859375 72.61699676513672,177.7949981689453 131.23599243164062,177.7949981689453 C189.85499572753906,177.7949981689453 237.37399291992188,134.68499755859375 237.37399291992188,81.50499725341797 C237.37399291992188,28.325000762939453 189.85499572753906,-14.78600025177002 131.23599243164062,-14.78600025177002z"></path></g></g></g></svg>