<svg xmlns="http://www.w3.org/2000/svg" xmlns:xlink="http://www.w3.org/1999/xlink" viewBox="0 0 512 512" width="512" height="512" style="width: 100%; height: 100%; transform: translate3d(0,0,0);" preserveAspectRatio="xMidYMid meet"><defs><clipPath id="__lottie_element_53764"><rect width="512" height="512" x="0" y="0"></rect></clipPath></defs><g clip-path="url(#__lottie_element_53764)"><g style="display: block;" transform="matrix(1,0,0,1,0,0)" opacity="1"><g opacity="1" transform="matrix(1,0,0,1,256.5920104980469,313.2099914550781)"><path fill="rgb(0,0,0)" fill-opacity="1" d=" M-15.90999984741211,67.22699737548828 C-17.19099998474121,66.125 -12.008000373840332,38.858001708984375 -11.75,33.70800018310547 C-11.289999961853027,24.55500030517578 -10.097000122070312,16.22599983215332 -21.857999801635742,18.516000747680664 C-23.618999481201172,19.698999404907227 -28.926000595092773,54.334999084472656 -30.218000411987305,60.10200119018555 C-30.76099967956543,62.520999908447266 -28.7450008392334,63.89500045776367 -32.994998931884766,62.946998596191406 C-32.994998931884766,62.946998596191406 -54.77199935913086,51.6510009765625 -54.77199935913086,51.6510009765625 C-54.77199935913086,51.6510009765625 -48.722999572753906,12.432000160217285 -48.722999572753906,12.432000160217285 C-60.33000183105469,6.952000141143799 -134.21600341796875,-6.936999797821045 -136.10699462890625,-15.402000427246094 C-136.10699462890625,-15.402000427246094 -96.39900207519531,-67.22699737548828 -96.39900207519531,-67.22699737548828 C-67.36599731445312,-27.503999710083008 -34.41699981689453,-3.48799991607666 17.118000030517578,-12.803999900817871 C53.28799819946289,-19.343000411987305 69.04199981689453,-41.207000732421875 95.52100372314453,-62.862998962402344 C98.62999725341797,-63.349998474121094 109.58799743652344,-49.14799880981445 112.41899871826172,-45.77399826049805 C118.73999786376953,-38.24100112915039 127.7249984741211,-27.430999755859375 132.87399291992188,-19.368000030517578 C134.1490020751953,-17.371000289916992 136.10699462890625,-17.145000457763672 133.93800354003906,-14.187000274658203 C126.2300033569336,-3.6700000762939453 62.02399826049805,5.4079999923706055 47.21699905395508,11.16100025177002 C40.970001220703125,15.822999954223633 52.83300018310547,42.07500076293945 52.917999267578125,49.6609992980957 C51.77399826049805,55.6879997253418 35.349998474121094,61.85200119018555 29.905000686645508,63.12200164794922 C27.78499984741211,63.61600112915039 23.024999618530273,28.089000701904297 19.20400047302246,20.93899917602539 C17.760000228881836,18.23699951171875 17.920000076293945,16.52899932861328 13.652000427246094,18.35700035095215 C5.572999954223633,21.816999435424805 14.843999862670898,59.12699890136719 14.654999732971191,67.22699737548828 C14.654999732971191,67.22699737548828 -15.90999984741211,67.22699737548828 -15.90999984741211,67.22699737548828z"></path></g><g opacity="1" transform="matrix(1,0,0,1,242.39199829101562,98.87100219726562)"><path fill="rgb(0,0,0)" fill-opacity="1" d=" M65.51399993896484,63.619998931884766 C58.27899932861328,60.70600128173828 52.314998626708984,55.4900016784668 45.12799835205078,52.44599914550781 C21.707000732421875,42.52799987792969 1.156999945640564,43.29899978637695 -22.079999923706055,53.42399978637695 C-18.604000091552734,29.750999450683594 0.414000004529953,-11.336000442504883 -25.1200008392334,-28.062999725341797 C-32.709999084472656,-33.0359992980957 -65.51399993896484,-37.20500183105469 -54.840999603271484,-51.62099838256836 C-48.41600036621094,-60.29800033569336 -9.486000061035156,-63.619998931884766 1.4210000038146973,-62.7400016784668 C61.55699920654297,-57.88999938964844 61.854000091552734,18.843000411987305 65.51399993896484,63.619998931884766z"></path></g><g opacity="1" transform="matrix(1,0,0,1,256.9100036621094,449.7669982910156)"><path fill="rgb(0,0,0)" fill-opacity="1" d=" M16.327999114990234,-57.066001892089844 C16.327999114990234,-57.066001892089844 34.573001861572266,43.51100158691406 34.573001861572266,43.51100158691406 C15.194000244140625,57.066001892089844 -13.602999687194824,55.05400085449219 -34.573001861572266,45.7140007019043 C-34.573001861572266,45.7140007019043 -18.18899917602539,-57.040000915527344 -18.18899917602539,-57.040000915527344 C-5.934000015258789,-54.31399917602539 4.111000061035156,-55.54899978637695 16.327999114990234,-57.066001892089844z"></path></g><g opacity="1" transform="matrix(1,0,0,1,57.60900115966797,139.28799438476562)"><path fill="rgb(0,0,0)" fill-opacity="1" d=" M50.512001037597656,-5.210000038146973 C50.512001037597656,-5.210000038146973 54.70800018310547,19.113000869750977 54.70800018310547,19.113000869750977 C21.761999130249023,26.39900016784668 -12.09000015258789,29.746999740600586 -45.941001892089844,29.434999465942383 C-49.540000915527344,28.459999084472656 -54.70800018310547,-22.485000610351562 -53.290000915527344,-29.746999740600586 C-19.384000778198242,-19.054000854492188 14.6850004196167,-7.6620001792907715 50.512001037597656,-5.210000038146973z"></path></g><g opacity="1" transform="matrix(1,0,0,1,454.1730041503906,139.5399932861328)"><path fill="rgb(0,0,0)" fill-opacity="1" d=" M47.237998962402344,28.961000442504883 C13.03499984741211,30.006999969482422 -21.15999984741211,25.780000686645508 -54.56399917602539,18.863000869750977 C-54.56399917602539,18.863000869750977 -50.30699920654297,-5.400000095367432 -50.30699920654297,-5.400000095367432 C-15.807000160217285,-8.947999954223633 18.172000885009766,-17.172000885009766 50.33300018310547,-30.006999969482422 C54.5629997253418,-27.04199981689453 53.755001068115234,-21.40399932861328 53.54899978637695,-16.698999404907227 C52.90299987792969,-1.9329999685287476 48.744998931884766,14.178999900817871 47.237998962402344,28.961000442504883z"></path></g><g opacity="1" transform="matrix(1,0,0,1,193.17300415039062,432.3710021972656)"><path fill="rgb(0,0,0)" fill-opacity="1" d=" M31.22100067138672,-43.77199935913086 C31.22100067138672,-43.77199935913086 11.866999626159668,56.00299835205078 11.866999626159668,56.00299835205078 C2.740000009536743,51.45800018310547 -31.219999313354492,36.05500030517578 -29.645000457763672,24.94099998474121 C-28.628999710083008,17.774999618530273 -8.982000350952148,-16.25 -4.48199987411499,-27.52199935913086 C-0.8050000071525574,-36.72999954223633 1.8079999685287476,-46.55099868774414 4.741000175476074,-56.00400161743164 C4.741000175476074,-56.00400161743164 31.22100067138672,-43.77199935913086 31.22100067138672,-43.77199935913086z"></path></g><g opacity="1" transform="matrix(1,0,0,1,318.0899963378906,432.37799072265625)"><path fill="rgb(0,0,0)" fill-opacity="1" d=" M-12.182999610900879,56.01300048828125 C-12.182999610900879,56.01300048828125 -30.711000442504883,-42.51599884033203 -30.711000442504883,-42.51599884033203 C-30.711000442504883,-42.51599884033203 -4.072999954223633,-56.01300048828125 -4.072999954223633,-56.01300048828125 C1.909999966621399,-25.64699935913086 20.232999801635742,0.16200000047683716 30.711000442504883,28.496000289916992 C29.96299934387207,36.255001068115234 -4.321000099182129,51.98500061035156 -12.182999610900879,56.01300048828125z"></path></g><g opacity="1" transform="matrix(1,0,0,1,70.9540023803711,202.51199340820312)"><path fill="rgb(0,0,0)" fill-opacity="1" d=" M45.40299987792969,-29.836999893188477 C45.40299987792969,-29.836999893188477 53.58000183105469,-7.456999778747559 53.58000183105469,-7.456999778747559 C53.58000183105469,-7.456999778747559 -27.437999725341797,28.926000595092773 -27.437999725341797,28.926000595092773 C-30.131000518798828,29.836999893188477 -31.125,28.81999969482422 -32.97800064086914,27.19700050354004 C-34.994998931884766,25.43000030517578 -51.33300018310547,-5.085000038146973 -52.347999572753906,-8.491999626159668 C-53.58000183105469,-12.626999855041504 -51.29800033569336,-11.048999786376953 -49.284000396728516,-11.432000160217285 C-30.4950008392334,-15.00100040435791 -10.380000114440918,-14.590999603271484 8.824999809265137,-18.55900001525879 C21.39299964904785,-21.1560001373291 33.39899826049805,-25.5310001373291 45.40299987792969,-29.836999893188477z"></path></g><g opacity="1" transform="matrix(1,0,0,1,440.5039978027344,202.38900756835938)"><path fill="rgb(0,0,0)" fill-opacity="1" d=" M52.85200119018555,-11.36299991607666 C48.77000045776367,-2.828000068664551 45.62099838256836,6.126999855041504 40.979000091552734,14.432999610900879 C38.78799819946289,18.35300064086914 33.46099853515625,29.218000411987305 29.54599952697754,29.320999145507812 C24.8700008392334,29.444000244140625 4.383999824523926,20.097999572753906 -1.5089999437332153,17.49799919128418 C-17.805999755859375,10.305999755859375 -32.84700012207031,0.2590000033378601 -49.856998443603516,-5.485000133514404 C-49.856998443603516,-5.485000133514404 -52.85200119018555,-8.53600025177002 -52.85200119018555,-8.53600025177002 C-52.85200119018555,-8.53600025177002 -43.99700164794922,-29.44499969482422 -43.99700164794922,-29.44499969482422 C-13.381999969482422,-16.253000259399414 20.072999954223633,-14.388999938964844 52.85200119018555,-11.36299991607666z"></path></g><g opacity="1" transform="matrix(1,0,0,1,407.70599365234375,250)"><path fill="rgb(0,0,0)" fill-opacity="1" d=" M44.89099884033203,2.13700008392334 C34.832000732421875,16.277999877929688 19.354000091552734,24.679000854492188 7.198999881744385,36.70899963378906 C7.198999881744385,36.70899963378906 -44.89099884033203,-15.303999900817871 -44.89099884033203,-15.303999900817871 C-44.89099884033203,-15.303999900817871 -31.386999130249023,-36.70899963378906 -31.386999130249023,-36.70899963378906 C-31.386999130249023,-36.70899963378906 44.89099884033203,2.13700008392334 44.89099884033203,2.13700008392334z"></path></g><g opacity="1" transform="matrix(1,0,0,1,103.72000122070312,250.06100463867188)"><path fill="rgb(0,0,0)" fill-opacity="1" d=" M33.013999938964844,-36.64799880981445 C33.013999938964844,-36.64799880981445 44.382999420166016,-16.27899932861328 44.382999420166016,-16.27899932861328 C44.382999420166016,-16.27899932861328 -6.695000171661377,36.64799880981445 -6.695000171661377,36.64799880981445 C-6.695000171661377,36.64799880981445 -44.382999420166016,3.061000108718872 -44.382999420166016,3.061000108718872 C-44.382999420166016,3.061000108718872 33.013999938964844,-36.64799880981445 33.013999938964844,-36.64799880981445z"></path></g><g opacity="1" transform="matrix(1,0,0,1,254.4290008544922,169.87600708007812)"><path fill="rgb(0,0,0)" fill-opacity="1" d=" M249.10499572753906,-139.7729949951172 C249.10499572753906,-139.7729949951172 200.25399780273438,-108.16600036621094 200.25399780273438,-108.16600036621094 C191.02699279785156,-104.01799774169922 182.27000427246094,-98.77300262451172 173.05799865722656,-94.61499786376953 C157.36599731445312,-87.53199768066406 107.50399780273438,-72.46199798583984 98.93099975585938,-61.79999923706055 C92.24400329589844,-53.48400115966797 94.38600158691406,-25.7450008392334 91.70500183105469,-12.986000061035156 C88.00599670410156,4.614999771118164 78.1989974975586,27.566999435424805 59.630001068115234,33.35499954223633 C45.04800033569336,-12.48799991607666 -16.232999801635742,-21.770999908447266 -47.39099884033203,14.996999740600586 C-50.65599822998047,18.850000381469727 -58.00899887084961,34.058998107910156 -61.51300048828125,33.275001525878906 C-62.50400161743164,33.053001403808594 -74.36000061035156,20.976999282836914 -75.7699966430664,18.966999053955078 C-84.58000183105469,6.4019999504089355 -89.2030029296875,-13.730999946594238 -91.15399932861328,-28.79800033569336 C-94.61000061035156,-55.48899841308594 -85.12899780273438,-59.111000061035156 -114.26000213623047,-72.91699981689453 C-140.8459930419922,-85.51699829101562 -171.5780029296875,-92.3949966430664 -197.1840057373047,-108.16600036621094 C-197.1840057373047,-108.16600036621094 -246.03399658203125,-139.7729949951172 -246.03399658203125,-139.7729949951172 C-247.0540008544922,-121.46399688720703 -252.7689971923828,-103.19000244140625 -249.1300048828125,-84.75599670410156 C-211.02499389648438,-64.89299774169922 -168.98899841308594,-50.9900016784668 -125.68199920654297,-49.27899932861328 C-116.55899810791016,19.406999588012695 -62.86399841308594,139.77200317382812 24.56399917602539,113.40299987792969 C58.32500076293945,103.22100067138672 85.04299926757812,67.3489990234375 102.00599670410156,38.04899978637695 C117.58799743652344,11.13599967956543 126.83899688720703,-18.85700035095215 132.82200622558594,-49.2859992980957 C174.89500427246094,-52.43600082397461 215.88400268554688,-65.11100006103516 252.77000427246094,-85.19200134277344 C252.77000427246094,-85.19200134277344 249.10499572753906,-139.7729949951172 249.10499572753906,-139.7729949951172z M22.801000595092773,87.197998046875 C-9.434000015258789,109.55999755859375 -49.792999267578125,73.54399871826172 -31.709999084472656,38.81999969482422 C-28.00200080871582,31.700000762939453 -18.174999237060547,23.23699951171875 -10.230999946594238,21.58799934387207 C35.01499938964844,12.197999954223633 56.597999572753906,63.75299835205078 22.801000595092773,87.197998046875z"></path></g><g opacity="1" transform="matrix(1,0,0,1,254.9720001220703,229.22799682617188)"><path fill="rgb(0,0,0)" fill-opacity="1" d=" M-4.679999828338623,-17.42099952697754 C18.441999435424805,-22.55500030517578 24.674999237060547,4.730999946594238 9.645000457763672,11.16100025177002 C-16.98699951171875,22.555999755859375 -24.674999237060547,-12.980999946594238 -4.679999828338623,-17.42099952697754z"></path></g></g></g></svg>