<svg xmlns="http://www.w3.org/2000/svg" xmlns:xlink="http://www.w3.org/1999/xlink" viewBox="0 0 512 512" width="512" height="512" style="width: 100%; height: 100%; transform: translate3d(0,0,0);" preserveAspectRatio="xMidYMid meet"><defs><clipPath id="__lottie_element_51825"><rect width="512" height="512" x="0" y="0"></rect></clipPath></defs><g clip-path="url(#__lottie_element_51825)"><g style="display: block;" transform="matrix(1.0399999618530273,0,0,1.0399999618530273,16.2479248046875,-0.3336029052734375)" opacity="1"><g opacity="1" transform="matrix(1,0,0,1,106.25299835205078,138.36900329589844)"><path fill="rgb(0,0,0)" fill-opacity="1" d=" M-42.66999816894531,2.1640000343322754 C-42.66999816894531,18.19499969482422 -86.85099792480469,45.492000579833984 -81.66999816894531,69.16400146484375 C-78.88200378417969,81.90299987792969 -62.15999984741211,92.83799743652344 -48.66999816894531,91.16400146484375 C-24.04599952697754,88.10900115966797 -20.889999389648438,41.900001525878906 -0.6700000166893005,43.16400146484375 C15.329999923706055,44.16400146484375 27.01799964904785,83.0989990234375 52.33000183105469,84.16400146484375 C66.97799682617188,84.78099822998047 82.90699768066406,71.16500091552734 84.33000183105469,58.16400146484375 C86.85099792480469,35.125 39.33000183105469,18.163999557495117 40.33000183105469,-0.8360000252723694 C41.41299819946289,-21.4060001373291 77.78900146484375,-27.204999923706055 80.33000183105469,-51.83599853515625 C82.19300079345703,-69.89600372314453 63.52399826049805,-89.89199829101562 50.33000183105469,-89.83599853515625 C30.64699935913086,-89.75199890136719 23.222000122070312,-41.84600067138672 6.329999923706055,-42.83599853515625 C-9.642000198364258,-43.77299880981445 -12.60099983215332,-82.09400177001953 -34.66999816894531,-87.83599853515625 C-53.893001556396484,-92.83799743652344 -80.9520034790039,-72.54199981689453 -80.66999816894531,-50.83599853515625 C-80.36299896240234,-27.256000518798828 -42.66999816894531,-14.836000442504883 -42.66999816894531,2.1640000343322754z"></path></g><g opacity="1" transform="matrix(1,0,0,1,367.0950012207031,343.281005859375)"><path fill="rgb(0,0,0)" fill-opacity="1" d=" M43.91899871826172,-4.296999931335449 C45.816001892089844,-20.215999603271484 91.10800170898438,-44.35599899291992 88.76599884033203,-68.4749984741211 C87.50499725341797,-81.4530029296875 72.19400024414062,-94.29100036621094 58.60200119018555,-94.22599792480469 C33.78900146484375,-94.10700225830078 19.488000869750977,-47.74700164794922 2.632999897003174,-48.7400016784668 C-13.369999885559082,-49.683998107910156 -11.430000305175781,-75.1449966430664 -36.4370002746582,-79.197998046875 C-50.909000396728516,-81.54499816894531 -75.96900177001953,-65.26000213623047 -75.26000213623047,-52.20000076293945 C-73.90799713134766,-27.281999588012695 -42.27000045776367,-15.494999885559082 -45.51300048828125,3.253000020980835 C-49.02199935913086,23.549999237060547 -81.68399810791016,35.09600067138672 -87.12200164794922,59.25299835205078 C-91.10900115966797,76.96499633789062 -68.62100219726562,90.54000091552734 -55.51300048828125,92.0459976196289 C-35.95800018310547,94.29199981689453 -16.023000717163086,45.27000045776367 0.6330000162124634,48.25299835205078 C16.381999969482422,51.073001861572266 15.253000259399414,74.93800354003906 36.48699951171875,83.25299835205078 C54.983001708984375,90.49500274658203 76.197998046875,71.83999633789062 78.48699951171875,50.25299835205078 C80.9739990234375,26.80299949645996 41.90599822998047,12.583000183105469 43.91899871826172,-4.296999931335449z"></path></g><g opacity="1" transform="matrix(1,0,0,1,143.6219940185547,369.4289855957031)"><path fill="rgb(0,0,0)" fill-opacity="1" d=" M-37.03900146484375,-29.895999908447266 C-30.761999130249023,-31.027000427246094 -27.371999740600586,-113.89600372314453 53.96099853515625,-113.89600372314453 C127.96099853515625,-113.89600372314453 143.3719940185547,-7.593999862670898 88.96099853515625,33.4370002746582 C27.961000442504883,79.43699645996094 -7.458000183105469,120.30000305175781 -22.038999557495117,117.10399627685547 C-34.20199966430664,114.43699645996094 -143.3719940185547,40.104000091552734 -136.03900146484375,-35.895999908447266 C-127.8949966430664,-120.30000305175781 -40.03900146484375,-117.22899627685547 -29.371999740600586,-99.89600372314453 C-26.805999755859375,-95.72599792480469 -40.03900146484375,-89.89600372314453 -44.03900146484375,-66.89600372314453 C-45.7599983215332,-57 -45.94599914550781,-28.29199981689453 -37.03900146484375,-29.895999908447266z"></path></g><g opacity="1" transform="matrix(1,0,0,1,318.9159851074219,115.60600280761719)"><path fill="rgb(0,0,0)" fill-opacity="1" d=" M37.67599868774414,-22.22599983215332 C31.98200035095215,-23.54800033569336 32.67100143432617,-98.56900024414062 -41.78900146484375,-102.29100036621094 C-109.53399658203125,-105.67900085449219 -132.66700744628906,-12.072999954223633 -83.5739974975586,32.987998962402344 C-34.30500030517578,78.20999908447266 -2.7799999713897705,115.35700225830078 10.71399974822998,113.09700012207031 C21.97100067138672,111.21199798583984 132.66700744628906,37.926998138427734 128.6540069580078,-37.73899841308594 C124.53600311279297,-115.35600280761719 38.41999816894531,-113.04000091552734 27.86199951171875,-97.66100311279297 C25.32200050354004,-93.96099853515625 43.16899871826172,-82.01699829101562 45.77899932861328,-60.777000427246094 C46.9010009765625,-51.63999938964844 45.75699996948242,-20.350000381469727 37.67599868774414,-22.22599983215332z"></path></g></g></g></svg>