<svg xmlns="http://www.w3.org/2000/svg" xmlns:xlink="http://www.w3.org/1999/xlink" viewBox="0 0 512 512" width="512" height="512" style="width: 100%; height: 100%; transform: translate3d(0,0,0);" preserveAspectRatio="xMidYMid meet"><defs><clipPath id="__lottie_element_51980"><rect width="512" height="512" x="0" y="0"></rect></clipPath></defs><g clip-path="url(#__lottie_element_51980)"><g style="display: block;" transform="matrix(1,0,0,1,0,0)" opacity="1"><g opacity="1" transform="matrix(1,0,0,1,251.9709930419922,345.70098876953125)"><path fill="rgb(0,0,0)" fill-opacity="1" d=" M91.58699798583984,84.82599639892578 C100.64199829101562,57.191001892089844 131.96800231933594,-18.357999801635742 94.06800079345703,-34.15999984741211 C62.257999420166016,-47.422000885009766 34.308998107910156,-18.7810001373291 5.660999774932861,-18.42300033569336 C-11.477999687194824,-18.20800018310547 -24.309999465942383,-28.093000411987305 -39.44300079345703,-32.720001220703125 C-127.84100341796875,-59.74700164794922 -100.63800048828125,37.345001220703125 -79.62200164794922,83.69000244140625 C-98.9469985961914,92.1719970703125 -123.57499694824219,83.41000366210938 -140.68499755859375,72.60800170898438 C-212.28199768066406,27.40999984741211 -201.8719940185547,-84.63099670410156 -107.6050033569336,-88.31999969482422 C-63.446998596191406,-90.0469970703125 -47.05099868774414,-71.9739990234375 -11.013999938964844,-59.071998596191406 C17.459999084472656,-48.87799835205078 32.86800003051758,-66.552001953125 57.099998474121094,-76.33899688720703 C108.98500061035156,-97.29499816894531 177.7530059814453,-95.4010009765625 195.23599243164062,-32.1510009765625 C212.28199768066406,29.517000198364258 155.52499389648438,97.29499816894531 91.58699798583984,84.82599639892578z"></path></g><g opacity="1" transform="matrix(1,0,0,1,258.3389892578125,93.01300048828125)"><path fill="rgb(0,0,0)" fill-opacity="1" d=" M180.08700561523438,-25.42799949645996 C124.63600158691406,-21.63800048828125 70.21600341796875,6.236000061035156 33.617000579833984,47.85200119018555 C27.575000762939453,54.72200012207031 9.57800006866455,82.6500015258789 4.631999969482422,84.91600036621094 C-10.071000099182129,91.6520004272461 -20.87299919128418,64.96900177001953 -29.347000122070312,54.99300003051758 C-68.22699737548828,9.222999572753906 -120.27300262451172,-21.041000366210938 -181.0590057373047,-25.41900062561035 C-181.15499877929688,-58.316001892089844 -146.26600646972656,-79.68900299072266 -116.4489974975586,-64.21199798583984 C-100.7030029296875,-56.03900146484375 -85.21499633789062,-42.24700164794922 -68.93800354003906,-33.32099914550781 C-17.746000289916992,-5.247000217437744 10.234999656677246,-3.1040000915527344 62.499000549316406,-30.540000915527344 C93.9469985961914,-47.04800033569336 132.06300354003906,-91.6520004272461 166.7469940185547,-56.45100021362305 C174.3470001220703,-48.73699951171875 181.1540069580078,-36.68600082397461 180.08700561523438,-25.42799949645996z"></path></g><g opacity="1" transform="matrix(1,0,0,1,256.8080139160156,420.09100341796875)"><path fill="rgb(0,0,0)" fill-opacity="1" d=" M-24.79800033569336,75.56400299072266 C-50.63999938964844,48.67599868774414 -89.47200012207031,-27.957000732421875 -86.7300033569336,-64.84700012207031 C-85.7040023803711,-78.65599822998047 -79.83999633789062,-91.43800354003906 -63.95000076293945,-88.48500061035156 C-59.358001708984375,-38.770999908447266 -40.034000396728516,15.270000457763672 1.0470000505447388,45.68199920654297 C42.45600128173828,14.154999732971191 60.58399963378906,-38.12900161743164 66.10800170898438,-88.41400146484375 C82.51300048828125,-91.90899658203125 88.68499755859375,-73.63700103759766 88.91600036621094,-60.61000061035156 C89.47200012207031,-29.29599952697754 55.52899932861328,40.67499923706055 35.03900146484375,65.14299774169922 C14.51200008392334,89.65299987792969 1.2730000019073486,102.69100189208984 -24.79800033569336,75.56400299072266z"></path></g><g opacity="1" transform="matrix(1,0,0,1,256.87298583984375,39.124000549316406)"><path fill="rgb(0,0,0)" fill-opacity="1" d=" M-97.02899932861328,-21.02199935913086 C-85.4749984741211,-25.079999923706055 -73.08300018310547,-22.006999969482422 -61.13800048828125,-23.31800079345703 C-35.81800079345703,-26.097000122070312 -19.823999404907227,-39.957000732421875 9.312000274658203,-37.62099838256836 C27.652999877929688,-36.150001525878906 44.875,-25.207000732421875 63.13600158691406,-23.35300064086914 C69.59300231933594,-22.69700050354004 98.97799682617188,-25.604999542236328 98.96499633789062,-17.948999404907227 C65.76699829101562,10.295999526977539 23.34000015258789,39.124000549316406 -22.329999923706055,27.011999130249023 C-40.61899948120117,22.16200065612793 -75.55400085449219,1.9170000553131104 -89.75599670410156,-10.788000106811523 C-91.62899780273438,-12.463000297546387 -98.97899627685547,-18.386999130249023 -97.02899932861328,-21.02199935913086z"></path></g><g opacity="1" transform="matrix(1,0,0,1,255.51800537109375,392.1510009765625)"><path fill="rgb(0,0,0)" fill-opacity="1" d=" M-46.14699935913086,-58.474998474121094 C-12.472000122070312,-49.42599868774414 17.743000030517578,-46.11600112915039 50.8120002746582,-60.53200149536133 C51.51900100708008,-17.586000442504883 33.854000091552734,29.621999740600586 2.058000087738037,58.95399856567383 C-5.232999801635742,60.53200149536133 -27.476999282836914,19.26300048828125 -30.645999908447266,11.628999710083008 C-34.68000030517578,1.909999966621399 -51.51900100708008,-52.48400115966797 -46.14699935913086,-58.474998474121094z"></path></g><g opacity="1" transform="matrix(1,0,0,1,249.24600219726562,244.31100463867188)"><path fill="rgb(0,0,0)" fill-opacity="1" d=" M29.759000778198242,-27.70400047302246 C41.81999969482422,-28.483999252319336 52.64500045776367,-19.57200050354004 50.55799865722656,-7.065999984741211 C48.529998779296875,5.090000152587891 18.16200065612793,31.7189998626709 4.99399995803833,29.167999267578125 C-10.980999946594238,26.072999954223633 -52.64500045776367,-12.859999656677246 -24.56599998474121,-24.23699951171875 C-6.098999977111816,-31.7189998626709 5.484000205993652,-17.695999145507812 8.229000091552734,-18.135000228881836 C11.802000045776367,-18.70599937438965 20.312000274658203,-27.093000411987305 29.759000778198242,-27.70400047302246z"></path></g><g opacity="1" transform="matrix(1,0,0,1,412.6470031738281,233.63400268554688)"><path fill="rgb(0,0,0)" fill-opacity="1" d=" M18.547000885009766,-31.929000854492188 C23.552000045776367,-28.316999435424805 21.003000259399414,-22.132999420166016 21.895000457763672,-16.75 C23.97800064086914,-4.179999828338623 29.225000381469727,13.229999542236328 29.75200080871582,25.041000366210938 C29.909000396728516,28.562999725341797 29.881999969482422,29.743000030517578 26.812999725341797,31.929000854492188 C14.784000396728516,22.9950008392334 3.046999931335449,16.759000778198242 -11.291999816894531,12.29800033569336 C-17.534000396728516,10.355999946594238 -25.25,12.515000343322754 -29.909000396728516,6.192999839782715 C-29.909000396728516,6.192999839782715 18.547000885009766,-31.929000854492188 18.547000885009766,-31.929000854492188z"></path></g><g opacity="1" transform="matrix(1,0,0,1,104.18699645996094,233.57000732421875)"><path fill="rgb(0,0,0)" fill-opacity="1" d=" M26.750999450683594,9.321000099182129 C16.649999618530273,11.194000244140625 7.591000080108643,12.883000373840332 -2.0980000495910645,16.601999282836914 C-12.465999603271484,20.58300018310547 -20.858999252319336,27.891000747680664 -31.01099967956543,32.03099822998047 C-31.01099967956543,32.03099822998047 -22.756999969482422,-29.83300018310547 -22.756999969482422,-29.83300018310547 C-20.66900062561035,-32.03099822998047 1.9259999990463257,-12.229000091552734 5.4710001945495605,-9.593999862670898 C9.970000267028809,-6.250999927520752 31.010000228881836,2.9000000953674316 26.750999450683594,9.321000099182129z"></path></g><g opacity="1" transform="matrix(1,0,0,1,152.75799560546875,164.46800231933594)"><path fill="rgb(0,0,0)" fill-opacity="1" d=" M-45.77899932861328,-73.93499755859375 C-72.88899993896484,-76.3759994506836 -91.68299865722656,-57.06399917602539 -89.67500305175781,-30.10300064086914 C-86.6449966430664,10.583999633789062 -40.37200164794922,55.64400100708008 -4.060999870300293,69.99199676513672 C8.96399974822998,75.13800048828125 31.308000564575195,71.13899993896484 46.28099822998047,76.3759994506836 C39.06100082397461,47.71699905395508 66.26799774169922,33.404998779296875 91.68399810791016,37.178001403808594 C64.875,-13.03600025177002 14.651000022888184,-68.49500274658203 -45.77899932861328,-73.93499755859375z M-22.917999267578125,35.209999084472656 C-42.4370002746582,15.092000007629395 -30.40399932861328,-17.92799949645996 -3.7669999599456787,-22.141000747680664 C5.465000152587891,-23.60099983215332 14.444999694824219,-21.0939998626709 22.224000930786133,-16.101999282836914 C63.856998443603516,10.607999801635742 15.28600025177002,74.58599853515625 -22.917999267578125,35.209999084472656z"></path></g><g opacity="1" transform="matrix(1,0,0,1,363.23199462890625,158.6909942626953)"><path fill="rgb(0,0,0)" fill-opacity="1" d=" M72.10199737548828,-62.23699951171875 C44.470001220703125,-82.15699768066406 -13.717000007629395,-49.56700134277344 -36.275001525878906,-30.280000686645508 C-44.89899826049805,-22.9060001373291 -96.11000061035156,34.62200164794922 -87.8219985961914,42.96799850463867 C-62.970001220703125,39.310001373291016 -41.814998626708984,55.79499816894531 -46.55400085449219,82.15699768066406 C5.39900016784668,77.32599639892578 54.722999572753906,54.79800033569336 78.71900177001953,6.283999919891357 C89.97000122070312,-16.464000701904297 96.11000061035156,-44.93000030517578 72.10199737548828,-62.23699951171875z M-27.28700065612793,44.32699966430664 C-60.90599822998047,12.87399959564209 -16.766000747680664,-33.689998626708984 15.204000473022461,-11.550999641418457 C59.755001068115234,19.299999237060547 5.202000141143799,74.7229995727539 -27.28700065612793,44.32699966430664z"></path></g></g></g></svg>