<svg xmlns="http://www.w3.org/2000/svg" xmlns:xlink="http://www.w3.org/1999/xlink" viewBox="0 0 512 512" width="512" height="512" style="width: 100%; height: 100%; transform: translate3d(0,0,0);" preserveAspectRatio="xMidYMid meet"><defs><clipPath id="__lottie_element_52373"><rect width="512" height="512" x="0" y="0"></rect></clipPath></defs><g clip-path="url(#__lottie_element_52373)"><g style="display: block;" transform="matrix(1.9126900434494019,0,0,1.9126900434494019,-231.64865112304688,-293.6486511230469)" opacity="1"><g opacity="1" transform="matrix(1,0,0,1,248.91000366210938,279.0450134277344)"><path fill="rgb(61,48,59)" fill-opacity="1" d=" M7.818999767303467,-110.43599700927734 C-4.1620001792907715,-103.78399658203125 -8.388999938964844,-68.55999755859375 -9.824000358581543,-49.082000732421875 C-9.961000442504883,-47.22100067138672 -9.270999908447266,-45.393001556396484 -7.945000171661377,-44.07899856567383 C-7.945000171661377,-44.07899856567383 -7.910999774932861,-44.04600143432617 -7.910999774932861,-44.04600143432617 C-2.571000099182129,-38.749000549316406 1.0889999866485596,-29.04599952697754 1.0889999866485596,-29.04599952697754 C1.0889999866485596,-29.04599952697754 -9.979000091552734,-37.731998443603516 -46.244998931884766,-39.959999084472656 C-63.9109992980957,-41.04600143432617 -125.91100311279297,-36.04499816894531 -106.10099792480469,-5.203999996185303 C-97.22200012207031,8.618000030517578 -68.4489974975586,14.102999687194824 -40.45199966430664,14.102999687194824 C-26.44700050354004,14.102999687194824 -10.215999603271484,13.795999526977539 2.2009999752044678,13.5 C4.881999969482422,13.435999870300293 5.339000225067139,17.309999465942383 2.7149999141693115,17.867000579833984 C-12.734000205993652,21.14699935913086 -41.36000061035156,26.809999465942383 -62.9109992980957,24.95400047302246 C-83.48500061035156,23.18199920654297 -97.29000091552734,15.467000007629395 -104.23400115966797,13.064000129699707 C-105.68800354003906,12.560999870300293 -107.22799682617188,13.571000099182129 -107.32599639892578,15.105999946594238 C-107.86900329589844,23.614999771118164 -108.21900177001953,52.04600143432617 -96.4469985961914,70.0979995727539 C-84.19599914550781,88.88200378417969 -62.65599822998047,93.28199768066406 -48.77199935913086,94.0199966430664 C-21.910999298095703,93.9540023803711 -10.043999671936035,84.80500030517578 -10.043999671936035,84.80500030517578 C-10.043999671936035,84.80500030517578 -24.910999298095703,63.95399856567383 -23.910999298095703,98.9540023803711 C-23.756999969482422,103.23300170898438 -23.954999923706055,113.05400085449219 -23.59000015258789,116.33499908447266 C-22.922000885009766,122.35099792480469 -11.16100025177002,125.2020034790039 -6.2820000648498535,125.98899841308594 C23.645999908447266,130.8159942626953 83.91400146484375,120.11100006103516 79.26000213623047,95.1989974975586 C75.63800048828125,75.80899810791016 64.64199829101562,68.29000091552734 72.08899688720703,26.95400047302246 C72.41100311279297,25.170000076293945 93.08899688720703,18.95400047302246 98.08899688720703,5.953999996185303 C104.03099822998047,-9.494999885559082 125.91000366210938,-53.71099853515625 125.08899688720703,-72.0459976196289 C123.68599700927734,-103.36699676513672 44.527000427246094,-130.81700134277344 7.818999767303467,-110.43599700927734z"></path></g></g></g></svg>