<svg xmlns="http://www.w3.org/2000/svg" xmlns:xlink="http://www.w3.org/1999/xlink" viewBox="0 0 512 512" width="512" height="512" style="width: 100%; height: 100%; transform: translate3d(0,0,0);" preserveAspectRatio="xMidYMid meet"><defs><clipPath id="__lottie_element_52518"><rect width="512" height="512" x="0" y="0"></rect></clipPath></defs><g clip-path="url(#__lottie_element_52518)"><g style="display: block;" transform="matrix(1.9126900434494019,0,0,1.9126900434494019,-231.64865112304688,-293.6486511230469)" opacity="1"><g opacity="1" transform="matrix(1,0,0,1,233.7220001220703,287.16400146484375)"><path fill="rgb(61,48,59)" fill-opacity="1" d=" M15.75,-125.39700317382812 C-5.630000114440918,-127.36799621582031 -50.17300033569336,-125.16200256347656 -75.30699920654297,-99.60299682617188 C-80.29100036621094,-94.53500366210938 -87.27400207519531,-67.47699737548828 -80.17400360107422,-56.459999084472656 C-52.77000045776367,-13.930999755859375 -1.9950000047683716,-13.092000007629395 21.309999465942383,-15.24899959564209 C23.48200035095215,-15.449999809265137 24.21299934387207,-12.414999961853027 22.18400001525879,-11.616999626159668 C12.22700023651123,-7.702000141143799 -3.6540000438690186,-3.0889999866485596 -23.06399917602539,-3.177000045776367 C-53.7130012512207,-3.315999984741211 -74.93099975585938,-22.400999069213867 -84.0459976196289,-32.540000915527344 C-86.04299926757812,-34.76100158691406 -89.71700286865234,-33.62300109863281 -90.08899688720703,-30.659000396728516 C-93.18299865722656,-5.986000061035156 -101.93499755859375,67.47100067138672 -97.72100067138672,76.83599853515625 C-84.1729965209961,106.94300079345703 -47.84700012207031,117.38999938964844 -15.805999755859375,122.53199768066406 C14.336999893188477,127.36799621582031 75.06400299072266,111.96600341796875 89.2699966430664,88.76699829101562 C93.73100280761719,81.48100280761719 101.93499755859375,-63.62799835205078 97.3290023803711,-74.75399780273438 C86.61799621582031,-100.6240005493164 56.16299819946289,-121.6719970703125 15.75,-125.39700317382812z M52.99700164794922,-76.18099975585938 C52.479000091552734,-65.14700317382812 34.356998443603516,-56.86800003051758 12.291999816894531,-57.698001861572266 C-9.77299976348877,-58.52899932861328 -27.322999954223633,-68.1520004272461 -26.908000946044922,-79.18900299072266 C-26.492000579833984,-90.22699737548828 -8.267999649047852,-96.50199890136719 13.79699993133545,-95.6709976196289 C35.86199951171875,-94.83999633789062 53.27799987792969,-82.16400146484375 52.99700164794922,-76.18099975585938z"></path></g><g opacity="1" transform="matrix(1,0,0,1,341.49798583984375,259.8160095214844)"><path fill="rgb(61,48,59)" fill-opacity="1" d=" M-4.534999847412109,101.38400268554688 C-2.2750000953674316,88.54299926757812 3.753000020980835,-29.1200008392334 0.6399999856948853,-51.99599838256836 C-2.007999897003174,-71.46399688720703 -41.874000549316406,-97.16799926757812 -41.874000549316406,-97.16799926757812 C5.534999847412109,-108.13899993896484 32.4010009765625,-82.46299743652344 37.220001220703125,-71.14099884033203 C41.875,-60.20399856567383 31.975000381469727,79.77400207519531 29.825000762939453,97.95999908447266 C29.069000244140625,104.35199737548828 22.05299949645996,108.13800048828125 15.644000053405762,107.5469970703125 C4.658999919891357,106.53500366210938 -4.534999847412109,101.38400268554688 -4.534999847412109,101.38400268554688z"></path></g></g></g></svg>