<svg xmlns="http://www.w3.org/2000/svg" xmlns:xlink="http://www.w3.org/1999/xlink" viewBox="0 0 512 512" width="512" height="512" style="width: 100%; height: 100%; transform: translate3d(0,0,0);" preserveAspectRatio="xMidYMid meet"><defs><clipPath id="__lottie_element_53924"><rect width="512" height="512" x="0" y="0"></rect></clipPath></defs><g clip-path="url(#__lottie_element_53924)"><g style="display: block;" transform="matrix(1,0,0,1,257.593994140625,254.906005859375)" opacity="1"><g opacity="1" transform="matrix(1,0,0,1,0,0)"><path fill="rgb(0,0,0)" fill-opacity="1" d=" M-82.8,-54.26 C-84.57,-27.93 -65.06,-21.98 -42.2,-23.78 C-28.97,-23.55 -27.95,-22.51 -27.28,-9.85 C-24.26,6.73 -32.13,41.08 -9.9,43.73 C2.48,45.61 12.37,40.21 16.48,29.39 C20.54,16.38 17.79,2.42 18.79,-10.98 C19.11,-22.83 19.94,-23.49 31.29,-24.68 C44.58,-25.99 64.59,-26.78 64.93,-44.09 C66.57,-62.14 51.3,-75.18 33.88,-75.49 C21.49,-76.83 21.37,-76.8 21.01,-89.89 C20.83,-102.76 18.16,-120.41 1.97,-120.61 C-6.88,-121.17 -14.01,-118.25 -20.27,-111.77 C-35.75,-95.78 -17.22,-74.2 -44.53,-76.24 C-62.1,-76.53 -84.83,-78.33 -82.8,-54.26z M-28.486000061035156,145.96600341796875 C-32.02199935913086,146.87100219726562 -32.01100158691406,151.97799682617188 -28.465999603271484,152.843994140625 C-22.941999435424805,154.19400024414062 -17.645999908447266,153.80299377441406 -12.4350004196167,153.9029998779297 C58.00699996948242,155.1739959716797 128.39599609375,151.11000061035156 198.82699584960938,151.60299682617188 C215.32000732421875,151.89100646972656 226.41799926757812,160.70599365234375 228.73199462890625,177.031005859375 C230.0290069580078,199.13400268554688 237.98399353027344,242.97300720214844 207.54100036621094,247.05499267578125 C72.01000213623047,251.88099670410156 -64.7509994506836,250.39100646972656 -200.41600036621094,246.96600341796875 C-228.47500610351562,245.42599487304688 -231.1280059814453,213.6269989013672 -230.5590057373047,191.46200561523438 C-230.0260009765625,173.70199584960938 -221.5469970703125,161.9080047607422 -205.1020050048828,155.38900756835938 C-193.7519989013672,150.88999938964844 -193.177001953125,150.6510009765625 -193.9459991455078,138.25 C-196.6009979248047,62.48699951171875 -201.13299560546875,-14.380000114440918 -192.08299255371094,-89.73200225830078 C-182.16900634765625,-139.5489959716797 -154.04299926757812,-178.07400512695312 -116.46700286865234,-210.89199829101562 C-54.72800064086914,-264.1310119628906 35.983001708984375,-258.1000061035156 90.99500274658203,-223.14300537109375 C94.8740005493164,-220.66400146484375 96.69000244140625,-217.2519989013672 93.57099914550781,-213.28399658203125 C85.22100067138672,-202.66299438476562 87.04100036621094,-191.19500732421875 90.13899993896484,-179.50900268554688 C99.22200012207031,-151.90199279785156 104.97699737548828,-124.56999969482422 97.73799896240234,-95.86399841308594 C96.7239990234375,-90.42400360107422 94.91799926757812,-81.80400085449219 102.31099700927734,-80.25499725341797 C105.11000061035156,-79.66799926757812 107.61299896240234,-80.72200012207031 109.23999786376953,-82.98300170898438 C116.18299865722656,-93.09100341796875 119.70899963378906,-105.12699890136719 125.78199768066406,-115.71099853515625 C133.2429962158203,-129.25799560546875 133.22500610351562,-143.28500366210938 129.79299926757812,-157.73399353027344 C126.88200378417969,-169.1020050048828 113.50499725341797,-212.47999572753906 138.33999633789062,-187.89700317382812 C218.69700622558594,-112.47599792480469 193.89999389648438,28.937000274658203 197.48800659179688,130.23199462890625 C196.1959991455078,140.73800659179688 181.52200317382812,137.31100463867188 173.93899536132812,138.90899658203125 C108.37799835205078,140.97000122070312 42.73400115966797,140.96600341796875 -22.735000610351562,145.2449951171875 C-24.643999099731445,145.35499572753906 -26.57200050354004,145.4759979248047 -28.486000061035156,145.96600341796875z"></path><g opacity="1" transform="matrix(1,0,0,1,-8.9399995803833,-38.29199981689453)"></g><g opacity="1" transform="matrix(1,0,0,1,0,0)"></g></g></g></g></svg>