<svg xmlns="http://www.w3.org/2000/svg" xmlns:xlink="http://www.w3.org/1999/xlink" viewBox="0 0 512 512" width="512" height="512" style="width: 100%; height: 100%; transform: translate3d(0,0,0);" preserveAspectRatio="xMidYMid meet"><defs><clipPath id="__lottie_element_15861"><rect width="512" height="512" x="0" y="0"></rect></clipPath></defs><g clip-path="url(#__lottie_element_15861)"><g style="display: block;" transform="matrix(1.0299999713897705,0,0,1.0299999713897705,26.71160888671875,3.411895751953125)" opacity="1"><g opacity="1" transform="matrix(1,0,0,1,224.27999877929688,243.27000427246094)"><path fill="rgb(0,0,0)" fill-opacity="1" d=" M179.27999877929688,-104.9800033569336 C150.9499969482422,-177.30999755859375 101.27999877929688,-239.97999572753906 55.279998779296875,-239.97999572753906 C20.610000610351562,-239.97999572753906 17.950000762939453,-210.97999572753906 -0.7200000286102295,-210.97999572753906 C-14.850000381469727,-210.97999572753906 -33.38999938964844,-243.02000427246094 -62.720001220703125,-235.97999572753906 C-136.22000122070312,-218.3300018310547 -174.47999572753906,-129.69000244140625 -187.47999572753906,-99.69000244140625 C-206.02999877929688,-56.880001068115234 -224.02999877929688,-54.97999954223633 -223.72000122070312,-43.97999954223633 C-223.33999633789062,-30.559999465942383 -176.0500030517578,63.02000045776367 -145.72000122070312,98.0199966430664 C-142.33999633789062,101.93000030517578 -144.57000732421875,132.77999877929688 -140.72000122070312,150.02000427246094 C-127.38999938964844,209.69000244140625 -74.72000122070312,243.02000427246094 4.28000020980835,243.02000427246094 C84.61000061035156,243.02000427246094 125.94999694824219,204.35000610351562 140.61000061035156,151.02000427246094 C147.75999450683594,125.02999877929688 140.75999450683594,90.69000244140625 144.27999877929688,88.0199966430664 C184.27999877929688,57.689998626708984 224.02999877929688,-35.650001525878906 224.02999877929688,-47.439998626708984 C224.02999877929688,-65.01000213623047 195.89999389648438,-62.54999923706055 179.27999877929688,-104.9800033569336z M69.27999877929688,90.3499984741211 C65.94999694824219,126.3499984741211 23.950000762939453,138.02000427246094 10.09000015258789,154.02000427246094 C7.329999923706055,157.2100067138672 -5.050000190734863,157.52000427246094 -8.050000190734863,154.02000427246094 C-21.200000762939453,138.67999267578125 -70.05000305175781,122.3499984741211 -70.05000305175781,91.0199966430664 C-70.05000305175781,72.52999877929688 -60.38999938964844,52.349998474121094 -35.38999938964844,52.349998474121094 C-6.050000190734863,52.349998474121094 -6.980000019073486,76.97000122070312 -0.7200000286102295,77.0199966430664 C4.239999771118164,77.05999755859375 4.429999828338623,53.08000183105469 34.61000061035156,52.689998626708984 C60.279998779296875,52.349998474121094 70.81999969482422,73.75 69.27999877929688,90.3499984741211z M131.27999877929688,1.0199999809265137 C126.88999938964844,-51.63999938964844 95.27999877929688,-90.9800033569336 54.279998779296875,-93.9800033569336 C22.06999969482422,-96.33999633789062 13.029999732971191,-67.20999908447266 12.279999732971191,-63.97999954223633 C7.670000076293945,-44.2599983215332 5.610000133514404,14.020000457763672 -0.7200000286102295,14.020000457763672 C-9.050000190734863,14.020000457763672 -11.119999885559082,-47.06999969482422 -14.720000267028809,-62.97999954223633 C-18.850000381469727,-81.22000122070312 -36.400001525878906,-95.2699966430664 -53.720001220703125,-93.9800033569336 C-94.05000305175781,-90.9800033569336 -126.05000305175781,-64.30999755859375 -132.72000122070312,-5.980000019073486 C-133.6300048828125,2 -187.05999755859375,-40.959999084472656 -178.72000122070312,-45.97999954223633 C-136.38999938964844,-71.4800033569336 -94.72000122070312,-144.97999572753906 -55.720001220703125,-150.97999572753906 C-35.65999984741211,-154.07000732421875 -19.170000076293945,-137.44000244140625 -1.7200000286102295,-136.97999572753906 C15.710000038146973,-136.52000427246094 28.81999969482422,-153.97999572753906 49.279998779296875,-153.97999572753906 C82.61000061035156,-153.97999572753906 115.27999877929688,-84.30999755859375 176.27999877929688,-44.97999954223633 C181.22000122070312,-41.790000915527344 132.27999877929688,13.020000457763672 131.27999877929688,1.0199999809265137z"></path></g></g></g></svg>