<svg xmlns="http://www.w3.org/2000/svg" xmlns:xlink="http://www.w3.org/1999/xlink" viewBox="0 0 512 512" width="512" height="512" style="width: 100%; height: 100%; transform: translate3d(0,0,0);" preserveAspectRatio="xMidYMid meet"><defs><clipPath id="__lottie_element_52995"><rect width="512" height="512" x="0" y="0"></rect></clipPath></defs><g clip-path="url(#__lottie_element_52995)"><g style="display: block;" transform="matrix(1,0,0,1,0,0)" opacity="1"><g opacity="1" transform="matrix(1,0,0,1,264.0480041503906,258.1300048828125)"><path fill="rgb(0,0,0)" fill-opacity="1" d=" M187.95199584960938,-170.1300048828125 C181.56199645996094,-181.47999572753906 170.6219940185547,-197.39999389648438 152.95199584960938,-210.1300048828125 C129.95199584960938,-226.6999969482422 50.02199935913086,-226.8699951171875 23.95199966430664,-216.1300048828125 C6.0920000076293945,-208.77000427246094 -4.947999954223633,-197.60000610351562 -16.04800033569336,-195.1300048828125 C-29.74799919128418,-192.08999633789062 -38.29800033569336,-212.4499969482422 -59.04800033569336,-217.1300048828125 C-87.96800231933594,-223.64999389648438 -154.04800415039062,-210.1300048828125 -184.04800415039062,-185.1300048828125 C-205.53799438476562,-167.22000122070312 -214.04800415039062,-143.2100067138672 -214.04800415039062,-133.1300048828125 C-214.04800415039062,23.8700008392334 -145.4980010986328,46.290000915527344 -141.04800415039062,62.869998931884766 C-112.0479965209961,170.8699951171875 -95.0479965209961,226.8699951171875 -55.04800033569336,226.8699951171875 C-21.04800033569336,226.8699951171875 -41.097999572753906,63.09000015258789 6.952000141143799,80.87000274658203 C73.62200164794922,105.54000091552734 29.16200065612793,209.32000732421875 66.9520034790039,215.8699951171875 C110.60199737548828,223.42999267578125 158.83200073242188,31.628000259399414 148.95199584960938,36.869998931884766 C99.9520034790039,62.869998931884766 67.25199890136719,39.0099983215332 70.9520034790039,37.869998931884766 C109.9520034790039,25.8700008392334 160.95199584960938,6.869999885559082 187.95199584960938,-27.1299991607666 C214.04800415039062,-59.992000579833984 204.27200317382812,-141.1300048828125 187.95199584960938,-170.1300048828125z M54.95199966430664,-140.1300048828125 C35.79199981689453,-127.08000183105469 -23.54800033569336,-115.12999725341797 -50.37799835205078,-125.45999908447266 C-65.10800170898438,-131.13999938964844 -61.29800033569336,-152.6300048828125 -46.04800033569336,-149.8000030517578 C-16.097999572753906,-144.22999572753906 17.54199981689453,-148.80999755859375 41.95199966430664,-161.8000030517578 C56.20199966430664,-169.3800048828125 72.2020034790039,-151.8800048828125 54.95199966430664,-140.1300048828125z"></path></g></g></g></svg>