<svg xmlns="http://www.w3.org/2000/svg" xmlns:xlink="http://www.w3.org/1999/xlink" viewBox="0 0 512 512" width="512" height="512" style="width: 100%; height: 100%; transform: translate3d(0,0,0);" preserveAspectRatio="xMidYMid meet"><defs><clipPath id="__lottie_element_52413"><rect width="512" height="512" x="0" y="0"></rect></clipPath></defs><g clip-path="url(#__lottie_element_52413)"><g style="display: block;" transform="matrix(1,0,0,1,256,256)" opacity="1"><g opacity="1" transform="matrix(1,0,0,1,0,0)"><path fill="rgb(0,0,0)" fill-opacity="1" d=" M235.79400634765625,84.55599975585938 C227.55999755859375,51.03900146484375 177.49200439453125,29.30299949645996 122.16799926757812,45.49399948120117 C120.09100341796875,-27.327999114990234 120.91000366210938,-115.04199981689453 132.8719940185547,-170.21299743652344 C135.76300048828125,-183.5469970703125 129.93499755859375,-197.29200744628906 118.21800231933594,-204.28199768066406 C-16.290000915527344,-284.5260009765625 -157.5399932861328,-233.07899475097656 -222.99899291992188,-143.5780029296875 C-230.4969940185547,-133.3260040283203 -231.1540069580078,-119.58699798583984 -224.73699951171875,-108.62699890136719 C-210.0279998779297,-83.50599670410156 -182.04600524902344,-32.845001220703125 -158.9669952392578,25.66200065612793 C-155.2550048828125,35.071998596191406 -147.3489990234375,42.20199966430664 -137.58599853515625,44.8489990234375 C-88.78399658203125,58.08000183105469 -41.7140007019043,84.74099731445312 -1.2990000247955322,126.06600189208984 C5.427000045776367,132.9429931640625 -3.5450000762939453,143.7050018310547 -11.51099967956543,138.375 C-11.51099967956543,138.375 -11.571000099182129,138.33399963378906 -11.571000099182129,138.33399963378906 C-127.72699737548828,60.70000076293945 -241.2740020751953,88.61599731445312 -238.0800018310547,153.73399353027344 C-235.1219940185547,214.03500366210938 -191.40699768066406,257.2309875488281 14.625,227.1540069580078 C220.65699768066406,197.07699584960938 250.197998046875,143.18600463867188 235.79400634765625,84.55599975585938z"></path></g></g></g></svg>