<svg xmlns="http://www.w3.org/2000/svg" xmlns:xlink="http://www.w3.org/1999/xlink" viewBox="0 0 512 512" width="512" height="512" style="width: 100%; height: 100%; transform: translate3d(0,0,0);" preserveAspectRatio="xMidYMid meet"><defs><clipPath id="__lottie_element_709"><rect width="512" height="512" x="0" y="0"></rect></clipPath></defs><g clip-path="url(#__lottie_element_709)"><g style="display: block;" transform="matrix(1,0,0,1,21.949996948242188,2.7100067138671875)" opacity="1"><g opacity="1" transform="matrix(1,0,0,1,234.0500030517578,252.33599853515625)"><path fill="rgb(0,0,0)" fill-opacity="1" d=" M231.947998046875,23.10099983215332 C230.0970001220703,-5.699999809265137 198.1649932861328,-36.013999938964844 181.72000122070312,-35.65800094604492 C180.0709991455078,-35.62200164794922 178.41400146484375,-35.41299819946289 176.75399780273438,-35.06800079345703 C177.18299865722656,-36.5989990234375 177.60899353027344,-38.10300064086914 178.02000427246094,-39.54899978637695 C180.4980010986328,-48.27199935913086 182.6739959716797,-55.9370002746582 183.61399841308594,-63.23099899291992 C187.7779998779297,-71.9469985961914 189.61000061035156,-84.625 188.822998046875,-99.48899841308594 C191.97999572753906,-117.96499633789062 187.58299255371094,-128.75599670410156 184.34800720214844,-136.6909942626953 C183.30099487304688,-139.26100158691406 182.39700317382812,-141.47799682617188 181.8679962158203,-143.63900756835938 C181.8679962158203,-143.63900756835938 181.86700439453125,-143.63900756835938 181.86700439453125,-143.63900756835938 C178.6060028076172,-156.9340057373047 169.9010009765625,-167.8509979248047 161.99899291992188,-177.0399932861328 C161.08900451660156,-178.0970001220703 160.1479949951172,-179.46800231933594 159.0570068359375,-181.05599975585938 C154.69500732421875,-187.41299438476562 148.8000030517578,-195.99899291992188 132.79200744628906,-204.5919952392578 C123.52100372314453,-215.7270050048828 113.88899993896484,-218.88900756835938 104.55699920654297,-221.95399475097656 C102.21299743652344,-222.7220001220703 99.80699920654297,-223.51199340820312 97.27100372314453,-224.46200561523438 C88.24400329589844,-232.80499267578125 75.22599792480469,-236.18499755859375 64.58799743652344,-238.9459991455078 C61.11600112915039,-239.8470001220703 57.22999954223633,-240.85699462890625 55.16600036621094,-241.69400024414062 C39.48699951171875,-252.08599853515625 18.225000381469727,-250.43099975585938 5.4029998779296875,-249.427001953125 C3.171999931335449,-249.2519989013672 1.0640000104904175,-249.08799743652344 0,-249.08799743652344 C-1.065000057220459,-249.08799743652344 -3.171999931335449,-249.2519989013672 -5.4029998779296875,-249.427001953125 C-18.225000381469727,-250.42799377441406 -39.48699951171875,-252.08599853515625 -55.16699981689453,-241.69400024414062 C-57.22999954223633,-240.85699462890625 -61.11600112915039,-239.8470001220703 -64.58699798583984,-238.9459991455078 C-75.2249984741211,-236.18499755859375 -88.24400329589844,-232.80499267578125 -97.27100372314453,-224.46200561523438 C-99.80699920654297,-223.51199340820312 -102.21199798583984,-222.7220001220703 -104.55599975585938,-221.95399475097656 C-113.88999938964844,-218.88900756835938 -123.52100372314453,-215.7270050048828 -132.79299926757812,-204.5919952392578 C-148.7969970703125,-195.99899291992188 -154.69500732421875,-187.41299438476562 -159.0570068359375,-181.05599975585938 C-160.1479949951172,-179.46800231933594 -161.08900451660156,-178.0970001220703 -161.99899291992188,-177.03799438476562 C-169.90199279785156,-167.8489990234375 -178.60699462890625,-156.92999267578125 -181.86700439453125,-143.63900756835938 C-182.3979949951172,-141.47799682617188 -183.302001953125,-139.26100158691406 -184.34800720214844,-136.6909942626953 C-187.58200073242188,-128.75599670410156 -191.97900390625,-117.96700286865234 -188.822998046875,-99.48899841308594 C-189.61000061035156,-84.62699890136719 -187.7779998779297,-71.9469985961914 -183.61300659179688,-63.23099899291992 C-182.6739959716797,-55.9370002746582 -180.4980010986328,-48.27399826049805 -178.02000427246094,-39.54999923706055 C-177.60699462890625,-38.09700012207031 -177.1790008544922,-36.58599853515625 -176.7480010986328,-35.04800033569336 C-178.41000366210938,-35.393001556396484 -180.07000732421875,-35.62200164794922 -181.72000122070312,-35.65800094604492 C-198.1649932861328,-36.013999938964844 -230.0959930419922,-5.699999809265137 -231.947998046875,23.10099983215332 C-233.8000030517578,51.902000427246094 -185.31199645996094,98.62799835205078 -165.97999572753906,98.22899627685547 C-163.54600524902344,98.17900085449219 -161.0050048828125,97.61599731445312 -158.4239959716797,96.68699645996094 C-158.39700317382812,96.8479995727539 -158.36500549316406,97 -158.33799743652344,97.16100311279297 C-158.33799743652344,97.16100311279297 -157.83599853515625,100.14299774169922 -157.83599853515625,100.14299774169922 C-153.8459930419922,123.88500213623047 -150.96400451660156,141.03900146484375 -139.46800231933594,159.73199462890625 C-130.89500427246094,173.6699981689453 -116.24800109863281,185.33299255371094 -103.3239974975586,195.625 C-98.34200286865234,199.5919952392578 -93.63600158691406,203.33799743652344 -90.23400115966797,206.51300048828125 C-88.83699798583984,207.81700134277344 -87.18499755859375,209.4929962158203 -85.27300262451172,211.43499755859375 C-71.27799987792969,225.64100646972656 -45.229000091552734,252.08599853515625 0,252.08599853515625 C45.22999954223633,252.08599853515625 71.27899932861328,225.64100646972656 85.27400207519531,211.43499755859375 C87.18599700927734,209.4929962158203 88.83799743652344,207.81700134277344 90.23400115966797,206.51300048828125 C93.63700103759766,203.33799743652344 98.34300231933594,199.59100341796875 103.32499694824219,195.6219940185547 C116.2490005493164,185.33200073242188 130.89599609375,173.6699981689453 139.4669952392578,159.73199462890625 C150.96299743652344,141.04100036621094 153.84500122070312,123.88899993896484 157.8350067138672,100.1500015258789 C157.8350067138672,100.1500015258789 158.33799743652344,97.16100311279297 158.33799743652344,97.16100311279297 C158.36300659179688,97.00900268554688 158.39300537109375,96.86399841308594 158.41900634765625,96.71299743652344 C161.0030059814453,97.64299774169922 163.54400634765625,98.17900085449219 165.9810028076172,98.22899627685547 C185.31300354003906,98.62799835205078 233.8000030517578,51.902000427246094 231.947998046875,23.10099983215332z M54.13399887084961,174.91000366210938 C51.85900115966797,175.68099975585938 49.608001708984375,175.83799743652344 47.48400115966797,175.4980010986328 C40.92900085449219,174.44700622558594 37.3380012512207,166.13299560546875 42.691001892089844,162.2480010986328 C43.24300003051758,161.8470001220703 43.78200149536133,161.38699340820312 44.30500030517578,160.8470001220703 C47.67499923706055,158.15699768066406 45.52199935913086,151.00599670410156 41.22100067138672,151.96099853515625 C27.291000366210938,156.31500244140625 14.694000244140625,156.5590057373047 0.17599999904632568,156.34800720214844 C-14.668999671936035,156.54400634765625 -27.06800079345703,154.88999938964844 -41.59600067138672,152.2030029296875 C-45.67399978637695,151.51699829101562 -48.106998443603516,159.02699279785156 -44.79499816894531,161.5469970703125 C-44.52000045776367,161.77099609375 -44.24300003051758,161.9770050048828 -43.9640007019043,162.16900634765625 C-37.867000579833984,166.3769989013672 -42.44300079345703,175.8090057373047 -49.87900161743164,175.66700744628906 C-51.27000045776367,175.63999938964844 -52.696998596191406,175.39700317382812 -54.132999420166016,174.91000366210938 C-65.48699951171875,171.0679931640625 -68.25399780273438,151.88800048828125 -68.80500030517578,138.20799255371094 C-63.62300109863281,140.59500122070312 -57.733001708984375,140.7830047607422 -52.20899963378906,140.94700622558594 C-46.077999114990234,140.98899841308594 -40.17900085449219,140.5709991455078 -34.32899856567383,140.125 C-22.665000915527344,139.21600341796875 -11.185999870300293,137.98300170898438 0,137.947998046875 C17.075000762939453,137.95599365234375 34.70899963378906,140.93600463867188 52.20899963378906,140.9459991455078 C59.75199890136719,141.07699584960938 65.11499786376953,139.97900390625 68.8030014038086,138.2530059814453 C68.24800109863281,151.9320068359375 65.4749984741211,171.07200622558594 54.13399887084961,174.91000366210938z M0,112.91699981689453 C16.0310001373291,112.91699981689453 37.349998474121094,118.28099822998047 54.50199890136719,126.16799926757812 C53.702999114990234,126.30799865722656 52.88999938964844,126.43800354003906 52.073001861572266,126.57599639892578 C46.797000885009766,127.21199798583984 41.08300018310547,127.37899780273438 35.358001708984375,127.2750015258789 C17.80299949645996,126.91000366210938 -0.30000001192092896,125.33300018310547 -17.913999557495117,126.55500030517578 C-29.235000610351562,126.90399932861328 -41.0620002746582,127.61599731445312 -52.069000244140625,126.1989974975586 C-52.676998138427734,126.08999633789062 -53.279998779296875,125.98600006103516 -53.87799835205078,125.87999725341797 C-36.83599853515625,118.14900207519531 -15.836000442504883,112.91699981689453 0,112.91699981689453z M86.93299865722656,115.9010009765625 C85.6780014038086,106.3270034790039 83.45899963378906,97.88600158691406 80.94300079345703,96.44100189208984 C75.61499786376953,93.38500213623047 68.39700317382812,97.29100036621094 61.52299880981445,94.91400146484375 C57.823001861572266,93.63300323486328 43.577999114990234,81.322998046875 33.01499938964844,74.9020004272461 C38.81700134277344,72.48999786376953 46.334999084472656,69.82499694824219 50.525001525878906,65.81800079345703 C61.624000549316406,55.20199966430664 54.922000885009766,41.189998626708984 48.805999755859375,42.770999908447266 C49.150001525878906,49.05500030517578 38.1510009765625,57.58100128173828 28.18400001525879,58.2599983215332 C18.215999603271484,58.93899917602539 10.654999732971191,65.39399719238281 0,65.39399719238281 C-10.654999732971191,65.39399719238281 -18.215999603271484,58.93899917602539 -28.183000564575195,58.2599983215332 C-38.1510009765625,57.58100128173828 -49.14899826049805,49.05500030517578 -48.805999755859375,42.770999908447266 C-55.40700149536133,42.50199890136719 -60.5629997253418,56.73099899291992 -50.52399826049805,65.81800079345703 C-46.222999572753906,69.71199798583984 -38.77199935913086,72.447998046875 -32.999000549316406,74.89199829101562 C-43.56399917602539,81.30999755859375 -57.82099914550781,93.63200378417969 -61.52299880981445,94.91400146484375 C-68.39700317382812,97.29100036621094 -75.61499786376953,93.38500213623047 -80.94200134277344,96.44100189208984 C-83.45899963378906,97.88600158691406 -85.677001953125,106.3270034790039 -86.93299865722656,115.9010009765625 C-90.20099639892578,112.68099975585938 -93.5479965209961,109.41899871826172 -96.91300201416016,106.16999816894531 C-100.5739974975586,88.46800231933594 -106.93699645996094,73.57499694824219 -120.98300170898438,64.23500061035156 C-150.0500030517578,44.90700149536133 -145.23399353027344,25.312999725341797 -145.0279998779297,0.9629999995231628 C-144.6840057373047,-39.65599822998047 -135.04299926757812,-60.167999267578125 -136.10699462890625,-70.68599700927734 C-136.10699462890625,-78.66899871826172 -139.27000427246094,-106.65299987792969 -134.38800048828125,-119.26100158691406 C-129.05999755859375,-133.01800537109375 -111.875,-143.5500030517578 -108.26699829101562,-144.06199645996094 C-104.65699768066406,-144.57400512695312 -102.59500122070312,-141.8509979248047 -97.44000244140625,-142.02099609375 C-92.28399658203125,-142.1909942626953 -86.26899719238281,-147.7969970703125 -81.8010025024414,-148.98500061035156 C-77.33300018310547,-150.1739959716797 -75.44300079345703,-144.90899658203125 -71.66200256347656,-144.39999389648438 C-67.88099670410156,-143.88999938964844 -57.39799880981445,-146.26800537109375 -53.44599914550781,-146.43800354003906 C-49.49300003051758,-146.60800170898438 -42.61899948120117,-143.04100036621094 -35.91699981689453,-142.03500366210938 C-29.214000701904297,-141.02999877929688 -21.652999877929688,-144.56900024414062 -16.840999603271484,-145.07899475097656 C-12.029999732971191,-145.58799743652344 -4.639999866485596,-138.96499633789062 0,-138.96499633789062 C4.639999866485596,-138.96499633789062 12.029999732971191,-145.58799743652344 16.841999053955078,-145.07899475097656 C21.652999877929688,-144.56900024414062 29.21500015258789,-141.02999877929688 35.91699981689453,-142.03500366210938 C42.61899948120117,-143.04100036621094 49.49300003051758,-146.60800170898438 53.44599914550781,-146.43800354003906 C57.39899826049805,-146.26800537109375 67.88200378417969,-143.88999938964844 71.66200256347656,-144.39999389648438 C75.44300079345703,-144.90899658203125 77.33399963378906,-150.1739959716797 81.802001953125,-148.98500061035156 C86.2699966430664,-147.7969970703125 92.28500366210938,-142.1909942626953 97.44000244140625,-142.02099609375 C102.59600067138672,-141.8509979248047 104.65799713134766,-144.57400512695312 108.26699829101562,-144.06199645996094 C111.875,-143.5500030517578 129.06100463867188,-133.01800537109375 134.38800048828125,-119.26100158691406 C135.49400329589844,-116.40599822998047 136.1840057373047,-112.75800323486328 136.59500122070312,-108.73500061035156 C136.64500427246094,-97.08799743652344 136.1179962158203,-84.39800262451172 134.73199462890625,-70.68599700927734 C133.7169952392578,-60.64799880981445 143.2550048828125,-44.58399963378906 145.31500244140625,-4.881999969482422 C145.28199768066406,-0.7789999842643738 145.49400329589844,3.0759999752044678 145.75900268554688,6.735000133514404 C146.4929962158203,28.44700050354004 146.34100341796875,46.45899963378906 119.60900115966797,64.23500061035156 C105.12200164794922,73.86799621582031 98.7979965209961,89.39800262451172 95.19200134277344,107.83599853515625 C92.40899658203125,110.53299713134766 89.64299774169922,113.23100280761719 86.93299865722656,115.9010009765625z"></path></g><g opacity="1" transform="matrix(1,0,0,1,306.3320007324219,220.9199981689453)"><path fill="rgb(0,0,0)" fill-opacity="1" d=" M12.092000007629395,-10.545999526977539 C33.85200119018555,-9.659000396728516 47.33399963378906,-5.974999904632568 48.70199966430664,-8.527999877929688 C50.249000549316406,-11.416000366210938 51.624000549316406,-24.663000106811523 49.904998779296875,-28.56999969482422 C48.1870002746582,-32.47600173950195 28.937999725341797,-44.53499984741211 15.534000396728516,-45.38399887084961 C2.128999948501587,-46.23400115966797 -46.1609992980957,-32.645999908447266 -48.222999572753906,-30.26799964904785 C-50.2859992980957,-27.891000747680664 -51.624000549316406,-10.482999801635742 -49.42599868774414,-8.527999877929688 C-48.10300064086914,-7.349999904632568 -33.61899948120117,-9.295999526977539 -14.706999778747559,-10.253000259399414 C-22.48900032043457,-4.947000026702881 -27.716999053955078,4.736000061035156 -27.716999053955078,15.836999893188477 C-27.716999053955078,32.625 -15.79800033569336,46.23400115966797 -1.0950000286102295,46.23400115966797 C13.607999801635742,46.23400115966797 25.525999069213867,32.625 25.525999069213867,15.836999893188477 C25.525999069213867,4.5329999923706055 20.110000610351562,-5.308000087738037 12.092000007629395,-10.545999526977539z"></path></g><g opacity="1" transform="matrix(1,0,0,1,161.76800537109375,220.9199981689453)"><path fill="rgb(0,0,0)" fill-opacity="1" d=" M-15.534000396728516,-45.3849983215332 C-28.93899917602539,-44.5359992980957 -48.18600082397461,-32.47700119018555 -49.904998779296875,-28.570999145507812 C-51.62300109863281,-24.663999557495117 -50.24800109863281,-11.416000366210938 -48.70199966430664,-8.529000282287598 C-47.33300018310547,-5.974999904632568 -33.85200119018555,-9.659000396728516 -12.093000411987305,-10.54699993133545 C-20.111000061035156,-5.309000015258789 -25.525999069213867,4.5329999923706055 -25.525999069213867,15.836000442504883 C-25.525999069213867,32.624000549316406 -13.607000350952148,46.23400115966797 1.0950000286102295,46.23400115966797 C15.79800033569336,46.23400115966797 27.718000411987305,32.624000549316406 27.718000411987305,15.836000442504883 C27.718000411987305,4.735000133514404 22.48900032043457,-4.947999954223633 14.706999778747559,-10.253000259399414 C33.619998931884766,-9.295999526977539 48.10200119018555,-7.35099983215332 49.42599868774414,-8.529000282287598 C51.62300109863281,-10.482999801635742 50.28499984741211,-27.891000747680664 48.222999572753906,-30.268999099731445 C46.1609992980957,-32.64699935913086 -2.130000114440918,-46.23400115966797 -15.534000396728516,-45.3849983215332z"></path></g></g></g></svg>