<svg xmlns="http://www.w3.org/2000/svg" xmlns:xlink="http://www.w3.org/1999/xlink" viewBox="0 0 512 512" width="512" height="512" style="width: 100%; height: 100%; transform: translate3d(0,0,0);" preserveAspectRatio="xMidYMid meet"><defs><clipPath id="__lottie_element_52448"><rect width="512" height="512" x="0" y="0"></rect></clipPath></defs><g clip-path="url(#__lottie_element_52448)"><g style="display: block;" transform="matrix(1,0,0,1,-538.008056640625,-648.760986328125)" opacity="1"><g opacity="1" transform="matrix(0.949999988079071,0,0,0.949999988079071,39.8035888671875,49.90728759765625)"><g opacity="1" transform="matrix(1,0,0,1,587.6829833984375,945.3480224609375)"><path fill="rgb(0,0,0)" fill-opacity="1" d=" M30.632999420166016,-30.312000274658203 C30.951000213623047,-29.104999542236328 31.875999450683594,-27.645000457763672 31.493000030517578,-26.732999801635742 C25.597999572753906,-12.668999671936035 19.893999099731445,1.49399995803833 13.397000312805176,15.279999732971191 C7.665999889373779,27.44099998474121 -11.140999794006348,31.80900001525879 -22.604000091552734,24.285999298095703 C-29.45800018310547,19.78700065612793 -31.875999450683594,7.130000114440918 -27.094999313354492,-0.8999999761581421 C-25.42799949645996,-3.700000047683716 -23.225000381469727,-6.422999858856201 -20.667999267578125,-8.413000106811523 C-6.4039998054504395,-19.517000198364258 9.003000259399414,-28.430999755859375 27.118999481201172,-31.62299919128418 C28.18000030517578,-31.809999465942383 29.45599937438965,-30.777999877929688 30.632999420166016,-30.312000274658203z"></path></g><g opacity="1" transform="matrix(1,0,0,1,796.77197265625,997.905029296875)"><path fill="rgb(0,0,0)" fill-opacity="1" d=" M238.38600158691406,-126.45700073242188 C243.51100158691406,-120.79499816894531 241.19500732421875,-110.2030029296875 240.8249969482422,-103.79499816894531 C239.4969940185547,-86.10800170898438 205.70899963378906,-96.16400146484375 206.4429931640625,-82.01000213623047 C210.552001953125,-74.55899810791016 222.11099243164062,-79.44200134277344 228.47900390625,-75.44100189208984 C235.4810028076172,-71.09600067138672 235.37399291992188,-57.99700164794922 227.6529998779297,-54.31999969482422 C213.52999877929688,-48.08000183105469 197.3679962158203,-48.430999755859375 183.1790008544922,-42.24300003051758 C178.13499450683594,-40.22200012207031 173.2689971923828,-37.78799819946289 168.5050048828125,-35.084999084472656 C102.27400207519531,5.873000144958496 29.792999267578125,30.18899917602539 -47.558998107910156,38.73400115966797 C-55.99300003051758,39.41999816894531 -61.4109992980957,44.875 -61.62699890136719,53.310001373291016 C-63.39699935913086,68.65599822998047 -66.59700012207031,84.00499725341797 -67.09200286865234,100.19100189208984 C-67.34500122070312,104.53199768066406 -65.99700164794922,108.7959976196289 -61.70199966430664,110.61799621582031 C-46.56700134277344,115.51000213623047 -39.49700164794922,116.66799926757812 -34.571998596191406,133.69700622558594 C-30.733999252319336,143.3350067138672 -34.41299819946289,146.97300720214844 -44.52799987792969,146.66900634765625 C-55.816001892089844,146.79100036621094 -67.15899658203125,146.83700561523438 -78.4800033569336,146.8159942626953 C-84.18599700927734,146.92300415039062 -90.11900329589844,145.7989959716797 -94.08300018310547,141.36099243164062 C-104.1729965209961,129.48800659179688 -113.19400024414062,116.6719970703125 -122.86100006103516,104.45999908447266 C-127.9749984741211,98.05599975585938 -132.3769989013672,90.20800018310547 -135.36099243164062,82.70899963378906 C-140.83299255371094,71.2760009765625 -128.3699951171875,64.97100067138672 -120.51300048828125,58.819000244140625 C-112.38400268554688,52.91600036621094 -104.55599975585938,46.393001556396484 -97.66500091552734,39.08700180053711 C-80.77300262451172,21.41699981689453 -69.0009994506836,-1.718999981880188 -66.35399627685547,-26.097000122070312 C-65.62300109863281,-30.052000045776367 -63.64400100708008,-71.36399841308594 -72.5979995727539,-61.50299835205078 C-75.8030014038086,-54.729000091552734 -75.36499786376953,-46.18199920654297 -76.89600372314453,-38.80500030517578 C-77.88800048828125,-32.125999450683594 -78.97799682617188,-25.434999465942383 -80.71900177001953,-18.895999908447266 C-93.07499694824219,25.996999740600586 -138.4149932861328,58.231998443603516 -178.281005859375,78.44300079345703 C-185.13499450683594,81.74600219726562 -193.45700073242188,85.71900177001953 -197.0469970703125,92.51499938964844 C-202.00900268554688,102.7030029296875 -198.73399353027344,111.96099853515625 -188.73399353027344,117.447998046875 C-182.48800659179688,121.86900329589844 -179.13099670410156,128.81300354003906 -176.4459991455078,135.77499389648438 C-173.52099609375,142.42599487304688 -176.81399536132812,146.64199829101562 -183.9739990234375,146.6300048828125 C-196.80299377441406,147.35000610351562 -209.74400329589844,148.0070037841797 -222.6300048828125,148.4550018310547 C-239.21099853515625,149.427001953125 -243.51199340820312,147.2259979248047 -242.97900390625,129.39599609375 C-243.1179962158203,108.73400115966797 -242.98300170898438,88.13600158691406 -243.0679931640625,67.48200225830078 C-243.05099487304688,62.402000427246094 -243.21099853515625,56.766998291015625 -241.0330047607422,52.132999420166016 C-238.6179962158203,47.10100173950195 -233.31900024414062,44.527000427246094 -228.66000366210938,41.9119987487793 C-222.67300415039062,38.604000091552734 -216.5449981689453,34.92399978637695 -211.4949951171875,30.43000030517578 C-194.4499969482422,16.18400001525879 -189.06300354003906,-6.0879998207092285 -183.1219940185547,-26.482999801635742 C-178.63800048828125,-42.01599884033203 -173.5399932861328,-57.28900146484375 -168.21400451660156,-72.56300354003906 C-166.08299255371094,-78.61000061035156 -163.21200561523438,-84.4739990234375 -159.0070037841797,-89.33699798583984 C-143.42799377441406,-105.74299621582031 -121.63400268554688,-115.36799621582031 -99.72100067138672,-119.28900146484375 C-36.805999755859375,-124.56600189208984 26.548999786376953,-122.91200256347656 89.61299896240234,-124.5770034790039 C97.7490005493164,-125.1520004272461 106.76699829101562,-125.0510025024414 112.73500061035156,-131.3070068359375 C119.15899658203125,-138.1510009765625 124.02799987792969,-149.427001953125 135.07899475097656,-148.05299377441406 C139.50599670410156,-147.6959991455078 144.78799438476562,-146.0229949951172 149.04800415039062,-143.781005859375 C154.84800720214844,-140.65499877929688 159.48800659179688,-136.08599853515625 165.6929931640625,-134.01499938964844 C172.60800170898438,-131.49000549316406 180.09100341796875,-130.9199981689453 187.36000061035156,-130.0590057373047 C201.89100646972656,-128.42999267578125 216.41400146484375,-126.26799774169922 231.67799377441406,-127.78099822998047 C233.9720001220703,-127.98200225830078 236.50900268554688,-127.88800048828125 238.26199340820312,-126.55400085449219 C238.26199340820312,-126.55400085449219 238.38600158691406,-126.45700073242188 238.38600158691406,-126.45700073242188z"></path></g><g opacity="1" transform="matrix(1,0,0,1,932.5250244140625,1071.97705078125)"><path fill="rgb(0,0,0)" fill-opacity="1" d=" M76.04399871826172,70.05699920654297 C72.83200073242188,71.2020034790039 71.06199645996094,72.38099670410156 69.29399871826172,72.37899780273438 C53.361000061035156,72.35399627685547 37.428001403808594,72.00499725341797 21.4950008392334,72.01399993896484 C15.859000205993652,72.01699829101562 11.097999572753906,70.35399627685547 6.966000080108643,66.63500213623047 C-2.8940000534057617,57.757999420166016 -13.75100040435791,49.75 -22.395000457763672,39.816001892089844 C-37.19200134277344,22.812000274658203 -50.88100051879883,4.809000015258789 -64.43800354003906,-13.222000122070312 C-68.73999786376953,-18.94300079345703 -71.43099975585938,-25.966999053955078 -74.302001953125,-32.63399887084961 C-76.04499816894531,-36.680999755859375 -74.71399688720703,-40.518001556396484 -70.59600067138672,-42.75199890136719 C-67.10700225830078,-44.64400100708008 -63.54100036621094,-46.426998138427734 -59.89799880981445,-47.99800109863281 C-44.67499923706055,-54.5620002746582 -29.382999420166016,-60.96699905395508 -14.170000076293945,-67.5530014038086 C-3.0190000534057617,-72.38099670410156 -0.8740000128746033,-70.86499786376953 0.3569999933242798,-58.178001403808594 C1.3799999952316284,-47.64899826049805 1.9630000591278076,-36.882999420166016 4.701000213623047,-26.75200080871582 C12.58899974822998,2.437000036239624 28.684999465942383,26.03700065612793 54.926998138427734,42.082000732421875 C63.59600067138672,47.382999420166016 66.94499969482422,51.99800109863281 76.04399871826172,70.05699920654297z"></path></g><g opacity="1" transform="matrix(1,0,0,1,831.39599609375,1088.9029541015625)"><path fill="rgb(0,0,0)" fill-opacity="1" d=" M-36.85200119018555,53.04800033569336 C-38.23400115966797,41.04499816894531 -40.37900161743164,29.299999237060547 -40.757999420166016,17.496999740600586 C-41.31100082397461,0.2809999883174896 -40.79600143432617,-16.981000900268555 -40.35100173950195,-34.2140007019043 C-40.04399871826172,-46.11899948120117 -37.07899856567383,-49.141998291015625 -25.187999725341797,-50.9010009765625 C-16.670000076293945,-52.1619987487793 -8.130000114440918,-53.305999755859375 0.4300000071525574,-54.22999954223633 C6.4070000648498535,-54.875 10.954999923706055,-51.32699966430664 10.871999740600586,-45.12099838256836 C10.677000045776367,-30.56800079345703 9.91100025177002,-16.01799964904785 9.072999954223633,-1.4839999675750732 C8.807000160217285,3.114000082015991 7.290999889373779,7.629000186920166 6.867000102996826,12.229999542236328 C6.361999988555908,17.70599937438965 8.795000076293945,20.944000244140625 13.923999786376953,22.753000259399414 C18.809999465942383,24.476999282836914 25.218000411987305,24.863000869750977 28.242000579833984,28.256999969482422 C34.207000732421875,34.95000076293945 38.36000061035156,43.284000396728516 41.310001373291016,51.67300033569336 C39.356998443603516,53.0629997253418 38.36399841308594,54.3849983215332 37.35499954223633,54.39699935913086 C15.484999656677246,54.66899871826172 -6.38700008392334,54.849998474121094 -28.257999420166016,54.87300109863281 C-30.770000457763672,54.875999450683594 -33.28200149536133,53.8380012512207 -36.85200119018555,53.04800033569336z"></path></g></g><g opacity="1" transform="matrix(1,0,0,1,797.5980224609375,756.114013671875)"><path stroke-linecap="butt" stroke-linejoin="miter" fill-opacity="0" stroke-miterlimit="10" stroke="rgb(0,0,0)" stroke-opacity="1" stroke-width="38" d=" M68.26899719238281,0 C68.26899719238281,37.70399856567383 37.70399856567383,68.2699966430664 0,68.2699966430664 C-37.70500183105469,68.2699966430664 -68.2699966430664,37.70399856567383 -68.2699966430664,0 C-68.2699966430664,-37.70399856567383 -37.70500183105469,-68.2699966430664 0,-68.2699966430664 C37.70399856567383,-68.2699966430664 68.26899719238281,-37.70399856567383 68.26899719238281,0z"></path></g></g></g></svg>