<svg xmlns="http://www.w3.org/2000/svg" xmlns:xlink="http://www.w3.org/1999/xlink" viewBox="0 0 512 512" width="512" height="512" style="width: 100%; height: 100%; transform: translate3d(0,0,0);" preserveAspectRatio="xMidYMid meet"><defs><clipPath id="__lottie_element_52688"><rect width="512" height="512" x="0" y="0"></rect></clipPath></defs><g clip-path="url(#__lottie_element_52688)"><g style="display: block;" transform="matrix(1.9126900434494019,0,0,1.9126900434494019,-231.64865112304688,-293.6486511230469)" opacity="1"><g opacity="1" transform="matrix(1,0,0,1,263.32501220703125,288.031005859375)"><path fill="rgb(61,48,59)" fill-opacity="1" d=" M-27.325000762939453,-129.031005859375 C-75.06999969482422,-133.97000122070312 -91.83399963378906,-105.15799713134766 -95.32499694824219,-90.03099822998047 C-98.32499694824219,-77.03099822998047 -82.32499694824219,-53.03099822998047 -82.32499694824219,-53.03099822998047 C-80.32499694824219,-53.03099822998047 -89.87200164794922,-29.743000030517578 -88.32499694824219,-26.0310001373291 C-83.32499694824219,-14.031000137329102 -66.52300262451172,3.140000104904175 -53.32500076293945,10.968999862670898 C5.675000190734863,45.96900177001953 56.67499923706055,-10.031000137329102 62.67499923706055,-3.0309998989105225 C70.61900329589844,6.236999988555908 8.675000190734863,66.96900177001953 -59.32500076293945,34.96900177001953 C-77.98699951171875,26.187000274658203 -90.34100341796875,8.718999862670898 -95.43099975585938,-0.9549999833106995 C-96.64800262451172,-3.2679998874664307 -100.00399780273438,-3.125 -101.03600311279297,-0.7229999899864197 C-101.03600311279297,-0.7229999899864197 -115.32499694824219,46.96900177001953 -115.32499694824219,46.96900177001953 C-120.67500305175781,57.867000579833984 -114.32499694824219,81.96900177001953 -85.32499694824219,100.96900177001953 C-38.32500076293945,133.968994140625 12.628999710083008,117.91100311279297 20.674999237060547,102.96900177001953 C27.674999237060547,89.96900177001953 67.67500305175781,24.9689998626709 84.67500305175781,2.9690001010894775 C84.67500305175781,2.9690001010894775 113.67500305175781,-3.0309998989105225 117.67500305175781,-30.0310001373291 C120.67500305175781,-63.03099822998047 59.67499923706055,-120.03099822998047 -27.325000762939453,-129.031005859375z M88.67500305175781,-41.03099822998047 C84.98999786376953,-30.065000534057617 33.50699996948242,-39.15999984741211 3.177999973297119,-49.349998474121094 C-30.382999420166016,-60.62699890136719 -60.3120002746582,-88.68000030517578 -56.32500076293945,-98.03099822998047 C-54.07400131225586,-103.31099700927734 -42.051998138427734,-106.60900115966797 -31.325000762939453,-106.03099822998047 C-8.121999740600586,-104.77999877929688 23.10099983215332,-93.3489990234375 29.674999237060547,-90.03099822998047 C64.75199890136719,-72.3280029296875 92.01200103759766,-50.9640007019043 88.67500305175781,-41.03099822998047z"></path></g></g></g></svg>