<svg xmlns="http://www.w3.org/2000/svg" xmlns:xlink="http://www.w3.org/1999/xlink" viewBox="0 0 512 512" width="512" height="512" style="width: 100%; height: 100%; transform: translate3d(0,0,0);" preserveAspectRatio="xMidYMid meet"><defs><clipPath id="__lottie_element_694"><rect width="512" height="512" x="0" y="0"></rect></clipPath></defs><g clip-path="url(#__lottie_element_694)"><g style="display: block;" transform="matrix(1,0,0,1,256,256)" opacity="1"><g opacity="1" transform="matrix(1,0,0,1,0,0)"><path fill="rgb(0,0,0)" fill-opacity="1" d=" M-44.68299865722656,249.80999755859375 C-44.68299865722656,249.80999755859375 -40.76599884033203,238.5469970703125 -38.685001373291016,225.81500244140625 C-18.731000900268555,229.73199462890625 22.03499984741211,230.71200561523438 37.95000076293945,225.81500244140625 C38.439998626708984,237.56700134277344 44.316001892089844,249.80999755859375 44.316001892089844,249.80999755859375 C10.77299976348877,255.07400512695312 -35.13399887084961,254.95199584960938 -44.68299865722656,249.80999755859375z"></path></g><g opacity="1" transform="matrix(1,0,0,1,0,0)"><path fill="rgb(0,0,0)" fill-opacity="1" d=" M209.64300537109375,-86.56300354003906 C207.66200256347656,-204.02699279785156 130.6479949951172,-257.4700012207031 -0.0010000000474974513,-255.96800231933594 C-130.6009979248047,-257.49798583984375 -207.7100067138672,-203.9739990234375 -209.64199829101562,-86.56300354003906 C-222.0800018310547,-83.9010009765625 -230.86599731445312,-72.33100128173828 -229.697998046875,-59.34199905395508 C-229.697998046875,-59.34199905395508 -216.5070037841797,87.4010009765625 -216.5070037841797,87.4010009765625 C-215.31399536132812,100.77100372314453 -203.9429931640625,110.86199951171875 -190.75900268554688,110.6259994506836 C-177.81900024414062,172.5469970703125 -143.28500366210938,243.95799255371094 -77.97599792480469,256 C-49.15599822998047,255.5570068359375 -42.54499816894531,215.61000061035156 -70.19100189208984,206.16099548339844 C-87.2229995727539,200.7010040283203 -100.64099884033203,189.4409942626953 -111.2959976196289,174.40499877929688 C-120.51399993896484,135.1649932861328 -25.827999114990234,129.54400634765625 -33.154998779296875,68.5770034790039 C-34.487998962402344,56.78200149536133 -40.402000427246094,40.62200164794922 -61.00899887084961,30.6200008392334 C-93.4209976196289,15.128999710083008 -144.20799255371094,23.933000564575195 -147.2740020751953,-17.864999771118164 C-153.58399963378906,-68.59600067138672 -67.26799774169922,-86.51599884033203 -0.0010000000474974513,-86.66400146484375 C67.33699798583984,-86.51100158691406 153.5399932861328,-68.60299682617188 147.2760009765625,-17.86400032043457 C144.14100646972656,23.98200035095215 93.50499725341797,15.090999603271484 61.007999420166016,30.6200008392334 C40.4010009765625,40.62300109863281 34.48699951171875,56.78099822998047 33.15299987792969,68.5770034790039 C25.871999740600586,129.63800048828125 120.39299774169922,135.00599670410156 111.2959976196289,174.4040069580078 C100.64099884033203,189.44000244140625 87.2229995727539,200.7010040283203 70.19000244140625,206.16099548339844 C42.54600143432617,215.61099243164062 49.154998779296875,255.56100463867188 77.97599792480469,255.99899291992188 C143.302001953125,243.93699645996094 177.7989959716797,172.5760040283203 190.75900268554688,110.6259994506836 C203.9429931640625,110.86100006103516 215.31500244140625,100.77100372314453 216.50799560546875,87.4010009765625 C216.50799560546875,87.4010009765625 229.697998046875,-59.34199905395508 229.697998046875,-59.34199905395508 C230.86500549316406,-72.33100128173828 222.0800018310547,-83.9010009765625 209.64300537109375,-86.56300354003906z M-16.08099937438965,-215.98399353027344 C5.191999912261963,-216.54200744628906 26.48699951171875,-215.9929962158203 47.71799850463867,-214.33599853515625 C45.94900131225586,-208.16299438476562 44.20199966430664,-201.96600341796875 42.439998626708984,-195.7740020751953 C21.19700050354004,-197.24200439453125 -0.10199999809265137,-197.60800170898438 -21.37299919128418,-196.8699951171875 C-19.610000610351562,-203.24899291992188 -17.858999252319336,-209.625 -16.08099937438965,-215.98399353027344z M-71.35800170898438,-125.76699829101562 C-84.04499816894531,-124.28099822998047 -96.69599914550781,-122.39700317382812 -109.29399871826172,-120.11499786376953 C-127.21499633789062,-116.74299621582031 -124.49400329589844,-130.5050048828125 -123.77400207519531,-133.3679962158203 C-117.35299682617188,-158.09100341796875 -110.90899658203125,-182.71499633789062 -104.45999908447266,-207.2310028076172 C-104.50900268554688,-207.22300720214844 -104.55899810791016,-207.21499633789062 -104.60800170898438,-207.20700073242188 C-94.81500244140625,-208.9029998779297 -84.99299621582031,-210.35800170898438 -75.14700317382812,-211.57400512695312 C-81.01399993896484,-189.74600219726562 -86.84100341796875,-167.8260040283203 -92.68499755859375,-145.8249969482422 C-93.09600067138672,-144.2729949951172 -92.5530014038086,-142.00100708007812 -89.03900146484375,-142.42999267578125 C-87.50900268554688,-142.61399841308594 -85.97699737548828,-142.8679962158203 -84.44400024414062,-143.06900024414062 C-79.17900085449219,-143.7519989013672 -78.0469970703125,-144.79600524902344 -77.41500091552734,-147.16000366210938 C-71.47599792480469,-169.28900146484375 -65.55699920654297,-191.33799743652344 -59.595001220703125,-213.29299926757812 C-49.7859992980957,-214.25100708007812 -39.959999084472656,-214.9720001220703 -30.125,-215.4550018310547 C-36.5369987487793,-192.25399780273438 -50.18600082397461,-142.11399841308594 -50.91400146484375,-139.53900146484375 C-51.96200180053711,-135.822998046875 -53.77000045776367,-127.73300170898438 -71.35800170898438,-125.76699829101562z M33.499000549316406,-164.25 C22.073999404907227,-164.86900329589844 10.63700008392334,-165.1790008544922 -0.800000011920929,-165.16200256347656 C-4.077000141143799,-153.41400146484375 -7.3460001945495605,-141.64100646972656 -10.623000144958496,-129.84300231933594 C-10.555999755859375,-129.843994140625 -10.48900032043457,-129.843994140625 -10.42199993133545,-129.84500122070312 C-20.336000442504883,-129.677001953125 -30.246000289916992,-129.26800537109375 -40.14500045776367,-128.6179962158203 C-35.10100173950195,-147.02099609375 -30.076000213623047,-165.3699951171875 -25.035999298095703,-183.64999389648438 C-3.765000104904175,-184.5229949951172 17.540000915527344,-184.27999877929688 38.79199981689453,-182.93299865722656 C37.02899932861328,-176.7100067138672 35.263999938964844,-170.48699951171875 33.499000549316406,-164.25z M119.18900299072266,-185.5500030517578 C108.86199951171875,-187.59500122070312 98.49400329589844,-189.3730010986328 88.0979995727539,-190.8820037841797 C84.35099792480469,-191.4219970703125 82.35900115966797,-191.3470001220703 81.48999786376953,-188.3280029296875 C77.69300079345703,-175.1230010986328 73.88700103759766,-161.8820037841797 70.08599853515625,-148.60400390625 C69.84200286865234,-147.74899291992188 69.97000122070312,-144.91700744628906 74.2969970703125,-144.39500427246094 C85.6449966430664,-143.0050048828125 96.96499633789062,-141.3070068359375 108.24199676513672,-139.281005859375 C106.50199890136719,-133.27099609375 104.75599670410156,-127.24600219726562 103.01000213623047,-121.21900177001953 C87.01499938964844,-123.94400024414062 70.94000244140625,-126.03099822998047 54.82099914550781,-127.47799682617188 C44.22200012207031,-128.4199981689453 37.459999084472656,-135.06399536132812 39.768001556396484,-143.21600341796875 C45.24100112915039,-162.51199340820312 50.7130012512207,-181.73699951171875 56.180999755859375,-200.88699340820312 C57.165000915527344,-204.28900146484375 58.85900115966797,-213.5229949951172 76.4280014038086,-211.41400146484375 C92.4749984741211,-209.3979949951172 108.46299743652344,-206.7449951171875 124.35299682617188,-203.45399475097656 C123.66600036621094,-200.73300170898438 120.14199829101562,-188.83299255371094 119.18900299072266,-185.5500030517578z"></path></g></g></g></svg>