<svg xmlns="http://www.w3.org/2000/svg" xmlns:xlink="http://www.w3.org/1999/xlink" viewBox="0 0 512 512" width="512" height="512" style="width: 100%; height: 100%; transform: translate3d(0,0,0);" preserveAspectRatio="xMidYMid meet"><defs><clipPath id="__lottie_element_53614"><rect width="512" height="512" x="0" y="0"></rect></clipPath></defs><g clip-path="url(#__lottie_element_53614)"><g style="display: block;" transform="matrix(1,0,0,1,-1751.300048828125,-4.920013427734375)" opacity="1"><g opacity="1" transform="matrix(1,0,0,1,1998.4329833984375,283.7279968261719)"><path fill="rgb(0,0,0)" fill-opacity="1" d=" M96.04000091552734,0 C96.04000091552734,-52.957000732421875 52.957000732421875,-96.04100036621094 0,-96.04100036621094 C-52.957000732421875,-96.04100036621094 -96.04000091552734,-52.957000732421875 -96.04000091552734,0 C-96.04000091552734,52.957000732421875 -52.957000732421875,96.04100036621094 0,96.04100036621094 C52.957000732421875,96.04100036621094 96.04000091552734,52.957000732421875 96.04000091552734,0z M48.970001220703125,15 C40.68600082397461,15 33.970001220703125,8.284000396728516 33.970001220703125,0 C33.970001220703125,-18.731000900268555 18.731000900268555,-33.970001220703125 0,-33.970001220703125 C-8.284000396728516,-33.970001220703125 -15,-40.68600082397461 -15,-48.970001220703125 C-15,-57.25400161743164 -8.284000396728516,-63.970001220703125 0,-63.970001220703125 C35.27299880981445,-63.970001220703125 63.970001220703125,-35.27299880981445 63.970001220703125,0 C63.970001220703125,8.284000396728516 57.25400161743164,15 48.970001220703125,15z"></path></g><g opacity="1" transform="matrix(1,0,0,1,1878.875,175.9429931640625)"><path fill="rgb(0,0,0)" fill-opacity="1" d=" M94.02799987792969,-9.491999626159668 C98.0459976196289,-10.364999771118164 100.97799682617188,-13.817999839782715 101.14600372314453,-17.926000595092773 C101.16699981689453,-18.445999145507812 101.18800354003906,-18.968000411987305 101.20700073242188,-19.493000030517578 C102.40699768066406,-53.34299850463867 97.53700256347656,-77.90299987792969 86.72699737548828,-92.48300170898438 C79.87699890136719,-101.7229995727539 70.51699829101562,-107.29299926757812 59.637001037597656,-108.58300018310547 C36.74700164794922,-111.31300354003906 17.30699920654297,-99.38300323486328 4.9070000648498535,-74.99299621582031 C1.6369999647140503,-68.5530014038086 -0.7429999709129333,-62.03300094604492 -2.433000087738037,-56.472999572753906 C-16.773000717163086,-58.08300018310547 -37.67300033569336,-57.37300109863281 -50.94300079345703,-43.28300094604492 C-61.893001556396484,-31.64299964904785 -64.62300109863281,-14.532999992370605 -59.12300109863281,7.706999778747559 C-71.81300354003906,14.946999549865723 -90.61299896240234,28.35700035095215 -98.11299896240234,47.41699981689453 C-102.8030014038086,59.31700134277344 -102.44300079345703,71.93699645996094 -97.08300018310547,83.88700103759766 C-89.59300231933594,100.5770034790039 -72.11299896240234,108.96700286865234 -44.952999114990234,108.96700286865234 C-37.26300048828125,108.96700286865234 -28.792999267578125,108.2969970703125 -19.562999725341797,106.9469985961914 C-15.35099983215332,106.33300018310547 -11.199999809265137,105.61000061035156 -7.188000202178955,104.8270034790039 C-3.259000062942505,104.06099700927734 -0.31700000166893005,100.78700256347656 0.04600000008940697,96.8010025024414 C4.822000026702881,44.305999755859375 43.54499816894531,1.4730000495910645 94.02799987792969,-9.491999626159668z"></path></g><g opacity="1" transform="matrix(1,0,0,1,2113.720947265625,391.9049987792969)"><path fill="rgb(0,0,0)" fill-opacity="1" d=" M20.530000686645508,-106.67500305175781 C17.548999786376953,-106.2699966430664 14.597999572753906,-105.81400299072266 11.704000473022461,-105.32099914550781 C7.668000221252441,-104.63300323486328 4.5980000495910645,-101.32599639892578 4.229000091552734,-97.24800109863281 C-0.6579999923706055,-43.215999603271484 -41.516998291015625,0.5789999961853027 -94.14199829101562,9.958000183105469 C-98.27999877929688,10.694999694824219 -101.38700103759766,14.170999526977539 -101.58599853515625,18.368999481201172 C-101.58699798583984,18.393999099731445 -101.58799743652344,18.420000076293945 -101.58899688720703,18.44499969482422 C-103.16899871826172,52.275001525878906 -98.55999755859375,76.88500213623047 -87.91000366210938,91.58499908447266 C-81.16000366210938,100.8949966430664 -71.86000061035156,106.56500244140625 -61,107.9749984741211 C-58.65999984741211,108.28500366210938 -56.36899948120117,108.43499755859375 -54.10900115966797,108.43499755859375 C-34.20899963378906,108.43499755859375 -17.280000686645508,96.76499938964844 -5.909999847412109,74.98500061035156 C-2.569999933242798,68.58499908447266 -0.11999999731779099,62.084999084472656 1.6299999952316284,56.53499984741211 C15.960000038146973,58.30500030517578 36.86000061035156,57.82500076293945 50.279998779296875,43.875 C61.36000061035156,32.35499954223633 64.27999877929688,15.274999618530273 59.02000045776367,-7.014999866485596 C71.79000091552734,-14.114999771118164 90.7300033569336,-27.325000762939453 98.44000244140625,-46.30500030517578 C103.25,-58.154998779296875 103.02999877929688,-70.7750015258789 97.80000305175781,-82.78500366210938 C88.43000030517578,-104.29499816894531 62.43000030517578,-112.34500122070312 20.530000686645508,-106.67500305175781z"></path></g><g opacity="1" transform="matrix(1,0,0,1,2134.287109375,63.15399932861328)"><path fill="rgb(0,0,0)" fill-opacity="1" d=" M-46.95600128173828,40.077999114990234 C-45.433998107910156,41.12099838256836 -43.64400100708008,41.65399932861328 -41.845001220703125,41.65399932861328 C-40.54499816894531,41.65399932861328 -39.2400016784668,41.375999450683594 -38.029998779296875,40.81100082397461 C-38.029998779296875,40.81100082397461 45.676998138427734,1.6720000505447388 45.676998138427734,1.6720000505447388 C45.676998138427734,1.6720000505447388 45.676998138427734,1.6720000505447388 45.678001403808594,1.6720000505447388 C48.529998779296875,0.33799999952316284 50.50299835205078,-2.437999963760376 50.827999114990234,-5.571000099182129 C51.15399932861328,-8.70300006866455 49.792999267578125,-11.822999954223633 47.27799987792969,-13.713000297546387 C29.85700035095215,-26.809999465942383 -2.2720000743865967,-47.645999908447266 -21.70400047302246,-40.02199935913086 C-31.010000228881836,-36.375 -47.16999816894531,-22.165000915527344 -50.85499954223633,32.027000427246094 C-51.07099914550781,35.19599914550781 -49.57699966430664,38.28099822998047 -46.95600128173828,40.077999114990234z"></path></g><g opacity="1" transform="matrix(1,0,0,1,2161.118896484375,133.86599731445312)"><path fill="rgb(0,0,0)" fill-opacity="1" d=" M58.49800109863281,-49.380001068115234 C55.87200164794922,-52.44499969482422 51.483001708984375,-53.39500045776367 47.821998596191406,-51.683998107910156 C47.821998596191406,-51.683998107910156 -70.78600311279297,3.7799999713897705 -70.78600311279297,3.7799999713897705 C-74.40599822998047,5.468999862670898 -76.5009994506836,9.407999992370605 -75.88400268554688,13.35099983215332 C-72.9229965209961,32.3489990234375 -67.875,43.939998626708984 -60.45199966430664,48.78300094604492 C-56.625999450683594,51.28200149536133 -51.44300079345703,52.52899932861328 -44.93299865722656,52.52899932861328 C-34.4379997253418,52.52899932861328 -20.493999481201172,49.2859992980957 -3.2269999980926514,42.8120002746582 C24.160999298095703,32.54399871826172 69.70899963378906,8.814000129699707 75.34200286865234,-11.154000282287598 C78.00399780273438,-20.579999923706055 72.49299621582031,-33.08599853515625 58.49800109863281,-49.380001068115234z"></path></g></g></g></svg>