<svg xmlns="http://www.w3.org/2000/svg" xmlns:xlink="http://www.w3.org/1999/xlink" viewBox="0 0 512 512" width="512" height="512" style="width: 100%; height: 100%; transform: translate3d(0,0,0);" preserveAspectRatio="xMidYMid meet"><defs><clipPath id="__lottie_element_51920"><rect width="512" height="512" x="0" y="0"></rect></clipPath></defs><g clip-path="url(#__lottie_element_51920)"><g style="display: block;" transform="matrix(1,0,0,1,-1628.0069580078125,-2480.760009765625)" opacity="1"><g opacity="1" transform="matrix(1,0,0,1,1881.5889892578125,2733.903076171875)"><path fill="rgb(0,0,0)" fill-opacity="1" d=" M-165.8489990234375,-125.13400268554688 C-166.08599853515625,-128.0659942626953 -168.17999267578125,-130.85699462890625 -170.2550048828125,-133.0290069580078 C-174.45799255371094,-137.52099609375 -178.5500030517578,-141.8780059814453 -182.6179962158203,-146.49400329589844 C-192.64300537109375,-156.4320068359375 -236.99200439453125,-216.88099670410156 -218.88499450683594,-224.88499450683594 C-215.9530029296875,-226.1929931640625 -212.1540069580078,-225.625 -209.06500244140625,-224.56199645996094 C-204.86900329589844,-223.14199829101562 -200.8000030517578,-221.1510009765625 -196.71800231933594,-219.3070068359375 C-172.30999755859375,-208.9759979248047 -153.5449981689453,-190.40199279785156 -133.0070037841797,-174.22900390625 C-127.11000061035156,-169.16000366210938 -121.3479995727539,-166.5 -114.05699920654297,-170.80499267578125 C-96.2239990234375,-181.5019989013672 -76.84700012207031,-189.31900024414062 -56.237998962402344,-192.77999877929688 C-32.51499938964844,-195.6999969482422 -18.815000534057617,-204.13299560546875 -10.598999977111816,-227.02000427246094 C-7.980000019073486,-233.61399841308594 -5.28000020980835,-243.8459930419922 2.6530001163482666,-244.58700561523438 C10.65999984741211,-244.30099487304688 12.510000228881836,-231.7899932861328 15.491000175476074,-225.79200744628906 C24.233999252319336,-203.45399475097656 33.808998107910156,-196.42100524902344 57.2400016784668,-192.88499450683594 C68.40799713134766,-190.6959991455078 79.45099639892578,-187.81300354003906 89.9540023803711,-183.41400146484375 C98.8280029296875,-179.6929931640625 107.01899719238281,-175.2740020751953 115.63400268554688,-170.8820037841797 C125.19100189208984,-165.44700622558594 130.4739990234375,-171.9010009765625 137.4219970703125,-177.6060028076172 C158.78599548339844,-195.76699829101562 181.0590057373047,-212.98300170898438 207.31300354003906,-223.46400451660156 C210.34800720214844,-224.67599487304688 213.62600708007812,-225.7449951171875 216.85400390625,-225.7550048828125 C223.05299377441406,-225.96400451660156 228.42799377441406,-220.95899963378906 228.01100158691406,-214.66000366210938 C227.7480010986328,-209.13499450683594 224.86099243164062,-203.99099731445312 222.63900756835938,-199.00399780273438 C211.552001953125,-175.83900451660156 196.81700134277344,-154.23800659179688 178.11399841308594,-136.51600646972656 C174.78900146484375,-133.1020050048828 169.7050018310547,-129.75100708007812 169.0449981689453,-124.77200317382812 C168.66799926757812,-122.14099884033203 169.6790008544922,-119.31700134277344 171.20899963378906,-116.5260009765625 C173.41400146484375,-112.45500183105469 175.76199340820312,-108.43800354003906 177.9429931640625,-104.25800323486328 C184.0850067138672,-92.52200317382812 188.677001953125,-80.04000091552734 191.41099548339844,-67.08300018310547 C196.53900146484375,-38.88100051879883 195.6280059814453,-24.781999588012695 225.7169952392578,-13.121000289916992 C231.91000366210938,-9.970999717712402 243.2169952392578,-7.468999862670898 244.98399353027344,-0.35899999737739563 C245.84500122070312,4.290999889373779 241.2790069580078,7.614999771118164 237.072998046875,9.583000183105469 C231.7239990234375,12.038000106811523 226.25,14.223999977111816 220.9250030517578,16.743000030517578 C204.927001953125,23.79199981689453 198.531005859375,31.510000228881836 195.718994140625,48.617000579833984 C191.15499877929688,71.45999908447266 183.99899291992188,93.31500244140625 171.65499877929688,113.5479965209961 C168.43600463867188,118.13300323486328 166.9980010986328,123.51200103759766 170.55099487304688,128.15199279785156 C191.3459930419922,153.87600708007812 213.76600646972656,179.3560028076172 223.83700561523438,211.58200073242188 C226.5229949951172,218.68899536132812 223.0070037841797,227.12600708007812 214.46600341796875,226.78700256347656 C208.802001953125,226.32899475097656 203.74899291992188,223.15199279785156 198.55999755859375,220.8260040283203 C174.17599487304688,209.33799743652344 153.03399658203125,192.5500030517578 133.88400268554688,173.7779998779297 C131.60000610351562,171.5449981689453 128.72500610351562,169.22999572753906 125.61199951171875,168.84800720214844 C122.39299774169922,168.39500427246094 119.36499786376953,169.7530059814453 116.20899963378906,171.5070037841797 C108.27100372314453,176.03500366210938 100.10600280761719,180.59100341796875 91.55000305175781,183.91700744628906 C81.75800323486328,187.86300659179688 71.52200317382812,190.61700439453125 61.09299850463867,192.29299926757812 C51.87300109863281,193.98199462890625 41.50299835205078,194.7729949951172 33.08399963378906,198.5489959716797 C7.77400016784668,209.51800537109375 17.339000701904297,238.71800231933594 2.450000047683716,243.60699462890625 C-5.6529998779296875,244.58700561523438 -7.451000213623047,231.80599975585938 -10.246999740600586,226.20399475097656 C-12.581000328063965,220.59500122070312 -15.079999923706055,214.86000061035156 -18.608999252319336,209.87100219726562 C-24.947999954223633,200.41700744628906 -35.41600036621094,195.9759979248047 -46.55400085449219,194.23699951171875 C-54.95800018310547,192.72300720214844 -63.56800079345703,191.89700317382812 -71.81700134277344,189.81700134277344 C-82.50199890136719,187.2220001220703 -92.77899932861328,183.26600646972656 -102.56800079345703,178.25900268554688 C-106.92900085449219,176.08399963378906 -111.12699890136719,173.49200439453125 -115.4219970703125,171.1510009765625 C-120.46299743652344,168.26600646972656 -125.91799926757812,168.08700561523438 -130.43499755859375,171.74400329589844 C-134.33399963378906,174.78199768066406 -137.5240020751953,178.56900024414062 -141.197998046875,181.9340057373047 C-158.21499633789062,197.70599365234375 -176.89199829101562,211.25900268554688 -197.95599365234375,221.1219940185547 C-205.86000061035156,224.94000244140625 -221.9530029296875,232.1529998779297 -222.95799255371094,218.0449981689453 C-220.77499389648438,194.9739990234375 -196.60699462890625,163.5919952392578 -181.8699951171875,145.83900451660156 C-177.86099243164062,140.9340057373047 -173.7169952392578,136.07200622558594 -169.80099487304688,131.0659942626953 C-166.0780029296875,126.48100280761719 -165.95700073242188,121.21399688720703 -168.97900390625,116.02999877929688 C-177.7050018310547,101.11900329589844 -185.072998046875,85.27899932861328 -189.1719970703125,68.41600036621094 C-192.7729949951172,56.03099822998047 -193.10800170898438,41.75299835205078 -200.46400451660156,30.90399932861328 C-208.60899353027344,19.22800064086914 -223.3209991455078,15.54699993133545 -235.48300170898438,9.583999633789062 C-243.7689971923828,5.8480000495910645 -245.8459930419922,-1.996999979019165 -237.18600463867188,-7.118000030517578 C-234.10899353027344,-8.9350004196167 -230.46299743652344,-10.109999656677246 -226.95199584960938,-11.48799991607666 C-208.9720001220703,-17.832000732421875 -196.34800720214844,-30.636999130249023 -192.36500549316406,-50.55699920654297 C-191.281005859375,-55.60900115966797 -190.68699645996094,-60.909000396728516 -189.81199645996094,-65.94499969482422 C-187.38400268554688,-80.0199966430664 -181.9980010986328,-93.34200286865234 -174.89700317382812,-105.93299865722656 C-172.65499877929688,-109.91600036621094 -170.38800048828125,-113.5260009765625 -168.156005859375,-117.22100067138672 C-166.62100219726562,-119.77200317382812 -165.57699584960938,-122.37799835205078 -165.83299255371094,-124.96499633789062 C-165.83299255371094,-124.96499633789062 -165.8489990234375,-125.13400268554688 -165.8489990234375,-125.13400268554688z M96.77200317382812,16.33099937438965 C99.24099731445312,18.739999771118164 100.05899810791016,22.20199966430664 100.94999694824219,25.472000122070312 C102.52899932861328,30.976999282836914 103.70800018310547,37.00199890136719 107.3280029296875,41.49300003051758 C111.12899780273438,46.534000396728516 118.31400299072266,48.481998443603516 122.37699890136719,42.4109992980957 C128.0279998779297,34.80799865722656 126.20600128173828,23.48900032043457 132.39599609375,16.19300079345703 C136.40199279785156,11.585000038146973 142.5330047607422,10.916999816894531 148.8489990234375,9.947999954223633 C153.2969970703125,9.241000175476074 157.5189971923828,8.201000213623047 161.38299560546875,6.302000045776367 C164.17100524902344,4.926000118255615 167.1529998779297,2.5369999408721924 167.21200561523438,-0.7699999809265137 C166.71499633789062,-12.361000061035156 138.2740020751953,-10.928000450134277 132.4949951171875,-20.305999755859375 C127.61000061035156,-27.868000030517578 128.28399658203125,-37.90299987792969 123.26300048828125,-45.45000076293945 C120.10299682617188,-50.91299819946289 112.77400207519531,-52.9739990234375 108.3499984741211,-48.1349983215332 C103.677001953125,-42.91699981689453 102.96499633789062,-34.805999755859375 100.98999786376953,-28.197999954223633 C100.06400299072266,-24.527000427246094 99.3479995727539,-20.85700035095215 96.84200286865234,-18.382999420166016 C94.28099822998047,-15.791000366210938 90.50299835205078,-15.267999649047852 87.05799865722656,-14.64799976348877 C81.89399719238281,-13.657999992370605 76.73899841308594,-12.741999626159668 71.73200225830078,-11.03499984741211 C61.16999816894531,-7.3520002365112305 61.766998291015625,1.6019999980926514 71.177001953125,6.202000141143799 C77.10199737548828,9.373000144958496 83.4219970703125,11.331000328063965 89.8280029296875,12.89900016784668 C92.28199768066406,13.532999992370605 94.8280029296875,14.444999694824219 96.64600372314453,16.208999633789062 C96.64600372314453,16.208999633789062 96.77200317382812,16.33099937438965 96.77200317382812,16.33099937438965z M-95.61699676513672,-18.166000366210938 C-97.75299835205078,-20.12700080871582 -98.65899658203125,-23.08799934387207 -99.2490005493164,-25.875999450683594 C-100.76100158691406,-32.268001556396484 -101.59500122070312,-38.87699890136719 -104.54199981689453,-44.85900115966797 C-109.09400177001953,-54.65299987792969 -119.75800323486328,-51.832000732421875 -123.572998046875,-42.91400146484375 C-126.41999816894531,-37.2400016784668 -126.65399932861328,-30.30299949645996 -128.87399291992188,-24.381999969482422 C-133.875,-10.70199966430664 -152.2480010986328,-14.298999786376953 -161.87399291992188,-6.909999847412109 C-168.5290069580078,-2.0139999389648438 -165.77699279785156,4.224999904632568 -158.88900756835938,6.9120001792907715 C-152.4199981689453,9.862000465393066 -145.2209930419922,10.267999649047852 -138.3280029296875,11.755000114440918 C-125.94400024414062,14.208999633789062 -127.50599670410156,29.493000030517578 -122.9469985961914,38.400001525878906 C-121.21700286865234,42.236000061035156 -117.93099975585938,46.14799880981445 -113.44200134277344,46.268001556396484 C-110.375,46.3849983215332 -107.54000091552734,44.4010009765625 -105.63300323486328,41.573001861572266 C-100.302001953125,34.23699951171875 -101.4000015258789,23.75200080871582 -95.23400115966797,16.915000915527344 C-92.16400146484375,13.543999671936035 -87.5999984741211,11.928999900817871 -83.06600189208984,10.552000045776367 C-77.12200164794922,8.479000091552734 -70.53500366210938,7.296999931335449 -65.59100341796875,3.260999917984009 C-58.03499984741211,-4.35699987411499 -65.66999816894531,-10.232999801635742 -73.56800079345703,-12.095000267028809 C-78.72899627685547,-13.498000144958496 -83.0199966430664,-14.097999572753906 -87.9530029296875,-14.968000411987305 C-90.625,-15.430999755859375 -93.45999908447266,-16.18899917602539 -95.48400115966797,-18.042999267578125 C-95.48400115966797,-18.042999267578125 -95.61699676513672,-18.166000366210938 -95.61699676513672,-18.166000366210938z M-15.734000205993652,138.11599731445312 C-13.968000411987305,139.96600341796875 -13.092000007629395,142.5449981689453 -12.5600004196167,145.04100036621094 C-11.340999603271484,151.0679931640625 -10.243000030517578,156.6820068359375 -8.135000228881836,162.38299560546875 C-6.376999855041504,168.218994140625 -0.5649999976158142,177.06900024414062 5.4070000648498535,169.89700317382812 C10.293999671936035,162.58900451660156 12.161999702453613,153.5780029296875 14.067999839782715,145.07699584960938 C14.355999946594238,143.74099731445312 14.710000038146973,142.35800170898438 15.234000205993652,141.1320037841797 C17.06599998474121,136.1790008544922 22.476999282836914,134.79600524902344 27.131000518798828,133.75399780273438 C33.12799835205078,132.20199584960938 38.99100112915039,130.91900634765625 44.06800079345703,127.56600189208984 C47.915000915527344,125.21299743652344 51.79899978637695,120.08999633789062 48.69900131225586,115.73899841308594 C43.95800018310547,109.6729965209961 30.040000915527344,107.6709976196289 22.715999603271484,105.23999786376953 C17.84000015258789,103.94499969482422 15.043000221252441,99.61299896240234 14.095000267028809,94.88899993896484 C12.998000144958496,90.552001953125 11.63700008392334,86.25299835205078 10.11299991607666,81.8949966430664 C7.10699987411499,71.3479995727539 -1.1670000553131104,65.26300048828125 -7.052000045776367,77.9530029296875 C-8.642999649047852,81.5790023803711 -9.755000114440918,85.39700317382812 -10.70199966430664,89.35800170898438 C-12.135000228881836,95.60399627685547 -13.6850004196167,101.5510025024414 -19.20199966430664,104.39900207519531 C-25.687000274658203,107.75499725341797 -33.45199966430664,107.87200164794922 -40.13199996948242,110.72799682617188 C-49.361000061035156,114.2490005493164 -50.92499923706055,122.46099853515625 -42.435001373291016,127.85800170898438 C-36.154998779296875,131.61000061035156 -29.165000915527344,132.5070037841797 -22.062000274658203,134.61000061035156 C-19.791000366210938,135.27099609375 -17.4950008392334,136.2760009765625 -15.861000061035156,137.98300170898438 C-15.861000061035156,137.98300170898438 -15.734000205993652,138.11599731445312 -15.734000205993652,138.11599731445312z M50.02199935913086,-117.64800262451172 C49.78200149536133,-125.5770034790039 40.32899856567383,-127.69100189208984 33.87799835205078,-129.968994140625 C27.834999084472656,-131.93899536132812 20.152000427246094,-133.27200317382812 16.48699951171875,-138.36700439453125 C10.729999542236328,-144.73500061035156 10.442999839782715,-176.7480010986328 -2.6670000553131104,-169.45899963378906 C-4.877999782562256,-167.83799743652344 -6.150000095367432,-165.16900634765625 -7.107999801635742,-162.63600158691406 C-8.682999610900879,-158.30099487304688 -9.881999969482422,-153.90499877929688 -10.947999954223633,-149.36500549316406 C-12.156000137329102,-144.21200561523438 -13.541999816894531,-138.88999938964844 -17.378999710083008,-135.9550018310547 C-25.895999908447266,-129.156005859375 -46.444000244140625,-132.11700439453125 -48.124000549316406,-118.5719985961914 C-48.0099983215332,-112.35299682617188 -40.25600051879883,-108.94000244140625 -34.84299850463867,-107.43800354003906 C-27.951000213623047,-105.53399658203125 -19.31800079345703,-105.63800048828125 -15.16100025177002,-98.9000015258789 C-12.489999771118164,-94.8010025024414 -11.994999885559082,-88.7490005493164 -10.494000434875488,-83.59300231933594 C-9.402000427246094,-79.8010025024414 -7.763999938964844,-75.97699737548828 -5.067999839782715,-73.072998046875 C-1.1690000295639038,-68.5510025024414 4.6539998054504395,-69.12999725341797 7.6519999504089355,-74.6449966430664 C10.390000343322754,-79.35099792480469 11.756999969482422,-84.73999786376953 13.210000038146973,-89.99299621582031 C14.204999923706055,-93.57099914550781 15.16100025177002,-97.26599884033203 17.516000747680664,-100.18399810791016 C21.216999053955078,-104.90799713134766 28.913000106811523,-105.7249984741211 34.86600112915039,-107.37000274658203 C40.582000732421875,-109.19599914550781 49.03799819946289,-110.68599700927734 50.012001037597656,-117.48300170898438 C50.012001037597656,-117.48300170898438 50.02199935913086,-117.64800262451172 50.02199935913086,-117.64800262451172z"></path></g></g></g></svg>