<svg xmlns="http://www.w3.org/2000/svg" xmlns:xlink="http://www.w3.org/1999/xlink" viewBox="0 0 512 512" width="512" height="512" style="width: 100%; height: 100%; transform: translate3d(0,0,0);" preserveAspectRatio="xMidYMid meet"><defs><clipPath id="__lottie_element_51345"><rect width="512" height="512" x="0" y="0"></rect></clipPath></defs><g clip-path="url(#__lottie_element_51345)"><g style="display: block;" transform="matrix(1,0,0,1,0,0)" opacity="1"><g opacity="1" transform="matrix(1,0,0,1,266.8800048828125,293.40899658203125)"><path fill="rgb(0,0,0)" fill-opacity="1" d=" M-205.64500427246094,208.93499755859375 C-207.36099243164062,200.91299438476562 -197.0070037841797,184.6269989013672 -190.2530059814453,181.56199645996094 C-182.53799438476562,178.06199645996094 -162.26300048828125,184.12600708007812 -159.8820037841797,176.83700561523438 C-157.76400756835938,170.3509979248047 -159.1490020751953,132.10699462890625 -159.48599243164062,122.22799682617188 C-160.052001953125,105.58899688720703 -163.05599975585938,86.41899871826172 -163.9499969482422,69.67900085449219 C-164.7480010986328,54.750999450683594 -161.39500427246094,38.790000915527344 -167.24600219726562,24.753999710083008 C-171.36900329589844,27.535999298095703 -174.53700256347656,48.58000183105469 -181.57899475097656,43.44900131225586 C-211.38499450683594,-1.8029999732971191 -241.2310028076172,-48.893001556396484 -245.1199951171875,-104.62799835205078 C-240.53500366210938,-109.47899627685547 -206.30099487304688,-86.4800033569336 -200.531005859375,-82.33200073242188 C-185.44900512695312,-71.49199676513672 -166.65899658203125,-60.474998474121094 -152.98399353027344,-47.952999114990234 C-146.00900268554688,-56.380001068115234 -138.6300048828125,-63.47800064086914 -127.36499786376953,-71.33200073242188 C-117.93599700927734,-77.90499877929688 -67.60099792480469,-104.83399963378906 -59.08000183105469,-99.85600280761719 C-56.316001892089844,-94.76200103759766 -52.6870002746582,-89.1729965209961 -48.827999114990234,-84.86699676513672 C10.737000465393066,-18.388999938964844 103.7969970703125,25.072999954223633 105.92900085449219,128.98599243164062 C106.23799896240234,144.03199768066406 96.80899810791016,157.7729949951172 92.72100067138672,170.60400390625 C91.65499877929688,173.947998046875 92.68000030517578,174.06500244140625 95.61199951171875,173.52000427246094 C117.96700286865234,169.36700439453125 136.98599243164062,164.72999572753906 151.86700439453125,146.39100646972656 C173.21200561523438,120.08699798583984 168.2530059814453,81.95999908447266 152.2899932861328,53.972999572753906 C116.11799621582031,-9.446999549865723 16.402000427246094,-42.54399871826172 65.95700073242188,-136.83299255371094 C93.08599853515625,-188.45199584960938 185.35000610351562,-214.83299255371094 211.13400268554688,-148.49400329589844 C157.3979949951172,-175.06399536132812 127.67900085449219,-123.0479965209961 154.5019989013672,-77.61000061035156 C179.12399291992188,-35.9010009765625 219.58299255371094,-17.014999389648438 236.281005859375,35.79899978637695 C256.885009765625,100.96499633789062 211.70199584960938,179.72900390625 149.68800354003906,203.41799926757812 C119.80500030517578,214.83299255371094 63.25899887084961,208.87899780273438 30.263999938964844,208.8419952392578 C-14.02400016784668,208.79299926757812 -58.38399887084961,209.92100524902344 -102.63099670410156,207.91600036621094 C-108.3550033569336,204.4040069580078 -96.04299926757812,183.54600524902344 -89.52200317382812,181.38600158691406 C-76.33599853515625,177.02000427246094 -20.882999420166016,186.04200744628906 -16.985000610351562,182.61300659179688 C-15.288999557495117,169.0989990234375 -34.25899887084961,166.83700561523438 -44.358001708984375,158.44700622558594 C-94.5790023803711,116.7229995727539 -58.527000427246094,31.722000122070312 13.692999839782715,58.75600051879883 C21.277000427246094,61.595001220703125 29.802000045776367,69.81400299072266 37.86899948120117,67.48100280761719 C-0.640999972820282,13.515000343322754 -81.61599731445312,46.933998107910156 -87.19999694824219,108.06800079345703 C-101.65499877929688,105.9209976196289 -106.26200103759766,90.27200317382812 -115.68499755859375,81.75599670410156 C-115.68499755859375,81.75599670410156 -137.64199829101562,208.93499755859375 -137.64199829101562,208.93499755859375 C-137.64199829101562,208.93499755859375 -205.64500427246094,208.93499755859375 -205.64500427246094,208.93499755859375z"></path></g><g opacity="1" transform="matrix(1,0,0,1,113.552001953125,112.46499633789062)"><path fill="rgb(0,0,0)" fill-opacity="1" d=" M75.28299713134766,-10.807999610900879 C73.375,-20.079999923706055 80.13800048828125,-27.985000610351562 81.31199645996094,-36.79499816894531 C83.91699981689453,-56.35100173950195 80.23300170898438,-84.50399780273438 69.4280014038086,-101.25700378417969 C69.4280014038086,-101.25700378417969 30.090999603271484,-48.38600158691406 30.090999603271484,-48.38600158691406 C25.989999771118164,-48.74599838256836 20.75200080871582,-48.71099853515625 14.678000450134277,-48.78200149536133 C-0.32499998807907104,-48.957000732421875 -15.430999755859375,-48.959999084472656 -30.326000213623047,-47.50299835205078 C-30.326000213623047,-47.50299835205078 -75.35099792480469,-96.87000274658203 -75.35099792480469,-96.87000274658203 C-78.73400115966797,-96.89199829101562 -82.802001953125,-71.73100280761719 -83.11100006103516,-67.39099884033203 C-85.39900207519531,-35.316001892089844 -72.24700164794922,-26.84000015258789 -89.2020034790039,5.459000110626221 C-93.74500274658203,14.11400032043457 -108.48899841308594,30.17099952697754 -110.66100311279297,36.75600051879883 C-111.43399810791016,39.0989990234375 -112.23899841308594,41.189998626708984 -110.58200073242188,43.46200180053711 C-73.91200256347656,57.37200164794922 -47.86899948120117,76.5989990234375 -12.987000465393066,94.66100311279297 C-3.01200008392334,99.82599639892578 1.4989999532699585,101.25800323486328 10.994999885559082,95.43299865722656 C51.04600143432617,70.86799621582031 109.99700164794922,48.86000061035156 109.99700164794922,48.86000061035156 C109.99700164794922,48.86000061035156 112.23899841308594,44.617000579833984 112.23899841308594,44.617000579833984 C107.79399871826172,28.750999450683594 78.19200134277344,3.3239998817443848 75.28299713134766,-10.807999610900879z M-20.00200080871582,23.395999908447266 C-24.62299919128418,27.3799991607666 -54.46900177001953,11.404000282287598 -54.46900177001953,5.050000190734863 C-54.58100128173828,1.1419999599456787 -30.280000686645508,-3.2330000400543213 -24.354999542236328,2.3299999237060547 C-19.61400032043457,6.78000020980835 -15.201000213623047,19.256999969482422 -20.00200080871582,23.395999908447266z M14.74899959564209,68.4749984741211 C2.4600000381469727,83.15399932861328 0.34299999475479126,83.78700256347656 -12.781000137329102,68.62699890136719 C-15.923999786376953,63.94300079345703 19.31399917602539,63.308998107910156 14.74899959564209,68.4749984741211z M15.564000129699707,23.395999908447266 C10.762999534606934,19.256999969482422 15.175999641418457,6.78000020980835 19.91699981689453,2.3299999237060547 C25.841999053955078,-3.2330000400543213 50.14500045776367,1.1419999599456787 50.03300094604492,5.050000190734863 C50.03300094604492,11.404000282287598 20.184999465942383,27.3799991607666 15.564000129699707,23.395999908447266z"></path></g></g></g></svg>