<svg xmlns="http://www.w3.org/2000/svg" xmlns:xlink="http://www.w3.org/1999/xlink" viewBox="0 0 512 512" width="512" height="512" style="width: 100%; height: 100%; transform: translate3d(0,0,0);" preserveAspectRatio="xMidYMid meet"><defs><clipPath id="__lottie_element_53349"><rect width="512" height="512" x="0" y="0"></rect></clipPath></defs><g clip-path="url(#__lottie_element_53349)"><g style="display: block;" transform="matrix(0.949999988079071,0,0,0.949999988079071,12.800003051757812,12.800003051757812)" opacity="1"><g opacity="1" transform="matrix(1,0,0,1,265.52301025390625,215.78500366210938)"><path stroke-linecap="butt" stroke-linejoin="miter" fill-opacity="0" stroke-miterlimit="4" stroke="rgb(0,0,0)" stroke-opacity="1" stroke-width="26" d=" M34.82500076293945,-158.87399291992188 C126.65799713134766,-60.67300033569336 126.59300231933594,95.46099853515625 32.266998291015625,192.33399963378906 C30.729999542236328,193.91299438476562 27.649999618530273,197.26199340820312 25.492000579833984,197.2530059814453 C23.731000900268555,197.24600219726562 0.7630000114440918,181.26699829101562 -1.4910000562667847,178.84500122070312 C-6.540999889373779,173.4199981689453 3.6029999256134033,168.8800048828125 7.984000205993652,164.00799560546875 C90.76000213623047,71.94300079345703 85.16999816894531,-69.14700317382812 -9.545000076293945,-149.89999389648438 C-57.63100051879883,-111.3949966430664 -84.74099731445312,-49.82899856567383 -86.37899780273438,11.659000396728516 C-86.37899780273438,11.659000396728516 -123.51300048828125,25.093000411987305 -123.51300048828125,25.093000411987305 C-126.65799713134766,-63.55099868774414 -83.302001953125,-147.44900512695312 -10.71500015258789,-197.26199340820312 C6.533999919891357,-186.9199981689453 21.22599983215332,-173.41600036621094 34.82500076293945,-158.87399291992188z"></path><path fill="rgb(0,0,0)" fill-opacity="1" d=" M34.82500076293945,-158.87399291992188 C126.65799713134766,-60.67300033569336 126.59300231933594,95.46099853515625 32.266998291015625,192.33399963378906 C30.729999542236328,193.91299438476562 27.649999618530273,197.26199340820312 25.492000579833984,197.2530059814453 C23.731000900268555,197.24600219726562 0.7630000114440918,181.26699829101562 -1.4910000562667847,178.84500122070312 C-6.540999889373779,173.4199981689453 3.6029999256134033,168.8800048828125 7.984000205993652,164.00799560546875 C90.76000213623047,71.94300079345703 85.16999816894531,-69.14700317382812 -9.545000076293945,-149.89999389648438 C-57.63100051879883,-111.3949966430664 -84.74099731445312,-49.82899856567383 -86.37899780273438,11.659000396728516 C-86.37899780273438,11.659000396728516 -123.51300048828125,25.093000411987305 -123.51300048828125,25.093000411987305 C-126.65799713134766,-63.55099868774414 -83.302001953125,-147.44900512695312 -10.71500015258789,-197.26199340820312 C6.533999919891357,-186.9199981689453 21.22599983215332,-173.41600036621094 34.82500076293945,-158.87399291992188z"></path></g><g opacity="1" transform="matrix(1,0,0,1,162.28500366210938,354.61199951171875)"><path stroke-linecap="butt" stroke-linejoin="miter" fill-opacity="0" stroke-miterlimit="4" stroke="rgb(0,0,0)" stroke-opacity="1" stroke-width="26" d=" M161.5970001220703,-121.6500015258789 C162.28500366210938,-109.05000305175781 161.7790069580078,-96.39099884033203 159.05999755859375,-84.06500244140625 C148.33299255371094,-86.82599639892578 136.82899475097656,-90.39700317382812 125.87899780273438,-92.00399780273438 C90.677001953125,-97.16899871826172 51.86199951171875,-93.2249984741211 18.469999313354492,-81.05400085449219 C-51.61399841308594,-55.50899887084961 -107.55500030517578,8.35200023651123 -120.1709976196289,82.34700012207031 C-62.02000045776367,102.35900115966797 1.534000039100647,96.2490005493164 55.979000091552734,68.38400268554688 C55.979000091552734,68.38400268554688 84.93800354003906,90.54499816894531 84.93800354003906,90.54499816894531 C86.90599822998047,92.13200378417969 86.06600189208984,91.8499984741211 84.93800354003906,93.28099822998047 C82.53900146484375,96.32499694824219 65.54000091552734,104.82599639892578 60.91699981689453,107.03299713134766 C-7.604000091552734,139.74600219726562 -92.63999938964844,139.843994140625 -160.47500610351562,105.23300170898438 C-163.63299560546875,100.88300323486328 -153.9340057373047,59.72800064086914 -151.76199340820312,52.1349983215332 C-133.0290069580078,-13.32699966430664 -85.58100128173828,-70.55699920654297 -25.47100067138672,-102.06999969482422 C31.316999435424805,-131.83999633789062 99.7750015258789,-139.843994140625 161.5970001220703,-121.6500015258789z"></path><path fill="rgb(0,0,0)" fill-opacity="1" d=" M161.5970001220703,-121.6500015258789 C162.28500366210938,-109.05000305175781 161.7790069580078,-96.39099884033203 159.05999755859375,-84.06500244140625 C148.33299255371094,-86.82599639892578 136.82899475097656,-90.39700317382812 125.87899780273438,-92.00399780273438 C90.677001953125,-97.16899871826172 51.86199951171875,-93.2249984741211 18.469999313354492,-81.05400085449219 C-51.61399841308594,-55.50899887084961 -107.55500030517578,8.35200023651123 -120.1709976196289,82.34700012207031 C-62.02000045776367,102.35900115966797 1.534000039100647,96.2490005493164 55.979000091552734,68.38400268554688 C55.979000091552734,68.38400268554688 84.93800354003906,90.54499816894531 84.93800354003906,90.54499816894531 C86.90599822998047,92.13200378417969 86.06600189208984,91.8499984741211 84.93800354003906,93.28099822998047 C82.53900146484375,96.32499694824219 65.54000091552734,104.82599639892578 60.91699981689453,107.03299713134766 C-7.604000091552734,139.74600219726562 -92.63999938964844,139.843994140625 -160.47500610351562,105.23300170898438 C-163.63299560546875,100.88300323486328 -153.9340057373047,59.72800064086914 -151.76199340820312,52.1349983215332 C-133.0290069580078,-13.32699966430664 -85.58100128173828,-70.55699920654297 -25.47100067138672,-102.06999969482422 C31.316999435424805,-131.83999633789062 99.7750015258789,-139.843994140625 161.5970001220703,-121.6500015258789z"></path></g><g opacity="1" transform="matrix(1,0,0,1,330.7909851074219,383.114990234375)"><path fill="rgb(0,0,0)" fill-opacity="1" d=" M-127.31700134277344,13.404000282287598 C-151.49200439453125,-14.71399974822998 -171.52200317382812,-51.0629997253418 -179.20899963378906,-87.39299774169922 C-178.4429931640625,-89.84100341796875 -147.4080047607422,-104.33200073242188 -145.67300415039062,-103.10800170898438 C-128.46800231933594,-27.854000091552734 -70.05000305175781,34.858001708984375 4.059000015258789,56.66400146484375 C47.64099884033203,69.48699951171875 96.19400024414062,68.98699951171875 138.87399291992188,53.20399856567383 C127.15299987792969,-6.613999843597412 89.82599639892578,-58.89799880981445 38.36899948120117,-91.01399993896484 C38.36899948120117,-91.01399993896484 43.53900146484375,-125.06400299072266 43.53900146484375,-125.06400299072266 C43.53900146484375,-125.06400299072266 46.505001068115234,-128.77000427246094 46.505001068115234,-128.77000427246094 C121.79900360107422,-88.63600158691406 174.00100708007812,-8.812999725341797 179.20899963378906,76.70700073242188 C74.54299926757812,128.77000427246094 -51.637001037597656,101.427001953125 -127.31700134277344,13.404000282287598z"></path><path stroke-linecap="butt" stroke-linejoin="miter" fill-opacity="0" stroke-miterlimit="4" stroke="rgb(0,0,0)" stroke-opacity="1" stroke-width="26" d=" M-127.31700134277344,13.404000282287598 C-151.49200439453125,-14.71399974822998 -171.52200317382812,-51.0629997253418 -179.20899963378906,-87.39299774169922 C-178.4429931640625,-89.84100341796875 -147.4080047607422,-104.33200073242188 -145.67300415039062,-103.10800170898438 C-128.46800231933594,-27.854000091552734 -70.05000305175781,34.858001708984375 4.059000015258789,56.66400146484375 C47.64099884033203,69.48699951171875 96.19400024414062,68.98699951171875 138.87399291992188,53.20399856567383 C127.15299987792969,-6.613999843597412 89.82599639892578,-58.89799880981445 38.36899948120117,-91.01399993896484 C38.36899948120117,-91.01399993896484 43.53900146484375,-125.06400299072266 43.53900146484375,-125.06400299072266 C43.53900146484375,-125.06400299072266 46.505001068115234,-128.77000427246094 46.505001068115234,-128.77000427246094 C121.79900360107422,-88.63600158691406 174.00100708007812,-8.812999725341797 179.20899963378906,76.70700073242188 C74.54299926757812,128.77000427246094 -51.637001037597656,101.427001953125 -127.31700134277344,13.404000282287598z"></path></g></g></g></svg>