<svg xmlns="http://www.w3.org/2000/svg" xmlns:xlink="http://www.w3.org/1999/xlink" viewBox="0 0 512 512" width="512" height="512" style="width: 100%; height: 100%; transform: translate3d(0,0,0);" preserveAspectRatio="xMidYMid meet"><defs><clipPath id="__lottie_element_51895"><rect width="512" height="512" x="0" y="0"></rect></clipPath></defs><g clip-path="url(#__lottie_element_51895)"><g style="display: block;" transform="matrix(1,0,0,1,255.79800415039062,257.322998046875)" opacity="1"><g opacity="1" transform="matrix(1,0,0,1,0,0)"><path fill="rgb(0,0,0)" fill-opacity="1" d=" M207.53500366210938,-91.36900329589844 C193.9080047607422,-90.11900329589844 185.38600158691406,-81.63800048828125 180.9980010986328,-67.30000305175781 C185.93099975585938,-51.858001708984375 184.38499450683594,-32.696998596191406 172.04800415039062,-26.22800064086914 C146.92300415039062,-13.053000450134277 121.54900360107422,-64.85099792480469 149.55499267578125,-85.04000091552734 C163.8090057373047,-95.31500244140625 175.88499450683594,-83.30599975585938 180.9980010986328,-67.30000305175781 C180.9980010986328,-67.30000305175781 207.53500366210938,-91.36900329589844 207.53500366210938,-91.36900329589844 C193.00599670410156,-135.77200317382812 165.72999572753906,-174.39599609375 128.22900390625,-200.79299926757812 C115.47899627685547,-199.18699645996094 107.20700073242188,-193.3260040283203 102.6719970703125,-183.91600036621094 C110.78299713134766,-178.38299560546875 118.15799713134766,-171.53900146484375 124.15399932861328,-163.31199645996094 C153.29800415039062,-123.32499694824219 133.10400390625,-83.70800018310547 99.3290023803711,-127.31800079345703 C65.55400085449219,-170.92799377441406 -11.840999603271484,-169.2169952392578 10.626999855041504,-189.94000244140625 C28.88800048828125,-206.78199768066406 71.36000061035156,-205.27499389648438 102.6719970703125,-183.91600036621094 C102.6719970703125,-183.91600036621094 128.22900390625,-200.79299926757812 128.22900390625,-200.79299926757812 C114.75900268554688,-210.2740020751953 99.97699737548828,-218.1840057373047 83.98899841308594,-224.21200561523438 C26.386999130249023,-245.92799377441406 -35.5890007019043,-239.06100463867188 -88.58399963378906,-210.4810028076172 C-88.99700164794922,-210.26499938964844 -89.39900207519531,-210.03700256347656 -89.80799865722656,-209.81700134277344 C-90.95099639892578,-209.19200134277344 -92.08799743652344,-208.5540008544922 -93.2229995727539,-207.9080047607422 C-176.4600067138672,-159.4290008544922 -175.82400512695312,-22.753000259399414 -113.34600067138672,20.072999954223633 C-49.59400177001953,63.77199935913086 32.84199905395508,8.817000389099121 5.901000022888184,-46.08000183105469 C-1.3639999628067017,-61.93600082397461 13.135000228881836,-75.56300354003906 25.110000610351562,-64.92900085449219 C37.084999084472656,-54.29499816894531 90.99099731445312,14.897000312805176 43.11399841308594,87.26699829101562 C-4.763000011444092,159.63699340820312 -139.9250030517578,153.17599487304688 -192.66700744628906,44.99100112915039 C-203.51699829101562,20.80900001525879 -220.7480010986328,20.6299991607666 -219.447998046875,39.43199920654297 C-211.4320068359375,122.33399963378906 -162.2270050048828,195.1199951171875 -85.07099914550781,224.20899963378906 C27.110000610351562,266.50299072265625 155.89700317382812,200.406005859375 202.58200073242188,76.5780029296875 C224.08999633789062,19.530000686645508 224.4040069580078,-39.8120002746582 207.53500366210938,-91.36900329589844z"></path></g></g></g></svg>