<svg xmlns="http://www.w3.org/2000/svg" xmlns:xlink="http://www.w3.org/1999/xlink" viewBox="0 0 512 512" width="512" height="512" style="width: 100%; height: 100%; transform: translate3d(0,0,0);" preserveAspectRatio="xMidYMid meet"><defs><clipPath id="__lottie_element_52288"><rect width="512" height="512" x="0" y="0"></rect></clipPath></defs><g clip-path="url(#__lottie_element_52288)"><g style="display: block;" transform="matrix(1,0,0,1,256.1210021972656,259.6099853515625)" opacity="1"><g opacity="1" transform="matrix(1,0,0,1,0,0)"><path fill="rgb(0,0,0)" fill-opacity="1" d=" M-10.206000328063965,93.78800201416016 C-10.206000328063965,93.78800201416016 -134.94700622558594,123.9530029296875 -170.06900024414062,0.37400001287460327 C-196.0709991455078,-91.11399841308594 -175.656005859375,-203.81100463867188 -131.54800415039062,-219.19700622558594 C-90.13800048828125,-233.64199829101562 -46.80099868774414,-200.89999389648438 -46.80099868774414,-200.89999389648438 C-46.80099868774414,-200.89999389648438 -13.095000267028809,-229.79100036621094 26.388999938964844,-204.7519989013672 C26.388999938964844,-204.7519989013672 46.612998962402344,-234.6060028076172 88.02300262451172,-235.56900024414062 C129.43299865722656,-236.53199768066406 178.54800415039062,-162.37899780273438 181.43699645996094,-75.70600128173828 C184.22799682617188,8.024999618530273 135.78900146484375,71.98300170898438 83.875,89.25199890136719 C82.55599975585938,89.69100189208984 81.53700256347656,88.05799865722656 82.52799987792969,87.08300018310547 C93.42900085449219,76.35199737548828 122.27899932861328,43.347999572753906 124.61799621582031,-7.330999851226807 C126.73799896240234,-53.257999420166016 105.01100158691406,-90.89099884033203 76.93299865722656,-115.28399658203125 C70.12899780273438,-121.19499969482422 60.209999084472656,-113.05500030517578 64.64199829101562,-105.20700073242188 C81.08799743652344,-76.08699798583984 100.30000305175781,-31.94300079345703 90.91200256347656,3.263000011444092 C75.1989974975586,62.1870002746582 36.983001708984375,78.37899780273438 36.983001708984375,78.37899780273438 C36.983001708984375,78.37899780273438 55.279998779296875,125.56700134277344 48.53900146484375,175.64500427246094 C41.05500030517578,231.24000549316406 21.573999404907227,239.2050018310547 9.055000305175781,234.38999938964844 C-7.14900016784668,228.1580047607422 3.244999885559082,203.7550048828125 7.129000186920166,181.42300415039062 C14.833000183105469,137.12399291992188 -10.206000328063965,93.78800201416016 -10.206000328063965,93.78800201416016z"></path></g><g opacity="1" transform="matrix(1,0,0,1,-100.81099700927734,174.802001953125)"><path fill="rgb(0,0,0)" fill-opacity="1" d=" M73.27100372314453,39.36399841308594 C63.10499954223633,67.8280029296875 -87.55500030517578,27.808000564575195 -75.9990005493164,-24.195999145507812 C-64.44300079345703,-76.19999694824219 102.16200256347656,-41.53099822998047 73.27100372314453,39.36399841308594z"></path></g></g></g></svg>