<svg xmlns="http://www.w3.org/2000/svg" xmlns:xlink="http://www.w3.org/1999/xlink" viewBox="0 0 512 512" width="512" height="512" style="width: 100%; height: 100%; transform: translate3d(0,0,0);" preserveAspectRatio="xMidYMid meet"><defs><clipPath id="__lottie_element_15866"><rect width="512" height="512" x="0" y="0"></rect></clipPath></defs><g clip-path="url(#__lottie_element_15866)"><g style="display: block;" transform="matrix(1,0,0,1,28.553009033203125,18.2139892578125)" opacity="1"><g opacity="1" transform="matrix(1,0,0,1,230.08999633789062,247.01800537109375)"><path fill="rgb(0,0,0)" fill-opacity="1" d=" M-87.1989974975586,-20.270000457763672 C-77.5780029296875,-30.82200050354004 -134.8070068359375,-52.92499923706055 -99.1989974975586,-129.76499938964844 C-70.69999694824219,-191.26199340820312 -5.468999862670898,-171.76300048828125 19.29599952697754,-206.26100158691406 C33.35300064086914,-225.843994140625 35.0620002746582,-246.75799560546875 43.29499816894531,-246.75900268554688 C97.29199981689453,-246.76800537109375 66.125,-187.88400268554688 76.29399871826172,-176.26300048828125 C86.79399871826172,-164.26300048828125 122.79100036621094,-204.76100158691406 190.28700256347656,-180.76199340820312 C202.99600219726562,-176.24400329589844 186.4510040283203,-134.35899353027344 160.2899932861328,-123.76499938964844 C144.35299682617188,-117.31199645996094 96.16200256347656,-132.27699279785156 43.29499816894531,-123.76499938964844 C-17.81999969482422,-113.9260025024414 -63.077999114990234,-65.66400146484375 -53.70000076293945,-52.76900100708008 C-41.70100021362305,-36.27000045776367 -12.524999618530273,-95.06999969482422 74.79399871826172,-93.76699829101562 C175.28900146484375,-92.26699829101562 229.84100341796875,-60.125 217.2779998779297,-43.30699920654297 C193.28799438476562,-11.192999839782715 178.64999389648438,-38.154998779296875 160.2899932861328,-32.27000045776367 C136.3699951171875,-24.60300064086914 117.48999786376953,52.14799880981445 44.79499816894531,60.22600173950195 C-63.20000076293945,72.2249984741211 -48.67399978637695,15.411999702453613 -69.19999694824219,21.72800064086914 C-88.6989974975586,27.72800064086914 -114.197998046875,104.2239990234375 -81.1989974975586,137.2220001220703 C-68.88099670410156,149.54100036621094 -67.68800354003906,91.13600158691406 -12.20199966430664,92.2239990234375 C64.29499816894531,93.7239990234375 77.48500061035156,185.64300537109375 68.79399871826172,192.718994140625 C62.52299880981445,197.822998046875 34.685001373291016,154.32000732421875 -9.20199966430664,156.7209930419922 C-27.61199951171875,157.72799682617188 -49.849998474121094,166.86700439453125 -52.70000076293945,180.72000122070312 C-56.779998779296875,200.5449981689453 -6.992000102996826,211.2429962158203 -23.20199966430664,225.21800231933594 C-48.20100021362305,246.7689971923828 -103.8949966430664,187.44700622558594 -116.697998046875,171.2209930419922 C-125.88300323486328,159.57699584960938 -162.69500732421875,167.7209930419922 -183.69400024414062,115.2229995727539 C-205.5240020751953,60.64799880981445 -154.0919952392578,2.486999988555908 -182.19400024414062,-45.76900100708008 C-197.1199951171875,-71.39900207519531 -229.83999633789062,-73.50800323486328 -228.1909942626953,-78.76799774169922 C-226.4029998779297,-84.47100067138672 -185.47500610351562,-86.78600311279297 -160.69500732421875,-65.26799774169922 C-116.65299987792969,-27.02199935913086 -149.97000122070312,60.63999938964844 -133.69700622558594,65.22599792480469 C-121.96600341796875,68.53099822998047 -133.69700622558594,30.72800064086914 -87.1989974975586,-20.270000457763672z"></path></g></g></g></svg>