<svg xmlns="http://www.w3.org/2000/svg" xmlns:xlink="http://www.w3.org/1999/xlink" viewBox="0 0 512 512" width="512" height="512" style="width: 100%; height: 100%; transform: translate3d(0,0,0);" preserveAspectRatio="xMidYMid meet"><defs><clipPath id="__lottie_element_51810"><rect width="512" height="512" x="0" y="0"></rect></clipPath></defs><g clip-path="url(#__lottie_element_51810)"><g style="display: block;" transform="matrix(1,0,0,1,2.35400390625,22.75)" opacity="1"><g opacity="1" transform="matrix(1,0,0,1,221.2209930419922,203.9219970703125)"><path fill="rgb(0,0,0)" fill-opacity="1" d=" M-144.5749969482422,203.3280029296875 C-156.5749969482422,203.67100524902344 -208.5749969482422,163.3280029296875 -214.5749969482422,98.3280029296875 C-220.9709930419922,29.038000106811523 -150.27200317382812,-92.28600311279297 -105.57499694824219,-127.6719970703125 C-9.574999809265137,-203.6719970703125 108.73500061035156,-196.61500549316406 106.42500305175781,-183.6719970703125 C104.46199798583984,-172.6719970703125 62.53300094604492,-178.23800659179688 52.42499923706055,-158.6719970703125 C45.70899963378906,-145.6719970703125 75.51300048828125,-162.03599548339844 107.42500305175781,-160.6719970703125 C129.63099670410156,-159.72300720214844 175.61399841308594,-151.3179931640625 177.4250030517578,-138.6719970703125 C179.9199981689453,-121.24400329589844 120.42500305175781,-127.6719970703125 101.42500305175781,-96.6719970703125 C95.06800079345703,-86.29900360107422 130.1929931640625,-103.7020034790039 165.4250030517578,-109.6719970703125 C183.33599853515625,-112.70700073242188 219.9459991455078,-117.47599792480469 220.4250030517578,-101.6719970703125 C220.9709930419922,-83.6719970703125 174.95799255371094,-43.57400131225586 71.42500305175781,-2.671999931335449 C-9.574999809265137,29.327999114990234 -102.77300262451172,96.4469985961914 -114.57499694824219,117.3280029296875 C-140.5749969482422,163.3280029296875 -128.9949951171875,202.88299560546875 -144.5749969482422,203.3280029296875z"></path></g><g opacity="1" transform="matrix(1,0,0,1,324.25201416015625,301.89898681640625)"><path fill="rgb(0,0,0)" fill-opacity="1" d=" M-9.605999946594238,-80.64900207519531 C-5.26200008392334,-95.85199737548828 20.527000427246094,-94.89399719238281 52.39400100708008,-122.64900207519531 C83.39399719238281,-149.6490020751953 78.39399719238281,-171.6490020751953 91.39399719238281,-171.6490020751953 C102.39399719238281,-171.6490020751953 176.3939971923828,-68.69200134277344 176.3939971923828,-10.64900016784668 C176.3939971923828,17.35099983215332 158.06100463867188,26.802000045776367 152.3939971923828,38.35100173950195 C148.05499267578125,47.194000244140625 160.3939971923828,63.35100173950195 135.3939971923828,94.35099792480469 C98.27200317382812,140.3820037841797 0.08699999749660492,148.70899963378906 -47.60599899291992,149.3509979248047 C-69.72899627685547,149.6490020751953 -146.6060028076172,149.35899353027344 -171.6060028076172,124.35099792480469 C-176.3939971923828,119.56099700927734 -172.32200622558594,104.16200256347656 -158.6060028076172,106.35099792480469 C-134.58999633789062,110.18499755859375 -98.09500122070312,112.94400024414062 -45.60599899291992,110.35099792480469 C5.959000110626221,107.8030014038086 80.80999755859375,92.27400207519531 79.39399719238281,66.35099792480469 C75.39399719238281,-6.866000175476074 -13.605999946594238,-66.64900207519531 -9.605999946594238,-80.64900207519531z"></path></g><g opacity="1" transform="matrix(1,0,0,1,265.0740051269531,266.31298828125)"><path fill="rgb(0,0,0)" fill-opacity="1" d=" M-69.1510009765625,21.72599983215332 C-63.65599822998047,26.21299934387207 -25.940000534057617,22.368999481201172 5.679999828338623,21.405000686645508 C35.76599884033203,20.48699951171875 57.571998596191406,27.101999282836914 68.5719985961914,22.937999725341797 C77.8290023803711,19.433000564575195 30.57200050354004,-30.214000701904297 6.572000026702881,-30.062999725341797 C-13.651000022888184,-29.934999465942383 -82.8290023803711,10.553999900817871 -69.1510009765625,21.72599983215332z"></path></g></g></g></svg>