<svg xmlns="http://www.w3.org/2000/svg" xmlns:xlink="http://www.w3.org/1999/xlink" viewBox="0 0 512 512" width="512" height="512" style="width: 100%; height: 100%; transform: translate3d(0,0,0);" preserveAspectRatio="xMidYMid meet"><defs><clipPath id="__lottie_element_52886"><rect width="512" height="512" x="0" y="0"></rect></clipPath></defs><g clip-path="url(#__lottie_element_52886)"><g style="display: block;" transform="matrix(1,0,0,1,0,-2)" opacity="1"><g opacity="1" transform="matrix(1,0,0,1,253.5489959716797,270.68798828125)"><path fill="rgb(0,0,0)" fill-opacity="1" d=" M240.947998046875,-157.2949981689453 C241.8280029296875,-205.33099365234375 171.64100646972656,-194.11000061035156 171.64100646972656,-194.11000061035156 C171.64100646972656,-194.11000061035156 178.90699768066406,-262.10198974609375 125.46199798583984,-256.7489929199219 C72.01899719238281,-251.39599609375 106.83899688720703,-172.93699645996094 106.83899688720703,-172.93699645996094 C106.83899688720703,-172.93699645996094 54.00899887084961,-113.73500061035156 54.00899887084961,-113.73500061035156 C54.00899887084961,-113.73500061035156 51.481998443603516,-132.75999450683594 47.35300064086914,-128.5229949951172 C11.574000358581543,-91.8010025024414 -168.95599365234375,-107.55899810791016 -222.5959930419922,16.632999420166016 C-287.0780029296875,165.927001953125 -89.46700286865234,301.7430114746094 26.13599967956543,179.68899536132812 C82.13500213623047,120.56500244140625 88.20099639892578,30.65399932861328 108.64900207519531,-36.983001708984375 C108.64900207519531,-36.983001708984375 121.87300109863281,-58.22100067138672 117.22200012207031,-56.46900177001953 C67.33499908447266,-37.67399978637695 52.88100051879883,-67.74800109863281 52.88100051879883,-67.74800109863281 C52.88100051879883,-67.74800109863281 61.20500183105469,-56.51100158691406 94.37000274658203,-66.16000366210938 C104.26200103759766,-69.03800201416016 154.56500244140625,-132.44500732421875 154.56500244140625,-132.44500732421875 C154.56500244140625,-132.44500732421875 240.0679931640625,-109.25900268554688 240.947998046875,-157.2949981689453z M-156.1750030517578,9.335000038146973 C-164.87399291992188,26.749000549316406 -177.41799926757812,71.20700073242188 -193.8560028076172,54.13600158691406 C-209.98899841308594,37.38199996948242 -175.197998046875,-29.966999053955078 -122.68000030517578,-31.920000076293945 C-106.74199676513672,-32.51300048828125 -141.68600463867188,-19.66900062561035 -156.1750030517578,9.335000038146973z"></path></g></g></g></svg>