<svg xmlns="http://www.w3.org/2000/svg" xmlns:xlink="http://www.w3.org/1999/xlink" viewBox="0 0 512 512" width="512" height="512" style="width: 100%; height: 100%; transform: translate3d(0,0,0);" preserveAspectRatio="xMidYMid meet"><defs><clipPath id="__lottie_element_52721"><rect width="512" height="512" x="0" y="0"></rect></clipPath></defs><g clip-path="url(#__lottie_element_52721)"><g style="display: block;" transform="matrix(1,0,0,1,256,256)" opacity="1"><g opacity="1" transform="matrix(1,0,0,1,0,0)"><path fill="rgb(0,0,0)" fill-opacity="1" d=" M211.28599548339844,-101.26200103759766 C179.86199951171875,-111.8550033569336 158.75999450683594,-98.00299835205078 145.9510040283203,-82.9020004272461 C145.947998046875,-82.85900115966797 145.9409942626953,-82.81700134277344 145.93800354003906,-82.77400207519531 C109.86100006103516,-117.88999938964844 102.01599884033203,-127.46499633789062 80.6259994506836,-138.50599670410156 C97.24099731445312,-151.406005859375 116.45899963378906,-175.15199279785156 103.85199737548828,-211.35800170898438 C93.8949966430664,-239.9550018310547 50.196998596191406,-247.19700622558594 22.11400032043457,-236.43899536132812 C-3.4260001182556152,-226.656005859375 46.270999908447266,-188.15499877929688 34.1619987487793,-152.80999755859375 C7.5929999351501465,-156.23699951171875 -19.868999481201172,-152.5229949951172 -44.935001373291016,-143.0760040283203 C-65.9749984741211,-173.72000122070312 -100.03199768066406,-197.77200317382812 -135.2729949951172,-203.6999969482422 C-187.16600036621094,-212.4290008544922 -221.96299743652344,-178.55799865722656 -212.9949951171875,-128.04800415039062 C-206.80999755859375,-93.21399688720703 -181.4250030517578,-59.56700134277344 -149.24400329589844,-39.17100143432617 C-158.28900146484375,-14.6850004196167 -161.35800170898438,11.430000305175781 -157.39300537109375,36.766998291015625 C-191.94400024414062,45.46799850463867 -228.68899536132812,-0.9760000109672546 -238.21400451660156,23.888999938964844 C-248.9720001220703,51.97200012207031 -241.72999572753906,95.66999816894531 -213.13299560546875,105.62699890136719 C-177.48699951171875,118.03800201416016 -153.91799926757812,99.60199737548828 -140.88600158691406,83.1729965209961 C-130.16099548339844,101.29000091552734 -122.84600067138672,106.81999969482422 -82.89099884033203,145.71200561523438 C-97.27300262451172,158.64700317382812 -109.66600036621094,179.3159942626953 -99.48699951171875,209.51100158691406 C-89.88700103759766,237.98800659179688 -45.51100158691406,246.96600341796875 -16.700000762939453,237.6179962158203 C2.9560000896453857,231.24099731445312 -20.211000442504883,207.19400024414062 -27.525999069213867,181.16000366210938 C21.339000701904297,197.468994140625 76.12699890136719,186.1300048828125 117.91300201416016,157.06399536132812 C149.5399932861328,177.01199340820312 183.61000061035156,182.52499389648438 217.072998046875,165.4969940185547 C227.04100036621094,160.39599609375 223.61900329589844,145.2790069580078 212.4010009765625,145.03500366210938 C189.66700744628906,144.5399932861328 174.38699340820312,137.4250030517578 161.1739959716797,114.70800018310547 C194.19500732421875,69.1729965209961 200.78900146484375,14.690999984741211 184.2429962158203,-28.923999786376953 C209.77099609375,-21.22599983215332 233.1219940185547,0.8519999980926514 239.39300537109375,-18.475000381469727 C248.74099731445312,-47.2859992980957 239.76300048828125,-91.66200256347656 211.28599548339844,-101.26200103759766z M149.85499572753906,70.64299774169922 C149.81100463867188,70.74099731445312 149.76800537109375,70.83899688720703 149.7239990234375,70.93699645996094 C146.01600646972656,79.21900177001953 136.21200561523438,82.80599975585938 128.10299682617188,78.73300170898438 C128.10299682617188,78.73300170898438 100.42400360107422,64.83200073242188 100.42400360107422,64.83200073242188 C94.35700225830078,61.78499984741211 87.02300262451172,62.944000244140625 82.19000244140625,67.71199798583984 C82.19000244140625,67.71199798583984 60.91999816894531,88.697998046875 60.91999816894531,88.697998046875 C56.494998931884766,93.06400299072266 55.03300094604492,99.61499786376953 57.18199920654297,105.447998046875 C57.18199920654297,105.447998046875 66.51200103759766,130.7729949951172 66.51200103759766,130.7729949951172 C69.71499633789062,139.4669952392578 64.7959976196289,149.01300048828125 55.87699890136719,151.52200317382812 C55.77399826049805,151.55099487304688 55.66999816894531,151.5800018310547 55.56700134277344,151.60899353027344 C47.630001068115234,153.82200622558594 39.323001861572266,149.54200744628906 36.474998474121094,141.80999755859375 C36.474998474121094,141.80999755859375 26.150999069213867,113.78700256347656 26.150999069213867,113.78700256347656 C24.266000747680664,108.66899871826172 19.881000518798828,104.88200378417969 14.543000221252441,103.76100158691406 C14.543000221252441,103.76100158691406 -29.975000381469727,94.41500091552734 -29.975000381469727,94.41500091552734 C-35.45000076293945,93.26599884033203 -41.125999450683594,95.08899688720703 -44.90599822998047,99.21299743652344 C-44.90599822998047,99.21299743652344 -52.680999755859375,107.69599914550781 -52.680999755859375,107.69599914550781 C-58.71799850463867,114.28099822998047 -69.00299835205078,114.5739974975586 -75.40499877929688,108.34300231933594 C-75.40499877929688,108.34300231933594 -75.63500213623047,108.11900329589844 -75.63500213623047,108.11900329589844 C-81.77100372314453,102.14600372314453 -82.05000305175781,92.37699890136719 -76.26300048828125,86.06500244140625 C-76.26300048828125,86.06500244140625 -70.62999725341797,79.91999816894531 -70.62999725341797,79.91999816894531 C-66.2959976196289,75.19200134277344 -65.24199676513672,68.31900024414062 -67.95800018310547,62.50899887084961 C-67.95800018310547,62.50899887084961 -82.45600128173828,31.496999740600586 -82.45600128173828,31.496999740600586 C-84.31999969482422,27.509000778198242 -87.75900268554688,24.47800064086914 -91.9489974975586,23.128999710083008 C-91.9489974975586,23.128999710083008 -115.10700225830078,15.670999526977539 -115.10700225830078,15.670999526977539 C-122.37100219726562,13.331000328063965 -127.01200103759766,6.133999824523926 -125.96399688720703,-1.4259999990463257 C-125.93299865722656,-1.6490000486373901 -125.9010009765625,-1.8730000257492065 -125.86900329589844,-2.0959999561309814 C-124.4749984741211,-11.760000228881836 -114.64099884033203,-17.797000885009766 -105.34700012207031,-14.803999900817871 C-105.34700012207031,-14.803999900817871 -87.21499633789062,-8.96500015258789 -87.21499633789062,-8.96500015258789 C-81.62100219726562,-7.164000034332275 -75.48999786376953,-8.607000350952148 -71.28700256347656,-12.71500015258789 C-71.28700256347656,-12.71500015258789 -17.27899932861328,-65.50599670410156 -17.27899932861328,-65.50599670410156 C-13.369000434875488,-69.3280029296875 -11.706000328063965,-74.89600372314453 -12.880999565124512,-80.23600006103516 C-12.880999565124512,-80.23600006103516 -17.584999084472656,-101.61599731445312 -17.584999084472656,-101.61599731445312 C-19.56599998474121,-110.62200164794922 -13.461999893188477,-119.38800048828125 -4.335999965667725,-120.70800018310547 C-4.230000019073486,-120.7229995727539 -4.124000072479248,-120.73899841308594 -4.01800012588501,-120.75399780273438 C4.182000160217285,-121.91999816894531 11.894000053405762,-116.55599975585938 13.67300033569336,-108.46700286865234 C13.67300033569336,-108.46700286865234 18.339000701904297,-87.25299835205078 18.339000701904297,-87.25299835205078 C19.52199935913086,-81.875 23.413999557495117,-77.49600219726562 28.617000579833984,-75.69100189208984 C28.617000579833984,-75.69100189208984 69.13999938964844,-61.63100051879883 69.13999938964844,-61.63100051879883 C74.60299682617188,-59.736000061035156 80.66500091552734,-60.96799850463867 84.9540023803711,-64.84600067138672 C84.9540023803711,-64.84600067138672 91.31300354003906,-70.59400177001953 91.31300354003906,-70.59400177001953 C97.51100158691406,-76.1969985961914 106.99600219726562,-76.02300262451172 112.98300170898438,-70.19499969482422 C112.98300170898438,-70.19499969482422 113.21399688720703,-69.97100067138672 113.21399688720703,-69.97100067138672 C119.76799774169922,-63.59199905395508 119.5719985961914,-53.00299835205078 112.78800201416016,-46.869998931884766 C112.78800201416016,-46.869998931884766 103.89800262451172,-38.83300018310547 103.89800262451172,-38.83300018310547 C100.2959976196289,-35.57699966430664 98.38600158691406,-30.849000930786133 98.71700286865234,-26.0049991607666 C98.71700286865234,-26.0049991607666 101.92900085449219,21.06999969482422 101.92900085449219,21.06999969482422 C102.30999755859375,26.65999984741211 105.61599731445312,31.631000518798828 110.62300109863281,34.145999908447266 C110.62300109863281,34.145999908447266 142.44900512695312,50.130001068115234 142.44900512695312,50.130001068115234 C149.97799682617188,53.9109992980957 153.2790069580078,62.94499969482422 149.85499572753906,70.64299774169922z"></path></g><g opacity="1" transform="matrix(1,0,0,1,0,0)"><path fill="rgb(0,0,0)" fill-opacity="1" d=" M67.18000030517578,-18.131000518798828 C66.74299621582031,-24.533000946044922 62.52399826049805,-30.054000854492188 56.46200180053711,-32.15800094604492 C56.46200180053711,-32.15800094604492 19.99799919128418,-44.810001373291016 19.99799919128418,-44.810001373291016 C14.267999649047852,-46.79800033569336 7.906000137329102,-45.375999450683594 3.569000005722046,-41.13600158691406 C3.569000005722046,-41.13600158691406 -46.417999267578125,7.723999977111816 -46.417999267578125,7.723999977111816 C-51.279998779296875,12.47700023651123 -52.608001708984375,19.784000396728516 -49.72800064086914,25.94300079345703 C-49.72800064086914,25.94300079345703 -36.71699905395508,53.77299880981445 -36.71699905395508,53.77299880981445 C-34.58599853515625,58.33100128173828 -30.43400001525879,61.62099838256836 -25.510000228881836,62.654998779296875 C-25.510000228881836,62.654998779296875 21.54400062561035,72.53299713134766 21.54400062561035,72.53299713134766 C26.795000076293945,73.63500213623047 32.25,72.03299713134766 36.069000244140625,68.26399993896484 C36.069000244140625,68.26399993896484 65.51599884033203,39.20899963378906 65.51599884033203,39.20899963378906 C68.83300018310547,35.93600082397461 70.55799865722656,31.3799991607666 70.24099731445312,26.731000900268555 C70.24099731445312,26.731000900268555 67.18000030517578,-18.131000518798828 67.18000030517578,-18.131000518798828z"></path></g></g></g></svg>