<svg xmlns="http://www.w3.org/2000/svg" xmlns:xlink="http://www.w3.org/1999/xlink" viewBox="0 0 512 512" width="512" height="512" style="width: 100%; height: 100%; transform: translate3d(0,0,0);" preserveAspectRatio="xMidYMid meet"><defs><clipPath id="__lottie_element_51670"><rect width="512" height="512" x="0" y="0"></rect></clipPath></defs><g clip-path="url(#__lottie_element_51670)"><g style="display: block;" transform="matrix(1,0,0,1,254.0679931640625,255.906005859375)" opacity="1"><g opacity="1" transform="matrix(1,0,0,1,0,0)"><path fill="rgb(0,0,0)" fill-opacity="1" d=" M-84.47,154.62 C-82.83,149.75 -86.43,147.7 -88.45,145.08 C-94.5,137.26 -101.09,129.84 -106.83,121.8 C-136.08,80.89 -136.88,31.46 -109.28,-10.44 C-107.32,-13.4 -105.2,-16.35 -103.84,-19.59 C-101.83,-24.4 -102.68,-28.96 -106.91,-32.42 C-111.03,-35.79 -115.55,-36.39 -120.06,-33.38 C-122.67,-31.65 -125.17,-29.6 -127.26,-27.28 C-146.34,-6.06 -157.05,19 -155.84,47.37 C-153.97,91.04 -132.43,124.51 -97.26,149.59 C-93.52,152.25 -89.4,154.63 -84.47,154.62z M-78.46,82.73 C-78.02,93.33 -73.82,104.79 -67.19,115.33 C-59.96,126.84 -50.04,136.06 -40.44,145.53 C-36.71,149.21 -34.08,148.84 -30.78,144.84 C-21.09,133.08 -8.94,125.4 6.57,123.89 C19.54,122.63 31.84,125.63 43.62,130.56 C51.84,134.01 53.29,138.99 48.98,146.7 C39.99,162.83 29.7,177.8 11.73,185.24 C7.57,186.96 6.72,189.57 7.95,193.71 C15.03,217.52 3.18,234.34 -13.33,248.9 C-22.36,256.86 -30.38,254.22 -33.76,242.66 C-35.72,235.97 -38.99,230.43 -43.61,225.32 C-50.01,218.26 -56.12,210.95 -58.14,201.17 C-59.42,195 -64.66,193.76 -69.72,192.46 C-88.65,187.6 -106.63,180.27 -123.64,170.74 C-162.97,148.69 -208.78,114.84 -217.01,44.18 C-218.96,33.53 -219.39,33.21 -229.88,33.01 C-233.83,32.94 -237.88,33.15 -241.72,32.4 C-252.43,30.31 -255.32,22.3 -247.82,14.47 C-237.12,3.3 -215.49,-17.73 -209.31,-36.07 C-198.7,-67.58 -181,-93.46 -152.68,-111.42 C-121.36,-131.29 -66.08,-131.74 -37.21,-96.9 C-22.19,-78.77 -16.64,-57.91 -21.85,-34.69 C-24.21,-24.19 -27.89,-13.96 -33.83,-5.04 C-40.31,4.66 -37.63,38.28 -36.86,44.57 C-35.53,55.47 -39.76,59.26 -50.58,56.62 C-54.39,55.69 -58.26,54.36 -61.62,52.39 C-67.44,48.99 -70.36,51.55 -72.71,56.6 C-76.29,64.25 -78.37,72.23 -78.46,82.73z"></path><g opacity="1" transform="matrix(1,0,0,1,-119.98899841308594,59.64400100708008)"></g><g opacity="1" transform="matrix(1,0,0,1,-100.33100128173828,64.22699737548828)"></g></g><g opacity="1" transform="matrix(1,0,0,1,0,0)"><path fill="rgb(0,0,0)" fill-opacity="1" d=" M156.8,-45.29 C156.77,-70.42 149.02,-93.61 132.79,-116.15 C123.71,-128.77 113.49,-140.34 100.14,-148.67 C97.29,-150.45 93.67,-154.13 90.67,-151.21 C87.36,-147.99 91.61,-144.84 93.5,-142.15 C99.44,-133.74 106.05,-125.77 111.62,-117.13 C138.48,-75.41 137.09,-26.97 108.25,13.3 C106.18,16.19 104.23,19.19 102.53,22.31 C100.17,26.62 100.76,30.83 104.18,34.33 C107.8,38.05 112.15,39.31 117.18,37.19 C121.71,35.28 125.07,31.9 128.2,28.32 C146.61,7.24 156.95,-17 156.8,-45.29z M18.19,51.48 C17.55,36.55 22.13,22.7 30.2,10.97 C45.93,-10.29 37.59,-44.99 37.84,-48.5 C38.28,-54.84 41.92,-57.6 48.31,-56.7 C53.45,-55.97 58.28,-53.98 62.75,-51.4 C68.26,-48.23 71.54,-50.28 74.25,-55.28 C80.78,-67.35 82.16,-80 79.03,-93.29 C73.86,-115.18 59.63,-131.02 44.08,-146.03 C40.43,-149.55 38.07,-147.85 35.27,-144.81 C26.18,-134.93 15.38,-127.83 1.84,-125.77 C-13.27,-123.47 -27.35,-127.28 -40.6,-134.07 C-47.66,-137.69 -48.58,-141.95 -44.58,-148.79 C-35.68,-164.01 -25.65,-178.24 -8.51,-185.33 C-2.97,-187.63 -0.77,-190.88 -2.12,-197.28 C-6.98,-220.26 5.13,-236.1 21.48,-249.45 C30.32,-256.66 37.8,-254 41.14,-242.92 C43.38,-235.5 47.03,-229.22 52.03,-223.41 C57.47,-217.06 62.36,-210.14 63.9,-201.73 C65,-195.73 68.37,-193.22 73.91,-191.61 C92.64,-186.19 110.47,-178.42 127.23,-168.49 C165.27,-145.96 193.93,-115.23 209.3,-73.13 C213.81,-60.78 216.22,-47.96 218.3,-35.02 C219.68,-26.41 220,-26.31 228.99,-26.81 C233.84,-27.07 238.55,-26.5 243.07,-25.06 C252.91,-21.92 254.92,-14.59 247.63,-7.13 C236.83,3.91 211.27,25.46 207.8,40.95 C202.26,65.66 186.06,84.88 167.48,101.58 C134.23,131.47 86.26,135.79 50.79,112.68 C28.58,98.2 18.92,77.25 18.19,51.48z"></path><g opacity="1" transform="matrix(1,0,0,1,123.12200164794922,-57.04199981689453)"></g><g opacity="1" transform="matrix(1,0,0,1,102.53399658203125,-63.02399826049805)"></g></g></g></g></svg>