<svg xmlns="http://www.w3.org/2000/svg" xmlns:xlink="http://www.w3.org/1999/xlink" viewBox="0 0 512 512" width="512" height="512" style="width: 100%; height: 100%; transform: translate3d(0,0,0);" preserveAspectRatio="xMidYMid meet"><defs><clipPath id="__lottie_element_51375"><rect width="512" height="512" x="0" y="0"></rect></clipPath></defs><g clip-path="url(#__lottie_element_51375)"><g style="display: block;" transform="matrix(1,0,0,1,251.47900390625,243.76600646972656)" opacity="1"><g opacity="1" transform="matrix(1,0,0,1,0,0)"><path fill="rgb(4,5,52)" fill-opacity="1" d=" M-239.6490020751953,151.08599853515625 C-246.99000549316406,138.66200256347656 -77.01300048828125,-109.24199676513672 -70.23699951171875,-109.80699920654297 C-63.46099853515625,-110.37200164794922 -47.64899826049805,-68.01899719238281 -47.64899826049805,-68.01899719238281 C-47.64899826049805,-68.01899719238281 -140.11599731445312,145.64599609375 -113.15499877929688,142.05099487304688 C-104.68399810791016,140.9219970703125 -99.03800201416016,104.78099822998047 -56.119998931884766,0 C-22.944000244140625,-80.99700164794922 20.486000061035156,-161.43299865722656 34.233001708984375,-161.75999450683594 C57.95100021362305,-162.3249969482422 244.66900634765625,134.9499969482422 239.78599548339844,151.08599853515625 C235.45700073242188,165.39199829101562 -231.28199768066406,165.24600219726562 -239.6490020751953,151.08599853515625z"></path></g></g></g></svg>