<svg xmlns="http://www.w3.org/2000/svg" xmlns:xlink="http://www.w3.org/1999/xlink" viewBox="0 0 512 512" width="512" height="512" style="width: 100%; height: 100%; transform: translate3d(0,0,0);" preserveAspectRatio="xMidYMid meet"><defs><clipPath id="__lottie_element_51815"><rect width="512" height="512" x="0" y="0"></rect></clipPath></defs><g clip-path="url(#__lottie_element_51815)"><g style="display: block;" transform="matrix(1,0,0,1,-1532.615966796875,1805.72900390625)" opacity="1"><g opacity="1" transform="matrix(1,0,0,1,1899.220947265625,-1451.8499755859375)"><path fill="rgb(0,0,0)" fill-opacity="1" d=" M-3.296999931335449,-52.145999908447266 C5.894999980926514,-53.87900161743164 -3.1050000190734863,-108.87899780273438 53.96500015258789,-121.14900207519531 C86.33799743652344,-128.10899353027344 121.56099700927734,-115.91799926757812 134.19400024414062,-74.13400268554688 C155.48500061035156,-3.7149999141693115 113.3949966430664,93.12100219726562 36.3650016784668,126.59200286865234 C21.611000061035156,133.0030059814453 -118.6050033569336,105.12100219726562 -134.0570068359375,3.950000047683716 C-139.1739959716797,-29.552000045776367 -118.41200256347656,-58.92100143432617 -89.60700225830078,-70.11499786376953 C-33.60499954223633,-91.87899780273438 -11.902000427246094,-50.52399826049805 -3.296999931335449,-52.145999908447266z"></path></g><g opacity="1" transform="matrix(1,0,0,1,1899.220947265625,-1641.8909912109375)"><path fill="rgb(0,0,0)" fill-opacity="1" d=" M4.1020002365112305,-35.680999755859375 C12.097999572753906,-35.834999084472656 11.835000038146973,-61.50899887084961 43.71900177001953,-60.6619987487793 C58.8380012512207,-60.2599983215332 76.9540023803711,-41.74399948120117 76.8489990234375,-16.60700035095215 C76.7030029296875,18.22800064086914 42.39500045776367,50.1619987487793 -7.836999893188477,62.474998474121094 C-18.297000885009766,65.03900146484375 -61.52399826049805,21.43000030517578 -63.310001373291016,-19.711999893188477 C-64.26399993896484,-41.68199920654297 -49.2130012512207,-56.5359992980957 -32.59600067138672,-57.5099983215332 C-0.996999979019165,-59.36199951171875 -3.447000026702881,-35.5359992980957 4.1020002365112305,-35.680999755859375z"></path></g><g opacity="1" transform="matrix(1,0,0,1,1730.322021484375,-1714.72802734375)"><path fill="rgb(0,0,0)" fill-opacity="1" d=" M-4.890999794006348,-39.72200012207031 C2.8610000610351562,-41.624000549316406 2.693000078201294,-71.88800048828125 39.729000091552734,-71.8290023803711 C62.810001373291016,-71.79199981689453 78.5479965209961,-60.14799880981445 79.3030014038086,-25.67099952697754 C80.28500366210938,19.172000885009766 39.95199966430664,67.9530029296875 28.023000717163086,70.88200378417969 C13.293999671936035,74.4990005493164 -85.70600128173828,63.999000549316406 -93.2490005493164,-7.677000045776367 C-96.60199737548828,-39.54100036621094 -79.34400177001953,-59.69900131225586 -57.433998107910156,-64.572998046875 C-20.375,-72.81800079345703 -12.656999588012695,-37.816001892089844 -4.890999794006348,-39.72200012207031z"></path></g><g opacity="1" transform="matrix(1,0,0,1,1708.155029296875,-1470.416015625)"><path fill="rgb(0,0,0)" fill-opacity="1" d=" M61.00600051879883,23.59600067138672 C73.18699645996094,46.689998626708984 119.86000061035156,66.5510025024414 132.33099365234375,78.32099914550781 C137.99000549316406,83.66200256347656 -7.761000156402588,163.61700439453125 -26.02400016784668,155.08599853515625 C-82.53900146484375,128.68699645996094 -194.53900146484375,47.6870002746582 -165.24400329589844,-83.99400329589844 C-152.75599670410156,-140.1269989013672 -90.53900146484375,-168.31300354003906 -48.28900146484375,-154.85400390625 C22.635000228881836,-132.26199340820312 12.461000442504883,-83.81300354003906 19.45599937438965,-81.29399871826172 C26.89299964904785,-78.61599731445312 31.961000442504883,-112.31300354003906 85.01000213623047,-120.51599884033203 C115.24400329589844,-125.19100189208984 145.31199645996094,-106.43699645996094 165.92599487304688,-86.55999755859375 C169.5469970703125,-83.06800079345703 165.88499450683594,-77.28199768066406 161.11599731445312,-78.88600158691406 C94.46099853515625,-101.31300354003906 30.461000442504883,-34.3129997253418 61.00600051879883,23.59600067138672z M-78.96600341796875,-86.66100311279297 C-68.13300323486328,-102.33200073242188 -92.1780014038086,-122.63800048828125 -109.25299835205078,-104.99700164794922 C-126.40799713134766,-87.27300262451172 -134.72500610351562,-60.082000732421875 -132.74200439453125,-42.5099983215332 C-129.88299560546875,-17.18000030517578 -103.3239974975586,-12.437999725341797 -99.60199737548828,-33.73400115966797 C-96.51300048828125,-51.40800094604492 -89.9000015258789,-70.84300231933594 -78.96600341796875,-86.66100311279297z"></path></g></g></g></svg>