<svg xmlns="http://www.w3.org/2000/svg" xmlns:xlink="http://www.w3.org/1999/xlink" viewBox="0 0 512 512" width="512" height="512" style="width: 100%; height: 100%; transform: translate3d(0,0,0);" preserveAspectRatio="xMidYMid meet"><defs><clipPath id="__lottie_element_51189"><rect width="512" height="512" x="0" y="0"></rect></clipPath></defs><g clip-path="url(#__lottie_element_51189)"><g style="display: block;" transform="matrix(1,0,0,1,258.6289978027344,254.24200439453125)" opacity="1"><g opacity="1" transform="matrix(1,0,0,1,0,0)"><path fill="rgb(0,0,0)" fill-opacity="1" d=" M110.04499816894531,-95.41500091552734 C107.59100341796875,-93.19300079345703 113.48799896240234,-86.41799926757812 116.52899932861328,-83.00700378417969 C127.08499908447266,-71.16600036621094 154.36599731445312,-42.40700149536133 155.8000030517578,-38.61800003051758 C158.24600219726562,-32.15800094604492 156.84100341796875,-25.020999908447266 152.0229949951172,-21.233999252319336 C146.76400756835938,-17.10099983215332 141.0709991455078,-17.183000564575195 135.30099487304688,-20.2450008392334 C131.38900756835938,-22.320999145507812 114.13300323486328,-39.86199951171875 108.45800018310547,-45.40399932861328 C101.83799743652344,-51.86899948120117 101.24700164794922,-51.87200164794922 95.27999877929688,-45.46799850463867 C89.06300354003906,-38.79499816894531 50.88800048828125,3.6640000343322754 37.85900115966797,18.072999954223633 C31.965999603271484,24.59000015258789 31.761999130249023,24.722999572753906 38.417999267578125,31.365999221801758 C65.08899688720703,57.98400115966797 218.31500244140625,207.5500030517578 239.46600341796875,225.5540008544922 C243.15199279785156,228.69200134277344 248.85400390625,231.50399780273438 247.10800170898438,237.83799743652344 C245.3070068359375,244.3719940185547 239.0850067138672,244.40899658203125 233.7220001220703,245.8419952392578 C216.23399353027344,250.51499938964844 201.08399963378906,246.2790069580078 186.83799743652344,235.53399658203125 C163.0070037841797,217.5590057373047 7.926000118255615,63.61199951171875 6.757999897003174,62.54100036621094 C0.7900000214576721,57.06800079345703 -0.3869999945163727,56.77299880981445 -5.785999774932861,62.84199905395508 C-28.239999771118164,88.08200073242188 -148.43099975585938,197.58900451660156 -182.70399475097656,230.5679931640625 C-200.3939971923828,247.58999633789062 -220.09800720214844,247.23300170898438 -241.31300354003906,242.77699279785156 C-248.02000427246094,241.36900329589844 -249.64500427246094,237.03199768066406 -245.9429931640625,231.3179931640625 C-243.8179931640625,228.03799438476562 -36.48099899291992,27.086999893188477 -34.8129997253418,25.389999389648438 C-32.012001037597656,22.541000366210938 -32.340999603271484,19.750999450683594 -35.08000183105469,17.136999130249023 C-39.95500183105469,12.484000205993652 -80.26300048828125,-26.836999893188477 -95.53700256347656,-41.85200119018555 C-103.7760009765625,-49.95100021362305 -103.83300018310547,-49.92100143432617 -112.28299713134766,-41.51599884033203 C-116.78199768066406,-37.040000915527344 -129.67599487304688,-24.10300064086914 -131.89599609375,-22.461000442504883 C-139.41700744628906,-16.89900016784668 -147.18899536132812,-16.679000854492188 -152.53500366210938,-21.695999145507812 C-157.9530029296875,-26.7810001373291 -158.6750030517578,-34.858001708984375 -153.76499938964844,-42.38800048828125 C-148.99000549316406,-49.709999084472656 -119.72599792480469,-79.9469985961914 -111.26599884033203,-88.86499786376953 C-109.94100189208984,-90.26200103759766 -106.87300109863281,-94.31400299072266 -108.79299926757812,-95.51000213623047 C-111.28500366210938,-97.06199645996094 -118.30000305175781,-86.93399810791016 -122.66000366210938,-82.86299896240234 C-125.26799774169922,-80.4280014038086 -127.76300048828125,-77.87200164794922 -130.26499938964844,-75.32599639892578 C-134.23899841308594,-71.28199768066406 -137.86700439453125,-71.85299682617188 -141.2760009765625,-76.05699920654297 C-144.2729949951172,-79.75299835205078 -147.32200622558594,-83.40699768066406 -150.26600646972656,-87.14399719238281 C-177.2790069580078,-121.43000030517578 -244.73300170898438,-198.29100036621094 -246.89999389648438,-205.7530059814453 C-248.91900634765625,-212.70700073242188 -248.16400146484375,-219.0330047607422 -243.7310028076172,-224.8769989013672 C-237.89300537109375,-232.572998046875 -230.69900512695312,-238.78599548339844 -222.427001953125,-243.61700439453125 C-212.08299255371094,-249.6580047607422 -205.43899536132812,-249.24899291992188 -196.5189971923828,-240.97799682617188 C-186.64199829101562,-231.82000732421875 -115.76200103759766,-154.76100158691406 -89.74600219726562,-125.89900207519531 C-83.71600341796875,-119.20999908447266 -83.26300048828125,-119.24199676513672 -76.41100311279297,-124.98699951171875 C-73.38200378417969,-127.5270004272461 -70.44200134277344,-130.2779998779297 -67.072998046875,-132.281005859375 C-61.09299850463867,-135.83700561523438 -54.59000015258789,-135.3560028076172 -50.42900085449219,-131.64700317382812 C-46.35100173950195,-128.01300048828125 -45.05699920654297,-121.33000183105469 -47.571998596191406,-115.10600280761719 C-49.98899841308594,-109.1240005493164 -54.29999923706055,-104.39900207519531 -58.57699966430664,-99.69499969482422 C-73.96099853515625,-82.77400207519531 -72.03800201416016,-86.91699981689453 -59.05699920654297,-71.36900329589844 C-43.04800033569336,-52.194000244140625 -25.704999923706055,-34.1609992980957 -7.9679999351501465,-16.549999237060547 C-1.5950000286102295,-10.222000122070312 -1.0759999752044678,-10.123000144958496 5.239999771118164,-16.91200065612793 C24.687000274658203,-37.8120002746582 43.986000061035156,-58.85300064086914 63.17499923706055,-79.99099731445312 C69.2969970703125,-86.73500061035156 69.04100036621094,-87.8239974975586 62.9379997253418,-94.9520034790039 C59.071998596191406,-99.46800231933594 55.09299850463867,-103.89399719238281 51.38399887084961,-108.53500366210938 C48.89899826049805,-111.64399719238281 47.018001556396484,-115.1510009765625 46.494998931884766,-119.2300033569336 C45.060001373291016,-130.41400146484375 54.012001037597656,-137.58099365234375 64.58599853515625,-133.59100341796875 C69.52100372314453,-131.72900390625 73.11699676513672,-127.93800354003906 77.00700378417969,-124.54399871826172 C82.84300231933594,-119.4530029296875 83.96700286865234,-119.37100219726562 88.68399810791016,-124.64800262451172 C113.78700256347656,-152.73300170898438 184.1790008544922,-229.1540069580078 194.4199981689453,-239.08599853515625 C205.63099670410156,-249.9600067138672 213.27200317382812,-250.31399536132812 226.09100341796875,-241.3560028076172 C231.60800170898438,-237.5 236.64599609375,-233.05299377441406 241.2760009765625,-228.07200622558594 C249.0850067138672,-219.67100524902344 249.64700317382812,-210.54100036621094 245.06399536132812,-200.60800170898438 C242.88900756835938,-195.8939971923828 172.5970001220703,-116.1719970703125 143.1230010986328,-78.25199890136719 C136.99400329589844,-70.36699676513672 135.34100341796875,-70.52400207519531 128.0800018310547,-77.48799896240234 C121.96299743652344,-83.3550033569336 112.32499694824219,-97.47899627685547 110.04499816894531,-95.41500091552734z"></path></g></g></g></svg>