<svg xmlns="http://www.w3.org/2000/svg" xmlns:xlink="http://www.w3.org/1999/xlink" viewBox="0 0 512 512" width="512" height="512" style="width: 100%; height: 100%; transform: translate3d(0,0,0);" preserveAspectRatio="xMidYMid meet"><defs><clipPath id="__lottie_element_769"><rect width="512" height="512" x="0" y="0"></rect></clipPath></defs><g clip-path="url(#__lottie_element_769)"><g style="display: block;" transform="matrix(1,0,0,1,256,256)" opacity="1"><g opacity="1" transform="matrix(1,0,0,1,0,0)"><path fill="rgb(0,0,0)" fill-opacity="1" d=" M255.5659942626953,135.1580047607422 C255.5659942626953,135.1580047607422 166.98899841308594,27.67799949645996 166.98899841308594,27.67799949645996 C163.7209930419922,23.71299934387207 161.8939971923828,18.756999969482422 161.8070068359375,13.619999885559082 C161.8070068359375,13.619999885559082 160.8000030517578,-45.49399948120117 160.8000030517578,-45.49399948120117 C161.01800537109375,-55.28900146484375 157.2030029296875,-64.82499694824219 150.26100158691406,-71.76699829101562 C150.26100158691406,-71.76699829101562 69.76399993896484,-152.26400756835938 69.76399993896484,-152.26400756835938 C63.03799819946289,-158.99000549316406 53.72600173950195,-162.83399963378906 44.2140007019043,-162.81199645996094 C44.2140007019043,-162.81199645996094 -14.045000076293945,-162.63400268554688 -14.045000076293945,-162.63400268554688 C-19.329999923706055,-162.6179962158203 -24.454999923706055,-164.44500732421875 -28.53700065612793,-167.80099487304688 C-28.53700065612793,-167.80099487304688 -134.4810028076172,-254.88900756835938 -134.4810028076172,-254.88900756835938 C-180.89100646972656,-267.9739990234375 -267.63800048828125,-178.2429962158203 -254.69900512695312,-132.2689971923828 C-254.69900512695312,-132.2689971923828 -170.28500366210938,-29.042999267578125 -170.28500366210938,-29.042999267578125 C-166.90199279785156,-24.9060001373291 -165.08599853515625,-19.70800018310547 -165.15699768066406,-14.36400032043457 C-165.15699768066406,-14.36400032043457 -165.9739990234375,47.375999450683594 -165.9739990234375,47.375999450683594 C-165.99600219726562,56.88800048828125 -162.15199279785156,66.19999694824219 -155.42599487304688,72.9260025024414 C-155.42599487304688,72.9260025024414 -74.92900085449219,153.42300415039062 -74.92900085449219,153.42300415039062 C-67.98699951171875,160.36500549316406 -58.45100021362305,164.18099975585938 -48.65599822998047,163.96299743652344 C-48.65599822998047,163.96299743652344 15.746000289916992,165.70199584960938 15.746000289916992,165.70199584960938 C20.773000717163086,165.83799743652344 25.613000869750977,167.63800048828125 29.506999969482422,170.8209991455078 C29.506999969482422,170.8209991455078 132.9459991455078,255.37600708007812 132.9459991455078,255.37600708007812 C173.822998046875,265.3909912109375 262.968994140625,179.13299560546875 255.5659942626953,135.1580047607422z M-187.23399353027344,-143.66299438476562 C-187.23399353027344,-143.66299438476562 -220.2779998779297,-131.5449981689453 -220.2779998779297,-131.5449981689453 C-220.2779998779297,-131.5449981689453 -235.0749969482422,-146.3419952392578 -235.0749969482422,-146.3419952392578 C-235.0749969482422,-146.3419952392578 -222.95700073242188,-179.38600158691406 -222.95700073242188,-179.38600158691406 C-222.95700073242188,-179.38600158691406 -178.2899932861328,-224.0540008544922 -178.2899932861328,-224.0540008544922 C-178.2899932861328,-224.0540008544922 -145.24600219726562,-236.17100524902344 -145.24600219726562,-236.17100524902344 C-145.24600219726562,-236.17100524902344 -130.44900512695312,-221.37399291992188 -130.44900512695312,-221.37399291992188 C-130.44900512695312,-221.37399291992188 -142.56700134277344,-188.33099365234375 -142.56700134277344,-188.33099365234375 C-142.56700134277344,-188.33099365234375 -187.23399353027344,-143.66299438476562 -187.23399353027344,-143.66299438476562z M-156.07899475097656,-100.98999786376953 C-156.07899475097656,-100.98999786376953 -152.91200256347656,-134.9510040283203 -152.91200256347656,-134.9510040283203 C-152.91200256347656,-134.9510040283203 -135.60499572753906,-152.25799560546875 -135.60499572753906,-152.25799560546875 C-135.60499572753906,-152.25799560546875 -104.15299987792969,-152.91700744628906 -104.15299987792969,-152.91700744628906 C-104.15299987792969,-152.91700744628906 -156.07899475097656,-100.98999786376953 -156.07899475097656,-100.98999786376953z M-48.75699996948242,143.74200439453125 C-53.1879997253418,143.94000244140625 -57.499000549316406,142.26600646972656 -60.6349983215332,139.1300048828125 C-60.6349983215332,139.1300048828125 -141.13299560546875,58.632999420166016 -141.13299560546875,58.632999420166016 C-144.10499572753906,55.6609992980957 -145.77000427246094,51.625999450683594 -145.75999450683594,47.42300033569336 C-145.75999450683594,47.42300033569336 -145.47000122070312,-76.13200378417969 -145.47000122070312,-76.13200378417969 C-145.4600067138672,-80.30999755859375 -143.79600524902344,-84.31300354003906 -140.8419952392578,-87.26699829101562 C-140.8419952392578,-87.26699829101562 -90.43000030517578,-137.67999267578125 -90.43000030517578,-137.67999267578125 C-87.47599792480469,-140.63400268554688 -83.47200012207031,-142.2969970703125 -79.29499816894531,-142.3070068359375 C-79.29499816894531,-142.3070068359375 44.26100158691406,-142.59800720214844 44.26100158691406,-142.59800720214844 C48.4640007019043,-142.60800170898438 52.49800109863281,-140.94200134277344 55.470001220703125,-137.97000122070312 C55.470001220703125,-137.97000122070312 135.96800231933594,-57.472999572753906 135.96800231933594,-57.472999572753906 C139.10400390625,-54.33700180053711 140.77699279785156,-50.0260009765625 140.57899475097656,-45.595001220703125 C140.57899475097656,-45.595001220703125 143.2429962158203,80.36599731445312 143.2429962158203,80.36599731445312 C143.06700134277344,84.30799865722656 141.42100524902344,88.04199981689453 138.63099670410156,90.83200073242188 C138.63099670410156,90.83200073242188 87.66899871826172,141.79400634765625 87.66899871826172,141.79400634765625 C84.87899780273438,144.58399963378906 81.1449966430664,146.22900390625 77.2030029296875,146.40499877929688 C77.2030029296875,146.40499877929688 -48.75699996948242,143.74200439453125 -48.75699996948242,143.74200439453125z M136.4219970703125,154.38299560546875 C136.4219970703125,154.38299560546875 102.46099853515625,157.5500030517578 102.46099853515625,157.5500030517578 C102.46099853515625,157.5500030517578 154.38800048828125,105.6240005493164 154.38800048828125,105.6240005493164 C154.38800048828125,105.6240005493164 153.72900390625,137.0760040283203 153.72900390625,137.0760040283203 C153.72900390625,137.0760040283203 136.4219970703125,154.38299560546875 136.4219970703125,154.38299560546875z M179.5489959716797,223.1199951171875 C179.5489959716797,223.1199951171875 146.5050048828125,235.23800659179688 146.5050048828125,235.23800659179688 C146.5050048828125,235.23800659179688 131.70799255371094,220.4409942626953 131.70799255371094,220.4409942626953 C131.70799255371094,220.4409942626953 143.8260040283203,187.39700317382812 143.8260040283203,187.39700317382812 C143.8260040283203,187.39700317382812 188.4929962158203,142.72900390625 188.4929962158203,142.72900390625 C188.4929962158203,142.72900390625 221.53700256347656,130.61199951171875 221.53700256347656,130.61199951171875 C221.53700256347656,130.61199951171875 236.33399963378906,145.40899658203125 236.33399963378906,145.40899658203125 C236.33399963378906,145.40899658203125 224.21600341796875,178.45199584960938 224.21600341796875,178.45199584960938 C224.21600341796875,178.45199584960938 179.5489959716797,223.1199951171875 179.5489959716797,223.1199951171875z"></path></g><g opacity="1" transform="matrix(1,0,0,1,0,0)"><path fill="rgb(0,0,0)" fill-opacity="1" d=" M124.85600280761719,47.22800064086914 C124.85600280761719,47.22800064086914 113.87899780273438,36.250999450683594 113.87899780273438,36.250999450683594 C113.87899780273438,36.250999450683594 113.88600158691406,-41.558998107910156 113.88600158691406,-41.558998107910156 C113.88600158691406,-45.3120002746582 112.3949966430664,-48.9119987487793 109.74099731445312,-51.566001892089844 C109.74099731445312,-51.566001892089844 52.24300003051758,-109.06400299072266 52.24300003051758,-109.06400299072266 C49.5890007019043,-111.71800231933594 45.987998962402344,-113.20899963378906 42.23500061035156,-113.20899963378906 C42.23500061035156,-113.20899963378906 -35.57400131225586,-113.2020034790039 -35.57400131225586,-113.2020034790039 C-35.57400131225586,-113.2020034790039 -46.55099868774414,-124.17900085449219 -46.55099868774414,-124.17900085449219 C-52.14400100708008,-129.77200317382812 -61.209999084472656,-129.77200317382812 -66.8030014038086,-124.17900085449219 C-66.8030014038086,-124.17900085449219 -127.12200164794922,-63.86000061035156 -127.12200164794922,-63.86000061035156 C-132.71499633789062,-58.266998291015625 -132.71499633789062,-49.20100021362305 -127.12200164794922,-43.608001708984375 C-127.12200164794922,-43.608001708984375 -116.36499786376953,-32.849998474121094 -116.36499786376953,-32.849998474121094 C-116.36499786376953,-32.849998474121094 -116.37100219726562,45.39799880981445 -116.37100219726562,45.39799880981445 C-116.37100219726562,49.1510009765625 -114.88099670410156,52.750999450683594 -112.22699737548828,55.404998779296875 C-112.22699737548828,55.404998779296875 -54.72800064086914,112.90299987792969 -54.72800064086914,112.90299987792969 C-52.07400131225586,115.55699920654297 -48.4739990234375,117.0479965209961 -44.72100067138672,117.0479965209961 C-44.72100067138672,117.0479965209961 33.527000427246094,117.04199981689453 33.527000427246094,117.04199981689453 C33.527000427246094,117.04199981689453 44.28499984741211,127.79900360107422 44.28499984741211,127.79900360107422 C49.87799835205078,133.39199829101562 58.944000244140625,133.39199829101562 64.53700256347656,127.79900360107422 C64.53700256347656,127.79900360107422 124.85600280761719,67.4800033569336 124.85600280761719,67.4800033569336 C130.44900512695312,61.887001037597656 130.44900512695312,52.82099914550781 124.85600280761719,47.22800064086914z M14.720000267028809,-32.86800003051758 C14.720000267028809,-32.86800003051758 52.082000732421875,4.49399995803833 52.082000732421875,4.49399995803833 C47.33000183105469,7.171000003814697 42.58599853515625,9.86400032043457 37.83700180053711,12.54699993133545 C25.378999710083008,0.0949999988079071 12.925999641418457,-12.359999656677246 0.47200000286102295,-24.81599998474121 C5.2210001945495605,-27.500999450683594 9.96399974822998,-30.19499969482422 14.720000267028809,-32.86800003051758z M-49.54499816894531,-9.425000190734863 C-52.262001037597656,-7.942999839782715 -58.111000061035156,-4.197000026702881 -68.4530029296875,-14.538999557495117 C-68.4530029296875,-14.538999557495117 -90.84300231933594,-36.92900085449219 -90.84300231933594,-36.92900085449219 C-101.46900177001953,-47.55500030517578 -91.98300170898438,-53.84000015258789 -89.98899841308594,-54.96799850463867 C-72.40399932861328,-64.91799926757812 -54.81399917602539,-74.86499786376953 -37.22999954223633,-84.81700134277344 C-37.22999954223633,-84.81700134277344 -37.31700134277344,-84.90499877929688 -37.31700134277344,-84.90499877929688 C-37.31700134277344,-84.90499877929688 -19.930999755859375,-67.5199966430664 -19.930999755859375,-67.5199966430664 C-35.80099868774414,-58.55699920654297 -51.65800094604492,-49.56999969482422 -67.5260009765625,-40.60200119018555 C-68.64399719238281,-39.970001220703125 -69.71199798583984,-38.257999420166016 -67.69300079345703,-36.13100051879883 C-66.81400299072266,-35.20399856567383 -65.89099884033203,-34.32099914550781 -64.99400329589844,-33.40999984741211 C-61.915000915527344,-30.283000946044922 -60.70899963378906,-30.156999588012695 -58.99599838256836,-31.125 C-42.92399978637695,-40.20399856567383 -26.863000869750977,-49.30400085449219 -10.786999702453613,-58.375999450683594 C-10.786999702453613,-58.375999450683594 6.495999813079834,-41.09199905395508 6.495999813079834,-41.09199905395508 C-10.753999710083008,-31.350000381469727 -47.6609992980957,-10.45300006866455 -49.54499816894531,-9.425000190734863z M13.722999572753906,26.18000030517578 C7.026000022888184,19.48900032043457 0.335999995470047,12.793000221252441 -6.360000133514404,6.10099983215332 C-15.185999870300293,11.090999603271484 -24.009000778198242,16.086999893188477 -32.834999084472656,21.07699966430664 C-32.834999084472656,21.07699966430664 -32.71799850463867,21.195999145507812 -32.71799850463867,21.195999145507812 C-32.71799850463867,21.195999145507812 -50.125999450683594,3.7869999408721924 -50.125999450683594,3.7869999408721924 C-36.5359992980957,-3.8889999389648438 -22.95599937438965,-11.581000328063965 -9.369999885559082,-19.263999938964844 C3.0889999866485596,-6.809000015258789 15.545000076293945,5.6479997634887695 28.000999450683594,18.106000900268555 C23.242000579833984,20.79800033569336 18.48200035095215,23.48900032043457 13.722999572753906,26.18000030517578z M83.07599639892578,57.7869987487793 C76.94200134277344,51.65700149536133 70.81099700927734,45.520999908447266 64.6780014038086,39.38999938964844 C62.46799850463867,37.180999755859375 61.095001220703125,36.20600128173828 58.737998962402344,37.53900146484375 C48.43199920654297,43.369998931884766 38.12200164794922,49.20000076293945 27.816999435424805,55.034000396728516 C27.156999588012695,55.40800094604492 25.566999435424805,57.145999908447266 28.11199951171875,59.69300079345703 C34.78900146484375,66.3740005493164 41.470001220703125,73.0510025024414 48.14699935913086,79.73200225830078 C43.39500045776367,82.4229965209961 38.63999938964844,85.11100006103516 33.88600158691406,87.80000305175781 C33.88600158691406,87.80000305175781 5.499000072479248,59.4119987487793 5.499000072479248,59.4119987487793 C-0.722000002861023,53.191001892089844 -0.9829999804496765,45.52899932861328 5.243000030517578,42.007999420166016 C20.013999938964844,33.65399932861328 34.7859992980957,25.301000595092773 49.558998107910156,16.948999404907227 C52.22800064086914,15.4399995803833 58.61399841308594,11.026000022888184 68.95099639892578,21.363000869750977 C68.95099639892578,21.363000869750977 97.29399871826172,49.70600128173828 97.29399871826172,49.70600128173828 C95.1989974975586,50.983001708984375 85.68399810791016,56.3120002746582 83.07599639892578,57.7869987487793z"></path></g></g></g></svg>