<svg xmlns="http://www.w3.org/2000/svg" xmlns:xlink="http://www.w3.org/1999/xlink" viewBox="0 0 512 512" width="512" height="512" style="width: 100%; height: 100%; transform: translate3d(0,0,0);" preserveAspectRatio="xMidYMid meet"><defs><clipPath id="__lottie_element_724"><rect width="512" height="512" x="0" y="0"></rect></clipPath></defs><g clip-path="url(#__lottie_element_724)"><g style="display: block;" transform="matrix(1,0,0,1,256,256)" opacity="1"><g opacity="1" transform="matrix(1,0,0,1,0,0)"><path fill="rgb(0,0,0)" fill-opacity="1" d=" M217.05499267578125,180.1320037841797 C217.05499267578125,180.1320037841797 95.2699966430664,180.1320037841797 95.2699966430664,180.1320037841797 C89.38999938964844,180.1320037841797 84.6240005493164,175.36500549316406 84.6240005493164,169.48500061035156 C84.6240005493164,169.48500061035156 84.6240005493164,104.30699920654297 84.6240005493164,104.30699920654297 C84.6240005493164,98.427001953125 89.38999938964844,93.66000366210938 95.2699966430664,93.66000366210938 C95.2699966430664,93.66000366210938 217.05499267578125,93.66000366210938 217.05499267578125,93.66000366210938 C259.9549865722656,94.63700103759766 259.9219970703125,179.1719970703125 217.05499267578125,180.1320037841797z"></path></g><g opacity="1" transform="matrix(1,0,0,1,0,0)"><path fill="rgb(0,0,0)" fill-opacity="1" d=" M-217.05499267578125,180.1320037841797 C-217.05499267578125,180.1320037841797 -95.2699966430664,180.1320037841797 -95.2699966430664,180.1320037841797 C-89.38999938964844,180.1320037841797 -84.6240005493164,175.36500549316406 -84.6240005493164,169.48500061035156 C-84.6240005493164,169.48500061035156 -84.6240005493164,104.30699920654297 -84.6240005493164,104.30699920654297 C-84.6240005493164,98.427001953125 -89.38999938964844,93.66000366210938 -95.2699966430664,93.66000366210938 C-95.2699966430664,93.66000366210938 -217.05499267578125,93.66000366210938 -217.05499267578125,93.66000366210938 C-259.9549865722656,94.63700103759766 -259.9219970703125,179.1719970703125 -217.05499267578125,180.1320037841797z"></path></g><g opacity="1" transform="matrix(1,0,0,1,0,0)"><path fill="rgb(0,0,0)" fill-opacity="1" d=" M-9.243000030517578,-41.696998596191406 C-9.243000030517578,-41.696998596191406 -22.8439998626709,-70.13600158691406 -22.8439998626709,-70.13600158691406 C-25.047000885009766,-74.74099731445312 -30.295000076293945,-77.03299713134766 -35.16999816894531,-75.51899719238281 C-35.16999816894531,-75.51899719238281 -51.20399856567383,-72.12899780273438 -51.20399856567383,-72.12899780273438 C-55.32500076293945,-70.8489990234375 -57.777000427246094,-66.74099731445312 -58.51100158691406,-62.85499954223633 C-58.51100158691406,-62.85499954223633 -66.63500213623047,-23.059999465942383 -66.63500213623047,-23.059999465942383 C-67.31700134277344,-20.12299919128418 -70.8219985961914,-20.381000518798828 -70.8219985961914,-23.275999069213867 C-70.8219985961914,-23.275999069213867 -70.8219985961914,-161.70199584960938 -70.8219985961914,-161.70199584960938 C-70.8219985961914,-167.35299682617188 -75.40299987792969,-171.9340057373047 -81.05400085449219,-171.9340057373047 C-81.05400085449219,-171.9340057373047 -94.58699798583984,-171.9340057373047 -94.58699798583984,-171.9340057373047 C-100.23799896240234,-171.9340057373047 -104.81999969482422,-167.35299682617188 -104.81999969482422,-161.70199584960938 C-104.81999969482422,-161.70199584960938 -104.81999969482422,-142.7220001220703 -104.81999969482422,-142.7220001220703 C-104.7229995727539,-136.072998046875 -119.26300048828125,-136.0760040283203 -119.16500091552734,-142.7220001220703 C-119.16500091552734,-142.7220001220703 -119.16500091552734,-169.89999389648438 -119.16500091552734,-169.89999389648438 C-119.16500091552734,-175.55099487304688 -123.74700164794922,-180.1320037841797 -129.3979949951172,-180.1320037841797 C-129.3979949951172,-180.1320037841797 -146.00599670410156,-180.1320037841797 -146.00599670410156,-180.1320037841797 C-151.65699768066406,-180.1320037841797 -156.23800659179688,-175.55099487304688 -156.23800659179688,-169.89999389648438 C-156.23800659179688,-169.89999389648438 -156.23800659179688,-142.7220001220703 -156.23800659179688,-142.7220001220703 C-156.14100646972656,-136.072998046875 -171.70700073242188,-136.0760040283203 -171.60899353027344,-142.7220001220703 C-171.60899353027344,-142.7220001220703 -171.60899353027344,-169.89999389648438 -171.60899353027344,-169.89999389648438 C-171.60899353027344,-175.55099487304688 -176.19000244140625,-180.1320037841797 -181.84100341796875,-180.1320037841797 C-181.84100341796875,-180.1320037841797 -198.44900512695312,-180.1320037841797 -198.44900512695312,-180.1320037841797 C-204.10000610351562,-180.1320037841797 -207.65699768066406,-175.55099487304688 -207.65699768066406,-169.89999389648438 C-207.65699768066406,-169.89999389648438 -207.65699768066406,-142.7220001220703 -207.65699768066406,-142.7220001220703 C-207.55999755859375,-136.072998046875 -223.125,-136.0760040283203 -223.02699279785156,-142.7220001220703 C-223.02699279785156,-142.7220001220703 -223.02699279785156,-161.70199584960938 -223.02699279785156,-161.70199584960938 C-223.02699279785156,-167.35299682617188 -227.60899353027344,-171.9340057373047 -233.25999450683594,-171.9340057373047 C-233.25999450683594,-171.9340057373047 -245.76800537109375,-171.9340057373047 -245.76800537109375,-171.9340057373047 C-251.41900634765625,-171.9340057373047 -256,-167.35299682617188 -256,-161.70199584960938 C-256,-161.70199584960938 -256,-26.464000701904297 -256,-26.464000701904297 C-256,-10.496000289916992 -252.18899536132812,12.180000305175781 -250.36900329589844,18.868000030517578 C-250.36900329589844,18.868000030517578 -237.45799255371094,68.54299926757812 -237.45799255371094,68.54299926757812 C-236.29400634765625,72.8219985961914 -232.4080047607422,75.79100036621094 -227.9739990234375,75.79100036621094 C-227.9739990234375,75.79100036621094 -96.01599884033203,75.79100036621094 -96.01599884033203,75.79100036621094 C-92.1500015258789,75.79100036621094 -88.64299774169922,73.5250015258789 -87.05500030517578,70 C-87.05500030517578,70 -79.3219985961914,53.85900115966797 -79.3219985961914,53.85900115966797 C-73.69100189208984,41.36000061035156 -66.0999984741211,29.841999053955078 -56.834999084472656,19.738000869750977 C-56.834999084472656,19.738000869750977 -10.940999984741211,-30.312000274658203 -10.940999984741211,-30.312000274658203 C-8.104999542236328,-33.404998779296875 -7.433000087738037,-37.9109992980957 -9.243000030517578,-41.696998596191406z M-173.06100463867188,-95.35199737548828 C-173.06100463867188,-95.35199737548828 -134.7550048828125,-95.35199737548828 -134.7550048828125,-95.35199737548828 C-135.81900024414062,-91.54399871826172 -136.86900329589844,-87.73100280761719 -137.9290008544922,-83.9209976196289 C-150.69900512695312,-83.91799926757812 -163.46800231933594,-83.91899871826172 -176.23800659179688,-83.91999816894531 C-175.17999267578125,-87.73100280761719 -174.12899780273438,-91.54399871826172 -173.06100463867188,-95.35199737548828z M-206.302001953125,-43.319000244140625 C-206.302001953125,-43.319000244140625 -229.25799560546875,-43.319000244140625 -229.25799560546875,-43.319000244140625 C-240.1529998779297,-43.319000244140625 -238.51199340820312,-51.40299987792969 -238.0679931640625,-53.00400161743164 C-234.1540069580078,-67.12000274658203 -230.23599243164062,-81.23500061035156 -226.32400512695312,-95.35199737548828 C-226.32400512695312,-95.35199737548828 -226.41400146484375,-95.35199737548828 -226.41400146484375,-95.35199737548828 C-226.41400146484375,-95.35199737548828 -208.58799743652344,-95.35199737548828 -208.58799743652344,-95.35199737548828 C-212.12899780273438,-82.62200164794922 -215.6510009765625,-69.88600158691406 -219.18800354003906,-57.15399932861328 C-219.43699645996094,-56.25699996948242 -219.10699462890625,-54.83300018310547 -216.98199462890625,-54.777000427246094 C-216.05599975585938,-54.75299835205078 -215.1300048828125,-54.77299880981445 -214.2030029296875,-54.76599884033203 C-211.02099609375,-54.74100112915039 -210.33900451660156,-55.29499816894531 -209.95700073242188,-56.66899871826172 C-206.3719940185547,-69.56300354003906 -202.80299377441406,-82.45999908447266 -199.21299743652344,-95.35199737548828 C-199.21299743652344,-95.35199737548828 -181.4929962158203,-95.35199737548828 -181.4929962158203,-95.35199737548828 C-185.3419952392578,-81.51399993896484 -193.5489959716797,-51.882999420166016 -193.98800659179688,-50.38999938964844 C-194.62100219726562,-48.23699951171875 -195.69900512695312,-43.319000244140625 -206.302001953125,-43.319000244140625z M-143.302001953125,-64.57099914550781 C-150.1649932861328,-64.56800079345703 -157.02699279785156,-64.57099914550781 -163.88999938964844,-64.56900024414062 C-165.85699462890625,-57.486000061035156 -167.81900024414062,-50.402000427246094 -169.78500366210938,-43.319000244140625 C-169.78500366210938,-43.319000244140625 -169.66400146484375,-43.319000244140625 -169.66400146484375,-43.319000244140625 C-169.66400146484375,-43.319000244140625 -187.51300048828125,-43.319000244140625 -187.51300048828125,-43.319000244140625 C-184.48199462890625,-54.22100067138672 -181.46299743652344,-65.125 -178.43699645996094,-76.02899932861328 C-165.6649932861328,-76.03099822998047 -152.8939971923828,-76.02999877929688 -140.1219940185547,-76.02899932861328 C-141.1820068359375,-72.20899963378906 -142.24200439453125,-68.38999938964844 -143.302001953125,-64.57099914550781z M-91.5459976196289,-83.9209976196289 C-97.83300018310547,-83.91899871826172 -104.12200164794922,-83.9209976196289 -110.40899658203125,-83.91999816894531 C-112.67500305175781,-83.91999816894531 -113.87799835205078,-83.71600341796875 -114.40299987792969,-81.8239974975586 C-116.6969985961914,-73.552001953125 -118.99299621582031,-65.2770004272461 -121.28500366210938,-57.00400161743164 C-121.43199920654297,-56.4739990234375 -121.35600280761719,-54.768001556396484 -118.74600219726562,-54.766998291015625 C-111.89800262451172,-54.76499938964844 -105.05000305175781,-54.766998291015625 -98.2020034790039,-54.76499938964844 C-99.25900268554688,-50.94900131225586 -100.31800079345703,-47.1349983215332 -101.37699890136719,-43.319000244140625 C-101.37699890136719,-43.319000244140625 -130.48199462890625,-43.319000244140625 -130.48199462890625,-43.319000244140625 C-136.86000061035156,-43.319000244140625 -140.9219970703125,-47.112998962402344 -139.53500366210938,-52.11000061035156 C-136.2449951171875,-63.96500015258789 -132.9550018310547,-75.81900024414062 -129.66299438476562,-87.67400360107422 C-129.0679931640625,-89.81600189208984 -128.05799865722656,-95.35199737548828 -117.45899963378906,-95.35199737548828 C-117.45899963378906,-95.35199737548828 -88.4000015258789,-95.35199737548828 -88.4000015258789,-95.35199737548828 C-88.81900024414062,-93.62300109863281 -90.96499633789062,-86.01399993896484 -91.5459976196289,-83.9209976196289z"></path></g><g opacity="1" transform="matrix(1,0,0,1,0,0)"><path fill="rgb(0,0,0)" fill-opacity="1" d=" M245.76800537109375,-171.9340057373047 C245.76800537109375,-171.9340057373047 233.25999450683594,-171.9340057373047 233.25999450683594,-171.9340057373047 C227.60899353027344,-171.9340057373047 223.02699279785156,-167.35299682617188 223.02699279785156,-161.70199584960938 C223.02699279785156,-161.70199584960938 223.02699279785156,-142.7220001220703 223.02699279785156,-142.7220001220703 C223.125,-136.0760040283203 207.55999755859375,-136.072998046875 207.65699768066406,-142.7220001220703 C207.65699768066406,-142.7220001220703 207.65699768066406,-169.89999389648438 207.65699768066406,-169.89999389648438 C207.65699768066406,-175.55099487304688 204.10000610351562,-180.1320037841797 198.44900512695312,-180.1320037841797 C198.44900512695312,-180.1320037841797 181.84100341796875,-180.1320037841797 181.84100341796875,-180.1320037841797 C176.19000244140625,-180.1320037841797 171.60899353027344,-175.55099487304688 171.60899353027344,-169.89999389648438 C171.60899353027344,-169.89999389648438 171.60899353027344,-142.7220001220703 171.60899353027344,-142.7220001220703 C171.70700073242188,-136.0760040283203 156.14100646972656,-136.072998046875 156.23800659179688,-142.7220001220703 C156.23800659179688,-142.7220001220703 156.23800659179688,-169.89999389648438 156.23800659179688,-169.89999389648438 C156.23800659179688,-175.55099487304688 151.65699768066406,-180.1320037841797 146.00599670410156,-180.1320037841797 C146.00599670410156,-180.1320037841797 129.3979949951172,-180.1320037841797 129.3979949951172,-180.1320037841797 C123.74700164794922,-180.1320037841797 119.16500091552734,-175.55099487304688 119.16500091552734,-169.89999389648438 C119.16500091552734,-169.89999389648438 119.16500091552734,-142.7220001220703 119.16500091552734,-142.7220001220703 C119.26300048828125,-136.0760040283203 104.7229995727539,-136.072998046875 104.81999969482422,-142.7220001220703 C104.81999969482422,-142.7220001220703 104.81999969482422,-161.70199584960938 104.81999969482422,-161.70199584960938 C104.81999969482422,-167.35299682617188 100.23799896240234,-171.9340057373047 94.58699798583984,-171.9340057373047 C94.58699798583984,-171.9340057373047 81.05400085449219,-171.9340057373047 81.05400085449219,-171.9340057373047 C75.40299987792969,-171.9340057373047 70.8219985961914,-167.35299682617188 70.8219985961914,-161.70199584960938 C70.8219985961914,-161.70199584960938 70.8219985961914,-23.275999069213867 70.8219985961914,-23.275999069213867 C70.8219985961914,-20.381000518798828 67.31700134277344,-20.12299919128418 66.63500213623047,-23.059999465942383 C66.63500213623047,-23.059999465942383 58.51100158691406,-62.85499954223633 58.51100158691406,-62.85499954223633 C57.777000427246094,-66.74099731445312 55.32500076293945,-70.8489990234375 51.20399856567383,-72.12899780273438 C51.20399856567383,-72.12899780273438 35.16999816894531,-75.51899719238281 35.16999816894531,-75.51899719238281 C30.295000076293945,-77.03299713134766 25.047000885009766,-74.74099731445312 22.8439998626709,-70.13600158691406 C22.8439998626709,-70.13600158691406 9.243000030517578,-41.696998596191406 9.243000030517578,-41.696998596191406 C7.433000087738037,-37.9109992980957 8.104999542236328,-33.404998779296875 10.940999984741211,-30.312000274658203 C10.940999984741211,-30.312000274658203 56.834999084472656,19.738000869750977 56.834999084472656,19.738000869750977 C66.0999984741211,29.841999053955078 73.69100189208984,41.36000061035156 79.3219985961914,53.85900115966797 C79.3219985961914,53.85900115966797 87.05500030517578,70 87.05500030517578,70 C88.64299774169922,73.5250015258789 92.1500015258789,75.79100036621094 96.01599884033203,75.79100036621094 C96.01599884033203,75.79100036621094 227.9739990234375,75.79100036621094 227.9739990234375,75.79100036621094 C232.4080047607422,75.79100036621094 236.29400634765625,72.8219985961914 237.45799255371094,68.54299926757812 C237.45799255371094,68.54299926757812 250.36900329589844,18.868000030517578 250.36900329589844,18.868000030517578 C252.18899536132812,12.180000305175781 256,-10.496000289916992 256,-26.464000701904297 C256,-26.464000701904297 256,-161.70199584960938 256,-161.70199584960938 C256,-167.35299682617188 251.41900634765625,-171.9340057373047 245.76800537109375,-171.9340057373047z M153.5590057373047,-95.35199737548828 C153.5590057373047,-95.35199737548828 191.86399841308594,-95.35199737548828 191.86399841308594,-95.35199737548828 C190.8000030517578,-91.54399871826172 189.75,-87.73100280761719 188.69000244140625,-83.9209976196289 C175.9199981689453,-83.91799926757812 163.15199279785156,-83.91899871826172 150.3820037841797,-83.91999816894531 C151.44000244140625,-87.73100280761719 152.49099731445312,-91.54399871826172 153.5590057373047,-95.35199737548828z M120.31700134277344,-43.319000244140625 C120.31700134277344,-43.319000244140625 97.36100006103516,-43.319000244140625 97.36100006103516,-43.319000244140625 C86.46600341796875,-43.319000244140625 88.10700225830078,-51.40299987792969 88.5510025024414,-53.00400161743164 C92.46499633789062,-67.12000274658203 96.38400268554688,-81.23500061035156 100.2959976196289,-95.35199737548828 C100.2959976196289,-95.35199737548828 100.20600128173828,-95.35199737548828 100.20600128173828,-95.35199737548828 C100.20600128173828,-95.35199737548828 118.03099822998047,-95.35199737548828 118.03099822998047,-95.35199737548828 C114.48999786376953,-82.62200164794922 110.96800231933594,-69.88600158691406 107.43099975585938,-57.15399932861328 C107.18199920654297,-56.25699996948242 107.51200103759766,-54.83300018310547 109.63700103759766,-54.777000427246094 C110.56300354003906,-54.75299835205078 111.48899841308594,-54.77299880981445 112.41600036621094,-54.76599884033203 C115.5979995727539,-54.74100112915039 116.27999877929688,-55.29499816894531 116.66200256347656,-56.66899871826172 C120.24700164794922,-69.56300354003906 123.81600189208984,-82.45999908447266 127.40599822998047,-95.35199737548828 C127.40599822998047,-95.35199737548828 145.12600708007812,-95.35199737548828 145.12600708007812,-95.35199737548828 C141.27699279785156,-81.51399993896484 133.07000732421875,-51.882999420166016 132.63099670410156,-50.38999938964844 C131.9980010986328,-48.23699951171875 130.9199981689453,-43.319000244140625 120.31700134277344,-43.319000244140625z M183.31700134277344,-64.57099914550781 C176.45399475097656,-64.56800079345703 169.5919952392578,-64.57099914550781 162.72900390625,-64.56900024414062 C160.76199340820312,-57.486000061035156 158.80099487304688,-50.402000427246094 156.83399963378906,-43.319000244140625 C156.83399963378906,-43.319000244140625 156.9550018310547,-43.319000244140625 156.9550018310547,-43.319000244140625 C156.9550018310547,-43.319000244140625 139.10699462890625,-43.319000244140625 139.10699462890625,-43.319000244140625 C142.13800048828125,-54.22100067138672 145.15699768066406,-65.125 148.18299865722656,-76.02899932861328 C160.9550018310547,-76.03099822998047 173.7259979248047,-76.02999877929688 186.4980010986328,-76.02899932861328 C185.43800354003906,-72.20899963378906 184.3769989013672,-68.38999938964844 183.31700134277344,-64.57099914550781z M235.072998046875,-83.9209976196289 C228.78599548339844,-83.91899871826172 222.4980010986328,-83.9209976196289 216.21099853515625,-83.91999816894531 C213.9459991455078,-83.91999816894531 212.74200439453125,-83.71600341796875 212.2169952392578,-81.8239974975586 C209.92300415039062,-73.552001953125 207.62600708007812,-65.2770004272461 205.33399963378906,-57.00400161743164 C205.18699645996094,-56.4739990234375 205.26400756835938,-54.768001556396484 207.87399291992188,-54.766998291015625 C214.7220001220703,-54.76499938964844 221.56900024414062,-54.766998291015625 228.41700744628906,-54.76499938964844 C227.36000061035156,-50.94900131225586 226.30099487304688,-47.1349983215332 225.24200439453125,-43.319000244140625 C225.24200439453125,-43.319000244140625 196.13699340820312,-43.319000244140625 196.13699340820312,-43.319000244140625 C189.75900268554688,-43.319000244140625 185.69700622558594,-47.112998962402344 187.08399963378906,-52.11000061035156 C190.37399291992188,-63.96500015258789 193.66400146484375,-75.81900024414062 196.95599365234375,-87.67400360107422 C197.55099487304688,-89.81600189208984 198.56100463867188,-95.35199737548828 209.16000366210938,-95.35199737548828 C209.16000366210938,-95.35199737548828 238.218994140625,-95.35199737548828 238.218994140625,-95.35199737548828 C237.8000030517578,-93.62300109863281 235.6540069580078,-86.01399993896484 235.072998046875,-83.9209976196289z"></path></g></g></g></svg>