<svg xmlns="http://www.w3.org/2000/svg" xmlns:xlink="http://www.w3.org/1999/xlink" viewBox="0 0 512 512" width="512" height="512" style="width: 100%; height: 100%; transform: translate3d(0,0,0);" preserveAspectRatio="xMidYMid meet"><defs><clipPath id="__lottie_element_759"><rect width="512" height="512" x="0" y="0"></rect></clipPath></defs><g clip-path="url(#__lottie_element_759)"><g id="d20a0aff" style="display: block;" transform="matrix(1,0,0,1,256,256)" opacity="1"><g opacity="1" transform="matrix(1,0,0,1,0,0)"><path fill="rgb(0,0,0)" fill-opacity="1" d=" M-215.01800537109375,-88.79199981689453 C-215.01800537109375,-88.79199981689453 -154.1840057373047,-88.79199981689453 -154.1840057373047,-88.79199981689453 C-166.2689971923828,-45.345001220703125 -178.28599548339844,-1.8799999952316284 -190.35899353027344,41.573001861572266 C-191.2100067138672,44.6349983215332 -190.08399963378906,49.49700164794922 -182.8300018310547,49.6870002746582 C-179.6699981689453,49.77000045776367 -176.51100158691406,49.69900131225586 -173.34800720214844,49.722999572753906 C-162.49000549316406,49.80699920654297 -160.16000366210938,47.91999816894531 -158.8560028076172,43.229000091552734 C-146.62100219726562,-0.7749999761581421 -134.4409942626953,-44.79399871826172 -122.18800354003906,-88.79199981689453 C-122.18800354003906,-88.79199981689453 -61.71200180053711,-88.79199981689453 -61.71200180053711,-88.79199981689453 C-74.8479995727539,-41.566001892089844 -102.85800170898438,59.56399917602539 -104.35600280761719,64.65899658203125 C-106.51699829101562,72.00599670410156 -110.19499969482422,88.79199981689453 -146.3820037841797,88.79199981689453 C-146.3820037841797,88.79199981689453 -224.7270050048828,88.79199981689453 -224.7270050048828,88.79199981689453 C-261.90899658203125,88.79199981689453 -256.3089904785156,61.20000076293945 -254.79400634765625,55.73699951171875 C-241.43499755859375,7.563000202178955 -228.06399536132812,-40.61199951171875 -214.71200561523438,-88.78900146484375 C-214.71200561523438,-88.78900146484375 -215.01800537109375,-88.79199981689453 -215.01800537109375,-88.79199981689453z"></path></g><g opacity="1" transform="matrix(1,0,0,1,0,0)"><path fill="rgb(0,0,0)" fill-opacity="1" d=" M-32.933998107910156,-88.79199981689453 C-32.933998107910156,-88.79199981689453 97.7979965209961,-88.79199981689453 97.7979965209961,-88.79199981689453 C94.16699981689453,-75.79499816894531 90.58100128173828,-62.78099822998047 86.96499633789062,-49.77799987792969 C43.38399887084961,-49.76900100708008 -0.19499999284744263,-49.77199935913086 -43.7760009765625,-49.775001525878906 C-40.16600036621094,-62.78099822998047 -36.577999114990234,-75.79499816894531 -32.933998107910156,-88.79199981689453z"></path></g><g opacity="1" transform="matrix(1,0,0,1,0,0)"><path fill="rgb(0,0,0)" fill-opacity="1" d=" M156.8260040283203,-88.79199981689453 C156.8260040283203,-88.79199981689453 256,-88.79199981689453 256,-88.79199981689453 C254.57000732421875,-82.89199829101562 247.2429962158203,-56.92100143432617 245.26199340820312,-49.77799987792969 C223.80499267578125,-49.77199935913086 202.34500122070312,-49.77799987792969 180.88800048828125,-49.775001525878906 C173.15699768066406,-49.77399826049805 169.0469970703125,-49.07699966430664 167.2570037841797,-42.619998931884766 C159.42799377441406,-14.38700008392334 151.58999633789062,13.847999572753906 143.76699829101562,42.08399963378906 C143.26600646972656,43.89400100708008 143.52699279785156,49.71799850463867 152.43499755859375,49.720001220703125 C175.80599975585938,49.72600173950195 199.17599487304688,49.720001220703125 222.5469970703125,49.72600173950195 C218.94000244140625,62.74800109863281 215.32400512695312,75.7699966430664 211.71099853515625,88.79199981689453 C211.71099853515625,88.79199981689453 112.38099670410156,88.79199981689453 112.38099670410156,88.79199981689453 C90.61299896240234,88.79199981689453 76.75299835205078,75.84200286865234 81.48500061035156,58.78900146484375 C92.71299743652344,18.33099937438965 103.94200134277344,-22.128000259399414 115.1760025024414,-62.58599853515625 C117.20500183105469,-69.8949966430664 120.65499877929688,-88.79199981689453 156.8260040283203,-88.79199981689453z"></path></g><g opacity="1" transform="matrix(1,0,0,1,0,0)"><path fill="rgb(0,0,0)" fill-opacity="1" d=" M-51.279998779296875,-22.8439998626709 C-7.691999912261963,-22.850000381469727 35.89400100708008,-22.847000122070312 79.48200225830078,-22.8439998626709 C75.86599731445312,-9.807000160217285 72.24700164794922,3.2269999980926514 68.62799835205078,16.26099967956543 C45.20500183105469,16.270000457763672 21.785999298095703,16.26099967956543 -1.6369999647140503,16.267000198364258 C-8.347999572753906,40.439998626708984 -15.045000076293945,64.61599731445312 -21.756000518798828,88.78900146484375 C-21.756000518798828,88.78900146484375 -21.341999053955078,88.79199981689453 -21.341999053955078,88.79199981689453 C-21.341999053955078,88.79199981689453 -82.25599670410156,88.79199981689453 -82.25599670410156,88.79199981689453 C-71.91000366210938,51.584999084472656 -61.606998443603516,14.369000434875488 -51.279998779296875,-22.8439998626709z"></path></g></g></g></svg>