<svg xmlns="http://www.w3.org/2000/svg" xmlns:xlink="http://www.w3.org/1999/xlink" viewBox="0 0 512 512" width="512" height="512" style="width: 100%; height: 100%; transform: translate3d(0,0,0);" preserveAspectRatio="xMidYMid meet"><defs><clipPath id="__lottie_element_699"><rect width="512" height="512" x="0" y="0"></rect></clipPath></defs><g clip-path="url(#__lottie_element_699)"><g style="display: block;" transform="matrix(1,0,0,1,256,256)" opacity="1"><g opacity="1" transform="matrix(1,0,0,1,0,0)"><path fill="rgb(0,0,0)" fill-opacity="1" d=" M255.66200256347656,191.8679962158203 C255.66200256347656,191.8679962158203 253.36199951171875,181.2969970703125 253.36199951171875,181.2969970703125 C252.1840057373047,175.88400268554688 246.90199279785156,172.406005859375 241.46600341796875,173.4720001220703 C204.75599670410156,180.67100524902344 151.8560028076172,190.96499633789062 115.69200134277344,197.99400329589844 C111.7249984741211,198.76499938964844 110.14399719238281,193.08099365234375 113.93800354003906,191.68899536132812 C113.93800354003906,191.68899536132812 237.38299560546875,150.63499450683594 237.38299560546875,150.63499450683594 C242.31900024414062,148.99400329589844 245.2220001220703,143.8939971923828 244.11599731445312,138.81199645996094 C244.11599731445312,138.81199645996094 176.21099853515625,-173.21600341796875 176.21099853515625,-173.21600341796875 C174.75,-179.9290008544922 168.8090057373047,-184.71600341796875 161.93899536132812,-184.71600341796875 C161.93899536132812,-184.71600341796875 -161.93899536132812,-184.71600341796875 -161.93899536132812,-184.71600341796875 C-168.8090057373047,-184.71600341796875 -174.75,-179.9290008544922 -176.21099853515625,-173.21600341796875 C-176.21099853515625,-173.21600341796875 -243.17799377441406,137.32000732421875 -243.17799377441406,137.32000732421875 C-244.27699279785156,142.37100219726562 -241.41600036621094,147.4429931640625 -236.52499389648438,149.11500549316406 C-236.52499389648438,149.11500549316406 -106.43800354003906,191.68899536132812 -106.43800354003906,191.68899536132812 C-102.64399719238281,193.08099365234375 -104.2249984741211,198.76499938964844 -108.19200134277344,197.99400329589844 C-146.79200744628906,190.49200439453125 -204.45700073242188,179.2689971923828 -241.1510009765625,172.06100463867188 C-246.58799743652344,170.9929962158203 -251.8769989013672,174.4709930419922 -253.05499267578125,179.88499450683594 C-253.05499267578125,179.88499450683594 -255.66200256347656,191.8679962158203 -255.66200256347656,191.8679962158203 C-257.427001953125,199.97999572753906 -252.08599853515625,207.92999267578125 -243.90899658203125,209.36099243164062 C-243.90899658203125,209.36099243164062 -62.965999603271484,241.0279998779297 -62.965999603271484,241.0279998779297 C-55.5620002746582,242.32400512695312 -48.38399887084961,237.78900146484375 -46.374000549316406,230.54600524902344 C-46.374000549316406,230.54600524902344 -15.180000305175781,118.11799621582031 -15.180000305175781,118.11799621582031 C-11.196999549865723,102.35600280761719 11.196999549865723,102.35600280761719 15.180000305175781,118.11799621582031 C15.180000305175781,118.11799621582031 46.374000549316406,230.54600524902344 46.374000549316406,230.54600524902344 C48.38399887084961,237.78900146484375 55.5620002746582,242.32400512695312 62.965999603271484,241.0279998779297 C62.965999603271484,241.0279998779297 243.90899658203125,209.36099243164062 243.90899658203125,209.36099243164062 C252.08599853515625,207.92999267578125 257.427001953125,199.97999572753906 255.66200256347656,191.8679962158203z M-23.535999298095703,-86.35700225830078 C-23.535999298095703,-86.35700225830078 53.15800094604492,-86.35700225830078 53.15800094604492,-86.35700225830078 C51.02799987792969,-78.73200225830078 48.92399978637695,-71.0979995727539 46.803001403808594,-63.470001220703125 C21.236000061035156,-63.46500015258789 -4.328999996185303,-63.465999603271484 -29.895999908447266,-63.46799850463867 C-27.777999877929688,-71.0979995727539 -25.67300033569336,-78.73200225830078 -23.535999298095703,-86.35700225830078z M-65.43499755859375,3.6649999618530273 C-66.7030029296875,7.974999904632568 -68.86100006103516,17.82200050354004 -90.08999633789062,17.82200050354004 C-90.08999633789062,17.82200050354004 -136.05099487304688,17.82200050354004 -136.05099487304688,17.82200050354004 C-157.86399841308594,17.82200050354004 -154.5780029296875,1.6360000371932983 -153.68899536132812,-1.569000005722046 C-145.8520050048828,-29.829999923706055 -138.00799560546875,-58.09199905395508 -130.1750030517578,-86.3550033569336 C-130.1750030517578,-86.3550033569336 -130.35499572753906,-86.35700225830078 -130.35499572753906,-86.35700225830078 C-130.35499572753906,-86.35700225830078 -94.66699981689453,-86.35700225830078 -94.66699981689453,-86.35700225830078 C-101.75700378417969,-60.86899948120117 -108.80699920654297,-35.37099838256836 -115.88899993896484,-9.878999710083008 C-116.38800048828125,-8.083000183105469 -115.72699737548828,-5.230000019073486 -111.47200012207031,-5.11899995803833 C-109.61799621582031,-5.071000099182129 -107.76399993896484,-5.111000061035156 -105.90899658203125,-5.0970001220703125 C-99.53900146484375,-5.047999858856201 -98.1729965209961,-6.15500020980835 -97.40799713134766,-8.906999588012695 C-90.2300033569336,-34.72200012207031 -83.08399963378906,-60.54600143432617 -75.89600372314453,-86.35700225830078 C-75.89600372314453,-86.35700225830078 -40.417999267578125,-86.35700225830078 -40.417999267578125,-86.35700225830078 C-48.124000549316406,-58.652000427246094 -64.55599975585938,0.6759999990463257 -65.43499755859375,3.6649999618530273z M36.04600143432617,-24.72800064086914 C22.30500030517578,-24.722999572753906 8.565999984741211,-24.72800064086914 -5.175000190734863,-24.724000930786133 C-9.112000465393066,-10.543000221252441 -13.041000366210938,3.640000104904175 -16.97800064086914,17.820999145507812 C-16.97800064086914,17.820999145507812 -16.735000610351562,17.82200050354004 -16.735000610351562,17.82200050354004 C-16.735000610351562,17.82200050354004 -52.470001220703125,17.82200050354004 -52.470001220703125,17.82200050354004 C-46.4010009765625,-4.005000114440918 -40.356998443603516,-25.83799934387207 -34.29800033569336,-47.66899871826172 C-8.72700023651123,-47.67300033569336 16.841999053955078,-47.67100143432617 42.41299819946289,-47.66899871826172 C40.29199981689453,-40.020999908447266 38.16899871826172,-32.374000549316406 36.04600143432617,-24.72800064086914z M61.7130012512207,17.82200050354004 C48.94300079345703,17.82200050354004 40.8120002746582,10.225000381469727 43.5880012512207,0.22100000083446503 C50.17499923706055,-23.513999938964844 56.76300048828125,-47.24800109863281 63.35300064086914,-70.98300170898438 C64.54399871826172,-75.27100372314453 66.56700134277344,-86.35700225830078 87.78700256347656,-86.35700225830078 C87.78700256347656,-86.35700225830078 145.96800231933594,-86.35700225830078 145.96800231933594,-86.35700225830078 C145.12899780273438,-82.89600372314453 140.8300018310547,-67.66100311279297 139.66799926757812,-63.470001220703125 C127.08000183105469,-63.465999603271484 114.49099731445312,-63.470001220703125 101.90299987792969,-63.46799850463867 C97.36699676513672,-63.46699905395508 94.95700073242188,-63.05799865722656 93.90699768066406,-59.27000045776367 C89.31400299072266,-42.707000732421875 84.71499633789062,-26.14299964904785 80.1259994506836,-9.579000473022461 C79.83200073242188,-8.517000198364258 79.98500061035156,-5.099999904632568 85.21099853515625,-5.098999977111816 C98.9209976196289,-5.09499979019165 112.63200378417969,-5.098999977111816 126.34200286865234,-5.09499979019165 C124.22599792480469,2.5439999103546143 122.10600280761719,10.182999610900879 119.98600006103516,17.82200050354004 C119.98600006103516,17.82200050354004 61.7130012512207,17.82200050354004 61.7130012512207,17.82200050354004z"></path></g><g opacity="1" transform="matrix(1,0,0,1,0,0)"><path fill="rgb(0,0,0)" fill-opacity="1" d=" M164.95199584960938,-241.2480010986328 C164.95199584960938,-241.2480010986328 -165.0229949951172,-241.2480010986328 -165.0229949951172,-241.2480010986328 C-175.11500549316406,-241.2480010986328 -175.24099731445312,-202.4340057373047 -165.0229949951172,-202.4340057373047 C-165.0229949951172,-202.4340057373047 164.95199584960938,-202.4340057373047 164.95199584960938,-202.4340057373047 C175.3489990234375,-202.4340057373047 175.05299377441406,-241.2480010986328 164.95199584960938,-241.2480010986328z"></path></g></g></g></svg>