<svg xmlns="http://www.w3.org/2000/svg" xmlns:xlink="http://www.w3.org/1999/xlink" viewBox="0 0 512 512" width="512" height="512" style="width: 100%; height: 100%; transform: translate3d(0,0,0);" preserveAspectRatio="xMidYMid meet"><defs><clipPath id="__lottie_element_51380"><rect width="512" height="512" x="0" y="0"></rect></clipPath></defs><g clip-path="url(#__lottie_element_51380)"><g style="display: block;" transform="matrix(1,0,0,1,0,0)" opacity="1"><g opacity="1" transform="matrix(1,0,0,1,215.3350067138672,191.05999755859375)"><path fill="rgb(0,0,0)" fill-opacity="1" d=" M66.947998046875,-66.5469970703125 C52.60599899291992,-96.42400360107422 -36.959999084472656,-126.47899627685547 -91.3499984741211,-69.5459976196289 C-147.36199951171875,-10.914999961853027 -125.76300048828125,70.53500366210938 -91.07499694824219,86.74400329589844 C-9.335000038146973,124.94000244140625 103.66500091552734,9.9399995803833 66.947998046875,-66.5469970703125z M24.739999771118164,-7.195000171661377 C8.947999954223633,-26.871999740600586 -18.819000244140625,-33.66600036621094 -44.54199981689453,-29.298999786376953 C-49.53799819946289,-28.451000213623047 -29.16900062561035,-73.43900299072266 -21.506000518798828,-74.85299682617188 C-4.122000217437744,-78.05999755859375 25.93000030517578,-67.96900177001953 39.01499938964844,-54.39500045776367 C44.665000915527344,-48.53300094604492 27.43600082397461,-3.8359999656677246 24.739999771118164,-7.195000171661377z"></path></g><g opacity="1" transform="matrix(1,0,0,1,265.4949951171875,263.9849853515625)"><path fill="rgb(0,0,0)" fill-opacity="1" d=" M215.00100708007812,-223.07699584960938 C178.5050048828125,-255.98500061035156 25.131000518798828,-182.36900329589844 29.757999420166016,-176.0399932861328 C60.505001068115234,-133.98500061035156 49.321998596191406,-67.92900085449219 2.365999937057495,-15.824999809265137 C-50.5880012512207,42.933998107910156 -136.4949951171875,54.01499938964844 -174.16000366210938,19.874000549316406 C-180.28700256347656,14.319999694824219 -279.49798583984375,161.88400268554688 -233.53799438476562,207.33700561523438 C-200.4949951171875,240.01499938964844 -31.4950008392334,212.01499938964844 100.56199645996094,77.1449966430664 C219.36199951171875,-44.185001373291016 251.67999267578125,-190.0030059814453 215.00100708007812,-223.07699584960938z M-143.76600646972656,128.35299682617188 C-148.88800048828125,137.77099609375 -159.16400146484375,142.01499938964844 -166.718994140625,137.8300018310547 C-174.2689971923828,133.64700317382812 -176.2449951171875,122.625 -171.1179962158203,113.20899963378906 C-165.99400329589844,103.79900360107422 -155.7209930419922,99.56500244140625 -148.16900634765625,103.74299621582031 C-140.61199951171875,107.92400360107422 -138.64700317382812,118.94000244140625 -143.76600646972656,128.35299682617188z M49.72999954223633,46.979000091552734 C42.1870002746582,53.91699981689453 31.51099967956543,54.513999938964844 25.88800048828125,48.316001892089844 C20.267000198364258,42.119998931884766 21.81399917602539,31.481000900268555 29.358999252319336,24.54400062561035 C36.89699935913086,17.613000869750977 47.56999969482422,17.013999938964844 53.194000244140625,23.20599937438965 C58.82099914550781,29.400999069213867 57.266998291015625,40.04600143432617 49.72999954223633,46.979000091552734z M142.0989990234375,-147.59500122070312 C132.11399841308594,-142.58200073242188 120.83699798583984,-144.91000366210938 116.91600036621094,-152.79100036621094 C112.99800109863281,-160.66600036621094 117.91899871826172,-171.11700439453125 127.90399932861328,-176.1300048828125 C137.88900756835938,-181.14300537109375 149.15499877929688,-178.81199645996094 153.0780029296875,-170.94000244140625 C157.0050048828125,-163.05999755859375 152.08399963378906,-152.60800170898438 142.0989990234375,-147.59500122070312z"></path></g><g opacity="1" transform="matrix(1,0,0,1,321.46099853515625,352.7829895019531)"><path fill="rgb(0,0,0)" fill-opacity="1" d=" M-29.951000213623047,75.87799835205078 C-33.99100112915039,67.06400299072266 7.039000034332275,46.21699905395508 43.16299819946289,10.567999839782715 C71.73200225830078,-17.625 96.19999694824219,-54.262001037597656 104.24299621582031,-50.32699966430664 C121.11499786376953,-42.071998596191406 109.14700317382812,-1.1829999685287476 64.38600158691406,43.47100067138672 C22.038999557495117,85.71700286865234 -22.461000442504883,92.21700286865234 -29.951000213623047,75.87799835205078z"></path></g></g></g></svg>