<svg xmlns="http://www.w3.org/2000/svg" xmlns:xlink="http://www.w3.org/1999/xlink" viewBox="0 0 512 512" width="512" height="512" style="width: 100%; height: 100%; transform: translate3d(0,0,0);" preserveAspectRatio="xMidYMid meet"><defs><clipPath id="__lottie_element_52846"><rect width="512" height="512" x="0" y="0"></rect></clipPath></defs><g clip-path="url(#__lottie_element_52846)"><g style="display: block;" transform="matrix(1,0,0,1,0,0)" opacity="1"><g opacity="1" transform="matrix(1,0,0,1,249.8520050048828,260.3070068359375)"><path fill="rgb(0,0,0)" fill-opacity="1" d=" M241.9219970703125,7.889999866485596 C241.9219970703125,7.889999866485596 198.1479949951172,-16.30699920654297 156.0709991455078,-115.92500305175781 C142.7259979248047,-147.5189971923828 95.14800262451172,-187.3070068359375 58.33599853515625,-189.53700256347656 C58.33599853515625,-189.53700256347656 57.494998931884766,-230.83799743652344 4.199999809265137,-251.6929931640625 C4.199999809265137,-251.6929931640625 -20.851999282836914,-227.3070068359375 -22.288999557495117,-194.23300170898438 C-22.288999557495117,-194.23300170898438 -68.85199737548828,-197.3070068359375 -87.33399963378906,-174.1649932861328 C-87.33399963378906,-174.1649932861328 -223.16200256347656,-224.01600646972656 -223.16200256347656,-224.01600646972656 C-226.906005859375,-225.54800415039062 -229.8820037841797,-220.61900329589844 -226.78199768066406,-218.0189971923828 C-226.78199768066406,-218.0189971923828 -140.35400390625,-123.98699951171875 -140.35400390625,-123.98699951171875 C-140.35400390625,-123.98699951171875 -151.8520050048828,-103.30699920654297 -167.64199829101562,-104.03600311279297 C-167.64199829101562,-104.03600311279297 -168.8520050048828,-74.30699920654297 -142.4510040283203,-73.59500122070312 C-142.4510040283203,-73.59500122070312 -222.59100341796875,20.284000396728516 -234.7570037841797,54.172000885009766 C-246.9219970703125,88.05999755859375 -163.45599365234375,151.45799255371094 -137.38800048828125,137.55499267578125 C-111.31999969482422,123.65299987792969 -99.9749984741211,98.05999755859375 -74.7760009765625,98.05999755859375 C-49.57699966430664,98.05999755859375 23.148000717163086,88.69300079345703 41.43299865722656,43.904998779296875 C41.43299865722656,43.904998779296875 50.14799880981445,73.69300079345703 0.7250000238418579,101.76399993896484 C0.7250000238418579,101.76399993896484 -7.959000110626221,159.40199279785156 -6.800000190734863,190.6840057373047 C-5.642000198364258,221.96499633789062 99.2030029296875,267.3500061035156 169.2969970703125,194.93899536132812 C239.39199829101562,122.52799987792969 231.281005859375,90.66699981689453 231.281005859375,90.66699981689453 C231.281005859375,90.66699981689453 211.00599670410156,59.38600158691406 211.00599670410156,59.38600158691406 C211.00599670410156,59.38600158691406 239.02499389648438,38.59299850463867 241.9219970703125,7.889999866485596z M-27.73900032043457,-64.80799865722656 C-23.5939998626709,-50.551998138427734 -64.85199737548828,-34.30699920654297 -62.61899948120117,-56.000999450683594 C-60.196998596191406,-79.53800201416016 -31.885000228881836,-79.06600189208984 -27.73900032043457,-64.80799865722656z M27.371000289916992,-164.7989959716797 C27.371000289916992,-164.7989959716797 18.972000122070312,-190.86700439453125 11.729999542236328,-218.67300415039062 C11.729999542236328,-218.67300415039062 39.5369987487793,-204.96800231933594 27.371000289916992,-164.7989959716797z"></path></g></g></g></svg>