<svg xmlns="http://www.w3.org/2000/svg" xmlns:xlink="http://www.w3.org/1999/xlink" viewBox="0 0 512 512" width="512" height="512" style="width: 100%; height: 100%; transform: translate3d(0,0,0);" preserveAspectRatio="xMidYMid meet"><defs><clipPath id="__lottie_element_52060"><rect width="512" height="512" x="0" y="0"></rect></clipPath></defs><g clip-path="url(#__lottie_element_52060)"><g style="display: block;" transform="matrix(1,0,0,1,247.95700073242188,264.3349914550781)" opacity="1"><g opacity="1" transform="matrix(1,0,0,1,0,0)"><path fill="rgb(4,5,52)" fill-opacity="1" d=" M-231.65499877929688,-205.48199462890625 C-244.43800354003906,-196.55799865722656 -154.2449951171875,-121.34100341796875 -154.2449951171875,-118.51699829101562 C-154.2449951171875,-115.69300079345703 -165.5399932861328,-111.1760025024414 -170.6219940185547,-95.36399841308594 C-175.70399475097656,-79.552001953125 -168.927001953125,-78.98799896240234 -179.0919952392578,-63.74100112915039 C-189.2570037841797,-48.49399948120117 -225.3979949951172,-11.657999992370605 -228.2220001220703,1.8300000429153442 C-231.04600524902344,15.317999839782715 -227.0919952392578,51.45899963378906 -210.1510009765625,62.1879997253418 C-193.2100067138672,72.91699981689453 -164.41000366210938,71.2239990234375 -152.55099487304688,65.01200103759766 C-140.69200134277344,58.79999923706055 -125.44599914550781,33.952999114990234 -113.02200317382812,30 C-100.5979995727539,26.047000885009766 -36.327999114990234,26.606000900268555 -18.82200050354004,0 C-1.315999984741211,-26.606000900268555 -3.009999990463257,-45.805999755859375 -7.5279998779296875,-62.18199920654297 C-12.045999526977539,-78.55799865722656 -27.29199981689453,-102.2760009765625 -23.339000701904297,-105.0999984741211 C-19.38599967956543,-107.92400360107422 2.63700008392334,-85.89900207519531 6.025000095367432,-54.2760009765625 C9.413000106811523,-22.652999877929688 2.2829999923706055,-15.538000106811523 5.000999927520752,-8.083999633789062 C7.718999862670898,-0.6299999952316284 12.907999992370605,24.917999267578125 4.436999797821045,45.24700164794922 C-4.000999927520752,65.49700164794922 -52.316001892089844,98.3290023803711 -62.48099899291992,137.29400634765625 C-72.64600372314453,176.25900268554688 -44.69300079345703,219.45799255371094 -35.375,217.76400756835938 C-26.05699920654297,216.07000732421875 -31.98699951171875,183.03500366210938 -7.421999931335449,172.8699951171875 C17.14299964904785,162.7050018310547 108.625,167.78799438476562 169.61300659179688,126.28199768066406 C230.6009979248047,84.7760009765625 250.3509979248047,-29.700000762939453 216.3350067138672,-88.93199920654297 C182.31900024414062,-148.16400146484375 167.9550018310547,-145.156005859375 168.78399658203125,-149.625 C169.61300659179688,-154.093994140625 192.0330047607422,-148.10299682617188 213.85800170898438,-170.15699768066406 C235.68299865722656,-192.21099853515625 232.2949981689453,-215.08200073242188 228.90699768066406,-217.6230010986328 C225.5189971923828,-220.16400146484375 227.21200561523438,-196.4459991455078 160.2949981689453,-190.51699829101562 C93.37699890136719,-184.58799743652344 16.295000076293945,-228.63400268554688 -64.17500305175781,-194.7519989013672 C-64.17500305175781,-194.7519989013672 -74.33899688720703,-206.61099243164062 -100.5979995727539,-209.99899291992188 C-126.85700225830078,-213.38699340820312 -152.2689971923828,-217.6219940185547 -154.80999755859375,-210.8459930419922 C-157.3509979248047,-204.07000732421875 -124.98999786376953,-158.63800048828125 -124.98999786376953,-158.63800048828125 C-124.98999786376953,-158.63800048828125 -218.71200561523438,-214.51699829101562 -231.65499877929688,-205.48199462890625z"></path></g></g></g></svg>