<svg xmlns="http://www.w3.org/2000/svg" xmlns:xlink="http://www.w3.org/1999/xlink" viewBox="0 0 512 512" width="512" height="512" style="width: 100%; height: 100%; transform: translate3d(0,0,0);" preserveAspectRatio="xMidYMid meet"><defs><clipPath id="__lottie_element_53199"><rect width="512" height="512" x="0" y="0"></rect></clipPath></defs><g clip-path="url(#__lottie_element_53199)"><g style="display: block;" transform="matrix(1,0,0,1,47.99800109863281,1.75)" opacity="1"><g opacity="1" transform="matrix(1,0,0,1,215.76100158691406,254.82000732421875)"><path fill="rgb(0,0,0)" fill-opacity="1" d=" M-195.75900268554688,154.42999267578125 C-230.75900268554688,137.42999267578125 -241.51100158691406,107.5459976196289 -236.75900268554688,86.43000030517578 C-230.68800354003906,59.45800018310547 -208.75900268554688,55.43000030517578 -206.75900268554688,9.430000305175781 C-205.00900268554688,-30.808000564575195 -228.42599487304688,-82.08000183105469 -214.75900268554688,-138.57000732421875 C-199.75900268554688,-200.57000732421875 -110.0250015258789,-236.2449951171875 -55.75899887084961,-241.57000732421875 C7.177999973297119,-247.74600219726562 50.24100112915039,-254.57000732421875 101.24099731445312,-214.57000732421875 C119.15499877929688,-200.52000427246094 159.61199951171875,-209.0850067138672 180.24099731445312,-202.57000732421875 C199.24099731445312,-196.57000732421875 215.24099731445312,-172.57000732421875 215.24099731445312,-157.57000732421875 C215.24099731445312,-148.52000427246094 227.51100158691406,-43.417999267578125 201.9239959716797,-19.95199966430664 C186.24099731445312,-5.570000171661377 123.18800354003906,-6.873000144958496 89.24099731445312,-1.5700000524520874 C51.917999267578125,4.261000156402588 16.617000579833984,15.142999649047852 -2.759000062942505,10.430000305175781 C-52.26900100708008,-1.6130000352859497 -56.75899887084961,-53.56999969482422 -56.75899887084961,-87.56999969482422 C-56.75899887084961,-129.677001953125 -37.6510009765625,-173.03799438476562 -42.75899887084961,-174.57000732421875 C-52.75899887084961,-177.57000732421875 -83.00499725341797,-138.8719940185547 -83.75900268554688,-87.56999969482422 C-84.75900268554688,-19.56999969482422 -51.534000396728516,-7.9730000495910645 -53.75899887084961,55.43000030517578 C-55.75899887084961,112.43000030517578 -77.75900268554688,143.42999267578125 -114.75900268554688,157.42999267578125 C-140.28700256347656,167.08900451660156 -146.98899841308594,158.63699340820312 -151.75900268554688,164.42999267578125 C-156.15499877929688,169.76800537109375 -159.15899658203125,190.94500732421875 -141.75900268554688,199.42999267578125 C-126.7229995727539,206.76199340820312 -113.5780029296875,199.03500366210938 -91.75900268554688,204.42999267578125 C-72.13200378417969,209.2830047607422 -65.34300231933594,221.67799377441406 -60.75899887084961,235.42999267578125 C-54.75899887084961,253.42999267578125 -84.43499755859375,254.5709991455078 -87.75900268554688,245.42999267578125 C-91.75900268554688,234.42999267578125 -105.53399658203125,232.63900756835938 -117.75900268554688,234.42999267578125 C-130.78500366210938,236.33900451660156 -147.75900268554688,243.42999267578125 -171.75900268554688,230.42999267578125 C-206.77699279785156,211.46200561523438 -188.78500366210938,157.81700134277344 -195.75900268554688,154.42999267578125z"></path></g><g opacity="1" transform="matrix(1,0,0,1,324.0589904785156,390.1029968261719)"><path fill="rgb(0,0,0)" fill-opacity="1" d=" M-58.55699920654297,-98.85299682617188 C-52.75,-108.56300354003906 15.642999649047852,-117.36499786376953 39.40999984741211,-117.73799896240234 C47.40999984741211,-117.86399841308594 87.79900360107422,-62.15800094604492 87.94300079345703,-21.85300064086914 C88.0469970703125,7.146999835968018 55.409000396728516,25 42.48899841308594,26.434999465942383 C33.48899841308594,27.434999465942383 63.07899856567383,62.29100036621094 40.94300079345703,83.14700317382812 C17.94300079345703,104.81800079345703 0.3370000123977661,90.03700256347656 -17.05699920654297,94.14700317382812 C-23.843000411987305,95.7509994506836 -28.93199920654297,99.12699890136719 -31.05699920654297,105.14700317382812 C-37.05699920654297,122.14700317382812 -60.05500030517578,110.48999786376953 -60.055999755859375,100.81900024414062 C-60.05699920654297,87.81900024414062 -51.04199981689453,72.43699645996094 -40.05699920654297,68.14700317382812 C-17.07200050354004,59.16999816894531 -1.555999994277954,75.14700317382812 10.942999839782715,65.14700317382812 C18.73699951171875,58.9119987487793 14.119000434875488,31.14699935913086 7.942999839782715,31.14699935913086 C-9.057000160217285,31.14699935913086 -32.05699920654297,20.14699935913086 -43.05699920654297,-0.8529999852180481 C-58.354000091552734,-30.05500030517578 -61.547000885009766,-93.85299682617188 -58.55699920654297,-98.85299682617188z"></path></g></g></g></svg>