<svg xmlns="http://www.w3.org/2000/svg" xmlns:xlink="http://www.w3.org/1999/xlink" viewBox="0 0 512 512" width="512" height="512" style="width: 100%; height: 100%; transform: translate3d(0,0,0);" preserveAspectRatio="xMidYMid meet"><defs><clipPath id="__lottie_element_27279"><rect width="512" height="512" x="0" y="0"></rect></clipPath></defs><g clip-path="url(#__lottie_element_27279)"><g style="display: block;" transform="matrix(1,0,0,1,0,0)" opacity="1"><g opacity="1" transform="matrix(1,0,0,1,248.82400512695312,255.63699340820312)"><path fill="rgb(65,63,63)" fill-opacity="1" d=" M108.34100341796875,-229.70199584960938 C101.84300231933594,-235.95599365234375 100.02799987792969,-233.23399353027344 86.8499984741211,-226.8280029296875 C82.302001953125,-235.08799743652344 77.81600189208984,-240.07200622558594 73.6719970703125,-246.20399475097656 C71.09200286865234,-248.43600463867188 51.7859992980957,-255.47799682617188 46.374000549316406,-252.27099609375 C37.13100051879883,-246.79299926757812 15.218999862670898,-232.20399475097656 12.53499984741211,-228.10299682617188 C8.173999786376953,-221.43699645996094 38.75600051879883,-187.5959930419922 35.46900177001953,-185.2030029296875 C33.50600051879883,-183.7740020751953 17.4689998626709,-171.78599548339844 -5.806000232696533,-155.38299560546875 C-7.98199987411499,-153.8489990234375 -13.718000411987305,-159.5540008544922 -16.003000259399414,-157.94500732421875 C-71.63800048828125,-118.75900268554688 -158.0260009765625,-54.555999755859375 -178.14700317382812,-41.58000183105469 C-183.552001953125,-50.30799865722656 -179.81399536132812,-45.24399948120117 -186.44900512695312,-53.1619987487793 C-189.5540008544922,-56.867000579833984 -213.67999267578125,-66.29000091552734 -217.47300720214844,-64.13200378417969 C-222.8719940185547,-61.058998107910156 -227.1999969482422,-57.255001068115234 -235.29299926757812,-51.619998931884766 C-238.97500610351562,-49.055999755859375 -223.82699584960938,-30.427000045776367 -213.8000030517578,-15.87600040435791 C-218.8509979248047,-8.871999740600586 -229.6699981689453,-5.09499979019165 -224.8350067138672,4.885000228881836 C-221.73199462890625,11.288999557495117 -211.71299743652344,22.511999130249023 -208.0050048828125,29.101999282836914 C-208.0050048828125,29.101999282836914 -244.86700439453125,57.117000579833984 -244.86700439453125,57.117000579833984 C-245.343994140625,57.479000091552734 -247.86599731445312,63.013999938964844 -248.01600646972656,64.072998046875 C-249.2030029296875,72.41799926757812 -232.0240020751953,95.27400207519531 -221.80599975585938,93.24199676513672 C-211.3470001220703,91.16100311279297 -194.9239959716797,73.88400268554688 -184.31399536132812,69.16400146484375 C-179.64599609375,68.96700286865234 -173.00999450683594,88.35199737548828 -171.218994140625,92.81700134277344 C-163.95399475097656,110.93599700927734 -159.25100708007812,129.9029998779297 -152.7259979248047,148.26400756835938 C-146.48399353027344,158.70700073242188 -133.65899658203125,153.73500061035156 -128.94700622558594,144.4530029296875 C-124.12999725341797,134.96299743652344 -134.5679931640625,110.02300262451172 -136.36900329589844,99.125 C-136.82699584960938,96.35199737548828 -137.47000122070312,92.29100036621094 -135.7530059814453,89.91300201416016 C-132.5970001220703,85.54100036621094 -85.53399658203125,56.94599914550781 -80.14099884033203,53.47700119018555 C-68.4540023803711,70.89099884033203 -49.94599914550781,92.58200073242188 -35.88100051879883,99.50299835205078 C-17.76099967956543,108.41999816894531 -2.8559999465942383,102.2509994506836 35.2869987487793,77.12999725341797 C40.16299819946289,73.91799926757812 59.284000396728516,61.2130012512207 59.284000396728516,61.2130012512207 C61.58599853515625,62.37699890136719 65.50800323486328,70.21299743652344 66.93199920654297,72.43800354003906 C79.39700317382812,91.89900207519531 88.39399719238281,119.01200103759766 99.5979995727539,139.85800170898438 C101.7509994506836,143.86300659179688 104.69100189208984,150.54600524902344 108.21900177001953,153.1510009765625 C114.22699737548828,157.58799743652344 122.03500366210938,145.1649932861328 131.50100708007812,158.97300720214844 C149.24099731445312,184.8520050048828 158.89500427246094,219.85400390625 174.2830047607422,245.67100524902344 C177.13900756835938,250.46400451660156 179.95199584960938,255.47900390625 186.08700561523438,254.82200622558594 C193.86300659179688,253.98899841308594 229.19200134277344,235.26400756835938 236.88099670410156,230.08900451660156 C239.7570037841797,228.15199279785156 243.48699951171875,225.6929931640625 245.26600646972656,222.7010040283203 C248.82400512695312,216.71800231933594 214.03799438476562,134.87399291992188 202.36900329589844,108.70700073242188 C202.36900329589844,101.85900115966797 237.8820037841797,84.03399658203125 241.70899963378906,78.03600311279297 C248.41600036621094,67.5250015258789 213.4600067138672,22.28499984741211 195.4029998779297,4.10699987411499 C173.11300659179688,-18.33300018310547 151.73699951171875,-9.821999549865723 131.375,-61.05400085449219 C127.5510025024414,-70.67500305175781 128.1719970703125,-73.83399963378906 131.20399475097656,-82.8489990234375 C134.72799682617188,-93.32499694824219 139.10400390625,-103.63600158691406 143.6719970703125,-113.69200134277344 C150.38299560546875,-128.468994140625 159.68699645996094,-130.06700134277344 172.58599853515625,-140.13400268554688 C167.86000061035156,-147.37100219726562 112.04900360107422,-224.69900512695312 108.34100341796875,-229.70199584960938z M45.87699890136719,38.14400100708008 C38.4379997253418,56.17300033569336 -3.8329999446868896,89.55000305175781 -25.761999130249023,83.30500030517578 C-37.60599899291992,79.93199920654297 -57.236000061035156,59.529998779296875 -61.86399841308594,41.90700149536133 C-48.790000915527344,31.97100067138672 -25.812999725341797,17.086999893188477 -14.895999908447266,10.079999923706055 C-7.46999979019165,9.335000038146973 -2.125999927520752,14.482999801635742 -0.16200000047683716,35.23400115966797 C1.1579999923706055,49.183998107910156 -11.659000396728516,67.71499633789062 -0.6100000143051147,61.547000885009766 C12.62399959564209,54.15999984741211 15.57699966430664,32.21099853515625 13.553000450134277,18.503000259399414 C12.79699993133545,13.383000373840332 6.635000228881836,-1.1959999799728394 8.647000312805176,-3.9660000801086426 C10.217000007629395,-6.125999927520752 13.116999626159668,-7.203000068664551 15.65999984741211,-6.182000160217285 C22.729000091552734,-3.3469998836517334 41.314998626708984,30.030000686645508 45.87699890136719,38.14400100708008z M216.95599365234375,216.49099731445312 C214.61000061035156,218.35699462890625 210.36900329589844,208.75900268554688 209.40199279785156,206.9250030517578 C195.54200744628906,180.64599609375 185.75999450683594,152.1750030517578 172.00599670410156,125.82099914550781 C172.00599670410156,125.82099914550781 181.1300048828125,119.43299865722656 181.1300048828125,119.43299865722656 C197.74000549316406,155.53700256347656 218.63099670410156,202.54100036621094 216.95599365234375,216.49099731445312z M61.82600021362305,-104.74700164794922 C41.35599899291992,-86.81500244140625 14.505000114440918,-71.71900177001953 -7.864999771118164,-56.00699996948242 C-35.81399917602539,-36.37699890136719 -64.32099914550781,-13.270999908447266 -93.7509994506836,3.677999973297119 C-98.1709976196289,6.223999977111816 -107.1259994506836,12.503999710083008 -111.59700012207031,8.944999694824219 C-115.88800048828125,5.5289998054504395 -113.61000061035156,2.378000020980835 -110.60299682617188,-0.7599999904632568 C-104.4260025024414,-7.209000110626221 -84.99400329589844,-19.614999771118164 -76.52400207519531,-25.722000122070312 C-44.505001068115234,-48.80699920654297 -11.21500015258789,-70.64800262451172 21.29599952697754,-93.10700225830078 C34.31100082397461,-102.0979995727539 48.492000579833984,-114.6729965209961 61.86199951171875,-122.62200164794922 C65.7760009765625,-124.94999694824219 70.29100036621094,-125.9000015258789 74.3740005493164,-123.2699966430664 C78.17900085449219,-118.14600372314453 67.49700164794922,-109.71499633789062 61.82600021362305,-104.74700164794922z M45.275001525878906,-137.3260040283203 C16.731000900268555,-112.09600067138672 -22.913999557495117,-89.08300018310547 -54.5620002746582,-67.04100036621094 C-63.5260009765625,-60.79800033569336 -124.5250015258789,-14.6899995803833 -128.73399353027344,-16.28499984741211 C-142.23500061035156,-29.591999053955078 -126.61000061035156,-33.01300048828125 -117.375,-39.71699905395508 C-71.76399993896484,-72.8280029296875 -25.62299919128418,-105.2969970703125 21.030000686645508,-136.75999450683594 C32.027000427246094,-144.177001953125 53.36600112915039,-159.6179962158203 56.6870002746582,-153.89100646972656 C58.99700164794922,-146.25799560546875 50.847999572753906,-142.2519989013672 45.275001525878906,-137.3260040283203z"></path></g></g></g></svg>