<svg xmlns="http://www.w3.org/2000/svg" xmlns:xlink="http://www.w3.org/1999/xlink" viewBox="0 0 512 512" width="512" height="512" style="width: 100%; height: 100%; transform: translate3d(0,0,0);" preserveAspectRatio="xMidYMid meet"><defs><clipPath id="__lottie_element_15751"><rect width="512" height="512" x="0" y="0"></rect></clipPath></defs><g clip-path="url(#__lottie_element_15751)"><g style="display: block;" transform="matrix(1,0,0,1,27.581008911132812,7.4169921875)" opacity="1"><g opacity="1" transform="matrix(1,0,0,1,263.5060119628906,113.58300018310547)"><path fill="rgb(0,0,0)" fill-opacity="1" d=" M-186.08700561523438,57 C-188.7570037841797,37.167999267578125 -204.1790008544922,-62.74300003051758 -193.572998046875,-68.74299621582031 C-114.75399780273438,-113.33300018310547 155.91299438476562,-100.66699981689453 190.91299438476562,-69 C204.17799377441406,-56.999000549316406 169.45700073242188,62.0890007019043 164.91299438476562,73 C161.177001953125,81.97200012207031 89.24600219726562,110.66699981689453 87.91300201416016,107 C85.79000091552734,101.16300201416016 121.91300201416016,30.66699981689453 66.91300201416016,1 C9.961999893188477,-29.7189998626709 -12.093999862670898,15.0649995803833 -19.086999893188477,15 C-26.76099967956543,14.928999900817871 -50.75400161743164,-29.33300018310547 -93.08699798583984,-6 C-165.71299743652344,34.029998779296875 -102.58599853515625,101.88300323486328 -106.08699798583984,107 C-110.41999816894531,113.33300018310547 -185.1320037841797,64.08799743652344 -186.08700561523438,57z"></path></g><g opacity="1" transform="matrix(1,0,0,1,225.74600219726562,336.9729919433594)"><path fill="rgb(0,0,0)" fill-opacity="1" d=" M-174.66000366210938,-141.28199768066406 C-151.67100524902344,-150.61000061035156 -40.65999984741211,-54.38999938964844 -2.3269999027252197,-40.38999938964844 C16.98699951171875,-33.33700180053711 126.6729965209961,-100.7969970703125 208.67300415039062,-116.7969970703125 C225.49600219726562,-120.0790023803711 217.0070037841797,65.2770004272461 201.67300415039062,109.61000061035156 C193.14300537109375,134.27200317382812 171.11900329589844,133.89100646972656 168.67300415039062,128.61000061035156 C131.0070037841797,47.277000427246094 54.869998931884766,-19.816999435424805 50.67300033569336,-6.389999866485596 C47.34000015258789,4.2769999504089355 92.6729965209961,40.61000061035156 127.6729965209961,99.94300079345703 C143.2689971923828,126.38099670410156 146.81399536132812,140.41900634765625 127.6729965209961,143.61000061035156 C85.6729965209961,150.61000061035156 -123.3270034790039,141.27699279785156 -154.1580047607422,127.99099731445312 C-163.54299926757812,123.9469985961914 -165.4949951171875,102.43099975585938 -155.32699584960938,91.61000061035156 C-92.99299621582031,25.277000427246094 -38.32699966430664,-2.4260001182556152 -41.32699966430664,-10.390000343322754 C-44.78200149536133,-19.565000534057617 -140.32699584960938,23.94300079345703 -191.32699584960938,108.2770004272461 C-201.82400512695312,125.63500213623047 -225.49600219726562,87.94300079345703 -225.32699584960938,68.61000061035156 C-225.0970001220703,42.44599914550781 -209.35800170898438,-11.28600025177002 -203.32699584960938,-31.389999389648438 C-192.32699584960938,-68.05699920654297 -202.32699584960938,-130.0570068359375 -174.66000366210938,-141.28199768066406z"></path></g></g></g></svg>