<svg xmlns="http://www.w3.org/2000/svg" xmlns:xlink="http://www.w3.org/1999/xlink" viewBox="0 0 512 512" width="512" height="512" style="width: 100%; height: 100%; transform: translate3d(0,0,0);" preserveAspectRatio="xMidYMid meet"><defs><clipPath id="__lottie_element_51770"><rect width="512" height="512" x="0" y="0"></rect></clipPath></defs><g clip-path="url(#__lottie_element_51770)"><g style="display: block;" transform="matrix(1,0,0,1,0,0)" opacity="1"><g opacity="1" transform="matrix(1,0,0,1,436.3680114746094,168.26800537109375)"><path fill="rgb(0,0,0)" fill-opacity="1" d=" M-49.39099884033203,9.109000205993652 C-50.59600067138672,10.434000015258789 -40.207000732421875,27.136999130249023 -38.9010009765625,30.36400032043457 C-32.1870002746582,46.94599914550781 -32.902000427246094,78.87000274658203 -43.981998443603516,93.56300354003906 C-50.29100036621094,101.92900085449219 -61.965999603271484,111.13300323486328 -61.66299819946289,93.5250015258789 C-61.34400177001953,75.00499725341797 -59.930999755859375,54.507999420166016 -63.52899932861328,36.071998596191406 C-65.68800354003906,25.01300048828125 -69.71099853515625,10.343999862670898 -74.23999786376953,0.19900000095367432 C-64.01000213623047,-0.8299999833106995 -44.856998443603516,-8.873000144958496 -36.196998596191406,-13.862000465393066 C-3.700000047683716,-32.582000732421875 29.476999282836914,-57.95199966430664 50.349998474121094,-89.0999984741211 C58.125999450683594,-100.70600128173828 62.75699996948242,-111.13300323486328 62.75699996948242,-111.13300323486328 C66.69000244140625,-97.43299865722656 74.23999786376953,-74.95600128173828 70.25599670410156,-61.09199905395508 C62.106998443603516,-32.731998443603516 9.786999702453613,-2.2960000038146973 -16.03499984741211,9.36400032043457 C-20.089000701904297,11.194000244140625 -31.385000228881836,15.946000099182129 -35.22100067138672,15.949000358581543 C-40.145999908447266,15.954000473022461 -44.577999114990234,10.513999938964844 -49.39099884033203,9.109000205993652z"></path></g><g opacity="1" transform="matrix(1,0,0,1,322.80999755859375,162.4739990234375)"><path fill="rgb(0,0,0)" fill-opacity="1" d=" M43.608001708984375,51.60499954223633 C43.608001708984375,51.60499954223633 -42.45600128173828,51.19499969482422 -42.45600128173828,51.19499969482422 C-42.81100082397461,25.753000259399414 -43.60900115966797,-51.60499954223633 -43.60900115966797,-51.60499954223633 C0.1120000034570694,-37.50699996948242 39.93199920654297,5.563000202178955 43.608001708984375,51.60499954223633z"></path></g><g opacity="1" transform="matrix(1,0,0,1,189.29600524902344,162.00599670410156)"><path fill="rgb(0,0,0)" fill-opacity="1" d=" M-42.779998779296875,50.57099914550781 C-37.492000579833984,-0.9449999928474426 -7.954999923706055,-42.6619987487793 42.779998779296875,-51.137001037597656 C42.779998779296875,-51.137001037597656 42.779998779296875,51.137001037597656 42.779998779296875,51.137001037597656 M24.009000778198242,-27.073999404907227 C23.11199951171875,-26.92799949645996 13.22599983215332,-20.847000122070312 11.805999755859375,-19.738000869750977 C8.562000274658203,-17.204999923706055 2.552999973297119,-11.031999588012695 -0.1809999942779541,-7.793000221252441 C-5.4770002365112305,-1.5169999599456787 -19.389999389648438,21.007999420166016 -17.135000228881836,28.62700080871582 C-16.316999435424805,31.391000747680664 -7.122000217437744,37.3120002746582 -4.565999984741211,34.22600173950195 C1.437000036239624,26.165000915527344 6.077000141143799,16.930999755859375 11.930999755859375,8.802000045776367 C15.166999816894531,4.307000160217285 32.47800064086914,-14.37399959564209 31.381999969482422,-18.325000762939453 C30.829999923706055,-20.312999725341797 26.062999725341797,-27.406999588012695 24.009000778198242,-27.073999404907227z"></path></g><g opacity="1" transform="matrix(1,0,0,1,461.6570129394531,171.42300415039062)"><path fill="rgb(0,0,0)" fill-opacity="1" d=" M-46.4739990234375,42.111000061035156 C-47.053001403808594,35.04999923706055 -48.35100173950195,28.04800033569336 -50.34299850463867,21.249000549316406 C-44.70000076293945,18.54199981689453 -38.755001068115234,16.68199920654297 -33.10900115966797,13.956000328063965 C-27.197999954223633,11.102999687194824 -21.43199920654297,7.961999893188477 -15.652999877929688,4.853000164031982 C7.6519999504089355,-7.688000202178955 32.11800003051758,-22.759000778198242 49.632999420166016,-42.685001373291016 C50.15399932861328,-29.19700050354004 50.470001220703125,3.928999900817871 44.9370002746582,10.034000396728516 C41.68899917602539,13.25100040435791 31.450000762939453,19.511999130249023 27.0939998626709,21.91900062561035 C13.020000457763672,29.695999145507812 -26.716999053955078,42.685001373291016 -46.430999755859375,42.65399932861328 C-46.44499969482422,42.472999572753906 -46.45899963378906,42.29199981689453 -46.4739990234375,42.111000061035156z"></path></g><g opacity="1" transform="matrix(1,0,0,1,460.4259948730469,224.06100463867188)"><path fill="rgb(0,0,0)" fill-opacity="1" d=" M31.805999755859375,18.483999252319336 C10.758999824523926,23.572999954223633 -10.513999938964844,24.219999313354492 -46.95800018310547,22.159000396728516 C-46.41999816894531,20.486000061035156 -43.229000091552734,-1.194000005722046 -44.62200164794922,-1.2519999742507935 C-2.4040000438690186,-1.909999966621399 27.850000381469727,-14.46399974822998 46.95800018310547,-24.219999313354492 C46.95800018310547,-1.6080000400543213 33.882999420166016,17.98200035095215 31.805999755859375,18.483999252319336z"></path></g><g opacity="1" transform="matrix(1,0,0,1,416.7489929199219,286.8330078125)"><path fill="rgb(0,0,0)" fill-opacity="1" d=" M29.3799991607666,3.9709999561309814 C22.23200035095215,9.475000381469727 -2.6389999389648438,15.28499984741211 -7.151000022888184,15.609000205993652 C-10.07699966430664,15.819000244140625 -24.635000228881836,3.2709999084472656 -29.3799991607666,-4.909999847412109 C-27.010000228881836,-6.318999767303467 -18.19700050354004,-12.312999725341797 -16.141000747680664,-15.817999839782715 C-1.7100000381469727,-4.675000190734863 17.65399932861328,1.718000054359436 29.3799991607666,3.9709999561309814z"></path></g><g opacity="1" transform="matrix(1,0,0,1,446.1409912109375,268.21099853515625)"><path fill="rgb(0,0,0)" fill-opacity="1" d=" M39.356998443603516,-12.515999794006348 C36.45800018310547,-0.04899999871850014 16.69300079345703,14.744000434875488 14.984000205993652,14.645999908447266 C-0.671999990940094,13.751999855041504 -32.599998474121094,1.9210000038146973 -39.356998443603516,-3.4579999446868896 C-37.79999923706055,-6.323999881744385 -35.459999084472656,-11.668000221252441 -34.375,-14.744000434875488 C-24.378999710083008,-12.347000122070312 13.08899974822998,-7.715000152587891 39.356998443603516,-12.515999794006348z"></path></g><g opacity="1" transform="matrix(1,0,0,1,416.18798828125,381.0350036621094)"><path fill="rgb(0,0,0)" fill-opacity="1" d=" M-39.244998931884766,-76.28299713134766 C-20.849000930786133,-58.53499984741211 -10.359999656677246,-34.0369987487793 6.999000072479248,-15.27299976348877 C10.843000411987305,-11.116999626159668 15.088000297546387,-7.205999851226807 20.160999298095703,-4.693999767303467 C25.233999252319336,-2.180999994277954 31.253999710083008,-1.1829999685287476 36.62300109863281,-2.9790000915527344 C39.875999450683594,-4.067999839782715 42.91999816894531,-6.339000225067139 44.04899978637695,-9.57800006866455 C45.17900085449219,-12.817000389099121 43.8120002746582,-16.982999801635742 40.61600112915039,-18.22800064086914 C42.7760009765625,-19.253999710083008 45.29399871826172,-17.988000869750977 47.25400161743164,-16.6200008392334 C52.882999420166016,-12.6899995803833 57.83399963378906,-7.381999969482422 59.90399932861328,-0.8360000252723694 C63.44599914550781,10.36299991607666 57.257999420166016,23.288999557495117 47.05500030517578,29.107999801635742 C36.85200119018555,34.926998138427734 23.72100067138672,34.20000076293945 13.222999572753906,28.930999755859375 C2.7260000705718994,23.66200065612793 -5.324999809265137,14.347999572753906 -10.930999755859375,4.026000022888184 C-8.029000282287598,16.56800079345703 -2.0789999961853027,28.393999099731445 6.26200008392334,38.19900131225586 C8.809000015258789,41.194000244140625 11.70300006866455,44.0880012512207 15.385000228881836,45.46699905395508 C20.229000091552734,47.279998779296875 26.08099937438965,46.01100158691406 29.73699951171875,42.35200119018555 C30.989999771118164,49.47200012207031 29.30699920654297,57.06399917602539 25.163999557495117,62.987998962402344 C21.020000457763672,68.91200256347656 14.465999603271484,73.09600067138672 7.3480000495910645,74.36100006103516 C-3.4600000381469727,76.28199768066406 -14.607999801635742,71.52100372314453 -22.819000244140625,64.23400115966797 C-31.030000686645508,56.948001861572266 -36.79600143432617,47.36199951171875 -42.27299880981445,37.847999572753906 C-40.90700149536133,49.86600112915039 -37.91299819946289,61.696998596191406 -33.400001525878906,72.91799926757812 C-44.50299835205078,64.52899932861328 -53.54600143432617,53.24300003051758 -58.49599838256836,40.23699951171875 C-63.446998596191406,27.231000900268555 -63.07699966430664,16.381000518798828 -58.577999114990234,3.2119998931884766 C-52.46200180053711,-14.692999839782715 -44,-26.54400062561035 -40.012001037597656,-54.763999938964844 C-39.257999420166016,-60.09400177001953 -39.0260009765625,-65.37000274658203 -39.244998931884766,-76.28299713134766z"></path></g><g opacity="1" transform="matrix(1,0,0,1,75.92500305175781,168.18699645996094)"><path fill="rgb(0,0,0)" fill-opacity="1" d=" M49.39099884033203,9.109000205993652 C50.59600067138672,10.434000015258789 40.207000732421875,27.136999130249023 38.9010009765625,30.36400032043457 C32.1870002746582,46.94599914550781 32.902000427246094,78.87000274658203 43.981998443603516,93.56300354003906 C50.29100036621094,101.92900085449219 61.965999603271484,111.13300323486328 61.66299819946289,93.5250015258789 C61.34400177001953,75.00499725341797 59.930999755859375,54.507999420166016 63.52899932861328,36.071998596191406 C65.68800354003906,25.01300048828125 69.71099853515625,10.343999862670898 74.23999786376953,0.19900000095367432 C64.01000213623047,-0.8299999833106995 44.856998443603516,-8.873000144958496 36.196998596191406,-13.862000465393066 C3.700000047683716,-32.582000732421875 -29.476999282836914,-57.95199966430664 -50.349998474121094,-89.0999984741211 C-58.125999450683594,-100.70600128173828 -62.757999420166016,-111.13300323486328 -62.757999420166016,-111.13300323486328 C-66.69000244140625,-97.43299865722656 -74.23999786376953,-74.95600128173828 -70.25599670410156,-61.09199905395508 C-62.106998443603516,-32.731998443603516 -9.786999702453613,-2.2960000038146973 16.03499984741211,9.36400032043457 C20.089000701904297,11.194000244140625 31.385000228881836,15.946000099182129 35.22100067138672,15.949000358581543 C40.145999908447266,15.954000473022461 44.577999114990234,10.513999938964844 49.39099884033203,9.109000205993652z"></path></g><g opacity="1" transform="matrix(1,0,0,1,50.573001861572266,171.3419952392578)"><path fill="rgb(0,0,0)" fill-opacity="1" d=" M46.53799819946289,42.111000061035156 C47.117000579833984,35.04999923706055 48.415000915527344,28.04800033569336 50.40700149536133,21.249000549316406 C44.763999938964844,18.54199981689453 38.819000244140625,16.68199920654297 33.17300033569336,13.956999778747559 C27.261999130249023,11.102999687194824 21.496000289916992,7.961999893188477 15.717000007629395,4.853000164031982 C-7.5879998207092285,-7.688000202178955 -32.05500030517578,-22.759000778198242 -49.56999969482422,-42.685001373291016 C-50.090999603271484,-29.19700050354004 -50.40700149536133,3.928999900817871 -44.874000549316406,10.034000396728516 C-41.625999450683594,13.25100040435791 -31.386999130249023,19.511999130249023 -27.0310001373291,21.91900062561035 C-12.956999778747559,29.695999145507812 26.7810001373291,42.685001373291016 46.494998931884766,42.65399932861328 C46.50899887084961,42.472999572753906 46.52299880981445,42.29199981689453 46.53799819946289,42.111000061035156z"></path></g><g opacity="1" transform="matrix(1,0,0,1,51.86800003051758,223.97999572753906)"><path fill="rgb(0,0,0)" fill-opacity="1" d=" M-31.80699920654297,18.483999252319336 C-10.760000228881836,23.572999954223633 10.513999938964844,24.219999313354492 46.95800018310547,22.159000396728516 C46.41999816894531,20.486000061035156 43.229000091552734,-1.194000005722046 44.62200164794922,-1.2519999742507935 C2.4040000438690186,-1.909999966621399 -27.850000381469727,-14.46399974822998 -46.95800018310547,-24.219999313354492 C-46.95800018310547,-1.6080000400543213 -33.88399887084961,17.98200035095215 -31.80699920654297,18.483999252319336z"></path></g><g opacity="1" transform="matrix(1,0,0,1,94.75599670410156,286.8810119628906)"><path fill="rgb(0,0,0)" fill-opacity="1" d=" M-29.135000228881836,3.938999891281128 C-22.04599952697754,9.397000312805176 2.617000102996826,15.157999992370605 7.0920000076293945,15.479000091552734 C9.993000030517578,15.687000274658203 24.43000030517578,3.24399995803833 29.135000228881836,-4.86899995803833 C26.78499984741211,-6.267000198364258 18.04599952697754,-12.211000442504883 16.007999420166016,-15.687000274658203 C1.6959999799728394,-4.636000156402588 -17.506999969482422,1.7039999961853027 -29.135000228881836,3.938999891281128z"></path></g><g opacity="1" transform="matrix(1,0,0,1,66.15299987792969,268.1300048828125)"><path fill="rgb(0,0,0)" fill-opacity="1" d=" M-39.356998443603516,-12.515999794006348 C-36.45800018310547,-0.04899999871850014 -16.69300079345703,14.744000434875488 -14.984000205993652,14.645999908447266 C0.671999990940094,13.751999855041504 32.599998474121094,1.9210000038146973 39.356998443603516,-3.4579999446868896 C37.79999923706055,-6.323999881744385 35.459999084472656,-11.668000221252441 34.375,-14.744000434875488 C24.378999710083008,-12.347000122070312 -13.08899974822998,-7.715000152587891 -39.356998443603516,-12.515999794006348z"></path></g><g opacity="1" transform="matrix(1,0,0,1,96.65499877929688,380.9460144042969)"><path fill="rgb(0,0,0)" fill-opacity="1" d=" M39.244998931884766,-76.28299713134766 C20.849000930786133,-58.53499984741211 10.361000061035156,-34.03799819946289 -6.998000144958496,-15.27400016784668 C-10.842000007629395,-11.118000030517578 -15.088000297546387,-7.205999851226807 -20.160999298095703,-4.693999767303467 C-25.233999252319336,-2.180999994277954 -31.253999710083008,-1.184000015258789 -36.62300109863281,-2.9800000190734863 C-39.875999450683594,-4.068999767303467 -42.91999816894531,-6.340000152587891 -44.04899978637695,-9.579000473022461 C-45.17900085449219,-12.817999839782715 -43.8129997253418,-16.983999252319336 -40.617000579833984,-18.229000091552734 C-42.777000427246094,-19.2549991607666 -45.29499816894531,-17.988000869750977 -47.255001068115234,-16.6200008392334 C-52.88399887084961,-12.6899995803833 -57.83399963378906,-7.381999969482422 -59.90399932861328,-0.8360000252723694 C-63.44599914550781,10.36299991607666 -57.257999420166016,23.288999557495117 -47.05500030517578,29.107999801635742 C-36.85200119018555,34.926998138427734 -23.72100067138672,34.19900131225586 -13.222999572753906,28.93000030517578 C-2.7260000705718994,23.660999298095703 5.324999809265137,14.347999572753906 10.930999755859375,4.026000022888184 C8.029000282287598,16.56800079345703 2.0789999961853027,28.393999099731445 -6.26200008392334,38.19900131225586 C-8.809000015258789,41.194000244140625 -11.70300006866455,44.0880012512207 -15.385000228881836,45.46699905395508 C-20.229000091552734,47.279998779296875 -26.079999923706055,46.0099983215332 -29.736000061035156,42.35100173950195 C-30.98900032043457,49.47100067138672 -29.30699920654297,57.0629997253418 -25.163000106811523,62.98699951171875 C-21.020000457763672,68.91100311279297 -14.465999603271484,73.09600067138672 -7.3480000495910645,74.36100006103516 C3.4600000381469727,76.28199768066406 14.607999801635742,71.52100372314453 22.819000244140625,64.23400115966797 C31.030000686645508,56.948001861572266 36.79600143432617,47.36199951171875 42.27299880981445,37.84700012207031 C40.90700149536133,49.8650016784668 37.91299819946289,61.696998596191406 33.400001525878906,72.91799926757812 C44.50299835205078,64.52899932861328 53.54600143432617,53.24300003051758 58.49599838256836,40.23699951171875 C63.446998596191406,27.231000900268555 63.07699966430664,16.381000518798828 58.577999114990234,3.2119998931884766 C52.46200180053711,-14.692999839782715 44,-26.54400062561035 40.012001037597656,-54.763999938964844 C39.257999420166016,-60.09400177001953 39.0260009765625,-65.37000274658203 39.244998931884766,-76.28299713134766z"></path></g><g opacity="1" transform="matrix(1,0,0,1,256.14599609375,328.4809875488281)"><path fill="rgb(0,0,0)" fill-opacity="1" d=" M111.77400207519531,-102.45099639892578 C111.77400207519531,-102.45099639892578 30.940000534057617,-102.45099639892578 30.940000534057617,-102.45099639892578 C30.940000534057617,-102.45099639892578 -30.93899917602539,-102.45099639892578 -30.93899917602539,-102.45099639892578 C-30.93899917602539,-102.45099639892578 -111.77300262451172,-102.45099639892578 -111.77300262451172,-102.45099639892578 C-110.27200317382812,-57.98099899291992 -113.4219970703125,-44.542999267578125 -111.7959976196289,-16.41900062561035 C-109.18399810791016,28.77899932861328 -90.97599792480469,65.7509994506836 -55.659000396728516,93.46499633789062 C-51.33599853515625,96.85700225830078 -46.24300003051758,99.76499938964844 -41.45899963378906,102.45099639892578 C-41.45899963378906,102.45099639892578 -41.45899963378906,-5.23199987411499 -41.45899963378906,-5.23199987411499 C-79.93900299072266,-10.944999694824219 -88.28700256347656,-41.72999954223633 -89.3290023803711,-72.53299713134766 C-62.29199981689453,-66.55899810791016 -19.2450008392334,-78.83599853515625 -17.44499969482422,-50.92599868774414 C-16.243999481201172,-32.284000396728516 -19.368999481201172,-10.258999824523926 -17.261999130249023,8.71500015258789 C-17.261999130249023,8.71500015258789 -6.795000076293945,19.488000869750977 -6.795000076293945,19.488000869750977 C-4.13700008392334,22.517000198364258 -1.8320000171661377,25.600000381469727 -0.34700000286102295,26.125999450683594 C-0.34700000286102295,26.125999450683594 -0.29600000381469727,26.17799949645996 -0.29600000381469727,26.17799949645996 C-0.2029999941587448,26.204999923706055 -0.10300000011920929,26.211000442504883 0.0010000000474974513,26.20400047302246 C0.10400000214576721,26.211000442504883 0.20399999618530273,26.204999923706055 0.296999990940094,26.17799949645996 C0.296999990940094,26.17799949645996 0.34700000286102295,26.125999450683594 0.34700000286102295,26.125999450683594 C1.8320000171661377,25.60300064086914 4.140999794006348,22.525999069213867 6.800000190734863,19.496000289916992 C6.797999858856201,19.493000030517578 6.796999931335449,19.490999221801758 6.796000003814697,19.488000869750977 C6.796000003814697,19.488000869750977 17.26300048828125,8.71500015258789 17.26300048828125,8.71500015258789 C19.3700008392334,-10.258999824523926 16.243999481201172,-32.284000396728516 17.445999145507812,-50.92599868774414 C19.2450008392334,-78.83599853515625 62.292999267578125,-66.55899810791016 89.33000183105469,-72.53299713134766 C88.28800201416016,-41.72999954223633 79.94000244140625,-10.944999694824219 41.459999084472656,-5.23199987411499 C41.459999084472656,-5.23199987411499 41.459999084472656,102.45099639892578 41.459999084472656,102.45099639892578 C46.24399948120117,99.76499938964844 51.33599853515625,96.85700225830078 55.659000396728516,93.46499633789062 C90.97699737548828,65.7509994506836 109.18499755859375,28.77899932861328 111.7969970703125,-16.41900062561035 C113.4219970703125,-44.542999267578125 110.27300262451172,-57.98099899291992 111.77400207519531,-102.45099639892578z"></path></g><g opacity="1" transform="matrix(1,0,0,1,256.010009765625,142.69000244140625)"><path fill="rgb(0,0,0)" fill-opacity="1" d=" M0,-70.7040023803711 C-2.622999906539917,-62.566001892089844 -9.420000076293945,-55.66699981689453 -12.532999992370605,-47.792999267578125 C-16.982999801635742,-36.5369987487793 -15.49899959564209,-32.207000732421875 -15.428000450134277,-22.209999084472656 C-15.217000007629395,7.197999954223633 -16.360000610351562,65.77400207519531 -15.560999870300293,70.7040023803711 C-15.560999870300293,70.7040023803711 15.154000282287598,70.7040023803711 15.154000282287598,70.7040023803711 C15.954000473022461,65.77400207519531 15.217000007629395,7.197999954223633 15.428000450134277,-22.209999084472656 C15.49899959564209,-32.207000732421875 16.982999801635742,-36.5369987487793 12.532999992370605,-47.792999267578125 C9.420000076293945,-55.66699981689453 2.622999906539917,-62.566001892089844 0,-70.7040023803711z"></path></g><g opacity="1" transform="matrix(1,0,0,1,255.9459991455078,385.2409973144531)"><path fill="rgb(0,0,0)" fill-opacity="1" d=" M32.91699981689453,-4.585999965667725 C32.91699981689453,-4.585999965667725 8.579000473022461,-12.907999992370605 7.395999908447266,-13.204000473022461 C6.214000225067139,-13.5 0.02199999988079071,-10.109999656677246 0,-10.097999572753906 C-0.020999999716877937,-10.109999656677246 -6.214000225067139,-13.5 -7.394999980926514,-13.204000473022461 C-8.579000473022461,-12.907999992370605 -32.91699981689453,-4.585999965667725 -32.91699981689453,-4.585999965667725 C-14.829999923706055,13.50100040435791 21.454999923706055,9.284000396728516 32.91699981689453,-4.585999965667725z"></path></g></g></g></svg>