<svg xmlns="http://www.w3.org/2000/svg" xmlns:xlink="http://www.w3.org/1999/xlink" viewBox="0 0 512 512" width="512" height="512" style="width: 100%; height: 100%; transform: translate3d(0,0,0);" preserveAspectRatio="xMidYMid meet"><defs><clipPath id="__lottie_element_53964"><rect width="512" height="512" x="0" y="0"></rect></clipPath></defs><g clip-path="url(#__lottie_element_53964)"><g style="display: block;" transform="matrix(1,0,0,1,254.21099853515625,262.83099365234375)" opacity="1"><g opacity="1" transform="matrix(1,0,0,1,0,0)"><path fill="rgb(0,0,0)" fill-opacity="1" d=" M-105.99700164794922,-225.83799743652344 C-74.23200225830078,-225.802001953125 -35.47600173950195,-226.33200073242188 3.384000062942505,-201.86199951171875 C14.178000450134277,-195.06500244140625 14.28600025177002,-186.6230010986328 5.821000099182129,-177.51800537109375 C-21.701000213623047,-147.91700744628906 -46.15800094604492,-115.99400329589844 -63.358001708984375,-79.18199920654297 C-70.93599700927734,-62.9630012512207 -74.64399719238281,-45.4900016784668 -74.35800170898438,-27.43899917602539 C-74.20500183105469,-17.768999099731445 -71.51000213623047,-16.159000396728516 -62.66299819946289,-20.089000701904297 C-54.314998626708984,-23.797000885009766 -46.882999420166016,-29.003999710083008 -39.70000076293945,-34.625999450683594 C-35.36000061035156,-38.02199935913086 -30.861000061035156,-41.29999923706055 -26.093000411987305,-44.040000915527344 C-21.238000869750977,-46.83100128173828 -16.104999542236328,-46.61600112915039 -11.883000373840332,-42.50600051879883 C-7.734000205993652,-38.46500015258789 -7.355999946594238,-33.52799987792969 -9.449999809265137,-28.297000885009766 C-9.743000030517578,-27.56599998474121 -10.105999946594238,-26.861000061035156 -10.460000038146973,-26.1560001373291 C-16.263999938964844,-14.571000099182129 -16.309999465942383,-14.508000373840332 -6.145999908447266,-7.353000164031982 C0.03700000047683716,-3.000999927520752 5.580999851226807,2.0339999198913574 10.392000198364258,7.820000171661377 C13.315999984741211,11.336000442504883 16.261999130249023,13.053999900817871 20.41699981689453,9.925000190734863 C20.731000900268555,9.689000129699707 21.076000213623047,9.482000350952148 21.433000564575195,9.317999839782715 C30.454999923706055,5.163000106811523 40.13399887084961,2.8310000896453857 44.28799819946289,7.298999786376953 C48.62200164794922,11.961000442504883 44.314998626708984,21.941999435424805 39.75,29.618000030517578 C37.737998962402344,33 35.207000732421875,36.07099914550781 32.94900131225586,39.308998107910156 C29.545000076293945,44.18899917602539 26.57200050354004,49.308998107910156 24.865999221801758,55.04999923706055 C22.78700065612793,62.04600143432617 23.937000274658203,64.02300262451172 31.031999588012695,66.26499938964844 C36.125999450683594,67.875 41.13999938964844,67.30500030517578 46.2130012512207,66.08300018310547 C89.87999725341797,54.6150016784668 128.4040069580078,19.843000411987305 151.17999267578125,-6.684999942779541 C158.8560028076172,-15.62600040435791 169.49899291992188,-31.100000381469727 175.60499572753906,-41.46200180053711 C180.99899291992188,-50.6150016784668 190.68800354003906,-50.8849983215332 198.51699829101562,-42.67100143432617 C220.14300537109375,-20.47800064086914 239.38499450683594,38.81100082397461 244.16700744628906,68.65699768066406 C255.38999938964844,132.77200317382812 240.55099487304688,190.09500122070312 238.65199279785156,195.25799560546875 C234.0780029296875,207.6959991455078 223.7949981689453,209.58399963378906 215.1790008544922,199.63800048828125 C209.23699951171875,192.7779998779297 203.86000061035156,185.42100524902344 197.78599548339844,178.68600463867188 C188.17300415039062,168.0260009765625 177.6540069580078,169.9969940185547 170.39999389648438,176.4600067138672 C162.67300415039062,183.34500122070312 158.5,190.093994140625 154.74000549316406,198.42100524902344 C151.8179931640625,204.8939971923828 149.38400268554688,211.58599853515625 146.4709930419922,218.06399536132812 C144.39599609375,222.6790008544922 140.8159942626953,225.8040008544922 135.51400756835938,225.83799743652344 C130.0500030517578,225.8730010986328 127.01499938964844,222.2100067138672 124.87000274658203,217.718994140625 C122.66000366210938,213.09300231933594 120.8290023803711,208.2740020751953 118.43499755859375,203.75 C106.87699890136719,181.91299438476562 74.55599975585938,168.3509979248047 50.459999084472656,192.58700561523438 C46.808998107910156,196.25900268554688 42.81100082397461,199.15699768066406 37.5880012512207,200.5989990234375 C30.756000518798828,202.48500061035156 23.136999130249023,200.0800018310547 20.490999221801758,190.8350067138672 C17.4689998626709,180.27999877929688 9.701000213623047,165.78500366210938 5,161.99600219726562 C-6.688000202178955,152.5749969482422 -14.178999900817871,152.7209930419922 -22.885000228881836,157.1020050048828 C-48.43299865722656,169.95899963378906 -75.62699890136719,173.0970001220703 -103.58999633789062,167.87600708007812 C-142.86399841308594,160.54400634765625 -169.69400024414062,132.56900024414062 -175.802001953125,93.11000061035156 C-178.66900634765625,74.58499908447266 -174.54200744628906,57.02399826049805 -167.5240020751953,39.970001220703125 C-163.52099609375,30.243000030517578 -163.71099853515625,29.510000228881836 -171.9980010986328,23.354000091552734 C-176.7689971923828,19.809999465942383 -181.80799865722656,16.709999084472656 -187.45599365234375,14.722000122070312 C-207.44400024414062,7.688000202178955 -208.68299865722656,5.089000225067139 -197.70399475097656,-13.704000473022461 C-182.78599548339844,-39.24100112915039 -197.54100036621094,-63.702999114990234 -214.52099609375,-72.65899658203125 C-219.77699279785156,-75.43099975585938 -236.54400634765625,-79.85800170898438 -239.13400268554688,-80.76799774169922 C-249.27499389648438,-84.33100128173828 -251.70199584960938,-94.75800323486328 -242.98599243164062,-100.88300323486328 C-213.7469940185547,-121.43099975585938 -207.0989990234375,-128.77999877929688 -203.26499938964844,-139.58200073242188 C-200.5279998779297,-147.29200744628906 -202.1529998779297,-151.82899475097656 -209.68699645996094,-156.66799926757812 C-217.31700134277344,-161.56900024414062 -235.25799560546875,-170.77099609375 -239.4739990234375,-173.72900390625 C-248.18499755859375,-179.8419952392578 -247.88800048828125,-188.906005859375 -239.0540008544922,-195.07200622558594 C-237.13099670410156,-196.41400146484375 -234.91000366210938,-197.35000610351562 -232.77499389648438,-198.36599731445312 C-201.3699951171875,-213.30499267578125 -154.55299377441406,-225.89300537109375 -105.99700164794922,-225.83799743652344z"></path></g></g></g></svg>