<svg xmlns="http://www.w3.org/2000/svg" xmlns:xlink="http://www.w3.org/1999/xlink" viewBox="0 0 512 512" width="512" height="512" style="width: 100%; height: 100%; transform: translate3d(0,0,0);" preserveAspectRatio="xMidYMid meet"><defs><clipPath id="__lottie_element_53135"><rect width="512" height="512" x="0" y="0"></rect></clipPath></defs><g clip-path="url(#__lottie_element_53135)"><g style="display: block;" transform="matrix(1,0,0,1,257.1319885253906,235.6959991455078)" opacity="1"><g opacity="1" transform="matrix(1,0,0,1,0,0)"><path fill="rgb(4,5,52)" fill-opacity="1" d=" M229.05299377441406,12.902999877929688 C220.01300048828125,7.813000202178955 171.4530029296875,-18.156999588012695 106.51300048828125,-3.4769999980926514 C41.5629997253418,11.20300006866455 19.26300048828125,34.35300064086914 1.4730000495910645,34.92300033569336 C-7.10699987411499,35.19300079345703 -14.336999893188477,32.66299819946289 -14.336999893188477,32.66299819946289 C-14.336999893188477,32.66299819946289 -58.387001037597656,-7.427000045776367 -54.426998138427734,-69.5469970703125 C-50.47700119018555,-131.66700744628906 -13.206999778747559,-163.85699462890625 19.542999267578125,-168.93699645996094 C51.65299987792969,-173.91700744628906 70.19300079345703,-144.70700073242188 65.59300231933594,-130.2570037841797 C68.0530014038086,-137.27699279785156 82.4530029296875,-185.89700317382812 13.333000183105469,-193.2169952392578 C-61.207000732421875,-201.1269989013672 -118.24700164794922,-158.20700073242188 -137.44700622558594,-102.86699676513672 C-156.64700317382812,-47.527000427246094 -116.5469970703125,10.072999954223633 -100.177001953125,17.982999801635742 C-100.177001953125,17.982999801635742 -186.57699584960938,-14.777000427246094 -139.14700317382812,-153.11700439453125 C-140.48699951171875,-152.56700134277344 -239.9969940185547,-111.09700012207031 -207.4669952392578,7.252999782562256 C-207.4669952392578,7.252999782562256 -223.27699279785156,-4.60699987411499 -230.0570068359375,3.302999973297119 C-236.82699584960938,11.20300006866455 -244.73699951171875,128.66299438476562 -192.78700256347656,176.09300231933594 C-140.82699584960938,223.5330047607422 -55.6870002746582,162.54299926757812 -1.1369999647140503,162.54299926757812 C53.42300033569336,162.54299926757812 111.59300231933594,210.54299926757812 178.79299926757812,184.0030059814453 C245.9929962158203,157.46299743652344 238.08299255371094,17.982999801635742 229.05299377441406,12.902999877929688z M-41.446998596191406,120.75299835205078 C-47.08700180053711,127.53299713134766 -93.95700073242188,143.34300231933594 -132.927001953125,135.4429931640625 C-171.88699340820312,127.53299713134766 -189.65699768066406,74.73300170898438 -179.2270050048828,63.15299987792969 C-174.14700317382812,57.51300048828125 -135.18699645996094,49.042999267578125 -94.5270004272461,60.33300018310547 C-53.867000579833984,71.62300109863281 -35.797000885009766,113.98300170898438 -41.446998596191406,120.75299835205078z M130.66299438476562,135.4429931640625 C91.69300079345703,143.34300231933594 44.823001861572266,127.53299713134766 39.18299865722656,120.75299835205078 C33.53300094604492,113.98300170898438 51.60300064086914,71.62300109863281 92.26300048828125,60.33300018310547 C132.92300415039062,49.042999267578125 171.88299560546875,57.51300048828125 176.96299743652344,63.15299987792969 C187.39300537109375,74.73300170898438 169.6230010986328,127.53299713134766 130.66299438476562,135.4429931640625z"></path></g></g></g></svg>