<svg xmlns="http://www.w3.org/2000/svg" xmlns:xlink="http://www.w3.org/1999/xlink" viewBox="0 0 512 512" width="512" height="512" style="width: 100%; height: 100%; transform: translate3d(0,0,0);" preserveAspectRatio="xMidYMid meet"><defs><clipPath id="__lottie_element_51880"><rect width="512" height="512" x="0" y="0"></rect></clipPath></defs><g clip-path="url(#__lottie_element_51880)"><g style="display: block;" transform="matrix(1,0,0,1,256,256)" opacity="1"><g opacity="1" transform="matrix(1,0,0,1,0,0)"><path fill="rgb(0,0,0)" fill-opacity="1" d=" M201.85699462890625,-196.5749969482422 C194.84100341796875,-201.92799377441406 191.0709991455078,-207.72300720214844 189.468994140625,-213.1699981689453 C187.1529998779297,-221.0469970703125 175.81300354003906,-220.5780029296875 174.01600646972656,-212.56700134277344 C172.07400512695312,-203.91000366210938 172.73699951171875,-192.97500610351562 178.13499450683594,-180.14500427246094 C210.4669952392578,-104.61399841308594 147.97300720214844,-96.0739974975586 77.5530014038086,-94.19200134277344 C32.96200180053711,-115.91999816894531 -27.43899917602539,-115.71600341796875 -76.09200286865234,-87.37200164794922 C-113.13400268554688,-95.58799743652344 -152.9709930419922,-105.12000274658203 -170.18899536132812,-135.36900329589844 C-191.05299377441406,-172.5919952392578 -158.58599853515625,-195.16099548339844 -150.0240020751953,-203.98500061035156 C-138.6719970703125,-215.70899963378906 -133.48500061035156,-226.83399963378906 -132.218994140625,-236.40499877929688 C-131.08299255371094,-244.99099731445312 -142.23800659179688,-248.9530029296875 -146.9340057373047,-241.6750030517578 C-150.32899475097656,-236.41299438476562 -156.53500366210938,-231.35499572753906 -166.70599365234375,-227.5290069580078 C-203.0800018310547,-213.56700134277344 -243.93099975585938,-193.3000030517578 -244.74600219726562,-124.94200134277344 C-244.92100524902344,-61.275001525878906 -203.44000244140625,-14.37600040435791 -165.73800659179688,17.976999282836914 C-165.73800659179688,17.97800064086914 -165.73800659179688,17.979000091552734 -165.73800659179688,17.979999542236328 C-177.40699768066406,41.83399963378906 -168.91099548339844,70.75199890136719 -146.24000549316406,84.48600006103516 C-130.56700134277344,93.98100280761719 -113.7300033569336,101.80599975585938 -96.36900329589844,108.0479965209961 C-96.36900329589844,108.0479965209961 -96.31400299072266,108.06800079345703 -96.31400299072266,108.06800079345703 C-87.37300109863281,111.28299713134766 -90.51499938964844,124.72000122070312 -99.94999694824219,123.64299774169922 C-132.1320037841797,119.9749984741211 -161.65199279785156,111.68399810791016 -187.218994140625,99.97599792480469 C-194.7550048828125,96.5250015258789 -203.7220001220703,99.40399932861328 -207.76199340820312,106.64099884033203 C-223.41400146484375,134.6820068359375 -231.41900634765625,176.06700134277344 -228.09800720214844,188.5449981689453 C-212.10499572753906,248.63400268554688 141.60800170898438,264.1839904785156 222.8470001220703,203.2030029296875 C234.34500122070312,181.9040069580078 229.14199829101562,113.06500244140625 193.68899536132812,88.08200073242188 C188.93299865722656,66.21800231933594 181.58200073242188,39.90599822998047 170.343994140625,13.71500015258789 C276.3299865722656,-70.11399841308594 258.9939880371094,-153.0189971923828 201.85699462890625,-196.5749969482422z"></path></g></g></g></svg>