<svg xmlns="http://www.w3.org/2000/svg" xmlns:xlink="http://www.w3.org/1999/xlink" viewBox="0 0 512 512" width="512" height="512" style="width: 100%; height: 100%; transform: translate3d(0,0,0);" preserveAspectRatio="xMidYMid meet"><defs><clipPath id="__lottie_element_53299"><rect width="512" height="512" x="0" y="0"></rect></clipPath></defs><g clip-path="url(#__lottie_element_53299)"><g style="display: block;" transform="matrix(1,0,0,1,0,0)" opacity="1"><g opacity="1" transform="matrix(1,0,0,1,255.60699462890625,256.4010009765625)"><path fill="rgb(0,0,0)" fill-opacity="1" d=" M-0.0010000000474974513,-254.4010009765625 C-31.584999084472656,-254.4010009765625 -63.099998474121094,-248.54600524902344 -92.5250015258789,-237.05299377441406 C-106.4020004272461,-231.6320037841797 -119.7959976196289,-224.9810028076172 -132.5070037841797,-217.21099853515625 C-139.9709930419922,-212.6479949951172 -160.40899658203125,-199.7429962158203 -162.78399658203125,-190.86399841308594 C-163.95199584960938,-186.5 -125.99099731445312,-137.65899658203125 -120.53099822998047,-120.64199829101562 C-130.45799255371094,-126.5510025024414 -168.8520050048828,-156.16200256347656 -178.56199645996094,-162.32200622558594 C-189.4040069580078,-169.19900512695312 -189.91000366210938,-169.0760040283203 -198.52200317382812,-159.10400390625 C-210.43899536132812,-145.30299377441406 -220.156005859375,-128.8560028076172 -228.20700073242188,-112.56400299072266 C-245.4550018310547,-77.66100311279297 -254.4010009765625,-38.92300033569336 -254.4010009765625,0 C-254.4010009765625,19.194000244140625 -252.2570037841797,38.37699890136719 -247.9720001220703,57.08700180053711 C-245.40899658203125,68.2750015258789 -244.31700134277344,69.88600158691406 -233.54400634765625,73.71800231933594 C-223.86399841308594,77.16100311279297 -213.98199462890625,79.99099731445312 -203.927001953125,82.1050033569336 C-204.656005859375,85.75900268554688 -206.05499267578125,89.27799987792969 -208.03199768066406,92.43599700927734 C-208.5850067138672,93.31999969482422 -209.2169952392578,94.20600128173828 -210.13099670410156,94.70899963378906 C-214.30099487304688,97.00199890136719 -219.73399353027344,89.8280029296875 -223.5189971923828,92.71299743652344 C-229.1479949951172,97.00299835205078 -218.05099487304688,122.68699645996094 -216.60299682617188,128.00399780273438 C-213.4669952392578,139.52099609375 -207.44200134277344,147.8209991455078 -199.76199340820312,157.54600524902344 C-184.35800170898438,177.05099487304688 -166.10299682617188,194.28799438476562 -145.74200439453125,208.54400634765625 C-103.197998046875,238.33099365234375 -51.92499923706055,254.4010009765625 -0.0010000000474974513,254.4010009765625 C140.5,254.4010009765625 254.4010009765625,140.5019989013672 254.4010009765625,0 C254.4010009765625,-140.5019989013672 140.5,-254.4010009765625 -0.0010000000474974513,-254.4010009765625z M185.39500427246094,-120.64199829101562 C192.95799255371094,-120.64199829101562 199.08900451660156,-114.51000213623047 199.08900451660156,-106.9469985961914 C199.08900451660156,-99.38300323486328 192.95799255371094,-93.25199890136719 185.39500427246094,-93.25199890136719 C177.83200073242188,-93.25199890136719 171.69900512695312,-99.38300323486328 171.69900512695312,-106.9469985961914 C171.69900512695312,-114.51000213623047 177.83200073242188,-120.64199829101562 185.39500427246094,-120.64199829101562z M129.87600708007812,-186.7469940185547 C137.43899536132812,-186.7469940185547 143.57200622558594,-180.61599731445312 143.57200622558594,-173.052001953125 C143.57200622558594,-165.48899841308594 137.43899536132812,-159.35800170898438 129.87600708007812,-159.35800170898438 C122.31300354003906,-159.35800170898438 116.18199920654297,-165.48899841308594 116.18199920654297,-173.052001953125 C116.18199920654297,-180.61599731445312 122.31300354003906,-186.7469940185547 129.87600708007812,-186.7469940185547z M-27.631999969482422,-232.22000122070312 C-20.10099983215332,-232.92100524902344 -13.428999900817871,-227.38400268554688 -12.727999687194824,-219.85299682617188 C-12.027000427246094,-212.322998046875 -17.56399917602539,-205.6490020751953 -25.094999313354492,-204.947998046875 C-32.625,-204.2480010986328 -39.29800033569336,-209.78399658203125 -39.999000549316406,-217.31500244140625 C-40.70000076293945,-224.8459930419922 -35.16299819946289,-231.5189971923828 -27.631999969482422,-232.22000122070312z M-124.14099884033203,-185.47799682617188 C-124.84200286865234,-193.00900268554688 -119.30500030517578,-199.6820068359375 -111.7750015258789,-200.3820037841797 C-104.24400329589844,-201.08399963378906 -97.57099914550781,-195.54600524902344 -96.87000274658203,-188.01600646972656 C-96.16899871826172,-180.48500061035156 -101.70500183105469,-173.81199645996094 -109.23600006103516,-173.11199951171875 C-116.76699829101562,-172.41099548339844 -123.44000244140625,-177.947998046875 -124.14099884033203,-185.47799682617188z M-181.64700317382812,-128.29200744628906 C-174.11700439453125,-128.9929962158203 -167.44400024414062,-123.45600128173828 -166.7429962158203,-115.92500305175781 C-166.04200744628906,-108.3949966430664 -171.57899475097656,-101.72200012207031 -179.11000061035156,-101.0199966430664 C-186.63999938964844,-100.31999969482422 -193.31300354003906,-105.85600280761719 -194.01400756835938,-113.38700103759766 C-194.71499633789062,-120.91799926757812 -189.17799377441406,-127.59100341796875 -181.64700317382812,-128.29200744628906z M-216.99899291992188,49.66699981689453 C-224.56300354003906,49.66699981689453 -230.69400024414062,43.53499984741211 -230.69400024414062,35.97200012207031 C-230.69400024414062,28.409000396728516 -224.56300354003906,22.277000427246094 -216.99899291992188,22.277000427246094 C-209.43600463867188,22.277000427246094 -203.30499267578125,28.409000396728516 -203.30499267578125,35.97200012207031 C-203.30499267578125,43.53499984741211 -209.43600463867188,49.66699981689453 -216.99899291992188,49.66699981689453z M-185.18099975585938,128.1699981689453 C-192.74400329589844,128.1699981689453 -198.87600708007812,122.03800201416016 -198.87600708007812,114.4749984741211 C-198.87600708007812,106.91200256347656 -192.74400329589844,100.78099822998047 -185.18099975585938,100.78099822998047 C-177.6179962158203,100.78099822998047 -171.48599243164062,106.91200256347656 -171.48599243164062,114.4749984741211 C-171.48599243164062,122.03800201416016 -177.6179962158203,128.1699981689453 -185.18099975585938,128.1699981689453z M-133.51600646972656,189.468994140625 C-141.07899475097656,189.468994140625 -147.21099853515625,183.33799743652344 -147.21099853515625,175.77499389648438 C-147.21099853515625,168.21099853515625 -141.07899475097656,162.0800018310547 -133.51600646972656,162.0800018310547 C-125.9530029296875,162.0800018310547 -119.8219985961914,168.21099853515625 -119.8219985961914,175.77499389648438 C-119.8219985961914,183.33799743652344 -125.9530029296875,189.468994140625 -133.51600646972656,189.468994140625z M37.38100051879883,229.82699584960938 C29.820999145507812,230.0399932861328 23.518999099731445,224.08399963378906 23.305999755859375,216.5240020751953 C23.093000411987305,208.96400451660156 29.049999237060547,202.66200256347656 36.61000061035156,202.44900512695312 C44.16999816894531,202.23500061035156 50.47100067138672,208.1909942626953 50.683998107910156,215.7519989013672 C50.89799880981445,223.31199645996094 44.94200134277344,229.61300659179688 37.38100051879883,229.82699584960938z M120.5790023803711,199.71299743652344 C113.01799774169922,199.92599487304688 106.71700286865234,193.97000122070312 106.50299835205078,186.41000366210938 C106.29000091552734,178.8489990234375 112.24700164794922,172.54800415039062 119.80699920654297,172.3350067138672 C127.36699676513672,172.1219940185547 133.66900634765625,178.07699584960938 133.8820037841797,185.63800048828125 C134.0959930419922,193.197998046875 128.13900756835938,199.49899291992188 120.5790023803711,199.71299743652344z M182.32000732421875,141.85899353027344 C174.75999450683594,142.07200622558594 168.45899963378906,136.11599731445312 168.24600219726562,128.55599975585938 C168.03199768066406,120.99600219726562 173.98800659179688,114.69400024414062 181.54800415039062,114.48100280761719 C189.10899353027344,114.26699829101562 195.41000366210938,120.2229995727539 195.62399291992188,127.78399658203125 C195.83700561523438,135.343994140625 189.8800048828125,141.64500427246094 182.32000732421875,141.85899353027344z M185.36300659179688,76.80400085449219 C185.36300659179688,76.80400085449219 107.4800033569336,56.992000579833984 107.4800033569336,56.992000579833984 C87.04399871826172,95.4520034790039 46.5890007019043,121.65299987792969 -0.0010000000474974513,121.65299987792969 C-2.4140000343322754,121.65299987792969 -4.804999828338623,121.56300354003906 -7.184000015258789,121.42400360107422 C-7.184000015258789,121.42400360107422 -28.7810001373291,202.4429931640625 -28.7810001373291,202.4429931640625 C-28.7810001373291,202.4429931640625 -82.58100128173828,188.1009979248047 -82.58100128173828,188.1009979248047 C-82.58100128173828,188.1009979248047 -60.56100082397461,105.49099731445312 -60.56100082397461,105.49099731445312 C-97.05899810791016,84.49099731445312 -121.65399932861328,45.130001068115234 -121.65399932861328,0 C-121.65399932861328,-0.4320000112056732 -121.625,-0.8579999804496765 -121.62000274658203,-1.2879999876022339 C-121.62000274658203,-1.2879999876022339 -206.3459930419922,-22.840999603271484 -206.3459930419922,-22.840999603271484 C-206.3459930419922,-22.840999603271484 -192.6179962158203,-76.80400085449219 -192.6179962158203,-76.80400085449219 C-192.6179962158203,-76.80400085449219 -108.31700134277344,-55.35900115966797 -108.31700134277344,-55.35900115966797 C-88.16799926757812,-94.70099639892578 -47.25,-121.64800262451172 -0.012000000104308128,-121.6520004272461 C-0.012000000104308128,-121.6520004272461 21.52400016784668,-202.4429931640625 21.52400016784668,-202.4429931640625 C21.52400016784668,-202.4429931640625 75.3270034790039,-188.1009979248047 75.3270034790039,-188.1009979248047 C75.3270034790039,-188.1009979248047 54.2140007019043,-108.9020004272461 54.2140007019043,-108.9020004272461 C94.18299865722656,-88.96499633789062 121.6520004272461,-47.70100021362305 121.6520004272461,0 C121.6520004272461,1.0470000505447388 121.5999984741211,2.0810000896453857 121.5739974975586,3.122999906539917 C121.5739974975586,3.122999906539917 199.08900451660156,22.840999603271484 199.08900451660156,22.840999603271484 C199.08900451660156,22.840999603271484 185.36300659179688,76.80400085449219 185.36300659179688,76.80400085449219z M212.78399658203125,-14.696000099182129 C205.2209930419922,-14.696000099182129 199.08900451660156,-20.82699966430664 199.08900451660156,-28.389999389648438 C199.08900451660156,-35.952999114990234 205.2209930419922,-42.084999084472656 212.78399658203125,-42.084999084472656 C220.3470001220703,-42.084999084472656 226.47799682617188,-35.952999114990234 226.47799682617188,-28.389999389648438 C226.47799682617188,-20.82699966430664 220.3470001220703,-14.696000099182129 212.78399658203125,-14.696000099182129z"></path></g><g opacity="1" transform="matrix(1,0,0,1,254.6060028076172,256.4010009765625)"><path fill="rgb(0,0,0)" fill-opacity="1" d=" M0,-73.1989974975586 C-40.426998138427734,-73.1989974975586 -73.19999694824219,-40.426998138427734 -73.19999694824219,0 C-73.19999694824219,40.426998138427734 -40.426998138427734,73.19999694824219 0,73.19999694824219 C40.426998138427734,73.19999694824219 73.19999694824219,40.426998138427734 73.19999694824219,0 C73.19999694824219,-40.426998138427734 40.426998138427734,-73.1989974975586 0,-73.1989974975586z M9.527999877929688,-45.972999572753906 C7.999000072479248,-41.356998443603516 2.9709999561309814,-40.65599822998047 -0.9610000252723694,-39.659000396728516 C-10.565999984741211,-37.224998474121094 -18.128000259399414,-30.77899932861328 -24.059999465942383,-23.069000244140625 C-29.003999710083008,-16.643999099731445 -34.93199920654297,-2.509999990463257 -44.06800079345703,-5.954999923706055 C-49.500999450683594,-8.003999710083008 -48.93000030517578,-13.64799976348877 -47.74700164794922,-17.149999618530273 C-39.779998779296875,-40.733001708984375 -16.43600082397461,-51.30799865722656 -3.628000020980835,-50.54499816894531 C0.07599999755620956,-50.32400131225586 10.701000213623047,-49.513999938964844 9.527999877929688,-45.972999572753906z"></path></g></g></g></svg>