<svg xmlns="http://www.w3.org/2000/svg" xmlns:xlink="http://www.w3.org/1999/xlink" viewBox="0 0 512 512" width="512" height="512" style="width: 100%; height: 100%; transform: translate3d(0,0,0);" preserveAspectRatio="xMidYMid meet"><defs><clipPath id="__lottie_element_9108"><rect width="512" height="512" x="0" y="0"></rect></clipPath></defs><g clip-path="url(#__lottie_element_9108)"><g style="display: block;" transform="matrix(1.0399999618530273,0,0,1.0399999618530273,-7.6677398681640625,6.5897979736328125)" opacity="1"><g opacity="1" transform="matrix(1,0,0,1,247.468994140625,242.0050048828125)"><path fill="rgb(0,0,0)" fill-opacity="1" d=" M187.22900390625,19.184999465942383 C226.85899353027344,11.53499984741211 247.218994140625,-46.8650016784668 238.22900390625,-83.81500244140625 C224.72900390625,-139.30499267578125 196.72900390625,-128.09500122070312 184.72900390625,-148.80499267578125 C168.06900024414062,-177.5749969482422 170.75,-188.52499389648438 154.22900390625,-200.80499267578125 C131.1790008544922,-217.94500732421875 96.31900024414062,-219.03500366210938 85.73999786376953,-201.80499267578125 C77.87000274658203,-188.9949951171875 90.56900024414062,-171.875 86.73999786376953,-146.80499267578125 C81.26899719238281,-111.09500122070312 61.2400016784668,-67.31500244140625 50.7400016784668,-77.31500244140625 C38.59000015258789,-88.875 47.119998931884766,-104.83499908447266 58.2400016784668,-144.80499267578125 C68.01000213623047,-179.94500732421875 49.808998107910156,-241.06500244140625 28.239999771118164,-241.30499267578125 C-11.949999809265137,-241.7550048828125 -25.540000915527344,-207.94500732421875 -44.2599983215332,-201.80499267578125 C-70.98999786376953,-193.03500366210938 -83.3010025024414,-205.89500427246094 -100.75,-196.80499267578125 C-123.69999694824219,-184.85499572753906 -134.55999755859375,-146.94500732421875 -127.75,-116.80500030517578 C-117.25,-70.31500244140625 -34.191001892089844,-31.7549991607666 -40.7599983215332,-11.3149995803833 C-49.7599983215332,16.684999465942383 -137.48899841308594,-91.24500274658203 -177.24899291992188,-64.31500244140625 C-223.74899291992188,-32.814998626708984 -196.36000061035156,3.7249999046325684 -207.24899291992188,21.184999465942383 C-217.94000244140625,38.334999084472656 -247.218994140625,53.724998474121094 -219.24899291992188,91.68499755859375 C-177.24899291992188,148.6750030517578 -64.76000213623047,46.185001373291016 -57.2599983215332,64.18499755859375 C-45.57099914550781,92.21499633789062 -148.66000366210938,107.23500061035156 -144.75,143.6750030517578 C-140.25,185.6750030517578 -89.72000122070312,190.53500366210938 -79.76000213623047,204.1750030517578 C-73.4010009765625,212.875 -64.94100189208984,234.78500366210938 -54.2599983215332,237.1750030517578 C-33.810001373291016,241.7550048828125 -7.349999904632568,207.52499389648438 6.239999771118164,177.6750030517578 C27.099000930786133,131.85499572753906 6.300000190734863,94.68499755859375 23.739999771118164,90.18499755859375 C33.90999984741211,87.55500030517578 38.4900016784668,116.32499694824219 37.2400016784668,147.1750030517578 C35.85900115966797,181.2550048828125 13.550000190734863,200.9949951171875 44.2400016784668,209.6750030517578 C93.73999786376953,223.6750030517578 113.46900177001953,177.03500366210938 130.22900390625,169.6750030517578 C143.75999450683594,163.73500061035156 206.81900024414062,166.40499877929688 205.22900390625,123.17500305175781 C201.6999969482422,27.235000610351562 83.73999786376953,40.685001373291016 94.23999786376953,18.184999465942383 C104.10900115966797,-2.984999895095825 161.6999969482422,24.114999771118164 187.22900390625,19.184999465942383z M-67.76000213623047,35.185001373291016 C-85.7699966430664,34.80500030517578 -102.41999816894531,36.14500045776367 -126.75,46.685001373291016 C-138.9010009765625,51.94499969482422 -148.0399932861328,33.85499954223633 -141.25,28.684999465942383 C-106.69999694824219,2.375 -62.691001892089844,14.5649995803833 -57.7599983215332,16.684999465942383 C-43.70000076293945,22.725000381469727 -52.5,35.505001068115234 -67.76000213623047,35.185001373291016z M46.369998931884766,14.475000381469727 C38.790000915527344,34.6349983215332 20.388999938964844,42.375 5.269000053405762,36.685001373291016 C-9.850000381469727,31.0049991607666 -15.970000267028809,14.055000305175781 -8.390000343322754,-6.105000019073486 C-0.8100000023841858,-26.264999389648438 17.59000015258789,-38.005001068115234 32.709999084472656,-32.314998626708984 C47.83000183105469,-26.635000228881836 53.95000076293945,-5.684999942779541 46.369998931884766,14.475000381469727z M109.73999786376953,101.68499755859375 C113.30000305175781,112.70600128173828 94.30000305175781,125.7249984741211 88.73999786376953,113.18499755859375 C82.88899993896484,99.98500061035156 73.13899993896484,85.8550033569336 66.30000305175781,80.7249984741211 C54.29999923706055,71.7249984741211 73.30000305175781,66.6050033569336 78.87999725341797,68.41500091552734 C95.30000305175781,73.7249984741211 106.58999633789062,91.94499969482422 109.73999786376953,101.68499755859375z M83.73999786376953,-43.314998626708984 C95.33000183105469,-53.935001373291016 115,-59.744998931884766 122.30000305175781,-78.2750015258789 C125.96900177001953,-87.59500122070312 144.1300048828125,-89.625 144.72900390625,-78.81500244140625 C146.16000366210938,-53.275001525878906 118.30899810791016,-31.854999542236328 96.23999786376953,-26.315000534057617 C86.54000091552734,-23.875 73.30000305175781,-33.755001068115234 83.73999786376953,-43.314998626708984z"></path></g></g></g></svg>