<svg xmlns="http://www.w3.org/2000/svg" xmlns:xlink="http://www.w3.org/1999/xlink" viewBox="0 0 512 512" width="512" height="512" style="width: 100%; height: 100%; transform: translate3d(0,0,0);" preserveAspectRatio="xMidYMid meet"><defs><clipPath id="__lottie_element_51605"><rect width="512" height="512" x="0" y="0"></rect></clipPath></defs><g clip-path="url(#__lottie_element_51605)"><g style="display: block;" transform="matrix(1,0,0,1,258.70098876953125,253.1820068359375)" opacity="1"><g opacity="1" transform="matrix(1,0,0,1,0,0)"><path fill="rgb(0,0,0)" fill-opacity="1" d=" M34.54,62.98 C34.47,43.71 10.07,51.91 10.23,66.33 C11.23,83.68 35.15,79.86 34.54,62.98z M159.88,55.43 C159.17,30.12 130.27,32.58 127.41,54.32 C127.75,73.64 160.11,78.41 159.88,55.43z M-197.37,130.57 C-215.73,130.23 -213.15,147.74 -202.11,154.88 C-191.47,163.1 -179.09,167.93 -166.73,172.73 C-161.85,174.63 -157.31,173.44 -154.31,169.07 C-144.97,153.26 -185.45,131.69 -197.37,130.57z M-84.24,122.87 C-84.21,113.23 -84.16,105.8 -87.68,98.98 C-90.48,93.56 -94.41,88.88 -101.03,89.36 C-120.3,93.57 -114.66,131.11 -109.25,144.78 C-107.55,149.39 -104.13,152.68 -98.76,152.7 C-85.63,151.95 -84.62,131.22 -84.24,122.87z M117.5,87.79 C118.5,64.24 82.57,44.53 70.19,70.91 C52.17,110.65 113.88,138.98 117.5,87.79z M140.3939971923828,-247.85800170898438 C178.7169952392578,-246.11199951171875 222.72900390625,-232.99400329589844 240.78900146484375,-198.48800659179688 C246.39199829101562,-187.7830047607422 239.36700439453125,-177.7169952392578 227.3040008544922,-176.91299438476562 C208.99000549316406,-177.0070037841797 190.87100219726562,-178.98199462890625 172.36399841308594,-179.0919952392578 C139.38900756835938,-179.28799438476562 126.49299621582031,-167.72799682617188 133.9980010986328,-143.9250030517578 C139.47000122070312,-126.57099914550781 149.94700622558594,-112.66699981689453 161.74099731445312,-99.60600280761719 C321.50299072265625,108.05599975585938 31.93600082397461,268.1180114746094 -65.33999633789062,18.892000198364258 C-79.24299621582031,-9.04800033569336 -93.42500305175781,-51.04899978637695 -129.947998046875,-53.00600051879883 C-156.55799865722656,-52.992000579833984 -156.04600524902344,-20.899999618530273 -150.1199951171875,-2.2860000133514404 C-148.59300231933594,5.9019999504089355 -139.822998046875,18.43199920654297 -154.56700134277344,17.80500030517578 C-160.39100646972656,19.04599952697754 -174.46299743652344,16.466999053955078 -175.48599243164062,24.000999450683594 C-175.42100524902344,28.094999313354492 -171.42599487304688,28.118000030517578 -168.36199951171875,28.39699935913086 C-130.84800720214844,28.46500015258789 -93.88200378417969,40.84000015258789 -68.53099822998047,69.62699890136719 C-42.79199981689453,95.20099639892578 -49.38999938964844,134.9239959716797 -64.3489990234375,164.72300720214844 C-68.4749984741211,171.80799865722656 -70.31600189208984,178.90199279785156 -70.09100341796875,186.95799255371094 C-68.6760025024414,248.78399658203125 -111.5530014038086,269.04400634765625 -154.1959991455078,221.9459991455078 C-159.5290069580078,215.39999389648438 -165.7550048828125,212.0469970703125 -173.89300537109375,210.7790069580078 C-185.1580047607422,209.0229949951172 -195.77999877929688,205.197998046875 -205.8509979248047,199.67999267578125 C-255.4290008544922,172.07699584960938 -248.0229949951172,104.54900360107422 -224.4530029296875,61.448001861572266 C-220.90499877929688,55.012001037597656 -220.96400451660156,49.57500076293945 -223.88099670410156,42.75 C-280.22198486328125,-70.88099670410156 -161.10800170898438,-224.09100341796875 -46.415000915527344,-129.1199951171875 C-12.928000450134277,-100.66200256347656 4.196000099182129,-59.95500183105469 19.584999084472656,-19.94700050354004 C24.538999557495117,-6.083000183105469 32.1510009765625,6.046999931335449 41.816001892089844,16.964000701904297 C62.12900161743164,43.74599838256836 111.32499694824219,30.944000244140625 103.94400024414062,-5.959000110626221 C96.44400024414062,-36.505001068115234 77.76300048828125,-62.595001220703125 66.20700073242188,-91.62300109863281 C38.95100021362305,-154.49200439453125 49.834999084472656,-249.3280029296875 140.3939971923828,-247.85800170898438z"></path><g opacity="1" transform="matrix(1,0,0,1,22.391000747680664,64.64600372314453)"></g><g opacity="1" transform="matrix(1,0,0,1,143.64599609375,54.02199935913086)"></g><g opacity="1" transform="matrix(1,0,0,1,-181.85000610351562,152.08599853515625)"></g><g opacity="1" transform="matrix(1,0,0,1,-99.3280029296875,121.01399993896484)"></g><g opacity="1" transform="matrix(1,0,0,1,92.21099853515625,86.88200378417969)"></g><g opacity="1" transform="matrix(1,0,0,1,0,0)"></g></g></g></g></svg>