<svg xmlns="http://www.w3.org/2000/svg" xmlns:xlink="http://www.w3.org/1999/xlink" viewBox="0 0 512 512" width="512" height="512" style="width: 100%; height: 100%; transform: translate3d(0,0,0);" preserveAspectRatio="xMidYMid meet"><defs><clipPath id="__lottie_element_51330"><rect width="512" height="512" x="0" y="0"></rect></clipPath></defs><g clip-path="url(#__lottie_element_51330)"><g style="display: block;" transform="matrix(1,0,0,1,4.1820068359375,37.011993408203125)" opacity="1"><g opacity="1" transform="matrix(1,0,0,1,254.03399658203125,216.4600067138672)"><path fill="rgb(0,0,0)" fill-opacity="1" d=" M-182.3179931640625,-127.20999908447266 C-189.8939971923828,-119.93599700927734 -192.9029998779297,-111.97699737548828 -191.3179931640625,-103.20999908447266 C-185.21600341796875,-69.47200012207031 -120.31800079345703,-34.209999084472656 -25.31800079345703,-46.209999084472656 C33.62699890136719,-53.65599822998047 81.58399963378906,-70.2249984741211 80.68199920654297,-98.20999908447266 C79.68199920654297,-129.2100067138672 -54.31800079345703,-148.20899963378906 -108.30899810791016,-137.80999755859375 C-142.11099243164062,-131.29800415039062 -143.10299682617188,-183.10400390625 -102.71499633789062,-195.50900268554688 C-35.31800079345703,-216.20899963378906 104.68199920654297,-207.37399291992188 139.6820068359375,-131.2100067138672 C150.13400268554688,-108.46499633789062 143.6820068359375,-45.209999084472656 127.68199920654297,-29.209999084472656 C105.76599884033203,-7.294000148773193 66.02999877929688,14.635000228881836 17.68199920654297,22.790000915527344 C-65.31800079345703,36.790000915527344 -106.6780014038086,21.395999908447266 -101.31800079345703,30.791000366210938 C-97.072998046875,38.23099899291992 -67.22599792480469,62.60300064086914 24.68199920654297,51.790000915527344 C109.68199920654297,41.790000915527344 132.6820068359375,1.437999963760376 146.6820068359375,1.7910000085830688 C159.6820068359375,2.118000030517578 262.33599853515625,100.8949966430664 240.6820068359375,132.7899932861328 C229.3280029296875,149.51199340820312 203.18800354003906,139.52499389648438 152.6820068359375,155.7899932861328 C93.68199920654297,174.7899932861328 89.68199920654297,203.7899932861328 37.68199920654297,209.7899932861328 C-17.950000762939453,216.20899963378906 -73.69599914550781,149.64500427246094 -114.31800079345703,93.79000091552734 C-154.3179931640625,38.790000915527344 -200.7270050048828,22.34000015258789 -237.3179931640625,-15.210000038146973 C-246.34300231933594,-24.472000122070312 -253.78399658203125,-83.47200012207031 -245.3179931640625,-116.20999908447266 C-240.052001953125,-136.572998046875 -223.99200439453125,-152.89199829101562 -207.3179931640625,-160.2100067138672 C-186.21600341796875,-169.4720001220703 -171.74899291992188,-137.35899353027344 -182.3179931640625,-127.20999908447266z"></path></g></g></g></svg>