<svg xmlns="http://www.w3.org/2000/svg" xmlns:xlink="http://www.w3.org/1999/xlink" viewBox="0 0 512 512" width="512" height="512" style="width: 100%; height: 100%; transform: translate3d(0,0,0);" preserveAspectRatio="xMidYMid meet"><defs><clipPath id="__lottie_element_764"><rect width="512" height="512" x="0" y="0"></rect></clipPath></defs><g clip-path="url(#__lottie_element_764)"><g style="display: block;" transform="matrix(1,0,0,1,18.238006591796875,5.621002197265625)" opacity="1"><g opacity="1" transform="matrix(1,0,0,1,238.36099243164062,250.8800048828125)"><path fill="rgb(0,0,0)" fill-opacity="1" d=" M236.375,14.635000228881836 C234.63800048828125,-12.4350004196167 204.6820068359375,-40.926998138427734 189.2550048828125,-40.59400177001953 C187.3679962158203,-40.553001403808594 185.4709930419922,-40.277000427246094 183.56900024414062,-39.80799865722656 C189.82899475097656,-67.80500030517578 198.66000366210938,-116.75199890136719 178.69000244140625,-157.5399932861328 C165.35800170898438,-184.76800537109375 142.68600463867188,-207.76300048828125 113.1259994506836,-224.03500366210938 C81.51599884033203,-241.43499755859375 42.39799880981445,-250.6300048828125 0.0010000000474974513,-250.6300048828125 C-42.39799880981445,-250.6300048828125 -81.51599884033203,-241.43499755859375 -113.1240005493164,-224.03500366210938 C-142.68699645996094,-207.76300048828125 -165.35699462890625,-184.76800537109375 -178.68899536132812,-157.5399932861328 C-198.66000366210938,-116.75199890136719 -189.8280029296875,-67.80500030517578 -183.56900024414062,-39.80799865722656 C-185.468994140625,-40.277000427246094 -187.3699951171875,-40.553001403808594 -189.2570037841797,-40.59400177001953 C-204.68299865722656,-40.926998138427734 -234.63800048828125,-12.4350004196167 -236.375,14.635000228881836 C-238.11199951171875,41.70500183105469 -192.62600708007812,85.625 -174.49099731445312,85.2509994506836 C-171.78500366210938,85.19499969482422 -168.94200134277344,84.47899627685547 -166.05599975585938,83.28500366210938 C-163.79100036621094,101.96299743652344 -160.51800537109375,126.49600219726562 -151.1929931640625,146.11900329589844 C-144.2239990234375,160.7830047607422 -127.26899719238281,177.9550018310547 -113.64700317382812,191.7530059814453 C-110.15399932861328,195.29200744628906 -106.8550033569336,198.63400268554688 -104.2959976196289,201.36900329589844 C-104.2959976196289,201.36900329589844 -103.86699676513672,201.8280029296875 -103.86699676513672,201.8280029296875 C-91.47200012207031,215.08599853515625 -78.65499877929688,228.79600524902344 -63.231998443603516,237.5240020751953 C-42.46900177001953,249.27200317382812 -17.200000762939453,250.63099670410156 0.0010000000474974513,250.63099670410156 C17.201000213623047,250.63099670410156 42.470001220703125,249.27200317382812 63.233001708984375,237.5240020751953 C78.65399932861328,228.79600524902344 91.47200012207031,215.08599853515625 103.86799621582031,201.8280029296875 C103.86799621582031,201.8280029296875 104.29499816894531,201.3699951171875 104.29499816894531,201.3699951171875 C106.85399627685547,198.63299560546875 110.15299987792969,195.29200744628906 113.64800262451172,191.7530059814453 C127.2699966430664,177.9550018310547 144.2239990234375,160.7830047607422 151.19200134277344,146.11900329589844 C160.51400756835938,126.50499725341797 163.78700256347656,101.98400115966797 166.05299377441406,83.30799865722656 C168.94000244140625,84.50499725341797 171.78399658203125,85.19499969482422 174.49200439453125,85.2509994506836 C192.6269989013672,85.625 238.11199951171875,41.70500183105469 236.375,14.635000228881836z M-99.4749984741211,-199.718994140625 C-72.02999877929688,-214.8249969482422 -37.632999420166016,-222.81100463867188 0.0010000000474974513,-222.81100463867188 C37.632999420166016,-222.81100463867188 72.03099822998047,-214.8249969482422 99.47599792480469,-199.718994140625 C117.41899871826172,-189.8419952392578 132.2100067138672,-177.10699462890625 143.09300231933594,-162.33299255371094 C149.072998046875,-151.49600219726562 151.77699279785156,-140.58200073242188 150.89700317382812,-130.65899658203125 C149.6540069580078,-116.66400146484375 142.0659942626953,-102.15499877929688 144.00100708007812,-90.66000366210938 C145.93499755859375,-79.16600036621094 152.51600646972656,-67.09400177001953 151.66600036621094,-28.964000701904297 C151.61700439453125,-26.72100067138672 151.6280059814453,-24.708999633789062 151.6840057373047,-22.881000518798828 C151.25,-15.225000381469727 152.7570037841797,-9.177000045776367 154.03500366210938,-4.172999858856201 C155.11500549316406,0.061000000685453415 156.02000427246094,3.6549999713897705 155.98500061035156,8.392999649047852 C155.927001953125,9.315999984741211 155.84500122070312,10.293999671936035 155.73300170898438,11.347000122070312 C154.49099731445312,23.047000885009766 147.1269989013672,34.54600143432617 136.37600708007812,43.1349983215332 C123.55500030517578,53.380001068115234 117.32599639892578,69.61299896240234 118.79100036621094,85.86199951171875 C120.25199890136719,102.05500030517578 119.51200103759766,115.68099975585938 116.9020004272461,127.7699966430664 C116.15399932861328,131.23699951171875 111.09200286865234,130.9929962158203 110.66100311279297,127.4729995727539 C107.63300323486328,102.69499969482422 100.01200103759766,78.25599670410156 85.95099639892578,57.590999603271484 C80.92900085449219,50.709999084472656 70.18699645996094,56.856998443603516 73.70800018310547,64.61100006103516 C77.9530029296875,73.58399963378906 80.86199951171875,83.49700164794922 82.93399810791016,93.2760009765625 C87.08300018310547,112.95800018310547 87.86599731445312,133.2969970703125 85.9990005493164,153.2550048828125 C85.53600311279297,158.57899475097656 84.84400177001953,163.87100219726562 84.00199890136719,169.13800048828125 C80.5199966430664,181.76400756835938 74.49299621582031,191.2550048828125 65.29900360107422,192.94500732421875 C51.42499923706055,195.49400329589844 38.61399841308594,177.7270050048828 0.0010000000474974513,177.7270050048828 C-38.612998962402344,177.7270050048828 -48.42499923706055,195.3470001220703 -62.6609992980957,194.76300048828125 C-72.72799682617188,194.3489990234375 -79.41100311279297,187.9600067138672 -82.60900115966797,176.8979949951172 C-84.0469970703125,169.07000732421875 -85.26799774169922,161.2030029296875 -86.0009994506836,153.2570037841797 C-88.54399871826172,123.65399932861328 -86.03399658203125,92.16799926757812 -73.80799865722656,64.822998046875 C-69.96800231933594,57.05099868774414 -80.79100036621094,50.577999114990234 -85.9489974975586,57.590999603271484 C-99.11299896240234,76.6259994506836 -105.86900329589844,98.38600158691406 -109.68900299072266,120.78900146484375 C-110.06199645996094,123.00399780273438 -110.38999938964844,125.22699737548828 -110.6760025024414,127.45500183105469 C-111.125,130.9600067138672 -116.16600036621094,131.18499755859375 -116.91000366210938,127.72899627685547 C-119.51300048828125,115.6520004272461 -120.2490005493164,102.04100036621094 -118.79199981689453,85.87000274658203 C-117.32599639892578,69.61699676513672 -123.552001953125,53.38100051879883 -136.37600708007812,43.1349983215332 C-147.1269989013672,34.54600143432617 -154.49000549316406,23.047000885009766 -155.73300170898438,11.347000122070312 C-155.8459930419922,10.293999671936035 -155.92599487304688,9.317999839782715 -155.98399353027344,8.395000457763672 C-156.0189971923828,3.6570000648498535 -155.11500549316406,0.061000000685453415 -154.03500366210938,-4.172999858856201 C-152.75599670410156,-9.178000450134277 -151.24899291992188,-15.22599983215332 -151.6840057373047,-22.881999969482422 C-151.6280059814453,-24.709999084472656 -151.61700439453125,-26.722000122070312 -151.66799926757812,-28.964000701904297 C-152.51699829101562,-67.09400177001953 -145.9340057373047,-79.16600036621094 -144,-90.66000366210938 C-142.06500244140625,-102.15499877929688 -149.65499877929688,-116.66400146484375 -150.89700317382812,-130.65899658203125 C-151.77699279785156,-140.58200073242188 -149.072998046875,-151.49600219726562 -143.093994140625,-162.33299255371094 C-132.21099853515625,-177.10699462890625 -117.41799926757812,-189.8419952392578 -99.4749984741211,-199.718994140625z"></path></g><g opacity="1" transform="matrix(1,0,0,1,238.36099243164062,349.24200439453125)"><path fill="rgb(0,0,0)" fill-opacity="1" d=" M70.70700073242188,8.23799991607666 C53.07899856567383,-5.390999794006348 31.450000762939453,-16.534000396728516 25.867000579833984,-16.534000396728516 C18.68199920654297,-16.534000396728516 7.9039998054504395,-6.864999771118164 0.0010000000474974513,-6.864999771118164 C-7.9019999504089355,-6.864999771118164 -18.68000030517578,-16.534000396728516 -25.864999771118164,-16.534000396728516 C-31.44700050354004,-16.534000396728516 -53.07699966430664,-5.390999794006348 -70.70500183105469,8.23799991607666 C-73.99700164794922,10.782999992370605 -71.677001953125,16.534000396728516 -67.79499816894531,15.4399995803833 C-47.19499969482422,9.638999938964844 -30.868999481201172,6.232999801635742 -26.58300018310547,5.882999897003174 C-21.19499969482422,5.442999839782715 -9.34000015258789,12.913999557495117 0.0010000000474974513,12.913999557495117 C9.340999603271484,12.913999557495117 21.19700050354004,5.442999839782715 26.586000442504883,5.882999897003174 C30.871000289916992,6.232999801635742 47.198001861572266,9.638999938964844 67.7959976196289,15.4399995803833 C71.6780014038086,16.534000396728516 73.99800109863281,10.782999992370605 70.70700073242188,8.23799991607666z"></path></g><g opacity="1" transform="matrix(1,0,0,1,321.0220031738281,220.11599731445312)"><path fill="rgb(0,0,0)" fill-opacity="1" d=" M-34.297000885009766,-8.479000091552734 C-33.75899887084961,-8.503999710083008 -32.862998962402344,-8.524999618530273 -31.725000381469727,-8.541999816894531 C-37.29899978637695,-3.302000045776367 -40.85499954223633,4.644000053405762 -40.85499954223633,13.541000366210938 C-40.85499954223633,29.31999969482422 -29.673999786376953,42.11199951171875 -15.881999969482422,42.11199951171875 C-2.0880000591278076,42.11199951171875 9.093999862670898,29.31999969482422 9.093999862670898,13.541000366210938 C9.093999862670898,4.629000186920166 5.525000095367432,-3.3259999752044678 -0.06499999761581421,-8.565999984741211 C16.624000549316406,-8.48900032043457 33.638999938964844,-8.324000358581543 36.63800048828125,-8.15999984741211 C41.20899963378906,-7.9079999923706055 45.729000091552734,-7.002999782562256 52.99599838256836,-5.585000038146973 C55.70800018310547,-5.054999828338623 57.83300018310547,-7.9029998779296875 56.4900016784668,-10.295000076293945 C50.4109992980957,-21.118000030517578 38.402000427246094,-38.512001037597656 31.801000595092773,-39.55799865722656 C23.739999771118164,-40.834999084472656 -27.847999572753906,-42.111000061035156 -36.06999969482422,-37.79999923706055 C-44.29199981689453,-33.4900016784668 -57.3489990234375,-9.595000267028809 -57.83300018310547,-4.327000141143799 C-54.60900115966797,-2.4119999408721924 -41.06800079345703,-8.15999984741211 -34.297000885009766,-8.479000091552734z"></path></g><g opacity="1" transform="matrix(1,0,0,1,155.7010040283203,220.11700439453125)"><path fill="rgb(0,0,0)" fill-opacity="1" d=" M-36.63800048828125,-8.15999984741211 C-33.64099884033203,-8.324999809265137 -16.624000549316406,-8.48900032043457 0.06400000303983688,-8.567000389099121 C-5.525000095367432,-3.3269999027252197 -9.093999862670898,4.629000186920166 -9.093999862670898,13.541000366210938 C-9.093999862670898,29.31999969482422 2.0880000591278076,42.111000061035156 15.880000114440918,42.111000061035156 C29.67300033569336,42.111000061035156 40.85499954223633,29.31999969482422 40.85499954223633,13.541000366210938 C40.85499954223633,4.64300012588501 37.29800033569336,-3.302999973297119 31.724000930786133,-8.541999816894531 C32.86199951171875,-8.524999618530273 33.75699996948242,-8.505000114440918 34.29600143432617,-8.479000091552734 C41.06700134277344,-8.15999984741211 54.60900115966797,-2.4119999408721924 57.83300018310547,-4.327000141143799 C57.349998474121094,-9.595999717712402 44.29100036621094,-33.4900016784668 36.069000244140625,-37.80099868774414 C27.847999572753906,-42.111000061035156 -23.740999221801758,-40.834999084472656 -31.802000045776367,-39.55799865722656 C-38.40299987792969,-38.512001037597656 -50.4109992980957,-21.118000030517578 -56.49100112915039,-10.295000076293945 C-57.83399963378906,-7.9029998779296875 -55.70800018310547,-5.054999828338623 -52.99700164794922,-5.585000038146973 C-45.729000091552734,-7.004000186920166 -41.20899963378906,-7.908999919891357 -36.63800048828125,-8.15999984741211z"></path></g><g opacity="1" transform="matrix(1,0,0,1,238.36099243164062,307.8630065917969)"><path fill="rgb(0,0,0)" fill-opacity="1" d=" M-32.887001037597656,-5.301000118255615 C-34.17599868774414,-8.175000190734863 -31.597999572753906,-19.02899932861328 -32.887001037597656,-20.305999755859375 C-34.17599868774414,-21.583999633789062 -44.137001037597656,-10.08899974822998 -43.492000579833984,-1.7879999876022339 C-42.84700012207031,6.513000011444092 -29.062000274658203,21.584999084472656 0,21.584999084472656 C29.06100082397461,21.584999084472656 42.847999572753906,6.513000011444092 43.49300003051758,-1.7879999876022339 C44.137001037597656,-10.08899974822998 34.178001403808594,-21.583999633789062 32.88800048828125,-20.305999755859375 C31.599000930786133,-19.02899932861328 34.178001403808594,-8.175000190734863 32.88800048828125,-5.301000118255615 C31.599000930786133,-2.427999973297119 18.159000396728516,3.2330000400543213 0,3.2330000400543213 C-18.159000396728516,3.2330000400543213 -31.597999572753906,-2.427999973297119 -32.887001037597656,-5.301000118255615z"></path></g><g opacity="1" transform="matrix(1,0,0,1,238.43699645996094,387.322998046875)"><path fill="rgb(0,0,0)" fill-opacity="1" d=" M59.5890007019043,-16.535999298095703 C18.523000717163086,1.152999997138977 -20.238000869750977,0.9120000004768372 -61.191001892089844,-16.695999145507812 C-66.41100311279297,-18.92099952697754 -71.0250015258789,-12.22599983215332 -66.98100280761719,-8.210000038146973 C-49.73500061035156,9.359999656677246 -25.621000289916992,18.26099967956543 -0.8949999809265137,18.913999557495117 C23.172000885009766,19.106000900268555 46.983001708984375,11.36400032043457 64.51200103759766,-4.9629998207092285 C64.51200103759766,-4.9629998207092285 66.23600006103516,-6.611999988555908 66.23600006103516,-6.611999988555908 C71.0250015258789,-11.22700023651123 65.78600311279297,-19.106000900268555 59.5890007019043,-16.535999298095703z"></path></g></g></g></svg>