<svg xmlns="http://www.w3.org/2000/svg" xmlns:xlink="http://www.w3.org/1999/xlink" viewBox="0 0 512 512" width="512" height="512" style="width: 100%; height: 100%; transform: translate3d(0,0,0);" preserveAspectRatio="xMidYMid meet"><defs><clipPath id="__lottie_element_53989"><rect width="512" height="512" x="0" y="0"></rect></clipPath></defs><g clip-path="url(#__lottie_element_53989)"><g style="display: block;" transform="matrix(1,0,0,1,251.86199951171875,256.95599365234375)" opacity="1"><g opacity="1" transform="matrix(1,0,0,1,0,0)"><path fill="rgb(0,0,0)" fill-opacity="1" d=" M83.21,-123.73 C87.22,-125.08 89.65,-121.14 93,-119.19 C98,-116.29 102.47,-117.2 103.52,-122.42 C104.84,-136.52 122.02,-136.47 118.26,-147.55 C114.05,-157.21 100.78,-147.62 92.14,-160.95 C88.47,-165.8 80.13,-163.56 80.41,-157.86 C81.56,-144.74 73.07,-140.4 64.93,-133.59 C57.27,-121.06 74.68,-119.96 83.21,-123.73z M-21.5,-173.82 C-19.78,-166.1 -25.41,-164.73 -28.93,-161.81 C-40.25,-153.54 -31.63,-139.63 -20.43,-145.77 C-9.4,-153.59 1.89,-131.45 5.7,-149.88 C6.82,-156.59 10.19,-160.66 15.45,-164.09 C21.74,-167.43 26.98,-178.4 16.19,-178.95 C9.42,-179.88 0.48,-173.96 -3.42,-182.21 C-11.9,-198.35 -26.02,-189.91 -21.5,-173.82z M-2.13,-91.34 C-1.38,-96.67 -3.54,-98.94 -6.9,-96.37 C-19.49,-85.66 -30.37,-111.59 -42.3,-101.77 C-43.94,-96.04 -35.43,-93.38 -32.26,-89.74 C-21.54,-82.97 -26.54,-79.38 -28.45,-68.68 C-28.28,-62.64 -22.36,-65.8 -19.94,-68.66 C-13.05,-74.19 -13.02,-74.22 -6.12,-68.25 C0.34,-61.06 11.68,-56.35 9.55,-44.63 C8.66,-40.5 11.64,-37.61 16.33,-39.54 C21.15,-41.51 23.8,-38.74 26.67,-35.8 C41.23,-15.93 58.58,-25.46 38.95,-44.2 C30.39,-53.41 30.4,-53.39 37.4,-63 C39.75,-66.23 42.04,-69.51 44.19,-72.88 C47.72,-77.45 41.74,-82.23 37.84,-78.3 C30.68,-74.02 23.95,-59.02 14.94,-67.99 C10.37,-74.25 -9.51,-82.73 -2.13,-91.34z M-73.08899688720703,113.13400268554688 C-80.28600311279297,115.99400329589844 -83.88700103759766,121.93199920654297 -88.0790023803711,126.96900177001953 C-101.28199768066406,142.8679962158203 -113.74600219726562,160.5019989013672 -132.4010009765625,170.46499633789062 C-168.21299743652344,190.01300048828125 -212.24200439453125,157.86199951171875 -209.12100219726562,117.33399963378906 C-205.29600524902344,67.96800231933594 -169.68899536132812,30.868999481201172 -139.60299682617188,-5.340000152587891 C-149.7010040283203,-12.729999542236328 -166.4510040283203,-2.059000015258789 -178.2310028076172,-2.0739998817443848 C-214.94200134277344,3.819000005722046 -251.95700073242188,-36.15599822998047 -230.45199584960938,-70.74700164794922 C-221.99400329589844,-86.23600006103516 -206.77999877929688,-95.65899658203125 -192.10699462890625,-104.53600311279297 C-188.79200744628906,-106.5479965209961 -187.79299926757812,-109.00199890136719 -189.44900512695312,-112.56500244140625 C-195.19700622558594,-124.927001953125 -200.93800354003906,-137.29100036621094 -206.61399841308594,-149.68600463867188 C-208.87100219726562,-154.61500549316406 -213.91700744628906,-155.61399841308594 -217.9459991455078,-158.0800018310547 C-229.9199981689453,-165.40899658203125 -236.3249969482422,-178.84500122070312 -234.10800170898438,-191.8179931640625 C-227.25,-232.2570037841797 -165.30099487304688,-226.18299865722656 -169.33399963378906,-183.68299865722656 C-171.52699279785156,-163.968994140625 -156.25100708007812,-149.5050048828125 -149.3280029296875,-132.32400512695312 C-145.08599853515625,-124.16999816894531 -144.33999633789062,-123.59700012207031 -135.29299926757812,-125.01699829101562 C-119.8270034790039,-127.44400024414062 -104.46499633789062,-129.50399780273438 -88.67500305175781,-127.23600006103516 C-77.49600219726562,-125.62999725341797 -76.55699920654297,-127.09100341796875 -76.052001953125,-138.7259979248047 C-75.70099639892578,-244.89300537109375 68.53099822998047,-293.3070068359375 133.92300415039062,-209.3679962158203 C137.6320037841797,-204.6929931640625 140.9810028076172,-197.88800048828125 147.8679962158203,-202.0489959716797 C155.36700439453125,-205.8780059814453 162.8730010986328,-209.74600219726562 170.625,-213.0070037841797 C176.03199768066406,-215.28199768066406 176.51600646972656,-220.06100463867188 178.1840057373047,-224.49099731445312 C191.1269989013672,-262.2380065917969 249.13699340820312,-240.54600524902344 234.43899536132812,-204.02499389648438 C218.74600219726562,-172.09800720214844 202.59100341796875,-194.17799377441406 173.52000427246094,-177.22900390625 C140.76300048828125,-158.13099670410156 175.95700073242188,-155.36399841308594 153.718994140625,-93.44100189208984 C152.3300018310547,-89.68199920654297 150.6820068359375,-86.01799774169922 149.218994140625,-82.28500366210938 C145.91700744628906,-73.86199951171875 145.8719940185547,-73.76300048828125 153.3979949951172,-68.72100067138672 C167.13299560546875,-59.52000045776367 180.13099670410156,-49.48899841308594 189.71099853515625,-35.775001525878906 C271.8420104980469,84.8010025024414 152.71299743652344,193.1739959716797 96.83000183105469,73.35299682617188 C94.49800109863281,66.9739990234375 88.33699798583984,50.68899917602539 82.84500122070312,64.62799835205078 C68.65699768066406,92.552001953125 57.448001861572266,121.78600311279297 45.04999923706055,150.4980010986328 C42.645999908447266,156.06500244140625 43.777000427246094,159.5760040283203 49.400001525878906,161.9739990234375 C56.775001525878906,165.11900329589844 64.15399932861328,168.3090057373047 71.28299713134766,171.96299743652344 C76.71900177001953,174.75 81.24199676513672,172.55299377441406 86.20099639892578,170.8179931640625 C108.49099731445312,163.02000427246094 130.3000030517578,173.85699462890625 137.08200073242188,195.69500732421875 C150.06100463867188,239.36500549316406 82.5009994506836,260.5820007324219 66.33699798583984,226.08900451660156 C58.862998962402344,214.1199951171875 42.97800064086914,210.87100219726562 31.6200008392334,203.35699462890625 C23.284000396728516,199.01800537109375 23.211000442504883,199.1699981689453 18.910999298095703,207.23500061035156 C14.574000358581543,215.3699951171875 10.236000061035156,223.51100158691406 5.618000030517578,231.48699951171875 C-10.86400032043457,261.7539978027344 -50.52399826049805,252.4080047607422 -76.99500274658203,242.49000549316406 C-102.0780029296875,231.9429931640625 -109.8550033569336,215.70899963378906 -102.68199920654297,189.51300048828125 C-96.12000274658203,165.8719940185547 -84.37999725341797,144.1820068359375 -74.50800323486328,121.83599853515625 C-73.40399932861328,119.4020004272461 -71.7750015258789,116.96900177001953 -73.08899688720703,113.13400268554688z"></path><g opacity="1" transform="matrix(1,0,0,1,90.91000366210938,-140.5850067138672)"></g><g opacity="1" transform="matrix(1,0,0,1,-5.916999816894531,-166.61099243164062)"></g><g opacity="1" transform="matrix(1,0,0,1,2.614000082015991,-64.4010009765625)"></g><g opacity="1" transform="matrix(1,0,0,1,0,0)"></g></g></g></g></svg>