<svg xmlns="http://www.w3.org/2000/svg" xmlns:xlink="http://www.w3.org/1999/xlink" viewBox="0 0 512 512" width="512" height="512" style="width: 100%; height: 100%; transform: translate3d(0,0,0);" preserveAspectRatio="xMidYMid meet"><defs><clipPath id="__lottie_element_53594"><rect width="512" height="512" x="0" y="0"></rect></clipPath></defs><g clip-path="url(#__lottie_element_53594)"><g style="display: block;" transform="matrix(1,0,0,1,256,256)" opacity="1"><g opacity="1" transform="matrix(1,0,0,1,0,0)"><path fill="rgb(0,0,0)" fill-opacity="1" d=" M222.96299743652344,-216.72999572753906 C218.51199340820312,-226.22500610351562 211.28599548339844,-233.8939971923828 202.61599731445312,-238.32200622558594 C192.8260040283203,-243.322998046875 181.93499755859375,-243.7220001220703 172.74000549316406,-239.41000366210938 C163.5449981689453,-235.10000610351562 156.88400268554688,-226.4770050048828 154.46400451660156,-215.7519989013672 C153.0679931640625,-209.56300354003906 153.13099670410156,-202.96600341796875 154.57000732421875,-196.4929962158203 C154.57000732421875,-196.4929962158203 106.0989990234375,-171.34800720214844 106.0989990234375,-171.34800720214844 C83.01300048828125,-216.94200134277344 33.00199890136719,-248.5959930419922 -24.844999313354492,-248.5959930419922 C-104.55400085449219,-248.5959930419922 -169.40199279785156,-188.50399780273438 -169.40199279785156,-114.64199829101562 C-169.40199279785156,-72.3740005493164 -148.16099548339844,-34.62300109863281 -115.05699920654297,-10.053999900817871 C-128.18499755859375,-9.569999694824219 -140.2899932861328,-8.633000373840332 -151.2469940185547,-7.238999843597412 C-186.08700561523438,-2.809000015258789 -208.42599487304688,6.122000217437744 -219.54100036621094,20.06599998474121 C-226.92599487304688,29.332000732421875 -229.2689971923828,40.5260009765625 -226.32000732421875,52.4370002746582 C-222.56199645996094,67.61399841308594 -213.1540069580078,77.38400268554688 -198.3560028076172,81.4739990234375 C-187.2790069580078,84.53600311279297 -174.18899536132812,84.30599975585938 -157.61399841308594,84.01899719238281 C-150.10899353027344,83.88899993896484 -142.0229949951172,83.75900268554688 -133.3000030517578,83.90699768066406 C-145.69400024414062,148.1219940185547 -153.38400268554688,202.9720001220703 -133.92300415039062,230.93600463867188 C-127.47899627685547,240.1959991455078 -118.27300262451172,246.02999877929688 -107.30000305175781,247.8070068359375 C-88.9469985961914,250.781005859375 -73.14800262451172,245.06199645996094 -60.349998474121094,230.8090057373047 C-50.4900016784668,219.8249969482422 -43.55500030517578,205.322998046875 -36.2130012512207,189.968994140625 C-34.84700012207031,187.11300659179688 -33.465999603271484,184.2239990234375 -32.05099868774414,181.3300018310547 C-31.54199981689453,180.29100036621094 -29.520000457763672,179.0760040283203 -25.496999740600586,179.0760040283203 C-25.358999252319336,179.0760040283203 -25.222000122070312,179.07400512695312 -25.08300018310547,179.07000732421875 C-20.233999252319336,178.9340057373047 -19.48900032043457,180.3249969482422 -18.704999923706055,181.7969970703125 C-16.14900016784668,186.58999633789062 -13.758999824523926,191.322998046875 -11.446999549865723,195.89999389648438 C-3.871999979019165,210.8990020751953 2.6700000762939453,223.85400390625 12.050999641418457,233.552001953125 C21.729000091552734,243.55799865722656 33.393001556396484,248.5959930419922 46.82899856567383,248.5959930419922 C49.895999908447266,248.5959930419922 53.05799865722656,248.33299255371094 56.30699920654297,247.8070068359375 C67.27899932861328,246.02999877929688 76.48500061035156,240.1959991455078 82.92900085449219,230.93600463867188 C102.38700103759766,202.97500610351562 94.70099639892578,148.13499450683594 82.30999755859375,83.92900085449219 C91.53500366210938,83.74299621582031 100.0469970703125,83.88099670410156 107.9229965209961,84.01899719238281 C124.49500274658203,84.30799865722656 137.5850067138672,84.53600311279297 148.6649932861328,81.4739990234375 C163.46200561523438,77.38400268554688 172.8699951171875,67.61499786376953 176.62899780273438,52.4370002746582 C179.5780029296875,40.5260009765625 177.23500061035156,29.332000732421875 169.85000610351562,20.06599998474121 C158.73500061035156,6.122000217437744 136.39599609375,-2.809000015258789 101.55599975585938,-7.238999843597412 C90.5989990234375,-8.631999969482422 78.49299621582031,-9.569000244140625 65.36499786376953,-10.053000450134277 C98.46900177001953,-34.62200164794922 119.71099853515625,-72.3740005493164 119.71099853515625,-114.64199829101562 C119.71099853515625,-126.12100219726562 118.14299774169922,-137.26499938964844 115.197998046875,-147.90499877929688 C115.197998046875,-147.90499877929688 166.0290069580078,-174.2740020751953 166.0290069580078,-174.2740020751953 C169.61399841308594,-170.3179931640625 173.79600524902344,-167.05499267578125 178.38999938964844,-164.70899963378906 C183.67599487304688,-162.00900268554688 189.281005859375,-160.64999389648438 194.76800537109375,-160.64999389648438 C199.44400024414062,-160.64999389648438 204.03599548339844,-161.63800048828125 208.26600646972656,-163.62100219726562 C217.46099853515625,-167.93099975585938 224.1219940185547,-176.5540008544922 226.54200744628906,-187.27999877929688 C228.68499755859375,-196.7760009765625 227.41299438476562,-207.23599243164062 222.96299743652344,-216.72999572753906z M-104.77400207519531,-90.26100158691406 C-107.06199645996094,-86.16200256347656 -111.31600189208984,-83.85299682617188 -115.69999694824219,-83.85299682617188 C-117.76200103759766,-83.85299682617188 -119.85299682617188,-84.36299896240234 -121.78199768066406,-85.44000244140625 C-127.80899810791016,-88.80500030517578 -129.9669952392578,-96.4209976196289 -126.60199737548828,-102.447998046875 C-126.60199737548828,-102.447998046875 -112.15399932861328,-128.3260040283203 -112.15399932861328,-128.3260040283203 C-112.15399932861328,-128.3260040283203 -138.031005859375,-142.77499389648438 -138.031005859375,-142.77499389648438 C-144.05799865722656,-146.13999938964844 -146.21600341796875,-153.75599670410156 -142.8509979248047,-159.7830047607422 C-139.48500061035156,-165.80999755859375 -131.8699951171875,-167.9709930419922 -125.84400177001953,-164.60400390625 C-125.84400177001953,-164.60400390625 -99.96600341796875,-150.15499877929688 -99.96600341796875,-150.15499877929688 C-99.96600341796875,-150.15499877929688 -85.51699829101562,-176.03199768066406 -85.51699829101562,-176.03199768066406 C-82.1520004272461,-182.0590057373047 -74.53700256347656,-184.218994140625 -68.51000213623047,-180.85299682617188 C-62.483001708984375,-177.48800659179688 -60.32400131225586,-169.8719940185547 -63.68899917602539,-163.84500122070312 C-63.68899917602539,-163.84500122070312 -78.13800048828125,-137.9669952392578 -78.13800048828125,-137.9669952392578 C-78.13800048828125,-137.9669952392578 -52.26100158691406,-123.51799774169922 -52.26100158691406,-123.51799774169922 C-46.23400115966797,-120.15299987792969 -44.07500076293945,-112.53700256347656 -47.439998626708984,-106.51000213623047 C-49.729000091552734,-102.41100311279297 -53.981998443603516,-100.10199737548828 -58.36600112915039,-100.10199737548828 C-60.428001403808594,-100.10199737548828 -62.51900100708008,-100.61199951171875 -64.447998046875,-101.68900299072266 C-64.447998046875,-101.68900299072266 -90.32499694824219,-116.13800048828125 -90.32499694824219,-116.13800048828125 C-90.32499694824219,-116.13800048828125 -104.77400207519531,-90.26100158691406 -104.77400207519531,-90.26100158691406z M40.32099914550781,49.57600021362305 C40.32099914550781,49.57600021362305 22.562999725341797,62.89699935913086 22.562999725341797,62.89699935913086 C22.562999725341797,62.89699935913086 28.333999633789062,74.04399871826172 28.333999633789062,74.04399871826172 C31.507999420166016,80.17500305175781 29.11199951171875,87.71800231933594 22.981000900268555,90.89199829101562 C21.143999099731445,91.84300231933594 19.179000854492188,92.29399871826172 17.243999481201172,92.29399871826172 C12.720999717712402,92.29399871826172 8.355999946594238,89.83200073242188 6.132999897003174,85.53800201416016 C6.132999897003174,85.53800201416016 2.2860000133514404,78.10700225830078 2.2860000133514404,78.10700225830078 C2.2860000133514404,78.10700225830078 -29.180999755859375,101.71199798583984 -29.180999755859375,101.71199798583984 C-29.180999755859375,101.71199798583984 -22.406999588012695,109.68800354003906 -22.406999588012695,109.68800354003906 C-17.937999725341797,114.94999694824219 -18.58099937438965,122.83799743652344 -23.841999053955078,127.30799865722656 C-26.194000244140625,129.3040008544922 -29.06800079345703,130.27999877929688 -31.92799949645996,130.27999877929688 C-35.470001220703125,130.27999877929688 -38.98899841308594,128.7830047607422 -41.46200180053711,125.87300109863281 C-41.46200180053711,125.87300109863281 -49.21799850463867,116.74199676513672 -49.21799850463867,116.74199676513672 C-49.21799850463867,116.74199676513672 -73.18099975585938,134.718994140625 -73.18099975585938,134.718994140625 C-75.43000030517578,136.40699768066406 -78.06400299072266,137.2209930419922 -80.6729965209961,137.2209930419922 C-84.4739990234375,137.2209930419922 -88.2249984741211,135.49400329589844 -90.68099975585938,132.2209930419922 C-94.8239974975586,126.6989974975586 -93.70500183105469,118.86399841308594 -88.18299865722656,114.72100067138672 C-88.18299865722656,114.72100067138672 -65.43099975585938,97.65399932861328 -65.43099975585938,97.65399932861328 C-65.43099975585938,97.65399932861328 -75.95099639892578,85.2699966430664 -75.95099639892578,85.2699966430664 C-80.41999816894531,80.00800323486328 -79.7770004272461,72.11900329589844 -74.51599884033203,67.64900207519531 C-69.25199890136719,63.18199920654297 -61.3650016784668,63.823001861572266 -56.895999908447266,69.08399963378906 C-56.895999908447266,69.08399963378906 -45.39500045776367,82.6240005493164 -45.39500045776367,82.6240005493164 C-45.39500045776367,82.6240005493164 -9.368000030517578,55.597999572753906 -9.368000030517578,55.597999572753906 C-9.368000030517578,55.597999572753906 -16.36199951171875,42.0880012512207 -16.36199951171875,42.0880012512207 C-19.535999298095703,35.957000732421875 -17.139999389648438,28.413999557495117 -11.008999824523926,25.239999771118164 C-4.877999782562256,22.06399917602539 2.6649999618530273,24.464000701904297 5.839000225067139,30.5939998626709 C5.839000225067139,30.5939998626709 10.909000396728516,40.387001037597656 10.909000396728516,40.387001037597656 C10.909000396728516,40.387001037597656 25.319000244140625,29.577999114990234 25.319000244140625,29.577999114990234 C30.843000411987305,25.43199920654297 38.67599868774414,26.55500030517578 42.819000244140625,32.07600021362305 C46.96200180053711,37.597999572753906 45.84299850463867,45.43299865722656 40.32099914550781,49.57600021362305z M82.68099975585938,-159.5919952392578 C82.68099975585938,-159.5919952392578 59.36899948120117,-141.2899932861328 59.36899948120117,-141.2899932861328 C59.36899948120117,-141.2899932861328 77.6719970703125,-117.97799682617188 77.6719970703125,-117.97799682617188 C81.93499755859375,-112.5479965209961 80.98999786376953,-104.69100189208984 75.55899810791016,-100.427001953125 C73.2699966430664,-98.62999725341797 70.54900360107422,-97.75800323486328 67.8489990234375,-97.75800323486328 C64.14299774169922,-97.75800323486328 60.4739990234375,-99.39800262451172 58.007999420166016,-102.54000091552734 C58.007999420166016,-102.54000091552734 39.70600128173828,-125.85199737548828 39.70600128173828,-125.85199737548828 C39.70600128173828,-125.85199737548828 16.393999099731445,-107.54900360107422 16.393999099731445,-107.54900360107422 C14.104999542236328,-105.75199890136719 11.383999824523926,-104.87999725341797 8.684000015258789,-104.87999725341797 C4.978000164031982,-104.87999725341797 1.309000015258789,-106.5199966430664 -1.156999945640564,-109.66200256347656 C-5.420000076293945,-115.09200286865234 -4.474999904632568,-122.9489974975586 0.9559999704360962,-127.21299743652344 C0.9559999704360962,-127.21299743652344 24.26799964904785,-145.51499938964844 24.26799964904785,-145.51499938964844 C24.26799964904785,-145.51499938964844 5.965000152587891,-168.82699584960938 5.965000152587891,-168.82699584960938 C1.7020000219345093,-174.2570037841797 2.6470000743865967,-182.11399841308594 8.07800006866455,-186.3780059814453 C13.508999824523926,-190.64199829101562 21.364999771118164,-189.6959991455078 25.628999710083008,-184.26499938964844 C25.628999710083008,-184.26499938964844 43.930999755859375,-160.9530029296875 43.930999755859375,-160.9530029296875 C43.930999755859375,-160.9530029296875 67.24299621582031,-179.25599670410156 67.24299621582031,-179.25599670410156 C72.6729965209961,-183.52000427246094 80.53099822998047,-182.57400512695312 84.79399871826172,-177.14300537109375 C89.05699920654297,-171.71299743652344 88.11199951171875,-163.8560028076172 82.68099975585938,-159.5919952392578z"></path></g></g></g></svg>