<svg xmlns="http://www.w3.org/2000/svg" xmlns:xlink="http://www.w3.org/1999/xlink" viewBox="0 0 512 512" width="512" height="512" style="width: 100%; height: 100%; transform: translate3d(0,0,0);" preserveAspectRatio="xMidYMid meet"><defs><clipPath id="__lottie_element_52040"><rect width="512" height="512" x="0" y="0"></rect></clipPath></defs><g clip-path="url(#__lottie_element_52040)"><g style="display: block;" transform="matrix(1,0,0,1,0,0)" opacity="1"><g opacity="1" transform="matrix(1,0,0,1,256,256.2799987792969)"><path fill="rgb(0,0,0)" fill-opacity="1" d=" M87.26899719238281,-26.0049991607666 C92.62999725341797,-27.709999084472656 98.177001953125,-28.891000747680664 103.80899810791016,-29.56599998474121 C118.50700378417969,-31.32699966430664 133.75999450683594,-29.69499969482422 147.65499877929688,-25.256999969482422 C152.8179931640625,-23.607999801635742 158.13499450683594,-21.8439998626709 162.8350067138672,-19.11400032043457 C165.66200256347656,-17.472000122070312 168.48399353027344,-15.71399974822998 171.6439971923828,-14.87600040435791 C177.51600646972656,-13.319000244140625 183.9770050048828,-16.16900062561035 185.93899536132812,-22.527000427246094 C187.54400634765625,-27.72599983215332 185.17599487304688,-33.34299850463867 180.5540008544922,-36.2140007019043 C180.5540008544922,-36.2140007019043 177.843994140625,-37.89699935913086 177.843994140625,-37.89699935913086 C148.1510009765625,-56.34000015258789 114.24400329589844,-72.44000244140625 78.75,-74.08100128173828 C71.70999908447266,-74.40599822998047 64.48799896240234,-74.2229995727539 57.198001861572266,-73.45099639892578 C57.1879997253418,-73.45099639892578 57.17599868774414,-73.45500183105469 57.16699981689453,-73.4540023803711 C53.275001525878906,-73.09700012207031 50.71799850463867,-73.28299713134766 52.19300079345703,-80.20500183105469 C52.30799865722656,-80.47100067138672 52.40999984741211,-80.73899841308594 52.527000427246094,-81.00499725341797 C64.67500305175781,-108.67500305175781 88.32599639892578,-129.79600524902344 114.625,-143.77200317382812 C132.6439971923828,-153.34800720214844 155.64199829101562,-161.4239959716797 176.0709991455078,-162.67100524902344 C176.10699462890625,-162.67300415039062 176.14199829101562,-162.67599487304688 176.17799377441406,-162.6790008544922 C183.2729949951172,-163.21299743652344 188.4219970703125,-169.93800354003906 186.72999572753906,-177.16400146484375 C185.3990020751953,-182.84800720214844 179.8820037841797,-186.53199768066406 174.05999755859375,-186.1020050048828 C122.06300354003906,-182.25999450683594 68.80000305175781,-168.83999633789062 27.03499984741211,-136.27699279785156 C9.588000297546387,-122.67400360107422 -5.7729997634887695,-104.71600341796875 -17.091999053955078,-85.36499786376953 C-17.093000411987305,-85.36399841308594 -17.09600067138672,-85.36199951171875 -17.097000122070312,-85.36100006103516 C-17.124000549316406,-85.31500244140625 -17.155000686645508,-85.26200103759766 -17.18899917602539,-85.2040023803711 C-17.209999084472656,-85.16899871826172 -17.229000091552734,-85.13300323486328 -17.25,-85.0979995727539 C-18.33099937438965,-83.24299621582031 -21.937999725341797,-77.1989974975586 -24.858999252319336,-84.13999938964844 C-31.05699920654297,-101.51499938964844 -31.406999588012695,-120.65699768066406 -27.333999633789062,-138.55499267578125 C-25.250999450683594,-147.70899963378906 -22.003000259399414,-156.64599609375 -17.572999954223633,-164.9290008544922 C-14.034000396728516,-171.5449981689453 -11.727999687194824,-179.4340057373047 -19.56999969482422,-184.30499267578125 C-30.48200035095215,-191.08299255371094 -36.83399963378906,-178.64700317382812 -41.64799880981445,-171.10499572753906 C-48.012001037597656,-161.13400268554688 -53.525001525878906,-150.6219940185547 -58.132999420166016,-139.72900390625 C-69.15899658203125,-113.66200256347656 -76.01399993896484,-85.0979995727539 -73.20500183105469,-56.840999603271484 C-73.20500183105469,-56.83300018310547 -73.20999908447266,-56.82400131225586 -73.20899963378906,-56.81700134277344 C-72.94400024414062,-53.78300094604492 -74.76899719238281,-49.340999603271484 -80.38999938964844,-52.01300048828125 C-110.6780014038086,-66.7030029296875 -134.37899780273438,-93.84400177001953 -148.43600463867188,-124.08499908447266 C-155.73899841308594,-139.7969970703125 -160.89599609375,-157.93899536132812 -161.98300170898438,-175.39300537109375 C-161.98300170898438,-175.39300537109375 -162.00799560546875,-175.80499267578125 -162.00799560546875,-175.80499267578125 C-162.00999450683594,-175.84100341796875 -162.01199340820312,-175.87600708007812 -162.01499938964844,-175.91200256347656 C-162.5030059814453,-182.38699340820312 -168.1479949951172,-187.24200439453125 -174.6230010986328,-186.75399780273438 C-179.593994140625,-186.3800048828125 -184.11399841308594,-182.67100524902344 -185.20599365234375,-177.7429962158203 C-185.86500549316406,-174.7689971923828 -185.03900146484375,-171.17100524902344 -184.79200744628906,-168.11000061035156 C-183.0070037841797,-146.01699829101562 -179.09500122070312,-123.93199920654297 -173.0469970703125,-102.58200073242188 C-163.27499389648438,-68.08799743652344 -146.85299682617188,-36.292999267578125 -121.40899658203125,-10.71399974822998 C-114.08999633789062,-3.3570001125335693 -106.00900268554688,3.371999979019165 -97.45600128173828,9.255999565124512 C-93.19400024414062,12.187999725341797 -88.77999877929688,15.008999824523926 -84.26899719238281,17.62700080871582 C-84.25399780273438,17.635000228881836 -84.24099731445312,17.650999069213867 -84.22599792480469,17.6560001373291 C-84.21800231933594,17.659000396728516 -84.20999908447266,17.66200065612793 -84.2020034790039,17.665000915527344 C-83.45500183105469,18.097999572753906 -82.70700073242188,18.530000686645508 -81.9540023803711,18.951000213623047 C-80.00700378417969,20.645999908447266 -79.85700225830078,23.180999755859375 -84.0479965209961,24.88800048828125 C-90.19000244140625,27.125999450683594 -96.88400268554688,28.69300079345703 -103.9010009765625,29.44499969482422 C-125.46700286865234,31.7549991607666 -149.86700439453125,27.628000259399414 -168.58299255371094,16.006999969482422 C-174.1009979248047,12.579999923706055 -181.3520050048828,14.27400016784668 -184.7790069580078,19.79199981689453 C-190.84800720214844,29.562999725341797 -180.85800170898438,36.32600021362305 -173.3249969482422,40.70500183105469 C-161.92799377441406,47.32899856567383 -150.35499572753906,53.612998962402344 -138.24099731445312,58.840999603271484 C-114.86799621582031,68.92900085449219 -89.47200012207031,75.48600006103516 -63.85599899291992,73.99600219726562 C-62.21799850463867,73.9010009765625 -60.58300018310547,73.76599884033203 -58.95000076293945,73.61299896240234 C-58.861000061035156,73.61699676513672 -58.7760009765625,73.61399841308594 -58.69499969482422,73.5989990234375 C-58.641998291015625,73.58899688720703 -58.59299850463867,73.58300018310547 -58.540000915527344,73.572998046875 C-57.564998626708984,73.47899627685547 -56.59000015258789,73.37699890136719 -55.617000579833984,73.26200103759766 C-52.00600051879883,73.23999786376953 -50.209999084472656,75 -52.01599884033203,79.76499938964844 C-52.189998626708984,80.1729965209961 -52.347999572753906,80.58300018310547 -52.527000427246094,80.98999786376953 C-64.66400146484375,108.63300323486328 -88.33799743652344,129.80099487304688 -114.625,143.75799560546875 C-124.03199768066406,148.7530059814453 -134.0290069580078,152.9320068359375 -144.35699462890625,156.18899536132812 C-154.1510009765625,159.2779998779297 -165.2969970703125,162.0030059814453 -175.65899658203125,162.6320037841797 C-175.65899658203125,162.6320037841797 -176.0709991455078,162.65699768066406 -176.0709991455078,162.65699768066406 C-176.10699462890625,162.65899658203125 -176.14199829101562,162.66099548339844 -176.17799377441406,162.66400146484375 C-182.6529998779297,163.15199279785156 -187.50799560546875,168.7969970703125 -187.02000427246094,175.27200317382812 C-186.43299865722656,183.07200622558594 -179.48599243164062,186.53700256347656 -172.45700073242188,186.072998046875 C-161.0229949951172,185.31700134277344 -149.5749969482422,183.5399932861328 -138.3070068359375,181.63699340820312 C-107.99099731445312,176.51600646972656 -77.3290023803711,167.64199829101562 -50.520999908447266,152.31100463867188 C-35.87699890136719,143.93600463867188 -22.41900062561035,133.52099609375 -10.612000465393066,121.4729995727539 C-0.41499999165534973,111.06700134277344 8.925999641418457,98.96800231933594 16.52199935913086,86.2490005493164 C16.527999877929688,86.23999786376953 16.538000106811523,86.23300170898438 16.542999267578125,86.2239990234375 C19.461000442504883,81.5009994506836 23.67300033569336,80.27999877929688 26.009000778198242,86.5250015258789 C35.10900115966797,114.08899688720703 29.270000457763672,142.60299682617188 16.575000762939453,167.9929962158203 C16.575000762939453,167.9929962158203 16.534000396728516,168.05099487304688 16.534000396728516,168.05099487304688 C16.518999099731445,168.072998046875 16.503999710083008,168.0959930419922 16.48900032043457,168.1179962158203 C13.060999870300293,173.1929931640625 14.170999526977539,180.2689971923828 19.024999618530273,184.00399780273438 C24.632999420166016,188.31900024414062 32.582000732421875,186.77099609375 36.22100067138672,180.91400146484375 C51.69599914550781,156.00900268554688 65.30000305175781,129.53900146484375 71.2229995727539,100.59700012207031 C72.95700073242188,92.125 74.0270004272461,83.51100158691406 74.29000091552734,74.86499786376953 C74.4219970703125,70.5270004272461 74.35199737548828,66.18299865722656 74.06700134277344,61.85200119018555 C74.03399658203125,61.358001708984375 73.98699951171875,59.80099868774414 73.8949966430664,57.92900085449219 C73.65499877929688,52.8380012512207 74.99099731445312,49.724998474121094 81.75700378417969,52.46900177001953 C110.54100036621094,65.29900360107422 133.7010040283203,92.73300170898438 147.31900024414062,120.64900207519531 C153.94400024414062,134.22999572753906 158.58399963378906,148.94900512695312 161.39100646972656,163.75399780273438 C162.96299743652344,172.71499633789062 162.19900512695312,187.74600219726562 175.552001953125,186.74000549316406 C190.74899291992188,185.59500122070312 185.78599548339844,165.4759979248047 184.55499267578125,155.8159942626953 C183.7969970703125,149.86900329589844 182.91799926757812,143.94900512695312 181.91799926757812,138.02699279785156 C179.875,126.1969985961914 177.322998046875,114.36599731445312 173.9759979248047,102.56800079345703 C170.63499450683594,90.77400207519531 166.5679931640625,78.97100067138672 161.33099365234375,67.39099884033203 C158.697998046875,61.612998962402344 155.81300354003906,55.87300109863281 152.59100341796875,50.2400016784668 C149.36599731445312,44.60900115966797 145.7969970703125,39.10300064086914 141.95700073242188,33.689998626708984 C134.28599548339844,22.856000900268555 125.10099792480469,12.751999855041504 114.76499938964844,3.6089999675750732 C109.58699798583984,-0.949999988079071 104.11900329589844,-5.265999794006348 98.38500213623047,-9.270000457763672 C94.81099700927734,-11.765000343322754 91.11199951171875,-14.13700008392334 87.33899688720703,-16.382999420166016 C87.32099914550781,-16.395999908447266 87.30400085449219,-16.416000366210938 87.28600311279297,-16.427000045776367 C81.9729995727539,-19.711999893188477 81.97799682617188,-24.06800079345703 87.26899719238281,-26.0049991607666z"></path></g><g opacity="1" transform="matrix(1,0,0,1,303.2019958496094,54.542999267578125)"><path fill="rgb(0,0,0)" fill-opacity="1" d=" M-32.62699890136719,6.873000144958496 C-37.09600067138672,27.641000747680664 26.13599967956543,18.577999114990234 32.435001373291016,-6.142000198364258 C38.73400115966797,-30.86199951171875 -28.158000946044922,-13.895000457763672 -32.62699890136719,6.873000144958496z"></path></g><g opacity="1" transform="matrix(1,0,0,1,457.4570007324219,303.2019958496094)"><path fill="rgb(0,0,0)" fill-opacity="1" d=" M-6.873000144958496,-32.62699890136719 C-27.641000747680664,-37.09600067138672 -18.577999114990234,26.13599967956543 6.142000198364258,32.435001373291016 C30.86199951171875,38.73400115966797 13.895000457763672,-28.158000946044922 -6.873000144958496,-32.62699890136719z"></path></g><g opacity="1" transform="matrix(1,0,0,1,208.79800415039062,457.4570007324219)"><path fill="rgb(0,0,0)" fill-opacity="1" d=" M32.62699890136719,-6.873000144958496 C37.09600067138672,-27.641000747680664 -26.13599967956543,-18.577999114990234 -32.435001373291016,6.142000198364258 C-38.73400115966797,30.86199951171875 28.158000946044922,13.895000457763672 32.62699890136719,-6.873000144958496z"></path></g><g opacity="1" transform="matrix(1,0,0,1,54.542999267578125,208.79800415039062)"><path fill="rgb(0,0,0)" fill-opacity="1" d=" M6.873000144958496,32.62699890136719 C27.641000747680664,37.09600067138672 18.577999114990234,-26.13599967956543 -6.142000198364258,-32.435001373291016 C-30.86199951171875,-38.73400115966797 -13.895000457763672,28.158000946044922 6.873000144958496,32.62699890136719z"></path></g></g></g></svg>