<svg xmlns="http://www.w3.org/2000/svg" xmlns:xlink="http://www.w3.org/1999/xlink" viewBox="0 0 512 512" width="512" height="512" style="width: 100%; height: 100%; transform: translate3d(0,0,0);" preserveAspectRatio="xMidYMid meet"><defs><clipPath id="__lottie_element_51820"><rect width="512" height="512" x="0" y="0"></rect></clipPath></defs><g clip-path="url(#__lottie_element_51820)"><g style="display: block;" transform="matrix(1,0,0,1,0.7700042724609375,11.75)" opacity="1"><g opacity="1" transform="matrix(1,0,0,1,255.74000549316406,248.25)"><path fill="rgb(0,0,0)" fill-opacity="1" d=" M197.49000549316406,22 C204.49000549316406,18 252.49000549316406,17 247.58999633789062,0.25 C235.97000122070312,-39.5 187.27999877929688,-31.860000610351562 185.49000549316406,-39 C182.9199981689453,-49.22999954223633 255.49000549316406,-103 235.49000549316406,-118 C196.13999938964844,-147.52000427246094 133.49000549316406,-97 127.48999786376953,-104 C121.3499984741211,-111.16000366210938 170.08999633789062,-201.39999389648438 150.49000549316406,-205 C101.48999786376953,-214 52.4900016784668,-143 51.4900016784668,-156 C48.790000915527344,-191.1199951171875 26.489999771118164,-254 1.4900000095367432,-254 C-30.510000228881836,-254 -56.5099983215332,-177.02999877929688 -56.5099983215332,-158 C-56.5099983215332,-147 -128.25999450683594,-219 -154.50999450683594,-198 C-174.50999450683594,-182 -139.50999450683594,-121 -148.50999450683594,-113 C-158.57000732421875,-104.05999755859375 -200.50999450683594,-140 -239.50999450683594,-109 C-252.1699981689453,-98.94000244140625 -196.3300018310547,-42.11000061035156 -199.50999450683594,-33 C-202.83999633789062,-23.450000762939453 -236.50999450683594,-30 -247.50999450683594,7 C-255.49000549316406,33.84000015258789 -188.05999755859375,20.31999969482422 -195.50999450683594,27 C-224.50999450683594,53 -233.50999450683594,92 -218.50999450683594,113 C-211.11000061035156,123.36000061035156 -196.47000122070312,107.55999755859375 -183.50999450683594,109 C-174.50999450683594,110 -187.50999450683594,141 -172.50999450683594,150 C-159.1699981689453,158 -138.57000732421875,122.18000030517578 -142.50999450683594,134 C-155.50999450683594,173 -135.50999450683594,248 -112.51000213623047,248 C-91.84300231933594,248 -73.92900085449219,199 -78.56400299072266,147 C-81.3759994506836,115.44999694824219 -96.98799896240234,103.58300018310547 -93.41500091552734,92 C-91.3270034790039,85.2300033569336 -83.30400085449219,87.03199768066406 -75.77999877929688,72.5 C-68.48400115966797,58.40999984741211 -71.77799987792969,49.13100051879883 -64.64099884033203,40 C-49.790000915527344,21 -14.229999542236328,19.510000228881836 3.490000009536743,19 C27.860000610351562,18.290000915527344 53.702999114990234,27 61.12900161743164,43 C65.16699981689453,51.70000076293945 64.12699890136719,56.880001068115234 69.01899719238281,67 C73.66000366210938,76.5999984741211 82.94200134277344,79.1500015258789 84.33399963378906,88 C86.19000244140625,99.80000305175781 73.37200164794922,119.55000305175781 69.01899719238281,143 C59.73699951171875,193 93.0199966430664,245.89999389648438 103.48999786376953,245 C119.04000091552734,243.66000366210938 147.49000549316406,192 142.1199951171875,132.33999633789062 C141,119.8499984741211 150.49000549316406,153 169.49000549316406,148 C182.4600067138672,144.58999633789062 175.36000061035156,114.33999633789062 180.49000549316406,110 C185.6999969482422,105.58999633789062 214.5500030517578,122.55000305175781 220.49000549316406,107 C241.49000549316406,52 186.75,28.139999389648438 197.49000549316406,22z M131.4949951171875,51 C120.35700225830078,59.470001220703125 104.11299896240234,53 97.61599731445312,38 C89.8740005493164,20.12700080871582 102.27899932861328,19.069000244140625 95.2959976196289,7.5 C77.48999786376953,-22 37.685001373291016,-38.222999572753906 2.117000102996826,-39 C-40.013999938964844,-39.91999816894531 -88.45099639892578,-10 -99.48699951171875,12 C-104.87999725341797,22.75 -96.24099731445312,32.99800109863281 -105.5199966430664,45 C-112.46299743652344,53.97999954223633 -127.85299682617188,60.97100067138672 -139.3990020751953,48.5 C-150.50999450683594,36.5 -145.98899841308594,19.139999389648438 -138.4709930419922,11 C-131.072998046875,2.990000009536743 -115.83300018310547,5.829999923706055 -113.41000366210938,1 C-94.84600067138672,-36 -44.301998138427734,-61.60200119018555 2.117000102996826,-62 C47.5989990234375,-62.38999938964844 95.48999786376953,-34.5 112.93099975585938,-0.5 C115.29499816894531,4.109000205993652 127.88500213623047,0.4300000071525574 137.06399536132812,16.5 C144.49000549316406,29.5 141.76800537109375,43.1879997253418 131.4949951171875,51z"></path></g></g></g></svg>