<svg xmlns="http://www.w3.org/2000/svg" xmlns:xlink="http://www.w3.org/1999/xlink" viewBox="0 0 512 512" width="512" height="512" style="width: 100%; height: 100%; transform: translate3d(0,0,0);" preserveAspectRatio="xMidYMid meet"><defs><clipPath id="__lottie_element_51215"><rect width="512" height="512" x="0" y="0"></rect></clipPath></defs><g clip-path="url(#__lottie_element_51215)"><g style="display: block;" transform="matrix(1,0,0,1,0,0)" opacity="1"><g opacity="1" transform="matrix(1,0,0,1,388.5679931640625,335.5559997558594)"><path fill="rgb(0,0,0)" fill-opacity="1" d=" M22.236000061035156,-147.72900390625 C21.797000885009766,-101.927001953125 5.577000141143799,-66.80000305175781 -46.012001037597656,-72.13999938964844 C-54.29999923706055,-72.99800109863281 -64.91899871826172,-82.09100341796875 -67.96299743652344,-66.21099853515625 C-70.61100006103516,-52.39799880981445 -53.566001892089844,-42.17399978637695 -41.79100036621094,-40.59299850463867 C6.354000091552734,-34.12900161743164 41.36800003051758,-67.21299743652344 46.900001525878906,-113.59100341796875 C47.810001373291016,-121.21099853515625 45.86199951171875,-138.2100067138672 49.391998291015625,-142.66200256347656 C54.362998962402344,-148.92999267578125 82.80999755859375,-144.4290008544922 87.23200225830078,-138.0050048828125 C92.3280029296875,-130.6009979248047 97.6510009765625,-103.41999816894531 99.44999694824219,-93.40899658203125 C105.64099884033203,-58.95199966430664 106.94300079345703,-23.601999282836914 95.802001953125,10.008999824523926 C86.51000213623047,16.59000015258789 53.94900131225586,-23.718000411987305 47.46699905395508,-26.73200035095215 C23.483999252319336,-37.88399887084961 46.729000091552734,6.789000034332275 51.22200012207031,13.71399974822998 C55.15299987792969,19.774999618530273 71.35399627685547,37.119998931884766 72.43399810791016,41.06800079345703 C75.30599975585938,51.569000244140625 52.555999755859375,78.54399871826172 44.27899932861328,85.7770004272461 C42.33700180053711,87.4739990234375 30.006999969482422,97.7750015258789 28.54400062561035,96.3280029296875 C38.224998474121094,82.60299682617188 10.777000427246094,22.65999984741211 -0.29499998688697815,18.908000946044922 C-2.4560000896453857,18.176000595092773 -4.914999961853027,18.2549991607666 -7.139999866485596,18.5939998626709 C-11.51099967956543,32.400001525878906 -5.760000228881836,47.694000244140625 -5.14900016784668,61.645999908447266 C-3.3450000286102295,102.90699768066406 -6.953000068664551,141.8350067138672 -55.652000427246094,148.9290008544922 C-51.5890007019043,139.22900390625 -45.15800094604492,103.62100219726562 -51.93899917602539,96.84400177001953 C-70.73799896240234,92.16300201416016 -88.93900299072266,95.9280014038086 -106.15899658203125,83.68800354003906 C-106.94300079345703,80.46900177001953 -105.66699981689453,80.3270034790039 -103.93399810791016,78.59500122070312 C-94.33000183105469,68.9990005493164 -82.73799896240234,62.80500030517578 -81.04100036621094,46.67499923706055 C-81.04100036621094,46.67499923706055 -91.24199676513672,-22.753000259399414 -91.24199676513672,-22.753000259399414 C-87.552001953125,-61.18000030517578 -82.56500244140625,-111.01899719238281 -45.81800079345703,-132.63099670410156 C-26.350000381469727,-144.08099365234375 0.023000000044703484,-147.25799560546875 22.236000061035156,-147.72900390625z"></path></g><g opacity="1" transform="matrix(1,0,0,1,119.4800033569336,333.9110107421875)"><path fill="rgb(0,0,0)" fill-opacity="1" d=" M53.9640007019043,98.50900268554688 C47.380001068115234,106.48899841308594 54.54899978637695,140.15899658203125 57.672000885009766,150.5749969482422 C12.564000129699707,146.177001953125 4.910999774932861,105.85199737548828 7.171000003814697,67.49800109863281 C7.605999946594238,60.104000091552734 16.5939998626709,18.920000076293945 6.130000114440918,18.141000747680664 C-13.65999984741211,21.593000411987305 -27.329999923706055,87.36299896240234 -32.78799819946289,90.79399871826172 C-36.1150016784668,92.88500213623047 -39.84199905395508,89.23799896240234 -42.29600143432617,87.447998046875 C-50.090999603271484,81.76399993896484 -73.01499938964844,51.45899963378906 -70.43499755859375,42.689998626708984 C-69.43199920654297,39.28200149536133 -48.85100173950195,15.472000122070312 -44.374000549316406,7.558000087738037 C-38.426998138427734,-2.9570000171661377 -32.667999267578125,-13.37399959564209 -35.15800094604492,-25.90999984741211 C-40.97999954223633,-34.05699920654297 -60.41600036621094,-9.430000305175781 -65.52100372314453,-5.163000106811523 C-69.49299621582031,-1.843000054359436 -90.35700225830078,14.180999755859375 -93.85800170898438,11.722999572753906 C-108.18499755859375,-38.22200012207031 -102.2509994506836,-91.63800048828125 -83.01100158691406,-139.41299438476562 C-83.01100158691406,-139.41299438476562 -45.45600128173828,-141.8780059814453 -45.45600128173828,-141.8780059814453 C-50.34000015258789,-87.69100189208984 -20.826000213623047,-33.472999572753906 39.875,-38.68299865722656 C53.79899978637695,-39.87799835205078 75.22000122070312,-48.80799865722656 69.89399719238281,-66.72200012207031 C66.01799774169922,-79.76000213623047 55.30099868774414,-71.24400329589844 48.03200149536133,-70.49500274658203 C24.577999114990234,-68.07599639892578 7.664999961853027,-71.4990005493164 -6.394999980926514,-91.50199890136719 C-11.817000389099121,-99.21700286865234 -26.034000396728516,-139.95399475097656 -18.242000579833984,-145.15699768066406 C-10.126999855041504,-150.5749969482422 34.96200180053711,-136.0500030517578 45.08100128173828,-130.33299255371094 C89.78500366210938,-105.072998046875 96.98600006103516,-44.643001556396484 91.09100341796875,1.9989999532699585 C87.93599700927734,26.95800018310547 75.86599731445312,43.57099914550781 91.7020034790039,67.13500213623047 C96.60199737548828,74.4260025024414 104.10199737548828,77.2030029296875 108.18499755859375,84.29199981689453 C93.20700073242188,98.25800323486328 71.66699981689453,92.78299713134766 53.9640007019043,98.50900268554688z"></path></g><g opacity="1" transform="matrix(1,0,0,1,66.4540023803711,80.3010025024414)"><path fill="rgb(0,0,0)" fill-opacity="1" d=" M4.964000225067139,-66.56999969482422 C26.363000869750977,-67.51899719238281 51.20199966430664,-55.459999084472656 66.4540023803711,-40.80099868774414 C66.4540023803711,-40.80099868774414 30.89900016784668,-13.333000183105469 30.89900016784668,-13.333000183105469 C27.14900016784668,-12.51200008392334 22.709999084472656,-17.39699935913086 18.639999389648438,-18.283000946044922 C0.7099999785423279,-22.18199920654297 -20.240999221801758,-1.003000020980835 -15.088000297546387,17.62299919128418 C-13.95199966430664,21.729000091552734 -8.10200023651123,24.854000091552734 -9.545000076293945,30.312999725341797 C-9.545000076293945,30.312999725341797 -37.69499969482422,67.51899719238281 -37.69499969482422,67.51899719238281 C-59.3120002746582,43.676998138427734 -70.28600311279297,18.055999755859375 -60.79800033569336,-14.451000213623047 C-53.125999450683594,-40.73699951171875 -22.530000686645508,-65.35099792480469 4.964000225067139,-66.56999969482422z"></path></g><g opacity="1" transform="matrix(1,0,0,1,444.29901123046875,74.98100280761719)"><path fill="rgb(0,0,0)" fill-opacity="1" d=" M33.887001037597656,74.98100280761719 C33.887001037597656,74.98100280761719 9.010000228881836,32.2130012512207 9.010000228881836,32.2130012512207 C28.28499984741211,13.473999977111816 2.5980000495910645,-17.701000213623047 -19.32200050354004,-12.958999633789062 C-23.259000778198242,-12.107000350952148 -27.864999771118164,-7.1519999504089355 -31.405000686645508,-8.168000221252441 C-31.405000686645508,-8.168000221252441 -66.19499969482422,-34.4109992980957 -66.19499969482422,-34.4109992980957 C-67.70099639892578,-36.5880012512207 -63.34199905395508,-39.44499969482422 -61.862998962402344,-40.689998626708984 C-7.539000034332275,-86.4530029296875 71.73600006103516,-45.8650016784668 63.09600067138672,25.30699920654297 C60.91999816894531,43.231998443603516 46.750999450683594,62.74300003051758 33.887001037597656,74.98100280761719z"></path></g><g opacity="1" transform="matrix(1,0,0,1,255.447998046875,470.9739990234375)"><path fill="rgb(0,0,0)" fill-opacity="1" d=" M54.32600021362305,-18.038999557495117 C57.808998107910156,44.04399871826172 -57.80799865722656,43.862998962402344 -55.152000427246094,-18.035999298095703 C-33.2140007019043,-17.176000595092773 -15.197999954223633,-24.152000427246094 -1.1820000410079956,-41.0260009765625 C7.686999797821045,-36.11899948120117 12.854000091552734,-27.450000762939453 22.738000869750977,-23.288000106811523 C32.150001525878906,-19.325000762939453 44.19900131225586,-17.80900001525879 54.32600021362305,-18.038999557495117z"></path></g><g opacity="1" transform="matrix(1,0,0,1,255.41900634765625,212.7050018310547)"><path fill="rgb(0,0,0)" fill-opacity="1" d=" M176.375,-97.40799713134766 C131.03500366210938,-149.79299926757812 56.77299880981445,-189.8699951171875 -14.045999526977539,-184.75799560546875 C-82.00199890136719,-179.85299682617188 -166.24200439453125,-126.58699798583984 -199.11900329589844,-66.7750015258789 C-200.92100524902344,-63.494998931884766 -209.64599609375,-49.930999755859375 -201.35899353027344,-50.03799819946289 C-141.06900024414062,-60.67900085449219 -66.0260009765625,-50.775001525878906 -35.07600021362305,8.756999969482422 C-18.808000564575195,40.04899978637695 -15.482999801635742,99.39600372314453 -21.658000946044922,133.75999450683594 C-23.141000747680664,142.01199340820312 -30.663999557495117,155.44700622558594 -29.871999740600586,161.17599487304688 C-28.792999267578125,168.99099731445312 -7.535999774932861,189.86900329589844 0.6949999928474426,189.65199279785156 C7.330999851226807,189.4770050048828 28.979999542236328,167.1219940185547 30.19300079345703,160.44400024414062 C15.914999961853027,129.34300231933594 16.301000595092773,90.22100067138672 21.23200035095215,56.70199966430664 C25.94099998474121,24.69700050354004 37.05099868774414,-5.14900016784668 62.9370002746582,-25.746999740600586 C103.60600280761719,-58.106998443603516 154.60400390625,-58.152000427246094 203.78900146484375,-50.12900161743164 C209.64599609375,-55.73899841308594 181.44700622558594,-91.5479965209961 176.375,-97.40799713134766z M43.58100128173828,-82.9520034790039 C37.189998626708984,-25.44499969482422 -47.314998626708984,-31.481000900268555 -44.72800064086914,-93.28099822998047 C-43.99800109863281,-110.71399688720703 -28.618000030517578,-128.7220001220703 -11.458000183105469,-131.67599487304688 C21.027999877929688,-137.26699829101562 47.35300064086914,-116.8949966430664 43.58100128173828,-82.9520034790039z"></path></g><g opacity="1" transform="matrix(1,0,0,1,252.6510009765625,126.7509994506836)"><path fill="rgb(0,0,0)" fill-opacity="1" d=" M1.8849999904632568,-22.579999923706055 C24.84000015258789,-23.856000900268555 26.95400047302246,9.763999938964844 11.432000160217285,14.357000350952148 C-20.670000076293945,23.856000900268555 -26.95400047302246,-20.97800064086914 1.8849999904632568,-22.579999923706055z"></path></g></g></g></svg>