<svg xmlns="http://www.w3.org/2000/svg" xmlns:xlink="http://www.w3.org/1999/xlink" viewBox="0 0 512 512" width="512" height="512" style="width: 100%; height: 100%; transform: translate3d(0,0,0);" preserveAspectRatio="xMidYMid meet"><defs><clipPath id="__lottie_element_53479"><rect width="512" height="512" x="0" y="0"></rect></clipPath></defs><g clip-path="url(#__lottie_element_53479)"><g style="display: block;" transform="matrix(2.962939977645874,0,0,2.962939977645874,2.8374481201171875,2.8374481201171875)" opacity="1"><g opacity="1" transform="matrix(1,0,0,1,87.10099792480469,92.0790023803711)"><path fill="rgb(0,0,0)" fill-opacity="1" d=" M77.33000183105469,31.316999435424805 C56.67499923706055,-14.121000289916992 30.826000213623047,-40.78300094604492 19.875,-51.09299850463867 C7.831999778747559,-62.369998931884766 -4.202000141143799,-64.0270004272461 -13.871000289916992,-60.51900100708008 C-20.38800048828125,-58.15399932861328 -29.895000457763672,-50.268001556396484 -29.895000457763672,-50.268001556396484 C-30.591999053955078,-50.91299819946289 -66.60800170898438,-77.03299713134766 -70.01799774169922,-74.46900177001953 C-72.90699768066406,-72.2969970703125 -58.92300033569336,-43.577999114990234 -53.37699890136719,-31.51799964904785 C-52.58100128173828,-29.785999298095703 -51.551998138427734,-26.715999603271484 -53.71500015258789,-23.944000244140625 C-63.77299880981445,-11.055999755859375 -72.87200164794922,2.4189999103546143 -79.0979995727539,17.527000427246094 C-82.48799896240234,25.753000259399414 -81.8219985961914,41.91699981689453 -74.11599731445312,48.483001708984375 C-67.95500183105469,53.733001708984375 -55.68000030517578,55.48099899291992 -44.13999938964844,51.847999572753906 C-41.275001525878906,50.94599914550781 -38.2869987487793,48.64500045776367 -36.67900085449219,46.178001403808594 C-34.237998962402344,42.43299865722656 -32.0260009765625,36.98500061035156 -30.163999557495117,32.869998931884766 C-27.020000457763672,25.91900062561035 -12.64799976348877,35.95399856567383 -3.7060000896453857,25.701000213623047 C-3.7060000896453857,25.701000213623047 -2.5959999561309814,58.71099853515625 -2.634000062942505,68.52899932861328 C-2.6640000343322754,76.4489974975586 -1.8619999885559082,77.03299713134766 6.445000171661377,76.072998046875 C27.700000762939453,73.61699676513672 82.48799896240234,49.48500061035156 77.33000183105469,31.316999435424805z M-69.38200378417969,38.018001556396484 C-71.2020034790039,29.731000900268555 -68.87100219726562,24.974000930786133 -65.49800109863281,22.80900001525879 C-63.691001892089844,21.649999618530273 -61.53200149536133,22.361000061035156 -60.84700012207031,23.340999603271484 C-58.96500015258789,26.03499984741211 -68.27300262451172,38.06100082397461 -69.38200378417969,38.018001556396484z M-35.88399887084961,1.8170000314712524 C-41.88800048828125,-8.616999626159668 -29.409000396728516,-22.479999542236328 -18.132999420166016,-21.059999465942383 C-24.266000747680664,-13.156000137329102 -29.972000122070312,-5.802999973297119 -35.88399887084961,1.8170000314712524z"></path></g><g opacity="1" transform="matrix(1,0,0,1,121.06099700927734,49.15299987792969)"><path fill="rgb(0,0,0)" fill-opacity="1" d=" M-38.49300003051758,-26.36400032043457 C-36.36899948120117,-25.576000213623047 -30.898000717163086,-27.406999588012695 -22.31100082397461,-23.368000030517578 C-2.753000020980835,-14.168999671936035 25.143999099731445,20.261999130249023 36.78799819946289,45.63600158691406 C38.4010009765625,49.15299987792969 44.88199996948242,27.913000106811523 42.13999938964844,12.392999649047852 C36.834999084472656,-17.631000518798828 20.378000259399414,-30.784000396728516 13.800999641418457,-30.833999633789062 C14.951000213623047,-30.702999114990234 14.107000350952148,-19.833999633789062 13.477999687194824,-14.503000259399414 C5.873000144958496,-29.452999114990234 -16.04800033569336,-49.584999084472656 -44.88199996948242,-46.9119987487793 C-43.53200149536133,-43.650001525878906 -40.21099853515625,-27.00200080871582 -38.49300003051758,-26.36400032043457z"></path></g></g></g></svg>