<svg xmlns="http://www.w3.org/2000/svg" xmlns:xlink="http://www.w3.org/1999/xlink" viewBox="0 0 512 512" width="512" height="512" style="width: 100%; height: 100%; transform: translate3d(0,0,0);" preserveAspectRatio="xMidYMid meet"><defs><clipPath id="__lottie_element_52693"><rect width="512" height="512" x="0" y="0"></rect></clipPath></defs><g clip-path="url(#__lottie_element_52693)"><g style="display: block;" transform="matrix(1,0,0,1,0,0)" opacity="1"><g opacity="1" transform="matrix(1,0,0,1,266.5159912109375,259.8030090332031)"><path fill="rgb(4,5,52)" fill-opacity="1" d=" M101.64399719238281,-73.95899963378906 C197.9949951171875,-114.72100067138672 216.91099548339844,-239.08200073242188 194.7169952392578,-244.40899658203125 C172.5229949951172,-249.73500061035156 119.25700378417969,-202.6840057373047 65.78900146484375,-151.78599548339844 C17.740999221801758,-106.0469970703125 -29.090999603271484,-52.43000030517578 -39.167999267578125,-29.295000076293945 C-46.47700119018555,-32.709999084472656 -54.970001220703125,-35.19300079345703 -64.21399688720703,-35.19300079345703 C-64.21399688720703,-35.19300079345703 -73.84200286865234,-49.98899841308594 -95.06900024414062,-50.58100128173828 C-95.06900024414062,-50.58100128173828 -88.99600219726562,-62.41699981689453 -79.26799774169922,-67.74400329589844 C-69.54000091552734,-73.07099914550781 -49.85900115966797,-80.875 -50.0099983215332,-95.3270034790039 C-50.20500183105469,-113.90799713134766 -76.38300323486328,-123.9219970703125 -83.15299987792969,-113.31600189208984 C-89.07099914550781,-104.04399871826172 -74.26100158691406,-98.16999816894531 -73.41100311279297,-93.43499755859375 C-72.56099700927734,-88.69999694824219 -101.01899719238281,-75.86199951171875 -111.0250015258789,-53.45600128173828 C-111.0250015258789,-53.45600128173828 -128.72500610351562,-52.948001861572266 -128.72500610351562,-52.948001861572266 C-128.72500610351562,-52.948001861572266 -135.5229949951172,-61.45800018310547 -125.28199768066406,-73.24199676513672 C-108.79900360107422,-92.20700073242188 -111.56199645996094,-113.90799713134766 -120.56999969482422,-122.58799743652344 C-131.0019989013672,-132.63999938964844 -164.2689971923828,-129.55499267578125 -162.23699951171875,-114.15299987792969 C-160.48699951171875,-100.88700103759766 -143.12600708007812,-108.77899932861328 -137.20799255371094,-107.98999786376953 C-137.20799255371094,-107.98999786376953 -125.80500030517578,-96.7979965209961 -134.05099487304688,-80.76499938964844 C-140.28700256347656,-68.63999938964844 -149.44000244140625,-65.37699890136719 -148.8260040283203,-49.39699935913086 C-148.8260040283203,-49.39699935913086 -180.21499633789062,-40.275001525878906 -197.3780059814453,-4.88700008392334 C-214.54100036621094,30.500999450683594 -192.69400024414062,97.5770034790039 -136.5260009765625,110.12200164794922 C-138.39100646972656,101.52200317382812 -136.7729949951172,92.73400115966797 -127.34400177001953,86.03299713134766 C-114.71800231933594,77.05999755859375 -88.4800033569336,79.4469985961914 -72.5,58.31800079345703 C-56.52000045776367,37.18899917602539 -61.255001068115234,-0.8659999966621399 -57.11199951171875,-2.6419999599456787 C-52.96900177001953,-4.418000221252441 -45.7239990234375,20.440000534057617 -53.19300079345703,46.48099899291992 C-60.6619987487793,72.52200317382812 -86.07499694824219,76.21800231933594 -87.11000061035156,80.21600341796875 C-88.1449966430664,84.21399688720703 -76.64299774169922,97.97200012207031 -60.07099914550781,100.33899688720703 C-60.07099914550781,100.33899688720703 -68.9489974975586,117.38300323486328 -57.70399856567383,137.2689971923828 C-57.70399856567383,137.2689971923828 -70.02899932861328,181.42100524902344 -49.95800018310547,211.60499572753906 C-49.95800018310547,211.60499572753906 -59.479000091552734,221.66600036621094 -68.35700225830078,221.66600036621094 C-77.23500061035156,221.66600036621094 -84.33699798583984,226.4010009765625 -83.74500274658203,231.13600158691406 C-83.15299987792969,235.87100219726562 -64.00399780273438,248.89100646972656 -27.118999481201172,243.56399536132812 C9.765999794006348,238.23699951171875 80.40599822998047,230.8730010986328 107.91999816894531,148.8699951171875 C125.69300079345703,95.9000015258789 92.03199768066406,30.500999450683594 63.03200149536133,12.746000289916992 C51.215999603271484,5.51200008392334 36.452999114990234,0.4399999976158142 23.106000900268555,-3.0320000648498535 C58.29199981689453,-3.5450000762939453 104.51200103759766,-8.373000144958496 120.1449966430664,-13.571000099182129 C144.11500549316406,-21.541000366210938 181.4010009765625,-63.305999755859375 176.07400512695312,-76.62200164794922 C170.7469940185547,-89.93900299072266 101.64399719238281,-73.95899963378906 101.64399719238281,-73.95899963378906z"></path></g><g opacity="1" transform="matrix(1,0,0,1,276.00299072265625,97.677001953125)"><path fill="rgb(4,5,52)" fill-opacity="1" d=" M-35.59400177001953,89.94300079345703 C-30.961000442504883,93.10700225830078 -20.9950008392334,74.85099792480469 -4.439000129699707,54.43299865722656 C12.116999626159668,34.013999938964844 35.55699920654297,23.361000061035156 37.59700012207031,17.14699935913086 C39.637001037597656,10.932999610900879 36.9739990234375,-88.49700164794922 19.2189998626709,-90.27300262451172 C5.058000087738037,-91.68900299072266 -14.515999794006348,-41.44599914550781 -26.94499969482422,4.7179999351501465 C-39.374000549316406,50.88199996948242 -40.22700119018555,86.77899932861328 -35.59400177001953,89.94300079345703z"></path></g></g></g></svg>