<svg xmlns="http://www.w3.org/2000/svg" xmlns:xlink="http://www.w3.org/1999/xlink" viewBox="0 0 512 512" width="512" height="512" style="width: 100%; height: 100%; transform: translate3d(0,0,0);" preserveAspectRatio="xMidYMid meet"><defs><clipPath id="__lottie_element_51184"><rect width="512" height="512" x="0" y="0"></rect></clipPath></defs><g clip-path="url(#__lottie_element_51184)"><g style="display: block;" transform="matrix(1,0,0,1,0,0)" opacity="1"><g opacity="1" transform="matrix(1,0,0,1,253.36000061035156,64.50800323486328)"><path fill="rgb(0,0,0)" fill-opacity="1" d=" M-30.966999053955078,62.43600082397461 C-36.01900100708008,40.27799987792969 -24.57200050354004,30.98900032043457 -17.327999114990234,14.182999610900879 C-9.145000457763672,-4.801000118255615 -16.711999893188477,-11.46500015258789 -13.248000144958496,-27.917999267578125 C-13.248000144958496,-27.917999267578125 2.5920000076293945,-63.45500183105469 2.5920000076293945,-63.45500183105469 C0.8069999814033508,-45.47700119018555 18.21500015258789,-29.867000579833984 21.006000518798828,-13.656000137329102 C23.256000518798828,-0.5870000123977661 18.378999710083008,9.744999885559082 19.378999710083008,21.513999938964844 C20.134000778198242,30.402000427246094 36.01900100708008,57.77899932861328 22.551000595092773,60.36199951171875 C14.880000114440918,61.83300018310547 5.7729997634887695,57.922000885009766 -2.6670000553131104,58.10100173950195 C-7.604000091552734,58.20500183105469 -29.961999893188477,63.45500183105469 -30.966999053955078,62.43600082397461z"></path></g><g opacity="1" transform="matrix(1,0,0,1,445.593994140625,261.1289978027344)"><path fill="rgb(0,0,0)" fill-opacity="1" d=" M60.180999755859375,-1.7009999752044678 C61.4119987487793,-1.5800000429153442 62.66400146484375,-1.5019999742507935 63.941001892089844,-1.468999981880188 C62.3489990234375,-0.6959999799728394 60.54800033569336,-0.4860000014305115 58.874000549316406,0.0860000029206276 C55.70800018310547,1.1690000295639038 53.27899932861328,3.4839999675750732 50.1510009765625,4.664000034332275 C46.840999603271484,5.9120001792907715 43.56800079345703,7.254000186920166 40.28300094604492,8.567000389099121 C34.70199966430664,10.798999786376953 28.93000030517578,13.385000228881836 22.95400047302246,14.340999603271484 C12.609000205993652,15.994999885559082 3.3529999256134033,11.420999526977539 -7.859000205993652,12.90999984741211 C-24.920000076293945,15.175999641418457 -40.87900161743164,33.40999984741211 -61.571998596191406,27.417999267578125 C-60.71500015258789,11.51099967956543 -59.08399963378906,-3.802999973297119 -59.47600173950195,-19.80699920654297 C-59.582000732421875,-24.148000717163086 -63.94200134277344,-28.672000885009766 -58.104000091552734,-31.128999710083008 C-45.27399826049805,-33.409000396728516 -33.89899826049805,-22.361000061035156 -22.530000686645508,-21.020000457763672 C-11.312000274658203,-19.695999145507812 -2.9690001010894775,-24.235000610351562 9.930999755859375,-22.007999420166016 C19.31999969482422,-20.386999130249023 27.3799991607666,-15.036999702453613 35.472999572753906,-10.345999717712402 C43.43199920654297,-5.732999801635742 51.244998931884766,-2.5810000896453857 60.180999755859375,-1.7009999752044678z"></path></g><g opacity="1" transform="matrix(1,0,0,1,64.94000244140625,257.36700439453125)"><path fill="rgb(0,0,0)" fill-opacity="1" d=" M60.888999938964844,-25.466999053955078 C55.8650016784668,-7.3520002365112305 59.757999420166016,12.668000221252441 60.88199996948242,31.17799949645996 C53.10499954223633,31.072999954223633 45.39400100708008,31.82900047302246 37.659000396728516,30.243000030517578 C26.69099998474121,27.9950008392334 18.916000366210938,18.267000198364258 7.164000034332275,16.67099952697754 C-4.001999855041504,15.156000137329102 -14.145000457763672,19.591999053955078 -23.611000061035156,18.136999130249023 C-34.902000427246094,16.399999618530273 -47.91999816894531,4.683000087738037 -60.888999938964844,5.96999979019165 C-60.888999938964844,5.96999979019165 -12.72700023651123,-18.26099967956543 -12.72700023651123,-18.26099967956543 C-1.746999979019165,-21.9950008392334 9.265999794006348,-16.291000366210938 19.888999938964844,-17.027999877929688 C33.709999084472656,-17.986000061035156 46.584999084472656,-31.82900047302246 60.888999938964844,-25.466999053955078z"></path></g><g opacity="1" transform="matrix(1,0,0,1,259.2820129394531,448.8500061035156)"><path fill="rgb(0,0,0)" fill-opacity="1" d=" M18.73200035095215,-57.486000061035156 C20.676000595092773,-57.722999572753906 29.86199951171875,-62.14899826049805 30.259000778198242,-61.680999755859375 C29.784000396728516,-55.29399871826172 31.132999420166016,-48.111000061035156 30.155000686645508,-41.87099838256836 C27.91699981689453,-27.604000091552734 11.604999542236328,-14.895999908447266 11.305000305175781,2.4230000972747803 C11.225000381469727,7.046000003814697 13.420000076293945,10.949000358581543 13.524999618530273,14.977999687194824 C13.991000175476074,32.88399887084961 1.7450000047683716,45.356998443603516 -2.260999917984009,62.150001525878906 C-4.642000198364258,40.15599822998047 -23.214000701904297,24.81599998474121 -23.1299991607666,2.322000026702881 C-23.097999572753906,-6.074999809265137 -19.43400001525879,-14.123000144958496 -20.038000106811523,-22.81399917602539 C-20.84600067138672,-34.42900085449219 -31.132999420166016,-44.84000015258789 -28.503000259399414,-57.486000061035156 C-13.527000427246094,-58.79600143432617 4.125,-55.702999114990234 18.73200035095215,-57.486000061035156z"></path></g><g opacity="1" transform="matrix(1,0,0,1,414.3609924316406,335.0450134277344)"><path fill="rgb(0,0,0)" fill-opacity="1" d=" M43.137001037597656,35.32500076293945 C35.23400115966797,34.38199996948242 32.941001892089844,24.983999252319336 24.863000869750977,23.18199920654297 C11.567000389099121,20.215999603271484 -1.3259999752044678,26.06100082397461 -16.121000289916992,22.167999267578125 C-29.291000366210938,18.70199966430664 -42.470001220703125,8.305999755859375 -49.263999938964844,-3.4590001106262207 C-49.263999938964844,-3.4590001106262207 -34.27899932861328,-33.659000396728516 -34.27899932861328,-33.659000396728516 C-13.017999649047852,-35.32500076293945 -8.496000289916992,-9.482999801635742 6.71999979019165,-0.6499999761581421 C24.829999923706055,9.86299991607666 49.26499938964844,-1.2940000295639038 43.137001037597656,35.32500076293945z"></path></g><g opacity="1" transform="matrix(1,0,0,1,164.23300170898438,412.7850036621094)"><path fill="rgb(0,0,0)" fill-opacity="1" d=" M39.11600112915039,-31.750999450683594 C38.40700149536133,-11.854000091552734 12.196999549865723,-7.579999923706055 2.6589999198913574,6.002999782562256 C-9.970000267028809,23.988000869750977 -1.565999984741211,50.59000015258789 -38.41600036621094,37.31399917602539 C-39.1150016784668,36.380001068115234 -24.81800079345703,26.21500015258789 -22.836999893188477,22.4950008392334 C-17.218000411987305,11.944000244140625 -22.091999053955078,6.0929999351501465 -21.71299934387207,-3.4839999675750732 C-20.969999313354492,-22.304000854492188 -6.4720001220703125,-42.95199966430664 10.619000434875488,-50.59000015258789 C18.93400001525879,-42.75400161743164 27.666000366210938,-34.75199890136719 39.11600112915039,-31.750999450683594z"></path></g><g opacity="1" transform="matrix(1,0,0,1,346.65899658203125,98.7770004272461)"><path fill="rgb(0,0,0)" fill-opacity="1" d=" M39.457000732421875,-36.85100173950195 C37.5880012512207,-32.722999572753906 30.812000274658203,-31.10300064086914 27.604999542236328,-27.756999969482422 C15.199999809265137,-14.819000244140625 24.2549991607666,0.460999995470047 20.07699966430664,16.148000717163086 C16.19700050354004,30.714000701904297 3.822999954223633,44.604000091552734 -9.883000373840332,50.744998931884766 C-9.883000373840332,50.744998931884766 -37.946998596191406,34.22200012207031 -37.946998596191406,34.22200012207031 C-39.45600128173828,12.902000427246094 -11.375,8.369000434875488 -1.6080000400543213,-5.540999889373779 C10.8149995803833,-23.233999252319336 3.0290000438690186,-50.744998931884766 39.457000732421875,-36.85100173950195z"></path></g><g opacity="1" transform="matrix(1,0,0,1,98.41799926757812,173.61300659179688)"><path fill="rgb(0,0,0)" fill-opacity="1" d=" M-39.821998596191406,-31.930999755859375 C-38.63800048828125,-29.305999755859375 -37.112998962402344,-26.923999786376953 -34.67100143432617,-24.45199966430664 C-30.81599998474121,-20.54800033569336 -25.8700008392334,-18.62299919128418 -20.465999603271484,-18.1299991607666 C-9.201000213623047,-17.104000091552734 1.9759999513626099,-20.790000915527344 13.251999855041504,-18.884000778198242 C21.18400001525879,-17.54400062561035 41.98500061035156,-5.440999984741211 45.26599884033203,1.649999976158142 C48.9109992980957,9.529999732971191 34.104000091552734,27.31100082397461 33.50899887084961,37.0989990234375 C11.692999839782715,39.60300064086914 6.784999847412109,11.894000053405762 -7.5229997634887695,3.9830000400543213 C-16.736000061035156,-1.1119999885559082 -27.445999145507812,0.6069999933242798 -36.68000030517578,-3.6489999294281006 C-48.90999984741211,-9.286999702453613 -44.821998596191406,-29.57699966430664 -42.527000427246094,-39.60300064086914 C-41.63100051879883,-36.71099853515625 -40.858001708984375,-34.22800064086914 -39.821998596191406,-31.930999755859375z"></path></g><g opacity="1" transform="matrix(1,0,0,1,99.52799987792969,335.6619873046875)"><path fill="rgb(0,0,0)" fill-opacity="1" d=" M32.32899856567383,-30.09000015258789 C32.32899856567383,-30.09000015258789 51.38999938964844,2.187999963760376 51.38999938964844,2.187999963760376 C40.53900146484375,17.48200035095215 20.976999282836914,13.105999946594238 5.1579999923706055,16.74799919128418 C-6.196000099182129,19.36199951171875 -13.015000343322754,28.150999069213867 -25.691999435424805,29.96500015258789 C-34.87200164794922,31.277999877929688 -42.486000061035156,30.363000869750977 -51.38999938964844,28.400999069213867 C-51.38999938964844,28.400999069213867 -20.99799919128418,11.586999893188477 -20.99799919128418,11.586999893188477 C-3.065000057220459,-2.6449999809265137 4.355999946594238,-31.27899932861328 32.32899856567383,-30.09000015258789z"></path></g><g opacity="1" transform="matrix(1,0,0,1,412.5530090332031,177.83299255371094)"><path fill="rgb(0,0,0)" fill-opacity="1" d=" M51.23699951171875,-29.868999481201172 C34.45000076293945,-20.875999450683594 20.363000869750977,-15.928999900817871 8.687999725341797,-0.19300000369548798 C3.5,6.797999858856201 -1.656999945640564,14.071000099182129 -8.48900032043457,19.582000732421875 C-10.890999794006348,21.518999099731445 -30.054000854492188,33.013999938964844 -32.534000396728516,28.716999053955078 C-32.53799819946289,28.711000442504883 -51.23699951171875,-3.681999921798706 -51.23699951171875,-3.681999921798706 C-40.53900146484375,-19.224000930786133 -20.93400001525879,-14.824999809265137 -5.302999973297119,-18.22599983215332 C4.64300012588501,-20.389999389648438 12.479000091552734,-29.639999389648438 23.408000946044922,-31.496999740600586 C32.334999084472656,-33.013999938964844 42.637001037597656,-32.4630012512207 51.23699951171875,-29.868999481201172z"></path></g><g opacity="1" transform="matrix(1,0,0,1,345.05499267578125,407.177001953125)"><path fill="rgb(0,0,0)" fill-opacity="1" d=" M32.659000396728516,49.24100112915039 C24.333999633789062,40.52299880981445 20.687999725341797,27.465999603271484 11.67300033569336,18.823999404907227 C-3.260999917984009,4.506999969482422 -34.14400100708008,-1.1779999732971191 -31.43899917602539,-28.44300079345703 C-31.43899917602539,-28.44300079345703 -3.7750000953674316,-49.24100112915039 -3.7750000953674316,-49.24100112915039 C13.8149995803833,-41.61199951171875 10.762999534606934,-19.905000686645508 16.356000900268555,-4.743000030517578 C19.93899917602539,4.96999979019165 27.18199920654297,10.635000228881836 30.679000854492188,20.805999755859375 C34.119998931884766,30.812000274658203 34.14400100708008,38.92599868774414 32.659000396728516,49.24100112915039z"></path></g><g opacity="1" transform="matrix(1,0,0,1,168.74600219726562,105.62999725341797)"><path fill="rgb(0,0,0)" fill-opacity="1" d=" M-3.009999990463257,48.59199905395508 C-4.638000011444092,42.10200119018555 -10.420000076293945,38.4739990234375 -12.532999992370605,31.854999542236328 C-15.444999694824219,22.72800064086914 -14.631999969482422,12.276000022888184 -18.79199981689453,2.436000108718872 C-22.20800018310547,-5.645999908447266 -29.351999282836914,-10.767000198364258 -32.5620002746582,-19.47599983215332 C-36.340999603271484,-29.72800064086914 -36.779998779296875,-39.47100067138672 -34.518001556396484,-50.025001525878906 C-27.958999633789062,-42.194000244140625 -25.832000732421875,-33.058998107910156 -18.81599998474121,-24.81999969482422 C-6.460999965667725,-10.310999870300293 12.031999588012695,-6.790999889373779 23.06599998474121,8.861000061035156 C36.77899932861328,28.312999725341797 30.027000427246094,25.339000701904297 17.26099967956543,34.27899932861328 C13.819999694824219,36.6879997253418 -0.9570000171661377,50.025001525878906 -3.009999990463257,48.59199905395508z"></path></g><g opacity="1" transform="matrix(1,0,0,1,262.5039978027344,268.2019958496094)"><path fill="rgb(0,0,0)" fill-opacity="1" d=" M-15.342000007629395,-125.9520034790039 C-93.71099853515625,-121.51200103759766 -142.22999572753906,-36.51100158691406 -112.51100158691406,34.98699951171875 C-77.61499786376953,118.93499755859375 42.19200134277344,131.41299438476562 90.9020004272461,53.72800064086914 C142.22900390625,-28.131000518798828 81.02200317382812,-131.41200256347656 -15.342000007629395,-125.9520034790039z M70.57599639892578,6.129000186920166 C53.040000915527344,94.86699676513672 -75.67400360107422,88.40699768066406 -83.95099639892578,-4.039000034332275 C-87.625,-45.07099914550781 -56.04100036621094,-82.70800018310547 -15.446000099182129,-88.23699951171875 C38.29899978637695,-95.55799865722656 80.93399810791016,-46.28799819946289 70.57599639892578,6.129000186920166z"></path></g><g opacity="1" transform="matrix(1,0,0,1,257.2560119628906,258.531005859375)"><path fill="rgb(0,0,0)" fill-opacity="1" d=" M27.365999221801758,29.267000198364258 C15.371000289916992,41.27000045776367 -2.4749999046325684,44.426998138427734 -17.8700008392334,37.14400100708008 C-53.641998291015625,20.2189998626709 -43.23099899291992,-37.7239990234375 -4.164000034332275,-41.1619987487793 C32.928001403808594,-44.426998138427734 53.641998291015625,2.9730000495910645 27.365999221801758,29.267000198364258z"></path></g></g></g></svg>