<svg xmlns="http://www.w3.org/2000/svg" xmlns:xlink="http://www.w3.org/1999/xlink" viewBox="0 0 512 512" width="512" height="512" style="width: 100%; height: 100%; transform: translate3d(0,0,0);" preserveAspectRatio="xMidYMid meet"><defs><clipPath id="__lottie_element_52746"><rect width="512" height="512" x="0" y="0"></rect></clipPath></defs><g clip-path="url(#__lottie_element_52746)"><g style="display: block;" transform="matrix(1,0,0,1,256,256)" opacity="1"><g opacity="1" transform="matrix(1,0,0,1,0,0)"><path fill="rgb(0,0,0)" fill-opacity="1" d=" M-19.399999618530273,45.79999923706055 C-25.89299964904785,-3.2079999446868896 -219.9810028076172,77.3550033569336 -212.04600524902344,159.89999389648438 C-212.21099853515625,219.23500061035156 -176.52200317382812,249.6739959716797 -117.5,249.39999389648438 C-14.460000038146973,241.93899536132812 -23.990999221801758,150.72300720214844 -19.399999618530273,45.79999923706055 M-172.5500030517578,120.4000015258789 C-166.0570068359375,111.64700317382812 -138.48300170898438,94.5510025024414 -130.75,101.4990005493164 C-129.35000610351562,103.33300018310547 -130.26699829101562,110.48300170898438 -133.5,122.94999694824219 C-138.70399475097656,147.74099731445312 -154.51600646972656,178.3280029296875 -176.55099487304688,156.55099487304688 C-185.2209930419922,145.3419952392578 -182.47000122070312,131.3070068359375 -172.5500030517578,120.4000015258789 M93.5999984741211,-124.19999694824219 C218.7899932861328,-190.21299743652344 -54.25400161743164,-251.34100341796875 -98.39600372314453,-250.04800415039062 C-141.64599609375,-248.781005859375 -173.81700134277344,-234.06700134277344 -195.25,-212.1999969482422 C-258.40399169921875,-155.12600708007812 -243.21800231933594,-21.847999572753906 -150.0469970703125,-10.699000358581543 C-72.81800079345703,-8.175999641418457 13.21500015258789,-91.29900360107422 93.5999984741211,-124.19999694824219 M-39.79999923706055,-214.10000610351562 C-25.06999969482422,-214.2100067138672 -25.079999923706055,-194.24899291992188 -39.80099868774414,-194.35000610351562 C-54.505001068115234,-194.31300354003906 -54.51100158691406,-214.1510009765625 -39.79999923706055,-214.10000610351562 M-86.19999694824219,-214.3000030517578 C-39.9010009765625,-207.13699340820312 -82.87999725341797,-180.20599365234375 -115.5989990234375,-158 C-137.60000610351562,-143.86700439453125 -156.08299255371094,-142.11700439453125 -171.0500030517578,-152.75 C-195.656005859375,-176.08399963378906 -174.71099853515625,-209.01800537109375 -142.7010040283203,-214.94900512695312 C-126.41500091552734,-217.22999572753906 -110.21600341796875,-217.95899963378906 -86.19999694824219,-214.3000030517578 M226.35000610351562,-67.6500015258789 C214.74000549316406,-129.46099853515625 68.95800018310547,2.252000093460083 58.099998474121094,15.347999572753906 C-58.33399963378906,145.19900512695312 156.4149932861328,270.7550048828125 221.30299377441406,131.5500030517578 C242.17100524902344,84.20600128173828 234.14199829101562,-21.88800048828125 226.35000610351562,-67.6500015258789 M80.55000305175781,38.900001525878906 C86.31700134277344,32.867000579833984 95,26.632999420166016 106.5999984741211,20.200000762939453 C135.74099731445312,3.502000093460083 127.18299865722656,35.81800079345703 123.0009994506836,60.5 C119.06700134277344,79.43399810791016 109.75,91 95.05000305175781,95.19999694824219 C80.3499984741211,99.26699829101562 71.25,96.31700134277344 67.75,86.3499984741211 C60.64799880981445,67.8550033569336 68.65899658203125,51.68600082397461 80.55000305175781,38.900001525878906z"></path></g></g></g></svg>