<svg xmlns="http://www.w3.org/2000/svg" xmlns:xlink="http://www.w3.org/1999/xlink" viewBox="0 0 512 512" width="512" height="512" style="width: 100%; height: 100%; transform: translate3d(0,0,0);" preserveAspectRatio="xMidYMid meet"><defs><clipPath id="__lottie_element_52955"><rect width="512" height="512" x="0" y="0"></rect></clipPath></defs><g clip-path="url(#__lottie_element_52955)"><g style="display: block;" transform="matrix(1,0,0,1,255.2239990234375,254.63800048828125)" opacity="1"><g opacity="1" transform="matrix(1,0,0,1,0,0)"><g opacity="1" transform="matrix(1,0,0,1,-26.18199920654297,-58.064998626708984)"><path fill="rgb(0,0,0)" fill-opacity="1" d=" M10.975000381469727,-29.594999313354492 C16.833999633789062,-14.826000213623047 12.204000473022461,0.8669999837875366 0.6340000033378601,5.456999778747559 C-10.935999870300293,10.04699993133545 -25.06599998474121,1.7979999780654907 -30.924999237060547,-12.970999717712402 C-36.784000396728516,-27.739999771118164 -32.154998779296875,-43.433998107910156 -20.584999084472656,-48.02399826049805 C-9.015000343322754,-52.61399841308594 5.116000175476074,-44.36399841308594 10.975000381469727,-29.594999313354492z M84.34500122070312,-6.8470001220703125 C87.47000122070312,8.732000350952148 80.11000061035156,23.34600067138672 67.90599822998047,25.79400062561035 C55.70199966430664,28.242000579833984 43.27399826049805,17.597999572753906 40.14899826049805,2.0190000534057617 C37.02399826049805,-13.5600004196167 44.38399887084961,-28.173999786376953 56.5880012512207,-30.621999740600586 C68.79199981689453,-33.06999969482422 81.22000122070312,-22.426000595092773 84.34500122070312,-6.8470001220703125z M-96.0270004272461,-112.43199920654297 C-96.0270004272461,-112.43199920654297 -188.5760040283203,98.85299682617188 -188.5760040283203,98.85299682617188 C-190.8990020751953,104.15699768066406 -188.65899658203125,110.36599731445312 -183.46800231933594,112.93000030517578 C-157.57400512695312,125.72100067138672 -78.66699981689453,157.2949981689453 26.36400032043457,130.177001953125 C133.14300537109375,102.61499786376953 176.23500061035156,29.906999588012695 188.44400024414062,4.179999828338623 C190.85800170898438,-0.906000018119812 188.9720001220703,-6.988999843597412 184.11300659179688,-9.833000183105469 C184.11300659179688,-9.833000183105469 -28.60300064086914,-134.3419952392578 -28.60300064086914,-134.3419952392578 C-53.10599899291992,-148.6840057373047 -84.63600158691406,-138.43800354003906 -96.0270004272461,-112.43199920654297z"></path></g></g><g opacity="1" transform="matrix(1,0,0,1,0,79.14700317382812)"><path fill="rgb(0,0,0)" fill-opacity="1" d=" M-230.68099975585938,8.777000427246094 C-230.68099975585938,8.777000427246094 -125.5479965209961,74.875 10.086000442504883,38.41699981689453 C161.5989990234375,-2.309000015258789 203.77000427246094,-119.77200317382812 203.77000427246094,-119.77200317382812 C203.77000427246094,-119.77200317382812 206.56199645996094,-118.00399780273438 206.56199645996094,-118.00399780273438 C241.47500610351562,-95.89900207519531 246.9770050048828,-64.23699951171875 224.3560028076172,-17.944000244140625 C196.27099609375,39.53200149536133 121.58499908447266,85.94400024414062 31.02899932861328,106.80400085449219 C-56.209999084472656,126.9000015258789 -131.2740020751953,122.15299987792969 -185.58900451660156,102.76300048828125 C-240.51800537109375,83.15399932861328 -245.63600158691406,47.25199890136719 -230.68099975585938,8.777000427246094 C-230.68099975585938,8.777000427246094 -230.68099975585938,8.777000427246094 -230.68099975585938,8.777000427246094z"></path></g></g></g></svg>