<svg xmlns="http://www.w3.org/2000/svg" xmlns:xlink="http://www.w3.org/1999/xlink" viewBox="0 0 512 512" width="512" height="512" style="width: 100%; height: 100%; transform: translate3d(0,0,0);" preserveAspectRatio="xMidYMid meet"><defs><clipPath id="__lottie_element_53729"><rect width="512" height="512" x="0" y="0"></rect></clipPath></defs><g clip-path="url(#__lottie_element_53729)"><g style="display: block;" transform="matrix(1,0,0,1,0,0)" opacity="1"><g opacity="1" transform="matrix(1,0,0,1,121.71199798583984,348.14898681640625)"><path fill="rgb(0,0,0)" fill-opacity="1" d=" M25.27400016784668,-61.750999450683594 C26.7810001373291,-52.027000427246094 48.277000427246094,-39.11899948120117 45.59600067138672,-30.316999435424805 C45.59600067138672,-30.316999435424805 -16.743999481201172,63.652000427246094 -16.743999481201172,63.652000427246094 C-16.743999481201172,63.652000427246094 -48.277000427246094,21.541000366210938 -48.277000427246094,21.541000366210938 C-28.716999053955078,-1.746999979019165 -10.916000366210938,-27.194000244140625 9.843000411987305,-49.44900131225586 C12.20199966430664,-51.97800064086914 22.60700035095215,-63.652000427246094 25.27400016784668,-61.750999450683594z"></path></g><g opacity="1" transform="matrix(1,0,0,1,162.74400329589844,391.2959899902344)"><path fill="rgb(0,0,0)" fill-opacity="1" d=" M43.599998474121094,-38.73400115966797 C43.599998474121094,-38.73400115966797 42.7869987487793,-31.00200080871582 42.7869987487793,-31.00200080871582 C42.7869987487793,-31.00200080871582 -8.512999534606934,63.76100158691406 -8.512999534606934,63.76100158691406 C-8.512999534606934,63.76100158691406 -43.599998474121094,35.025001525878906 -43.599998474121094,35.025001525878906 C-43.599998474121094,35.025001525878906 17.242000579833984,-63.76100158691406 17.242000579833984,-63.76100158691406 C17.242000579833984,-63.76100158691406 43.599998474121094,-38.73400115966797 43.599998474121094,-38.73400115966797z"></path></g><g opacity="1" transform="matrix(1,0,0,1,209.6020050048828,424.1969909667969)"><path fill="rgb(0,0,0)" fill-opacity="1" d=" M9.484000205993652,-61.683998107910156 C9.484000205993652,-61.683998107910156 37.69300079345703,-44.30500030517578 37.69300079345703,-44.30500030517578 C37.69300079345703,-44.30500030517578 4.339000225067139,61.683998107910156 4.339000225067139,61.683998107910156 C-10.166000366210938,55.48699951171875 -25.143999099731445,50.051998138427734 -37.69200134277344,40.191001892089844 C-37.69200134277344,40.191001892089844 9.484000205993652,-61.683998107910156 9.484000205993652,-61.683998107910156z"></path></g><g opacity="1" transform="matrix(1,0,0,1,90.18000030517578,293.9179992675781)"><path fill="rgb(0,0,0)" fill-opacity="1" d=" M28.013999938964844,-56.90299987792969 C25.7810001373291,-47.25600051879883 43.7140007019043,-27.256000518798828 42.17100143432617,-21.325000762939453 C42.17100143432617,-21.325000762939453 -27.523000717163086,58.310001373291016 -27.523000717163086,58.310001373291016 C-27.523000717163086,58.310001373291016 -43.7140007019043,8.350000381469727 -43.7140007019043,8.350000381469727 C-42.50299835205078,4.067999839782715 7.311999797821045,-42.49800109863281 14.699999809265137,-48.62699890136719 C16.635000228881836,-50.231998443603516 26.513999938964844,-58.310001373291016 28.013999938964844,-56.90299987792969z"></path></g><g opacity="1" transform="matrix(1,0,0,1,260.20001220703125,445.5480041503906)"><path fill="rgb(0,0,0)" fill-opacity="1" d=" M18.534000396728516,58.935001373291016 C16.954999923706055,60.404998779296875 -20.448999404907227,50.03200149536133 -23.299999237060547,48.29499816894531 C-25.426000595092773,46.999000549316406 -26.79400062561035,46.35499954223633 -26.833999633789062,43.45399856567383 C-26.833999633789062,43.45399856567383 -2.0230000019073486,-60.404998779296875 -2.0230000019073486,-60.404998779296875 C4.789000034332275,-57.23899841308594 25.510000228881836,-52.15599822998047 26.833999633789062,-44.95000076293945 C26.833999633789062,-44.95000076293945 18.534000396728516,58.935001373291016 18.534000396728516,58.935001373291016z"></path></g><g opacity="1" transform="matrix(1,0,0,1,77.19300079345703,224.6649932861328)"><path fill="rgb(0,0,0)" fill-opacity="1" d=" M-37.196998596191406,53.49300003051758 C-37.196998596191406,53.49300003051758 -37.196998596191406,-5.14300012588501 -37.196998596191406,-5.14300012588501 C-37.196998596191406,-5.14300012588501 25.579999923706055,-53.452999114990234 25.579999923706055,-53.452999114990234 C30.540000915527344,-53.49300003051758 28.253000259399414,-30.417999267578125 28.69499969482422,-25.7450008392334 C29.617000579833984,-15.984999656677246 37.196998596191406,-4.526000022888184 27.70400047302246,2.135999917984009 C27.70400047302246,2.135999917984009 -37.196998596191406,53.49300003051758 -37.196998596191406,53.49300003051758z"></path></g><g opacity="1" transform="matrix(1,0,0,1,318.7919921875,455.0929870605469)"><path fill="rgb(0,0,0)" fill-opacity="1" d=" M-20.490999221801758,53.492000579833984 C-20.490999221801758,53.492000579833984 -23.489999771118164,48.54800033569336 -23.489999771118164,48.54800033569336 C-23.489999771118164,48.54800033569336 -17.385000228881836,-53.492000579833984 -17.385000228881836,-53.492000579833984 C-17.385000228881836,-53.492000579833984 11.22700023651123,-45.08399963378906 11.22700023651123,-45.08399963378906 C11.73799991607666,-40.78499984741211 11.095000267028809,-36.47700119018555 11.659000396728516,-32.13399887084961 C14.362000465393066,-11.317999839782715 23.48900032043457,23.729999542236328 23.033000946044922,42.57400131225586 C22.93199920654297,46.73500061035156 21.79599952697754,50.599998474121094 18.614999771118164,53.492000579833984 C18.614999771118164,53.492000579833984 -20.490999221801758,53.492000579833984 -20.490999221801758,53.492000579833984z"></path></g><g opacity="1" transform="matrix(1,0,0,1,76.00900268554688,148.53599548339844)"><path fill="rgb(0,0,0)" fill-opacity="1" d=" M29.83799934387207,-37.02000045776367 C29.83799934387207,-37.02000045776367 27.364999771118164,3.7109999656677246 27.364999771118164,3.7109999656677246 C27.364999771118164,3.7109999656677246 -29.836999893188477,37.02000045776367 -29.836999893188477,37.02000045776367 C-23.167999267578125,17.219999313354492 -21.36400032043457,-4.4019999504089355 -10.241999626159668,-22.582000732421875 C-10.241999626159668,-22.582000732421875 29.83799934387207,-37.02000045776367 29.83799934387207,-37.02000045776367z"></path></g><g opacity="1" transform="matrix(1,0,0,1,142.28500366210938,169.11700439453125)"><path fill="rgb(0,0,0)" fill-opacity="1" d=" M-17.884000778198242,41.145999908447266 C-17.136999130249023,30.773000717163086 -25.302000045776367,-3.1010000705718994 -20.982999801635742,-10.28600025177002 C-17.499000549316406,-16.08099937438965 18.113000869750977,-34.00600051879883 25.301000595092773,-41.145999908447266 C20.363000869750977,-26.246000289916992 25.26099967956543,-10.595000267028809 24.29199981689453,4.070000171661377 C24.29199981689453,4.070000171661377 -17.884000778198242,41.145999908447266 -17.884000778198242,41.145999908447266z"></path></g><g opacity="1" transform="matrix(1,0,0,1,217.15199279785156,303.90399169921875)"><path fill="rgb(0,0,0)" fill-opacity="1" d=" M-0.17399999499320984,35.97100067138672 C-0.17399999499320984,35.97100067138672 -26.624000549316406,10.612000465393066 -26.624000549316406,10.612000465393066 C-26.624000549316406,10.612000465393066 6.927999973297119,-35.970001220703125 6.927999973297119,-35.970001220703125 C6.927999973297119,-35.970001220703125 26.624000549316406,-18.643999099731445 26.624000549316406,-18.643999099731445 C26.624000549316406,-18.643999099731445 -0.17399999499320984,35.97100067138672 -0.17399999499320984,35.97100067138672z"></path></g><g opacity="1" transform="matrix(1,0,0,1,155.38299560546875,222.99600219726562)"><path fill="rgb(0,0,0)" fill-opacity="1" d=" M26.19700050354004,-2.8589999675750732 C13.305000305175781,6.486999988555908 5.675000190734863,22.78499984741211 -7.2870001792907715,32.57500076293945 C-9.052000045776367,33.90800094604492 -9.49899959564209,35.32600021362305 -12.4399995803833,34.57600021362305 C-12.4399995803833,34.57600021362305 -26.19700050354004,2.6449999809265137 -26.19700050354004,2.6449999809265137 C-26.19700050354004,2.6449999809265137 15.312999725341797,-35.32600021362305 15.312999725341797,-35.32600021362305 C15.312999725341797,-35.32600021362305 26.19700050354004,-2.8589999675750732 26.19700050354004,-2.8589999675750732z"></path></g><g opacity="1" transform="matrix(1,0,0,1,183.03900146484375,267.85198974609375)"><path fill="rgb(0,0,0)" fill-opacity="1" d=" M7.243000030517578,-34.95800018310547 C7.243000030517578,-34.95800018310547 26.826000213623047,-14.347999572753906 26.826000213623047,-14.347999572753906 C26.826000213623047,-14.347999572753906 27.579999923706055,-9.63700008392334 27.579999923706055,-9.63700008392334 C27.579999923706055,-9.63700008392334 -6.170000076293945,34.95800018310547 -6.170000076293945,34.95800018310547 C-6.170000076293945,34.95800018310547 -27.57900047302246,5.452000141143799 -27.57900047302246,5.452000141143799 C-27.57900047302246,5.452000141143799 7.243000030517578,-34.95800018310547 7.243000030517578,-34.95800018310547z"></path></g><g opacity="1" transform="matrix(1,0,0,1,248.67100524902344,327.35400390625)"><path fill="rgb(0,0,0)" fill-opacity="1" d=" M21.58300018310547,-30.413999557495117 C21.58300018310547,-30.413999557495117 3.2829999923706055,35.1349983215332 3.2829999923706055,35.1349983215332 C-0.10899999737739563,37.512001037597656 -18.902000427246094,23.791000366210938 -21.055999755859375,19.43000030517578 C-21.583999633789062,16.56800079345703 1.8660000562667847,-31.152000427246094 4.197000026702881,-32.895999908447266 C10.368000030517578,-37.51300048828125 15.482999801635742,-32.3489990234375 21.58300018310547,-30.413999557495117z"></path></g><g opacity="1" transform="matrix(1,0,0,1,281.1499938964844,340.4280090332031)"><path fill="rgb(0,0,0)" fill-opacity="1" d=" M7.822999954223633,38.49700164794922 C7.822999954223633,38.49700164794922 -16.974000930786133,28.985000610351562 -16.974000930786133,28.985000610351562 C-17.59600067138672,25.87700080871582 -2.50600004196167,-27.843000411987305 0.007000000216066837,-32.07600021362305 C3.816999912261963,-38.49700164794922 13.515999794006348,-34.810001373291016 17.594999313354492,-30.51300048828125 C17.594999313354492,-30.51300048828125 7.822999954223633,38.49700164794922 7.822999954223633,38.49700164794922z"></path></g><g opacity="1" transform="matrix(1,0,0,1,145.98899841308594,115.7239990234375)"><path fill="rgb(0,0,0)" fill-opacity="1" d=" M23.445999145507812,-2.378999948501587 C16.214000701904297,-3.236999988555908 -23.64900016784668,24.788999557495117 -25.711999893188477,22.520999908447266 C-25.711999893188477,22.520999908447266 -23.481000900268555,-10.210000038146973 -23.481000900268555,-10.210000038146973 C-23.481000900268555,-10.210000038146973 25.71299934387207,-24.788999557495117 25.71299934387207,-24.788999557495117 C25.71299934387207,-24.788999557495117 23.445999145507812,-2.378999948501587 23.445999145507812,-2.378999948501587z"></path></g><g opacity="1" transform="matrix(1,0,0,1,314.3169860839844,350.16400146484375)"><path fill="rgb(0,0,0)" fill-opacity="1" d=" M11.760000228881836,41.138999938964844 C11.760000228881836,41.138999938964844 -10.607999801635742,33.6870002746582 -10.607999801635742,33.6870002746582 C-11.760000228881836,8.626999855041504 -10.496999740600586,-16.402999877929688 -6.741000175476074,-41.138999938964844 C-6.741000175476074,-41.138999938964844 -0.8320000171661377,-37.80699920654297 -0.8320000171661377,-37.80699920654297 C-0.8320000171661377,-37.80699920654297 11.760000228881836,41.138999938964844 11.760000228881836,41.138999938964844z"></path></g><g opacity="1" transform="matrix(1,0,0,1,313.3059997558594,150.53700256347656)"><path fill="rgb(0,0,0)" fill-opacity="1" d=" M156.86500549316406,12.401000022888184 C134.11599731445312,9.977999687194824 110.7969970703125,9.364999771118164 88.15699768066406,5.982999801635742 C79.13200378417969,4.633999824523926 63.35100173950195,2.98799991607666 55.50600051879883,-0.4699999988079071 C40.70800018310547,-6.993000030517578 42.10200119018555,-30.916000366210938 24.974000930786133,-37.84299850463867 C12.602999687194824,-42.84600067138672 -35.24300003051758,-55.862998962402344 -48.1150016784668,-57.391998291015625 C-54.5629997253418,-58.15700149536133 -59.36600112915039,-57.08700180053711 -65.41799926757812,-55.49399948120117 C-67.47100067138672,-57.645999908447266 -62.06999969482422,-93.2229995727539 -60.707000732421875,-99.11299896240234 C-59.01499938964844,-106.4219970703125 -42.858001708984375,-146.05599975585938 -44.85900115966797,-148.05999755859375 C-64.1760025024414,-147.02200317382812 -83.93299865722656,-130.25100708007812 -96.35800170898438,-116.23300170898438 C-157.375,-47.39699935913086 -132.73500061035156,101.61699676513672 -41.305999755859375,133.33700561523438 C1.1299999952316284,148.05999755859375 7.297999858856201,125.24500274658203 40.819000244140625,121.69999694824219 C74.43299865722656,118.14600372314453 99.54199981689453,131.39999389648438 124.78299713134766,100.7040023803711 C145.49200439453125,75.5199966430664 157.375,45.32500076293945 156.86500549316406,12.401000022888184z M-38.66600036621094,-5.050000190734863 C-36.58399963378906,-7.941999912261963 -35.19200134277344,-8.22599983215332 -31.763999938964844,-8.059000015258789 C-8.354999542236328,-6.920000076293945 16.461999893188477,-0.28700000047683716 23.062000274658203,24.740999221801758 C-1.527999997138977,25.32699966430664 -25.270999908447266,16.30900001525879 -38.66600036621094,-5.050000190734863z"></path></g></g></g></svg>