<svg xmlns="http://www.w3.org/2000/svg" xmlns:xlink="http://www.w3.org/1999/xlink" viewBox="0 0 512 512" width="512" height="512" style="width: 100%; height: 100%; transform: translate3d(0,0,0);" preserveAspectRatio="xMidYMid meet"><defs><clipPath id="__lottie_element_54183"><rect width="512" height="512" x="0" y="0"></rect></clipPath></defs><g clip-path="url(#__lottie_element_54183)"><g style="display: block;" transform="matrix(1,0,0,1,0,0)" opacity="1"><g opacity="1" transform="matrix(1,0,0,1,256.35400390625,256)"><path fill="rgb(53,52,52)" fill-opacity="1" d=" M192.2010040283203,15.510000228881836 C190.1649932861328,-3.6989998817443848 175.63499450683594,-15.102999687194824 169.1840057373047,-20.166000366210938 C164.55999755859375,-23.795000076293945 149.88099670410156,-33.87699890136719 145.1009979248047,-30.57699966430664 C137.65899658203125,-25.437999725341797 147.6320037841797,12.272000312805176 139.26300048828125,22.415000915527344 C137.78700256347656,24.20400047302246 133.63499450683594,23.72599983215332 130.05599975585938,21.263999938964844 C126.66500091552734,18.930999755859375 126.05699920654297,14.875 125.4530029296875,12.057999610900879 C122,-4.053999900817871 127.75499725341797,-37.428001403808594 127.75499725341797,-37.428001403808594 C127.75499725341797,-37.428001403808594 127.68699645996094,-37.375999450683594 127.56600189208984,-37.28200149536133 C135.28399658203125,-72.46900177001953 145.01699829101562,-103.33200073242188 150.77099609375,-121.43900299072266 C155.92799377441406,-137.6649932861328 158.81399536132812,-154.53500366210938 163.42999267578125,-170.9239959716797 C164.38900756835938,-174.3280029296875 167.66799926757812,-185.8979949951172 166.88299560546875,-200.8459930419922 C166.19400024414062,-213.96200561523438 162.927001953125,-219.16200256347656 161.12899780273438,-221.56100463867188 C159.9980010986328,-223.0679931640625 154.3489990234375,-230.26600646972656 145.01699829101562,-231.91799926757812 C134.88299560546875,-233.71200561523438 125.052001953125,-229.15499877929688 122,-225.01300048828125 C105.88899993896484,-203.14700317382812 60.63800048828125,-86.28299713134766 54.10200119018555,-80.00900268554688 C52.597999572753906,-78.56500244140625 48.34600067138672,-74.48500061035156 42.59199905395508,-74.25499725341797 C40.229000091552734,-74.16000366210938 38.189998626708984,-75.3030014038086 36.387001037597656,-77.05899810791016 C16.940000534057617,-116.25399780273438 -7.372000217437744,-162.1510009765625 -43.71900177001953,-230.76699829101562 C-45.09400177001953,-233.36399841308594 -50.448001861572266,-246.2989959716797 -57.79600143432617,-251.0919952392578 C-74.31500244140625,-261.864990234375 -92.10600280761719,-253.27099609375 -96.51699829101562,-241.0240020751953 C-99.26200103759766,-233.40199279785156 -97.84500122070312,-221.406005859375 -96.65799713134766,-218.10800170898438 C-75.55999755859375,-159.5030059814453 -53.935001373291016,-105.68299865722656 -36.459999084472656,-60.590999603271484 C-34.84199905395508,-54.013999938964844 -31.079999923706055,-28.83799934387207 -29.91699981689453,-20.702999114990234 C-28.767000198364258,-12.647000312805176 -37.31800079345703,-30.85700035095215 -41.92100143432617,-40.06399917602539 C-48.49800109863281,-53.21799850463867 -57.12799835205078,-75.46600341796875 -59.34400177001953,-75.29900360107422 C-60.78300094604492,-75.19100189208984 -73.9489974975586,-29.538000106811523 -74.44499969482422,-27.67300033569336 C-81.18699645996094,-31.979999542236328 -85.75900268554688,-39.893001556396484 -96.65799713134766,-48.93600082397461 C-117.3550033569336,-66.11000061035156 -142.31100463867188,-96.10199737548828 -148.44400024414062,-101.8740005493164 C-154.38299560546875,-107.46499633789062 -169.01400756835938,-121.23500061035156 -180.66799926757812,-116.83499908447266 C-188.91600036621094,-113.72200012207031 -192.6529998779297,-102.64700317382812 -193.32699584960938,-94.97000122070312 C-194.54600524902344,-81.0979995727539 -186.4429931640625,-70.65699768066406 -176.06500244140625,-56.992000579833984 C-176.06500244140625,-56.992000579833984 -156.47300720214844,-31.420000076293945 -135.78500366210938,-2.9030001163482666 C-118.86399841308594,20.422000885009766 -110.87899780273438,35.354000091552734 -104.58999633789062,44.18899917602539 C-102.91999816894531,50.191001892089844 -99.35800170898438,60.65399932861328 -92.05500030517578,81.10700225830078 C-85.9010009765625,98.33999633789062 -82.75499725341797,107.12999725341797 -79.3949966430664,115.63200378417969 C-72.26799774169922,133.66900634765625 -67.46099853515625,145.7100067138672 -62.6150016784668,154.0780029296875 C-60.64699935913086,158.38999938964844 -58.215999603271484,163.51199340820312 -55.22700119018555,169.7209930419922 C-50.22999954223633,180.0989990234375 -50.33300018310547,192.39700317382812 -50.624000549316406,207.697998046875 C-51.02299880981445,228.72999572753906 -51.2130012512207,228.46499633789062 -47.124000549316406,233.92999267578125 C-34.465999603271484,250.84500122070312 -10.454999923706055,254.22000122070312 17.322999954223633,255.76300048828125 C59.14099884033203,258.08599853515625 121.01200103759766,242.93099975585938 125.93499755859375,228.46499633789062 C129.91200256347656,216.7760009765625 117.43699645996094,195.05599975585938 118.5469970703125,186.98199462890625 C121.15799713134766,167.9980010986328 143.35899353027344,165.73699951171875 160.7830047607422,96.04000091552734 C161.68499755859375,92.43199920654297 175.4429931640625,65.48200225830078 178.78799438476562,60.029998779296875 C189.0959930419922,43.22999954223633 194.54600524902344,37.63600158691406 192.2010040283203,15.510000228881836z"></path></g><g opacity="1" transform="matrix(1,0,0,1,272.50799560546875,78.43900299072266)"><path fill="rgb(53,52,52)" fill-opacity="1" d=" M28.740999221801758,74.53500366210938 C31.180999755859375,78.43900299072266 31.242000579833984,-44.077999114990234 25.288999557495117,-58.96099853515625 C18.384000778198242,-76.2229995727539 0.9559999704360962,-80.58899688720703 -11.538000106811523,-76.2229995727539 C-19.274999618530273,-73.5199966430664 -24.933000564575195,-67.36499786376953 -27.649999618530273,-61.26300048828125 C-29.16699981689453,-57.854000091552734 -29.56399917602539,-54.915000915527344 -29.951000213623047,-52.055999755859375 C-29.951000213623047,-52.055999755859375 -31.242000579833984,-42.513999938964844 -28.799999237060547,-32.492000579833984 C-25.57200050354004,-19.243000030517578 22.98699951171875,65.3280029296875 28.740999221801758,74.53500366210938z"></path></g></g></g></svg>