<svg xmlns="http://www.w3.org/2000/svg" xmlns:xlink="http://www.w3.org/1999/xlink" viewBox="0 0 512 512" width="512" height="512" style="width: 100%; height: 100%; transform: translate3d(0,0,0);" preserveAspectRatio="xMidYMid meet"><defs><clipPath id="__lottie_element_51285"><rect width="512" height="512" x="0" y="0"></rect></clipPath></defs><g clip-path="url(#__lottie_element_51285)"><g style="display: block;" transform="matrix(0.9800000190734863,0,0,0.9800000190734863,-3690.474609375,-2424.07763671875)" opacity="1"><g opacity="1" transform="matrix(1,0,0,1,0,0)"><g opacity="1" transform="matrix(1,0,0,1,4024.993896484375,2794.455078125)"><path fill="rgb(0,0,0)" fill-opacity="1" d=" M166.79100036621094,58.82699966430664 C165.44200134277344,57.483001708984375 162.94900512695312,57.35900115966797 160.91299438476562,57.46900177001953 C140.86399841308594,58.9109992980957 121.82099914550781,58.720001220703125 102.41699981689453,54.766998291015625 C95.00199890136719,55.18000030517578 95.36399841308594,65.23100280761719 94.72699737548828,70.93000030517578 C93.66799926757812,105.09300231933594 92.98899841308594,139.27499389648438 92.21600341796875,173.44700622558594 C92.49700164794922,190.27200317382812 92.53199768066406,196.9739990234375 72.78800201416016,194.75999450683594 C55.845001220703125,194.4029998779297 54.95199966430664,190.6199951171875 54.02299880981445,175.23599243164062 C52.077999114990234,139.53399658203125 50.26900100708008,103.83799743652344 48.28900146484375,68.12300109863281 C48.150001525878906,58.354000091552734 46.00400161743164,50.69300079345703 34.57500076293945,51.63399887084961 C19.625999450683594,51.83700180053711 4.63100004196167,52.17499923706055 -10.75100040435791,52.527000427246094 C-14.833999633789062,52.54399871826172 -18.663000106811523,54.069000244140625 -20.882999420166016,57.597999572753906 C-30.325000762939453,73.41699981689453 -38.507999420166016,90.63600158691406 -52.59199905395508,102.93499755859375 C-69.30000305175781,114.9540023803711 -72.51899719238281,124.0009994506836 -63.395999908447266,142.97900390625 C-57.22200012207031,158.06199645996094 -49.479000091552734,172.6179962158203 -44.349998474121094,188.0070037841797 C-42.28499984741211,197.6510009765625 -70.36399841308594,193.2239990234375 -75.99800109863281,193.27099609375 C-81.23400115966797,193.156005859375 -85.73400115966797,190.35499572753906 -87.80599975585938,185.43800354003906 C-97.49099731445312,166.43499755859375 -106.86599731445312,147.2519989013672 -112.72200012207031,126.53700256347656 C-116.75599670410156,114.05000305175781 -115.34400177001953,107.447998046875 -104.15499877929688,100.10299682617188 C-98.85900115966797,96.21399688720703 -93.71700286865234,92.48100280761719 -88.55400085449219,88.572998046875 C-80.0719985961914,81.64099884033203 -70.02999877929688,76.37899780273438 -67.01499938964844,65.06999969482422 C-64.58100128173828,53.349998474121094 -72.19300079345703,61.904998779296875 -75.22200012207031,66.48600006103516 C-78.23500061035156,70.5 -81.64700317382812,74.33100128173828 -85.3550033569336,77.71700286865234 C-94.79900360107422,86.5780029296875 -106.552001953125,92.4000015258789 -118.33399963378906,97.51499938964844 C-127.37899780273438,101.53800201416016 -136.41900634765625,105.29399871826172 -145.6060028076172,109.03900146484375 C-153.18800354003906,112.49199676513672 -163.5489959716797,115.08100128173828 -165.93800354003906,124.07599639892578 C-168.36300659179688,138.093994140625 -165.24099731445312,152.92999267578125 -162.39700317382812,166.64599609375 C-155.4600067138672,193.99099731445312 -149.01100158691406,197.125 -181.86000061035156,195.6020050048828 C-190.218994140625,195.593994140625 -199.4409942626953,194.68699645996094 -202.13299560546875,185.8260040283203 C-206.02200317382812,174.1020050048828 -208.35800170898438,161.85699462890625 -209.5500030517578,149.6280059814453 C-209.72300720214844,135.08299255371094 -212.40199279785156,106.56300354003906 -205.94200134277344,94.4749984741211 C-191.3990020751953,74.68499755859375 -163.03599548339844,88.44100189208984 -165.39300537109375,51.43600082397461 C-165.6219940185547,34.41899871826172 -165.13699340820312,17.45199966430664 -164.7270050048828,0.4399999976158142 C-163.83200073242188,-10.02400016784668 -166.4080047607422,-16.566999435424805 -175.97300720214844,-21.54199981689453 C-184.92799377441406,-27.08799934387207 -192.18800354003906,-34.31800079345703 -197.10000610351562,-43.67599868774414 C-200.71499633789062,-49.415000915527344 -203.45199584960938,-61.34700012207031 -193.36700439453125,-61.277000427246094 C-180.8090057373047,-60.404998779296875 -170.19900512695312,-52.130001068115234 -158.09300231933594,-49.38199996948242 C-152.43600463867188,-48.1349983215332 -148.0240020751953,-52.45899963378906 -144.5330047607422,-56.48099899291992 C-139.47000122070312,-62.17399978637695 -133.89100646972656,-66.64600372314453 -127.80999755859375,-70.08899688720703 C-119.07599639892578,-75.06199645996094 -109.39800262451172,-77.98500061035156 -99.48799896240234,-79.80999755859375 C-62.060001373291016,-86.65499877929688 -24.899999618530273,-81.68099975585938 11.70300006866455,-73.93099975585938 C19.586999893188477,-73.3030014038086 31.479999542236328,-68.73200225830078 38.5099983215332,-72.34600067138672 C42.78499984741211,-75.39600372314453 41.84700012207031,-81.98400115966797 41.902000427246094,-86.70899963378906 C40.803001403808594,-112.48500061035156 41.08100128173828,-138.46800231933594 38.742000579833984,-164.16099548339844 C37.6349983215332,-172.79200744628906 29.545000076293945,-171.40499877929688 21.711999893188477,-171.74099731445312 C18.551000595092773,-171.92300415039062 15.42300033569336,-172.4510040283203 12.390999794006348,-173.33200073242188 C4.9029998779296875,-176.03599548339844 -5.836999893188477,-180.0780029296875 -8.579000473022461,-188.15699768066406 C-9.845000267028809,-193.49099731445312 -4.84499979019165,-197.6510009765625 0.4050000011920929,-197.4080047607422 C11.402999877929688,-197.02099609375 22.308000564575195,-194.43899536132812 33.292999267578125,-194.43499755859375 C52.29100036621094,-194.3730010986328 71.24700164794922,-196.44400024414062 90.25299835205078,-196.81500244140625 C112.57099914550781,-197.0970001220703 134.8040008544922,-195.1219940185547 157.1269989013672,-194.50399780273438 C163.78799438476562,-194.25900268554688 170.59500122070312,-193.73500061035156 176.7989959716797,-191.17300415039062 C189.7779998779297,-185.67300415039062 198.64700317382812,-173.23500061035156 181.28799438476562,-165.5189971923828 C170.30799865722656,-159.75399780273438 159.03500366210938,-154.6060028076172 146.88299560546875,-151.9499969482422 C138.21299743652344,-150.18800354003906 122.0009994506836,-147.2220001220703 127.27899932861328,-134.8419952392578 C145.52200317382812,-95 162.29299926757812,-52.374000549316406 160.593994140625,-7.868000030517578 C159.95199584960938,10.755000114440918 193.48300170898438,-1.1820000410079956 204.7449951171875,10.998000144958496 C212.4029998779297,17.677000045776367 211.83799743652344,29.534000396728516 210.5330047607422,38.92399978637695 C207.5279998779297,62.2130012512207 197.98300170898438,84.20899963378906 185.18899536132812,103.69100189208984 C177.63299560546875,114.3280029296875 169.0229949951172,126.91600036621094 156.66799926757812,132.08900451660156 C149.25599670410156,133.35499572753906 142.3459930419922,125.63600158691406 137.16000366210938,121.03299713134766 C132.4029998779297,116.73500061035156 130.49899291992188,110.5790023803711 135.36000061035156,105.8550033569336 C143.36199951171875,96.03600311279297 172.30299377441406,71.93199920654297 166.88299560546875,58.91999816894531 C166.88299560546875,58.91999816894531 166.79100036621094,58.82699966430664 166.79100036621094,58.82699966430664z"></path></g><g opacity="1" transform="matrix(1,0,0,1,4111.6181640625,2532.7451171875)"><path fill="rgb(0,0,0)" fill-opacity="1" d=" M-64.7969970703125,15.069999694824219 C-60.970001220703125,12.194999694824219 -62.13199996948242,5.432000160217285 -61.82500076293945,1.1139999628067017 C-61.922000885009766,-5.744999885559082 -61.87799835205078,-12.586000442504883 -61.41999816894531,-19.447999954223633 C-61.21900177001953,-25.277000427246094 -58.19499969482422,-29.354999542236328 -52.104000091552734,-30.176000595092773 C-47.35300064086914,-31.042999267578125 -41.013999938964844,-31.054000854492188 -38.90700149536133,-25.913000106811523 C-37.6879997253418,-23.13599967956543 -37.564998626708984,-19.850000381469727 -37.36399841308594,-16.82900047302246 C-36.70500183105469,-4.916999816894531 -36.29899978637695,7.151000022888184 -35.82500076293945,19.163999557495117 C-35.827999114990234,23.42300033569336 -33.43600082397461,26.604000091552734 -29.270999908447266,27.548999786376953 C-14.22599983215332,32.10599899291992 5.923999786376953,33.06100082397461 22.87700080871582,30.1560001373291 C26.25,29.648000717163086 29.53700065612793,28.198999404907227 30.652999877929688,24.750999450683594 C32.82699966430664,16.304000854492188 31.767000198364258,7.261000156402588 32.492000579833984,-1.4730000495910645 C32.689998626708984,-4.989999771118164 32.88100051879883,-8.380000114440918 33.03099822998047,-11.927000045776367 C33.53200149536133,-19.051000595092773 33.152000427246094,-30.042999267578125 42.619998931884766,-30.812999725341797 C49.93000030517578,-31.67300033569336 57.02799987792969,-30.746000289916992 57.518001556396484,-21.656999588012695 C58.33599853515625,-10.413000106811523 57.63600158691406,0.6150000095367432 58.60499954223633,11.881999969482422 C59.75899887084961,25.724000930786133 69.12000274658203,23.229999542236328 76.51200103759766,15.052000045776367 C88.4469985961914,2.984999895095825 94.05699920654297,-13.017000198364258 95.69000244140625,-29.659000396728516 C96.32499694824219,-34.856998443603516 96.84500122070312,-39.98899841308594 97.48200225830078,-45.22200012207031 C97.79199981689453,-47.625 98.58999633789062,-50.01300048828125 100.33200073242188,-51.573001861572266 C104.43199920654297,-55.25899887084961 117.39299774169922,-55.63399887084961 121.69499969482422,-53.770999908447266 C126.66699981689453,-51.16299819946289 126.09300231933594,-43.84600067138672 126.74500274658203,-38.77000045776367 C129.06399536132812,-5.789999961853027 102.46700286865234,36 64.7030029296875,48.49100112915039 C58.48699951171875,50.56399917602539 51.79399871826172,51.58700180053711 45.58000183105469,52.20800018310547 C14.562000274658203,55.63399887084961 -16.424999237060547,55.40399932861328 -47.10599899291992,49.87300109863281 C-91.26699829101562,44.30400085449219 -124.97599792480469,26.885000228881836 -128.6219940185547,-21.667999267578125 C-129.05799865722656,-27.551000595092773 -129.06300354003906,-33.48899841308594 -128.6739959716797,-39.26900100708008 C-128.4550018310547,-41.90800094604492 -127.97699737548828,-44.70199966430664 -126.38800048828125,-46.862998962402344 C-124.00599670410156,-50.22200012207031 -118.97200012207031,-51.073001861572266 -114.66500091552734,-51.12799835205078 C-109.42400360107422,-51.41999816894531 -104.86599731445312,-48.79600143432617 -103.79100036621094,-43.3650016784668 C-102.77899932861328,-39.24399948120117 -102.48100280761719,-34.93299865722656 -101.66899871826172,-30.759000778198242 C-99.61399841308594,-19.222999572753906 -95.44499969482422,-8.449000358581543 -89.1510009765625,1.3259999752044678 C-85.60099792480469,6.538000106811523 -81.75900268554688,12.659000396728516 -75.60800170898438,14.883999824523926 C-72.36499786376953,15.958999633789062 -67.83999633789062,16.926000595092773 -64.93399810791016,15.157999992370605 C-64.93399810791016,15.157999992370605 -64.7969970703125,15.069999694824219 -64.7969970703125,15.069999694824219z"></path></g></g></g></g></svg>