<svg xmlns="http://www.w3.org/2000/svg" xmlns:xlink="http://www.w3.org/1999/xlink" viewBox="0 0 512 512" width="512" height="512" style="width: 100%; height: 100%; transform: translate3d(0,0,0);" preserveAspectRatio="xMidYMid meet"><defs><clipPath id="__lottie_element_15766"><rect width="512" height="512" x="0" y="0"></rect></clipPath></defs><g clip-path="url(#__lottie_element_15766)"><g style="display: block;" transform="matrix(1.0299999713897705,0,0,1.0299999713897705,1044.7659912109375,1309.53466796875)" opacity="1"><g opacity="1" transform="matrix(1,0,0,1,-879.4500122070312,-955.1290283203125)"><path fill="rgb(0,0,0)" fill-opacity="1" d=" M97.37000274658203,-153.45599365234375 C97.37000274658203,-153.45599365234375 6.247000217437744,-185.8070068359375 6.247000217437744,-185.8070068359375 C-3.0350000858306885,-189.10299682617188 -13.319999694824219,-187.6540069580078 -21.37299919128418,-181.98199462890625 C-38.50199890136719,-169.91600036621094 -66.29499816894531,-143.781005859375 -78.35199737548828,-95.79000091552734 C-93.41300201416016,-35.875999450683594 -51.426998138427734,-4.48799991607666 -34.402000427246094,5.284999847412109 C-31.243999481201172,7.0980000495910645 -29.759000778198242,10.850000381469727 -30.851999282836914,14.322999954223633 C-30.851999282836914,14.322999954223633 -55.83100128173828,89.61799621582031 -55.83100128173828,89.61799621582031 C-57.18899917602539,93.93499755859375 -61.14899826049805,96.9010009765625 -65.67400360107422,96.98100280761719 C-83.10399627685547,97.28700256347656 -116.72599792480469,102.48300170898438 -116.71700286865234,116.46600341796875 C-116.68399810791016,147.58299255371094 10.836000442504883,177.56199645996094 20.85099983215332,164.34100341796875 C31.270000457763672,150.6060028076172 1.4040000438690186,124.39900207519531 -13.75100040435791,113.6709976196289 C-17.445999145507812,111.05500030517578 -19.058000564575195,106.37799835205078 -17.75200080871582,102.04299926757812 C-17.75200080871582,102.04299926757812 5.941999912261963,26.812999725341797 5.941999912261963,26.812999725341797 C7.019000053405762,23.23900032043457 10.48900032043457,20.940000534057617 14.197999954223633,21.361000061035156 C33.59400177001953,23.565000534057617 85.24400329589844,23.56100082397461 108.46099853515625,-28.361000061035156 C127.4739990234375,-70.88999938964844 122.02300262451172,-111.04399871826172 116.56400299072266,-132.43899536132812 C114.0719985961914,-142.20799255371094 106.87100219726562,-150.08299255371094 97.37000274658203,-153.45599365234375z M82.85199737548828,-32.67399978637695 C64.03700256347656,-4.564000129699707 22.368999481201172,-6.416999816894531 0.47600001096725464,-13.744000434875488 C-25.861000061035156,-22.558000564575195 -53.529998779296875,-52.808998107910156 -44.6349983215332,-56.709999084472656 C9.48799991607666,-80.44599914550781 9.788999557495117,-27.89699935913086 56.77199935913086,-45.18199920654297 C85.4219970703125,-55.72200012207031 97.16699981689453,-54.06100082397461 82.85199737548828,-32.67399978637695z"></path></g><g opacity="1" transform="matrix(1,0,0,1,-648.0170288085938,-947.1290283203125)"><path fill="rgb(0,0,0)" fill-opacity="1" d=" M-116.56400299072266,-132.43899536132812 C-122.02300262451172,-111.04399871826172 -127.4739990234375,-70.88999938964844 -108.46099853515625,-28.361000061035156 C-85.24400329589844,23.56100082397461 -35.09400177001953,23.065000534057617 -15.697999954223633,20.861000061035156 C-11.98900032043457,20.440000534057617 -8.519000053405762,22.73900032043457 -7.441999912261963,26.312999725341797 C-7.441999912261963,26.312999725341797 17.75200080871582,104.04299926757812 17.75200080871582,104.04299926757812 C19.058000564575195,108.37799835205078 17.445999145507812,113.05500030517578 13.75100040435791,115.6709976196289 C-1.4040000438690186,126.39900207519531 -32.27000045776367,152.6060028076172 -21.85099983215332,166.34100341796875 C-11.836000442504883,179.56199645996094 115.68399810791016,149.58299255371094 115.71700286865234,118.46600341796875 C115.72599792480469,104.48300170898438 79.60399627685547,101.28700256347656 62.17399978637695,100.98100280761719 C57.64899826049805,100.9010009765625 53.68899917602539,97.93499755859375 52.33100128173828,93.61799621582031 C52.33100128173828,93.61799621582031 28.851999282836914,15.322999954223633 28.851999282836914,15.322999954223633 C27.759000778198242,11.850000381469727 29.243999481201172,8.097999572753906 32.402000427246094,6.284999847412109 C49.426998138427734,-3.48799991607666 93.41300201416016,-35.875999450683594 78.35199737548828,-95.79000091552734 C66.29499816894531,-143.781005859375 38.50199890136719,-169.91600036621094 21.37299919128418,-181.98199462890625 C13.319999694824219,-187.6540069580078 3.0350000858306885,-189.10299682617188 -6.247000217437744,-185.8070068359375 C-6.247000217437744,-185.8070068359375 -97.37000274658203,-153.45599365234375 -97.37000274658203,-153.45599365234375 C-106.87100219726562,-150.08299255371094 -114.0719985961914,-142.20799255371094 -116.56400299072266,-132.43899536132812z M-17.45199966430664,-51.69499969482422 C13.642000198364258,-34.28900146484375 40.39500045776367,-82.12899780273438 53.625999450683594,-65.03399658203125 C59.53799819946289,-57.395999908447266 41.965999603271484,-22.854999542236328 8.793000221252441,-13.178000450134277 C-13.833000183105469,-6.578000068664551 -80.02200317382812,-7.059999942779541 -81.9020004272461,-47.26100158691406 C-83.5989990234375,-83.54399871826172 -32.525001525878906,-60.13199996948242 -17.45199966430664,-51.69499969482422z"></path></g><g opacity="1" transform="matrix(1,0,0,1,-785.0170288085938,-1166.0870361328125)"><path fill="rgb(0,0,0)" fill-opacity="1" d=" M-3.693000078201294,-26.893999099731445 C2.7939999103546143,-28.54599952697754 0.12600000202655792,-43.507999420166016 20.948999404907227,-50.76300048828125 C36.30500030517578,-56.11399841308594 56.00899887084961,-51.35100173950195 61.069000244140625,-26.500999450683594 C66.88500213623047,2.061000108718872 29.676000595092773,53.5260009765625 24.76799964904785,53.534000396728516 C14.831999778747559,53.55099868774414 -44.97200012207031,46.68899917602539 -58.19499969482422,6.38700008392334 C-64.78600311279297,-13.701000213623047 -54.255001068115234,-28.81599998474121 -42.45399856567383,-34.16600036621094 C-17.520999908447266,-45.46900177001953 -9.678000450134277,-25.3700008392334 -3.693000078201294,-26.893999099731445z"></path></g><g opacity="1" transform="matrix(0.932645320892334,0.3607945442199707,-0.3607945442199707,0.932645320892334,-671.4119873046875,-1224.9959716796875)"><path fill="rgb(0,0,0)" fill-opacity="1" d=" M-0.5619999766349792,-24.261999130249023 C6.035999774932861,-25.374000549316406 2.2070000171661377,-41.95199966430664 22.679000854492188,-45.20600128173828 C34.444000244140625,-47.07600021362305 47.54499816894531,-41.31700134277344 52.17300033569336,-19.65999984741211 C59.560001373291016,14.91100025177002 23.285999298095703,39.42100143432617 9.397000312805176,46.2869987487793 C6.1579999923706055,47.88800048828125 -43.22999954223633,31.451000213623047 -49.244998931884766,3.388000011444092 C-53.185001373291016,-14.991000175476074 -47.55799865722656,-27.408000946044922 -33.569000244140625,-33.095001220703125 C-12.98900032043457,-41.46099853515625 -6.125999927520752,-23.323999404907227 -0.5619999766349792,-24.261999130249023z"></path></g></g></g></svg>