<svg xmlns="http://www.w3.org/2000/svg" xmlns:xlink="http://www.w3.org/1999/xlink" viewBox="0 0 512 512" width="512" height="512" style="width: 100%; height: 100%; transform: translate3d(0,0,0);" preserveAspectRatio="xMidYMid meet"><defs><clipPath id="__lottie_element_53474"><rect width="512" height="512" x="0" y="0"></rect></clipPath></defs><g clip-path="url(#__lottie_element_53474)"><g style="display: block;" transform="matrix(1,0,0,1,0,0)" opacity="1"><g opacity="1" transform="matrix(1,0,0,1,255.68800354003906,265.78900146484375)"><path fill="rgb(0,0,0)" fill-opacity="1" d=" M65.41000366210938,-64.85600280761719 C27.232999801635742,-65.7959976196289 -10.701000213623047,-57.8650016784668 -47.05799865722656,-46.95600128173828 C-45.946998596191406,-63.064998626708984 -50.68600082397461,-79.41100311279297 -58.4370002746582,-93.39600372314453 C-57.319000244140625,-94.99500274658203 -56.34199905395508,-95.82099914550781 -54.40599822998047,-95.8290023803711 C-38.064998626708984,-95.89700317382812 -17.51300048828125,-92.83399963378906 -3.936000108718872,-92.50299835205078 C47.86199951171875,-91.23999786376953 98.98100280761719,-105.0719985961914 137.97000122070312,-60.00400161743164 C166.46400451660156,-27.066999435424805 174.7760009765625,10.119000434875488 190.14100646972656,49.1510009765625 C194.5260009765625,60.292999267578125 225.8300018310547,128.48300170898438 221.88299560546875,133.9010009765625 C213.40199279785156,128.28199768066406 201.77699279785156,127.21700286865234 194.95599365234375,119.28600311279297 C188.42300415039062,111.69000244140625 184.14700317382812,94.76699829101562 178.7310028076172,84.99299621582031 C170.7530059814453,70.59500122070312 157.1750030517578,51.14899826049805 139.5850067138672,49.17300033569336 C110.71499633789062,45.93000030517578 77.43099975585938,51.96799850463867 48.54199981689453,54.310001373291016 C48.54199981689453,54.310001373291016 46.09400177001953,57.805999755859375 46.09400177001953,57.805999755859375 C46.45199966430664,63.736000061035156 64.41999816894531,95.72899627685547 69.72000122070312,99.4530029296875 C75.73600006103516,103.68000030517578 94.7030029296875,107.7969970703125 102.5260009765625,109.02300262451172 C112.33399963378906,110.56099700927734 141.76199340820312,110.19400024414062 147.01400756835938,115.06500244140625 C170.57000732421875,158.1649932861328 190.677001953125,203.16799926757812 217.00900268554688,244.677001953125 C187.38400268554688,234.9149932861328 158.6750030517578,221.89700317382812 128.63099670410156,213.27499389648438 C107.80599975585938,207.2989959716797 81.7770004272461,200.8159942626953 60.55500030517578,196.59500122070312 C-0.7699999809265137,184.39599609375 -37.36600112915039,223.24099731445312 -99.7770004272461,182.51400756835938 C-101.1500015258789,181.6179962158203 -104.55400085449219,179.67599487304688 -103.33000183105469,177.88299560546875 C-79.59300231933594,169.4239959716797 -58.75600051879883,161.24400329589844 -58.77399826049805,131.88499450683594 C-58.77399826049805,131.88499450683594 -75.572998046875,81.74500274658203 -75.572998046875,81.74500274658203 C-78.49099731445312,78.15699768066406 -83.34700012207031,81.63400268554688 -87.02200317382812,81.76000213623047 C-96.40799713134766,82.08000183105469 -106.52200317382812,82.15399932861328 -115.51799774169922,79.30899810791016 C-117.98999786376953,78.5270004272461 -140.6060028076172,67.19400024414062 -136.71400451660156,63.849998474121094 C-132.26600646972656,66.62699890136719 -98.85099792480469,53.904998779296875 -104.12799835205078,49.1879997253418 C-142.1840057373047,51.10900115966797 -186.84500122070312,27.52400016784668 -198.65699768066406,2.734999895095825 C-200.3979949951172,-2.4059998989105225 -160.1060028076172,12.211000442504883 -150.13900756835938,2.9600000381469727 C-175.83299255371094,-2.121999979019165 -218.1529998779297,-32.178001403808594 -218.46800231933594,-62.547000885009766 C-218.75100708007812,-68.47599792480469 -193.33900451660156,-42.78099822998047 -177.48699951171875,-51 C-207.4250030517578,-73.63899993896484 -225.8300018310547,-108.24099731445312 -224.73899841308594,-146.34100341796875 C-219.61599731445312,-151.3679962158203 -214.95599365234375,-127.7969970703125 -180.49200439453125,-99.95700073242188 C-178.63299560546875,-98.45600128173828 -174.01400756835938,-95.12999725341797 -170.95399475097656,-95.84500122070312 C-222.98599243164062,-183.11099243164062 -202.37399291992188,-242.68699645996094 -196.1959991455078,-244.0850067138672 C-193.4499969482422,-244.677001953125 -193.9040069580078,-234.781005859375 -173.9709930419922,-194.64300537109375 C-168.2969970703125,-183.218994140625 -162.06399536132812,-172.05499267578125 -155.0240020751953,-161.4429931640625 C-123.64399719238281,-114.13899993896484 -74.8010025024414,-81.9469985961914 -50.3650016784668,-29.72100067138672 C-33.52000045776367,-36.2859992980957 -16.913999557495117,-44.042999267578125 0.5600000023841858,-49.040000915527344 C19.674999237060547,-54.50699996948242 42.03799819946289,-55.66999816894531 59.94300079345703,-61.375 C62.108001708984375,-62.064998626708984 64.90399932861328,-61.93199920654297 65.41000366210938,-64.85600280761719z"></path></g><g opacity="1" transform="matrix(1,0,0,1,216.4980010986328,91.83200073242188)"><path fill="rgb(0,0,0)" fill-opacity="1" d=" M-53.51900100708008,-31.034000396728516 C-51.185001373291016,-33.24800109863281 -41.395999908447266,-9.342000007629395 -26.493999481201172,6.310999870300293 C-24.788000106811523,8.102999687194824 -23.969999313354492,10.322999954223633 -20.924999237060547,9.6899995803833 C-32.92599868774414,-24.589000701904297 -34.01300048828125,-65.1449966430664 -17.395999908447266,-86.98400115966797 C-15.994999885559082,-88.82499694824219 -13.913999557495117,-91.83200073242188 -12.777000427246094,-89.68099975585938 C-5.038000106811523,-32.65299987792969 15.699999809265137,21.142000198364258 54.0620002746582,64.30000305175781 C54.0620002746582,64.30000305175781 60.78499984741211,67.87999725341797 54.415000915527344,69.71700286865234 C40.4109992980957,73.75399780273438 -18.472000122070312,68.35299682617188 -18.472000122070312,68.35299682617188 C-29.96299934387207,68.35299682617188 -28.45599937438965,79.2239990234375 -29.083999633789062,87.0979995727539 C-29.275999069213867,89.50599670410156 -27.763999938964844,91.83200073242188 -31.490999221801758,91.14900207519531 C-41.834999084472656,86.81600189208984 -60.78499984741211,41.292999267578125 -52.70399856567383,32.54100036621094 C-44.62699890136719,41.198001861572266 -41.80799865722656,44.9739990234375 -34.80799865722656,50.893001556396484 C-33.516998291015625,51.98500061035156 -29.06100082397461,55.52299880981445 -27.44499969482422,52.88199996948242 C-35.220001220703125,45.4010009765625 -41.845001220703125,33.888999938964844 -45.6619987487793,23.840999603271484 C-58.3380012512207,-9.529999732971191 -53.51900100708008,-31.034000396728516 -53.51900100708008,-31.034000396728516z"></path></g></g></g></svg>