<svg xmlns="http://www.w3.org/2000/svg" xmlns:xlink="http://www.w3.org/1999/xlink" viewBox="0 0 512 512" width="512" height="512" style="width: 100%; height: 100%; transform: translate3d(0,0,0);" preserveAspectRatio="xMidYMid meet"><defs><clipPath id="__lottie_element_53239"><rect width="512" height="512" x="0" y="0"></rect></clipPath></defs><g clip-path="url(#__lottie_element_53239)"><g style="display: block;" transform="matrix(1,0,0,1,9.06201171875,7.9019927978515625)" opacity="1"><g opacity="1" transform="matrix(1,0,0,1,251.593994140625,246.2790069580078)"><path fill="rgb(0,0,0)" fill-opacity="1" d=" M-90.65599822998047,26.393999099731445 C-86.26499938964844,38.599998474121094 -73.65599822998047,-10.430000305175781 6.343999862670898,-10.295999526977539 C77.34400177001953,-10.177000045776367 78.53199768066406,20.570999145507812 91.34400177001953,11.543000221252441 C102.98200225830078,3.3420000076293945 76.0989990234375,-30.368000030517578 77.34400177001953,-62.71099853515625 C81.34400177001953,-166.66600036621094 123.31999969482422,-246.0279998779297 154.343994140625,-241.79299926757812 C186.343994140625,-237.4250030517578 182.16799926757812,-161.7259979248047 185.343994140625,-154.43600463867188 C188.47900390625,-147.23899841308594 205.3179931640625,-164.0679931640625 224.343994140625,-147.44700622558594 C251.343994140625,-123.86000061035156 206.63400268554688,-83.00399780273438 209.343994140625,-71.4469985961914 C212.8800048828125,-56.369998931884766 239.1510009765625,-69.98799896240234 239.343994140625,-48.73400115966797 C239.61300659179688,-19.031999588012695 216.32200622558594,-10.527000427246094 210.343994140625,1.934000015258789 C206.0570068359375,10.869999885559082 229.33299255371094,9.001999855041504 228.343994140625,40.233001708984375 C227.343994140625,71.81900024414062 161.343994140625,102.81900024414062 143.343994140625,102.69300079345703 C134.0279998779297,102.62799835205078 137.7760009765625,146.8979949951172 146.343994140625,150.51199340820312 C170.06900024414062,160.51800537109375 184.93600463867188,177.70799255371094 181.343994140625,206.93299865722656 C176.343994140625,247.61300659179688 105.94000244140625,252.20899963378906 36.34400177001953,252.5449981689453 C-20.402999877929688,252.81900024414062 -67.90399932861328,246.55299377441406 -67.65599822998047,233.17599487304688 C-67.28099822998047,212.94700622558594 -32.13100051879883,231.4409942626953 32.34400177001953,223.99099731445312 C54.78200149536133,221.3979949951172 109.34400177001953,218.81900024414062 106.34400177001953,208.86900329589844 C103.11599731445312,198.16200256347656 51.356998443603516,192.00599670410156 -18.6560001373291,197.7480010986328 C-86.44300079345703,203.3070068359375 -112.61699676513672,214.33900451660156 -141.656005859375,220.0540008544922 C-161.656005859375,223.99000549316406 -169.65699768066406,188.56199645996094 -158.656005859375,170.1929931640625 C-151.7220001220703,158.61500549316406 -132.3820037841797,164.95700073242188 -133.656005859375,146.5749969482422 C-134.656005859375,132.14199829101562 -121.69400024414062,101.59100341796875 -132.656005859375,101.94599914550781 C-159.656005859375,102.81999969482422 -212.2790069580078,76.53099822998047 -216.656005859375,45.25600051879883 C-219.656005859375,23.81999969482422 -193.54299926757812,10.78499984741211 -207.656005859375,6.302000045776367 C-248.91099548339844,-6.802000045776367 -251.34500122070312,-32.069000244140625 -246.656005859375,-46.112998962402344 C-239.656005859375,-67.0790023803711 -199.656005859375,-61.1150016784668 -199.656005859375,-67.9520034790039 C-199.656005859375,-79.30799865722656 -243.0030059814453,-106.59300231933594 -221.656005859375,-139.5850067138672 C-208.656005859375,-159.677001953125 -178.94200134277344,-133.84300231933594 -179.656005859375,-141.33200073242188 C-181.656005859375,-162.29800415039062 -168.656005859375,-231.30999755859375 -142.656005859375,-233.93099975585938 C-116.65599822998047,-236.552001953125 -75.69100189208984,-169.27499389648438 -63.65599822998047,-68.82599639892578 C-58.35599899291992,-24.59000015258789 -101.65599822998047,-4.181000232696533 -90.65599822998047,26.393999099731445z"></path></g></g></g></svg>