<svg xmlns="http://www.w3.org/2000/svg" xmlns:xlink="http://www.w3.org/1999/xlink" viewBox="0 0 512 512" width="512" height="512" style="width: 100%; height: 100%; transform: translate3d(0,0,0);" preserveAspectRatio="xMidYMid meet"><defs><clipPath id="__lottie_element_53774"><rect width="512" height="512" x="0" y="0"></rect></clipPath></defs><g clip-path="url(#__lottie_element_53774)"><g style="display: block;" transform="matrix(1,0,0,1,42.74998474121094,10.7340087890625)" opacity="1"><g opacity="1" transform="matrix(1,0,0,1,214.59800720214844,246.00799560546875)"><path fill="rgb(0,0,0)" fill-opacity="1" d=" M-66.83399963378906,-164.75799560546875 C-62.20199966430664,-174.3260040283203 -78.69000244140625,-173.94700622558594 -82.85099792480469,-196.656005859375 C-86.60900115966797,-217.16799926757812 -75.38899993896484,-241.23899841308594 -40.66999816894531,-250.7550048828125 C-14.994999885559082,-257.7919921875 14.940999984741211,-248.39500427246094 20.860000610351562,-223.05799865722656 C27.018999099731445,-196.69400024414062 18.099000930786133,-195.17999267578125 22.847000122070312,-189.3820037841797 C29.086999893188477,-181.76199340820312 119.65299987792969,-203.74200439453125 174.6529998779297,-107.74199676513672 C213.54200744628906,-39.86199951171875 219.99600219726562,111.73799896240234 138.85400390625,177.16700744628906 C129.51800537109375,184.69500732421875 147.6529998779297,209.25799560546875 125.11699676513672,230.90899658203125 C96.84600067138672,258.0710144042969 65.65299987792969,247.25799560546875 45.61199951171875,226.75599670410156 C21.93400001525879,202.5330047607422 28.652999877929688,168.25799560546875 52.084999084472656,153.66700744628906 C87.26000213623047,131.76499938964844 103.91699981689453,154.76499938964844 110.00299835205078,150.9250030517578 C151.2449951171875,124.90299987792969 116.51899719238281,6.949999809265137 10.652999877929688,1.2580000162124634 C-82.34700012207031,-3.742000102996826 -115.91200256347656,42.275001525878906 -108.34700012207031,49.257999420166016 C-95.34700012207031,61.257999420166016 -81.34700012207031,22.257999420166016 5.6529998779296875,25.257999420166016 C71.73500061035156,27.53700065612793 112.65299987792969,89.25800323486328 99.65299987792969,96.25800323486328 C87.9219970703125,102.5739974975586 75.63600158691406,81.37699890136719 -3.3480000495910645,83.25800323486328 C-45.347999572753906,84.25800323486328 -117.08599853515625,167.281005859375 -140.2429962158203,178.4499969482422 C-152.9810028076172,184.593994140625 -132.3679962158203,211.70700073242188 -163.08599853515625,232.33200073242188 C-188.822998046875,249.61300659179688 -219.11099243164062,242.45199584960938 -234.875,218.0760040283203 C-248.3939971923828,197.1719970703125 -241.69500732421875,165.23300170898438 -221.3730010986328,151.58799743652344 C-189.50799560546875,130.1929931640625 -175.04299926757812,150.56300354003906 -166.43099975585938,143.03599548339844 C-118.71900177001953,101.33799743652344 -196.34800720214844,34.257999420166016 -142.34800720214844,-82.74199676513672 C-113.0739974975586,-146.16900634765625 -71.26300048828125,-155.61000061035156 -66.83399963378906,-164.75799560546875z"></path></g></g></g></svg>