<svg xmlns="http://www.w3.org/2000/svg" xmlns:xlink="http://www.w3.org/1999/xlink" viewBox="0 0 512 512" width="512" height="512" style="width: 100%; height: 100%; transform: translate3d(0,0,0);" preserveAspectRatio="xMidYMid meet"><defs><clipPath id="__lottie_element_14452"><rect width="512" height="512" x="0" y="0"></rect></clipPath></defs><g clip-path="url(#__lottie_element_14452)"><g style="display: block;" transform="matrix(1,0,0,1,256,256)" opacity="1"><g opacity="1" transform="matrix(1,0,0,1,0,0)"><g opacity="1" transform="matrix(1,0,0,1,0,0)"><path fill="rgb(0,0,0)" fill-opacity="1" d=" M-0.25099998712539673,-89.55799865722656 C-0.25099998712539673,-89.55799865722656 -189.072998046875,68.84300231933594 -189.072998046875,68.84300231933594 C-189.072998046875,68.84300231933594 -189.072998046875,188.0489959716797 -189.072998046875,188.0489959716797 C-189.072998046875,188.0489959716797 -119.49500274658203,169.4980010986328 -95.1520004272461,218.79100036621094 C-95.1520004272461,218.79100036621094 22.055999755859375,159.75999450683594 188.62399291992188,189.10899353027344 C188.62399291992188,189.10899353027344 188.62399291992188,68.84300231933594 188.62399291992188,68.84300231933594 C188.62399291992188,68.84300231933594 -0.25099998712539673,-89.55799865722656 -0.25099998712539673,-89.55799865722656z M65.36900329589844,105.2020034790039 C65.36900329589844,119.10700225830078 54.58300018310547,130.3780059814453 41.27899932861328,130.3780059814453 C41.27899932861328,130.3780059814453 -42.65700149536133,130.3780059814453 -42.65700149536133,130.3780059814453 C-55.96099853515625,130.3780059814453 -66.74600219726562,119.10700225830078 -66.74600219726562,105.2020034790039 C-66.74600219726562,105.2020034790039 -66.74600219726562,17.476999282836914 -66.74600219726562,17.476999282836914 C-66.74600219726562,3.572000026702881 -55.96099853515625,-7.699999809265137 -42.65700149536133,-7.699999809265137 C-42.65700149536133,-7.699999809265137 41.27899932861328,-7.699999809265137 41.27899932861328,-7.699999809265137 C54.58300018310547,-7.699999809265137 65.36900329589844,3.572000026702881 65.36900329589844,17.476999282836914 C65.36900329589844,17.476999282836914 65.36900329589844,105.2020034790039 65.36900329589844,105.2020034790039z"></path></g></g><g opacity="1" transform="matrix(1,0,0,1,0,0)"><path stroke-linecap="round" stroke-linejoin="round" fill-opacity="0" stroke="rgb(0,0,0)" stroke-opacity="1" stroke-width="30" d=" M-224.0500030517578,212.18899536132812 C-193.63099670410156,189.9600067138672 -144.38499450683594,174.8260040283203 -88.69999694824219,224.64300537109375 C-40.525001525878906,174.36700439453125 93.00700378417969,132.8470001220703 227.1300048828125,214.88600158691406"></path></g><g opacity="1" transform="matrix(1,0,0,1,0,0)"><path stroke-linecap="round" stroke-linejoin="round" fill-opacity="0" stroke="rgb(0,0,0)" stroke-opacity="1" stroke-width="30" d=" M188.62399291992188,189.10899353027344 C188.62399291992188,189.10899353027344 188.62399291992188,68.84300231933594 188.62399291992188,68.84300231933594 C188.62399291992188,68.84300231933594 -0.25099998712539673,-89.55799865722656 -0.25099998712539673,-89.55799865722656 C-0.25099998712539673,-89.55799865722656 -189.072998046875,68.84300231933594 -189.072998046875,68.84300231933594 C-189.072998046875,68.84300231933594 -189.072998046875,183.8090057373047 -189.072998046875,183.8090057373047"></path></g><g opacity="1" transform="matrix(1,0,0,1,0,0)"><path stroke-linecap="round" stroke-linejoin="round" fill-opacity="0" stroke="rgb(0,0,0)" stroke-opacity="1" stroke-width="50" d=" M226.65199279785156,7.494999885559082 C226.65199279785156,7.494999885559082 -0.18000000715255737,-183.1699981689453 -0.18000000715255737,-183.1699981689453 C-0.18000000715255737,-183.1699981689453 -0.26899999380111694,-183.1699981689453 -0.26899999380111694,-183.1699981689453 C-0.26899999380111694,-183.1699981689453 -227.10000610351562,7.494999885559082 -227.10000610351562,7.494999885559082"></path></g><g opacity="1" transform="matrix(1,0,0,1,0,0)"><path stroke-linecap="round" stroke-linejoin="round" fill-opacity="0" stroke="rgb(0,0,0)" stroke-opacity="1" stroke-width="30" d=" M-76.99700164794922,61.3390007019043 C-76.99700164794922,61.3390007019043 76.75800323486328,61.3390007019043 76.75800323486328,61.3390007019043"></path></g><g opacity="1" transform="matrix(1,0,0,1,0,0)"><path stroke-linecap="round" stroke-linejoin="round" fill-opacity="0" stroke="rgb(0,0,0)" stroke-opacity="1" stroke-width="30" d=" M-0.6890000104904175,-22.57900047302246 C-0.6890000104904175,-22.57900047302246 -0.6890000104904175,137.16600036621094 -0.6890000104904175,137.16600036621094"></path></g><g opacity="1" transform="matrix(1,0,0,1,0,0)"><path fill="rgb(0,0,0)" fill-opacity="1" d=" M-173.5659942626953,-47.86399841308594 C-173.5659942626953,-47.86399841308594 -113.35800170898438,-88.3759994506836 -113.35800170898438,-88.3759994506836 C-113.35800170898438,-88.3759994506836 -113.35800170898438,-154.60499572753906 -113.35800170898438,-154.60499572753906 C-113.35800170898438,-154.60499572753906 -173.5659942626953,-154.60499572753906 -173.5659942626953,-154.60499572753906 C-173.5659942626953,-154.60499572753906 -173.5659942626953,-47.86399841308594 -173.5659942626953,-47.86399841308594z"></path><path stroke-linecap="round" stroke-linejoin="round" fill-opacity="0" stroke="rgb(0,0,0)" stroke-opacity="1" stroke-width="30" d=" M-173.5659942626953,-47.86399841308594 C-173.5659942626953,-47.86399841308594 -113.35800170898438,-88.3759994506836 -113.35800170898438,-88.3759994506836 C-113.35800170898438,-88.3759994506836 -113.35800170898438,-154.60499572753906 -113.35800170898438,-154.60499572753906 C-113.35800170898438,-154.60499572753906 -173.5659942626953,-154.60499572753906 -173.5659942626953,-154.60499572753906 C-173.5659942626953,-154.60499572753906 -173.5659942626953,-47.86399841308594 -173.5659942626953,-47.86399841308594z"></path></g><g opacity="1" transform="matrix(1,0,0,1,0,0)"><path stroke-linecap="round" stroke-linejoin="round" fill-opacity="0" stroke="rgb(0,0,0)" stroke-opacity="1" stroke-width="30" d=" M-189.09500122070312,77.09300231933594 C-189.09500122070312,77.09300231933594 -230.56199645996094,20.07699966430664 -230.56199645996094,20.07699966430664"></path></g><g opacity="1" transform="matrix(1,0,0,1,0,0)"><path stroke-linecap="round" stroke-linejoin="round" fill-opacity="0" stroke="rgb(0,0,0)" stroke-opacity="1" stroke-width="30" d=" M193.47799682617188,71.40799713134766 C193.47799682617188,71.40799713134766 234.94500732421875,11.817999839782715 234.94500732421875,11.817999839782715"></path></g></g></g></svg>