<svg xmlns="http://www.w3.org/2000/svg" xmlns:xlink="http://www.w3.org/1999/xlink" viewBox="0 0 512 512" width="512" height="512" style="width: 100%; height: 100%; transform: translate3d(0,0,0);" preserveAspectRatio="xMidYMid meet"><defs><clipPath id="__lottie_element_53789"><rect width="512" height="512" x="0" y="0"></rect></clipPath></defs><g clip-path="url(#__lottie_element_53789)"><g style="display: block;" transform="matrix(1,0,0,1,254.4759979248047,255.9770050048828)" opacity="1"><g opacity="1" transform="matrix(1,0,0,1,0,0)"><path fill="rgb(0,0,0)" fill-opacity="1" d=" M38.41,-112.2 C38.34,-124.5 30.45,-132.62 18.83,-132.34 C6.01,-132.04 -4.34,-121.42 -4.07,-108.84 C-3.83,-97.52 4.92,-88.71 16.06,-88.56 C28.74,-88.4 38.5,-98.72 38.41,-112.2z M48.77000045776367,-223.14100646972656 C104.08300018310547,-224.0919952392578 148.21600341796875,-196.9770050048828 183.8509979248047,-153.44900512695312 C215.30999755859375,-115.02200317382812 234.43899536132812,-70.4530029296875 247.56199645996094,-23.009000778198242 C249.5030059814453,-15.991999626159668 248.91000366210938,-9.005999565124512 247.468994140625,-1.996000051498413 C241.2270050048828,28.356000900268555 223.69500732421875,51.47100067138672 200.63900756835938,71.01799774169922 C175.63400268554688,92.21700286865234 148.60800170898438,110.50800323486328 119.2750015258789,125.08799743652344 C17.670000076293945,175.58999633789062 -19.857999801635742,209.6479949951172 -41.77199935913086,220.4080047607422 C-53.63999938964844,226.23500061035156 -62.07099914550781,222.86099243164062 -67.11199951171875,210.47300720214844 C-70.76300048828125,201.5 -71.25399780273438,192.18099975585938 -69.68299865722656,182.656005859375 C-65.66999816894531,158.3209991455078 -57.020999908447266,135.67599487304688 -45.012001037597656,114.23100280761719 C-38.097999572753906,101.88500213623047 -20.597000122070312,75.44200134277344 -15.472999572753906,52.85900115966797 C-9.982999801635742,28.665000915527344 -31.775999069213867,3.111999988555908 -54.569000244140625,6.275000095367432 C-95.44200134277344,11.947999954223633 -215.83799743652344,18.389999389648438 -235.5780029296875,18.115999221801758 C-246.28799438476562,16.378999710083008 -251.2239990234375,8.694999694824219 -247.63600158691406,-1.5110000371932983 C-241.83200073242188,-18.020999908447266 -232.81399536132812,-32.75899887084961 -220.75599670410156,-45.46900177001953 C-195.20799255371094,-72.39800262451172 -164.61300659179688,-92.12799835205078 -130.91200256347656,-107.14700317382812 C-119.08399963378906,-112.41899871826172 -106.85800170898438,-116.87100219726562 -94.60199737548828,-121.0790023803711 C-88.88999938964844,-123.04000091552734 -85.21099853515625,-125.68399810791016 -83.64600372314453,-131.8679962158203 C-70.89600372314453,-182.26100158691406 -21.100000381469727,-224.68499755859375 48.77000045776367,-223.14100646972656z"></path><g opacity="1" transform="matrix(1,0,0,1,17.16900062561035,-110.45600128173828)"></g><g opacity="1" transform="matrix(1,0,0,1,0,0)"></g></g></g></g></svg>