<svg xmlns="http://www.w3.org/2000/svg" xmlns:xlink="http://www.w3.org/1999/xlink" viewBox="0 0 512 512" width="512" height="512" style="width: 100%; height: 100%; transform: translate3d(0,0,0);" preserveAspectRatio="xMidYMid meet"><defs><clipPath id="__lottie_element_53999"><rect width="512" height="512" x="0" y="0"></rect></clipPath></defs><g clip-path="url(#__lottie_element_53999)"><g style="display: block;" transform="matrix(1,0,0,1,256.20599365234375,258.0889892578125)" opacity="1"><g opacity="1" transform="matrix(1,0,0,1,0,0)"><path fill="rgb(0,0,0)" fill-opacity="1" d=" M33.23,31.15 C34.34,8.74 -43.8,-5.15 -46.69,-8.21 C-65.98,-9.53 -67.98,20.04 -75.55,33.34 C-79.09,44.8 -76.16,51.08 -65,55.27 C-11.73,68.94 16.96,108.91 33.23,31.15z M51.13399887084961,58.64099884033203 C147.99099731445312,83.66799926757812 116.39900207519531,30.94700050354004 222.9510040283203,126.62999725341797 C265.74700927734375,182.718994140625 179.58200073242188,180.01400756835938 148.7570037841797,171.4980010986328 C137.72300720214844,168.0850067138672 135.48300170898438,153.68600463867188 128.822998046875,145.35000610351562 C125.76699829101562,137.3820037841797 116.64600372314453,139.4149932861328 117.9739990234375,147.8699951171875 C116.76499938964844,155.9080047607422 123.92400360107422,170.3800048828125 111.53099822998047,171.27200317382812 C-21.884000778198242,190.9510040283203 -100.2229995727539,187.58799743652344 -196.656005859375,89.48699951171875 C-209.16400146484375,79.15399932861328 -209.02699279785156,78.99199676513672 -197.95599365234375,67.66899871826172 C-184.18600463867188,52.415000915527344 -207.94700622558594,57.527000427246094 -215.19900512695312,60.02000045776367 C-232.14300537109375,65.35900115966797 -241.87399291992188,46.111000061035156 -245.25900268554688,41.263999938964844 C-281.6659851074219,-15.782999992370605 -109.88999938964844,1.3769999742507935 -95.26000213623047,-26.424999237060547 C-57.0620002746582,-71.03900146484375 -36.9119987487793,-141.21600341796875 22.2189998626709,-162.33799743652344 C77.68000030517578,-174.68699645996094 135.01300048828125,-184.14199829101562 191.95199584960938,-179.72999572753906 C230.95599365234375,-174.5469970703125 239.83599853515625,-125.21600341796875 249.87399291992188,-93.5979995727539 C254.2779998779297,-68.73400115966797 224.177001953125,-49.8129997253418 217.10499572753906,-44.35900115966797 C208.79600524902344,-35.22999954223633 197.1439971923828,-41.242000579833984 200.9600067138672,-53.10300064086914 C203.08099365234375,-65.19200134277344 198.8990020751953,-75.13200378417969 191.78599548339844,-84.50499725341797 C174.61500549316406,-98.5739974975586 140.16799926757812,-74.5530014038086 130.73599243164062,-56.95899963378906 C96.25800323486328,-11.37399959564209 135.53599548339844,55.50400161743164 112.79199981689453,56.15599822998047 C103.53199768066406,58.2239990234375 86.375,59.67100143432617 60.904998779296875,57.79899978637695 C58.084999084472656,57.34299850463867 51.38600158691406,54.21500015258789 51.13399887084961,58.64099884033203z"></path><g opacity="1" transform="matrix(1,0,0,1,-21.865999221801758,34.744998931884766)"></g><g opacity="1" transform="matrix(1,0,0,1,0,0)"></g></g><g opacity="1" transform="matrix(1,0,0,1,-21.5939998626709,34.590999603271484)"><path fill="rgb(0,0,0)" fill-opacity="1" d=" M-20.507999420166016,-25.209999084472656 C-19.766000747680664,-25.035999298095703 13.39900016784668,-14.329000473022461 28.24799919128418,-8.718000411987305 C38.33000183105469,-4.9079999923706055 38.62699890136719,-3.2309999465942383 34.720001220703125,7.061999797821045 C26.639999389648438,28.347999572753906 26.67799949645996,28.240999221801758 4.934000015258789,20.354000091552734 C-6.7179999351501465,16.128000259399414 -18.584999084472656,12.496000289916992 -30.24799919128418,8.300000190734863 C-37.409000396728516,5.723999977111816 -38.31999969482422,3.9260001182556152 -35.715999603271484,-2.947999954223633 C-33.388999938964844,-9.09000015258789 -30.336999893188477,-14.960000038146973 -27.527999877929688,-20.913999557495117 C-26.30900001525879,-23.499000549316406 -24.510000228881836,-25.43600082397461 -20.507999420166016,-25.209999084472656z"></path></g></g></g></svg>