<svg xmlns="http://www.w3.org/2000/svg" xmlns:xlink="http://www.w3.org/1999/xlink" viewBox="0 0 512 512" width="512" height="512" style="width: 100%; height: 100%; transform: translate3d(0,0,0);" preserveAspectRatio="xMidYMid meet"><defs><clipPath id="__lottie_element_53624"><rect width="512" height="512" x="0" y="0"></rect></clipPath></defs><g clip-path="url(#__lottie_element_53624)"><g style="display: block;" transform="matrix(1,0,0,1,-325.7279968261719,256)" opacity="1"><g opacity="1" transform="matrix(1,0,0,1,0,0)"><path fill="rgb(0,0,0)" fill-opacity="1" d=" M411.16900634765625,-39.70399856567383 C416.7850036621094,-34.65599822998047 425.27899169921875,-34.569000244140625 430.99798583984375,-39.505001068115234 C436.7149963378906,-44.439998626708984 437.8710021972656,-52.85599899291992 433.6969909667969,-59.150001525878906 C433.6969909667969,-59.150001525878906 416.427001953125,-85.19100189208984 416.427001953125,-85.19100189208984 C416.427001953125,-85.19100189208984 440.4289855957031,-126.62300109863281 440.4289855957031,-126.62300109863281 C440.4289855957031,-126.62300109863281 471.90399169921875,-118.16500091552734 471.90399169921875,-118.16500091552734 C471.90399169921875,-118.16500091552734 495.0480041503906,-3.871000051498413 495.0480041503906,-3.871000051498413 C495.0480041503906,-3.871000051498413 469.0090026855469,66.6760025024414 469.0090026855469,66.6760025024414 C478.1759948730469,72.91400146484375 495.05999755859375,80.94000244140625 522.927978515625,83.12999725341797 C522.927978515625,83.12999725341797 522.927978515625,62.553001403808594 522.927978515625,62.553001403808594 C522.927978515625,47.665000915527344 535.0399780273438,35.553001403808594 549.927978515625,35.553001403808594 C549.927978515625,35.553001403808594 607.1329956054688,35.553001403808594 607.1329956054688,35.553001403808594 C622.02099609375,35.553001403808594 634.1329956054688,47.665000915527344 634.1329956054688,62.553001403808594 C634.1329956054688,62.553001403808594 634.1329956054688,83.37200164794922 634.1329956054688,83.37200164794922 C667.8729858398438,81.47200012207031 685.7650146484375,70.52200317382812 693.56201171875,63.987998962402344 C692.4409790039062,53.7869987487793 691.0260009765625,41.3849983215332 689.4660034179688,28.816999435424805 C681.5369873046875,-35.06700134277344 677.7459716796875,-40.82400131225586 675.2369995117188,-44.63399887084961 C670.656982421875,-51.590999603271484 634.8280029296875,-99.68199920654297 605.5380249023438,-132.21099853515625 C587.4539794921875,-152.29400634765625 571.6859741210938,-169.34800720214844 559.9400024414062,-181.5260009765625 C537.416015625,-204.8800048828125 532.5579833984375,-207.9949951171875 525.197998046875,-207.9949951171875 C519.7420043945312,-207.9949951171875 490.489013671875,-205.531005859375 467.9779968261719,-203.32699584960938 C413.82501220703125,-198.0260009765625 411.31298828125,-196.1750030517578 407.510009765625,-193.37600708007812 C404.0679931640625,-190.8419952392578 398.8659973144531,-187.01400756835938 382.3210144042969,-141.3090057373047 C366.4410095214844,-97.44100189208984 367.1600036621094,-91.3280029296875 367.4670104980469,-88.71800231933594 C368.09600830078125,-83.36799621582031 368.7449951171875,-77.83499908447266 411.16900634765625,-39.70399856567383z"></path></g><g opacity="1" transform="matrix(1,0,0,1,0,0)"><path fill="rgb(0,0,0)" fill-opacity="1" d=" M832.4149780273438,120.25299835205078 C827.9749755859375,109.11000061035156 815.0380249023438,96.15499877929688 752.7550048828125,84.54299926757812 C741.698974609375,82.48200225830078 730.6859741210938,80.75599670410156 720.6539916992188,79.34600067138672 C717.3720092773438,83.14800262451172 710.6370239257812,89.79399871826172 699.177978515625,96.31199645996094 C681.3259887695312,106.46600341796875 659.47998046875,112.1989974975586 634.1329956054688,113.41100311279297 C634.1329956054688,113.41100311279297 634.1329956054688,128.302001953125 634.1329956054688,128.302001953125 C634.1329956054688,143.19000244140625 622.02099609375,155.302001953125 607.1329956054688,155.302001953125 C607.1329956054688,155.302001953125 549.927978515625,155.302001953125 549.927978515625,155.302001953125 C535.0399780273438,155.302001953125 522.927978515625,143.19000244140625 522.927978515625,128.302001953125 C522.927978515625,128.302001953125 522.927978515625,113.21600341796875 522.927978515625,113.21600341796875 C467.63800048828125,109.51300048828125 443.60198974609375,85.98799896240234 437.34698486328125,78.58200073242188 C428.3840026855469,80.552001953125 418.5530090332031,82.87200164794922 408.6650085449219,85.5 C388.88299560546875,90.75700378417969 372.7829895019531,96.20800018310547 360.8110046386719,101.7020034790039 C348.65301513671875,107.28199768066406 332.19500732421875,116.48699951171875 329.6499938964844,131.9320068359375 C328.8240051269531,136.94900512695312 329.2969970703125,144.63099670410156 336.2460021972656,152.74099731445312 C344.65399169921875,162.5540008544922 366.5710144042969,176.7779998779297 423.2359924316406,188.80599975585938 C478.8869934082031,200.6179962158203 535.8560180664062,203.32699584960938 576.3820190429688,203.32699584960938 C579.2960205078125,203.32699584960938 582.1259765625,203.31300354003906 584.8629760742188,203.28700256347656 C642.2769775390625,202.75 699.1240234375,196.156005859375 744.9310302734375,184.718994140625 C801.4860229492188,170.5989990234375 822.0089721679688,154.7429962158203 829.2670288085938,143.9290008544922 C834.3579711914062,136.343994140625 835.4769897460938,127.93599700927734 832.4149780273438,120.25299835205078z"></path></g><g opacity="1" transform="matrix(1,0,0,1,0,0)"><path fill="rgb(0,0,0)" fill-opacity="1" d=" M604.1329956054688,125.302001953125 C604.1329956054688,125.302001953125 604.1329956054688,65.5530014038086 604.1329956054688,65.5530014038086 C604.1329956054688,65.5530014038086 552.927978515625,65.5530014038086 552.927978515625,65.5530014038086 C552.927978515625,65.5530014038086 552.927978515625,125.302001953125 552.927978515625,125.302001953125 C552.927978515625,125.302001953125 604.1329956054688,125.302001953125 604.1329956054688,125.302001953125z"></path></g></g></g></svg>