<svg xmlns="http://www.w3.org/2000/svg" xmlns:xlink="http://www.w3.org/1999/xlink" viewBox="0 0 512 512" width="512" height="512" style="width: 100%; height: 100%; transform: translate3d(0,0,0);" preserveAspectRatio="xMidYMid meet"><defs><clipPath id="__lottie_element_52100"><rect width="512" height="512" x="0" y="0"></rect></clipPath></defs><g clip-path="url(#__lottie_element_52100)"><g style="display: block;" transform="matrix(1,0,0,1,4.333984375,-4.201995849609375)" opacity="1"><g opacity="1" transform="matrix(1,0,0,1,253.95799255371094,255.05599975585938)"><path fill="rgb(0,0,0)" fill-opacity="1" d=" M-157.29200744628906,77.47899627685547 C-162.625,54.145999908447266 -133.48800659179688,28.427000045776367 -139.59100341796875,23.895999908447266 C-161.59100341796875,7.561999797821045 -141.29200744628906,-57.85300064086914 -154.625,-64.5199966430664 C-172.9949951171875,-73.7040023803711 -156.0469970703125,-124.947998046875 -168.625,-158.18800354003906 C-175.22799682617188,-175.63499450683594 -185.31700134277344,-179.20899963378906 -199.29200744628906,-180.52000427246094 C-209.95899963378906,-181.52000427246094 -231.2169952392578,-170.947998046875 -243.625,-174.18699645996094 C-258.95098876953125,-178.18699645996094 -220.36099243164062,-232.7760009765625 -199.625,-241.52000427246094 C-144.29200744628906,-264.8529968261719 -63.5359992980957,-204.0449981689453 -31.958999633789062,-149.52099609375 C-13.5,-117.64600372314453 -23.219999313354492,-118.9520034790039 -10.291999816894531,-103.85399627685547 C37.375,-48.1879997253418 62.70800018310547,-55.85300064086914 81.10700225830078,-26.81399917602539 C85.15499877929688,-20.426000595092773 39.4630012512207,6.63700008392334 6.833000183105469,26.766000747680664 C-30.00200080871582,49.487998962402344 -106.625,58.145999908447266 -105.29199981689453,72.14600372314453 C-104.21700286865234,83.4280014038086 11.375,74.14600372314453 76.70800018310547,17.895999908447266 C129.19500732421875,-27.29400062561035 191.88800048828125,-49.15800094604492 232.70799255371094,-13.854000091552734 C271.510986328125,19.704999923706055 240.2830047607422,101.9540023803711 167.70799255371094,136.81300354003906 C83.04100036621094,177.47900390625 32.1510009765625,149.03700256347656 -56.95899963378906,165.47900390625 C-168.95899963378906,186.14599609375 -211.29200744628906,250.85299682617188 -230.625,250.81300354003906 C-253.70799255371094,250.76499938964844 -247.71400451660156,182.80499267578125 -225.29200744628906,146.81300354003906 C-199.95899963378906,106.14600372314453 -155.35499572753906,85.9530029296875 -157.29200744628906,77.47899627685547z"></path></g></g></g></svg>