<svg xmlns="http://www.w3.org/2000/svg" xmlns:xlink="http://www.w3.org/1999/xlink" viewBox="0 0 512 512" width="512" height="512" style="width: 100%; height: 100%; transform: translate3d(0,0,0);" preserveAspectRatio="xMidYMid meet"><defs><clipPath id="__lottie_element_52080"><rect width="512" height="512" x="0" y="0"></rect></clipPath></defs><g clip-path="url(#__lottie_element_52080)"><g style="display: block;" transform="matrix(1,0,0,1,250.00900268554688,262.5639953613281)" opacity="1"><g opacity="1" transform="matrix(1,0,0,1,0,0)"><path fill="rgb(4,5,52)" fill-opacity="1" d=" M236.17599487304688,-117.875 C229.46600341796875,-128.30499267578125 169.49600219726562,-116.53600311279297 153.7259979248047,-119.56600189208984 C124.36599731445312,-125.21600341796875 126.24600219726562,-147.99600219726562 100.26599884033203,-155.33599853515625 C74.28600311279297,-162.67599487304688 0.6959999799728394,-148.08599853515625 0.6959999799728394,-148.08599853515625 C0.6959999799728394,-148.08599853515625 -15.12399959564209,-169.26499938964844 -42.2239990234375,-183.38499450683594 C-69.33399963378906,-197.4949951171875 -107.73400115966797,-208.79600524902344 -115.0739974975586,-206.53599548339844 C-122.41400146484375,-204.2760009765625 -108.29399871826172,-172.08599853515625 -104.90399932861328,-155.14599609375 C-101.52400207519531,-138.20599365234375 -78.93399810791016,-100.36499786376953 -26.983999252319336,-100.36499786376953 C-26.983999252319336,-100.36499786376953 -86.27400207519531,-85.125 -118.46399688720703,-140.46499633789062 C-118.46399688720703,-140.46499633789062 -134.83399963378906,-165.31500244140625 -163.07400512695312,-165.875 C-163.07400512695312,-165.875 -136.53399658203125,-134.2550048828125 -142.1840057373047,-96.98500061035156 C-142.1840057373047,-96.98500061035156 -183.96400451660156,-90.76499938964844 -204.86399841308594,-118.44499969482422 C-204.86399841308594,-118.44499969482422 -208.81399536132812,-85.125 -194.69400024414062,-63.665000915527344 C-194.69400024414062,-63.665000915527344 -219.54400634765625,-57.45600128173828 -238.1840057373047,-61.40599822998047 C-238.1840057373047,-61.40599822998047 -234.2239990234375,-26.826000213623047 -186.2239990234375,-6.565999984741211 C-186.2239990234375,-6.565999984741211 -203.16400146484375,10.875 -216.1540069580078,40.244998931884766 C-216.1540069580078,40.244998931884766 -190.1840057373047,44.75400161743164 -157.99400329589844,37.98400115966797 C-157.99400329589844,37.98400115966797 -182.83399963378906,62.263999938964844 -191.87399291992188,101.23400115966797 C-191.87399291992188,101.23400115966797 -172.6739959716797,90.50399780273438 -148.95399475097656,89.93399810791016 C-148.95399475097656,89.93399810791016 -159.6840057373047,122.68399810791016 -147.26400756835938,170.6840057373047 C-147.26400756835938,170.6840057373047 -131.45399475097656,133.98500061035156 -89.09400177001953,124.38500213623047 C-89.09400177001953,124.38500213623047 -94.74400329589844,181.4149932861328 -54.08399963378906,206.8249969482422 C-54.08399963378906,206.8249969482422 -46.183998107910156,158.26499938964844 -31.493999481201172,156.0050048828125 C-16.81399917602539,153.7449951171875 -10.604000091552734,176.9040069580078 -13.994000434875488,185.9340057373047 C-13.994000434875488,185.9340057373047 20.45599937438965,180.28399658203125 39.08599853515625,137.9340057373047 C57.72600173950195,95.58399963378906 70.71600341796875,72.43399810791016 98.38600158691406,66.21399688720703 C126.05599975585938,60.00400161743164 160.50599670410156,76.94499969482422 184.21600341796875,69.04499816894531 C207.93600463867188,61.1349983215332 203.98599243164062,17.65399932861328 203.98599243164062,17.65399932861328 C203.98599243164062,17.65399932861328 189.30599975585938,35.7239990234375 189.30599975585938,35.7239990234375 C189.30599975585938,35.7239990234375 152.03599548339844,34.59400177001953 153.16600036621094,2.4040000438690186 C154.28599548339844,-29.785999298095703 190.43600463867188,-43.895999908447266 190.43600463867188,-43.895999908447266 C190.43600463867188,-43.895999908447266 200.5959930419922,-31.47599983215332 201.16600036621094,-13.406000137329102 C201.16600036621094,-13.406000137329102 209.4459991455078,-29.59600067138672 212.0760040283203,-49.54600143432617 C212.406005859375,-52.00600051879883 223.87600708007812,-52.095001220703125 224.87600708007812,-54.44499969482422 C235.5959930419922,-79.67500305175781 241.54600524902344,-109.50499725341797 236.17599487304688,-117.875z M54.85599899291992,-113.125 C54.85599899291992,-113.125 78.96600341796875,-123.24500274658203 94.86599731445312,-117.24500274658203 C110.76599884033203,-111.24500274658203 116.16600036621094,-89.33599853515625 116.16600036621094,-89.33599853515625 C116.16600036621094,-89.33599853515625 75.6760025024414,-93.67500305175781 54.85599899291992,-113.125z"></path></g></g></g></svg>