<svg xmlns="http://www.w3.org/2000/svg" xmlns:xlink="http://www.w3.org/1999/xlink" viewBox="0 0 512 512" width="512" height="512" style="width: 100%; height: 100%; transform: translate3d(0,0,0);" preserveAspectRatio="xMidYMid meet"><defs><clipPath id="__lottie_element_53454"><rect width="512" height="512" x="0" y="0"></rect></clipPath></defs><g clip-path="url(#__lottie_element_53454)"><g style="display: block;" transform="matrix(1,0,0,1,0,0)" opacity="1"><g opacity="1" transform="matrix(1,0,0,1,295.5849914550781,343.28399658203125)"><path fill="rgb(0,0,0)" fill-opacity="1" d=" M192.2209930419922,-16.819000244140625 C184.5279998779297,-27.586999893188477 184.36099243164062,-34.02299880981445 179.58799743652344,-46.29499816894531 C165.3090057373047,-83.01100158691406 146.04600524902344,-100.25299835205078 103.54199981689453,-97.75399780273438 C100.68699645996094,-97.58599853515625 96.93000030517578,-98.53299713134766 94.91799926757812,-100.3949966430664 C73.6780014038086,-120.04000091552734 57.29899978637695,-127.26000213623047 26.944000244140625,-130.51199340820312 C-2.5320000648498535,-133.6699981689453 -33.21699905395508,-123.38600158691406 -50.79999923706055,-99.63400268554688 C-56.38600158691406,-92.08899688720703 -61.68299865722656,-90.59100341796875 -70.62899780273438,-92.38700103759766 C-125.09300231933594,-103.322998046875 -164.55599975585938,-74.77200317382812 -172.83599853515625,-20.03499984741211 C-173.98500061035156,-12.4399995803833 -175.177001953125,0.02500000037252903 -175.177001953125,0.02500000037252903 C-185.70399475097656,6.341000080108643 -208.86399841308594,24.23699951171875 -214.25599670410156,58.77299880981445 C-216.4149932861328,72.59600067138672 -211.46600341796875,99.96499633789062 -187.6280059814453,107.99299621582031 C-141.7050018310547,123.45800018310547 -84.58599853515625,133.61599731445312 -49.45199966430664,133.63699340820312 C7.0879998207092285,133.6699981689453 113.26699829101562,106.3499984741211 166.94500732421875,67.90499877929688 C184.9149932861328,55.03499984741211 224.85499572753906,13.710000038146973 192.2209930419922,-16.819000244140625z M-51.84299850463867,77.20099639892578 C-55.90999984741211,71.81900024414062 -59.680999755859375,66.1780014038086 -64.0999984741211,61.10300064086914 C-98.3290023803711,25.290000915527344 -121.94100189208984,27.13599967956543 -126.20899963378906,24.267000198364258 C-125.6989974975586,24.23699951171875 -122.54100036621094,12.656999588012695 -112.83799743652344,9.569000244140625 C-99.42400360107422,5.298999786376953 -82.5270004272461,12.6899995803833 -72.22699737548828,21.216999053955078 C-45.69300079345703,43.18600082397461 -48.85100173950195,75.82099914550781 -51.84299850463867,77.20099639892578z M36.777000427246094,33.805999755859375 C34.3129997253418,44.23899841308594 28.547000885009766,44.529998779296875 23.10700035095215,36.499000549316406 C8.501999855041504,14.935999870300293 -5.958000183105469,-6.763000011444092 -19.427000045776367,-29.042999267578125 C-26.194000244140625,-40.236000061035156 -21.902000427246094,-50.54499816894531 -11.184000015258789,-57.29800033569336 C0.017999999225139618,-64.3550033569336 8.307999610900879,-55.30400085449219 11.973999977111816,-48.19599914550781 C23.30900001525879,-26.214000701904297 41.69900131225586,12.961999893188477 36.777000427246094,33.805999755859375z M122.2750015258789,38.749000549316406 C120.26699829101562,13.118000030517578 118.46900177001953,-9.829999923706055 116.68800354003906,-32.553001403808594 C116.4229965209961,-35.9370002746582 119.42400360107422,-38.70899963378906 122.76200103759766,-38.0989990234375 C145.6529998779297,-33.9119987487793 141.60299682617188,6.585000038146973 122.2750015258789,38.749000549316406z"></path></g><g opacity="1" transform="matrix(1,0,0,1,228.8990020751953,189.44200134277344)"><path fill="rgb(0,0,0)" fill-opacity="1" d=" M-134.47900390625,112.43900299072266 C-132.10899353027344,102.39800262451172 -128.51300048828125,92.19999694824219 -123.24500274658203,83.3949966430664 C-115.11799621582031,69.80999755859375 -100.06999969482422,52.805999755859375 -82.1729965209961,43.332000732421875 C-87.46900177001953,41.744998931884766 -125.12100219726562,35.29399871826172 -125.5739974975586,29.312000274658203 C-126.16000366210938,21.56999969482422 -119.03299713134766,9.435999870300293 -106.38500213623047,8.592000007629395 C-90.59400177001953,7.539999961853027 -57.959999084472656,34.90999984741211 -57.959999084472656,34.90999984741211 C-31.642000198364258,30.698999404907227 -11.640999794006348,32.80500030517578 -11.640999794006348,32.80500030517578 C-3.2200000286102295,22.277999877929688 10.467000007629395,14.909000396728516 10.467000007629395,14.909000396728516 C7,2.611999988555908 -7.429999828338623,-16.67300033569336 -16.604000091552734,-27.229000091552734 C-24.19499969482422,-35.9630012512207 -20.392000198364258,-44.358001708984375 -11.420999526977539,-51.0890007019043 C-4.270999908447266,-55.62300109863281 5.203000068664551,-51.41299819946289 15.729999542236328,-37.72700119018555 C23.60700035095215,-27.488000869750977 33.34400177001953,6.1539998054504395 34.08700180053711,5.809999942779541 C73.62899780273438,-12.461999893188477 104.64299774169922,-1.1330000162124634 118.96199798583984,-0.19499999284744263 C117.93199920654297,-9.98799991607666 117.02899932861328,-23.82699966430664 116.09500122070312,-32.71699905395508 C132.98800659179688,-31.31599998474121 139.15699768066406,-23.599000930786133 139.66900634765625,-6.745999813079834 C140.11599731445312,7.98199987411499 140.093994140625,3.8359999656677246 141.0030059814453,4.38100004196167 C151.52999877929688,10.697999954223633 169.427001953125,27.541000366210938 169.427001953125,27.541000366210938 C169.427001953125,27.541000366210938 194.3000030517578,28.893999099731445 196.4980010986328,28.884000778198242 C213.7239990234375,28.812999725341797 216.947998046875,19.174999237060547 214.90699768066406,2.249000072479248 C213.64100646972656,-8.25100040435791 207.97300720214844,-21.408000946044922 202.06100463867188,-29.305999755859375 C195.03199768066406,-38.69499969482422 176.7949981689453,-50.36000061035156 176.6909942626953,-49.9379997253418 C165.48399353027344,-70.28199768066406 154.61500549316406,-89.85199737548828 132.58099365234375,-94.5739974975586 C117.84300231933594,-97.73200225830078 91.5260009765625,-92.46800231933594 91.5260009765625,-92.46800231933594 C91.5260009765625,-92.46800231933594 85.20899963378906,-99.83699798583984 66.26100158691406,-110.36499786376953 C25.854000091552734,-132.81300354003906 -33.74800109863281,-131.41900634765625 -57.959999084472656,-84.0469970703125 C-58,-84.9489974975586 -64.58699798583984,-86.0989990234375 -70.06700134277344,-87.0989990234375 C-124.63099670410156,-97.0510025024414 -163.8769989013672,-68.92400360107422 -172.2310028076172,-13.883999824523926 C-173.3179931640625,-6.7170000076293945 -173.75900268554688,2.2760000228881836 -173.75900268554688,2.2760000228881836 C-197.27099609375,26.010000228881836 -216.9199981689453,48.595001220703125 -216.4720001220703,91.53800201416016 C-216.94700622558594,118.55999755859375 -192.70799255371094,132.81300354003906 -172.46200561523438,132.2530059814453 C-163.79299926757812,132.01400756835938 -144.1999969482422,129.38600158691406 -137.96600341796875,128.6020050048828 C-137.96600341796875,128.6020050048828 -137.072998046875,123.42900085449219 -134.47900390625,112.43900299072266z"></path></g></g></g></svg>