<svg xmlns="http://www.w3.org/2000/svg" xmlns:xlink="http://www.w3.org/1999/xlink" viewBox="0 0 512 512" width="512" height="512" style="width: 100%; height: 100%; transform: translate3d(0,0,0);" preserveAspectRatio="xMidYMid meet"><defs><clipPath id="__lottie_element_53719"><rect width="512" height="512" x="0" y="0"></rect></clipPath></defs><g clip-path="url(#__lottie_element_53719)"><g style="display: block;" transform="matrix(2.962939977645874,0,0,2.962939977645874,2.8374481201171875,2.8374481201171875)" opacity="1"><g opacity="1" transform="matrix(1,0,0,1,86.33399963378906,85.41400146484375)"><path fill="rgb(0,0,0)" fill-opacity="1" d=" M-32.242000579833984,21.134000778198242 C-38.72600173950195,13.501999855041504 -38.54899978637695,4.935999870300293 -36.369998931884766,-3.125 C-44.928001403808594,-1.8209999799728394 -53.29899978637695,-0.5529999732971191 -61.66699981689453,0.7329999804496765 C-67.51000213623047,1.6299999952316284 -70.95099639892578,-0.9589999914169312 -73.00299835205078,-6.386000156402588 C-77.98500061035156,-19.562000274658203 -76.2229995727539,-31.634000778198242 -67.37799835205078,-42.529998779296875 C-57.766998291015625,-54.369998931884766 -45.49800109863281,-61.946998596191406 -30.31399917602539,-64.25 C-26.58799934387207,-64.81500244140625 -23.804000854492188,-64.33399963378906 -20.03700065612793,-64.33399963378906 C-23.695999145507812,-70.29199981689453 -33.7239990234375,-74.78700256347656 -40.270999908447266,-72.62999725341797 C-45.48699951171875,-70.91200256347656 -52.09400177001953,-68.625 -57.40599822998047,-67.44499969482422 C-62.79999923706055,-66.24600219726562 -66.9260025024414,-65.15799713134766 -72.37200164794922,-65.74199676513672 C-77.55500030517578,-66.29900360107422 -78.6719970703125,-71.26799774169922 -74.57499694824219,-74.4520034790039 C-64.63800048828125,-82.17500305175781 -40.775001525878906,-87.59300231933594 -24.333999633789062,-79.13400268554688 C-20.95800018310547,-77.65699768066406 -15.699000358581543,-73.4469985961914 -13.694000244140625,-70.40699768066406 C-9.116999626159668,-63.46900177001953 -2.9630000591278076,-58.49100112915039 -0.5529999732971191,-50.16400146484375 C1.5379999876022339,-42.941001892089844 0.37700000405311584,-40.194000244140625 -0.28200000524520874,-37.43600082397461 C-0.7649999856948853,-32.1870002746582 2.255000114440918,-28.979000091552734 5.99399995803833,-24.753999710083008 C7.084000110626221,-23.52199935913086 8.312999725341797,-22.391000747680664 9.26200008392334,-21.05900001525879 C14.876999855041504,-13.175999641418457 14.340999603271484,-11.050999641418457 6.500999927520752,-5.776000022888184 C1.5049999952316284,-2.4140000343322754 -4.136000156402588,1.7289999723434448 -6.561999797821045,5.543000221252441 C-7.5229997634887695,7.052999973297119 -9.156000137329102,10.418000221252441 -9.508000373840332,12.194999694824219 C-9.508000373840332,12.194999694824219 6.52400016784668,0.4779999852180481 17.101999282836914,-4.056000232696533 C35.93899917602539,-12.130999565124512 57.54899978637695,-1.3140000104904175 65.93299865722656,11.057000160217285 C75.35900115966797,24.965999603271484 78.6719970703125,40.62699890136719 77.88600158691406,57.09299850463867 C77.3280029296875,68.76399993896484 73.76499938964844,75.09300231933594 45.32899856567383,77.88600158691406 C35.61899948120117,78.83999633789062 23.697999954223633,78.24299621582031 14.699000358581543,74.11100006103516 C14.699000358581543,74.11100006103516 8.619999885559082,79.69100189208984 7.188000202178955,81.10700225830078 C3.3459999561309814,84.90599822998047 -0.5630000233650208,85.5009994506836 -3.421999931335449,82.53299713134766 C-6.7129998207092285,79.11799621582031 -5.954999923706055,75.58200073242188 -3.193000078201294,72.19000244140625 C-1.4670000076293945,70.07099914550781 0.2549999952316284,67.947998046875 1.1579999923706055,66.83699798583984 C-4.486000061035156,56.97800064086914 -9.789999961853027,47.7140007019043 -15.529000282287598,37.6879997253418 C-19.20199966430664,41.84600067138672 -29.094999313354492,61.67300033569336 -30.000999450683594,63.87699890136719 C-31.468000411987305,67.44599914550781 -33.790000915527344,70.125 -37.952999114990234,68.70700073242188 C-42.41899871826172,67.18699645996094 -42.53799819946289,63.45399856567383 -41.3120002746582,59.59400177001953 C-40.43899917602539,56.84600067138672 -34.70399856567383,43.367000579833984 -34.70399856567383,43.367000579833984 C-38.74399948120117,47.37300109863281 -55.38199996948242,68.70700073242188 -58.18299865722656,70.59400177001953 C-60.26900100708008,71.99800109863281 -64.11799621582031,71.91300201416016 -65.91500091552734,70.88500213623047 C-67.71199798583984,69.85800170898438 -69.19400024414062,66.822998046875 -68.59200286865234,64.6719970703125 C-67.5739974975586,56.766998291015625 -44.69499969482422,32.632999420166016 -35.87900161743164,23.892000198364258 C-34.880001068115234,22.899999618530273 -33.62300109863281,22.167999267578125 -32.242000579833984,21.134000778198242z M-40.21900177001953,-24.12299919128418 C-34.525001525878906,-25.83099937438965 -21.577999114990234,-40.93000030517578 -22.999000549316406,-45.19300079345703 C-23.531999588012695,-46.79399871826172 -25.378999710083008,-48.15299987792969 -28.514999389648438,-47.48699951171875 C-35.39699935913086,-46.02799987792969 -46.297000885009766,-36.90299987792969 -46.518001556396484,-27.87299919128418 C-46.60100173950195,-24.48200035095215 -43.435001373291016,-23.158000946044922 -40.21900177001953,-24.12299919128418z"></path></g></g></g></svg>