<svg xmlns="http://www.w3.org/2000/svg" xmlns:xlink="http://www.w3.org/1999/xlink" viewBox="0 0 512 512" width="512" height="512" style="width: 100%; height: 100%; transform: translate3d(0,0,0);" preserveAspectRatio="xMidYMid meet"><defs><clipPath id="__lottie_element_51745"><rect width="512" height="512" x="0" y="0"></rect></clipPath></defs><g clip-path="url(#__lottie_element_51745)"><g style="display: block;" transform="matrix(1,0,0,1,0,0)" opacity="1"><g opacity="1" transform="matrix(1,0,0,1,393.7200012207031,260.2619934082031)"><path fill="rgb(4,5,52)" fill-opacity="1" d=" M-106.00199890136719,211.38699340820312 C-96.9020004272461,230.11700439453125 -47.02199935913086,211.95700073242188 -26.121999740600586,191.0570068359375 C-26.121999740600586,191.0570068359375 -26.052000045776367,191.08700561523438 -25.892000198364258,191.13699340820312 C-15.251999855041504,174.38699340820312 22.597999572753906,135.66700744628906 26.38800048828125,34.946998596191406 C31.507999420166016,-101.00299835205078 0.9779999852180481,-129.6929931640625 6.9079999923706055,-132.23300170898438 C17.917999267578125,-136.9530029296875 40.20800018310547,-71.14299774169922 37.40800094604492,32.09700012207031 C35.24800109863281,111.4469985961914 3.5980000495910645,170.8769989013672 -13.791999816894531,192.98699951171875 C-6.26200008392334,193.51699829101562 5.308000087738037,193.61700439453125 22.437999725341797,192.18699645996094 C63.097999572753906,188.8070068359375 90.20800018310547,168.0970001220703 86.81800079345703,148.14700317382812 C84.23799896240234,132.95700073242188 70.77799987792969,129.7270050048828 55.28799819946289,130.70700073242188 C75.96800231933594,124.41699981689453 99.3479995727539,111.68699645996094 106.01799774169922,86.0270004272461 C113.45800018310547,57.41699981689453 86.0479965209961,51.91699981689453 65.81800079345703,60.457000732421875 C87.31800079345703,42.37699890136719 121.03800201416016,7.166999816894531 100.36799621582031,-22.39299964904785 C91.45800018310547,-35.15299987792969 73.02799987792969,-25.493000030517578 64.46800231933594,-17.433000564575195 C77.38800048828125,-34.0629997253418 114.26799774169922,-86.4229965209961 88.31800079345703,-112.37300109863281 C76.45800018310547,-124.23300170898438 47.28799819946289,-92.4229965209961 47.28799819946289,-92.4229965209961 C47.28799819946289,-92.4229965209961 81.947998046875,-159.01300048828125 56.698001861572266,-178.2530059814453 C35.29800033569336,-194.56300354003906 17.67799949645996,-159.7729949951172 17.67799949645996,-159.7729949951172 C17.67799949645996,-159.7729949951172 2.4579999446868896,-238.73300170898438 -39.68199920654297,-214.63299560546875 C-76.73200225830078,-193.4429931640625 -21.25200080871582,-141.26300048828125 -20.601999282836914,-140.6529998779297 C-21.441999435424805,-140.93299865722656 -66.84200286865234,-156.58299255371094 -73.56199645996094,-134.21299743652344 C-80.02200317382812,-112.6729965209961 -34.20199966430664,-88.0530014038086 -7.4019999504089355,-81.89299774169922 C-17.422000885009766,-83.69300079345703 -44.27199935913086,-86.86299896240234 -50.22200012207031,-70.58300018310547 C-60.29199981689453,-43.042999267578125 -14.802000045776367,-23.42300033569336 5.067999839782715,-16.30299949645996 C-6.122000217437744,-19.503000259399414 -24.82200050354004,-23.10300064086914 -32.902000427246094,-14.493000030517578 C-46.46200180053711,-0.023000000044703484 -34.481998443603516,21.32699966430664 -20.371999740600586,38.08700180053711 C-26.742000579833984,34.71699905395508 -33.50199890136719,33.606998443603516 -39.68199920654297,37.457000732421875 C-66.51200103759766,54.196998596191406 -45.94200134277344,85.50700378417969 -28.48200035095215,105.16699981689453 C-42.242000579833984,93.60700225830078 -61.34199905395508,82.4469985961914 -75.44200134277344,93.55699920654297 C-100.29199981689453,113.12699890136719 -52.85200119018555,174.11700439453125 -52.85200119018555,174.11700439453125 C-52.85200119018555,174.11700439453125 -116.98200225830078,188.8070068359375 -106.00199890136719,211.38699340820312z"></path></g><g opacity="1" transform="matrix(1,0,0,1,121.23300170898438,260.2619934082031)"><path fill="rgb(4,5,52)" fill-opacity="1" d=" M106.00199890136719,211.38699340820312 C96.9020004272461,230.11700439453125 47.02199935913086,211.95700073242188 26.121999740600586,191.0570068359375 C26.121999740600586,191.0570068359375 26.052000045776367,191.08700561523438 25.892000198364258,191.13699340820312 C15.251999855041504,174.38699340820312 -22.597999572753906,135.66700744628906 -26.38800048828125,34.946998596191406 C-31.507999420166016,-101.00299835205078 -0.9779999852180481,-129.6929931640625 -6.9079999923706055,-132.23300170898438 C-17.917999267578125,-136.9530029296875 -40.20800018310547,-71.14299774169922 -37.40800094604492,32.09700012207031 C-35.24800109863281,111.4469985961914 -3.5980000495910645,170.8769989013672 13.791999816894531,192.98699951171875 C6.26200008392334,193.51699829101562 -5.308000087738037,193.61700439453125 -22.437999725341797,192.18699645996094 C-63.097999572753906,188.8070068359375 -90.20800018310547,168.0970001220703 -86.81800079345703,148.14700317382812 C-84.23799896240234,132.95700073242188 -70.77799987792969,129.7270050048828 -55.28799819946289,130.70700073242188 C-75.96800231933594,124.41699981689453 -99.3479995727539,111.68699645996094 -106.01799774169922,86.0270004272461 C-113.45800018310547,57.41699981689453 -86.0479965209961,51.91699981689453 -65.81800079345703,60.457000732421875 C-87.31800079345703,42.37699890136719 -121.03800201416016,7.166999816894531 -100.36799621582031,-22.39299964904785 C-91.45800018310547,-35.15299987792969 -73.02799987792969,-25.493000030517578 -64.46800231933594,-17.433000564575195 C-77.38800048828125,-34.0629997253418 -114.26799774169922,-86.4229965209961 -88.31800079345703,-112.37300109863281 C-76.45800018310547,-124.23300170898438 -47.28799819946289,-92.4229965209961 -47.28799819946289,-92.4229965209961 C-47.28799819946289,-92.4229965209961 -81.947998046875,-159.01300048828125 -56.698001861572266,-178.2530059814453 C-35.29800033569336,-194.56300354003906 -17.67799949645996,-159.7729949951172 -17.67799949645996,-159.7729949951172 C-17.67799949645996,-159.7729949951172 -2.4579999446868896,-238.73300170898438 39.68199920654297,-214.63299560546875 C76.73200225830078,-193.4429931640625 21.25200080871582,-141.26300048828125 20.601999282836914,-140.6529998779297 C21.441999435424805,-140.93299865722656 66.84200286865234,-156.58299255371094 73.56199645996094,-134.21299743652344 C80.02200317382812,-112.6729965209961 34.20199966430664,-88.0530014038086 7.4019999504089355,-81.89299774169922 C17.422000885009766,-83.69300079345703 44.27199935913086,-86.86299896240234 50.22200012207031,-70.58300018310547 C60.29199981689453,-43.042999267578125 14.802000045776367,-23.42300033569336 -5.067999839782715,-16.30299949645996 C6.122000217437744,-19.503000259399414 24.82200050354004,-23.10300064086914 32.902000427246094,-14.493000030517578 C46.46200180053711,-0.023000000044703484 34.481998443603516,21.32699966430664 20.371999740600586,38.08700180053711 C26.742000579833984,34.71699905395508 33.50199890136719,33.606998443603516 39.68199920654297,37.457000732421875 C66.51200103759766,54.196998596191406 45.94200134277344,85.50700378417969 28.48200035095215,105.16699981689453 C42.242000579833984,93.60700225830078 61.34199905395508,82.4469985961914 75.44200134277344,93.55699920654297 C100.29199981689453,113.12699890136719 52.85200119018555,174.11700439453125 52.85200119018555,174.11700439453125 C52.85200119018555,174.11700439453125 116.98200225830078,188.8070068359375 106.00199890136719,211.38699340820312z"></path></g></g></g></svg>