<svg xmlns="http://www.w3.org/2000/svg" xmlns:xlink="http://www.w3.org/1999/xlink" viewBox="0 0 512 512" width="512" height="512" style="width: 100%; height: 100%; transform: translate3d(0,0,0);" preserveAspectRatio="xMidYMid meet"><defs><clipPath id="__lottie_element_53754"><rect width="512" height="512" x="0" y="0"></rect></clipPath></defs><g clip-path="url(#__lottie_element_53754)"><g style="display: block;" transform="matrix(1,0,0,1,255.83599853515625,253.95799255371094)" opacity="1"><g opacity="1" transform="matrix(1,0,0,1,0,0)"><g opacity="1" transform="matrix(1,0,0,1,0,0)"><path fill="rgb(0,0,0)" fill-opacity="1" d=" M64.97000122070312,-50.301998138427734 C31.299999237060547,-50.20100021362305 4.36299991607666,-76.3290023803711 4.5320000648498535,-108.95600128173828 C4.699999809265137,-140.7740020751953 31.23200035095215,-167.03700256347656 63.185001373291016,-166.93600463867188 C93.85800170898438,-166.86900329589844 121.13200378417969,-139.9320068359375 121.53600311279297,-109.39299774169922 C121.94000244140625,-78.61799621582031 94.90299987792969,-50.36899948120117 64.97000122070312,-50.301998138427734z M67.46099853515625,158.4199981689453 C56.78300094604492,199.9029998779297 9.522000312805176,215.73599243164062 -26.91699981689453,211.2830047607422 C-77.99199676513672,205.04100036621094 -120.92400360107422,184.24600219726562 -156.0760040283203,147.14100646972656 C-188.5,112.93199920654297 -207.08599853515625,72.15699768066406 -212.54100036621094,25.288000106811523 C-219.54400634765625,-34.84700012207031 -202.88999938964844,-87.79199981689453 -166.88400268554688,-136.16099548339844 C-114.48300170898438,-206.5540008544922 -36.37799835205078,-212.49200439453125 -34.222999572753906,-210.53900146484375 C-33.347999572753906,-206.86900329589844 -61.194000244140625,-170.85699462890625 -63.11199951171875,-120.23500061035156 C-66.44499969482422,-32.2760009765625 -40.34600067138672,-3.2960000038146973 -9.979999542236328,21.81999969482422 C34.472999572753906,58.58700180053711 85.48999786376953,88.37799835205078 67.46099853515625,158.4199981689453z M0.8610000014305115,-248.92300415039062 C-136.00900268554688,-249.5959930419922 -247.79400634765625,-138.6529998779297 -248.90499877929688,-1.8170000314712524 C-250.01600646972656,136.33200073242188 -138.63499450683594,248.79100036621094 -0.4519999921321869,248.92599487304688 C128.63999938964844,249.06100463867188 248.27000427246094,147.61300659179688 248.91000366210938,1.2139999866485596 C249.5500030517578,-140.9759979248047 135.5760040283203,-248.01400756835938 0.8610000014305115,-248.92300415039062z"></path></g></g><g opacity="1" transform="matrix(1,0,0,1,-36.79800033569336,123.74199676513672)"><path fill="rgb(0,0,0)" fill-opacity="1" d=" M1.9509999752044678,58.32699966430664 C-31.743999481201172,58.40999984741211 -58.67100143432617,32.27899932861328 -58.50299835205078,-0.3400000035762787 C-58.3390007019043,-32.16999816894531 -31.797000885009766,-58.415000915527344 0.14100000262260437,-58.32699966430664 C30.815000534057617,-58.242000579833984 58.10100173950195,-31.333999633789062 58.5,-0.7760000228881836 C58.902000427246094,30 31.868999481201172,58.25299835205078 1.9509999752044678,58.32699966430664z"></path></g></g></g></svg>