<svg xmlns="http://www.w3.org/2000/svg" xmlns:xlink="http://www.w3.org/1999/xlink" viewBox="0 0 512 512" width="512" height="512" style="width: 100%; height: 100%; transform: translate3d(0,0,0);" preserveAspectRatio="xMidYMid meet"><defs><clipPath id="__lottie_element_54188"><rect width="512" height="512" x="0" y="0"></rect></clipPath></defs><g clip-path="url(#__lottie_element_54188)"><g style="display: block;" transform="matrix(1,0,0,1,0,0)" opacity="1"><g opacity="1" transform="matrix(1,0,0,1,461.77301025390625,176.79200744628906)"><path fill="rgb(65,63,63)" fill-opacity="1" d=" M20.238000869750977,-123.08200073242188 C-25.299999237060547,-148.51300048828125 -43.28099822998047,-94.61100006103516 -47.29499816894531,-50.15599822998047 C-49.305999755859375,-11.11299991607666 -50.22700119018555,28.19499969482422 -48.12300109863281,67.26200103759766 C-47.012001037597656,87.88600158691406 -46.32699966430664,111.875 -38.729000091552734,130.99400329589844 C-32.96500015258789,145.4969940185547 -17.56100082397461,148.51300048828125 -7.4079999923706055,138.11000061035156 C15.95300006866455,114.18299865722656 43.70100021362305,9.609999656677246 48.28099822998047,-27.30699920654297 C52.70600128173828,-62.97600173950195 51.935001373291016,-105.37899780273438 20.238000869750977,-123.08200073242188z"></path></g><g opacity="1" transform="matrix(1,0,0,1,200.0919952392578,255.19700622558594)"><path fill="rgb(65,63,63)" fill-opacity="1" d=" M184.1929931640625,-86.87200164794922 C170.2449951171875,-131.87100219726562 146.71200561523438,-161.0760040283203 116.13700103759766,-171.32400512695312 C93.60299682617188,-178.88800048828125 51.625,-177.36500549316406 29.18000030517578,-135.46299743652344 C38.15800094604492,-168.63499450683594 35.849998474121094,-182.60699462890625 27.683000564575195,-194.82400512695312 C17.766000747680664,-209.6649932861328 4.835999965667725,-213.75399780273438 -10.725000381469727,-206.98599243164062 C-39.49300003051758,-194.48899841308594 -69.11399841308594,-118.44400024414062 -77.50800323486328,-95.43499755859375 C-78.41600036621094,-92.94400024414062 -80.00800323486328,-87.4800033569336 -82.02400207519531,-80.56199645996094 C-84.8010025024414,-71.03099822998047 -90.18099975585938,-52.57099914550781 -93.12899780273438,-45.637001037597656 C-94.36599731445312,-46.19599914550781 -95.53800201416016,-46.854000091552734 -96.5469970703125,-47.68000030517578 C-108.99299621582031,-57.875 -117.51200103759766,-106.18199920654297 -123.1500015258789,-138.14700317382812 C-125.77200317382812,-153.02000427246094 -128.03599548339844,-165.86300659179688 -130.36000061035156,-174.4409942626953 C-137.3040008544922,-200.08099365234375 -146.61199951171875,-214.23199462890625 -158.0279998779297,-216.49899291992188 C-167.68499755859375,-218.4149932861328 -177.69000244140625,-211.4669952392578 -187.73300170898438,-195.83399963378906 C-214.7050018310547,-153.85800170898438 -191.48500061035156,-90.38999938964844 -175.24400329589844,-56.29399871826172 C-159.7570037841797,-23.785999298095703 -139.63299560546875,1.0470000505447388 -112.08100128173828,21.573999404907227 C-120.7040023803711,72.5469970703125 -133.61000061035156,154.13900756835938 -104.29299926757812,198.05999755859375 C-95.6449966430664,211.01499938964844 -83.91400146484375,218.4149932861328 -72.5999984741211,218.4149932861328 C-70.69000244140625,218.4149932861328 -68.79199981689453,218.20399475097656 -66.9229965209961,217.77200317382812 C-55.64699935913086,215.1750030517578 -47.37900161743164,205.12899780273438 -43.643001556396484,189.48399353027344 C-38.117000579833984,166.35499572753906 -41.97999954223633,136.83099365234375 -46.07099914550781,105.5719985961914 C-49.64400100708008,78.26599884033203 -53.33700180053711,50.047000885009766 -49.96799850463867,27.698999404907227 C-49.96799850463867,27.698999404907227 -30.674999237060547,-23.724000930786133 -5.985000133514404,-64.75299835205078 C-5.940999984741211,-64.73799896240234 -15.928000450134277,-35.92399978637695 -19.639999389648438,0.7179999947547913 C-29.365999221801758,96.74299621582031 -6.580999851226807,148.87899780273438 19.316999435424805,180.281005859375 C35.4640007019043,199.85699462890625 55.87300109863281,209.78399658203125 79.9800033569336,209.78399658203125 C150.15699768066406,209.78399658203125 185.44700622558594,123.6969985961914 194.34500122070312,49.97600173950195 C200.0919952392578,2.365999937057495 196.39100646972656,-47.513999938964844 184.1929931640625,-86.87200164794922z M119.35299682617188,100.72100067138672 C103.79399871826172,127.8239974975586 88.02899932861328,135.61000061035156 72.51200103759766,123.87999725341797 C50.858001708984375,107.51300048828125 38.54800033569336,52.03200149536133 43.87699890136719,-5.175000190734863 C48.44599914550781,-54.2130012512207 64.15299987792969,-89.16000366210938 85.89600372314453,-98.66200256347656 C100.86900329589844,-105.1989974975586 113.16400146484375,-96.35099792480469 124.5719985961914,-70.79199981689453 C146.68299865722656,-21.253000259399414 144.29200744628906,57.28900146484375 119.35299682617188,100.72100067138672z"></path></g><g opacity="1" transform="matrix(1,0,0,1,428.7950134277344,408.1369934082031)"><path fill="rgb(65,63,63)" fill-opacity="1" d=" M30.113000869750977,-38.71099853515625 C22.22800064086914,-51.92100143432617 10.137999534606934,-58.15700149536133 -3.9539999961853027,-56.316001892089844 C-23.145000457763672,-53.78200149536133 -42.25699996948242,-29.89699935913086 -39.87699890136719,9.381999969482422 C-38.097999572753906,38.72700119018555 -23.27400016784668,58.15800094604492 -2.8420000076293945,58.15800094604492 C-2.4830000400543213,58.15800094604492 -2.122999906539917,58.14899826049805 -1.7589999437332153,58.13800048828125 C13.196000099182129,57.638999938964844 25.45199966430664,48.0620002746582 32.75199890136719,31.17099952697754 C42.257999420166016,9.173999786376953 41.14799880981445,-20.216999053955078 30.113000869750977,-38.71099853515625z"></path></g></g></g></svg>