<svg xmlns="http://www.w3.org/2000/svg" xmlns:xlink="http://www.w3.org/1999/xlink" viewBox="0 0 512 512" width="512" height="512" style="width: 100%; height: 100%; transform: translate3d(0,0,0);" preserveAspectRatio="xMidYMid meet"><defs><clipPath id="__lottie_element_53939"><rect width="512" height="512" x="0" y="0"></rect></clipPath></defs><g clip-path="url(#__lottie_element_53939)"><g style="display: block;" transform="matrix(1,0,0,1,254.6840057373047,252.6999969482422)" opacity="1"><g opacity="1" transform="matrix(1,0,0,1,0,0)"><path fill="rgb(0,0,0)" fill-opacity="1" d=" M-38.97800064086914,-107.65799713134766 C-21.746000289916992,-123.9729995727539 -13.392999649047852,-141.50399780273438 1.5839999914169312,-158.79600524902344 C6.109000205993652,-164.40499877929688 7.063000202178955,-169.38600158691406 4.230999946594238,-176.10000610351562 C-5.275000095367432,-201.43499755859375 -2.0199999809265137,-242.95899963378906 29.386999130249023,-248.08200073242188 C71.7959976196289,-257.4110107421875 86.50800323486328,-210.697998046875 90.80000305175781,-177.59300231933594 C96.7300033569336,-145.21099853515625 67.51799774169922,-123.19100189208984 52.143001556396484,-98.22200012207031 C57.75600051879883,-93.71399688720703 90.58599853515625,-115.19100189208984 99.23699951171875,-118.27999877929688 C101.41300201416016,-119.36599731445312 102.74099731445312,-121.302001953125 104.00299835205078,-123.39600372314453 C111.08599853515625,-135.1479949951172 123.36599731445312,-136.7530059814453 133.20399475097656,-127.29499816894531 C140.4550018310547,-118.60800170898438 149.4669952392578,-111.86100006103516 160.73699951171875,-117.96199798583984 C164.6750030517578,-119.80899810791016 168.71299743652344,-121.44400024414062 172.66400146484375,-123.26699829101562 C181.09800720214844,-127.88400268554688 191.63499450683594,-118.91799926757812 187.44000244140625,-110.02899932861328 C182.50599670410156,-93.30400085449219 176.4709930419922,-76.99500274658203 168.9510040283203,-61.25600051879883 C158.52099609375,-41.66999816894531 136.91200256347656,-38.62799835205078 119.61599731445312,-24.81399917602539 C131.81900024414062,-22.655000686645508 142.60699462890625,-23.00200080871582 153.33900451660156,-24.075000762939453 C158.38299560546875,-24.57900047302246 161.1320037841797,-29.19300079345703 164.56399536132812,-32.391998291015625 C189.2010040283203,-61.84400177001953 247.18899536132812,-65.67500305175781 241.48800659179688,-14.758999824523926 C235.9429931640625,13.979999542236328 215.0749969482422,36.56999969482422 196.17300415039062,57.724998474121094 C186.656005859375,67.74800109863281 175.14999389648438,71.35299682617188 161.63699340820312,68.4749984741211 C152.74099731445312,66.58000183105469 143.92100524902344,64.23400115966797 134.9530029296875,62.80699920654297 C127.13300323486328,61.5620002746582 122.25900268554688,57.84299850463867 119.18499755859375,50.430999755859375 C105.27799987792969,11.411999702453613 62.058998107910156,-31.917999267578125 20.042999267578125,-2.003999948501587 C14.105999946594238,3.066999912261963 8.819999694824219,2.937999963760376 1.6950000524520874,0.9589999914169312 C-23.708999633789062,-6.09499979019165 -49.18899917602539,-4.328999996185303 -74.44000244140625,2.4170000553131104 C-78.99299621582031,4.144999980926514 -86.93900299072266,5.78000020980835 -86.08100128173828,12.133000373840332 C-83.72000122070312,19.711000442504883 -72.55400085449219,14.663000106811523 -66.76100158691406,14.956999778747559 C-47.45000076293945,12.741000175476074 -28.134000778198242,11.72599983215332 -8.913000106811523,15.555000305175781 C4.244999885559082,18.176000595092773 4.330999851226807,18.32900047302246 5.738999843597412,31.20199966430664 C7.307000160217285,45.534000396728516 14.8100004196167,56.21799850463867 25.86400032043457,64.79199981689453 C27.39699935913086,65.98100280761719 29.298999786376953,67.34300231933594 31.277999877929688,66.14800262451172 C41.334999084472656,56.930999755859375 -5.1620001792907715,23.71299934387207 32.59199905395508,4.257999897003174 C61.691001892089844,-10.718000411987305 89.4020004272461,14.333000183105469 102.0989990234375,39.17499923706055 C109.3219985961914,52.80099868774414 116.4229965209961,66.52400207519531 122.80699920654297,80.55500030517578 C133.2209930419922,103.4469985961914 118.84100341796875,133.2550048828125 94.00499725341797,136.1699981689453 C68.26799774169922,139.1909942626953 43.553001403808594,144.90199279785156 19.08300018310547,152.9080047607422 C-0.9190000295639038,159.1479949951172 -22.156999588012695,151.61599731445312 -40.641998291015625,143.6009979248047 C-44.91899871826172,141.5469970703125 -48.637001037597656,141.07400512695312 -52.53499984741211,144.72900390625 C-82.23300170898438,171.26600646972656 -100.35199737548828,136.04600524902344 -109.0459976196289,154.48899841308594 C-118.48799896240234,169.14300537109375 -130.56199645996094,182.71800231933594 -125.27200317382812,201.8090057373047 C-116.2030029296875,234.01400756835938 -150.88099670410156,267.25799560546875 -177.73699951171875,238.0240020751953 C-191.65899658203125,223.21400451660156 -182.92300415039062,203.44900512695312 -204.8769989013672,208.29100036621094 C-260.2640075683594,209.88099670410156 -251.7899932861328,145.7259979248047 -190.70799255371094,146.69500732421875 C-179.54800415039062,148.11300659179688 -172.04200744628906,143.80499267578125 -166.7220001220703,133.79299926757812 C-162.47300720214844,125.7969970703125 -156.8939971923828,118.48999786376953 -151.6999969482422,111.02100372314453 C-148.86000061035156,106.93699645996094 -147.9550018310547,103.65699768066406 -152.41200256347656,99.81199645996094 C-161.94700622558594,91.58499908447266 -164.1179962158203,81.2040023803711 -159.01699829101562,69.80599975585938 C-156.60499572753906,64.41600036621094 -158.54400634765625,61.0359992980957 -161.8090057373047,57.09600067138672 C-174.72799682617188,41.50400161743164 -185.7729949951172,24.757999420166016 -194.01699829101562,6.114999771118164 C-234.44500732421875,-87.2770004272461 -87.9209976196289,-108.23400115966797 -120.33300018310547,-138.16299438476562 C-129.4459991455078,-147.8780059814453 -141.1230010986328,-156.05799865722656 -145.59300231933594,-169.1280059814453 C-151.5189971923828,-185.53399658203125 -144.57899475097656,-201.48399353027344 -128.50100708007812,-208.22300720214844 C-101.75,-218.14500427246094 -73.02100372314453,-205.91000366210938 -49.34600067138672,-193.24000549316406 C-15.586999893188477,-174.80999755859375 -35.4900016784668,-138.75999450683594 -38.97800064086914,-107.65799713134766z"></path></g><g opacity="1" transform="matrix(1,0,0,1,154.84500122070312,-174.97999572753906)"><path fill="rgb(0,0,0)" fill-opacity="1" d=" M43.051998138427734,11.751999855041504 C42.70600128173828,15.380000114440918 42.56399917602539,18.541000366210938 42.077999114990234,21.64900016784668 C40.595001220703125,31.1299991607666 40.266998291015625,31.60700035095215 30.983999252319336,28.3799991607666 C14.24899959564209,21.67799949645996 1.746000051498413,45.941001892089844 -11.82800006866455,27.086000442504883 C-23.836000442504883,9.878000259399414 -45.04800033569336,29.231000900268555 -42.9010009765625,15.237000465393066 C-36.70800018310547,-43.23099899291992 41.20399856567383,-56.96799850463867 43.051998138427734,11.751999855041504z"></path></g></g></g></svg>